<?xml version="1.0" encoding="utf-8"?>
<svg xmlns="http://www.w3.org/2000/svg" viewBox="0 0 50 50" fill="#000000"><path d="M 25 0 C 23.019531 0 21.226563 0.945313 18.75 2.25 C 15.558594 3.929688 11.183594 6.21875 3.78125 7.84375 L 3 8.03125 L 3 8.8125 C 3 39.277344 24.378906 49.496094 24.59375 49.59375 L 25.03125 49.8125 L 25.4375 49.59375 C 25.652344 49.484375 47 38.261719 47 8.8125 L 47 8.03125 L 46.21875 7.84375 C 38.816406 6.21875 34.441406 3.929688 31.25 2.25 C 28.773438 0.945313 26.980469 0 25 0 Z M 25 12 C 31.066406 12 36 16.933594 36 23 C 36 29.066406 31.066406 34 25 34 C 18.933594 34 14 29.066406 14 23 C 14 16.933594 18.933594 12 25 12 Z M 25 14 C 20.039063 14 16 18.039063 16 23 C 16 25.121094 16.734375 27.085938 17.96875 28.625 L 30.625 15.96875 C 29.085938 14.734375 27.121094 14 25 14 Z M 32.03125 17.375 L 19.375 30.03125 C 20.914063 31.265625 22.878906 32 25 32 C 29.964844 32 34 27.964844 34 23 C 34 20.878906 33.265625 18.914063 32.03125 17.375 Z" fill="#000000"/></svg>
