<?xml version="1.0" encoding="UTF-8"?>
<svg xmlns="http://www.w3.org/2000/svg" xmlns:xlink="http://www.w3.org/1999/xlink" width="32" height="32" viewBox="0 0 32 32" version="1.1">
<g id="surface1">
<path style=" stroke:none;fill-rule:nonzero;fill:rgb(0%,0%,0%);fill-opacity:1;" d="M 16 0 C 14.734375 0 13.585938 0.605469 12 1.441406 C 9.957031 2.515625 7.15625 3.980469 2.421875 5.019531 L 1.921875 5.140625 L 1.921875 5.640625 C 1.921875 25.136719 15.601562 31.675781 15.738281 31.738281 L 16.019531 31.878906 L 16.28125 31.738281 C 16.417969 31.671875 30.078125 24.488281 30.078125 5.640625 L 30.078125 5.140625 L 29.578125 5.019531 C 24.84375 3.980469 22.042969 2.515625 20 1.441406 C 18.414062 0.605469 17.265625 0 16 0 Z M 16 7.679688 C 19.882812 7.679688 23.039062 10.835938 23.039062 14.71875 C 23.039062 18.601562 19.882812 21.761719 16 21.761719 C 12.117188 21.761719 8.960938 18.601562 8.960938 14.71875 C 8.960938 10.835938 12.117188 7.679688 16 7.679688 Z M 16 8.960938 C 12.824219 8.960938 10.238281 11.546875 10.238281 14.71875 C 10.238281 16.078125 10.710938 17.335938 11.5 18.320312 L 19.601562 10.21875 C 18.613281 9.429688 17.359375 8.960938 16 8.960938 Z M 20.5 11.121094 L 12.398438 19.21875 C 13.386719 20.011719 14.640625 20.480469 16 20.480469 C 19.175781 20.480469 21.761719 17.898438 21.761719 14.71875 C 21.761719 13.363281 21.289062 12.105469 20.5 11.121094 Z M 20.5 11.121094 "/>
</g>
</svg>
