<?xml version="1.0" encoding="UTF-8"?>
<svg xmlns="http://www.w3.org/2000/svg" xmlns:xlink="http://www.w3.org/1999/xlink" width="83.348837" height="32" viewBox="0 0 83.348837 32" version="1.1">
<g id="surface1">
<path style=" stroke:none;fill-rule:nonzero;fill:rgb(0%,0%,0%);fill-opacity:1;" d="M 20.765625 16.902344 L 22.832031 16.902344 L 21.816406 13.703125 Z M 20.871094 11.847656 L 22.789062 11.847656 L 25.671875 19.972656 L 23.828125 19.972656 L 23.304688 18.300781 L 20.3125 18.300781 L 19.746094 19.972656 L 17.972656 19.972656 Z M 26.351562 15.976562 C 26.351562 14.558594 26.730469 13.460938 27.492188 12.695312 C 28.152344 12.027344 28.996094 11.691406 30.015625 11.691406 C 31.382812 11.691406 32.382812 12.140625 33.015625 13.039062 C 33.367188 13.539062 33.550781 14.046875 33.578125 14.550781 L 31.878906 14.550781 C 31.769531 14.164062 31.628906 13.871094 31.457031 13.671875 C 31.148438 13.320312 30.6875 13.140625 30.085938 13.140625 C 29.464844 13.140625 28.980469 13.390625 28.621094 13.890625 C 28.265625 14.386719 28.085938 15.09375 28.085938 16.003906 C 28.085938 16.914062 28.277344 17.597656 28.652344 18.050781 C 29.027344 18.503906 29.507812 18.734375 30.089844 18.734375 C 30.6875 18.734375 31.140625 18.539062 31.449219 18.148438 C 31.621094 17.9375 31.765625 17.625 31.878906 17.207031 L 33.5625 17.207031 C 33.414062 18.09375 33.039062 18.8125 32.4375 19.367188 C 31.832031 19.921875 31.054688 20.199219 30.109375 20.199219 C 28.941406 20.199219 28.023438 19.824219 27.355469 19.074219 C 26.6875 18.324219 26.351562 17.289062 26.351562 15.976562 Z M 40.761719 11.847656 L 40.761719 13.285156 L 38.332031 13.285156 L 38.332031 19.972656 L 36.621094 19.972656 L 36.621094 13.285156 L 34.179688 13.285156 L 34.179688 11.847656 Z M 43.3125 19.972656 L 41.621094 19.972656 L 41.621094 11.847656 L 43.3125 11.847656 Z M 49.652344 11.847656 L 51.414062 11.847656 L 48.640625 19.972656 L 47.039062 19.972656 L 44.289062 11.847656 L 46.105469 11.847656 L 47.871094 18.015625 Z M 58.433594 13.285156 L 54.132812 13.285156 L 54.132812 15.011719 L 58.082031 15.011719 L 58.082031 16.421875 L 54.132812 16.421875 L 54.132812 18.511719 L 58.632812 18.511719 L 58.632812 19.972656 L 52.472656 19.972656 L 52.472656 11.847656 L 58.433594 11.847656 Z M 17.6875 11.277344 "/>
<path style=" stroke:none;fill-rule:nonzero;fill:rgb(0%,0%,0%);fill-opacity:1;" d="M 21.742188 9.019531 L 22.589844 9.019531 L 22.171875 7.703125 Z M 21.78125 6.9375 L 22.574219 6.9375 L 23.757812 10.285156 L 23 10.285156 L 22.785156 9.597656 L 21.550781 9.597656 L 21.320312 10.285156 L 20.589844 10.285156 Z M 25.835938 9.046875 C 25.835938 8.859375 25.792969 8.6875 25.707031 8.539062 C 25.621094 8.394531 25.476562 8.320312 25.28125 8.320312 C 25.046875 8.320312 24.886719 8.433594 24.800781 8.652344 C 24.753906 8.773438 24.730469 8.921875 24.730469 9.105469 C 24.730469 9.390625 24.804688 9.59375 24.960938 9.710938 C 25.050781 9.777344 25.15625 9.8125 25.28125 9.8125 C 25.460938 9.8125 25.597656 9.746094 25.695312 9.605469 C 25.789062 9.464844 25.835938 9.277344 25.835938 9.046875 Z M 25.46875 7.753906 C 25.753906 7.753906 26.003906 7.863281 26.203125 8.074219 C 26.402344 8.289062 26.503906 8.601562 26.503906 9.015625 C 26.503906 9.449219 26.402344 9.785156 26.210938 10.011719 C 26.015625 10.242188 25.761719 10.355469 25.453125 10.355469 C 25.253906 10.355469 25.09375 10.304688 24.960938 10.207031 C 24.890625 10.152344 24.820312 10.074219 24.753906 9.96875 L 24.753906 11.257812 L 24.113281 11.257812 L 24.113281 7.8125 L 24.734375 7.8125 L 24.734375 8.175781 C 24.800781 8.066406 24.875 7.984375 24.953125 7.921875 C 25.097656 7.8125 25.269531 7.753906 25.46875 7.753906 Z M 28.335938 9.082031 C 28.292969 9.109375 28.253906 9.128906 28.210938 9.140625 C 28.171875 9.160156 28.113281 9.175781 28.039062 9.1875 L 27.894531 9.214844 C 27.757812 9.238281 27.660156 9.269531 27.601562 9.304688 C 27.503906 9.363281 27.449219 9.453125 27.449219 9.578125 C 27.449219 9.6875 27.484375 9.769531 27.542969 9.816406 C 27.605469 9.867188 27.679688 9.890625 27.765625 9.890625 C 27.90625 9.890625 28.035156 9.851562 28.152344 9.769531 C 28.269531 9.6875 28.332031 9.539062 28.335938 9.324219 Z M 27.941406 8.777344 C 28.0625 8.765625 28.148438 8.746094 28.199219 8.722656 C 28.289062 8.683594 28.335938 8.621094 28.335938 8.539062 C 28.335938 8.4375 28.300781 8.367188 28.234375 8.328125 C 28.164062 8.289062 28.058594 8.269531 27.921875 8.269531 C 27.769531 8.269531 27.660156 8.308594 27.597656 8.382812 C 27.550781 8.4375 27.519531 8.515625 27.503906 8.609375 L 26.878906 8.609375 C 26.894531 8.394531 26.957031 8.21875 27.0625 8.078125 C 27.234375 7.859375 27.527344 7.75 27.945312 7.75 C 28.214844 7.75 28.457031 7.804688 28.664062 7.914062 C 28.878906 8.019531 28.984375 8.222656 28.984375 8.519531 L 28.984375 9.65625 C 28.984375 9.734375 28.984375 9.832031 28.988281 9.941406 C 28.992188 10.027344 29.003906 10.085938 29.027344 10.113281 C 29.046875 10.144531 29.078125 10.167969 29.121094 10.1875 L 29.121094 10.285156 L 28.414062 10.285156 C 28.398438 10.234375 28.382812 10.1875 28.375 10.144531 C 28.371094 10.101562 28.363281 10.050781 28.359375 9.996094 C 28.265625 10.089844 28.164062 10.175781 28.050781 10.242188 C 27.910156 10.324219 27.753906 10.363281 27.574219 10.363281 C 27.351562 10.363281 27.167969 10.300781 27.019531 10.171875 C 26.875 10.042969 26.800781 9.859375 26.800781 9.625 C 26.800781 9.324219 26.917969 9.101562 27.152344 8.964844 C 27.28125 8.890625 27.472656 8.835938 27.722656 8.804688 Z M 31.035156 8.699219 C 31.023438 8.605469 30.996094 8.523438 30.941406 8.449219 C 30.871094 8.347656 30.757812 8.300781 30.605469 8.300781 C 30.386719 8.300781 30.238281 8.40625 30.15625 8.621094 C 30.113281 8.738281 30.09375 8.890625 30.09375 9.082031 C 30.09375 9.261719 30.117188 9.410156 30.15625 9.519531 C 30.234375 9.726562 30.378906 9.828125 30.59375 9.828125 C 30.746094 9.828125 30.851562 9.789062 30.914062 9.707031 C 30.980469 9.625 31.015625 9.515625 31.03125 9.386719 L 31.691406 9.386719 C 31.675781 9.585938 31.605469 9.769531 31.480469 9.949219 C 31.277344 10.230469 30.976562 10.371094 30.578125 10.371094 C 30.179688 10.371094 29.886719 10.253906 29.699219 10.015625 C 29.511719 9.78125 29.414062 9.472656 29.414062 9.097656 C 29.414062 8.671875 29.519531 8.339844 29.726562 8.105469 C 29.9375 7.871094 30.222656 7.75 30.585938 7.75 C 30.898438 7.75 31.152344 7.820312 31.347656 7.960938 C 31.546875 8.097656 31.664062 8.347656 31.699219 8.699219 Z M 33.507812 7.746094 C 33.664062 7.746094 33.800781 7.773438 33.925781 7.824219 C 34.050781 7.878906 34.152344 7.960938 34.234375 8.070312 C 34.300781 8.164062 34.34375 8.253906 34.359375 8.355469 C 34.375 8.449219 34.378906 8.609375 34.378906 8.832031 L 34.378906 10.285156 L 33.722656 10.285156 L 33.722656 8.777344 C 33.722656 8.644531 33.699219 8.539062 33.652344 8.457031 C 33.59375 8.34375 33.484375 8.285156 33.316406 8.285156 C 33.144531 8.285156 33.015625 8.339844 32.925781 8.457031 C 32.839844 8.570312 32.792969 8.734375 32.792969 8.945312 L 32.792969 10.285156 L 32.148438 10.285156 L 32.148438 6.949219 L 32.792969 6.949219 L 32.792969 8.128906 C 32.886719 7.988281 32.996094 7.890625 33.121094 7.832031 C 33.246094 7.773438 33.371094 7.746094 33.507812 7.746094 Z M 35.960938 8.277344 C 35.8125 8.277344 35.695312 8.324219 35.613281 8.417969 C 35.53125 8.511719 35.480469 8.640625 35.457031 8.800781 L 36.460938 8.800781 C 36.453125 8.628906 36.402344 8.5 36.308594 8.410156 C 36.214844 8.324219 36.097656 8.277344 35.960938 8.277344 Z M 35.960938 7.746094 C 36.167969 7.746094 36.351562 7.78125 36.515625 7.859375 C 36.683594 7.9375 36.820312 8.058594 36.925781 8.226562 C 37.023438 8.371094 37.085938 8.542969 37.117188 8.734375 C 37.128906 8.847656 37.140625 9.015625 37.136719 9.226562 L 35.441406 9.226562 C 35.449219 9.472656 35.527344 9.648438 35.675781 9.75 C 35.765625 9.8125 35.871094 9.84375 35.996094 9.84375 C 36.128906 9.84375 36.238281 9.804688 36.324219 9.730469 C 36.371094 9.6875 36.40625 9.628906 36.441406 9.558594 L 37.105469 9.558594 C 37.085938 9.707031 37.011719 9.855469 36.875 10.003906 C 36.664062 10.246094 36.367188 10.367188 35.984375 10.367188 C 35.667969 10.367188 35.390625 10.265625 35.152344 10.0625 C 34.910156 9.859375 34.789062 9.527344 34.789062 9.074219 C 34.789062 8.644531 34.898438 8.316406 35.117188 8.085938 C 35.335938 7.859375 35.617188 7.746094 35.960938 7.746094 Z M 20.472656 6.703125 "/>
<path style=" stroke:none;fill-rule:nonzero;fill:rgb(75.686276%,15.294118%,40.000001%);fill-opacity:1;" d="M 70.746094 11.847656 L 73.1875 11.847656 L 73.1875 19.972656 L 71.609375 19.972656 L 71.609375 14.476562 C 71.609375 14.320312 71.609375 14.097656 71.613281 13.8125 C 71.617188 13.527344 71.621094 13.308594 71.621094 13.152344 L 70.082031 19.972656 L 68.429688 19.972656 L 66.902344 13.152344 C 66.902344 13.308594 66.90625 13.527344 66.910156 13.8125 C 66.914062 14.097656 66.914062 14.316406 66.914062 14.476562 L 66.914062 19.972656 L 65.332031 19.972656 L 65.332031 11.847656 L 67.800781 11.847656 L 69.28125 18.234375 Z M 78.347656 18.761719 C 78.539062 18.761719 78.726562 18.734375 78.90625 18.6875 C 79.003906 18.664062 79.132812 18.617188 79.289062 18.550781 L 78.46875 17.765625 L 79.34375 16.851562 L 80.164062 17.636719 C 80.292969 17.371094 80.382812 17.140625 80.4375 16.941406 C 80.515625 16.640625 80.558594 16.296875 80.558594 15.898438 C 80.558594 14.988281 80.371094 14.28125 79.996094 13.785156 C 79.625 13.289062 79.078125 13.039062 78.363281 13.039062 C 77.6875 13.039062 77.152344 13.277344 76.753906 13.753906 C 76.351562 14.234375 76.152344 14.949219 76.152344 15.898438 C 76.152344 17.011719 76.4375 17.8125 77.011719 18.289062 C 77.382812 18.605469 77.828125 18.761719 78.347656 18.761719 Z M 82.253906 15.777344 C 82.253906 16.5 82.164062 17.109375 81.992188 17.597656 C 81.847656 18.0625 81.636719 18.449219 81.359375 18.761719 L 82.292969 19.636719 L 81.40625 20.5625 L 80.425781 19.636719 C 80.128906 19.816406 79.871094 19.945312 79.652344 20.015625 C 79.289062 20.140625 78.851562 20.199219 78.347656 20.199219 C 77.289062 20.199219 76.414062 19.882812 75.722656 19.253906 C 74.882812 18.492188 74.464844 17.371094 74.464844 15.898438 C 74.464844 14.414062 74.894531 13.289062 75.753906 12.527344 C 76.457031 11.90625 77.328125 11.597656 78.371094 11.597656 C 79.425781 11.597656 80.308594 11.925781 81.019531 12.585938 C 81.84375 13.347656 82.253906 14.410156 82.253906 15.777344 Z M 64.5 11.277344 "/>
<path style=" stroke:none;fill-rule:nonzero;fill:rgb(75.686276%,15.294118%,40.000001%);fill-opacity:1;" d="M 15.992188 18.351562 L 10.917969 18.335938 L 8.394531 13.933594 L 10.945312 9.546875 L 16.019531 9.5625 L 18.542969 13.964844 Z M 15.992188 18.351562 "/>
<path style=" stroke:none;fill-rule:nonzero;fill:rgb(24.313726%,28.235295%,62.352943%);fill-opacity:1;" d="M 7.96875 22.953125 L 2.894531 22.9375 L 0.371094 18.535156 L 2.921875 14.148438 L 7.996094 14.164062 L 10.519531 18.566406 Z M 7.96875 22.953125 "/>
<path style=" stroke:none;fill-rule:nonzero;fill:rgb(44.313726%,25.098041%,60.000002%);fill-opacity:1;" d="M 15.941406 27.578125 L 10.867188 27.5625 L 8.34375 23.160156 L 10.894531 18.773438 L 15.96875 18.789062 L 18.492188 23.191406 Z M 15.941406 27.578125 "/>
<path style=" stroke:none;fill-rule:nonzero;fill:rgb(47.058824%,57.647061%,17.254902%);fill-opacity:1;" d="M 8.011719 13.785156 L 2.9375 13.769531 L 0.414062 9.367188 L 2.964844 4.980469 L 8.039062 4.996094 L 10.5625 9.398438 Z M 8.011719 13.785156 "/>
<path style=" stroke:none;fill-rule:nonzero;fill:rgb(81.176472%,14.117648%,16.470589%);fill-opacity:1;" d="M 15.988281 9.175781 L 10.914062 9.160156 L 8.390625 4.757812 L 10.941406 0.371094 L 16.015625 0.386719 L 18.539062 4.789062 Z M 15.988281 9.175781 "/>
<path style=" stroke:none;fill-rule:nonzero;fill:rgb(100%,100%,100%);fill-opacity:1;" d="M 12.695312 4.773438 C 12.695312 4.351562 13.039062 4.003906 13.464844 4.003906 C 13.886719 4.003906 14.234375 4.351562 14.234375 4.773438 C 14.234375 5.199219 13.886719 5.542969 13.464844 5.542969 C 13.039062 5.542969 12.695312 5.199219 12.695312 4.773438 Z M 12.695312 4.773438 "/>
<path style=" stroke:none;fill-rule:nonzero;fill:rgb(100%,100%,100%);fill-opacity:1;" d="M 4.71875 9.382812 C 4.71875 8.957031 5.0625 8.613281 5.488281 8.613281 C 5.914062 8.613281 6.257812 8.957031 6.257812 9.382812 C 6.257812 9.808594 5.914062 10.152344 5.488281 10.152344 C 5.0625 10.152344 4.71875 9.808594 4.71875 9.382812 Z M 4.71875 9.382812 "/>
<path style=" stroke:none;fill-rule:nonzero;fill:rgb(100%,100%,100%);fill-opacity:1;" d="M 4.679688 18.550781 C 4.679688 18.125 5.023438 17.78125 5.445312 17.78125 C 5.871094 17.78125 6.214844 18.125 6.214844 18.550781 C 6.214844 18.976562 5.871094 19.320312 5.445312 19.320312 C 5.023438 19.320312 4.679688 18.976562 4.679688 18.550781 Z M 4.679688 18.550781 "/>
<path style=" stroke:none;fill-rule:nonzero;fill:rgb(100%,100%,100%);fill-opacity:1;" d="M 12.648438 23.175781 C 12.648438 22.75 12.992188 22.40625 13.417969 22.40625 C 13.84375 22.40625 14.1875 22.75 14.1875 23.175781 C 14.1875 23.601562 13.84375 23.945312 13.417969 23.945312 C 12.992188 23.945312 12.648438 23.601562 12.648438 23.175781 Z M 12.648438 23.175781 "/>
<path style="fill:none;stroke-width:0.345;stroke-linecap:round;stroke-linejoin:round;stroke:rgb(100%,100%,100%);stroke-opacity:1;stroke-miterlimit:4;" d="M 16.937256 6.203003 L 7.557251 11.583252 M 6.838135 12.916504 L 6.869629 23.729492 M 7.583496 24.879028 L 16.879517 30.401001 " transform="matrix(0.744186,0,0,0.744186,0.372093,0.372093)"/>
<path style=" stroke:none;fill-rule:nonzero;fill:rgb(100%,100%,100%);fill-opacity:1;" d="M 12.699219 13.949219 C 12.699219 13.523438 13.042969 13.179688 13.46875 13.179688 C 13.890625 13.179688 14.234375 13.523438 14.234375 13.949219 C 14.234375 14.375 13.890625 14.71875 13.46875 14.71875 C 13.042969 14.71875 12.699219 14.375 12.699219 13.949219 Z M 12.699219 13.949219 "/>
<path style="fill:none;stroke-width:0.345;stroke-linecap:round;stroke-linejoin:round;stroke:rgb(100%,100%,100%);stroke-opacity:1;stroke-miterlimit:4;" d="M 17.556641 6.643921 L 17.593384 17.456909 M 17.619629 19.036865 L 17.651123 29.849854 M 16.953003 18.63269 L 7.572998 24.00769 M 7.61499 12.55957 L 16.911011 18.086792 " transform="matrix(0.744186,0,0,0.744186,0.372093,0.372093)"/>
</g>
</svg>
