<svg role="img" viewBox="0 0 22.113 32" xmlns="http://www.w3.org/2000/svg"><path d="m17.91 20.406-5.367-.015-2.668-4.657 2.695-4.64 5.368.02 2.667 4.652Zm0 0" style="stroke:none;fill-rule:nonzero;fill:rgb(75.686276%,15.294118%,40.000001%);fill-opacity:1"/><path d="m9.43 25.273-5.367-.015-2.668-4.656L4.09 15.96l5.367.02 2.668 4.652Zm0 0" style="stroke:none;fill-rule:nonzero;fill:rgb(24.313726%,28.235295%,62.352943%);fill-opacity:1"/><path d="m17.86 30.164-5.368-.02-2.668-4.652 2.696-4.64 5.367.015 2.668 4.656Zm0 0" style="stroke:none;fill-rule:nonzero;fill:rgb(44.313726%,25.098041%,60.000002%);fill-opacity:1"/><path d="m9.477 15.582-5.368-.016-2.668-4.656 2.696-4.637 5.367.016 2.668 4.656Zm0 0" style="stroke:none;fill-rule:nonzero;fill:rgb(47.058824%,57.647061%,17.254902%);fill-opacity:1"/><path d="m17.902 10.703-5.367-.015L9.867 6.03l2.695-4.636 5.368.015 2.668 4.656Zm0 0" style="stroke:none;fill-rule:nonzero;fill:rgb(81.176472%,14.117648%,16.470589%);fill-opacity:1"/><path d="M14.422 6.055c0-.45.363-.813.816-.813a.812.812 0 1 1 0 1.625.813.813 0 0 1-.816-.812m-8.43 4.871a.814.814 0 1 1 1.63 0 .812.812 0 0 1-.813.812.813.813 0 0 1-.817-.812m-.042 9.695a.814.814 0 1 1 .813.813.812.812 0 0 1-.814-.813m8.426 4.887a.813.813 0 1 1 1.625 0 .812.812 0 1 1-1.625 0m0 0" style="stroke:none;fill-rule:nonzero;fill:rgb(100%,100%,100%);fill-opacity:1"/><path d="M29.666 10.875 13.239 20.28m-1.27 2.338.07 18.94m1.234 2.007 16.28 9.683" style="fill:none;stroke-width:0.602;stroke-linecap:round;stroke-linejoin:round;stroke:rgb(100%,100%,100%);stroke-opacity:1;stroke-miterlimit:4" transform="translate(1.394 1.394)scale(.44942)"/><path d="M14.426 15.754a.814.814 0 1 1 1.629 0c0 .45-.364.812-.813.812a.813.813 0 0 1-.816-.812m0 0" style="stroke:none;fill-rule:nonzero;fill:rgb(100%,100%,100%);fill-opacity:1"/><path d="m30.744 11.64.07 18.93m.025 2.774.061 18.93m-1.217-19.582-16.418 9.404m.07-20.034 16.279 9.682" style="fill:none;stroke-width:0.602;stroke-linecap:round;stroke-linejoin:round;stroke:rgb(100%,100%,100%);stroke-opacity:1;stroke-miterlimit:4" transform="translate(1.394 1.394)scale(.44942)"/></svg>