<?xml version="1.0" encoding="UTF-8"?>
<svg xmlns="http://www.w3.org/2000/svg" xmlns:xlink="http://www.w3.org/1999/xlink" width="22.112775" height="32" viewBox="0 0 22.112775 32" version="1.1">
<g id="surface1">
<path style=" stroke:none;fill-rule:nonzero;fill:rgb(75.686276%,15.294118%,40.000001%);fill-opacity:1;" d="M 17.910156 20.40625 L 12.542969 20.390625 L 9.875 15.734375 L 12.570312 11.09375 L 17.9375 11.113281 L 20.605469 15.765625 Z M 17.910156 20.40625 "/>
<path style=" stroke:none;fill-rule:nonzero;fill:rgb(24.313726%,28.235295%,62.352943%);fill-opacity:1;" d="M 9.429688 25.273438 L 4.0625 25.257812 L 1.394531 20.601562 L 4.089844 15.960938 L 9.457031 15.980469 L 12.125 20.632812 Z M 9.429688 25.273438 "/>
<path style=" stroke:none;fill-rule:nonzero;fill:rgb(44.313726%,25.098041%,60.000002%);fill-opacity:1;" d="M 17.859375 30.164062 L 12.492188 30.144531 L 9.824219 25.492188 L 12.519531 20.851562 L 17.886719 20.867188 L 20.554688 25.523438 Z M 17.859375 30.164062 "/>
<path style=" stroke:none;fill-rule:nonzero;fill:rgb(47.058824%,57.647061%,17.254902%);fill-opacity:1;" d="M 9.476562 15.582031 L 4.109375 15.566406 L 1.441406 10.910156 L 4.136719 6.273438 L 9.503906 6.289062 L 12.171875 10.945312 Z M 9.476562 15.582031 "/>
<path style=" stroke:none;fill-rule:nonzero;fill:rgb(81.176472%,14.117648%,16.470589%);fill-opacity:1;" d="M 17.902344 10.703125 L 12.535156 10.6875 L 9.867188 6.03125 L 12.5625 1.394531 L 17.929688 1.410156 L 20.597656 6.066406 Z M 17.902344 10.703125 "/>
<path style=" stroke:none;fill-rule:nonzero;fill:rgb(100%,100%,100%);fill-opacity:1;" d="M 14.421875 6.054688 C 14.421875 5.605469 14.785156 5.242188 15.238281 5.242188 C 15.6875 5.242188 16.050781 5.605469 16.050781 6.054688 C 16.050781 6.503906 15.6875 6.867188 15.238281 6.867188 C 14.785156 6.867188 14.421875 6.503906 14.421875 6.054688 Z M 14.421875 6.054688 "/>
<path style=" stroke:none;fill-rule:nonzero;fill:rgb(100%,100%,100%);fill-opacity:1;" d="M 5.992188 10.925781 C 5.992188 10.472656 6.355469 10.109375 6.808594 10.109375 C 7.257812 10.109375 7.621094 10.472656 7.621094 10.925781 C 7.621094 11.375 7.257812 11.738281 6.808594 11.738281 C 6.355469 11.738281 5.992188 11.375 5.992188 10.925781 Z M 5.992188 10.925781 "/>
<path style=" stroke:none;fill-rule:nonzero;fill:rgb(100%,100%,100%);fill-opacity:1;" d="M 5.949219 20.621094 C 5.949219 20.167969 6.3125 19.804688 6.761719 19.804688 C 7.214844 19.804688 7.578125 20.167969 7.578125 20.621094 C 7.578125 21.070312 7.214844 21.433594 6.761719 21.433594 C 6.3125 21.433594 5.949219 21.070312 5.949219 20.621094 Z M 5.949219 20.621094 "/>
<path style=" stroke:none;fill-rule:nonzero;fill:rgb(100%,100%,100%);fill-opacity:1;" d="M 14.375 25.507812 C 14.375 25.054688 14.738281 24.691406 15.1875 24.691406 C 15.636719 24.691406 16 25.054688 16 25.507812 C 16 25.957031 15.636719 26.320312 15.1875 26.320312 C 14.738281 26.320312 14.375 25.957031 14.375 25.507812 Z M 14.375 25.507812 "/>
<path style="fill:none;stroke-width:0.602;stroke-linecap:round;stroke-linejoin:round;stroke:rgb(100%,100%,100%);stroke-opacity:1;stroke-miterlimit:4;" d="M 29.665984 10.875371 L 13.238533 20.279869 M 11.969534 22.617956 L 12.039068 41.557329 M 13.2733 43.565128 L 29.55299 53.247763 " transform="matrix(0.449419,0,0,0.449419,1.394099,1.393649)"/>
<path style=" stroke:none;fill-rule:nonzero;fill:rgb(100%,100%,100%);fill-opacity:1;" d="M 14.425781 15.753906 C 14.425781 15.300781 14.789062 14.9375 15.242188 14.9375 C 15.691406 14.9375 16.054688 15.300781 16.054688 15.753906 C 16.054688 16.203125 15.691406 16.566406 15.242188 16.566406 C 14.789062 16.566406 14.425781 16.203125 14.425781 15.753906 Z M 14.425781 15.753906 "/>
<path style="fill:none;stroke-width:0.602;stroke-linecap:round;stroke-linejoin:round;stroke:rgb(100%,100%,100%);stroke-opacity:1;stroke-miterlimit:4;" d="M 30.743763 11.640247 L 30.813298 30.570928 M 30.839373 33.343603 L 30.900215 52.274285 M 29.683367 32.69172 L 13.264608 42.096219 M 13.334142 22.061682 L 29.613833 31.744317 " transform="matrix(0.449419,0,0,0.449419,1.394099,1.393649)"/>
</g>
</svg>
