<svg xmlns="http://www.w3.org/2000/svg" xmlns:xlink="http://www.w3.org/1999/xlink" viewBox="0 0 112 43" fill="#fff" fill-rule="evenodd" stroke="#000" stroke-linecap="round" stroke-linejoin="round" font-family="Roboto" font-size="14" text-anchor="middle"><use xlink:href="#A" x=".5" y=".5"/><symbol id="A" overflow="visible"><text fill="#000" font-size="15.175" font-weight="bold" stroke="none"><tspan x="51.088" y="26.341">ACTIVE</tspan></text><text fill="#000" font-size="6.249" font-weight="bold" stroke="none"><tspan x="38.291" y="13.321">Apache</tspan></text><text fill="#c12766" font-size="15.175" font-weight="bold" stroke="none"><tspan x="98.393" y="26.341">MQ</tspan></text><g stroke="none" fill-rule="nonzero"><use xlink:href="#C" fill="#c12766"/><path d="M10.21 30.345l-6.819-.021L0 24.408l3.428-5.895 6.819.021 3.391 5.916z" fill="#3e489f"/><use xlink:href="#C" x="-0.067" y="12.396" fill="#714099"/><use xlink:href="#C" x="-10.721" y="-6.138" fill="#78932c"/><path d="M20.983 11.832l-6.819-.021-3.391-5.916L14.201 0l6.819.021 3.391 5.916z" fill="#cf242a"/><use xlink:href="#D"/><use xlink:href="#D" x="-10.716" y="6.192"/><use xlink:href="#D" x="-10.772" y="18.512"/><use xlink:href="#D" x="-0.061" y="24.726"/></g><path d="M16.939 6.205l-9.383 5.376m-.719 1.335l.032 10.814m.712 1.15l9.297 5.523" stroke="#fff" fill="none" stroke-width=".345"/><use xlink:href="#D" x="0.005" y="12.329" stroke="none" fill-rule="nonzero"/><path d="M17.559 6.642l.032 10.814m.028 1.582l.032 10.814m-.696-11.219l-9.383 5.376m.043-11.447l9.297 5.523" stroke="#fff" fill="none" stroke-width=".345"/></symbol><defs ><path id="C" d="M20.988 24.162l-6.819-.021-3.391-5.916 3.428-5.895 6.819.021 3.391 5.916z"/><path id="D" d="M16.558 5.916a1.03 1.03 0 1 1 2.067 0 1.03 1.03 0 1 1-2.067 0z"/></defs></svg>
