<svg xmlns="http://www.w3.org/2000/svg" xmlns:xlink="http://www.w3.org/1999/xlink" viewBox="0 0 49.203 71.203" fill="#fff" fill-rule="evenodd" stroke="#000" stroke-linecap="round" stroke-linejoin="round"><use xlink:href="#A" x="3.102" y="3.101"/><symbol id="A" overflow="visible"><g stroke="none" fill-rule="nonzero"><path d="M36.746 42.304l-11.941-.037-5.936-10.359 5.998-10.322 11.94.037 5.936 10.359z" fill="#c12766"/><path d="M17.877 53.134l-11.941-.037L0 42.738l5.998-10.322 11.941.037 5.936 10.359z" fill="#3e489f"/><path d="M36.634 64.014l-11.941-.037-5.936-10.359 5.998-10.322 11.941.037 5.936 10.359z" fill="#714099"/><path d="M17.982 31.573l-11.941-.037L.105 21.177l5.998-10.322 11.941.037 5.936 10.359z" fill="#78932c"/><path d="M36.734 20.718l-11.941-.037-5.936-10.359L24.855 0l11.94.037 5.936 10.359z" fill="#cf242a"/><use xlink:href="#C"/><use xlink:href="#C" x="-18.757" y="10.836"/><use xlink:href="#D"/><use xlink:href="#D" x="18.746" y="10.874"/></g><path d="M29.663 10.874l-16.425 9.41m-1.265 2.338l.062 18.931m1.241 2.016l16.276 9.676" stroke="#fff" fill="none" stroke-width=".602"/><use xlink:href="#C" x="0.006" y="21.58" stroke="none" fill-rule="nonzero"/><path d="M30.748 11.643l.062 18.931m.031 2.766l.062 18.931m-1.216-19.583l-16.425 9.41m.074-20.035l16.276 9.677" stroke="#fff" fill="none" stroke-width=".602"/></symbol><defs ><path id="C" d="M28.992 10.371c0-1.003.808-1.811 1.811-1.811s1.811.808 1.811 1.811-.808 1.811-1.811 1.811-1.811-.808-1.811-1.811z"/><path id="D" d="M10.135 42.781c0-1.004.808-1.811 1.811-1.811s1.811.808 1.811 1.811-.808 1.811-1.811 1.811-1.811-.808-1.811-1.811z"/></defs></svg>