<?xml version="1.0" encoding="UTF-8"?>
<svg xmlns="http://www.w3.org/2000/svg" xmlns:xlink="http://www.w3.org/1999/xlink" width="32" height="32" viewBox="0 0 32 32" version="1.1">
<g id="surface1">
<path style=" stroke:none;fill-rule:nonzero;fill:rgb(0%,0%,0%);fill-opacity:1;" d="M 21.121094 0.0585938 C 20.640625 0.0585938 20.183594 0.242188 19.839844 0.578125 L 16.398438 3.980469 L 17.28125 4.859375 C 17.53125 5.109375 17.53125 5.511719 17.28125 5.761719 C 17.167969 5.886719 17.007812 5.957031 16.839844 5.960938 C 16.667969 5.957031 16.5 5.886719 16.378906 5.761719 L 15.5 4.878906 L 0.5 19.78125 C 0.164062 20.117188 -0.0195312 20.566406 -0.0195312 21.058594 C -0.0195312 21.550781 0.164062 22 0.5 22.339844 L 2.5 24.320312 C 2.730469 24.550781 3.085938 24.585938 3.339844 24.378906 C 3.949219 23.890625 4.660156 23.621094 5.320312 23.621094 C 6.980469 23.621094 8.320312 24.960938 8.320312 26.621094 C 8.320312 27.335938 8.058594 28.027344 7.578125 28.558594 C 7.351562 28.8125 7.378906 29.199219 7.621094 29.441406 L 9.601562 31.421875 C 9.9375 31.753906 10.390625 31.960938 10.878906 31.960938 C 11.371094 31.960938 11.824219 31.753906 12.160156 31.421875 L 17.960938 25.621094 C 18.296875 29.191406 21.300781 32 24.960938 32 C 28.839844 32 32 28.839844 32 24.960938 C 32 21.300781 29.191406 18.296875 25.621094 17.960938 L 27.101562 16.480469 L 26.238281 15.621094 C 26.117188 15.5 26.050781 15.339844 26.050781 15.167969 C 26.050781 15 26.117188 14.835938 26.238281 14.71875 C 26.488281 14.46875 26.890625 14.46875 27.140625 14.71875 L 28 15.578125 L 31.398438 12.199219 C 31.753906 11.917969 31.96875 11.5 32 11.039062 C 32.042969 10.527344 31.859375 10.023438 31.5 9.660156 L 29.5 7.679688 C 29.277344 7.445312 28.914062 7.421875 28.660156 7.621094 C 28.085938 8.078125 27.449219 8.320312 26.761719 8.320312 C 25.101562 8.320312 23.738281 6.980469 23.738281 5.320312 C 23.738281 4.628906 23.980469 3.972656 24.441406 3.398438 C 24.636719 3.140625 24.609375 2.78125 24.378906 2.558594 L 22.398438 0.578125 C 22.058594 0.242188 21.597656 0.0546875 21.121094 0.0585938 M 18.621094 6.460938 C 18.78125 6.460938 18.953125 6.53125 19.078125 6.660156 L 19.980469 7.558594 C 20.230469 7.808594 20.230469 8.210938 19.980469 8.460938 C 19.855469 8.578125 19.691406 8.640625 19.519531 8.640625 C 19.355469 8.640625 19.195312 8.578125 19.078125 8.460938 L 18.179688 7.558594 C 18.058594 7.4375 17.992188 7.277344 17.992188 7.109375 C 17.992188 6.9375 18.058594 6.777344 18.179688 6.65625 C 18.292969 6.535156 18.453125 6.460938 18.621094 6.457031 M 21.320312 9.15625 C 21.484375 9.15625 21.65625 9.210938 21.78125 9.335938 L 22.679688 10.234375 C 22.929688 10.492188 22.929688 10.902344 22.679688 11.15625 C 22.554688 11.277344 22.390625 11.339844 22.21875 11.335938 C 22.046875 11.339844 21.882812 11.277344 21.761719 11.15625 L 20.859375 10.257812 C 20.609375 10.003906 20.609375 9.59375 20.859375 9.335938 C 20.984375 9.21875 21.148438 9.152344 21.320312 9.15625 M 24.019531 11.855469 C 24.183594 11.851562 24.34375 11.917969 24.460938 12.035156 L 25.359375 12.9375 C 25.609375 13.1875 25.609375 13.585938 25.359375 13.835938 C 25.246094 13.960938 25.089844 14.03125 24.921875 14.035156 C 24.746094 14.03125 24.582031 13.960938 24.460938 13.835938 L 23.558594 12.9375 C 23.4375 12.816406 23.371094 12.65625 23.371094 12.484375 C 23.371094 12.316406 23.4375 12.15625 23.558594 12.035156 C 23.683594 11.910156 23.859375 11.855469 24.019531 11.855469 M 24.957031 19.195312 C 26.488281 19.191406 27.953125 19.800781 29.035156 20.878906 C 30.113281 21.960938 30.71875 23.429688 30.71875 24.957031 C 30.71875 26.484375 30.113281 27.949219 29.035156 29.03125 C 27.953125 30.113281 26.488281 30.71875 24.960938 30.714844 C 23.429688 30.71875 21.964844 30.113281 20.882812 29.03125 C 19.800781 27.953125 19.195312 26.484375 19.195312 24.957031 C 19.195312 23.429688 19.800781 21.960938 20.882812 20.878906 C 21.964844 19.800781 23.429688 19.191406 24.960938 19.195312 M 24.898438 21.097656 C 24.871094 21.101562 24.84375 21.109375 24.820312 21.117188 C 24.519531 21.183594 24.3125 21.453125 24.320312 21.757812 L 24.320312 24.316406 L 21.699219 24.316406 C 21.347656 24.332031 21.074219 24.632812 21.089844 24.988281 C 21.109375 25.34375 21.410156 25.617188 21.761719 25.597656 L 24.320312 25.597656 L 24.320312 28.15625 C 24.316406 28.386719 24.4375 28.601562 24.636719 28.71875 C 24.835938 28.832031 25.082031 28.832031 25.28125 28.71875 C 25.480469 28.601562 25.605469 28.386719 25.601562 28.15625 L 25.601562 25.597656 L 28.160156 25.597656 C 28.390625 25.597656 28.605469 25.476562 28.722656 25.277344 C 28.839844 25.078125 28.839844 24.832031 28.722656 24.632812 C 28.605469 24.433594 28.390625 24.3125 28.160156 24.316406 L 25.601562 24.316406 L 25.601562 21.757812 C 25.609375 21.574219 25.535156 21.394531 25.398438 21.269531 C 25.265625 21.140625 25.082031 21.078125 24.898438 21.097656 M 24.898438 21.097656 "/>
</g>
</svg>
