<svg role="img" viewBox="0 0 32 32" xmlns="http://www.w3.org/2000/svg"><path d="M12.719.262c-2.356.039-4.074.761-5.117 2.136-1.239 1.633-1.465 4.094-.68 7.34-.29.356-.508.89-.422 1.602.172 1.41.719 1.988 1.18 2.219.218 1.109.832 2.355 1.422 2.941v.3c.003.65 0 1.212-.063 1.938-.39.903-1.695 1.43-3.2 2.024-2.5.98-5.605 2.195-5.839 6.078l-.04.68h17.38c1.219 2.636 3.89 4.48 6.98 4.48 4.235 0 7.68-3.445 7.68-7.68 0-4.234-3.445-7.68-7.68-7.68a7.662 7.662 0 0 0-6.34 3.34c-.457-.234-.832-.484-1.101-.78a1.597 1.597 0 0 1-.3-.462c-.063-.726-.044-1.289-.04-1.937V16.5c.574-.586 1.164-1.832 1.383-2.941.46-.23 1.008-.809 1.18-2.22.082-.698-.122-1.226-.403-1.577.375-1.27 1.133-4.551-.18-6.66-.55-.887-1.382-1.446-2.48-1.66-.605-.766-1.766-1.18-3.32-1.18m11.601 17.66a6.402 6.402 0 0 1 6.399 6.398 6.402 6.402 0 0 1-6.399 6.399 6.402 6.402 0 0 1-6.398-6.399 6.402 6.402 0 0 1 6.398-6.398m-.64 2.558v3.2h-3.2v1.28h3.2v3.2h1.28v-3.2h3.2v-1.28h-3.2v-3.2Zm-6.758 1.82c-.043.153-.09.305-.121.462.031-.16.078-.309.12-.461m-.242 1.302" style="stroke:none;fill-rule:nonzero;fill:rgb(0%,0%,0%);fill-opacity:1"/></svg>