<?xml version="1.0" encoding="utf-8"?>
<svg xmlns="http://www.w3.org/2000/svg" viewBox="0 0 50 50" fill="#000000"><path d="M 20.25 2 C 16.81 2 14.244937 2.9910625 12.710938 5.0390625 C 10.837938 7.5400625 10.520875 11.446766 11.671875 16.634766 C 11.231875 17.174766 10.912969 18.013516 11.042969 19.103516 C 11.302969 21.273516 12.131797 22.163437 12.841797 22.523438 C 13.171797 24.203437 14.090234 26.070469 14.990234 26.980469 C 14.990234 26.980469 15 29.5 14.875 30.625 C 14.275 32.005 12.319766 32.589766 10.009766 33.509766 C 6.1497656 35.049766 1.36 36.959453 1 42.939453 L 0.93945312 44 L 30.839844 44 C 32.389844 47.52 35.92 50 40 50 C 45.5 50 50 45.5 50 40 C 50 34.99 46.269219 30.809375 41.449219 30.109375 C 41.449219 30.109375 41.420156 30.099844 41.410156 30.089844 C 39.810156 29.379844 37.545 27.655 37.125 26.875 C 37 26 37.009766 23.869141 37.009766 23.869141 C 37.839766 23.109141 38.959609 21.550937 39.349609 19.960938 C 39.999609 19.610937 40.740703 18.780313 40.970703 16.820312 C 41.090703 15.830312 40.810156 15.060781 40.410156 14.550781 C 40.910156 12.330781 41.604391 8.0830781 39.900391 5.5800781 C 39.201391 4.5530781 38.180859 3.910625 36.880859 3.640625 C 36.020859 2.580625 34.409297 2 32.279297 2 C 30.699297 2 29.370469 2.2703125 28.230469 2.8203125 C 29.090469 3.3403125 29.830156 4.040625 30.410156 4.890625 C 32.150156 7.420625 32.500703 11.140469 31.470703 16.230469 C 31.930703 17.150469 32.110469 18.210078 31.980469 19.330078 C 31.700469 21.650078 30.840938 22.970703 29.960938 23.720703 C 29.540937 25.220703 28.81 26.750078 28 27.830078 C 28 28.560078 27.999063 29.199922 28.039062 29.919922 C 28.579062 30.499922 30.370938 31.200469 31.710938 31.730469 C 32.260937 31.940469 33.480469 32.439453 33.480469 32.439453 C 32.940469 32.899453 32.449531 33.43 32.019531 34 C 31.669531 33.86 31.330234 33.719844 30.990234 33.589844 C 28.680234 32.689844 26.725 31.995 26.125 30.625 C 26 29.5 26.009766 27.089844 26.009766 27.089844 C 26.909766 26.169844 27.849453 24.209766 28.189453 22.509766 C 28.899453 22.149766 29.730234 21.259844 29.990234 19.089844 C 30.120234 17.989844 29.789609 17.149375 29.349609 16.609375 C 29.869609 14.269375 30.849766 9.0695313 28.759766 6.0195312 C 28.159766 5.1495312 27.370391 4.5208594 26.400391 4.1308594 C 26.240391 4.0608594 25.529844 3.8505469 25.339844 3.8105469 C 24.409844 2.6405469 22.63 2 20.25 2 z M 40 32 C 44.4 32 48 35.6 48 40 C 48 44.4 44.4 48 40 48 C 35.6 48 32 44.4 32 40 C 32 35.6 35.6 32 40 32 z M 40 34 C 39.4 34 39 34.400391 39 34.900391 L 39 39 L 35 39 C 34.7 39 34.450391 39.100391 34.275391 39.275391 C 34.187891 39.362891 34.119141 39.467969 34.072266 39.589844 C 34.025391 39.711719 34 39.85 34 40 C 34 40.3 34.100391 40.549609 34.275391 40.724609 C 34.362891 40.812109 34.467969 40.880859 34.589844 40.927734 C 34.711719 40.974609 34.85 41 35 41 L 39 41 L 39 45 C 39 45.6 39.4 46 40 46 C 40.6 46 41 45.6 41 45 L 41 41 L 45 41 C 45.6 41 46 40.6 46 40 C 46 39.4 45.599609 39 45.099609 39 L 41 39 L 41 35 C 41 34.4 40.6 34 40 34 z" fill="#000000"/></svg>
