<?xml version="1.0" encoding="utf-8"?>
<svg xmlns="http://www.w3.org/2000/svg" viewBox="0 0 128 128" fill="#000000"><path d="M12.3 63.7c.4.2.9.3 1.4.3 1.1 0 2.1-.6 2.7-1.6l13.6-26.6c1.2-2.4 3.6-3.8 6.2-3.8h29.8c1.7 0 3-1.3 3-3s-1.3-3-3-3H36.1c-4.9 0-9.3 2.7-11.6 7.1L11 59.6C10.2 61.1 10.8 62.9 12.3 63.7zM121 71H91c-1 0-2 .5-2.5 1.4C82.8 80.9 73.3 86 63 86s-19.8-5.1-25.5-13.7l0 0C36.9 71.5 36 71 35 71H7c-1.7 0-3 1.3-3 3v30c0 7.2 5.8 13 13 13h94c7.2 0 13-5.8 13-13V74C124 72.3 122.7 71 121 71zM104 59c11 0 20-9 20-20 0-11-9-20-20-20s-20 9-20 20C84 50 93 59 104 59zM96.9 36h4v-4c0-1.7 1.3-3 3-3s3 1.3 3 3v4h4c1.7 0 3 1.3 3 3s-1.3 3-3 3h-4v4c0 1.7-1.3 3-3 3s-3-1.3-3-3v-4h-4c-1.7 0-3-1.3-3-3S95.3 36 96.9 36z" fill="#000000"/></svg>
