<?xml version="1.0" encoding="utf-8"?>
<svg xmlns="http://www.w3.org/2000/svg" viewBox="0 0 50 50" fill="#000000"><path d="M 25 2 C 12.317 2 2 12.318 2 25 C 2 37.682 12.317 48 25 48 C 27.66 48 30.213451 47.542998 32.591797 46.707031 C 32.591797 46.707031 32.59375 46.707031 32.59375 46.707031 C 32.707708 46.833296 32.819823 46.960448 32.941406 47.082031 C 36.830406 50.971031 43.193031 50.971031 47.082031 47.082031 C 50.971031 43.193031 50.971031 36.830406 47.082031 32.941406 C 46.960669 32.820044 46.831104 32.713386 46.705078 32.599609 C 47.54273 30.21912 48 27.662814 48 25 C 48 12.318 37.683 2 25 2 z M 24 10 L 26.050781 10 L 26.050781 12.800781 C 30.850781 13.000781 32.850391 17.100391 32.650391 19.900391 L 30.550781 19.900391 C 30.450781 18.200391 29.850781 14.400391 25.050781 14.400391 C 20.350781 14.400391 19.449219 17.100391 19.449219 19.400391 C 19.449219 26.300391 33.150391 21.699219 33.150391 30.699219 C 33.150391 31.699219 32.7 36.699219 26 37.199219 L 26 40 L 24 40 L 24 37.199219 C 21.3 36.899219 17.049609 36.000781 16.849609 29.300781 L 18.949219 29.300781 C 18.749219 35.600781 24.850781 35.599609 25.050781 35.599609 C 30.950781 35.599609 31.150391 31.599219 31.150391 30.699219 C 31.150391 23.599219 17.449219 28.599219 17.449219 19.199219 C 17.449219 17.299219 18.4 13.100781 24 12.800781 L 24 10 z M 40.011719 32.021484 C 42.062344 32.021609 44.113922 32.799969 45.669922 34.355469 C 48.781922 37.466469 48.780922 42.558922 45.669922 45.669922 C 42.558922 48.780922 37.467469 48.780922 34.355469 45.669922 C 31.243469 42.558922 31.244469 37.467469 34.355469 34.355469 C 35.910969 32.799469 37.961094 32.021359 40.011719 32.021484 z M 40.011719 34.072266 C 39.445719 34.072266 39.021484 34.4965 39.021484 35.0625 L 39.021484 39.021484 L 35.0625 39.021484 C 34.4965 39.021484 34.072266 39.445719 34.072266 40.011719 C 34.072266 40.577719 34.4965 41.001953 35.0625 41.001953 L 39.021484 41.001953 L 39.021484 44.962891 C 39.021484 45.528891 39.445719 45.951172 40.011719 45.951172 C 40.294719 45.951172 40.57775 45.811922 40.71875 45.669922 C 40.85975 45.527922 41.001953 45.245891 41.001953 44.962891 L 41.001953 41.001953 L 44.962891 41.001953 C 45.245891 41.001953 45.528922 40.86075 45.669922 40.71875 C 45.810922 40.57775 45.951172 40.294719 45.951172 40.011719 C 45.951172 39.445719 45.528891 39.021484 44.962891 39.021484 L 41.001953 39.021484 L 41.001953 35.0625 C 41.001953 34.4965 40.577719 34.072266 40.011719 34.072266 z" fill="#000000"/></svg>
