<?xml version="1.0" encoding="UTF-8"?>
<svg xmlns="http://www.w3.org/2000/svg" xmlns:xlink="http://www.w3.org/1999/xlink" width="32" height="32" viewBox="0 0 32 32" version="1.1">
<defs>
<clipPath id="clip1">
  <path d="M 1 0 L 31 0 L 31 32 L 1 32 Z M 1 0 "/>
</clipPath>
<clipPath id="clip2">
  <path d="M 0 32 L 0 0 L 32 0 L 32 32 Z M 16 5.632812 C 11.355469 5.632812 7.550781 9.433594 7.550781 14.078125 C 7.550781 18.726562 11.355469 22.527344 16 22.527344 C 20.644531 22.527344 24.449219 18.726562 24.449219 14.078125 C 24.449219 9.433594 20.644531 5.632812 16 5.632812 "/>
</clipPath>
</defs>
<g id="surface1">
<g clip-path="url(#clip1)" clip-rule="nonzero">
<g clip-path="url(#clip2)" clip-rule="nonzero">
<path style=" stroke:none;fill-rule:nonzero;fill:rgb(0%,0%,0%);fill-opacity:1;" d="M 16.011719 31.875 L 15.734375 31.746094 C 15.59375 31.683594 1.921875 25.140625 1.921875 5.648438 L 1.921875 5.132812 L 2.421875 5.023438 C 7.160156 3.984375 9.957031 2.511719 12 1.433594 C 13.585938 0.601562 14.734375 0 16 0 C 17.265625 0 18.414062 0.601562 20 1.433594 C 22.042969 2.511719 24.839844 3.980469 29.578125 5.023438 L 30.078125 5.132812 L 30.078125 5.648438 C 30.078125 24.496094 16.425781 31.664062 16.289062 31.734375 Z M 16.011719 31.875 "/>
</g>
</g>
<path style=" stroke:none;fill-rule:nonzero;fill:rgb(0%,0%,0%);fill-opacity:1;" d="M 16 7.039062 C 12.128906 7.039062 8.960938 10.207031 8.960938 14.078125 C 8.960938 17.953125 12.128906 21.121094 16 21.121094 C 19.871094 21.121094 23.039062 17.953125 23.039062 14.078125 C 23.039062 10.207031 19.871094 7.039062 16 7.039062 M 19.449219 14.785156 L 16.703125 14.785156 L 16.703125 17.53125 C 16.703125 17.953125 16.421875 18.234375 16 18.234375 C 15.578125 18.234375 15.296875 17.953125 15.296875 17.53125 L 15.296875 14.785156 L 12.550781 14.785156 C 12.128906 14.785156 11.847656 14.503906 11.847656 14.078125 C 11.847656 13.65625 12.128906 13.375 12.550781 13.375 L 15.296875 13.375 L 15.296875 10.558594 C 15.296875 10.136719 15.578125 9.855469 16 9.855469 C 16.421875 9.855469 16.703125 10.136719 16.703125 10.558594 L 16.703125 13.375 L 19.449219 13.375 C 19.871094 13.375 20.152344 13.65625 20.152344 14.078125 C 20.152344 14.503906 19.871094 14.785156 19.449219 14.785156 "/>
</g>
</svg>
