<?xml version="1.0" encoding="utf-8"?>
<svg xmlns="http://www.w3.org/2000/svg" viewBox="0 0 50 50" fill="#000000"><path d="M 19 0 C 14.035156 0 10 4.039063 10 9 C 10 13.625 13.507813 17.441406 18 17.941406 L 18 45 L 31 45 L 31 48 L 39 48 L 39 40 L 31 40 L 31 43 L 20 43 L 20 34 L 31 34 L 31 37 L 39 37 L 39 29 L 31 29 L 31 32 L 20 32 L 20 23 L 31 23 L 31 26 L 39 26 L 39 18 L 31 18 L 31 21 L 20 21 L 20 17.941406 C 24.492188 17.441406 28 13.625 28 9 C 28 4.039063 23.964844 0 19 0 Z M 18 5 L 20 5 L 20 8 L 23 8 L 23 10 L 20 10 L 20 13 L 18 13 L 18 10 L 15 10 L 15 8 L 18 8 Z M 33 20 L 37 20 L 37 24 L 33 24 Z M 33 31 L 37 31 L 37 35 L 33 35 Z M 33 42 L 37 42 L 37 46 L 33 46 Z" fill="#000000"/></svg>
