<svg role="img" viewBox="0 0 256 256" xmlns="http://www.w3.org/2000/svg" xmlns:xlink="http://www.w3.org/1999/xlink"><defs><clipPath id="a"><path d="M0 256V0h256v256zM184.32 83.968c-27.034 0-49.152 22.118-49.152 49.152 0 27.034 22.118 49.152 49.152 49.152 27.034 0 49.152-22.118 49.152-49.152 0-27.034-22.118-49.152-49.152-49.152" fill="none"/></clipPath></defs><g clip-path="url(#a)" fill="none" font-family="none" font-size="none" font-weight="none" stroke-miterlimit="10" style="mix-blend-mode:normal" text-anchor="none"><path d="M10.24 30.72v10.24h20.48c2.898 0 5.12 2.222 5.12 5.12v174.08h10.24v-25.6h20.48V179.2c0-2.816 2.304-5.12 5.12-5.12h51.2c2.816 0 5.12 2.304 5.12 5.12v15.36h112.64V76.8H46.08V46.08c0-8.422-6.938-15.36-15.36-15.36zm148.48 61.44h10.24v15.36h-10.24v10.24h-15.36v-10.24h15.36zm20.48 0h10.24v15.36H179.2zm20.48 0h10.24v15.36h15.36v10.24h-15.36v-10.24h-10.24zm-92.16 10.24a10.24 10.24 0 1 1 0 20.48 10.24 10.24 0 1 1 0-20.48m-61.44 5.12h20.48v40.96H46.08zM143.36 128h15.36v10.24h-15.36zm66.56 0h15.36v10.24h-15.36zm-66.56 20.48h15.36v10.24h10.24v15.36h-10.24v-15.36h-15.36zm66.56 0h15.36v10.24h-15.36v15.36h-10.24v-15.36h10.24zm-30.72 10.24h10.24v15.36H179.2z" fill="#000000"/></g><path d="M10 0C4.5 0 0 4.5 0 10s4.5 10 10 10 10-4.5 10-10S15.5 0 10 0m4.9 11H11v3.9c0 .6-.4 1-1 1s-1-.4-1-1V11H5.1c-.6 0-1-.4-1-1s.4-1 1-1H9V5c0-.6.4-1 1-1s1 .4 1 1v4h3.9c.6 0 1 .4 1 1s-.4 1-1 1" fill="#000000" font-family="none" font-size="none" font-weight="none" style="mix-blend-mode:normal" text-anchor="none" transform="translate(143.36 92.16)scale(4.096)"/></svg>