<svg role="img" viewBox="0 0 32 32" xmlns="http://www.w3.org/2000/svg"><path d="M3.074 15.926a.799.799 0 0 0 1.028-.324L7.5 8.949C7.8 8.352 8.398 8 9.05 8h7.45c.426 0 .75-.324.75-.75a.736.736 0 0 0-.75-.75H9.023a3.258 3.258 0 0 0-2.898 1.773L2.75 14.898c-.2.375-.05.829.324 1.028M30.25 17.75h-7.5a.71.71 0 0 0-.625.352A7.655 7.655 0 0 1 15.75 21.5a7.614 7.614 0 0 1-6.375-3.426.78.78 0 0 0-.625-.324h-7a.736.736 0 0 0-.75.75V26c0 1.8 1.45 3.25 3.25 3.25h23.5c1.8 0 3.25-1.45 3.25-3.25v-7.5a.736.736 0 0 0-.75-.75m-4.25-3c2.75 0 5-2.25 5-5s-2.25-5-5-5-5 2.25-5 5 2.25 5 5 5M24.227 9h1V8c0-.426.324-.75.75-.75.421 0 .75.324.75.75v1h1c.421 0 .75.324.75.75s-.329.75-.75.75h-1v1c0 .426-.329.75-.75.75a.736.736 0 0 1-.75-.75v-1h-1a.736.736 0 0 1-.75-.75.75.75 0 0 1 .75-.75m0 0" style="stroke:none;fill-rule:nonzero;fill:rgb(0%,0%,0%);fill-opacity:1"/></svg>