<svg role="img" viewBox="0 0 32 32" xmlns="http://www.w3.org/2000/svg"><path d="M18.559 1.281c-.825 0-1.63.047-2.2.617L1.82 16.441a1.852 1.852 0 0 0-.539 1.32c0 .493.188.95.54 1.298l11.12 11.12c.348.352.805.54 1.297.54.496 0 .973-.188 1.32-.54l3.044-3.038c1.046 2.109 3.207 3.578 5.718 3.578a6.407 6.407 0 0 0 6.399-6.399c0-2.511-1.469-4.672-3.578-5.718l2.96-2.961c.626-.625.626-1.536.618-2.403V3.52a2.24 2.24 0 0 0-2.239-2.24Zm6.402 3.84a1.92 1.92 0 1 1-.003 3.84 1.92 1.92 0 0 1 .003-3.84M24.32 19.2a5.111 5.111 0 0 1 5.12 5.121 5.111 5.111 0 0 1-5.12 5.121 5.111 5.111 0 0 1-5.122-5.12 5.111 5.111 0 0 1 5.121-5.122m-.641 1.922v2.559H21.12v1.28h2.559v2.56h1.28v-2.56h2.56v-1.28h-2.56V21.12Zm0 0" style="stroke:none;fill-rule:nonzero;fill:rgb(0%,0%,0%);fill-opacity:1"/></svg>