<?xml version="1.0" encoding="utf-8"?>
<svg xmlns="http://www.w3.org/2000/svg" viewBox="0 0 50 50" fill="#000000"><path d="M 6 6 C 4.346 6 3 7.346 3 9 L 3 41 C 3 42.654 4.346 44 6 44 L 26 44 L 30.841797 44 C 32.388797 47.527 35.909 50 40 50 C 45.514 50 50 45.514 50 40 C 50 37.21 48.849 34.686094 47 32.871094 L 47 25 L 47 9 C 47 7.346 45.654 6 44 6 L 11 6 L 11 39 C 11 39.552 10.553 40 10 40 C 9.447 40 9 39.552 9 39 L 9 6 L 6 6 z M 28 11 C 35.732 11 42 17.268 42 25 C 42 26.785 41.649062 28.483688 41.039062 30.054688 C 40.697063 30.018687 40.351 30 40 30 C 34.883 30 30.657219 33.865125 30.074219 38.828125 C 29.395219 38.930125 28.707 39 28 39 C 20.268 39 14 32.732 14 25 C 14 17.268 20.268 11 28 11 z M 28 19 C 24.698136 19 22 21.698136 22 25 C 22 28.301864 24.698136 31 28 31 C 31.301864 31 34 28.301864 34 25 C 34 21.698136 31.301864 19 28 19 z M 28 21 C 30.220984 21 32 22.779016 32 25 C 32 27.220984 30.220984 29 28 29 C 25.779016 29 24 27.220984 24 25 C 24 22.779016 25.779016 21 28 21 z M 28 23 C 26.907275 23 26 23.907275 26 25 C 26 26.092725 26.907275 27 28 27 C 29.092725 27 30 26.092725 30 25 C 30 23.907275 29.092725 23 28 23 z M 40 32 C 40.339 32 40.672953 32.028312 41.001953 32.070312 C 41.088953 32.081313 41.173766 32.095375 41.259766 32.109375 C 41.524766 32.152375 41.786969 32.207391 42.042969 32.275391 C 42.103969 32.291391 42.165563 32.304266 42.226562 32.322266 C 42.878563 32.513266 43.497312 32.784953 44.070312 33.126953 C 44.099313 33.143953 44.12825 33.161687 44.15625 33.179688 C 45.03525 33.718688 45.803969 34.421094 46.417969 35.246094 C 46.424969 35.255094 46.4305 35.264437 46.4375 35.273438 C 46.6425 35.551437 46.831 35.842484 47 36.146484 L 47 36.136719 C 47.636 37.283719 48 38.600953 48 40.001953 C 48 41.402953 47.636 42.717281 47 43.863281 L 47 43.855469 C 46.973 43.904469 46.940109 43.950047 46.912109 43.998047 L 46.917969 43.998047 C 45.531969 46.385047 42.952047 47.998047 39.998047 47.998047 C 37.044047 47.998047 34.466078 46.385047 33.080078 43.998047 L 33.085938 43.998047 C 32.749938 43.421047 32.484828 42.799531 32.298828 42.144531 C 32.287828 42.106531 32.279531 42.066344 32.269531 42.027344 C 32.197531 41.759344 32.142609 41.485984 32.099609 41.208984 C 32.088609 41.134984 32.075406 41.061328 32.066406 40.986328 C 32.026406 40.663328 32 40.335 32 40 C 32 39.617 32.036844 39.243 32.089844 38.875 C 32.099844 38.804 32.110094 38.732109 32.121094 38.662109 C 32.184094 38.294109 32.266906 37.932031 32.378906 37.582031 L 32.375 37.585938 C 33.339 34.549937 36.070469 32.298203 39.355469 32.033203 C 39.568469 32.016203 39.782 32 40 32 z M 40 34.099609 C 39.4 34.099609 39 34.499609 39 35.099609 L 39 39 L 35.099609 39 C 34.499609 39 34.099609 39.4 34.099609 40 C 34.099609 40.6 34.499609 41 35.099609 41 L 39 41 L 39 44.900391 C 39 45.500391 39.4 45.900391 40 45.900391 C 40.6 45.900391 41 45.500391 41 44.900391 L 41 41 L 44.900391 41 C 45.500391 41 45.900391 40.6 45.900391 40 C 45.900391 39.4 45.500391 39 44.900391 39 L 41 39 L 41 35.099609 C 41 34.499609 40.6 34.099609 40 34.099609 z" fill="#000000"/></svg>
