<?xml version="1.0" encoding="utf-8"?>
<svg xmlns="http://www.w3.org/2000/svg" viewBox="0 0 50 50" fill="#000000"><path d="M 21.001953 0 C 8.4399531 0 -2.3684758e-15 4.6530469 0 8.9980469 C 0 13.345047 8.4399531 18 21.001953 18 C 33.563953 18 42 13.345047 42 8.9980469 C 42 4.6530469 33.563953 -1.1842379e-15 21.001953 0 z M 0 13.609375 L 0 19.150391 C 0 23.424391 8.4455781 28 21.017578 28 C 33.589578 28 42 23.424391 42 19.150391 L 42 13.609375 C 38.325 17.363375 30.434578 20 21.017578 20 C 11.597578 20 3.676 17.362375 0 13.609375 z M 0 23.910156 L 0 29.195312 C 0 33.468313 8.4455781 38 21.017578 38 C 24.504578 38 27.657969 37.683984 30.417969 37.083984 C 30.136969 38.006984 30.000719 39.610016 30.011719 39.416016 C 27.257719 39.955016 24.228578 40 21.017578 40 C 11.597578 40 3.676 37.708078 0 33.955078 L 0 39.150391 C 0 43.424391 8.4455781 48 21.017578 48 C 25.384578 48 29.237734 47.439062 32.427734 46.539062 C 34.265734 48.665062 36.975 50.017578 40 50.017578 C 45.524 50.017578 50.019531 45.523047 50.019531 39.998047 C 50.019531 35.116047 46.506 31.045063 41.875 30.164062 C 41.969 29.841062 42 29.518313 42 29.195312 L 42 23.910156 C 38.325 27.662156 30.434578 30 21.017578 30 C 11.597578 30 3.676 27.662156 0 23.910156 z M 40 32.019531 C 44.401 32.019531 47.980469 35.599 47.980469 40 C 47.980469 44.401 44.401 47.980469 40 47.980469 C 35.599 47.980469 32.019531 44.401 32.019531 40 C 32.019531 35.599 35.599 32.019531 40 32.019531 z M 39 35 L 39 39 L 35 39 L 35 41 L 39 41 L 39 45 L 41 45 L 41 41 L 45 41 L 45 39 L 41 39 L 41 35 L 39 35 z" fill="#000000"/></svg>
