<?xml version="1.0" encoding="utf-8"?>
<svg xmlns="http://www.w3.org/2000/svg" viewBox="0 0 50 50" fill="#000000"><path d="M46,11l-8.956,0.006c-0.279-0.101-0.854-1.02-1.164-1.514C35.111,8.267,34.317,7,33,7H17c-1.317,0-2.111,1.267-2.88,2.492 C13.811,9.986,13.235,10.905,13,11H4c-1.654,0-3,1.346-3,3v26c0,1.654,1.346,3,3,3h42c1.654,0,3-1.346,3-3V14 C49,12.346,47.654,11,46,11z M32,28h-6v6c0,0.552-0.447,1-1,1s-1-0.448-1-1v-6h-6c-0.553,0-1-0.448-1-1s0.447-1,1-1h6v-6 c0-0.552,0.447-1,1-1s1,0.448,1,1v6h6c0.553,0,1,0.448,1,1S32.553,28,32,28z" fill="#000000"/></svg>
