<?xml version="1.0" encoding="utf-8"?>
<svg xmlns="http://www.w3.org/2000/svg" viewBox="0 0 50 50" fill="#000000"><path d="M 29 2 C 27.707031 2 26.453125 2.078125 25.5625 2.96875 L 2.84375 25.6875 C 2.296875 26.234375 2 26.976563 2 27.75 C 2 28.523438 2.296875 29.234375 2.84375 29.78125 L 20.21875 47.15625 C 20.765625 47.703125 21.476563 48 22.25 48 C 23.023438 48 23.765625 47.703125 24.3125 47.15625 L 29.0625 42.40625 C 30.699219 45.703125 34.078125 48 38 48 C 43.511719 48 48 43.511719 48 38 C 48 34.078125 45.703125 30.699219 42.40625 29.0625 L 47.03125 24.4375 C 48.007813 23.464844 48.007813 22.039063 48 20.6875 L 48 5.5 C 48 3.570313 46.429688 2 44.5 2 Z M 39 8 C 40.65625 8 42 9.34375 42 11 C 42 12.65625 40.65625 14 39 14 C 37.34375 14 36 12.65625 36 11 C 36 9.34375 37.34375 8 39 8 Z M 38 30 C 42.429688 30 46 33.570313 46 38 C 46 42.429688 42.429688 46 38 46 C 33.570313 46 30 42.429688 30 38 C 30 33.570313 33.570313 30 38 30 Z M 37 33 L 37 37 L 33 37 L 33 39 L 37 39 L 37 43 L 39 43 L 39 39 L 43 39 L 43 37 L 39 37 L 39 33 Z" fill="#000000"/></svg>
