<?xml version="1.0" encoding="utf-8"?>
<svg xmlns="http://www.w3.org/2000/svg" viewBox="0 0 50 50" fill="#000000"><path d="M 25 3 C 24.088 3 22.337438 3.1897813 20.898438 4.4257812 C 20.621437 4.6347812 19.925906 5.2367969 18.503906 6.4667969 L 17.886719 7 L 11 7 C 10.447 7 10 7.447 10 8 L 10 13.962891 C 6.561 17.002891 3.6413281 19.603516 3.3613281 19.853516 L 12 26.583984 L 12 9 L 38 9 L 38 26.583984 L 46.638672 19.853516 C 46.357672 19.603516 43.439 17.002891 40 13.962891 L 40 8 C 40 7.447 39.553 7 39 7 L 32.056641 7 C 30.843641 5.911 29.510391 4.7347969 29.150391 4.4667969 C 27.662391 3.1907969 25.912 3 25 3 z M 16 14 A 1.0001 1.0001 0 1 0 16 16 L 34 16 A 1.0001 1.0001 0 1 0 34 14 L 16 14 z M 16 19 A 1.0001 1.0001 0 1 0 16 21 L 27 21 A 1.0001 1.0001 0 1 0 27 19 L 16 19 z M 47 22 L 34.957031 31.398438 C 34.262527 31.804484 33.605768 32.29539 33.007812 32.882812 C 30.451299 30.865289 28.174534 29.06862 27.875 28.828125 C 26.781 27.954125 25.604 27.822266 25 27.822266 C 24.749 27.822266 23.432797 27.872516 22.091797 28.853516 C 21.172797 29.532516 10.302891 37.990203 4.4628906 42.533203 C 3.9108906 42.962203 3.43 43.337922 3 43.669922 L 3 46 C 3 46.553 3.447 47 4 47 L 32.867188 47 C 32.893213 47.02661 32.915023 47.055648 32.941406 47.082031 C 36.830406 50.971031 43.193031 50.971031 47.082031 47.082031 C 50.971031 43.193031 50.971031 36.830406 47.082031 32.941406 C 47.055648 32.915023 47.02661 32.893213 47 32.867188 L 47 22 z M 3 22.134766 L 3 41.136719 C 3.08 41.075719 3.153375 41.016125 3.234375 40.953125 C 6.708375 38.251125 11.477266 34.542297 15.197266 31.654297 L 3 22.134766 z M 40.011719 32.021484 C 42.062344 32.021484 44.114422 32.799969 45.669922 34.355469 C 48.780922 37.467469 48.780922 42.558922 45.669922 45.669922 C 42.557922 48.780922 37.466469 48.780922 34.355469 45.669922 C 31.244469 42.557922 31.243469 37.466469 34.355469 34.355469 C 35.911469 32.799969 37.961094 32.021484 40.011719 32.021484 z M 40.011719 34.072266 C 39.445719 34.072266 39.021484 34.4965 39.021484 35.0625 L 39.021484 39.021484 L 35.0625 39.021484 C 34.4965 39.021484 34.072266 39.445719 34.072266 40.011719 C 34.072266 40.577719 34.4965 41.001953 35.0625 41.001953 L 39.021484 41.001953 L 39.021484 44.962891 C 39.021484 45.528891 39.445719 45.951172 40.011719 45.951172 C 40.294719 45.951172 40.57775 45.810922 40.71875 45.669922 C 40.86075 45.528922 41.001953 45.245891 41.001953 44.962891 L 41.001953 41.001953 L 44.962891 41.001953 C 45.245891 41.001953 45.528922 40.85975 45.669922 40.71875 C 45.811922 40.57775 45.951172 40.294719 45.951172 40.011719 C 45.951172 39.445719 45.528891 39.021484 44.962891 39.021484 L 41.001953 39.021484 L 41.001953 35.0625 C 41.001953 34.4975 40.577719 34.072266 40.011719 34.072266 z" fill="#000000"/></svg>
