<svg role="img" viewBox="0 0 256 256" xmlns="http://www.w3.org/2000/svg" xmlns:xlink="http://www.w3.org/1999/xlink"><defs><clipPath id="a"><path d="M0 256V0h256v256zM128 45.056c-37.171 0-67.584 30.413-67.584 67.584 0 37.171 30.413 67.584 67.584 67.584 37.171 0 67.584-30.413 67.584-67.584 0-37.171-30.413-67.584-67.584-67.584" fill="none"/></clipPath></defs><g clip-path="url(#a)" fill="none" font-family="none" font-size="none" font-weight="none" stroke-miterlimit="10" style="mix-blend-mode:normal" text-anchor="none"><path d="m128.102 255.002-2.242-1.04c-1.121-.502-110.5-52.823-110.5-208.783v-4.117l4.02-.88C57.282 31.862 79.666 20.08 96 11.479 108.698 4.823 117.862 0 128 0c10.138 0 19.302 4.818 32 11.479 16.338 8.602 38.723 20.378 76.62 28.703l4.02.88v4.117c0 150.784-109.22 208.123-110.32 208.701z" fill="#000000"/></g><path d="M10 0C4.5 0 0 4.5 0 10s4.5 10 10 10 10-4.5 10-10S15.5 0 10 0m4.9 11H11v3.9c0 .6-.4 1-1 1s-1-.4-1-1V11H5.1c-.6 0-1-.4-1-1s.4-1 1-1H9V5c0-.6.4-1 1-1s1 .4 1 1v4h3.9c.6 0 1 .4 1 1s-.4 1-1 1" fill="#000000" font-family="none" font-size="none" font-weight="none" style="mix-blend-mode:normal" text-anchor="none" transform="translate(71.68 56.32)scale(5.632)"/></svg>