<?xml version="1.0" encoding="UTF-8"?>
<svg xmlns="http://www.w3.org/2000/svg" xmlns:xlink="http://www.w3.org/1999/xlink" width="32" height="32" viewBox="0 0 32 32" version="1.1">
<g id="surface1">
<path style=" stroke:none;fill-rule:nonzero;fill:rgb(0%,0%,0%);fill-opacity:1;" d="M 3.839844 1.28125 L 3.839844 30.71875 L 21.78125 30.71875 C 22.878906 31.550781 24.222656 32 25.601562 32 C 29.132812 31.996094 31.996094 29.132812 32 25.601562 C 32 22.984375 30.414062 20.734375 28.160156 19.738281 L 28.160156 1.28125 Z M 8.320312 8.960938 L 10.878906 8.960938 L 10.878906 10.238281 L 8.320312 10.238281 Z M 12.800781 8.960938 L 23.679688 8.960938 L 23.679688 10.238281 L 12.800781 10.238281 Z M 8.320312 12.800781 L 10.878906 12.800781 L 10.878906 14.078125 L 8.320312 14.078125 Z M 12.800781 12.800781 L 23.679688 12.800781 L 23.679688 14.078125 L 12.800781 14.078125 Z M 8.320312 16.640625 L 10.878906 16.640625 L 10.878906 17.921875 L 8.320312 17.921875 Z M 12.800781 16.640625 L 23.679688 16.640625 L 23.679688 17.921875 L 12.800781 17.921875 Z M 8.320312 20.480469 L 10.878906 20.480469 L 10.878906 21.761719 L 8.320312 21.761719 Z M 12.800781 20.480469 L 21.78125 20.480469 C 21.296875 20.84375 20.863281 21.273438 20.5 21.761719 L 12.800781 21.761719 Z M 25.601562 20.480469 C 26.960938 20.476562 28.261719 21.015625 29.222656 21.976562 C 30.183594 22.9375 30.722656 24.242188 30.71875 25.601562 C 30.722656 26.957031 30.183594 28.261719 29.222656 29.222656 C 28.261719 30.179688 26.960938 30.71875 25.601562 30.71875 C 24.242188 30.722656 22.941406 30.183594 21.976562 29.222656 C 21.015625 28.261719 20.476562 26.960938 20.480469 25.601562 C 20.476562 24.242188 21.015625 22.9375 21.976562 21.976562 C 22.9375 21.015625 24.242188 20.476562 25.601562 20.480469 M 24.960938 22.394531 L 24.960938 24.960938 L 22.398438 24.960938 L 22.398438 26.234375 L 24.960938 26.234375 L 24.960938 28.800781 L 26.238281 28.800781 L 26.238281 26.234375 L 28.800781 26.234375 L 28.800781 24.960938 L 26.238281 24.960938 L 26.238281 22.394531 Z M 24.960938 22.394531 "/>
</g>
</svg>
