<svg xmlns="http://www.w3.org/2000/svg" xmlns:xlink="http://www.w3.org/1999/xlink" viewBox="0,0,256,256" width="32px" height="32px"><defs><clipPath id="clip-1"><path d="M0,256v-256h256v256zM126,26.416c-37.1712,0 -67.584,30.4128 -67.584,67.584c0,37.1712 30.4128,67.584 67.584,67.584c37.1712,0 67.584,-30.4128 67.584,-67.584c0,-37.1712 -30.4128,-67.584 -67.584,-67.584z" id="overlayBgMask" fill="none"></path></clipPath></defs><g clip-path="url(#clip-1)" fill="none" fill-rule="nonzero" stroke="none" stroke-width="1" stroke-linecap="butt" stroke-linejoin="miter" stroke-miterlimit="10" stroke-dasharray="" stroke-dashoffset="0" font-family="none" font-weight="none" font-size="none" text-anchor="none" style="mix-blend-mode: normal"><g transform="scale(5.12,5.12)" fill="#000000"><path d="M21.5,1c-1.377,0.015 -2.7067,0.72333 -3.4707,1.98633l-0.26562,0.43945c-0.378,0.624 -1.03858,1.00258 -1.76758,1.01758l-0.51172,0.01172c-2.214,0.046 -3.9833,1.8153 -4.0293,4.0293l-0.00977,0.51172c-0.015,0.728 -0.39653,1.38958 -1.01953,1.76758l-0.43945,0.26367c-1.893,1.146 -2.53966,3.56586 -1.47266,5.50586l0.24609,0.44727c0.351,0.639 0.351,1.40006 0,2.03906l-0.24609,0.44727c-1.068,1.94 -0.42039,4.35986 1.47461,5.50586l0.4375,0.26367c0.624,0.378 1.00453,1.03958 1.01953,1.76758l0.00977,0.51172c0.047,2.215 1.81825,3.9833 4.03125,4.0293l0.51172,0.01172c0.728,0.014 1.38763,0.39453 1.76563,1.01953l0.26563,0.43555c0.772,1.278 2.12262,1.98828 3.51563,1.98828c0.672,0 1.35533,-0.16472 1.98633,-0.51172l0.44922,-0.24805c0.638,-0.352 1.40006,-0.35005 2.03906,0.00195l0.44922,0.24414c1.939,1.067 4.35695,0.42034 5.50195,-1.47266l0.26563,-0.4375c0.378,-0.624 1.03858,-1.00453 1.76758,-1.01953l0.51172,-0.00977c2.214,-0.046 3.9833,-1.81725 4.0293,-4.03125l0.00977,-0.51172c0.015,-0.728 0.39653,-1.38762 1.01953,-1.76562l0.43945,-0.26562c1.893,-1.146 2.53966,-3.56391 1.47266,-5.50391l-0.24609,-0.44922c-0.351,-0.639 -0.351,-1.40006 0,-2.03906l0.24609,-0.44727c1.068,-1.94 0.42039,-4.35986 -1.47461,-5.50586l-0.4375,-0.26367c-0.624,-0.378 -1.00453,-1.03958 -1.01953,-1.76758l-0.00977,-0.51172c-0.047,-2.215 -1.8163,-3.9833 -4.0293,-4.0293l-0.51172,-0.01172c-0.728,-0.014 -1.38958,-0.39453 -1.76758,-1.01953l-0.26367,-0.43555c-1.146,-1.895 -3.56391,-2.54061 -5.50391,-1.47461l-0.44922,0.24609c-0.638,0.352 -1.40006,0.352 -2.03906,0l-0.44922,-0.24609c-0.646,-0.356 -1.34425,-0.52067 -2.03125,-0.51367zM36.61328,33.14258c-0.641,0.244 -1.33164,0.3893 -2.05664,0.4043l-0.51172,0.00977c-0.044,0.001 -0.07466,0.01864 -0.09766,0.05664l-0.26562,0.4375c-1.004,1.66 -2.68608,2.71216 -4.58008,2.91016l-0.28711,0.6582l-2.69336,6.1543l2.02344,4.62695c0.14,0.321 0.43816,0.54384 0.78516,0.58984c0.046,0.006 0.08881,0.00977 0.13281,0.00977c0.301,0 0.59025,-0.137 0.78125,-0.375l3.70117,-4.625h6.51953c0.341,0 0.6588,-0.17394 0.8418,-0.46094c0.183,-0.287 0.20745,-0.64898 0.06445,-0.95898zM13.43945,33.16016l-4.3457,9.41992c-0.143,0.31 -0.11955,0.67003 0.06445,0.95703c0.182,0.288 0.5008,0.46289 0.8418,0.46289h6.51953l3.70117,4.625c0.19,0.238 0.4783,0.375 0.7793,0.375c0.043,0 0.08686,-0.00377 0.13086,-0.00977c0.347,-0.046 0.64516,-0.26884 0.78516,-0.58984l5.06641,-11.58203c-0.512,-0.128 -1.00961,-0.31922 -1.47461,-0.57422l-0.45312,-0.24805c-0.019,-0.011 -0.03864,-0.01562 -0.05664,-0.01562c-0.017,0 -0.03174,0.00462 -0.05273,0.01563l-0.44922,0.24609c-0.904,0.497 -1.92517,0.76172 -2.95117,0.76172c-2.156,0 -4.10956,-1.10417 -5.22656,-2.95117l-0.26562,-0.43945c-0.023,-0.038 -0.05266,-0.05564 -0.09766,-0.05664l-0.51172,-0.00977c-0.705,-0.015 -1.37791,-0.15472 -2.00391,-0.38672z"></path></g></g><g fill="#000000" fill-rule="nonzero" stroke="none" stroke-width="1" stroke-linecap="butt" stroke-linejoin="miter" stroke-miterlimit="10" stroke-dasharray="" stroke-dashoffset="0" font-family="none" font-weight="none" font-size="none" text-anchor="none" style="mix-blend-mode: normal"><g transform="translate(69.68,37.68) scale(5.632,5.632)" id="overlay"><path d="M10,0c-5.5,0 -10,4.5 -10,10c0,5.5 4.5,10 10,10c5.5,0 10,-4.5 10,-10c0,-5.5 -4.5,-10 -10,-10zM14.9,11h-3.9v3.9c0,0.6 -0.4,1 -1,1c-0.6,0 -1,-0.4 -1,-1v-3.9h-3.9c-0.6,0 -1,-0.4 -1,-1c0,-0.6 0.4,-1 1,-1h3.9v-4c0,-0.6 0.4,-1 1,-1c0.6,0 1,0.4 1,1v4h3.9c0.6,0 1,0.4 1,1c0,0.6 -0.4,1 -1,1z"></path></g></g></svg>