<?xml version="1.0" encoding="utf-8"?>
<svg xmlns="http://www.w3.org/2000/svg" viewBox="0 0 50 50" fill="#000000"><path d="M 25 2 C 12.317 2 2 12.318 2 25 C 2 37.682 12.317 48 25 48 C 27.666515 48 30.226069 47.541042 32.609375 46.701172 C 34.442234 48.719717 37.075399 50 40 50 C 45.5 50 50 45.5 50 40 C 50 37.075399 48.719717 34.442234 46.701172 32.609375 C 47.541042 30.226069 48 27.666515 48 25 C 48 12.318 37.683 2 25 2 z M 25 7 C 25.553 7 26 7.448 26 8 L 26 22.183594 C 27.163 22.596594 28 23.696 28 25 C 28 26.657 26.657 28 25 28 C 24.538 28 24.105844 27.886219 23.714844 27.699219 L 17.707031 33.707031 C 17.512031 33.902031 17.256 34 17 34 C 16.744 34 16.487969 33.902031 16.292969 33.707031 C 15.901969 33.316031 15.901969 32.683969 16.292969 32.292969 L 22.300781 26.285156 C 22.113781 25.894156 22 25.462 22 25 C 22 23.696 22.837 22.596594 24 22.183594 L 24 8 C 24 7.448 24.447 7 25 7 z M 40 32 C 44.4 32 48 35.6 48 40 C 48 44.4 44.4 48 40 48 C 35.6 48 32 44.4 32 40 C 32 35.6 35.6 32 40 32 z M 40 34.199219 C 39.4 34.199219 39 34.599609 39 35.099609 L 39 39 L 35.099609 39 C 34.499609 39 34.099609 39.4 34.099609 40 C 34.099609 40.6 34.499609 41 35.099609 41 L 39 41 L 39 45 C 39 45.6 39.4 46 40 46 C 40.6 46 41 45.6 41 45 L 41 41 L 44.900391 41 C 45.500391 41 45.900391 40.6 45.900391 40 C 45.900391 39.4 45.5 39 45 39 L 41 39 L 41 35.199219 C 41 34.599219 40.6 34.199219 40 34.199219 z" fill="#000000"/></svg>
