<?xml version="1.0" encoding="UTF-8"?>
<svg xmlns="http://www.w3.org/2000/svg" xmlns:xlink="http://www.w3.org/1999/xlink" width="32" height="32" viewBox="0 0 32 32" version="1.1">
<g id="surface1">
<path style=" stroke:none;fill-rule:nonzero;fill:rgb(0%,0%,0%);fill-opacity:1;" d="M 18.558594 1.28125 C 17.734375 1.28125 16.929688 1.328125 16.359375 1.898438 L 1.820312 16.441406 C 1.472656 16.792969 1.277344 17.265625 1.28125 17.761719 C 1.28125 18.253906 1.46875 18.710938 1.820312 19.058594 L 12.941406 30.179688 C 13.289062 30.53125 13.746094 30.71875 14.238281 30.71875 C 14.734375 30.71875 15.210938 30.53125 15.558594 30.179688 L 18.601562 27.140625 C 19.648438 29.25 21.808594 30.71875 24.320312 30.71875 C 27.851562 30.714844 30.714844 27.851562 30.71875 24.320312 C 30.71875 21.808594 29.25 19.648438 27.140625 18.601562 L 30.101562 15.640625 C 30.726562 15.015625 30.726562 14.105469 30.71875 13.238281 L 30.71875 3.519531 C 30.71875 2.285156 29.714844 1.28125 28.480469 1.28125 Z M 24.960938 5.121094 C 26.019531 5.121094 26.878906 5.980469 26.878906 7.042969 C 26.878906 8.101562 26.019531 8.960938 24.957031 8.960938 C 23.898438 8.960938 23.039062 8.101562 23.039062 7.039062 C 23.039062 5.980469 23.902344 5.121094 24.960938 5.121094 M 24.320312 19.199219 C 25.679688 19.199219 26.984375 19.738281 27.945312 20.699219 C 28.902344 21.660156 29.441406 22.960938 29.441406 24.320312 C 29.441406 25.679688 28.902344 26.984375 27.945312 27.945312 C 26.984375 28.90625 25.679688 29.445312 24.320312 29.441406 C 22.960938 29.445312 21.65625 28.90625 20.695312 27.945312 C 19.734375 26.984375 19.195312 25.679688 19.199219 24.320312 C 19.195312 22.960938 19.734375 21.660156 20.695312 20.699219 C 21.65625 19.734375 22.960938 19.199219 24.320312 19.199219 M 23.679688 21.121094 L 23.679688 23.679688 L 21.121094 23.679688 L 21.121094 24.960938 L 23.679688 24.960938 L 23.679688 27.519531 L 24.960938 27.519531 L 24.960938 24.960938 L 27.519531 24.960938 L 27.519531 23.679688 L 24.960938 23.679688 L 24.960938 21.121094 Z M 23.679688 21.121094 "/>
</g>
</svg>
