<svg role="img" viewBox="0 0 32 32" xmlns="http://www.w3.org/2000/svg"><path d="M16 1.281C7.883 1.281 1.281 7.883 1.281 16c0 8.117 6.602 14.719 14.719 14.719 1.703 0 3.336-.293 4.86-.828.074.082.144.164.222.242 2.488 2.488 6.563 2.488 9.05 0 2.49-2.488 2.49-6.563 0-9.051-.077-.078-.16-.145-.241-.219.535-1.523.828-3.16.828-4.863 0-8.117-6.602-14.719-14.719-14.719m-.64 5.117h1.312v1.793c3.074.13 4.351 2.754 4.223 4.543H19.55c-.063-1.086-.446-3.52-3.52-3.52-3.008 0-3.582 1.731-3.582 3.204 0 4.414 8.766 1.469 8.766 7.23 0 .641-.285 3.84-4.574 4.16v1.794h-1.282v-1.793c-1.726-.192-4.449-.77-4.574-5.055h1.344c-.129 4.031 3.777 4.031 3.902 4.031 3.778 0 3.907-2.562 3.907-3.137 0-4.546-8.77-1.343-8.77-7.359 0-1.219.61-3.906 4.191-4.098Zm10.25 14.094c1.308 0 2.624.5 3.62 1.496 1.989 1.992 1.989 5.25 0 7.242-1.992 1.989-5.25 1.989-7.242 0a5.135 5.135 0 0 1 0-7.242 5.107 5.107 0 0 1 3.621-1.496m0 1.313a.622.622 0 0 0-.637.636v2.532H22.44a.622.622 0 0 0-.636.636c0 .36.273.633.636.633h2.532v2.535c0 .36.273.633.636.633.18 0 .36-.09.45-.18a.708.708 0 0 0 .183-.453v-2.535h2.535c.18 0 .36-.09.453-.183.09-.09.18-.27.18-.45a.621.621 0 0 0-.633-.636h-2.535V22.44a.621.621 0 0 0-.633-.636m0 0" style="stroke:none;fill-rule:nonzero;fill:rgb(0%,0%,0%);fill-opacity:1"/></svg>