<?xml version="1.0" encoding="UTF-8"?>
<svg xmlns="http://www.w3.org/2000/svg" xmlns:xlink="http://www.w3.org/1999/xlink" width="32" height="32" viewBox="0 0 32 32" version="1.1">
<g id="surface1">
<path style=" stroke:none;fill-rule:evenodd;fill:rgb(100%,100%,100%);fill-opacity:1;" d="M 16 0 C 17.765625 0 19.199219 1.433594 19.199219 3.199219 L 19.199219 12.800781 L 28.800781 12.800781 C 30.566406 12.800781 32 14.234375 32 16 C 32 17.765625 30.566406 19.199219 28.800781 19.199219 L 19.199219 19.199219 L 19.199219 28.800781 C 19.199219 30.566406 17.765625 32 16 32 C 14.234375 32 12.800781 30.566406 12.800781 28.800781 L 12.800781 19.199219 L 3.199219 19.199219 C 1.433594 19.199219 0 17.765625 0 16 C 0 14.234375 1.433594 12.800781 3.199219 12.800781 L 12.800781 12.800781 L 12.800781 3.199219 C 12.800781 1.433594 14.234375 0 16 0 Z M 16 0 "/>
</g>
</svg>
