<svg role="img" viewBox="0 0 32 32" xmlns="http://www.w3.org/2000/svg"><path d="M21.121.059a1.82 1.82 0 0 0-1.281.52L16.398 3.98l.883.88c.25.25.25.652 0 .902a.625.625 0 0 1-.441.199.67.67 0 0 1-.461-.2L15.5 4.88l-15 14.9c-.336.336-.52.785-.52 1.278 0 .492.184.941.52 1.28l2 1.981c.23.23.586.266.84.059.61-.488 1.32-.758 1.98-.758 1.66 0 3 1.34 3 3a2.88 2.88 0 0 1-.742 1.938c-.226.253-.2.64.043.882l1.98 1.98c.336.333.79.54 1.278.54.492 0 .945-.207 1.281-.54l5.8-5.8c.337 3.57 3.34 6.379 7 6.379 3.88 0 7.04-3.16 7.04-7.04 0-3.66-2.809-6.663-6.379-7l1.48-1.48-.863-.859a.637.637 0 0 1 0-.902c.25-.25.653-.25.903 0l.859.86 3.398-3.38c.356-.281.57-.699.602-1.16a1.76 1.76 0 0 0-.5-1.379l-2-1.98a.626.626 0 0 0-.84-.059c-.574.457-1.21.7-1.898.7-1.66 0-3.024-1.34-3.024-3 0-.692.242-1.348.703-1.923a.63.63 0 0 0-.062-.84l-1.98-1.98a1.816 1.816 0 0 0-1.278-.52m-2.5 6.402c.16 0 .332.074.457.2l.902.898c.25.25.25.652 0 .902a.649.649 0 0 1-.46.18.604.604 0 0 1-.442-.18l-.898-.902a.632.632 0 0 1 0-.899.625.625 0 0 1 .441-.2m2.7 2.7c.163 0 .335.054.46.179l.899.898a.66.66 0 0 1 0 .922.642.642 0 0 1-.461.18.64.64 0 0 1-.457-.18l-.903-.898a.66.66 0 0 1 0-.922.649.649 0 0 1 .461-.18m2.699 2.698a.6.6 0 0 1 .44.18l.9.902c.25.25.25.649 0 .899a.617.617 0 0 1-.438.2.662.662 0 0 1-.461-.2l-.902-.899a.637.637 0 0 1 0-.902c.125-.125.3-.18.46-.18m.94 7.34a5.752 5.752 0 0 1 5.759 5.762 5.748 5.748 0 0 1-5.758 5.758 5.752 5.752 0 0 1-5.762-5.758 5.755 5.755 0 0 1 5.762-5.762m-.062 1.903a.457.457 0 0 0-.078.02.639.639 0 0 0-.5.64v2.558H21.7a.64.64 0 1 0 .063 1.282h2.558v2.558a.64.64 0 0 0 .317.563.654.654 0 0 0 .644 0 .644.644 0 0 0 .32-.563v-2.558h2.56a.644.644 0 0 0 .562-.965.64.64 0 0 0-.563-.317h-2.558v-2.558a.635.635 0 0 0-.204-.489.623.623 0 0 0-.5-.171m0 0" style="stroke:none;fill-rule:nonzero;fill:rgb(0%,0%,0%);fill-opacity:1"/></svg>