<?xml version="1.0" encoding="utf-8"?>
<svg xmlns="http://www.w3.org/2000/svg" viewBox="0 0 50 50" fill="#000000"><path d="M 6 2 L 6 48 L 34.03125 48 C 35.699219 49.25 37.761719 50 40 50 C 45.511719 50 50 45.511719 50 40 C 50 35.914063 47.519531 32.394531 44 30.84375 L 44 2 Z M 13 14 L 17 14 L 17 16 L 13 16 Z M 20 14 L 37 14 L 37 16 L 20 16 Z M 13 20 L 17 20 L 17 22 L 13 22 Z M 20 20 L 37 20 L 37 22 L 20 22 Z M 13 26 L 17 26 L 17 28 L 13 28 Z M 20 26 L 37 26 L 37 28 L 20 28 Z M 13 32 L 17 32 L 17 34 L 13 34 Z M 20 32 L 34.03125 32 C 33.273438 32.566406 32.601563 33.246094 32.03125 34 L 20 34 Z M 40 32 C 44.429688 32 48 35.570313 48 40 C 48 44.429688 44.429688 48 40 48 C 35.570313 48 32 44.429688 32 40 C 32 35.570313 35.570313 32 40 32 Z M 39 35 L 39 39 L 35 39 L 35 41 L 39 41 L 39 45 L 41 45 L 41 41 L 45 41 L 45 39 L 41 39 L 41 35 Z" fill="#000000"/></svg>
