<?xml version="1.0" encoding="UTF-8"?>
<svg xmlns="http://www.w3.org/2000/svg" xmlns:xlink="http://www.w3.org/1999/xlink" width="32" height="32" viewBox="0 0 32 32" version="1.1">
<g id="surface1">
<path style=" stroke:none;fill-rule:nonzero;fill:rgb(0%,0%,0%);fill-opacity:1;" d="M 24.339844 1.28125 C 23.582031 1.28125 22.824219 1.40625 22.09375 1.679688 L 21.09375 2.070312 L 29.234375 10.210938 L 29.949219 10.859375 L 30.300781 9.941406 C 30.324219 9.898438 30.34375 9.851562 30.359375 9.808594 C 31.171875 7.496094 30.574219 4.886719 28.84375 3.15625 C 27.632812 1.941406 26 1.289062 24.339844 1.28125 Z M 8.035156 1.289062 C 6.246094 1.199219 4.453125 1.859375 3.15625 3.15625 C 1.390625 4.917969 0.8125 7.566406 1.675781 9.90625 L 2.070312 10.90625 L 10.210938 2.765625 L 10.859375 2.054688 L 9.945312 1.699219 C 9.898438 1.675781 9.851562 1.65625 9.808594 1.640625 C 9.226562 1.4375 8.632812 1.324219 8.035156 1.289062 Z M 16 3.839844 C 8.589844 3.839844 2.558594 9.871094 2.558594 17.28125 C 2.558594 24.691406 8.589844 30.71875 16 30.71875 C 23.410156 30.71875 29.441406 24.691406 29.441406 17.28125 C 29.441406 9.871094 23.410156 3.839844 16 3.839844 Z M 16 10.238281 C 16.351562 10.238281 16.640625 10.527344 16.640625 10.878906 L 16.640625 16.640625 L 22.398438 16.640625 C 22.753906 16.640625 23.039062 16.925781 23.039062 17.28125 C 23.039062 17.632812 22.753906 17.921875 22.398438 17.921875 L 16.640625 17.921875 L 16.640625 23.679688 C 16.640625 24.03125 16.351562 24.320312 16 24.320312 C 15.648438 24.320312 15.359375 24.03125 15.359375 23.679688 L 15.359375 17.921875 L 9.601562 17.921875 C 9.246094 17.921875 8.960938 17.632812 8.960938 17.28125 C 8.960938 16.925781 9.246094 16.640625 9.601562 16.640625 L 15.359375 16.640625 L 15.359375 10.878906 C 15.359375 10.527344 15.648438 10.238281 16 10.238281 Z M 5.46875 27.550781 L 3.386719 29.628906 C 3.136719 29.878906 3.136719 30.28125 3.386719 30.53125 C 3.511719 30.65625 3.675781 30.71875 3.839844 30.71875 C 4.003906 30.71875 4.167969 30.65625 4.292969 30.53125 L 6.398438 28.425781 C 6.078125 28.144531 5.765625 27.855469 5.46875 27.550781 Z M 26.53125 27.550781 C 26.234375 27.855469 25.921875 28.144531 25.601562 28.425781 L 27.707031 30.53125 C 27.832031 30.65625 27.996094 30.71875 28.160156 30.71875 C 28.324219 30.71875 28.488281 30.65625 28.613281 30.53125 C 28.863281 30.28125 28.863281 29.878906 28.613281 29.628906 Z M 26.53125 27.550781 "/>
</g>
</svg>
