<?xml version="1.0" encoding="UTF-8"?>
<svg xmlns="http://www.w3.org/2000/svg" xmlns:xlink="http://www.w3.org/1999/xlink" width="32" height="32" viewBox="0 0 32 32" version="1.1">
<g id="surface1">
<path style=" stroke:none;fill-rule:nonzero;fill:rgb(0%,0%,0%);fill-opacity:1;" d="M 3.839844 3.839844 C 2.78125 3.839844 1.921875 4.703125 1.921875 5.761719 L 1.921875 26.238281 C 1.921875 27.296875 2.78125 28.160156 3.839844 28.160156 L 19.738281 28.160156 C 20.730469 30.417969 22.980469 32 25.601562 32 C 29.128906 32 32 29.128906 32 25.601562 C 32 23.8125 31.261719 22.199219 30.078125 21.039062 L 30.078125 5.761719 C 30.078125 4.703125 29.21875 3.839844 28.160156 3.839844 L 7.039062 3.839844 L 7.039062 24.960938 C 7.039062 25.3125 6.753906 25.601562 6.398438 25.601562 C 6.046875 25.601562 5.761719 25.3125 5.761719 24.960938 L 5.761719 3.839844 Z M 17.921875 7.039062 C 22.867188 7.039062 26.878906 11.050781 26.878906 16 C 26.878906 17.140625 26.65625 18.230469 26.265625 19.234375 C 26.046875 19.210938 25.824219 19.199219 25.601562 19.199219 C 22.324219 19.199219 19.621094 21.671875 19.246094 24.851562 C 18.8125 24.914062 18.371094 24.960938 17.921875 24.960938 C 12.972656 24.960938 8.960938 20.949219 8.960938 16 C 8.960938 11.050781 12.972656 7.039062 17.921875 7.039062 Z M 17.921875 12.160156 C 15.808594 12.160156 14.078125 13.886719 14.078125 16 C 14.078125 18.113281 15.808594 19.839844 17.921875 19.839844 C 20.03125 19.839844 21.761719 18.113281 21.761719 16 C 21.761719 13.886719 20.03125 12.160156 17.921875 12.160156 Z M 17.921875 13.441406 C 19.339844 13.441406 20.480469 14.578125 20.480469 16 C 20.480469 17.421875 19.339844 18.558594 17.921875 18.558594 C 16.5 18.558594 15.359375 17.421875 15.359375 16 C 15.359375 14.578125 16.5 13.441406 17.921875 13.441406 Z M 17.921875 14.71875 C 17.21875 14.71875 16.640625 15.300781 16.640625 16 C 16.640625 16.699219 17.21875 17.28125 17.921875 17.28125 C 18.621094 17.28125 19.199219 16.699219 19.199219 16 C 19.199219 15.300781 18.621094 14.71875 17.921875 14.71875 Z M 25.601562 20.480469 C 25.816406 20.480469 26.03125 20.5 26.242188 20.523438 C 26.296875 20.53125 26.351562 20.542969 26.40625 20.550781 C 26.574219 20.578125 26.742188 20.613281 26.90625 20.65625 C 26.945312 20.667969 26.984375 20.675781 27.023438 20.6875 C 27.441406 20.808594 27.839844 20.980469 28.203125 21.203125 C 28.222656 21.210938 28.242188 21.222656 28.261719 21.234375 C 28.824219 21.578125 29.316406 22.03125 29.707031 22.558594 C 29.710938 22.5625 29.714844 22.570312 29.71875 22.574219 C 29.851562 22.753906 29.972656 22.9375 30.078125 23.132812 L 30.078125 23.128906 C 30.488281 23.863281 30.71875 24.703125 30.71875 25.601562 C 30.71875 26.496094 30.488281 27.339844 30.078125 28.074219 L 30.078125 28.066406 C 30.0625 28.097656 30.042969 28.128906 30.023438 28.160156 L 30.027344 28.160156 C 29.140625 29.6875 27.488281 30.71875 25.597656 30.71875 C 23.707031 30.71875 22.058594 29.6875 21.171875 28.160156 L 21.175781 28.160156 C 20.960938 27.789062 20.789062 27.390625 20.671875 26.972656 C 20.664062 26.949219 20.660156 26.921875 20.652344 26.898438 C 20.605469 26.726562 20.570312 26.550781 20.542969 26.375 C 20.535156 26.328125 20.527344 26.277344 20.523438 26.230469 C 20.496094 26.023438 20.480469 25.8125 20.480469 25.601562 C 20.480469 25.355469 20.503906 25.117188 20.539062 24.878906 C 20.542969 24.835938 20.550781 24.789062 20.558594 24.742188 C 20.597656 24.507812 20.652344 24.277344 20.722656 24.050781 L 20.71875 24.054688 C 21.335938 22.113281 23.085938 20.671875 25.1875 20.5 C 25.324219 20.492188 25.460938 20.480469 25.601562 20.480469 Z M 25.601562 21.824219 C 25.214844 21.824219 24.960938 22.078125 24.960938 22.464844 L 24.960938 24.960938 L 22.464844 24.960938 C 22.078125 24.960938 21.824219 25.214844 21.824219 25.601562 C 21.824219 25.984375 22.078125 26.238281 22.464844 26.238281 L 24.960938 26.238281 L 24.960938 28.734375 C 24.960938 29.121094 25.214844 29.375 25.601562 29.375 C 25.984375 29.375 26.238281 29.121094 26.238281 28.734375 L 26.238281 26.238281 L 28.734375 26.238281 C 29.121094 26.238281 29.375 25.984375 29.375 25.601562 C 29.375 25.214844 29.121094 24.960938 28.734375 24.960938 L 26.238281 24.960938 L 26.238281 22.464844 C 26.238281 22.078125 25.984375 21.824219 25.601562 21.824219 Z M 25.601562 21.824219 "/>
</g>
</svg>
