<?xml version="1.0" encoding="utf-8"?>
<svg xmlns="http://www.w3.org/2000/svg" viewBox="0 0 50 50" fill="#000000"><path d="M 38.03125 2.003906 C 36.847656 2 35.660156 2.199219 34.519531 2.625 L 32.957031 3.234375 L 45.675781 15.953125 L 46.796875 16.96875 L 47.347656 15.535156 C 47.378906 15.464844 47.410156 15.394531 47.433594 15.324219 C 48.703125 11.710938 47.773438 7.632813 45.070313 4.929688 C 43.175781 3.035156 40.625 2.015625 38.03125 2.003906 Z M 12.554688 2.015625 C 9.757813 1.871094 6.957031 2.902344 4.929688 4.929688 C 2.175781 7.683594 1.269531 11.824219 2.621094 15.480469 L 3.234375 17.039063 L 15.953125 4.320313 L 16.964844 3.210938 L 15.539063 2.652344 C 15.46875 2.621094 15.394531 2.589844 15.324219 2.5625 C 14.417969 2.246094 13.488281 2.066406 12.554688 2.015625 Z M 25 6 C 13.421875 6 4 15.421875 4 27 C 4 38.578125 13.421875 48 25 48 C 36.578125 48 46 38.578125 46 27 C 46 15.421875 36.578125 6 25 6 Z M 25 16 C 25.550781 16 26 16.449219 26 17 L 26 26 L 35 26 C 35.550781 26 36 26.449219 36 27 C 36 27.550781 35.550781 28 35 28 L 26 28 L 26 37 C 26 37.550781 25.550781 38 25 38 C 24.449219 38 24 37.550781 24 37 L 24 28 L 15 28 C 14.449219 28 14 27.550781 14 27 C 14 26.449219 14.449219 26 15 26 L 24 26 L 24 17 C 24 16.449219 24.449219 16 25 16 Z M 8.542969 43.046875 L 5.292969 46.292969 C 4.902344 46.683594 4.902344 47.316406 5.292969 47.707031 C 5.488281 47.902344 5.742188 48 6 48 C 6.257813 48 6.511719 47.902344 6.707031 47.707031 L 10 44.414063 C 9.496094 43.976563 9.007813 43.523438 8.542969 43.046875 Z M 41.457031 43.046875 C 40.992188 43.523438 40.503906 43.976563 40 44.414063 L 43.292969 47.707031 C 43.488281 47.902344 43.742188 48 44 48 C 44.257813 48 44.511719 47.902344 44.707031 47.707031 C 45.097656 47.316406 45.097656 46.683594 44.707031 46.292969 Z" fill="#000000"/></svg>
