<svg role="img" viewBox="0 0 256 256" xmlns="http://www.w3.org/2000/svg" xmlns:xlink="http://www.w3.org/1999/xlink"><defs><clipPath id="a"><path d="M0 256V0h256v256zM126 64.416c-37.171 0-67.584 30.413-67.584 67.584 0 37.171 30.413 67.584 67.584 67.584 37.171 0 67.584-30.413 67.584-67.584 0-37.171-30.413-67.584-67.584-67.584" fill="none"/></clipPath></defs><g clip-path="url(#a)" fill="none" font-family="none" font-size="none" font-weight="none" stroke-miterlimit="10" style="mix-blend-mode:normal" text-anchor="none"><path d="M10.24 40.96v51.2h71.68v-51.2zm81.92 0v51.2h71.68v-51.2zm81.92 0v51.2h71.68v-51.2zM10.24 102.4v51.2h30.72v-51.2zm40.96 0v51.2h71.68v-51.2zm81.92 0v51.2h71.68v-51.2zm81.92 0v51.2h30.72v-51.2zm-204.8 61.44v51.2h71.68v-51.2zm81.92 0v51.2h71.68v-51.2zm81.92 0v51.2h71.68v-51.2z" fill="#6a6a6a"/></g><path d="M10 0C4.5 0 0 4.5 0 10s4.5 10 10 10 10-4.5 10-10S15.5 0 10 0m4.9 11H11v3.9c0 .6-.4 1-1 1s-1-.4-1-1V11H5.1c-.6 0-1-.4-1-1s.4-1 1-1H9V5c0-.6.4-1 1-1s1 .4 1 1v4h3.9c.6 0 1 .4 1 1s-.4 1-1 1" fill="#000000" font-family="none" font-size="none" font-weight="none" style="mix-blend-mode:normal" text-anchor="none" transform="translate(69.68 75.68)scale(5.632)"/></svg>