<svg role="img" viewBox="0 0 32 32" xmlns="http://www.w3.org/2000/svg"><path d="M7.04 1.281a.611.611 0 0 0-.286.067l-.992.496-.996-.496a.64.64 0 0 0-.926.574v28.156c0 .356.285.64.64.64h17.293c2.504 1.868 6.082 1.677 8.352-.593 2.488-2.488 2.488-6.562 0-9.05a6.366 6.366 0 0 0-1.965-1.333V1.922a.64.64 0 0 0-.926-.574l-.996.496-.992-.496a.645.645 0 0 0-.574 0l-.992.496-.992-.496a.645.645 0 0 0-.575 0l-.992.496-.996-.496a.637.637 0 0 0-.57 0l-.996.496-.993-.496a.645.645 0 0 0-.574 0L16 1.844l-.992-.496a.645.645 0 0 0-.574 0l-.993.496-.996-.496a.637.637 0 0 0-.57 0l-.996.496-.992-.496a.645.645 0 0 0-.575 0l-.992.496-.992-.496a.627.627 0 0 0-.289-.067M8.32 7.04h9.602c.351 0 .637.285.637.64a.638.638 0 0 1-.637.641H8.32a.639.639 0 0 1-.64-.64c0-.356.285-.64.64-.64m13.442 0h1.918c.355 0 .64.285.64.64a.638.638 0 0 1-.64.641h-1.918a.639.639 0 0 1-.64-.64c0-.356.284-.64.64-.64M8.32 10.88h7.04a.641.641 0 0 1 0 1.281H8.32a.641.641 0 0 1 0-1.281m13.442 0h1.918a.641.641 0 0 1 0 1.281h-1.918a.641.641 0 0 1 0-1.281M8.32 14.719h9.602a.64.64 0 0 1 0 1.281H8.32a.641.641 0 0 1 0-1.281m13.442 0h1.918a.641.641 0 0 1 0 1.281h-1.918a.641.641 0 0 1 0-1.281M8.32 18.559h7.04a.641.641 0 0 1 0 1.28H8.32a.641.641 0 0 1 0-1.281m13.442 0h1.918a.64.64 0 0 1 .64.64c0 .051-.02.098-.027.145a6.513 6.513 0 0 0-1.461.496h-1.07a.641.641 0 0 1 0-1.281m3.84 1.925a5.1 5.1 0 0 1 3.617 1.496c1.992 1.993 1.992 5.25 0 7.239a5.13 5.13 0 0 1-7.239 0 5.13 5.13 0 0 1 0-7.239 5.107 5.107 0 0 1 3.622-1.496m0 1.313a.622.622 0 0 0-.637.637v2.53h-2.531a.622.622 0 0 0-.637.638.62.62 0 0 0 .637.632h2.53v2.532c0 .363.274.636.638.636.18 0 .359-.093.449-.183a.672.672 0 0 0 .183-.453v-2.532h2.532c.183 0 .363-.09.453-.183a.67.67 0 0 0 .183-.45.622.622 0 0 0-.636-.636h-2.532v-2.531a.621.621 0 0 0-.632-.637m-17.282.601a.641.641 0 1 1 0 1.28.641.641 0 0 1 0-1.28m1.918 0a.641.641 0 0 1 0 1.282.64.64 0 0 1 0-1.281m1.922 0a.641.641 0 1 1 0 1.28.641.641 0 0 1 0-1.28m1.918 0a.641.641 0 0 1 0 1.282.64.64 0 0 1 0-1.281m1.922 0a.641.641 0 1 1 0 1.28.641.641 0 0 1 0-1.28m1.922 0a.64.64 0 0 1 0 1.282.641.641 0 0 1 0-1.281m0 0" style="stroke:none;fill-rule:nonzero;fill:rgb(0%,0%,0%);fill-opacity:1"/></svg>