<?xml version="1.0" encoding="UTF-8"?>
<svg xmlns="http://www.w3.org/2000/svg" xmlns:xlink="http://www.w3.org/1999/xlink" width="32" height="32" viewBox="0 0 32 32" version="1.1">
<g id="surface1">
<path style=" stroke:none;fill-rule:nonzero;fill:rgb(0%,0%,0%);fill-opacity:1;" d="M 16 1.921875 C 15.417969 1.921875 14.296875 2.042969 13.375 2.832031 C 13.199219 2.964844 12.753906 3.351562 11.84375 4.140625 L 11.449219 4.480469 L 7.039062 4.480469 C 6.6875 4.480469 6.402344 4.769531 6.398438 5.121094 L 6.398438 8.9375 C 4.980469 10.191406 3.566406 11.449219 2.152344 12.707031 L 7.679688 17.015625 L 7.679688 5.761719 L 24.320312 5.761719 L 24.320312 17.015625 L 29.847656 12.707031 C 28.4375 11.449219 27.019531 10.191406 25.601562 8.9375 L 25.601562 5.121094 C 25.601562 4.765625 25.3125 4.480469 24.960938 4.480469 L 20.515625 4.480469 C 19.738281 3.78125 18.886719 3.03125 18.65625 2.859375 C 17.703125 2.042969 16.582031 1.921875 16 1.921875 M 10.238281 8.960938 C 10.007812 8.957031 9.792969 9.078125 9.679688 9.277344 C 9.5625 9.476562 9.5625 9.722656 9.679688 9.921875 C 9.792969 10.121094 10.007812 10.242188 10.238281 10.238281 L 21.761719 10.238281 C 21.992188 10.242188 22.207031 10.121094 22.320312 9.921875 C 22.4375 9.722656 22.4375 9.476562 22.320312 9.277344 C 22.207031 9.078125 21.992188 8.957031 21.761719 8.960938 Z M 10.238281 12.160156 C 10.007812 12.15625 9.792969 12.277344 9.679688 12.476562 C 9.5625 12.675781 9.5625 12.921875 9.679688 13.121094 C 9.792969 13.320312 10.007812 13.441406 10.238281 13.441406 L 17.28125 13.441406 C 17.511719 13.441406 17.726562 13.320312 17.84375 13.121094 C 17.957031 12.921875 17.957031 12.675781 17.84375 12.476562 C 17.726562 12.277344 17.511719 12.15625 17.28125 12.160156 Z M 30.078125 14.078125 L 22.371094 20.09375 C 21.917969 20.359375 21.5 20.679688 21.125 21.046875 C 19.488281 19.753906 18.03125 18.605469 17.839844 18.449219 C 17.316406 18.03125 16.667969 17.804688 16 17.804688 C 15.839844 17.804688 14.996094 17.839844 14.140625 18.464844 C 13.550781 18.902344 6.59375 24.3125 2.855469 27.222656 C 2.503906 27.496094 2.195312 27.734375 1.921875 27.949219 L 1.921875 29.441406 C 1.921875 29.792969 2.207031 30.078125 2.558594 30.078125 L 21.035156 30.078125 C 21.050781 30.097656 21.066406 30.117188 21.082031 30.132812 C 23.570312 32.621094 27.644531 32.621094 30.132812 30.132812 C 32.621094 27.644531 32.621094 23.570312 30.132812 21.082031 C 30.117188 21.066406 30.097656 21.050781 30.078125 21.035156 Z M 1.921875 14.167969 L 1.921875 26.328125 L 2.070312 26.210938 C 4.292969 24.480469 7.34375 22.105469 9.726562 20.257812 Z M 25.609375 20.492188 C 26.917969 20.492188 28.234375 20.992188 29.230469 21.988281 C 31.21875 23.980469 31.21875 27.238281 29.230469 29.230469 C 27.238281 31.21875 23.980469 31.21875 21.988281 29.230469 C 19.996094 27.226562 19.996094 23.988281 21.988281 21.988281 C 22.949219 21.027344 24.25 20.488281 25.609375 20.492188 M 25.609375 21.804688 C 25.4375 21.800781 25.273438 21.867188 25.15625 21.984375 C 25.035156 22.105469 24.96875 22.269531 24.972656 22.441406 L 24.972656 24.972656 L 22.441406 24.972656 C 22.269531 24.96875 22.105469 25.035156 21.984375 25.152344 C 21.867188 25.273438 21.800781 25.4375 21.804688 25.609375 C 21.804688 25.96875 22.078125 26.242188 22.441406 26.242188 L 24.972656 26.242188 L 24.972656 28.777344 C 24.972656 29.136719 25.246094 29.410156 25.609375 29.410156 C 25.789062 29.410156 25.96875 29.320312 26.058594 29.230469 C 26.171875 29.105469 26.238281 28.945312 26.242188 28.777344 L 26.242188 26.242188 L 28.777344 26.242188 C 28.945312 26.234375 29.105469 26.171875 29.230469 26.058594 C 29.320312 25.96875 29.410156 25.789062 29.410156 25.609375 C 29.414062 25.4375 29.347656 25.273438 29.226562 25.15625 C 29.109375 25.035156 28.945312 24.96875 28.777344 24.972656 L 26.242188 24.972656 L 26.242188 22.441406 C 26.246094 22.269531 26.179688 22.105469 26.058594 21.988281 C 25.941406 21.867188 25.777344 21.800781 25.609375 21.804688 M 25.609375 21.804688 "/>
</g>
</svg>
