<?xml version="1.0" encoding="utf-8"?>
<svg xmlns="http://www.w3.org/2000/svg" viewBox="0 0 50 50" fill="#000000"><path d="M 11 2 C 10.846625 2 10.693734 2.0349687 10.552734 2.1054688 L 9 2.8828125 L 7.4472656 2.1054688 C 7.1372656 1.9514688 6.7706094 1.9664375 6.4746094 2.1484375 C 6.1806094 2.3314375 6 2.653 6 3 L 6 47 C 6 47.553 6.448 48 7 48 L 34.021484 48 C 37.930307 50.91796 43.525274 50.615351 47.070312 47.070312 C 50.959312 43.181313 50.959313 36.818688 47.070312 32.929688 C 46.161764 32.021139 45.115596 31.333648 44 30.849609 L 44 3 C 44 2.653 43.819391 2.3314375 43.525391 2.1484375 C 43.229391 1.9654375 42.861734 1.9514688 42.552734 2.1054688 L 41 2.8828125 L 39.447266 2.1054688 C 39.166266 1.9644687 38.834734 1.9644687 38.552734 2.1054688 L 37 2.8828125 L 35.447266 2.1054688 C 35.166266 1.9644687 34.834734 1.9644687 34.552734 2.1054688 L 33 2.8828125 L 31.447266 2.1054688 C 31.166266 1.9644687 30.834734 1.9644687 30.552734 2.1054688 L 29 2.8828125 L 27.447266 2.1054688 C 27.166266 1.9644687 26.834734 1.9644687 26.552734 2.1054688 L 25 2.8828125 L 23.447266 2.1054688 C 23.166266 1.9644687 22.834734 1.9644687 22.552734 2.1054688 L 21 2.8828125 L 19.447266 2.1054688 C 19.166266 1.9644687 18.834734 1.9644687 18.552734 2.1054688 L 17 2.8828125 L 15.447266 2.1054688 C 15.166266 1.9644687 14.834734 1.9644687 14.552734 2.1054688 L 13 2.8828125 L 11.447266 2.1054688 C 11.306766 2.0349687 11.153375 2 11 2 z M 13 11 L 28 11 C 28.553 11 29 11.447 29 12 C 29 12.553 28.553 13 28 13 L 13 13 C 12.447 13 12 12.553 12 12 C 12 11.447 12.447 11 13 11 z M 34 11 L 37 11 C 37.553 11 38 11.447 38 12 C 38 12.553 37.553 13 37 13 L 34 13 C 33.447 13 33 12.553 33 12 C 33 11.447 33.447 11 34 11 z M 13 17 L 24 17 C 24.553 17 25 17.447 25 18 C 25 18.553 24.553 19 24 19 L 13 19 C 12.447 19 12 18.553 12 18 C 12 17.447 12.447 17 13 17 z M 34 17 L 37 17 C 37.553 17 38 17.447 38 18 C 38 18.553 37.553 19 37 19 L 34 19 C 33.447 19 33 18.553 33 18 C 33 17.447 33.447 17 34 17 z M 13 23 L 28 23 C 28.553 23 29 23.447 29 24 C 29 24.553 28.553 25 28 25 L 13 25 C 12.447 25 12 24.553 12 24 C 12 23.447 12.447 23 13 23 z M 34 23 L 37 23 C 37.553 23 38 23.447 38 24 C 38 24.553 37.553 25 37 25 L 34 25 C 33.447 25 33 24.553 33 24 C 33 23.447 33.447 23 34 23 z M 13 29 L 24 29 C 24.553 29 25 29.447 25 30 C 25 30.553 24.553 31 24 31 L 13 31 C 12.447 31 12 30.553 12 30 C 12 29.447 12.447 29 13 29 z M 34 29 L 37 29 C 37.553 29 38 29.447 38 30 C 38 30.080545 37.97299 30.151568 37.955078 30.226562 C 37.172097 30.388336 36.408177 30.650347 35.675781 31 L 34 31 C 33.447 31 33 30.553 33 30 C 33 29.447 33.447 29 34 29 z M 40 32.009766 C 42.050625 32.009766 44.10075 32.78825 45.65625 34.34375 C 48.76725 37.45475 48.76725 42.54525 45.65625 45.65625 C 42.54425 48.76725 37.45475 48.76725 34.34375 45.65625 C 31.23275 42.54425 31.23275 37.45475 34.34375 34.34375 C 35.89975 32.78825 37.949375 32.009766 40 32.009766 z M 40 34.060547 C 39.434 34.060547 39.009766 34.484781 39.009766 35.050781 L 39.009766 39.009766 L 35.050781 39.009766 C 34.484781 39.009766 34.060547 39.434 34.060547 40 C 34.060547 40.566 34.484781 40.990234 35.050781 40.990234 L 39.009766 40.990234 L 39.009766 44.949219 C 39.009766 45.515219 39.434 45.939453 40 45.939453 C 40.283 45.939453 40.566031 45.79725 40.707031 45.65625 C 40.849031 45.51525 40.990234 45.232219 40.990234 44.949219 L 40.990234 40.990234 L 44.949219 40.990234 C 45.232219 40.990234 45.51525 40.848031 45.65625 40.707031 C 45.79825 40.566031 45.939453 40.283 45.939453 40 C 45.939453 39.434 45.515219 39.009766 44.949219 39.009766 L 40.990234 39.009766 L 40.990234 35.050781 C 40.990234 34.485781 40.566 34.060547 40 34.060547 z M 13 35 C 13.552 35 14 35.448 14 36 C 14 36.552 13.552 37 13 37 C 12.448 37 12 36.552 12 36 C 12 35.448 12.448 35 13 35 z M 16 35 C 16.552 35 17 35.448 17 36 C 17 36.552 16.552 37 16 37 C 15.448 37 15 36.552 15 36 C 15 35.448 15.448 35 16 35 z M 19 35 C 19.552 35 20 35.448 20 36 C 20 36.552 19.552 37 19 37 C 18.448 37 18 36.552 18 36 C 18 35.448 18.448 35 19 35 z M 22 35 C 22.552 35 23 35.448 23 36 C 23 36.552 22.552 37 22 37 C 21.448 37 21 36.552 21 36 C 21 35.448 21.448 35 22 35 z M 25 35 C 25.552 35 26 35.448 26 36 C 26 36.552 25.552 37 25 37 C 24.448 37 24 36.552 24 36 C 24 35.448 24.448 35 25 35 z M 28 35 C 28.552 35 29 35.448 29 36 C 29 36.552 28.552 37 28 37 C 27.448 37 27 36.552 27 36 C 27 35.448 27.448 35 28 35 z" fill="#000000"/></svg>
