<svg role="img" viewBox="0 0 32 32" xmlns="http://www.w3.org/2000/svg"><path d="M16 1.922c-.582 0-1.703.121-2.625.91-.176.133-.621.52-1.531 1.309l-.395.34H7.04a.641.641 0 0 0-.64.64v3.816a1627 1627 0 0 0-4.247 3.77l5.528 4.309V5.762h16.64v11.254l5.528-4.309a1627 1627 0 0 0-4.246-3.77V5.122c0-.355-.29-.64-.641-.64h-4.445c-.778-.7-1.63-1.45-1.86-1.622-.953-.816-2.074-.937-2.656-.937M10.238 8.96a.63.63 0 0 0-.558.316.635.635 0 0 0 0 .645c.113.2.328.32.558.316h11.524a.63.63 0 0 0 .558-.316.635.635 0 0 0 0-.645.63.63 0 0 0-.558-.316Zm0 3.2a.63.63 0 0 0-.558.316.641.641 0 0 0 .559.965h7.042c.23 0 .446-.122.563-.32a.654.654 0 0 0 0-.645.64.64 0 0 0-.563-.317Zm19.84 1.917-7.707 6.016a6.399 6.399 0 0 0-1.246.953c-1.637-1.293-3.094-2.442-3.285-2.598a2.972 2.972 0 0 0-1.84-.644c-.16 0-1.004.035-1.86.66-.59.437-7.546 5.848-11.285 8.758-.351.273-.66.511-.933.726v1.492c0 .352.285.637.637.637h18.476c.016.02.031.04.047.055 2.488 2.488 6.563 2.488 9.05 0 2.49-2.488 2.49-6.563 0-9.051-.015-.016-.034-.031-.054-.047Zm-28.156.09v12.16l.148-.117c2.223-1.73 5.274-4.106 7.657-5.953Zm23.687 6.324c1.309 0 2.625.5 3.621 1.496 1.989 1.992 1.989 5.25 0 7.242-1.992 1.989-5.25 1.989-7.242 0a5.135 5.135 0 0 1 0-7.242 5.107 5.107 0 0 1 3.621-1.496m0 1.313a.622.622 0 0 0-.636.636v2.532H22.44a.622.622 0 0 0-.636.636c0 .36.273.633.636.633h2.532v2.535c0 .36.273.633.636.633.18 0 .36-.09.45-.18a.688.688 0 0 0 .183-.453v-2.535h2.535a.71.71 0 0 0 .453-.183c.09-.09.18-.27.18-.45a.621.621 0 0 0-.633-.636h-2.535V22.44a.621.621 0 0 0-.633-.636m0 0" style="stroke:none;fill-rule:nonzero;fill:rgb(0%,0%,0%);fill-opacity:1"/></svg>