<?xml version="1.0" encoding="UTF-8"?>
<svg xmlns="http://www.w3.org/2000/svg" xmlns:xlink="http://www.w3.org/1999/xlink" width="32" height="32" viewBox="0 0 32 32" version="1.1">
<g id="surface1">
<path style=" stroke:none;fill-rule:nonzero;fill:rgb(0%,0%,0%);fill-opacity:1;" d="M 16 0.640625 C 14.941406 0.640625 14.078125 1.5 14.078125 2.558594 C 14.078125 3.617188 14.941406 4.480469 16 4.480469 C 17.058594 4.476562 17.917969 3.621094 17.921875 2.558594 C 17.921875 1.5 17.058594 0.640625 16 0.640625 M 18.714844 4.230469 C 18.140625 5.179688 17.109375 5.757812 16 5.761719 C 14.890625 5.757812 13.863281 5.179688 13.285156 4.230469 C 9.800781 5.257812 7.679688 8.207031 7.679688 12.160156 C 7.679688 18.785156 5.882812 20.433594 4.8125 21.421875 C 4.3125 21.878906 3.839844 22.3125 3.839844 23.039062 C 3.839844 25.625 7.816406 26.878906 16 26.878906 C 17.207031 26.878906 18.292969 26.84375 19.316406 26.789062 C 19.398438 27.226562 19.523438 27.65625 19.699219 28.066406 C 18.46875 28.136719 17.21875 28.160156 16 28.160156 C 14.734375 28.164062 13.46875 28.132812 12.203125 28.0625 C 12.472656 29.953125 14.089844 31.355469 16 31.359375 C 17.882812 31.359375 19.4375 29.996094 19.765625 28.207031 C 20.765625 30.433594 23.007812 32 25.601562 32 C 29.121094 32 32 29.121094 32 25.601562 C 32 22.078125 29.121094 19.199219 25.601562 19.199219 C 25.5625 19.199219 25.53125 19.203125 25.492188 19.203125 C 24.84375 17.851562 24.320312 15.734375 24.320312 12.160156 C 24.320312 8.195312 22.199219 5.253906 18.714844 4.230469 M 25.601562 20.480469 C 28.414062 20.480469 30.71875 22.785156 30.71875 25.601562 C 30.71875 28.414062 28.414062 30.71875 25.601562 30.71875 C 22.785156 30.71875 20.480469 28.414062 20.480469 25.601562 C 20.480469 22.785156 22.785156 20.480469 25.601562 20.480469 M 24.960938 22.398438 L 24.960938 24.960938 L 22.398438 24.960938 L 22.398438 26.238281 L 24.960938 26.238281 L 24.960938 28.800781 L 26.238281 28.800781 L 26.238281 26.238281 L 28.800781 26.238281 L 28.800781 24.960938 L 26.238281 24.960938 L 26.238281 22.398438 Z M 24.960938 22.398438 "/>
</g>
</svg>
