<svg role="img" viewBox="0 0 32 32" xmlns="http://www.w3.org/2000/svg"><path d="M18.555 5.762c-3.242 0-5.992 1.707-7.364 4.52-.703-.446-1.55-.68-2.46-.68-2.329 0-4.106 1.77-4.25 4.164C1.624 14.734 0 17 0 20.05a6.194 6.194 0 0 0 6.188 6.187h13.054a6.362 6.362 0 0 0 1.832 3.887c2.488 2.488 6.563 2.488 9.051 0 1.918-1.918 2.352-4.77 1.316-7.121.36-.746.559-1.578.559-2.461 0-3.027-2.312-5.707-5.129-6.094.004-.125.008-.25.008-.37 0-4.665-3.656-8.317-8.324-8.317m7.047 14.722a5.1 5.1 0 0 1 3.617 1.496c1.992 1.993 1.992 5.25 0 7.239a5.13 5.13 0 0 1-7.239 0 5.13 5.13 0 0 1 0-7.239 5.107 5.107 0 0 1 3.622-1.496m0 1.313a.622.622 0 0 0-.637.637v2.53h-2.531a.622.622 0 0 0-.637.638.62.62 0 0 0 .637.632h2.53v2.532c0 .363.274.636.638.636.18 0 .359-.093.449-.183a.672.672 0 0 0 .183-.453v-2.532h2.532c.183 0 .363-.09.453-.183a.67.67 0 0 0 .183-.45.622.622 0 0 0-.636-.636h-2.532v-2.531a.621.621 0 0 0-.632-.637m0 0" style="stroke:none;fill-rule:nonzero;fill:rgb(0%,0%,0%);fill-opacity:1"/></svg>