<svg role="img" viewBox="0 0 32 32" xmlns="http://www.w3.org/2000/svg"><path d="M16 .64c-1.059 0-1.922.86-1.922 1.919 0 1.058.863 1.921 1.922 1.921a1.926 1.926 0 0 0 1.922-1.921A1.922 1.922 0 0 0 16 .64m2.715 3.59A3.185 3.185 0 0 1 16 5.762a3.19 3.19 0 0 1-2.715-1.532C9.801 5.258 7.68 8.207 7.68 12.16c0 6.625-1.797 8.274-2.867 9.262-.5.457-.973.89-.973 1.617 0 2.586 3.976 3.84 12.16 3.84 1.207 0 2.293-.035 3.316-.09a6.1 6.1 0 0 0 .383 1.277c-1.23.07-2.48.094-3.699.094a65 65 0 0 1-3.797-.098A3.843 3.843 0 0 0 16 31.36c1.883 0 3.438-1.363 3.766-3.152 1 2.227 3.242 3.793 5.836 3.793C29.122 32 32 29.121 32 25.602c0-3.524-2.879-6.403-6.398-6.403-.04 0-.07.004-.11.004-.648-1.351-1.172-3.469-1.172-7.043 0-3.965-2.12-6.906-5.605-7.93m6.887 16.25c2.812 0 5.117 2.305 5.117 5.122 0 2.812-2.305 5.117-5.117 5.117-2.817 0-5.122-2.305-5.122-5.117 0-2.817 2.305-5.122 5.122-5.122m-.641 1.918v2.563h-2.563v1.277h2.563v2.563h1.277v-2.563h2.563v-1.277h-2.563v-2.563Zm0 0" style="stroke:none;fill-rule:nonzero;fill:rgb(0%,0%,0%);fill-opacity:1"/></svg>