<?xml version="1.0" encoding="UTF-8"?>
<svg xmlns="http://www.w3.org/2000/svg" xmlns:xlink="http://www.w3.org/1999/xlink" width="32" height="32" viewBox="0 0 32 32" version="1.1">
<g id="surface1">
<path style=" stroke:none;fill-rule:nonzero;fill:rgb(0%,0%,0%);fill-opacity:1;" d="M 13.441406 0 C 5.402344 0 0 2.976562 0 5.757812 C 0 8.539062 5.402344 11.519531 13.441406 11.519531 C 21.480469 11.519531 26.878906 8.539062 26.878906 5.757812 C 26.878906 2.976562 21.480469 0 13.441406 0 Z M 0 8.710938 L 0 12.257812 C 0 14.992188 5.40625 17.921875 13.453125 17.921875 C 21.496094 17.921875 26.878906 14.992188 26.878906 12.257812 L 26.878906 8.710938 C 24.527344 11.113281 19.476562 12.800781 13.453125 12.800781 C 7.421875 12.800781 2.351562 11.113281 0 8.710938 Z M 0 15.300781 L 0 18.683594 C 0 21.417969 5.40625 24.320312 13.453125 24.320312 C 15.683594 24.320312 17.699219 24.117188 19.46875 23.734375 C 19.289062 24.324219 19.199219 25.351562 19.207031 25.226562 C 17.445312 25.570312 15.507812 25.601562 13.453125 25.601562 C 7.421875 25.601562 2.351562 24.132812 0 21.730469 L 0 25.054688 C 0 27.792969 5.40625 30.71875 13.453125 30.71875 C 16.246094 30.71875 18.710938 30.359375 20.753906 29.785156 C 21.929688 31.144531 23.664062 32.011719 25.601562 32.011719 C 29.136719 32.011719 32.011719 29.132812 32.011719 25.597656 C 32.011719 22.472656 29.765625 19.867188 26.800781 19.304688 C 26.859375 19.097656 26.878906 18.890625 26.878906 18.683594 L 26.878906 15.300781 C 24.527344 17.703125 19.476562 19.199219 13.453125 19.199219 C 7.421875 19.199219 2.351562 17.703125 0 15.300781 Z M 25.601562 20.492188 C 28.417969 20.492188 30.707031 22.785156 30.707031 25.601562 C 30.707031 28.417969 28.417969 30.707031 25.601562 30.707031 C 22.785156 30.707031 20.492188 28.417969 20.492188 25.601562 C 20.492188 22.785156 22.785156 20.492188 25.601562 20.492188 Z M 24.960938 22.398438 L 24.960938 24.960938 L 22.398438 24.960938 L 22.398438 26.238281 L 24.960938 26.238281 L 24.960938 28.800781 L 26.238281 28.800781 L 26.238281 26.238281 L 28.800781 26.238281 L 28.800781 24.960938 L 26.238281 24.960938 L 26.238281 22.398438 Z M 24.960938 22.398438 "/>
</g>
</svg>
