<svg role="img" viewBox="0 0 32 32" xmlns="http://www.w3.org/2000/svg"><path d="m29.441 7.04-5.734.003c-.176-.063-.547-.652-.742-.969-.492-.785-1.004-1.594-1.844-1.594H10.88c-.84 0-1.352.81-1.844 1.594-.195.317-.566.906-.715.965H2.56A1.922 1.922 0 0 0 .64 8.961V25.6c0 1.06.859 1.919 1.918 1.919H29.44c1.059 0 1.918-.86 1.918-1.918V8.96a1.922 1.922 0 0 0-1.918-1.922M20.48 17.92h-3.84v3.84a.638.638 0 0 1-.641.636.638.638 0 0 1-.64-.636v-3.84h-3.84a.641.641 0 0 1 0-1.281h3.84V12.8c0-.356.285-.64.64-.64.355 0 .64.284.64.64v3.84h3.84a.641.641 0 0 1 0 1.28m0 0" style="stroke:none;fill-rule:nonzero;fill:rgb(0%,0%,0%);fill-opacity:1"/></svg>