<?xml version="1.0" encoding="utf-8"?>
<svg xmlns="http://www.w3.org/2000/svg" viewBox="0 0 50 50" fill="#000000"><path d="M 25 1 C 23.346 1 22 2.346 22 4 C 22 5.654 23.346 7 25 7 C 26.654 7 28 5.654 28 4 C 28 2.346 26.654 1 25 1 z M 29.244141 6.609375 C 28.363141 8.038375 26.798 9 25 9 C 23.203 9 21.636859 8.0383281 20.755859 6.6113281 C 15.314859 8.2173281 12 12.821 12 19 C 12 29.354 9.1935781 31.92975 7.5175781 33.46875 C 6.7365781 34.18575 6 34.863 6 36 C 6 40.038 12.215 42 25 42 C 26.883419 42 28.583028 41.945366 30.179688 41.859375 C 30.311272 42.550891 30.512208 43.21939 30.779297 43.853516 C 28.860259 43.96074 26.903293 44 25 44 C 23.046 44 21.034406 43.961656 19.066406 43.847656 C 19.480406 46.754656 21.98 49 25 49 C 27.939788 49 30.371114 46.866736 30.880859 44.072266 C 32.448709 47.555375 35.949633 50 40 50 C 45.5 50 50 45.5 50 40 C 50 34.5 45.5 30 40 30 C 39.944039 30 39.889735 30.006884 39.833984 30.007812 C 38.818948 27.891774 38 24.585741 38 19 C 38 12.805 34.687141 8.211375 29.244141 6.609375 z M 40 32 C 44.4 32 48 35.6 48 40 C 48 44.4 44.4 48 40 48 C 35.6 48 32 44.4 32 40 C 32 35.6 35.6 32 40 32 z M 39 35 L 39 39 L 35 39 L 35 41 L 39 41 L 39 45 L 41 45 L 41 41 L 45 41 L 45 39 L 41 39 L 41 35 L 39 35 z" fill="#000000"/></svg>
