<svg role="img" viewBox="0 0 256 256" xmlns="http://www.w3.org/2000/svg" xmlns:xlink="http://www.w3.org/1999/xlink"><defs><clipPath id="a"><path d="M0 256V0h256v256zM126 26.416c-37.171 0-67.584 30.413-67.584 67.584 0 37.171 30.413 67.584 67.584 67.584 37.171 0 67.584-30.413 67.584-67.584 0-37.171-30.413-67.584-67.584-67.584" fill="none"/></clipPath></defs><g clip-path="url(#a)" fill="none" font-family="none" font-size="none" font-weight="none" stroke-miterlimit="10" style="mix-blend-mode:normal" text-anchor="none"><path d="M110.08 5.12a20.992 20.992 0 0 0-17.766 10.168l-1.362 2.253a10.772 10.772 0 0 1-9.052 5.207l-2.622.062A21.018 21.018 0 0 0 58.65 43.443l-.052 2.617a10.803 10.803 0 0 1-5.222 9.052l-2.248 1.346a21.033 21.033 0 0 0-7.536 28.191l1.26 2.289a10.818 10.818 0 0 1 0 10.444l-1.26 2.289a21.023 21.023 0 0 0 7.547 28.19l2.242 1.347a10.793 10.793 0 0 1 5.223 9.052l.05 2.622a21.028 21.028 0 0 0 20.634 20.628l2.622.062a10.752 10.752 0 0 1 9.042 5.222l1.356 2.227a20.992 20.992 0 0 0 28.17 7.558l2.305-1.27a10.752 10.752 0 0 1 10.44.01l2.298 1.25a21.007 21.007 0 0 0 28.17-7.537l1.357-2.243a10.783 10.783 0 0 1 9.052-5.222l2.622-.051a21.028 21.028 0 0 0 20.628-20.634l.052-2.622a10.788 10.788 0 0 1 5.222-9.041l2.248-1.357a21.018 21.018 0 0 0 7.536-28.18l-1.26-2.305a10.783 10.783 0 0 1 0-10.44l1.26-2.288a21.023 21.023 0 0 0-7.547-28.19l-2.242-1.347a10.793 10.793 0 0 1-5.223-9.052l-.046-2.622a21.023 21.023 0 0 0-20.633-20.628l-2.617-.062a10.767 10.767 0 0 1-9.052-5.222l-1.346-2.227a21.018 21.018 0 0 0-28.18-7.547l-2.305 1.26a10.752 10.752 0 0 1-10.44 0l-2.298-1.26A21.043 21.043 0 0 0 110.08 5.12m77.379 164.572a31.35 31.35 0 0 1-10.527 2.069l-2.622.05a.553.553 0 0 0-.501.288l-1.357 2.242a31.007 31.007 0 0 1-23.45 14.9l-1.474 3.368-13.788 31.509 10.362 23.69a5.11 5.11 0 0 0 4.7 3.072 5.126 5.126 0 0 0 3.994-1.92l18.96-23.68h33.382a5.115 5.115 0 0 0 4.639-7.27zm-118.651.087L46.56 218.01a5.104 5.104 0 0 0 .328 4.9 5.106 5.106 0 0 0 4.311 2.371h33.382l18.944 23.68a5.115 5.115 0 0 0 8.684-1.152l25.938-59.3a31.693 31.693 0 0 1-7.547-2.939l-2.32-1.27a.579.579 0 0 0-.291-.081.553.553 0 0 0-.272.082l-2.298 1.259a31.473 31.473 0 0 1-15.11 3.901 31.048 31.048 0 0 1-26.762-15.109L82.19 172.1a.548.548 0 0 0-.501-.287l-2.622-.051a31.386 31.386 0 0 1-10.26-1.982" fill="#000000"/></g><path d="M10 0C4.5 0 0 4.5 0 10s4.5 10 10 10 10-4.5 10-10S15.5 0 10 0m4.9 11H11v3.9c0 .6-.4 1-1 1s-1-.4-1-1V11H5.1c-.6 0-1-.4-1-1s.4-1 1-1H9V5c0-.6.4-1 1-1s1 .4 1 1v4h3.9c.6 0 1 .4 1 1s-.4 1-1 1" fill="#000000" font-family="none" font-size="none" font-weight="none" style="mix-blend-mode:normal" text-anchor="none" transform="translate(69.68 37.68)scale(5.632)"/></svg>