<svg role="img" viewBox="0 0 32 32" xmlns="http://www.w3.org/2000/svg"><path d="M16 1.281C7.883 1.281 1.281 7.883 1.281 16c0 8.117 6.602 14.719 14.719 14.719 1.707 0 3.344-.293 4.871-.828A6.382 6.382 0 0 0 25.601 32C29.122 32 32 29.121 32 25.602c0-1.875-.82-3.559-2.11-4.73A14.68 14.68 0 0 0 30.719 16c0-8.117-6.602-14.719-14.719-14.719m0 3.2c.355 0 .64.285.64.64V14.2a1.912 1.912 0 0 1 1.283 1.8A1.926 1.926 0 0 1 16 17.922c-.297 0-.57-.074-.824-.195l-3.844 3.847a.639.639 0 0 1-.906 0 .641.641 0 0 1 0-.906l3.847-3.844a1.896 1.896 0 0 1-.195-.824c0-.836.54-1.54 1.281-1.8V5.12c0-.355.286-.64.641-.64m9.602 16c2.812 0 5.117 2.304 5.117 5.12 0 2.813-2.305 5.118-5.117 5.118-2.817 0-5.122-2.305-5.122-5.117 0-2.817 2.305-5.122 5.122-5.122m0 1.406c-.387 0-.641.258-.641.578v2.496h-2.496c-.387 0-.64.254-.64.64 0 .383.253.637.64.637h2.496v2.563c0 .383.254.64.64.64.383 0 .637-.257.637-.64v-2.563h2.496c.387 0 .641-.254.641-.636 0-.387-.254-.641-.574-.641h-2.563v-2.434c0-.382-.254-.64-.636-.64m0 0" style="stroke:none;fill-rule:nonzero;fill:rgb(0%,0%,0%);fill-opacity:1"/></svg>