<?xml version="1.0" encoding="utf-8"?>
<svg xmlns="http://www.w3.org/2000/svg" viewBox="0 0 50 50" fill="#000000"><path d="M 33 0.09375 C 32.261719 0.09375 31.527344 0.378906 31 0.90625 L 25.625 6.21875 L 27 7.59375 C 27.390625 7.984375 27.390625 8.609375 27 9 C 26.804688 9.195313 26.570313 9.3125 26.3125 9.3125 C 26.054688 9.3125 25.789063 9.195313 25.59375 9 L 24.21875 7.625 L 0.78125 30.90625 C 0.253906 31.433594 -0.03125 32.136719 -0.03125 32.90625 C -0.03125 33.675781 0.253906 34.375 0.78125 34.90625 L 3.90625 38 C 4.265625 38.359375 4.820313 38.414063 5.21875 38.09375 C 6.167969 37.328125 7.28125 36.90625 8.3125 36.90625 C 10.90625 36.90625 13 39 13 41.59375 C 13 42.730469 12.582031 43.808594 11.84375 44.625 C 11.488281 45.019531 11.53125 45.625 11.90625 46 L 15 49.09375 C 15.527344 49.617188 16.234375 49.9375 17 49.9375 C 17.765625 49.9375 18.472656 49.617188 19 49.09375 L 28.0625 40.03125 C 28.585938 45.613281 33.285156 50 39 50 C 45.0625 50 50 45.0625 50 39 C 50 33.285156 45.613281 28.585938 40.03125 28.0625 L 42.34375 25.75 L 41 24.40625 C 40.609375 24.015625 40.609375 23.390625 41 23 C 41.390625 22.609375 42.015625 22.609375 42.40625 23 L 43.75 24.34375 L 49.0625 19.0625 C 49.613281 18.621094 49.949219 17.96875 50 17.25 C 50.058594 16.453125 49.78125 15.65625 49.21875 15.09375 L 46.09375 12 C 45.734375 11.636719 45.175781 11.589844 44.78125 11.90625 C 43.886719 12.625 42.890625 13 41.8125 13 C 39.21875 13 37.09375 10.90625 37.09375 8.3125 C 37.09375 7.234375 37.46875 6.207031 38.1875 5.3125 C 38.503906 4.914063 38.453125 4.359375 38.09375 4 L 35 0.90625 C 34.472656 0.378906 33.738281 0.09375 33 0.09375 Z M 29.09375 10.09375 C 29.347656 10.09375 29.617188 10.210938 29.8125 10.40625 L 31.21875 11.8125 C 31.609375 12.203125 31.609375 12.828125 31.21875 13.21875 C 31.023438 13.414063 30.757813 13.5 30.5 13.5 C 30.242188 13.5 30.007813 13.414063 29.8125 13.21875 L 28.40625 11.8125 C 28.015625 11.421875 28.015625 10.796875 28.40625 10.40625 C 28.601563 10.210938 28.839844 10.09375 29.09375 10.09375 Z M 33.3125 14.3125 C 33.566406 14.3125 33.835938 14.398438 34.03125 14.59375 L 35.4375 16 C 35.828125 16.390625 35.828125 17.046875 35.4375 17.4375 C 35.242188 17.632813 34.976563 17.71875 34.71875 17.71875 C 34.460938 17.71875 34.195313 17.632813 34 17.4375 L 32.59375 16.03125 C 32.203125 15.640625 32.203125 14.984375 32.59375 14.59375 C 32.789063 14.398438 33.058594 14.3125 33.3125 14.3125 Z M 37.53125 18.53125 C 37.785156 18.53125 38.023438 18.617188 38.21875 18.8125 L 39.625 20.21875 C 40.015625 20.609375 40.015625 21.234375 39.625 21.625 C 39.429688 21.820313 39.195313 21.9375 38.9375 21.9375 C 38.679688 21.9375 38.414063 21.820313 38.21875 21.625 L 36.8125 20.21875 C 36.421875 19.828125 36.421875 19.203125 36.8125 18.8125 C 37.007813 18.617188 37.277344 18.53125 37.53125 18.53125 Z M 39 30 C 43.980469 30 48 34.019531 48 39 C 48 43.980469 43.980469 48 39 48 C 34.019531 48 30 43.980469 30 39 C 30 34.019531 34.019531 30 39 30 Z M 38.90625 32.96875 C 38.863281 32.976563 38.820313 32.988281 38.78125 33 C 38.316406 33.105469 37.988281 33.523438 38 34 L 38 38 L 34 38 C 33.96875 38 33.9375 38 33.90625 38 C 33.355469 38.027344 32.925781 38.496094 32.953125 39.046875 C 32.980469 39.597656 33.449219 40.027344 34 40 L 38 40 L 38 44 C 37.996094 44.359375 38.183594 44.695313 38.496094 44.878906 C 38.808594 45.058594 39.191406 45.058594 39.503906 44.878906 C 39.816406 44.695313 40.003906 44.359375 40 44 L 40 40 L 44 40 C 44.359375 40.003906 44.695313 39.816406 44.878906 39.503906 C 45.058594 39.191406 45.058594 38.808594 44.878906 38.496094 C 44.695313 38.183594 44.359375 37.996094 44 38 L 40 38 L 40 34 C 40.011719 33.710938 39.894531 33.433594 39.6875 33.238281 C 39.476563 33.039063 39.191406 32.941406 38.90625 32.96875 Z" fill="#000000"/></svg>
