<?xml version="1.0" encoding="UTF-8"?>
<svg xmlns="http://www.w3.org/2000/svg" xmlns:xlink="http://www.w3.org/1999/xlink" width="32" height="32" viewBox="0 0 32 32" version="1.1">
<g id="surface1">
<path style=" stroke:none;fill-rule:nonzero;fill:rgb(0%,0%,0%);fill-opacity:1;" d="M 18.554688 5.761719 C 15.3125 5.761719 12.5625 7.46875 11.191406 10.28125 C 10.488281 9.835938 9.640625 9.601562 8.730469 9.601562 C 6.402344 9.601562 4.625 11.371094 4.480469 13.765625 C 1.625 14.734375 0 17 0 20.050781 C 0 23.464844 2.777344 26.238281 6.1875 26.238281 L 19.242188 26.238281 C 19.382812 27.660156 19.992188 29.042969 21.074219 30.125 C 23.5625 32.613281 27.636719 32.613281 30.125 30.125 C 32.042969 28.207031 32.476562 25.355469 31.441406 23.003906 C 31.800781 22.257812 32 21.425781 32 20.542969 C 32 17.515625 29.6875 14.835938 26.871094 14.449219 C 26.875 14.324219 26.878906 14.199219 26.878906 14.078125 C 26.878906 9.414062 23.222656 5.761719 18.554688 5.761719 Z M 25.601562 20.484375 C 26.914062 20.484375 28.222656 20.984375 29.21875 21.980469 C 31.210938 23.972656 31.210938 27.230469 29.21875 29.21875 C 27.226562 31.210938 23.972656 31.210938 21.980469 29.21875 C 19.988281 27.226562 19.988281 23.972656 21.980469 21.980469 C 22.976562 20.984375 24.289062 20.484375 25.601562 20.484375 Z M 25.601562 21.796875 C 25.238281 21.796875 24.964844 22.070312 24.964844 22.433594 L 24.964844 24.964844 L 22.433594 24.964844 C 22.070312 24.964844 21.796875 25.238281 21.796875 25.601562 C 21.796875 25.960938 22.070312 26.234375 22.433594 26.234375 L 24.964844 26.234375 L 24.964844 28.765625 C 24.964844 29.128906 25.238281 29.402344 25.601562 29.402344 C 25.78125 29.402344 25.960938 29.308594 26.050781 29.21875 C 26.144531 29.128906 26.234375 28.949219 26.234375 28.765625 L 26.234375 26.234375 L 28.765625 26.234375 C 28.949219 26.234375 29.128906 26.144531 29.21875 26.050781 C 29.3125 25.960938 29.402344 25.78125 29.402344 25.601562 C 29.402344 25.238281 29.128906 24.964844 28.765625 24.964844 L 26.234375 24.964844 L 26.234375 22.433594 C 26.234375 22.070312 25.960938 21.796875 25.601562 21.796875 Z M 25.601562 21.796875 "/>
</g>
</svg>
