<?xml version="1.0" encoding="UTF-8"?>
<svg xmlns="http://www.w3.org/2000/svg" xmlns:xlink="http://www.w3.org/1999/xlink" width="32" height="32" viewBox="0 0 32 32" version="1.1">
<g id="surface1">
<path style=" stroke:none;fill-rule:nonzero;fill:rgb(0%,0%,0%);fill-opacity:1;" d="M 16 1.28125 C 7.882812 1.28125 1.28125 7.882812 1.28125 16 C 1.28125 24.117188 7.882812 30.71875 16 30.71875 C 17.707031 30.71875 19.34375 30.425781 20.871094 29.890625 C 22.078125 31.230469 23.796875 31.996094 25.601562 32 C 29.121094 32 32 29.121094 32 25.601562 C 32 23.726562 31.179688 22.042969 29.890625 20.871094 C 30.441406 19.304688 30.71875 17.660156 30.71875 16 C 30.71875 7.882812 24.117188 1.28125 16 1.28125 M 16 4.480469 C 16.355469 4.480469 16.640625 4.765625 16.640625 5.121094 L 16.640625 14.199219 C 17.40625 14.46875 17.921875 15.1875 17.921875 16 C 17.921875 17.0625 17.0625 17.921875 16 17.921875 C 15.703125 17.921875 15.429688 17.847656 15.175781 17.726562 L 11.332031 21.574219 C 11.210938 21.695312 11.050781 21.761719 10.878906 21.761719 C 10.707031 21.761719 10.546875 21.695312 10.425781 21.574219 C 10.175781 21.324219 10.175781 20.917969 10.425781 20.667969 L 14.273438 16.824219 C 14.148438 16.566406 14.078125 16.285156 14.078125 16 C 14.078125 15.164062 14.617188 14.460938 15.359375 14.199219 L 15.359375 5.121094 C 15.359375 4.765625 15.644531 4.480469 16 4.480469 M 25.601562 20.480469 C 28.414062 20.480469 30.71875 22.785156 30.71875 25.601562 C 30.71875 28.414062 28.414062 30.71875 25.601562 30.71875 C 22.785156 30.71875 20.480469 28.414062 20.480469 25.601562 C 20.480469 22.785156 22.785156 20.480469 25.601562 20.480469 M 25.601562 21.886719 C 25.214844 21.886719 24.960938 22.144531 24.960938 22.464844 L 24.960938 24.960938 L 22.464844 24.960938 C 22.078125 24.960938 21.824219 25.214844 21.824219 25.597656 C 21.824219 25.980469 22.078125 26.234375 22.464844 26.234375 L 24.960938 26.234375 L 24.960938 28.800781 C 24.960938 29.183594 25.214844 29.4375 25.601562 29.4375 C 25.984375 29.4375 26.238281 29.183594 26.238281 28.800781 L 26.238281 26.234375 L 28.734375 26.234375 C 29.121094 26.234375 29.375 25.980469 29.375 25.601562 C 29.375 25.214844 29.121094 24.960938 28.800781 24.960938 L 26.238281 24.960938 L 26.238281 22.523438 C 26.238281 22.144531 25.984375 21.886719 25.601562 21.886719 M 25.601562 21.886719 "/>
</g>
</svg>
