<?xml version="1.0" encoding="UTF-8"?>
<svg xmlns="http://www.w3.org/2000/svg" xmlns:xlink="http://www.w3.org/1999/xlink" width="32" height="32" viewBox="0 0 32 32" version="1.1">
<g id="surface1">
<path style=" stroke:none;fill-rule:nonzero;fill:rgb(0%,0%,0%);fill-opacity:1;" d="M 3.074219 15.925781 C 3.449219 16.101562 3.894531 15.960938 4.101562 15.601562 L 7.5 8.949219 C 7.800781 8.351562 8.398438 8 9.050781 8 L 16.5 8 C 16.925781 8 17.25 7.675781 17.25 7.25 C 17.253906 7.050781 17.175781 6.855469 17.035156 6.714844 C 16.894531 6.574219 16.699219 6.496094 16.5 6.5 L 9.023438 6.5 C 7.800781 6.5 6.683594 7.183594 6.125 8.273438 L 2.75 14.898438 C 2.550781 15.273438 2.699219 15.726562 3.074219 15.925781 M 30.25 17.75 L 22.75 17.75 C 22.492188 17.746094 22.253906 17.878906 22.125 18.101562 C 20.703125 20.230469 18.308594 21.503906 15.75 21.5 C 13.183594 21.503906 10.785156 20.21875 9.375 18.074219 C 9.230469 17.871094 8.996094 17.753906 8.75 17.75 L 1.75 17.75 C 1.550781 17.746094 1.355469 17.824219 1.214844 17.964844 C 1.074219 18.105469 0.996094 18.300781 1 18.5 L 1 26 C 1 27.800781 2.449219 29.25 4.25 29.25 L 27.75 29.25 C 29.550781 29.25 31 27.800781 31 26 L 31 18.5 C 31.003906 18.300781 30.925781 18.105469 30.785156 17.964844 C 30.644531 17.824219 30.449219 17.746094 30.25 17.75 M 26 14.75 C 28.75 14.75 31 12.5 31 9.75 C 31 7 28.75 4.75 26 4.75 C 23.25 4.75 21 7 21 9.75 C 21 12.5 23.25 14.75 26 14.75 M 24.226562 9 L 25.226562 9 L 25.226562 8 C 25.226562 7.574219 25.550781 7.25 25.976562 7.25 C 26.398438 7.25 26.726562 7.574219 26.726562 8 L 26.726562 9 L 27.726562 9 C 28.148438 9 28.476562 9.324219 28.476562 9.75 C 28.476562 10.175781 28.148438 10.5 27.726562 10.5 L 26.726562 10.5 L 26.726562 11.5 C 26.726562 11.925781 26.398438 12.25 25.976562 12.25 C 25.777344 12.253906 25.582031 12.175781 25.441406 12.035156 C 25.300781 11.894531 25.222656 11.699219 25.226562 11.5 L 25.226562 10.5 L 24.226562 10.5 C 24.027344 10.503906 23.832031 10.425781 23.691406 10.285156 C 23.550781 10.144531 23.472656 9.949219 23.476562 9.75 C 23.476562 9.335938 23.8125 9 24.226562 9 M 24.226562 9 "/>
</g>
</svg>
