<svg xmlns="http://www.w3.org/2000/svg" xmlns:xlink="http://www.w3.org/1999/xlink" viewBox="0,0,256,256" width="32px" height="32px"><defs><clipPath id="clip-1"><path d="M0,256v-256h256v256zM128,45.056c-37.1712,0 -67.584,30.4128 -67.584,67.584c0,37.1712 30.4128,67.584 67.584,67.584c37.1712,0 67.584,-30.4128 67.584,-67.584c0,-37.1712 -30.4128,-67.584 -67.584,-67.584z" id="overlayBgMask" fill="none"></path></clipPath></defs><g clip-path="url(#clip-1)" fill="none" fill-rule="nonzero" stroke="none" stroke-width="1" stroke-linecap="butt" stroke-linejoin="miter" stroke-miterlimit="10" stroke-dasharray="" stroke-dashoffset="0" font-family="none" font-weight="none" font-size="none" text-anchor="none" style="mix-blend-mode: normal"><g transform="scale(5.12,5.12)" fill="#000000"><path d="M25.01953,49.80469l-0.4375,-0.20312c-0.21875,-0.09766 -21.58203,-10.31641 -21.58203,-40.77734v-0.80469l0.78516,-0.17188c7.40234,-1.625 11.77344,-3.92578 14.96484,-5.60547c2.48047,-1.30078 4.26953,-2.24219 6.25,-2.24219c1.98047,0 3.76953,0.94141 6.25,2.24219c3.19141,1.67969 7.5625,3.98047 14.96484,5.60547l0.78516,0.17188v0.80469c0,29.44922 -21.33203,40.64844 -21.54687,40.76172z"></path></g></g><g fill="#000000" fill-rule="nonzero" stroke="none" stroke-width="1" stroke-linecap="butt" stroke-linejoin="miter" stroke-miterlimit="10" stroke-dasharray="" stroke-dashoffset="0" font-family="none" font-weight="none" font-size="none" text-anchor="none" style="mix-blend-mode: normal"><g transform="translate(71.68,56.32) scale(5.632,5.632)" id="overlay"><path d="M10,0c-5.5,0 -10,4.5 -10,10c0,5.5 4.5,10 10,10c5.5,0 10,-4.5 10,-10c0,-5.5 -4.5,-10 -10,-10zM14.9,11h-3.9v3.9c0,0.6 -0.4,1 -1,1c-0.6,0 -1,-0.4 -1,-1v-3.9h-3.9c-0.6,0 -1,-0.4 -1,-1c0,-0.6 0.4,-1 1,-1h3.9v-4c0,-0.6 0.4,-1 1,-1c0.6,0 1,0.4 1,1v4h3.9c0.6,0 1,0.4 1,1c0,0.6 -0.4,1 -1,1z"></path></g></g></svg>