<svg role="img" viewBox="0 0 32 32" xmlns="http://www.w3.org/2000/svg"><path d="M3.84 1.281V30.72h17.94A6.34 6.34 0 0 0 25.601 32 6.407 6.407 0 0 0 32 25.602c0-2.618-1.586-4.868-3.84-5.864V1.281Zm4.48 7.68h2.559v1.277H8.32Zm4.48 0h10.88v1.277H12.8ZM8.32 12.8h2.559v1.277H8.32Zm4.48 0h10.88v1.277H12.8Zm-4.48 3.84h2.559v1.28H8.32Zm4.48 0h10.88v1.28H12.8Zm-4.48 3.84h2.559v1.28H8.32Zm4.48 0h8.981a6.423 6.423 0 0 0-1.281 1.28h-7.7Zm12.802 0a5.11 5.11 0 0 1 5.117 5.12 5.11 5.11 0 0 1-5.117 5.118 5.11 5.11 0 0 1-5.122-5.117 5.111 5.111 0 0 1 5.122-5.122m-.641 1.917v2.563h-2.563v1.277h2.563v2.563h1.277v-2.563h2.563v-1.277h-2.563v-2.563Zm0 0" style="stroke:none;fill-rule:nonzero;fill:rgb(0%,0%,0%);fill-opacity:1"/></svg>