<svg role="img" viewBox="0 0 50 50" xmlns="http://www.w3.org/2000/svg"><path d="M34 0c-8.82 0-16 7.18-16 16s7.18 16 16 16c-2.43 1.828-4 4.742-4 8 0 5.5 4.5 10 10 10s10-4.5 10-10c0-5-3.723-9.16-8.531-9.875C46.535 27.438 50 22.125 50 16c0-8.82-7.18-16-16-16m0 6c2.559 0 5.11.984 7.063 2.938a9.978 9.978 0 0 1 0 14.125L26.937 8.938A9.958 9.958 0 0 1 34 6M17.469 23.125 0 40.594v6l16.875-16.875a.99.99 0 0 1 1.406 0 .99.99 0 0 1 0 1.406L1 48.406 2.594 50h6.812L13 46.406V44h2.406L19 40.406V39h1.406L23 36.406V35h1.406l2.469-2.469a18.08 18.08 0 0 1-9.406-9.406M40 32c4.398 0 8 3.602 8 8s-3.602 8-8 8-8-3.602-8-8 3.602-8 8-8m0 2.094c-.602 0-1 .398-1 1V39h-3.906c-.602 0-1 .398-1 1s.398 1 1 1H39v3.906c0 .602.398 1 1 1s1-.398 1-1V41h3.906c.602 0 1-.398 1-1s-.398-1-1-1H41v-3.906c0-.602-.398-1-1-1"/></svg>