<svg role="img" viewBox="0 0 32 32" xmlns="http://www.w3.org/2000/svg"><path d="M3.84 3.84a1.922 1.922 0 0 0-1.918 1.922v20.476c0 1.059.86 1.922 1.918 1.922h15.898A6.408 6.408 0 0 0 25.602 32 6.407 6.407 0 0 0 32 25.602c0-1.79-.738-3.403-1.922-4.563V5.762c0-1.059-.86-1.922-1.918-1.922H7.04v21.12a.64.64 0 1 1-1.277 0L5.76 3.84Zm14.082 3.2c4.945 0 8.957 4.01 8.957 8.96 0 1.14-.223 2.23-.613 3.234a6.248 6.248 0 0 0-.664-.035c-3.278 0-5.98 2.473-6.356 5.653a9.334 9.334 0 0 1-1.324.109A8.96 8.96 0 0 1 8.96 16a8.96 8.96 0 0 1 8.96-8.96m0 5.12A3.853 3.853 0 0 0 14.078 16c0 2.113 1.73 3.84 3.844 3.84 2.11 0 3.84-1.727 3.84-3.84 0-2.113-1.73-3.84-3.84-3.84m0 1.281A2.55 2.55 0 0 1 20.48 16a2.55 2.55 0 0 1-2.558 2.559A2.55 2.55 0 0 1 15.359 16a2.55 2.55 0 0 1 2.563-2.559m0 1.278A1.29 1.29 0 0 0 16.64 16c0 .7.578 1.281 1.28 1.281.7 0 1.278-.582 1.278-1.281 0-.7-.578-1.281-1.277-1.281m7.68 5.761c.214 0 .43.02.64.043.055.008.11.02.164.028.168.027.336.062.5.105.04.012.078.02.117.032.418.12.817.292 1.18.515.02.008.04.02.059.031a5.14 5.14 0 0 1 1.445 1.325c.004.003.008.011.012.015.133.18.254.363.36.559v-.004c.41.734.64 1.574.64 2.473 0 .894-.23 1.738-.64 2.472v-.008a1.292 1.292 0 0 1-.056.094h.004a5.122 5.122 0 0 1-4.43 2.559 5.115 5.115 0 0 1-4.425-2.559h.004a5.146 5.146 0 0 1-.504-1.187c-.008-.024-.012-.051-.02-.075a4.79 4.79 0 0 1-.129-.668 4.814 4.814 0 0 1-.043-.628c0-.247.024-.485.06-.723a5.232 5.232 0 0 1 .184-.828l-.005.004a5.14 5.14 0 0 1 4.468-3.555c.137-.008.274-.02.415-.02m0 1.344c-.387 0-.641.254-.641.64v2.497h-2.496c-.387 0-.64.254-.64.64 0 .383.253.637.64.637h2.496v2.496c0 .387.254.641.64.641.383 0 .637-.254.637-.64v-2.497h2.496c.387 0 .641-.254.641-.636 0-.387-.254-.641-.64-.641h-2.497v-2.496c0-.387-.254-.64-.636-.64m0 0" style="stroke:none;fill-rule:nonzero;fill:rgb(0%,0%,0%);fill-opacity:1"/></svg>