<?xml version="1.0" encoding="UTF-8"?>
<svg xmlns="http://www.w3.org/2000/svg" xmlns:xlink="http://www.w3.org/1999/xlink" width="32" height="32" viewBox="0 0 32 32" version="1.1">
<g id="surface1">
<path style=" stroke:none;fill-rule:nonzero;fill:rgb(0%,0%,0%);fill-opacity:1;" d="M 21.121094 0.0585938 C 20.648438 0.0585938 20.175781 0.242188 19.839844 0.578125 L 16.398438 3.980469 L 17.28125 4.859375 C 17.53125 5.109375 17.53125 5.511719 17.28125 5.761719 C 17.15625 5.886719 17.003906 5.960938 16.839844 5.960938 C 16.675781 5.960938 16.503906 5.886719 16.378906 5.761719 L 15.5 4.878906 L 0.5 19.78125 C 0.164062 20.117188 -0.0195312 20.566406 -0.0195312 21.058594 C -0.0195312 21.550781 0.164062 22 0.5 22.339844 L 2.5 24.320312 C 2.730469 24.550781 3.085938 24.585938 3.339844 24.378906 C 3.949219 23.890625 4.660156 23.621094 5.320312 23.621094 C 6.980469 23.621094 8.320312 24.960938 8.320312 26.621094 C 8.320312 27.347656 8.050781 28.039062 7.578125 28.558594 C 7.351562 28.8125 7.378906 29.199219 7.621094 29.441406 L 9.601562 31.421875 C 9.9375 31.753906 10.390625 31.960938 10.878906 31.960938 C 11.371094 31.960938 11.824219 31.753906 12.160156 31.421875 L 17.960938 25.621094 C 18.296875 29.191406 21.300781 32 24.960938 32 C 28.839844 32 32 28.839844 32 24.960938 C 32 21.300781 29.191406 18.296875 25.621094 17.960938 L 27.101562 16.480469 L 26.238281 15.621094 C 25.988281 15.371094 25.988281 14.96875 26.238281 14.71875 C 26.488281 14.46875 26.890625 14.46875 27.140625 14.71875 L 28 15.578125 L 31.398438 12.199219 C 31.753906 11.917969 31.96875 11.5 32 11.039062 C 32.039062 10.53125 31.859375 10.019531 31.5 9.660156 L 29.5 7.679688 C 29.269531 7.449219 28.914062 7.417969 28.660156 7.621094 C 28.085938 8.078125 27.449219 8.320312 26.761719 8.320312 C 25.101562 8.320312 23.738281 6.980469 23.738281 5.320312 C 23.738281 4.628906 23.980469 3.972656 24.441406 3.398438 C 24.640625 3.144531 24.609375 2.789062 24.378906 2.558594 L 22.398438 0.578125 C 22.0625 0.242188 21.59375 0.0585938 21.121094 0.0585938 Z M 18.621094 6.460938 C 18.78125 6.460938 18.953125 6.535156 19.078125 6.660156 L 19.980469 7.558594 C 20.230469 7.808594 20.230469 8.210938 19.980469 8.460938 C 19.855469 8.585938 19.683594 8.640625 19.519531 8.640625 C 19.355469 8.640625 19.203125 8.585938 19.078125 8.460938 L 18.179688 7.558594 C 17.929688 7.308594 17.929688 6.910156 18.179688 6.660156 C 18.304688 6.535156 18.457031 6.460938 18.621094 6.460938 Z M 21.320312 9.160156 C 21.484375 9.160156 21.65625 9.214844 21.78125 9.339844 L 22.679688 10.238281 C 22.929688 10.488281 22.929688 10.910156 22.679688 11.160156 C 22.554688 11.285156 22.386719 11.339844 22.21875 11.339844 C 22.054688 11.339844 21.886719 11.285156 21.761719 11.160156 L 20.859375 10.261719 C 20.609375 10.011719 20.609375 9.589844 20.859375 9.339844 C 20.984375 9.214844 21.15625 9.160156 21.320312 9.160156 Z M 24.019531 11.859375 C 24.183594 11.859375 24.335938 11.914062 24.460938 12.039062 L 25.359375 12.941406 C 25.609375 13.191406 25.609375 13.589844 25.359375 13.839844 C 25.234375 13.964844 25.085938 14.039062 24.921875 14.039062 C 24.753906 14.039062 24.585938 13.964844 24.460938 13.839844 L 23.558594 12.941406 C 23.308594 12.691406 23.308594 12.289062 23.558594 12.039062 C 23.683594 11.914062 23.859375 11.859375 24.019531 11.859375 Z M 24.960938 19.199219 C 28.148438 19.199219 30.71875 21.773438 30.71875 24.960938 C 30.71875 28.148438 28.148438 30.71875 24.960938 30.71875 C 21.773438 30.71875 19.199219 28.148438 19.199219 24.960938 C 19.199219 21.773438 21.773438 19.199219 24.960938 19.199219 Z M 24.898438 21.101562 C 24.871094 21.105469 24.84375 21.113281 24.820312 21.121094 C 24.523438 21.1875 24.3125 21.453125 24.320312 21.761719 L 24.320312 24.320312 L 21.761719 24.320312 C 21.738281 24.320312 21.71875 24.320312 21.699219 24.320312 C 21.347656 24.335938 21.074219 24.636719 21.089844 24.988281 C 21.109375 25.34375 21.40625 25.617188 21.761719 25.601562 L 24.320312 25.601562 L 24.320312 28.160156 C 24.316406 28.390625 24.4375 28.605469 24.636719 28.722656 C 24.835938 28.835938 25.082031 28.835938 25.28125 28.722656 C 25.484375 28.605469 25.601562 28.390625 25.601562 28.160156 L 25.601562 25.601562 L 28.160156 25.601562 C 28.390625 25.601562 28.605469 25.484375 28.722656 25.28125 C 28.835938 25.082031 28.835938 24.835938 28.722656 24.636719 C 28.605469 24.4375 28.390625 24.316406 28.160156 24.320312 L 25.601562 24.320312 L 25.601562 21.761719 C 25.609375 21.574219 25.53125 21.398438 25.398438 21.273438 C 25.265625 21.144531 25.082031 21.082031 24.898438 21.101562 Z M 24.898438 21.101562 "/>
</g>
</svg>
