<?xml version="1.0" encoding="utf-8"?>
<svg xmlns="http://www.w3.org/2000/svg" viewBox="0 0 50 50" fill="#000000"><path d="M 5 4 C 3.346 4 2 5.346 2 7 L 2 13 L 3 13 L 47 13 L 48 13 L 48 11 C 48 9.346 46.654 8 45 8 L 18.044922 8.0058594 C 17.765922 7.9048594 17.188906 6.9861875 16.878906 6.4921875 C 16.111906 5.2681875 15.317 4 14 4 L 5 4 z M 3 15 C 2.449 15 2 15.448 2 16 L 2 43 C 2 44.654 3.346 46 5 46 L 32.027344 46 C 33.856756 48.421534 36.749111 50 40 50 C 45.5 50 50 45.5 50 40 C 50 37.767371 49.248916 35.706061 48 34.037109 L 48 16 C 48 15.448 47.551 15 47 15 L 3 15 z M 40 32 C 44.4 32 48 35.6 48 40 C 48 44.4 44.4 48 40 48 C 35.6 48 32 44.4 32 40 C 32 35.6 35.6 32 40 32 z M 40 34.099609 C 39.4 34.099609 39 34.499609 39 35.099609 L 39 39 L 35.099609 39 C 34.499609 39 34.099609 39.4 34.099609 40 C 34.099609 40.6 34.499609 41 35.099609 41 L 39 41 L 39 44.900391 C 39 45.500391 39.4 45.900391 40 45.900391 C 40.6 45.900391 41 45.500391 41 44.900391 L 41 41 L 44.900391 41 C 45.500391 41 45.900391 40.6 45.900391 40 C 45.900391 39.4 45.500391 39 44.900391 39 L 41 39 L 41 35.099609 C 41 34.499609 40.6 34.099609 40 34.099609 z" fill="#000000"/></svg>
