<?xml version="1.0" encoding="UTF-8"?>
<svg xmlns="http://www.w3.org/2000/svg" xmlns:xlink="http://www.w3.org/1999/xlink" width="32" height="32" viewBox="0 0 32 32" version="1.1">
<g id="surface1">
<path style=" stroke:none;fill-rule:nonzero;fill:rgb(0%,0%,0%);fill-opacity:1;" d="M 16 1.28125 C 7.882812 1.28125 1.28125 7.882812 1.28125 16 C 1.28125 24.117188 7.882812 30.71875 16 30.71875 C 24.117188 30.71875 30.71875 24.117188 30.71875 16 C 30.71875 7.882812 24.117188 1.28125 16 1.28125 M 20.480469 16.640625 L 16.640625 16.640625 L 16.640625 20.480469 C 16.640625 20.832031 16.351562 21.121094 16 21.121094 C 15.648438 21.121094 15.359375 20.832031 15.359375 20.480469 L 15.359375 16.640625 L 11.519531 16.640625 C 11.167969 16.640625 10.878906 16.351562 10.878906 16 C 10.878906 15.648438 11.167969 15.359375 11.519531 15.359375 L 15.359375 15.359375 L 15.359375 11.519531 C 15.359375 11.167969 15.648438 10.878906 16 10.878906 C 16.351562 10.878906 16.640625 11.167969 16.640625 11.519531 L 16.640625 15.359375 L 20.480469 15.359375 C 20.832031 15.359375 21.121094 15.648438 21.121094 16 C 21.121094 16.351562 20.832031 16.640625 20.480469 16.640625 "/>
</g>
</svg>
