<?xml version="1.0" encoding="UTF-8"?>
<svg xmlns="http://www.w3.org/2000/svg" xmlns:xlink="http://www.w3.org/1999/xlink" width="36.221688" height="32" viewBox="0 0 36.221688 32" version="1.1">
<defs>
<linearGradient id="linear0" gradientUnits="userSpaceOnUse" x1="2.94" y1="3.74" x2="8.67" y2="3.74" gradientTransform="matrix(1.927711,0,0,1.927711,0.693976,-1.6)">
<stop offset="0" style="stop-color:rgb(71.764708%,47.843137%,95.686275%);stop-opacity:1;"/>
<stop offset="1" style="stop-color:rgb(46.666667%,22.745098%,86.274511%);stop-opacity:1;"/>
</linearGradient>
<linearGradient id="linear1" gradientUnits="userSpaceOnUse" x1="9.13" y1="3.79" x2="14.85" y2="3.79" gradientTransform="matrix(1.927711,0,0,1.927711,0.693976,-1.6)">
<stop offset="0" style="stop-color:rgb(71.764708%,47.843137%,95.686275%);stop-opacity:1;"/>
<stop offset="1" style="stop-color:rgb(46.666667%,22.745098%,86.274511%);stop-opacity:1;"/>
</linearGradient>
<linearGradient id="linear2" gradientUnits="userSpaceOnUse" x1="0.01" y1="9.12" x2="5.73" y2="9.12" gradientTransform="matrix(1.927711,0,0,1.927711,0.693976,-1.6)">
<stop offset="0" style="stop-color:rgb(71.764708%,47.843137%,95.686275%);stop-opacity:1;"/>
<stop offset="1" style="stop-color:rgb(46.666667%,22.745098%,86.274511%);stop-opacity:1;"/>
</linearGradient>
<linearGradient id="linear3" gradientUnits="userSpaceOnUse" x1="6.18" y1="9.08" x2="11.9" y2="9.08" gradientTransform="matrix(1.927711,0,0,1.927711,0.693976,-1.6)">
<stop offset="0" style="stop-color:rgb(71.764708%,47.843137%,95.686275%);stop-opacity:1;"/>
<stop offset="1" style="stop-color:rgb(46.666667%,22.745098%,86.274511%);stop-opacity:1;"/>
</linearGradient>
<linearGradient id="linear4" gradientUnits="userSpaceOnUse" x1="12.35" y1="9.13" x2="18.08" y2="9.13" gradientTransform="matrix(1.927711,0,0,1.927711,0.693976,-1.6)">
<stop offset="0" style="stop-color:rgb(71.764708%,47.843137%,95.686275%);stop-opacity:1;"/>
<stop offset="1" style="stop-color:rgb(46.666667%,22.745098%,86.274511%);stop-opacity:1;"/>
</linearGradient>
<linearGradient id="linear5" gradientUnits="userSpaceOnUse" x1="2.87" y1="14.56" x2="8.6" y2="14.56" gradientTransform="matrix(1.927711,0,0,1.927711,0.693976,-1.6)">
<stop offset="0" style="stop-color:rgb(71.764708%,47.843137%,95.686275%);stop-opacity:1;"/>
<stop offset="1" style="stop-color:rgb(46.666667%,22.745098%,86.274511%);stop-opacity:1;"/>
</linearGradient>
<linearGradient id="linear6" gradientUnits="userSpaceOnUse" x1="9.05" y1="14.6" x2="14.78" y2="14.6" gradientTransform="matrix(1.927711,0,0,1.927711,0.693976,-1.6)">
<stop offset="0" style="stop-color:rgb(71.764708%,47.843137%,95.686275%);stop-opacity:1;"/>
<stop offset="1" style="stop-color:rgb(46.666667%,22.745098%,86.274511%);stop-opacity:1;"/>
</linearGradient>
</defs>
<g id="surface1">
<path style=" stroke:none;fill-rule:nonzero;fill:url(#linear0);" d="M 11.875 0.75 L 6.363281 1.773438 L 6.363281 9.292969 L 11.875 10.46875 L 17.40625 8.25 L 17.40625 2.640625 Z M 11.875 0.75 "/>
<path style=" stroke:none;fill-rule:nonzero;fill:rgb(20.392157%,10.196079%,43.137255%);fill-opacity:1;" d="M 6.363281 1.773438 L 6.363281 9.292969 L 11.933594 10.46875 L 11.933594 0.828125 Z M 8.714844 8.714844 L 7.152344 8.40625 L 7.152344 2.621094 L 8.714844 2.371094 Z M 11.140625 9.15625 L 9.347656 8.867188 L 9.347656 2.253906 L 11.140625 1.945312 Z M 11.140625 9.15625 "/>
<path style=" stroke:none;fill-rule:nonzero;fill:url(#linear1);" d="M 23.808594 0.847656 L 18.292969 1.871094 L 18.292969 9.386719 L 23.808594 10.5625 L 29.320312 8.328125 L 29.320312 2.738281 Z M 23.808594 0.847656 "/>
<path style=" stroke:none;fill-rule:nonzero;fill:rgb(20.392157%,10.196079%,43.137255%);fill-opacity:1;" d="M 18.292969 1.871094 L 18.292969 9.386719 L 23.828125 10.5625 L 23.828125 0.925781 Z M 20.625 8.808594 L 19.066406 8.5 L 19.066406 2.71875 L 20.625 2.46875 Z M 23.054688 9.253906 L 21.261719 8.964844 L 21.261719 2.351562 L 23.054688 2.023438 Z M 23.054688 9.253906 "/>
<path style=" stroke:none;fill-rule:nonzero;fill:url(#linear2);" d="M 6.226562 11.121094 L 0.714844 12.144531 L 0.714844 19.664062 L 6.226562 20.839844 L 11.757812 18.621094 L 11.757812 13.011719 Z M 6.226562 11.121094 "/>
<path style=" stroke:none;fill-rule:nonzero;fill:rgb(20.392157%,10.196079%,43.137255%);fill-opacity:1;" d="M 0.695312 12.144531 L 0.695312 19.605469 L 6.265625 20.78125 L 6.265625 11.140625 Z M 3.027344 19.105469 L 1.464844 18.777344 L 1.464844 12.992188 L 3.027344 12.722656 Z M 5.476562 19.605469 L 3.683594 19.316406 L 3.683594 12.625 L 5.476562 12.316406 Z M 5.476562 19.605469 "/>
<path style=" stroke:none;fill-rule:nonzero;fill:url(#linear3);" d="M 18.121094 11.046875 L 12.605469 12.066406 L 12.605469 19.585938 L 18.121094 20.78125 L 23.632812 18.542969 L 23.632812 12.933594 Z M 18.121094 11.046875 "/>
<path style=" stroke:none;fill-rule:nonzero;fill:rgb(20.392157%,10.196079%,43.137255%);fill-opacity:1;" d="M 12.605469 12.066406 L 12.605469 19.605469 L 18.160156 20.78125 L 18.160156 11.140625 Z M 14.941406 19.027344 L 13.378906 18.699219 L 13.378906 12.914062 L 14.941406 12.644531 Z M 17.367188 19.449219 L 15.574219 19.160156 L 15.574219 12.550781 L 17.367188 12.242188 Z M 17.367188 19.449219 "/>
<path style=" stroke:none;fill-rule:nonzero;fill:url(#linear4);" d="M 30.015625 11.140625 L 24.5 12.164062 L 24.5 19.683594 L 30.015625 20.859375 L 35.546875 18.640625 L 35.546875 13.03125 Z M 30.015625 11.140625 "/>
<path style=" stroke:none;fill-rule:nonzero;fill:rgb(20.392157%,10.196079%,43.137255%);fill-opacity:1;" d="M 24.5 12.164062 L 24.5 19.605469 L 30.074219 20.78125 L 30.074219 11.140625 Z M 26.851562 19.121094 L 25.292969 18.796875 L 25.292969 13.011719 L 26.851562 12.742188 Z M 29.28125 19.546875 L 27.488281 19.257812 L 27.488281 12.644531 L 29.28125 12.335938 Z M 29.28125 19.546875 "/>
<path style=" stroke:none;fill-rule:nonzero;fill:url(#linear5);" d="M 11.738281 21.609375 L 6.226562 22.613281 L 6.226562 30.128906 L 11.738281 31.324219 L 17.273438 29.089844 L 17.273438 23.5 Z M 11.738281 21.609375 "/>
<path style=" stroke:none;fill-rule:nonzero;fill:rgb(20.392157%,10.196079%,43.137255%);fill-opacity:1;" d="M 6.226562 22.613281 L 6.226562 30.128906 L 11.796875 31.324219 L 11.796875 21.53125 Z M 8.578125 29.570312 L 7.015625 29.242188 L 7.015625 23.460938 L 8.578125 23.191406 Z M 11.007812 30.015625 L 9.214844 29.726562 L 9.214844 23.09375 L 11.007812 22.785156 Z M 11.007812 30.015625 "/>
<path style=" stroke:none;fill-rule:nonzero;fill:url(#linear6);" d="M 23.652344 21.6875 L 18.140625 22.707031 L 18.140625 30.226562 L 23.652344 31.402344 L 29.183594 29.183594 L 29.183594 23.574219 Z M 23.652344 21.6875 "/>
<path style=" stroke:none;fill-rule:nonzero;fill:rgb(20.392157%,10.196079%,43.137255%);fill-opacity:1;" d="M 18.140625 22.707031 L 18.140625 30.226562 L 23.710938 31.402344 L 23.710938 21.765625 Z M 20.492188 29.667969 L 18.929688 29.339844 L 18.929688 23.554688 L 20.492188 23.285156 Z M 22.921875 30.089844 L 21.128906 29.800781 L 21.128906 23.191406 L 22.921875 22.882812 Z M 22.921875 30.089844 "/>
</g>
</svg>
