<?xml version="1.0" encoding="UTF-8"?>
<svg xmlns="http://www.w3.org/2000/svg" xmlns:xlink="http://www.w3.org/1999/xlink" width="32" height="32" viewBox="0 0 32 32" version="1.1">
<g id="surface1">
<path style=" stroke:none;fill-rule:nonzero;fill:rgb(0%,0%,0%);fill-opacity:1;" d="M 16 3.839844 C 14.945312 3.839844 14.078125 4.707031 14.078125 5.761719 L 14.078125 6.632812 C 10.988281 7.394531 8.960938 9.992188 8.960938 13.480469 L 8.960938 18.472656 C 8.960938 19.863281 8.140625 21.4375 7.667969 22.226562 L 6.507812 23.964844 C 6.375 24.160156 6.363281 24.414062 6.476562 24.621094 C 6.585938 24.832031 6.804688 24.960938 7.039062 24.960938 L 24.960938 24.960938 C 25.195312 24.960938 25.414062 24.832031 25.523438 24.621094 C 25.636719 24.414062 25.625 24.160156 25.492188 23.964844 L 24.351562 22.25 C 23.46875 20.785156 23.039062 19.574219 23.039062 18.558594 L 23.039062 13.566406 C 23.039062 10.039062 21.011719 7.40625 17.921875 6.636719 L 17.921875 5.761719 C 17.921875 4.707031 17.054688 3.839844 16 3.839844 M 16 5.121094 C 16.355469 5.121094 16.640625 5.40625 16.640625 5.761719 L 16.640625 6.429688 C 16.429688 6.414062 16.21875 6.398438 16 6.398438 C 15.78125 6.398438 15.570312 6.414062 15.359375 6.429688 L 15.359375 5.761719 C 15.359375 5.40625 15.644531 5.121094 16 5.121094 M 2.226562 6.066406 C 0.800781 8.386719 0 11.148438 0 14.078125 C 0 17.011719 0.800781 19.773438 2.226562 22.09375 L 3.320312 21.425781 C 2.015625 19.308594 1.28125 16.78125 1.28125 14.078125 C 1.28125 11.378906 2.015625 8.851562 3.320312 6.734375 Z M 29.773438 6.066406 L 28.679688 6.734375 C 29.984375 8.851562 30.71875 11.378906 30.71875 14.078125 C 30.71875 16.78125 29.984375 19.308594 28.679688 21.425781 L 29.773438 22.09375 C 31.199219 19.773438 32 17.011719 32 14.078125 C 32 11.148438 31.199219 8.386719 29.773438 6.066406 M 5.003906 7.769531 C 3.835938 9.652344 3.199219 11.746094 3.199219 14.078125 C 3.199219 16.429688 3.921875 18.589844 4.996094 20.382812 L 6.09375 19.722656 C 5.125 18.101562 4.480469 16.167969 4.480469 14.078125 C 4.480469 11.972656 5.039062 10.144531 6.089844 8.441406 Z M 26.996094 7.769531 L 25.910156 8.441406 C 26.964844 10.144531 27.519531 11.976562 27.519531 14.078125 C 27.519531 16.167969 26.875 18.101562 25.902344 19.722656 L 27.003906 20.382812 C 28.078125 18.589844 28.800781 16.429688 28.800781 14.078125 C 28.800781 11.746094 28.164062 9.652344 26.996094 7.769531 M 13.070312 26.238281 C 13.566406 27.367188 14.691406 28.160156 16 28.160156 C 17.308594 28.160156 18.433594 27.367188 18.929688 26.238281 Z M 13.070312 26.238281 "/>
</g>
</svg>
