<?xml version="1.0" encoding="UTF-8"?>
<svg xmlns="http://www.w3.org/2000/svg" xmlns:xlink="http://www.w3.org/1999/xlink" width="32" height="32" viewBox="0 0 32 32" version="1.1">
<g id="surface1">
<path style=" stroke:none;fill-rule:nonzero;fill:rgb(0%,0%,0%);fill-opacity:1;" d="M 27.710938 16.308594 C 27.710938 22.601562 22.613281 27.703125 16.320312 27.703125 C 10.027344 27.703125 4.929688 22.601562 4.929688 16.308594 C 4.929688 10.019531 10.027344 4.917969 16.320312 4.917969 C 22.613281 4.917969 27.710938 10.015625 27.710938 16.308594 "/>
<path style=" stroke:none;fill-rule:nonzero;fill:rgb(100%,100%,100%);fill-opacity:1;" d="M 16.511719 12.042969 L 19.457031 19.316406 L 15.007812 15.808594 Z M 21.75 20.992188 L 17.214844 10.078125 C 17.109375 9.785156 16.824219 9.589844 16.511719 9.601562 C 16.191406 9.589844 15.902344 9.78125 15.785156 10.078125 L 10.804688 22.046875 L 12.511719 22.046875 L 14.484375 17.109375 L 20.363281 21.855469 C 20.597656 22.046875 20.769531 22.132812 20.992188 22.132812 C 21.441406 22.144531 21.8125 21.792969 21.824219 21.34375 L 21.824219 21.324219 C 21.820312 21.210938 21.796875 21.097656 21.75 20.992188 "/>
</g>
</svg>
