<svg role="img" viewBox="0 0 32 32" xmlns="http://www.w3.org/2000/svg"><path d="M27.71 16.309c0 6.293-5.097 11.394-11.39 11.394S4.93 22.602 4.93 16.31 10.027 4.918 16.32 4.918s11.39 5.098 11.39 11.39" style="stroke:none;fill-rule:nonzero;fill:rgb(0%,0%,0%);fill-opacity:1"/><path d="m16.512 12.043 2.945 7.273-4.45-3.507Zm5.238 8.95-4.535-10.915a.72.72 0 0 0-.703-.476.75.75 0 0 0-.727.476l-4.98 11.969h1.707l1.972-4.938 5.88 4.746c.234.192.406.278.628.278.45.012.82-.34.832-.79v-.019a.91.91 0 0 0-.074-.332" style="stroke:none;fill-rule:nonzero;fill:rgb(100%,100%,100%);fill-opacity:1"/></svg>