<?xml version="1.0" encoding="UTF-8" standalone="no"?>
<!DOCTYPE svg PUBLIC "-//W3C//DTD SVG 1.1//EN" "http://www.w3.org/Graphics/SVG/1.1/DTD/svg11.dtd">
<svg xmlns="http://www.w3.org/2000/svg" version="1.1" viewBox="0 0 292 301" width="292.0pt" height="301.0pt" xmlns:xlink="http://www.w3.org/1999/xlink">
<defs>
<path d="M 0.00 0.00 L 292.00 0.00 L 292.00 301.00 L 0.00 301.00 L 0.00 0.00 Z M 116.27 10.82 C 95.54 21.50 74.80 32.14 54.04 42.76 C 52.37 41.92 50.60 40.86 48.76 40.44 C 45.19 39.90 41.56 42.37 40.73 45.90 C 39.93 48.76 41.73 51.42 42.88 53.92 C 32.09 74.62 21.36 95.36 10.43 115.99 C 8.48 116.34 6.21 116.45 4.42 117.35 C 0.88 119.39 -0.06 124.45 2.22 127.76 C 3.50 129.33 5.57 130.37 7.25 131.46 C 8.93 154.72 10.41 178.00 11.83 201.27 C 10.36 202.55 8.60 203.83 7.50 205.45 C 5.31 209.18 7.23 214.26 11.21 215.78 C 13.23 216.34 15.51 216.10 17.59 216.14 C 32.14 234.33 46.56 252.64 60.93 270.97 C 60.40 273.37 59.06 276.50 60.18 278.84 C 61.44 282.01 64.69 283.81 68.06 283.40 C 70.75 283.20 72.76 280.55 74.60 278.83 C 105.85 283.62 137.12 288.29 168.37 293.12 C 169.65 295.33 170.81 298.57 173.40 299.51 C 176.93 301.09 181.44 299.49 183.02 295.94 C 183.67 294.07 183.61 291.91 183.77 289.96 C 203.74 277.62 223.79 265.41 243.84 253.21 C 245.76 254.03 247.91 255.17 250.01 255.28 C 253.45 255.08 256.55 252.46 256.91 248.95 C 257.39 245.89 255.60 243.89 254.18 241.42 C 263.40 219.98 272.64 198.53 282.03 177.16 C 284.03 176.68 286.47 176.39 288.19 175.22 C 291.45 172.88 291.95 167.65 289.33 164.67 C 287.94 163.31 285.97 162.43 284.28 161.49 C 281.34 138.37 278.49 115.24 275.67 92.10 C 277.23 90.59 279.27 88.96 280.12 86.93 C 281.48 83.16 279.38 78.77 275.58 77.51 C 273.30 76.70 270.40 77.79 268.13 78.33 C 249.97 63.65 231.80 48.96 213.77 34.12 C 213.75 31.65 214.42 28.31 212.78 26.24 C 210.95 23.61 207.45 22.44 204.42 23.51 C 202.68 24.30 201.16 25.74 199.68 26.93 C 177.03 21.23 154.47 15.11 131.88 9.20 C 131.14 7.35 130.54 5.25 129.38 3.62 C 126.40 0.15 119.99 0.64 117.71 4.67 C 116.85 6.55 116.65 8.80 116.27 10.82 Z" id="p0" />
<path d="M 129.38 3.62 C 130.54 5.25 131.14 7.35 131.88 9.20 C 154.47 15.11 177.03 21.23 199.68 26.93 C 201.16 25.74 202.68 24.30 204.42 23.51 C 207.45 22.44 210.95 23.61 212.78 26.24 C 214.42 28.31 213.75 31.65 213.77 34.12 C 231.80 48.96 249.97 63.65 268.13 78.33 C 270.40 77.79 273.30 76.70 275.58 77.51 C 279.38 78.77 281.48 83.16 280.12 86.93 C 279.27 88.96 277.23 90.59 275.67 92.10 C 278.49 115.24 281.34 138.37 284.28 161.49 C 285.97 162.43 287.94 163.31 289.33 164.67 C 291.95 167.65 291.45 172.88 288.19 175.22 C 286.47 176.39 284.03 176.68 282.03 177.16 C 272.64 198.53 263.40 219.98 254.18 241.42 C 255.60 243.89 257.39 245.89 256.91 248.95 C 256.55 252.46 253.45 255.08 250.01 255.28 C 247.91 255.17 245.76 254.03 243.84 253.21 C 223.79 265.41 203.74 277.62 183.77 289.96 C 183.61 291.91 183.67 294.07 183.02 295.94 C 181.44 299.49 176.93 301.09 173.40 299.51 C 170.81 298.57 169.65 295.33 168.37 293.12 C 137.12 288.29 105.85 283.62 74.60 278.83 C 72.76 280.55 70.75 283.20 68.06 283.40 C 64.69 283.81 61.44 282.01 60.18 278.84 C 59.06 276.50 60.40 273.37 60.93 270.97 C 46.56 252.64 32.14 234.33 17.59 216.14 C 15.51 216.10 13.23 216.34 11.21 215.78 C 7.23 214.26 5.31 209.18 7.50 205.45 C 8.60 203.83 10.36 202.55 11.83 201.27 C 10.41 178.00 8.93 154.72 7.25 131.46 C 5.57 130.37 3.50 129.33 2.22 127.76 C -0.06 124.45 0.88 119.39 4.42 117.35 C 6.21 116.45 8.48 116.34 10.43 115.99 C 21.36 95.36 32.09 74.62 42.88 53.92 C 41.73 51.42 39.93 48.76 40.73 45.90 C 41.56 42.37 45.19 39.90 48.76 40.44 C 50.60 40.86 52.37 41.92 54.04 42.76 C 74.80 32.14 95.54 21.50 116.27 10.82 C 116.65 8.80 116.85 6.55 117.71 4.67 C 119.99 0.64 126.40 0.15 129.38 3.62 Z M 121.42 16.13 C 113.77 28.28 106.36 40.60 98.90 52.87 C 99.32 53.54 99.73 54.22 100.14 54.90 C 133.37 46.73 166.65 38.72 199.83 30.37 C 178.43 24.50 156.90 19.13 135.49 13.30 C 133.23 12.89 131.57 11.80 129.59 13.54 C 126.93 15.48 124.69 15.91 121.42 16.13 Z M 114.94 15.06 C 96.40 24.43 78.01 34.12 59.44 43.42 C 57.42 44.39 55.81 45.83 54.32 47.47 C 64.92 50.41 75.76 52.56 86.48 55.05 C 87.78 53.92 89.07 52.59 90.58 51.73 C 92.38 51.03 94.49 51.05 96.38 50.80 C 100.87 43.77 105.11 36.58 109.49 29.48 C 112.78 24.04 116.23 18.86 119.13 13.20 C 117.72 13.79 116.32 14.41 114.94 15.06 Z M 101.15 57.86 C 101.00 58.87 100.85 59.89 100.70 60.91 C 122.53 74.50 144.27 88.26 166.14 101.80 C 168.61 100.92 171.09 100.17 173.62 99.51 C 182.70 79.44 192.06 59.11 201.12 39.07 C 202.25 36.90 201.20 35.52 200.38 33.49 C 167.32 41.66 134.22 49.72 101.15 57.86 Z M 248.67 120.52 C 250.02 120.60 251.36 120.69 252.71 120.77 C 256.95 112.36 261.28 103.98 265.67 95.65 C 266.32 94.11 267.83 92.02 267.53 90.33 C 266.43 87.07 265.81 84.28 266.03 80.79 C 247.78 65.86 229.51 50.89 211.07 36.19 C 223.50 64.32 236.15 92.43 248.67 120.52 Z M 176.49 100.84 C 177.78 103.15 178.88 105.51 179.87 107.97 C 201.05 113.50 222.25 118.98 243.40 124.59 C 244.21 123.68 245.02 122.76 245.84 121.85 C 233.26 93.60 220.64 65.37 208.03 37.13 C 203.65 38.42 203.39 42.00 201.55 45.57 C 193.28 64.03 184.71 82.36 176.49 100.84 Z M 45.70 55.40 C 34.77 76.08 24.02 96.87 13.18 117.60 C 37.74 98.94 62.26 80.23 86.83 61.57 C 86.64 60.48 86.46 59.39 86.27 58.30 C 75.92 55.86 65.54 53.25 55.11 51.22 C 51.90 53.95 50.07 55.05 45.70 55.40 Z M 96.09 65.49 C 97.32 83.01 99.47 100.49 100.95 117.99 C 102.57 135.18 104.37 152.35 105.85 169.56 C 106.98 169.96 108.11 170.36 109.24 170.76 C 127.95 151.10 146.76 131.53 165.41 111.82 C 165.04 109.39 164.72 106.96 164.48 104.51 C 142.68 90.89 120.91 77.07 99.02 63.63 C 98.02 64.22 97.04 64.84 96.09 65.49 Z M 15.15 120.02 C 15.39 121.64 15.62 123.27 15.84 124.89 C 22.05 127.29 28.24 129.74 34.47 132.09 C 38.05 129.45 39.87 128.90 44.41 129.01 C 58.83 107.86 72.93 86.48 87.20 65.24 C 63.14 83.45 39.18 101.77 15.15 120.02 Z M 47.14 130.78 C 48.04 133.59 48.55 136.22 48.79 139.16 C 65.72 150.17 82.78 160.99 99.80 171.85 C 100.82 171.25 101.84 170.65 102.85 170.05 C 99.83 138.03 96.71 106.01 93.67 73.99 C 93.41 70.80 93.00 67.63 92.23 64.52 C 90.44 66.35 88.85 68.30 87.42 70.44 C 74.08 90.61 60.49 110.62 47.14 130.78 Z M 255.58 122.03 C 257.65 126.24 257.80 128.15 256.56 132.78 C 264.62 142.88 272.79 152.93 281.01 162.90 C 280.62 155.21 279.34 147.70 278.47 140.05 C 276.92 126.68 275.05 113.35 273.56 99.97 C 273.21 96.91 272.74 93.86 272.07 90.86 C 269.34 94.77 267.37 98.98 265.21 103.21 C 262.01 109.49 258.69 115.70 255.58 122.03 Z M 174.38 114.42 C 176.90 135.28 179.24 156.17 181.73 177.03 C 183.18 177.64 184.62 178.25 186.06 178.87 C 205.29 163.22 224.53 147.59 243.79 132.00 C 243.38 130.50 242.96 129.00 242.54 127.50 C 222.20 122.27 201.79 116.81 181.47 111.59 C 178.21 110.47 176.89 112.87 174.38 114.42 Z M 111.47 172.95 C 111.89 174.02 112.32 175.09 112.74 176.16 C 132.94 178.33 153.15 180.47 173.36 182.58 C 175.03 180.66 176.76 178.84 178.60 177.09 C 176.23 156.26 173.76 135.44 171.35 114.62 C 170.20 114.41 169.05 114.22 167.90 114.05 C 164.95 116.68 162.32 119.70 159.55 122.53 C 143.55 139.36 127.48 156.13 111.47 172.95 Z M 10.34 130.90 C 11.85 154.39 13.57 177.87 14.94 201.37 C 22.47 182.02 29.77 162.56 37.00 143.10 C 35.28 140.50 34.22 138.05 33.37 135.04 C 27.19 132.72 21.13 130.03 14.85 128.02 C 13.32 128.93 11.84 129.93 10.34 130.90 Z M 188.10 181.42 C 188.24 182.98 188.37 184.54 188.52 186.10 C 203.17 192.22 217.77 198.50 232.42 204.61 C 234.46 203.37 236.52 202.21 238.63 201.10 C 240.89 185.78 242.93 170.43 245.12 155.10 C 245.97 148.06 247.35 141.05 247.83 133.98 C 245.90 134.92 244.05 135.98 242.35 137.30 C 224.34 152.07 206.16 166.71 188.10 181.42 Z M 251.00 135.59 C 247.78 157.73 244.80 180.00 241.61 202.16 C 242.27 202.38 242.94 202.61 243.61 202.84 C 254.59 193.05 265.78 183.47 276.76 173.67 C 276.28 169.96 276.49 167.52 277.79 164.01 C 269.71 154.17 261.89 144.07 253.60 134.41 C 252.72 134.78 251.85 135.17 251.00 135.59 Z M 40.04 144.04 C 32.68 163.55 25.29 183.06 17.92 202.57 C 18.77 203.41 19.62 204.26 20.46 205.11 C 46.27 196.24 71.96 187.01 97.74 178.06 C 97.81 176.84 97.88 175.62 97.95 174.40 C 84.27 165.63 70.56 156.89 56.88 148.12 C 53.63 146.05 50.41 143.80 46.99 142.01 C 44.66 142.63 42.37 143.38 40.04 144.04 Z M 245.93 204.96 C 246.08 206.94 246.44 209.05 246.12 211.01 C 245.38 212.83 243.91 214.48 242.72 216.02 C 245.08 224.55 246.96 233.30 249.99 241.62 C 253.01 237.02 254.80 232.00 256.99 226.99 C 264.38 209.97 271.73 192.93 279.13 175.91 C 267.97 185.48 256.95 195.23 245.93 204.96 Z M 109.03 183.83 C 114.55 201.21 120.08 218.59 125.62 235.96 C 127.12 236.28 128.61 236.60 130.10 236.91 C 145.07 220.96 160.05 205.02 174.99 189.05 C 174.52 187.94 174.06 186.82 173.60 185.71 C 153.32 183.55 133.05 181.43 112.77 179.26 C 111.54 180.80 110.30 182.33 109.03 183.83 Z M 20.33 209.03 C 22.70 209.94 25.08 210.80 27.51 211.55 C 58.33 220.95 89.13 230.44 119.96 239.83 C 120.86 238.87 121.76 237.90 122.67 236.94 C 117.16 219.64 111.73 202.30 106.09 185.03 C 103.35 184.06 100.84 182.80 98.32 181.38 C 94.49 182.28 90.75 183.77 87.04 185.07 C 70.54 190.92 53.99 196.65 37.49 202.51 C 31.67 204.57 25.87 206.24 20.33 209.03 Z M 185.02 190.58 C 189.06 202.71 193.46 214.74 197.75 226.79 C 199.98 227.47 202.17 228.21 204.36 228.99 C 213.60 223.34 222.74 217.52 231.93 211.78 C 231.85 210.42 231.77 209.07 231.69 207.71 C 217.83 201.84 203.77 195.89 189.89 190.02 C 187.65 189.05 187.02 189.36 185.02 190.58 Z M 190.76 233.75 C 191.99 231.66 193.28 229.64 194.66 227.64 C 190.60 215.71 186.21 203.89 182.17 191.94 C 180.56 191.81 178.91 191.54 177.28 191.61 C 176.35 192.19 175.56 193.02 174.78 193.79 C 163.06 206.39 151.25 218.92 139.48 231.48 C 137.00 234.22 133.50 236.92 132.36 240.47 C 137.16 240.68 142.23 239.70 147.01 239.15 C 161.58 237.25 176.22 235.85 190.76 233.75 Z M 19.25 212.57 C 23.04 218.33 27.66 223.62 31.89 229.09 C 42.47 242.35 52.82 255.80 63.52 268.96 C 67.53 268.68 69.72 269.14 73.21 270.98 C 88.64 262.74 103.92 254.19 119.26 245.78 C 119.24 244.82 119.22 243.85 119.20 242.89 C 89.07 233.57 58.88 224.43 28.74 215.13 C 25.61 214.15 22.45 213.29 19.25 212.57 Z M 205.05 232.36 C 206.13 234.57 207.78 235.41 210.07 236.00 C 220.96 238.76 231.82 241.65 242.68 244.54 C 243.85 243.35 245.02 242.16 246.20 240.98 C 244.07 232.85 241.78 224.77 239.65 216.65 C 237.60 215.99 235.57 215.29 233.51 214.66 C 223.87 220.27 214.52 226.44 205.05 232.36 Z M 133.87 243.83 C 133.59 245.05 133.31 246.27 133.04 247.50 C 146.05 260.42 159.18 273.24 172.12 286.24 C 173.98 285.86 175.85 285.50 177.72 285.17 C 183.41 270.49 189.14 255.84 194.80 241.15 C 193.61 239.76 192.42 238.36 191.25 236.96 C 172.12 239.19 153.00 241.52 133.87 243.83 Z M 197.77 242.44 C 193.69 252.25 190.02 262.24 186.12 272.13 C 184.10 277.32 181.95 282.39 180.40 287.76 C 185.68 285.42 190.31 282.20 195.23 279.23 C 207.86 271.53 220.47 263.80 233.08 256.10 C 236.23 254.13 239.70 252.40 242.53 250.01 C 242.68 246.79 240.00 247.27 237.75 246.35 C 228.45 244.01 219.17 241.54 209.91 239.04 C 208.59 238.74 207.03 238.25 205.67 238.52 C 203.11 240.13 200.63 241.41 197.77 242.44 Z M 73.28 275.17 C 79.54 276.70 85.88 277.43 92.24 278.39 C 112.48 281.49 132.73 284.57 152.98 287.62 C 158.96 288.50 164.59 289.67 170.62 289.95 C 168.84 287.54 166.90 285.33 164.75 283.25 C 153.49 272.24 142.37 261.08 131.11 250.06 C 126.71 251.13 124.45 250.71 120.33 248.97 C 116.87 250.45 113.59 252.48 110.28 254.28 C 100.39 259.73 90.49 265.17 80.57 270.55 C 78.03 271.93 75.61 273.48 73.28 275.17 Z" id="p1" />
<path d="M 135.49 13.30 C 156.90 19.13 178.43 24.50 199.83 30.37 C 166.65 38.72 133.37 46.73 100.14 54.90 C 99.73 54.22 99.32 53.54 98.90 52.87 C 106.36 40.60 113.77 28.28 121.42 16.13 C 124.69 15.91 126.93 15.48 129.59 13.54 C 131.57 11.80 133.23 12.89 135.49 13.30 Z" id="p2" />
<path d="M 119.13 13.20 C 116.23 18.86 112.78 24.04 109.49 29.48 C 105.11 36.58 100.87 43.77 96.38 50.80 C 94.49 51.05 92.38 51.03 90.58 51.73 C 89.07 52.59 87.78 53.92 86.48 55.05 C 75.76 52.56 64.92 50.41 54.32 47.47 C 55.81 45.83 57.42 44.39 59.44 43.42 C 78.01 34.12 96.40 24.43 114.94 15.06 C 116.32 14.41 117.72 13.79 119.13 13.20 Z" id="p3" />
<path d="M 200.38 33.49 C 201.20 35.52 202.25 36.90 201.12 39.07 C 192.06 59.11 182.70 79.44 173.62 99.51 C 171.09 100.17 168.61 100.92 166.14 101.80 C 144.27 88.26 122.53 74.50 100.70 60.91 C 100.85 59.89 101.00 58.87 101.15 57.86 C 134.22 49.72 167.32 41.66 200.38 33.49 Z" id="p4" />
<path d="M 211.07 36.19 C 229.51 50.89 247.78 65.86 266.03 80.79 C 265.81 84.28 266.43 87.07 267.53 90.33 C 267.83 92.02 266.32 94.11 265.67 95.65 C 261.28 103.98 256.95 112.36 252.71 120.77 C 251.36 120.69 250.02 120.60 248.67 120.52 C 236.15 92.43 223.50 64.32 211.07 36.19 Z" id="p5" />
<path d="M 208.03 37.13 C 220.64 65.37 233.26 93.60 245.84 121.85 C 245.02 122.76 244.21 123.68 243.40 124.59 C 222.25 118.98 201.05 113.50 179.87 107.97 C 178.88 105.51 177.78 103.15 176.49 100.84 C 184.71 82.36 193.28 64.03 201.55 45.57 C 203.39 42.00 203.65 38.42 208.03 37.13 Z" id="p6" />
<path d="M 55.11 51.22 C 65.54 53.25 75.92 55.86 86.27 58.30 C 86.46 59.39 86.64 60.48 86.83 61.57 C 62.26 80.23 37.74 98.94 13.18 117.60 C 24.02 96.87 34.77 76.08 45.70 55.40 C 50.07 55.05 51.90 53.95 55.11 51.22 Z" id="p7" />
<path d="M 99.02 63.63 C 120.91 77.07 142.68 90.89 164.48 104.51 C 164.72 106.96 165.04 109.39 165.41 111.82 C 146.76 131.53 127.95 151.10 109.24 170.76 C 108.11 170.36 106.98 169.96 105.85 169.56 C 104.37 152.35 102.57 135.18 100.95 117.99 C 99.47 100.49 97.32 83.01 96.09 65.49 C 97.04 64.84 98.02 64.22 99.02 63.63 Z" id="p8" />
<path d="M 87.20 65.24 C 72.93 86.48 58.83 107.86 44.41 129.01 C 39.87 128.90 38.05 129.45 34.47 132.09 C 28.24 129.74 22.05 127.29 15.84 124.89 C 15.62 123.27 15.39 121.64 15.15 120.02 C 39.18 101.77 63.14 83.45 87.20 65.24 Z" id="p9" />
<path d="M 92.23 64.52 C 93.00 67.63 93.41 70.80 93.67 73.99 C 96.71 106.01 99.83 138.03 102.85 170.05 C 101.84 170.65 100.82 171.25 99.80 171.85 C 82.78 160.99 65.72 150.17 48.79 139.16 C 48.55 136.22 48.04 133.59 47.14 130.78 C 60.49 110.62 74.08 90.61 87.42 70.44 C 88.85 68.30 90.44 66.35 92.23 64.52 Z" id="p10" />
<path d="M 272.07 90.86 C 272.74 93.86 273.21 96.91 273.56 99.97 C 275.05 113.35 276.92 126.68 278.47 140.05 C 279.34 147.70 280.62 155.21 281.01 162.90 C 272.79 152.93 264.62 142.88 256.56 132.78 C 257.80 128.15 257.65 126.24 255.58 122.03 C 258.69 115.70 262.01 109.49 265.21 103.21 C 267.37 98.98 269.34 94.77 272.07 90.86 Z" id="p11" />
<path d="M 181.47 111.59 C 201.79 116.81 222.20 122.27 242.54 127.50 C 242.96 129.00 243.38 130.50 243.79 132.00 C 224.53 147.59 205.29 163.22 186.06 178.87 C 184.62 178.25 183.18 177.64 181.73 177.03 C 179.24 156.17 176.90 135.28 174.38 114.42 C 176.89 112.87 178.21 110.47 181.47 111.59 Z" id="p12" />
<path d="M 167.90 114.05 C 169.05 114.22 170.20 114.41 171.35 114.62 C 173.76 135.44 176.23 156.26 178.60 177.09 C 176.76 178.84 175.03 180.66 173.36 182.58 C 153.15 180.47 132.94 178.33 112.74 176.16 C 112.32 175.09 111.89 174.02 111.47 172.95 C 127.48 156.13 143.55 139.36 159.55 122.53 C 162.32 119.70 164.95 116.68 167.90 114.05 Z" id="p13" />
<path d="M 14.85 128.02 C 21.13 130.03 27.19 132.72 33.37 135.04 C 34.22 138.05 35.28 140.50 37.00 143.10 C 29.77 162.56 22.47 182.02 14.94 201.37 C 13.57 177.87 11.85 154.39 10.34 130.90 C 11.84 129.93 13.32 128.93 14.85 128.02 Z" id="p14" />
<path d="M 247.83 133.98 C 247.35 141.05 245.97 148.06 245.12 155.10 C 242.93 170.43 240.89 185.78 238.63 201.10 C 236.52 202.21 234.46 203.37 232.42 204.61 C 217.77 198.50 203.17 192.22 188.52 186.10 C 188.37 184.54 188.24 182.98 188.10 181.42 C 206.16 166.71 224.34 152.07 242.35 137.30 C 244.05 135.98 245.90 134.92 247.83 133.98 Z" id="p15" />
<path d="M 253.60 134.41 C 261.89 144.07 269.71 154.17 277.79 164.01 C 276.49 167.52 276.28 169.96 276.76 173.67 C 265.78 183.47 254.59 193.05 243.61 202.84 C 242.94 202.61 242.27 202.38 241.61 202.16 C 244.80 180.00 247.78 157.73 251.00 135.59 C 251.85 135.17 252.72 134.78 253.60 134.41 Z" id="p16" />
<path d="M 46.99 142.01 C 50.41 143.80 53.63 146.05 56.88 148.12 C 70.56 156.89 84.27 165.63 97.95 174.40 C 97.88 175.62 97.81 176.84 97.74 178.06 C 71.96 187.01 46.27 196.24 20.46 205.11 C 19.62 204.26 18.77 203.41 17.92 202.57 C 25.29 183.06 32.68 163.55 40.04 144.04 C 42.37 143.38 44.66 142.63 46.99 142.01 Z" id="p17" />
<path d="M 279.13 175.91 C 271.73 192.93 264.38 209.97 256.99 226.99 C 254.80 232.00 253.01 237.02 249.99 241.62 C 246.96 233.30 245.08 224.55 242.72 216.02 C 243.91 214.48 245.38 212.83 246.12 211.01 C 246.44 209.05 246.08 206.94 245.93 204.96 C 256.95 195.23 267.97 185.48 279.13 175.91 Z" id="p18" />
<path d="M 112.77 179.26 C 133.05 181.43 153.32 183.55 173.60 185.71 C 174.06 186.82 174.52 187.94 174.99 189.05 C 160.05 205.02 145.07 220.96 130.10 236.91 C 128.61 236.60 127.12 236.28 125.62 235.96 C 120.08 218.59 114.55 201.21 109.03 183.83 C 110.30 182.33 111.54 180.80 112.77 179.26 Z" id="p19" />
<path d="M 98.32 181.38 C 100.84 182.80 103.35 184.06 106.09 185.03 C 111.73 202.30 117.16 219.64 122.67 236.94 C 121.76 237.90 120.86 238.87 119.96 239.83 C 89.13 230.44 58.33 220.95 27.51 211.55 C 25.08 210.80 22.70 209.94 20.33 209.03 C 25.87 206.24 31.67 204.57 37.49 202.51 C 53.99 196.65 70.54 190.92 87.04 185.07 C 90.75 183.77 94.49 182.28 98.32 181.38 Z" id="p20" />
<path d="M 189.89 190.02 C 203.77 195.89 217.83 201.84 231.69 207.71 C 231.77 209.07 231.85 210.42 231.93 211.78 C 222.74 217.52 213.60 223.34 204.36 228.99 C 202.17 228.21 199.98 227.47 197.75 226.79 C 193.46 214.74 189.06 202.71 185.02 190.58 C 187.02 189.36 187.65 189.05 189.89 190.02 Z" id="p21" />
<path d="M 177.28 191.61 C 178.91 191.54 180.56 191.81 182.17 191.94 C 186.21 203.89 190.60 215.71 194.66 227.64 C 193.28 229.64 191.99 231.66 190.76 233.75 C 176.22 235.85 161.58 237.25 147.01 239.15 C 142.23 239.70 137.16 240.68 132.36 240.47 C 133.50 236.92 137.00 234.22 139.48 231.48 C 151.25 218.92 163.06 206.39 174.78 193.79 C 175.56 193.02 176.35 192.19 177.28 191.61 Z" id="p22" />
<path d="M 19.25 212.57 C 22.45 213.29 25.61 214.15 28.74 215.13 C 58.88 224.43 89.07 233.57 119.20 242.89 C 119.22 243.85 119.24 244.82 119.26 245.78 C 103.92 254.19 88.64 262.74 73.21 270.98 C 69.72 269.14 67.53 268.68 63.52 268.96 C 52.82 255.80 42.47 242.35 31.89 229.09 C 27.66 223.62 23.04 218.33 19.25 212.57 Z" id="p23" />
<path d="M 233.51 214.66 C 235.57 215.29 237.60 215.99 239.65 216.65 C 241.78 224.77 244.07 232.85 246.20 240.98 C 245.02 242.16 243.85 243.35 242.68 244.54 C 231.82 241.65 220.96 238.76 210.07 236.00 C 207.78 235.41 206.13 234.57 205.05 232.36 C 214.52 226.44 223.87 220.27 233.51 214.66 Z" id="p24" />
<path d="M 191.25 236.96 C 192.42 238.36 193.61 239.76 194.80 241.15 C 189.14 255.84 183.41 270.49 177.72 285.17 C 175.85 285.50 173.98 285.86 172.12 286.24 C 159.18 273.24 146.05 260.42 133.04 247.50 C 133.31 246.27 133.59 245.05 133.87 243.83 C 153.00 241.52 172.12 239.19 191.25 236.96 Z" id="p25" />
<path d="M 205.67 238.52 C 207.03 238.25 208.59 238.74 209.91 239.04 C 219.17 241.54 228.45 244.01 237.75 246.35 C 240.00 247.27 242.68 246.79 242.53 250.01 C 239.70 252.40 236.23 254.13 233.08 256.10 C 220.47 263.80 207.86 271.53 195.23 279.23 C 190.31 282.20 185.68 285.42 180.40 287.76 C 181.95 282.39 184.10 277.32 186.12 272.13 C 190.02 262.24 193.69 252.25 197.77 242.44 C 200.63 241.41 203.11 240.13 205.67 238.52 Z" id="p26" />
<path d="M 120.33 248.97 C 124.45 250.71 126.71 251.13 131.11 250.06 C 142.37 261.08 153.49 272.24 164.75 283.25 C 166.90 285.33 168.84 287.54 170.62 289.95 C 164.59 289.67 158.96 288.50 152.98 287.62 C 132.73 284.57 112.48 281.49 92.24 278.39 C 85.88 277.43 79.54 276.70 73.28 275.17 C 75.61 273.48 78.03 271.93 80.57 270.55 C 90.49 265.17 100.39 259.73 110.28 254.28 C 113.59 252.48 116.87 250.45 120.33 248.97 Z" id="p27" />
</defs>
<g stroke-width="10pt">
<use stroke="#ffffff" xlink:href="#p0" />
<use stroke="#5c6db2" xlink:href="#p1" />
<use stroke="#ffffff" xlink:href="#p2" />
<use stroke="#ffffff" xlink:href="#p3" />
<use stroke="#ffffff" xlink:href="#p4" />
<use stroke="#ffffff" xlink:href="#p5" />
<use stroke="#ffffff" xlink:href="#p6" />
<use stroke="#ffffff" xlink:href="#p7" />
<use stroke="#ffffff" xlink:href="#p8" />
<use stroke="#ffffff" xlink:href="#p9" />
<use stroke="#ffffff" xlink:href="#p10" />
<use stroke="#ffffff" xlink:href="#p11" />
<use stroke="#ffffff" xlink:href="#p12" />
<use stroke="#ffffff" xlink:href="#p13" />
<use stroke="#ffffff" xlink:href="#p14" />
<use stroke="#ffffff" xlink:href="#p15" />
<use stroke="#ffffff" xlink:href="#p16" />
<use stroke="#ffffff" xlink:href="#p17" />
<use stroke="#ffffff" xlink:href="#p18" />
<use stroke="#ffffff" xlink:href="#p19" />
<use stroke="#ffffff" xlink:href="#p20" />
<use stroke="#ffffff" xlink:href="#p21" />
<use stroke="#ffffff" xlink:href="#p22" />
<use stroke="#ffffff" xlink:href="#p23" />
<use stroke="#ffffff" xlink:href="#p24" />
<use stroke="#ffffff" xlink:href="#p25" />
<use stroke="#ffffff" xlink:href="#p26" />
<use stroke="#ffffff" xlink:href="#p27" />
</g>
<g>
<use fill="#ffffff" xlink:href="#p0" />
<use fill="#5c6db2" xlink:href="#p1" />
<use fill="#ffffff" xlink:href="#p2" />
<use fill="#ffffff" xlink:href="#p3" />
<use fill="#ffffff" xlink:href="#p4" />
<use fill="#ffffff" xlink:href="#p5" />
<use fill="#ffffff" xlink:href="#p6" />
<use fill="#ffffff" xlink:href="#p7" />
<use fill="#ffffff" xlink:href="#p8" />
<use fill="#ffffff" xlink:href="#p9" />
<use fill="#ffffff" xlink:href="#p10" />
<use fill="#ffffff" xlink:href="#p11" />
<use fill="#ffffff" xlink:href="#p12" />
<use fill="#ffffff" xlink:href="#p13" />
<use fill="#ffffff" xlink:href="#p14" />
<use fill="#ffffff" xlink:href="#p15" />
<use fill="#ffffff" xlink:href="#p16" />
<use fill="#ffffff" xlink:href="#p17" />
<use fill="#ffffff" xlink:href="#p18" />
<use fill="#ffffff" xlink:href="#p19" />
<use fill="#ffffff" xlink:href="#p20" />
<use fill="#ffffff" xlink:href="#p21" />
<use fill="#ffffff" xlink:href="#p22" />
<use fill="#ffffff" xlink:href="#p23" />
<use fill="#ffffff" xlink:href="#p24" />
<use fill="#ffffff" xlink:href="#p25" />
<use fill="#ffffff" xlink:href="#p26" />
<use fill="#ffffff" xlink:href="#p27" />
</g>
</svg>