<?xml version="1.0" encoding="UTF-8"?>
<svg xmlns="http://www.w3.org/2000/svg" xmlns:xlink="http://www.w3.org/1999/xlink" width="31.043189" height="32" viewBox="0 0 31.043189 32" version="1.1">
<g id="surface1">
<path style="fill-rule:nonzero;fill:rgb(0%,0%,0%);fill-opacity:1;stroke-width:13.333333;stroke-linecap:butt;stroke-linejoin:miter;stroke:rgb(100%,100%,100%);stroke-opacity:1;stroke-miterlimit:4;" d="M 0 0 L 291.997925 0 L 291.997925 301 L 0 301 Z M 116.255371 10.80249 C 95.532227 21.494751 74.809082 32.150269 54.049194 42.769043 C 52.359009 41.92395 50.595337 40.858398 48.758179 40.454224 C 45.194092 39.903076 41.556519 42.364868 40.748169 45.892212 C 39.939819 48.758179 41.740234 51.403687 42.879272 53.902222 C 32.076782 74.625366 21.347778 95.348511 10.435059 115.998169 C 8.487671 116.328857 6.209595 116.439087 4.40918 117.357666 C 0.881836 119.37854 -0.0734863 124.449097 2.20459 127.755981 C 3.490601 129.335938 5.584961 130.364746 7.238403 131.467041 C 8.928589 154.725464 10.398315 177.983887 11.831299 201.279053 C 10.361572 202.565063 8.5979 203.814331 7.495605 205.467773 C 5.327759 209.178833 7.238403 214.24939 11.206665 215.792603 C 13.227539 216.34375 15.505615 216.086548 17.599976 216.123291 C 32.150269 234.3479 46.553589 252.645996 60.920166 270.980835 C 60.405762 273.369141 59.046265 276.49231 60.185303 278.843872 C 61.43457 282.003784 64.704712 283.804199 68.04834 283.400024 C 70.767334 283.216309 72.751465 280.534058 74.588623 278.843872 C 105.857056 283.620483 137.125488 288.286865 168.357178 293.136963 C 169.643188 295.341553 170.81897 298.574951 173.390991 299.49353 C 176.918335 301.073486 181.437744 299.49353 183.0177 295.929443 C 183.679077 294.055542 183.605591 291.924438 183.752563 289.977051 C 203.740845 277.631348 223.802612 265.395874 243.827637 253.197144 C 245.775024 254.042236 247.906128 255.181274 250.000488 255.291504 C 253.454346 255.071045 256.540771 252.46228 256.908203 248.934937 C 257.385864 245.885254 255.585449 243.901123 254.189209 241.402588 C 263.411743 219.981323 272.634277 198.523315 282.040527 177.175537 C 284.024658 176.697876 286.48645 176.403931 288.176636 175.228149 C 291.446777 172.876587 291.961182 167.659058 289.315674 164.682861 C 287.956177 163.323364 285.972046 162.441528 284.28186 161.486206 C 281.342407 138.374756 278.47644 115.226562 275.68396 92.115112 C 277.227173 90.571899 279.28479 88.9552 280.129883 86.934326 C 281.48938 83.14978 279.39502 78.777344 275.57373 77.528076 C 273.295654 76.682983 270.392944 77.785278 268.114868 78.336426 C 249.963745 63.63916 231.812622 48.941895 213.771729 34.134399 C 213.734985 31.635864 214.433105 28.292236 212.779663 26.234619 C 210.942505 23.625854 207.451904 22.450073 204.402222 23.515625 C 202.675293 24.287231 201.168823 25.756958 199.662354 26.932739 C 177.028564 21.237549 154.468262 15.10144 131.871216 9.185791 C 131.136353 7.348633 130.548462 5.254272 129.372681 3.637573 C 126.396484 0.146973 120.003174 0.624634 117.725098 4.666382 C 116.843262 6.540283 116.659546 8.818359 116.255371 10.80249 Z M 116.255371 10.80249 " transform="matrix(0.106312,0,0,0.106312,0,0)"/>
<path style="fill-rule:nonzero;fill:rgb(0%,0%,0%);fill-opacity:1;stroke-width:13.333333;stroke-linecap:butt;stroke-linejoin:miter;stroke:rgb(36.078432%,42.745098%,69.803923%);stroke-opacity:1;stroke-miterlimit:4;" d="M 129.372681 3.637573 C 130.548462 5.254272 131.136353 7.348633 131.871216 9.185791 C 154.468262 15.10144 177.028564 21.237549 199.662354 26.932739 C 201.168823 25.756958 202.675293 24.287231 204.402222 23.515625 C 207.451904 22.450073 210.942505 23.625854 212.779663 26.234619 C 214.433105 28.292236 213.734985 31.635864 213.771729 34.134399 C 231.812622 48.941895 249.963745 63.63916 268.114868 78.336426 C 270.392944 77.785278 273.295654 76.682983 275.57373 77.528076 C 279.39502 78.777344 281.48938 83.14978 280.129883 86.934326 C 279.28479 88.9552 277.227173 90.571899 275.68396 92.115112 C 278.47644 115.226562 281.342407 138.374756 284.28186 161.486206 C 285.972046 162.441528 287.956177 163.323364 289.315674 164.682861 C 291.961182 167.659058 291.446777 172.876587 288.176636 175.228149 C 286.48645 176.403931 284.024658 176.697876 282.040527 177.175537 C 272.634277 198.523315 263.411743 219.981323 254.189209 241.402588 C 255.585449 243.901123 257.385864 245.885254 256.908203 248.934937 C 256.540771 252.46228 253.454346 255.071045 250.000488 255.291504 C 247.906128 255.181274 245.775024 254.042236 243.827637 253.197144 C 223.802612 265.395874 203.740845 277.631348 183.752563 289.977051 C 183.605591 291.924438 183.679077 294.055542 183.0177 295.929443 C 181.437744 299.49353 176.918335 301.073486 173.390991 299.49353 C 170.81897 298.574951 169.643188 295.341553 168.357178 293.136963 C 137.125488 288.286865 105.857056 283.620483 74.588623 278.843872 C 72.751465 280.534058 70.767334 283.216309 68.04834 283.400024 C 64.704712 283.804199 61.43457 282.003784 60.185303 278.843872 C 59.046265 276.49231 60.405762 273.369141 60.920166 270.980835 C 46.553589 252.645996 32.150269 234.3479 17.599976 216.123291 C 15.505615 216.086548 13.227539 216.34375 11.206665 215.792603 C 7.238403 214.24939 5.327759 209.178833 7.495605 205.467773 C 8.5979 203.814331 10.361572 202.565063 11.831299 201.279053 C 10.398315 177.983887 8.928589 154.725464 7.238403 131.467041 C 5.584961 130.364746 3.490601 129.335938 2.20459 127.755981 C -0.0734863 124.449097 0.881836 119.37854 4.40918 117.357666 C 6.209595 116.439087 8.487671 116.328857 10.435059 115.998169 C 21.347778 95.348511 32.076782 74.625366 42.879272 53.902222 C 41.740234 51.403687 39.939819 48.758179 40.748169 45.892212 C 41.556519 42.364868 45.194092 39.903076 48.758179 40.454224 C 50.595337 40.858398 52.359009 41.92395 54.049194 42.769043 C 74.809082 32.150269 95.532227 21.494751 116.255371 10.80249 C 116.659546 8.818359 116.843262 6.540283 117.725098 4.666382 C 120.003174 0.624634 126.396484 0.146973 129.372681 3.637573 Z M 121.436157 16.130249 C 113.756836 28.292236 106.37146 40.601196 98.912598 52.873413 C 99.316772 53.53479 99.720947 54.23291 100.125122 54.894287 C 133.377686 46.737305 166.666992 38.727295 199.846069 30.386597 C 178.424805 24.50769 156.893311 19.143188 135.472046 13.301025 C 133.230713 12.896851 131.577271 11.794556 129.59314 13.558228 C 126.947632 15.468872 124.706299 15.90979 121.436157 16.130249 Z M 114.932617 15.064697 C 96.414062 24.434204 78.005737 34.134399 59.450439 43.43042 C 57.429565 44.385742 55.812866 45.818726 54.306396 47.472168 C 64.925171 50.411621 75.764404 52.542725 86.493408 55.04126 C 87.779419 53.902222 89.06543 52.579468 90.571899 51.734375 C 92.372314 51.036255 94.503418 51.036255 96.377319 50.815796 C 100.859985 43.761108 105.122192 36.596191 109.494629 29.468018 C 112.764771 24.030029 116.218628 18.849243 119.121338 13.190796 C 117.725098 13.778687 116.328857 14.40332 114.932617 15.064697 Z M 101.153931 57.870483 C 101.006958 58.862549 100.859985 59.891357 100.713013 60.920166 C 122.538452 74.515137 144.253662 88.25708 166.152588 101.815308 C 168.61438 100.933472 171.076172 100.161865 173.61145 99.500488 C 182.687012 79.438721 192.056519 59.119751 201.13208 39.057983 C 202.234375 36.890137 201.205566 35.53064 200.397217 33.473022 C 167.328369 41.666748 134.222778 49.713501 101.153931 57.870483 Z M 248.677734 120.517578 C 250.037231 120.591064 251.359985 120.701294 252.719482 120.77478 C 256.944946 112.360596 261.28064 103.983154 265.653076 95.642456 C 266.314453 94.099243 267.820923 92.004883 267.526978 90.314697 C 266.424683 87.081299 265.800049 84.288818 266.020508 80.798218 C 247.795898 65.84375 229.497803 50.889282 211.052734 36.192017 C 223.508667 64.33728 236.148315 92.445801 248.677734 120.517578 Z M 176.477417 100.823242 C 177.763428 103.138062 178.865723 105.526367 179.857788 107.988159 C 201.058594 113.499634 222.259399 118.974365 243.386719 124.596069 C 244.195068 123.67749 245.003418 122.758911 245.848511 121.840332 C 233.245605 93.584839 220.6427 65.366089 208.039795 37.147339 C 203.667358 38.43335 203.373413 41.997437 201.536255 45.561523 C 193.269043 64.043335 184.707886 82.378174 176.477417 100.823242 Z M 45.708496 55.408691 C 34.759033 76.095093 24.030029 96.85498 13.190796 117.614868 C 37.735229 98.949341 62.24292 80.24707 86.824097 61.581543 C 86.640381 60.479248 86.456665 59.376953 86.272949 58.311401 C 75.911377 55.849609 65.549805 53.240845 55.114746 51.219971 C 51.918091 53.938965 50.080933 55.04126 45.708496 55.408691 Z M 96.083374 65.476318 C 97.332642 83.002808 99.463745 100.492554 100.933472 117.9823 C 102.586914 135.178101 104.387329 152.337158 105.857056 169.569702 C 106.996094 169.973877 108.098389 170.378052 109.237427 170.745483 C 127.939697 151.087891 146.752197 131.540527 165.417725 111.809448 C 165.050293 109.384399 164.719604 106.959351 164.462402 104.497559 C 142.673706 90.902588 120.921753 77.087158 99.022827 63.63916 C 98.030762 64.227051 97.038696 64.851685 96.083374 65.476318 Z M 15.138184 120.003174 C 15.395386 121.656616 15.615845 123.273315 15.836304 124.890015 C 22.045898 127.27832 28.255493 129.740112 34.465088 132.091675 C 38.065918 129.446167 39.866333 128.89502 44.422485 129.005249 C 58.825806 107.87793 72.935181 86.493408 87.191528 65.255859 C 63.124756 83.443726 39.168213 101.778564 15.138184 120.003174 Z M 47.141479 130.768921 C 48.023315 133.598145 48.53772 136.206909 48.794922 139.146362 C 65.733521 150.169312 82.782349 160.971802 99.794434 171.847778 C 100.823242 171.259888 101.852051 170.635254 102.844116 170.047363 C 99.831177 138.044067 96.708008 106.004028 93.658325 74.000732 C 93.401123 70.804077 92.996948 67.644165 92.225342 64.520996 C 90.424927 66.358154 88.844971 68.305542 87.411987 70.436646 C 74.074219 90.608643 60.479248 110.633667 47.141479 130.768921 Z M 255.585449 122.024048 C 257.643066 126.249512 257.790039 128.160156 256.577515 132.789795 C 264.624268 142.894165 272.78125 152.925049 281.011719 162.882446 C 280.607544 155.203125 279.358276 147.70752 278.47644 140.064941 C 276.933228 126.69043 275.059326 113.352661 273.552856 99.978149 C 273.222168 96.891724 272.744507 93.842041 272.08313 90.865845 C 269.327393 94.76062 267.380005 98.986084 265.212158 103.211548 C 262.015503 109.494629 258.671875 115.704224 255.585449 122.024048 Z M 174.383057 114.418213 C 176.918335 135.28833 179.233154 156.158447 181.731689 177.028564 C 183.164673 177.653198 184.634399 178.241089 186.067383 178.865723 C 205.284058 163.213135 224.537476 147.59729 243.790894 132.018188 C 243.386719 130.511719 242.945801 129.005249 242.541626 127.498779 C 222.185913 122.28125 201.793457 116.806519 181.474487 111.588989 C 178.204346 110.486694 176.881592 112.875 174.383057 114.418213 Z M 111.47876 172.950073 C 111.882935 174.015625 112.323853 175.081177 112.728027 176.146729 C 132.936768 178.314575 153.145508 180.482422 173.354248 182.576782 C 175.044434 180.666138 176.771362 178.828979 178.608521 177.102051 C 176.220215 156.268677 173.758423 135.435303 171.333374 114.601929 C 170.194336 114.418213 169.055298 114.234497 167.91626 114.050781 C 164.940063 116.696289 162.331299 119.709229 159.538818 122.538452 C 143.555542 139.366821 127.462036 156.121704 111.47876 172.950073 Z M 10.324829 130.915894 C 11.868042 154.394775 13.558228 177.873657 14.954468 201.352539 C 22.486816 182.025635 29.761963 162.551758 37.000366 143.114624 C 35.273438 140.505859 34.207886 138.044067 33.362793 135.031128 C 27.189941 132.716309 21.127319 130.034058 14.844238 128.013184 C 13.337769 128.931763 11.831299 129.923828 10.324829 130.915894 Z M 188.088257 181.437744 C 188.235229 182.980957 188.382202 184.52417 188.529175 186.104126 C 203.152954 192.203491 217.776733 198.486572 232.437256 204.622681 C 234.45813 203.373413 236.515747 202.197632 238.646851 201.095337 C 240.888184 185.773438 242.945801 170.414795 245.113647 155.092896 C 245.95874 148.074951 247.35498 141.057007 247.832642 133.965576 C 245.885254 134.920898 244.048096 135.98645 242.35791 137.309204 C 224.35376 152.079956 206.165894 166.703735 188.088257 181.437744 Z M 250.992554 135.582275 C 247.795898 157.738403 244.782959 180.004761 241.623047 202.160889 C 242.284424 202.381348 242.945801 202.601807 243.607178 202.822266 C 254.593384 193.048584 265.763306 183.458618 276.749512 173.684937 C 276.271851 169.973877 276.49231 167.512085 277.77832 164.021484 C 269.694824 154.174316 261.905273 144.069946 253.601318 134.406494 C 252.719482 134.773926 251.837646 135.178101 250.992554 135.582275 Z M 40.050049 144.033203 C 32.664673 163.543823 25.279297 183.054443 17.930664 202.565063 C 18.775757 203.410156 19.62085 204.255249 20.465942 205.100342 C 46.259644 196.245239 71.943115 187.022705 97.736816 178.057373 C 97.810303 176.844849 97.883789 175.632324 97.957275 174.383057 C 84.252075 165.638184 70.546875 156.893311 56.878418 148.111694 C 53.64502 146.054077 50.411621 143.812744 46.994507 142.012329 C 44.642944 142.636963 42.364868 143.371826 40.050049 144.033203 Z M 245.921997 204.953369 C 246.06897 206.9375 246.436401 209.03186 246.105713 211.015991 C 245.37085 212.816406 243.901123 214.469849 242.725342 216.013062 C 245.076904 224.537476 246.950806 233.282349 250.000488 241.623047 C 253.013428 237.030151 254.813843 231.996338 256.981689 226.999268 C 264.367065 209.987183 271.715698 192.938354 279.137817 175.92627 C 267.967896 185.479492 256.944946 195.216431 245.921997 204.953369 Z M 109.016968 183.82605 C 114.565186 201.205566 120.07666 218.585083 125.624878 235.9646 C 127.131348 236.295288 128.601074 236.589233 130.107544 236.919922 C 145.062012 220.973389 160.053223 205.026855 175.00769 189.043579 C 174.530029 187.941284 174.052368 186.802246 173.61145 185.699951 C 153.329224 183.532104 133.046997 181.437744 112.764771 179.269897 C 111.552246 180.81311 110.302979 182.31958 109.016968 183.82605 Z M 20.31897 209.03186 C 22.707275 209.950439 25.095581 210.795532 27.52063 211.567139 C 58.348145 220.936646 89.138916 230.453125 119.966431 239.822632 C 120.848267 238.86731 121.766846 237.911987 122.685425 236.956665 C 117.17395 219.650635 111.735962 202.307861 106.077515 185.038574 C 103.358521 184.046509 100.823242 182.797241 98.324707 181.364258 C 94.503418 182.282837 90.755615 183.752563 87.044556 185.075317 C 70.546875 190.91748 53.975708 196.649414 37.478027 202.52832 C 31.672607 204.585938 25.867188 206.23938 20.31897 209.03186 Z M 185.001831 190.586792 C 189.043579 202.712036 193.452759 214.727051 197.751709 226.778809 C 199.993042 227.476929 202.160889 228.211792 204.365479 228.983398 C 213.588013 223.324951 222.737061 217.519531 231.922852 211.787598 C 231.849365 210.428101 231.775879 209.068604 231.702393 207.709106 C 217.813477 201.8302 203.777588 195.877808 189.888672 190.035645 C 187.647339 189.043579 187.022705 189.374268 185.001831 190.586792 Z M 190.770508 233.76001 C 191.983032 231.665649 193.269043 229.644775 194.665283 227.623901 C 190.586792 215.719116 186.214355 203.887817 182.172607 191.946289 C 180.555908 191.799316 178.902466 191.542114 177.285767 191.615601 C 176.367188 192.203491 175.558838 193.011841 174.787231 193.783447 C 163.066162 206.386353 151.234863 218.915771 139.477051 231.481934 C 137.015259 234.237671 133.487915 236.919922 132.348877 240.484009 C 137.162231 240.667725 142.232788 239.712402 147.009399 239.161255 C 161.596436 237.25061 176.220215 235.85437 190.770508 233.76001 Z M 19.253418 212.559204 C 23.037964 218.327881 27.667603 223.618896 31.893066 229.093628 C 42.475098 242.35791 52.83667 255.805908 63.528931 268.959961 C 67.533936 268.666016 69.701782 269.143677 73.192383 270.980835 C 88.624512 262.750366 103.909668 254.189209 119.268311 245.775024 C 119.231567 244.819702 119.231567 243.86438 119.194824 242.872314 C 89.06543 233.576294 58.862549 224.427246 28.733154 215.131226 C 25.609985 214.13916 22.450073 213.294067 19.253418 212.559204 Z M 205.063599 232.36377 C 206.12915 234.568359 207.782593 235.413452 210.060669 236.001343 C 220.973389 238.75708 231.812622 241.65979 242.688599 244.525757 C 243.86438 243.349976 245.003418 242.174194 246.215942 240.96167 C 244.084839 232.841431 241.77002 224.757935 239.638916 216.637695 C 237.618042 215.976318 235.560425 215.278198 233.502808 214.653564 C 223.876099 220.275269 214.506592 226.44812 205.063599 232.36377 Z M 133.855347 243.827637 C 133.598145 245.040161 133.304199 246.252686 133.046997 247.501953 C 146.054077 260.435547 159.171387 273.222168 172.10498 286.229248 C 173.978882 285.861816 175.852783 285.494385 177.726685 285.163696 C 183.421875 270.503174 189.153809 255.842651 194.812256 241.145386 C 193.599731 239.749146 192.42395 238.352905 191.248169 236.956665 C 172.10498 239.197998 152.998535 241.512817 133.855347 243.827637 Z M 197.751709 242.431396 C 193.673218 252.241821 190.035645 262.235962 186.104126 272.119873 C 184.083252 277.337402 181.952148 282.407959 180.408936 287.772461 C 185.663208 285.420898 190.292847 282.1875 195.216431 279.248047 C 207.856079 271.531982 220.458984 263.815918 233.06189 256.099854 C 236.221802 254.115723 239.712402 252.388794 242.541626 250.000488 C 242.688599 246.803833 240.006348 247.281494 237.765015 246.362915 C 228.432251 244.011353 219.172974 241.549561 209.913696 239.051025 C 208.590942 238.75708 207.047729 238.242676 205.688232 238.536621 C 203.116211 240.116577 200.617676 241.402588 197.751709 242.431396 Z M 73.265869 275.169556 C 79.54895 276.712769 85.868774 277.447632 92.225342 278.402954 C 112.470825 281.48938 132.716309 284.575806 152.961792 287.625488 C 158.950928 288.507324 164.572632 289.683105 170.635254 289.940308 C 168.834839 287.552002 166.887451 285.347412 164.756348 283.253052 C 153.476196 272.230103 142.379761 261.096924 131.099609 250.073975 C 126.727173 251.139526 124.449097 250.698608 120.333862 248.97168 C 116.880005 250.441406 113.57312 252.46228 110.266235 254.262695 C 100.382324 259.737427 90.498413 265.175415 80.577759 270.539917 C 78.04248 271.936157 75.617432 273.47937 73.265869 275.169556 Z M 73.265869 275.169556 " transform="matrix(0.106312,0,0,0.106312,0,0)"/>
<path style="fill-rule:nonzero;fill:rgb(0%,0%,0%);fill-opacity:1;stroke-width:13.333333;stroke-linecap:butt;stroke-linejoin:miter;stroke:rgb(100%,100%,100%);stroke-opacity:1;stroke-miterlimit:4;" d="M 135.472046 13.301025 C 156.893311 19.143188 178.424805 24.50769 199.846069 30.386597 C 166.666992 38.727295 133.377686 46.737305 100.125122 54.894287 C 99.720947 54.23291 99.316772 53.53479 98.912598 52.873413 C 106.37146 40.601196 113.756836 28.292236 121.436157 16.130249 C 124.706299 15.90979 126.947632 15.468872 129.59314 13.558228 C 131.577271 11.794556 133.230713 12.896851 135.472046 13.301025 Z M 135.472046 13.301025 " transform="matrix(0.106312,0,0,0.106312,0,0)"/>
<path style="fill-rule:nonzero;fill:rgb(0%,0%,0%);fill-opacity:1;stroke-width:13.333333;stroke-linecap:butt;stroke-linejoin:miter;stroke:rgb(100%,100%,100%);stroke-opacity:1;stroke-miterlimit:4;" d="M 119.121338 13.190796 C 116.218628 18.849243 112.764771 24.030029 109.494629 29.468018 C 105.122192 36.596191 100.859985 43.761108 96.377319 50.815796 C 94.503418 51.036255 92.372314 51.036255 90.571899 51.734375 C 89.06543 52.579468 87.779419 53.902222 86.493408 55.04126 C 75.764404 52.542725 64.925171 50.411621 54.306396 47.472168 C 55.812866 45.818726 57.429565 44.385742 59.450439 43.43042 C 78.005737 34.134399 96.414062 24.434204 114.932617 15.064697 C 116.328857 14.40332 117.725098 13.778687 119.121338 13.190796 Z M 119.121338 13.190796 " transform="matrix(0.106312,0,0,0.106312,0,0)"/>
<path style="fill-rule:nonzero;fill:rgb(0%,0%,0%);fill-opacity:1;stroke-width:13.333333;stroke-linecap:butt;stroke-linejoin:miter;stroke:rgb(100%,100%,100%);stroke-opacity:1;stroke-miterlimit:4;" d="M 200.397217 33.473022 C 201.205566 35.53064 202.234375 36.890137 201.13208 39.057983 C 192.056519 59.119751 182.687012 79.438721 173.61145 99.500488 C 171.076172 100.161865 168.61438 100.933472 166.152588 101.815308 C 144.253662 88.25708 122.538452 74.515137 100.713013 60.920166 C 100.859985 59.891357 101.006958 58.862549 101.153931 57.870483 C 134.222778 49.713501 167.328369 41.666748 200.397217 33.473022 Z M 200.397217 33.473022 " transform="matrix(0.106312,0,0,0.106312,0,0)"/>
<path style="fill-rule:nonzero;fill:rgb(0%,0%,0%);fill-opacity:1;stroke-width:13.333333;stroke-linecap:butt;stroke-linejoin:miter;stroke:rgb(100%,100%,100%);stroke-opacity:1;stroke-miterlimit:4;" d="M 211.052734 36.192017 C 229.497803 50.889282 247.795898 65.84375 266.020508 80.798218 C 265.800049 84.288818 266.424683 87.081299 267.526978 90.314697 C 267.820923 92.004883 266.314453 94.099243 265.653076 95.642456 C 261.28064 103.983154 256.944946 112.360596 252.719482 120.77478 C 251.359985 120.701294 250.037231 120.591064 248.677734 120.517578 C 236.148315 92.445801 223.508667 64.33728 211.052734 36.192017 Z M 211.052734 36.192017 " transform="matrix(0.106312,0,0,0.106312,0,0)"/>
<path style="fill-rule:nonzero;fill:rgb(0%,0%,0%);fill-opacity:1;stroke-width:13.333333;stroke-linecap:butt;stroke-linejoin:miter;stroke:rgb(100%,100%,100%);stroke-opacity:1;stroke-miterlimit:4;" d="M 208.039795 37.147339 C 220.6427 65.366089 233.245605 93.584839 245.848511 121.840332 C 245.003418 122.758911 244.195068 123.67749 243.386719 124.596069 C 222.259399 118.974365 201.058594 113.499634 179.857788 107.988159 C 178.865723 105.526367 177.763428 103.138062 176.477417 100.823242 C 184.707886 82.378174 193.269043 64.043335 201.536255 45.561523 C 203.373413 41.997437 203.667358 38.43335 208.039795 37.147339 Z M 208.039795 37.147339 " transform="matrix(0.106312,0,0,0.106312,0,0)"/>
<path style="fill-rule:nonzero;fill:rgb(0%,0%,0%);fill-opacity:1;stroke-width:13.333333;stroke-linecap:butt;stroke-linejoin:miter;stroke:rgb(100%,100%,100%);stroke-opacity:1;stroke-miterlimit:4;" d="M 55.114746 51.219971 C 65.549805 53.240845 75.911377 55.849609 86.272949 58.311401 C 86.456665 59.376953 86.640381 60.479248 86.824097 61.581543 C 62.24292 80.24707 37.735229 98.949341 13.190796 117.614868 C 24.030029 96.85498 34.759033 76.095093 45.708496 55.408691 C 50.080933 55.04126 51.918091 53.938965 55.114746 51.219971 Z M 55.114746 51.219971 " transform="matrix(0.106312,0,0,0.106312,0,0)"/>
<path style="fill-rule:nonzero;fill:rgb(0%,0%,0%);fill-opacity:1;stroke-width:13.333333;stroke-linecap:butt;stroke-linejoin:miter;stroke:rgb(100%,100%,100%);stroke-opacity:1;stroke-miterlimit:4;" d="M 99.022827 63.63916 C 120.921753 77.087158 142.673706 90.902588 164.462402 104.497559 C 164.719604 106.959351 165.050293 109.384399 165.417725 111.809448 C 146.752197 131.540527 127.939697 151.087891 109.237427 170.745483 C 108.098389 170.378052 106.996094 169.973877 105.857056 169.569702 C 104.387329 152.337158 102.586914 135.178101 100.933472 117.9823 C 99.463745 100.492554 97.332642 83.002808 96.083374 65.476318 C 97.038696 64.851685 98.030762 64.227051 99.022827 63.63916 Z M 99.022827 63.63916 " transform="matrix(0.106312,0,0,0.106312,0,0)"/>
<path style="fill-rule:nonzero;fill:rgb(0%,0%,0%);fill-opacity:1;stroke-width:13.333333;stroke-linecap:butt;stroke-linejoin:miter;stroke:rgb(100%,100%,100%);stroke-opacity:1;stroke-miterlimit:4;" d="M 87.191528 65.255859 C 72.935181 86.493408 58.825806 107.87793 44.422485 129.005249 C 39.866333 128.89502 38.065918 129.446167 34.465088 132.091675 C 28.255493 129.740112 22.045898 127.27832 15.836304 124.890015 C 15.615845 123.273315 15.395386 121.656616 15.138184 120.003174 C 39.168213 101.778564 63.124756 83.443726 87.191528 65.255859 Z M 87.191528 65.255859 " transform="matrix(0.106312,0,0,0.106312,0,0)"/>
<path style="fill-rule:nonzero;fill:rgb(0%,0%,0%);fill-opacity:1;stroke-width:13.333333;stroke-linecap:butt;stroke-linejoin:miter;stroke:rgb(100%,100%,100%);stroke-opacity:1;stroke-miterlimit:4;" d="M 92.225342 64.520996 C 92.996948 67.644165 93.401123 70.804077 93.658325 74.000732 C 96.708008 106.004028 99.831177 138.044067 102.844116 170.047363 C 101.852051 170.635254 100.823242 171.259888 99.794434 171.847778 C 82.782349 160.971802 65.733521 150.169312 48.794922 139.146362 C 48.53772 136.206909 48.023315 133.598145 47.141479 130.768921 C 60.479248 110.633667 74.074219 90.608643 87.411987 70.436646 C 88.844971 68.305542 90.424927 66.358154 92.225342 64.520996 Z M 92.225342 64.520996 " transform="matrix(0.106312,0,0,0.106312,0,0)"/>
<path style="fill-rule:nonzero;fill:rgb(0%,0%,0%);fill-opacity:1;stroke-width:13.333333;stroke-linecap:butt;stroke-linejoin:miter;stroke:rgb(100%,100%,100%);stroke-opacity:1;stroke-miterlimit:4;" d="M 272.08313 90.865845 C 272.744507 93.842041 273.222168 96.891724 273.552856 99.978149 C 275.059326 113.352661 276.933228 126.69043 278.47644 140.064941 C 279.358276 147.70752 280.607544 155.203125 281.011719 162.882446 C 272.78125 152.925049 264.624268 142.894165 256.577515 132.789795 C 257.790039 128.160156 257.643066 126.249512 255.585449 122.024048 C 258.671875 115.704224 262.015503 109.494629 265.212158 103.211548 C 267.380005 98.986084 269.327393 94.76062 272.08313 90.865845 Z M 272.08313 90.865845 " transform="matrix(0.106312,0,0,0.106312,0,0)"/>
<path style="fill-rule:nonzero;fill:rgb(0%,0%,0%);fill-opacity:1;stroke-width:13.333333;stroke-linecap:butt;stroke-linejoin:miter;stroke:rgb(100%,100%,100%);stroke-opacity:1;stroke-miterlimit:4;" d="M 181.474487 111.588989 C 201.793457 116.806519 222.185913 122.28125 242.541626 127.498779 C 242.945801 129.005249 243.386719 130.511719 243.790894 132.018188 C 224.537476 147.59729 205.284058 163.213135 186.067383 178.865723 C 184.634399 178.241089 183.164673 177.653198 181.731689 177.028564 C 179.233154 156.158447 176.918335 135.28833 174.383057 114.418213 C 176.881592 112.875 178.204346 110.486694 181.474487 111.588989 Z M 181.474487 111.588989 " transform="matrix(0.106312,0,0,0.106312,0,0)"/>
<path style="fill-rule:nonzero;fill:rgb(0%,0%,0%);fill-opacity:1;stroke-width:13.333333;stroke-linecap:butt;stroke-linejoin:miter;stroke:rgb(100%,100%,100%);stroke-opacity:1;stroke-miterlimit:4;" d="M 167.91626 114.050781 C 169.055298 114.234497 170.194336 114.418213 171.333374 114.601929 C 173.758423 135.435303 176.220215 156.268677 178.608521 177.102051 C 176.771362 178.828979 175.044434 180.666138 173.354248 182.576782 C 153.145508 180.482422 132.936768 178.314575 112.728027 176.146729 C 112.323853 175.081177 111.882935 174.015625 111.47876 172.950073 C 127.462036 156.121704 143.555542 139.366821 159.538818 122.538452 C 162.331299 119.709229 164.940063 116.696289 167.91626 114.050781 Z M 167.91626 114.050781 " transform="matrix(0.106312,0,0,0.106312,0,0)"/>
<path style="fill-rule:nonzero;fill:rgb(0%,0%,0%);fill-opacity:1;stroke-width:13.333333;stroke-linecap:butt;stroke-linejoin:miter;stroke:rgb(100%,100%,100%);stroke-opacity:1;stroke-miterlimit:4;" d="M 14.844238 128.013184 C 21.127319 130.034058 27.189941 132.716309 33.362793 135.031128 C 34.207886 138.044067 35.273438 140.505859 37.000366 143.114624 C 29.761963 162.551758 22.486816 182.025635 14.954468 201.352539 C 13.558228 177.873657 11.868042 154.394775 10.324829 130.915894 C 11.831299 129.923828 13.337769 128.931763 14.844238 128.013184 Z M 14.844238 128.013184 " transform="matrix(0.106312,0,0,0.106312,0,0)"/>
<path style="fill-rule:nonzero;fill:rgb(0%,0%,0%);fill-opacity:1;stroke-width:13.333333;stroke-linecap:butt;stroke-linejoin:miter;stroke:rgb(100%,100%,100%);stroke-opacity:1;stroke-miterlimit:4;" d="M 247.832642 133.965576 C 247.35498 141.057007 245.95874 148.074951 245.113647 155.092896 C 242.945801 170.414795 240.888184 185.773438 238.646851 201.095337 C 236.515747 202.197632 234.45813 203.373413 232.437256 204.622681 C 217.776733 198.486572 203.152954 192.203491 188.529175 186.104126 C 188.382202 184.52417 188.235229 182.980957 188.088257 181.437744 C 206.165894 166.703735 224.35376 152.079956 242.35791 137.309204 C 244.048096 135.98645 245.885254 134.920898 247.832642 133.965576 Z M 247.832642 133.965576 " transform="matrix(0.106312,0,0,0.106312,0,0)"/>
<path style="fill-rule:nonzero;fill:rgb(0%,0%,0%);fill-opacity:1;stroke-width:13.333333;stroke-linecap:butt;stroke-linejoin:miter;stroke:rgb(100%,100%,100%);stroke-opacity:1;stroke-miterlimit:4;" d="M 253.601318 134.406494 C 261.905273 144.069946 269.694824 154.174316 277.77832 164.021484 C 276.49231 167.512085 276.271851 169.973877 276.749512 173.684937 C 265.763306 183.458618 254.593384 193.048584 243.607178 202.822266 C 242.945801 202.601807 242.284424 202.381348 241.623047 202.160889 C 244.782959 180.004761 247.795898 157.738403 250.992554 135.582275 C 251.837646 135.178101 252.719482 134.773926 253.601318 134.406494 Z M 253.601318 134.406494 " transform="matrix(0.106312,0,0,0.106312,0,0)"/>
<path style="fill-rule:nonzero;fill:rgb(0%,0%,0%);fill-opacity:1;stroke-width:13.333333;stroke-linecap:butt;stroke-linejoin:miter;stroke:rgb(100%,100%,100%);stroke-opacity:1;stroke-miterlimit:4;" d="M 46.994507 142.012329 C 50.411621 143.812744 53.64502 146.054077 56.878418 148.111694 C 70.546875 156.893311 84.252075 165.638184 97.957275 174.383057 C 97.883789 175.632324 97.810303 176.844849 97.736816 178.057373 C 71.943115 187.022705 46.259644 196.245239 20.465942 205.100342 C 19.62085 204.255249 18.775757 203.410156 17.930664 202.565063 C 25.279297 183.054443 32.664673 163.543823 40.050049 144.033203 C 42.364868 143.371826 44.642944 142.636963 46.994507 142.012329 Z M 46.994507 142.012329 " transform="matrix(0.106312,0,0,0.106312,0,0)"/>
<path style="fill-rule:nonzero;fill:rgb(0%,0%,0%);fill-opacity:1;stroke-width:13.333333;stroke-linecap:butt;stroke-linejoin:miter;stroke:rgb(100%,100%,100%);stroke-opacity:1;stroke-miterlimit:4;" d="M 279.137817 175.92627 C 271.715698 192.938354 264.367065 209.987183 256.981689 226.999268 C 254.813843 231.996338 253.013428 237.030151 250.000488 241.623047 C 246.950806 233.282349 245.076904 224.537476 242.725342 216.013062 C 243.901123 214.469849 245.37085 212.816406 246.105713 211.015991 C 246.436401 209.03186 246.06897 206.9375 245.921997 204.953369 C 256.944946 195.216431 267.967896 185.479492 279.137817 175.92627 Z M 279.137817 175.92627 " transform="matrix(0.106312,0,0,0.106312,0,0)"/>
<path style="fill-rule:nonzero;fill:rgb(0%,0%,0%);fill-opacity:1;stroke-width:13.333333;stroke-linecap:butt;stroke-linejoin:miter;stroke:rgb(100%,100%,100%);stroke-opacity:1;stroke-miterlimit:4;" d="M 112.764771 179.269897 C 133.046997 181.437744 153.329224 183.532104 173.61145 185.699951 C 174.052368 186.802246 174.530029 187.941284 175.00769 189.043579 C 160.053223 205.026855 145.062012 220.973389 130.107544 236.919922 C 128.601074 236.589233 127.131348 236.295288 125.624878 235.9646 C 120.07666 218.585083 114.565186 201.205566 109.016968 183.82605 C 110.302979 182.31958 111.552246 180.81311 112.764771 179.269897 Z M 112.764771 179.269897 " transform="matrix(0.106312,0,0,0.106312,0,0)"/>
<path style="fill-rule:nonzero;fill:rgb(0%,0%,0%);fill-opacity:1;stroke-width:13.333333;stroke-linecap:butt;stroke-linejoin:miter;stroke:rgb(100%,100%,100%);stroke-opacity:1;stroke-miterlimit:4;" d="M 98.324707 181.364258 C 100.823242 182.797241 103.358521 184.046509 106.077515 185.038574 C 111.735962 202.307861 117.17395 219.650635 122.685425 236.956665 C 121.766846 237.911987 120.848267 238.86731 119.966431 239.822632 C 89.138916 230.453125 58.348145 220.936646 27.52063 211.567139 C 25.095581 210.795532 22.707275 209.950439 20.31897 209.03186 C 25.867188 206.23938 31.672607 204.585938 37.478027 202.52832 C 53.975708 196.649414 70.546875 190.91748 87.044556 185.075317 C 90.755615 183.752563 94.503418 182.282837 98.324707 181.364258 Z M 98.324707 181.364258 " transform="matrix(0.106312,0,0,0.106312,0,0)"/>
<path style="fill-rule:nonzero;fill:rgb(0%,0%,0%);fill-opacity:1;stroke-width:13.333333;stroke-linecap:butt;stroke-linejoin:miter;stroke:rgb(100%,100%,100%);stroke-opacity:1;stroke-miterlimit:4;" d="M 189.888672 190.035645 C 203.777588 195.877808 217.813477 201.8302 231.702393 207.709106 C 231.775879 209.068604 231.849365 210.428101 231.922852 211.787598 C 222.737061 217.519531 213.588013 223.324951 204.365479 228.983398 C 202.160889 228.211792 199.993042 227.476929 197.751709 226.778809 C 193.452759 214.727051 189.043579 202.712036 185.001831 190.586792 C 187.022705 189.374268 187.647339 189.043579 189.888672 190.035645 Z M 189.888672 190.035645 " transform="matrix(0.106312,0,0,0.106312,0,0)"/>
<path style="fill-rule:nonzero;fill:rgb(0%,0%,0%);fill-opacity:1;stroke-width:13.333333;stroke-linecap:butt;stroke-linejoin:miter;stroke:rgb(100%,100%,100%);stroke-opacity:1;stroke-miterlimit:4;" d="M 177.285767 191.615601 C 178.902466 191.542114 180.555908 191.799316 182.172607 191.946289 C 186.214355 203.887817 190.586792 215.719116 194.665283 227.623901 C 193.269043 229.644775 191.983032 231.665649 190.770508 233.76001 C 176.220215 235.85437 161.596436 237.25061 147.009399 239.161255 C 142.232788 239.712402 137.162231 240.667725 132.348877 240.484009 C 133.487915 236.919922 137.015259 234.237671 139.477051 231.481934 C 151.234863 218.915771 163.066162 206.386353 174.787231 193.783447 C 175.558838 193.011841 176.367188 192.203491 177.285767 191.615601 Z M 177.285767 191.615601 " transform="matrix(0.106312,0,0,0.106312,0,0)"/>
<path style="fill-rule:nonzero;fill:rgb(0%,0%,0%);fill-opacity:1;stroke-width:13.333333;stroke-linecap:butt;stroke-linejoin:miter;stroke:rgb(100%,100%,100%);stroke-opacity:1;stroke-miterlimit:4;" d="M 19.253418 212.559204 C 22.450073 213.294067 25.609985 214.13916 28.733154 215.131226 C 58.862549 224.427246 89.06543 233.576294 119.194824 242.872314 C 119.231567 243.86438 119.231567 244.819702 119.268311 245.775024 C 103.909668 254.189209 88.624512 262.750366 73.192383 270.980835 C 69.701782 269.143677 67.533936 268.666016 63.528931 268.959961 C 52.83667 255.805908 42.475098 242.35791 31.893066 229.093628 C 27.667603 223.618896 23.037964 218.327881 19.253418 212.559204 Z M 19.253418 212.559204 " transform="matrix(0.106312,0,0,0.106312,0,0)"/>
<path style="fill-rule:nonzero;fill:rgb(0%,0%,0%);fill-opacity:1;stroke-width:13.333333;stroke-linecap:butt;stroke-linejoin:miter;stroke:rgb(100%,100%,100%);stroke-opacity:1;stroke-miterlimit:4;" d="M 233.502808 214.653564 C 235.560425 215.278198 237.618042 215.976318 239.638916 216.637695 C 241.77002 224.757935 244.084839 232.841431 246.215942 240.96167 C 245.003418 242.174194 243.86438 243.349976 242.688599 244.525757 C 231.812622 241.65979 220.973389 238.75708 210.060669 236.001343 C 207.782593 235.413452 206.12915 234.568359 205.063599 232.36377 C 214.506592 226.44812 223.876099 220.275269 233.502808 214.653564 Z M 233.502808 214.653564 " transform="matrix(0.106312,0,0,0.106312,0,0)"/>
<path style="fill-rule:nonzero;fill:rgb(0%,0%,0%);fill-opacity:1;stroke-width:13.333333;stroke-linecap:butt;stroke-linejoin:miter;stroke:rgb(100%,100%,100%);stroke-opacity:1;stroke-miterlimit:4;" d="M 191.248169 236.956665 C 192.42395 238.352905 193.599731 239.749146 194.812256 241.145386 C 189.153809 255.842651 183.421875 270.503174 177.726685 285.163696 C 175.852783 285.494385 173.978882 285.861816 172.10498 286.229248 C 159.171387 273.222168 146.054077 260.435547 133.046997 247.501953 C 133.304199 246.252686 133.598145 245.040161 133.855347 243.827637 C 152.998535 241.512817 172.10498 239.197998 191.248169 236.956665 Z M 191.248169 236.956665 " transform="matrix(0.106312,0,0,0.106312,0,0)"/>
<path style="fill-rule:nonzero;fill:rgb(0%,0%,0%);fill-opacity:1;stroke-width:13.333333;stroke-linecap:butt;stroke-linejoin:miter;stroke:rgb(100%,100%,100%);stroke-opacity:1;stroke-miterlimit:4;" d="M 205.688232 238.536621 C 207.047729 238.242676 208.590942 238.75708 209.913696 239.051025 C 219.172974 241.549561 228.432251 244.011353 237.765015 246.362915 C 240.006348 247.281494 242.688599 246.803833 242.541626 250.000488 C 239.712402 252.388794 236.221802 254.115723 233.06189 256.099854 C 220.458984 263.815918 207.856079 271.531982 195.216431 279.248047 C 190.292847 282.1875 185.663208 285.420898 180.408936 287.772461 C 181.952148 282.407959 184.083252 277.337402 186.104126 272.119873 C 190.035645 262.235962 193.673218 252.241821 197.751709 242.431396 C 200.617676 241.402588 203.116211 240.116577 205.688232 238.536621 Z M 205.688232 238.536621 " transform="matrix(0.106312,0,0,0.106312,0,0)"/>
<path style="fill-rule:nonzero;fill:rgb(0%,0%,0%);fill-opacity:1;stroke-width:13.333333;stroke-linecap:butt;stroke-linejoin:miter;stroke:rgb(100%,100%,100%);stroke-opacity:1;stroke-miterlimit:4;" d="M 120.333862 248.97168 C 124.449097 250.698608 126.727173 251.139526 131.099609 250.073975 C 142.379761 261.096924 153.476196 272.230103 164.756348 283.253052 C 166.887451 285.347412 168.834839 287.552002 170.635254 289.940308 C 164.572632 289.683105 158.950928 288.507324 152.961792 287.625488 C 132.716309 284.575806 112.470825 281.48938 92.225342 278.402954 C 85.868774 277.447632 79.54895 276.712769 73.265869 275.169556 C 75.617432 273.47937 78.04248 271.936157 80.577759 270.539917 C 90.498413 265.175415 100.382324 259.737427 110.266235 254.262695 C 113.57312 252.46228 116.880005 250.441406 120.333862 248.97168 Z M 120.333862 248.97168 " transform="matrix(0.106312,0,0,0.106312,0,0)"/>
<path style=" stroke:none;fill-rule:nonzero;fill:rgb(100%,100%,100%);fill-opacity:1;" d="M 0 0 L 31.042969 0 L 31.042969 32 L 0 32 Z M 12.359375 1.148438 C 10.15625 2.285156 7.953125 3.417969 5.746094 4.546875 C 5.566406 4.457031 5.378906 4.34375 5.183594 4.300781 C 4.804688 4.242188 4.417969 4.503906 4.332031 4.878906 C 4.246094 5.183594 4.4375 5.464844 4.558594 5.730469 C 3.410156 7.933594 2.269531 10.136719 1.109375 12.332031 C 0.902344 12.367188 0.660156 12.378906 0.46875 12.476562 C 0.09375 12.691406 -0.0078125 13.230469 0.234375 13.582031 C 0.371094 13.75 0.59375 13.859375 0.769531 13.976562 C 0.949219 16.449219 1.105469 18.921875 1.257812 21.398438 C 1.101562 21.535156 0.914062 21.667969 0.796875 21.84375 C 0.566406 22.238281 0.769531 22.777344 1.191406 22.941406 C 1.40625 23 1.648438 22.972656 1.871094 22.976562 C 3.417969 24.914062 4.949219 26.859375 6.476562 28.808594 C 6.421875 29.0625 6.277344 29.394531 6.398438 29.644531 C 6.53125 29.980469 6.878906 30.171875 7.234375 30.128906 C 7.523438 30.109375 7.734375 29.824219 7.929688 29.644531 C 11.253906 30.152344 14.578125 30.648438 17.898438 31.164062 C 18.035156 31.398438 18.160156 31.742188 18.433594 31.839844 C 18.808594 32.007812 19.289062 31.839844 19.457031 31.460938 C 19.527344 31.261719 19.519531 31.035156 19.535156 30.828125 C 21.660156 29.515625 23.792969 28.214844 25.921875 26.917969 C 26.128906 27.007812 26.355469 27.128906 26.578125 27.140625 C 26.945312 27.117188 27.273438 26.839844 27.3125 26.464844 C 27.363281 26.140625 27.171875 25.929688 27.023438 25.664062 C 28.003906 23.386719 28.984375 21.105469 29.984375 18.835938 C 30.195312 18.785156 30.457031 18.753906 30.636719 18.628906 C 30.984375 18.378906 31.039062 17.824219 30.757812 17.507812 C 30.613281 17.363281 30.402344 17.269531 30.222656 17.167969 C 29.910156 14.710938 29.605469 12.25 29.308594 9.792969 C 29.472656 9.628906 29.691406 9.457031 29.78125 9.242188 C 29.925781 8.839844 29.703125 8.375 29.296875 8.242188 C 29.054688 8.152344 28.746094 8.269531 28.503906 8.328125 C 26.574219 6.765625 24.644531 5.203125 22.726562 3.628906 C 22.722656 3.363281 22.796875 3.007812 22.621094 2.789062 C 22.425781 2.511719 22.054688 2.386719 21.730469 2.5 C 21.546875 2.582031 21.386719 2.738281 21.226562 2.863281 C 18.820312 2.257812 16.421875 1.605469 14.019531 0.976562 C 13.941406 0.78125 13.878906 0.558594 13.753906 0.386719 C 13.4375 0.015625 12.757812 0.0664062 12.515625 0.496094 C 12.421875 0.695312 12.402344 0.9375 12.359375 1.148438 Z M 12.359375 1.148438 "/>
<path style=" stroke:none;fill-rule:nonzero;fill:rgb(36.078432%,42.745098%,69.803923%);fill-opacity:1;" d="M 13.753906 0.386719 C 13.878906 0.558594 13.941406 0.78125 14.019531 0.976562 C 16.421875 1.605469 18.820312 2.257812 21.226562 2.863281 C 21.386719 2.738281 21.546875 2.582031 21.730469 2.5 C 22.054688 2.386719 22.425781 2.511719 22.621094 2.789062 C 22.796875 3.007812 22.722656 3.363281 22.726562 3.628906 C 24.644531 5.203125 26.574219 6.765625 28.503906 8.328125 C 28.746094 8.269531 29.054688 8.152344 29.296875 8.242188 C 29.703125 8.375 29.925781 8.839844 29.78125 9.242188 C 29.691406 9.457031 29.472656 9.628906 29.308594 9.792969 C 29.605469 12.25 29.910156 14.710938 30.222656 17.167969 C 30.402344 17.269531 30.613281 17.363281 30.757812 17.507812 C 31.039062 17.824219 30.984375 18.378906 30.636719 18.628906 C 30.457031 18.753906 30.195312 18.785156 29.984375 18.835938 C 28.984375 21.105469 28.003906 23.386719 27.023438 25.664062 C 27.171875 25.929688 27.363281 26.140625 27.3125 26.464844 C 27.273438 26.839844 26.945312 27.117188 26.578125 27.140625 C 26.355469 27.128906 26.128906 27.007812 25.921875 26.917969 C 23.792969 28.214844 21.660156 29.515625 19.535156 30.828125 C 19.519531 31.035156 19.527344 31.261719 19.457031 31.460938 C 19.289062 31.839844 18.808594 32.007812 18.433594 31.839844 C 18.160156 31.742188 18.035156 31.398438 17.898438 31.164062 C 14.578125 30.648438 11.253906 30.152344 7.929688 29.644531 C 7.734375 29.824219 7.523438 30.109375 7.234375 30.128906 C 6.878906 30.171875 6.53125 29.980469 6.398438 29.644531 C 6.277344 29.394531 6.421875 29.0625 6.476562 28.808594 C 4.949219 26.859375 3.417969 24.914062 1.871094 22.976562 C 1.648438 22.972656 1.40625 23 1.191406 22.941406 C 0.769531 22.777344 0.566406 22.238281 0.796875 21.84375 C 0.914062 21.667969 1.101562 21.535156 1.257812 21.398438 C 1.105469 18.921875 0.949219 16.449219 0.769531 13.976562 C 0.59375 13.859375 0.371094 13.75 0.234375 13.582031 C -0.0078125 13.230469 0.09375 12.691406 0.46875 12.476562 C 0.660156 12.378906 0.902344 12.367188 1.109375 12.332031 C 2.269531 10.136719 3.410156 7.933594 4.558594 5.730469 C 4.4375 5.464844 4.246094 5.183594 4.332031 4.878906 C 4.417969 4.503906 4.804688 4.242188 5.183594 4.300781 C 5.378906 4.34375 5.566406 4.457031 5.746094 4.546875 C 7.953125 3.417969 10.15625 2.285156 12.359375 1.148438 C 12.402344 0.9375 12.421875 0.695312 12.515625 0.496094 C 12.757812 0.0664062 13.4375 0.015625 13.753906 0.386719 Z M 12.910156 1.714844 C 12.09375 3.007812 11.308594 4.316406 10.515625 5.621094 C 10.558594 5.691406 10.601562 5.765625 10.644531 5.835938 C 14.179688 4.96875 17.71875 4.117188 21.246094 3.230469 C 18.96875 2.605469 16.679688 2.035156 14.402344 1.414062 C 14.164062 1.371094 13.988281 1.253906 13.777344 1.441406 C 13.496094 1.644531 13.257812 1.691406 12.910156 1.714844 Z M 12.21875 1.601562 C 10.25 2.597656 8.292969 3.628906 6.320312 4.617188 C 6.105469 4.71875 5.933594 4.871094 5.773438 5.046875 C 6.902344 5.359375 8.054688 5.585938 9.195312 5.851562 C 9.332031 5.730469 9.46875 5.589844 9.628906 5.5 C 9.820312 5.425781 10.046875 5.425781 10.246094 5.402344 C 10.722656 4.652344 11.175781 3.890625 11.640625 3.132812 C 11.988281 2.554688 12.355469 2.003906 12.664062 1.402344 C 12.515625 1.464844 12.367188 1.53125 12.21875 1.601562 Z M 10.753906 6.152344 C 10.738281 6.257812 10.722656 6.367188 10.707031 6.476562 C 13.027344 7.921875 15.335938 9.382812 17.664062 10.824219 C 17.925781 10.730469 18.1875 10.648438 18.457031 10.578125 C 19.421875 8.445312 20.417969 6.285156 21.382812 4.152344 C 21.5 3.921875 21.390625 3.777344 21.304688 3.558594 C 17.789062 4.429688 14.269531 5.285156 10.753906 6.152344 Z M 26.4375 12.8125 C 26.582031 12.820312 26.722656 12.832031 26.867188 12.839844 C 27.316406 11.945312 27.777344 11.054688 28.242188 10.167969 C 28.3125 10.003906 28.472656 9.78125 28.441406 9.601562 C 28.324219 9.257812 28.257812 8.960938 28.28125 8.589844 C 26.34375 7 24.398438 5.410156 22.4375 3.847656 C 23.761719 6.839844 25.105469 9.828125 26.4375 12.8125 Z M 18.761719 10.71875 C 18.898438 10.964844 19.015625 11.21875 19.121094 11.480469 C 21.375 12.066406 23.628906 12.648438 25.875 13.246094 C 25.960938 13.148438 26.046875 13.050781 26.136719 12.953125 C 24.796875 9.949219 23.457031 6.949219 22.117188 3.949219 C 21.652344 4.085938 21.621094 4.464844 21.425781 4.84375 C 20.546875 6.808594 19.636719 8.757812 18.761719 10.71875 Z M 4.859375 5.890625 C 3.695312 8.089844 2.554688 10.296875 1.402344 12.503906 C 4.011719 10.519531 6.617188 8.53125 9.230469 6.546875 C 9.210938 6.429688 9.191406 6.3125 9.171875 6.199219 C 8.070312 5.9375 6.96875 5.660156 5.859375 5.445312 C 5.519531 5.734375 5.324219 5.851562 4.859375 5.890625 Z M 10.214844 6.960938 C 10.347656 8.824219 10.574219 10.683594 10.730469 12.542969 C 10.90625 14.371094 11.097656 16.195312 11.253906 18.027344 C 11.375 18.070312 11.492188 18.113281 11.613281 18.152344 C 13.601562 16.0625 15.601562 13.984375 17.585938 11.886719 C 17.546875 11.628906 17.511719 11.371094 17.484375 11.109375 C 15.167969 9.664062 12.855469 8.195312 10.527344 6.765625 C 10.421875 6.828125 10.316406 6.894531 10.214844 6.960938 Z M 1.609375 12.757812 C 1.636719 12.933594 1.660156 13.105469 1.683594 13.277344 C 2.34375 13.53125 3.003906 13.792969 3.664062 14.042969 C 4.046875 13.761719 4.238281 13.703125 4.722656 13.714844 C 6.253906 11.46875 7.753906 9.195312 9.269531 6.9375 C 6.710938 8.871094 4.164062 10.820312 1.609375 12.757812 Z M 5.011719 13.902344 C 5.105469 14.203125 5.160156 14.480469 5.1875 14.792969 C 6.988281 15.964844 8.800781 17.113281 10.609375 18.269531 C 10.71875 18.207031 10.828125 18.140625 10.933594 18.078125 C 10.613281 14.675781 10.28125 11.269531 9.957031 7.867188 C 9.929688 7.527344 9.886719 7.191406 9.804688 6.859375 C 9.613281 7.054688 9.445312 7.261719 9.292969 7.488281 C 7.875 9.632812 6.429688 11.761719 5.011719 13.902344 Z M 27.171875 12.972656 C 27.390625 13.421875 27.40625 13.625 27.277344 14.117188 C 28.132812 15.191406 29 16.257812 29.875 17.316406 C 29.832031 16.5 29.699219 15.703125 29.605469 14.890625 C 29.441406 13.46875 29.242188 12.050781 29.082031 10.628906 C 29.046875 10.300781 28.996094 9.976562 28.925781 9.660156 C 28.632812 10.074219 28.425781 10.523438 28.195312 10.972656 C 27.855469 11.640625 27.5 12.300781 27.171875 12.972656 Z M 18.539062 12.164062 C 18.808594 14.382812 19.054688 16.601562 19.320312 18.820312 C 19.472656 18.886719 19.628906 18.949219 19.78125 19.015625 C 21.824219 17.351562 23.871094 15.691406 25.917969 14.035156 C 25.875 13.875 25.828125 13.714844 25.785156 13.554688 C 23.621094 13 21.453125 12.417969 19.292969 11.863281 C 18.945312 11.746094 18.804688 12 18.539062 12.164062 Z M 11.851562 18.386719 C 11.894531 18.5 11.941406 18.613281 11.984375 18.726562 C 14.132812 18.957031 16.28125 19.1875 18.429688 19.410156 C 18.609375 19.207031 18.792969 19.011719 18.988281 18.828125 C 18.734375 16.613281 18.472656 14.398438 18.214844 12.183594 C 18.09375 12.164062 17.972656 12.144531 17.851562 12.125 C 17.535156 12.40625 17.257812 12.726562 16.960938 13.027344 C 15.261719 14.816406 13.550781 16.597656 11.851562 18.386719 Z M 1.097656 13.917969 C 1.261719 16.414062 1.441406 18.910156 1.589844 21.40625 C 2.390625 19.351562 3.164062 17.28125 3.933594 15.214844 C 3.75 14.9375 3.636719 14.675781 3.546875 14.355469 C 2.890625 14.109375 2.246094 13.824219 1.578125 13.609375 C 1.417969 13.707031 1.257812 13.8125 1.097656 13.917969 Z M 19.996094 19.289062 C 20.011719 19.453125 20.027344 19.617188 20.042969 19.785156 C 21.597656 20.433594 23.152344 21.101562 24.710938 21.753906 C 24.925781 21.621094 25.144531 21.496094 25.371094 21.378906 C 25.609375 19.75 25.828125 18.117188 26.058594 16.488281 C 26.148438 15.742188 26.296875 14.996094 26.347656 14.242188 C 26.140625 14.34375 25.945312 14.457031 25.765625 14.597656 C 23.851562 16.167969 21.917969 17.722656 19.996094 19.289062 Z M 26.683594 14.414062 C 26.34375 16.769531 26.023438 19.136719 25.6875 21.492188 C 25.757812 21.515625 25.828125 21.539062 25.898438 21.5625 C 27.066406 20.523438 28.253906 19.503906 29.421875 18.464844 C 29.371094 18.070312 29.394531 17.808594 29.53125 17.4375 C 28.671875 16.390625 27.84375 15.316406 26.960938 14.289062 C 26.867188 14.328125 26.773438 14.371094 26.683594 14.414062 Z M 4.257812 15.3125 C 3.472656 17.386719 2.6875 19.460938 1.90625 21.535156 C 1.996094 21.625 2.085938 21.714844 2.175781 21.804688 C 4.917969 20.863281 7.648438 19.882812 10.390625 18.929688 C 10.398438 18.800781 10.40625 18.671875 10.414062 18.539062 C 8.957031 17.609375 7.5 16.679688 6.046875 15.746094 C 5.703125 15.527344 5.359375 15.289062 4.996094 15.097656 C 4.746094 15.164062 4.503906 15.242188 4.257812 15.3125 Z M 26.144531 21.789062 C 26.160156 22 26.199219 22.222656 26.164062 22.433594 C 26.085938 22.625 25.929688 22.800781 25.804688 22.964844 C 26.054688 23.871094 26.253906 24.800781 26.578125 25.6875 C 26.898438 25.199219 27.089844 24.664062 27.320312 24.132812 C 28.105469 22.324219 28.886719 20.511719 29.675781 18.703125 C 28.488281 19.71875 27.316406 20.753906 26.144531 21.789062 Z M 11.589844 19.542969 C 12.179688 21.390625 12.765625 23.238281 13.355469 25.085938 C 13.515625 25.121094 13.671875 25.152344 13.832031 25.1875 C 15.421875 23.492188 17.015625 21.796875 18.605469 20.097656 C 18.554688 19.980469 18.503906 19.859375 18.457031 19.742188 C 16.300781 19.511719 14.144531 19.289062 11.988281 19.058594 C 11.859375 19.222656 11.726562 19.382812 11.589844 19.542969 Z M 2.160156 22.222656 C 2.414062 22.320312 2.667969 22.410156 2.925781 22.492188 C 6.203125 23.488281 9.476562 24.5 12.753906 25.496094 C 12.847656 25.394531 12.945312 25.292969 13.042969 25.191406 C 12.457031 23.351562 11.878906 21.507812 11.277344 19.671875 C 10.988281 19.566406 10.71875 19.433594 10.453125 19.28125 C 10.046875 19.378906 9.648438 19.535156 9.253906 19.675781 C 7.5 20.296875 5.738281 20.90625 3.984375 21.53125 C 3.367188 21.75 2.75 21.925781 2.160156 22.222656 Z M 19.667969 20.261719 C 20.097656 21.550781 20.566406 22.828125 21.023438 24.109375 C 21.261719 24.183594 21.492188 24.261719 21.726562 24.34375 C 22.707031 23.742188 23.679688 23.125 24.65625 22.515625 C 24.648438 22.371094 24.640625 22.226562 24.632812 22.082031 C 23.15625 21.457031 21.664062 20.824219 20.1875 20.203125 C 19.949219 20.097656 19.882812 20.132812 19.667969 20.261719 Z M 20.28125 24.851562 C 20.410156 24.628906 20.546875 24.414062 20.695312 24.199219 C 20.261719 22.933594 19.796875 21.675781 19.367188 20.40625 C 19.195312 20.390625 19.019531 20.363281 18.847656 20.371094 C 18.75 20.433594 18.664062 20.519531 18.582031 20.601562 C 17.335938 21.941406 16.078125 23.273438 14.828125 24.609375 C 14.566406 24.902344 14.191406 25.1875 14.070312 25.566406 C 14.582031 25.585938 15.121094 25.484375 15.628906 25.425781 C 17.179688 25.222656 18.734375 25.074219 20.28125 24.851562 Z M 2.046875 22.597656 C 2.449219 23.210938 2.941406 23.773438 3.390625 24.355469 C 4.515625 25.765625 5.617188 27.195312 6.753906 28.59375 C 7.179688 28.5625 7.410156 28.613281 7.78125 28.808594 C 9.421875 27.933594 11.046875 27.023438 12.679688 26.128906 C 12.675781 26.027344 12.675781 25.925781 12.671875 25.820312 C 9.46875 24.832031 6.257812 23.859375 3.054688 22.871094 C 2.722656 22.765625 2.386719 22.675781 2.046875 22.597656 Z M 21.800781 24.703125 C 21.914062 24.9375 22.089844 25.027344 22.332031 25.089844 C 23.492188 25.382812 24.644531 25.691406 25.800781 25.996094 C 25.925781 25.871094 26.046875 25.746094 26.175781 25.617188 C 25.949219 24.753906 25.703125 23.894531 25.476562 23.03125 C 25.261719 22.960938 25.042969 22.886719 24.824219 22.820312 C 23.800781 23.417969 22.804688 24.074219 21.800781 24.703125 Z M 14.230469 25.921875 C 14.203125 26.050781 14.171875 26.179688 14.144531 26.3125 C 15.527344 27.6875 16.921875 29.046875 18.296875 30.429688 C 18.496094 30.390625 18.695312 30.351562 18.894531 30.316406 C 19.5 28.757812 20.109375 27.199219 20.710938 25.636719 C 20.582031 25.488281 20.457031 25.339844 20.332031 25.191406 C 18.296875 25.429688 16.265625 25.675781 14.230469 25.921875 Z M 21.023438 25.773438 C 20.589844 26.816406 20.203125 27.878906 19.785156 28.929688 C 19.570312 29.484375 19.34375 30.023438 19.179688 30.59375 C 19.738281 30.34375 20.230469 30 20.753906 29.6875 C 22.097656 28.867188 23.4375 28.046875 24.777344 27.226562 C 25.113281 27.015625 25.484375 26.832031 25.785156 26.578125 C 25.800781 26.238281 25.515625 26.289062 25.277344 26.191406 C 24.285156 25.941406 23.300781 25.679688 22.316406 25.414062 C 22.175781 25.382812 22.011719 25.328125 21.867188 25.359375 C 21.59375 25.527344 21.328125 25.664062 21.023438 25.773438 Z M 7.789062 29.253906 C 8.457031 29.417969 9.128906 29.496094 9.804688 29.597656 C 11.957031 29.925781 14.109375 30.253906 16.261719 30.578125 C 16.898438 30.671875 17.496094 30.796875 18.140625 30.824219 C 17.949219 30.570312 17.742188 30.335938 17.515625 30.113281 C 16.316406 28.941406 15.136719 27.757812 13.9375 26.585938 C 13.472656 26.699219 13.230469 26.652344 12.792969 26.46875 C 12.425781 26.625 12.074219 26.839844 11.722656 27.03125 C 10.671875 27.613281 9.621094 28.191406 8.566406 28.761719 C 8.296875 28.910156 8.039062 29.074219 7.789062 29.253906 Z M 7.789062 29.253906 "/>
<path style=" stroke:none;fill-rule:nonzero;fill:rgb(100%,100%,100%);fill-opacity:1;" d="M 14.402344 1.414062 C 16.679688 2.035156 18.96875 2.605469 21.246094 3.230469 C 17.71875 4.117188 14.179688 4.96875 10.644531 5.835938 C 10.601562 5.765625 10.558594 5.691406 10.515625 5.621094 C 11.308594 4.316406 12.09375 3.007812 12.910156 1.714844 C 13.257812 1.691406 13.496094 1.644531 13.777344 1.441406 C 13.988281 1.253906 14.164062 1.371094 14.402344 1.414062 Z M 14.402344 1.414062 "/>
<path style=" stroke:none;fill-rule:nonzero;fill:rgb(100%,100%,100%);fill-opacity:1;" d="M 12.664062 1.402344 C 12.355469 2.003906 11.988281 2.554688 11.640625 3.132812 C 11.175781 3.890625 10.722656 4.652344 10.246094 5.402344 C 10.046875 5.425781 9.820312 5.425781 9.628906 5.5 C 9.46875 5.589844 9.332031 5.730469 9.195312 5.851562 C 8.054688 5.585938 6.902344 5.359375 5.773438 5.046875 C 5.933594 4.871094 6.105469 4.71875 6.320312 4.617188 C 8.292969 3.628906 10.25 2.597656 12.21875 1.601562 C 12.367188 1.53125 12.515625 1.464844 12.664062 1.402344 Z M 12.664062 1.402344 "/>
<path style=" stroke:none;fill-rule:nonzero;fill:rgb(100%,100%,100%);fill-opacity:1;" d="M 21.304688 3.558594 C 21.390625 3.777344 21.5 3.921875 21.382812 4.152344 C 20.417969 6.285156 19.421875 8.445312 18.457031 10.578125 C 18.1875 10.648438 17.925781 10.730469 17.664062 10.824219 C 15.335938 9.382812 13.027344 7.921875 10.707031 6.476562 C 10.722656 6.367188 10.738281 6.257812 10.753906 6.152344 C 14.269531 5.285156 17.789062 4.429688 21.304688 3.558594 Z M 21.304688 3.558594 "/>
<path style=" stroke:none;fill-rule:nonzero;fill:rgb(100%,100%,100%);fill-opacity:1;" d="M 22.4375 3.847656 C 24.398438 5.410156 26.34375 7 28.28125 8.589844 C 28.257812 8.960938 28.324219 9.257812 28.441406 9.601562 C 28.472656 9.78125 28.3125 10.003906 28.242188 10.167969 C 27.777344 11.054688 27.316406 11.945312 26.867188 12.839844 C 26.722656 12.832031 26.582031 12.820312 26.4375 12.8125 C 25.105469 9.828125 23.761719 6.839844 22.4375 3.847656 Z M 22.4375 3.847656 "/>
<path style=" stroke:none;fill-rule:nonzero;fill:rgb(100%,100%,100%);fill-opacity:1;" d="M 22.117188 3.949219 C 23.457031 6.949219 24.796875 9.949219 26.136719 12.953125 C 26.046875 13.050781 25.960938 13.148438 25.875 13.246094 C 23.628906 12.648438 21.375 12.066406 19.121094 11.480469 C 19.015625 11.21875 18.898438 10.964844 18.761719 10.71875 C 19.636719 8.757812 20.546875 6.808594 21.425781 4.84375 C 21.621094 4.464844 21.652344 4.085938 22.117188 3.949219 Z M 22.117188 3.949219 "/>
<path style=" stroke:none;fill-rule:nonzero;fill:rgb(100%,100%,100%);fill-opacity:1;" d="M 5.859375 5.445312 C 6.96875 5.660156 8.070312 5.9375 9.171875 6.199219 C 9.191406 6.3125 9.210938 6.429688 9.230469 6.546875 C 6.617188 8.53125 4.011719 10.519531 1.402344 12.503906 C 2.554688 10.296875 3.695312 8.089844 4.859375 5.890625 C 5.324219 5.851562 5.519531 5.734375 5.859375 5.445312 Z M 5.859375 5.445312 "/>
<path style=" stroke:none;fill-rule:nonzero;fill:rgb(100%,100%,100%);fill-opacity:1;" d="M 10.527344 6.765625 C 12.855469 8.195312 15.167969 9.664062 17.484375 11.109375 C 17.511719 11.371094 17.546875 11.628906 17.585938 11.886719 C 15.601562 13.984375 13.601562 16.0625 11.613281 18.152344 C 11.492188 18.113281 11.375 18.070312 11.253906 18.027344 C 11.097656 16.195312 10.90625 14.371094 10.730469 12.542969 C 10.574219 10.683594 10.347656 8.824219 10.214844 6.960938 C 10.316406 6.894531 10.421875 6.828125 10.527344 6.765625 Z M 10.527344 6.765625 "/>
<path style=" stroke:none;fill-rule:nonzero;fill:rgb(100%,100%,100%);fill-opacity:1;" d="M 9.269531 6.9375 C 7.753906 9.195312 6.253906 11.46875 4.722656 13.714844 C 4.238281 13.703125 4.046875 13.761719 3.664062 14.042969 C 3.003906 13.792969 2.34375 13.53125 1.683594 13.277344 C 1.660156 13.105469 1.636719 12.933594 1.609375 12.757812 C 4.164062 10.820312 6.710938 8.871094 9.269531 6.9375 Z M 9.269531 6.9375 "/>
<path style=" stroke:none;fill-rule:nonzero;fill:rgb(100%,100%,100%);fill-opacity:1;" d="M 9.804688 6.859375 C 9.886719 7.191406 9.929688 7.527344 9.957031 7.867188 C 10.28125 11.269531 10.613281 14.675781 10.933594 18.078125 C 10.828125 18.140625 10.71875 18.207031 10.609375 18.269531 C 8.800781 17.113281 6.988281 15.964844 5.1875 14.792969 C 5.160156 14.480469 5.105469 14.203125 5.011719 13.902344 C 6.429688 11.761719 7.875 9.632812 9.292969 7.488281 C 9.445312 7.261719 9.613281 7.054688 9.804688 6.859375 Z M 9.804688 6.859375 "/>
<path style=" stroke:none;fill-rule:nonzero;fill:rgb(100%,100%,100%);fill-opacity:1;" d="M 28.925781 9.660156 C 28.996094 9.976562 29.046875 10.300781 29.082031 10.628906 C 29.242188 12.050781 29.441406 13.46875 29.605469 14.890625 C 29.699219 15.703125 29.832031 16.5 29.875 17.316406 C 29 16.257812 28.132812 15.191406 27.277344 14.117188 C 27.40625 13.625 27.390625 13.421875 27.171875 12.972656 C 27.5 12.300781 27.855469 11.640625 28.195312 10.972656 C 28.425781 10.523438 28.632812 10.074219 28.925781 9.660156 Z M 28.925781 9.660156 "/>
<path style=" stroke:none;fill-rule:nonzero;fill:rgb(100%,100%,100%);fill-opacity:1;" d="M 19.292969 11.863281 C 21.453125 12.417969 23.621094 13 25.785156 13.554688 C 25.828125 13.714844 25.875 13.875 25.917969 14.035156 C 23.871094 15.691406 21.824219 17.351562 19.78125 19.015625 C 19.628906 18.949219 19.472656 18.886719 19.320312 18.820312 C 19.054688 16.601562 18.808594 14.382812 18.539062 12.164062 C 18.804688 12 18.945312 11.746094 19.292969 11.863281 Z M 19.292969 11.863281 "/>
<path style=" stroke:none;fill-rule:nonzero;fill:rgb(100%,100%,100%);fill-opacity:1;" d="M 17.851562 12.125 C 17.972656 12.144531 18.09375 12.164062 18.214844 12.183594 C 18.472656 14.398438 18.734375 16.613281 18.988281 18.828125 C 18.792969 19.011719 18.609375 19.207031 18.429688 19.410156 C 16.28125 19.1875 14.132812 18.957031 11.984375 18.726562 C 11.941406 18.613281 11.894531 18.5 11.851562 18.386719 C 13.550781 16.597656 15.261719 14.816406 16.960938 13.027344 C 17.257812 12.726562 17.535156 12.40625 17.851562 12.125 Z M 17.851562 12.125 "/>
<path style=" stroke:none;fill-rule:nonzero;fill:rgb(100%,100%,100%);fill-opacity:1;" d="M 1.578125 13.609375 C 2.246094 13.824219 2.890625 14.109375 3.546875 14.355469 C 3.636719 14.675781 3.75 14.9375 3.933594 15.214844 C 3.164062 17.28125 2.390625 19.351562 1.589844 21.40625 C 1.441406 18.910156 1.261719 16.414062 1.097656 13.917969 C 1.257812 13.8125 1.417969 13.707031 1.578125 13.609375 Z M 1.578125 13.609375 "/>
<path style=" stroke:none;fill-rule:nonzero;fill:rgb(100%,100%,100%);fill-opacity:1;" d="M 26.347656 14.242188 C 26.296875 14.996094 26.148438 15.742188 26.058594 16.488281 C 25.828125 18.117188 25.609375 19.75 25.371094 21.378906 C 25.144531 21.496094 24.925781 21.621094 24.710938 21.753906 C 23.152344 21.101562 21.597656 20.433594 20.042969 19.785156 C 20.027344 19.617188 20.011719 19.453125 19.996094 19.289062 C 21.917969 17.722656 23.851562 16.167969 25.765625 14.597656 C 25.945312 14.457031 26.140625 14.34375 26.347656 14.242188 Z M 26.347656 14.242188 "/>
<path style=" stroke:none;fill-rule:nonzero;fill:rgb(100%,100%,100%);fill-opacity:1;" d="M 26.960938 14.289062 C 27.84375 15.316406 28.671875 16.390625 29.53125 17.4375 C 29.394531 17.808594 29.371094 18.070312 29.421875 18.464844 C 28.253906 19.503906 27.066406 20.523438 25.898438 21.5625 C 25.828125 21.539062 25.757812 21.515625 25.6875 21.492188 C 26.023438 19.136719 26.34375 16.769531 26.683594 14.414062 C 26.773438 14.371094 26.867188 14.328125 26.960938 14.289062 Z M 26.960938 14.289062 "/>
<path style=" stroke:none;fill-rule:nonzero;fill:rgb(100%,100%,100%);fill-opacity:1;" d="M 4.996094 15.097656 C 5.359375 15.289062 5.703125 15.527344 6.046875 15.746094 C 7.5 16.679688 8.957031 17.609375 10.414062 18.539062 C 10.40625 18.671875 10.398438 18.800781 10.390625 18.929688 C 7.648438 19.882812 4.917969 20.863281 2.175781 21.804688 C 2.085938 21.714844 1.996094 21.625 1.90625 21.535156 C 2.6875 19.460938 3.472656 17.386719 4.257812 15.3125 C 4.503906 15.242188 4.746094 15.164062 4.996094 15.097656 Z M 4.996094 15.097656 "/>
<path style=" stroke:none;fill-rule:nonzero;fill:rgb(100%,100%,100%);fill-opacity:1;" d="M 29.675781 18.703125 C 28.886719 20.511719 28.105469 22.324219 27.320312 24.132812 C 27.089844 24.664062 26.898438 25.199219 26.578125 25.6875 C 26.253906 24.800781 26.054688 23.871094 25.804688 22.964844 C 25.929688 22.800781 26.085938 22.625 26.164062 22.433594 C 26.199219 22.222656 26.160156 22 26.144531 21.789062 C 27.316406 20.753906 28.488281 19.71875 29.675781 18.703125 Z M 29.675781 18.703125 "/>
<path style=" stroke:none;fill-rule:nonzero;fill:rgb(100%,100%,100%);fill-opacity:1;" d="M 11.988281 19.058594 C 14.144531 19.289062 16.300781 19.511719 18.457031 19.742188 C 18.503906 19.859375 18.554688 19.980469 18.605469 20.097656 C 17.015625 21.796875 15.421875 23.492188 13.832031 25.1875 C 13.671875 25.152344 13.515625 25.121094 13.355469 25.085938 C 12.765625 23.238281 12.179688 21.390625 11.589844 19.542969 C 11.726562 19.382812 11.859375 19.222656 11.988281 19.058594 Z M 11.988281 19.058594 "/>
<path style=" stroke:none;fill-rule:nonzero;fill:rgb(100%,100%,100%);fill-opacity:1;" d="M 10.453125 19.28125 C 10.71875 19.433594 10.988281 19.566406 11.277344 19.671875 C 11.878906 21.507812 12.457031 23.351562 13.042969 25.191406 C 12.945312 25.292969 12.847656 25.394531 12.753906 25.496094 C 9.476562 24.5 6.203125 23.488281 2.925781 22.492188 C 2.667969 22.410156 2.414062 22.320312 2.160156 22.222656 C 2.75 21.925781 3.367188 21.75 3.984375 21.53125 C 5.738281 20.90625 7.5 20.296875 9.253906 19.675781 C 9.648438 19.535156 10.046875 19.378906 10.453125 19.28125 Z M 10.453125 19.28125 "/>
<path style=" stroke:none;fill-rule:nonzero;fill:rgb(100%,100%,100%);fill-opacity:1;" d="M 20.1875 20.203125 C 21.664062 20.824219 23.15625 21.457031 24.632812 22.082031 C 24.640625 22.226562 24.648438 22.371094 24.65625 22.515625 C 23.679688 23.125 22.707031 23.742188 21.726562 24.34375 C 21.492188 24.261719 21.261719 24.183594 21.023438 24.109375 C 20.566406 22.828125 20.097656 21.550781 19.667969 20.261719 C 19.882812 20.132812 19.949219 20.097656 20.1875 20.203125 Z M 20.1875 20.203125 "/>
<path style=" stroke:none;fill-rule:nonzero;fill:rgb(100%,100%,100%);fill-opacity:1;" d="M 18.847656 20.371094 C 19.019531 20.363281 19.195312 20.390625 19.367188 20.40625 C 19.796875 21.675781 20.261719 22.933594 20.695312 24.199219 C 20.546875 24.414062 20.410156 24.628906 20.28125 24.851562 C 18.734375 25.074219 17.179688 25.222656 15.628906 25.425781 C 15.121094 25.484375 14.582031 25.585938 14.070312 25.566406 C 14.191406 25.1875 14.566406 24.902344 14.828125 24.609375 C 16.078125 23.273438 17.335938 21.941406 18.582031 20.601562 C 18.664062 20.519531 18.75 20.433594 18.847656 20.371094 Z M 18.847656 20.371094 "/>
<path style=" stroke:none;fill-rule:nonzero;fill:rgb(100%,100%,100%);fill-opacity:1;" d="M 2.046875 22.597656 C 2.386719 22.675781 2.722656 22.765625 3.054688 22.871094 C 6.257812 23.859375 9.46875 24.832031 12.671875 25.820312 C 12.675781 25.925781 12.675781 26.027344 12.679688 26.128906 C 11.046875 27.023438 9.421875 27.933594 7.78125 28.808594 C 7.410156 28.613281 7.179688 28.5625 6.753906 28.59375 C 5.617188 27.195312 4.515625 25.765625 3.390625 24.355469 C 2.941406 23.773438 2.449219 23.210938 2.046875 22.597656 Z M 2.046875 22.597656 "/>
<path style=" stroke:none;fill-rule:nonzero;fill:rgb(100%,100%,100%);fill-opacity:1;" d="M 24.824219 22.820312 C 25.042969 22.886719 25.261719 22.960938 25.476562 23.03125 C 25.703125 23.894531 25.949219 24.753906 26.175781 25.617188 C 26.046875 25.746094 25.925781 25.871094 25.800781 25.996094 C 24.644531 25.691406 23.492188 25.382812 22.332031 25.089844 C 22.089844 25.027344 21.914062 24.9375 21.800781 24.703125 C 22.804688 24.074219 23.800781 23.417969 24.824219 22.820312 Z M 24.824219 22.820312 "/>
<path style=" stroke:none;fill-rule:nonzero;fill:rgb(100%,100%,100%);fill-opacity:1;" d="M 20.332031 25.191406 C 20.457031 25.339844 20.582031 25.488281 20.710938 25.636719 C 20.109375 27.199219 19.5 28.757812 18.894531 30.316406 C 18.695312 30.351562 18.496094 30.390625 18.296875 30.429688 C 16.921875 29.046875 15.527344 27.6875 14.144531 26.3125 C 14.171875 26.179688 14.203125 26.050781 14.230469 25.921875 C 16.265625 25.675781 18.296875 25.429688 20.332031 25.191406 Z M 20.332031 25.191406 "/>
<path style=" stroke:none;fill-rule:nonzero;fill:rgb(100%,100%,100%);fill-opacity:1;" d="M 21.867188 25.359375 C 22.011719 25.328125 22.175781 25.382812 22.316406 25.414062 C 23.300781 25.679688 24.285156 25.941406 25.277344 26.191406 C 25.515625 26.289062 25.800781 26.238281 25.785156 26.578125 C 25.484375 26.832031 25.113281 27.015625 24.777344 27.226562 C 23.4375 28.046875 22.097656 28.867188 20.753906 29.6875 C 20.230469 30 19.738281 30.34375 19.179688 30.59375 C 19.34375 30.023438 19.570312 29.484375 19.785156 28.929688 C 20.203125 27.878906 20.589844 26.816406 21.023438 25.773438 C 21.328125 25.664062 21.59375 25.527344 21.867188 25.359375 Z M 21.867188 25.359375 "/>
<path style=" stroke:none;fill-rule:nonzero;fill:rgb(100%,100%,100%);fill-opacity:1;" d="M 12.792969 26.46875 C 13.230469 26.652344 13.472656 26.699219 13.9375 26.585938 C 15.136719 27.757812 16.316406 28.941406 17.515625 30.113281 C 17.742188 30.335938 17.949219 30.570312 18.140625 30.824219 C 17.496094 30.796875 16.898438 30.671875 16.261719 30.578125 C 14.109375 30.253906 11.957031 29.925781 9.804688 29.597656 C 9.128906 29.496094 8.457031 29.417969 7.789062 29.253906 C 8.039062 29.074219 8.296875 28.910156 8.566406 28.761719 C 9.621094 28.191406 10.671875 27.613281 11.722656 27.03125 C 12.074219 26.839844 12.425781 26.625 12.792969 26.46875 Z M 12.792969 26.46875 "/>
</g>
</svg>
