<?xml version="1.0" encoding="UTF-8"?>
<svg xmlns="http://www.w3.org/2000/svg" xmlns:xlink="http://www.w3.org/1999/xlink" width="32" height="32" viewBox="0 0 32 32" version="1.1">
<g id="surface1">
<path style=" stroke:none;fill-rule:nonzero;fill:rgb(0%,0%,0%);fill-opacity:1;" d="M 4.5 4 C 3.117188 4 2 5.121094 2 6.5 L 2 7.5 C 2 8.882812 3.121094 10 4.5 10 L 27.5 10 C 28.878906 10 30 8.878906 30 7.5 L 30 6.5 C 30 5.117188 28.878906 4 27.5 4 Z M 4.5 4 "/>
<path style=" stroke:none;fill-rule:evenodd;fill:rgb(0%,0%,0%);fill-opacity:1;" d="M 4.117188 12 L 4.835938 24.234375 C 4.960938 26.347656 6.710938 28 8.828125 28 L 23.167969 28 C 25.289062 28 27.039062 26.347656 27.164062 24.234375 L 27.882812 12 Z M 12.292969 15.792969 C 12.683594 15.402344 13.316406 15.402344 13.707031 15.792969 L 16 18.085938 L 18.292969 15.792969 C 18.542969 15.527344 18.917969 15.414062 19.273438 15.507812 C 19.625 15.597656 19.902344 15.875 19.992188 16.226562 C 20.085938 16.582031 19.972656 16.957031 19.707031 17.207031 L 17.414062 19.5 L 19.707031 21.792969 C 19.972656 22.042969 20.085938 22.417969 19.992188 22.773438 C 19.902344 23.125 19.625 23.402344 19.273438 23.492188 C 18.917969 23.585938 18.542969 23.472656 18.292969 23.207031 L 16 20.914062 L 13.707031 23.207031 C 13.457031 23.472656 13.082031 23.585938 12.726562 23.492188 C 12.375 23.402344 12.097656 23.125 12.007812 22.773438 C 11.914062 22.417969 12.027344 22.042969 12.292969 21.792969 L 14.585938 19.5 L 12.292969 17.207031 C 11.902344 16.816406 11.902344 16.183594 12.292969 15.792969 "/>
</g>
</svg>
