<svg xmlns:xlink="http://www.w3.org/1999/xlink" role="img" viewBox="0 0 24.889 32" xmlns="http://www.w3.org/2000/svg"><defs><clipPath id="d"><use xlink:href="#a"/></clipPath><clipPath id="e"><use xlink:href="#a"/></clipPath><path d="M0 0h25v32H0z" id="a"/><path d="M0 0h24.889v32H0z" id="c"/><mask id="g"><g filter="url(#b)"><use xlink:href="#c" style="fill:rgb(0%,0%,0%);fill-opacity:0.3;stroke:none"/></g></mask><mask id="i"><g filter="url(#b)"><use xlink:href="#c" style="fill:rgb(0%,0%,0%);fill-opacity:0.5;stroke:none"/></g></mask><g clip-path="url(#d)" id="f"><path d="m17.512 22.832.043-.687c-2.68 1.265-5.172 1.132-5.172 1.132s-2.504.106-5.137-1.136l.02.668s1.875 1.152 5.117 1.152c3.246 0 5.129-1.129 5.129-1.129m0 0" style="stroke:none;fill-rule:nonzero;fill:rgb(99.607843%,39.215687%,27.450982%);fill-opacity:1"/></g><g clip-path="url(#e)" id="h"><path d="M10.23 8.32a.76.76 0 0 0 .676-.375.766.766 0 0 0-.68-1.152.76.76 0 0 0-.742.766.76.76 0 0 0 .746.761m0 0" style="stroke:none;fill-rule:nonzero;fill:rgb(99.607843%,65.490198%,46.666667%);fill-opacity:1"/></g><filter filterUnits="objectBoundingBox" height="100%" id="b" width="100%" x="0%" y="0%"><feColorMatrix in="SourceGraphic" values="0 0 0 0 1 0 0 0 0 1 0 0 0 0 1 0 0 0 1 0"/></filter></defs><path d="M14.426 18.746c0 1.215-.805 1.86-2.11 1.86-1.304 0-2.023-.766-2.023-1.86 0 0 .719 1.012 2.023 1.012 1.305 0 2.11-1.012 2.11-1.012m0 0" style="stroke:none;fill-rule:nonzero;fill:rgb(100%,100%,100%);fill-opacity:1"/><path d="M12.445 23.473c6.36 0 11.516-5.157 11.516-11.524C23.96 5.586 18.805.426 12.445.426S.93 5.586.93 11.949c0 6.367 5.156 11.524 11.515 11.524m0 0" style="stroke:none;fill-rule:nonzero;fill:rgb(88.627452%,96.078432%,98.823529%);fill-opacity:1"/><path d="M12.445 21.594c5.2 0 9.414-4.219 9.414-9.422S17.645 2.75 12.445 2.75c-5.199 0-9.414 4.219-9.414 9.422s4.215 9.422 9.414 9.422m0 0" style="stroke:none;fill-rule:nonzero;fill:rgb(80.392158%,92.54902%,96.470588%);fill-opacity:1"/><path d="M8.922 3.922a.558.558 0 1 0-.555-.559c0 .309.25.559.555.559M4.785 17.879a.198.198 0 0 0 .184.078.193.193 0 0 0 .156-.121.198.198 0 0 0-.035-.195C1.328 12.832 3.5 6.6 7.766 4.156a.19.19 0 0 0 .066-.258.194.194 0 0 0-.258-.074C3.137 6.367.86 12.855 4.785 17.88m0 0" style="stroke:none;fill-rule:nonzero;fill:rgb(100%,100%,100%);fill-opacity:1"/><path d="M.824 9.66a.148.148 0 0 0-.148-.148.152.152 0 0 0-.153.148Zm-.3 4.516c0 .082.07.148.152.148a.148.148 0 0 0 .148-.148Zm23.78-4.535a.152.152 0 0 0-.152-.149.148.148 0 0 0-.148.149Zm-.3 4.515c0 .082.066.149.148.149a.152.152 0 0 0 .153-.149Zm-11.59 9.66c6.566 0 11.89-5.328 11.89-11.898h-.3c0 6.406-5.188 11.598-11.59 11.598Zm11.89-11.898C24.305 5.348 18.98.02 12.415.02v.3c6.402 0 11.59 5.196 11.59 11.598ZM12.415.02C5.848.02.524 5.348.524 11.918h.3C.824 5.512 6.012.32 12.414.32ZM.524 11.918c0 6.57 5.324 11.898 11.89 11.898v-.3c-6.398 0-11.59-5.192-11.59-11.598Zm0-2.258v4.516h.3V9.66Zm23.48-.02v4.516h.3V9.641ZM.93 9.668a.48.48 0 0 0-.227-.418.464.464 0 0 0-.703.418v4.562a.464.464 0 1 0 .93 0Zm23.96 0a.48.48 0 0 0-.226-.418.464.464 0 0 0-.703.418v4.562a.464.464 0 1 0 .93 0Zm0 0" style="stroke:none;fill-rule:nonzero;fill:rgb(70.980394%,82.352942%,95.294118%);fill-opacity:1"/><path d="M7.332 29.46c.54-.218.43-.437.43-.542L7.5 24.953l-.23-1.984-.348-12.383c0-2.938 2.172-5.688 5.453-5.688s5.602 2.645 5.605 5.688c-.093 5.879-.253 8.117-.472 12.34-.028.578-.102 1.449-.13 1.984-.12 2.64-.26 3.934-.26 4.008 0 .11-.11.324.425.543.539.219 1.777.504 1.777.574 0 .067-2.093 0-2.093 0-1.2 0-1.2-.902-1.2-1.117 0-.219-.328-3.969-.328-3.969l-.11 4.84c0 .219.11.547.872.766 0 0 1.668.25 1.668.343 0 .09-1.992 0-1.992 0-1.52 0-1.52-.89-1.52-.89l-.328-3.965s-.11 3.965-.11 4.512c0 .425.075.754 1.266.972.575.16 1.735.36 1.735.438 0 .078-2.649 0-2.649 0-1.418-.11-1.55-1.094-1.55-1.094l-.54-1.976-.535 1.976s-.219.984-1.636 1.094c0 0-2.407.078-2.407 0s.965-.258 1.578-.438c.829-.242 1.266-.547 1.266-.972 0-.547-.11-4.516-.11-4.516l-.327 3.969s0 .972-1.52.972c0 0-2.164.008-2.164-.082 0-.093 1.828-.343 1.828-.343.766-.22.875-.547.875-.766l-.11-4.84s-.327 3.746-.327 3.965c0 .219 0 1.203-1.2 1.203 0 0-2.02-.101-2.02-.168 0-.07 1.165-.27 1.7-.488m0 0" style="stroke:none;fill-rule:nonzero;fill:rgb(99.607843%,45.09804%,24.313726%);fill-opacity:1"/><path d="M7.27 22.969s-.227.547-.73.843c-.509.297-1.095.391-1.645.465 0 0 .757.38 1.687.293.582-.047.824.102.918.383Zm10.238-.043s.324.547.832.844c.508.296 1.094.39 1.644.464 0 0-.757.38-1.687.297-.582-.047-.824.098-.918.38Zm0 0" style="stroke:none;fill-rule:nonzero;fill:rgb(99.607843%,39.215687%,27.450982%);fill-opacity:1"/><use xlink:href="#f" mask="url(#g)"/><use xlink:href="#h" mask="url(#i)"/><path d="M17.969 10.668s.082-.957-.336-2.094c-1.149-3.129-3.965-3.758-5.485-3.672 0 0 2.157 1.02 2.254 4.278.047 1.445.047 1.488.047 1.488Zm0 0" style="stroke:none;fill-rule:nonzero;fill:rgb(99.607843%,41.960785%,23.529412%);fill-opacity:1"/><path d="M14.426 18.746c0 1.215-.805 1.86-2.11 1.86-1.304 0-2.023-.766-2.023-1.86 0 0 .719 1.012 2.023 1.012 1.305 0 2.11-1.012 2.11-1.012m0 0c0 1.215-.805 1.86-2.11 1.86-1.304 0-2.023-.766-2.023-1.86 0 0 .719 1.012 2.023 1.012 1.305 0 2.11-1.012 2.11-1.012m0 0c0 1.215-.489 3.125-2.11 3.125-1.625 0-2.023-2.031-2.023-3.125 0 0 0 1.86 2.023 1.86 2.211 0 2.11-1.86 2.11-1.86m0 0" style="stroke:none;fill-rule:nonzero;fill:rgb(100%,100%,100%);fill-opacity:1"/><path d="M14.426 18.746c0 1.215-.489 3.125-2.11 3.125-1.625 0-2.023-2.031-2.023-3.125 0 0 0 1.86 2.023 1.86 2.211 0 2.11-1.86 2.11-1.86m0 0" style="stroke:none;fill-rule:nonzero;fill:rgb(2.745098%,3.529412%,3.529412%);fill-opacity:1"/><path d="M8.48 16.89a3.338 3.338 0 0 0 3.332-3.335 3.333 3.333 0 1 0-6.667 0A3.337 3.337 0 0 0 8.48 16.89m0 0" style="stroke:none;fill-rule:nonzero;fill:rgb(99.607843%,39.215687%,27.450982%);fill-opacity:1"/><path d="M8.469 16.207a2.607 2.607 0 0 0 2.61-2.613 2.604 2.604 0 0 0-2.61-2.61 2.612 2.612 0 0 0 0 5.223m0 0" style="stroke:none;fill-rule:nonzero;fill:rgb(100%,100%,100%);fill-opacity:1"/><path d="M8.395 13.934a.802.802 0 1 0-.003-1.604.802.802 0 0 0 .003 1.604m0 0" style="stroke:none;fill-rule:nonzero;fill:rgb(3.529412%,4.313726%,4.313726%);fill-opacity:1"/><path d="M16.324 16.89a3.333 3.333 0 0 0 3.332-3.335 3.333 3.333 0 0 0-3.332-3.336 3.336 3.336 0 0 0 0 6.672m0 0" style="stroke:none;fill-rule:nonzero;fill:rgb(99.607843%,39.215687%,27.450982%);fill-opacity:1"/><path d="M16.191 16.203a2.616 2.616 0 0 0 2.614-2.613 2.612 2.612 0 0 0-5.223 0 2.612 2.612 0 0 0 2.61 2.613m0 0" style="stroke:none;fill-rule:nonzero;fill:rgb(100%,100%,100%);fill-opacity:1"/><path d="M16.242 13.934a.802.802 0 1 0-.002-1.604.802.802 0 0 0 .002 1.604m0 0" style="stroke:none;fill-rule:nonzero;fill:rgb(3.529412%,4.313726%,4.313726%);fill-opacity:1"/></svg>