<svg role="img" viewBox="0 0 36.274 32" xmlns="http://www.w3.org/2000/svg"><path d="M8.86.73.776 5.395v21.289l8.082 4.664v-4.043l-4.664-2.64V7.414L8.86 4.77Zm0 0" style="stroke:none;fill-rule:evenodd;fill:rgb(36.078432%,52.156866%,87.058824%);fill-opacity:1"/><path d="M.777 9.434v13.21l3.418 2.02V7.414Zm0 0 3.418-.778V7.414Zm0 0" style="stroke:none;fill-rule:evenodd;fill:rgb(20%,40.392157%,83.92157%);fill-opacity:1"/><path d="M27.508.73v4.04l4.664 2.644v17.25l-4.664 2.64v4.044l8.082-4.664V5.394Zm0 0" style="stroke:none;fill-rule:evenodd;fill:rgb(36.078432%,52.156866%,87.058824%);fill-opacity:1"/><path d="m32.172 24.664 3.418-2.02V9.435l-3.418-2.02Zm0-16.008 3.418.778-3.418-2.02Zm0 14.922v1.086l3.418-2.02Zm0 0" style="stroke:none;fill-rule:evenodd;fill:rgb(20%,40.392157%,83.92157%);fill-opacity:1"/><path d="M18.184 5.547 13.52 8.035l4.664 2.488 4.664-2.488Zm0 0" style="stroke:none;fill-rule:evenodd;fill:rgb(36.078432%,52.156866%,87.058824%);fill-opacity:1"/><path d="m18.805 16.273 4.508-2.488V8.97l-4.508 2.484Zm-1.086-4.82L13.055 8.97v4.816l4.664 2.488Zm0 0" style="stroke:none;fill-rule:evenodd;fill:rgb(20%,40.392157%,83.92157%);fill-opacity:1"/><path d="m12.836 14.68-4.504 2.488 4.504 2.484 4.352-2.484Zm0 0" style="stroke:none;fill-rule:evenodd;fill:rgb(36.078432%,52.156866%,87.058824%);fill-opacity:1"/><path d="m13.148 25.402 4.508-2.484v-4.973l-4.508 2.485Zm-.777-4.972-4.508-2.485v4.973l4.508 2.484Zm0 0" style="stroke:none;fill-rule:evenodd;fill:rgb(20%,40.392157%,83.92157%);fill-opacity:1"/><path d="m23.652 14.68-4.504 2.488 4.504 2.484 4.508-2.484Zm0 0" style="stroke:none;fill-rule:evenodd;fill:rgb(36.078432%,52.156866%,87.058824%);fill-opacity:1"/><path d="m24.121 25.402 4.508-2.484v-4.973L24.12 20.43Zm-.933-4.972-4.508-2.485v4.973l4.508 2.484Zm0 0" style="stroke:none;fill-rule:evenodd;fill:rgb(20%,40.392157%,83.92157%);fill-opacity:1"/></svg>