<svg role="img" viewBox="-.5 -.5 78 78" xmlns="http://www.w3.org/2000/svg"><path d="M6.42 71.79h15.51c.98 0 1.77-.79 1.77-1.76V35.9c0-.98-.79-1.77-1.77-1.77H6.42c-.98 0-1.77.79-1.77 1.77v34.13c0 .97.79 1.76 1.77 1.76m1.77-3.53v-30.6h11.98v30.6Zm23.05 3.53h15.52c.97 0 1.76-.79 1.76-1.76V43.65c0-.97-.79-1.76-1.76-1.76H31.24c-.97 0-1.76.79-1.76 1.76v26.38c0 .97.79 1.76 1.76 1.76m1.77-3.53V45.42h11.98v22.84ZM.21 78h77.58v-3.53H.21Zm63.61-52.75c6.96 0 12.63-5.66 12.63-12.63C76.45 5.66 70.78 0 63.82 0 56.86 0 51.2 5.66 51.2 12.62c0 6.97 5.66 12.63 12.62 12.63m0-21.72c5.02 0 9.1 4.08 9.1 9.09 0 5.02-4.08 9.1-9.1 9.1-5.01 0-9.09-4.08-9.09-9.1 0-5.01 4.08-9.09 9.09-9.09m7 23.76c-4.41 2.1-9.6 2.1-14 0-.54-.26-1.18-.22-1.7.1-.51.32-.82.89-.82 1.49v41.15c0 .97.79 1.76 1.76 1.76h15.52c.97 0 1.76-.79 1.76-1.76V28.88c0-.6-.31-1.17-.82-1.49-.51-.32-1.16-.36-1.7-.1m-1.01 40.97H57.83V31.48c3.86 1.23 8.12 1.23 11.98 0Z" fill="#e7157b" pointer-events="all"/></svg>