<?xml version="1.0" encoding="UTF-8"?>
<svg xmlns="http://www.w3.org/2000/svg" xmlns:xlink="http://www.w3.org/1999/xlink" width="32" height="32" viewBox="0 0 32 32" version="1.1">
<g id="surface1">
<path style=" stroke:none;fill-rule:nonzero;fill:rgb(90.588236%,8.235294%,48.235294%);fill-opacity:1;" d="M 0.203125 0.203125 L 31.796875 0.203125 L 31.796875 31.796875 L 0.203125 31.796875 Z M 0.203125 0.203125 "/>
<path style=" stroke:none;fill-rule:nonzero;fill:rgb(100%,100%,100%);fill-opacity:1;" d="M 11 17.632812 L 12.335938 16.320312 C 12.414062 16.238281 12.464844 16.125 12.464844 16.007812 C 12.464844 15.890625 12.414062 15.78125 12.335938 15.695312 L 11.003906 14.367188 L 10.378906 14.988281 L 10.945312 15.558594 L 8.917969 15.558594 L 8.917969 16.441406 L 10.953125 16.441406 L 10.378906 17.007812 Z M 21.148438 17.671875 L 22.921875 16.351562 C 23.03125 16.265625 23.101562 16.136719 23.101562 16 C 23.101562 15.863281 23.03125 15.730469 22.921875 15.648438 L 21.148438 14.328125 L 20.617188 15.03125 L 21.328125 15.558594 L 19.550781 15.558594 L 19.550781 16.441406 L 21.328125 16.441406 L 20.617188 16.96875 Z M 13.878906 16 C 13.878906 16.9375 13.714844 17.816406 13.414062 18.585938 C 14.210938 18.277344 15.109375 18.121094 16.007812 18.121094 C 16.90625 18.121094 17.804688 18.277344 18.605469 18.585938 C 18.300781 17.816406 18.140625 16.9375 18.140625 16 C 18.140625 15.0625 18.300781 14.183594 18.605469 13.414062 C 17.007812 14.027344 15.007812 14.027344 13.414062 13.414062 C 13.714844 14.183594 13.878906 15.0625 13.878906 16 M 11.707031 20.273438 C 11.625 20.191406 11.578125 20.078125 11.578125 19.960938 C 11.578125 19.851562 11.621094 19.738281 11.707031 19.648438 C 12.511719 18.851562 12.992188 17.488281 12.992188 16 C 12.992188 14.511719 12.511719 13.148438 11.707031 12.351562 C 11.621094 12.261719 11.578125 12.148438 11.578125 12.039062 C 11.578125 11.925781 11.621094 11.8125 11.707031 11.726562 C 11.878906 11.550781 12.160156 11.550781 12.335938 11.726562 C 14.050781 13.433594 17.964844 13.433594 19.683594 11.726562 C 19.855469 11.550781 20.136719 11.550781 20.308594 11.726562 C 20.394531 11.8125 20.441406 11.925781 20.441406 12.039062 C 20.441406 12.148438 20.394531 12.261719 20.308594 12.351562 C 19.503906 13.148438 19.027344 14.511719 19.027344 16 C 19.027344 17.488281 19.503906 18.851562 20.308594 19.648438 C 20.394531 19.738281 20.441406 19.851562 20.441406 19.960938 C 20.441406 20.207031 20.242188 20.402344 19.996094 20.402344 C 19.882812 20.402344 19.769531 20.359375 19.683594 20.273438 C 17.964844 18.566406 14.050781 18.566406 12.335938 20.273438 C 12.160156 20.449219 11.878906 20.449219 11.707031 20.273438 M 27.515625 16.003906 C 27.515625 15.589844 27.355469 15.207031 27.0625 14.914062 C 26.773438 14.625 26.378906 14.464844 25.96875 14.464844 C 25.570312 14.464844 25.179688 14.613281 24.875 14.914062 C 24.585938 15.203125 24.421875 15.59375 24.421875 16.003906 C 24.421875 16.410156 24.585938 16.800781 24.875 17.089844 C 25.480469 17.6875 26.457031 17.6875 27.0625 17.089844 C 27.355469 16.796875 27.515625 16.414062 27.515625 16.003906 M 27.691406 17.710938 C 27.234375 18.164062 26.613281 18.421875 25.96875 18.417969 C 25.34375 18.417969 24.726562 18.183594 24.246094 17.710938 C 23.792969 17.257812 23.535156 16.644531 23.535156 16.003906 C 23.535156 15.359375 23.792969 14.746094 24.246094 14.292969 C 25.199219 13.351562 26.742188 13.351562 27.691406 14.292969 C 28.144531 14.746094 28.402344 15.359375 28.402344 16.003906 C 28.402344 16.644531 28.144531 17.257812 27.691406 17.710938 M 7.574219 16.011719 C 7.574219 15.601562 7.417969 15.214844 7.121094 14.925781 C 6.832031 14.636719 6.441406 14.476562 6.03125 14.476562 C 5.617188 14.476562 5.230469 14.636719 4.9375 14.925781 C 4.648438 15.214844 4.484375 15.605469 4.484375 16.011719 C 4.484375 16.421875 4.648438 16.8125 4.9375 17.097656 C 5.519531 17.675781 6.539062 17.675781 7.121094 17.097656 C 7.417969 16.804688 7.574219 16.421875 7.574219 16.011719 M 7.75 17.722656 C 7.292969 18.175781 6.675781 18.425781 6.03125 18.425781 C 5.40625 18.425781 4.785156 18.191406 4.308594 17.722656 C 3.855469 17.269531 3.597656 16.652344 3.597656 16.011719 C 3.597656 15.371094 3.855469 14.753906 4.308594 14.304688 C 5.257812 13.359375 6.800781 13.359375 7.75 14.304688 C 8.203125 14.753906 8.460938 15.371094 8.460938 16.011719 C 8.460938 16.652344 8.203125 17.269531 7.75 17.722656 M 22.597656 22.578125 C 20.828125 24.335938 18.476562 25.304688 15.972656 25.304688 C 13.46875 25.304688 11.117188 24.335938 9.347656 22.578125 C 8.132812 21.375 7.464844 19.933594 7.121094 18.9375 L 6.28125 19.226562 C 6.660156 20.308594 7.386719 21.878906 8.722656 23.203125 C 10.65625 25.125 13.234375 26.1875 15.972656 26.1875 C 18.714844 26.1875 21.285156 25.125 23.222656 23.203125 C 24.34375 22.09375 25.234375 20.679688 25.734375 19.222656 L 24.894531 18.941406 C 24.4375 20.269531 23.625 21.5625 22.597656 22.578125 M 7.121094 13.0625 L 6.28125 12.773438 C 6.820312 11.242188 7.6875 9.828125 8.726562 8.792969 C 10.660156 6.875 13.234375 5.8125 15.972656 5.8125 C 18.710938 5.8125 21.285156 6.875 23.222656 8.792969 C 24.3125 9.878906 25.230469 11.328125 25.734375 12.773438 L 24.894531 13.0625 C 24.433594 11.742188 23.59375 10.414062 22.59375 9.417969 C 20.828125 7.660156 18.476562 6.695312 15.972656 6.695312 C 13.472656 6.695312 11.117188 7.660156 9.351562 9.417969 C 8.40625 10.359375 7.613281 11.652344 7.121094 13.0625 "/>
</g>
</svg>
