<svg xmlns="http://www.w3.org/2000/svg" width="80" height="80" stroke="#000" stroke-linecap="round" stroke-linejoin="round" fill="#fff" fill-rule="evenodd"><path d="M22.7629 45.3305v-3.7927h11.0242v-3.2214h17.5067V3.0148H0V54.557h33.7871v-9.2265H22.7629zm33.5982-4.5829H36.4824V58.678L60.1211 80 80 62.0695v-3.0147zM43.0053 51.6882c-1.531-1.3881-1.5268-3.6323.0094-5.0156s4.0245-1.3834 5.5607 0 1.5405 3.6275.0095 5.0156c-.7441.6648-1.7509 1.0347-2.7982 1.0278s-2.0481-.3898-2.7814-1.0642z" fill="#4b612c" stroke="none"/><path d="M22.7629 42.3157V38.523h11.0242v-3.2213h17.5067V0H0v51.5423h33.7871v-9.2266H22.7629z" fill="#759c3e" stroke="none"/><path d="M22.7629 9.1902h22.682v3.7927h-22.682zm0 14.6603h22.682v3.7927h-22.682zM5.0344 9.8516l2.716-2.4499 5.4509 4.9168-2.7158 2.4498z" stroke="none"/><path d="M7.8319 12.3752l8.7389-7.8822 2.6587 2.3982-8.7387 7.8823zm.0101 14.4507l8.7388-7.8823 2.6587 2.3983-8.7387 7.8822zm-.0033 14.4507l8.7388-7.8823 2.6588 2.3983-8.7388 7.8822z" stroke="none"/><path d="M5.031 24.3022l2.716-2.4498 5.4511 4.9168-2.716 2.4497zm.0101 14.4629l2.716-2.4498 5.4511 4.9167-2.716 2.4498z" stroke="none"/><path d="M56.3611 37.7329H36.4824v17.9304l23.6387 21.3219L80 59.0548zM43.0053 48.6734c-1.531-1.388-1.5268-3.6322.0094-5.0156s4.0245-1.3834 5.5607 0 1.5405 3.6276.0095 5.0156c-.7441.6648-1.7509 1.0347-2.7982 1.0279s-2.0481-.3899-2.7814-1.0643z" fill="#759c3e" stroke="none"/><path d="M22.7629 38.523h11.0243v3.7927H22.7629z" stroke="none"/></svg>