<svg xmlns="http://www.w3.org/2000/svg" width="75" height="80" stroke="none" stroke-linecap="round" stroke-linejoin="round" fill="#fff" fill-rule="evenodd"><path d="M0 16.7267C0 9.4412 5.7559 3.576 12.9057 3.576h49.1886C69.2441 3.576 75 9.4412 75 16.7267v50.1226C75 74.1348 69.2441 80 62.0943 80H12.9057C5.7559 80 0 74.1348 0 66.8493z" fill="#9d5025"/><path d="M0 13.1507C0 5.8652 5.7559 0 12.9057 0h49.1886C69.2441 0 75 5.8652 75 13.1507v50.1226c0 7.2855-5.7559 13.1507-12.9057 13.1507H12.9057C5.7559 76.424 0 70.5588 0 63.2733z" fill="#f58536"/><path d="M13.6557 11.4492h47.6462v22.8839H13.6557z"/><path d="M17.2924 15.2271h11.3067v15.3281H17.2924zm14.5189 0h11.3066v15.3281H31.8113zm14.5472 0h11.3066v15.3281H46.3585z" fill="#f58536"/><path d="M13.6557 42.0909h47.6462v22.8839H13.6557z"/><path d="M17.2924 45.8688h11.3067v15.3281H17.2924zm14.5189 0h11.3066v15.3281H31.8113zm14.5472 0h11.3066v15.3281H46.3585z" fill="#f58536"/></svg>