<svg xmlns="http://www.w3.org/2000/svg" width="81" height="81" stroke="none" stroke-linecap="round" stroke-linejoin="round" fill="#fff" fill-rule="evenodd"><path d="M40.6992 3.4481c.3502-.0061.6927.1023.9747.3083 4.238 4.6803 8.3631 6.2357 12.1068 6.2357 7.5154 0 24.3546 5.2548 24.6371 4.9325v3.5172c-.2966.3504-6.0462 7.0064-5.7213 14.8536.1837 4.6663 2.5145 7.8192 4.4781 11.2103C77.9517 45.8369 80 49.6624 80 49.6624v3.3911a15.826 15.826 0 0 1-.339 3.2089c-3.8566 18.8051-22.3769 11.2102-37.3796 23.4294-.1968.1827-.4515.2917-.7205.3083-.2243-.0039-.4316-.1198-.551-.3083C31.9123 68.8039 3.8564 77.8841.3811 56.2624.1573 55.0177.0343 53.7571.0138 52.493v-3.4472s2.0344-4.5261 2.67-5.6051c1.5258-2.7045 3.1785-5.2268 3.3622-9.3465C6.3567 27.2278.6355 20.0813.3953 19.731v-3.5172c.2966.2943 19.156-6.6701 26.9541-6.6701 3.8988 0 8.2924-1.4013 12.7142-5.8013a1.02 1.02 0 0 1 .6356-.2943z" fill="#9d5025"/><path d="M40.6992.0011c.3502-.0062.6927.1021.9746.3082 4.2381 4.6802 8.3632 6.2356 12.1068 6.2356 7.5154 0 12.912-5.9693 13.1945-6.2917l11.4427 14.6995c-.2966.3503-6.0462 7.0064-5.7213 14.8535.3814 9.2064 9.0412 12.5414 6.908 22.9669-3.8567 18.8052-22.377 11.2103-37.3797 23.4294-.1966.1827-.4515.2918-.7205.3083-.2243-.0039-.4316-.1198-.551-.3083C31.8557 65.3146 3.7998 74.3949.3247 52.7731-1.5967 40.9183 5.6222 39.475 5.9754 30.5769 6.2862 23.7107.5647 16.5641.3247 16.2138L13.6462.2672c3.6707 3.52 8.5172 5.5795 13.6183 5.7873 3.899 0 8.2925-1.4013 12.7142-5.8013.1979-.1737.4564-.2642.7205-.2521z" fill="#f58536"/></svg>