<svg xmlns="http://www.w3.org/2000/svg" width="80" height="80" stroke="#000" stroke-linecap="round" stroke-linejoin="round" fill="#fff" fill-rule="evenodd"><g fill="#9d5025" stroke="none"><path d="M0 41.5783C0 20.2928 17.84 3.1566 40.0001 3.1566S80 20.2928 80 41.5783 62.16 80 40.0001 80 0 62.864 0 41.5783z"/><path d="M0 38.4217h80v3.1566H0z"/></g><path d="M0 38.4217C0 17.1362 17.84 0 40.0001 0S80 17.1362 80 38.4217 62.16 76.8434 40.0001 76.8434 0 59.7074 0 38.4217z" fill="#f58536" stroke="none"/><path d="M66.0271 57.2981l-3.1024-7.8157-6.9404 2.5505-9.9244-24.9621-2.7604-6.9065-1.2884-3.2577-2.0373-5.1009H30.654h-3.8252v8.3586h7.151l2.4842 6.2373-20.6901 35.3787h9.9903l14.7485-25.2272 10.4502 26.2751 2.4846-.909 5.6522-2.0707h0l6.9274-2.5504z" stroke="none"/></svg>