<svg role="img" viewBox="-.5 -.5 79 79" xmlns="http://www.w3.org/2000/svg"><path d="M0 0h78v78H0Z" fill="#e7157b" pointer-events="all"/><path d="M12.34 36.73c1.25 0 2.27 1.02 2.27 2.27s-1.02 2.27-2.27 2.27-2.27-1.02-2.27-2.27 1.02-2.27 2.27-2.27m27.23 29.5c-13.26 0-24.63-9.68-27.01-22.71 2.01-.1 3.67-1.5 4.15-3.39h6.97v-2.26h-6.97a4.507 4.507 0 0 0-4.15-3.39c2.37-12.83 13.97-22.71 27.01-22.71 4.89 0 10.02 1.84 15.23 5.47l1.3-1.86c-5.6-3.9-11.17-5.88-16.53-5.88-14.45 0-27.29 11.19-29.43 25.55C8.75 35.83 7.8 37.3 7.8 39c0 1.7.95 3.17 2.34 3.95C12.3 57.54 24.88 68.5 39.57 68.5c6.13 0 12.41-2.09 17.68-5.89l-1.33-1.84c-4.88 3.52-10.69 5.46-16.35 5.46M27.2 34.96c2.11.52 4.74.64 6.69.64 1.87 0 4.34-.11 6.39-.56L35.15 45.3c-.08.16-.12.33-.12.51v5.05c-.91.58-2.46 1.54-3.4 1.74v-6.79c0-.15-.03-.3-.09-.44Zm6.69-3.9c4.57 0 7.01.68 7.77 1.13-.76.45-3.2 1.14-7.77 1.14-4.56 0-7-.69-7.76-1.14.76-.45 3.2-1.13 7.76-1.13m-3.4 23.82h1.14c.04 0 .09 0 .14-.01 1.39-.18 3.16-1.25 4.7-2.24l.3-.19c.33-.21.53-.57.53-.96v-5.4l6.31-12.62c.31-.36.5-.77.5-1.27 0-2.96-6.4-3.4-10.22-3.4-3.81 0-10.21.44-10.21 3.4 0 .42.14.78.37 1.1l5.31 12.74v7.72c0 .63.5 1.13 1.13 1.13m32.9-1.13c1.25 0 2.27 1.02 2.27 2.27s-1.02 2.27-2.27 2.27-2.27-1.02-2.27-2.27 1.02-2.27 2.27-2.27m0-34.04c1.25 0 2.27 1.02 2.27 2.27s-1.02 2.27-2.27 2.27-2.27-1.02-2.27-2.27 1.02-2.27 2.27-2.27m2.27 17.02c1.25 0 2.27 1.02 2.27 2.27s-1.02 2.27-2.27 2.27-2.27-1.02-2.27-2.27 1.02-2.27 2.27-2.27m-11.34 3.4h6.97c.5 1.96 2.26 3.41 4.37 3.41 2.5 0 4.54-2.04 4.54-4.54s-2.04-4.54-4.54-4.54c-2.11 0-3.87 1.45-4.37 3.41h-6.97V23.12h4.7c.5 1.95 2.26 3.4 4.37 3.4 2.51 0 4.54-2.04 4.54-4.54s-2.03-4.54-4.54-4.54c-2.11 0-3.87 1.46-4.37 3.41h-5.84c-.63 0-1.13.51-1.13 1.13v15.89h-7.94v2.26h7.94v15.89c0 .62.5 1.13 1.13 1.13h5.84c.5 1.95 2.26 3.41 4.37 3.41 2.51 0 4.54-2.04 4.54-4.54s-2.03-4.54-4.54-4.54c-2.11 0-3.87 1.45-4.37 3.4h-4.7Z" fill="#ffffff" pointer-events="all"/></svg>