<svg role="img" viewBox="-.5 -.5 79 79" xmlns="http://www.w3.org/2000/svg"><path d="M0 0h78v78H0Z" fill="#dd344c" pointer-events="all"/><path d="M57.94 62.4c0-1.81-1.53-3.34-3.34-3.34-1.81 0-3.34 1.53-3.34 3.34 0 1.81 1.53 3.34 3.34 3.34 1.81 0 3.34-1.53 3.34-3.34M39 61.29c-1.81 0-3.34 1.53-3.34 3.34 0 1.81 1.53 3.34 3.34 3.34 1.81 0 3.34-1.53 3.34-3.34 0-1.81-1.53-3.34-3.34-3.34m-15.6-2.23c-1.81 0-3.34 1.53-3.34 3.34 0 1.81 1.53 3.34 3.34 3.34 1.81 0 3.34-1.53 3.34-3.34 0-1.81-1.53-3.34-3.34-3.34m2.9-16.72h25.4l-8.53-7.67-3.45 2.95c-.2.18-.46.26-.72.26-.26 0-.52-.08-.73-.26l-3.44-2.95Zm-1.79-16.52v15.14l8.62-7.76Zm27.08-1.31H26.41L39 35.3Zm1.9 16.45V25.82l-8.62 7.38Zm6.68 21.44c0 3.02-2.55 5.57-5.57 5.57-3.02 0-5.57-2.55-5.57-5.57 0-2.64 1.95-4.92 4.46-5.45v-3.46H40.11v5.69c2.51.53 4.46 2.81 4.46 5.45 0 3.02-2.55 5.57-5.57 5.57-3.02 0-5.57-2.55-5.57-5.57 0-2.64 1.95-4.92 4.46-5.45v-5.69H24.51v3.46c2.51.53 4.46 2.81 4.46 5.45 0 3.02-2.55 5.57-5.57 5.57-3.02 0-5.57-2.55-5.57-5.57 0-2.64 1.95-4.92 4.46-5.45v-4.58c0-.61.49-1.11 1.11-1.11h14.49v-6.69H23.4c-.62 0-1.11-.5-1.11-1.11V23.4c0-.62.49-1.12 1.11-1.12h31.2c.62 0 1.11.5 1.11 1.12v20.06c0 .61-.49 1.11-1.11 1.11H40.11v6.69H54.6c.62 0 1.11.5 1.11 1.11v4.58c2.51.53 4.46 2.81 4.46 5.45M70.2 39c0 6.58-2.03 12.88-5.88 18.21l-1.8-1.3c3.56-4.95 5.45-10.8 5.45-16.91 0-15.97-12.99-28.97-28.97-28.97-15.97 0-28.97 13-28.97 28.97 0 6.11 1.89 11.96 5.45 16.91l-1.8 1.3C9.83 51.88 7.8 45.58 7.8 39c0-17.2 14-31.2 31.2-31.2s31.2 14 31.2 31.2" fill="#ffffff" pointer-events="all"/></svg>