<svg xmlns="http://www.w3.org/2000/svg" width="32" height="37" stroke="#000" stroke-linecap="round" stroke-linejoin="round" fill="#fff" fill-rule="evenodd"><defs><linearGradient id="A" spreadMethod="pad" y2="-3.70%" x2="5.90%" y1="97.43%" x1="85.47%"><stop offset="0%" stop-color="#4f66b9"/><stop offset="1%" stop-color="#484fab"/></linearGradient><linearGradient id="B" spreadMethod="pad" y2="-3.45%" x2="14.49%" y1="94.28%" x1="110.58%"><stop offset="0%" stop-color="#4f66b9"/><stop offset="1%" stop-color="#484fab"/></linearGradient><linearGradient id="C" spreadMethod="pad" y2="17.57%" x2="11.69%" y1="94.54%" x1="63.02%"><stop offset="0%" stop-color="#4c68bb"/><stop offset="1%" stop-color="#5180c9"/></linearGradient></defs><g stroke="none" fill-rule="nonzero"><path d="M12.5855 12.3608h1.4785v4.3608l4.2574-4.3608h1.9518l-4.6715 4.8046 4.9668 5.544h-1.892l-4.6125-5.1742v5.1742h-1.4784V12.3608" fill="url(#A)"/><path d="M17.2166 8.2539l7.2814 4.2038c.1241.0719.2005.2044.2006.3478v8.4079c0 .1433.0771.276.2011.3477l6.4978 3.7517c.2678.1548.6025-.0391.6025-.3477V8.5898c0-.1434-.0765-.2759-.2002-.3478L17.6189.0546c-.2678-.1545-.603.0392-.603.3483v7.5033c0 .1436.0767.2758.2011.3477" fill="url(#B)"/><path d="M23.482 23.3207l-7.2814 4.2039a.401.401 0 0 1-.4016 0l-8.2974-4.7905a.403.403 0 0 1-.2011-.3482v-9.5812c.0003-.1435.0769-.276.2012-.3478l7.2814-4.2036c.1242-.0716.2009-.2041.2009-.3475V.4024c0-.3091-.3349-.5024-.6027-.3483L.2002 8.242C.0761 8.3139 0 8.4464 0 8.5898v18.012a.404.404 0 0 0 .2002.3483l15.5988 9.0054c.1241.072.2775.072.4016 0l14.1809-8.1871c.2679-.1547.2679-.5413 0-.6959l-6.4977-3.7518a.401.401 0 0 0-.4018 0" fill="url(#C)"/></g></svg>