<?xml version="1.0" encoding="UTF-8"?>
<svg xmlns="http://www.w3.org/2000/svg" xmlns:xlink="http://www.w3.org/1999/xlink" width="32" height="32" viewBox="0 0 32 32" version="1.1">
<g id="surface1">
<path style=" stroke:none;fill-rule:nonzero;fill:rgb(90.588236%,8.235294%,48.235294%);fill-opacity:1;" d="M 2.839844 29.65625 L 9.203125 29.65625 C 9.605469 29.65625 9.929688 29.332031 9.929688 28.933594 L 9.929688 14.933594 C 9.929688 14.53125 9.605469 14.207031 9.203125 14.207031 L 2.839844 14.207031 C 2.4375 14.207031 2.113281 14.53125 2.113281 14.933594 L 2.113281 28.933594 C 2.113281 29.332031 2.4375 29.65625 2.839844 29.65625 M 3.566406 28.210938 L 3.566406 15.65625 L 8.480469 15.65625 L 8.480469 28.210938 Z M 13.023438 29.65625 L 19.390625 29.65625 C 19.785156 29.65625 20.109375 29.332031 20.109375 28.933594 L 20.109375 18.113281 C 20.109375 17.714844 19.785156 17.390625 19.390625 17.390625 L 13.023438 17.390625 C 12.625 17.390625 12.300781 17.714844 12.300781 18.113281 L 12.300781 28.933594 C 12.300781 29.332031 12.625 29.65625 13.023438 29.65625 M 13.746094 28.210938 L 13.746094 18.839844 L 18.664062 18.839844 L 18.664062 28.210938 Z M 0.292969 32.207031 L 32.117188 32.207031 L 32.117188 30.757812 L 0.292969 30.757812 Z M 26.386719 10.5625 C 29.242188 10.5625 31.570312 8.242188 31.570312 5.382812 C 31.570312 2.527344 29.242188 0.207031 26.386719 0.207031 C 23.53125 0.207031 21.210938 2.527344 21.210938 5.382812 C 21.210938 8.242188 23.53125 10.5625 26.386719 10.5625 M 26.386719 1.652344 C 28.445312 1.652344 30.121094 3.328125 30.121094 5.382812 C 30.121094 7.441406 28.445312 9.117188 26.386719 9.117188 C 24.332031 9.117188 22.660156 7.441406 22.660156 5.382812 C 22.660156 3.328125 24.332031 1.652344 26.386719 1.652344 M 29.257812 11.402344 C 27.449219 12.261719 25.320312 12.261719 23.515625 11.402344 C 23.292969 11.292969 23.03125 11.3125 22.820312 11.441406 C 22.609375 11.574219 22.480469 11.808594 22.480469 12.054688 L 22.480469 28.933594 C 22.480469 29.332031 22.804688 29.65625 23.203125 29.65625 L 29.570312 29.65625 C 29.96875 29.65625 30.292969 29.332031 30.292969 28.933594 L 30.292969 12.054688 C 30.292969 11.808594 30.167969 11.574219 29.957031 11.441406 C 29.746094 11.3125 29.480469 11.292969 29.257812 11.402344 M 28.84375 28.210938 L 23.929688 28.210938 L 23.929688 13.121094 C 25.515625 13.625 27.261719 13.625 28.84375 13.121094 Z M 28.84375 28.210938 "/>
</g>
</svg>
