<svg role="img" viewBox="0 0 32 32" xmlns="http://www.w3.org/2000/svg" xmlns:xlink="http://www.w3.org/1999/xlink"><defs><linearGradient gradientTransform="scale(32)" gradientUnits="userSpaceOnUse" id="a" x1="0" x2="1" y1="1" y2="0"><stop offset="0" style="stop-color:rgb(74.117649%,3.137255%,8.627451%);stop-opacity:1"/><stop offset="1" style="stop-color:rgb(100%,32.156864%,32.156864%);stop-opacity:1"/></linearGradient></defs><path d="M0 0h32v32H0z" style="fill:url(#a);stroke:none"/><path d="M22.121 16.879a157.863 157.863 0 0 0-1.973-1.5c.622-1.086 1.325-2.29 1.68-2.645 1.082.782 3.64 5.368 4.102 6.934-.844-.516-2.52-1.8-3.809-2.79m-6.18 3.118c-.238-.187-.66-.777-1.136-1.523.101-.16.21-.332.324-.516.691-1.094 1.828-2.895 2.277-3.238.262.105.797.465 1.446.93-.864 1.519-2.32 4.062-2.91 4.347m-3.165-.297c-.273-.355-.695-1.113-.972-1.601-.813-1.45-1.09-1.91-1.563-1.926h-.02c-.367 0-.738.305-2.202 1.629-.446.402-1.06.957-1.57 1.379.91-1.836 2.937-5.367 3.745-6.47.387.567 1.07 1.75 1.645 2.743.73 1.258 1.312 2.246 1.789 3.016-.328.504-.64.972-.852 1.23m13.649-1.527c-.531-1.184-1.41-2.746-2.293-4.074-1.598-2.403-2.07-2.403-2.324-2.403-.606 0-1.141.774-2.47 3.094-1.081-.777-1.609-1.062-1.944-1.074h-.024c-.644 0-1.281.855-3.094 3.726-.02.032-.035.063-.054.094-.536-.879-1.082-1.824-1.512-2.566-1.828-3.16-2.04-3.453-2.484-3.469-.32-.008-.582-.02-2.637 3.512-.942 1.617-2.059 3.675-2.438 4.625-.12.3-.285.71.035.984.567.48 1.32-.121 3.512-2.098.485-.437 1.11-1.007 1.453-1.265.211.3.543.89.778 1.312.93 1.657 1.3 2.239 1.836 2.25.355.016.68-.273 1.449-1.433C15.055 20.645 15.48 21 15.89 21h.007c.938-.012 1.926-1.531 3.758-4.754.621.461 1.274.961 1.848 1.402 4.195 3.223 4.789 3.563 5.289 3.032.363-.39.258-1.117-.367-2.508" style="stroke:none;fill-rule:evenodd;fill:rgb(100%,100%,100%);fill-opacity:1"/></svg>