<svg role="img" viewBox="0 0 32 32" xmlns="http://www.w3.org/2000/svg" xmlns:xlink="http://www.w3.org/1999/xlink"><defs><linearGradient gradientTransform="scale(32)" gradientUnits="userSpaceOnUse" id="a" x1="0" x2="1" y1="1" y2="0"><stop offset="0" style="stop-color:rgb(78.431374%,31.764707%,10.588235%);stop-opacity:1"/><stop offset="1" style="stop-color:rgb(100%,60.000002%,0%);stop-opacity:1"/></linearGradient></defs><path d="M0 0h32v32H0z" style="fill:url(#a);stroke:none"/><path d="M15.363 14.96a.733.733 0 0 0-.363.634v10.172L7.5 21.43v-9.926l8.586-4.965 7.457 3.691Zm9.489-4.75c0-.26-.137-.5-.391-.644l-8.02-3.968a.73.73 0 0 0-.726 0l-8.852 5.117a.743.743 0 0 0-.363.633v10.238c0 .258.14.5.363.633l8.043 4.652a.718.718 0 0 0 .367.098.733.733 0 0 0 .727-.73V15.75l8.488-4.91a.723.723 0 0 0 .364-.63M25 21.47l-6.496 4.297v-3.563l3.297-2.496A.5.5 0 0 0 22 19.31v-4.07l3-1.735Zm.637-9.07a.73.73 0 0 0-.727 0l-3.469 2.007c-.12.067-.441.239-.441.61v4.043l-3.168 2.398a.73.73 0 0 0-.328.61v4.206c0 .258.137.5.363.633.11.063.23.094.356.094.132 0 .27-.035.398-.11l7.016-4.64a.743.743 0 0 0 .363-.633v-8.586a.733.733 0 0 0-.363-.633m0 0" style="stroke:none;fill-rule:evenodd;fill:rgb(100%,100%,100%);fill-opacity:1"/></svg>