<svg role="img" viewBox="0 0 32 32" xmlns="http://www.w3.org/2000/svg"><path d="M0 16.633C0 8.117 7.137 1.262 16 1.262s16 6.855 16 15.37C32 25.146 24.863 32 16 32S0 25.145 0 16.633m0-1.266h32v1.266H0Zm0 0" style="stroke:none;fill-rule:evenodd;fill:rgb(61.56863%,31.37255%,14.509805%);fill-opacity:1"/><path d="M0 15.367C0 6.855 7.137 0 16 0s16 6.855 16 15.367c0 8.516-7.137 15.371-16 15.371S0 23.883 0 15.368m0 0" style="stroke:none;fill-rule:evenodd;fill:rgb(96.078432%,52.156866%,21.176471%);fill-opacity:1"/><path d="m26.41 22.918-1.242-3.125-2.773 1.02-3.97-9.985-1.105-2.762-.515-1.304-.817-2.04H10.73v3.344h2.864l.992 2.496-8.277 14.149h3.996l5.902-10.09 4.18 10.512.992-.363 2.262-.832Zm0 0" style="stroke:none;fill-rule:evenodd;fill:rgb(100%,100%,100%);fill-opacity:1"/></svg>