<svg role="img" viewBox="-.5 -.5 79 79" xmlns="http://www.w3.org/2000/svg"><path d="M0 0h78v78H0Z" fill="#e7157b" pointer-events="all"/><path d="m26.66 43.03 3.29-3.24c.2-.2.32-.48.32-.77 0-.29-.12-.56-.32-.77l-3.28-3.28-1.55 1.53 1.4 1.41h-5v2.18h5.02l-1.42 1.4Zm25.05.1 4.38-3.26c.27-.21.44-.53.44-.87 0-.34-.17-.67-.44-.87l-4.38-3.26-1.31 1.74 1.75 1.3h-4.38v2.18h4.38l-1.75 1.3ZM33.76 39c0 2.31-.4 4.48-1.14 6.38 1.96-.76 4.18-1.14 6.4-1.14 2.22 0 4.44.38 6.41 1.14-.75-1.9-1.15-4.07-1.15-6.38 0-2.31.4-4.48 1.15-6.38-3.94 1.51-8.88 1.51-12.81 0 .74 1.9 1.14 4.07 1.14 6.38M28.4 49.55a1.09 1.09 0 0 1-.32-.77c0-.27.11-.55.32-.77 1.99-1.97 3.17-5.34 3.17-9.01s-1.18-7.04-3.17-9.01c-.21-.22-.32-.5-.32-.77 0-.28.11-.56.32-.77.43-.43 1.12-.43 1.55 0 4.24 4.21 13.9 4.21 18.14 0 .43-.43 1.12-.43 1.55 0 .21.21.32.49.32.77 0 .27-.11.55-.32.77-1.99 1.97-3.17 5.34-3.17 9.01s1.18 7.04 3.17 9.01c.21.22.32.5.32.77a1.09 1.09 0 0 1-1.09 1.09c-.28 0-.56-.11-.78-.32-4.24-4.21-13.9-4.21-18.14 0-.43.43-1.12.43-1.55 0m39.03-10.54c0-1.02-.4-1.97-1.12-2.69a3.807 3.807 0 0 0-2.7-1.11c-.98 0-1.95.37-2.7 1.11a3.784 3.784 0 0 0 0 5.37 3.839 3.839 0 0 0 5.4 0c.72-.72 1.12-1.67 1.12-2.68m.43 4.21a5.987 5.987 0 0 1-4.25 1.75c-1.54 0-3.07-.58-4.25-1.75a5.94 5.94 0 0 1 0-8.43c2.35-2.33 6.16-2.33 8.5 0a5.94 5.94 0 0 1 0 8.43M18.2 39.03c0-1.01-.39-1.97-1.12-2.68a3.765 3.765 0 0 0-2.69-1.11c-1.02 0-1.98.39-2.7 1.11a3.769 3.769 0 0 0 0 5.36c1.44 1.43 3.95 1.43 5.39 0 .73-.72 1.12-1.67 1.12-2.68m.43 4.22a6.013 6.013 0 0 1-4.24 1.74c-1.54 0-3.08-.58-4.25-1.74a5.951 5.951 0 0 1 0-8.44c2.34-2.33 6.15-2.33 8.49 0a5.951 5.951 0 0 1 0 8.44m36.66 11.99c-4.37 4.34-10.18 6.73-16.36 6.73s-11.98-2.39-16.35-6.73c-3-2.97-4.65-6.53-5.5-8.99l-2.07.72c.93 2.67 2.73 6.54 6.02 9.81 4.78 4.75 11.14 7.37 17.9 7.37 6.77 0 13.12-2.62 17.9-7.37 2.77-2.74 4.97-6.23 6.2-9.82l-2.07-.7c-1.13 3.28-3.14 6.47-5.67 8.98M17.08 31.75l-2.07-.72c1.33-3.78 3.47-7.27 6.03-9.82 4.78-4.74 11.13-7.36 17.89-7.36s13.12 2.62 17.9 7.36c2.69 2.68 4.96 6.26 6.2 9.82l-2.07.72c-1.14-3.26-3.21-6.54-5.68-9-4.36-4.34-10.17-6.72-16.35-6.72-6.17 0-11.98 2.38-16.34 6.72-2.34 2.32-4.29 5.52-5.51 9" fill="#ffffff" pointer-events="all"/></svg>