<svg xmlns="http://www.w3.org/2000/svg" width="80" height="80" stroke="none" stroke-linecap="round" stroke-linejoin="round" fill="#fff" fill-rule="evenodd"><path d="M0 41.5782C0 20.2926 17.84 3.1565 40 3.1565s40 17.1361 40 38.4217S62.16 80 40 80 0 62.8639 0 41.5782z" fill="#9d5025"/><path d="M0 38.4217C0 17.1361 17.84 0 40 0s40 17.1361 40 38.4217-17.84 38.4218-40 38.4218S0 59.7074 0 38.4217z" fill="#f58536"/><path d="M51.6727 7.3862v13.9521H28.3273V7.3862zm18.0611 40.3791v11.3636H57.9034V47.7653zm-14.959 0v11.3636H42.9444V47.7653zm-18.2056 0v11.3636H24.7388V47.7653zm-14.959 0v11.3636H9.7798V47.7653z"/><path d="M14.6303 37.9292h2.1295v11.149h-2.1295z"/><path d="M14.6303 37.9292h17.0884v2.0455H14.6303z"/><path d="M29.5892 37.9292h2.1295v11.149h-2.1295zm18.2057 0h2.1295v11.149h-2.1295z"/><path d="M47.7949 37.9292h17.0884v2.0455H47.7949z"/><path d="M62.7539 37.9292h2.1295v11.149h-2.1295zm-40.631-7.9544h2.1295v8.9772h-2.1295zm16.8124-10.6944h2.1295v10.8584h-2.1295z"/><path d="M22.1229 29.1161h35.3204v2.0455H22.1229z"/><path d="M55.3139 29.9748h2.1295v8.9772h-2.1295z"/></svg>