<?xml version="1.0" encoding="UTF-8"?>
<svg xmlns="http://www.w3.org/2000/svg" xmlns:xlink="http://www.w3.org/1999/xlink" width="30" height="32" viewBox="0 0 30 32" version="1.1">
<g id="surface1">
<path style=" stroke:none;fill-rule:evenodd;fill:rgb(61.56863%,31.37255%,14.509805%);fill-opacity:1;" d="M 0 6.691406 C 0 3.777344 2.300781 1.429688 5.164062 1.429688 L 24.835938 1.429688 C 27.699219 1.429688 30 3.777344 30 6.691406 L 30 26.738281 C 30 29.652344 27.699219 32 24.835938 32 L 5.164062 32 C 2.300781 32 0 29.652344 0 26.738281 Z M 0 6.691406 "/>
<path style=" stroke:none;fill-rule:evenodd;fill:rgb(96.078432%,52.156866%,21.176471%);fill-opacity:1;" d="M 0 5.261719 C 0 2.347656 2.300781 0 5.164062 0 L 24.835938 0 C 27.699219 0 30 2.347656 30 5.261719 L 30 25.308594 C 30 28.222656 27.699219 30.570312 24.835938 30.570312 L 5.164062 30.570312 C 2.300781 30.570312 0 28.222656 0 25.308594 Z M 0 5.261719 "/>
<path style=" stroke:none;fill-rule:evenodd;fill:rgb(100%,100%,100%);fill-opacity:1;" d="M 5.460938 4.578125 L 24.519531 4.578125 L 24.519531 13.734375 L 5.460938 13.734375 Z M 5.460938 4.578125 "/>
<path style=" stroke:none;fill-rule:evenodd;fill:rgb(96.078432%,52.156866%,21.176471%);fill-opacity:1;" d="M 6.917969 6.089844 L 11.441406 6.089844 L 11.441406 12.222656 L 6.917969 12.222656 Z M 12.722656 6.089844 L 17.246094 6.089844 L 17.246094 12.222656 L 12.722656 12.222656 Z M 18.542969 6.089844 L 23.066406 6.089844 L 23.066406 12.222656 L 18.542969 12.222656 Z M 18.542969 6.089844 "/>
<path style=" stroke:none;fill-rule:evenodd;fill:rgb(100%,100%,100%);fill-opacity:1;" d="M 5.460938 16.835938 L 24.519531 16.835938 L 24.519531 25.988281 L 5.460938 25.988281 Z M 5.460938 16.835938 "/>
<path style=" stroke:none;fill-rule:evenodd;fill:rgb(96.078432%,52.156866%,21.176471%);fill-opacity:1;" d="M 6.917969 18.347656 L 11.441406 18.347656 L 11.441406 24.480469 L 6.917969 24.480469 Z M 12.722656 18.347656 L 17.246094 18.347656 L 17.246094 24.480469 L 12.722656 24.480469 Z M 18.542969 18.347656 L 23.066406 18.347656 L 23.066406 24.480469 L 18.542969 24.480469 Z M 18.542969 18.347656 "/>
</g>
</svg>
