<svg role="img" viewBox="0 0 32 32" xmlns="http://www.w3.org/2000/svg" xmlns:xlink="http://www.w3.org/1999/xlink"><defs><linearGradient gradientTransform="scale(32)" gradientUnits="userSpaceOnUse" id="a" x1="0" x2="1" y1="1" y2="0"><stop offset="0" style="stop-color:rgb(74.117649%,3.137255%,8.627451%);stop-opacity:1"/><stop offset="1" style="stop-color:rgb(100%,32.156864%,32.156864%);stop-opacity:1"/></linearGradient></defs><path d="M0 0h32v32H0z" style="fill:url(#a);stroke:none"/><path d="M18 17.176c-.016.941-.305 2.039-1.5 2.277v-6.539l1.5.625Zm-4-.008v-3.629l1.5-.625v6.531c-1.379-.293-1.5-1.78-1.5-2.277m1.809-5.465-2.5 1.04a.501.501 0 0 0-.309.46v3.965c0 1.539.785 3.332 3 3.332 1.844 0 2.965-1.234 3-3.316v-3.98c0-.2-.121-.384-.309-.462l-2.5-1.039a.5.5 0 0 0-.382 0M20 17.183c0 .176-.047 4.317-4 4.317-3.937 0-4-4.152-4-4.332v-4.965l4-1.66 4 1.66Zm.691-5.777-4.5-1.867a.5.5 0 0 0-.382 0l-4.5 1.867a.503.503 0 0 0-.309.465v5.297c0 1.848 1.047 5.332 5 5.332 3.953 0 5-3.477 5-5.316V11.87a.503.503 0 0 0-.309-.465M26 17.56l-1.215-.07a.507.507 0 0 0-.515.39 8.368 8.368 0 0 1-1.094 2.64.5.5 0 0 0 .09.641l.906.809-2.203 2.203-.805-.902a.497.497 0 0 0-.64-.09 8.49 8.49 0 0 1-2.645 1.097.492.492 0 0 0-.39.516l.07 1.207H14.44l.07-1.21a.497.497 0 0 0-.39-.517 8.344 8.344 0 0 1-2.644-1.097.496.496 0 0 0-.637.09l-.809.906-2.203-2.203.906-.805a.506.506 0 0 0 .09-.64 8.49 8.49 0 0 1-1.097-2.645.51.51 0 0 0-.516-.39L6 17.558V14.44l1.215.07a.52.52 0 0 0 .515-.386 8.43 8.43 0 0 1 1.098-2.64.5.5 0 0 0-.09-.641l-.91-.813 2.203-2.203.813.91c.16.184.433.219.636.09a8.368 8.368 0 0 1 2.641-1.094.497.497 0 0 0 .39-.515L14.442 6h3.118l-.07 1.219a.495.495 0 0 0 .39.515 8.532 8.532 0 0 1 2.637 1.094.497.497 0 0 0 .64-.09l.813-.91 2.203 2.203-.91.809a.506.506 0 0 0-.09.64 8.36 8.36 0 0 1 1.098 2.645.512.512 0 0 0 .515.387l1.215-.07Zm.844-4.008a.511.511 0 0 0-.371-.137l-1.332.074a9.377 9.377 0 0 0-.903-2.175l.996-.887a.512.512 0 0 0 .168-.36.489.489 0 0 0-.148-.367L22.3 6.746a.508.508 0 0 0-.727.02l-.89 1a9.348 9.348 0 0 0-2.172-.903l.074-1.336a.49.49 0 0 0-.137-.37.493.493 0 0 0-.363-.157h-4.172a.493.493 0 0 0-.363.156.49.49 0 0 0-.137.371l.074 1.336a9.435 9.435 0 0 0-2.175.899l-.887-.996a.508.508 0 0 0-.727-.02L6.746 9.7a.489.489 0 0 0-.148.367.512.512 0 0 0 .168.36l.996.886a9.623 9.623 0 0 0-.903 2.176l-1.332-.074a.505.505 0 0 0-.37.137.493.493 0 0 0-.157.363v4.172c0 .137.055.27.156.363a.511.511 0 0 0 .371.137l1.328-.074c.207.761.512 1.492.903 2.18l-.992.882a.504.504 0 0 0-.02.73l2.953 2.95a.48.48 0 0 0 .367.148.528.528 0 0 0 .36-.168l.883-.992a9.417 9.417 0 0 0 2.18.906l-.075 1.325a.49.49 0 0 0 .137.37.493.493 0 0 0 .363.157h4.172c.137 0 .27-.055.363-.156a.49.49 0 0 0 .137-.371l-.074-1.325a9.417 9.417 0 0 0 2.18-.906l.882.992c.094.102.223.16.36.168.14.008.273-.05.367-.148l2.953-2.95a.496.496 0 0 0-.02-.727l-.996-.886a9.238 9.238 0 0 0 .903-2.18l1.332.075a.511.511 0 0 0 .37-.137.493.493 0 0 0 .157-.363v-4.172a.493.493 0 0 0-.156-.363m0 0" style="stroke:none;fill-rule:evenodd;fill:rgb(100%,100%,100%);fill-opacity:1"/></svg>