<?xml version="1.0" encoding="UTF-8"?>
<svg xmlns="http://www.w3.org/2000/svg" xmlns:xlink="http://www.w3.org/1999/xlink" width="28" height="32" viewBox="0 0 28 32" version="1.1">
<g id="surface1">
<path style=" stroke:none;fill-rule:evenodd;fill:rgb(52.941179%,41.176471%,16.078432%);fill-opacity:1;" d="M 6.625 5.101562 L 0 15.4375 L 6.625 25.773438 L 11.914062 24.441406 L 12.175781 6.496094 Z M 6.625 5.101562 "/>
<path style=" stroke:none;fill-rule:evenodd;fill:rgb(85.09804%,65.490198%,25.490198%);fill-opacity:1;" d="M 14.019531 23.914062 L 6.625 25.773438 L 6.625 5.101562 L 14.019531 6.957031 Z M 14.019531 23.914062 "/>
<path style=" stroke:none;fill-rule:evenodd;fill:rgb(52.941179%,41.176471%,16.078432%);fill-opacity:1;" d="M 13.140625 8.644531 L 14.019531 32 L 28 25.148438 L 27.996094 7.699219 L 24.429688 8.28125 Z M 13.140625 8.644531 "/>
<path style=" stroke:none;fill-rule:evenodd;fill:rgb(52.941179%,41.176471%,16.078432%);fill-opacity:1;" d="M 18.472656 13.257812 L 22.835938 13.007812 L 27.148438 5.339844 L 16.246094 0 L 12.175781 1.746094 Z M 18.472656 13.257812 "/>
<path style=" stroke:none;fill-rule:evenodd;fill:rgb(85.09804%,65.490198%,25.490198%);fill-opacity:1;" d="M 16.246094 0 L 27.148438 5.339844 L 22.835938 13.007812 Z M 16.246094 0 "/>
<path style=" stroke:none;fill-rule:evenodd;fill:rgb(52.941179%,41.176471%,16.078432%);fill-opacity:1;" d="M 14.019531 2.214844 L 22.835938 17.898438 L 24.351562 26.933594 L 14.019531 32 L 9.835938 29.949219 L 9.835938 3.855469 L 14.015625 2.214844 Z M 14.019531 2.214844 "/>
<path style=" stroke:none;fill-rule:evenodd;fill:rgb(85.09804%,65.490198%,25.490198%);fill-opacity:1;" d="M 27.996094 7.699219 L 28 25.148438 L 14.019531 32 L 14.019531 2.214844 L 22.835938 17.898438 Z M 27.996094 7.699219 "/>
</g>
</svg>
