<?xml version="1.0" encoding="UTF-8"?>
<svg xmlns="http://www.w3.org/2000/svg" xmlns:xlink="http://www.w3.org/1999/xlink" width="28" height="32" viewBox="0 0 28 32" version="1.1">
<g id="surface1">
<path style=" stroke:none;fill-rule:evenodd;fill:rgb(52.941179%,41.176471%,16.078432%);fill-opacity:1;" d="M 0 10.375 L 0.0078125 25.375 L 14 32 L 27.992188 25.375 L 27.992188 21.628906 L 16.09375 20.226562 L 16.101562 11.773438 L 28 10.378906 L 28 6.628906 L 14 0 L 0 6.625 Z M 0 10.375 "/>
<path style=" stroke:none;fill-rule:evenodd;fill:rgb(52.941179%,41.176471%,16.078432%);fill-opacity:1;" d="M 0.0078125 21.625 L 14 25.601562 L 14 32 L 0.0078125 25.375 Z M 0.0078125 21.625 "/>
<path style=" stroke:none;fill-rule:evenodd;fill:rgb(52.941179%,41.176471%,16.078432%);fill-opacity:1;" d="M 1.785156 26.21875 L 0 25.371094 L 0 6.625 L 1.789062 5.78125 Z M 1.785156 26.21875 "/>
<path style=" stroke:none;fill-rule:evenodd;fill:rgb(85.09804%,65.490198%,25.490198%);fill-opacity:1;" d="M 16.101562 20.226562 L 1.785156 22.128906 L 1.789062 9.867188 L 16.101562 11.773438 Z M 28 10.378906 L 14 6.398438 L 14 0 L 28 6.628906 Z M 27.992188 21.628906 L 14 25.601562 L 14 32 L 27.992188 25.375 Z M 27.992188 21.628906 "/>
<path style=" stroke:none;fill-rule:evenodd;fill:rgb(52.941179%,41.176471%,16.078432%);fill-opacity:1;" d="M 8.84375 19.433594 L 14 20.042969 L 14 11.925781 L 8.84375 12.542969 Z M 3.648438 18.824219 L 6.996094 19.21875 L 6.996094 12.769531 L 3.648438 13.171875 Z M 3.648438 18.824219 "/>
<path style=" stroke:none;fill-rule:evenodd;fill:rgb(38.431373%,29.019609%,11.764706%);fill-opacity:1;" d="M 1.789062 9.867188 L 14 6.398438 L 28 10.378906 L 16.101562 11.773438 Z M 1.789062 9.867188 "/>
<path style=" stroke:none;fill-rule:evenodd;fill:rgb(98.039216%,84.313726%,56.862748%);fill-opacity:1;" d="M 1.785156 22.128906 L 14 25.601562 L 27.992188 21.628906 L 16.101562 20.226562 Z M 1.785156 22.128906 "/>
<path style=" stroke:none;fill-rule:evenodd;fill:rgb(85.09804%,65.490198%,25.490198%);fill-opacity:1;" d="M 27.992188 18.367188 L 14 20.042969 L 14 11.925781 L 27.992188 13.613281 Z M 27.992188 18.367188 "/>
</g>
</svg>
