<?xml version="1.0" encoding="UTF-8"?>
<svg xmlns="http://www.w3.org/2000/svg" xmlns:xlink="http://www.w3.org/1999/xlink" width="32" height="32" viewBox="0 0 32 32" version="1.1">
<g id="surface1">
<path style=" stroke:none;fill-rule:nonzero;fill:rgb(90.588236%,8.235294%,48.235294%);fill-opacity:1;" d="M 0.203125 0.203125 L 31.796875 0.203125 L 31.796875 31.796875 L 0.203125 31.796875 Z M 0.203125 0.203125 "/>
<path style=" stroke:none;fill-rule:nonzero;fill:rgb(100%,100%,100%);fill-opacity:1;" d="M 12.257812 7.917969 L 15.53125 6.828125 L 15.53125 17.386719 C 12.832031 17.136719 12.257812 14.789062 12.257812 14.132812 Z M 19.742188 14.132812 C 19.742188 14.789062 19.167969 17.136719 16.46875 17.386719 L 16.46875 6.828125 L 19.742188 7.917969 Z M 16 18.34375 C 19.535156 18.34375 20.679688 15.503906 20.679688 14.132812 L 20.679688 7.582031 C 20.679688 7.378906 20.550781 7.203125 20.359375 7.136719 L 16.148438 5.734375 C 16.050781 5.703125 15.949219 5.703125 15.851562 5.734375 L 11.640625 7.136719 C 11.449219 7.203125 11.320312 7.378906 11.320312 7.582031 L 11.320312 14.132812 C 11.320312 15.503906 12.464844 18.34375 16 18.34375 M 9.914062 6.53125 L 16 4.339844 L 22.085938 6.53125 L 22.085938 13.667969 C 22.085938 15.09375 21.640625 19.746094 16 19.746094 C 9.984375 19.746094 9.914062 13.914062 9.914062 13.667969 Z M 16 20.683594 C 22.679688 20.683594 23.019531 14.835938 23.019531 13.667969 L 23.019531 6.203125 C 23.019531 6.003906 22.894531 5.828125 22.707031 5.761719 L 16.15625 3.398438 C 16.054688 3.363281 15.945312 3.363281 15.84375 3.398438 L 9.292969 5.761719 C 9.105469 5.828125 8.980469 6.003906 8.980469 6.203125 L 8.980469 13.667969 C 8.980469 16.09375 10.445312 20.683594 16 20.683594 M 26.0625 24.425781 C 25.417969 24.425781 24.890625 23.902344 24.890625 23.257812 C 24.890625 22.613281 25.414062 22.089844 26.058594 22.089844 C 26.703125 22.085938 27.226562 22.609375 27.226562 23.253906 C 27.230469 23.898438 26.707031 24.425781 26.0625 24.425781 M 17.171875 26.53125 C 17.171875 27.175781 16.644531 27.703125 16 27.703125 C 15.355469 27.703125 14.828125 27.175781 14.828125 26.53125 C 14.828125 25.886719 15.355469 25.359375 16 25.359375 C 16.644531 25.359375 17.171875 25.886719 17.171875 26.53125 M 5.9375 24.425781 C 5.292969 24.425781 4.773438 23.902344 4.773438 23.257812 C 4.769531 22.785156 5.054688 22.359375 5.492188 22.175781 C 5.929688 21.996094 6.433594 22.097656 6.765625 22.429688 C 7.101562 22.765625 7.199219 23.269531 7.019531 23.703125 C 6.839844 24.140625 6.410156 24.425781 5.9375 24.425781 M 26.0625 21.152344 C 25.527344 21.152344 25.050781 21.355469 24.675781 21.683594 L 23.238281 20.242188 C 24.726562 19.003906 26 17.40625 26.921875 15.523438 L 26.078125 15.113281 C 24.003906 19.351562 20.046875 22.089844 16 22.089844 C 11.855469 22.089844 7.558594 19.21875 5.546875 15.113281 L 4.707031 15.523438 C 5.507812 17.167969 6.773438 18.8125 8.386719 20.144531 L 7.023438 21.460938 C 6.703125 21.269531 6.339844 21.152344 5.9375 21.152344 C 4.78125 21.152344 3.835938 22.097656 3.835938 23.257812 C 3.835938 24.417969 4.78125 25.359375 5.9375 25.359375 C 7.101562 25.359375 8.042969 24.417969 8.042969 23.257812 C 8.042969 22.832031 7.917969 22.4375 7.699219 22.109375 L 9.132812 20.71875 C 10.941406 22.015625 13.121094 22.898438 15.53125 23.003906 L 15.53125 24.480469 C 14.59375 24.695312 13.894531 25.53125 13.894531 26.53125 C 13.894531 27.695312 14.835938 28.636719 16 28.636719 C 17.164062 28.636719 18.105469 27.695312 18.105469 26.53125 C 18.105469 25.53125 17.40625 24.695312 16.46875 24.480469 L 16.46875 23.003906 C 18.59375 22.902344 20.675781 22.128906 22.492188 20.820312 L 24.117188 22.449219 C 24.007812 22.703125 23.953125 22.980469 23.957031 23.257812 C 23.957031 24.417969 24.898438 25.359375 26.0625 25.359375 C 27.21875 25.359375 28.164062 24.417969 28.164062 23.257812 C 28.164062 22.097656 27.21875 21.152344 26.0625 21.152344 "/>
</g>
</svg>
