<?xml version="1.0" encoding="UTF-8"?>
<svg xmlns="http://www.w3.org/2000/svg" xmlns:xlink="http://www.w3.org/1999/xlink" width="32" height="32" viewBox="0 0 32 32" version="1.1">
<g id="surface1">
<path style=" stroke:none;fill-rule:nonzero;fill:rgb(92.941177%,44.313726%,0%);fill-opacity:1;" d="M 0.203125 0.203125 L 31.796875 0.203125 L 31.796875 31.796875 L 0.203125 31.796875 Z M 0.203125 0.203125 "/>
<path style=" stroke:none;fill-rule:nonzero;fill:rgb(100%,100%,100%);fill-opacity:1;" d="M 10.128906 21.871094 L 21.414062 21.871094 L 21.414062 10.585938 L 10.128906 10.585938 Z M 22.320312 10.585938 L 24.125 10.585938 L 24.125 11.488281 L 22.320312 11.488281 L 22.320312 13.289062 L 24.125 13.289062 L 24.125 14.195312 L 22.320312 14.195312 L 22.320312 15.550781 L 24.125 15.550781 L 24.125 16.449219 L 22.320312 16.449219 L 22.320312 18.257812 L 24.125 18.257812 L 24.125 19.160156 L 22.320312 19.160156 L 22.320312 20.964844 L 24.125 20.964844 L 24.125 21.871094 L 22.320312 21.871094 L 22.320312 21.929688 C 22.320312 22.390625 21.941406 22.769531 21.476562 22.769531 L 21.414062 22.769531 L 21.414062 24.574219 L 20.511719 24.574219 L 20.511719 22.769531 L 18.710938 22.769531 L 18.710938 24.574219 L 17.804688 24.574219 L 17.804688 22.769531 L 16.449219 22.769531 L 16.449219 24.574219 L 15.550781 24.574219 L 15.550781 22.769531 L 13.742188 22.769531 L 13.742188 24.574219 L 12.839844 24.574219 L 12.839844 22.769531 L 11.035156 22.769531 L 11.035156 24.574219 L 10.128906 24.574219 L 10.128906 22.769531 L 10.070312 22.769531 C 9.609375 22.769531 9.230469 22.390625 9.230469 21.929688 L 9.230469 21.871094 L 7.875 21.871094 L 7.875 20.964844 L 9.230469 20.964844 L 9.230469 19.160156 L 7.875 19.160156 L 7.875 18.257812 L 9.230469 18.257812 L 9.230469 16.449219 L 7.875 16.449219 L 7.875 15.550781 L 9.230469 15.550781 L 9.230469 14.195312 L 7.875 14.195312 L 7.875 13.289062 L 9.230469 13.289062 L 9.230469 11.488281 L 7.875 11.488281 L 7.875 10.585938 L 9.230469 10.585938 L 9.230469 10.523438 C 9.230469 10.058594 9.609375 9.679688 10.070312 9.679688 L 10.128906 9.679688 L 10.128906 7.875 L 11.035156 7.875 L 11.035156 9.679688 L 12.839844 9.679688 L 12.839844 7.875 L 13.742188 7.875 L 13.742188 9.679688 L 15.550781 9.679688 L 15.550781 7.875 L 16.449219 7.875 L 16.449219 9.679688 L 17.804688 9.679688 L 17.804688 7.875 L 18.710938 7.875 L 18.710938 9.679688 L 20.511719 9.679688 L 20.511719 7.875 L 21.414062 7.875 L 21.414062 9.679688 L 21.476562 9.679688 C 21.941406 9.679688 22.320312 10.058594 22.320312 10.523438 Z M 16.449219 27.679688 C 16.449219 27.710938 16.425781 27.734375 16.398438 27.734375 L 4.320312 27.734375 C 4.289062 27.734375 4.265625 27.710938 4.265625 27.679688 L 4.265625 15.601562 C 4.265625 15.574219 4.289062 15.550781 4.320312 15.550781 L 6.972656 15.550781 L 6.972656 14.648438 L 4.320312 14.648438 C 3.792969 14.648438 3.363281 15.078125 3.363281 15.601562 L 3.363281 27.679688 C 3.363281 28.207031 3.792969 28.636719 4.320312 28.636719 L 16.398438 28.636719 C 16.921875 28.636719 17.351562 28.207031 17.351562 27.679688 L 17.351562 25.476562 L 16.449219 25.476562 Z M 28.636719 4.320312 L 28.636719 16.398438 C 28.636719 16.921875 28.207031 17.351562 27.679688 17.351562 L 25.027344 17.351562 L 25.027344 16.449219 L 27.679688 16.449219 C 27.710938 16.449219 27.734375 16.425781 27.734375 16.398438 L 27.734375 4.320312 C 27.734375 4.289062 27.710938 4.265625 27.679688 4.265625 L 15.601562 4.265625 C 15.574219 4.265625 15.550781 4.289062 15.550781 4.320312 L 15.550781 6.972656 L 14.648438 6.972656 L 14.648438 4.320312 C 14.648438 3.792969 15.078125 3.363281 15.601562 3.363281 L 27.679688 3.363281 C 28.207031 3.363281 28.636719 3.792969 28.636719 4.320312 "/>
</g>
</svg>
