<?xml version="1.0" encoding="UTF-8"?>
<svg xmlns="http://www.w3.org/2000/svg" xmlns:xlink="http://www.w3.org/1999/xlink" width="32" height="32" viewBox="0 0 32 32" version="1.1">
<defs>
<linearGradient id="linear0" gradientUnits="userSpaceOnUse" x1="0" y1="1" x2="1" y2="0" gradientTransform="matrix(32,0,0,32,0,0)">
<stop offset="0" style="stop-color:rgb(74.117649%,3.137255%,8.627451%);stop-opacity:1;"/>
<stop offset="1" style="stop-color:rgb(100%,32.156864%,32.156864%);stop-opacity:1;"/>
</linearGradient>
</defs>
<g id="surface1">
<rect x="0" y="0" width="32" height="32" style="fill:url(#linear0);stroke:none;"/>
<path style=" stroke:none;fill-rule:evenodd;fill:rgb(100%,100%,100%);fill-opacity:1;" d="M 15.621094 17.320312 C 15.621094 17.53125 15.789062 17.699219 16 17.699219 C 16.210938 17.699219 16.378906 17.53125 16.378906 17.320312 C 16.378906 17.21875 16.339844 17.121094 16.269531 17.050781 C 16.199219 16.980469 16.101562 16.941406 16 16.941406 C 15.898438 16.941406 15.800781 16.980469 15.730469 17.050781 C 15.660156 17.125 15.621094 17.21875 15.621094 17.320312 M 14.621094 17.320312 C 14.621094 16.558594 15.238281 15.941406 16 15.941406 C 16.761719 15.941406 17.378906 16.558594 17.378906 17.320312 C 17.378906 17.886719 17.027344 18.398438 16.5 18.601562 L 16.5 20 L 15.5 20 L 15.5 18.601562 C 14.984375 18.402344 14.621094 17.902344 14.621094 17.320312 M 19.5 15.5 L 12.5 15.5 L 12.5 20.5 L 19.5 20.5 L 19.5 19.5 L 18.5 19.5 L 18.5 18.5 L 19.5 18.5 L 19.5 17.5 L 18.5 17.5 L 18.5 16.5 L 19.5 16.5 Z M 13.5 14.5 L 18.5 14.5 L 18.5 12.5 C 18.5 12.066406 18.210938 11.570312 17.726562 11.171875 C 17.222656 10.75 16.574219 10.5 16 10.5 C 14.808594 10.5 13.5 11.546875 13.5 12.5 Z M 19.5 12.5 L 19.5 14.5 L 20 14.5 C 20.277344 14.5 20.5 14.722656 20.5 15 L 20.5 21 C 20.5 21.277344 20.277344 21.5 20 21.5 L 12 21.5 C 11.867188 21.5 11.738281 21.449219 11.644531 21.355469 C 11.550781 21.261719 11.5 21.132812 11.5 21 L 11.5 15 C 11.5 14.722656 11.722656 14.5 12 14.5 L 12.5 14.5 L 12.5 12.5 C 12.5 10.984375 14.234375 9.5 16 9.5 C 16.8125 9.5 17.675781 9.828125 18.367188 10.402344 C 19.085938 10.996094 19.5 11.761719 19.5 12.5 M 7.746094 21.976562 L 8.554688 21.386719 C 7.519531 19.960938 6.925781 18.261719 6.839844 16.5 L 8 16.5 L 8 15.5 L 6.839844 15.5 C 6.929688 13.75 7.523438 12.058594 8.554688 10.640625 L 7.746094 10.054688 C 6.59375 11.644531 5.929688 13.539062 5.839844 15.5 L 5 15.5 L 5 16.5 L 5.839844 16.5 C 5.921875 18.472656 6.585938 20.378906 7.746094 21.976562 M 21.375 23.460938 C 19.949219 24.492188 18.257812 25.085938 16.5 25.175781 L 16.5 24 L 15.5 24 L 15.5 25.175781 C 13.742188 25.085938 12.050781 24.492188 10.625 23.460938 L 10.039062 24.269531 C 11.632812 25.425781 13.53125 26.085938 15.5 26.175781 L 15.5 27 L 16.5 27 L 16.5 26.175781 C 18.464844 26.085938 20.363281 25.421875 21.960938 24.269531 Z M 10.625 8.570312 C 12.050781 7.539062 13.742188 6.941406 15.5 6.851562 L 15.5 8 L 16.5 8 L 16.5 6.851562 C 18.257812 6.941406 19.949219 7.539062 21.375 8.570312 L 21.960938 7.761719 C 20.367188 6.605469 18.46875 5.941406 16.5 5.851562 L 16.5 5 L 15.5 5 L 15.5 5.851562 C 13.53125 5.941406 11.632812 6.605469 10.039062 7.761719 Z M 26.160156 15.5 C 26.070312 13.539062 25.40625 11.644531 24.253906 10.054688 L 23.445312 10.640625 C 24.472656 12.0625 25.070312 13.75 25.160156 15.5 L 24 15.5 L 24 16.5 L 25.160156 16.5 C 25.074219 18.261719 24.480469 19.960938 23.445312 21.386719 L 24.253906 21.976562 C 25.410156 20.375 26.074219 18.472656 26.160156 16.5 L 27 16.5 L 27 15.5 Z M 22.511719 10.207031 L 25.59375 7.128906 L 24.886719 6.421875 L 21.804688 9.5 Z M 9.484375 21.820312 L 6.40625 24.902344 L 7.113281 25.609375 L 10.191406 22.527344 Z M 11.621094 10.917969 L 5.792969 5.085938 L 5.085938 5.792969 L 10.914062 11.625 Z M 21.652344 20.945312 L 26.914062 26.207031 L 26.207031 26.914062 L 20.945312 21.652344 Z M 21.652344 20.945312 "/>
</g>
</svg>
