<?xml version="1.0" encoding="UTF-8"?>
<svg xmlns="http://www.w3.org/2000/svg" xmlns:xlink="http://www.w3.org/1999/xlink" width="32" height="32" viewBox="0 0 32 32" version="1.1">
<g id="surface1">
<path style=" stroke:none;fill-rule:nonzero;fill:rgb(90.588236%,8.235294%,48.235294%);fill-opacity:1;" d="M 0.203125 0.203125 L 31.796875 0.203125 L 31.796875 31.796875 L 0.203125 31.796875 Z M 0.203125 0.203125 "/>
<path style=" stroke:none;fill-rule:nonzero;fill:rgb(100%,100%,100%);fill-opacity:1;" d="M 22.664062 19.300781 C 22.664062 17.550781 21.230469 16.125 19.464844 16.125 C 17.703125 16.125 16.261719 17.550781 16.261719 19.300781 C 16.261719 21.054688 17.703125 22.480469 19.464844 22.480469 C 21.230469 22.480469 22.664062 21.054688 22.664062 19.300781 M 23.5625 19.300781 C 23.5625 21.550781 21.722656 23.375 19.464844 23.375 C 17.203125 23.375 15.363281 21.550781 15.363281 19.300781 C 15.363281 17.058594 17.203125 15.230469 19.464844 15.230469 C 21.722656 15.230469 23.5625 17.058594 23.5625 19.300781 M 27.347656 25.441406 L 24.207031 22.632812 C 23.953125 22.988281 23.660156 23.3125 23.332031 23.597656 L 26.472656 26.410156 C 26.738281 26.648438 27.15625 26.628906 27.394531 26.363281 C 27.636719 26.097656 27.613281 25.683594 27.347656 25.441406 M 19.464844 24.183594 C 22.171875 24.183594 24.375 21.996094 24.375 19.300781 C 24.375 16.613281 22.171875 14.425781 19.464844 14.425781 C 16.757812 14.425781 14.554688 16.613281 14.554688 19.300781 C 14.554688 21.996094 16.757812 24.183594 19.464844 24.183594 M 28.066406 26.960938 C 27.757812 27.300781 27.332031 27.472656 26.910156 27.472656 C 26.535156 27.472656 26.164062 27.339844 25.867188 27.074219 L 22.605469 24.152344 C 21.699219 24.738281 20.621094 25.078125 19.464844 25.078125 C 16.257812 25.078125 13.652344 22.484375 13.652344 19.300781 C 13.652344 16.121094 16.257812 13.527344 19.464844 13.527344 C 22.667969 13.527344 25.277344 16.121094 25.277344 19.300781 C 25.277344 20.214844 25.058594 21.078125 24.671875 21.84375 L 27.949219 24.777344 C 28.585938 25.347656 28.636719 26.328125 28.066406 26.960938 M 7.523438 11.511719 C 7.523438 11.742188 7.535156 11.972656 7.5625 12.199219 C 7.578125 12.324219 7.539062 12.457031 7.453125 12.554688 C 7.382812 12.625 7.296875 12.679688 7.195312 12.695312 C 6.089844 12.976562 4.261719 13.839844 4.261719 16.421875 C 4.261719 18.371094 5.347656 19.441406 6.253906 20.007812 C 6.5625 20.195312 6.929688 20.300781 7.316406 20.304688 L 12.75 20.308594 L 12.75 21.203125 L 7.3125 21.199219 C 6.769531 21.199219 6.238281 21.050781 5.777344 20.761719 C 4.878906 20.207031 3.363281 18.90625 3.363281 16.421875 C 3.363281 13.421875 5.421875 12.316406 6.636719 11.925781 C 6.625 11.789062 6.617188 11.648438 6.617188 11.511719 C 6.617188 9.066406 8.292969 6.527344 10.507812 5.605469 C 13.101562 4.527344 15.847656 5.0625 17.851562 7.035156 C 18.476562 7.648438 18.984375 8.394531 19.378906 9.25 C 19.898438 8.816406 20.558594 8.574219 21.238281 8.574219 C 22.585938 8.574219 24.101562 9.59375 24.367188 11.8125 C 25.628906 12.097656 28.292969 13.109375 28.292969 16.453125 C 28.292969 17.789062 27.871094 18.894531 27.039062 19.734375 L 26.398438 19.105469 C 27.058594 18.441406 27.390625 17.546875 27.390625 16.453125 C 27.390625 13.527344 24.921875 12.800781 23.863281 12.621094 C 23.742188 12.601562 23.636719 12.53125 23.566406 12.433594 C 23.496094 12.339844 23.472656 12.214844 23.492188 12.101562 C 23.347656 10.285156 22.257812 9.46875 21.238281 9.46875 C 20.59375 9.46875 19.988281 9.78125 19.582031 10.324219 C 19.484375 10.457031 19.320312 10.523438 19.15625 10.503906 C 18.992188 10.480469 18.855469 10.367188 18.800781 10.210938 C 18.429688 9.195312 17.894531 8.339844 17.21875 7.671875 C 15.476562 5.960938 13.101562 5.5 10.855469 6.433594 C 8.984375 7.207031 7.523438 9.4375 7.523438 11.511719 "/>
</g>
</svg>
