<svg role="img" viewBox="-.5 -.5 79 79" xmlns="http://www.w3.org/2000/svg"><path d="M0 0h78v78H0Z" fill="#e7157b" pointer-events="all"/><path d="m29.76 19.05 8.08-2.69v26.06c-6.66-.61-8.08-6.41-8.08-8.03Zm18.48 15.34c0 1.62-1.42 7.42-8.08 8.03V16.36l8.08 2.69ZM39 44.79c8.73 0 11.55-7.01 11.55-10.4V18.22c0-.5-.32-.94-.79-1.1l-10.39-3.46c-.24-.08-.5-.08-.74 0l-10.39 3.46c-.47.16-.79.6-.79 1.1v16.17c0 3.39 2.82 10.4 11.55 10.4M23.98 15.62 39 10.21l15.02 5.41v17.62c0 3.52-1.09 15.01-15.02 15.01-14.85 0-15.02-14.4-15.02-15.01ZM39 50.56c16.49 0 17.33-14.43 17.33-17.32V14.81c0-.49-.31-.92-.77-1.09L39.39 7.89a1.16 1.16 0 0 0-.78 0l-16.17 5.83c-.46.17-.77.6-.77 1.09v18.43c0 5.99 3.62 17.32 17.33 17.32m24.84 9.24a2.885 2.885 0 1 1-.01-5.77 2.885 2.885 0 0 1 .01 5.77M41.89 65c0 1.59-1.3 2.89-2.89 2.89s-2.89-1.3-2.89-2.89 1.3-2.89 2.89-2.89 2.89 1.3 2.89 2.89m-27.73-5.2a2.88 2.88 0 0 1-2.88-2.88 2.885 2.885 0 1 1 2.88 2.88m49.68-8.08c-1.32 0-2.5.5-3.42 1.31l-3.55-3.56c3.67-3.05 6.82-7 9.09-11.65l-2.08-1.01C58.76 47.27 48.99 54.03 39 54.03c-10.23 0-20.84-7.08-25.81-17.22l-2.07 1.01c1.98 4.06 5.1 8.12 9.08 11.41l-3.36 3.25c-.79-.47-1.69-.76-2.68-.76-2.86 0-5.19 2.33-5.19 5.2 0 2.86 2.33 5.19 5.19 5.19 2.87 0 5.2-2.33 5.2-5.19 0-1.05-.31-2.03-.85-2.84l3.54-3.43c4.46 3.2 9.84 5.38 15.79 5.64v3.65c-2.31.53-4.04 2.59-4.04 5.06 0 2.87 2.33 5.2 5.2 5.2s5.2-2.33 5.2-5.2c0-2.47-1.73-4.53-4.04-5.06v-3.65c5.24-.25 10.38-2.16 14.87-5.39l4.01 4.02a5.1 5.1 0 0 0-.4 2c0 2.86 2.33 5.19 5.2 5.19 2.86 0 5.19-2.33 5.19-5.19 0-2.87-2.33-5.2-5.19-5.2" fill="#ffffff" pointer-events="all"/></svg>