<svg role="img" viewBox="-.5 -.5 79 79" xmlns="http://www.w3.org/2000/svg"><path d="M0 0h78v78H0Z" fill="#8c4fff" pointer-events="all"/><path d="M55.85 52.51a3.346 3.346 0 0 0-6.69 0 3.346 3.346 0 0 0 6.69 0m2.23 0c0 3.07-2.5 5.57-5.57 5.57-3.07 0-5.57-2.5-5.57-5.57 0-3.07 2.5-5.57 5.57-5.57 3.07 0 5.57 2.5 5.57 5.57M28.29 36.43c0-1.84-1.5-3.34-3.34-3.34-1.84 0-3.34 1.5-3.34 3.34 0 1.84 1.5 3.34 3.34 3.34 1.84 0 3.34-1.5 3.34-3.34m2.23 0c0 3.07-2.5 5.57-5.57 5.57-3.07 0-5.57-2.5-5.57-5.57 0-3.07 2.5-5.57 5.57-5.57 3.07 0 5.57 2.5 5.57 5.57m8.18-17.48a3.34 3.34 0 1 0 6.68 0 3.34 3.34 0 0 0-6.68 0m-2.23 0c0-3.07 2.5-5.57 5.57-5.57 3.07 0 5.57 2.5 5.57 5.57 0 3.07-2.5 5.57-5.57 5.57-3.07 0-5.57-2.5-5.57-5.57M67.97 39c0-10.33-5.54-19.89-14.47-25.06-1.6.32-3.15.76-5.08 1.46l-.76-2.09c1.01-.37 1.91-.66 2.78-.91A28.898 28.898 0 0 0 39 10.03c-1.88 0-3.73.19-5.54.55 1.31.76 2.47 1.53 3.6 2.38l-1.35 1.78c-1.59-1.21-3.24-2.23-5.4-3.36-10.95 3.44-18.83 13.09-20.08 24.42 2.3-.46 4.5-.72 6.95-.78l.05 2.23c-2.56.06-4.76.33-7.17.86-.01.3-.03.6-.03.89 0 9.65 4.77 18.54 12.62 23.9-1.4-4.16-2.09-8.09-2.09-11.93 0-2.18.38-3.98.77-5.88.1-.44.19-.89.28-1.36l2.19.43c-.1.48-.19.94-.29 1.38-.39 1.87-.72 3.48-.72 5.43 0 4.36.95 8.86 2.9 13.75 4.14 2.15 8.62 3.25 13.31 3.25 3.07 0 6.07-.49 8.93-1.43a37.97 37.97 0 0 0 2.65-6.7l2.14.62c-.51 1.75-1.09 3.34-1.79 4.92 1.8-.81 3.5-1.81 5.1-2.97-.38-.95-.8-1.88-1.25-2.8l1.99-.99c.39.77.74 1.56 1.08 2.36C64.3 55.46 67.97 47.54 67.97 39m2.23 0c0 9.72-4.42 18.72-12.12 24.68a30.683 30.683 0 0 1-6.17 3.7c-.92.42-1.87.81-2.84 1.14-3.21 1.12-6.6 1.68-10.07 1.68-5.13 0-10.22-1.28-14.72-3.69A31.14 31.14 0 0 1 7.8 39c0-.76.02-1.35.07-1.88.75-13.02 9.69-24.29 22.22-28.02 2.85-.86 5.85-1.3 8.91-1.3 5.36 0 10.63 1.38 15.25 3.99A31.22 31.22 0 0 1 70.2 39M36.01 22.8l-1.47-1.68c-2.5 2.18-4.44 4.5-6.71 7.99l1.87 1.22c2.15-3.32 3.98-5.49 6.31-7.53m-3.39 14.45-.72 2.1c5.11 1.76 9.58 4.57 14.05 8.83l1.54-1.62c-4.71-4.49-9.44-7.45-14.87-9.31m14.9-13.11c4.18 6.38 6.54 13.38 7 20.81l-2.23.14c-.44-7.04-2.67-13.68-6.63-19.72Z" fill="#ffffff" pointer-events="all"/></svg>