<svg role="img" viewBox="0 0 32 32" xmlns="http://www.w3.org/2000/svg" xmlns:xlink="http://www.w3.org/1999/xlink"><defs><linearGradient gradientTransform="scale(32)" gradientUnits="userSpaceOnUse" id="a" x1="0" x2="1" y1="1" y2="0"><stop offset="0" style="stop-color:rgb(74.117649%,3.137255%,8.627451%);stop-opacity:1"/><stop offset="1" style="stop-color:rgb(100%,32.156864%,32.156864%);stop-opacity:1"/></linearGradient></defs><path d="M0 0h32v32H0z" style="fill:url(#a);stroke:none"/><path d="M15.234 16.477c0 .82-.664 1.488-1.48 1.488a1.485 1.485 0 0 1-1.477-1.488c0-.82.664-1.489 1.477-1.489.816 0 1.48.668 1.48 1.489m-.687-4.036a.764.764 0 0 1-.762-.765c0-.422.34-.766.762-.766.418 0 .758.344.758.766 0 .422-.34.765-.758.765m-.64 7.297c-2.887 0-5.239-2.367-5.239-5.273 0-2.906 2.352-5.274 5.238-5.274 2.887 0 5.239 2.368 5.239 5.274 0 .715-.145 1.398-.403 2.02l-2.508-.368a2.536 2.536 0 0 0-1.168-1.793v-.926a1.809 1.809 0 0 0-.52-3.535 1.807 1.807 0 0 0-.52 3.535l.001.57c-.09-.007-.18-.027-.273-.027a2.5 2.5 0 0 0-1.793.762l-.383-.394c.23-.371.367-.805.367-1.274 0-.816-.406-1.566-1.09-2.008l-.539.844c.395.258.633.691.633 1.164 0 .766-.617 1.387-1.375 1.387v1.008a2.35 2.35 0 0 0 1.27-.38l.554.567c-.097.27-.16.555-.16.86a2.527 2.527 0 0 0 2.516 2.53c1.148 0 2.11-.784 2.41-1.843l2.047.297a5.227 5.227 0 0 1-4.305 2.277m0-11.59c-3.46 0-6.273 2.832-6.273 6.317 0 3.484 2.812 6.32 6.273 6.32s6.274-2.836 6.274-6.32c0-3.485-2.813-6.317-6.274-6.317M25.68 25.09a1.11 1.11 0 0 1-1.567.082l-4.73-4.3a8.524 8.524 0 0 0 1.476-1.657l4.739 4.297c.453.414.488 1.12.082 1.578M6.54 14.465c0-4.09 3.304-7.418 7.366-7.418 4.063 0 7.367 3.328 7.367 7.418 0 4.094-3.304 7.422-7.367 7.422-4.062 0-7.367-3.328-7.367-7.422m19.754 8.273-4.898-4.445a8.462 8.462 0 0 0 .918-3.828c0-4.668-3.77-8.465-8.407-8.465C9.27 6 5.5 9.797 5.5 14.465c0 4.668 3.77 8.465 8.406 8.465a8.3 8.3 0 0 0 4.637-1.41l4.879 4.43c.406.366.922.55 1.433.55a2.16 2.16 0 0 0 1.598-.71 2.18 2.18 0 0 0-.16-3.052" style="stroke:none;fill-rule:evenodd;fill:rgb(100%,100%,100%);fill-opacity:1"/></svg>