<?xml version="1.0" encoding="UTF-8"?>
<svg xmlns="http://www.w3.org/2000/svg" xmlns:xlink="http://www.w3.org/1999/xlink" width="32" height="32" viewBox="0 0 32 32" version="1.1">
<g id="surface1">
<path style=" stroke:none;fill-rule:nonzero;fill:rgb(90.588236%,8.235294%,48.235294%);fill-opacity:1;" d="M 0.203125 0.203125 L 31.796875 0.203125 L 31.796875 31.796875 L 0.203125 31.796875 Z M 0.203125 0.203125 "/>
<path style=" stroke:none;fill-rule:nonzero;fill:rgb(100%,100%,100%);fill-opacity:1;" d="M 24.679688 19.300781 L 25.558594 19.605469 L 25.003906 21.210938 C 24.941406 21.398438 24.761719 21.519531 24.5625 21.519531 L 24.507812 21.519531 L 22.710938 21.292969 L 22.828125 20.371094 L 23.84375 20.496094 C 23.441406 19.867188 22.691406 19.480469 21.792969 19.480469 C 20.613281 19.480469 19.722656 20.125 19.519531 21.121094 L 18.609375 20.933594 C 18.90625 19.484375 20.15625 18.546875 21.792969 18.546875 C 22.941406 18.546875 23.914062 19.035156 24.5 19.820312 Z M 24.066406 22.453125 L 24.976562 22.644531 C 24.679688 24.082031 23.402344 25.046875 21.792969 25.046875 C 20.742188 25.046875 19.820312 24.59375 19.222656 23.871094 L 19.132812 24.308594 L 18.21875 24.113281 L 18.589844 22.371094 C 18.640625 22.125 18.878906 21.960938 19.136719 22.011719 L 20.828125 22.34375 L 20.648438 23.257812 L 19.796875 23.089844 C 20.203125 23.714844 20.941406 24.117188 21.792969 24.117188 C 22.96875 24.117188 23.859375 23.464844 24.066406 22.453125 M 27.707031 22.597656 L 27.148438 22.566406 C 26.921875 22.558594 26.71875 22.707031 26.664062 22.929688 C 26.542969 23.476562 26.328125 24 26.023438 24.472656 C 25.902344 24.667969 25.941406 24.917969 26.109375 25.070312 L 26.527344 25.441406 L 25.445312 26.527344 L 25.074219 26.109375 C 24.917969 25.941406 24.667969 25.90625 24.476562 26.03125 C 24 26.328125 23.480469 26.542969 22.929688 26.667969 C 22.707031 26.71875 22.554688 26.925781 22.566406 27.152344 L 22.597656 27.707031 L 21.0625 27.707031 L 21.09375 27.152344 C 21.113281 26.921875 20.957031 26.71875 20.734375 26.667969 C 20.1875 26.542969 19.664062 26.328125 19.1875 26.03125 C 18.996094 25.90625 18.746094 25.941406 18.59375 26.109375 L 18.21875 26.527344 L 17.136719 25.441406 L 17.554688 25.074219 C 17.722656 24.917969 17.757812 24.667969 17.636719 24.476562 C 17.335938 24 17.121094 23.480469 16.996094 22.929688 C 16.945312 22.710938 16.746094 22.554688 16.519531 22.566406 L 15.960938 22.597656 L 15.960938 21.066406 L 16.519531 21.09375 C 16.726562 21.109375 16.949219 20.957031 17 20.734375 C 17.121094 20.1875 17.339844 19.667969 17.640625 19.191406 C 17.761719 19 17.726562 18.746094 17.554688 18.597656 L 17.136719 18.21875 L 18.21875 17.136719 L 18.597656 17.554688 C 18.746094 17.726562 19 17.761719 19.191406 17.640625 C 19.664062 17.339844 20.1875 17.125 20.734375 17 C 20.957031 16.953125 21.113281 16.75 21.09375 16.523438 L 21.0625 15.960938 L 22.597656 15.960938 L 22.566406 16.523438 C 22.554688 16.75 22.707031 16.953125 22.929688 17 C 23.476562 17.125 23.996094 17.339844 24.46875 17.640625 C 24.664062 17.761719 24.914062 17.730469 25.070312 17.558594 L 25.441406 17.136719 L 26.527344 18.21875 L 26.109375 18.597656 C 25.941406 18.746094 25.902344 18.996094 26.023438 19.191406 C 26.324219 19.667969 26.542969 20.1875 26.664062 20.734375 C 26.71875 20.957031 26.933594 21.109375 27.148438 21.09375 L 27.707031 21.066406 Z M 28.492188 20.234375 C 28.398438 20.148438 28.269531 20.097656 28.148438 20.105469 L 27.472656 20.148438 C 27.359375 19.761719 27.203125 19.390625 27.011719 19.039062 L 27.515625 18.589844 C 27.613281 18.503906 27.667969 18.382812 27.667969 18.253906 C 27.675781 18.125 27.625 18 27.535156 17.910156 L 25.753906 16.128906 C 25.664062 16.039062 25.542969 15.988281 25.410156 15.992188 C 25.285156 15.996094 25.164062 16.050781 25.078125 16.148438 L 24.628906 16.652344 C 24.277344 16.460938 23.902344 16.308594 23.519531 16.195312 L 23.558594 15.519531 C 23.5625 15.390625 23.519531 15.265625 23.429688 15.171875 C 23.34375 15.082031 23.222656 15.027344 23.09375 15.027344 L 20.574219 15.027344 C 20.445312 15.027344 20.320312 15.082031 20.234375 15.171875 C 20.148438 15.265625 20.097656 15.390625 20.105469 15.519531 L 20.148438 16.195312 C 19.761719 16.308594 19.390625 16.460938 19.039062 16.652344 L 18.589844 16.148438 C 18.503906 16.054688 18.382812 15.996094 18.253906 15.992188 C 18.125 15.988281 18.003906 16.039062 17.910156 16.128906 L 16.128906 17.910156 C 16.039062 18 15.988281 18.125 15.992188 18.253906 C 15.996094 18.382812 16.050781 18.503906 16.148438 18.589844 L 16.652344 19.039062 C 16.460938 19.390625 16.308594 19.761719 16.191406 20.148438 L 15.519531 20.105469 C 15.390625 20.097656 15.265625 20.148438 15.171875 20.234375 C 15.082031 20.320312 15.027344 20.445312 15.027344 20.574219 L 15.027344 23.09375 C 15.027344 23.222656 15.082031 23.34375 15.171875 23.433594 C 15.265625 23.519531 15.390625 23.5625 15.519531 23.558594 L 16.191406 23.519531 C 16.304688 23.90625 16.457031 24.277344 16.648438 24.632812 L 16.148438 25.078125 C 16.050781 25.164062 15.996094 25.285156 15.992188 25.410156 C 15.988281 25.539062 16.039062 25.664062 16.128906 25.753906 L 17.910156 27.535156 C 18 27.625 18.132812 27.679688 18.253906 27.667969 C 18.382812 27.667969 18.503906 27.613281 18.589844 27.515625 L 19.035156 27.011719 C 19.390625 27.207031 19.757812 27.363281 20.148438 27.476562 L 20.105469 28.148438 C 20.097656 28.273438 20.148438 28.398438 20.234375 28.492188 C 20.320312 28.585938 20.445312 28.636719 20.574219 28.636719 L 23.09375 28.636719 C 23.222656 28.636719 23.34375 28.585938 23.429688 28.492188 C 23.519531 28.398438 23.5625 28.273438 23.558594 28.148438 L 23.519531 27.476562 C 23.90625 27.363281 24.277344 27.207031 24.632812 27.019531 L 25.078125 27.515625 C 25.164062 27.613281 25.285156 27.667969 25.410156 27.667969 C 25.546875 27.679688 25.664062 27.625 25.753906 27.535156 L 27.535156 25.753906 C 27.625 25.664062 27.675781 25.539062 27.667969 25.410156 C 27.667969 25.285156 27.613281 25.164062 27.515625 25.078125 L 27.011719 24.628906 C 27.207031 24.277344 27.363281 23.902344 27.476562 23.519531 L 28.148438 23.558594 C 28.269531 23.5625 28.398438 23.519531 28.492188 23.433594 C 28.585938 23.34375 28.636719 23.222656 28.636719 23.09375 L 28.636719 20.574219 C 28.636719 20.445312 28.585938 20.320312 28.492188 20.234375 M 4.292969 22.914062 L 13.605469 22.914062 L 13.605469 23.847656 L 3.828125 23.847656 C 3.570312 23.847656 3.363281 23.640625 3.363281 23.378906 L 3.363281 3.828125 C 3.363281 3.574219 3.570312 3.363281 3.828125 3.363281 L 25.242188 3.363281 C 25.5 3.363281 25.710938 3.574219 25.710938 3.828125 L 25.710938 14.066406 L 24.777344 14.066406 L 24.777344 4.292969 L 4.292969 4.292969 Z M 19.65625 9.878906 L 19.191406 9.878906 L 19.191406 8.949219 L 21.984375 8.949219 L 21.984375 9.878906 Z M 20.125 8.015625 L 20.125 6.15625 L 21.054688 6.15625 L 21.054688 8.015625 Z M 21.984375 14.066406 L 21.984375 10.8125 L 22.449219 10.8125 C 22.707031 10.8125 22.914062 10.601562 22.914062 10.34375 L 22.914062 8.480469 C 22.914062 8.226562 22.707031 8.015625 22.449219 8.015625 L 21.984375 8.015625 L 21.984375 5.691406 C 21.984375 5.433594 21.777344 5.226562 21.515625 5.226562 L 19.65625 5.226562 C 19.398438 5.226562 19.191406 5.433594 19.191406 5.691406 L 19.191406 8.015625 L 18.726562 8.015625 C 18.46875 8.015625 18.261719 8.226562 18.261719 8.480469 L 18.261719 10.34375 C 18.261719 10.601562 18.46875 10.8125 18.726562 10.8125 L 19.191406 10.8125 L 19.191406 14.066406 L 20.125 14.066406 L 20.125 10.8125 L 21.054688 10.8125 L 21.054688 14.066406 Z M 13.140625 15 L 12.675781 15 L 12.675781 14.066406 L 15.464844 14.066406 L 15.464844 15 Z M 13.605469 13.140625 L 13.605469 6.15625 L 14.535156 6.15625 L 14.535156 13.140625 Z M 15.464844 16.863281 L 15.464844 15.929688 L 15.929688 15.929688 C 16.191406 15.929688 16.398438 15.722656 16.398438 15.464844 L 16.398438 13.605469 C 16.398438 13.347656 16.191406 13.140625 15.929688 13.140625 L 15.464844 13.140625 L 15.464844 5.691406 C 15.464844 5.433594 15.257812 5.226562 15 5.226562 L 13.140625 5.226562 C 12.882812 5.226562 12.675781 5.433594 12.675781 5.691406 L 12.675781 13.140625 L 12.207031 13.140625 C 11.949219 13.140625 11.742188 13.347656 11.742188 13.605469 L 11.742188 15.464844 C 11.742188 15.722656 11.949219 15.929688 12.207031 15.929688 L 12.675781 15.929688 L 12.675781 21.054688 L 13.605469 21.054688 L 13.605469 15.929688 L 14.535156 15.929688 L 14.535156 16.863281 Z M 6.15625 10.34375 L 8.949219 10.34375 L 8.949219 11.277344 L 6.15625 11.277344 Z M 7.085938 9.414062 L 7.085938 6.15625 L 8.015625 6.15625 L 8.015625 9.414062 Z M 7.085938 20.125 L 7.085938 12.207031 L 8.015625 12.207031 L 8.015625 20.125 Z M 6.617188 21.054688 L 8.480469 21.054688 C 8.742188 21.054688 8.949219 20.84375 8.949219 20.589844 L 8.949219 12.207031 L 9.414062 12.207031 C 9.671875 12.207031 9.878906 11.996094 9.878906 11.742188 L 9.878906 9.878906 C 9.878906 9.625 9.671875 9.414062 9.414062 9.414062 L 8.949219 9.414062 L 8.949219 5.691406 C 8.949219 5.433594 8.742188 5.226562 8.480469 5.226562 L 6.617188 5.226562 C 6.363281 5.226562 6.15625 5.433594 6.15625 5.691406 L 6.15625 9.414062 L 5.691406 9.414062 C 5.433594 9.414062 5.226562 9.625 5.226562 9.878906 L 5.226562 11.742188 C 5.226562 11.996094 5.433594 12.207031 5.691406 12.207031 L 6.15625 12.207031 L 6.15625 20.589844 C 6.15625 20.84375 6.363281 21.054688 6.617188 21.054688 "/>
</g>
</svg>
