<svg role="img" viewBox="0 0 32 32" xmlns="http://www.w3.org/2000/svg" xmlns:xlink="http://www.w3.org/1999/xlink"><defs><linearGradient gradientTransform="scale(32)" gradientUnits="userSpaceOnUse" id="a" x1="0" x2="1" y1="1" y2="0"><stop offset="0" style="stop-color:rgb(10.588235%,40.000001%,5.882353%);stop-opacity:1"/><stop offset="1" style="stop-color:rgb(42.352942%,68.235296%,24.313726%);stop-opacity:1"/></linearGradient></defs><path d="M0 0h32v32H0z" style="fill:url(#a);stroke:none"/><path d="M26.43 5h-3.492v1h2.226l-2.637 2.648.703.704 2.7-2.704V9h.996V5.5c0-.277-.223-.5-.496-.5M5.926 6.648 8.62 9.352l.707-.704L6.688 6h2.23V5H5.426c-.278 0-.5.223-.5.5V9h1ZM25.93 25.352l-2.7-2.704-.703.704L25.164 26h-2.227v1h3.493a.498.498 0 0 0 .496-.5V23h-.996ZM10.422 13.234c0-1.472 1.027-3.058 2.336-3.609 2.273-.953 3.883.3 4.469.883.48.476.855 1.09 1.113 1.816a.514.514 0 0 0 .394.328.51.51 0 0 0 .473-.195c.273-.363.668-.57 1.086-.57.625 0 1.39.488 1.469 1.867a.503.503 0 0 0 .394.46c1.633.345 2.457 1.243 2.457 2.68 0 .356-.043.68-.129.961l.957.29a4.34 4.34 0 0 0 .168-1.25c0-1.81-1.02-3.067-2.89-3.575-.239-1.668-1.395-2.433-2.426-2.433-.469 0-.918.144-1.305.41a5.493 5.493 0 0 0-1.058-1.5c-1.52-1.508-3.598-1.918-5.559-1.094-1.68.707-2.95 2.652-2.95 4.531 0 .059.005.125.009.188-1.504.531-2.387 1.797-2.387 3.45 0 .085.004.167.008.25.082 1.46 1.054 2.722 2.476 3.214l.325-.945c-1.036-.36-1.747-1.27-1.805-2.325-.004-.062-.004-.128-.004-.195 0-1.82 1.273-2.41 2.035-2.601a.494.494 0 0 0 .375-.543 4.11 4.11 0 0 1-.031-.493m9.992 4.067c0-.156-.035-.246-.062-.274-.028-.023-.09-.035-.172-.027h-5.02a.501.501 0 0 1-.5-.5 3.5 3.5 0 0 0-.062-.5h-1.145a3.342 3.342 0 0 0-.098.504.51.51 0 0 1-.496.496h-1.152c-.117-.008-.18.004-.203.027-.031.028-.066.118-.066.274V22.5h8.976Zm.996 1.199v2.383l1.192-2.383Zm-.05 4.723h-.005a.492.492 0 0 1-.44.277H10.94a.498.498 0 0 1-.5-.5v-5.7c0-.534.207-.84.383-1.003.16-.152.45-.328.918-.297h.676c.082-.437.281-1 .75-1h1.746c.031 0 .063.004.094.008.398.078.555.582.613.992h4.524a1.14 1.14 0 0 1 .886.297c.172.164.38.469.38 1.004v.199h1.995a.497.497 0 0 1 .445.723Zm-12.032.129L6.688 26h2.23v1H5.426a.498.498 0 0 1-.5-.5V23h1v2.352l2.695-2.704Zm0 0" style="stroke:none;fill-rule:evenodd;fill:rgb(100%,100%,100%);fill-opacity:1"/></svg>