<svg role="img" viewBox="0 0 24 32" xmlns="http://www.w3.org/2000/svg"><path d="m4.191 11.188-2.796-1.79L0 11.27l2.14.175Zm-2.32 2.32L12 13.957l10.129-.45L12 9.603Zm16.977-2.32 2.465.304L24 11.27l-2.402-3.528Zm0 0" style="stroke:none;fill-rule:evenodd;fill:rgb(23.529412%,28.627452%,16.078432%);fill-opacity:1"/><path d="m8.68 23.957 5.789-.945 5.594.91-5.793 3.836Zm0 0" style="stroke:none;fill-rule:evenodd;fill:rgb(71.764708%,79.215688%,61.56863%);fill-opacity:1"/><path d="m9.32 10.832-3.011-.363-3.106-2.692L6.31 3.43l3.011.652Zm0 0" style="stroke:none;fill-rule:evenodd;fill:rgb(45.882353%,61.176473%,24.313726%);fill-opacity:1"/><path d="M1.871 6.02V3.527L12 0l2.68 3.945-5.36 1.496-3.011-.656v5.606L12 9.6l3.031 9.286L12 32l-3.035-1.059v-2.988l-2.656-.738v-14.02l-4.438.313v-2.496L0 11.27V6.543Zm0 0" style="stroke:none;fill-rule:evenodd;fill:rgb(29.411766%,38.039216%,17.254902%);fill-opacity:1"/><path d="m17.242 1.828 2.137.738 2.75.961V6.02L24 6.543v4.727l-1.871-.258v2.496l-2.387-.168-2.05-.145V16h4.437v2.563l-2.063.128v2.59l-5.035.7v2.988l5.024-1.043.011 2.637-5.035 1.39v2.988L12 32V9.602l2.68.37v-4.53L12 4.784V0Zm0 0" style="stroke:none;fill-rule:evenodd;fill:rgb(45.882353%,61.176473%,24.313726%);fill-opacity:1"/><path d="M15.031 4.043 12 3.199 6.309 4.785l3.011.656Zm0 0" style="stroke:none;fill-rule:evenodd;fill:rgb(23.529412%,28.627452%,16.078432%);fill-opacity:1"/><path d="M14.68 4.785h3.011v5.606l-3.011-.418Zm0 0" style="stroke:none;fill-rule:evenodd;fill:rgb(29.411766%,38.039216%,17.254902%);fill-opacity:1"/><path d="M6.309 4.785 12 3.2l1.2.336 1.831.508 2.66.742-3.011.656L12 4.785l-2.68.656Zm0 0" style="stroke:none;fill-rule:evenodd;fill:rgb(23.529412%,28.627452%,16.078432%);fill-opacity:1"/></svg>