<?xml version="1.0" encoding="UTF-8"?>
<svg xmlns="http://www.w3.org/2000/svg" xmlns:xlink="http://www.w3.org/1999/xlink" width="32" height="32" viewBox="0 0 32 32" version="1.1">
<g id="surface1">
<path style=" stroke:none;fill-rule:nonzero;fill:rgb(86.666667%,20.392157%,29.803923%);fill-opacity:1;" d="M 0.203125 0.203125 L 31.796875 0.203125 L 31.796875 31.796875 L 0.203125 31.796875 Z M 0.203125 0.203125 "/>
<path style=" stroke:none;fill-rule:nonzero;fill:rgb(100%,100%,100%);fill-opacity:1;" d="M 23.671875 25.476562 C 23.671875 24.746094 23.050781 24.125 22.320312 24.125 C 21.585938 24.125 20.964844 24.746094 20.964844 25.476562 C 20.964844 26.210938 21.585938 26.832031 22.320312 26.832031 C 23.050781 26.832031 23.671875 26.210938 23.671875 25.476562 M 16 25.027344 C 15.265625 25.027344 14.648438 25.648438 14.648438 26.382812 C 14.648438 27.113281 15.265625 27.734375 16 27.734375 C 16.734375 27.734375 17.351562 27.113281 17.351562 26.382812 C 17.351562 25.648438 16.734375 25.027344 16 25.027344 M 9.679688 24.125 C 8.949219 24.125 8.328125 24.746094 8.328125 25.476562 C 8.328125 26.210938 8.949219 26.832031 9.679688 26.832031 C 10.414062 26.832031 11.035156 26.210938 11.035156 25.476562 C 11.035156 24.746094 10.414062 24.125 9.679688 24.125 M 10.855469 17.351562 L 21.144531 17.351562 L 17.6875 14.246094 L 16.292969 15.441406 C 16.210938 15.515625 16.105469 15.546875 16 15.546875 C 15.894531 15.546875 15.789062 15.515625 15.703125 15.441406 L 14.3125 14.246094 Z M 10.128906 10.660156 L 10.128906 16.792969 L 13.621094 13.652344 Z M 21.101562 10.128906 L 10.898438 10.128906 L 16 14.5 Z M 21.871094 16.792969 L 21.871094 10.660156 L 18.378906 13.652344 Z M 24.574219 25.476562 C 24.574219 26.703125 23.542969 27.734375 22.320312 27.734375 C 21.09375 27.734375 20.0625 26.703125 20.0625 25.476562 C 20.0625 24.410156 20.851562 23.484375 21.871094 23.269531 L 21.871094 21.871094 L 16.449219 21.871094 L 16.449219 24.175781 C 17.464844 24.390625 18.257812 25.3125 18.257812 26.382812 C 18.257812 27.605469 17.222656 28.636719 16 28.636719 C 14.777344 28.636719 13.742188 27.605469 13.742188 26.382812 C 13.742188 25.3125 14.535156 24.390625 15.550781 24.175781 L 15.550781 21.871094 L 10.128906 21.871094 L 10.128906 23.269531 C 11.148438 23.484375 11.9375 24.410156 11.9375 25.476562 C 11.9375 26.703125 10.90625 27.734375 9.679688 27.734375 C 8.457031 27.734375 7.425781 26.703125 7.425781 25.476562 C 7.425781 24.410156 8.214844 23.484375 9.230469 23.269531 L 9.230469 21.414062 C 9.230469 21.167969 9.429688 20.964844 9.679688 20.964844 L 15.550781 20.964844 L 15.550781 18.257812 L 9.679688 18.257812 C 9.429688 18.257812 9.230469 18.054688 9.230469 17.804688 L 9.230469 9.679688 C 9.230469 9.429688 9.429688 9.226562 9.679688 9.226562 L 22.320312 9.226562 C 22.570312 9.226562 22.769531 9.429688 22.769531 9.679688 L 22.769531 17.804688 C 22.769531 18.054688 22.570312 18.257812 22.320312 18.257812 L 16.449219 18.257812 L 16.449219 20.964844 L 22.320312 20.964844 C 22.570312 20.964844 22.769531 21.167969 22.769531 21.414062 L 22.769531 23.269531 C 23.785156 23.484375 24.574219 24.410156 24.574219 25.476562 M 28.636719 16 C 28.636719 18.664062 27.816406 21.21875 26.257812 23.375 L 25.527344 22.851562 C 26.96875 20.84375 27.734375 18.476562 27.734375 16 C 27.734375 9.53125 22.472656 4.265625 16 4.265625 C 9.53125 4.265625 4.265625 9.53125 4.265625 16 C 4.265625 18.476562 5.03125 20.84375 6.472656 22.851562 L 5.742188 23.375 C 4.183594 21.21875 3.363281 18.664062 3.363281 16 C 3.363281 9.03125 9.03125 3.363281 16 3.363281 C 22.96875 3.363281 28.636719 9.03125 28.636719 16 "/>
</g>
</svg>
