<?xml version="1.0" encoding="UTF-8"?>
<!DOCTYPE svg PUBLIC "-//W3C//DTD SVG 1.1//EN" "http://www.w3.org/Graphics/SVG/1.1/DTD/svg11.dtd">
<svg xmlns="http://www.w3.org/2000/svg" xmlns:xlink="http://www.w3.org/1999/xlink" version="1.1" width="78px" height="44px" viewBox="-0.5 -0.5 78 44"><defs><style type="text/css">@import url(https://fonts.googleapis.com/css2?family=Segoe+UI:wght@400;500);&#xa;</style></defs><g><rect x="0" y="0" width="78" height="44" fill="none" stroke="none" pointer-events="all"/><path d="M 76.25 29.09 C 76 28.86 75.7 28.7 75.39 28.57 C 73.58 12.44 59.84 0 43.44 0 C 36.05 0 28.83 2.57 23.12 7.23 C 15.58 13.37 11.26 22.47 11.26 32.18 C 11.26 32.25 11.27 32.33 11.27 32.4 C 10.11 32.98 8.89 33.53 7.67 34.06 C 3.97 35.68 1.3 36.85 0.9 38.96 C 0.8 39.49 0.79 40.54 1.8 41.56 C 3.6 43.36 7.05 44 10.55 44 C 12.01 44 13.47 43.89 14.83 43.7 C 17.15 43.39 21.48 42.54 24.42 40.39 C 29.06 37.02 39.55 35.77 45.01 36.19 C 48.27 36.44 52.21 38.15 55.38 39.52 C 57.8 40.58 59.71 41.4 61.21 41.62 C 63.27 41.9 66.64 41.55 70.21 41.19 L 70.51 41.16 C 71.44 41.06 72.36 40.97 73.26 40.9 C 73.64 40.86 74 40.83 74.5 40.8 C 76.02 40.69 77.21 39.41 77.21 37.89 L 77.21 31.26 C 77.21 30.43 76.86 29.64 76.25 29.09 Z M 43.44 3.46 C 57.94 3.46 70.11 14.37 71.9 28.57 C 71.4 28.61 70.88 28.66 70.32 28.71 L 70 28.74 C 69.96 27.15 68.66 25.87 67.06 25.87 L 65.83 25.87 C 62.01 14.65 50.97 6.91 38.47 6.91 C 33.84 6.91 29.3 7.97 25.23 9.99 C 25.26 9.96 25.29 9.94 25.31 9.92 C 30.41 5.76 36.84 3.46 43.44 3.46 Z M 61.25 31.7 L 61.25 29.33 L 66.54 29.33 L 66.54 31.7 Z M 14.37 40.27 C 9.78 40.9 6.15 40.34 4.65 39.41 C 5.56 38.77 7.62 37.87 9.06 37.24 C 10.31 36.69 11.58 36.12 12.8 35.5 C 14.8 37.02 17.28 38.16 20.02 38.84 C 18.43 39.48 16.47 39.98 14.37 40.27 Z M 73.75 37.38 C 73.48 37.4 73.21 37.42 72.95 37.45 C 72.05 37.52 71.1 37.61 70.14 37.71 L 69.85 37.74 C 66.8 38.06 63.33 38.41 61.69 38.19 C 60.66 38.04 58.76 37.22 56.75 36.35 C 53.35 34.87 49.11 33.03 45.28 32.74 C 40 32.33 30.88 33.33 25.01 36.08 C 21.61 35.93 18.45 35.01 16.01 33.5 C 16 33.03 15.99 32.56 15.99 32.38 C 15.99 25.22 19.34 18.5 25.2 13.93 C 29.18 11.61 33.76 10.38 38.47 10.38 C 49.07 10.38 58.48 16.64 62.15 25.87 L 60.74 25.87 C 59.33 25.87 58.15 26.86 57.86 28.19 C 57.62 28.1 57.4 28.02 57.15 27.92 C 53.63 26.56 48.81 24.71 43.24 25.04 C 35.09 25.52 31.08 26.01 27.92 26.91 L 28.87 30.24 C 31.76 29.41 35.57 28.96 43.44 28.49 C 48.26 28.22 52.68 29.91 55.9 31.15 C 56.58 31.41 57.2 31.65 57.79 31.85 L 57.79 32.21 C 57.79 33.84 59.11 35.16 60.74 35.16 L 67.06 35.16 C 68.68 35.16 70 33.84 70.01 32.22 L 70.62 32.16 C 71.65 32.07 72.59 31.98 73.38 31.9 L 73.75 31.87 Z" fill="#dd344c" stroke="none" pointer-events="all"/></g></svg>