<svg role="img" viewBox="-.5 -.5 79 79" xmlns="http://www.w3.org/2000/svg"><path d="M0 0h78v78H0Z" fill="#e7157b" pointer-events="all"/><path d="M22.29 53.52h4.45v-2.23h-4.45Zm38.96-16.53c-.25-3.39-1.9-5.88-4.53-6.76-2.12-.7-4.45-.21-6.22 1.24-1.08-2.12-2.7-4.2-4.03-5.52-4.79-4.72-10.07-5.93-15.7-3.58-5.02 2.09-9.6 8.96-9.6 14.41V37c-3.01 1.02-5.45 3.23-6.6 6.05l2.06.85c1.47-3.6 4.91-4.73 5.93-4.99.49-.13.84-.57.84-1.08v-1.05c0-4.5 4.07-10.62 8.23-12.35 4.78-2 9.13-.98 13.27 3.11 1.77 1.74 3.49 4.32 4.2 6.28.13.38.47.66.88.72.4.06.81-.1 1.05-.43 1.23-1.64 3.23-2.35 4.98-1.76 1.94.65 3.05 2.67 3.05 5.55 0 .55.39 1.01.93 1.1.82.14 7.98 1.54 7.98 8.94 0 7.66-7.49 7.8-7.8 7.81H34.54v2.23h25.63c3.47-.01 10.03-2.12 10.03-10.04 0-6.92-5.26-10.03-8.95-10.95M28.97 53.52h15.6v-2.23h-15.6Zm-4.46 4.46h6.69v-2.23h-6.69Zm-16.71 0h3.34v-2.23H7.8Zm3.34-8.93h10.03v-2.23H11.14Zm-2.23 4.47h11.15v-2.23H8.91Zm15.6-4.47h7.8v-2.23h-7.8Zm-11.14 8.93h8.92v-2.23h-8.92Z" fill="#ffffff" pointer-events="all"/></svg>