<svg role="img" viewBox="-.5 -.5 48 48" xmlns="http://www.w3.org/2000/svg"><path d="M47.82 22.97h-8.69l4.15-4.15-1.54-1.53-6.06 6.06c-.42.42-.42 1.11 0 1.54l6.06 6.06 1.54-1.54L39 25.14h8.82ZM6.25 17.29l-1.53 1.53 4.15 4.15H.18v2.17H9l-4.28 4.27 1.53 1.54 6.07-6.06c.42-.43.42-1.12 0-1.54Zm12.16 12.35h11.17V18.47H18.41Zm13.11-12.39h2v2.17h-1.77v1.64h1.77v2.17h-1.77v1.64h1.77v2.17h-1.77v1.64h1.77v2.17h-2c-.17.31-.42.55-.72.72v2.01h-2.17v-1.77h-1.64v1.77h-2.17v-1.77h-1.64v1.77h-2.17v-1.77h-1.64v1.77H17.2v-2.01c-.3-.17-.55-.41-.72-.72h-2.01v-2.17h1.78v-1.64h-1.78v-2.17h1.78v-1.64h-1.78v-2.17h1.78v-1.64h-1.78v-2.17h2.01c.17-.3.42-.55.72-.72v-2h2.17v1.77h1.64v-1.77h2.17v1.77h1.64v-1.77h2.17v1.77h1.64v-1.77h2.17v2c.3.17.55.42.72.72M25.09 44.3v-8.82h-2.17v8.82l-4.22-4.21-1.53 1.53 6.06 6.06c.21.21.49.32.77.32s.55-.11.76-.32l6.07-6.06-1.54-1.53ZM18.7 8.02l-1.53-1.53L23.23.42c.43-.42 1.11-.42 1.53 0l6.07 6.07-1.54 1.53-4.2-4.21v8.81h-2.17V3.81Z" fill="#ed7100" pointer-events="all"/></svg>