<svg role="img" viewBox="-.5 -.5 79 79" xmlns="http://www.w3.org/2000/svg"><path d="M0 0h78v78H0Z" fill="#8c4fff" pointer-events="all"/><path d="m62.22 41.64-6.11-2.44v22.16c1.78-.18 3.22-.77 4.24-1.81 1.89-1.91 1.87-4.73 1.87-4.75Zm-8.33 19.73V39.2l-6.11 2.44v13.13c.01.23.26 5.95 6.11 6.6m10.55-6.6c0 .13.06 3.72-2.48 6.32-1.67 1.7-4.01 2.57-6.96 2.57-7.3 0-9.37-5.8-9.44-8.86V40.89c0-.45.27-.86.7-1.03l8.33-3.33c.26-.11.56-.11.82 0l8.33 3.33c.42.17.7.58.7 1.03Zm3.33-2.18V37.76L55 32.65l-12.77 5.11v14.79c-.01.1-.15 6.92 3.92 11.11 2.15 2.21 5.12 3.33 8.85 3.33 3.75 0 6.74-1.13 8.89-3.35 4.07-4.21 3.88-10.98 3.88-11.05m-2.29 12.59c-2.58 2.68-6.11 4.03-10.48 4.03-4.36 0-7.87-1.35-10.45-4.01-4.73-4.88-4.55-12.37-4.54-12.68V37c0-.45.27-.86.69-1.03l13.89-5.55c.26-.11.56-.11.82 0l13.88 5.55c.42.17.7.58.7 1.03v15.55c.01.28.21 7.75-4.51 12.63m-45.4-17.07h16.59v2.22H20.08c-6.75 0-11.91-4.5-12.25-10.7-.03-.25-.03-.55-.03-.84 0-7.63 5.33-10.44 8.44-11.43-.02-.35-.03-.72-.03-1.08 0-6.05 4.32-12.39 10.05-14.74 6.72-2.75 13.81-1.42 18.96 3.57 1.73 1.68 3.05 3.49 4.01 5.48 1.34-1.15 2.96-1.77 4.69-1.77 3.67 0 7.55 2.88 8.22 8.4 2.42.61 5.47 1.91 7.61 4.66L68 33.25c-1.97-2.54-4.96-3.6-7.12-4.04-.49-.1-.85-.52-.88-1.02-.29-4.91-3.36-7.15-6.08-7.15-1.62 0-3.06.77-4.16 2.21-.25.33-.65.5-1.05.43-.4-.06-.74-.33-.88-.71-.85-2.32-2.21-4.38-4.16-6.27-4.49-4.35-10.69-5.51-16.57-3.1-4.94 2.02-8.67 7.47-8.67 12.68 0 .6.04 1.2.11 1.77.06.55-.3 1.07-.84 1.21-2.87.71-7.68 2.89-7.68 9.53 0 .22 0 .45.02.67.28 5.03 4.5 8.65 10.04 8.65" fill="#ffffff" pointer-events="all"/></svg>