<svg role="img" viewBox="0 0 27.368 32" xmlns="http://www.w3.org/2000/svg"><path d="M15.379 19.012c1.074-1.66 3.02-2.676 5.121-2.68h.945V1.305H0v21.972h14.527v-1.445c0-.992.293-1.969.852-2.82m0 0" style="stroke:none;fill-rule:evenodd;fill:rgb(29.411766%,38.039216%,17.254902%);fill-opacity:1"/><path d="M15.379 17.727c1.07-1.668 3.016-2.692 5.121-2.7h.945V0H0v21.973h14.527v-1.426c0-.992.293-1.969.852-2.82m0 0" style="stroke:none;fill-rule:evenodd;fill:rgb(45.882353%,61.176473%,24.313726%);fill-opacity:1"/><path d="M9.516 3.938H19v1.617H9.516Zm0 6.25H19v1.617H9.516Zm-7.41-5.97 1.136-1.042L5.52 5.273 4.383 6.316Zm1.167 1.079 3.657-3.36 1.11 1.02-3.653 3.36Zm.004 6.16 3.657-3.36 1.109 1.02-3.652 3.36Zm0 6.16 3.653-3.36 1.113 1.02-3.652 3.36Zm-1.175-7.238 1.136-1.043 2.282 2.098-1.137 1.043Zm.007 6.168L3.242 15.5l2.281 2.098-1.136 1.043Zm7.407 1.512h5.675l.188-.332a5.62 5.62 0 0 1 1.172-1.286H9.516Zm0 0" style="stroke:none;fill-rule:evenodd;fill:rgb(100%,100%,100%);fill-opacity:1"/><path d="M25.074 24.52v-3.18c-.281-2.121-2.238-3.719-4.562-3.719-2.325 0-4.285 1.598-4.567 3.719v3.18h-2.367v7.058h13.79V24.52Zm-2.254 0h-4.675v-3.18c.007-.55.265-1.078.71-1.445a2.263 2.263 0 0 1 1.637-.5c1.23-.047 2.278.816 2.352 1.945Zm0 0" style="stroke:none;fill-rule:evenodd;fill:rgb(29.411766%,38.039216%,17.254902%);fill-opacity:1"/><path d="M25.074 23.234v-3.18c-.281-2.12-2.238-3.718-4.562-3.718-2.325 0-4.285 1.598-4.567 3.719v3.18h-2.367v7.058h13.79v-7.059Zm-2.254 0h-4.675v-3.18c.015-.55.277-1.07.726-1.433a2.267 2.267 0 0 1 1.64-.484c1.227-.051 2.274.816 2.348 1.945Zm0 0" style="stroke:none;fill-rule:evenodd;fill:rgb(45.882353%,61.176473%,24.313726%);fill-opacity:1"/></svg>