<svg xmlns="http://www.w3.org/2000/svg" width="70" height="80" stroke="#000" stroke-linecap="round" stroke-linejoin="round" fill="#fff" fill-rule="evenodd"><path d="M53.114 48.8395V3.1073H0v53.1244h36.256l10.8014-16.8143 6.0566 9.4221zm-6.0566-7.6179L70 76.8927V80H24.1149v-3.1073l22.9425-35.6711z" fill="#4b612c" stroke="none"/><path d="M53.114 45.7322V0H0v53.1245h36.256l10.8014-16.8144 6.0566 9.4221z" fill="#759c3e" stroke="none"/><path d="M23.5706 9.4723h23.4868v3.9092H23.5706zm0 15.1103h23.4868v3.9092H23.5706zM5.213 10.1541L8.0254 7.629l5.6443 5.0677-2.8122 2.525z" stroke="none"/><path d="M8.1098 12.7551l9.0489-8.1242 2.7532 2.4718-9.0489 8.1242zm.0105 14.8943l9.0488-8.1243 2.7531 2.4719-9.0488 8.1242zm-.0035 14.8943l9.0488-8.1243 2.7533 2.4719-9.049 8.1242z" stroke="none"/><path d="M5.2095 25.0483l2.8124-2.525 5.6444 5.0677-2.8123 2.5249zM5.22 39.9551l2.8124-2.525 5.6444 5.0676-2.8123 2.525zm18.3506 3.6596h18.8118l2.498-3.9092H23.5706v3.9092z" stroke="none"/><path d="M47.0574 41.2216L70 76.8927H24.1149l22.9425-35.6711z" fill="#759c3e" stroke="none"/><path d="M64.9481 74.2741H29.1667l17.8349-27.8152zm-29.7388-3.1323h23.7241L47.0016 52.7236zm10.313-4.1598h3.0702v2.7064h-3.0702zm2.9724-6.4652l-.7675 5.4128h-1.3955l-.7258-5.4128v-3.3703h2.9027z" stroke="none"/></svg>