<svg role="img" viewBox="0 0 32 32" xmlns="http://www.w3.org/2000/svg" xmlns:xlink="http://www.w3.org/1999/xlink"><defs><linearGradient gradientTransform="scale(32)" gradientUnits="userSpaceOnUse" id="a" x1="0" x2="1" y1="1" y2="0"><stop offset="0" style="stop-color:rgb(74.117649%,3.137255%,8.627451%);stop-opacity:1"/><stop offset="1" style="stop-color:rgb(100%,32.156864%,32.156864%);stop-opacity:1"/></linearGradient></defs><path d="M0 0h32v32H0z" style="fill:url(#a);stroke:none"/><path d="M20 23a.75.75 0 1 1 0-1.5.75.75 0 0 1 0 1.5m-3.25-.75a.75.75 0 1 1-1.5 0 .75.75 0 0 1 1.5 0m-4 0a.75.75 0 1 1-1.5 0 .75.75 0 0 1 1.5 0m1.75-7.75a1.5 1.5 0 1 1 3 0 1.5 1.5 0 0 1-3 0m6 6.082V18.5c0-.277-.223-.5-.5-.5h-3.5v-1.05c1.14-.231 2-1.243 2-2.45 0-1.379-1.121-2.5-2.5-2.5a2.502 2.502 0 0 0-2.5 2.5c0 1.207.86 2.219 2 2.45V18H12c-.277 0-.5.223-.5.5v2.082a1.747 1.747 0 0 0-1.25 1.668c0 .965.785 1.75 1.75 1.75s1.75-.785 1.75-1.75c0-.79-.531-1.453-1.25-1.668V19h3v1.582a1.747 1.747 0 0 0-1.25 1.668c0 .965.785 1.75 1.75 1.75s1.75-.785 1.75-1.75c0-.79-.531-1.453-1.25-1.668V19h3v1.582a1.747 1.747 0 0 0-1.25 1.668c0 .965.785 1.75 1.75 1.75s1.75-.785 1.75-1.75c0-.79-.531-1.453-1.25-1.668M16 25.617c-4.07 0-6.5-.933-6.5-1.832V9.555C10.883 10.5 13.496 11 16 11s5.117-.5 6.5-1.445v14.23c0 .899-2.43 1.832-6.5 1.832M16 6c3.969 0 6.5 1.184 6.5 2 0 .816-2.531 2-6.5 2S9.5 8.816 9.5 8c0-.816 2.531-2 6.5-2m0-1c-3.637 0-7.5 1.05-7.5 3v15.785c0 2.086 3.875 2.832 7.5 2.832s7.5-.746 7.5-2.832V8c0-1.95-3.863-3-7.5-3" style="stroke:none;fill-rule:evenodd;fill:rgb(100%,100%,100%);fill-opacity:1"/></svg>