<?xml version="1.0" encoding="UTF-8"?>
<svg xmlns="http://www.w3.org/2000/svg" xmlns:xlink="http://www.w3.org/1999/xlink" width="28" height="32" viewBox="0 0 28 32" version="1.1">
<g id="surface1">
<path style=" stroke:none;fill-rule:evenodd;fill:rgb(23.529412%,28.627452%,16.078432%);fill-opacity:1;" d="M 3.988281 14.195312 L 3.070312 14.265625 L 0 14.148438 L 0.847656 10.132812 Z M 3.988281 14.195312 "/>
<path style=" stroke:none;fill-rule:evenodd;fill:rgb(71.764708%,79.215688%,61.56863%);fill-opacity:1;" d="M 3.988281 17.933594 L 3.070312 17.863281 L 0 17.980469 L 0.847656 21.996094 Z M 3.988281 17.933594 "/>
<path style=" stroke:none;fill-rule:evenodd;fill:rgb(29.411766%,38.039216%,17.254902%);fill-opacity:1;" d="M 0.847656 18.054688 L 0 17.980469 L 0 21.753906 L 0.847656 21.996094 Z M 0.847656 18.054688 "/>
<path style=" stroke:none;fill-rule:evenodd;fill:rgb(45.882353%,61.176473%,24.313726%);fill-opacity:1;" d="M 3.988281 21.609375 L 0.847656 21.996094 L 0.847656 18.058594 L 3.988281 17.933594 Z M 3.988281 21.609375 "/>
<path style=" stroke:none;fill-rule:evenodd;fill:rgb(71.764708%,79.215688%,61.56863%);fill-opacity:1;" d="M 9.738281 18.238281 L 7.214844 18.054688 L 2.804688 18.265625 L 5.164062 25.453125 Z M 9.738281 18.238281 "/>
<path style=" stroke:none;fill-rule:evenodd;fill:rgb(29.411766%,38.039216%,17.254902%);fill-opacity:1;" d="M 0.847656 14.066406 L 0 14.148438 L 0 10.375 L 0.847656 10.132812 Z M 0.847656 14.066406 "/>
<path style=" stroke:none;fill-rule:evenodd;fill:rgb(45.882353%,61.176473%,24.313726%);fill-opacity:1;" d="M 3.988281 10.519531 L 0.847656 10.132812 L 0.847656 14.0625 L 3.988281 14.195312 Z M 3.988281 10.519531 "/>
<path style=" stroke:none;fill-rule:evenodd;fill:rgb(23.529412%,28.627452%,16.078432%);fill-opacity:1;" d="M 9.738281 13.890625 L 7.214844 14.066406 L 2.804688 13.863281 L 5.164062 6.6875 Z M 9.738281 13.890625 "/>
<path style=" stroke:none;fill-rule:evenodd;fill:rgb(29.411766%,38.039216%,17.254902%);fill-opacity:1;" d="M 2.804688 7.449219 L 5.164062 6.6875 L 5.164062 13.636719 L 2.804688 13.863281 Z M 2.804688 7.449219 "/>
<path style=" stroke:none;fill-rule:evenodd;fill:rgb(45.882353%,61.176473%,24.313726%);fill-opacity:1;" d="M 9.738281 7.628906 L 5.164062 6.6875 L 5.164062 13.636719 L 9.738281 13.890625 Z M 9.738281 7.628906 "/>
<path style=" stroke:none;fill-rule:evenodd;fill:rgb(29.411766%,38.039216%,17.254902%);fill-opacity:1;" d="M 2.804688 24.625 L 5.164062 25.453125 L 5.164062 18.492188 L 2.804688 18.265625 Z M 2.804688 24.625 "/>
<path style=" stroke:none;fill-rule:evenodd;fill:rgb(45.882353%,61.176473%,24.313726%);fill-opacity:1;" d="M 9.738281 24.558594 L 5.164062 25.453125 L 5.164062 18.492188 L 9.738281 18.238281 Z M 9.738281 24.558594 "/>
<path style=" stroke:none;fill-rule:evenodd;fill:rgb(29.411766%,38.039216%,17.254902%);fill-opacity:1;" d="M 8.082031 29.199219 L 13.996094 32 L 27.859375 16 L 13.996094 0 L 8.082031 2.800781 Z M 8.082031 29.199219 "/>
<path style=" stroke:none;fill-rule:evenodd;fill:rgb(45.882353%,61.176473%,24.313726%);fill-opacity:1;" d="M 28 25.375 L 13.996094 32 L 13.996094 0 L 28 6.625 Z M 28 25.375 "/>
</g>
</svg>
