<svg role="img" viewBox="0 0 28 32" xmlns="http://www.w3.org/2000/svg"><path d="M21.246 19.535V1.242H0v21.25h14.504l4.32-6.726Zm-2.422-3.047L28 30.758V32H9.645v-1.242Zm0 0" style="stroke:none;fill-rule:evenodd;fill:rgb(29.411766%,38.039216%,17.254902%);fill-opacity:1"/><path d="M21.246 18.293V0H0v21.25h14.504l4.32-6.727Zm0 0" style="stroke:none;fill-rule:evenodd;fill:rgb(45.882353%,61.176473%,24.313726%);fill-opacity:1"/><path d="M9.43 3.79h9.394v1.562H9.43Zm0 6.042h9.394v1.566H9.43Zm-7.344-5.77 1.124-1.01 2.258 2.027L4.344 6.09Zm1.156 1.04 3.621-3.25 1.102.988-3.621 3.25Zm.008 5.957 3.617-3.25 1.102.988-3.621 3.25Zm-.004 5.957 3.621-3.246 1.102.988-3.621 3.25ZM2.082 10.02l1.125-1.012 2.258 2.027-1.125 1.012Zm.008 5.96 1.125-1.007L5.473 17l-1.125 1.008Zm7.34 1.465h7.523l1-1.562H9.43Zm0 0" style="stroke:none;fill-rule:evenodd;fill:rgb(100%,100%,100%);fill-opacity:1"/><path d="M18.824 16.488 28 30.758H9.645Zm0 0" style="stroke:none;fill-rule:evenodd;fill:rgb(45.882353%,61.176473%,24.313726%);fill-opacity:1"/><path d="M25.98 29.71H11.668l7.133-11.128Zm-11.898-1.253h9.492l-4.773-7.367Zm4.125-1.664h1.23v1.082h-1.23Zm1.191-2.586-.308 2.164h-.559l-.289-2.164v-1.348h1.16Zm0 0" style="stroke:none;fill-rule:evenodd;fill:rgb(100%,100%,100%);fill-opacity:1"/></svg>