<?xml version="1.0" encoding="UTF-8"?>
<svg xmlns="http://www.w3.org/2000/svg" xmlns:xlink="http://www.w3.org/1999/xlink" width="32" height="32" viewBox="0 0 32 32" version="1.1">
<defs>
<linearGradient id="linear0" gradientUnits="userSpaceOnUse" x1="0" y1="1" x2="1" y2="0" gradientTransform="matrix(32,0,0,32,0,0)">
<stop offset="0" style="stop-color:rgb(74.117649%,3.137255%,8.627451%);stop-opacity:1;"/>
<stop offset="1" style="stop-color:rgb(100%,32.156864%,32.156864%);stop-opacity:1;"/>
</linearGradient>
</defs>
<g id="surface1">
<rect x="0" y="0" width="32" height="32" style="fill:url(#linear0);stroke:none;"/>
<path style=" stroke:none;fill-rule:evenodd;fill:rgb(100%,100%,100%);fill-opacity:1;" d="M 24.851562 20.648438 L 24.148438 21.351562 L 25.292969 22.5 L 21.5 22.5 L 21.5 23.5 L 25.292969 23.5 L 24.148438 24.648438 L 24.851562 25.351562 L 26.851562 23.351562 C 26.949219 23.257812 27 23.132812 27 23 C 27 22.867188 26.949219 22.742188 26.851562 22.648438 Z M 14.5 23.5 L 18.292969 23.5 L 17.148438 24.648438 L 17.851562 25.351562 L 19.851562 23.351562 C 19.949219 23.257812 20 23.132812 20 23 C 20 22.867188 19.949219 22.742188 19.851562 22.648438 L 17.851562 20.648438 L 17.148438 21.351562 L 18.292969 22.5 L 14.5 22.5 Z M 10.851562 25.351562 L 12.851562 23.351562 C 12.949219 23.257812 13 23.132812 13 23 C 13 22.867188 12.949219 22.742188 12.851562 22.648438 L 10.851562 20.648438 L 10.148438 21.351562 L 11.292969 22.5 L 7.5 22.5 L 7.5 23.5 L 11.292969 23.5 L 10.148438 24.648438 Z M 7.5 18.5 L 14.5 18.5 L 14.5 17.5 L 7.5 17.5 Z M 7.5 14 L 14.5 14 L 14.5 13 L 7.5 13 Z M 17 14 L 19 14 L 19 13 L 17 13 Z M 19.5 12 C 19.777344 12 20 12.222656 20 12.5 L 20 14.5 C 20 14.777344 19.777344 15 19.5 15 L 16.5 15 C 16.367188 15 16.238281 14.949219 16.144531 14.855469 C 16.050781 14.761719 16 14.632812 16 14.5 L 16 12.5 C 16 12.222656 16.222656 12 16.5 12 Z M 17 18.5 L 26 18.5 L 26 17.5 L 17 17.5 Z M 27 17 L 27 19 C 27 19.277344 26.777344 19.5 26.5 19.5 L 16.5 19.5 C 16.367188 19.5 16.238281 19.449219 16.144531 19.355469 C 16.050781 19.261719 16 19.132812 16 19 L 16 17 C 16 16.722656 16.222656 16.5 16.5 16.5 L 26.5 16.5 C 26.777344 16.5 27 16.722656 27 17 M 19 8.5 L 20.792969 8.5 L 19 6.707031 Z M 21.5 25 L 22.5 25 L 22.5 26.5 C 22.5 26.777344 22.277344 27 22 27 L 5.5 27 C 5.367188 27 5.238281 26.949219 5.144531 26.855469 C 5.050781 26.761719 5 26.632812 5 26.5 L 5 5.5 C 5 5.222656 5.222656 5 5.5 5 L 18.5 5 C 18.632812 5 18.757812 5.054688 18.851562 5.148438 L 22.351562 8.648438 C 22.449219 8.738281 22.5 8.867188 22.5 9 L 22.5 15.5 L 21.5 15.5 L 21.5 9.5 L 18.5 9.5 C 18.367188 9.5 18.238281 9.449219 18.144531 9.355469 C 18.050781 9.261719 18 9.132812 18 9 L 18 6 L 6 6 L 6 26 L 21.5 26 Z M 11 11.5 C 10.867188 11.5 10.742188 11.445312 10.648438 11.351562 L 9.148438 9.851562 L 9.851562 9.148438 L 11 10.292969 L 13.648438 7.648438 L 14.351562 8.351562 L 11.351562 11.351562 C 11.257812 11.445312 11.132812 11.5 11 11.5 M 11 11.5 "/>
</g>
</svg>
