<svg role="img" viewBox="0 0 46.545 32" xmlns="http://www.w3.org/2000/svg"><path d="M46.547 21.59v2.21c0 4.036-4.215 8.2-9.399 8.2H9.406C4.22 32 .008 27.836.008 23.8v-2.21Zm0 0" style="stroke:none;fill-rule:evenodd;fill:rgb(61.56863%,31.764707%,14.509805%);fill-opacity:1"/><path d="M17.918 0c4.672-.008 8.914 2.86 10.848 7.332a5.786 5.786 0 0 1 6.117-.434c1.96 1.036 3.234 3.11 3.32 5.415 4.692.41 8.344 5.167 8.344 8.94v.821c0 4.059-4.215 8.176-9.422 8.176H9.406C4.215 30.25 0 26.133 0 22.074v-.812c0-3.13 2.504-7.434 6.023-8.504v-.352c.012-3.304 1.274-6.469 3.504-8.793 2.23-2.328 5.25-3.625 8.391-3.613m0 0" style="stroke:none;fill-rule:evenodd;fill:rgb(96.078432%,52.156866%,20.784314%);fill-opacity:1"/><path d="M11.281 14.516h1.844l1.848 9.156 1.98-9.137h1.844l-2.738 11.418h-2.215Zm8.633 0h3.45c2.085 0 3.003 1.386 3.003 3.332 0 1.941-1.144 3.379-3.183 3.379h-1.532v4.726h-1.738Zm1.738 5.336h1.235c.93 0 1.738-.528 1.738-1.97 0-1.237-.469-1.987-1.863-1.987h-1.11Zm12.852 2v.242c0 2.082-.793 4.09-3.356 4.09-2.746 0-3.597-1.86-3.597-5.942s.851-5.941 3.613-5.941c3.09 0 3.3 2.398 3.3 3.586v.23h-1.73v-.195c0-1.055-.304-2.277-1.55-2.227-1.25.047-1.864.832-1.864 4.52 0 3.683.563 4.586 1.883 4.586 1.445 0 1.617-1.7 1.617-2.778v-.191Zm0 0" style="stroke:none;fill-rule:evenodd;fill:rgb(100%,100%,100%);fill-opacity:1"/></svg>