<svg xmlns="http://www.w3.org/2000/svg" width="70" height="80" stroke="#000" stroke-linecap="round" stroke-linejoin="round" fill="#fff" fill-rule="evenodd"><path d="M41.8989 23.5707l18.1776-11.639 9.8616 11.639-17.0028 2.3317-11.0364-2.3317zm-13.8083 0L9.913 11.8732.0515 23.5707l17.0028 2.3318 11.0363-2.3318z" fill="#3c4929" stroke="none"/><path d="M70 46.9562l-35.0052-2.0293L0 46.9562 34.9948 80 70 46.9562z" fill="#b7ca9d" stroke="none"/><path d="M28.0906 23.5707L9.913 20.3025v-8.4293l18.1776 4.6732v7.0243z" fill="#759c3e" stroke="none"/><path d="M.0515 23.5707l9.8615-3.2682v-8.4293L.0515 16.5366v7.0341zm41.8474 0l18.1776-3.2682v-8.4293l-18.1776 4.6732v7.0243z" stroke="none" fill="#4b612c"/><path d="M69.9381 23.5707l-9.8616-3.2682v-8.4293l9.8616 4.6634v7.0341z" fill="#759c3e" stroke="none"/><path d="M0 40h34.9948L70 35.0244 34.9948 24 0 30.6244V40zm34.9948 40L0 63.4341v-16.478l34.9948 4.9268V80z" stroke="none" fill="#4b612c"/><path d="M70 63.4341L34.9948 80V51.8829L70 46.9561v16.478zM70 40H34.9948V24L70 30.6244V40z" stroke="none" fill="#759c3e"/><path d="M53.6257 18.1561l-18.6309 3.9512-18.631-3.9512L34.9948 0l18.6309 18.1561z" fill="#3c4929" stroke="none"/><path d="M16.3638 18.1561l18.631-6.1756V0l-18.631 8.8195v9.3366z" fill="#4b612c" stroke="none"/><path d="M53.6257 18.1561l-18.6309-6.1756V0l18.6309 8.8195v9.3366z" fill="#759c3e" stroke="none"/></svg>