<svg role="img" viewBox="-.5 -.5 79 79" xmlns="http://www.w3.org/2000/svg"><path d="M0 0h78v78H0Z" fill="#e7157b" pointer-events="all"/><path d="m60.43 47.15 2.17.75-1.37 3.96c-.16.47-.6.77-1.09.77H60l-4.43-.56.29-2.28 2.5.31c-.99-1.55-2.84-2.51-5.06-2.51-2.91 0-5.11 1.59-5.61 4.05l-2.25-.46c.73-3.58 3.82-5.89 7.86-5.89 2.84 0 5.24 1.2 6.68 3.14Zm-1.52 7.78 2.25.47c-.73 3.55-3.89 5.93-7.86 5.93-2.59 0-4.87-1.11-6.34-2.9l-.23 1.08-2.25-.48.91-4.3c.13-.61.72-1.01 1.35-.89l4.18.82-.44 2.26-2.11-.42c1.01 1.55 2.83 2.54 4.93 2.54 2.9 0 5.1-1.61 5.61-4.11m8.99.36-1.38-.08c-.56-.02-1.06.35-1.19.9-.3 1.35-.83 2.64-1.58 3.81-.3.48-.21 1.1.21 1.47l1.03.92-2.67 2.68-.92-1.03c-.38-.42-1-.5-1.47-.2-1.18.74-2.46 1.27-3.82 1.58-.55.12-.93.63-.9 1.19l.08 1.37H51.5l.08-1.37c.04-.57-.34-1.07-.89-1.19-1.35-.31-2.64-.84-3.82-1.58-.47-.3-1.09-.22-1.47.2l-.92 1.03-2.67-2.68 1.03-.91c.41-.38.5-1 .2-1.47-.74-1.18-1.27-2.46-1.58-3.82a1.16 1.16 0 0 0-1.18-.9l-1.38.08v-3.78l1.38.07c.51.03 1.06-.34 1.19-.89.3-1.35.84-2.63 1.58-3.81.3-.47.21-1.1-.21-1.47l-1.03-.93 2.67-2.67.93 1.03c.37.42 1 .51 1.47.21 1.17-.74 2.46-1.27 3.81-1.58.55-.12.93-.62.89-1.18l-.08-1.39h3.79l-.08 1.39c-.03.56.35 1.06.9 1.18 1.35.31 2.63.84 3.8 1.58.48.3 1.1.22 1.48-.2l.92-1.04 2.68 2.67-1.03.93c-.42.37-.51.99-.21 1.47.74 1.18 1.28 2.46 1.58 3.81.13.55.66.92 1.19.89l1.38-.07Zm1.94-5.84c-.23-.21-.55-.33-.85-.31l-1.67.1c-.28-.95-.66-1.87-1.13-2.74l1.24-1.11c.24-.21.38-.51.38-.83.01-.31-.11-.62-.33-.84l-4.4-4.4c-.22-.22-.52-.35-.85-.34-.31.01-.61.15-.82.39l-1.11 1.24c-.87-.47-1.79-.85-2.74-1.13l.1-1.67c.01-.31-.1-.62-.32-.85-.21-.23-.51-.36-.83-.36h-6.22c-.32 0-.62.13-.84.36-.21.23-.33.54-.31.85l.1 1.67c-.95.28-1.87.66-2.74 1.13l-1.11-1.24a1.139 1.139 0 0 0-1.67-.05l-4.4 4.4c-.22.22-.35.53-.34.84.01.32.15.62.39.83l1.24 1.11c-.47.87-.85 1.79-1.14 2.74l-1.66-.1c-.31-.02-.62.1-.85.31-.23.22-.36.52-.36.84v6.22c0 .32.13.62.36.84.23.21.54.32.85.31l1.66-.1c.28.96.66 1.87 1.13 2.75l-1.23 1.1c-.24.21-.38.51-.39.82-.01.32.12.63.34.85l4.4 4.4c.22.22.55.35.84.33.32 0 .62-.14.83-.38l1.1-1.24c.88.48 1.79.86 2.75 1.14l-.1 1.66c-.02.31.1.62.31.85.22.23.52.36.84.36h6.22c.32 0 .62-.13.83-.36.22-.23.33-.54.32-.85l-.1-1.66c.96-.28 1.87-.66 2.75-1.13l1.1 1.23c.21.24.51.38.82.38.34.02.63-.11.85-.33l4.4-4.4c.22-.22.34-.53.33-.85 0-.31-.14-.61-.38-.82l-1.24-1.11c.48-.87.86-1.79 1.14-2.74l1.66.1c.3.01.62-.1.85-.31.23-.22.36-.52.36-.84v-6.22c0-.32-.13-.62-.36-.84M10.1 56.07h22.99v2.3H8.95c-.64 0-1.15-.51-1.15-1.15V8.95c0-.63.51-1.15 1.15-1.15h52.87c.63 0 1.15.52 1.15 1.15v25.28h-2.3V10.1H10.1Zm37.93-32.18h-1.15v-2.3h6.89v2.3h-1.15Zm1.15-4.6V14.7h2.3v4.59Zm4.59 14.94v-8.04h1.15c.64 0 1.15-.52 1.15-1.15v-4.6c0-.63-.51-1.15-1.15-1.15h-1.15v-5.74c0-.64-.51-1.15-1.15-1.15h-4.59c-.64 0-1.15.51-1.15 1.15v5.74h-1.15c-.64 0-1.15.52-1.15 1.15v4.6c0 .63.51 1.15 1.15 1.15h1.15v8.04h2.3v-8.04h2.3v8.04Zm-21.83 2.3h-1.15v-2.3h6.89v2.3h-1.15Zm1.15-4.59V14.7h2.29v17.24Zm4.59 9.19v-2.3h1.15c.64 0 1.15-.51 1.15-1.15v-4.59c0-.64-.51-1.15-1.15-1.15h-1.15V13.55c0-.64-.51-1.15-1.15-1.15h-4.59c-.64 0-1.15.51-1.15 1.15v18.39h-1.15c-.64 0-1.15.51-1.15 1.15v4.59c0 .64.51 1.15 1.15 1.15h1.15v12.65h2.3V38.83h2.29v2.3ZM14.7 25.04h6.89v2.3H14.7Zm2.29-2.3V14.7h2.3v8.04Zm0 26.44V29.64h2.3v19.54Zm-1.15 2.3h4.6c.64 0 1.15-.52 1.15-1.15V29.64h1.15c.64 0 1.15-.52 1.15-1.15v-4.6c0-.63-.51-1.15-1.15-1.15h-1.15v-9.19c0-.64-.51-1.15-1.15-1.15h-4.6c-.63 0-1.14.51-1.14 1.15v9.19h-1.15c-.64 0-1.15.52-1.15 1.15v4.6c0 .63.51 1.15 1.15 1.15h1.15v20.69c0 .63.51 1.15 1.14 1.15" fill="#ffffff" pointer-events="all"/></svg>