<?xml version="1.0" encoding="UTF-8"?>
<svg xmlns="http://www.w3.org/2000/svg" xmlns:xlink="http://www.w3.org/1999/xlink" width="32" height="32" viewBox="0 0 32 32" version="1.1">
<g id="surface1">
<path style=" stroke:none;fill-rule:nonzero;fill:rgb(54.901963%,30.980393%,100%);fill-opacity:1;" d="M 22.476562 24.480469 L 23.929688 24.480469 L 23.929688 7.929688 L 22.476562 7.929688 Z M 8.480469 24.480469 L 9.933594 24.480469 L 9.933594 7.929688 L 8.480469 7.929688 Z M 27.570312 17.285156 L 26.273438 16.207031 L 27.570312 15.125 Z M 28.601562 12.914062 C 28.351562 12.796875 28.050781 12.832031 27.828125 13.011719 L 24.667969 15.648438 C 24.503906 15.785156 24.410156 15.988281 24.410156 16.207031 C 24.410156 16.421875 24.503906 16.628906 24.667969 16.761719 L 27.832031 19.398438 C 27.964844 19.507812 28.128906 19.566406 28.296875 19.566406 C 28.402344 19.566406 28.503906 19.542969 28.601562 19.496094 C 28.859375 19.375 29.023438 19.121094 29.023438 18.839844 L 29.023438 13.570312 C 29.023438 13.289062 28.859375 13.035156 28.601562 12.914062 M 4.839844 17.285156 L 4.839844 15.125 L 6.136719 16.207031 Z M 4.582031 13.011719 C 4.363281 12.832031 4.0625 12.796875 3.808594 12.914062 C 3.554688 13.035156 3.390625 13.289062 3.390625 13.570312 L 3.390625 18.839844 C 3.390625 19.121094 3.554688 19.375 3.808594 19.496094 C 3.90625 19.542969 4.007812 19.566406 4.113281 19.566406 C 4.28125 19.566406 4.445312 19.507812 4.578125 19.398438 L 7.742188 16.761719 C 7.90625 16.628906 8 16.421875 8 16.207031 C 8 15.988281 7.90625 15.785156 7.742188 15.648438 Z M 16.207031 30.75 C 8.183594 30.75 1.660156 24.226562 1.660156 16.207031 C 1.660156 8.183594 8.183594 1.660156 16.207031 1.660156 C 24.226562 1.660156 30.75 8.183594 30.75 16.207031 C 30.75 24.226562 24.226562 30.75 16.207031 30.75 M 16.207031 0.207031 C 7.382812 0.207031 0.207031 7.378906 0.207031 16.207031 C 0.207031 25.03125 7.382812 32.207031 16.207031 32.207031 C 25.027344 32.207031 32.207031 25.03125 32.207031 16.207031 C 32.207031 7.378906 25.027344 0.207031 16.207031 0.207031 M 19.292969 19.933594 L 13.117188 19.929688 L 13.117188 15.023438 L 19.292969 15.027344 Z M 15.027344 12.605469 C 15.027344 12.207031 15.164062 11.832031 15.40625 11.558594 C 15.625 11.3125 15.914062 11.171875 16.210938 11.171875 L 16.214844 11.171875 C 16.863281 11.175781 17.386719 11.824219 17.382812 12.625 L 17.382812 13.570312 L 15.023438 13.570312 Z M 20.023438 13.570312 L 18.835938 13.570312 L 18.839844 12.628906 C 18.84375 11.027344 17.664062 9.722656 16.21875 9.714844 L 16.210938 9.714844 C 15.492188 9.714844 14.820312 10.027344 14.316406 10.59375 C 13.839844 11.128906 13.574219 11.84375 13.570312 12.597656 L 13.566406 13.570312 L 12.390625 13.566406 C 12.195312 13.566406 12.011719 13.644531 11.871094 13.78125 C 11.738281 13.921875 11.660156 14.105469 11.660156 14.296875 L 11.660156 20.65625 C 11.660156 21.058594 11.984375 21.382812 12.386719 21.382812 L 20.019531 21.386719 C 20.214844 21.386719 20.398438 21.3125 20.535156 21.171875 C 20.671875 21.039062 20.746094 20.851562 20.746094 20.660156 L 20.75 14.296875 C 20.75 13.898438 20.425781 13.570312 20.023438 13.570312 "/>
</g>
</svg>
