<svg role="img" viewBox="0 0 64.386 62.635" xmlns="http://www.w3.org/2000/svg"><path d="M18.112 62.241A26.038 26.038 0 0 0 17 61.856c-.06-.004-6.97-8.553-8.016-9.915a319.715 319.715 0 0 0-3.307-4.112c-6.17-7.577-5.768-6.894-5.605-9.525.077-1.237.268-2.606.426-3.043.158-.436.884-3.472 1.614-6.747s1.443-6.43 1.583-7.011c.14-.582.495-2.13.789-3.44 1.341-5.972 1.388-6.051 4.374-7.54a448.892 448.892 0 0 1 5.82-2.827l9.91-4.725c7.78-3.71 7.461-3.673 12.178-1.387 1.673.812 4.53 2.186 6.35 3.054 1.819.867 4.438 2.118 5.82 2.78 1.383.66 3.765 1.786 5.293 2.501 2.999 1.402 4.03 2.319 4.486 3.989.244.894.614 2.465 2.131 9.05.285 1.237.87 3.737 1.298 5.556s.974 4.2 1.21 5.292c.238 1.091.566 2.442.73 3.002.503 1.71.373 3.363-.348 4.45-.355.533-2.55 3.313-4.878 6.179-2.328 2.865-4.53 5.601-4.895 6.08-3.505 4.622-6.592 8.137-7.558 8.606-1.027.5-1.658.522-14.155.51-10.7-.01-13.272-.08-14.138-.392m14.42-14.853c1.993-.659 4.132-1.805 5.208-2.792l.578-.53.158 1.022c.378 2.44.253 2.344 3.058 2.344h2.507V34.467c0-14.742.014-14.637-2.195-17.096-2.22-2.472-5.303-3.318-11.157-3.061-3.74.164-6.91.779-9.287 1.802l-1.306.561v2.217c0 1.219.082 2.216.182 2.216s1.022-.235 2.05-.522c2.418-.675 6.835-1.33 8.963-1.33 2.01 0 4.317.631 5.168 1.414 1.22 1.122 1.46 1.965 1.58 5.572.108 3.245.09 3.405-.379 3.225-.27-.104-1.625-.36-3.009-.568-6.494-.98-10.999.005-14.067 3.073-2.001 2.001-2.455 3.24-2.464 6.73-.007 2.427.086 3.115.558 4.134 1.179 2.55 3.292 4.254 5.941 4.98 2.317.635 5.044.522 7.913-.426m-5.36-4.417c-1.342-.503-1.781-.905-2.349-2.153-.962-2.116-.378-5.173 1.23-6.438 1.664-1.309 6.018-1.74 10.183-1.008l1.72.302v6.61l-1.45.865c-3.152 1.884-7.107 2.656-9.335 1.822z" style="fill:#212529"/></svg>