<svg xmlns="http://www.w3.org/2000/svg" width="65" height="76" stroke="none" stroke-linecap="round" stroke-linejoin="round" fill="#fff" fill-rule="evenodd"><path d="M36.5216 45.155c2.5539-3.9425 7.1746-6.3593 12.1648-6.3627h.6425 1.6058V3.1014H0v52.1825h34.5008v-3.4337c-.0011-2.3592.6976-4.6739 2.0208-6.6952z" fill="#4b612c"/><path d="M36.5216 42.1029c2.5407-3.9615 7.1636-6.3983 12.1648-6.412h.6425 1.6058V0H0v52.1826h34.5008V48.798c-.0011-2.3591.6976-4.6739 2.0208-6.6951z" fill="#759c3e"/><path d="M22.6035 9.3535h22.5231v3.8398H22.6035zm0 14.8424h22.5231v3.8398H22.6035zM4.9991 10.0231l2.697-2.4803 5.4128 4.9778-2.6969 2.4803z"/><path d="M7.777 12.5782l8.6776-7.9802 2.6402 2.428-8.6775 7.9801zm.0101 14.6301l8.6775-7.9802 2.6402 2.4281-8.6776 7.9801zm-.0034 14.6302l8.6776-7.9802 2.6401 2.4281-8.6775 7.9801z"/><path d="M4.9957 24.6534l2.6969-2.4803 5.4129 4.9778-2.697 2.4802zm.01 14.6425l2.6971-2.4803 5.4128 4.9778-2.697 2.4802zm17.5978 3.5946h13.4764l.4417-.7876c.7537-1.1415 1.6924-2.1707 2.7835-3.0522H22.6035z"/><path d="M59.5532 58.2377V50.681c-.6682-5.0389-5.32-8.8271-10.84-8.8271s-10.1719 3.7882-10.84 8.8271v7.5567h-5.6207V75H65V58.2377zm-5.353 0H43.0925V50.681c.016-1.3114.6286-2.5567 1.689-3.4338s2.4719-1.3054 3.8916-1.1814c2.9177-.1193 5.4009 1.9343 5.5806 4.6152z" fill="#4b612c"/><path d="M59.5532 55.1856v-7.5567c-.6682-5.039-5.32-8.8271-10.84-8.8271s-10.1719 3.7881-10.84 8.8271v7.5567h-5.6207V71.948H65V55.1856zm-5.353 0H43.0925v-7.5567c.0336-1.3078.6596-2.5431 1.7269-3.4079s2.4789-1.2801 3.8938-1.1458c2.9178-.1192 5.401 1.9344 5.5806 4.6152z" fill="#759c3e"/></svg>