<?xml version="1.0" encoding="UTF-8"?>
<svg xmlns="http://www.w3.org/2000/svg" xmlns:xlink="http://www.w3.org/1999/xlink" width="32" height="32" viewBox="0 0 32 32" version="1.1">
<g id="surface1">
<path style=" stroke:none;fill-rule:nonzero;fill:rgb(54.901963%,30.980393%,100%);fill-opacity:1;" d="M 0.203125 0.203125 L 31.796875 0.203125 L 31.796875 31.796875 L 0.203125 31.796875 Z M 0.203125 0.203125 "/>
<path style=" stroke:none;fill-rule:nonzero;fill:rgb(100%,100%,100%);fill-opacity:1;" d="M 25.40625 17.070312 L 22.929688 16.082031 L 22.929688 25.058594 C 23.652344 24.984375 24.234375 24.746094 24.648438 24.324219 C 25.414062 23.550781 25.40625 22.40625 25.40625 22.398438 Z M 22.03125 25.0625 L 22.03125 16.082031 L 19.554688 17.070312 L 19.554688 22.386719 C 19.558594 22.480469 19.660156 24.796875 22.03125 25.0625 M 26.304688 22.386719 C 26.304688 22.441406 26.328125 23.894531 25.300781 24.949219 C 24.625 25.636719 23.675781 25.988281 22.480469 25.988281 C 19.523438 25.988281 18.6875 23.640625 18.65625 22.398438 L 18.65625 16.765625 C 18.65625 16.582031 18.765625 16.417969 18.941406 16.347656 L 22.316406 15 C 22.421875 14.953125 22.542969 14.953125 22.648438 15 L 26.019531 16.347656 C 26.191406 16.417969 26.304688 16.582031 26.304688 16.765625 Z M 27.652344 21.503906 L 27.652344 15.496094 L 22.480469 13.429688 L 17.308594 15.496094 L 17.308594 21.488281 C 17.304688 21.527344 17.246094 24.292969 18.894531 25.988281 C 19.765625 26.882812 20.96875 27.335938 22.480469 27.335938 C 24 27.335938 25.210938 26.878906 26.082031 25.980469 C 27.730469 24.277344 27.652344 21.53125 27.652344 21.503906 M 26.726562 26.605469 C 25.679688 27.691406 24.25 28.238281 22.480469 28.238281 C 20.714844 28.238281 19.292969 27.691406 18.25 26.613281 C 16.332031 24.636719 16.40625 21.601562 16.410156 21.476562 L 16.410156 15.191406 C 16.410156 15.007812 16.519531 14.839844 16.6875 14.773438 L 22.316406 12.523438 C 22.421875 12.480469 22.542969 12.480469 22.648438 12.523438 L 28.269531 14.773438 C 28.441406 14.839844 28.554688 15.007812 28.554688 15.191406 L 28.554688 21.488281 C 28.558594 21.601562 28.636719 24.628906 26.726562 26.605469 M 8.335938 19.691406 L 15.054688 19.691406 L 15.054688 20.589844 L 8.335938 20.589844 C 5.601562 20.589844 3.511719 18.765625 3.375 16.253906 C 3.363281 16.152344 3.363281 16.03125 3.363281 15.914062 C 3.363281 12.824219 5.519531 11.6875 6.78125 11.285156 C 6.773438 11.144531 6.769531 10.992188 6.769531 10.847656 C 6.769531 8.398438 8.519531 5.828125 10.839844 4.878906 C 13.5625 3.761719 16.433594 4.300781 18.519531 6.324219 C 19.21875 7.003906 19.753906 7.738281 20.144531 8.542969 C 20.6875 8.078125 21.34375 7.824219 22.042969 7.824219 C 23.53125 7.824219 25.101562 8.992188 25.375 11.226562 C 26.351562 11.476562 27.589844 12.003906 28.457031 13.117188 L 27.746094 13.671875 C 26.949219 12.640625 25.738281 12.210938 24.863281 12.035156 C 24.664062 11.992188 24.519531 11.824219 24.507812 11.621094 C 24.390625 9.632812 23.144531 8.726562 22.042969 8.726562 C 21.386719 8.726562 20.804688 9.035156 20.359375 9.621094 C 20.257812 9.753906 20.09375 9.824219 19.933594 9.792969 C 19.769531 9.769531 19.632812 9.660156 19.578125 9.507812 C 19.230469 8.566406 18.679688 7.734375 17.890625 6.96875 C 16.074219 5.203125 13.5625 4.734375 11.179688 5.710938 C 9.179688 6.53125 7.667969 8.738281 7.667969 10.847656 C 7.667969 11.089844 7.683594 11.332031 7.710938 11.566406 C 7.738281 11.789062 7.589844 11.996094 7.371094 12.054688 C 6.210938 12.34375 4.261719 13.226562 4.261719 15.914062 C 4.261719 16.003906 4.261719 16.097656 4.269531 16.1875 C 4.382812 18.222656 6.09375 19.691406 8.335938 19.691406 "/>
</g>
</svg>
