<svg role="img" viewBox="0 0 32 32" xmlns="http://www.w3.org/2000/svg" xmlns:xlink="http://www.w3.org/1999/xlink"><defs><linearGradient gradientTransform="scale(32)" gradientUnits="userSpaceOnUse" id="a" x1="0" x2="1" y1="1" y2="0"><stop offset="0" style="stop-color:rgb(74.117649%,3.137255%,8.627451%);stop-opacity:1"/><stop offset="1" style="stop-color:rgb(100%,32.156864%,32.156864%);stop-opacity:1"/></linearGradient></defs><path d="M0 0h32v32H0z" style="fill:url(#a);stroke:none"/><path d="M26 22.996h-4.5v-2H26Zm-4 3h-4.492l.039-2H22Zm-8.102-.894a4.585 4.585 0 0 1-3.89-2.137c-.672-1.055-.684-2.422-.008-3.598.762-1.164.582-2.726.344-3.722.633.433 1.191 1.257 1.39 1.609a.5.5 0 0 0 .906-.074c.7-1.918.344-3.364-.148-4.301 1.602.613 4.008 2.098 4.008 5.508 0 .133.055.265.156.36a.52.52 0 0 0 .367.14c.387-.02 1.024-.266 1.477-.953v2.062h-3c-.277 0-.5.223-.5.5v3c0 .277.223.5.5.5h1.047l-.008.328c-.652.496-1.59.778-2.64.778m-6.293-6.86C6.871 17.758 6 16.836 6 15.192c0-2.243 1.559-2.977 2.488-3.215a.497.497 0 0 0 .375-.512l-.039-.633c0-1.805 1.242-3.746 2.828-4.418 2.743-1.168 4.688.367 5.399 1.082.578.582 1.031 1.328 1.344 2.211a.498.498 0 0 0 .398.332c.18.027.363-.05.473-.2a1.741 1.741 0 0 1 1.937-.64c.8.266 1.262 1.059 1.262 2.153a.5.5 0 0 0 .41.566c2.102.363 3.125 1.371 3.125 3.078 0 .91-.21 1.625-.629 2.172a.492.492 0 0 0-.371-.172h-5.45c-.148-.59-.57-.941-.843-1.066a.498.498 0 0 0-.703.402c-.078.719-.313 1.102-.54 1.313-.495-5.207-6.148-6.133-6.206-6.141a.499.499 0 0 0-.531.289.512.512 0 0 0 .14.594c.07.054 1.457 1.222 1.102 3.441-.547-.68-1.395-1.469-2.387-1.469a.503.503 0 0 0-.465.688c.008.023.809 2.062.215 3.45h-.863c-.317 0-.614-.087-.864-.255M21 19.996h-1.5v-2h5v2Zm-5 3v-2h4.5v2Zm10.5-3h-1v-1.558c.992-.77 1.5-1.922 1.5-3.442 0-1.476-.629-3.332-3.55-3.984-.106-1.371-.813-2.39-1.934-2.762a2.715 2.715 0 0 0-2.47.41 6.685 6.685 0 0 0-1.284-1.87c-1.778-1.786-4.207-2.27-6.5-1.298-1.961.832-3.438 3.13-3.438 5.371l.02.266C6.758 11.504 5 12.527 5 15.19c0 2.196 1.285 3.38 2.05 3.883a2.54 2.54 0 0 0 1.419.422h.36c-.536 1.332-.423 2.817.335 4.008a5.588 5.588 0 0 0 4.734 2.598c.973 0 1.875-.211 2.622-.594l-.02.98a.502.502 0 0 0 .5.508h5.5c.277 0 .5-.223.5-.5v-2.5h3.5c.277 0 .5-.223.5-.5v-3c0-.277-.223-.5-.5-.5m0 0" style="stroke:none;fill-rule:evenodd;fill:rgb(100%,100%,100%);fill-opacity:1"/></svg>