<?xml version="1.0" encoding="UTF-8"?>
<svg xmlns="http://www.w3.org/2000/svg" xmlns:xlink="http://www.w3.org/1999/xlink" width="32" height="32" viewBox="0 0 32 32" version="1.1">
<defs>
<linearGradient id="linear0" gradientUnits="userSpaceOnUse" x1="0" y1="1" x2="1" y2="0" gradientTransform="matrix(32,0,0,32,0,0)">
<stop offset="0" style="stop-color:rgb(74.117649%,3.137255%,8.627451%);stop-opacity:1;"/>
<stop offset="1" style="stop-color:rgb(100%,32.156864%,32.156864%);stop-opacity:1;"/>
</linearGradient>
</defs>
<g id="surface1">
<rect x="0" y="0" width="32" height="32" style="fill:url(#linear0);stroke:none;"/>
<path style=" stroke:none;fill-rule:evenodd;fill:rgb(100%,100%,100%);fill-opacity:1;" d="M 15.234375 16.476562 C 15.234375 17.296875 14.570312 17.964844 13.753906 17.964844 C 12.9375 17.960938 12.273438 17.296875 12.277344 16.476562 C 12.277344 15.65625 12.941406 14.988281 13.753906 14.988281 C 14.570312 14.988281 15.234375 15.65625 15.234375 16.476562 M 14.546875 12.441406 C 14.125 12.441406 13.785156 12.097656 13.785156 11.675781 C 13.785156 11.253906 14.125 10.910156 14.546875 10.910156 C 14.964844 10.910156 15.304688 11.253906 15.304688 11.675781 C 15.304688 12.097656 14.964844 12.441406 14.546875 12.441406 M 13.90625 19.738281 C 11.019531 19.738281 8.667969 17.371094 8.667969 14.464844 C 8.667969 11.558594 11.019531 9.191406 13.90625 9.191406 C 16.792969 9.191406 19.144531 11.558594 19.144531 14.464844 C 19.144531 15.179688 19 15.863281 18.742188 16.484375 L 16.234375 16.117188 C 16.128906 15.375 15.699219 14.71875 15.066406 14.324219 L 15.066406 13.398438 C 15.914062 13.132812 16.445312 12.289062 16.316406 11.410156 C 16.183594 10.527344 15.433594 9.875 14.546875 9.863281 C 13.652344 9.867188 12.898438 10.523438 12.765625 11.40625 C 12.636719 12.289062 13.171875 13.136719 14.027344 13.398438 L 14.027344 13.96875 C 13.9375 13.960938 13.847656 13.941406 13.753906 13.941406 C 13.078125 13.941406 12.429688 14.21875 11.960938 14.703125 L 11.578125 14.308594 C 11.808594 13.9375 11.945312 13.503906 11.945312 13.035156 C 11.945312 12.21875 11.539062 11.46875 10.855469 11.027344 L 10.316406 11.871094 C 10.710938 12.128906 10.949219 12.5625 10.949219 13.035156 C 10.949219 13.800781 10.332031 14.421875 9.574219 14.421875 L 9.574219 15.429688 C 10.023438 15.429688 10.464844 15.296875 10.84375 15.050781 L 11.398438 15.617188 C 11.300781 15.886719 11.238281 16.171875 11.238281 16.476562 C 11.238281 17.871094 12.363281 19 13.753906 19.007812 C 14.902344 19.007812 15.863281 18.222656 16.164062 17.164062 L 18.210938 17.460938 C 17.238281 18.882812 15.628906 19.734375 13.90625 19.738281 M 13.90625 8.148438 C 10.445312 8.148438 7.632812 10.980469 7.632812 14.464844 C 7.632812 17.949219 10.445312 20.785156 13.90625 20.785156 C 17.367188 20.785156 20.179688 17.949219 20.179688 14.464844 C 20.179688 10.980469 17.367188 8.148438 13.90625 8.148438 M 25.679688 25.089844 C 25.269531 25.546875 24.570312 25.582031 24.113281 25.171875 L 19.382812 20.871094 C 19.945312 20.386719 20.441406 19.828125 20.859375 19.214844 L 25.597656 23.511719 C 26.050781 23.925781 26.085938 24.632812 25.679688 25.089844 M 6.539062 14.464844 C 6.539062 10.375 9.84375 7.046875 13.90625 7.046875 C 17.96875 7.046875 21.273438 10.375 21.273438 14.464844 C 21.273438 18.558594 17.96875 21.886719 13.90625 21.886719 C 9.84375 21.886719 6.539062 18.558594 6.539062 14.464844 M 26.292969 22.738281 L 21.394531 18.292969 C 21.996094 17.105469 22.3125 15.796875 22.3125 14.464844 C 22.3125 9.796875 18.542969 6 13.90625 6 C 9.269531 6 5.5 9.796875 5.5 14.464844 C 5.5 19.132812 9.269531 22.929688 13.90625 22.929688 C 15.558594 22.933594 17.171875 22.441406 18.542969 21.519531 L 23.421875 25.949219 C 23.828125 26.316406 24.34375 26.5 24.855469 26.5 C 25.464844 26.5 26.042969 26.242188 26.453125 25.789062 C 27.242188 24.898438 27.167969 23.542969 26.292969 22.738281 "/>
</g>
</svg>
