<svg xmlns="http://www.w3.org/2000/svg" width="32" height="37" stroke="none" stroke-linecap="round" stroke-linejoin="round" fill="#fff" fill-rule="evenodd"><path d="M1.6052 6.8105L0 7.5702v21.431l1.6052.7597L8.1008 18.841 1.6052 6.8105z" fill="#9d5025"/><path d="M5.3459 28.9302l-3.7407.8307V6.8105l3.7407.8085v21.3112z" fill="#f58536"/><path d="M3.3746 5.9708l1.9712-.9285 9.3636 14.2074L5.3458 31.529l-1.9712-.9285V5.9708z" fill="#9d5025"/><path d="M10.0111 30.2806L5.3458 31.529V5.0423l4.6653 1.2528v23.9855z" fill="#f58536"/><path d="M7.5424 3.9983l2.4688-1.1684L23.824 20.8046 10.0112 33.7415l-2.4688-1.1684V3.9983z" fill="#9d5025"/><path d="M15.9954 31.6712l-5.9842 2.0703V2.8299l5.9842 2.0747v26.7666z" fill="#f58536"/><path d="M12.8037 1.5104L15.9952 0l14.944 19.3209-14.944 17.2505-3.1915-1.5104V1.5104z" fill="#9d5025"/><path d="M32 28.9968l-16.0047 7.5746V0L32 7.5746v21.4222z" fill="#f58536"/></svg>