<svg xmlns="http://www.w3.org/2000/svg" width="80" height="80" stroke="#000" stroke-linecap="round" stroke-linejoin="round" fill="#fff" fill-rule="evenodd"><g fill="#9d5025" stroke="none"><path d="M0 41.5783C0 20.2926 17.84 3.1565 40 3.1565s40 17.1361 40 38.4218-17.84 38.4216-40 38.4216S0 62.8639 0 41.5783z"/><path d="M0 38.4218h80v3.1565H0z"/></g><path d="M0 38.4218C0 17.1361 17.84 0 40 0s40 17.1361 40 38.4218-17.84 38.4216-40 38.4216S0 59.7074 0 38.4218z" fill="#f58536" stroke="none"/><path d="M12.7243 22.0076h0v2.8409h3.6412v30.3031h-3.6412v2.8409H19.77V22.0076h-7.0457 0 0zm54.5514 3.9267h0-44.3246v23.7753h4.3246v4.7853h18.8631v-4.7853h6.8089v4.7853h8.1893v-4.7853h6.1387V25.9343h0 0z" stroke="none"/><path d="M27.7227 29.4318h0 34.0978v16.5656H27.7227V29.4318h0 0z" fill="#d9a741" stroke="none"/><path d="M31.3638 32.0455h0 11.8173v11.1111H31.3638V32.0455h0 0zm15.4583 0h0 11.8174v11.1111H46.8221V32.0455h0 0z" stroke="none"/></svg>