<svg role="img" viewBox="0 0 32 32" xmlns="http://www.w3.org/2000/svg" xmlns:xlink="http://www.w3.org/1999/xlink"><defs><linearGradient gradientTransform="scale(32)" gradientUnits="userSpaceOnUse" id="a" x1="0" x2="1" y1="1" y2="0"><stop offset="0" style="stop-color:rgb(74.117649%,3.137255%,8.627451%);stop-opacity:1"/><stop offset="1" style="stop-color:rgb(100%,32.156864%,32.156864%);stop-opacity:1"/></linearGradient></defs><path d="M0 0h32v32H0z" style="fill:url(#a);stroke:none"/><path d="M15.621 17.32a.378.378 0 1 0 .758 0 .377.377 0 0 0-.379-.379.377.377 0 0 0-.379.38m-1 0a1.379 1.379 0 1 1 2.758 0 1.38 1.38 0 0 1-.879 1.282V20h-1v-1.398c-.516-.2-.879-.7-.879-1.282M19.5 15.5h-7v5h7v-1h-1v-1h1v-1h-1v-1h1Zm-6-1h5v-2c0-.434-.29-.93-.773-1.328-.504-.422-1.153-.672-1.727-.672-1.191 0-2.5 1.047-2.5 2Zm6-2v2h.5c.277 0 .5.223.5.5v6c0 .277-.223.5-.5.5h-8a.498.498 0 0 1-.5-.5v-6c0-.277.223-.5.5-.5h.5v-2c0-1.516 1.734-3 3.5-3 .813 0 1.676.328 2.367.902.719.594 1.133 1.36 1.133 2.098M7.746 21.977l.809-.59A9.079 9.079 0 0 1 6.84 16.5H8v-1H6.84a9.065 9.065 0 0 1 1.715-4.86l-.809-.585A10.07 10.07 0 0 0 5.84 15.5H5v1h.84a10.05 10.05 0 0 0 1.906 5.477m13.629 1.484a9.116 9.116 0 0 1-4.875 1.715V24h-1v1.176a9.105 9.105 0 0 1-4.875-1.715l-.586.809a10.088 10.088 0 0 0 5.461 1.906V27h1v-.824a10.12 10.12 0 0 0 5.46-1.906ZM10.625 8.57A9.11 9.11 0 0 1 15.5 6.85V8h1V6.852a9.12 9.12 0 0 1 4.875 1.718l.586-.808a10.093 10.093 0 0 0-5.461-1.91V5h-1v.852a10.093 10.093 0 0 0-5.46 1.91ZM26.16 15.5a10.07 10.07 0 0 0-1.906-5.445l-.809.586A9.098 9.098 0 0 1 25.16 15.5H24v1h1.16a9.079 9.079 0 0 1-1.715 4.887l.809.59A10.107 10.107 0 0 0 26.16 16.5H27v-1Zm-3.648-5.293 3.082-3.078-.707-.707L21.805 9.5ZM9.484 21.82l-3.078 3.082.707.707 3.078-3.082Zm2.137-10.902L5.793 5.086l-.707.707 5.828 5.832Zm10.031 10.027 5.262 5.262-.707.707-5.262-5.262Zm0 0" style="stroke:none;fill-rule:evenodd;fill:rgb(100%,100%,100%);fill-opacity:1"/></svg>