<?xml version="1.0" encoding="UTF-8"?>
<svg xmlns="http://www.w3.org/2000/svg" xmlns:xlink="http://www.w3.org/1999/xlink" width="32" height="32" viewBox="0 0 32 32" version="1.1">
<defs>
<linearGradient id="linear0" gradientUnits="userSpaceOnUse" x1="0" y1="1" x2="1" y2="0" gradientTransform="matrix(32,0,0,32,0,0)">
<stop offset="0" style="stop-color:rgb(74.117649%,3.137255%,8.627451%);stop-opacity:1;"/>
<stop offset="1" style="stop-color:rgb(100%,32.156864%,32.156864%);stop-opacity:1;"/>
</linearGradient>
</defs>
<g id="surface1">
<rect x="0" y="0" width="32" height="32" style="fill:url(#linear0);stroke:none;"/>
<path style=" stroke:none;fill-rule:evenodd;fill:rgb(100%,100%,100%);fill-opacity:1;" d="M 26 22.996094 L 21.5 22.996094 L 21.5 20.996094 L 26 20.996094 Z M 22 25.996094 L 17.507812 25.996094 L 17.546875 23.996094 L 22 23.996094 Z M 13.898438 25.101562 C 12.320312 25.105469 10.851562 24.300781 10.007812 22.964844 C 9.335938 21.910156 9.324219 20.542969 10 19.367188 C 10.761719 18.203125 10.582031 16.640625 10.34375 15.644531 C 10.976562 16.078125 11.535156 16.902344 11.734375 17.253906 C 11.828125 17.425781 12.015625 17.523438 12.210938 17.507812 C 12.40625 17.492188 12.574219 17.363281 12.640625 17.179688 C 13.339844 15.261719 12.984375 13.816406 12.492188 12.878906 C 14.09375 13.492188 16.5 14.976562 16.5 18.386719 C 16.5 18.519531 16.554688 18.652344 16.65625 18.746094 C 16.753906 18.839844 16.886719 18.890625 17.023438 18.886719 C 17.410156 18.867188 18.046875 18.621094 18.5 17.933594 L 18.5 19.996094 L 15.5 19.996094 C 15.222656 19.996094 15 20.21875 15 20.496094 L 15 23.496094 C 15 23.773438 15.222656 23.996094 15.5 23.996094 L 16.546875 23.996094 L 16.539062 24.324219 C 15.886719 24.820312 14.949219 25.101562 13.898438 25.101562 M 7.605469 18.242188 C 6.871094 17.757812 6 16.835938 6 15.191406 C 6 12.949219 7.558594 12.214844 8.488281 11.976562 C 8.71875 11.917969 8.878906 11.703125 8.863281 11.464844 L 8.824219 10.832031 C 8.824219 9.027344 10.066406 7.085938 11.652344 6.414062 C 14.394531 5.246094 16.339844 6.78125 17.050781 7.496094 C 17.628906 8.078125 18.082031 8.824219 18.394531 9.707031 C 18.457031 9.882812 18.609375 10.011719 18.792969 10.039062 C 18.972656 10.066406 19.15625 9.988281 19.265625 9.839844 C 19.707031 9.230469 20.488281 8.972656 21.203125 9.199219 C 22.003906 9.464844 22.464844 10.257812 22.464844 11.351562 C 22.425781 11.621094 22.605469 11.871094 22.875 11.917969 C 24.976562 12.28125 26 13.289062 26 14.996094 C 26 15.90625 25.789062 16.621094 25.371094 17.167969 C 25.277344 17.058594 25.144531 16.996094 25 16.996094 L 19.550781 16.996094 C 19.402344 16.40625 18.980469 16.054688 18.707031 15.929688 C 18.5625 15.863281 18.390625 15.871094 18.253906 15.949219 C 18.113281 16.03125 18.019531 16.171875 18.003906 16.332031 C 17.925781 17.050781 17.691406 17.433594 17.464844 17.644531 C 16.96875 12.4375 11.316406 11.511719 11.257812 11.503906 C 11.035156 11.46875 10.820312 11.589844 10.726562 11.792969 C 10.636719 12 10.695312 12.242188 10.867188 12.386719 C 10.9375 12.441406 12.324219 13.609375 11.96875 15.828125 C 11.421875 15.148438 10.574219 14.359375 9.582031 14.359375 C 9.414062 14.359375 9.261719 14.441406 9.167969 14.582031 C 9.074219 14.71875 9.054688 14.890625 9.117188 15.046875 C 9.125 15.070312 9.925781 17.109375 9.332031 18.496094 L 8.46875 18.496094 C 8.152344 18.496094 7.855469 18.410156 7.605469 18.242188 M 21 19.996094 L 19.5 19.996094 L 19.5 17.996094 L 24.5 17.996094 L 24.5 19.996094 Z M 16 22.996094 L 16 20.996094 L 20.5 20.996094 L 20.5 22.996094 Z M 26.5 19.996094 L 25.5 19.996094 L 25.5 18.4375 C 26.492188 17.667969 27 16.515625 27 14.996094 C 27 13.519531 26.371094 11.664062 23.449219 11.011719 C 23.34375 9.640625 22.636719 8.621094 21.515625 8.25 C 20.675781 7.976562 19.753906 8.128906 19.046875 8.660156 C 18.726562 7.96875 18.292969 7.335938 17.761719 6.789062 C 15.984375 5.003906 13.554688 4.519531 11.261719 5.492188 C 9.300781 6.324219 7.824219 8.621094 7.824219 10.863281 L 7.84375 11.128906 C 6.757812 11.503906 5 12.527344 5 15.191406 C 5 17.386719 6.285156 18.570312 7.050781 19.074219 C 7.46875 19.351562 7.964844 19.5 8.46875 19.496094 L 8.828125 19.496094 C 8.292969 20.828125 8.40625 22.3125 9.164062 23.503906 C 10.191406 25.125 11.980469 26.105469 13.898438 26.101562 C 14.871094 26.101562 15.773438 25.890625 16.519531 25.507812 L 16.5 26.488281 C 16.5 26.621094 16.550781 26.75 16.644531 26.84375 C 16.738281 26.941406 16.867188 26.996094 17 26.996094 L 22.5 26.996094 C 22.777344 26.996094 23 26.773438 23 26.496094 L 23 23.996094 L 26.5 23.996094 C 26.777344 23.996094 27 23.773438 27 23.496094 L 27 20.496094 C 27 20.21875 26.777344 19.996094 26.5 19.996094 M 26.5 19.996094 "/>
</g>
</svg>
