<?xml version="1.0" encoding="UTF-8"?>
<svg xmlns="http://www.w3.org/2000/svg" xmlns:xlink="http://www.w3.org/1999/xlink" width="32" height="32" viewBox="0 0 32 32" version="1.1">
<defs>
<linearGradient id="linear0" gradientUnits="userSpaceOnUse" x1="0" y1="1" x2="1" y2="0" gradientTransform="matrix(32,0,0,32,0,0)">
<stop offset="0" style="stop-color:rgb(74.117649%,3.137255%,8.627451%);stop-opacity:1;"/>
<stop offset="1" style="stop-color:rgb(100%,32.156864%,32.156864%);stop-opacity:1;"/>
</linearGradient>
</defs>
<g id="surface1">
<rect x="0" y="0" width="32" height="32" style="fill:url(#linear0);stroke:none;"/>
<path style=" stroke:none;fill-rule:evenodd;fill:rgb(100%,100%,100%);fill-opacity:1;" d="M 13.464844 20.199219 C 13.90625 20.507812 14.417969 20.789062 14.984375 21.042969 C 14.746094 19.855469 14.585938 17.800781 15.65625 15.835938 C 16.453125 14.371094 16.582031 12.707031 16 11.496094 C 15.773438 11.023438 15.449219 10.640625 15.039062 10.347656 C 15.417969 11.226562 15.632812 12.5 15.058594 14.136719 C 14.992188 14.320312 14.824219 14.453125 14.625 14.46875 C 14.433594 14.484375 14.238281 14.378906 14.144531 14.207031 C 13.980469 13.898438 13.523438 13.203125 13.003906 12.789062 C 13.207031 13.726562 13.335938 15.132812 12.667969 16.183594 C 12.632812 16.238281 12.597656 16.296875 12.566406 16.351562 C 11.832031 17.644531 12.226562 19.335938 13.464844 20.199219 Z M 17.234375 12.078125 C 17.519531 13.402344 17.28125 14.941406 16.535156 16.3125 C 15.453125 18.304688 15.851562 20.472656 16.082031 21.324219 C 17.058594 21.160156 19.53125 20.546875 20.058594 18.5 C 20.566406 16.539062 20.261719 15.402344 19.90625 14.789062 C 19.550781 16.0625 18.902344 16.597656 18.867188 16.625 C 18.707031 16.753906 18.480469 16.769531 18.304688 16.667969 C 18.125 16.5625 18.027344 16.359375 18.058594 16.15625 C 18.363281 14.269531 17.878906 12.960938 17.234375 12.078125 Z M 11.824219 15.644531 C 12.628906 14.382812 11.789062 12.164062 11.78125 12.140625 C 11.71875 11.988281 11.742188 11.8125 11.832031 11.675781 C 11.925781 11.539062 12.082031 11.460938 12.246094 11.460938 C 13.121094 11.460938 13.871094 12.136719 14.371094 12.757812 C 14.636719 10.761719 13.433594 9.714844 13.371094 9.664062 C 13.199219 9.519531 13.144531 9.273438 13.242188 9.070312 C 13.335938 8.863281 13.558594 8.746094 13.78125 8.789062 C 14.515625 8.917969 15.167969 9.199219 15.707031 9.605469 C 16.183594 9.816406 18.566406 11.023438 19.0625 13.953125 C 19.078125 13.867188 19.085938 13.773438 19.097656 13.679688 C 19.117188 13.511719 19.214844 13.367188 19.363281 13.289062 C 19.511719 13.210938 19.6875 13.210938 19.835938 13.292969 C 19.929688 13.34375 22.101562 14.589844 21.027344 18.75 C 20.191406 21.996094 15.9375 22.363281 15.757812 22.378906 L 15.757812 22.375 C 15.746094 22.375 15.734375 22.378906 15.726562 22.378906 C 15.667969 22.378906 15.613281 22.371094 15.558594 22.351562 C 14.53125 21.984375 13.632812 21.535156 12.890625 21.019531 C 11.234375 19.863281 10.710938 17.59375 11.699219 15.855469 C 11.738281 15.785156 11.78125 15.714844 11.824219 15.644531 Z M 7.746094 21.976562 L 8.554688 21.386719 C 7.515625 19.949219 6.929688 18.269531 6.835938 16.5 L 8 16.5 L 8 15.5 L 6.839844 15.5 C 6.933594 13.742188 7.519531 12.070312 8.554688 10.640625 L 7.746094 10.054688 C 6.585938 11.65625 5.9375 13.53125 5.839844 15.5 L 5 15.5 L 5 16.5 L 5.835938 16.5 C 5.929688 18.480469 6.578125 20.367188 7.746094 21.976562 Z M 21.375 23.460938 C 19.941406 24.496094 18.265625 25.082031 16.5 25.175781 L 16.5 24 L 15.5 24 L 15.5 25.175781 C 13.734375 25.082031 12.058594 24.496094 10.625 23.460938 L 10.039062 24.269531 C 11.644531 25.429688 13.523438 26.082031 15.5 26.175781 L 15.5 27 L 16.5 27 L 16.5 26.175781 C 18.476562 26.078125 20.355469 25.429688 21.960938 24.269531 Z M 10.625 8.570312 C 12.058594 7.53125 13.734375 6.949219 15.5 6.855469 L 15.5 8 L 16.5 8 L 16.5 6.855469 C 18.265625 6.949219 19.941406 7.53125 21.375 8.570312 L 21.960938 7.761719 C 20.355469 6.597656 18.476562 5.949219 16.5 5.855469 L 16.5 5 L 15.5 5 L 15.5 5.855469 C 13.523438 5.949219 11.644531 6.597656 10.039062 7.761719 Z M 26.160156 15.5 C 26.0625 13.53125 25.414062 11.65625 24.253906 10.054688 L 23.445312 10.640625 C 24.480469 12.070312 25.0625 13.742188 25.160156 15.5 L 24 15.5 L 24 16.5 L 25.160156 16.5 C 25.070312 18.269531 24.484375 19.949219 23.445312 21.386719 L 24.253906 21.976562 C 25.417969 20.367188 26.066406 18.480469 26.160156 16.5 L 27 16.5 L 27 15.5 Z M 22.511719 10.207031 L 25.59375 7.128906 L 24.886719 6.421875 L 21.804688 9.5 Z M 9.484375 21.820312 L 6.40625 24.902344 L 7.113281 25.609375 L 10.191406 22.527344 Z M 11.207031 10.5 L 5.792969 5.085938 L 5.085938 5.792969 L 10.5 11.207031 Z M 21.5 20.792969 L 26.914062 26.207031 L 26.207031 26.914062 L 20.792969 21.5 Z M 21.5 20.792969 "/>
</g>
</svg>
