<svg role="img" viewBox="0 0 32 32" xmlns="http://www.w3.org/2000/svg"><path d="M0 16.633C0 8.117 7.137 1.262 16 1.262s16 6.855 16 15.37C32 25.146 24.863 32 16 32S0 25.145 0 16.633m0-1.266h32v1.266H0Zm0 0" style="stroke:none;fill-rule:evenodd;fill:rgb(61.56863%,31.37255%,14.509805%);fill-opacity:1"/><path d="M0 15.367C0 6.855 7.137 0 16 0s16 6.855 16 15.367c0 8.516-7.137 15.371-16 15.371S0 23.883 0 15.368m0 0" style="stroke:none;fill-rule:evenodd;fill:rgb(96.078432%,52.156866%,21.176471%);fill-opacity:1"/><path d="M5.09 8.805v1.133h1.457v12.125H5.09v1.132h2.816V8.805Zm21.82 1.57H9.18v9.508h1.73v1.914h7.547v-1.914h2.723v1.914h3.273v-1.914h2.457Zm0 0" style="stroke:none;fill-rule:evenodd;fill:rgb(100%,100%,100%);fill-opacity:1"/><path d="M11.09 11.773h13.637v6.625H11.09Zm0 0" style="stroke:none;fill-rule:evenodd;fill:rgb(85.09804%,65.490198%,25.490198%);fill-opacity:1"/><path d="M12.547 12.816h4.726v4.446h-4.726Zm6.183 0h4.727v4.446H18.73Zm0 0" style="stroke:none;fill-rule:evenodd;fill:rgb(100%,100%,100%);fill-opacity:1"/></svg>