<?xml version="1.0" encoding="UTF-8"?>
<svg xmlns="http://www.w3.org/2000/svg" xmlns:xlink="http://www.w3.org/1999/xlink" width="32" height="32" viewBox="0 0 32 32" version="1.1">
<g id="surface1">
<path style=" stroke:none;fill-rule:evenodd;fill:rgb(61.56863%,31.37255%,14.509805%);fill-opacity:1;" d="M 0 1.054688 L 32 1.054688 L 32 9.585938 L 0 9.585938 Z M 0 1.054688 "/>
<path style=" stroke:none;fill-rule:evenodd;fill:rgb(96.078432%,52.156866%,21.176471%);fill-opacity:1;" d="M 0 0 L 32 0 L 32 8.304688 L 0 8.304688 Z M 0 0 "/>
<path style=" stroke:none;fill-rule:evenodd;fill:rgb(61.56863%,31.37255%,14.509805%);fill-opacity:1;" d="M 0 12.128906 L 32 12.128906 L 32 21.039062 L 0 21.039062 Z M 0 12.128906 "/>
<path style=" stroke:none;fill-rule:evenodd;fill:rgb(96.078432%,52.156866%,21.176471%);fill-opacity:1;" d="M 0 11.449219 L 32 11.449219 L 32 19.753906 L 0 19.753906 Z M 0 11.449219 "/>
<path style=" stroke:none;fill-rule:evenodd;fill:rgb(61.56863%,31.37255%,14.509805%);fill-opacity:1;" d="M 0 23.375 L 32 23.375 L 32 32 L 0 32 Z M 0 23.375 "/>
<path style=" stroke:none;fill-rule:evenodd;fill:rgb(96.078432%,52.156866%,21.176471%);fill-opacity:1;" d="M 0 22.40625 L 32 22.40625 L 32 30.710938 L 0 30.710938 Z M 0 22.40625 "/>
<path style=" stroke:none;fill-rule:evenodd;fill:rgb(100%,100%,100%);fill-opacity:1;" d="M 3.945312 6.632812 L 3.210938 6.632812 L 3.210938 2.957031 L 2.257812 2.957031 L 2.257812 2.441406 L 2.328125 2.441406 C 2.769531 2.441406 3.285156 2.324219 3.402344 1.683594 L 3.402344 1.582031 L 3.9375 1.582031 Z M 8.066406 2.316406 C 7.246094 3.617188 6.75 5.097656 6.628906 6.632812 L 5.855469 6.632812 C 6 5.121094 6.511719 3.667969 7.355469 2.402344 L 5.359375 2.402344 L 5.359375 1.671875 L 8.066406 1.671875 Z M 11.335938 6.632812 L 8.667969 6.632812 C 8.667969 4.433594 10.578125 4.484375 10.578125 2.910156 C 10.578125 2.496094 10.417969 2.148438 10.011719 2.148438 C 9.460938 2.148438 9.375 2.667969 9.375 3.1875 L 8.675781 3.1875 C 8.675781 2.179688 9.050781 1.558594 10.023438 1.558594 C 10.371094 1.511719 10.714844 1.636719 10.964844 1.898438 C 11.21875 2.160156 11.34375 2.53125 11.316406 2.90625 C 11.316406 4.589844 9.828125 4.691406 9.484375 5.933594 L 11.335938 5.933594 Z M 12.878906 6.632812 L 12.148438 6.632812 L 12.148438 5.695312 L 12.882812 5.695312 Z M 15.546875 6.632812 L 14.816406 6.632812 L 14.816406 2.957031 L 13.859375 2.957031 L 13.859375 2.441406 L 13.929688 2.441406 C 14.371094 2.441406 14.886719 2.324219 15.003906 1.683594 L 15.003906 1.582031 L 15.542969 1.582031 Z M 18.300781 6.730469 C 17.140625 6.730469 16.925781 5.761719 16.925781 4.308594 C 16.925781 2.855469 17.179688 1.566406 18.363281 1.566406 C 19.164062 1.566406 19.59375 1.96875 19.59375 2.796875 L 18.867188 2.796875 C 18.867188 2.507812 18.742188 2.136719 18.390625 2.136719 C 17.703125 2.136719 17.664062 3.144531 17.664062 3.882812 C 17.832031 3.546875 18.179688 3.34375 18.554688 3.363281 C 19.179688 3.363281 19.679688 3.882812 19.679688 4.875 C 19.699219 6.042969 19.269531 6.738281 18.300781 6.738281 Z M 21.195312 6.632812 L 20.460938 6.632812 L 20.460938 5.695312 L 21.195312 5.695312 Z M 23.34375 6.730469 C 22.464844 6.730469 21.976562 6.121094 21.976562 4.136719 C 21.976562 2.152344 22.453125 1.542969 23.34375 1.542969 C 24.230469 1.542969 24.710938 2.160156 24.710938 4.136719 C 24.710938 6.113281 24.21875 6.738281 23.34375 6.738281 Z M 26.210938 6.632812 L 25.488281 6.632812 L 25.488281 5.695312 L 26.226562 5.695312 Z M 28.355469 6.730469 C 27.476562 6.730469 26.988281 6.121094 26.988281 4.136719 C 26.988281 2.152344 27.46875 1.542969 28.355469 1.542969 C 29.246094 1.542969 29.722656 2.160156 29.722656 4.136719 C 29.722656 6.113281 29.246094 6.738281 28.371094 6.738281 Z M 28.371094 13.035156 C 29.246094 13.035156 29.738281 13.644531 29.738281 15.628906 C 29.738281 17.613281 29.261719 18.222656 28.371094 18.222656 C 27.484375 18.222656 26.996094 17.589844 26.996094 15.613281 C 26.996094 13.636719 27.472656 13.035156 28.371094 13.035156 M 25.503906 17.148438 L 26.238281 17.148438 L 26.238281 18.109375 L 25.488281 18.109375 Z M 22.195312 13.890625 L 22.265625 13.890625 C 22.707031 13.890625 23.222656 13.777344 23.34375 13.132812 L 23.34375 13.035156 L 23.878906 13.035156 L 23.878906 18.109375 L 23.128906 18.109375 L 23.128906 14.417969 L 22.171875 14.417969 Z M 20.472656 17.148438 L 21.210938 17.148438 L 21.210938 18.109375 L 20.460938 18.109375 Z M 18.390625 13.035156 C 19.191406 13.035156 19.625 13.433594 19.625 14.265625 L 18.867188 14.265625 C 18.867188 13.972656 18.742188 13.605469 18.390625 13.605469 C 17.703125 13.605469 17.664062 14.613281 17.664062 15.347656 C 17.832031 15.015625 18.179688 14.8125 18.554688 14.828125 C 19.179688 14.828125 19.679688 15.347656 19.679688 16.339844 C 19.679688 17.507812 19.25 18.199219 18.28125 18.199219 C 17.125 18.199219 16.910156 17.226562 16.910156 15.773438 C 16.910156 14.320312 17.179688 13.035156 18.390625 13.035156 M 13.871094 13.890625 L 13.945312 13.890625 C 14.382812 13.890625 14.902344 13.777344 15.019531 13.132812 L 15.019531 13.035156 L 15.554688 13.035156 L 15.554688 18.109375 L 14.816406 18.109375 L 14.816406 14.417969 L 13.859375 14.417969 Z M 12.152344 17.148438 L 12.886719 17.148438 L 12.886719 18.109375 L 12.148438 18.109375 Z M 10.019531 13.605469 C 9.46875 13.605469 9.382812 14.125 9.382812 14.644531 L 8.675781 14.644531 C 8.675781 13.636719 9.050781 13.011719 10.023438 13.011719 C 10.371094 12.964844 10.714844 13.089844 10.964844 13.351562 C 11.21875 13.613281 11.34375 13.984375 11.316406 14.363281 C 11.316406 16.042969 9.828125 16.148438 9.484375 17.382812 L 11.335938 17.382812 L 11.335938 18.109375 L 8.667969 18.109375 C 8.667969 15.910156 10.578125 15.960938 10.578125 14.382812 C 10.578125 13.957031 10.417969 13.605469 10.011719 13.605469 Z M 5.363281 13.132812 L 8.066406 13.132812 L 8.066406 13.777344 C 7.246094 15.078125 6.75 16.558594 6.628906 18.09375 L 5.855469 18.09375 C 5.996094 16.582031 6.511719 15.128906 7.355469 13.863281 L 5.359375 13.863281 Z M 2.269531 13.890625 L 2.34375 13.890625 C 2.78125 13.890625 3.296875 13.777344 3.417969 13.132812 L 3.417969 13.035156 L 3.953125 13.035156 L 3.953125 18.109375 L 3.210938 18.109375 L 3.210938 14.417969 L 2.257812 14.417969 Z M 28.371094 24 C 29.246094 24 29.738281 24.613281 29.738281 26.597656 C 29.738281 28.578125 29.261719 29.191406 28.371094 29.191406 C 27.484375 29.191406 26.996094 28.542969 26.996094 26.582031 C 26.996094 24.617188 27.472656 24 28.371094 24 M 25.503906 28.117188 L 26.238281 28.117188 L 26.238281 29.0625 L 25.488281 29.0625 Z M 23.371094 24.570312 C 22.820312 24.570312 22.734375 25.089844 22.734375 25.609375 L 22.019531 25.609375 C 22.019531 24.601562 22.390625 23.980469 23.367188 23.980469 C 23.710938 23.933594 24.058594 24.058594 24.308594 24.320312 C 24.558594 24.582031 24.6875 24.953125 24.65625 25.332031 C 24.65625 27.007812 23.175781 27.117188 22.828125 28.351562 L 24.675781 28.351562 L 24.675781 29.0625 L 22.007812 29.0625 C 22.007812 26.859375 23.921875 26.90625 23.921875 25.335938 C 23.921875 24.921875 23.761719 24.570312 23.355469 24.570312 Z M 20.480469 28.117188 L 21.214844 28.117188 L 21.214844 29.0625 L 20.460938 29.0625 Z M 18.390625 24 C 19.191406 24 19.625 24.402344 19.625 25.230469 L 18.867188 25.230469 C 18.867188 24.9375 18.742188 24.570312 18.390625 24.570312 C 17.703125 24.570312 17.664062 25.578125 17.664062 26.316406 C 17.832031 25.980469 18.179688 25.777344 18.554688 25.796875 C 19.179688 25.796875 19.679688 26.316406 19.679688 27.308594 C 19.679688 28.476562 19.25 29.164062 18.28125 29.164062 C 17.125 29.164062 16.910156 28.195312 16.910156 26.742188 C 16.910156 25.289062 17.179688 24 18.390625 24 M 13.867188 24.859375 L 13.941406 24.859375 C 14.378906 24.859375 14.894531 24.742188 15.015625 24.101562 L 15.015625 24 L 15.550781 24 L 15.550781 29.0625 L 14.816406 29.0625 L 14.816406 25.375 L 13.859375 25.375 Z M 12.148438 28.117188 L 12.882812 28.117188 L 12.882812 29.0625 L 12.148438 29.0625 Z M 10.015625 24.570312 C 9.464844 24.570312 9.378906 25.089844 9.378906 25.609375 L 8.675781 25.609375 C 8.675781 24.601562 9.050781 23.980469 10.023438 23.980469 C 10.371094 23.933594 10.714844 24.058594 10.964844 24.320312 C 11.21875 24.582031 11.34375 24.953125 11.316406 25.332031 C 11.316406 27.007812 9.828125 27.117188 9.484375 28.351562 L 11.335938 28.351562 L 11.335938 29.0625 L 8.667969 29.0625 C 8.667969 26.859375 10.578125 26.90625 10.578125 25.335938 C 10.578125 24.921875 10.417969 24.570312 10.011719 24.570312 Z M 5.359375 24.101562 L 8.066406 24.101562 L 8.066406 24.742188 C 7.242188 26.042969 6.75 27.527344 6.628906 29.0625 L 5.855469 29.0625 C 5.996094 27.550781 6.511719 26.097656 7.355469 24.832031 L 5.359375 24.832031 Z M 2.261719 24.859375 L 2.332031 24.859375 C 2.773438 24.859375 3.289062 24.742188 3.410156 24.101562 L 3.410156 24 L 3.945312 24 L 3.945312 29.0625 L 3.210938 29.0625 L 3.210938 25.375 L 2.257812 25.375 Z M 2.261719 24.859375 "/>
<path style=" stroke:none;fill-rule:evenodd;fill:rgb(96.078432%,52.156866%,21.176471%);fill-opacity:1;" d="M 23.34375 2.222656 C 22.839844 2.222656 22.710938 2.742188 22.710938 4.230469 C 22.710938 5.71875 22.839844 6.238281 23.34375 6.238281 C 23.84375 6.238281 23.972656 5.71875 23.972656 4.230469 C 23.972656 2.742188 23.84375 2.222656 23.34375 2.222656 M 28.371094 2.222656 C 27.871094 2.222656 27.742188 2.742188 27.742188 4.230469 C 27.742188 5.71875 27.871094 6.238281 28.371094 6.238281 C 28.875 6.238281 29.003906 5.71875 29.003906 4.230469 C 29.003906 2.742188 28.875 2.222656 28.371094 2.222656 M 28.371094 17.695312 C 28.875 17.695312 29.003906 17.175781 29.003906 15.6875 C 29.003906 14.195312 28.875 13.675781 28.371094 13.675781 C 27.871094 13.675781 27.742188 14.195312 27.742188 15.6875 C 27.742188 17.175781 27.863281 17.695312 28.371094 17.695312 M 18.363281 17.695312 C 18.8125 17.695312 18.96875 17.175781 18.96875 16.609375 C 18.96875 15.910156 18.78125 15.515625 18.363281 15.515625 C 17.824219 15.515625 17.730469 16.035156 17.730469 16.644531 C 17.730469 17.257812 17.914062 17.695312 18.363281 17.695312 M 28.371094 28.664062 C 28.875 28.664062 29.003906 28.144531 29.003906 26.652344 C 29.003906 25.164062 28.875 24.644531 28.371094 24.644531 C 27.871094 24.644531 27.742188 25.164062 27.742188 26.652344 C 27.742188 28.144531 27.863281 28.664062 28.371094 28.664062 M 18.363281 28.664062 C 18.8125 28.664062 18.96875 28.144531 18.96875 27.578125 C 18.96875 26.875 18.78125 26.480469 18.363281 26.480469 C 17.824219 26.480469 17.730469 27 17.730469 27.613281 C 17.730469 28.226562 17.914062 28.664062 18.363281 28.664062 M 18.363281 6.238281 C 18.8125 6.238281 18.96875 5.71875 18.96875 5.152344 C 18.96875 4.453125 18.78125 4.058594 18.363281 4.058594 C 17.824219 4.058594 17.730469 4.578125 17.730469 5.191406 C 17.730469 5.804688 17.914062 6.238281 18.363281 6.238281 M 18.363281 6.238281 "/>
</g>
</svg>
