<svg xmlns="http://www.w3.org/2000/svg" width="80" height="80" stroke="none" stroke-linecap="round" stroke-linejoin="round" fill="#fff" fill-rule="evenodd"><path d="M0 41.5782C0 20.2926 17.84 3.1565 40 3.1565s40 17.1361 40 38.4217S62.16 80 40 80 0 62.8638 0 41.5782z" fill="#9d5025"/><path d="M0 38.4217C0 17.1361 17.84 0 40 0s40 17.1361 40 38.4217-17.84 38.4218-40 38.4218S0 59.7073 0 38.4217z" fill="#f58536"/><path d="M6.3753 27.2096h14.5251v22.4243H6.3753zm46.4146-15.3157h12.9609v12.4495H52.7899zm0 20.3031h12.9609v12.4493H52.7899zm0 20.3156h12.9609v12.4496H52.7899z"/><path d="M49.2146 40.0632l2.1558-1.0228 1.4196-.6692-1.4196-.6819-1.9193-.9091-5.7836-2.7397v2.7397H26.3029l19.7306-12.1337 1.5643 2.3231 3.2731-5.303.9595-1.5657.9596-1.5403-1.8403.2146-2.09.2273-6.1781.6943 1.4854 2.197-24.1998 14.8864-2.6685 1.6415 3.1811 1.9445L44.167 54.9496l-1.4854 2.197 6.1781.6944 2.09.2273 1.8403.2146-.9596-1.5404-.9595-1.5656-3.2731-5.303-1.5643 2.323-19.7306-12.1337h17.3646v2.6389l5.5471-2.6389z"/></svg>