<?xml version="1.0" encoding="UTF-8"?>
<!DOCTYPE svg PUBLIC "-//W3C//DTD SVG 1.1//EN" "http://www.w3.org/Graphics/SVG/1.1/DTD/svg11.dtd">
<svg xmlns="http://www.w3.org/2000/svg" xmlns:xlink="http://www.w3.org/1999/xlink" version="1.1" width="78px" height="50px" viewBox="-0.5 -0.5 78 50" style="background-color: rgb(255, 255, 255);"><defs><style type="text/css">@import url(https://fonts.googleapis.com/css2?family=Segoe+UI:wght@400;500);&#xa;</style></defs><g><rect x="0" y="0" width="78" height="50" fill="none" stroke="none" pointer-events="all"/><path d="M 22.79 42.36 C 29.92 42.36 36.21 38.06 38.83 31.55 L 66.7 31.55 C 67.21 31.55 67.7 31.32 68.04 30.93 L 72.09 26.2 C 72.72 25.46 72.64 24.36 71.91 23.72 L 66.51 18.99 C 66.19 18.71 65.77 18.55 65.34 18.55 L 62.02 18.55 L 58.49 15.02 C 57.8 14.33 56.68 14.33 55.99 15.02 L 52.45 18.55 L 51.22 18.55 L 47.68 15.02 C 46.99 14.33 45.87 14.33 45.18 15.02 L 41.64 18.55 L 38.83 18.55 C 36.21 12.03 29.92 7.74 22.79 7.74 C 13.25 7.74 5.48 15.51 5.48 25.05 C 5.48 34.59 13.25 42.36 22.79 42.36 Z M 22.79 11.28 C 28.81 11.28 34.08 15.13 35.9 20.85 C 36.13 21.59 36.81 22.09 37.58 22.09 L 42.38 22.09 C 42.85 22.09 43.3 21.9 43.63 21.57 L 46.43 18.77 L 49.23 21.57 C 49.56 21.9 50.01 22.09 50.48 22.09 L 53.19 22.09 C 53.66 22.09 54.1 21.9 54.44 21.57 L 57.24 18.77 L 60.04 21.57 C 60.37 21.9 60.82 22.09 61.29 22.09 L 64.68 22.09 L 68.26 25.23 L 65.88 28.01 L 37.58 28.01 C 36.81 28.01 36.13 28.51 35.9 29.24 C 34.08 34.97 28.81 38.82 22.79 38.82 C 15.2 38.82 9.02 32.64 9.02 25.05 C 9.02 17.46 15.2 11.28 22.79 11.28 Z M 18.06 31.55 C 21.64 31.55 24.56 28.63 24.56 25.05 C 24.56 21.47 21.64 18.55 18.06 18.55 C 14.48 18.55 11.56 21.47 11.56 25.05 C 11.56 28.63 14.48 31.55 18.06 31.55 Z M 18.06 22.09 C 19.69 22.09 21.02 23.42 21.02 25.05 C 21.02 26.68 19.69 28.01 18.06 28.01 C 16.43 28.01 15.1 26.68 15.1 25.05 C 15.1 23.42 16.43 22.09 18.06 22.09 Z M 76.17 0 L 1.83 0 C 0.86 0 0.06 0.79 0.06 1.77 L 0.06 48.23 C 0.06 49.21 0.86 50 1.83 50 L 76.17 50 C 77.15 50 77.94 49.21 77.94 48.23 L 77.94 1.77 C 77.94 0.79 77.15 0 76.17 0 Z M 3.6 46.46 L 3.6 3.54 L 74.4 3.54 L 74.4 46.46 Z" fill="#dd344c" stroke="none" pointer-events="all"/></g></svg>