<?xml version="1.0" encoding="UTF-8"?>
<svg xmlns="http://www.w3.org/2000/svg" xmlns:xlink="http://www.w3.org/1999/xlink" width="32" height="32" viewBox="0 0 32 32" version="1.1">
<defs>
<linearGradient id="linear0" gradientUnits="userSpaceOnUse" x1="0" y1="1" x2="1" y2="0" gradientTransform="matrix(32,0,0,32,0,0)">
<stop offset="0" style="stop-color:rgb(10.588235%,40.000001%,5.882353%);stop-opacity:1;"/>
<stop offset="1" style="stop-color:rgb(42.352942%,68.235296%,24.313726%);stop-opacity:1;"/>
</linearGradient>
</defs>
<g id="surface1">
<rect x="0" y="0" width="32" height="32" style="fill:url(#linear0);stroke:none;"/>
<path style=" stroke:none;fill-rule:evenodd;fill:rgb(100%,100%,100%);fill-opacity:1;" d="M 26 23 L 27 23 L 27 27 L 23 27 L 23 26 L 25.398438 26 L 22.625 22.828125 L 23.375 22.171875 L 26 25.167969 Z M 9.875 22.828125 L 7.101562 26 L 9.5 26 L 9.5 27 L 5.5 27 L 5.5 23 L 6.5 23 L 6.5 25.167969 L 9.125 22.171875 Z M 27 5 L 27 9 L 26 9 L 26 6.832031 L 23.375 9.828125 L 22.625 9.171875 L 25.398438 6 L 23 6 L 23 5 Z M 7.101562 6 L 9.875 9.171875 L 9.125 9.828125 L 6.5 6.832031 L 6.5 9 L 5.5 9 L 5.5 5 L 9.5 5 L 9.5 6 Z M 16.25 12 C 13.246094 12 12 11.347656 12 11 C 12 10.613281 13.152344 10 16.25 10 C 19.179688 10 20.5 10.585938 20.5 11 C 20.5 11.347656 19.253906 12 16.25 12 M 16.292969 21.5 C 13.332031 21.5 12 20.914062 12 20.5 L 12 12.3125 C 13.203125 12.910156 15.195312 13 16.25 13 C 17.304688 13 19.296875 12.910156 20.5 12.3125 L 20.5 20.5 C 20.5 20.914062 19.195312 21.5 16.292969 21.5 M 16.25 9 C 13.855469 9 11 9.347656 11 11 L 11 20.5 C 11 22.152344 13.878906 22.5 16.292969 22.5 C 18.238281 22.5 21.5 22.238281 21.5 20.5 L 21.5 11 C 21.5 9.261719 18.210938 9 16.25 9 M 16.25 9 "/>
</g>
</svg>
