<?xml version="1.0" encoding="UTF-8"?>
<svg xmlns="http://www.w3.org/2000/svg" xmlns:xlink="http://www.w3.org/1999/xlink" width="32" height="32" viewBox="0 0 32 32" version="1.1">
<defs>
<linearGradient id="linear0" gradientUnits="userSpaceOnUse" x1="0" y1="1" x2="1" y2="0" gradientTransform="matrix(32,0,0,32,0,0)">
<stop offset="0" style="stop-color:rgb(74.117649%,3.137255%,8.627451%);stop-opacity:1;"/>
<stop offset="1" style="stop-color:rgb(100%,32.156864%,32.156864%);stop-opacity:1;"/>
</linearGradient>
</defs>
<g id="surface1">
<rect x="0" y="0" width="32" height="32" style="fill:url(#linear0);stroke:none;"/>
<path style=" stroke:none;fill-rule:evenodd;fill:rgb(100%,100%,100%);fill-opacity:1;" d="M 22.121094 16.878906 C 21.46875 16.375 20.808594 15.875 20.148438 15.378906 C 20.769531 14.292969 21.472656 13.089844 21.828125 12.734375 C 22.910156 13.515625 25.46875 18.101562 25.929688 19.667969 C 25.085938 19.152344 23.410156 17.867188 22.121094 16.878906 M 15.941406 19.996094 C 15.703125 19.808594 15.28125 19.21875 14.804688 18.472656 C 14.90625 18.3125 15.015625 18.140625 15.128906 17.957031 C 15.820312 16.863281 16.957031 15.0625 17.40625 14.71875 C 17.667969 14.824219 18.203125 15.183594 18.851562 15.648438 C 17.988281 17.167969 16.53125 19.710938 15.941406 19.996094 M 12.777344 19.699219 C 12.503906 19.34375 12.082031 18.585938 11.804688 18.097656 C 10.992188 16.648438 10.714844 16.1875 10.242188 16.171875 L 10.222656 16.171875 C 9.855469 16.171875 9.484375 16.476562 8.019531 17.800781 C 7.574219 18.203125 6.960938 18.757812 6.449219 19.179688 C 7.359375 17.34375 9.386719 13.8125 10.195312 12.710938 C 10.582031 13.277344 11.265625 14.460938 11.839844 15.453125 C 12.570312 16.710938 13.152344 17.699219 13.628906 18.46875 C 13.300781 18.972656 12.988281 19.441406 12.777344 19.699219 M 26.425781 18.171875 C 25.894531 16.988281 25.015625 15.425781 24.132812 14.097656 C 22.535156 11.695312 22.0625 11.695312 21.808594 11.695312 C 21.203125 11.695312 20.667969 12.46875 19.339844 14.789062 C 18.257812 14.011719 17.730469 13.726562 17.394531 13.714844 L 17.371094 13.714844 C 16.726562 13.714844 16.089844 14.570312 14.277344 17.441406 C 14.257812 17.472656 14.242188 17.503906 14.222656 17.535156 C 13.6875 16.65625 13.140625 15.710938 12.710938 14.96875 C 10.882812 11.808594 10.671875 11.515625 10.226562 11.5 C 9.90625 11.492188 9.644531 11.480469 7.589844 15.011719 C 6.648438 16.628906 5.53125 18.6875 5.152344 19.636719 C 5.03125 19.9375 4.867188 20.347656 5.1875 20.621094 C 5.753906 21.101562 6.507812 20.5 8.699219 18.523438 C 9.183594 18.085938 9.808594 17.515625 10.152344 17.257812 C 10.363281 17.558594 10.695312 18.148438 10.929688 18.570312 C 11.859375 20.226562 12.230469 20.808594 12.765625 20.820312 C 13.121094 20.835938 13.445312 20.546875 14.214844 19.386719 C 15.054688 20.644531 15.480469 21 15.890625 21 L 15.898438 21 C 16.835938 20.988281 17.824219 19.46875 19.65625 16.246094 C 20.277344 16.707031 20.929688 17.207031 21.503906 17.648438 C 25.699219 20.871094 26.292969 21.210938 26.792969 20.679688 C 27.15625 20.289062 27.050781 19.5625 26.425781 18.171875 "/>
</g>
</svg>
