<?xml version="1.0" encoding="UTF-8"?>
<svg xmlns="http://www.w3.org/2000/svg" xmlns:xlink="http://www.w3.org/1999/xlink" width="32" height="32" viewBox="0 0 32 32" version="1.1">
<g id="surface1">
<path style=" stroke:none;fill-rule:evenodd;fill:rgb(61.56863%,31.37255%,14.509805%);fill-opacity:1;" d="M 0 16.632812 C 0 8.117188 7.136719 1.261719 16 1.261719 C 24.863281 1.261719 32 8.117188 32 16.632812 C 32 25.144531 24.863281 32 16 32 C 7.136719 32 0 25.144531 0 16.632812 M 0 15.367188 L 32 15.367188 L 32 16.632812 L 0 16.632812 Z M 0 15.367188 "/>
<path style=" stroke:none;fill-rule:evenodd;fill:rgb(96.078432%,52.156866%,21.176471%);fill-opacity:1;" d="M 0 15.367188 C 0 6.855469 7.136719 0 16 0 C 24.863281 0 32 6.855469 32 15.367188 C 32 23.882812 24.863281 30.738281 16 30.738281 C 7.136719 30.738281 0 23.882812 0 15.367188 M 0 15.367188 "/>
<path style=" stroke:none;fill-rule:evenodd;fill:rgb(100%,100%,100%);fill-opacity:1;" d="M 5.089844 8.804688 L 5.089844 9.9375 L 6.546875 9.9375 L 6.546875 22.0625 L 5.089844 22.0625 L 5.089844 23.195312 L 7.90625 23.195312 L 7.90625 8.804688 Z M 26.910156 10.375 L 9.179688 10.375 L 9.179688 19.882812 L 10.910156 19.882812 L 10.910156 21.796875 L 18.457031 21.796875 L 18.457031 19.882812 L 21.179688 19.882812 L 21.179688 21.796875 L 24.453125 21.796875 L 24.453125 19.882812 L 26.910156 19.882812 Z M 26.910156 10.375 "/>
<path style=" stroke:none;fill-rule:evenodd;fill:rgb(85.09804%,65.490198%,25.490198%);fill-opacity:1;" d="M 11.089844 11.773438 L 24.726562 11.773438 L 24.726562 18.398438 L 11.089844 18.398438 Z M 11.089844 11.773438 "/>
<path style=" stroke:none;fill-rule:evenodd;fill:rgb(100%,100%,100%);fill-opacity:1;" d="M 12.546875 12.816406 L 17.273438 12.816406 L 17.273438 17.261719 L 12.546875 17.261719 Z M 18.730469 12.816406 L 23.457031 12.816406 L 23.457031 17.261719 L 18.730469 17.261719 Z M 18.730469 12.816406 "/>
</g>
</svg>
