<?xml version="1.0" encoding="UTF-8"?>
<svg xmlns="http://www.w3.org/2000/svg" xmlns:xlink="http://www.w3.org/1999/xlink" width="32" height="32" viewBox="0 0 32 32" version="1.1">
<g id="surface1">
<path style=" stroke:none;fill-rule:nonzero;fill:rgb(90.588236%,8.235294%,48.235294%);fill-opacity:1;" d="M 0.203125 0.203125 L 31.796875 0.203125 L 31.796875 31.796875 L 0.203125 31.796875 Z M 0.203125 0.203125 "/>
<path style=" stroke:none;fill-rule:nonzero;fill:rgb(100%,100%,100%);fill-opacity:1;" d="M 5.199219 15.082031 C 5.707031 15.082031 6.121094 15.492188 6.121094 16 C 6.121094 16.507812 5.707031 16.917969 5.199219 16.917969 C 4.695312 16.917969 4.28125 16.507812 4.28125 16 C 4.28125 15.492188 4.695312 15.082031 5.199219 15.082031 M 16.230469 27.03125 C 10.859375 27.03125 6.253906 23.109375 5.289062 17.832031 C 6.105469 17.789062 6.777344 17.222656 6.972656 16.457031 L 9.792969 16.457031 L 9.792969 15.542969 L 6.972656 15.542969 C 6.773438 14.765625 6.089844 14.207031 5.289062 14.167969 C 6.25 8.972656 10.949219 4.96875 16.230469 4.96875 C 18.210938 4.96875 20.289062 5.714844 22.398438 7.1875 L 22.925781 6.433594 C 20.660156 4.851562 18.402344 4.050781 16.230469 4.050781 C 10.378906 4.050781 5.175781 8.582031 4.308594 14.398438 C 3.746094 14.714844 3.363281 15.3125 3.363281 16 C 3.363281 16.6875 3.746094 17.285156 4.308594 17.601562 C 5.183594 23.511719 10.28125 27.949219 16.230469 27.949219 C 18.714844 27.949219 21.257812 27.101562 23.390625 25.5625 L 22.855469 24.816406 C 20.878906 26.242188 18.523438 27.03125 16.230469 27.03125 M 11.21875 14.363281 C 12.074219 14.574219 13.140625 14.621094 13.929688 14.621094 C 14.6875 14.621094 15.6875 14.578125 16.519531 14.394531 L 14.441406 18.550781 C 14.40625 18.617188 14.390625 18.6875 14.390625 18.757812 L 14.390625 20.804688 C 14.023438 21.039062 13.394531 21.429688 13.015625 21.507812 L 13.015625 18.757812 C 13.015625 18.699219 13.003906 18.636719 12.976562 18.582031 Z M 13.929688 12.785156 C 15.78125 12.785156 16.769531 13.058594 17.078125 13.242188 C 16.769531 13.421875 15.78125 13.703125 13.929688 13.703125 C 12.082031 13.703125 11.09375 13.421875 10.785156 13.242188 C 11.09375 13.058594 12.082031 12.785156 13.929688 12.785156 M 12.554688 22.433594 L 13.015625 22.433594 C 13.03125 22.433594 13.050781 22.433594 13.070312 22.429688 C 13.632812 22.355469 14.351562 21.921875 14.976562 21.519531 L 15.097656 21.445312 C 15.230469 21.359375 15.3125 21.214844 15.3125 21.054688 L 15.3125 18.867188 L 17.867188 13.757812 C 17.992188 13.609375 18.070312 13.445312 18.070312 13.242188 C 18.070312 12.042969 15.476562 11.863281 13.929688 11.863281 C 12.386719 11.863281 9.792969 12.042969 9.792969 13.242188 C 9.792969 13.410156 9.851562 13.558594 9.945312 13.6875 L 12.09375 18.847656 L 12.09375 21.976562 C 12.09375 22.230469 12.296875 22.433594 12.554688 22.433594 M 25.878906 21.976562 C 26.386719 21.976562 26.800781 22.386719 26.800781 22.894531 C 26.800781 23.402344 26.386719 23.8125 25.878906 23.8125 C 25.375 23.8125 24.960938 23.402344 24.960938 22.894531 C 24.960938 22.386719 25.375 21.976562 25.878906 21.976562 M 25.878906 8.1875 C 26.386719 8.1875 26.800781 8.597656 26.800781 9.105469 C 26.800781 9.613281 26.386719 10.023438 25.878906 10.023438 C 25.375 10.023438 24.960938 9.613281 24.960938 9.105469 C 24.960938 8.597656 25.375 8.1875 25.878906 8.1875 M 26.800781 15.082031 C 27.304688 15.082031 27.71875 15.492188 27.71875 16 C 27.71875 16.507812 27.304688 16.917969 26.800781 16.917969 C 26.292969 16.917969 25.878906 16.507812 25.878906 16 C 25.878906 15.492188 26.292969 15.082031 26.800781 15.082031 M 22.207031 16.457031 L 25.027344 16.457031 C 25.230469 17.25 25.945312 17.839844 26.800781 17.839844 C 27.8125 17.839844 28.636719 17.011719 28.636719 16 C 28.636719 14.988281 27.8125 14.160156 26.800781 14.160156 C 25.945312 14.160156 25.230469 14.75 25.027344 15.542969 L 22.207031 15.542969 L 22.207031 9.566406 L 24.109375 9.566406 C 24.3125 10.359375 25.023438 10.945312 25.878906 10.945312 C 26.894531 10.945312 27.71875 10.117188 27.71875 9.105469 C 27.71875 8.09375 26.894531 7.265625 25.878906 7.265625 C 25.023438 7.265625 24.3125 7.859375 24.109375 8.648438 L 21.742188 8.648438 C 21.488281 8.648438 21.285156 8.855469 21.285156 9.105469 L 21.285156 15.542969 L 18.070312 15.542969 L 18.070312 16.457031 L 21.285156 16.457031 L 21.285156 22.894531 C 21.285156 23.144531 21.488281 23.351562 21.742188 23.351562 L 24.109375 23.351562 C 24.3125 24.140625 25.023438 24.734375 25.878906 24.734375 C 26.894531 24.734375 27.71875 23.90625 27.71875 22.894531 C 27.71875 21.882812 26.894531 21.054688 25.878906 21.054688 C 25.023438 21.054688 24.3125 21.640625 24.109375 22.433594 L 22.207031 22.433594 Z M 22.207031 16.457031 "/>
</g>
</svg>
