<svg xmlns="http://www.w3.org/2000/svg" width="70" height="80" stroke="none" stroke-linecap="round" stroke-linejoin="round" fill="#fff" fill-rule="evenodd"><path d="M9.9661 35.4927l-2.288.1756L0 35.3756l2.1231-10.039 7.843 10.1561z" fill="#3c4929"/><path d="M9.9661 44.8293l-2.288-.1756L0 44.9464l2.1231 10.039 7.843-10.1561z" fill="#b7ca9d"/><path d="M2.1231 45.1415L0 44.9464v9.4341l2.1231.6049v-9.8439z" fill="#4b612c"/><path d="M9.9661 54.0195l-7.843.9659v-9.8341l7.843-.322v9.1902z" fill="#759c3e"/><path d="M24.3433 45.6001l-6.3074-.4586-11.0277.5268 5.9055 17.961 11.4296-18.0292z" fill="#b7ca9d"/><path d="M2.1231 35.1708L0 35.3756v-9.4341l2.1231-.6049v9.8342z" fill="#4b612c"/><path d="M9.9661 26.3025l-7.843-.9659v9.8244l7.843.3317v-9.1902z" fill="#759c3e"/><path d="M24.3433 34.7219l-6.3074.4488-11.0277-.5171 5.9055-17.9317 11.4296 18z" fill="#3c4929"/><path d="M7.0082 18.6243l5.9055-1.9024v17.3659l-5.9055.5658V18.6243z" fill="#4b612c"/><path d="M24.3434 19.0731l-11.4297-2.3512v17.3659l11.4297.6341V19.0731z" fill="#759c3e"/><path d="M7.0082 61.561l5.9055 2.0683V46.2342l-5.9055-.5659V61.561z" fill="#4b612c"/><path d="M24.3434 61.3951l-11.4297 2.2341V46.2341L24.3434 45.6v15.7951z" fill="#759c3e"/><path d="M20.2002 72.9951L34.9896 80l34.66-40-34.66-40-14.7894 7.0049v65.9902z" fill="#4b612c"/><path d="M70 63.4342L34.9896 80V0L70 16.5659v46.8683z" fill="#759c3e"/></svg>