<svg role="img" viewBox="-.5 -.5 79 79" xmlns="http://www.w3.org/2000/svg"><path d="M0 0h78v78H0Z" fill="#e7157b" pointer-events="all"/><path d="M32.39 56.43h3.27v-2.24h-3.27Zm5.5 0h3.34v-2.24h-3.34ZM24.53 10.78l-14.48 7.19v44.65l14.48 4.9Zm2.22 14.21v29.2h3.34v2.24h-3.34v12.65c0 .36-.17.7-.46.91a1.096 1.096 0 0 1-1 .15L8.59 64.5a1.13 1.13 0 0 1-.76-1.07V17.27c0-.43.24-.82.62-1.01l16.7-8.29c.34-.17.75-.15 1.08.06.32.2.52.56.52.95v13.77h3.34v2.24Zm16.7 31.44h3.34v-2.24h-3.34Zm.08-31.44h3.26v-2.24h-3.26Zm-5.57 0h3.27v-2.24h-3.27Zm-5.57 0h3.27v-2.24h-3.27Zm35.56-7.02-14.48-7.19v56.74l14.48-4.9Zm2.22 45.46c0 .48-.3.91-.76 1.07l-16.7 5.64a1.096 1.096 0 0 1-1-.15c-.29-.21-.46-.55-.46-.91V56.43h-2.16v-2.24h2.16v-29.2h-2.16v-2.24h2.16V8.98c0-.39.2-.75.52-.95.33-.21.74-.23 1.08-.06l16.7 8.29c.38.19.62.58.62 1.01Zm-27.9-31.3-2.08-.8-5.57 14.59 2.08.81Zm7.54 7.13c.43-.44.43-1.15 0-1.59l-4.46-4.49-1.57 1.59 3.67 3.7-3.67 3.69 1.57 1.59Zm-17.16 4.49-4.46-4.49c-.43-.44-.43-1.15 0-1.59l4.46-4.49 1.57 1.59-3.67 3.7 3.67 3.69Z" fill="#ffffff" pointer-events="all"/></svg>