<svg xmlns="http://www.w3.org/2000/svg" width="65" height="80" stroke="none" stroke-linecap="round" stroke-linejoin="round" fill="#fff" fill-rule="evenodd"><path d="M0 35.3365l6.5402-.7024 8.1489 8.6049-8.1489 7.3171L0 49.2195v-13.883z" fill="#4b612c"/><path d="M46.2412 26.7804L32.5 28.6634l-13.7411-1.883L32.5 0l13.7412 26.7804z" fill="#3c4929"/><path d="M49.7267 49.6682l8.7331.8879 5.1231-7.961-5.1231-7.961-8.7331.3707v14.6634z" fill="#4b612c"/><path d="M46.2411 26.7804L32.5 23.8926V0l13.7411 7.0048v19.7756zM65 35.3365l-6.5402-.7024v15.922L65 49.2195v-13.883zM15.2733 49.6682l-8.7331.8879v-15.922l8.7331.3707v14.6634z" fill="#759c3e"/><path d="M18.7589 26.7804L32.5 23.8926V0L18.7589 7.0048v19.7756zm-6.8658 42.7708L32.5 80l18.2705-24.8195L32.5 31.8927l-20.6069 2.1756v35.4829z" fill="#4b612c"/><path d="M53.1165 69.5512L32.5 80V31.8927l20.6165 2.1756v35.4829z" fill="#759c3e"/></svg>