<?xml version="1.0" encoding="UTF-8"?>
<svg xmlns="http://www.w3.org/2000/svg" xmlns:xlink="http://www.w3.org/1999/xlink" width="28" height="32" viewBox="0 0 28 32" version="1.1">
<g id="surface1">
<path style=" stroke:none;fill-rule:evenodd;fill:rgb(23.529412%,28.627452%,16.078432%);fill-opacity:1;" d="M 16.757812 9.429688 L 24.03125 4.773438 L 27.976562 9.429688 L 21.175781 10.359375 Z M 11.234375 9.429688 L 3.964844 4.75 L 0.0195312 9.429688 L 6.820312 10.359375 Z M 11.234375 9.429688 "/>
<path style=" stroke:none;fill-rule:evenodd;fill:rgb(71.764708%,79.215688%,61.56863%);fill-opacity:1;" d="M 28 18.78125 L 13.996094 17.972656 L 0 18.78125 L 13.996094 32 Z M 28 18.78125 "/>
<path style=" stroke:none;fill-rule:evenodd;fill:rgb(45.882353%,61.176473%,24.313726%);fill-opacity:1;" d="M 11.234375 9.429688 L 3.964844 8.121094 L 3.964844 4.75 L 11.234375 6.617188 Z M 11.234375 9.429688 "/>
<path style=" stroke:none;fill-rule:evenodd;fill:rgb(29.411766%,38.039216%,17.254902%);fill-opacity:1;" d="M 0.0195312 9.429688 L 3.964844 8.121094 L 3.964844 4.75 L 0.0195312 6.613281 Z M 16.757812 9.429688 L 24.03125 8.121094 L 24.03125 4.75 L 16.757812 6.617188 Z M 16.757812 9.429688 "/>
<path style=" stroke:none;fill-rule:evenodd;fill:rgb(45.882353%,61.176473%,24.313726%);fill-opacity:1;" d="M 27.976562 9.429688 L 24.03125 8.121094 L 24.03125 4.75 L 27.976562 6.613281 Z M 27.976562 9.429688 "/>
<path style=" stroke:none;fill-rule:evenodd;fill:rgb(29.411766%,38.039216%,17.254902%);fill-opacity:1;" d="M 0 16 L 13.996094 16 L 28 14.007812 L 13.996094 9.601562 L 0 12.25 Z M 13.996094 32 L 0 25.375 L 0 18.78125 L 13.996094 20.753906 Z M 13.996094 32 "/>
<path style=" stroke:none;fill-rule:evenodd;fill:rgb(45.882353%,61.176473%,24.313726%);fill-opacity:1;" d="M 28 25.375 L 13.996094 32 L 13.996094 20.753906 L 28 18.78125 Z M 28 16 L 13.996094 16 L 13.996094 9.601562 L 28 12.25 Z M 28 16 "/>
<path style=" stroke:none;fill-rule:evenodd;fill:rgb(23.529412%,28.627452%,16.078432%);fill-opacity:1;" d="M 21.449219 7.261719 L 13.996094 8.84375 L 6.546875 7.261719 L 13.996094 0 Z M 21.449219 7.261719 "/>
<path style=" stroke:none;fill-rule:evenodd;fill:rgb(29.411766%,38.039216%,17.254902%);fill-opacity:1;" d="M 6.546875 7.261719 L 13.996094 4.792969 L 13.996094 0 L 6.546875 3.527344 Z M 6.546875 7.261719 "/>
<path style=" stroke:none;fill-rule:evenodd;fill:rgb(45.882353%,61.176473%,24.313726%);fill-opacity:1;" d="M 21.449219 7.261719 L 13.996094 4.792969 L 13.996094 0 L 21.449219 3.527344 Z M 21.449219 7.261719 "/>
</g>
</svg>
