<svg role="img" viewBox="-.5 -.5 79 79" xmlns="http://www.w3.org/2000/svg"><path d="M0 0h78v78H0Z" fill="#c925d1" pointer-events="all"/><path d="m11.6 10.03 10.36 10.35-1.58 1.58L10.03 11.6v8.46H7.8V8.91c0-.61.5-1.11 1.11-1.11h11.15v2.23Zm58.6-1.12v11.15h-2.23V11.6L57.62 21.96l-1.58-1.58L66.4 10.03h-8.46V7.8h11.15c.61 0 1.11.5 1.11 1.11m-2.23 49.03h2.23v11.15c0 .61-.5 1.11-1.11 1.11H57.94v-2.23h8.46L56.04 57.62l1.58-1.58L67.97 66.4Zm-.56-19.82c0-3.7-4.27-7.35-11.42-9.77l.72-2.11c8.22 2.78 12.93 7.11 12.93 11.88 0 4.77-4.71 9.11-12.93 11.89l-.72-2.11c7.15-2.42 11.42-6.08 11.42-9.78m-56.76 0c0 3.55 4 7.1 10.69 9.52l-.76 2.1c-7.73-2.79-12.16-7.03-12.16-11.62 0-4.59 4.43-8.82 12.16-11.61l.76 2.1c-6.69 2.41-10.69 5.97-10.69 9.51m11.31 19.5L11.6 67.97h8.46v2.23H8.91c-.61 0-1.11-.5-1.11-1.11V57.94h2.23v8.46l10.35-10.36ZM39 29.29c-7.96 0-12.26-2.06-12.26-2.9 0-.84 4.3-2.89 12.26-2.89s12.26 2.05 12.26 2.89c0 .84-4.3 2.9-12.26 2.9m.03 8.63c-7.62 0-12.29-2.08-12.29-3.22v-5.41c2.75 1.51 7.62 2.23 12.26 2.23s9.51-.72 12.26-2.23v5.41c0 1.14-4.64 3.22-12.23 3.22m0 8.51c-7.62 0-12.29-2.08-12.29-3.22v-5.48c2.71 1.59 7.52 2.42 12.29 2.42 4.75 0 9.53-.82 12.23-2.41v5.47c0 1.14-4.64 3.22-12.23 3.22M39 54.06c-7.93 0-12.26-2.13-12.26-3.22v-4.6c2.71 1.59 7.52 2.42 12.29 2.42 4.75 0 9.53-.82 12.23-2.41v4.59c0 1.09-4.33 3.22-12.26 3.22m0-32.79c-6.98 0-14.49 1.6-14.49 5.12v24.45c0 3.58 7.29 5.45 14.49 5.45s14.49-1.87 14.49-5.45V26.39c0-3.52-7.51-5.12-14.49-5.12" fill="#ffffff" pointer-events="all"/></svg>