<svg role="img" viewBox="0 0 32 32" xmlns="http://www.w3.org/2000/svg" xmlns:xlink="http://www.w3.org/1999/xlink"><defs><linearGradient gradientTransform="scale(32)" gradientUnits="userSpaceOnUse" id="a" x1="0" x2="1" y1="1" y2="0"><stop offset="0" style="stop-color:rgb(74.117649%,3.137255%,8.627451%);stop-opacity:1"/><stop offset="1" style="stop-color:rgb(100%,32.156864%,32.156864%);stop-opacity:1"/></linearGradient></defs><path d="M0 0h32v32H0z" style="fill:url(#a);stroke:none"/><path d="M25 15.5c-.55 0-1-.45-1-1s.45-1 1-1 1 .45 1 1-.45 1-1 1m2-1c0-1.102-.898-2-2-2-.043 0-.082.012-.125.012a9.576 9.576 0 0 0-.727-1.442l-.847.528c.238.386.441.8.62 1.222A1.995 1.995 0 0 0 23 14.5c0 .965.688 1.773 1.598 1.96a8.639 8.639 0 0 1-1.7 4.938l.801.594a9.605 9.605 0 0 0 1.903-5.594A1.998 1.998 0 0 0 27 14.5M22 10c-.55 0-1-.45-1-1s.45-1 1-1 1 .45 1 1-.45 1-1 1m2-1c0-1.102-.898-2-2-2-1.102 0-2 .898-2 2 0 1.102.898 2 2 2 1.102 0 2-.898 2-2M11 7.5c0-.55.45-1 1-1s1 .45 1 1-.45 1-1 1-1-.45-1-1m3 0c0-1.102-.898-2-2-2-1.102 0-2 .898-2 2 0 1.102.898 2 2 2 1.102 0 2-.898 2-2m.55.043-.152-.988a9.697 9.697 0 0 1 5.301.68l-.398.917a8.682 8.682 0 0 0-4.75-.609M7 15c-.55 0-1-.45-1-1s.45-1 1-1 1 .45 1 1-.45 1-1 1m3.316-5.574-.632-.774a9.77 9.77 0 0 0-2.63 3.352C7.036 12.004 7.02 12 7 12c-1.102 0-2 .898-2 2 0 .785.457 1.457 1.113 1.785-.004.137-.011.274-.011.414a9.769 9.769 0 0 0 3.355 7.363l.656-.753a8.769 8.769 0 0 1-3.011-6.61c0-.07.003-.14.007-.21A1.994 1.994 0 0 0 9 14c0-.727-.395-1.36-.977-1.707a8.782 8.782 0 0 1 2.293-2.867m9.965 12.898c-.597 2.313-3.426 2.965-4.43 3.13-.238-.852-.683-3.048.29-5.145.062-.133.132-.27.207-.403.593-1.062 1.074-2.058.918-3.449-.067-.562-.348-1.332-.66-2.043.953 1.008 1.917 2.719 1.496 5.348a.497.497 0 0 0 .804.468c.04-.03.77-.636 1.145-2.085.418.656.812 1.921.23 4.18m-7.254 1.597c-1.37-.953-1.808-2.824-.996-4.254.035-.063.07-.125.114-.191.753-1.18.57-2.774.332-3.79.617.446 1.168 1.278 1.359 1.633a.503.503 0 0 0 .914-.07c.664-1.89.355-3.324-.105-4.281.074.047.14.094.207.144.41.746 1.316 2.559 1.418 3.457.125 1.098-.25 1.875-.797 2.848a8.825 8.825 0 0 0-.239.469c-.921 1.984-.746 4.004-.5 5.199-.48-.273-.906-.578-1.27-.848-.155-.113-.3-.222-.437-.316m6.942-7.254a.506.506 0 0 0-.473-.004.51.51 0 0 0-.266.39c-.02.2-.046.384-.082.551-.425-3.543-3.261-5.07-3.668-5.273-.57-.426-1.253-.707-2.09-.855a.5.5 0 0 0-.406.878c.067.055 1.438 1.247 1.09 3.516-.543-.687-1.375-1.48-2.351-1.48a.504.504 0 0 0-.414.218.492.492 0 0 0-.051.465c.262.68.785 2.703.043 3.864-.047.074-.09.148-.137.23-1.07 1.879-.5 4.328 1.29 5.574.132.09.269.192.417.301.633.469 1.422 1.055 2.461 1.426.05.02.11.031.168.031.016 0 .04 0 .05-.004.493-.043 4.821-.527 5.7-3.922 1.164-4.508-1.18-5.851-1.281-5.906" style="stroke:none;fill-rule:evenodd;fill:rgb(100%,100%,100%);fill-opacity:1"/></svg>