<svg role="img" viewBox="0 0 32 32" xmlns="http://www.w3.org/2000/svg"><path d="M0 16.633C0 8.117 7.137 1.262 16 1.262s16 6.855 16 15.37C32 25.146 24.863 32 16 32S0 25.145 0 16.633m0 0" style="stroke:none;fill-rule:evenodd;fill:rgb(61.56863%,31.37255%,14.509805%);fill-opacity:1"/><path d="M0 15.367C0 6.855 7.137 0 16 0s16 6.855 16 15.367c0 8.516-7.137 15.371-16 15.371S0 23.883 0 15.368m0 0" style="stroke:none;fill-rule:evenodd;fill:rgb(96.078432%,52.156866%,21.176471%);fill-opacity:1"/><path d="M2.55 10.883h5.81v8.972H2.55Zm18.567-6.125h5.184v4.98h-5.184Zm0 8.12h5.184v4.981h-5.184Zm0 8.126h5.184v4.98h-5.184Zm-1.429-4.981.859-.406.57-.27-.57-.273-.766-.363-2.312-1.094v1.094h-6.95l7.895-4.852.625.93 1.309-2.121.382-.629.387-.613-.738.086-.836.09-2.469.277.594.879-9.68 5.953-1.07.656 1.273.778 9.477 5.835-.594.88 2.469.277.836.09.738.085-.387-.617-.382-.625-1.309-2.12-.625.929-7.894-4.856h6.949v1.059Zm0 0" style="stroke:none;fill-rule:evenodd;fill:rgb(100%,100%,100%);fill-opacity:1"/></svg>