<svg role="img" viewBox="0 0 32 32" xmlns="http://www.w3.org/2000/svg"><path d="M16.078 1.363c.14-.004.274.04.387.121 1.672 1.848 3.305 2.465 4.781 2.465 2.969 0 9.621 2.074 9.734 1.946v1.39c-.117.14-2.39 2.77-2.261 5.867.074 1.844.996 3.09 1.77 4.43.308.527 1.116 2.04 1.116 2.04v1.339c0 .426-.046.848-.132 1.266-1.524 7.43-8.844 4.43-14.77 9.257a.472.472 0 0 1-.285.121.267.267 0 0 1-.215-.12c-3.598-4.301-14.68-.715-16.05-9.258a9.065 9.065 0 0 1-.15-1.489v-1.363S.81 17.59 1.06 17.16c.605-1.066 1.257-2.062 1.328-3.691C2.512 10.758.25 7.934.157 7.797v-1.39c.116.116 7.566-2.637 10.648-2.637 1.539 0 3.277-.555 5.023-2.293a.4.4 0 0 1 .25-.114m0 0" style="stroke:none;fill-rule:evenodd;fill:rgb(61.56863%,31.37255%,14.509805%);fill-opacity:1"/><path d="M16.078 0c.14-.004.274.04.387.121 1.672 1.852 3.305 2.465 4.781 2.465 2.969 0 5.102-2.36 5.215-2.484l4.52 5.804c-.118.14-2.391 2.77-2.262 5.867.152 3.641 3.574 4.957 2.73 9.075-1.523 7.43-8.84 4.43-14.77 9.257a.461.461 0 0 1-.28.122.26.26 0 0 1-.22-.122c-3.593-4.3-14.679-.714-16.05-9.257-.758-4.684 2.094-5.254 2.23-8.77C2.484 9.368.223 6.543.13 6.406l5.26-6.3a8.26 8.26 0 0 0 5.38 2.284c1.543 0 3.277-.551 5.023-2.29a.401.401 0 0 1 .285-.1m0 0" style="stroke:none;fill-rule:evenodd;fill:rgb(96.078432%,52.156866%,21.176471%);fill-opacity:1"/></svg>