<?xml version="1.0" encoding="UTF-8"?>
<svg xmlns="http://www.w3.org/2000/svg" xmlns:xlink="http://www.w3.org/1999/xlink" width="46.544998" height="32" viewBox="0 0 46.544998 32" version="1.1">
<g id="surface1">
<path style=" stroke:none;fill-rule:evenodd;fill:rgb(61.56863%,31.764707%,14.509805%);fill-opacity:1;" d="M 46.546875 21.589844 L 46.546875 23.800781 C 46.546875 27.835938 42.332031 32 37.148438 32 L 9.40625 32 C 4.21875 32 0.0078125 27.835938 0.0078125 23.800781 L 0.0078125 21.589844 Z M 46.546875 21.589844 "/>
<path style=" stroke:none;fill-rule:evenodd;fill:rgb(96.078432%,52.156866%,20.784314%);fill-opacity:1;" d="M 17.917969 0 C 22.589844 -0.0078125 26.832031 2.859375 28.765625 7.332031 C 30.554688 6.03125 32.929688 5.863281 34.882812 6.898438 C 36.84375 7.933594 38.117188 10.007812 38.203125 12.3125 C 42.894531 12.722656 46.546875 17.480469 46.546875 21.253906 L 46.546875 22.074219 C 46.546875 26.132812 42.332031 30.25 37.125 30.25 L 9.40625 30.25 C 4.214844 30.25 0 26.132812 0 22.074219 L 0 21.261719 C 0 18.132812 2.503906 13.828125 6.023438 12.757812 L 6.023438 12.40625 C 6.035156 9.101562 7.296875 5.9375 9.527344 3.613281 C 11.757812 1.285156 14.777344 -0.0117188 17.917969 0 M 17.917969 0 "/>
<path style=" stroke:none;fill-rule:evenodd;fill:rgb(100%,100%,100%);fill-opacity:1;" d="M 11.28125 14.515625 L 13.125 14.515625 L 14.972656 23.671875 L 16.953125 14.535156 L 18.796875 14.535156 L 16.058594 25.953125 L 13.84375 25.953125 Z M 19.914062 14.515625 L 23.363281 14.515625 C 25.449219 14.515625 26.367188 15.902344 26.367188 17.847656 C 26.367188 19.789062 25.222656 21.226562 23.183594 21.226562 L 21.652344 21.226562 L 21.652344 25.953125 L 19.914062 25.953125 Z M 21.652344 19.851562 L 22.886719 19.851562 C 23.816406 19.851562 24.625 19.324219 24.625 17.882812 C 24.625 16.644531 24.15625 15.894531 22.761719 15.894531 L 21.652344 15.894531 Z M 34.503906 21.851562 L 34.503906 22.09375 C 34.503906 24.175781 33.710938 26.183594 31.148438 26.183594 C 28.402344 26.183594 27.550781 24.324219 27.550781 20.242188 C 27.550781 16.160156 28.402344 14.300781 31.164062 14.300781 C 34.253906 14.300781 34.464844 16.699219 34.464844 17.886719 L 34.464844 18.117188 L 32.734375 18.117188 L 32.734375 17.921875 C 32.734375 16.867188 32.429688 15.644531 31.183594 15.695312 C 29.933594 15.742188 29.320312 16.527344 29.320312 20.214844 C 29.320312 23.898438 29.882812 24.800781 31.203125 24.800781 C 32.648438 24.800781 32.820312 23.101562 32.820312 22.023438 L 32.820312 21.832031 Z M 34.503906 21.851562 "/>
</g>
</svg>
