<?xml version="1.0" encoding="UTF-8"?>
<svg xmlns="http://www.w3.org/2000/svg" xmlns:xlink="http://www.w3.org/1999/xlink" width="32" height="32" viewBox="0 0 32 32" version="1.1">
<g id="surface1">
<path style=" stroke:none;fill-rule:nonzero;fill:rgb(90.588236%,8.235294%,48.235294%);fill-opacity:1;" d="M 0.203125 0.203125 L 31.796875 0.203125 L 31.796875 31.796875 L 0.203125 31.796875 Z M 0.203125 0.203125 "/>
<path style=" stroke:none;fill-rule:nonzero;fill:rgb(100%,100%,100%);fill-opacity:1;" d="M 21.871094 16.207031 L 24.125 16.207031 L 24.125 15.304688 L 21.871094 15.304688 Z M 10.585938 21.632812 L 12.839844 21.632812 L 12.839844 20.726562 L 10.585938 20.726562 Z M 6.070312 21.632812 L 9.230469 21.632812 L 9.230469 20.726562 L 6.070312 20.726562 Z M 6.070312 18.921875 L 11.488281 18.921875 L 11.488281 18.015625 L 6.070312 18.015625 Z M 6.070312 13.496094 L 10.128906 13.496094 L 10.128906 12.59375 L 6.070312 12.59375 Z M 6.070312 16.207031 L 20.964844 16.207031 L 20.964844 15.304688 L 6.070312 15.304688 Z M 14.648438 26.15625 L 4.265625 26.15625 L 4.265625 10.78125 L 14.648438 10.78125 L 14.648438 14.398438 L 15.550781 14.398438 L 15.550781 10.332031 C 15.550781 10.082031 15.347656 9.878906 15.097656 9.878906 L 3.8125 9.878906 C 3.566406 9.878906 3.363281 10.082031 3.363281 10.332031 L 3.363281 26.605469 C 3.363281 26.855469 3.566406 27.058594 3.8125 27.058594 L 15.097656 27.058594 C 15.347656 27.058594 15.550781 26.855469 15.550781 26.605469 L 15.550781 17.5625 L 14.648438 17.5625 Z M 28.636719 14.855469 C 28.636719 17.773438 26.007812 18.789062 24.617188 18.917969 L 17.351562 18.921875 L 17.351562 18.015625 L 24.574219 18.015625 C 24.664062 18.003906 27.734375 17.671875 27.734375 14.855469 C 27.734375 12.28125 25.417969 11.757812 24.953125 11.683594 C 24.722656 11.640625 24.558594 11.429688 24.578125 11.195312 L 24.578125 11.171875 C 24.554688 9.722656 23.664062 9.269531 23.277344 9.136719 C 22.558594 8.898438 21.757812 9.125 21.332031 9.695312 C 21.234375 9.832031 21.066406 9.898438 20.902344 9.875 C 20.738281 9.851562 20.601562 9.738281 20.542969 9.578125 C 20.265625 8.792969 19.855469 8.285156 19.292969 7.714844 C 17.875 6.3125 15.957031 5.921875 14.160156 6.679688 C 13.21875 7.078125 12.394531 7.976562 11.902344 9.148438 L 11.070312 8.796875 C 11.652344 7.414062 12.652344 6.335938 13.8125 5.84375 C 15.957031 4.941406 18.242188 5.402344 19.929688 7.078125 C 20.410156 7.5625 20.8125 8.03125 21.125 8.644531 C 21.796875 8.144531 22.703125 7.996094 23.5625 8.28125 C 24.660156 8.644531 25.355469 9.601562 25.464844 10.867188 C 27.003906 11.253906 28.636719 12.484375 28.636719 14.855469 "/>
</g>
</svg>
