<?xml version="1.0" encoding="UTF-8"?>
<svg xmlns="http://www.w3.org/2000/svg" xmlns:xlink="http://www.w3.org/1999/xlink" width="32" height="32" viewBox="0 0 32 32" version="1.1">
<defs>
<linearGradient id="linear0" gradientUnits="userSpaceOnUse" x1="0" y1="1" x2="1" y2="0" gradientTransform="matrix(32,0,0,32,0,0)">
<stop offset="0" style="stop-color:rgb(10.588235%,40.000001%,5.882353%);stop-opacity:1;"/>
<stop offset="1" style="stop-color:rgb(42.352942%,68.235296%,24.313726%);stop-opacity:1;"/>
</linearGradient>
</defs>
<g id="surface1">
<rect x="0" y="0" width="32" height="32" style="fill:url(#linear0);stroke:none;"/>
<path style=" stroke:none;fill-rule:evenodd;fill:rgb(100%,100%,100%);fill-opacity:1;" d="M 26.429688 5 L 22.9375 5 L 22.9375 6 L 25.164062 6 L 22.527344 8.648438 L 23.230469 9.351562 L 25.929688 6.648438 L 25.929688 9 L 26.925781 9 L 26.925781 5.5 C 26.925781 5.222656 26.703125 5 26.429688 5 M 5.925781 6.648438 L 8.621094 9.351562 L 9.328125 8.648438 L 6.6875 6 L 8.917969 6 L 8.917969 5 L 5.425781 5 C 5.148438 5 4.925781 5.222656 4.925781 5.5 L 4.925781 9 L 5.925781 9 Z M 25.929688 25.351562 L 23.230469 22.648438 L 22.527344 23.351562 L 25.164062 26 L 22.9375 26 L 22.9375 27 L 26.429688 27 C 26.703125 27 26.925781 26.773438 26.925781 26.5 L 26.925781 23 L 25.929688 23 Z M 10.421875 13.234375 C 10.421875 11.761719 11.449219 10.175781 12.757812 9.625 C 15.03125 8.671875 16.640625 9.925781 17.226562 10.507812 C 17.707031 10.984375 18.082031 11.597656 18.339844 12.324219 C 18.402344 12.496094 18.554688 12.621094 18.734375 12.652344 C 18.914062 12.675781 19.09375 12.601562 19.207031 12.457031 C 19.480469 12.09375 19.875 11.886719 20.292969 11.886719 C 20.917969 11.886719 21.683594 12.375 21.761719 13.753906 C 21.777344 13.976562 21.9375 14.164062 22.15625 14.214844 C 23.789062 14.558594 24.613281 15.457031 24.613281 16.894531 C 24.613281 17.25 24.570312 17.574219 24.484375 17.855469 L 25.441406 18.144531 C 25.558594 17.738281 25.613281 17.316406 25.609375 16.894531 C 25.609375 15.085938 24.589844 13.828125 22.71875 13.320312 C 22.480469 11.652344 21.324219 10.886719 20.292969 10.886719 C 19.824219 10.886719 19.375 11.03125 18.988281 11.296875 C 18.722656 10.742188 18.363281 10.234375 17.929688 9.796875 C 16.410156 8.289062 14.332031 7.878906 12.371094 8.703125 C 10.691406 9.410156 9.421875 11.355469 9.421875 13.234375 C 9.421875 13.292969 9.425781 13.359375 9.429688 13.421875 C 7.925781 13.953125 7.042969 15.21875 7.042969 16.871094 C 7.042969 16.957031 7.046875 17.039062 7.050781 17.121094 C 7.132812 18.582031 8.105469 19.84375 9.527344 20.335938 L 9.851562 19.390625 C 8.816406 19.03125 8.105469 18.121094 8.046875 17.066406 C 8.042969 17.003906 8.042969 16.9375 8.042969 16.871094 C 8.042969 15.050781 9.316406 14.460938 10.078125 14.269531 C 10.324219 14.210938 10.484375 13.976562 10.453125 13.726562 C 10.433594 13.5625 10.421875 13.398438 10.421875 13.234375 M 20.414062 17.300781 C 20.414062 17.144531 20.378906 17.054688 20.351562 17.027344 C 20.324219 17.003906 20.261719 16.992188 20.179688 17 L 15.160156 17 C 14.882812 17 14.660156 16.777344 14.660156 16.5 C 14.652344 16.332031 14.628906 16.164062 14.597656 16 L 13.453125 16 C 13.40625 16.164062 13.375 16.332031 13.355469 16.503906 C 13.347656 16.773438 13.128906 16.992188 12.859375 17 L 11.707031 17 C 11.589844 16.992188 11.527344 17.003906 11.503906 17.027344 C 11.472656 17.054688 11.4375 17.144531 11.4375 17.300781 L 11.4375 22.5 L 20.414062 22.5 Z M 21.410156 18.5 L 21.410156 20.882812 L 22.601562 18.5 Z M 21.359375 23.222656 L 21.355469 23.222656 C 21.273438 23.390625 21.101562 23.5 20.914062 23.5 L 10.941406 23.5 C 10.808594 23.5 10.679688 23.449219 10.585938 23.355469 C 10.492188 23.261719 10.441406 23.132812 10.441406 23 L 10.441406 17.300781 C 10.441406 16.765625 10.648438 16.460938 10.824219 16.296875 C 10.984375 16.144531 11.273438 15.96875 11.742188 16 L 12.417969 16 C 12.5 15.5625 12.699219 15 13.167969 15 L 14.914062 15 C 14.945312 15 14.976562 15.003906 15.007812 15.007812 C 15.40625 15.085938 15.5625 15.589844 15.621094 16 L 20.144531 16 C 20.46875 15.96875 20.789062 16.074219 21.03125 16.296875 C 21.203125 16.460938 21.410156 16.765625 21.410156 17.300781 L 21.410156 17.5 L 23.40625 17.5 C 23.578125 17.5 23.738281 17.589844 23.832031 17.738281 C 23.921875 17.882812 23.929688 18.070312 23.851562 18.222656 Z M 9.328125 23.351562 L 6.6875 26 L 8.917969 26 L 8.917969 27 L 5.425781 27 C 5.292969 27 5.164062 26.949219 5.070312 26.855469 C 4.976562 26.761719 4.925781 26.632812 4.925781 26.5 L 4.925781 23 L 5.925781 23 L 5.925781 25.351562 L 8.621094 22.648438 Z M 9.328125 23.351562 "/>
</g>
</svg>
