<?xml version="1.0" encoding="UTF-8"?>
<svg xmlns="http://www.w3.org/2000/svg" xmlns:xlink="http://www.w3.org/1999/xlink" width="32" height="32" viewBox="0 0 32 32" version="1.1">
<g id="surface1">
<path style=" stroke:none;fill-rule:nonzero;fill:rgb(78.823531%,14.509805%,81.960785%);fill-opacity:1;" d="M 0.203125 0.203125 L 31.796875 0.203125 L 31.796875 31.796875 L 0.203125 31.796875 Z M 0.203125 0.203125 "/>
<path style=" stroke:none;fill-rule:nonzero;fill:rgb(100%,100%,100%);fill-opacity:1;" d="M 4.902344 4.265625 L 9.097656 8.457031 L 8.457031 9.097656 L 4.265625 4.902344 L 4.265625 8.328125 L 3.363281 8.328125 L 3.363281 3.8125 C 3.363281 3.566406 3.566406 3.363281 3.8125 3.363281 L 8.328125 3.363281 L 8.328125 4.265625 Z M 28.636719 3.8125 L 28.636719 8.328125 L 27.734375 8.328125 L 27.734375 4.902344 L 23.542969 9.097656 L 22.902344 8.457031 L 27.097656 4.265625 L 23.671875 4.265625 L 23.671875 3.363281 L 28.1875 3.363281 C 28.433594 3.363281 28.636719 3.566406 28.636719 3.8125 M 27.734375 23.671875 L 28.636719 23.671875 L 28.636719 28.1875 C 28.636719 28.433594 28.433594 28.636719 28.1875 28.636719 L 23.671875 28.636719 L 23.671875 27.734375 L 27.097656 27.734375 L 22.902344 23.542969 L 23.542969 22.902344 L 27.734375 27.097656 Z M 27.507812 15.644531 C 27.507812 14.144531 25.777344 12.667969 22.882812 11.6875 L 23.171875 10.832031 C 26.503906 11.957031 28.410156 13.710938 28.410156 15.644531 C 28.410156 17.574219 26.503906 19.332031 23.171875 20.460938 L 22.882812 19.605469 C 25.777344 18.625 27.507812 17.140625 27.507812 15.644531 M 4.515625 15.644531 C 4.515625 17.082031 6.136719 18.519531 8.847656 19.5 L 8.539062 20.351562 C 5.40625 19.21875 3.613281 17.503906 3.613281 15.644531 C 3.613281 13.785156 5.40625 12.070312 8.539062 10.941406 L 8.847656 11.792969 C 6.136719 12.769531 4.515625 14.210938 4.515625 15.644531 M 9.097656 23.542969 L 4.902344 27.734375 L 8.328125 27.734375 L 8.328125 28.636719 L 3.8125 28.636719 C 3.566406 28.636719 3.363281 28.433594 3.363281 28.1875 L 3.363281 23.671875 L 4.265625 23.671875 L 4.265625 27.097656 L 8.457031 22.902344 Z M 16 12.066406 C 12.777344 12.066406 11.035156 11.230469 11.035156 10.890625 C 11.035156 10.550781 12.777344 9.722656 16 9.722656 C 19.222656 9.722656 20.964844 10.550781 20.964844 10.890625 C 20.964844 11.230469 19.222656 12.066406 16 12.066406 M 16.011719 15.5625 C 12.925781 15.5625 11.035156 14.71875 11.035156 14.257812 L 11.035156 12.066406 C 12.148438 12.679688 14.121094 12.96875 16 12.96875 C 17.878906 12.96875 19.851562 12.679688 20.964844 12.066406 L 20.964844 14.257812 C 20.964844 14.71875 19.085938 15.5625 16.011719 15.5625 M 16.011719 19.007812 C 12.925781 19.007812 11.035156 18.167969 11.035156 17.707031 L 11.035156 15.484375 C 12.132812 16.128906 14.078125 16.464844 16.011719 16.464844 C 17.9375 16.464844 19.871094 16.132812 20.964844 15.488281 L 20.964844 17.707031 C 20.964844 18.167969 19.085938 19.007812 16.011719 19.007812 M 16 22.101562 C 12.789062 22.101562 11.035156 21.238281 11.035156 20.796875 L 11.035156 18.933594 C 12.132812 19.578125 14.078125 19.914062 16.011719 19.914062 C 17.9375 19.914062 19.871094 19.582031 20.964844 18.9375 L 20.964844 20.796875 C 20.964844 21.238281 19.210938 22.101562 16 22.101562 M 16 8.816406 C 13.171875 8.816406 10.128906 9.464844 10.128906 10.890625 L 10.128906 20.796875 C 10.128906 22.246094 13.082031 23.003906 16 23.003906 C 18.917969 23.003906 21.871094 22.246094 21.871094 20.796875 L 21.871094 10.890625 C 21.871094 9.464844 18.828125 8.816406 16 8.816406 "/>
</g>
</svg>
