<svg xmlns="http://www.w3.org/2000/svg" width="70" height="80" stroke="none" stroke-linecap="round" stroke-linejoin="round" fill="#fff" fill-rule="evenodd"><path d="M16.5581 12.7502L0 38.5908l16.5581 25.8406 13.2266-3.3236.6544-44.8688-13.881-3.4888z" fill="#876929"/><path d="M35.0496 59.7862l-18.4915 4.6452V12.7502l18.4915 4.6453v42.3907z" fill="#d9a741"/><g fill="#876929"><path d="M32.8485 21.6132L35.0496 80 70 62.8669l-.0099-43.6152-8.9136 1.448-28.228.9135z"/><path d="M46.1842 33.1487l10.9065-.6317 10.7776-19.1642L40.6119 0 30.4391 4.3635l15.7451 28.7852z"/></g><path d="M40.6119 0l27.2564 13.3528L57.0907 32.517 40.6119 0z" fill="#d9a741"/><path d="M35.0495 5.5394l22.0411 39.2031 3.7876 22.5948L35.0495 80l-10.4603-5.1311V9.6405l10.4504-4.1011h.0099z" fill="#876929"/><path d="M69.9901 19.2517L70 62.8669 35.0496 80V5.5394l22.0411 39.2031 12.8994-25.4908z" fill="#d9a741"/></svg>