<?xml version="1.0" encoding="UTF-8"?>
<svg xmlns="http://www.w3.org/2000/svg" xmlns:xlink="http://www.w3.org/1999/xlink" width="32" height="32" viewBox="0 0 32 32" version="1.1">
<defs>
<linearGradient id="linear0" gradientUnits="userSpaceOnUse" x1="0" y1="1" x2="1" y2="0" gradientTransform="matrix(32,0,0,32,0,0)">
<stop offset="0" style="stop-color:rgb(74.117649%,3.137255%,8.627451%);stop-opacity:1;"/>
<stop offset="1" style="stop-color:rgb(100%,32.156864%,32.156864%);stop-opacity:1;"/>
</linearGradient>
</defs>
<g id="surface1">
<rect x="0" y="0" width="32" height="32" style="fill:url(#linear0);stroke:none;"/>
<path style=" stroke:none;fill-rule:evenodd;fill:rgb(100%,100%,100%);fill-opacity:1;" d="M 10.902344 10.976562 C 11.640625 11.171875 12.511719 11.460938 13.410156 11.761719 C 14.777344 12.21875 16.332031 12.734375 17 12.734375 C 17.667969 12.734375 19.222656 12.21875 20.59375 11.761719 C 21.492188 11.460938 22.359375 11.171875 23.097656 10.976562 L 21.949219 10.289062 C 21.023438 10.628906 17.953125 11.734375 17 11.734375 C 16.050781 11.734375 12.976562 10.628906 12.050781 10.289062 Z M 12.691406 9.457031 C 14.226562 10.015625 16.40625 10.734375 17 10.734375 C 17.589844 10.734375 19.765625 10.019531 21.300781 9.460938 L 19.421875 6.074219 C 19.382812 6.007812 19.265625 5.980469 19.175781 6.035156 L 17.613281 6.972656 C 17.234375 7.199219 16.765625 7.199219 16.386719 6.972656 L 14.824219 6.035156 C 14.730469 5.976562 14.597656 6 14.523438 6.035156 Z M 20.957031 12.695312 C 20.941406 12.699219 20.925781 12.703125 20.910156 12.710938 C 19.324219 13.238281 17.832031 13.734375 17 13.734375 C 16.167969 13.734375 14.675781 13.238281 13.09375 12.710938 C 13.078125 12.703125 13.058594 12.699219 13.042969 12.695312 C 13.359375 14.65625 15.511719 17.734375 17 17.734375 C 18.488281 17.734375 20.640625 14.65625 20.957031 12.695312 M 9.019531 11.371094 C 8.957031 11.15625 9.050781 10.925781 9.242188 10.808594 L 11.585938 9.398438 L 13.699219 5.453125 C 13.730469 5.402344 13.765625 5.355469 13.808594 5.3125 C 14.15625 5.011719 14.808594 4.859375 15.339844 5.175781 L 16.902344 6.113281 C 16.960938 6.152344 17.039062 6.152344 17.097656 6.113281 L 18.660156 5.175781 C 19.21875 4.84375 19.9375 5.019531 20.285156 5.566406 L 22.410156 9.398438 L 24.757812 10.808594 C 24.953125 10.921875 25.042969 11.15625 24.980469 11.371094 C 24.921875 11.585938 24.722656 11.734375 24.5 11.734375 C 24.003906 11.734375 23.023438 12.019531 21.992188 12.351562 C 21.90625 14.636719 19.3125 18.734375 17 18.734375 C 14.6875 18.734375 12.09375 14.636719 12.007812 12.351562 C 10.976562 12.019531 9.996094 11.734375 9.5 11.734375 C 9.277344 11.734375 9.082031 11.585938 9.019531 11.371094 M 23.710938 19.234375 L 23.855469 19.089844 C 23.957031 18.988281 24.011719 18.84375 24 18.699219 C 23.988281 18.554688 23.917969 18.421875 23.800781 18.335938 L 21.800781 16.835938 L 21.199219 17.636719 L 22.742188 18.789062 L 22.523438 19.007812 L 22.5 19.007812 L 22.5 19.03125 L 19.648438 21.882812 C 19.554688 21.976562 19.5 22.105469 19.5 22.238281 C 19.5 22.371094 19.554688 22.496094 19.648438 22.589844 L 20.824219 23.765625 L 18.617188 26.414062 L 19.382812 27.054688 L 21.882812 24.054688 C 22.050781 23.855469 22.035156 23.5625 21.851562 23.382812 L 20.707031 22.234375 L 22.898438 20.046875 C 24.445312 20.320312 26 22.097656 26 23.734375 L 26 27.1875 L 27 27.1875 L 27 23.734375 C 27 21.820312 25.484375 19.878906 23.710938 19.234375 M 14.886719 25.523438 L 12.542969 23.167969 C 12.363281 23.390625 12.15625 23.597656 11.933594 23.777344 L 14.285156 26.125 C 14.363281 26.199219 14.472656 26.238281 14.582031 26.234375 C 14.691406 26.234375 14.792969 26.183594 14.867188 26.105469 C 14.945312 26.03125 14.996094 25.925781 15 25.816406 C 15.003906 25.707031 14.960938 25.601562 14.886719 25.523438 M 9.25 23.734375 C 11.042969 23.730469 12.5 22.277344 12.5 20.484375 C 12.496094 18.6875 11.042969 17.234375 9.25 17.234375 C 7.457031 17.234375 6.003906 18.691406 6 20.484375 C 6 22.277344 7.457031 23.730469 9.25 23.734375 M 15.597656 24.816406 C 16.144531 25.375 16.132812 26.269531 15.574219 26.8125 C 15.304688 27.082031 14.941406 27.234375 14.558594 27.234375 C 14.191406 27.234375 13.839844 27.089844 13.578125 26.832031 L 11.066406 24.320312 C 10.5 24.59375 9.878906 24.734375 9.25 24.734375 C 6.902344 24.730469 5.003906 22.832031 5 20.484375 C 5.003906 18.136719 6.902344 16.234375 9.25 16.234375 C 11.597656 16.234375 13.496094 18.136719 13.5 20.484375 C 13.5 21.113281 13.359375 21.730469 13.089844 22.296875 Z M 19.148438 18.882812 L 17 21.027344 L 14.851562 18.882812 L 14.148438 19.589844 L 16.648438 22.089844 C 16.742188 22.183594 16.867188 22.234375 17 22.234375 C 17.132812 22.234375 17.257812 22.183594 17.351562 22.089844 L 19.851562 19.589844 Z M 23 27.191406 L 24 27.191406 L 24 24.234375 L 23 24.234375 Z M 23 27.191406 "/>
</g>
</svg>
