<?xml version="1.0" encoding="UTF-8"?>
<svg xmlns="http://www.w3.org/2000/svg" xmlns:xlink="http://www.w3.org/1999/xlink" width="32.894581" height="32" viewBox="0 0 32.894581 32" version="1.1">
<g id="surface1">
<path style=" stroke:none;fill-rule:nonzero;fill:rgb(12.941177%,14.509805%,16.078432%);fill-opacity:1;" d="M 9.253906 31.796875 C 9.066406 31.730469 8.875 31.664062 8.683594 31.601562 C 8.65625 31.601562 5.125 27.230469 4.589844 26.535156 C 4.03125 25.832031 3.46875 25.132812 2.898438 24.4375 C -0.25 20.566406 -0.046875 20.914062 0.0351562 19.570312 C 0.0742188 18.9375 0.171875 18.238281 0.253906 18.015625 C 0.335938 17.792969 0.707031 16.242188 1.078125 14.566406 C 1.453125 12.894531 1.816406 11.28125 1.886719 10.984375 C 1.960938 10.6875 2.140625 9.898438 2.289062 9.226562 C 2.976562 6.175781 3 6.136719 4.527344 5.375 C 5.511719 4.886719 6.503906 4.40625 7.5 3.933594 L 12.5625 1.519531 C 16.535156 -0.378906 16.375 -0.359375 18.785156 0.808594 C 19.636719 1.222656 21.097656 1.925781 22.027344 2.371094 C 22.957031 2.8125 24.296875 3.453125 25 3.789062 C 25.707031 4.128906 26.925781 4.703125 27.707031 5.066406 C 29.238281 5.785156 29.765625 6.253906 29.996094 7.105469 C 30.121094 7.5625 30.3125 8.363281 31.085938 11.730469 C 31.230469 12.359375 31.53125 13.636719 31.75 14.566406 C 31.96875 15.496094 32.246094 16.714844 32.367188 17.269531 C 32.488281 17.828125 32.65625 18.519531 32.742188 18.804688 C 32.996094 19.679688 32.929688 20.523438 32.5625 21.078125 C 32.382812 21.351562 31.257812 22.769531 30.070312 24.234375 C 28.882812 25.699219 27.757812 27.097656 27.570312 27.339844 C 25.777344 29.703125 24.203125 31.5 23.707031 31.738281 C 23.183594 31.992188 22.859375 32.003906 16.476562 32 C 11.011719 31.992188 9.695312 31.957031 9.253906 31.796875 M 16.621094 24.210938 C 17.640625 23.875 18.730469 23.289062 19.28125 22.785156 L 19.578125 22.511719 L 19.65625 23.035156 C 19.851562 24.28125 19.785156 24.234375 21.21875 24.234375 L 22.5 24.234375 L 22.5 17.609375 C 22.5 10.078125 22.507812 10.132812 21.378906 8.875 C 20.246094 7.613281 18.667969 7.179688 15.679688 7.3125 C 13.769531 7.394531 12.148438 7.707031 10.933594 8.230469 L 10.265625 8.519531 L 10.265625 9.652344 C 10.265625 10.273438 10.308594 10.78125 10.359375 10.78125 C 10.410156 10.78125 10.882812 10.664062 11.40625 10.515625 C 12.644531 10.171875 14.898438 9.835938 15.988281 9.835938 C 17.011719 9.835938 18.191406 10.160156 18.625 10.558594 C 19.25 11.132812 19.371094 11.5625 19.433594 13.40625 C 19.488281 15.0625 19.480469 15.144531 19.242188 15.054688 C 19.101562 15 18.410156 14.871094 17.703125 14.761719 C 14.386719 14.261719 12.082031 14.765625 10.515625 16.332031 C 9.492188 17.355469 9.261719 17.988281 9.257812 19.773438 C 9.253906 21.011719 9.300781 21.363281 9.542969 21.882812 C 10.144531 23.1875 11.222656 24.058594 12.578125 24.429688 C 13.761719 24.753906 15.15625 24.695312 16.621094 24.210938 M 13.882812 21.953125 C 13.195312 21.695312 12.972656 21.492188 12.683594 20.855469 C 12.191406 19.773438 12.488281 18.210938 13.308594 17.566406 C 14.160156 16.894531 16.386719 16.675781 18.511719 17.050781 L 19.390625 17.203125 L 19.390625 20.582031 L 18.652344 21.023438 C 17.039062 21.984375 15.019531 22.378906 13.882812 21.953125 Z M 13.882812 21.953125 "/>
</g>
</svg>
