<?xml version="1.0" encoding="UTF-8"?>
<svg xmlns="http://www.w3.org/2000/svg" xmlns:xlink="http://www.w3.org/1999/xlink" width="28" height="32" viewBox="0 0 28 32" version="1.1">
<g id="surface1">
<path style=" stroke:none;fill-rule:evenodd;fill:rgb(18.039216%,45.09804%,72.156864%);fill-opacity:1;" d="M 28 7.070312 L 24.5 3.164062 L 19.566406 16 L 24.5 28.828125 L 28 24.929688 Z M 28 7.070312 "/>
<path style=" stroke:none;fill-rule:evenodd;fill:rgb(32.156864%,58.039218%,81.176472%);fill-opacity:1;" d="M 18.375 32 L 24.5 28.828125 L 24.5 3.164062 L 18.375 0 L 11.105469 16 Z M 18.375 32 "/>
<path style=" stroke:none;fill-rule:evenodd;fill:rgb(18.039216%,45.09804%,72.156864%);fill-opacity:1;" d="M 9.625 32 L 18.375 32 L 18.375 0 L 9.625 0 L 4.375 16 Z M 9.625 32 "/>
<path style=" stroke:none;fill-rule:evenodd;fill:rgb(12.54902%,35.686275%,60.000002%);fill-opacity:1;" d="M 3.5 28.820312 L 9.625 32 L 9.625 0 L 3.5 3.164062 L 0.792969 16 Z M 3.5 28.820312 "/>
<path style=" stroke:none;fill-rule:evenodd;fill:rgb(9.803922%,28.235295%,43.529412%);fill-opacity:1;" d="M 0 24.929688 L 3.5 28.820312 L 3.5 3.164062 L 0 7.070312 Z M 0 24.929688 "/>
</g>
</svg>
