<?xml version="1.0" encoding="UTF-8"?>
<svg xmlns="http://www.w3.org/2000/svg" xmlns:xlink="http://www.w3.org/1999/xlink" width="32" height="32" viewBox="0 0 32 32" version="1.1">
<defs>
<linearGradient id="linear0" gradientUnits="userSpaceOnUse" x1="0" y1="1" x2="1" y2="0" gradientTransform="matrix(32,0,0,32,0,0)">
<stop offset="0" style="stop-color:rgb(74.117649%,3.137255%,8.627451%);stop-opacity:1;"/>
<stop offset="1" style="stop-color:rgb(100%,32.156864%,32.156864%);stop-opacity:1;"/>
</linearGradient>
</defs>
<g id="surface1">
<rect x="0" y="0" width="32" height="32" style="fill:url(#linear0);stroke:none;"/>
<path style=" stroke:none;fill-rule:evenodd;fill:rgb(100%,100%,100%);fill-opacity:1;" d="M 13.5 21 L 15 21 L 15 20 L 13.5 20 Z M 10 21 L 13 21 L 13 20 L 10 20 Z M 10 19 L 14.5 19 L 14.5 18 L 10 18 Z M 26 23.5 L 26 16 L 25.5 16 L 25.5 21.5 C 25.5 21.777344 25.277344 22 25 22 L 17 22 C 16.867188 22 16.738281 21.949219 16.644531 21.855469 C 16.550781 21.761719 16.5 21.632812 16.5 21.5 L 16.5 16 L 9 16 L 9 23.5 Z M 18.035156 21 L 23.949219 21 C 23.730469 19.820312 22.746094 18.953125 21.71875 18.617188 C 21.433594 18.734375 21.132812 18.796875 20.824219 18.796875 C 20.519531 18.796875 20.226562 18.738281 19.949219 18.628906 C 18.890625 18.976562 18.191406 19.847656 18.035156 21 M 21.484375 17.625 C 21.917969 17.390625 22.1875 16.941406 22.1875 16.453125 C 22.1875 15.707031 21.574219 15.105469 20.824219 15.105469 C 20.074219 15.105469 19.460938 15.707031 19.460938 16.453125 C 19.460938 16.941406 19.730469 17.390625 20.164062 17.628906 C 20.570312 17.847656 21.070312 17.851562 21.484375 17.625 M 24.5 13.5 L 17.5 13.5 L 17.5 19.457031 C 17.847656 18.816406 18.371094 18.292969 19.011719 17.949219 C 18.65625 17.53125 18.464844 17 18.460938 16.453125 C 18.464844 15.152344 19.523438 14.101562 20.824219 14.105469 C 22.125 14.101562 23.183594 15.152344 23.1875 16.453125 C 23.1875 16.996094 22.992188 17.511719 22.660156 17.921875 C 23.453125 18.3125 24.09375 18.914062 24.5 19.632812 Z M 9 11.5 L 9 15 L 16.5 15 L 16.5 13 C 16.5 12.722656 16.722656 12.5 17 12.5 L 25 12.5 C 25.277344 12.5 25.5 12.722656 25.5 13 L 25.5 15 L 26 15 L 26 11.5 Z M 27 11 L 27 24 C 27 24.277344 26.777344 24.5 26.5 24.5 L 8.5 24.5 C 8.367188 24.5 8.238281 24.449219 8.144531 24.355469 C 8.050781 24.261719 8 24.132812 8 24 L 8 11 C 8 10.722656 8.222656 10.5 8.5 10.5 L 26.5 10.5 C 26.777344 10.5 27 10.722656 27 11 M 6.5 21 L 7 21 L 7 22 L 6 22 C 5.867188 22 5.738281 21.949219 5.644531 21.855469 C 5.550781 21.761719 5.5 21.632812 5.5 21.5 L 5.5 8.5 C 5.5 8.222656 5.722656 8 6 8 L 24.5 8 C 24.777344 8 25 8.222656 25 8.5 L 25 9.5 L 24 9.5 L 24 9 L 6.5 9 Z M 6.5 21 "/>
</g>
</svg>
