<?xml version="1.0" encoding="UTF-8"?>
<svg xmlns="http://www.w3.org/2000/svg" xmlns:xlink="http://www.w3.org/1999/xlink" width="27.368" height="32" viewBox="0 0 27.368 32" version="1.1">
<g id="surface1">
<path style=" stroke:none;fill-rule:evenodd;fill:rgb(29.411766%,38.039216%,17.254902%);fill-opacity:1;" d="M 15.378906 19.011719 C 16.453125 17.351562 18.398438 16.335938 20.5 16.332031 L 21.445312 16.332031 L 21.445312 1.304688 L 0 1.304688 L 0 23.277344 L 14.527344 23.277344 L 14.527344 21.832031 C 14.527344 20.839844 14.820312 19.863281 15.378906 19.011719 M 15.378906 19.011719 "/>
<path style=" stroke:none;fill-rule:evenodd;fill:rgb(45.882353%,61.176473%,24.313726%);fill-opacity:1;" d="M 15.378906 17.726562 C 16.449219 16.058594 18.394531 15.035156 20.5 15.027344 L 21.445312 15.027344 L 21.445312 0 L 0 0 L 0 21.972656 L 14.527344 21.972656 L 14.527344 20.546875 C 14.527344 19.554688 14.820312 18.578125 15.378906 17.726562 M 15.378906 17.726562 "/>
<path style=" stroke:none;fill-rule:evenodd;fill:rgb(100%,100%,100%);fill-opacity:1;" d="M 9.515625 3.9375 L 19 3.9375 L 19 5.554688 L 9.515625 5.554688 Z M 9.515625 10.1875 L 19 10.1875 L 19 11.804688 L 9.515625 11.804688 Z M 2.105469 4.21875 L 3.242188 3.175781 L 5.519531 5.273438 L 4.382812 6.316406 Z M 3.273438 5.296875 L 6.929688 1.9375 L 8.039062 2.957031 L 4.386719 6.316406 Z M 3.277344 11.457031 L 6.933594 8.097656 L 8.042969 9.117188 L 4.390625 12.476562 Z M 3.277344 17.617188 L 6.929688 14.257812 L 8.042969 15.277344 L 4.390625 18.636719 Z M 2.101562 10.378906 L 3.238281 9.335938 L 5.519531 11.433594 L 4.382812 12.476562 Z M 2.109375 16.546875 L 3.242188 15.5 L 5.523438 17.597656 L 4.386719 18.640625 Z M 9.515625 18.058594 L 15.191406 18.058594 L 15.378906 17.726562 C 15.699219 17.238281 16.097656 16.804688 16.550781 16.441406 L 9.515625 16.441406 Z M 9.515625 18.058594 "/>
<path style=" stroke:none;fill-rule:evenodd;fill:rgb(29.411766%,38.039216%,17.254902%);fill-opacity:1;" d="M 25.074219 24.519531 L 25.074219 21.339844 C 24.792969 19.21875 22.835938 17.621094 20.511719 17.621094 C 18.1875 17.621094 16.226562 19.21875 15.945312 21.339844 L 15.945312 24.519531 L 13.578125 24.519531 L 13.578125 31.578125 L 27.367188 31.578125 L 27.367188 24.519531 Z M 22.820312 24.519531 L 18.144531 24.519531 L 18.144531 21.339844 C 18.152344 20.789062 18.410156 20.261719 18.855469 19.894531 C 19.3125 19.519531 19.902344 19.339844 20.492188 19.394531 C 21.722656 19.347656 22.769531 20.210938 22.84375 21.339844 Z M 22.820312 24.519531 "/>
<path style=" stroke:none;fill-rule:evenodd;fill:rgb(45.882353%,61.176473%,24.313726%);fill-opacity:1;" d="M 25.074219 23.234375 L 25.074219 20.054688 C 24.792969 17.933594 22.835938 16.335938 20.511719 16.335938 C 18.1875 16.335938 16.226562 17.933594 15.945312 20.054688 L 15.945312 23.234375 L 13.578125 23.234375 L 13.578125 30.292969 L 27.367188 30.292969 L 27.367188 23.234375 Z M 22.820312 23.234375 L 18.144531 23.234375 L 18.144531 20.054688 C 18.160156 19.503906 18.421875 18.984375 18.871094 18.621094 C 19.332031 18.25 19.921875 18.078125 20.511719 18.136719 C 21.738281 18.085938 22.785156 18.953125 22.859375 20.082031 Z M 22.820312 23.234375 "/>
</g>
</svg>
