<svg role="img" viewBox="-.5 -.5 79 79" xmlns="http://www.w3.org/2000/svg"><path d="M0 0h78v78H0Z" fill="#e7157b" pointer-events="all"/><path d="M53.49 39.51h5.57v-2.23h-5.57Zm-27.86 13.4h5.57v-2.24h-5.57Zm-11.14 0h7.8v-2.24h-7.8Zm0-6.7h13.37v-2.23H14.49Zm0-13.39h10.02v-2.23H14.49Zm0 6.69h36.77v-2.23H14.49Zm21.17 24.56H10.03V26.12h25.63v8.93h2.23V25.01c0-.62-.5-1.12-1.12-1.12H8.91c-.61 0-1.11.5-1.11 1.12v40.17c0 .62.5 1.12 1.11 1.12h27.86c.62 0 1.12-.5 1.12-1.12V42.86h-2.23Zm34.54-27.9c0 7.21-6.49 9.72-9.93 10.03l-17.93.01v-2.23h17.83c.22-.03 7.8-.85 7.8-7.81 0-6.35-5.72-7.64-6.87-7.83-.57-.1-.97-.62-.92-1.2v-.06c-.06-3.58-2.26-4.7-3.21-5.02-1.78-.59-3.76-.03-4.81 1.38-.24.33-.65.5-1.06.44-.4-.06-.74-.34-.88-.73-.69-1.94-1.7-3.2-3.09-4.6-3.5-3.47-8.24-4.43-12.67-2.56-2.33.98-4.36 3.2-5.58 6.1l-2.05-.87c1.44-3.42 3.91-6.08 6.77-7.29 5.29-2.23 10.94-1.09 15.1 3.04 1.19 1.2 2.18 2.36 2.95 3.87 1.66-1.23 3.9-1.6 6.02-.9 2.71.9 4.43 3.26 4.7 6.39 3.8.95 7.83 3.99 7.83 9.84" fill="#ffffff" pointer-events="all"/></svg>