<svg role="img" viewBox="0 0 32 32" xmlns="http://www.w3.org/2000/svg"><path d="M0 16.633C0 8.117 7.137 1.262 16 1.262s16 6.855 16 15.37C32 25.146 24.863 32 16 32S0 25.145 0 16.633m0 0" style="stroke:none;fill-rule:evenodd;fill:rgb(61.56863%,31.37255%,14.509805%);fill-opacity:1"/><path d="M0 15.367C0 6.855 7.137 0 16 0s16 6.855 16 15.367c0 8.516-7.137 15.371-16 15.371S0 23.883 0 15.368m0 0" style="stroke:none;fill-rule:evenodd;fill:rgb(96.078432%,52.156866%,21.176471%);fill-opacity:1"/><path d="M20.668 2.953v5.582h-9.336V2.953Zm7.227 16.152v4.547H23.16v-4.547Zm-5.985 0v4.547h-4.73v-4.547Zm-7.281 0v4.547H9.895v-4.547Zm-5.984 0v4.547H3.91v-4.547Zm-2.793-3.933h.851v4.46h-.851Zm0 0h6.836v.816H5.852Zm5.984 0h.851v4.46h-.851Zm7.281 0h.852v4.46h-.852Zm0 0h6.836v.816h-6.836Zm5.985 0h.851v4.46h-.851ZM8.848 11.988h.851v3.594h-.851Zm6.726-4.277h.852v4.344h-.852Zm-6.726 3.934h14.129v.82H8.847Zm13.277.343h.852v3.594h-.852Zm0 0" style="stroke:none;fill-rule:evenodd;fill:rgb(100%,100%,100%);fill-opacity:1"/></svg>