<?xml version="1.0" encoding="UTF-8"?>
<svg xmlns="http://www.w3.org/2000/svg" xmlns:xlink="http://www.w3.org/1999/xlink" width="32" height="32" viewBox="0 0 32 32" version="1.1">
<g id="surface1">
<path style=" stroke:none;fill-rule:nonzero;fill:rgb(92.941177%,44.313726%,0%);fill-opacity:1;" d="M 0.203125 0.203125 L 31.796875 0.203125 L 31.796875 31.796875 L 0.203125 31.796875 Z M 0.203125 0.203125 "/>
<path style=" stroke:none;fill-rule:nonzero;fill:rgb(100%,100%,100%);fill-opacity:1;" d="M 28.539062 15.457031 L 23.96875 15.457031 L 26.152344 13.273438 L 25.339844 12.46875 L 22.152344 15.660156 C 21.925781 15.882812 21.925781 16.242188 22.152344 16.464844 L 25.339844 19.65625 L 26.152344 18.851562 L 23.898438 16.597656 L 28.539062 16.597656 Z M 6.65625 12.46875 L 5.847656 13.273438 L 8.03125 15.457031 L 3.460938 15.457031 L 3.460938 16.597656 L 8.101562 16.597656 L 5.847656 18.851562 L 6.65625 19.65625 L 9.847656 16.464844 C 10.070312 16.242188 10.070312 15.882812 9.847656 15.660156 Z M 13.058594 18.96875 L 18.941406 18.96875 L 18.941406 13.085938 L 13.058594 13.085938 Z M 19.957031 12.449219 L 21.015625 12.449219 L 21.015625 13.589844 L 20.082031 13.589844 L 20.082031 14.453125 L 21.015625 14.453125 L 21.015625 15.59375 L 20.082031 15.59375 L 20.082031 16.460938 L 21.015625 16.460938 L 21.015625 17.605469 L 20.082031 17.605469 L 20.082031 18.46875 L 21.015625 18.46875 L 21.015625 19.609375 L 19.957031 19.609375 C 19.867188 19.765625 19.738281 19.898438 19.582031 19.984375 L 19.582031 21.042969 L 18.4375 21.042969 L 18.4375 20.113281 L 17.574219 20.113281 L 17.574219 21.042969 L 16.433594 21.042969 L 16.433594 20.113281 L 15.566406 20.113281 L 15.566406 21.042969 L 14.425781 21.042969 L 14.425781 20.113281 L 13.5625 20.113281 L 13.5625 21.042969 L 12.417969 21.042969 L 12.417969 19.984375 C 12.261719 19.898438 12.132812 19.765625 12.042969 19.609375 L 10.984375 19.609375 L 10.984375 18.46875 L 11.917969 18.46875 L 11.917969 17.605469 L 10.984375 17.605469 L 10.984375 16.460938 L 11.917969 16.460938 L 11.917969 15.59375 L 10.984375 15.59375 L 10.984375 14.453125 L 11.917969 14.453125 L 11.917969 13.589844 L 10.984375 13.589844 L 10.984375 12.449219 L 12.042969 12.449219 C 12.132812 12.285156 12.261719 12.15625 12.417969 12.066406 L 12.417969 11.011719 L 13.5625 11.011719 L 13.5625 11.945312 L 14.425781 11.945312 L 14.425781 11.011719 L 15.566406 11.011719 L 15.566406 11.945312 L 16.433594 11.945312 L 16.433594 11.011719 L 17.574219 11.011719 L 17.574219 11.945312 L 18.4375 11.945312 L 18.4375 11.011719 L 19.582031 11.011719 L 19.582031 12.066406 C 19.738281 12.15625 19.867188 12.285156 19.957031 12.449219 M 16.570312 26.6875 L 16.570312 22.046875 L 15.429688 22.046875 L 15.429688 26.691406 L 13.210938 24.46875 L 12.402344 25.28125 L 15.59375 28.472656 C 15.707031 28.582031 15.855469 28.636719 16 28.636719 C 16.144531 28.636719 16.292969 28.582031 16.402344 28.472656 L 19.597656 25.28125 L 18.785156 24.46875 Z M 13.210938 7.585938 L 12.402344 6.777344 L 15.59375 3.585938 C 15.816406 3.363281 16.179688 3.363281 16.402344 3.585938 L 19.597656 6.777344 L 18.785156 7.585938 L 16.570312 5.367188 L 16.570312 10.007812 L 15.429688 10.007812 L 15.429688 5.367188 Z M 13.210938 7.585938 "/>
</g>
</svg>
