<?xml version="1.0" encoding="UTF-8"?>
<!DOCTYPE svg PUBLIC "-//W3C//DTD SVG 1.1//EN" "http://www.w3.org/Graphics/SVG/1.1/DTD/svg11.dtd">
<svg xmlns="http://www.w3.org/2000/svg" xmlns:xlink="http://www.w3.org/1999/xlink" version="1.1" width="79px" height="79px" viewBox="-0.5 -0.5 79 79"><defs><style type="text/css">@import url(https://fonts.googleapis.com/css2?family=Segoe+UI:wght@400;500);&#xa;</style></defs><g><path d="M 0 0 L 78 0 L 78 78 L 0 78 Z" fill="#dd344c" stroke="none" pointer-events="all"/><path d="M 10.03 60.17 L 67.97 60.17 L 67.97 17.83 L 10.03 17.83 Z M 70.2 16.71 L 70.2 61.29 C 70.2 61.9 69.7 62.4 69.09 62.4 L 8.91 62.4 C 8.3 62.4 7.8 61.9 7.8 61.29 L 7.8 16.71 C 7.8 16.1 8.3 15.6 8.91 15.6 L 69.09 15.6 C 69.7 15.6 70.2 16.1 70.2 16.71 Z M 43.46 47.91 L 60.17 47.91 L 60.17 45.69 L 43.46 45.69 Z M 57.94 41.23 L 63.51 41.23 L 63.51 39 L 57.94 39 Z M 43.46 41.23 L 52.37 41.23 L 52.37 39 L 43.46 39 Z M 26.74 45.69 C 26.74 45.07 26.24 44.57 25.63 44.57 C 25.01 44.57 24.51 45.07 24.51 45.69 C 24.51 46.3 25.01 46.8 25.63 46.8 C 26.24 46.8 26.74 46.3 26.74 45.69 Z M 28.97 45.69 C 28.97 47.14 28.04 48.36 26.74 48.82 L 26.74 51.26 L 24.51 51.26 L 24.51 48.82 C 23.22 48.36 22.29 47.14 22.29 45.69 C 22.29 43.84 23.79 42.34 25.63 42.34 C 27.47 42.34 28.97 43.84 28.97 45.69 Z M 15.6 54.59 L 35.65 54.6 L 35.65 50.14 L 31.2 50.14 L 31.2 47.91 L 35.65 47.91 L 35.65 44.57 L 31.2 44.57 L 31.2 42.34 L 35.66 42.34 L 35.66 39.01 L 15.61 39 Z M 18.94 36.77 L 32.31 36.78 L 32.31 28.97 C 32.32 26.41 29.19 24.15 25.63 24.15 L 25.62 24.15 C 22.07 24.15 18.95 26.4 18.95 28.97 Z M 13.37 55.71 L 13.38 37.89 C 13.38 37.59 13.5 37.31 13.7 37.1 C 13.91 36.89 14.2 36.77 14.49 36.77 L 16.71 36.77 L 16.72 28.97 C 16.72 25.08 20.71 21.92 25.62 21.92 L 25.63 21.92 C 30.54 21.93 34.54 25.09 34.54 28.97 L 34.54 36.78 L 36.77 36.78 C 37.39 36.78 37.89 37.28 37.89 37.89 L 37.88 55.71 C 37.88 56.01 37.76 56.29 37.55 56.5 C 37.34 56.71 37.06 56.83 36.76 56.83 L 14.49 56.82 C 13.87 56.82 13.37 56.32 13.37 55.71 Z M 61.29 34.54 L 63.51 34.54 L 63.51 32.31 L 61.29 32.31 Z M 43.46 34.54 L 55.71 34.54 L 55.71 32.31 L 43.46 32.31 Z" fill="#ffffff" stroke="none" pointer-events="all"/></g></svg>