<svg role="img" viewBox="-.5 -.5 79 79" xmlns="http://www.w3.org/2000/svg"><path d="M0 0h78v78H0Z" fill="#e7157b" pointer-events="all"/><path d="M55.45 47.15c0-4.32-3.54-7.84-7.9-7.84-4.35 0-7.9 3.52-7.9 7.84 0 4.33 3.55 7.85 7.9 7.85 4.36 0 7.9-3.52 7.9-7.85m2.22 0c0 5.55-4.54 10.06-10.12 10.06-5.58 0-10.12-4.51-10.12-10.06 0-5.54 4.54-10.05 10.12-10.05 5.58 0 10.12 4.51 10.12 10.05m9.34 15.16-7.75-6.94c-.63.88-1.35 1.68-2.16 2.39l7.75 6.94c.66.59 1.69.54 2.28-.12.6-.65.54-1.67-.12-2.27M47.55 59.2c6.69 0 12.13-5.4 12.13-12.05 0-6.64-5.44-12.04-12.13-12.04-6.68 0-12.12 5.4-12.12 12.04 0 6.65 5.44 12.05 12.12 12.05m21.24 6.86c-.76.84-1.81 1.26-2.86 1.26-.92 0-1.84-.32-2.57-.98l-8.05-7.21c-2.24 1.44-4.9 2.28-7.76 2.28-7.91 0-14.35-6.4-14.35-14.26 0-7.85 6.44-14.25 14.35-14.25 7.91 0 14.35 6.4 14.35 14.25 0 2.26-.54 4.39-1.49 6.28l8.09 7.24c1.57 1.41 1.7 3.83.29 5.39M18.07 27.92c0 .57.03 1.14.1 1.7.04.31-.06.63-.27.87-.17.18-.39.31-.64.35-2.73.7-7.24 2.83-7.24 9.2 0 4.81 2.68 7.46 4.92 8.85.76.47 1.67.73 2.62.74l13.42.01v2.21l-13.43-.01a7.22 7.22 0 0 1-3.79-1.08c-2.22-1.37-5.96-4.59-5.96-10.72 0-7.4 5.09-10.13 8.08-11.1-.02-.34-.04-.68-.04-1.02 0-6.04 4.13-12.31 9.6-14.58 6.4-2.66 13.18-1.34 18.13 3.53 1.54 1.51 2.8 3.35 3.77 5.47a7.14 7.14 0 0 1 4.59-1.67c3.33 0 7.07 2.51 7.73 7.99 3.11.71 9.69 3.2 9.69 11.46 0 3.3-1.04 6.03-3.1 8.1l-1.58-1.55c1.63-1.64 2.45-3.85 2.45-6.55 0-7.22-6.09-9.02-8.71-9.46-.3-.05-.56-.22-.73-.46-.17-.24-.23-.54-.18-.82-.36-4.49-3.05-6.5-5.57-6.5-1.59 0-3.08.77-4.09 2.11-.24.33-.64.49-1.05.44-.4-.06-.74-.34-.88-.72-.91-2.51-2.23-4.62-3.9-6.27-4.3-4.22-10.17-5.36-15.71-3.06-4.62 1.91-8.23 7.42-8.23 12.54" fill="#ffffff" pointer-events="all"/></svg>