<?xml version="1.0" encoding="UTF-8"?>
<svg xmlns="http://www.w3.org/2000/svg" xmlns:xlink="http://www.w3.org/1999/xlink" width="32" height="32" viewBox="0 0 32 32" version="1.1">
<defs>
<linearGradient id="linear0" gradientUnits="userSpaceOnUse" x1="0" y1="1" x2="1" y2="0" gradientTransform="matrix(32,0,0,32,0,0)">
<stop offset="0" style="stop-color:rgb(74.117649%,3.137255%,8.627451%);stop-opacity:1;"/>
<stop offset="1" style="stop-color:rgb(100%,32.156864%,32.156864%);stop-opacity:1;"/>
</linearGradient>
</defs>
<g id="surface1">
<rect x="0" y="0" width="32" height="32" style="fill:url(#linear0);stroke:none;"/>
<path style=" stroke:none;fill-rule:evenodd;fill:rgb(100%,100%,100%);fill-opacity:1;" d="M 18 17.175781 C 17.984375 18.117188 17.695312 19.214844 16.5 19.453125 L 16.5 12.914062 L 18 13.539062 Z M 14 17.167969 L 14 13.539062 L 15.5 12.914062 L 15.5 19.445312 C 14.121094 19.152344 14 17.664062 14 17.167969 M 15.808594 11.703125 L 13.308594 12.742188 C 13.121094 12.820312 13 13 13 13.203125 L 13 17.167969 C 13 18.707031 13.785156 20.5 16 20.5 C 17.84375 20.5 18.964844 19.265625 19 17.183594 L 19 13.203125 C 19 13.003906 18.878906 12.820312 18.691406 12.742188 L 16.191406 11.703125 C 16.070312 11.652344 15.929688 11.652344 15.808594 11.703125 M 20 17.183594 C 20 17.359375 19.953125 21.5 16 21.5 C 12.0625 21.5 12 17.347656 12 17.167969 L 12 12.203125 L 16 10.542969 L 20 12.203125 Z M 20.691406 11.40625 L 16.191406 9.539062 C 16.070312 9.488281 15.929688 9.488281 15.808594 9.539062 L 11.308594 11.40625 C 11.121094 11.484375 11 11.667969 11 11.871094 L 11 17.167969 C 11 19.015625 12.046875 22.5 16 22.5 C 19.953125 22.5 21 19.023438 21 17.183594 L 21 11.871094 C 21 11.667969 20.878906 11.484375 20.691406 11.40625 M 26 17.558594 L 24.785156 17.488281 C 24.542969 17.480469 24.324219 17.644531 24.269531 17.878906 C 24.058594 18.816406 23.6875 19.710938 23.175781 20.519531 C 23.046875 20.726562 23.082031 21 23.265625 21.160156 L 24.171875 21.96875 L 21.96875 24.171875 L 21.164062 23.269531 C 21.003906 23.085938 20.730469 23.050781 20.523438 23.179688 C 19.710938 23.695312 18.816406 24.066406 17.878906 24.277344 C 17.636719 24.328125 17.472656 24.546875 17.488281 24.792969 L 17.558594 26 L 14.441406 26 L 14.511719 24.789062 C 14.527344 24.546875 14.359375 24.328125 14.121094 24.273438 C 13.183594 24.0625 12.289062 23.691406 11.476562 23.175781 C 11.269531 23.046875 11 23.085938 10.839844 23.265625 L 10.03125 24.171875 L 7.828125 21.96875 L 8.734375 21.164062 C 8.914062 21 8.949219 20.730469 8.824219 20.523438 C 8.308594 19.710938 7.9375 18.816406 7.726562 17.878906 C 7.667969 17.644531 7.453125 17.480469 7.210938 17.488281 L 6 17.558594 L 6 14.441406 L 7.214844 14.511719 C 7.457031 14.515625 7.667969 14.355469 7.730469 14.125 C 7.941406 13.1875 8.3125 12.296875 8.828125 11.484375 C 8.960938 11.277344 8.921875 11.003906 8.738281 10.84375 L 7.828125 10.03125 L 10.03125 7.828125 L 10.84375 8.738281 C 11.003906 8.921875 11.277344 8.957031 11.480469 8.828125 C 12.292969 8.3125 13.183594 7.945312 14.121094 7.734375 C 14.359375 7.679688 14.527344 7.460938 14.511719 7.21875 L 14.441406 6 L 17.558594 6 L 17.488281 7.21875 C 17.476562 7.464844 17.640625 7.683594 17.878906 7.734375 C 18.8125 7.949219 19.707031 8.316406 20.515625 8.828125 C 20.722656 8.960938 20.996094 8.921875 21.15625 8.738281 L 21.96875 7.828125 L 24.171875 10.03125 L 23.261719 10.839844 C 23.082031 11.003906 23.046875 11.273438 23.171875 11.480469 C 23.6875 12.292969 24.058594 13.1875 24.269531 14.125 C 24.328125 14.359375 24.542969 14.519531 24.785156 14.511719 L 26 14.441406 Z M 26.84375 13.550781 C 26.742188 13.457031 26.609375 13.410156 26.472656 13.414062 L 25.140625 13.488281 C 24.933594 12.730469 24.628906 12 24.238281 11.3125 L 25.234375 10.425781 C 25.335938 10.335938 25.398438 10.203125 25.402344 10.066406 C 25.40625 9.929688 25.351562 9.796875 25.253906 9.699219 L 22.300781 6.746094 C 22.203125 6.652344 22.070312 6.597656 21.933594 6.601562 C 21.796875 6.605469 21.664062 6.664062 21.574219 6.765625 L 20.683594 7.765625 C 20 7.375 19.269531 7.070312 18.511719 6.863281 L 18.585938 5.527344 C 18.59375 5.390625 18.542969 5.253906 18.449219 5.15625 C 18.355469 5.054688 18.222656 5 18.085938 5 L 13.914062 5 C 13.777344 5 13.644531 5.054688 13.550781 5.15625 C 13.453125 5.253906 13.40625 5.390625 13.414062 5.527344 L 13.488281 6.863281 C 12.726562 7.070312 11.996094 7.371094 11.3125 7.761719 L 10.425781 6.765625 C 10.332031 6.664062 10.203125 6.605469 10.066406 6.601562 C 9.929688 6.597656 9.796875 6.652344 9.699219 6.746094 L 6.746094 9.699219 C 6.648438 9.796875 6.59375 9.929688 6.597656 10.066406 C 6.601562 10.203125 6.664062 10.335938 6.765625 10.425781 L 7.761719 11.3125 C 7.371094 12 7.070312 12.730469 6.859375 13.488281 L 5.527344 13.414062 C 5.390625 13.410156 5.257812 13.457031 5.15625 13.550781 C 5.054688 13.644531 5 13.777344 5 13.914062 L 5 18.085938 C 5 18.222656 5.054688 18.355469 5.15625 18.449219 C 5.257812 18.542969 5.390625 18.59375 5.527344 18.585938 L 6.855469 18.511719 C 7.0625 19.273438 7.367188 20.003906 7.757812 20.691406 L 6.765625 21.574219 C 6.664062 21.667969 6.601562 21.796875 6.597656 21.9375 C 6.59375 22.074219 6.648438 22.207031 6.746094 22.304688 L 9.699219 25.253906 C 9.792969 25.355469 9.929688 25.410156 10.066406 25.402344 C 10.203125 25.394531 10.332031 25.335938 10.425781 25.234375 L 11.308594 24.242188 C 11.996094 24.636719 12.726562 24.941406 13.488281 25.148438 L 13.414062 26.472656 C 13.40625 26.609375 13.457031 26.746094 13.550781 26.84375 C 13.644531 26.945312 13.777344 27 13.914062 27 L 18.085938 27 C 18.222656 27 18.355469 26.945312 18.449219 26.84375 C 18.542969 26.746094 18.59375 26.613281 18.585938 26.472656 L 18.511719 25.148438 C 19.273438 24.941406 20.007812 24.636719 20.691406 24.242188 L 21.574219 25.234375 C 21.667969 25.335938 21.796875 25.394531 21.933594 25.402344 C 22.074219 25.410156 22.207031 25.351562 22.300781 25.253906 L 25.253906 22.304688 C 25.351562 22.207031 25.40625 22.074219 25.402344 21.9375 C 25.398438 21.800781 25.335938 21.667969 25.234375 21.578125 L 24.238281 20.691406 C 24.632812 20.007812 24.933594 19.273438 25.140625 18.511719 L 26.472656 18.585938 C 26.609375 18.59375 26.742188 18.542969 26.84375 18.449219 C 26.945312 18.355469 27 18.222656 27 18.085938 L 27 13.914062 C 27 13.777344 26.945312 13.644531 26.84375 13.550781 M 26.84375 13.550781 "/>
</g>
</svg>
