<svg role="img" viewBox="-.5 -.5 79 79" xmlns="http://www.w3.org/2000/svg"><path d="M0 0h78v78H0Z" fill="#ed7100" pointer-events="all"/><path d="M69.96 37.66H58.67l5.39-5.39-2-1.99-7.87 7.88c-.56.55-.56 1.44 0 1.99l7.87 7.88 2-1.99-5.56-5.56h11.46Zm-54.03-7.38-1.99 1.99 5.39 5.39H8.04v2.82H19.5l-5.56 5.56 1.99 1.99 7.88-7.88c.55-.55.55-1.44 0-1.99Zm15.81 16.05h14.52V31.81H31.74Zm17.03-16.1h2.61v2.82h-2.3v2.13h2.3V38h-2.3v2.14h2.3v2.82h-2.3v2.13h2.3v2.82h-2.61c-.22.39-.54.71-.93.93v2.61h-2.82v-2.3h-2.13v2.3h-2.82v-2.3h-2.14v2.3h-2.82v-2.3h-2.13v2.3h-2.82v-2.61c-.39-.22-.71-.54-.93-.93h-2.61v-2.82h2.3v-2.13h-2.3v-2.82h2.3V38h-2.3v-2.82h2.3v-2.13h-2.3v-2.82h2.61c.22-.4.54-.72.93-.94v-2.6h2.82v2.3h2.13v-2.3h2.82v2.3h2.14v-2.3h2.82v2.3h2.13v-2.3h2.82v2.6c.39.22.71.54.93.94m-8.36 35.15V53.93h-2.82v11.46l-5.48-5.48-1.99 2L38 69.79c.28.27.64.41 1 .41s.72-.14.99-.41l7.89-7.88-2-2Zm-8.3-47.15-1.99-2L38 8.35c.55-.55 1.44-.55 1.99 0l7.89 7.88-2 2-5.47-5.48v11.46h-2.82V12.75Z" fill="#ffffff" pointer-events="all"/></svg>