<?xml version="1.0" encoding="UTF-8"?>
<svg xmlns="http://www.w3.org/2000/svg" xmlns:xlink="http://www.w3.org/1999/xlink" width="31.604938" height="32" viewBox="0 0 31.604938 32" version="1.1">
<g id="surface1">
<path style=" stroke:none;fill-rule:evenodd;fill:rgb(72.156864%,52.156866%,18.039216%);fill-opacity:1;" d="M 12.207031 28.589844 L 8.941406 27.679688 L 5.855469 24.164062 L 9.296875 24.449219 Z M 12.207031 28.589844 "/>
<path style=" stroke:none;fill-rule:evenodd;fill:rgb(85.09804%,65.490198%,25.490198%);fill-opacity:1;" d="M 12.207031 28.589844 L 14.542969 23.707031 L 12.359375 23.398438 L 9.296875 24.449219 Z M 12.207031 28.589844 "/>
<path style=" stroke:none;fill-rule:evenodd;fill:rgb(72.156864%,52.156866%,18.039216%);fill-opacity:1;" d="M 4.65625 26.277344 L 2.824219 25.761719 L 0.800781 23.457031 L 2.949219 23.792969 Z M 4.65625 26.277344 "/>
<path style=" stroke:none;fill-rule:evenodd;fill:rgb(85.09804%,65.490198%,25.490198%);fill-opacity:1;" d="M 4.65625 26.277344 L 5.976562 23.527344 L 4.746094 23.351562 L 2.949219 23.792969 Z M 4.65625 26.277344 "/>
<path style=" stroke:none;fill-rule:evenodd;fill:rgb(52.941179%,41.176471%,16.078432%);fill-opacity:1;" d="M 0 23.535156 L 1.875 23.917969 L 11.0625 15.945312 L 1.875 7.015625 L 0 7.957031 Z M 0 23.535156 "/>
<path style=" stroke:none;fill-rule:evenodd;fill:rgb(85.09804%,65.490198%,25.490198%);fill-opacity:1;" d="M 9.125 8.589844 L 9.125 23.246094 L 1.875 23.917969 L 1.875 7.015625 Z M 9.125 8.589844 "/>
<path style=" stroke:none;fill-rule:evenodd;fill:rgb(52.941179%,41.176471%,16.078432%);fill-opacity:1;" d="M 4.191406 24.414062 L 7.410156 25.0625 L 16.289062 14.796875 L 7.410156 4.226562 L 4.191406 5.847656 Z M 4.191406 24.414062 "/>
<path style=" stroke:none;fill-rule:evenodd;fill:rgb(85.09804%,65.490198%,25.490198%);fill-opacity:1;" d="M 25.773438 10.046875 L 25.773438 22.703125 L 7.410156 25.0625 L 7.410156 4.226562 Z M 25.773438 10.046875 "/>
<path style=" stroke:none;fill-rule:evenodd;fill:rgb(72.156864%,52.156866%,18.039216%);fill-opacity:1;" d="M 22.449219 31.605469 L 17.8125 30.308594 L 13.425781 25.316406 L 18.316406 25.722656 Z M 22.449219 31.605469 "/>
<path style=" stroke:none;fill-rule:evenodd;fill:rgb(85.09804%,65.490198%,25.490198%);fill-opacity:1;" d="M 22.449219 31.605469 L 25.773438 24.667969 L 22.667969 24.226562 L 18.316406 25.722656 Z M 22.449219 31.605469 "/>
<path style=" stroke:none;fill-rule:evenodd;fill:rgb(52.941179%,41.176471%,16.078432%);fill-opacity:1;" d="M 11.0625 25.746094 L 15.792969 26.65625 L 22.210938 13.328125 L 15.792969 0 L 11.0625 2.386719 Z M 11.0625 25.746094 "/>
<path style=" stroke:none;fill-rule:evenodd;fill:rgb(85.09804%,65.490198%,25.490198%);fill-opacity:1;" d="M 15.792969 26.65625 L 31.605469 23.5 L 31.605469 7.890625 L 15.792969 0 Z M 15.792969 26.65625 "/>
</g>
</svg>
