<svg role="img" viewBox="-.5 -.5 78 78" xmlns="http://www.w3.org/2000/svg"><path d="M54.29 59.17h3.54V18.83h-3.54Zm-34.12 0h3.54V18.83h-3.54ZM66.7 41.63 63.54 39l3.16-2.63Zm2.52-10.65c-.61-.29-1.35-.2-1.89.24l-7.7 6.42c-.4.34-.63.83-.63 1.36 0 .53.23 1.03.63 1.36l7.71 6.42c.32.27.72.41 1.13.41.26 0 .51-.05.75-.17.62-.29 1.02-.91 1.02-1.6V32.58c0-.69-.4-1.31-1.02-1.6M11.3 41.63v-5.26L14.46 39Zm-.63-10.41c-.53-.44-1.27-.53-1.89-.24-.62.29-1.02.91-1.02 1.6v12.84c0 .69.4 1.31 1.02 1.6.24.12.49.17.75.17.41 0 .81-.14 1.13-.41l7.71-6.42c.4-.33.63-.83.63-1.36 0-.53-.23-1.02-.63-1.36ZM39 74.45C19.45 74.45 3.55 58.55 3.55 39 3.55 19.45 19.45 3.55 39 3.55c19.55 0 35.45 15.9 35.45 35.45 0 19.55-15.9 35.45-35.45 35.45M39 0C17.5 0 0 17.49 0 39s17.5 39 39 39 39-17.49 39-39S60.5 0 39 0m7.53 48.09-15.06-.01V36.12l15.06.01Zm-10.4-17.86c0-.98.33-1.89.92-2.56.54-.6 1.24-.94 1.96-.94h.01c1.58.01 2.86 1.59 2.85 3.54v2.31h-5.75Zm12.18 2.35h-2.9l.01-2.3c.01-3.9-2.86-7.08-6.39-7.1h-.02c-1.75 0-3.39.76-4.61 2.14-1.17 1.31-1.81 3.05-1.82 4.89l-.01 2.37-2.87-.01c-.47 0-.92.19-1.26.52-.33.34-.52.79-.52 1.26v15.5c0 .98.79 1.77 1.77 1.77l18.61.01c.47 0 .92-.18 1.25-.52.34-.33.52-.78.52-1.25l.01-15.51a1.772 1.772 0 0 0-1.77-1.77" fill="#8c4fff" pointer-events="all"/></svg>