<?xml version="1.0" encoding="UTF-8"?>
<svg xmlns="http://www.w3.org/2000/svg" xmlns:xlink="http://www.w3.org/1999/xlink" width="24" height="32" viewBox="0 0 24 32" version="1.1">
<g id="surface1">
<path style=" stroke:none;fill-rule:evenodd;fill:rgb(23.529412%,28.627452%,16.078432%);fill-opacity:1;" d="M 4.191406 11.1875 L 1.394531 9.398438 L 0 11.269531 L 2.140625 11.445312 Z M 1.871094 13.507812 L 12 13.957031 L 22.128906 13.507812 L 12 9.601562 Z M 18.847656 11.1875 L 21.3125 11.492188 L 24 11.269531 L 21.597656 7.742188 Z M 18.847656 11.1875 "/>
<path style=" stroke:none;fill-rule:evenodd;fill:rgb(71.764708%,79.215688%,61.56863%);fill-opacity:1;" d="M 8.679688 23.957031 L 14.46875 23.011719 L 20.0625 23.921875 L 14.269531 27.757812 Z M 8.679688 23.957031 "/>
<path style=" stroke:none;fill-rule:evenodd;fill:rgb(45.882353%,61.176473%,24.313726%);fill-opacity:1;" d="M 9.320312 10.832031 L 6.308594 10.46875 L 3.203125 7.777344 L 6.308594 3.429688 L 9.320312 4.082031 Z M 9.320312 10.832031 "/>
<path style=" stroke:none;fill-rule:evenodd;fill:rgb(29.411766%,38.039216%,17.254902%);fill-opacity:1;" d="M 1.871094 6.019531 L 1.871094 3.527344 L 12 0 L 14.679688 3.945312 L 9.320312 5.441406 L 6.308594 4.785156 L 6.308594 10.390625 L 12 9.601562 L 15.03125 18.886719 L 12 32 L 8.964844 30.941406 L 8.964844 27.953125 L 6.308594 27.214844 L 6.308594 13.195312 L 1.871094 13.507812 L 1.871094 11.011719 L 0 11.269531 L 0 6.542969 Z M 1.871094 6.019531 "/>
<path style=" stroke:none;fill-rule:evenodd;fill:rgb(45.882353%,61.176473%,24.313726%);fill-opacity:1;" d="M 17.242188 1.828125 L 19.378906 2.566406 L 22.128906 3.527344 L 22.128906 6.019531 L 24 6.542969 L 24 11.269531 L 22.128906 11.011719 L 22.128906 13.507812 L 19.742188 13.339844 L 17.691406 13.195312 L 17.691406 16 L 22.128906 16 L 22.128906 18.5625 L 20.066406 18.691406 L 20.066406 21.28125 L 15.03125 21.980469 L 15.03125 24.96875 L 20.054688 23.925781 L 20.066406 26.5625 L 15.03125 27.953125 L 15.03125 30.941406 L 12 32 L 12 9.601562 L 14.679688 9.972656 L 14.679688 5.441406 L 12 4.785156 L 12 0 Z M 17.242188 1.828125 "/>
<path style=" stroke:none;fill-rule:evenodd;fill:rgb(23.529412%,28.627452%,16.078432%);fill-opacity:1;" d="M 15.03125 4.042969 L 12 3.199219 L 6.308594 4.785156 L 9.320312 5.441406 Z M 15.03125 4.042969 "/>
<path style=" stroke:none;fill-rule:evenodd;fill:rgb(29.411766%,38.039216%,17.254902%);fill-opacity:1;" d="M 14.679688 4.785156 L 17.691406 4.785156 L 17.691406 10.390625 L 14.679688 9.972656 Z M 14.679688 4.785156 "/>
<path style=" stroke:none;fill-rule:evenodd;fill:rgb(23.529412%,28.627452%,16.078432%);fill-opacity:1;" d="M 6.308594 4.785156 L 12 3.199219 L 13.199219 3.535156 L 15.03125 4.042969 L 17.691406 4.785156 L 14.679688 5.441406 L 12 4.785156 L 9.320312 5.441406 Z M 6.308594 4.785156 "/>
</g>
</svg>
