<svg role="img" viewBox="0 0 32 32" xmlns="http://www.w3.org/2000/svg" xmlns:xlink="http://www.w3.org/1999/xlink"><defs><linearGradient gradientTransform="scale(32)" gradientUnits="userSpaceOnUse" id="a" x1="0" x2="1" y1="1" y2="0"><stop offset="0" style="stop-color:rgb(74.117649%,3.137255%,8.627451%);stop-opacity:1"/><stop offset="1" style="stop-color:rgb(100%,32.156864%,32.156864%);stop-opacity:1"/></linearGradient></defs><path d="M0 0h32v32H0z" style="fill:url(#a);stroke:none"/><path d="M14.36 15.492c.113.113.16.278.132.438l-.297 1.57 1.547-.93a.502.502 0 0 1 .516 0l1.547.93-.297-1.574a.501.501 0 0 1 .133-.438l1.328-1.39-1.793-.266a.496.496 0 0 1-.367-.258l-.813-1.523-.832 1.527a.524.524 0 0 1-.367.258l-1.77.266Zm-1.352 2.914.453-2.41-1.82-1.898a.498.498 0 0 1 .285-.84l2.476-.375 1.16-2.121A.497.497 0 0 1 16 10.5h.004c.18 0 .351.102.437.266l1.133 2.113 2.5.371c.184.027.34.156.399.336a.49.49 0 0 1-.114.508l-1.82 1.898.453 2.414a.5.5 0 0 1-.207.504.498.498 0 0 1-.543.02L16 17.582l-2.242 1.348a.502.502 0 0 1-.75-.524M6 8.508h20V6.5H6ZM27 26c0 .133-.05.262-.148.352a.475.475 0 0 1-.352.148H24v-1h2V9.508H6V25.5h14.5v1h-15A.498.498 0 0 1 5 26V6c0-.277.223-.5.5-.5h21c.273 0 .5.223.5.5ZM9.5 23.5H12v-1H9.5Zm4 0H19v-1h-5.5Zm-4-2H12v-1H9.5Zm4 0h9v-1h-9Zm0 0" style="stroke:none;fill-rule:evenodd;fill:rgb(100%,100%,100%);fill-opacity:1"/></svg>