<svg xmlns="http://www.w3.org/2000/svg" width="60" height="80" stroke="#000" stroke-linecap="round" stroke-linejoin="round" fill="#fff" fill-rule="evenodd"><path d="M10.4763 27.9707l-6.9889-4.478L0 28.1756l5.3502.4391 5.1261-.644zM4.678 33.7658L30 34.8878l25.3221-1.122L30 24 4.678 33.7658zm42.4368-5.7951l6.1625.761L60 28.1756l-6.0084-8.8195-6.8768 8.6146z" fill="#3c4929" stroke="none"/><path d="M21.6946 59.8927l14.4819-2.361 13.9775 2.2732-14.4817 9.5902-13.9777-9.5024z" fill="#b7ca9d" stroke="none"/><path d="M23.3053 27.0829l-7.535-.9073-7.759-6.7317 7.759-10.8683 7.535 1.6293v16.878z" fill="#759c3e" stroke="none"/><path d="M4.678 15.0537V8.8195L30 0l6.6947 9.8634L23.3053 13.6l-7.535-1.639v14.0195L30 24l7.5771 23.2195L30 80l-7.5911-2.6439v-7.4732l-6.6386-1.8439V32.9854l-11.0923.7804v-6.2341L0 28.1756V16.361l4.678-1.3073z" fill="#4b612c" stroke="none"/><path d="M43.1092 4.5658l5.3362 1.8537 6.8766 2.4v6.2342L60 16.361v11.8146l-4.678-.6439v6.2341l-5.9664-.4195-5.1259-.3609v6.9365.0391V40H55.322v6.4098l-5.1539.3219V53.2l-12.591 1.7463v7.4732L50.14 59.8146l.0281 6.5952-12.591 3.4731v7.4732L30 80V56v-8-8.0488-.039V32v-8l6.6947.9268V13.6L30 11.961V8 0l13.1092 4.5658z" fill="#759c3e" stroke="none"/><path d="M37.5771 10.1073L30 8l-14.2297 3.961 7.535 1.639 14.2718-3.4927z" fill="#3c4929" stroke="none"/><path d="M36.6947 11.961h7.535v14.0195l-7.535-1.0537V11.961z" fill="#4b612c" stroke="none"/><path d="M15.7703 11.961L30 8l2.9972.839 4.5799 1.2683 6.6526 1.8537-7.535 1.639L30 11.961 23.3053 13.6l-7.535-1.639z" fill="#3c4929" stroke="none"/></svg>