<svg xmlns="http://www.w3.org/2000/svg" width="80" height="55" stroke="none" stroke-linecap="round" stroke-linejoin="round" fill="#fff" fill-rule="evenodd"><path d="M80 37.1042v3.8059C80 47.8417 72.7572 55 63.8456 55H16.1657C7.2541 55 .0113 47.8417.0113 40.9101v-3.8059z" fill="#9d5125"/><path d="M30.7989.0002c8.0291-.0139 15.3219 4.9151 18.6406 12.5986 3.1155-2.2378 7.1413-2.5215 10.5132-.741s5.5582 5.3445 5.7093 9.3072C73.7222 21.8688 80 30.0413 80 36.5315v1.4078c0 6.9794-7.2428 14.0542-16.1885 14.0542H16.1657C7.2428 51.9935 0 44.9187 0 37.9393v-1.3958c0-5.3807 4.3025-12.7777 10.3533-14.615v-.6084c.0211-5.6767 2.187-11.1119 6.0213-15.1101S25.3975-.022 30.7989.0002z" fill="#f58535"/><path d="M19.3898 24.9468h3.1673l3.1787 15.7364h0l3.4057-15.7006h3.1673l-4.7112 19.6258h-3.8031zm14.8375.0001h5.9259c3.5874 0 5.1653 2.3861 5.1653 5.7267s-1.9639 5.8101-5.4718 5.8101H37.213v8.1248h-2.9857zm2.9857 9.1746h2.1229c1.6006 0 2.9856-.9067 2.9856-3.3882 0-2.1237-.806-3.4122-3.2013-3.4122H37.213zm22.0916 3.436v.4175c0 3.5792-1.3623 7.0271-5.767 7.0271-4.7225 0-6.187-3.1974-6.187-10.2125s1.4645-10.2126 6.2097-10.2126c5.3129 0 5.6762 4.1279 5.6762 6.1681v.3937h-2.9743v-.3341c0-1.8134-.5222-3.9132-2.6678-3.8296s-3.2014 1.4316-3.2014 7.7668.965 7.886 3.2354 7.886c2.4862 0 2.7814-2.923 2.7814-4.7722v-.3341z"/></svg>