<svg xmlns="http://www.w3.org/2000/svg" xmlns:xlink="http://www.w3.org/1999/xlink" width="80" height="80" stroke="#000" stroke-linecap="round" stroke-linejoin="round" fill="#fff" fill-rule="evenodd"><g stroke="none"><path d="M0 2.6343h80v21.3333H0z" fill="#9d5025"/><path d="M0 0h80v20.7624H0z" fill="#f58536"/><path d="M0 30.326h80v22.2677H0z" fill="#9d5025"/><path d="M0 28.6261h80v20.7624H0z" fill="#f58536"/><path d="M0 58.4331h80V80H0z" fill="#9d5025"/><path d="M0 56.0195h80v20.7624H0z" fill="#f58536"/><path d="M9.8596 16.584H8.0311V7.3967H5.6409V6.099h.1793c1.0995 0 2.3902-.2854 2.6889-1.8946v-.2465h1.3385zM20.1614 5.7876c-2.0335 3.2024-3.2687 6.9219-3.5853 10.7964H14.64c.3658-3.824 1.6609-7.4738 3.7526-10.5758h-4.9955V4.1785h6.7643zm8.1744 10.7964h-6.6686c0-5.502 4.7804-5.3723 4.7804-9.3042 0-1.0381-.4063-1.9075-1.4222-1.9075-1.3743 0-1.5894 1.2977-1.5894 2.5953h-1.7449c0-2.5174.9322-4.0746 3.3702-4.0746.863-.1172 1.7287.1954 2.3552.8505s.9468 1.5825.8716 2.5234c0 4.2044-3.7168 4.4639-4.5773 7.5652h4.625zm3.8602 0h-1.8285v-2.3487h1.8405zm6.6687 0h-1.8285V7.3967H34.646V6.099h.1792c1.0995 0 2.3902-.2854 2.689-1.8946v-.2465h1.3385zm6.8838.2466c-2.8922 0-3.43-2.4266-3.43-6.0601s.6334-6.8515 3.5853-6.8515c2.0078 0 3.0834.9992 3.0834 3.0754h-1.8166c0-.7267-.3107-1.6481-1.1951-1.6481-1.7209 0-1.8165 2.5175-1.8165 4.3602h0c.4531-.8567 1.3148-1.3597 2.2229-1.2976 1.5655 0 2.8204 1.2976 2.8204 3.7761.0478 2.9197-1.0278 4.6586-3.4538 4.6586zm7.2423-.2466h-1.8405v-2.3487h1.8405zm5.3659.2466c-2.1989 0-3.4179-1.5312-3.4179-6.4883s1.1951-6.4882 3.4179-6.4882 3.4181 1.5442 3.4181 6.4882-1.231 6.5013-3.4181 6.5013zm7.1706-.2466h-1.8045v-2.3487h1.8404zm5.3661.2466c-2.199 0-3.418-1.5312-3.418-6.4883s1.1951-6.4882 3.418-6.4882 3.4179 1.5442 3.4179 6.4882-1.1951 6.5013-3.3821 6.5013zm.0358 15.7534c2.187 0 3.418 1.5312 3.418 6.4882s-1.1951 6.4882-3.418 6.4882-3.4419-1.5831-3.4419-6.5271 1.1951-6.4493 3.4419-6.4493zm-7.1706 10.2904h1.8404v2.4006h-1.8762zm-8.2701-8.1493h.1793c1.0995 0 2.3902-.2854 2.6889-1.8946v-.2465h1.3386v12.691H57.819v-9.2263h-2.3902zm-4.3024 8.1493h1.8405v2.4006h-1.8763zM45.9755 32.584c2.0078 0 3.0834.9992 3.0834 3.0755h-1.8883c0-.7267-.3107-1.6481-1.1951-1.6481-1.7209 0-1.8165 2.5175-1.8165 4.3601h0c.4531-.8567 1.3148-1.3598 2.2229-1.2977 1.5655 0 2.8204 1.2977 2.8204 3.7762 0 2.9198-1.0756 4.6456-3.5017 4.6456-2.8921 0-3.4299-2.4266-3.4299-6.06s.6812-6.8516 3.7048-6.8516zm-11.2937 2.1411h.1793c1.0995 0 2.3902-.2854 2.689-1.8946v-.2465h1.3385v12.691h-1.8524v-9.2263H34.646zm-4.3023 8.1493h1.8404v2.4006h-1.8524zm-5.3302-8.863c-1.3743 0-1.5895 1.2977-1.5895 2.5953h-1.7687c0-2.5174.9322-4.0746 3.3702-4.0746.863-.1172 1.7287.1954 2.3552.8504s.9468 1.5826.8716 2.5235c0 4.2044-3.7168 4.4638-4.5773 7.5522h4.625v1.8168h-6.6686c0-5.502 4.7804-5.3723 4.7804-9.3171 0-1.0641-.4063-1.9465-1.4222-1.9465zm-11.6402-1.1809h6.7523v1.6092c-2.0326 3.2028-3.2677 6.9221-3.5853 10.7963H14.64c.3664-3.8238 1.6614-7.4735 3.7526-10.5758h-4.9955zm-7.7323 1.8946h.1792c1.0995 0 2.3902-.2854 2.689-1.8946v-.2465h1.3385v12.691H8.0311v-9.2263H5.6409zm65.2524 25.2781c2.187 0 3.418 1.5313 3.418 6.4882s-1.1951 6.4883-3.418 6.4883-3.4419-1.6221-3.4419-6.5272 1.1951-6.4493 3.4419-6.4493zm-7.1706 10.2904h1.8404v2.3616h-1.8762zm-5.3302-8.863c-1.3743 0-1.5894 1.2977-1.5894 2.5953h-1.7927c0-2.5174.9322-4.0746 3.3702-4.0746.8631-.1172 1.7287.1954 2.3552.8505s.9469 1.5825.8716 2.5234c0 4.1914-3.7048 4.4639-4.5772 7.5523h4.625v1.7777h-6.6687c0-5.502 4.7804-5.3851 4.7804-9.3171 0-1.0381-.3944-1.9075-1.4102-1.9075zm-7.2303 8.863h1.8405v2.3616h-1.8883zm-5.2226-10.2904c2.0078 0 3.0834.9992 3.0834 3.0754h-1.8883c0-.7396-.3107-1.648-1.1951-1.648-1.7209 0-1.8165 2.5175-1.8165 4.3601h0c.4531-.8566 1.3148-1.3597 2.2229-1.2976 1.5655 0 2.8204 1.2976 2.8204 3.7761 0 2.9197-1.0756 4.6457-3.5017 4.6457-2.8921 0-3.4299-2.4267-3.4299-6.0601s.6812-6.8516 3.7048-6.8516zm-11.3056 2.1411h.1792c1.0995 0 2.3902-.2854 2.689-1.8946v-.2465h1.3385v12.652h-1.8404V63.442H34.646zm-4.3024 8.1493h1.8405v2.3616h-1.8405zm-5.3301-8.863c-1.3744 0-1.5895 1.2977-1.5895 2.5953h-1.7568c0-2.5174.9322-4.0746 3.3702-4.0746.863-.1172 1.7287.1954 2.3552.8505s.9468 1.5825.8716 2.5234c0 4.1914-3.7168 4.4639-4.5773 7.5523h4.625v1.7777h-6.6686c0-5.502 4.7804-5.3851 4.7804-9.3171 0-1.0381-.4063-1.9075-1.4222-1.9075zm-11.6403-1.1809h6.7643v1.6092c-2.033 3.2026-3.2682 6.9219-3.5853 10.7963H14.64c.3664-3.8238 1.6614-7.4735 3.7526-10.5757h-4.9955zm-7.7442 1.8946h.1792c1.0995 0 2.3902-.2854 2.689-1.8946v-.2465h1.3385v12.652H8.0311V63.442H5.6409z"/><g fill="#f58536"><path d="M58.3567 5.554c-1.2548 0-1.5775 1.2976-1.5775 5.0219s.3227 5.0219 1.5775 5.0219 1.5775-1.2977 1.5775-5.0219-.3226-5.0219-1.5775-5.0219zm12.5725 0c-1.2548 0-1.5775 1.2976-1.5775 5.0219s.3227 5.0219 1.5775 5.0219 1.5776-1.2977 1.5776-5.0219-.3227-5.0219-1.5776-5.0219zm0 38.6829c1.2549 0 1.5776-1.2977 1.5776-5.0219s-.3227-5.0219-1.5776-5.0219-1.5775 1.2976-1.5775 5.0219.3107 5.0219 1.5775 5.0219z"/><use xlink:href="#B"/><path d="M70.9292 71.6562c1.2549 0 1.5776-1.2977 1.5776-5.0219s-.3227-5.022-1.5776-5.022-1.5775 1.2976-1.5775 5.022.3107 5.0219 1.5775 5.0219zm-25.0254 0c1.1234 0 1.5178-1.2977 1.5178-2.7122 0-1.7518-.4661-2.738-1.5178-2.738-1.3385 0-1.5775 1.2976-1.5775 2.8289s.4541 2.6213 1.5775 2.6213z"/><use xlink:href="#B" y="-28.6391"/></g></g><defs ><path id="B" d="M45.9038 44.2368c1.1234 0 1.5178-1.2976 1.5178-2.7121 0-1.7518-.4661-2.738-1.5178-2.738-1.3385 0-1.5775 1.2976-1.5775 2.8289s.4541 2.6212 1.5775 2.6212z"/></defs></svg>