<svg role="img" viewBox="0 0 32 32" xmlns="http://www.w3.org/2000/svg"><path d="M9.105 18.133v-1.52h4.41v-1.285h7V1.207H0v20.617h13.516v-3.691ZM22.543 16.3h-7.95v7.172L24.048 32 32 24.828v-1.207Zm-5.34 4.375c-.613-.555-.613-1.453.004-2.008.613-.55 1.61-.55 2.223 0 .613.555.617 1.453.004 2.008-.297.265-.7.414-1.118.41a1.665 1.665 0 0 1-1.113-.426Zm0 0" style="stroke:none;fill-rule:evenodd;fill:rgb(29.411766%,38.039216%,17.254902%);fill-opacity:1"/><path d="M9.105 16.926V15.41h4.41v-1.289h7V0H0v20.617h13.516v-3.691Zm0 0" style="stroke:none;fill-rule:evenodd;fill:rgb(45.882353%,61.176473%,24.313726%);fill-opacity:1"/><path d="M9.105 3.676h9.075V5.19H9.105Zm0 5.863h9.075v1.52H9.105Zm-7.09-5.598 1.087-.98 2.18 1.965-1.087.98ZM3.133 4.95l3.496-3.153 1.062.96L4.195 5.91Zm.004 5.78 3.496-3.152 1.062.957L4.2 11.691Zm0 5.782 3.496-3.153 1.062.957L4.2 17.47ZM2.012 9.723l1.086-.98 2.18 1.964-1.087.98Zm.004 5.785 1.086-.98 2.183 1.964-1.09.98Zm0 0" style="stroke:none;fill-rule:evenodd;fill:rgb(100%,100%,100%);fill-opacity:1"/><path d="M22.543 15.094h-7.95v7.172l9.454 8.527L32 23.621Zm-5.34 4.375c-.613-.555-.613-1.453.004-2.004.613-.555 1.61-.555 2.223 0 .613.55.617 1.45.004 2.004-.297.265-.7.414-1.118.41-.421 0-.82-.156-1.113-.426Zm0 0" style="stroke:none;fill-rule:evenodd;fill:rgb(45.882353%,61.176473%,24.313726%);fill-opacity:1"/><path d="M9.105 15.41h4.41v1.516h-4.41Zm0 0" style="stroke:none;fill-rule:evenodd;fill:rgb(100%,100%,100%);fill-opacity:1"/></svg>