<?xml version="1.0" encoding="UTF-8"?>
<svg xmlns="http://www.w3.org/2000/svg" xmlns:xlink="http://www.w3.org/1999/xlink" width="32" height="32" viewBox="0 0 32 32" version="1.1">
<defs>
<linearGradient id="linear0" gradientUnits="userSpaceOnUse" x1="0" y1="1" x2="1" y2="0" gradientTransform="matrix(32,0,0,32,0,0)">
<stop offset="0" style="stop-color:rgb(74.117649%,3.137255%,8.627451%);stop-opacity:1;"/>
<stop offset="1" style="stop-color:rgb(100%,32.156864%,32.156864%);stop-opacity:1;"/>
</linearGradient>
</defs>
<g id="surface1">
<rect x="0" y="0" width="32" height="32" style="fill:url(#linear0);stroke:none;"/>
<path style=" stroke:none;fill-rule:evenodd;fill:rgb(100%,100%,100%);fill-opacity:1;" d="M 21.421875 21 L 24.421875 21 L 24.421875 20 L 21.421875 20 Z M 17.421875 21 L 20.421875 21 L 20.421875 20 L 17.421875 20 Z M 13.421875 21 L 16.421875 21 L 16.421875 20 L 13.421875 20 Z M 18.421875 17.75 C 18.421875 17.335938 18.757812 17 19.171875 17 C 19.585938 17 19.921875 17.335938 19.921875 17.75 C 19.921875 18.164062 19.585938 18.5 19.171875 18.5 C 18.757812 18.5 18.421875 18.164062 18.421875 17.75 M 20.921875 17.75 C 20.921875 16.785156 20.136719 16 19.171875 16 C 18.207031 16 17.421875 16.785156 17.421875 17.75 C 17.421875 18.714844 18.207031 19.5 19.171875 19.5 C 20.136719 19.5 20.921875 18.714844 20.921875 17.75 M 15.171875 18.5 C 14.757812 18.5 14.421875 18.164062 14.421875 17.75 C 14.421875 17.335938 14.757812 17 15.171875 17 C 15.585938 17 15.921875 17.335938 15.921875 17.75 C 15.921875 18.164062 15.585938 18.5 15.171875 18.5 M 15.171875 16 C 14.207031 16 13.421875 16.785156 13.421875 17.75 C 13.421875 18.714844 14.207031 19.5 15.171875 19.5 C 16.136719 19.5 16.921875 18.714844 16.921875 17.75 C 16.921875 16.785156 16.136719 16 15.171875 16 M 26.921875 13 L 26.921875 23 C 26.921875 23.273438 26.695312 23.5 26.421875 23.5 L 13.421875 23.5 L 13.421875 22.5 L 25.921875 22.5 L 25.921875 13.5 L 16.421875 13.5 L 16.421875 12.5 L 26.421875 12.5 C 26.695312 12.5 26.921875 12.722656 26.921875 13 M 10.453125 11.945312 C 9.90625 11.945312 9.464844 11.503906 9.460938 10.957031 C 9.460938 10.410156 9.902344 9.96875 10.449219 9.96875 C 10.996094 9.96875 11.441406 10.410156 11.441406 10.957031 C 11.4375 11.5 10.996094 11.941406 10.453125 11.945312 M 10.453125 8.96875 C 9.355469 8.96875 8.460938 9.859375 8.460938 10.957031 C 8.496094 12.03125 9.375 12.886719 10.449219 12.886719 C 11.527344 12.886719 12.40625 12.03125 12.441406 10.957031 C 12.4375 9.859375 11.550781 8.96875 10.453125 8.96875 M 11.765625 15.023438 C 11.558594 15.089844 11.417969 15.28125 11.421875 15.5 L 11.421875 24.789062 L 10.449219 25.738281 L 9.421875 24.335938 L 9.421875 23.019531 C 9.421875 22.875 9.355469 22.734375 9.246094 22.640625 L 8.191406 21.742188 L 9.246094 20.847656 C 9.359375 20.75 9.421875 20.613281 9.421875 20.464844 L 9.421875 19.617188 C 9.421875 19.46875 9.359375 19.328125 9.246094 19.234375 L 8.191406 18.339844 L 9.246094 17.441406 C 9.355469 17.347656 9.421875 17.207031 9.421875 17.0625 L 9.421875 15.5 C 9.421875 15.28125 9.28125 15.085938 9.070312 15.023438 C 6.882812 14.328125 5.628906 12.195312 6.09375 9.949219 C 6.429688 8.328125 7.667969 7.039062 9.273438 6.636719 C 10.632812 6.300781 12.027344 6.59375 13.097656 7.433594 C 14.164062 8.265625 14.785156 9.539062 14.78125 10.890625 C 14.78125 12.777344 13.5625 14.445312 11.765625 15.023438 M 15.78125 10.890625 C 15.785156 9.234375 15.023438 7.664062 13.714844 6.644531 C 12.402344 5.617188 10.695312 5.257812 9.035156 5.664062 C 7.054688 6.164062 5.53125 7.75 5.113281 9.75 C 4.578125 12.320312 5.976562 14.898438 8.421875 15.851562 L 8.421875 16.832031 L 7.097656 17.957031 C 6.984375 18.050781 6.921875 18.191406 6.921875 18.339844 C 6.921875 18.484375 6.984375 18.625 7.097656 18.71875 L 8.421875 19.847656 L 8.421875 20.234375 L 7.097656 21.363281 C 6.984375 21.460938 6.921875 21.597656 6.921875 21.746094 C 6.921875 21.890625 6.984375 22.03125 7.097656 22.125 L 8.421875 23.25 L 8.421875 24.5 C 8.421875 24.605469 8.457031 24.710938 8.519531 24.792969 L 9.984375 26.792969 C 10.070312 26.910156 10.203125 26.984375 10.347656 26.996094 C 10.363281 26.996094 10.375 27 10.390625 27 C 10.519531 27 10.644531 26.949219 10.738281 26.855469 L 12.269531 25.355469 C 12.367188 25.261719 12.421875 25.132812 12.421875 25 L 12.421875 15.847656 C 14.453125 15.039062 15.785156 13.074219 15.78125 10.890625 M 15.78125 10.890625 "/>
</g>
</svg>
