<svg role="img" viewBox="0 0 32 32" xmlns="http://www.w3.org/2000/svg" xmlns:xlink="http://www.w3.org/1999/xlink"><defs><linearGradient gradientTransform="scale(32)" gradientUnits="userSpaceOnUse" id="a" x1="0" x2="1" y1="1" y2="0"><stop offset="0" style="stop-color:rgb(74.117649%,3.137255%,8.627451%);stop-opacity:1"/><stop offset="1" style="stop-color:rgb(100%,32.156864%,32.156864%);stop-opacity:1"/></linearGradient></defs><path d="M0 0h32v32H0z" style="fill:url(#a);stroke:none"/><path d="M10.902 10.977c.739.195 1.61.484 2.508.785 1.367.457 2.922.972 3.59.972.668 0 2.223-.515 3.594-.972.898-.301 1.765-.59 2.504-.785l-1.149-.688c-.926.34-3.996 1.445-4.949 1.445-.95 0-4.023-1.105-4.95-1.445Zm1.79-1.52c1.535.559 3.714 1.277 4.308 1.277.59 0 2.766-.714 4.3-1.273l-1.878-3.387c-.04-.066-.156-.094-.246-.039l-1.563.938a1.192 1.192 0 0 1-1.226 0l-1.563-.938c-.094-.058-.226-.035-.3 0Zm8.265 3.238a.218.218 0 0 0-.047.016c-1.586.527-3.078 1.023-3.91 1.023-.832 0-2.324-.496-3.906-1.023-.016-.008-.035-.012-.051-.016.316 1.961 2.469 5.04 3.957 5.04s3.64-3.079 3.957-5.04M9.02 11.371a.495.495 0 0 1 .222-.562l2.344-1.41 2.113-3.946a.62.62 0 0 1 .11-.14c.347-.301 1-.454 1.53-.137l1.563.937c.059.04.137.04.196 0l1.562-.937a1.2 1.2 0 0 1 1.625.39l2.125 3.832 2.348 1.41a.495.495 0 0 1 .222.563.495.495 0 0 1-.48.363c-.496 0-1.477.286-2.508.618-.086 2.285-2.68 6.382-4.992 6.382s-4.906-4.097-4.992-6.382c-1.031-.332-2.012-.618-2.508-.618a.498.498 0 0 1-.48-.363m14.69 7.863.145-.144a.5.5 0 0 0-.054-.754l-2-1.5-.602.8 1.543 1.153-.219.219H22.5v.023l-2.852 2.852a.497.497 0 0 0 0 .707l1.176 1.176-2.207 2.648.766.64 2.5-3a.494.494 0 0 0-.031-.671l-1.145-1.149 2.191-2.187c1.547.273 3.102 2.05 3.102 3.687v3.453h1v-3.453c0-1.914-1.516-3.855-3.29-4.5m-8.823 6.29-2.344-2.356a4.09 4.09 0 0 1-.61.61l2.352 2.347a.41.41 0 0 0 .582-.02.41.41 0 0 0 .02-.582m-5.637-1.79a3.253 3.253 0 0 0 3.25-3.25 3.255 3.255 0 0 0-3.25-3.25A3.255 3.255 0 0 0 6 20.484a3.253 3.253 0 0 0 3.25 3.25m6.348 1.082a1.412 1.412 0 0 1-.024 1.997 1.425 1.425 0 0 1-1.015.421 1.38 1.38 0 0 1-.98-.402l-2.513-2.512a4.16 4.16 0 0 1-1.816.414A4.254 4.254 0 0 1 5 20.484a4.254 4.254 0 0 1 4.25-4.25 4.254 4.254 0 0 1 4.25 4.25 4.21 4.21 0 0 1-.41 1.813Zm3.55-5.933L17 21.027l-2.148-2.144-.704.707 2.5 2.5a.49.49 0 0 0 .352.144.484.484 0 0 0 .352-.144l2.5-2.5ZM23 27.19h1v-2.957h-1Zm0 0" style="stroke:none;fill-rule:evenodd;fill:rgb(100%,100%,100%);fill-opacity:1"/></svg>