<svg role="img" viewBox="0 0 32 32" xmlns="http://www.w3.org/2000/svg" xmlns:xlink="http://www.w3.org/1999/xlink"><defs><linearGradient gradientTransform="scale(32)" gradientUnits="userSpaceOnUse" id="a" x1="0" x2="1" y1="1" y2="0"><stop offset="0" style="stop-color:rgb(10.588235%,40.000001%,5.882353%);stop-opacity:1"/><stop offset="1" style="stop-color:rgb(42.352942%,68.235296%,24.313726%);stop-opacity:1"/></linearGradient></defs><path d="M0 0h32v32H0z" style="fill:url(#a);stroke:none"/><path d="m23.879 16.973.117-.907c1.086.625 1.426.997 1.524 1.145-.165.031-.606.043-1.641-.238M15.25 10.5c-5.187 0-8.559-1.258-8.75-2.152v-.094C6.676 7.695 9.57 6 15.25 6c5.668 0 8.566 1.691 8.75 2.254v.055c-.137.914-3.52 2.191-8.75 2.191m7.66 6.18c-2.383-.782-5.453-2.192-6.613-2.735a1.048 1.048 0 0 0-1.04-.992A1.05 1.05 0 0 0 14.208 14a1.05 1.05 0 0 0 1.05 1.047c.227 0 .438-.074.61-.2 1.2.563 4.442 2.051 6.91 2.844l-.859 6.672C21.793 25.176 19.461 26 15.25 26c-4.215 0-6.547-.824-6.672-1.625L6.718 9.906c1.755 1.051 5.157 1.594 8.532 1.594s6.777-.543 8.531-1.594ZM25 8.25C25 6.715 20.832 5 15.25 5S5.5 6.715 5.5 8.25v.273l2.086 15.993C7.937 26.758 13.063 27 15.25 27c2.184 0 7.305-.242 7.66-2.496l.84-6.531c.64.168 1.156.254 1.559.254.496 0 .828-.125 1.039-.38a.871.871 0 0 0 .195-.738c-.113-.609-.84-1.254-2.36-2.086l-.046-.027L25 8.523Zm0 0" style="stroke:none;fill-rule:evenodd;fill:rgb(100%,100%,100%);fill-opacity:1"/></svg>