<svg xmlns="http://www.w3.org/2000/svg" width="80" height="81" stroke="none" stroke-linecap="round" stroke-linejoin="round" fill="#fff" fill-rule="evenodd"><path d="M30.9039 72.3654l-8.2684-2.3043-7.8133-8.8915 8.7113.7216 7.3704 10.4742z" fill="#b8852e"/><path d="M30.9038 72.3655l5.9126-12.3596-5.5278-.7798-7.7551 2.6651 7.3703 10.4743z" fill="#d9a741"/><path d="M11.79 66.5115l-4.6414-1.3034-5.1195-5.8307 5.4344.8496 4.3265 6.2845z" fill="#b8852e"/><path d="M11.79 66.5115l3.3354-6.9595-3.1137-.4423-4.5482 1.1173 4.3265 6.2845z" fill="#d9a741"/><path d="M0 59.5752l4.7464.966 23.2535-20.1804L4.7464 17.7597 0 20.1455v39.4297z" fill="#876929"/><path d="M23.1021 21.7399V58.842L4.7464 60.5412V17.7597l18.3557 3.9802z" fill="#d9a741"/><path d="M10.6122 61.7981l8.14 1.641 22.484-25.9878-22.484-26.7559-8.14 4.1082v46.9945z" fill="#876929"/><path d="M65.2363 25.4292v32.0396l-46.4841 5.9703V10.6954l46.4841 14.7338z" fill="#d9a741"/><path d="M56.8279 80l-11.7434-3.282-11.1021-12.6389 12.3848 1.0358L56.8279 80z" fill="#b8852e"/><path d="M56.8281 80l8.4081-17.5619-7.86-1.1172-11.0088 3.794L56.8281 80z" fill="#d9a741"/><path d="M27.9999 65.1731l11.9767 2.3044 16.245-33.7388L39.9766 0 27.9999 6.0402v59.1329z" fill="#876929"/><path d="M39.9766 67.4775L80 59.4821V19.9709L39.9766 0v67.4775z" fill="#d9a741"/></svg>