<svg role="img" viewBox="0 0 32 32" xmlns="http://www.w3.org/2000/svg" xmlns:xlink="http://www.w3.org/1999/xlink"><defs><linearGradient gradientTransform="scale(32)" gradientUnits="userSpaceOnUse" id="a" x1="0" x2="1" y1="1" y2="0"><stop offset="0" style="stop-color:rgb(74.117649%,3.137255%,8.627451%);stop-opacity:1"/><stop offset="1" style="stop-color:rgb(100%,32.156864%,32.156864%);stop-opacity:1"/></linearGradient></defs><path d="M0 0h32v32H0z" style="fill:url(#a);stroke:none"/><path d="M21.422 21h3v-1h-3Zm-4 0h3v-1h-3Zm-4 0h3v-1h-3Zm5-3.25a.75.75 0 1 1 1.5 0 .75.75 0 0 1-1.5 0m2.5 0c0-.965-.785-1.75-1.75-1.75s-1.75.785-1.75 1.75.785 1.75 1.75 1.75 1.75-.785 1.75-1.75m-5.75.75a.75.75 0 1 1 0-1.5.75.75 0 0 1 0 1.5m0-2.5c-.965 0-1.75.785-1.75 1.75s.785 1.75 1.75 1.75 1.75-.785 1.75-1.75-.785-1.75-1.75-1.75m11.75-3v10c0 .273-.227.5-.5.5h-13v-1h12.5v-9h-9.5v-1h10c.273 0 .5.223.5.5m-16.469-1.055a.993.993 0 0 1-.992-.988.99.99 0 0 1 1.98 0 .992.992 0 0 1-.988.988m0-2.976c-1.098 0-1.992.89-1.992 1.988a1.991 1.991 0 0 0 3.98 0 1.991 1.991 0 0 0-1.988-1.988m1.313 6.054a.496.496 0 0 0-.344.477v9.29l-.973.948-1.027-1.402V23.02a.505.505 0 0 0-.176-.38l-1.055-.898 1.055-.894a.507.507 0 0 0 .176-.383v-.848a.507.507 0 0 0-.176-.383l-1.055-.894 1.055-.899a.505.505 0 0 0 .176-.378V15.5a.495.495 0 0 0-.352-.477c-2.187-.695-3.441-2.828-2.976-5.074a4.318 4.318 0 0 1 3.18-3.312c1.359-.336 2.753-.043 3.824.797a4.371 4.371 0 0 1 1.683 3.457 4.34 4.34 0 0 1-3.015 4.132m4.015-4.132a5.375 5.375 0 0 0-2.066-4.246c-1.313-1.028-3.02-1.387-4.68-.98A5.332 5.332 0 0 0 5.113 9.75a5.373 5.373 0 0 0 3.309 6.102v.98l-1.324 1.125a.5.5 0 0 0 0 .762l1.324 1.129v.386l-1.324 1.13a.5.5 0 0 0 0 .762l1.324 1.124v1.25a.47.47 0 0 0 .098.293l1.464 2a.501.501 0 0 0 .364.203c.015 0 .027.004.043.004.129 0 .254-.05.347-.145l1.532-1.5a.494.494 0 0 0 .152-.355v-9.152a5.329 5.329 0 0 0 3.36-4.957m0 0" style="stroke:none;fill-rule:evenodd;fill:rgb(100%,100%,100%);fill-opacity:1"/></svg>