<svg role="img" viewBox="-.5 -.5 79 79" xmlns="http://www.w3.org/2000/svg"><path d="M0 0h78v78H0Z" fill="#ed7100" pointer-events="all"/><path d="M24.51 53.49h27.86V25.63H24.51ZM54.6 25.63h4.46v2.23H54.6v4.45h4.46v2.23H54.6v3.35h4.46v2.22H54.6v4.46h4.46v2.23H54.6v4.46h4.46v2.23H54.6v.15c0 1.14-.93 2.07-2.08 2.07h-.15v4.46h-2.23v-4.46h-4.45v4.46h-2.23v-4.46h-3.35v4.46h-2.22v-4.46h-4.46v4.46H31.2v-4.46h-4.46v4.46h-2.23v-4.46h-.15c-1.14 0-2.07-.93-2.07-2.07v-.15h-3.35v-2.23h3.35V46.8h-3.35v-2.23h3.35v-4.46h-3.35v-2.22h3.35v-3.35h-3.35v-2.23h3.35v-4.45h-3.35v-2.23h3.35v-.15c0-1.15.93-2.08 2.07-2.08h.15v-4.46h2.23v4.46h4.46v-4.46h2.23v4.46h4.46v-4.46h2.22v4.46h3.35v-4.46h2.23v4.46h4.45v-4.46h2.23v4.46h.15c1.15 0 2.08.93 2.08 2.08Zm-14.49 42.2c0 .08-.06.14-.13.14H10.17c-.08 0-.14-.06-.14-.14V38.02c0-.07.06-.13.14-.13h6.54v-2.23h-6.54c-1.31 0-2.37 1.06-2.37 2.36v29.81c0 1.31 1.06 2.37 2.37 2.37h29.81c1.3 0 2.36-1.06 2.36-2.37V62.4h-2.23ZM70.2 10.17v29.81c0 1.3-1.06 2.36-2.37 2.36h-6.54v-2.23h6.54c.08 0 .14-.06.14-.13V10.17c0-.08-.06-.14-.14-.14H38.02c-.07 0-.13.06-.13.14v6.54h-2.23v-6.54c0-1.31 1.06-2.37 2.36-2.37h29.81c1.31 0 2.37 1.06 2.37 2.37" fill="#ffffff" pointer-events="all"/></svg>