<?xml version="1.0" encoding="UTF-8"?>
<svg xmlns="http://www.w3.org/2000/svg" xmlns:xlink="http://www.w3.org/1999/xlink" width="32" height="32" viewBox="0 0 32 32" version="1.1">
<g id="surface1">
<path style=" stroke:none;fill-rule:evenodd;fill:rgb(29.411766%,38.039216%,17.254902%);fill-opacity:1;" d="M 9.105469 18.132812 L 9.105469 16.613281 L 13.515625 16.613281 L 13.515625 15.328125 L 20.515625 15.328125 L 20.515625 1.207031 L 0 1.207031 L 0 21.824219 L 13.515625 21.824219 L 13.515625 18.132812 Z M 22.542969 16.300781 L 14.59375 16.300781 L 14.59375 23.472656 L 24.046875 32 L 32 24.828125 L 32 23.621094 Z M 17.203125 20.675781 C 16.589844 20.121094 16.589844 19.222656 17.207031 18.667969 C 17.820312 18.117188 18.816406 18.117188 19.429688 18.667969 C 20.042969 19.222656 20.046875 20.121094 19.433594 20.675781 C 19.136719 20.941406 18.734375 21.089844 18.316406 21.085938 C 17.90625 21.085938 17.507812 20.933594 17.203125 20.660156 Z M 17.203125 20.675781 "/>
<path style=" stroke:none;fill-rule:evenodd;fill:rgb(45.882353%,61.176473%,24.313726%);fill-opacity:1;" d="M 9.105469 16.925781 L 9.105469 15.410156 L 13.515625 15.410156 L 13.515625 14.121094 L 20.515625 14.121094 L 20.515625 0 L 0 0 L 0 20.617188 L 13.515625 20.617188 L 13.515625 16.925781 Z M 9.105469 16.925781 "/>
<path style=" stroke:none;fill-rule:evenodd;fill:rgb(100%,100%,100%);fill-opacity:1;" d="M 9.105469 3.675781 L 18.179688 3.675781 L 18.179688 5.191406 L 9.105469 5.191406 Z M 9.105469 9.539062 L 18.179688 9.539062 L 18.179688 11.058594 L 9.105469 11.058594 Z M 2.015625 3.941406 L 3.101562 2.960938 L 5.28125 4.925781 L 4.195312 5.90625 Z M 3.132812 4.949219 L 6.628906 1.796875 L 7.691406 2.757812 L 4.195312 5.910156 Z M 3.136719 10.730469 L 6.632812 7.578125 L 7.695312 8.535156 L 4.199219 11.691406 Z M 3.136719 16.511719 L 6.632812 13.359375 L 7.695312 14.316406 L 4.199219 17.46875 Z M 2.011719 9.722656 L 3.097656 8.742188 L 5.277344 10.707031 L 4.191406 11.6875 Z M 2.015625 15.507812 L 3.101562 14.527344 L 5.285156 16.492188 L 4.195312 17.472656 Z M 2.015625 15.507812 "/>
<path style=" stroke:none;fill-rule:evenodd;fill:rgb(45.882353%,61.176473%,24.313726%);fill-opacity:1;" d="M 22.542969 15.09375 L 14.59375 15.09375 L 14.59375 22.265625 L 24.046875 30.792969 L 32 23.621094 Z M 17.203125 19.46875 C 16.589844 18.914062 16.589844 18.015625 17.207031 17.464844 C 17.820312 16.910156 18.816406 16.910156 19.429688 17.464844 C 20.042969 18.015625 20.046875 18.914062 19.433594 19.46875 C 19.136719 19.734375 18.734375 19.882812 18.316406 19.878906 C 17.894531 19.878906 17.496094 19.722656 17.203125 19.453125 Z M 17.203125 19.46875 "/>
<path style=" stroke:none;fill-rule:evenodd;fill:rgb(100%,100%,100%);fill-opacity:1;" d="M 9.105469 15.410156 L 13.515625 15.410156 L 13.515625 16.925781 L 9.105469 16.925781 Z M 9.105469 15.410156 "/>
</g>
</svg>
