<svg role="img" viewBox="0 0 32 32" xmlns="http://www.w3.org/2000/svg"><path d="M0 1.055h32v8.53H0Zm0 0" style="stroke:none;fill-rule:evenodd;fill:rgb(61.56863%,31.37255%,14.509805%);fill-opacity:1"/><path d="M0 0h32v8.305H0Zm0 0" style="stroke:none;fill-rule:evenodd;fill:rgb(96.078432%,52.156866%,21.176471%);fill-opacity:1"/><path d="M0 12.129h32v8.91H0Zm0 0" style="stroke:none;fill-rule:evenodd;fill:rgb(61.56863%,31.37255%,14.509805%);fill-opacity:1"/><path d="M0 11.45h32v8.304H0Zm0 0" style="stroke:none;fill-rule:evenodd;fill:rgb(96.078432%,52.156866%,21.176471%);fill-opacity:1"/><path d="M0 23.375h32V32H0Zm0 0" style="stroke:none;fill-rule:evenodd;fill:rgb(61.56863%,31.37255%,14.509805%);fill-opacity:1"/><path d="M0 22.406h32v8.305H0Zm0 0" style="stroke:none;fill-rule:evenodd;fill:rgb(96.078432%,52.156866%,21.176471%);fill-opacity:1"/><path d="M3.945 6.633h-.734V2.957h-.953v-.516h.07c.442 0 .957-.117 1.074-.757v-.102h.535Zm4.121-4.317A9.494 9.494 0 0 0 6.63 6.633h-.774a9.174 9.174 0 0 1 1.5-4.23H5.36v-.731h2.707Zm3.27 4.317H8.668c0-2.2 1.91-2.149 1.91-3.723 0-.414-.16-.762-.566-.762-.551 0-.637.52-.637 1.04h-.7c0-1.008.376-1.63 1.348-1.63.348-.046.692.079.942.34.254.262.379.633.351 1.008 0 1.684-1.488 1.785-1.832 3.028h1.852Zm1.543 0h-.73v-.938h.734Zm2.668 0h-.73V2.957h-.958v-.516h.07c.442 0 .958-.117 1.075-.757v-.102h.539Zm2.754.097c-1.16 0-1.375-.968-1.375-2.421 0-1.454.254-2.743 1.437-2.743.801 0 1.23.403 1.23 1.23h-.726c0-.288-.125-.66-.476-.66-.688 0-.727 1.009-.727 1.747a.942.942 0 0 1 .89-.52c.626 0 1.126.52 1.126 1.512.02 1.168-.41 1.863-1.38 1.863Zm2.894-.097h-.734v-.938h.734Zm2.149.097c-.88 0-1.367-.609-1.367-2.593 0-1.985.476-2.594 1.367-2.594.886 0 1.367.617 1.367 2.594 0 1.976-.492 2.601-1.367 2.601Zm2.867-.097h-.723v-.938h.739Zm2.144.097c-.878 0-1.367-.609-1.367-2.593 0-1.985.48-2.594 1.367-2.594.891 0 1.368.617 1.368 2.594 0 1.976-.477 2.601-1.352 2.601Zm.016 6.305c.875 0 1.367.61 1.367 2.594s-.476 2.594-1.367 2.594c-.887 0-1.375-.633-1.375-2.61 0-1.976.477-2.578 1.375-2.578m-2.867 4.113h.734v.961h-.75Zm-3.309-3.257h.07c.442 0 .958-.114 1.079-.758v-.098h.535v5.074h-.75v-3.691h-.957Zm-1.722 3.257h.738v.961h-.75Zm-2.082-4.113c.8 0 1.234.399 1.234 1.23h-.758c0-.292-.125-.66-.476-.66-.688 0-.727 1.008-.727 1.743a.948.948 0 0 1 .89-.52c.626 0 1.126.52 1.126 1.512 0 1.168-.43 1.86-1.399 1.86-1.156 0-1.37-.973-1.37-2.427 0-1.453.269-2.738 1.48-2.738m-4.52.856h.074c.438 0 .957-.114 1.075-.758v-.098h.535v5.074h-.739v-3.691h-.957Zm-1.719 3.257h.735v.961h-.739Zm-2.132-3.543c-.551 0-.637.52-.637 1.04h-.707c0-1.008.375-1.633 1.347-1.633.348-.047.692.078.942.34.254.261.379.632.351 1.011 0 1.68-1.488 1.785-1.832 3.02h1.852v.726H8.668c0-2.199 1.91-2.148 1.91-3.726 0-.426-.16-.778-.566-.778Zm-4.657-.472h2.703v.644a9.494 9.494 0 0 0-1.437 4.317h-.774a9.174 9.174 0 0 1 1.5-4.23H5.36Zm-3.093.758h.074c.437 0 .953-.114 1.074-.758v-.098h.535v5.074h-.742v-3.691h-.953ZM28.37 24c.875 0 1.367.613 1.367 2.598 0 1.98-.476 2.593-1.367 2.593-.887 0-1.375-.648-1.375-2.609 0-1.965.477-2.582 1.375-2.582m-2.867 4.117h.734v.945h-.75ZM23.37 24.57c-.55 0-.637.52-.637 1.04h-.714c0-1.008.37-1.63 1.347-1.63.344-.046.692.079.942.34.25.262.378.633.347 1.012 0 1.676-1.48 1.785-1.828 3.02h1.848v.71h-2.668c0-2.203 1.914-2.156 1.914-3.726 0-.414-.16-.766-.567-.766Zm-2.89 3.547h.734v.945h-.754ZM18.39 24c.8 0 1.234.402 1.234 1.23h-.758c0-.293-.125-.66-.476-.66-.688 0-.727 1.008-.727 1.746a.942.942 0 0 1 .89-.52c.626 0 1.126.52 1.126 1.513 0 1.168-.43 1.855-1.399 1.855-1.156 0-1.37-.969-1.37-2.422 0-1.453.269-2.742 1.48-2.742m-4.524.86h.074c.438 0 .954-.118 1.075-.758V24h.535v5.063h-.735v-3.688h-.957Zm-1.719 3.257h.735v.945h-.735Zm-2.132-3.547c-.551 0-.637.52-.637 1.04h-.703c0-1.008.375-1.63 1.347-1.63.348-.046.692.079.942.34.254.262.379.633.351 1.012 0 1.676-1.488 1.785-1.832 3.02h1.852v.71H8.668c0-2.203 1.91-2.156 1.91-3.726 0-.414-.16-.766-.566-.766Zm-4.657-.468h2.707v.64a9.509 9.509 0 0 0-1.437 4.32h-.774a9.159 9.159 0 0 1 1.5-4.23H5.36Zm-3.097.757h.07c.441 0 .957-.117 1.078-.757V24h.535v5.063H3.21v-3.688h-.953Zm0 0" style="stroke:none;fill-rule:evenodd;fill:rgb(100%,100%,100%);fill-opacity:1"/><path d="M23.344 2.223c-.504 0-.633.52-.633 2.007 0 1.489.129 2.008.633 2.008.5 0 .629-.52.629-2.008s-.13-2.007-.63-2.007m5.027 0c-.5 0-.629.52-.629 2.007 0 1.489.13 2.008.63 2.008.503 0 .632-.52.632-2.008s-.129-2.007-.633-2.007m0 15.472c.504 0 .633-.52.633-2.008 0-1.492-.129-2.011-.633-2.011-.5 0-.629.52-.629 2.011 0 1.489.121 2.008.63 2.008m-10.008 0c.45 0 .606-.52.606-1.086 0-.699-.188-1.093-.606-1.093-.539 0-.633.52-.633 1.129 0 .613.184 1.05.633 1.05m10.008 10.969c.504 0 .633-.52.633-2.012 0-1.488-.129-2.007-.633-2.007-.5 0-.629.52-.629 2.007 0 1.493.121 2.012.63 2.012m-10.008 0c.45 0 .606-.52.606-1.086 0-.703-.188-1.098-.606-1.098-.539 0-.633.52-.633 1.133 0 .614.184 1.051.633 1.051m-.001-22.426c.45 0 .606-.52.606-1.086 0-.699-.188-1.093-.606-1.093-.539 0-.633.52-.633 1.132 0 .614.184 1.047.633 1.047m0 0" style="stroke:none;fill-rule:evenodd;fill:rgb(96.078432%,52.156866%,21.176471%);fill-opacity:1"/></svg>