<svg xmlns="http://www.w3.org/2000/svg" width="70" height="80" stroke="#000" stroke-linecap="round" stroke-linejoin="round" fill="#fff" fill-rule="evenodd"><g fill="#876929" stroke="none"><path d="M0 25.9378l.0205 37.5024L35 80l34.9795-16.5598v-9.3683l-29.7449-3.5083.0205-21.1273L70 25.9475v-9.378L35 0 0 16.5597v9.3781z"/><path d="M.0205 54.0621L35 64.0038V80L.0205 63.4402v-9.3781z"/><path d="M4.4648 65.549L0 63.4305V16.5597l4.4751-2.1088-.0103 51.0981z"/></g><path d="M40.2551 50.5637L4.4648 55.3256l.0103-30.6609 35.78 4.7717v21.1273zM70 25.9475l-35-9.9514V0l35 16.5695v9.378zm-.0205 28.1244L35 64.0039V80l34.9795-16.5598v-9.3683z" stroke="none" fill="#d9a741"/><path d="M22.1085 48.5811L35 50.1068V29.8153l-12.8915 1.5452v17.2206zm-12.9839-1.516l8.3651.9816V31.9242l-8.3651 1.0009v14.14z" stroke="none" fill="#876929"/><path d="M4.4751 24.6647L35 15.9961l35 9.9514-29.7448 3.4888-35.7801-4.7716z" fill="#624a1e" stroke="none"/><path d="M4.4648 55.3255L35 64.0038l34.9795-9.932-29.7244-3.5082-35.7903 4.7619z" fill="#fad791" stroke="none"/><path d="M69.9795 45.9183L35 50.1068V29.8153l34.9795 4.2177v11.8853z" fill="#d9a741" stroke="none"/></svg>