<svg role="img" viewBox="0 0 53.512 32" xmlns="http://www.w3.org/2000/svg"><path d="M15.082 11.621c0 .66.07 1.191.195 1.586.141.39.32.816.567 1.281a.76.76 0 0 1 .125.407c0 .18-.106.359-.336.535l-1.121.75a.865.865 0 0 1-.465.16c-.176 0-.356-.09-.531-.25-.25-.27-.465-.55-.641-.836-.18-.305-.36-.64-.555-1.05-1.386 1.636-3.133 2.456-5.23 2.456-1.496 0-2.688-.43-3.559-1.281-.875-.856-1.32-1.996-1.32-3.418 0-1.516.535-2.742 1.621-3.668 1.086-.926 2.527-1.387 4.36-1.387.605 0 1.23.051 1.886.14.66.09 1.336.231 2.047.391V6.142c0-1.352-.285-2.297-.836-2.848-.57-.55-1.531-.82-2.902-.82-.621 0-1.262.07-1.922.23a15.46 15.46 0 0 0-1.922.606 5.907 5.907 0 0 1-.621.234c-.125.035-.215.05-.285.05-.25 0-.375-.175-.375-.55v-.871c0-.285.035-.5.125-.625s.25-.246.5-.371c.62-.32 1.37-.59 2.242-.801C7 .141 7.926.035 8.906.035c2.117 0 3.664.48 4.66 1.442.98.96 1.477 2.421 1.477 4.378v5.766Zm-7.227 2.707c.586 0 1.192-.11 1.832-.32.641-.215 1.211-.606 1.692-1.14.285-.337.496-.712.605-1.138a6.5 6.5 0 0 0 .176-1.55v-.746a15.42 15.42 0 0 0-1.637-.305 13.58 13.58 0 0 0-1.671-.106c-1.192 0-2.067.23-2.653.711-.586.48-.87 1.157-.87 2.047 0 .836.21 1.461.655 1.887.43.445 1.051.66 1.871.66m14.29 1.922c-.32 0-.532-.055-.676-.18-.14-.105-.266-.355-.371-.695L16.914 1.621c-.11-.36-.16-.59-.16-.715 0-.285.14-.445.426-.445h1.746c.336 0 .566.055.691.18.145.105.25.355.356.695l2.992 11.781 2.777-11.781c.086-.356.195-.59.336-.695.145-.106.39-.18.715-.18h1.422c.34 0 .57.055.71.18.145.105.27.355.34.695l2.813 11.922 3.078-11.922c.106-.356.23-.59.356-.695.14-.106.375-.18.695-.18h1.652c.286 0 .446.144.446.445 0 .09-.016.18-.035.285a2.1 2.1 0 0 1-.125.446l-4.29 13.758c-.105.355-.23.585-.37.695-.145.105-.376.176-.676.176h-1.532c-.34 0-.57-.051-.715-.176-.14-.125-.265-.356-.335-.711l-2.758-11.48-2.742 11.46c-.09.356-.196.586-.34.711-.14.125-.39.18-.711.18Zm22.87.48c-.925 0-1.85-.109-2.742-.32-.886-.215-1.582-.445-2.046-.715-.286-.16-.48-.336-.551-.496-.07-.16-.106-.34-.106-.5v-.906c0-.375.14-.55.41-.55.106 0 .211.015.32.05.106.039.266.11.446.18.602.265 1.262.48 1.957.62a10.49 10.49 0 0 0 2.117.216c1.121 0 1.992-.196 2.598-.586.605-.391.926-.961.926-1.692 0-.5-.16-.906-.48-1.246-.321-.34-.926-.64-1.798-.926l-2.582-.8c-1.297-.41-2.257-1.016-2.847-1.817-.586-.781-.89-1.652-.89-2.578 0-.75.16-1.406.48-1.976.32-.57.75-1.067 1.28-1.461A5.761 5.761 0 0 1 43.36.3c.714-.21 1.46-.3 2.242-.3.394 0 .8.016 1.195.07.406.055.781.125 1.156.196.356.09.695.18 1.016.285.32.105.566.215.746.32.25.145.426.285.535.445.105.141.16.34.16.586v.84c0 .371-.144.567-.41.567-.145 0-.375-.07-.676-.211-1.015-.465-2.156-.696-3.418-.696-1.015 0-1.816.16-2.367.5-.55.336-.836.852-.836 1.582 0 .5.176.926.531 1.266.36.336 1.016.676 1.961.977l2.528.8c1.28.41 2.207.98 2.757 1.711.551.727.817 1.563.817 2.489 0 .765-.16 1.46-.461 2.066a4.777 4.777 0 0 1-1.3 1.566c-.552.446-1.208.766-1.974.996-.8.25-1.64.375-2.546.375m0 0" style="stroke:none;fill-rule:evenodd;fill:rgb(14.509805%,18.431373%,24.313726%);fill-opacity:1"/><path d="M48.379 25.379C42.523 29.703 34.016 32 26.703 32 16.45 32 7.215 28.21.238 21.91c-.554-.5-.054-1.176.606-.785 7.543 4.379 16.851 7.031 26.48 7.031 6.496 0 13.633-1.351 20.2-4.129.98-.445 1.816.641.855 1.352m2.437-2.777c-.746-.961-4.945-.461-6.851-.23-.57.07-.656-.427-.14-.802 3.343-2.347 8.843-1.672 9.484-.89.64.8-.176 6.3-3.309 8.933-.48.41-.945.2-.73-.336.71-1.761 2.296-5.73 1.546-6.675m0 0" style="stroke:none;fill-rule:evenodd;fill:rgb(100%,60.000002%,0%);fill-opacity:1"/></svg>