<?xml version="1.0" encoding="UTF-8"?>
<svg xmlns="http://www.w3.org/2000/svg" xmlns:xlink="http://www.w3.org/1999/xlink" width="53.512001" height="32" viewBox="0 0 53.512001 32" version="1.1">
<g id="surface1">
<path style=" stroke:none;fill-rule:evenodd;fill:rgb(14.509805%,18.431373%,24.313726%);fill-opacity:1;" d="M 15.082031 11.621094 C 15.082031 12.28125 15.152344 12.8125 15.277344 13.207031 C 15.417969 13.597656 15.597656 14.023438 15.84375 14.488281 C 15.921875 14.609375 15.96875 14.75 15.96875 14.894531 C 15.96875 15.074219 15.863281 15.253906 15.632812 15.429688 L 14.511719 16.179688 C 14.375 16.277344 14.214844 16.332031 14.046875 16.339844 C 13.871094 16.339844 13.691406 16.25 13.515625 16.089844 C 13.265625 15.820312 13.050781 15.539062 12.875 15.253906 C 12.695312 14.949219 12.515625 14.613281 12.320312 14.203125 C 10.933594 15.839844 9.1875 16.660156 7.089844 16.660156 C 5.59375 16.660156 4.402344 16.230469 3.53125 15.378906 C 2.65625 14.523438 2.210938 13.382812 2.210938 11.960938 C 2.210938 10.445312 2.746094 9.21875 3.832031 8.292969 C 4.917969 7.367188 6.359375 6.90625 8.191406 6.90625 C 8.796875 6.90625 9.421875 6.957031 10.078125 7.046875 C 10.738281 7.136719 11.414062 7.277344 12.125 7.4375 L 12.125 6.140625 C 12.125 4.789062 11.839844 3.84375 11.289062 3.292969 C 10.71875 2.742188 9.757812 2.472656 8.386719 2.472656 C 7.765625 2.472656 7.125 2.542969 6.464844 2.703125 C 5.8125 2.863281 5.167969 3.066406 4.542969 3.308594 C 4.339844 3.398438 4.132812 3.476562 3.921875 3.542969 C 3.796875 3.578125 3.707031 3.59375 3.636719 3.59375 C 3.386719 3.59375 3.261719 3.417969 3.261719 3.042969 L 3.261719 2.171875 C 3.261719 1.886719 3.296875 1.671875 3.386719 1.546875 C 3.476562 1.421875 3.636719 1.300781 3.886719 1.175781 C 4.507812 0.855469 5.257812 0.585938 6.128906 0.375 C 7 0.140625 7.925781 0.0351562 8.90625 0.0351562 C 11.023438 0.0351562 12.570312 0.515625 13.566406 1.476562 C 14.546875 2.4375 15.042969 3.898438 15.042969 5.855469 L 15.042969 11.621094 Z M 7.855469 14.328125 C 8.441406 14.328125 9.046875 14.21875 9.6875 14.007812 C 10.328125 13.792969 10.898438 13.402344 11.378906 12.867188 C 11.664062 12.53125 11.875 12.15625 11.984375 11.730469 C 12.105469 11.222656 12.164062 10.703125 12.160156 10.179688 L 12.160156 9.433594 C 11.621094 9.304688 11.074219 9.199219 10.523438 9.128906 C 9.96875 9.058594 9.410156 9.023438 8.851562 9.023438 C 7.660156 9.023438 6.785156 9.253906 6.199219 9.734375 C 5.613281 10.214844 5.328125 10.890625 5.328125 11.78125 C 5.328125 12.617188 5.539062 13.242188 5.984375 13.667969 C 6.414062 14.113281 7.035156 14.328125 7.855469 14.328125 M 22.144531 16.25 C 21.824219 16.25 21.613281 16.195312 21.46875 16.070312 C 21.328125 15.964844 21.203125 15.714844 21.097656 15.375 L 16.914062 1.621094 C 16.804688 1.261719 16.753906 1.03125 16.753906 0.90625 C 16.753906 0.621094 16.894531 0.460938 17.179688 0.460938 L 18.925781 0.460938 C 19.261719 0.460938 19.492188 0.515625 19.617188 0.640625 C 19.761719 0.746094 19.867188 0.996094 19.972656 1.335938 L 22.964844 13.117188 L 25.742188 1.335938 C 25.828125 0.980469 25.9375 0.746094 26.078125 0.640625 C 26.222656 0.535156 26.46875 0.460938 26.792969 0.460938 L 28.214844 0.460938 C 28.554688 0.460938 28.785156 0.515625 28.925781 0.640625 C 29.070312 0.746094 29.195312 0.996094 29.265625 1.335938 L 32.078125 13.257812 L 35.15625 1.335938 C 35.261719 0.980469 35.386719 0.746094 35.511719 0.640625 C 35.652344 0.535156 35.886719 0.460938 36.207031 0.460938 L 37.859375 0.460938 C 38.144531 0.460938 38.304688 0.605469 38.304688 0.90625 C 38.304688 0.996094 38.289062 1.085938 38.269531 1.191406 C 38.246094 1.34375 38.203125 1.492188 38.144531 1.636719 L 33.855469 15.394531 C 33.75 15.75 33.625 15.980469 33.484375 16.089844 C 33.339844 16.195312 33.109375 16.265625 32.808594 16.265625 L 31.277344 16.265625 C 30.9375 16.265625 30.707031 16.214844 30.5625 16.089844 C 30.421875 15.964844 30.296875 15.734375 30.226562 15.378906 L 27.46875 3.898438 L 24.726562 15.359375 C 24.636719 15.714844 24.53125 15.945312 24.386719 16.070312 C 24.246094 16.195312 23.996094 16.25 23.675781 16.25 Z M 45.015625 16.730469 C 44.089844 16.730469 43.164062 16.621094 42.273438 16.410156 C 41.386719 16.195312 40.691406 15.964844 40.226562 15.695312 C 39.941406 15.535156 39.746094 15.359375 39.675781 15.199219 C 39.605469 15.039062 39.570312 14.859375 39.570312 14.699219 L 39.570312 13.792969 C 39.570312 13.417969 39.710938 13.242188 39.980469 13.242188 C 40.085938 13.242188 40.191406 13.257812 40.300781 13.292969 C 40.40625 13.332031 40.566406 13.402344 40.746094 13.472656 C 41.347656 13.738281 42.007812 13.953125 42.703125 14.09375 C 43.398438 14.238281 44.109375 14.308594 44.820312 14.308594 C 45.941406 14.308594 46.8125 14.113281 47.417969 13.722656 C 48.023438 13.332031 48.34375 12.761719 48.34375 12.03125 C 48.34375 11.53125 48.183594 11.125 47.863281 10.785156 C 47.542969 10.445312 46.9375 10.144531 46.066406 9.859375 L 43.484375 9.058594 C 42.1875 8.648438 41.226562 8.042969 40.636719 7.242188 C 40.050781 6.460938 39.746094 5.589844 39.746094 4.664062 C 39.746094 3.914062 39.90625 3.257812 40.226562 2.6875 C 40.546875 2.117188 40.976562 1.621094 41.507812 1.226562 C 42.0625 0.808594 42.691406 0.496094 43.359375 0.300781 C 44.074219 0.0898438 44.820312 0 45.601562 0 C 45.996094 0 46.402344 0.015625 46.796875 0.0703125 C 47.203125 0.125 47.578125 0.195312 47.953125 0.265625 C 48.308594 0.355469 48.648438 0.445312 48.96875 0.550781 C 49.289062 0.65625 49.535156 0.765625 49.714844 0.871094 C 49.964844 1.015625 50.140625 1.15625 50.25 1.316406 C 50.355469 1.457031 50.410156 1.65625 50.410156 1.902344 L 50.410156 2.742188 C 50.410156 3.113281 50.265625 3.308594 50 3.308594 C 49.855469 3.308594 49.625 3.238281 49.324219 3.097656 C 48.308594 2.632812 47.167969 2.402344 45.90625 2.402344 C 44.890625 2.402344 44.089844 2.5625 43.539062 2.902344 C 42.988281 3.238281 42.703125 3.753906 42.703125 4.484375 C 42.703125 4.984375 42.878906 5.410156 43.234375 5.75 C 43.59375 6.085938 44.25 6.425781 45.195312 6.726562 L 47.722656 7.527344 C 49.003906 7.9375 49.929688 8.507812 50.480469 9.238281 C 51.03125 9.964844 51.296875 10.800781 51.296875 11.726562 C 51.296875 12.492188 51.136719 13.1875 50.835938 13.792969 C 50.519531 14.402344 50.078125 14.9375 49.535156 15.359375 C 48.984375 15.804688 48.328125 16.125 47.5625 16.355469 C 46.761719 16.605469 45.921875 16.730469 45.015625 16.730469 M 45.015625 16.730469 "/>
<path style=" stroke:none;fill-rule:evenodd;fill:rgb(100%,60.000002%,0%);fill-opacity:1;" d="M 48.378906 25.378906 C 42.523438 29.703125 34.015625 32 26.703125 32 C 16.449219 32 7.214844 28.210938 0.238281 21.910156 C -0.316406 21.410156 0.183594 20.734375 0.84375 21.125 C 8.386719 25.503906 17.695312 28.15625 27.324219 28.15625 C 33.820312 28.15625 40.957031 26.804688 47.523438 24.027344 C 48.503906 23.582031 49.339844 24.667969 48.378906 25.378906 M 50.816406 22.601562 C 50.070312 21.640625 45.871094 22.140625 43.964844 22.371094 C 43.394531 22.441406 43.308594 21.945312 43.824219 21.570312 C 47.167969 19.222656 52.667969 19.898438 53.308594 20.679688 C 53.949219 21.480469 53.132812 26.980469 50 29.613281 C 49.519531 30.023438 49.054688 29.8125 49.269531 29.277344 C 49.980469 27.515625 51.566406 23.546875 50.816406 22.601562 M 50.816406 22.601562 "/>
</g>
</svg>
