<?xml version="1.0" encoding="UTF-8"?>
<svg xmlns="http://www.w3.org/2000/svg" xmlns:xlink="http://www.w3.org/1999/xlink" width="26.409" height="32" viewBox="0 0 26.409 32" version="1.1">
<defs>
<linearGradient id="linear0" gradientUnits="userSpaceOnUse" x1="9.01" y1="0.75" x2="9.01" y2="17.25" gradientTransform="matrix(1.7149,0,0,1.7149,-2.178,0.617)">
<stop offset="0" style="stop-color:rgb(36.862746%,62.7451%,93.725491%);stop-opacity:1;"/>
<stop offset="0.18" style="stop-color:rgb(33.333334%,61.176473%,92.54902%);stop-opacity:1;"/>
<stop offset="0.47" style="stop-color:rgb(23.529412%,56.862748%,89.803922%);stop-opacity:1;"/>
<stop offset="0.84" style="stop-color:rgb(7.450981%,50.196081%,85.490197%);stop-opacity:1;"/>
<stop offset="1" style="stop-color:rgb(0%,47.058824%,83.137256%);stop-opacity:1;"/>
</linearGradient>
</defs>
<g id="surface1">
<path style=" stroke:none;fill-rule:nonzero;fill:rgb(0%,47.058824%,83.137256%);fill-opacity:1;" d="M 25.878906 15.023438 C 25.878906 23.324219 15.84375 30.011719 13.667969 31.367188 C 13.414062 31.519531 13.097656 31.519531 12.84375 31.367188 C 10.667969 30.011719 0.632812 23.324219 0.632812 15.023438 L 0.632812 5.042969 C 0.632812 4.613281 0.976562 4.261719 1.40625 4.253906 C 9.210938 4.046875 7.410156 0.617188 13.257812 0.617188 C 19.105469 0.617188 17.304688 4.046875 25.105469 4.253906 C 25.535156 4.265625 25.878906 4.613281 25.878906 5.042969 Z M 25.878906 15.023438 "/>
<path style=" stroke:none;fill-rule:nonzero;fill:rgb(41.960785%,72.549021%,94.901961%);fill-opacity:1;" d="M 24.832031 15.109375 C 24.832031 22.722656 15.640625 28.828125 13.632812 30.097656 C 13.398438 30.234375 13.113281 30.234375 12.878906 30.097656 C 10.871094 28.863281 1.679688 22.722656 1.679688 15.109375 L 1.679688 5.949219 C 1.679688 5.558594 1.992188 5.238281 2.382812 5.230469 C 9.535156 5.042969 7.886719 1.902344 13.257812 1.902344 C 18.625 1.902344 16.976562 5.042969 24.128906 5.230469 C 24.519531 5.238281 24.832031 5.558594 24.832031 5.949219 Z M 24.832031 15.109375 "/>
<path style=" stroke:none;fill-rule:nonzero;fill:url(#linear0);" d="M 13.257812 16.050781 L 13.257812 1.902344 C 18.625 1.902344 16.976562 5.042969 24.128906 5.230469 C 24.523438 5.25 24.832031 5.574219 24.832031 5.96875 L 24.832031 15.125 C 24.847656 15.433594 24.847656 15.742188 24.832031 16.050781 Z M 13.257812 16.050781 L 1.730469 16.050781 C 2.417969 23.21875 10.957031 28.914062 12.878906 30.097656 C 12.972656 30.15625 13.078125 30.191406 13.1875 30.199219 L 13.257812 30.199219 Z M 13.257812 16.050781 "/>
<path style=" stroke:none;fill-rule:nonzero;fill:rgb(31.37255%,90.196079%,100%);fill-opacity:1;" d="M 2.382812 5.230469 C 9.535156 5.042969 7.886719 1.902344 13.257812 1.902344 L 13.257812 16.050781 L 1.730469 16.050781 C 1.714844 15.742188 1.714844 15.433594 1.730469 15.125 L 1.730469 5.96875 C 1.730469 5.59375 2.011719 5.273438 2.382812 5.230469 M 24.78125 16.050781 L 13.257812 16.050781 L 13.257812 30.199219 C 13.367188 30.191406 13.472656 30.15625 13.566406 30.097656 C 15.554688 28.914062 24.09375 23.21875 24.78125 16.050781 M 24.78125 16.050781 "/>
</g>
</svg>
