<?xml version="1.0" encoding="UTF-8"?>
<svg xmlns="http://www.w3.org/2000/svg" xmlns:xlink="http://www.w3.org/1999/xlink" width="32" height="32" viewBox="0 0 32 32" version="1.1">
<defs>
<radialGradient id="radial0" gradientUnits="userSpaceOnUse" cx="9" cy="9" fx="9" fy="9" r="8.5" gradientTransform="matrix(1.777778,0,0,1.777778,0,0)">
<stop offset="0.18" style="stop-color:rgb(36.862746%,62.7451%,93.725491%);stop-opacity:1;"/>
<stop offset="0.56" style="stop-color:rgb(36.078432%,62.352943%,93.333334%);stop-opacity:1;"/>
<stop offset="0.69" style="stop-color:rgb(33.333334%,61.176473%,92.941177%);stop-opacity:1;"/>
<stop offset="0.78" style="stop-color:rgb(29.019609%,59.215689%,91.37255%);stop-opacity:1;"/>
<stop offset="0.86" style="stop-color:rgb(22.352941%,56.470591%,89.411765%);stop-opacity:1;"/>
<stop offset="0.93" style="stop-color:rgb(13.725491%,52.941179%,87.058824%);stop-opacity:1;"/>
<stop offset="0.99" style="stop-color:rgb(3.137255%,48.235294%,83.92157%);stop-opacity:1;"/>
<stop offset="1" style="stop-color:rgb(0%,47.058824%,83.137256%);stop-opacity:1;"/>
</radialGradient>
<radialGradient id="radial1" gradientUnits="userSpaceOnUse" cx="38.950001" cy="182.070007" fx="38.950001" fy="182.070007" r="9.88" gradientTransform="matrix(1.671111,0,0,1.671111,-51.039998,-290.204454)">
<stop offset="0.27" style="stop-color:rgb(100%,84.313726%,5.882353%);stop-opacity:1;"/>
<stop offset="0.49" style="stop-color:rgb(100%,79.607844%,7.058824%);stop-opacity:1;"/>
<stop offset="0.88" style="stop-color:rgb(99.607843%,67.450982%,9.803922%);stop-opacity:1;"/>
<stop offset="1" style="stop-color:rgb(99.607843%,63.137257%,10.588235%);stop-opacity:1;"/>
</radialGradient>
<filter id="alpha" filterUnits="objectBoundingBox" x="0%" y="0%" width="100%" height="100%">
  <feColorMatrix type="matrix" in="SourceGraphic" values="0 0 0 0 1 0 0 0 0 1 0 0 0 0 1 0 0 0 1 0"/>
</filter>
<mask id="mask0">
  <g filter="url(#alpha)">
<rect x="0" y="0" width="32" height="32" style="fill:rgb(0%,0%,0%);fill-opacity:0.75;stroke:none;"/>
  </g>
</mask>
<clipPath id="clip1">
  <rect x="0" y="0" width="32" height="32"/>
</clipPath>
<g id="surface5" clip-path="url(#clip1)">
<path style=" stroke:none;fill-rule:nonzero;fill:rgb(100%,57.647061%,0%);fill-opacity:1;" d="M 14.542969 27.199219 C 14.664062 27.304688 14.832031 27.328125 14.976562 27.261719 C 15.121094 27.199219 15.214844 27.054688 15.21875 26.898438 L 15.21875 19.785156 C 15.214844 19.644531 15.144531 19.507812 15.023438 19.429688 C 14.898438 19.347656 14.738281 19.34375 14.609375 19.421875 C 14.480469 19.496094 14.40625 19.636719 14.417969 19.785156 L 14.417969 26.898438 C 14.425781 27.007812 14.46875 27.117188 14.542969 27.199219 "/>
</g>
<mask id="mask1">
  <g filter="url(#alpha)">
<rect x="0" y="0" width="32" height="32" style="fill:rgb(0%,0%,0%);fill-opacity:0.75;stroke:none;"/>
  </g>
</mask>
<clipPath id="clip2">
  <rect x="0" y="0" width="32" height="32"/>
</clipPath>
<g id="surface8" clip-path="url(#clip2)">
<path style=" stroke:none;fill-rule:nonzero;fill:rgb(100%,57.647061%,0%);fill-opacity:1;" d="M 12.019531 10.292969 L 20.214844 10.292969 C 20.488281 10.292969 20.710938 10.515625 20.710938 10.792969 L 20.710938 10.878906 C 20.710938 11.15625 20.488281 11.378906 20.214844 11.378906 L 12.019531 11.378906 C 11.742188 11.378906 11.519531 11.15625 11.519531 10.878906 L 11.519531 10.792969 C 11.519531 10.515625 11.742188 10.292969 12.019531 10.292969 Z M 12.019531 10.292969 "/>
</g>
<mask id="mask2">
  <g filter="url(#alpha)">
<rect x="0" y="0" width="32" height="32" style="fill:rgb(0%,0%,0%);fill-opacity:0.75;stroke:none;"/>
  </g>
</mask>
<clipPath id="clip3">
  <rect x="0" y="0" width="32" height="32"/>
</clipPath>
<g id="surface11" clip-path="url(#clip3)">
<path style=" stroke:none;fill-rule:nonzero;fill:rgb(100%,57.647061%,0%);fill-opacity:1;" d="M 12.019531 12.054688 L 20.214844 12.054688 C 20.488281 12.054688 20.710938 12.277344 20.710938 12.550781 L 20.710938 12.640625 C 20.710938 12.914062 20.488281 13.136719 20.214844 13.136719 L 12.019531 13.136719 C 11.742188 13.136719 11.519531 12.914062 11.519531 12.640625 L 11.519531 12.550781 C 11.519531 12.277344 11.742188 12.054688 12.019531 12.054688 Z M 12.019531 12.054688 "/>
</g>
</defs>
<g id="surface1">
<path style=" stroke:none;fill-rule:nonzero;fill:url(#radial0);" d="M 16 0.890625 C 7.65625 0.890625 0.890625 7.65625 0.890625 16 C 0.890625 24.34375 7.65625 31.109375 16 31.109375 C 24.34375 31.109375 31.109375 24.34375 31.109375 16 C 31.101562 7.660156 24.339844 0.898438 16 0.890625 M 16 29.050781 C 8.792969 29.050781 2.949219 23.207031 2.949219 16 C 2.949219 8.792969 8.792969 2.949219 16 2.949219 C 23.207031 2.949219 29.050781 8.792969 29.050781 16 C 29.050781 23.207031 23.207031 29.050781 16 29.050781 "/>
<path style=" stroke:none;fill-rule:nonzero;fill:rgb(100%,100%,100%);fill-opacity:1;" d="M 16 2.949219 C 8.792969 2.949219 2.949219 8.792969 2.949219 16 C 2.949219 23.207031 8.792969 29.050781 16 29.050781 C 23.207031 29.050781 29.050781 23.207031 29.050781 16 C 29.050781 8.792969 23.207031 2.949219 16 2.949219 "/>
<path style=" stroke:none;fill-rule:nonzero;fill:url(#radial1);" d="M 23.894531 13.03125 C 25.15625 11.757812 25.15625 9.703125 23.894531 8.425781 L 18.292969 2.808594 C 17.023438 1.546875 14.976562 1.546875 13.707031 2.808594 L 8.105469 8.425781 C 6.84375 9.703125 6.84375 11.757812 8.105469 13.03125 L 12.765625 17.777344 C 12.933594 17.949219 13.03125 18.175781 13.03125 18.417969 L 13.03125 27.09375 C 13.03125 27.386719 13.144531 27.667969 13.351562 27.875 L 15.484375 30.007812 C 15.769531 30.292969 16.230469 30.292969 16.515625 30.007812 L 19.785156 26.738281 C 19.945312 26.566406 19.945312 26.304688 19.785156 26.132812 L 18.914062 25.261719 C 18.742188 25.078125 18.742188 24.789062 18.914062 24.605469 L 19.785156 23.734375 C 19.945312 23.5625 19.945312 23.300781 19.785156 23.128906 L 18.914062 22.257812 C 18.742188 22.074219 18.742188 21.785156 18.914062 21.601562 L 19.785156 20.730469 C 19.945312 20.558594 19.945312 20.292969 19.785156 20.125 L 18.578125 18.898438 L 18.578125 18.453125 Z M 16 4.179688 C 17.015625 4.179688 17.839844 5 17.839844 6.019531 C 17.839844 7.035156 17.015625 7.859375 16 7.859375 C 14.984375 7.859375 14.160156 7.035156 14.160156 6.019531 C 14.160156 5 14.984375 4.179688 16 4.179688 "/>
<use xlink:href="#surface5" mask="url(#mask0)"/>
<use xlink:href="#surface8" mask="url(#mask1)"/>
<use xlink:href="#surface11" mask="url(#mask2)"/>
</g>
</svg>
