<?xml version="1.0" encoding="UTF-8"?>
<svg xmlns="http://www.w3.org/2000/svg" xmlns:xlink="http://www.w3.org/1999/xlink" width="32" height="32" viewBox="0 0 32 32" version="1.1">
<defs>
<linearGradient id="linear0" gradientUnits="userSpaceOnUse" x1="8.15" y1="17.5" x2="8.15" y2="2.09" gradientTransform="matrix(1.777778,0,0,1.777778,0,0)">
<stop offset="0" style="stop-color:rgb(9.803922%,53.333336%,85.09804%);stop-opacity:1;"/>
<stop offset="0.9" style="stop-color:rgb(32.941177%,68.235296%,94.117647%);stop-opacity:1;"/>
</linearGradient>
</defs>
<g id="surface1">
<path style=" stroke:none;fill-rule:nonzero;fill:rgb(0%,35.686275%,63.137257%);fill-opacity:1;" d="M 3.429688 3.75 L 5.582031 1.246094 C 5.785156 1.015625 6.078125 0.886719 6.382812 0.890625 L 27.023438 0.890625 C 27.433594 0.847656 27.84375 0.984375 28.148438 1.269531 C 28.449219 1.550781 28.617188 1.949219 28.605469 2.363281 L 28.605469 28.140625 C 28.601562 28.4375 28.472656 28.714844 28.25 28.90625 L 25.9375 31.023438 L 4.835938 31.023438 L 3.394531 30.4375 Z M 3.429688 3.75 "/>
<path style=" stroke:none;fill-rule:nonzero;fill:rgb(100%,100%,100%);fill-opacity:1;" d="M 5.171875 3.734375 L 6.488281 2.238281 C 6.644531 2.054688 6.867188 1.9375 7.109375 1.921875 L 26.472656 1.921875 C 26.980469 1.921875 27.394531 2.332031 27.394531 2.84375 L 27.394531 27.34375 C 27.398438 27.605469 27.289062 27.859375 27.09375 28.035156 L 25.03125 29.902344 Z M 5.171875 3.734375 "/>
<path style=" stroke:none;fill-rule:nonzero;fill:url(#linear0);" d="M 24.890625 3.714844 L 3.554688 3.714844 C 3.496094 3.714844 3.449219 3.761719 3.449219 3.820312 L 3.449219 30.488281 C 3.457031 30.863281 3.765625 31.164062 4.140625 31.164062 L 24.890625 31.164062 C 25.261719 31.164062 25.5625 30.863281 25.5625 30.488281 L 25.5625 4.410156 C 25.566406 4.03125 25.265625 3.726562 24.890625 3.714844 "/>
<path style=" stroke:none;fill-rule:nonzero;fill:rgb(100%,100%,100%);fill-opacity:1;" d="M 8.890625 11.023438 L 19.589844 11.023438 C 19.867188 11.023438 20.089844 11.246094 20.089844 11.519531 L 20.089844 14.753906 C 20.089844 15.03125 19.867188 15.253906 19.589844 15.253906 L 8.890625 15.253906 C 8.613281 15.253906 8.390625 15.03125 8.390625 14.753906 L 8.390625 11.519531 C 8.390625 11.246094 8.613281 11.023438 8.890625 11.023438 Z M 8.890625 11.023438 "/>
</g>
</svg>
