<svg role="img" viewBox="0 0 26.409 32" xmlns="http://www.w3.org/2000/svg" xmlns:xlink="http://www.w3.org/1999/xlink"><defs><linearGradient gradientTransform="translate(-2.178 .617)scale(1.7149)" gradientUnits="userSpaceOnUse" id="a" x1="9.01" x2="9.01" y1=".75" y2="17.25"><stop offset="0" style="stop-color:rgb(36.862746%,62.7451%,93.725491%);stop-opacity:1"/><stop offset=".18" style="stop-color:rgb(33.333334%,61.176473%,92.54902%);stop-opacity:1"/><stop offset=".47" style="stop-color:rgb(23.529412%,56.862748%,89.803922%);stop-opacity:1"/><stop offset=".84" style="stop-color:rgb(7.450981%,50.196081%,85.490197%);stop-opacity:1"/><stop offset="1" style="stop-color:rgb(0%,47.058824%,83.137256%);stop-opacity:1"/></linearGradient></defs><path d="M25.879 15.023c0 8.301-10.035 14.989-12.211 16.344a.8.8 0 0 1-.824 0C10.668 30.012.633 23.324.633 15.023v-9.98a.79.79 0 0 1 .773-.79C9.211 4.048 7.41.618 13.258.618c5.847 0 4.047 3.43 11.847 3.637a.79.79 0 0 1 .774.789Zm0 0" style="stroke:none;fill-rule:nonzero;fill:rgb(0%,47.058824%,83.137256%);fill-opacity:1"/><path d="M24.832 15.11c0 7.613-9.191 13.718-11.2 14.988a.744.744 0 0 1-.753 0c-2.008-1.235-11.2-7.375-11.2-14.989V5.95c0-.39.313-.71.704-.719 7.152-.187 5.504-3.328 10.875-3.328 5.367 0 3.719 3.141 10.87 3.328a.72.72 0 0 1 .704.72Zm0 0" style="stroke:none;fill-rule:nonzero;fill:rgb(41.960785%,72.549021%,94.901961%);fill-opacity:1"/><path d="M13.258 16.05V1.903c5.367 0 3.719 3.141 10.87 3.328a.74.74 0 0 1 .704.739v9.156c.016.309.016.617 0 .926Zm0 0H1.73c.688 7.169 9.227 12.864 11.149 14.048.094.058.2.093.309.101h.07Zm0 0" style="stroke:none;fill-rule:nonzero;fill:url(#a)"/><path d="M2.383 5.23c7.152-.187 5.504-3.328 10.875-3.328v14.149H1.73a9.148 9.148 0 0 1 0-.926V5.969c0-.375.282-.696.653-.739M24.78 16.05H13.258V30.2a.672.672 0 0 0 .308-.102c1.989-1.184 10.528-6.88 11.215-14.047m0 0" style="stroke:none;fill-rule:nonzero;fill:rgb(31.37255%,90.196079%,100%);fill-opacity:1"/></svg>