<?xml version="1.0" encoding="UTF-8"?>
<svg xmlns="http://www.w3.org/2000/svg" xmlns:xlink="http://www.w3.org/1999/xlink" width="51.787998" height="32" viewBox="0 0 51.787998 32" version="1.1">
<defs>
<linearGradient id="linear0" gradientUnits="userSpaceOnUse" x1="9.88" y1="8.59" x2="11.52" y2="10.23" gradientTransform="matrix(2.775366,-0.00469861,0.00469861,2.775366,8.044931,-12.113007)">
<stop offset="0" style="stop-color:rgb(52.549022%,83.92157%,20%);stop-opacity:1;"/>
<stop offset="1" style="stop-color:rgb(36.862746%,58.823532%,14.117648%);stop-opacity:1;"/>
</linearGradient>
<linearGradient id="linear1" gradientUnits="userSpaceOnUse" x1="6.18" y1="8.59" x2="7.81" y2="10.23" gradientTransform="matrix(2.77537,0,0,2.77537,1,-8.881)">
<stop offset="0" style="stop-color:rgb(52.549022%,83.92157%,20%);stop-opacity:1;"/>
<stop offset="1" style="stop-color:rgb(36.862746%,58.823532%,14.117648%);stop-opacity:1;"/>
</linearGradient>
<linearGradient id="linear2" gradientUnits="userSpaceOnUse" x1="2.48" y1="8.59" x2="4.11" y2="10.23" gradientTransform="matrix(2.77537,0,0,2.77537,1,-8.881)">
<stop offset="0" style="stop-color:rgb(52.549022%,83.92157%,20%);stop-opacity:1;"/>
<stop offset="1" style="stop-color:rgb(36.862746%,58.823532%,14.117648%);stop-opacity:1;"/>
</linearGradient>
</defs>
<g id="surface1">
<path style=" stroke:none;fill-rule:nonzero;fill:url(#linear0);" d="M 39.578125 16.070312 C 39.578125 17.847656 38.136719 19.289062 36.355469 19.289062 C 34.578125 19.289062 33.136719 17.847656 33.136719 16.066406 C 33.136719 14.289062 34.582031 12.847656 36.359375 12.847656 C 38.136719 12.847656 39.578125 14.292969 39.578125 16.070312 M 39.578125 16.070312 "/>
<path style=" stroke:none;fill-rule:nonzero;fill:url(#linear1);" d="M 29.308594 16.097656 C 29.308594 17.878906 27.867188 19.320312 26.085938 19.320312 C 24.308594 19.316406 22.867188 17.875 22.867188 16.097656 C 22.867188 14.316406 24.308594 12.875 26.089844 12.875 C 27.867188 12.875 29.308594 14.320312 29.308594 16.097656 M 29.308594 16.097656 "/>
<path style=" stroke:none;fill-rule:nonzero;fill:url(#linear2);" d="M 19.039062 16.097656 C 19.039062 17.875 17.597656 19.316406 15.820312 19.316406 C 14.042969 19.316406 12.601562 17.875 12.601562 16.097656 C 12.601562 14.320312 14.042969 12.878906 15.820312 12.878906 C 17.597656 12.878906 19.039062 14.320312 19.039062 16.097656 M 19.039062 16.097656 "/>
<path style=" stroke:none;fill-rule:nonzero;fill:rgb(31.37255%,90.196079%,100%);fill-opacity:1;" d="M 18.15625 28.96875 L 16.316406 30.816406 C 15.988281 31.140625 15.460938 31.140625 15.136719 30.816406 L 1.5 17.214844 C 0.847656 16.566406 0.847656 15.511719 1.496094 14.859375 L 3.339844 13.011719 L 18.15625 27.789062 C 18.3125 27.945312 18.402344 28.15625 18.402344 28.378906 C 18.402344 28.601562 18.3125 28.8125 18.15625 28.96875 M 18.15625 28.96875 "/>
<path style=" stroke:none;fill-rule:nonzero;fill:rgb(7.843138%,56.470591%,87.450981%);fill-opacity:1;" d="M 16.035156 1.410156 L 17.882812 3.25 C 18.039062 3.40625 18.128906 3.617188 18.128906 3.839844 C 18.128906 4.0625 18.042969 4.273438 17.886719 4.429688 L 3.324219 19.03125 L 1.476562 17.1875 C 0.828125 16.535156 0.824219 15.484375 1.472656 14.832031 L 14.859375 1.410156 C 15.183594 1.085938 15.710938 1.085938 16.035156 1.410156 M 16.035156 1.410156 "/>
<path style=" stroke:none;fill-rule:nonzero;fill:rgb(31.37255%,90.196079%,100%);fill-opacity:1;" d="M 48.613281 12.988281 L 50.457031 14.835938 C 51.105469 15.488281 51.105469 16.542969 50.453125 17.191406 L 36.816406 30.792969 C 36.660156 30.949219 36.445312 31.035156 36.226562 31.035156 C 36.003906 31.035156 35.792969 30.945312 35.636719 30.789062 L 33.796875 28.945312 C 33.640625 28.789062 33.550781 28.578125 33.550781 28.355469 C 33.550781 28.132812 33.640625 27.921875 33.796875 27.765625 Z M 48.613281 12.988281 "/>
<path style=" stroke:none;fill-rule:nonzero;fill:rgb(7.843138%,56.470591%,87.450981%);fill-opacity:1;" d="M 50.449219 17.171875 L 48.601562 19.011719 L 34.039062 4.410156 C 33.714844 4.085938 33.71875 3.558594 34.042969 3.234375 L 35.910156 1.371094 C 36.066406 1.214844 36.277344 1.128906 36.5 1.128906 C 36.71875 1.128906 36.929688 1.21875 37.085938 1.375 L 50.472656 14.796875 C 51.121094 15.449219 51.121094 16.503906 50.46875 17.152344 Z M 50.449219 17.171875 "/>
</g>
</svg>
