<?xml version="1.0" encoding="UTF-8" standalone="no"?>
<!DOCTYPE svg PUBLIC "-//W3C//DTD SVG 1.1//EN" "http://www.w3.org/Graphics/SVG/1.1/DTD/svg11.dtd">
<svg xmlns="http://www.w3.org/2000/svg" version="1.1" viewBox="0 0 432 432" width="432.0pt" height="432.0pt">
<path d="M 0.00 0.00 L 432.00 0.00 L 432.00 432.00 L 0.00 432.00 L 0.00 0.00 Z" fill="#ffffff" />
<path d="M 246.99 3.20 C 251.01 2.51 254.94 2.68 259.00 2.68 C 310.00 2.68 361.01 2.68 412.01 2.68 C 418.65 2.57 424.92 7.47 427.77 13.23 C 429.85 17.38 429.25 21.52 429.32 26.00 C 429.32 77.00 429.33 128.01 429.32 179.01 C 429.35 188.82 425.14 198.32 418.17 205.17 C 414.71 208.62 410.05 211.22 405.99 213.98 C 378.24 232.41 350.46 250.78 322.68 269.17 C 280.86 296.85 239.03 324.53 197.23 352.23 C 192.71 355.43 188.60 358.29 182.74 357.40 C 175.42 356.38 171.30 350.10 166.25 345.44 C 157.27 336.55 148.40 327.56 139.43 318.68 C 141.97 315.12 145.23 312.36 148.26 309.27 C 183.08 274.41 218.07 239.58 252.84 204.69 C 245.70 197.01 237.98 189.86 230.71 182.29 C 229.40 181.15 227.71 178.82 225.77 179.27 L 225.76 179.27 C 223.37 181.38 221.21 183.69 218.95 185.95 C 183.56 221.27 148.27 256.75 112.82 292.01 C 104.12 283.33 95.38 274.69 86.78 265.91 C 81.97 260.66 75.58 256.73 74.60 249.09 C 73.73 243.29 76.65 239.25 79.75 234.74 C 107.52 192.98 135.08 151.06 162.86 109.31 C 182.67 79.32 202.55 49.37 222.39 19.41 C 227.91 10.92 237.02 4.93 246.99 3.20 Z" fill="#2a64e1" />
<path d="M 304.49 64.66 C 321.33 61.58 339.01 66.82 351.36 78.66 C 361.05 87.84 367.17 100.66 368.03 114.00 C 368.84 124.98 366.23 136.12 360.57 145.56 C 353.58 157.28 342.10 166.14 328.97 169.85 C 318.00 172.96 306.09 172.55 295.39 168.58 C 282.91 164.02 272.27 154.63 266.19 142.82 C 256.52 124.62 258.49 101.37 271.13 85.09 C 279.23 74.44 291.30 67.00 304.49 64.66 Z" fill="#94b2f2" />
<path d="M 21.97 109.31 C 68.92 109.32 115.92 109.34 162.86 109.31 C 135.08 151.06 107.52 192.98 79.75 234.74 C 76.65 239.25 73.73 243.29 74.60 249.09 C 75.58 256.73 81.97 260.66 86.78 265.91 C 79.54 273.42 72.42 281.05 65.20 288.58 C 44.81 267.49 24.13 246.64 3.73 225.56 C 4.17 219.37 3.96 213.20 4.00 207.00 C 4.01 181.01 3.88 154.98 3.95 129.00 C 3.92 127.08 3.43 125.30 3.06 123.43 C 4.85 115.09 13.55 108.97 21.97 109.31 Z" fill="#154abf" />
<path d="M 3.06 123.43 C 3.43 125.30 3.92 127.08 3.95 129.00 C 3.88 154.98 4.01 181.01 4.00 207.00 C 3.96 213.20 4.17 219.37 3.73 225.56 L 2.68 224.27 C 2.72 194.20 2.69 164.07 2.70 134.00 C 2.72 130.43 2.49 126.98 3.06 123.43 Z" fill="#013bb9" />
<path d="M 225.77 179.27 C 227.71 178.82 229.40 181.15 230.71 182.29 C 237.98 189.86 245.70 197.01 252.84 204.69 C 218.07 239.58 183.08 274.41 148.26 309.27 C 145.23 312.36 141.97 315.12 139.43 318.68 L 138.45 317.71 C 130.22 309.42 121.90 301.22 113.69 292.92 C 150.44 256.03 187.47 219.12 224.31 182.30 C 225.27 181.42 225.45 180.47 225.76 179.27 L 225.77 179.27 Z" fill="#4f82f0" />
<path d="M 225.76 179.27 C 225.45 180.47 225.27 181.42 224.31 182.30 C 187.47 219.12 150.44 256.03 113.69 292.92 C 121.90 301.22 130.22 309.42 138.45 317.71 C 131.04 325.01 123.79 332.48 116.33 339.72 C 107.85 331.15 99.30 322.65 90.77 314.14 C 98.12 306.76 105.57 299.48 112.82 292.01 C 148.27 256.75 183.56 221.27 218.95 185.95 C 221.21 183.69 223.37 181.38 225.76 179.27 Z" fill="#749bf2" />
<path d="M 322.68 269.17 C 322.66 316.45 322.70 363.76 322.67 411.04 C 322.62 417.94 319.03 424.66 312.71 427.72 C 308.65 429.79 304.40 429.28 300.00 429.33 C 269.67 429.33 239.22 429.31 208.90 429.34 C 207.11 429.62 205.77 427.52 204.55 426.45 C 184.68 406.54 164.80 386.63 144.87 366.78 C 152.01 359.68 159.10 352.53 166.25 345.44 C 171.30 350.10 175.42 356.38 182.74 357.40 C 188.60 358.29 192.71 355.43 197.23 352.23 C 239.03 324.53 280.86 296.85 322.68 269.17 Z" fill="#1047bd" />
<path d="M 2.68 322.70 C 14.52 322.69 26.35 322.68 38.18 322.70 C 38.21 346.40 38.16 370.10 38.21 393.80 C 61.91 393.80 85.60 393.78 109.29 393.81 C 109.33 405.65 109.32 417.48 109.30 429.32 C 73.76 429.33 38.22 429.34 2.68 429.32 C 2.66 393.78 2.68 358.24 2.68 322.70 Z" fill="#91b0f2" />
</svg>