<svg role="img" viewBox="0 0 32 32" xmlns="http://www.w3.org/2000/svg" xmlns:xlink="http://www.w3.org/1999/xlink"><defs><linearGradient gradientTransform="translate(-.29 -.29)scale(1.81715)" gradientUnits="userSpaceOnUse" id="a" x1="5.23" x2="5.23" y1="17.45" y2="8.09"><stop offset="0" style="stop-color:rgb(9.803922%,53.333336%,85.09804%);stop-opacity:1"/><stop offset=".9" style="stop-color:rgb(32.941177%,68.235296%,94.117647%);stop-opacity:1"/></linearGradient><linearGradient gradientTransform="translate(-.29 -.29)scale(1.81715)" gradientUnits="userSpaceOnUse" id="b" x1="11.5" x2="11.5" y1="12.45" y2=".55"><stop offset="0" style="stop-color:rgb(9.803922%,54.11765%,70.19608%);stop-opacity:1"/><stop offset=".01" style="stop-color:rgb(9.803922%,54.509807%,70.588237%);stop-opacity:1"/><stop offset=".44" style="stop-color:rgb(15.294118%,69.803923%,84.313726%);stop-opacity:1"/><stop offset=".79" style="stop-color:rgb(18.431373%,79.607844%,92.941177%);stop-opacity:1"/><stop offset="1" style="stop-color:rgb(19.607843%,83.137256%,96.078432%);stop-opacity:1"/></linearGradient></defs><path d="M9.867 23.57h7.852v7.848H9.867Zm-8.066 7.848h6.758V23.57H.707v6.758c0 .602.488 1.09 1.094 1.09M.707 22.332h7.852V14.41H.707Zm0 0" style="stroke:none;fill-rule:nonzero;fill:url(#a)"/><path d="M20.605.707a10.707 10.707 0 0 1 10.813 10.906 10.706 10.706 0 0 1-3.133 7.676 10.692 10.692 0 0 1-7.68 3.133H9.793V11.52A10.71 10.71 0 0 1 20.605.707m0 0" style="stroke:none;fill-rule:evenodd;fill:url(#b)"/><path d="M13.5 9.977h2.473v7.414H13.5Zm4.945 2.472h2.47v4.942h-2.47Zm4.942-4.945h2.472v9.887h-2.472Zm0 0" style="stroke:none;fill-rule:nonzero;fill:rgb(100%,100%,100%);fill-opacity:1"/></svg>