<?xml version="1.0" encoding="UTF-8"?>
<svg xmlns="http://www.w3.org/2000/svg" xmlns:xlink="http://www.w3.org/1999/xlink" width="32" height="32" viewBox="0 0 32 32" version="1.1">
<defs>
<linearGradient id="linear0" gradientUnits="userSpaceOnUse" x1="9" y1="19.25" x2="9" y2="-0.46" gradientTransform="matrix(1.777778,-0.000000000000000526,0.000000000000000526,1.777778,-0.00711229,-0.00294601)">
<stop offset="0" style="stop-color:rgb(36.862746%,58.823532%,14.117648%);stop-opacity:1;"/>
<stop offset="0.55" style="stop-color:rgb(42.745098%,67.843139%,16.470589%);stop-opacity:1;"/>
<stop offset="1" style="stop-color:rgb(46.27451%,73.725492%,17.647059%);stop-opacity:1;"/>
</linearGradient>
<linearGradient id="linear1" gradientUnits="userSpaceOnUse" x1="7.54" y1="6.44" x2="7.53" y2="5.18" gradientTransform="matrix(1.777778,0,0,1.777778,0,0)">
<stop offset="0" style="stop-color:rgb(80.000001%,80.000001%,80.000001%);stop-opacity:1;"/>
<stop offset="0.12" style="stop-color:rgb(84.313726%,84.313726%,84.313726%);stop-opacity:1;"/>
<stop offset="0.42" style="stop-color:rgb(92.156863%,92.156863%,92.156863%);stop-opacity:1;"/>
<stop offset="0.72" style="stop-color:rgb(97.254902%,97.254902%,97.254902%);stop-opacity:1;"/>
<stop offset="1" style="stop-color:rgb(98.823529%,98.823529%,98.823529%);stop-opacity:1;"/>
</linearGradient>
<filter id="alpha" filterUnits="objectBoundingBox" x="0%" y="0%" width="100%" height="100%">
  <feColorMatrix type="matrix" in="SourceGraphic" values="0 0 0 0 1 0 0 0 0 1 0 0 0 0 1 0 0 0 1 0"/>
</filter>
<mask id="mask0">
  <g filter="url(#alpha)">
<rect x="0" y="0" width="32" height="32" style="fill:rgb(0%,0%,0%);fill-opacity:0.55;stroke:none;"/>
  </g>
</mask>
<clipPath id="clip1">
  <rect x="0" y="0" width="32" height="32"/>
</clipPath>
<g id="surface5" clip-path="url(#clip1)">
<path style=" stroke:none;fill-rule:nonzero;fill:rgb(94.901961%,94.901961%,94.901961%);fill-opacity:1;" d="M 11.859375 12.445312 L 12.195312 12.976562 L 12.445312 13.332031 C 12.582031 12.664062 12.785156 12.007812 13.050781 11.378906 C 12.746094 11.324219 12.46875 11.183594 12.25 10.96875 C 12.085938 11.453125 11.957031 11.945312 11.859375 12.445312 M 12.871094 8.410156 C 12.664062 7.875 12.519531 7.320312 12.445312 6.753906 C 12.210938 7.003906 12.007812 7.277344 11.839844 7.574219 C 11.910156 8.023438 12.03125 8.464844 12.195312 8.890625 C 12.378906 8.679688 12.609375 8.511719 12.871094 8.410156 M 14.523438 10.914062 C 14.296875 11.15625 13.996094 11.320312 13.671875 11.378906 C 13.925781 11.636719 14.199219 11.882812 14.488281 12.105469 C 14.851562 12.371094 15.238281 12.605469 15.644531 12.800781 L 15.644531 12.675781 C 15.652344 12.398438 15.78125 12.136719 16 11.964844 C 15.460938 11.6875 14.964844 11.332031 14.523438 10.914062 M 19.183594 12.800781 C 18.660156 12.796875 18.144531 12.734375 17.636719 12.621094 C 17.636719 12.882812 17.535156 13.132812 17.351562 13.316406 C 17.980469 13.453125 18.628906 13.5 19.269531 13.457031 C 19.515625 13.230469 19.734375 12.980469 19.929688 12.710938 Z M 19.183594 12.800781 "/>
</g>
<linearGradient id="linear2" gradientUnits="userSpaceOnUse" x1="9.36" y1="7.69" x2="9.36" y2="6.57" gradientTransform="matrix(1.777778,0,0,1.777778,0,0)">
<stop offset="0" style="stop-color:rgb(80.000001%,80.000001%,80.000001%);stop-opacity:1;"/>
<stop offset="0.12" style="stop-color:rgb(84.313726%,84.313726%,84.313726%);stop-opacity:1;"/>
<stop offset="0.42" style="stop-color:rgb(92.156863%,92.156863%,92.156863%);stop-opacity:1;"/>
<stop offset="0.72" style="stop-color:rgb(97.254902%,97.254902%,97.254902%);stop-opacity:1;"/>
<stop offset="1" style="stop-color:rgb(98.823529%,98.823529%,98.823529%);stop-opacity:1;"/>
</linearGradient>
<mask id="mask1">
  <g filter="url(#alpha)">
<rect x="0" y="0" width="32" height="32" style="fill:rgb(0%,0%,0%);fill-opacity:0.55;stroke:none;"/>
  </g>
</mask>
<clipPath id="clip2">
  <rect x="0" y="0" width="32" height="32"/>
</clipPath>
<g id="surface8" clip-path="url(#clip2)">
<path style=" stroke:none;fill-rule:nonzero;fill:rgb(94.901961%,94.901961%,94.901961%);fill-opacity:1;" d="M 16.375 7.859375 C 17.417969 7.359375 18.558594 7.101562 19.714844 7.109375 C 19.476562 6.804688 19.195312 6.535156 18.878906 6.3125 C 17.96875 6.367188 17.070312 6.578125 16.230469 6.933594 C 16.054688 6.933594 15.894531 7.128906 15.714844 7.21875 C 15.289062 6.703125 14.914062 6.148438 14.59375 5.5625 L 13.992188 5.796875 C 14.308594 6.429688 14.695312 7.027344 15.148438 7.574219 C 14.714844 7.855469 14.316406 8.183594 13.957031 8.550781 C 14.269531 8.667969 14.539062 8.886719 14.71875 9.171875 C 15.046875 8.847656 15.410156 8.5625 15.804688 8.320312 C 16.445312 8.96875 17.140625 9.566406 17.882812 10.097656 C 17.933594 9.875 18.058594 9.671875 18.238281 9.527344 C 17.574219 9.023438 16.949219 8.464844 16.375 7.859375 M 20.535156 10.828125 L 20.214844 10.828125 L 20.035156 10.71875 C 19.972656 10.929688 19.847656 11.117188 19.679688 11.253906 L 19.894531 11.378906 L 20.089844 11.484375 L 20.585938 11.734375 C 20.652344 11.527344 20.703125 11.320312 20.746094 11.109375 Z M 20.535156 10.828125 "/>
</g>
</defs>
<g id="surface1">
<path style=" stroke:none;fill-rule:nonzero;fill:url(#linear0);" d="M 1.175781 15.285156 L 15.265625 1.191406 C 15.664062 0.796875 16.304688 0.796875 16.699219 1.191406 L 30.792969 15.285156 C 31.1875 15.679688 31.1875 16.320312 30.792969 16.71875 L 16.699219 30.808594 C 16.304688 31.203125 15.664062 31.203125 15.265625 30.808594 L 1.175781 16.71875 C 0.777344 16.320312 0.777344 15.679688 1.175781 15.285156 Z M 1.175781 15.285156 "/>
<path style=" stroke:none;fill-rule:nonzero;fill:rgb(100%,100%,100%);fill-opacity:1;" d="M 19.359375 18.683594 L 24.410156 18.683594 C 24.511719 18.675781 24.585938 18.589844 24.585938 18.488281 L 24.585938 13.457031 C 24.59375 13.378906 24.550781 13.300781 24.472656 13.273438 C 24.398438 13.242188 24.3125 13.269531 24.265625 13.332031 L 22.878906 14.71875 L 22.878906 14.808594 C 22.8125 14.875 22.699219 14.875 22.632812 14.808594 L 16.460938 8.730469 C 16.394531 8.660156 16.28125 8.660156 16.214844 8.730469 L 14.648438 10.292969 C 14.578125 10.367188 14.578125 10.484375 14.648438 10.558594 L 20.710938 16.621094 C 20.78125 16.699219 20.78125 16.8125 20.710938 16.890625 L 20.621094 16.976562 L 19.234375 18.363281 C 19.1875 18.417969 19.175781 18.496094 19.203125 18.5625 C 19.230469 18.628906 19.289062 18.675781 19.359375 18.683594 M 12.300781 18.683594 L 7.253906 18.683594 C 7.167969 18.660156 7.109375 18.578125 7.109375 18.488281 L 7.109375 13.457031 C 7.113281 13.386719 7.15625 13.324219 7.222656 13.296875 C 7.285156 13.269531 7.363281 13.285156 7.414062 13.332031 L 8.816406 14.71875 L 8.816406 14.808594 C 8.886719 14.875 8.996094 14.875 9.066406 14.808594 L 15.199219 8.730469 C 15.269531 8.660156 15.378906 8.660156 15.449219 8.730469 L 17.011719 10.292969 C 17.082031 10.367188 17.082031 10.484375 17.011719 10.558594 L 10.949219 16.621094 C 10.882812 16.699219 10.882812 16.8125 10.949219 16.890625 L 10.949219 16.976562 L 12.335938 18.363281 C 12.386719 18.40625 12.410156 18.46875 12.402344 18.535156 C 12.398438 18.597656 12.359375 18.652344 12.300781 18.683594 M 12.125 23.234375 L 15.679688 26.792969 C 15.75 26.859375 15.859375 26.859375 15.929688 26.792969 L 19.484375 23.234375 C 19.535156 23.183594 19.550781 23.109375 19.523438 23.042969 C 19.496094 22.976562 19.429688 22.933594 19.359375 22.933594 L 17.28125 22.933594 C 17.183594 22.925781 17.109375 22.851562 17.101562 22.753906 L 17.101562 14.222656 C 17.105469 14.171875 17.089844 14.121094 17.058594 14.085938 C 17.023438 14.046875 16.976562 14.027344 16.925781 14.027344 L 14.71875 14.027344 C 14.613281 14.027344 14.523438 14.113281 14.523438 14.222656 L 14.523438 22.753906 C 14.523438 22.855469 14.445312 22.933594 14.347656 22.933594 L 12.25 22.933594 C 12.179688 22.933594 12.113281 22.976562 12.085938 23.042969 C 12.058594 23.109375 12.074219 23.183594 12.125 23.234375 "/>
<path style=" stroke:none;fill-rule:nonzero;fill:rgb(0%,47.058824%,83.137256%);fill-opacity:1;" d="M 18.933594 13.832031 C 16.828125 15.347656 13.898438 14.925781 12.308594 12.875 C 10.71875 10.824219 11.035156 7.882812 13.03125 6.222656 C 15.144531 4.753906 18.042969 5.207031 19.605469 7.25 C 21.171875 9.296875 20.851562 12.210938 18.878906 13.867188 "/>
<path style=" stroke:none;fill-rule:nonzero;fill:url(#linear1);" d="M 13.386719 8.320312 C 12.53125 8.320312 11.839844 9.011719 11.839844 9.867188 C 11.839844 10.722656 12.53125 11.414062 13.386719 11.414062 C 14.242188 11.414062 14.933594 10.722656 14.933594 9.867188 C 14.933594 9.011719 14.242188 8.320312 13.386719 8.320312 "/>
<use xlink:href="#surface5" mask="url(#mask0)"/>
<path style=" stroke:none;fill-rule:nonzero;fill:url(#linear2);" d="M 16.640625 11.679688 C 16.089844 11.679688 15.644531 12.125 15.644531 12.675781 C 15.644531 13.226562 16.089844 13.671875 16.640625 13.671875 C 17.191406 13.671875 17.636719 13.226562 17.636719 12.675781 C 17.636719 12.125 17.191406 11.679688 16.640625 11.679688 "/>
<path style=" stroke:none;fill-rule:nonzero;fill:rgb(94.901961%,94.901961%,94.901961%);fill-opacity:1;" d="M 18.914062 9.136719 C 18.328125 9.136719 17.847656 9.617188 17.847656 10.203125 C 17.847656 10.792969 18.328125 11.269531 18.914062 11.269531 C 19.503906 11.269531 19.980469 10.792969 19.980469 10.203125 C 19.980469 9.617188 19.503906 9.136719 18.914062 9.136719 "/>
<use xlink:href="#surface8" mask="url(#mask1)"/>
<path style=" stroke:none;fill-rule:nonzero;fill:rgb(94.901961%,94.901961%,94.901961%);fill-opacity:1;" d="M 13.386719 8.320312 C 12.53125 8.320312 11.839844 9.011719 11.839844 9.867188 C 11.839844 10.722656 12.53125 11.414062 13.386719 11.414062 C 14.242188 11.414062 14.933594 10.722656 14.933594 9.867188 C 14.933594 9.011719 14.242188 8.320312 13.386719 8.320312 M 16.640625 11.679688 C 16.089844 11.679688 15.644531 12.125 15.644531 12.675781 C 15.644531 13.226562 16.089844 13.671875 16.640625 13.671875 C 17.191406 13.671875 17.636719 13.226562 17.636719 12.675781 C 17.636719 12.125 17.191406 11.679688 16.640625 11.679688 "/>
</g>
</svg>
