<?xml version="1.0" encoding="UTF-8"?>
<svg xmlns="http://www.w3.org/2000/svg" xmlns:xlink="http://www.w3.org/1999/xlink" width="32" height="32" viewBox="0 0 32 32" version="1.1">
<defs>
<linearGradient id="linear0" gradientUnits="userSpaceOnUse" x1="10.31" y1="12.7" x2="10.31" y2="6.83" gradientTransform="matrix(1.777778,0,0,1.777778,0,0)">
<stop offset="0" style="stop-color:rgb(0%,47.058824%,83.137256%);stop-opacity:1;"/>
<stop offset="0.82" style="stop-color:rgb(36.862746%,62.7451%,93.725491%);stop-opacity:1;"/>
</linearGradient>
<linearGradient id="linear1" gradientUnits="userSpaceOnUse" x1="10.31" y1="14.97" x2="10.31" y2="12.7" gradientTransform="matrix(1.777778,0,0,1.777778,0,0)">
<stop offset="0.15" style="stop-color:rgb(80.000001%,80.000001%,80.000001%);stop-opacity:1;"/>
<stop offset="1" style="stop-color:rgb(43.921569%,43.921569%,43.921569%);stop-opacity:1;"/>
</linearGradient>
</defs>
<g id="surface1">
<path style=" stroke:none;fill-rule:nonzero;fill:rgb(0%,47.058824%,83.137256%);fill-opacity:1;" d="M 3.769531 0.890625 L 7.269531 0.890625 L 7.269531 1.902344 L 3.769531 1.902344 Z M 29.5625 1.902344 L 30.132812 1.902344 L 30.132812 2.453125 L 31.109375 2.453125 L 31.109375 0.890625 L 29.5625 0.890625 Z M 2.507812 30.027344 L 2.007812 30.027344 L 2.007812 29.457031 L 0.890625 29.457031 L 0.890625 31.109375 L 2.507812 31.109375 Z M 30.132812 29.511719 L 30.132812 30.027344 L 29.5625 30.027344 L 29.5625 31.109375 L 31.109375 31.109375 L 31.109375 29.511719 Z M 2.007812 2.417969 L 2.007812 1.902344 L 2.507812 1.902344 L 2.507812 0.890625 L 0.890625 0.890625 L 0.890625 2.417969 Z M 2.007812 2.417969 "/>
<path style=" stroke:none;fill-rule:nonzero;fill:rgb(0%,47.058824%,83.137256%);fill-opacity:1;" d="M 6.507812 6.3125 L 21.101562 6.3125 C 21.386719 6.3125 21.617188 6.542969 21.617188 6.828125 L 21.617188 16.25 C 21.617188 16.535156 21.386719 16.765625 21.101562 16.765625 L 6.507812 16.765625 C 6.222656 16.765625 5.992188 16.535156 5.992188 16.25 L 5.992188 6.828125 C 5.992188 6.542969 6.222656 6.3125 6.507812 6.3125 Z M 6.507812 6.3125 "/>
<path style=" stroke:none;fill-rule:nonzero;fill:rgb(31.37255%,90.196079%,100%);fill-opacity:1;" d="M 16.410156 10.027344 L 16.410156 13.066406 L 13.8125 14.59375 L 13.8125 11.539062 Z M 16.410156 10.027344 "/>
<path style=" stroke:none;fill-rule:nonzero;fill:rgb(76.47059%,94.509804%,100%);fill-opacity:1;" d="M 16.410156 10.027344 L 13.8125 11.554688 L 11.199219 10.027344 L 13.8125 8.496094 Z M 16.410156 10.027344 "/>
<path style=" stroke:none;fill-rule:nonzero;fill:rgb(61.176473%,92.156863%,100%);fill-opacity:1;" d="M 13.8125 11.554688 L 13.8125 14.59375 L 11.199219 13.066406 L 11.199219 10.027344 Z M 13.8125 11.554688 "/>
<path style=" stroke:none;fill-rule:nonzero;fill:url(#linear0);" d="M 11.023438 12.140625 L 25.617188 12.140625 C 25.902344 12.140625 26.132812 12.371094 26.132812 12.65625 L 26.132812 22.078125 C 26.132812 22.363281 25.902344 22.59375 25.617188 22.59375 L 11.023438 22.59375 C 10.738281 22.59375 10.507812 22.363281 10.507812 22.078125 L 10.507812 12.65625 C 10.507812 12.371094 10.738281 12.140625 11.023438 12.140625 Z M 11.023438 12.140625 "/>
<path style=" stroke:none;fill-rule:nonzero;fill:rgb(31.37255%,90.196079%,100%);fill-opacity:1;" d="M 20.925781 15.839844 L 20.925781 18.878906 L 18.328125 20.410156 L 18.328125 17.367188 Z M 20.925781 15.839844 "/>
<path style=" stroke:none;fill-rule:nonzero;fill:rgb(76.47059%,94.509804%,100%);fill-opacity:1;" d="M 20.925781 15.839844 L 18.328125 17.367188 L 15.714844 15.839844 L 18.328125 14.3125 Z M 20.925781 15.839844 "/>
<path style=" stroke:none;fill-rule:nonzero;fill:rgb(61.176473%,92.156863%,100%);fill-opacity:1;" d="M 18.328125 17.367188 L 18.328125 20.410156 L 15.714844 18.878906 L 15.714844 15.839844 Z M 18.328125 17.367188 "/>
<path style=" stroke:none;fill-rule:nonzero;fill:rgb(76.47059%,94.509804%,100%);fill-opacity:1;" d="M 15.714844 18.878906 L 18.328125 17.367188 L 18.328125 20.410156 Z M 15.714844 18.878906 "/>
<path style=" stroke:none;fill-rule:nonzero;fill:rgb(61.176473%,92.156863%,100%);fill-opacity:1;" d="M 20.925781 18.878906 L 18.328125 17.367188 L 18.328125 20.410156 Z M 20.925781 18.878906 "/>
<path style=" stroke:none;fill-rule:nonzero;fill:url(#linear1);" d="M 21.457031 25.742188 C 19.910156 25.492188 19.859375 24.375 19.859375 22.578125 L 16.78125 22.578125 C 16.78125 24.355469 16.78125 25.492188 15.183594 25.742188 C 14.75 25.8125 14.429688 26.175781 14.417969 26.613281 L 22.238281 26.613281 C 22.226562 26.171875 21.894531 25.804688 21.457031 25.742188 "/>
<path style=" stroke:none;fill-rule:nonzero;fill:rgb(0%,47.058824%,83.137256%);fill-opacity:1;" d="M 9.011719 0.890625 L 12.515625 0.890625 L 12.515625 1.902344 L 9.011719 1.902344 Z M 14.238281 0.890625 L 17.742188 0.890625 L 17.742188 1.902344 L 14.238281 1.902344 Z M 19.484375 0.890625 L 22.988281 0.890625 L 22.988281 1.902344 L 19.484375 1.902344 Z M 24.730469 0.890625 L 28.230469 0.890625 L 28.230469 1.902344 L 24.730469 1.902344 Z M 3.804688 30.027344 L 7.308594 30.027344 L 7.308594 31.039062 L 3.804688 31.039062 Z M 9.03125 30.027344 L 12.535156 30.027344 L 12.535156 31.039062 L 9.03125 31.039062 Z M 14.277344 30.027344 L 17.777344 30.027344 L 17.777344 31.039062 L 14.277344 31.039062 Z M 19.519531 30.027344 L 23.023438 30.027344 L 23.023438 31.039062 L 19.519531 31.039062 Z M 24.746094 30.027344 L 28.25 30.027344 L 28.25 31.039062 L 24.746094 31.039062 Z M 30.097656 3.644531 L 31.109375 3.644531 L 31.109375 7.148438 L 30.097656 7.148438 Z M 30.097656 8.871094 L 31.109375 8.871094 L 31.109375 12.375 L 30.097656 12.375 Z M 30.097656 14.117188 L 31.109375 14.117188 L 31.109375 17.617188 L 30.097656 17.617188 Z M 30.097656 19.34375 L 31.109375 19.34375 L 31.109375 22.84375 L 30.097656 22.84375 Z M 30.097656 24.585938 L 31.109375 24.585938 L 31.109375 28.089844 L 30.097656 28.089844 Z M 0.890625 3.609375 L 1.902344 3.609375 L 1.902344 7.109375 L 0.890625 7.109375 Z M 0.890625 8.851562 L 1.902344 8.851562 L 1.902344 12.355469 L 0.890625 12.355469 Z M 0.890625 14.078125 L 1.902344 14.078125 L 1.902344 17.582031 L 0.890625 17.582031 Z M 0.890625 19.324219 L 1.902344 19.324219 L 1.902344 22.828125 L 0.890625 22.828125 Z M 0.890625 24.550781 L 1.902344 24.550781 L 1.902344 28.054688 L 0.890625 28.054688 Z M 0.890625 24.550781 "/>
</g>
</svg>
