<?xml version="1.0" encoding="UTF-8"?>
<svg xmlns="http://www.w3.org/2000/svg" xmlns:xlink="http://www.w3.org/1999/xlink" width="32.108966" height="32" viewBox="0 0 32.108966 32" version="1.1">
<defs>
<radialGradient id="radial0" gradientUnits="userSpaceOnUse" cx="13428.80957" cy="3518.860107" fx="13428.80957" fy="3518.860107" r="56.669998" gradientTransform="matrix(0.272418,0,0,0.272418,-3642.097363,-942.547092)">
<stop offset="0.18" style="stop-color:rgb(36.862746%,62.7451%,93.725491%);stop-opacity:1;"/>
<stop offset="1" style="stop-color:rgb(0%,47.058824%,83.137256%);stop-opacity:1;"/>
</radialGradient>
<filter id="alpha" filterUnits="objectBoundingBox" x="0%" y="0%" width="100%" height="100%">
  <feColorMatrix type="matrix" in="SourceGraphic" values="0 0 0 0 1 0 0 0 0 1 0 0 0 0 1 0 0 0 1 0"/>
</filter>
<mask id="mask0">
  <g filter="url(#alpha)">
<rect x="0" y="0" width="32.108966" height="32" style="fill:rgb(0%,0%,0%);fill-opacity:0.6;stroke:none;"/>
  </g>
</mask>
<clipPath id="clip1">
  <rect x="0" y="0" width="33" height="32"/>
</clipPath>
<g id="surface5" clip-path="url(#clip1)">
<path style=" stroke:none;fill-rule:nonzero;fill:rgb(100%,100%,100%);fill-opacity:1;" d="M 11.96875 12.839844 C 16.335938 8.6875 22.125 6.359375 28.148438 6.339844 C 27.359375 5.359375 26.449219 4.480469 25.445312 3.722656 C 22.511719 3.902344 19.632812 4.578125 16.925781 5.722656 C 14.140625 6.917969 11.621094 8.660156 9.515625 10.84375 C 10.527344 11.226562 11.386719 11.925781 11.96875 12.839844 Z M 4.324219 19.050781 C 3.699219 20.597656 3.195312 22.1875 2.816406 23.808594 C 3.148438 24.390625 3.527344 24.949219 3.941406 25.480469 C 4.269531 25.898438 4.578125 26.277344 4.941406 26.660156 C 5.378906 24.5 6.035156 22.386719 6.902344 20.359375 C 5.933594 20.1875 5.035156 19.730469 4.324219 19.050781 Z M 4.324219 19.050781 "/>
</g>
<mask id="mask1">
  <g filter="url(#alpha)">
<rect x="0" y="0" width="32.108966" height="32" style="fill:rgb(0%,0%,0%);fill-opacity:0.55;stroke:none;"/>
  </g>
</mask>
<clipPath id="clip2">
  <rect x="0" y="0" width="33" height="32"/>
</clipPath>
<g id="surface8" clip-path="url(#clip2)">
<path style=" stroke:none;fill-rule:nonzero;fill:rgb(94.901961%,94.901961%,94.901961%);fill-opacity:1;" d="M 6.101562 10.804688 C 5.460938 9.085938 5.039062 7.292969 4.847656 5.464844 C 4.085938 6.265625 3.417969 7.148438 2.851562 8.101562 C 3.054688 9.570312 3.402344 11.019531 3.886719 12.421875 C 4.457031 11.683594 5.222656 11.121094 6.101562 10.804688 Z M 6.101562 10.804688 "/>
</g>
<linearGradient id="linear0" gradientUnits="userSpaceOnUse" x1="4.4" y1="11.48" x2="4.37" y2="7.53" gradientTransform="matrix(1.816118,0,0,1.816118,-0.181612,-0.290579)">
<stop offset="0" style="stop-color:rgb(80.000001%,80.000001%,80.000001%);stop-opacity:1;"/>
<stop offset="1" style="stop-color:rgb(98.823529%,98.823529%,98.823529%);stop-opacity:1;"/>
</linearGradient>
<mask id="mask2">
  <g filter="url(#alpha)">
<rect x="0" y="0" width="32.108966" height="32" style="fill:rgb(0%,0%,0%);fill-opacity:0.55;stroke:none;"/>
  </g>
</mask>
<clipPath id="clip3">
  <rect x="0" y="0" width="33" height="32"/>
</clipPath>
<g id="surface11" clip-path="url(#clip3)">
<path style=" stroke:none;fill-rule:nonzero;fill:rgb(94.901961%,94.901961%,94.901961%);fill-opacity:1;" d="M 15 24.535156 C 15.003906 23.664062 15.355469 22.832031 15.980469 22.230469 C 14.308594 21.3125 12.761719 20.175781 11.386719 18.851562 C 10.667969 19.628906 9.71875 20.15625 8.679688 20.359375 C 9.5 21.199219 10.378906 21.972656 11.3125 22.683594 C 12.476562 23.5625 13.722656 24.320312 15.039062 24.953125 C 15.015625 24.816406 15.003906 24.675781 15 24.535156 Z M 26.441406 24.917969 C 24.753906 24.917969 23.074219 24.722656 21.429688 24.335938 C 21.4375 24.402344 21.4375 24.46875 21.429688 24.535156 C 21.433594 25.378906 21.097656 26.191406 20.503906 26.789062 C 22.546875 27.191406 24.632812 27.339844 26.714844 27.222656 C 27.523438 26.492188 28.246094 25.675781 28.875 24.789062 C 28.066406 24.878906 27.253906 24.921875 26.441406 24.917969 Z M 26.441406 24.917969 "/>
</g>
<linearGradient id="linear1" gradientUnits="userSpaceOnUse" x1="10.13" y1="15.45" x2="10.13" y2="11.9" gradientTransform="matrix(1.816118,0,0,1.816118,-0.181612,-0.290579)">
<stop offset="0" style="stop-color:rgb(80.000001%,80.000001%,80.000001%);stop-opacity:1;"/>
<stop offset="1" style="stop-color:rgb(98.823529%,98.823529%,98.823529%);stop-opacity:1;"/>
</linearGradient>
<mask id="mask3">
  <g filter="url(#alpha)">
<rect x="0" y="0" width="32.108966" height="32" style="fill:rgb(0%,0%,0%);fill-opacity:0.7;stroke:none;"/>
  </g>
</mask>
<clipPath id="clip4">
  <rect x="0" y="0" width="33" height="32"/>
</clipPath>
<g id="surface14" clip-path="url(#clip4)">
<path style=" stroke:none;fill-rule:nonzero;fill:rgb(94.901961%,94.901961%,94.901961%);fill-opacity:1;" d="M 22.191406 15.925781 C 22.351562 15.21875 22.742188 14.578125 23.300781 14.109375 C 20.308594 11.9375 17.589844 9.414062 15.199219 6.59375 C 13.808594 4.957031 12.589844 3.179688 11.570312 1.289062 C 10.890625 1.492188 10.230469 1.746094 9.589844 2.050781 C 10.683594 4.109375 11.992188 6.046875 13.492188 7.828125 C 16.046875 10.878906 18.96875 13.597656 22.191406 15.925781 Z M 22.191406 15.925781 "/>
</g>
<linearGradient id="linear2" gradientUnits="userSpaceOnUse" x1="14.18" y1="11.15" x2="14.18" y2="7.38" gradientTransform="matrix(1.816118,0,0,1.816118,-0.181612,-0.290579)">
<stop offset="0" style="stop-color:rgb(80.000001%,80.000001%,80.000001%);stop-opacity:1;"/>
<stop offset="1" style="stop-color:rgb(98.823529%,98.823529%,98.823529%);stop-opacity:1;"/>
</linearGradient>
<mask id="mask4">
  <g filter="url(#alpha)">
<rect x="0" y="0" width="32.108966" height="32" style="fill:rgb(0%,0%,0%);fill-opacity:0.55;stroke:none;"/>
  </g>
</mask>
<clipPath id="clip5">
  <rect x="0" y="0" width="33" height="32"/>
</clipPath>
<g id="surface17" clip-path="url(#clip5)">
<path style=" stroke:none;fill-rule:nonzero;fill:rgb(94.901961%,94.901961%,94.901961%);fill-opacity:1;" d="M 31.328125 18.851562 L 30.691406 18.542969 L 30.148438 18.253906 L 30.039062 18.253906 L 29.566406 17.871094 L 29.4375 17.871094 L 28.875 17.507812 C 28.679688 18.175781 28.273438 18.761719 27.714844 19.179688 C 27.933594 19.324219 28.167969 19.449219 28.402344 19.578125 L 28.550781 19.667969 L 29.183594 20.011719 L 30.746094 20.832031 C 30.96875 20.171875 31.144531 19.496094 31.273438 18.816406 Z M 31.328125 18.851562 "/>
</g>
<linearGradient id="linear3" gradientUnits="userSpaceOnUse" x1="4.4" y1="11.48" x2="4.37" y2="7.53" gradientTransform="matrix(1.816118,0,0,1.816118,-0.181612,-0.290579)">
<stop offset="0" style="stop-color:rgb(80.000001%,80.000001%,80.000001%);stop-opacity:1;"/>
<stop offset="1" style="stop-color:rgb(98.823529%,98.823529%,98.823529%);stop-opacity:1;"/>
</linearGradient>
<linearGradient id="linear4" gradientUnits="userSpaceOnUse" x1="10.13" y1="15.45" x2="10.13" y2="11.9" gradientTransform="matrix(1.816118,0,0,1.816118,-0.181612,-0.290579)">
<stop offset="0" style="stop-color:rgb(80.000001%,80.000001%,80.000001%);stop-opacity:1;"/>
<stop offset="1" style="stop-color:rgb(98.823529%,98.823529%,98.823529%);stop-opacity:1;"/>
</linearGradient>
</defs>
<g id="surface1">
<path style=" stroke:none;fill-rule:nonzero;fill:url(#radial0);" d="M 25.625 28.257812 C 18.886719 33.484375 9.183594 32.257812 3.960938 25.515625 C -1.265625 18.777344 -0.0390625 9.074219 6.703125 3.851562 L 6.863281 3.742188 C 13.640625 -1.316406 23.222656 0.015625 28.359375 6.730469 C 33.496094 13.445312 32.277344 23.042969 25.625 28.257812 "/>
<use xlink:href="#surface5" mask="url(#mask0)"/>
<use xlink:href="#surface8" mask="url(#mask1)"/>
<path style=" stroke:none;fill-rule:nonzero;fill:url(#linear0);" d="M 12.730469 15.472656 C 12.730469 18.210938 10.511719 20.429688 7.773438 20.429688 C 5.035156 20.429688 2.816406 18.210938 2.816406 15.472656 C 2.816406 12.734375 5.035156 10.515625 7.773438 10.515625 C 10.511719 10.515625 12.730469 12.734375 12.730469 15.472656 Z M 12.730469 15.472656 "/>
<use xlink:href="#surface11" mask="url(#mask2)"/>
<path style=" stroke:none;fill-rule:nonzero;fill:url(#linear1);" d="M 21.449219 24.535156 C 21.449219 26.320312 20 27.769531 18.214844 27.769531 C 16.429688 27.769531 14.984375 26.320312 14.984375 24.535156 C 14.984375 22.75 16.429688 21.304688 18.214844 21.304688 C 20 21.304688 21.449219 22.75 21.449219 24.535156 Z M 21.449219 24.535156 "/>
<use xlink:href="#surface14" mask="url(#mask3)"/>
<path style=" stroke:none;fill-rule:nonzero;fill:url(#linear2);" d="M 29.003906 16.542969 C 29.003906 18.441406 27.464844 19.976562 25.570312 19.976562 C 23.675781 19.976562 22.136719 18.441406 22.136719 16.542969 C 22.136719 14.648438 23.675781 13.113281 25.570312 13.113281 C 27.464844 13.113281 29.003906 14.648438 29.003906 16.542969 Z M 29.003906 16.542969 "/>
<use xlink:href="#surface17" mask="url(#mask4)"/>
<path style=" stroke:none;fill-rule:nonzero;fill:url(#linear3);" d="M 12.730469 15.472656 C 12.730469 18.210938 10.511719 20.429688 7.773438 20.429688 C 5.035156 20.429688 2.816406 18.210938 2.816406 15.472656 C 2.816406 12.734375 5.035156 10.515625 7.773438 10.515625 C 10.511719 10.515625 12.730469 12.734375 12.730469 15.472656 Z M 12.730469 15.472656 "/>
<path style=" stroke:none;fill-rule:nonzero;fill:url(#linear4);" d="M 21.449219 24.535156 C 21.449219 26.320312 20 27.769531 18.214844 27.769531 C 16.429688 27.769531 14.984375 26.320312 14.984375 24.535156 C 14.984375 22.75 16.429688 21.304688 18.214844 21.304688 C 20 21.304688 21.449219 22.75 21.449219 24.535156 Z M 21.449219 24.535156 "/>
</g>
</svg>
