<svg role="img" viewBox="0 0 18 18" xmlns="http://www.w3.org/2000/svg" xmlns:xlink="http://www.w3.org/1999/xlink"><defs><linearGradient gradientUnits="userSpaceOnUse" id="a" x1="9" x2="9" y1="15.83" y2="5.79"><stop offset="0" stop-color="#32bedd"/><stop offset=".18" stop-color="#32caea"/><stop offset=".41" stop-color="#32d2f2"/><stop offset=".78" stop-color="#32d4f5"/></linearGradient></defs><title>Icon-networking-69</title><path d="M.5 5.79h17v9.48a.57.57 0 0 1-.57.57H1.07a.57.57 0 0 1-.57-.57z" fill="url(#a)"/><path d="M1.07 2.17h15.86a.57.57 0 0 1 .57.57v3.05H.5V2.73a.57.57 0 0 1 .57-.56" fill="#767676"/><path d="M12.82 8.81a1.38 1.38 0 1 0 0 2.76 1.38 1.38 0 1 0 0-2.76m-3.76 0a1.38 1.38 0 1 0 0 2.76 1.38 1.38 0 1 0 0-2.76m-3.88 0a1.38 1.38 0 1 0 0 2.76 1.38 1.38 0 1 0 0-2.76" fill="#f2f2f2"/><rect fill="#f2f2f2" height="1.46" rx=".28" width="12.43" x="2.79" y="3.25"/></svg>