<svg role="img" viewBox="0 0 35.458 32" xmlns="http://www.w3.org/2000/svg" xmlns:xlink="http://www.w3.org/1999/xlink"><defs><linearGradient gradientTransform="translate(.684 -2.28)scale(1.90024)" gradientUnits="userSpaceOnUse" id="a" x1="8.637" x2="8.637" y1="-1.991" y2="16.739"><stop offset="0" style="stop-color:rgb(36.862746%,62.7451%,93.725491%);stop-opacity:1"/><stop offset="1" style="stop-color:rgb(0%,47.058824%,83.137256%);stop-opacity:1"/></linearGradient><linearGradient gradientTransform="matrix(1.90024 0 0 -1.90024 .684 35.724)" gradientUnits="userSpaceOnUse" id="b" x1="12.96" x2="12.96" y1="8.561" y2="6.141"><stop offset="0" style="stop-color:rgb(20%,19.215687%,19.607843%);stop-opacity:1"/><stop offset="1" style="stop-color:rgb(35.686275%,35.294119%,36.078432%);stop-opacity:1"/></linearGradient></defs><path d="m14.805 13.262 4.918-2.992 13.785 5.19a6.967 6.967 0 0 0-1.985-3.507l-.015-.094a7.969 7.969 0 0 0-4.219-2.129C27.07 4.59 22.734.594 17.598.797a9.64 9.64 0 0 0-9.2 6.254 8.78 8.78 0 0 0-7.714 8.511c.195 4.942 4.347 8.797 9.293 8.63h4.828Zm0 0" style="stroke:none;fill-rule:nonzero;fill:url(#a)"/><path d="m19.82 11.324.02 8.133 15.031 3.191v-5.664Zm0 0" style="stroke:none;fill-rule:nonzero;fill:rgb(46.27451%,46.27451%,46.27451%);fill-opacity:1"/><path d="m19.82 11.324-4.066 2.469v7.562l4.086-1.898" style="stroke:none;fill-rule:nonzero;fill:rgb(60.000002%,60.000002%,60.000002%);fill-opacity:1"/><path d="m26.68 19.57 1.367.38v-4.427l-1.367-.476Zm-1.367-4.96-1.372-.493v4.73l1.372.38Zm4.101 5.703 1.332.359.04-4.219L29.413 16Zm-8.187-2.168 1.367.343V13.68l-1.367-.457Zm12.273-.758-1.367-.477v4.125l1.367.38Zm0 0" style="stroke:none;fill-rule:nonzero;fill:rgb(63.921571%,63.921571%,63.921571%);fill-opacity:1"/><path d="m17.14 19.324-.683.399v-5.38l.684-.359Zm1.348-6.12-.703.456v5.227l.703-.38Zm0 0" style="stroke:none;fill-rule:nonzero;fill:rgb(70.19608%,70.19608%,70.19608%);fill-opacity:1"/><path d="m34.871 22.648-4.105 1.407-15.012-2.7 4.086-1.898Zm0 0" style="stroke:none;fill-rule:nonzero;fill:url(#b)"/><path d="m34.871 28.445-15.11 2.867.079-10.62 15.031 2.792Zm0 0" style="stroke:none;fill-rule:nonzero;fill:rgb(46.27451%,46.27451%,46.27451%);fill-opacity:1"/><path d="M21.227 29.566V22.82l1.367.172v6.344Zm4.085-.683-1.37.246V23.16l1.37.211Zm1.368-.211v-5.168l1.367.172v4.75Zm4.086-.723-1.352.25v-4.351l1.352.207Zm2.773-.437-1.406.25v-3.575l1.312.172Zm0 0" style="stroke:none;fill-rule:nonzero;fill:rgb(63.921571%,63.921571%,63.921571%);fill-opacity:1"/><path d="M15.754 28.883v-6.195l4.105-1.899v10.64Zm0 0" style="stroke:none;fill-rule:nonzero;fill:rgb(60.000002%,60.000002%,60.000002%);fill-opacity:1"/><path d="m17.047 28.863-.61-.304v-5.247l.61-.285Zm1.46-6.554-.722.359v6.613l.703.36v-7.332Zm0 0" style="stroke:none;fill-rule:nonzero;fill:rgb(70.19608%,70.19608%,70.19608%);fill-opacity:1"/></svg>