<?xml version="1.0" encoding="UTF-8"?>
<svg xmlns="http://www.w3.org/2000/svg" xmlns:xlink="http://www.w3.org/1999/xlink" width="32" height="32" viewBox="0 0 32 32" version="1.1">
<defs>
<linearGradient id="linear0" gradientUnits="userSpaceOnUse" x1="9.01" y1="11.69" x2="9.01" y2="2.48" gradientTransform="matrix(1.777778,0,0,1.777778,0,0)">
<stop offset="0" style="stop-color:rgb(0%,47.058824%,83.137256%);stop-opacity:1;"/>
<stop offset="0.54" style="stop-color:rgb(20.784314%,55.686277%,89.019608%);stop-opacity:1;"/>
<stop offset="1" style="stop-color:rgb(36.862746%,62.7451%,93.725491%);stop-opacity:1;"/>
</linearGradient>
</defs>
<g id="surface1">
<path style=" stroke:none;fill-rule:nonzero;fill:rgb(46.27451%,73.725492%,17.647059%);fill-opacity:1;" d="M 16.019531 15.34375 C 10.058594 15.34375 5.226562 17.324219 5.226562 19.769531 C 5.226562 22.214844 10.058594 24.195312 16.019531 24.195312 C 21.976562 24.195312 26.808594 22.214844 26.808594 19.769531 C 26.808594 17.324219 21.976562 15.34375 16.019531 15.34375 "/>
<path style=" stroke:none;fill-rule:nonzero;fill:rgb(36.862746%,58.823532%,14.117648%);fill-opacity:1;" d="M 16.285156 18.753906 C 14.300781 18.753906 12.691406 19.191406 12.691406 19.734375 C 12.691406 20.273438 14.300781 20.710938 16.285156 20.710938 C 18.269531 20.710938 19.875 20.273438 19.875 19.734375 C 19.875 19.191406 18.269531 18.753906 16.285156 18.753906 "/>
<path style=" stroke:none;fill-rule:nonzero;fill:url(#linear0);" d="M 16.019531 5.511719 C 10.058594 5.511719 5.226562 7.492188 5.226562 9.9375 C 5.226562 12.382812 10.058594 14.363281 16.019531 14.363281 C 21.976562 14.363281 26.808594 12.382812 26.808594 9.9375 C 26.808594 7.492188 21.976562 5.511719 16.019531 5.511719 "/>
<path style=" stroke:none;fill-rule:nonzero;fill:rgb(0%,35.686275%,63.137257%);fill-opacity:1;" d="M 16.285156 8.90625 C 14.300781 8.90625 12.691406 9.34375 12.691406 9.882812 C 12.691406 10.425781 14.300781 10.863281 16.285156 10.863281 C 18.269531 10.863281 19.875 10.425781 19.875 9.882812 C 19.875 9.34375 18.269531 8.90625 16.285156 8.90625 "/>
<path style=" stroke:none;fill-rule:nonzero;fill:rgb(58.039218%,58.039218%,58.039218%);fill-opacity:1;" d="M 6.914062 0.214844 L 1.582031 0.214844 C 1.300781 0.203125 1.023438 0.308594 0.824219 0.507812 C 0.621094 0.707031 0.511719 0.980469 0.515625 1.261719 L 0.515625 6.59375 C 0.515625 6.878906 0.746094 7.109375 1.03125 7.109375 L 1.617188 7.109375 C 1.757812 7.117188 1.894531 7.0625 1.992188 6.964844 C 2.09375 6.871094 2.152344 6.734375 2.152344 6.59375 L 2.152344 1.777344 L 6.914062 1.777344 C 7.054688 1.78125 7.191406 1.730469 7.292969 1.632812 C 7.390625 1.535156 7.449219 1.402344 7.449219 1.261719 L 7.449219 0.746094 C 7.453125 0.605469 7.398438 0.464844 7.296875 0.363281 C 7.195312 0.261719 7.058594 0.207031 6.914062 0.214844 M 30.222656 0.214844 L 24.890625 0.214844 C 24.59375 0.214844 24.355469 0.453125 24.355469 0.746094 L 24.355469 1.316406 C 24.390625 1.582031 24.621094 1.78125 24.890625 1.777344 L 29.671875 1.777344 L 29.671875 6.578125 C 29.664062 6.722656 29.722656 6.867188 29.828125 6.96875 C 29.933594 7.070312 30.078125 7.121094 30.222656 7.109375 L 30.808594 7.109375 C 30.949219 7.117188 31.085938 7.0625 31.183594 6.964844 C 31.285156 6.871094 31.34375 6.734375 31.34375 6.59375 L 31.34375 1.261719 C 31.34375 0.972656 31.222656 0.691406 31.011719 0.496094 C 30.796875 0.296875 30.511719 0.195312 30.222656 0.214844 M 6.914062 30.59375 L 2.152344 30.59375 L 2.152344 25.796875 C 2.152344 25.65625 2.09375 25.523438 1.992188 25.425781 C 1.894531 25.328125 1.757812 25.273438 1.617188 25.28125 L 1.03125 25.28125 C 0.746094 25.28125 0.515625 25.511719 0.515625 25.796875 L 0.515625 31.128906 C 0.511719 31.40625 0.617188 31.671875 0.8125 31.871094 C 1.003906 32.066406 1.269531 32.179688 1.546875 32.179688 L 6.878906 32.179688 C 7.019531 32.183594 7.15625 32.128906 7.257812 32.035156 C 7.355469 31.9375 7.414062 31.800781 7.414062 31.664062 L 7.414062 31.09375 C 7.394531 30.824219 7.183594 30.613281 6.914062 30.59375 M 30.738281 25.28125 L 30.222656 25.28125 C 29.9375 25.28125 29.707031 25.511719 29.707031 25.796875 L 29.707031 30.59375 L 24.890625 30.59375 C 24.597656 30.605469 24.363281 30.839844 24.355469 31.128906 L 24.355469 31.699219 C 24.363281 31.984375 24.601562 32.214844 24.890625 32.214844 L 30.222656 32.214844 C 30.800781 32.214844 31.269531 31.742188 31.269531 31.164062 L 31.269531 25.832031 C 31.28125 25.683594 31.230469 25.542969 31.128906 25.4375 C 31.027344 25.332031 30.882812 25.273438 30.738281 25.28125 "/>
<path style=" stroke:none;fill-rule:nonzero;fill:rgb(36.862746%,58.823532%,14.117648%);fill-opacity:1;" d="M 16 24.105469 C 21.957031 24.105469 26.792969 22.132812 26.792969 19.679688 L 26.792969 22.292969 C 26.667969 24.675781 21.847656 26.667969 16 26.667969 C 10.152344 26.667969 5.207031 24.675781 5.207031 22.238281 L 5.207031 19.679688 C 5.226562 22.132812 10.0625 24.105469 16 24.105469 "/>
<path style=" stroke:none;fill-rule:nonzero;fill:rgb(0%,47.058824%,83.137256%);fill-opacity:1;" d="M 16 14.222656 C 21.957031 14.222656 26.792969 12.230469 26.792969 9.796875 L 26.792969 12.445312 C 26.667969 14.84375 21.847656 16.746094 16 16.746094 C 10.152344 16.746094 5.226562 14.753906 5.226562 12.300781 L 5.226562 9.847656 C 5.226562 12.285156 10.0625 14.222656 16 14.222656 "/>
</g>
</svg>
