<svg xmlns:xlink="http://www.w3.org/1999/xlink" role="img" viewBox="0 0 32.109 32" xmlns="http://www.w3.org/2000/svg"><defs><linearGradient gradientTransform="translate(-.182 -.29)scale(1.81612)" gradientUnits="userSpaceOnUse" id="o" x1="4.4" x2="4.37" y1="11.48" y2="7.53"><stop offset="0" style="stop-color:rgb(80.000001%,80.000001%,80.000001%);stop-opacity:1"/><stop offset="1" style="stop-color:rgb(98.823529%,98.823529%,98.823529%);stop-opacity:1"/></linearGradient><linearGradient gradientTransform="translate(-.182 -.29)scale(1.81612)" gradientUnits="userSpaceOnUse" id="s" x1="10.13" x2="10.13" y1="15.45" y2="11.9"><stop offset="0" style="stop-color:rgb(80.000001%,80.000001%,80.000001%);stop-opacity:1"/><stop offset="1" style="stop-color:rgb(98.823529%,98.823529%,98.823529%);stop-opacity:1"/></linearGradient><linearGradient gradientTransform="translate(-.182 -.29)scale(1.81612)" gradientUnits="userSpaceOnUse" id="v" x1="14.18" x2="14.18" y1="11.15" y2="7.38"><stop offset="0" style="stop-color:rgb(80.000001%,80.000001%,80.000001%);stop-opacity:1"/><stop offset="1" style="stop-color:rgb(98.823529%,98.823529%,98.823529%);stop-opacity:1"/></linearGradient><linearGradient gradientTransform="translate(-.182 -.29)scale(1.81612)" gradientUnits="userSpaceOnUse" id="y" x1="4.4" x2="4.37" y1="11.48" y2="7.53"><stop offset="0" style="stop-color:rgb(80.000001%,80.000001%,80.000001%);stop-opacity:1"/><stop offset="1" style="stop-color:rgb(98.823529%,98.823529%,98.823529%);stop-opacity:1"/></linearGradient><linearGradient gradientTransform="translate(-.182 -.29)scale(1.81612)" gradientUnits="userSpaceOnUse" id="z" x1="10.13" x2="10.13" y1="15.45" y2="11.9"><stop offset="0" style="stop-color:rgb(80.000001%,80.000001%,80.000001%);stop-opacity:1"/><stop offset="1" style="stop-color:rgb(98.823529%,98.823529%,98.823529%);stop-opacity:1"/></linearGradient><clipPath id="d"><use xlink:href="#a"/></clipPath><clipPath id="e"><use xlink:href="#a"/></clipPath><clipPath id="f"><use xlink:href="#a"/></clipPath><clipPath id="g"><use xlink:href="#a"/></clipPath><clipPath id="h"><use xlink:href="#a"/></clipPath><mask id="k"><g filter="url(#b)"><use xlink:href="#c" style="fill:rgb(0%,0%,0%);fill-opacity:0.6;stroke:none"/></g></mask><mask id="m"><g filter="url(#b)"><use xlink:href="#c" style="fill:rgb(0%,0%,0%);fill-opacity:0.55;stroke:none"/></g></mask><mask id="q"><g filter="url(#b)"><use xlink:href="#c" style="fill:rgb(0%,0%,0%);fill-opacity:0.55;stroke:none"/></g></mask><mask id="u"><g filter="url(#b)"><use xlink:href="#c" style="fill:rgb(0%,0%,0%);fill-opacity:0.7;stroke:none"/></g></mask><mask id="x"><g filter="url(#b)"><use xlink:href="#c" style="fill:rgb(0%,0%,0%);fill-opacity:0.55;stroke:none"/></g></mask><g clip-path="url(#d)" id="j"><path d="M11.969 12.84a23.597 23.597 0 0 1 16.18-6.5c-.79-.98-1.7-1.86-2.704-2.617a25.95 25.95 0 0 0-8.52 2 22.773 22.773 0 0 0-7.41 5.12 5.008 5.008 0 0 1 2.454 1.997m-7.645 6.21a32.355 32.355 0 0 0-1.508 4.759c.332.582.711 1.14 1.125 1.671.329.418.637.797 1 1.18a32.358 32.358 0 0 1 1.961-6.3 5 5 0 0 1-2.578-1.31m0 0" style="stroke:none;fill-rule:nonzero;fill:rgb(100%,100%,100%);fill-opacity:1"/></g><g clip-path="url(#e)" id="l"><path d="M6.102 10.805a21.779 21.779 0 0 1-1.254-5.34c-.762.8-1.43 1.683-1.996 2.637a22.82 22.82 0 0 0 1.035 4.32 4.894 4.894 0 0 1 2.215-1.617m0 0" style="stroke:none;fill-rule:nonzero;fill:rgb(94.901961%,94.901961%,94.901961%);fill-opacity:1"/></g><g clip-path="url(#f)" id="p"><path d="M15 24.535a3.215 3.215 0 0 1 .98-2.305 21.638 21.638 0 0 1-4.593-3.378 4.99 4.99 0 0 1-2.707 1.507c.82.84 1.699 1.614 2.633 2.325a21.98 21.98 0 0 0 3.726 2.27 2.969 2.969 0 0 1-.039-.419m11.441.383c-1.687 0-3.367-.195-5.011-.582a.85.85 0 0 1 0 .2 3.183 3.183 0 0 1-.926 2.253c2.043.402 4.129.55 6.21.434a14.868 14.868 0 0 0 2.161-2.434c-.809.09-1.621.133-2.434.129m0 0" style="stroke:none;fill-rule:nonzero;fill:rgb(94.901961%,94.901961%,94.901961%);fill-opacity:1"/></g><g clip-path="url(#g)" id="t"><path d="M22.191 15.926a3.34 3.34 0 0 1 1.11-1.817 46.188 46.188 0 0 1-8.102-7.515 30.708 30.708 0 0 1-3.629-5.305c-.68.203-1.34.457-1.98.762a33.03 33.03 0 0 0 3.902 5.777 48.03 48.03 0 0 0 8.7 8.098m0 0" style="stroke:none;fill-rule:nonzero;fill:rgb(94.901961%,94.901961%,94.901961%);fill-opacity:1"/></g><g clip-path="url(#h)" id="w"><path d="m31.328 18.852-.637-.309-.543-.29h-.109l-.473-.382h-.128l-.563-.363a3.213 3.213 0 0 1-1.16 1.672c.219.144.453.27.687.398l.149.09.633.344 1.562.82c.223-.66.399-1.336.527-2.016Zm0 0" style="stroke:none;fill-rule:nonzero;fill:rgb(94.901961%,94.901961%,94.901961%);fill-opacity:1"/></g><path d="M0 0h33v32H0z" id="a"/><path d="M0 0h32.109v32H0z" id="c"/><path d="M12.73 15.473a4.956 4.956 0 0 1-4.957 4.957 4.956 4.956 0 0 1-4.957-4.957 4.956 4.956 0 0 1 4.957-4.957 4.956 4.956 0 0 1 4.957 4.957m0 0" id="n"/><path d="M21.45 24.535a3.233 3.233 0 1 1-6.465.004 3.233 3.233 0 0 1 6.464-.004m0 0" id="r"/><radialGradient cx="13428.81" cy="3518.86" fx="13428.81" fy="3518.86" gradientTransform="translate(-3642.097 -942.547)scale(.27242)" gradientUnits="userSpaceOnUse" id="i" r="56.67"><stop offset=".18" style="stop-color:rgb(36.862746%,62.7451%,93.725491%);stop-opacity:1"/><stop offset="1" style="stop-color:rgb(0%,47.058824%,83.137256%);stop-opacity:1"/></radialGradient><filter filterUnits="objectBoundingBox" height="100%" id="b" width="100%" x="0%" y="0%"><feColorMatrix in="SourceGraphic" values="0 0 0 0 1 0 0 0 0 1 0 0 0 0 1 0 0 0 1 0"/></filter></defs><path d="M25.625 28.258c-6.738 5.226-16.441 4-21.664-2.742-5.227-6.739-4-16.442 2.742-21.664l.16-.11C13.641-1.316 23.223.016 28.36 6.73c5.137 6.715 3.918 16.313-2.734 21.528" style="stroke:none;fill-rule:nonzero;fill:url(#i)"/><use xlink:href="#j" mask="url(#k)"/><use xlink:href="#l" mask="url(#m)"/><use xlink:href="#n" style="stroke:none;fill-rule:nonzero;fill:url(#o)"/><use xlink:href="#p" mask="url(#q)"/><use xlink:href="#r" style="stroke:none;fill-rule:nonzero;fill:url(#s)"/><use xlink:href="#t" mask="url(#u)"/><path d="M29.004 16.543a3.433 3.433 0 1 1-6.867 0 3.432 3.432 0 0 1 3.433-3.43 3.433 3.433 0 0 1 3.434 3.43m0 0" style="stroke:none;fill-rule:nonzero;fill:url(#v)"/><use xlink:href="#w" mask="url(#x)"/><use xlink:href="#n" style="stroke:none;fill-rule:nonzero;fill:url(#y)"/><use xlink:href="#r" style="stroke:none;fill-rule:nonzero;fill:url(#z)"/></svg>