<svg role="img" viewBox="0 0 32 32" xmlns="http://www.w3.org/2000/svg" xmlns:xlink="http://www.w3.org/1999/xlink"><defs><linearGradient gradientTransform="translate(.617 .617)scale(1.7149)" gradientUnits="userSpaceOnUse" id="a" x1="9" x2="9" y1="19.85" y2="-1.02"><stop offset="0" style="stop-color:rgb(36.862746%,58.823532%,14.117648%);stop-opacity:1"/><stop offset=".02" style="stop-color:rgb(37.254903%,59.215689%,14.117648%);stop-opacity:1"/><stop offset="1" style="stop-color:rgb(46.27451%,73.725492%,17.647059%);stop-opacity:1"/></linearGradient></defs><path d="M.926 15.313 15.313.925a1.03 1.03 0 0 1 1.476 0l14.387 14.387a1.033 1.033 0 0 1 0 1.476L16.773 31.195c-.402.39-1.043.39-1.441 0L.926 16.79a1.03 1.03 0 0 1 0-1.476m0 0" style="stroke:none;fill-rule:nonzero;fill:url(#a)"/><path d="m19.824 7.477-3.637-3.618a.204.204 0 0 0-.273 0l-3.637 3.618a.172.172 0 0 0-.058.21.167.167 0 0 0 .195.098h2.129c.105 0 .187.086.187.188v3.43a.19.19 0 0 0 .188.19h2.266a.188.188 0 0 0 .187-.19v-3.43a.19.19 0 0 1 .192-.188h2.125c.082.02.164-.02.199-.098a.173.173 0 0 0-.063-.21M7.477 11.953l-3.602 3.652a.192.192 0 0 0 0 .258l3.602 3.617a.193.193 0 0 0 .21.047.197.197 0 0 0 .118-.183v-2.11c0-.105.082-.187.187-.187h3.43a.173.173 0 0 0 .172-.188v-2.265a.178.178 0 0 0 .008-.16.174.174 0 0 0-.13-.098H8.044a.182.182 0 0 1-.133-.043.17.17 0 0 1-.055-.129V12.09a.203.203 0 0 0-.12-.258.2.2 0 0 0-.258.121m17.285 7.527 3.652-3.636a.18.18 0 0 0 0-.254l-3.652-3.637a.189.189 0 0 0-.309.137v2.144c0 .047-.02.094-.055.13a.182.182 0 0 1-.132.042h-3.43a.184.184 0 0 0-.129.055.182.182 0 0 0-.043.133v2.265a.173.173 0 0 0 .172.188h3.43c.105 0 .187.082.187.187v2.125a.19.19 0 0 0 .121.153.174.174 0 0 0 .188-.032m0 0" style="stroke:none;fill-rule:nonzero;fill:rgb(70.588237%,92.54902%,21.176471%);fill-opacity:1"/><path d="M20.836 16.05a4.785 4.785 0 1 0-6.07 4.579v1.629a2.933 2.933 0 1 0 2.691 0v-1.715a4.746 4.746 0 0 0 3.379-4.492m0 0" style="stroke:none;fill-rule:nonzero;fill:rgb(100%,100%,100%);fill-opacity:1"/><path d="M18.848 16.035a2.78 2.78 0 0 1-5.559 0 2.78 2.78 0 0 1 5.559 0m0 0" style="stroke:none;fill-rule:nonzero;fill:rgb(36.862746%,62.7451%,93.725491%);fill-opacity:1"/></svg>