<svg role="img" viewBox="0 0 18 18" xmlns="http://www.w3.org/2000/svg" xmlns:xlink="http://www.w3.org/1999/xlink"><defs><linearGradient gradientUnits="userSpaceOnUse" id="a" x1="12.74" x2="12.74" y1="15.28" y2="8.52"><stop offset="0" stop-color="#0078d4"/><stop offset=".82" stop-color="#5ea0ef"/></linearGradient><linearGradient gradientUnits="userSpaceOnUse" id="b" x1="12.74" x2="12.74" y1="17.89" y2="15.28"><stop offset=".15" stop-color="#ccc"/><stop offset="1" stop-color="#707070"/></linearGradient></defs><title>Icon-compute-34</title><rect fill="#005ba1" height="6.75" rx=".34" width="10.11" x=".79" y=".89"/><path d="M7.53 3.28v1.97l-1.68.98V4.27z" fill="#50e6ff"/><path d="m7.53 3.28-1.68.99-1.69-.99 1.69-.99z" fill="#c3f1ff"/><path d="M5.85 4.27v1.96l-1.69-.98V3.28z" fill="#9cebff"/><rect fill="#0078d4" height="6.75" rx=".34" width="10.11" x="4.76" y="4.76"/><path d="M11.5 7.16v1.96l-1.68.99V8.14z" fill="#50e6ff"/><path d="m11.5 7.16-1.68.98-1.69-.98 1.69-.99z" fill="#c3f1ff"/><path d="M9.82 8.14v1.97l-1.69-.99V7.16z" fill="#9cebff"/><rect fill="url(#a)" height="6.75" rx=".34" width="10.11" x="7.68" y="8.52"/><path d="M14.42 10.92v1.96l-1.68.99V11.9z" fill="#50e6ff"/><path d="m14.42 10.92-1.68.99-1.69-.99 1.69-.99z" fill="#c3f1ff"/><path d="M12.74 11.91v1.96l-1.69-.99v-1.96z" fill="#9cebff"/><path d="m11.05 12.88 1.69-.98v1.97z" fill="#c3f1ff"/><path d="m14.42 12.88-1.68-.98v1.97z" fill="#9cebff"/><path d="M14.76 17.32c-1-.16-1-.88-1-2h-2c0 1.16 0 1.88-1 2a.59.59 0 0 0-.5.57h5a.59.59 0 0 0-.5-.57" fill="url(#b)"/></svg>