<?xml version="1.0" encoding="UTF-8"?>
<svg xmlns="http://www.w3.org/2000/svg" xmlns:xlink="http://www.w3.org/1999/xlink" width="32" height="32" viewBox="0 0 32 32" version="1.1">
<defs>
<linearGradient id="linear0" gradientUnits="userSpaceOnUse" x1="-6784.850098" y1="1118.780029" x2="-6784.850098" y2="1089.97998" gradientTransform="matrix(0.888889,0,0,-0.888889,6045.173177,995.53776)">
<stop offset="0" style="stop-color:rgb(36.862746%,62.7451%,93.725491%);stop-opacity:1;"/>
<stop offset="0.18" style="stop-color:rgb(34.509805%,61.960787%,92.941177%);stop-opacity:1;"/>
<stop offset="0.41" style="stop-color:rgb(28.235295%,59.215689%,91.37255%);stop-opacity:1;"/>
<stop offset="0.66" style="stop-color:rgb(18.039216%,54.901963%,88.235295%);stop-opacity:1;"/>
<stop offset="0.94" style="stop-color:rgb(3.921569%,48.627451%,84.313726%);stop-opacity:1;"/>
<stop offset="1" style="stop-color:rgb(0%,47.058824%,83.137256%);stop-opacity:1;"/>
</linearGradient>
<filter id="alpha" filterUnits="objectBoundingBox" x="0%" y="0%" width="100%" height="100%">
  <feColorMatrix type="matrix" in="SourceGraphic" values="0 0 0 0 1 0 0 0 0 1 0 0 0 0 1 0 0 0 1 0"/>
</filter>
<mask id="mask0">
  <g filter="url(#alpha)">
<rect x="0" y="0" width="32" height="32" style="fill:rgb(0%,0%,0%);fill-opacity:0.95;stroke:none;"/>
  </g>
</mask>
<linearGradient id="linear1" gradientUnits="userSpaceOnUse" x1="-1.47" y1="14.91" x2="17.16" y2="14.8" gradientTransform="matrix(1.777778,0,0,1.777778,0,0)">
<stop offset="0" style="stop-color:rgb(26.666668%,61.176473%,86.666667%);stop-opacity:0.14902;"/>
<stop offset="0.16" style="stop-color:rgb(15.686275%,43.921569%,67.058825%);stop-opacity:0;"/>
<stop offset="0.18" style="stop-color:rgb(14.117648%,41.176471%,63.921571%);stop-opacity:0.0588235;"/>
<stop offset="0.23" style="stop-color:rgb(10.196079%,34.901962%,56.862748%);stop-opacity:0.188235;"/>
<stop offset="0.28" style="stop-color:rgb(7.843138%,30.980393%,52.549022%);stop-opacity:0.270588;"/>
<stop offset="0.34" style="stop-color:rgb(7.058824%,29.803923%,50.980395%);stop-opacity:0.301961;"/>
<stop offset="0.76" style="stop-color:rgb(0%,15.686275%,31.764707%);stop-opacity:0.34902;"/>
<stop offset="0.9" style="stop-color:rgb(18.431373%,47.843137%,71.372551%);stop-opacity:0;"/>
<stop offset="1" style="stop-color:rgb(26.666668%,61.176473%,86.666667%);stop-opacity:0;"/>
</linearGradient>
<clipPath id="clip1">
  <rect x="0" y="0" width="32" height="32"/>
</clipPath>
<g id="surface5" clip-path="url(#clip1)">
<path style=" stroke:none;fill-rule:nonzero;fill:url(#linear1);" d="M 18.949219 26.667969 L 26.328125 26.667969 C 26.171875 26.53125 26.0625 26.351562 26.007812 26.152344 L 18.898438 26.152344 Z M 18.949219 26.667969 "/>
</g>
<clipPath id="clip2">
  <path d="M 17 16 L 31 16 L 31 31 L 17 31 Z M 17 16 "/>
</clipPath>
<clipPath id="clip3">
  <path d="M 23.574219 16.195312 C 19.488281 16.195312 16.179688 19.507812 16.179688 23.589844 C 16.179688 27.675781 19.488281 30.988281 23.574219 30.988281 C 27.65625 30.988281 30.96875 27.675781 30.96875 23.589844 C 30.96875 19.507812 27.65625 16.195312 23.574219 16.195312 "/>
</clipPath>
</defs>
<g id="surface1">
<path style=" stroke:none;fill-rule:nonzero;fill:url(#linear0);" d="M 9.972656 18.933594 L 17.671875 18.933594 L 17.671875 26.667969 L 9.972656 26.667969 Z M 1.085938 8.691406 L 8.691406 8.691406 L 8.691406 1.011719 L 2.078125 1.011719 C 1.492188 1.011719 1.011719 1.492188 1.011719 2.078125 Z M 2.078125 26.667969 L 8.691406 26.667969 L 8.691406 18.933594 L 1.011719 18.933594 L 1.011719 25.546875 C 1 25.839844 1.105469 26.125 1.304688 26.335938 C 1.507812 26.546875 1.789062 26.667969 2.078125 26.667969 M 1.011719 17.777344 L 8.691406 17.777344 L 8.691406 9.972656 L 1.011719 9.972656 Z M 18.949219 26.667969 L 25.5625 26.667969 C 26.152344 26.667969 26.632812 26.1875 26.632812 25.601562 L 26.632812 18.933594 L 18.949219 18.933594 Z M 10.0625 17.777344 L 17.671875 17.777344 L 17.671875 9.972656 L 9.972656 9.972656 Z M 19.039062 17.777344 L 26.667969 17.777344 L 26.667969 9.972656 L 18.949219 9.972656 Z M 19.039062 1.136719 L 19.039062 8.691406 L 26.667969 8.691406 L 26.667969 2.078125 C 26.667969 1.492188 26.1875 1.011719 25.601562 1.011719 Z M 10.152344 8.816406 L 17.671875 8.816406 L 17.671875 1.011719 L 9.972656 1.011719 Z M 10.152344 8.816406 "/>
<use xlink:href="#surface5" mask="url(#mask0)"/>
<path style=" stroke:none;fill-rule:nonzero;fill:rgb(19.607843%,74.509805%,86.666667%);fill-opacity:1;" d="M 23.574219 16.195312 C 19.488281 16.195312 16.179688 19.507812 16.179688 23.589844 C 16.179688 27.675781 19.488281 30.988281 23.574219 30.988281 C 27.65625 30.988281 30.96875 27.675781 30.96875 23.589844 C 30.96875 19.507812 27.65625 16.195312 23.574219 16.195312 "/>
<g clip-path="url(#clip2)" clip-rule="nonzero">
<g clip-path="url(#clip3)" clip-rule="nonzero">
<path style=" stroke:none;fill-rule:nonzero;fill:rgb(70.588237%,92.54902%,21.176471%);fill-opacity:1;" d="M 30.328125 24.65625 C 29.957031 24.851562 29.421875 24.746094 29.171875 24.941406 C 28.695312 25.214844 28.304688 25.625 28.054688 26.117188 C 28.054688 26.222656 28.054688 26.382812 27.929688 26.4375 C 27.429688 26.773438 26.933594 27.128906 27.394531 27.875 C 26.863281 27.875 27.039062 27.394531 26.792969 27.253906 C 26.414062 27.089844 25.988281 27.101562 25.621094 27.289062 C 25.257812 27.472656 24.996094 27.8125 24.90625 28.214844 C 24.847656 28.472656 24.960938 28.738281 25.191406 28.871094 C 25.304688 28.933594 25.4375 28.945312 25.558594 28.902344 C 25.679688 28.863281 25.777344 28.773438 25.832031 28.65625 C 25.875 28.578125 25.949219 28.523438 26.039062 28.5 C 26.125 28.480469 26.21875 28.5 26.292969 28.550781 C 26.292969 28.835938 25.796875 29.351562 26.613281 29.367188 C 26.828125 29.367188 26.773438 29.617188 26.71875 29.777344 C 26.667969 29.9375 26.828125 30.203125 27.058594 30.3125 C 27.289062 30.417969 27.058594 30.3125 27.058594 30.398438 C 26.398438 30.398438 26.257812 29.601562 25.617188 29.511719 C 25.359375 29.441406 25.105469 29.359375 24.851562 29.261719 C 24.375 29.101562 23.820312 29.011719 23.714844 28.300781 C 23.628906 27.9375 23.398438 27.621094 23.074219 27.429688 C 22.863281 27.289062 22.738281 27.023438 22.523438 26.863281 C 22.441406 26.625 22.308594 26.40625 22.132812 26.222656 C 21.800781 25.78125 21.707031 25.199219 21.882812 24.675781 C 22.199219 23.691406 22.136719 22.628906 21.707031 21.6875 C 21.527344 21.121094 21.492188 20.535156 20.851562 20.160156 C 20.214844 19.785156 20.320312 20.375 20.070312 20.25 C 19.820312 20.125 19.679688 20.480469 19.609375 20.515625 C 19.09375 20.65625 18.648438 21.101562 17.992188 21.03125 C 18.238281 20.90625 18.4375 20.835938 18.613281 20.730469 C 18.792969 20.621094 19.128906 20.480469 18.738281 20.054688 C 18.347656 19.625 18.488281 19.003906 19.539062 18.578125 C 19.449219 18.328125 18.808594 18.382812 19.09375 17.921875 C 19.378906 17.457031 19.589844 17.6875 19.859375 17.921875 C 20.035156 17.582031 19.644531 17.15625 19.945312 16.960938 C 20.347656 16.730469 20.777344 16.558594 21.226562 16.445312 C 21.332031 16.390625 21.457031 16.378906 21.570312 16.414062 C 21.683594 16.453125 21.777344 16.53125 21.832031 16.640625 C 22.152344 17.136719 22.792969 17.226562 23.109375 17.722656 C 23.199219 17.882812 23.378906 17.722656 23.503906 17.722656 C 24.230469 17.476562 24.710938 17.9375 25.28125 18.3125 C 25.847656 18.683594 25.761719 18.914062 26.222656 18.863281 C 26.34375 18.835938 26.472656 18.835938 26.59375 18.863281 C 26.878906 18.988281 27.148438 19.058594 27.359375 18.753906 C 27.585938 18.730469 27.769531 18.566406 27.820312 18.347656 C 27.929688 18.1875 27.980469 17.957031 28.25 18.0625 C 28.121094 18.566406 28.191406 19.101562 28.445312 19.554688 C 28.675781 19.378906 28.90625 19.269531 28.640625 18.863281 C 28.523438 18.675781 28.507812 18.445312 28.597656 18.246094 C 28.6875 18.046875 28.871094 17.90625 29.085938 17.867188 C 29.507812 17.726562 29.972656 17.894531 30.203125 18.277344 C 30.542969 18.878906 30.648438 19.574219 31.039062 20.054688 C 31.164062 20.214844 31.039062 20.285156 31.039062 20.410156 C 31.039062 20.535156 30.71875 20.410156 30.542969 20.300781 L 30.667969 21.066406 C 30.136719 21.296875 29.519531 21.109375 29.207031 20.621094 C 29.207031 20.410156 29.207031 20.320312 29.421875 20.214844 C 29.636719 20.105469 29.761719 20.019531 29.761719 19.785156 C 29.785156 19.640625 29.710938 19.5 29.582031 19.429688 C 29.441406 19.429688 29.351562 19.429688 29.316406 19.589844 C 29.28125 19.75 28.730469 20.035156 28.816406 20.535156 C 28.90625 21.03125 28.480469 20.925781 28.230469 20.78125 C 27.644531 20.480469 27.429688 21.011719 27.183594 21.296875 C 26.933594 21.582031 27.183594 21.902344 27.464844 22.117188 C 27.75 22.328125 28.019531 22.488281 28.125 22.828125 C 28.421875 22.5625 28.605469 22.191406 28.640625 21.796875 C 28.640625 21.476562 28.765625 21.03125 29.207031 20.976562 C 29.550781 20.949219 29.871094 21.152344 29.992188 21.476562 C 30.078125 21.671875 30.222656 21.6875 30.398438 21.707031 C 30.800781 22.574219 31.125 23.480469 31.359375 24.410156 L 30.703125 24.320312 C 30.703125 23.804688 30.257812 24.035156 30.007812 23.929688 C 29.9375 24.25 30.347656 24.335938 30.328125 24.65625 M 27.769531 18.257812 C 27.539062 18.042969 27.289062 17.847656 27.664062 17.546875 C 28.035156 17.246094 28.019531 17.03125 28.195312 17.546875 C 28.238281 17.855469 28.0625 18.152344 27.769531 18.257812 M 28.320312 17.546875 C 28.515625 17.351562 28.765625 17.367188 28.800781 17.546875 C 28.835938 17.722656 28.570312 17.882812 28.335938 17.957031 C 28.105469 18.027344 28.179688 17.777344 28.320312 17.546875 M 26.949219 15.894531 L 26.328125 16 C 26.328125 15.554688 26.773438 15.519531 27.074219 15.589844 C 27.378906 15.664062 27.039062 15.804688 26.949219 15.894531 "/>
</g>
</g>
</g>
</svg>
