<?xml version="1.0" encoding="UTF-8"?>
<svg xmlns="http://www.w3.org/2000/svg" xmlns:xlink="http://www.w3.org/1999/xlink" width="32" height="32" viewBox="0 0 32 32" version="1.1">
<defs>
<radialGradient id="radial0" gradientUnits="userSpaceOnUse" cx="-105.005997" cy="-10.409" fx="-105.005997" fy="-10.409" r="5.954" gradientTransform="matrix(1.841778,0,0,1.825778,209.313775,34.922665)">
<stop offset="0.183" style="stop-color:rgb(36.862746%,62.7451%,93.725491%);stop-opacity:1;"/>
<stop offset="1" style="stop-color:rgb(0%,47.058824%,83.137256%);stop-opacity:1;"/>
</radialGradient>
<clipPath id="clip1">
  <path d="M 5 8 L 27 8 L 27 24 L 5 24 Z M 5 8 "/>
</clipPath>
<clipPath id="clip2">
  <path d="M 26.613281 13.386719 C 28.011719 19.246094 24.394531 25.132812 18.535156 26.535156 C 12.675781 27.933594 6.789062 24.316406 5.386719 18.457031 C 3.988281 12.597656 7.605469 6.710938 13.464844 5.308594 C 19.324219 3.910156 25.210938 7.527344 26.613281 13.386719 "/>
</clipPath>
</defs>
<g id="surface1">
<path style=" stroke:none;fill-rule:nonzero;fill:rgb(31.37255%,90.196079%,100%);fill-opacity:1;" d="M 5.25 9.363281 C 5.167969 9.363281 5.089844 9.328125 5.03125 9.269531 C 4.972656 9.210938 4.9375 9.132812 4.9375 9.050781 C 4.9375 7.078125 3.339844 5.480469 1.367188 5.476562 C 1.195312 5.476562 1.054688 5.339844 1.054688 5.167969 C 1.054688 4.992188 1.195312 4.851562 1.367188 4.851562 C 3.339844 4.851562 4.9375 3.253906 4.9375 1.28125 C 4.9375 1.195312 4.972656 1.117188 5.03125 1.058594 C 5.089844 1 5.167969 0.964844 5.25 0.96875 C 5.335938 0.964844 5.414062 1 5.472656 1.058594 C 5.53125 1.117188 5.566406 1.195312 5.5625 1.28125 C 5.566406 3.25 7.164062 4.847656 9.136719 4.851562 C 9.21875 4.851562 9.300781 4.882812 9.359375 4.941406 C 9.417969 5 9.449219 5.082031 9.449219 5.164062 C 9.449219 5.246094 9.417969 5.328125 9.359375 5.386719 C 9.300781 5.445312 9.21875 5.476562 9.136719 5.476562 C 7.164062 5.480469 5.566406 7.078125 5.5625 9.050781 C 5.5625 9.222656 5.425781 9.359375 5.25 9.363281 M 27.753906 31.03125 C 27.613281 31.03125 27.503906 30.921875 27.503906 30.78125 C 27.5 29.207031 26.222656 27.925781 24.644531 27.925781 C 24.507812 27.925781 24.394531 27.8125 24.394531 27.675781 C 24.394531 27.539062 24.507812 27.425781 24.644531 27.425781 C 26.222656 27.425781 27.5 26.144531 27.503906 24.570312 C 27.503906 24.429688 27.613281 24.316406 27.753906 24.316406 C 27.890625 24.316406 28.003906 24.429688 28.003906 24.570312 C 28.003906 26.144531 29.28125 27.425781 30.859375 27.425781 C 31 27.425781 31.109375 27.539062 31.109375 27.675781 C 31.109375 27.816406 31 27.925781 30.859375 27.925781 C 29.285156 27.929688 28.003906 29.207031 28.003906 30.785156 C 28.003906 30.921875 27.890625 31.03125 27.753906 31.03125 "/>
<path style=" stroke:none;fill-rule:nonzero;fill:url(#radial0);" d="M 26.613281 13.386719 C 28.011719 19.246094 24.394531 25.132812 18.535156 26.535156 C 12.675781 27.933594 6.789062 24.316406 5.386719 18.457031 C 3.988281 12.597656 7.605469 6.710938 13.464844 5.308594 C 19.324219 3.910156 25.210938 7.527344 26.613281 13.386719 "/>
<g clip-path="url(#clip1)" clip-rule="nonzero">
<g clip-path="url(#clip2)" clip-rule="nonzero">
<path style=" stroke:none;fill-rule:nonzero;fill:rgb(94.901961%,94.901961%,94.901961%);fill-opacity:1;" d="M 10.148438 23.316406 C 11.207031 23.34375 12.195312 22.796875 12.734375 21.886719 C 13.269531 20.972656 13.273438 19.84375 12.738281 18.933594 C 12.203125 18.019531 11.214844 17.46875 10.160156 17.492188 C 10.167969 17.410156 10.171875 17.328125 10.171875 17.246094 C 10.15625 15.625 8.835938 14.324219 7.21875 14.335938 L 5.035156 14.335938 C 4.601562 17.601562 5.640625 20.890625 7.871094 23.316406 Z M 26.746094 13.894531 C 26.746094 13.867188 26.746094 13.839844 26.734375 13.816406 C 26.382812 11.914062 25.519531 10.140625 24.234375 8.695312 C 24.066406 8.628906 23.894531 8.574219 23.722656 8.535156 C 22.773438 8.265625 21.757812 8.445312 20.957031 9.019531 C 20.160156 9.597656 19.671875 10.507812 19.632812 11.492188 C 19.515625 11.476562 19.394531 11.46875 19.277344 11.46875 C 17.773438 11.46875 16.488281 12.550781 16.234375 14.03125 C 15.976562 15.515625 16.828125 16.964844 18.242188 17.464844 C 18.550781 17.585938 18.875 17.648438 19.207031 17.644531 L 22.8125 17.644531 C 24.261719 16.546875 25.582031 15.289062 26.746094 13.894531 "/>
</g>
</g>
<path style=" stroke:none;fill-rule:nonzero;fill:rgb(31.37255%,90.196079%,100%);fill-opacity:1;" d="M 30.5625 6.8125 C 29.445312 4.949219 26.828125 4.226562 23.175781 4.769531 C 21.921875 4.945312 20.6875 5.214844 19.472656 5.574219 C 20.4375 5.90625 21.347656 6.363281 22.191406 6.9375 C 22.617188 6.84375 23.050781 6.730469 23.460938 6.667969 C 24.109375 6.566406 24.765625 6.515625 25.421875 6.511719 C 26.726562 6.320312 28.039062 6.808594 28.90625 7.800781 C 29.585938 8.933594 29.011719 10.871094 27.328125 13.132812 C 24.992188 16.042969 22.128906 18.484375 18.886719 20.335938 C 15.71875 22.3125 12.207031 23.675781 8.535156 24.355469 C 5.753906 24.773438 3.765625 24.355469 3.085938 23.226562 C 2.402344 22.09375 2.976562 20.148438 4.660156 17.902344 C 4.867188 17.621094 4.917969 17.484375 5.15625 17.203125 C 5.042969 16.238281 5.058594 15.265625 5.203125 14.304688 C 4.445312 15.0625 3.75 15.878906 3.121094 16.746094 C 0.917969 19.691406 0.320312 22.339844 1.4375 24.199219 C 2.636719 25.804688 4.601562 26.652344 6.59375 26.421875 C 7.339844 26.417969 8.082031 26.359375 8.816406 26.242188 C 12.738281 25.527344 16.488281 24.082031 19.875 21.976562 C 23.332031 20 26.382812 17.386719 28.871094 14.277344 C 31.082031 11.324219 31.679688 8.675781 30.5625 6.8125 "/>
</g>
</svg>
