<svg role="img" viewBox="0 0 18 18" xmlns="http://www.w3.org/2000/svg" xmlns:xlink="http://www.w3.org/1999/xlink"><defs><linearGradient gradientUnits="userSpaceOnUse" id="a" x1="13.18" x2="8.63" y1="13.01" y2="4.38"><stop offset="0" stop-color="#1988d9"/><stop offset=".9" stop-color="#54aef0"/></linearGradient><linearGradient gradientUnits="userSpaceOnUse" id="b" x1="11.22" x2="14.37" y1="10.5" y2="15.93"><stop offset=".1" stop-color="#54aef0"/><stop offset=".29" stop-color="#4fabee"/><stop offset=".51" stop-color="#41a2e9"/><stop offset=".74" stop-color="#2a93e0"/><stop offset=".88" stop-color="#1988d9"/></linearGradient></defs><title>Icon-identity-227</title><path d="m1.15 10.22 7.78 5.05 7.92-5.06 1 1.15-8.92 5.75-8.78-5.74z" fill="#50e6ff"/><path d="M1.73 9.58 8.93 1l7.35 8.59-7.35 4.64z" fill="#fff"/><path d="M8.93 1v13.23l-7.2-4.65z" fill="#50e6ff"/><path d="M8.93 1v13.23l7.35-4.64z" fill="url(#a)"/><path d="m8.93 7.83 7.35 1.76-7.35 4.64z" fill="#53b1e0"/><path d="m8.93 14.23-7.2-4.65 7.2-1.75z" fill="#9cebff"/><path d="m8.93 17.11 8.92-5.75-1-1.15-7.92 5.06z" fill="url(#b)"/><path d="M16.32 11.88a1.16 1.16 0 0 0 0-1.65l-2-2a1.16 1.16 0 0 0-1.64 0l-2 2a1.18 1.18 0 0 0 0 1.65l1.67 1.67a.32.32 0 0 1 .09.23v3.1a.36.36 0 0 0 .12.28l.76.76a.25.25 0 0 0 .37 0l.73-.73.44-.44a.15.15 0 0 0 0-.21l-.31-.31a.16.16 0 0 1 0-.24l.31-.31a.16.16 0 0 0 0-.22l-.31-.31a.15.15 0 0 1 0-.23l.31-.32a.15.15 0 0 0 0-.21l-.44-.44v-.16ZM13.5 8.71a.66.66 0 1 1-.66.66.66.66 0 0 1 .66-.66" fill="#ffca00"/><path d="M13 17a.14.14 0 0 0 .24-.11v-2.56a.16.16 0 0 0-.06-.13.14.14 0 0 0-.22.13v2.51A.15.15 0 0 0 13 17" fill="#ff9300" opacity=".75"/><rect fill="#ff9300" height=".39" opacity=".75" rx=".18" width="3.29" x="11.9" y="10.9"/><rect fill="#ff9300" height=".39" opacity=".75" rx=".18" width="3.29" x="11.9" y="11.53"/></svg>