<svg role="img" viewBox="0 0 18 18" xmlns="http://www.w3.org/2000/svg" xmlns:xlink="http://www.w3.org/1999/xlink"><defs><linearGradient gradientUnits="userSpaceOnUse" id="a" x1="9.01" x2="9.01" y1="16.5" y2="1.5"><stop offset="0" stop-color="#5e9641"/><stop offset=".34" stop-color="#6baa42"/><stop offset=".67" stop-color="#73b743"/><stop offset="1" stop-color="#76bb43"/></linearGradient></defs><title>Icon-networking-80</title><path d="M15.89 2.91h1.27a.34.34 0 0 1 .34.34v3.5a.34.34 0 0 1-.34.34h-1.27zm0 6.09h1.27a.34.34 0 0 1 .34.34v5.86a.34.34 0 0 1-.34.34h-1.27z" fill="#ffca00"/><rect fill="url(#a)" height="15" rx=".69" width="13.76" x="2.13" y="1.5"/><path d="M5.9 12.9h-.71a.2.2 0 0 1-.19-.21V4.34a.19.19 0 0 1 .19-.2h1.93a.19.19 0 0 1 .19.2.2.2 0 0 1-.19.21H5.38v7.93h.52a.2.2 0 0 1 .19.21.21.21 0 0 1-.19.21m.1 1.02H4.4a.2.2 0 0 1-.19-.21L4.08 3.38a.2.2 0 0 1 .06-.15.16.16 0 0 1 .13-.06h2.85v.41H4.47l.12 9.92H6Zm6-.92h-1.59a.19.19 0 0 1-.14-.07.18.18 0 0 1-.06-.14V7.9a.19.19 0 0 1 .19-.2h.91V5.45h.38v2.44a.2.2 0 0 1-.18.21h-.91v4.42H12Z" fill="#b4ec36"/><rect fill="#365615" height="3.11" rx=".26" width="6.14" x="7.07" y="2.29"/><rect fill="#365615" height="1.09" rx=".26" transform="rotate(90 8.305 13.235)" width="4.9" x="5.86" y="12.69"/><rect fill="#365615" height="1.09" rx=".26" transform="rotate(90 6.44 13.26)" width="4.9" x="3.99" y="12.71"/><rect fill="#f2f2f2" height="1.09" rx=".26" transform="rotate(90 12.425 13.255)" width="4.9" x="9.98" y="12.71"/><path d="M8.11 6.94a1.04 1.12 0 1 0 0 2.24 1.04 1.12 0 1 0 0-2.24" fill="#f2f2f2"/><path d="M2.11 12.25H.84a.34.34 0 0 1-.34-.3V6.09a.34.34 0 0 1 .34-.34h1.27z" fill="#3b3b3b"/></svg>