<?xml version="1.0" encoding="UTF-8"?>
<svg xmlns="http://www.w3.org/2000/svg" xmlns:xlink="http://www.w3.org/1999/xlink" width="32" height="32" viewBox="0 0 32 32" version="1.1">
<defs>
<linearGradient id="linear0" gradientUnits="userSpaceOnUse" x1="5.05" y1="10.55" x2="5.05" y2="13.48" gradientTransform="matrix(1.777778,0,0,1.777778,0,0)">
<stop offset="0" style="stop-color:rgb(46.27451%,73.725492%,17.647059%);stop-opacity:1;"/>
<stop offset="1" style="stop-color:rgb(36.862746%,58.823532%,14.117648%);stop-opacity:1;"/>
</linearGradient>
<linearGradient id="linear1" gradientUnits="userSpaceOnUse" x1="12.84" y1="10.57" x2="12.84" y2="13.5" gradientTransform="matrix(1.777778,0,0,1.777778,0,0)">
<stop offset="0" style="stop-color:rgb(46.27451%,73.725492%,17.647059%);stop-opacity:1;"/>
<stop offset="1" style="stop-color:rgb(36.862746%,58.823532%,14.117648%);stop-opacity:1;"/>
</linearGradient>
</defs>
<g id="surface1">
<path style=" stroke:none;fill-rule:nonzero;fill:rgb(58.039218%,58.039218%,58.039218%);fill-opacity:1;" d="M 5.671875 27.734375 C 4.714844 27.808594 3.761719 27.570312 2.949219 27.058594 C 2.339844 26.410156 2.046875 25.523438 2.152344 24.640625 L 2.152344 18.363281 C 2.152344 17.332031 1.742188 16.78125 0.890625 16.78125 L 0.890625 15.21875 C 1.742188 15.21875 2.152344 14.667969 2.152344 13.582031 L 2.152344 7.414062 C 2.054688 6.511719 2.34375 5.613281 2.949219 4.941406 C 3.75 4.402344 4.714844 4.164062 5.671875 4.265625 L 5.671875 5.847656 C 4.765625 5.847656 4.265625 6.328125 4.265625 7.359375 L 4.265625 13.40625 C 4.265625 14.792969 3.859375 15.644531 2.949219 16 C 3.894531 16.5 4.421875 17.539062 4.265625 18.59375 L 4.265625 24.585938 C 4.25 25.011719 4.355469 25.429688 4.570312 25.796875 C 4.84375 26.058594 5.222656 26.1875 5.601562 26.152344 L 5.601562 27.734375 Z M 26.328125 4.265625 C 27.285156 4.191406 28.238281 4.429688 29.050781 4.941406 C 29.660156 5.589844 29.953125 6.476562 29.847656 7.359375 L 29.847656 13.636719 C 29.847656 14.667969 30.257812 15.21875 31.109375 15.21875 L 31.109375 16.78125 C 30.257812 16.78125 29.847656 17.332031 29.847656 18.417969 L 29.847656 24.515625 C 29.949219 25.421875 29.65625 26.328125 29.050781 27.003906 C 28.257812 27.566406 27.292969 27.824219 26.328125 27.734375 L 26.328125 26.152344 C 27.234375 26.152344 27.734375 25.671875 27.734375 24.640625 L 27.734375 18.59375 C 27.734375 17.207031 28.140625 16.355469 29.050781 16 C 28.105469 15.5 27.578125 14.460938 27.734375 13.40625 L 27.734375 7.414062 C 27.75 6.988281 27.644531 6.570312 27.429688 6.203125 C 27.15625 5.941406 26.777344 5.8125 26.398438 5.847656 Z M 26.328125 4.265625 "/>
<path style=" stroke:none;fill-rule:nonzero;fill:rgb(0%,35.686275%,63.137257%);fill-opacity:1;" d="M 16.730469 14.84375 L 16.730469 12.585938 L 15.128906 12.585938 L 15.128906 14.84375 C 15.128906 15.019531 14.984375 15.164062 14.808594 15.164062 L 8.890625 15.164062 C 8.535156 15.164062 8.25 15.449219 8.25 15.804688 L 8.25 18.738281 L 9.847656 18.738281 L 9.847656 17.121094 C 9.847656 16.949219 9.980469 16.808594 10.152344 16.800781 L 21.777344 16.800781 C 21.953125 16.800781 22.097656 16.941406 22.097656 17.121094 L 22.097656 18.773438 L 23.679688 18.773438 L 23.679688 15.804688 C 23.679688 15.457031 23.402344 15.175781 23.058594 15.164062 L 17.050781 15.164062 C 16.871094 15.164062 16.730469 15.019531 16.730469 14.84375 "/>
<path style=" stroke:none;fill-rule:nonzero;fill:rgb(0%,47.058824%,83.137256%);fill-opacity:1;" d="M 18.863281 5.707031 L 12.890625 5.707031 C 12.523438 5.707031 12.222656 6 12.214844 6.363281 L 12.214844 12.335938 C 12.214844 12.515625 12.285156 12.683594 12.414062 12.808594 C 12.539062 12.933594 12.710938 13 12.890625 12.996094 L 18.863281 12.996094 C 19.042969 13.003906 19.21875 12.941406 19.351562 12.816406 C 19.480469 12.691406 19.554688 12.519531 19.554688 12.335938 L 19.554688 6.363281 C 19.546875 5.992188 19.234375 5.695312 18.863281 5.707031 M 18.292969 11.34375 C 18.285156 11.582031 18.085938 11.769531 17.847656 11.769531 L 13.882812 11.769531 C 13.644531 11.769531 13.449219 11.582031 13.441406 11.34375 L 13.441406 7.378906 C 13.441406 7.132812 13.640625 6.933594 13.882812 6.933594 L 17.777344 6.933594 C 18.023438 6.933594 18.222656 7.132812 18.222656 7.378906 Z M 18.292969 11.34375 "/>
<path style=" stroke:none;fill-rule:nonzero;fill:url(#linear0);" d="M 6.84375 18.753906 L 11.109375 18.753906 C 11.375 18.753906 11.589844 18.96875 11.589844 19.234375 L 11.589844 23.503906 C 11.589844 23.765625 11.375 23.980469 11.109375 23.980469 L 6.84375 23.980469 C 6.578125 23.980469 6.363281 23.765625 6.363281 23.503906 L 6.363281 19.234375 C 6.363281 18.96875 6.578125 18.753906 6.84375 18.753906 Z M 6.84375 18.753906 "/>
<path style=" stroke:none;fill-rule:nonzero;fill:url(#linear1);" d="M 20.710938 18.792969 L 24.976562 18.792969 C 25.242188 18.792969 25.457031 19.007812 25.457031 19.269531 L 25.457031 23.539062 C 25.457031 23.804688 25.242188 24.019531 24.976562 24.019531 L 20.710938 24.019531 C 20.445312 24.019531 20.230469 23.804688 20.230469 23.539062 L 20.230469 19.269531 C 20.230469 19.007812 20.445312 18.792969 20.710938 18.792969 Z M 20.710938 18.792969 "/>
</g>
</svg>
