<?xml version="1.0" encoding="UTF-8"?>
<svg xmlns="http://www.w3.org/2000/svg" xmlns:xlink="http://www.w3.org/1999/xlink" width="32" height="32" viewBox="0 0 32 32" version="1.1">
<g id="surface1">
<rect x="0" y="0" width="32" height="32" style="fill:rgb(100%,100%,100%);fill-opacity:1;stroke:none;"/>
<path style=" stroke:none;fill-rule:nonzero;fill:rgb(16.470589%,39.215687%,88.235295%);fill-opacity:1;" d="M 18.296875 0.238281 C 18.59375 0.1875 18.882812 0.199219 19.183594 0.199219 L 30.519531 0.199219 C 31.011719 0.191406 31.476562 0.554688 31.6875 0.980469 C 31.839844 1.289062 31.796875 1.59375 31.800781 1.925781 L 31.800781 13.261719 C 31.796875 13.992188 31.5 14.691406 30.976562 15.199219 C 30.71875 15.453125 30.375 15.644531 30.074219 15.851562 C 28.019531 17.214844 25.960938 18.578125 23.902344 19.9375 L 14.609375 26.089844 C 14.273438 26.328125 13.96875 26.539062 13.535156 26.472656 C 12.992188 26.398438 12.6875 25.933594 12.316406 25.589844 C 11.648438 24.929688 10.992188 24.265625 10.328125 23.605469 C 10.515625 23.34375 10.757812 23.136719 10.980469 22.910156 C 13.5625 20.328125 16.152344 17.746094 18.730469 15.164062 C 18.199219 14.59375 17.628906 14.0625 17.089844 13.503906 C 16.992188 13.417969 16.867188 13.246094 16.722656 13.277344 C 16.546875 13.4375 16.386719 13.605469 16.21875 13.773438 C 13.597656 16.390625 10.984375 19.019531 8.355469 21.628906 C 7.710938 20.988281 7.066406 20.347656 6.429688 19.695312 C 6.070312 19.308594 5.597656 19.015625 5.527344 18.449219 C 5.460938 18.019531 5.679688 17.722656 5.90625 17.386719 C 7.964844 14.292969 10.007812 11.191406 12.0625 8.097656 C 13.53125 5.875 15.003906 3.65625 16.472656 1.4375 C 16.890625 0.804688 17.550781 0.371094 18.296875 0.238281 M 18.296875 0.238281 "/>
<path style=" stroke:none;fill-rule:nonzero;fill:rgb(58.039218%,69.803923%,94.901961%);fill-opacity:1;" d="M 22.554688 4.789062 C 23.8125 4.5625 25.101562 4.949219 26.027344 5.828125 C 26.753906 6.515625 27.191406 7.449219 27.261719 8.445312 C 27.320312 9.261719 27.128906 10.078125 26.707031 10.78125 C 26.183594 11.65625 25.347656 12.300781 24.367188 12.582031 C 23.546875 12.8125 22.679688 12.78125 21.878906 12.488281 C 20.949219 12.140625 20.179688 11.460938 19.71875 10.578125 C 19.003906 9.203125 19.144531 7.539062 20.082031 6.304688 C 20.691406 5.511719 21.570312 4.96875 22.554688 4.789062 M 22.554688 4.789062 "/>
<path style=" stroke:none;fill-rule:nonzero;fill:rgb(8.235294%,29.019609%,74.901962%);fill-opacity:1;" d="M 1.628906 8.097656 L 12.0625 8.097656 C 10.007812 11.191406 7.964844 14.292969 5.90625 17.386719 C 5.679688 17.722656 5.460938 18.019531 5.527344 18.449219 C 5.597656 19.015625 6.070312 19.308594 6.429688 19.695312 C 5.890625 20.253906 5.363281 20.820312 4.828125 21.375 C 3.320312 19.8125 1.789062 18.269531 0.277344 16.707031 C 0.308594 16.25 0.292969 15.792969 0.296875 15.332031 C 0.296875 13.40625 0.289062 11.480469 0.292969 9.554688 C 0.289062 9.414062 0.253906 9.28125 0.226562 9.144531 C 0.359375 8.523438 1.003906 8.070312 1.628906 8.097656 M 1.628906 8.097656 "/>
<path style=" stroke:none;fill-rule:nonzero;fill:rgb(0.392157%,23.137255%,72.549021%);fill-opacity:1;" d="M 0.226562 9.144531 C 0.253906 9.28125 0.289062 9.414062 0.292969 9.554688 C 0.289062 11.480469 0.296875 13.40625 0.296875 15.332031 C 0.292969 15.792969 0.308594 16.25 0.277344 16.707031 L 0.199219 16.613281 C 0.203125 14.386719 0.199219 12.152344 0.199219 9.925781 C 0.203125 9.660156 0.183594 9.40625 0.226562 9.144531 M 0.226562 9.144531 "/>
<path style=" stroke:none;fill-rule:nonzero;fill:rgb(30.980393%,50.980395%,94.117647%);fill-opacity:1;" d="M 16.722656 13.277344 C 16.867188 13.246094 16.992188 13.417969 17.089844 13.503906 C 17.628906 14.0625 18.199219 14.59375 18.730469 15.164062 C 16.152344 17.746094 13.5625 20.328125 10.980469 22.910156 C 10.757812 23.136719 10.515625 23.34375 10.328125 23.605469 L 10.253906 23.535156 C 9.644531 22.921875 9.03125 22.3125 8.421875 21.699219 C 11.144531 18.964844 13.886719 16.230469 16.617188 13.503906 C 16.6875 13.4375 16.699219 13.367188 16.722656 13.277344 M 16.722656 13.277344 "/>
<path style=" stroke:none;fill-rule:nonzero;fill:rgb(45.490196%,60.784316%,94.901961%);fill-opacity:1;" d="M 16.722656 13.277344 C 16.699219 13.367188 16.6875 13.4375 16.617188 13.503906 C 13.886719 16.230469 11.144531 18.964844 8.421875 21.699219 C 9.03125 22.3125 9.644531 22.921875 10.253906 23.535156 C 9.707031 24.074219 9.167969 24.628906 8.617188 25.164062 C 7.988281 24.53125 7.355469 23.898438 6.722656 23.269531 C 7.269531 22.722656 7.820312 22.183594 8.355469 21.628906 C 10.984375 19.019531 13.597656 16.390625 16.21875 13.773438 C 16.386719 13.605469 16.546875 13.4375 16.722656 13.277344 M 16.722656 13.277344 "/>
<path style=" stroke:none;fill-rule:nonzero;fill:rgb(6.27451%,27.843139%,74.117649%);fill-opacity:1;" d="M 23.902344 19.9375 L 23.902344 30.449219 C 23.898438 30.957031 23.632812 31.457031 23.164062 31.683594 C 22.863281 31.835938 22.546875 31.796875 22.222656 31.800781 C 19.976562 31.800781 17.71875 31.800781 15.472656 31.804688 C 15.339844 31.824219 15.242188 31.667969 15.152344 31.589844 C 13.679688 30.113281 12.207031 28.640625 10.730469 27.167969 C 11.261719 26.644531 11.785156 26.113281 12.316406 25.589844 C 12.6875 25.933594 12.992188 26.398438 13.535156 26.472656 C 13.96875 26.539062 14.273438 26.328125 14.609375 26.089844 Z M 23.902344 19.9375 "/>
<path style=" stroke:none;fill-rule:nonzero;fill:rgb(56.862748%,69.01961%,94.901961%);fill-opacity:1;" d="M 0.199219 23.902344 L 2.828125 23.902344 C 2.832031 25.660156 2.828125 27.414062 2.832031 29.171875 C 4.585938 29.171875 6.339844 29.167969 8.09375 29.171875 C 8.097656 30.046875 8.097656 30.925781 8.097656 31.800781 C 5.464844 31.800781 2.832031 31.804688 0.199219 31.800781 C 0.195312 29.167969 0.199219 26.535156 0.199219 23.902344 M 0.199219 23.902344 "/>
</g>
</svg>
