<svg xmlns:xlink="http://www.w3.org/1999/xlink" role="img" viewBox="0 0 20.462 32" xmlns="http://www.w3.org/2000/svg"><defs><clipPath id="d"><use xlink:href="#a"/></clipPath><clipPath id="e"><use xlink:href="#a"/></clipPath><clipPath id="f"><use xlink:href="#a"/></clipPath><mask id="i"><g filter="url(#b)"><use xlink:href="#c" style="fill:rgb(0%,0%,0%);fill-opacity:0.75;stroke:none"/></g></mask><mask id="k"><g filter="url(#b)"><use xlink:href="#c" style="fill:rgb(0%,0%,0%);fill-opacity:0.75;stroke:none"/></g></mask><mask id="m"><g filter="url(#b)"><use xlink:href="#c" style="fill:rgb(0%,0%,0%);fill-opacity:0.75;stroke:none"/></g></mask><g clip-path="url(#d)" id="h"><path d="M8.719 28.223a.432.432 0 0 0 .43.007.424.424 0 0 0 .218-.367v-7.605a.468.468 0 0 0-.187-.38.424.424 0 0 0-.45-.015.428.428 0 0 0-.218.395v7.605a.467.467 0 0 0 .207.36m0 0" style="stroke:none;fill-rule:nonzero;fill:rgb(100%,57.647061%,0%);fill-opacity:1"/></g><g clip-path="url(#e)" id="j"><path d="M5.965 9.828h8.926c.3 0 .547.246.547.547v.086a.55.55 0 0 1-.547.547H5.965a.548.548 0 0 1-.547-.547v-.086c0-.3.246-.547.547-.547m0 0" style="stroke:none;fill-rule:nonzero;fill:rgb(100%,57.647061%,0%);fill-opacity:1"/></g><g clip-path="url(#f)" id="l"><path d="M5.965 11.742h8.926c.3 0 .547.246.547.547v.086a.546.546 0 0 1-.547.547H5.965a.546.546 0 0 1-.547-.547v-.086c0-.3.246-.547.547-.547m0 0" style="stroke:none;fill-rule:nonzero;fill:rgb(100%,57.647061%,0%);fill-opacity:1"/></g><path d="M0 0h21v32H0z" id="a"/><path d="M0 0h20.462v32H0z" id="c"/><radialGradient cx="-36.63" cy="17.12" fx="-36.63" fy="17.12" gradientTransform="translate(67.282 -12.137)scale(1.60684)" gradientUnits="userSpaceOnUse" id="g" r="11.18"><stop offset=".27" style="stop-color:rgb(100%,84.313726%,5.882353%);stop-opacity:1"/><stop offset=".49" style="stop-color:rgb(100%,79.607844%,7.058824%);stop-opacity:1"/><stop offset=".88" style="stop-color:rgb(99.607843%,67.450982%,9.803922%);stop-opacity:1"/><stop offset="1" style="stop-color:rgb(99.607843%,63.137257%,10.588235%);stop-opacity:1"/></radialGradient><filter filterUnits="objectBoundingBox" height="100%" id="b" width="100%" x="0%" y="0%"><feColorMatrix in="SourceGraphic" values="0 0 0 0 1 0 0 0 0 1 0 0 0 0 1 0 0 0 1 0"/></filter></defs><path d="M18.871 12.805a3.546 3.546 0 0 0 1.04-2.504c0-.942-.376-1.844-1.04-2.508l-6.086-6.102a3.53 3.53 0 0 0-4.992 0L1.711 7.793a3.575 3.575 0 0 0 0 5.012l5.125 5.125c.184.191.285.441.293.703v9.437c-.004.317.117.625.34.852l2.308 2.308a.774.774 0 0 0 1.13 0l3.554-3.554a.45.45 0 0 0 .14-.324.437.437 0 0 0-.14-.325l-.941-.957a.503.503 0 0 1 0-.718l.94-.957a.45.45 0 0 0 0-.653l-.991-1.008a.479.479 0 0 1 0-.699l1.027-1.008a.452.452 0 0 0 0-.652l-1.316-1.332v-.48Zm-8.547-9.64a2.012 2.012 0 0 1 2 2.026 2.015 2.015 0 0 1-2.023 2.004A2.015 2.015 0 0 1 8.289 5.18a2.006 2.006 0 0 1 .582-1.426c.375-.379.887-.59 1.418-.59Zm0 0" style="stroke:none;fill-rule:nonzero;fill:url(#g)"/><use xlink:href="#h" mask="url(#i)"/><use xlink:href="#j" mask="url(#k)"/><use xlink:href="#l" mask="url(#m)"/></svg>