<?xml version="1.0" encoding="UTF-8"?>
<svg xmlns="http://www.w3.org/2000/svg" xmlns:xlink="http://www.w3.org/1999/xlink" width="32" height="32" viewBox="0 0 32 32" version="1.1">
<defs>
<linearGradient id="linear0" gradientUnits="userSpaceOnUse" x1="10.56" y1="7.77" x2="10.56" y2="19.24" gradientTransform="matrix(1.777778,0,0,1.777778,0,0)">
<stop offset="0.22" style="stop-color:rgb(19.607843%,83.137256%,96.078432%);stop-opacity:1;"/>
<stop offset="1" style="stop-color:rgb(9.803922%,54.11765%,70.19608%);stop-opacity:1;"/>
</linearGradient>
<filter id="alpha" filterUnits="objectBoundingBox" x="0%" y="0%" width="100%" height="100%">
  <feColorMatrix type="matrix" in="SourceGraphic" values="0 0 0 0 1 0 0 0 0 1 0 0 0 0 1 0 0 0 1 0"/>
</filter>
<mask id="mask0">
  <g filter="url(#alpha)">
<rect x="0" y="0" width="32" height="32" style="fill:rgb(0%,0%,0%);fill-opacity:0.8;stroke:none;"/>
  </g>
</mask>
<clipPath id="clip1">
  <rect x="0" y="0" width="32" height="32"/>
</clipPath>
<g id="surface5" clip-path="url(#clip1)">
<path style=" stroke:none;fill-rule:nonzero;fill:rgb(100%,100%,100%);fill-opacity:1;" d="M 18.792969 17.261719 C 17.46875 17.269531 16.171875 16.890625 15.058594 16.179688 L 18.753906 25.8125 L 22.417969 16.230469 C 21.328125 16.910156 20.074219 17.265625 18.792969 17.261719 "/>
</g>
<linearGradient id="linear1" gradientUnits="userSpaceOnUse" x1="10.23" y1="1.63" x2="11.07" y2="12.04" gradientTransform="matrix(1.777778,0,0,1.777778,0,0)">
<stop offset="0.22" style="stop-color:rgb(19.607843%,83.137256%,96.078432%);stop-opacity:1;"/>
<stop offset="1" style="stop-color:rgb(9.803922%,54.11765%,70.19608%);stop-opacity:1;"/>
</linearGradient>
</defs>
<g id="surface1">
<path style=" stroke:none;fill-rule:nonzero;fill:url(#linear0);" d="M 28.851562 30.523438 C 30.027344 30.542969 31 29.617188 31.039062 28.445312 L 31.039062 28.089844 C 30.167969 21.226562 26.257812 15.644531 18.792969 15.644531 C 11.324219 15.644531 7.269531 20.375 6.507812 28.089844 C 6.382812 29.296875 7.257812 30.375 8.460938 30.507812 L 28.851562 30.507812 Z M 28.851562 30.523438 "/>
<use xlink:href="#surface5" mask="url(#mask0)"/>
<path style=" stroke:none;fill-rule:nonzero;fill:url(#linear1);" d="M 18.792969 3.503906 C 14.992188 3.503906 11.910156 6.582031 11.910156 10.382812 C 11.910156 14.183594 14.992188 17.261719 18.792969 17.261719 C 22.589844 17.261719 25.671875 14.183594 25.671875 10.382812 C 25.671875 6.582031 22.589844 3.503906 18.792969 3.503906 "/>
<path style=" stroke:none;fill-rule:nonzero;fill:rgb(0%,47.058824%,83.137256%);fill-opacity:1;" d="M 10.667969 10.453125 L 10.667969 1.777344 C 10.671875 1.699219 10.644531 1.621094 10.589844 1.566406 C 10.535156 1.507812 10.460938 1.476562 10.382812 1.476562 L 8.125 1.476562 C 8.042969 1.46875 7.960938 1.5 7.898438 1.558594 C 7.839844 1.613281 7.804688 1.695312 7.804688 1.777344 L 7.804688 10.152344 C 7.796875 10.3125 7.664062 10.445312 7.503906 10.453125 L 5.511719 10.453125 C 5.40625 10.4375 5.332031 10.34375 5.332031 10.238281 L 5.332031 7.910156 C 5.335938 7.828125 5.289062 7.753906 5.214844 7.722656 C 5.136719 7.691406 5.050781 7.710938 4.996094 7.769531 L 1.050781 11.679688 C 0.988281 11.734375 0.953125 11.8125 0.953125 11.894531 C 0.953125 11.976562 0.988281 12.050781 1.050781 12.105469 L 4.960938 16 C 4.996094 16.101562 5.105469 16.160156 5.207031 16.125 C 5.3125 16.089844 5.367188 15.980469 5.332031 15.875 L 5.332031 13.527344 C 5.332031 13.425781 5.410156 13.34375 5.511719 13.332031 L 10.382812 13.332031 C 10.542969 13.324219 10.667969 13.191406 10.667969 13.03125 Z M 10.667969 10.453125 "/>
</g>
</svg>
