<svg role="img" viewBox="0 0 18 18" xmlns="http://www.w3.org/2000/svg" xmlns:xlink="http://www.w3.org/1999/xlink"><defs><linearGradient gradientUnits="userSpaceOnUse" id="a" x1="8.15" x2="8.15" y1="17.5" y2="2.09"><stop offset="0" stop-color="#1988d9"/><stop offset=".9" stop-color="#54aef0"/></linearGradient></defs><title>Icon-manage-305</title><path d="M1.93 2.11 3.14.7a.59.59 0 0 1 .45-.2H15.2a.81.81 0 0 1 .89.83v14.5a.57.57 0 0 1-.2.43l-1.3 1.19H2.72l-.81-.33Z" fill="#005ba1"/><path d="m2.91 2.1.74-.84A.5.5 0 0 1 4 1.08h10.89a.52.52 0 0 1 .52.52v13.78a.52.52 0 0 1-.17.39l-1.16 1.05Z" fill="#fff"/><path d="M14 2.09H2a.06.06 0 0 0-.06.06v15a.39.39 0 0 0 .39.38H14a.38.38 0 0 0 .38-.38V2.48a.39.39 0 0 0-.38-.39" fill="url(#a)"/><rect fill="#fff" height="2.38" rx=".28" width="6.58" x="4.72" y="6.2"/></svg>