<svg role="img" viewBox="0 0 18 18" xmlns="http://www.w3.org/2000/svg" xmlns:xlink="http://www.w3.org/1999/xlink"><defs><linearGradient gradientUnits="userSpaceOnUse" id="a" x1="6.7" x2="6.7" y1="7.26" y2="18.36"><stop offset=".22" stop-color="#32d4f5"/><stop offset="1" stop-color="#198ab3"/></linearGradient><linearGradient gradientUnits="userSpaceOnUse" id="b" x1="6.42" x2="7.23" y1="1.32" y2="11.39"><stop offset=".22" stop-color="#32d4f5"/><stop offset="1" stop-color="#198ab3"/></linearGradient></defs><title>Icon-identity-223</title><path d="M17.22 13.92a.79.79 0 0 0 .8-.79A.28.28 0 0 0 18 13c-.31-2.5-1.74-4.54-4.46-4.54S9.35 10.22 9.07 13a.81.81 0 0 0 .72.88h7.43Z" fill="#0078d4"/><path d="M13.55 9.09a2.44 2.44 0 0 1-1.36-.4l1.35 3.52 1.33-3.49a2.54 2.54 0 0 1-1.32.37" fill="#fff" opacity=".8"/><path d="M13.55 4.07a2.51 2.51 0 1 0 0 5.02 2.51 2.51 0 1 0 0-5.02" fill="#0078d4"/><path d="M12.19 16.36a1.19 1.19 0 0 0 1.19-1.19.66.66 0 0 0 0-.14c-.47-3.74-2.6-6.78-6.66-6.78S.44 10.83 0 15a1.2 1.2 0 0 0 1.07 1.31h11.1Z" fill="url(#a)"/><path d="M6.77 9.14a3.72 3.72 0 0 1-2-.6l2 5.25 2-5.21a3.81 3.81 0 0 1-2 .56" fill="#fff" opacity=".8"/><path d="M6.74 1.64a3.75 3.75 0 1 0 0 7.5 3.75 3.75 0 1 0 0-7.5" fill="url(#b)"/></svg>