<svg role="img" viewBox="0 0 51.788 32" xmlns="http://www.w3.org/2000/svg" xmlns:xlink="http://www.w3.org/1999/xlink"><defs><linearGradient gradientTransform="rotate(-.097 -7150.864 -4758.02)scale(2.77537)" gradientUnits="userSpaceOnUse" id="a" x1="9.88" x2="11.52" y1="8.59" y2="10.23"><stop offset="0" style="stop-color:rgb(52.549022%,83.92157%,20%);stop-opacity:1"/><stop offset="1" style="stop-color:rgb(36.862746%,58.823532%,14.117648%);stop-opacity:1"/></linearGradient><linearGradient gradientTransform="translate(1 -8.881)scale(2.77537)" gradientUnits="userSpaceOnUse" id="b" x1="6.18" x2="7.81" y1="8.59" y2="10.23"><stop offset="0" style="stop-color:rgb(52.549022%,83.92157%,20%);stop-opacity:1"/><stop offset="1" style="stop-color:rgb(36.862746%,58.823532%,14.117648%);stop-opacity:1"/></linearGradient><linearGradient gradientTransform="translate(1 -8.881)scale(2.77537)" gradientUnits="userSpaceOnUse" id="c" x1="2.48" x2="4.11" y1="8.59" y2="10.23"><stop offset="0" style="stop-color:rgb(52.549022%,83.92157%,20%);stop-opacity:1"/><stop offset="1" style="stop-color:rgb(36.862746%,58.823532%,14.117648%);stop-opacity:1"/></linearGradient></defs><path d="M39.578 16.07a3.22 3.22 0 1 1-6.44-.002 3.22 3.22 0 0 1 6.44.002m0 0" style="stroke:none;fill-rule:nonzero;fill:url(#a)"/><path d="M29.309 16.098a3.22 3.22 0 1 1-6.443-.002 3.22 3.22 0 0 1 6.443.002m0 0" style="stroke:none;fill-rule:nonzero;fill:url(#b)"/><path d="M19.04 16.098a3.22 3.22 0 1 1-6.44-.001 3.22 3.22 0 0 1 6.44 0m0 0" style="stroke:none;fill-rule:nonzero;fill:url(#c)"/><path d="m18.156 28.969-1.84 1.847a.837.837 0 0 1-1.18 0L1.5 17.215a1.666 1.666 0 0 1-.004-2.356l1.844-1.847 14.816 14.777a.833.833 0 0 1 0 1.18m0 0" style="stroke:none;fill-rule:nonzero;fill:rgb(31.37255%,90.196079%,100%);fill-opacity:1"/><path d="m16.035 1.41 1.848 1.84a.833.833 0 0 1 .004 1.18L3.324 19.03l-1.847-1.843a1.67 1.67 0 0 1-.004-2.356L14.859 1.41a.832.832 0 0 1 1.176 0m0 0" style="stroke:none;fill-rule:nonzero;fill:rgb(7.843138%,56.470591%,87.450981%);fill-opacity:1"/><path d="m48.613 12.988 1.844 1.848a1.666 1.666 0 0 1-.004 2.355L36.816 30.793a.833.833 0 0 1-1.18-.004l-1.84-1.844a.833.833 0 0 1 0-1.18Zm0 0" style="stroke:none;fill-rule:nonzero;fill:rgb(31.37255%,90.196079%,100%);fill-opacity:1"/><path d="m50.45 17.172-1.848 1.84L34.039 4.41a.832.832 0 0 1 .004-1.176l1.867-1.863a.829.829 0 0 1 1.176.004l13.387 13.422a1.666 1.666 0 0 1-.004 2.355Zm0 0" style="stroke:none;fill-rule:nonzero;fill:rgb(7.843138%,56.470591%,87.450981%);fill-opacity:1"/></svg>