<?xml version="1.0" encoding="UTF-8"?>
<svg xmlns="http://www.w3.org/2000/svg" xmlns:xlink="http://www.w3.org/1999/xlink" width="32" height="32" viewBox="0 0 32 32" version="1.1">
<defs>
<linearGradient id="linear0" gradientUnits="userSpaceOnUse" x1="9" y1="15.799" x2="9" y2="5.316" gradientTransform="matrix(1.777778,0,0,1.777778,0,0)">
<stop offset="0" style="stop-color:rgb(19.607843%,74.509805%,86.666667%);stop-opacity:1;"/>
<stop offset="0.775" style="stop-color:rgb(19.607843%,83.137256%,96.078432%);stop-opacity:1;"/>
</linearGradient>
</defs>
<g id="surface1">
<path style=" stroke:none;fill-rule:nonzero;fill:url(#linear0);" d="M 0.96875 9.449219 L 31.03125 9.449219 L 31.03125 27.082031 C 31.03125 27.636719 30.582031 28.085938 30.027344 28.085938 L 1.972656 28.085938 C 1.417969 28.085938 0.96875 27.636719 0.96875 27.082031 Z M 0.96875 9.449219 "/>
<path style=" stroke:none;fill-rule:nonzero;fill:rgb(0%,47.058824%,83.137256%);fill-opacity:1;" d="M 1.976562 3.910156 L 30.023438 3.910156 C 30.578125 3.910156 31.027344 4.359375 31.027344 4.914062 L 31.027344 9.449219 L 0.972656 9.449219 L 0.972656 4.917969 C 0.972656 4.652344 1.078125 4.394531 1.265625 4.207031 C 1.453125 4.015625 1.710938 3.910156 1.976562 3.910156 "/>
<path style=" stroke:none;fill-rule:nonzero;fill:rgb(96.862745%,55.29412%,11.764706%);fill-opacity:1;" d="M 24.050781 13.0625 L 16.683594 13.0625 C 16.605469 13.0625 16.527344 13.039062 16.460938 12.996094 L 14.359375 11.597656 C 14.292969 11.550781 14.21875 11.527344 14.140625 11.527344 L 7.949219 11.527344 C 7.730469 11.527344 7.554688 11.707031 7.554688 11.921875 L 7.554688 24.929688 C 7.554688 25.03125 7.597656 25.132812 7.671875 25.207031 C 7.746094 25.28125 7.84375 25.324219 7.949219 25.324219 L 24.050781 25.324219 C 24.15625 25.324219 24.253906 25.28125 24.328125 25.207031 C 24.402344 25.132812 24.445312 25.03125 24.445312 24.929688 L 24.445312 13.457031 C 24.445312 13.238281 24.269531 13.0625 24.050781 13.0625 "/>
<path style=" stroke:none;fill-rule:nonzero;fill:rgb(100%,100%,100%);fill-opacity:1;" d="M 9.253906 12.285156 L 12.769531 12.285156 C 12.855469 12.285156 12.929688 12.355469 12.929688 12.445312 L 12.929688 12.890625 C 12.929688 12.980469 12.855469 13.050781 12.769531 13.050781 L 9.253906 13.050781 C 9.164062 13.050781 9.089844 12.980469 9.089844 12.890625 L 9.089844 12.445312 C 9.089844 12.355469 9.164062 12.285156 9.253906 12.285156 Z M 9.253906 12.285156 "/>
<path style=" stroke:none;fill-rule:nonzero;fill:rgb(81.960785%,34.901962%,0%);fill-opacity:1;" d="M 9.203125 12.285156 L 9.75 12.285156 C 9.808594 12.285156 9.859375 12.332031 9.859375 12.394531 L 9.859375 12.941406 C 9.859375 13.003906 9.808594 13.050781 9.75 13.050781 L 9.203125 13.050781 C 9.140625 13.050781 9.089844 13.003906 9.089844 12.941406 L 9.089844 12.394531 C 9.089844 12.332031 9.140625 12.285156 9.203125 12.285156 Z M 9.203125 12.285156 "/>
<path style=" stroke:none;fill-rule:nonzero;fill:rgb(100%,100%,100%);fill-opacity:1;" d="M 24.050781 13.042969 L 15.960938 13.042969 C 15.855469 13.042969 15.753906 13.082031 15.679688 13.15625 L 14.378906 14.457031 C 14.304688 14.53125 14.203125 14.574219 14.097656 14.574219 L 7.949219 14.574219 C 7.847656 14.570312 7.746094 14.613281 7.671875 14.6875 C 7.597656 14.761719 7.554688 14.859375 7.554688 14.964844 L 7.554688 24.90625 C 7.554688 25.007812 7.597656 25.109375 7.671875 25.183594 C 7.746094 25.257812 7.84375 25.300781 7.949219 25.300781 L 24.050781 25.300781 C 24.15625 25.300781 24.253906 25.257812 24.328125 25.183594 C 24.402344 25.109375 24.445312 25.007812 24.445312 24.90625 L 24.445312 13.4375 C 24.445312 13.332031 24.402344 13.230469 24.328125 13.15625 C 24.253906 13.085938 24.152344 13.042969 24.050781 13.042969 "/>
</g>
</svg>
