<?xml version="1.0" encoding="UTF-8"?>
<svg xmlns="http://www.w3.org/2000/svg" xmlns:xlink="http://www.w3.org/1999/xlink" width="20.46154" height="32" viewBox="0 0 20.46154 32" version="1.1">
<defs>
<radialGradient id="radial0" gradientUnits="userSpaceOnUse" cx="-36.630001" cy="17.120001" fx="-36.630001" fy="17.120001" r="11.18" gradientTransform="matrix(1.606838,0,0,1.606838,67.282056,-12.136753)">
<stop offset="0.27" style="stop-color:rgb(100%,84.313726%,5.882353%);stop-opacity:1;"/>
<stop offset="0.49" style="stop-color:rgb(100%,79.607844%,7.058824%);stop-opacity:1;"/>
<stop offset="0.88" style="stop-color:rgb(99.607843%,67.450982%,9.803922%);stop-opacity:1;"/>
<stop offset="1" style="stop-color:rgb(99.607843%,63.137257%,10.588235%);stop-opacity:1;"/>
</radialGradient>
<filter id="alpha" filterUnits="objectBoundingBox" x="0%" y="0%" width="100%" height="100%">
  <feColorMatrix type="matrix" in="SourceGraphic" values="0 0 0 0 1 0 0 0 0 1 0 0 0 0 1 0 0 0 1 0"/>
</filter>
<mask id="mask0">
  <g filter="url(#alpha)">
<rect x="0" y="0" width="20.46154" height="32" style="fill:rgb(0%,0%,0%);fill-opacity:0.75;stroke:none;"/>
  </g>
</mask>
<clipPath id="clip1">
  <rect x="0" y="0" width="21" height="32"/>
</clipPath>
<g id="surface5" clip-path="url(#clip1)">
<path style=" stroke:none;fill-rule:nonzero;fill:rgb(100%,57.647061%,0%);fill-opacity:1;" d="M 8.71875 28.222656 C 8.847656 28.300781 9.011719 28.304688 9.148438 28.230469 C 9.28125 28.15625 9.367188 28.015625 9.367188 27.863281 L 9.367188 20.257812 C 9.367188 20.109375 9.300781 19.96875 9.179688 19.878906 C 9.046875 19.789062 8.871094 19.78125 8.730469 19.863281 C 8.589844 19.941406 8.503906 20.09375 8.511719 20.257812 L 8.511719 27.863281 C 8.519531 28.007812 8.597656 28.140625 8.71875 28.222656 Z M 8.71875 28.222656 "/>
</g>
<mask id="mask1">
  <g filter="url(#alpha)">
<rect x="0" y="0" width="20.46154" height="32" style="fill:rgb(0%,0%,0%);fill-opacity:0.75;stroke:none;"/>
  </g>
</mask>
<clipPath id="clip2">
  <rect x="0" y="0" width="21" height="32"/>
</clipPath>
<g id="surface8" clip-path="url(#clip2)">
<path style=" stroke:none;fill-rule:nonzero;fill:rgb(100%,57.647061%,0%);fill-opacity:1;" d="M 5.964844 9.828125 L 14.890625 9.828125 C 15.191406 9.828125 15.4375 10.074219 15.4375 10.375 L 15.4375 10.460938 C 15.4375 10.761719 15.191406 11.007812 14.890625 11.007812 L 5.964844 11.007812 C 5.664062 11.007812 5.417969 10.761719 5.417969 10.460938 L 5.417969 10.375 C 5.417969 10.074219 5.664062 9.828125 5.964844 9.828125 Z M 5.964844 9.828125 "/>
</g>
<mask id="mask2">
  <g filter="url(#alpha)">
<rect x="0" y="0" width="20.46154" height="32" style="fill:rgb(0%,0%,0%);fill-opacity:0.75;stroke:none;"/>
  </g>
</mask>
<clipPath id="clip3">
  <rect x="0" y="0" width="21" height="32"/>
</clipPath>
<g id="surface11" clip-path="url(#clip3)">
<path style=" stroke:none;fill-rule:nonzero;fill:rgb(100%,57.647061%,0%);fill-opacity:1;" d="M 5.964844 11.742188 L 14.890625 11.742188 C 15.191406 11.742188 15.4375 11.988281 15.4375 12.289062 L 15.4375 12.375 C 15.4375 12.679688 15.191406 12.921875 14.890625 12.921875 L 5.964844 12.921875 C 5.664062 12.921875 5.417969 12.679688 5.417969 12.375 L 5.417969 12.289062 C 5.417969 11.988281 5.664062 11.742188 5.964844 11.742188 Z M 5.964844 11.742188 "/>
</g>
</defs>
<g id="surface1">
<path style=" stroke:none;fill-rule:nonzero;fill:url(#radial0);" d="M 18.871094 12.804688 C 19.535156 12.140625 19.910156 11.238281 19.910156 10.300781 C 19.910156 9.359375 19.535156 8.457031 18.871094 7.792969 L 12.785156 1.691406 C 12.125 1.027344 11.226562 0.65625 10.289062 0.65625 C 9.355469 0.65625 8.457031 1.027344 7.792969 1.691406 L 1.710938 7.792969 C 0.34375 9.183594 0.34375 11.414062 1.710938 12.804688 L 6.835938 17.929688 C 7.019531 18.121094 7.121094 18.371094 7.128906 18.632812 L 7.128906 28.070312 C 7.125 28.386719 7.246094 28.695312 7.46875 28.921875 L 9.777344 31.230469 C 9.921875 31.386719 10.128906 31.476562 10.34375 31.476562 C 10.554688 31.476562 10.761719 31.386719 10.90625 31.230469 L 14.460938 27.675781 C 14.550781 27.589844 14.601562 27.472656 14.601562 27.351562 C 14.601562 27.226562 14.550781 27.109375 14.460938 27.027344 L 13.519531 26.070312 C 13.421875 25.976562 13.367188 25.84375 13.367188 25.710938 C 13.367188 25.574219 13.421875 25.445312 13.519531 25.351562 L 14.460938 24.394531 C 14.550781 24.308594 14.601562 24.191406 14.601562 24.070312 C 14.601562 23.945312 14.550781 23.828125 14.460938 23.742188 L 13.46875 22.734375 C 13.371094 22.644531 13.316406 22.515625 13.316406 22.382812 C 13.316406 22.25 13.371094 22.125 13.46875 22.035156 L 14.496094 21.027344 C 14.585938 20.941406 14.636719 20.824219 14.636719 20.699219 C 14.636719 20.578125 14.585938 20.460938 14.496094 20.375 L 13.179688 19.042969 L 13.179688 18.5625 Z M 10.324219 3.164062 C 11.4375 3.171875 12.332031 4.078125 12.324219 5.191406 C 12.320312 6.300781 11.414062 7.199219 10.300781 7.195312 C 9.191406 7.195312 8.289062 6.292969 8.289062 5.179688 C 8.285156 4.644531 8.496094 4.132812 8.871094 3.753906 C 9.246094 3.375 9.757812 3.164062 10.289062 3.164062 Z M 10.324219 3.164062 "/>
<use xlink:href="#surface5" transform="matrix(1,0,0,1,0,0)" mask="url(#mask0)"/>
<use xlink:href="#surface8" transform="matrix(1,0,0,1,0,0)" mask="url(#mask1)"/>
<use xlink:href="#surface11" transform="matrix(1,0,0,1,0,0)" mask="url(#mask2)"/>
</g>
</svg>
