<?xml version="1.0" encoding="UTF-8"?>
<svg xmlns="http://www.w3.org/2000/svg" xmlns:xlink="http://www.w3.org/1999/xlink" width="32" height="32" viewBox="0 0 32 32" version="1.1">
<defs>
<linearGradient id="linear0" gradientUnits="userSpaceOnUse" x1="9" y1="11.95" x2="9" y2="0" gradientTransform="matrix(1.777778,0,0,1.777778,0,0)">
<stop offset="0" style="stop-color:rgb(0%,47.058824%,83.137256%);stop-opacity:1;"/>
<stop offset="0.16" style="stop-color:rgb(7.450981%,50.196081%,85.490197%);stop-opacity:1;"/>
<stop offset="0.53" style="stop-color:rgb(23.529412%,56.862748%,89.803922%);stop-opacity:1;"/>
<stop offset="0.82" style="stop-color:rgb(33.333334%,61.176473%,92.54902%);stop-opacity:1;"/>
<stop offset="1" style="stop-color:rgb(36.862746%,62.7451%,93.725491%);stop-opacity:1;"/>
</linearGradient>
<filter id="alpha" filterUnits="objectBoundingBox" x="0%" y="0%" width="100%" height="100%">
  <feColorMatrix type="matrix" in="SourceGraphic" values="0 0 0 0 1 0 0 0 0 1 0 0 0 0 1 0 0 0 1 0"/>
</filter>
<mask id="mask0">
  <g filter="url(#alpha)">
<rect x="0" y="0" width="32" height="32" style="fill:rgb(0%,0%,0%);fill-opacity:0.75;stroke:none;"/>
  </g>
</mask>
<clipPath id="clip1">
  <rect x="0" y="0" width="32" height="32"/>
</clipPath>
<g id="surface5" clip-path="url(#clip1)">
<path style=" stroke:none;fill-rule:nonzero;fill:rgb(71.764708%,47.843137%,95.686275%);fill-opacity:1;" d="M 12.300781 19.414062 L 12.300781 29.742188 L 15.09375 30.1875 L 15.09375 18.933594 Z M 8.851562 19.980469 L 8.851562 29.011719 L 11.289062 29.511719 L 11.289062 19.574219 Z M 8.851562 19.980469 "/>
</g>
</defs>
<g id="surface1">
<path style=" stroke:none;fill-rule:nonzero;fill:url(#linear0);" d="M 30.988281 14.59375 C 30.890625 11.292969 28.414062 8.550781 25.136719 8.125 C 24.945312 3.476562 21.042969 -0.148438 16.390625 0 C 12.695312 -0.0625 9.363281 2.210938 8.070312 5.671875 C 4.109375 6.128906 1.082031 9.417969 0.960938 13.40625 C 1.023438 15.585938 1.960938 17.652344 3.554688 19.140625 C 5.152344 20.628906 7.277344 21.417969 9.457031 21.332031 L 24.230469 21.332031 C 27.9375 21.296875 30.9375 18.304688 30.988281 14.59375 "/>
<path style=" stroke:none;fill-rule:nonzero;fill:rgb(94.901961%,94.901961%,94.901961%);fill-opacity:1;" d="M 11.308594 11.484375 L 16 6.878906 C 16.101562 6.777344 16.238281 6.71875 16.382812 6.71875 C 16.527344 6.71875 16.664062 6.777344 16.765625 6.878906 L 21.332031 11.484375 C 21.414062 11.550781 21.441406 11.660156 21.402344 11.757812 C 21.359375 11.851562 21.257812 11.910156 21.15625 11.894531 L 18.277344 11.894531 C 18.140625 11.902344 18.035156 12.007812 18.027344 12.140625 L 18.027344 17.902344 C 18.027344 18.011719 17.9375 18.097656 17.832031 18.097656 L 14.738281 18.097656 C 14.628906 18.097656 14.542969 18.011719 14.542969 17.902344 L 14.542969 12.140625 C 14.542969 12.011719 14.441406 11.902344 14.3125 11.894531 L 11.464844 11.894531 C 11.367188 11.898438 11.273438 11.839844 11.238281 11.746094 C 11.203125 11.652344 11.230469 11.546875 11.308594 11.484375 "/>
<path style=" stroke:none;fill-rule:nonzero;fill:rgb(65.098041%,47.843137%,95.686275%);fill-opacity:1;" d="M 24.890625 20.214844 C 24.894531 20.109375 24.828125 20.015625 24.730469 19.980469 L 16.285156 17.15625 L 16 17.15625 L 16 32 L 16.230469 32 L 24.605469 28.65625 C 24.671875 28.671875 24.742188 28.660156 24.796875 28.617188 C 24.851562 28.578125 24.886719 28.511719 24.890625 28.445312 Z M 24.890625 20.214844 "/>
<path style=" stroke:none;fill-rule:nonzero;fill:rgb(33.333334%,18.431373%,60.000002%);fill-opacity:1;" d="M 16 17.207031 L 7.980469 18.683594 C 7.867188 18.699219 7.777344 18.796875 7.769531 18.914062 L 7.769531 29.992188 C 7.773438 30.109375 7.851562 30.207031 7.964844 30.238281 L 16 32 C 16.070312 32.015625 16.144531 32 16.199219 31.953125 C 16.253906 31.910156 16.285156 31.839844 16.285156 31.769531 L 16.285156 17.546875 C 16.320312 17.460938 16.304688 17.363281 16.246094 17.292969 C 16.183594 17.21875 16.089844 17.1875 16 17.207031 "/>
<use xlink:href="#surface5" mask="url(#mask0)"/>
</g>
</svg>
