<?xml version="1.0" encoding="UTF-8"?>
<svg xmlns="http://www.w3.org/2000/svg" xmlns:xlink="http://www.w3.org/1999/xlink" width="32" height="32" viewBox="0 0 32 32" version="1.1">
<defs>
<linearGradient id="linear0" gradientUnits="userSpaceOnUse" x1="9" y1="18.17" x2="9" y2="1.506" gradientTransform="matrix(1.777778,-0.000000000000000526,0.000000000000000526,1.777778,-0.000000000000004737,0)">
<stop offset="0" style="stop-color:rgb(13.725491%,54.11765%,69.01961%);stop-opacity:1;"/>
<stop offset="0.109" style="stop-color:rgb(17.647059%,64.313728%,78.431374%);stop-opacity:1;"/>
<stop offset="0.775" style="stop-color:rgb(24.313726%,82.745099%,94.901961%);stop-opacity:1;"/>
</linearGradient>
</defs>
<g id="surface1">
<path style=" stroke:none;fill-rule:nonzero;fill:url(#linear0);" d="M 0.535156 15.257812 L 15.253906 0.535156 C 15.667969 0.125 16.332031 0.125 16.742188 0.535156 L 31.464844 15.257812 C 31.875 15.667969 31.875 16.332031 31.464844 16.742188 L 16.742188 31.464844 C 16.332031 31.875 15.667969 31.875 15.253906 31.464844 L 0.535156 16.742188 C 0.125 16.332031 0.125 15.667969 0.535156 15.257812 Z M 0.535156 15.257812 "/>
<path style=" stroke:none;fill-rule:nonzero;fill:rgb(61.176473%,92.156863%,100%);fill-opacity:1;" d="M 25.050781 17.898438 L 24.414062 17.261719 L 24.414062 14.808594 L 19.335938 14.808594 L 19.335938 17.511719 L 21.613281 17.511719 L 15.894531 23.234375 L 10.171875 17.511719 L 12.484375 17.511719 L 12.484375 14.808594 L 6.90625 14.808594 L 6.90625 17.511719 L 7.117188 17.511719 L 6.734375 17.898438 L 14.730469 25.894531 L 15.894531 24.734375 L 17.054688 25.894531 Z M 25.050781 17.898438 "/>
<path style=" stroke:none;fill-rule:nonzero;fill:rgb(100%,100%,100%);fill-opacity:1;" d="M 5.074219 14.171875 C 4.339844 14.875 4.050781 15.925781 4.3125 16.910156 C 4.570312 17.894531 5.34375 18.664062 6.332031 18.921875 C 7.320312 19.179688 8.367188 18.882812 9.066406 18.148438 C 9.800781 17.441406 10.089844 16.394531 9.828125 15.410156 C 9.570312 14.425781 8.792969 13.652344 7.808594 13.398438 C 6.820312 13.140625 5.773438 13.4375 5.074219 14.171875 "/>
<path style=" stroke:none;fill-rule:nonzero;fill:rgb(52.549022%,83.92157%,20%);fill-opacity:1;" d="M 5.929688 15.023438 C 5.308594 15.644531 5.316406 16.660156 5.945312 17.285156 C 6.574219 17.914062 7.585938 17.917969 8.207031 17.296875 C 8.625 16.898438 8.792969 16.300781 8.644531 15.738281 C 8.496094 15.175781 8.054688 14.734375 7.492188 14.585938 C 6.925781 14.4375 6.332031 14.605469 5.933594 15.023438 "/>
<path style=" stroke:none;fill-rule:nonzero;fill:rgb(100%,100%,100%);fill-opacity:1;" d="M 22.917969 14.171875 C 22.203125 14.882812 21.929688 15.917969 22.191406 16.890625 C 22.457031 17.867188 23.21875 18.625 24.195312 18.886719 C 25.167969 19.144531 26.203125 18.863281 26.910156 18.148438 C 27.621094 17.441406 27.898438 16.402344 27.636719 15.429688 C 27.371094 14.457031 26.609375 13.695312 25.632812 13.4375 C 24.660156 13.175781 23.621094 13.457031 22.917969 14.171875 "/>
<path style=" stroke:none;fill-rule:nonzero;fill:rgb(52.549022%,83.92157%,20%);fill-opacity:1;" d="M 23.777344 15.023438 C 23.359375 15.421875 23.191406 16.019531 23.339844 16.582031 C 23.488281 17.144531 23.929688 17.585938 24.492188 17.734375 C 25.054688 17.882812 25.652344 17.714844 26.050781 17.296875 C 26.46875 16.898438 26.636719 16.300781 26.488281 15.738281 C 26.339844 15.175781 25.898438 14.734375 25.335938 14.585938 C 24.769531 14.4375 24.175781 14.605469 23.777344 15.023438 "/>
<path style=" stroke:none;fill-rule:nonzero;fill:rgb(100%,100%,100%);fill-opacity:1;" d="M 19.625 8.542969 L 16.070312 4.988281 C 16.019531 4.9375 15.953125 4.910156 15.882812 4.910156 C 15.8125 4.910156 15.742188 4.9375 15.691406 4.988281 L 12.136719 8.542969 C 12.058594 8.621094 12.035156 8.734375 12.078125 8.835938 C 12.117188 8.9375 12.214844 9 12.324219 9 L 14.34375 9 C 14.449219 9 14.535156 9.085938 14.535156 9.191406 L 14.535156 27.4375 L 17.246094 27.4375 L 17.246094 9.191406 C 17.246094 9.089844 17.320312 9.007812 17.421875 9 L 19.433594 9 C 19.542969 9.003906 19.644531 8.9375 19.683594 8.839844 C 19.726562 8.738281 19.703125 8.621094 19.625 8.542969 M 13.886719 23.148438 C 13.175781 23.855469 12.898438 24.894531 13.164062 25.867188 C 13.425781 26.839844 14.191406 27.601562 15.164062 27.863281 C 16.140625 28.121094 17.175781 27.839844 17.882812 27.125 C 18.59375 26.417969 18.871094 25.378906 18.605469 24.40625 C 18.34375 23.433594 17.578125 22.671875 16.605469 22.410156 C 15.628906 22.152344 14.59375 22.433594 13.886719 23.148438 "/>
<path style=" stroke:none;fill-rule:nonzero;fill:rgb(52.549022%,83.92157%,20%);fill-opacity:1;" d="M 14.746094 24 C 14.125 24.625 14.132812 25.636719 14.761719 26.265625 C 15.390625 26.894531 16.402344 26.898438 17.027344 26.273438 C 17.648438 25.652344 17.640625 24.636719 17.011719 24.007812 C 16.382812 23.378906 15.367188 23.375 14.746094 24 "/>
</g>
</svg>
