<?xml version="1.0" encoding="UTF-8"?>
<svg xmlns="http://www.w3.org/2000/svg" xmlns:xlink="http://www.w3.org/1999/xlink" width="32" height="32" viewBox="0 0 32 32" version="1.1">
<defs>
<linearGradient id="linear0" gradientUnits="userSpaceOnUse" x1="-6518.779785" y1="1118.859985" x2="-6518.779785" y2="1090.060059" gradientTransform="matrix(0.888889,0,0,-0.888889,5808.746528,995.53776)">
<stop offset="0" style="stop-color:rgb(36.862746%,62.7451%,93.725491%);stop-opacity:1;"/>
<stop offset="0.18" style="stop-color:rgb(34.509805%,61.960787%,92.941177%);stop-opacity:1;"/>
<stop offset="0.41" style="stop-color:rgb(28.235295%,59.215689%,91.37255%);stop-opacity:1;"/>
<stop offset="0.66" style="stop-color:rgb(18.039216%,54.901963%,88.235295%);stop-opacity:1;"/>
<stop offset="0.94" style="stop-color:rgb(3.921569%,48.627451%,84.313726%);stop-opacity:1;"/>
<stop offset="1" style="stop-color:rgb(0%,47.058824%,83.137256%);stop-opacity:1;"/>
</linearGradient>
</defs>
<g id="surface1">
<path style=" stroke:none;fill-rule:nonzero;fill:url(#linear0);" d="M 10.078125 18.863281 L 17.777344 18.863281 L 17.777344 26.542969 L 10.078125 26.542969 Z M 1.191406 8.621094 L 8.890625 8.621094 L 8.890625 0.941406 L 2.1875 0.941406 C 1.597656 0.941406 1.121094 1.417969 1.121094 2.007812 Z M 2.257812 26.542969 L 8.890625 26.542969 L 8.890625 18.863281 L 1.121094 18.863281 L 1.121094 25.476562 C 1.121094 26.066406 1.597656 26.542969 2.1875 26.542969 Z M 1.191406 17.652344 L 8.890625 17.652344 L 8.890625 9.902344 L 1.121094 9.902344 Z M 19.109375 26.542969 L 25.722656 26.542969 C 26.3125 26.542969 26.792969 26.066406 26.792969 25.476562 L 26.792969 18.863281 L 19.039062 18.863281 Z M 10.222656 17.652344 L 17.777344 17.652344 L 17.777344 9.902344 L 10.078125 9.902344 Z M 19.109375 17.652344 L 26.667969 17.652344 L 26.667969 9.902344 L 19.039062 9.902344 Z M 19.109375 1.011719 L 19.109375 8.621094 L 26.667969 8.621094 L 26.667969 2.007812 C 26.667969 1.417969 26.1875 0.941406 25.601562 0.941406 Z M 10.222656 8.691406 L 17.777344 8.691406 L 17.777344 0.941406 L 10.078125 0.941406 Z M 10.222656 8.691406 "/>
<path style=" stroke:none;fill-rule:nonzero;fill:rgb(19.607843%,74.509805%,86.666667%);fill-opacity:1;" d="M 30.878906 19.023438 L 30.878906 27.039062 L 24 31.058594 L 24 23.039062 Z M 30.878906 19.023438 "/>
<path style=" stroke:none;fill-rule:nonzero;fill:rgb(61.176473%,92.156863%,100%);fill-opacity:1;" d="M 30.878906 19.023438 L 24 23.058594 L 17.121094 19.023438 L 24 15.003906 Z M 30.878906 19.023438 "/>
<path style=" stroke:none;fill-rule:nonzero;fill:rgb(31.37255%,90.196079%,100%);fill-opacity:1;" d="M 24 23.058594 L 24 31.058594 L 17.121094 27.039062 L 17.121094 19.023438 Z M 24 23.058594 "/>
<path style=" stroke:none;fill-rule:nonzero;fill:rgb(61.176473%,92.156863%,100%);fill-opacity:1;" d="M 17.121094 27.039062 L 24 23.039062 L 24 31.058594 Z M 17.121094 27.039062 "/>
<path style=" stroke:none;fill-rule:nonzero;fill:rgb(31.37255%,90.196079%,100%);fill-opacity:1;" d="M 30.878906 27.039062 L 24 23.039062 L 24 31.058594 Z M 30.878906 27.039062 "/>
</g>
</svg>
