<?xml version="1.0" encoding="UTF-8"?>
<svg xmlns="http://www.w3.org/2000/svg" xmlns:xlink="http://www.w3.org/1999/xlink" width="32" height="32" viewBox="0 0 32 32" version="1.1">
<defs>
<linearGradient id="linear0" gradientUnits="userSpaceOnUse" x1="9" y1="15.83" x2="9" y2="5.79" gradientTransform="matrix(1.777778,0,0,1.777778,0,0)">
<stop offset="0" style="stop-color:rgb(19.607843%,74.509805%,86.666667%);stop-opacity:1;"/>
<stop offset="0.18" style="stop-color:rgb(19.607843%,79.215688%,91.764706%);stop-opacity:1;"/>
<stop offset="0.41" style="stop-color:rgb(19.607843%,82.352942%,94.901961%);stop-opacity:1;"/>
<stop offset="0.78" style="stop-color:rgb(19.607843%,83.137256%,96.078432%);stop-opacity:1;"/>
</linearGradient>
</defs>
<g id="surface1">
<path style=" stroke:none;fill-rule:nonzero;fill:url(#linear0);" d="M 0.890625 10.292969 L 31.109375 10.292969 L 31.109375 27.148438 C 31.109375 27.707031 30.65625 28.160156 30.097656 28.160156 L 1.902344 28.160156 C 1.34375 28.160156 0.890625 27.707031 0.890625 27.148438 Z M 0.890625 10.292969 "/>
<path style=" stroke:none;fill-rule:nonzero;fill:rgb(46.27451%,46.27451%,46.27451%);fill-opacity:1;" d="M 1.902344 3.859375 L 30.097656 3.859375 C 30.65625 3.859375 31.109375 4.3125 31.109375 4.871094 L 31.109375 10.292969 L 0.890625 10.292969 L 0.890625 4.851562 C 0.898438 4.300781 1.347656 3.859375 1.902344 3.859375 "/>
<path style=" stroke:none;fill-rule:nonzero;fill:rgb(94.901961%,94.901961%,94.901961%);fill-opacity:1;" d="M 22.792969 15.664062 C 21.4375 15.664062 20.335938 16.761719 20.335938 18.117188 C 20.335938 19.46875 21.4375 20.570312 22.792969 20.570312 C 24.144531 20.570312 25.246094 19.46875 25.246094 18.117188 C 25.246094 16.761719 24.144531 15.664062 22.792969 15.664062 M 16.105469 15.664062 C 14.75 15.664062 13.652344 16.761719 13.652344 18.117188 C 13.652344 19.46875 14.75 20.570312 16.105469 20.570312 C 17.460938 20.570312 18.558594 19.46875 18.558594 18.117188 C 18.558594 16.761719 17.460938 15.664062 16.105469 15.664062 M 9.207031 15.664062 C 7.855469 15.664062 6.753906 16.761719 6.753906 18.117188 C 6.753906 19.46875 7.855469 20.570312 9.207031 20.570312 C 10.5625 20.570312 11.664062 19.46875 11.664062 18.117188 C 11.664062 16.761719 10.5625 15.664062 9.207031 15.664062 "/>
<path style=" stroke:none;fill-rule:nonzero;fill:rgb(94.901961%,94.901961%,94.901961%);fill-opacity:1;" d="M 5.457031 5.777344 L 26.558594 5.777344 C 26.835938 5.777344 27.058594 6 27.058594 6.277344 L 27.058594 7.875 C 27.058594 8.152344 26.835938 8.375 26.558594 8.375 L 5.457031 8.375 C 5.183594 8.375 4.960938 8.152344 4.960938 7.875 L 4.960938 6.277344 C 4.960938 6 5.183594 5.777344 5.457031 5.777344 Z M 5.457031 5.777344 "/>
</g>
</svg>
