<svg role="img" viewBox="0 0 18 18" xmlns="http://www.w3.org/2000/svg" xmlns:xlink="http://www.w3.org/1999/xlink"><defs><linearGradient gradientUnits="userSpaceOnUse" id="a" x1="9" x2="9" y1="6.88" y2="20.45"><stop offset=".22" stop-color="#32d4f5"/><stop offset="1" stop-color="#198ab3"/></linearGradient><linearGradient gradientUnits="userSpaceOnUse" id="b" x1="8.61" x2="9.6" y1="-.4" y2="11.92"><stop offset=".22" stop-color="#32d4f5"/><stop offset="1" stop-color="#198ab3"/></linearGradient></defs><title>Icon-identity-230</title><path d="M15.72 18a1.45 1.45 0 0 0 1.45-1.45.47.47 0 0 0 0-.17C16.59 11.81 14 8.09 9 8.09s-7.66 3.15-8.17 8.3A1.46 1.46 0 0 0 2.14 18z" fill="url(#a)"/><path d="M9 9.17a4.59 4.59 0 0 1-2.48-.73L9 14.86l2.44-6.38A4.53 4.53 0 0 1 9 9.17" fill="#fff" opacity=".8"/><path d="M9.01 0a4.58 4.58 0 1 0 0 9.16 4.58 4.58 0 1 0 0-9.16" fill="url(#b)"/></svg>