<svg role="img" viewBox="0 0 18 18" xmlns="http://www.w3.org/2000/svg" xmlns:xlink="http://www.w3.org/1999/xlink"><defs><linearGradient gradientUnits="userSpaceOnUse" id="a" x1="10.31" x2="10.31" y1="12.7" y2="6.83"><stop offset="0" stop-color="#0078d4"/><stop offset=".82" stop-color="#5ea0ef"/></linearGradient><linearGradient gradientUnits="userSpaceOnUse" id="b" x1="10.31" x2="10.31" y1="14.97" y2="12.7"><stop offset=".15" stop-color="#ccc"/><stop offset="1" stop-color="#707070"/></linearGradient></defs><title>Icon-compute-25</title><path d="M2.12.5h1.97v.57H2.12zm14.51.57h.32v.31h.55V.5h-.87zM1.41 16.89h-.28v-.32H.5v.93h.91zm15.54-.29v.29h-.32v.61h.87v-.9zM1.13 1.36v-.29h.28V.5H.5v.86z" fill="#0078d4"/><rect fill="#0078d4" height="5.88" rx=".29" width="8.79" x="3.37" y="3.55"/><path d="M9.23 5.64v1.71l-1.46.86V6.49z" fill="#50e6ff"/><path d="m9.23 5.64-1.46.86-1.47-.86 1.47-.86z" fill="#c3f1ff"/><path d="M7.77 6.5v1.71L6.3 7.35V5.64z" fill="#9cebff"/><rect fill="url(#a)" height="5.88" rx=".29" width="8.79" x="5.91" y="6.83"/><path d="M11.77 8.91v1.71l-1.46.86V9.77z" fill="#50e6ff"/><path d="m11.77 8.91-1.46.86-1.47-.86 1.47-.86z" fill="#c3f1ff"/><path d="M10.31 9.77v1.71l-1.47-.86V8.91z" fill="#9cebff"/><path d="m8.84 10.62 1.47-.85v1.71z" fill="#c3f1ff"/><path d="m11.77 10.62-1.46-.85v1.71z" fill="#9cebff"/><path d="M12.07 14.48c-.87-.14-.9-.77-.9-1.78H9.44c0 1 0 1.64-.9 1.78a.51.51 0 0 0-.43.49h4.4a.51.51 0 0 0-.44-.49" fill="url(#b)"/><path d="M5.07.5h1.97v.57H5.07zm2.94 0h1.97v.57H8.01zm2.95 0h1.97v.57h-1.97zm2.95 0h1.97v.57h-1.97zM2.14 16.89h1.97v.57H2.14zm2.94 0h1.97v.57H5.08zm2.95 0H10v.57H8.03zm2.95 0h1.97v.57h-1.97zm2.94 0h1.97v.57h-1.97zm3.01-14.84h.57v1.97h-.57zm0 2.94h.57v1.97h-.57zm0 2.95h.57v1.97h-.57zm0 2.94h.57v1.97h-.57zm0 2.95h.57v1.97h-.57zM.5 2.03h.57V4H.5zm0 2.95h.57v1.97H.5zm0 2.94h.57v1.97H.5zm0 2.95h.57v1.97H.5zm0 2.94h.57v1.97H.5z" fill="#0078d4"/></svg>