<?xml version="1.0" encoding="UTF-8"?>
<svg xmlns="http://www.w3.org/2000/svg" xmlns:xlink="http://www.w3.org/1999/xlink" width="32" height="32" viewBox="0 0 32 32" version="1.1">
<defs>
<linearGradient id="linear0" gradientUnits="userSpaceOnUse" x1="9.5" y1="7.37" x2="17.5" y2="7.37" gradientTransform="matrix(1.777778,0,0,1.777778,0,0)">
<stop offset="0" style="stop-color:rgb(0%,35.686275%,63.137257%);stop-opacity:1;"/>
<stop offset="0.07" style="stop-color:rgb(0%,37.64706%,66.274512%);stop-opacity:1;"/>
<stop offset="0.36" style="stop-color:rgb(0%,44.313726%,78.431374%);stop-opacity:1;"/>
<stop offset="0.52" style="stop-color:rgb(0%,47.058824%,83.137256%);stop-opacity:1;"/>
<stop offset="1" style="stop-color:rgb(0%,35.686275%,63.137257%);stop-opacity:1;"/>
</linearGradient>
<linearGradient id="linear1" gradientUnits="userSpaceOnUse" x1="0.5" y1="7.37" x2="8.5" y2="7.37" gradientTransform="matrix(1.777778,0,0,1.777778,0,0)">
<stop offset="0" style="stop-color:rgb(0%,35.686275%,63.137257%);stop-opacity:1;"/>
<stop offset="0.07" style="stop-color:rgb(0%,37.64706%,66.274512%);stop-opacity:1;"/>
<stop offset="0.36" style="stop-color:rgb(0%,44.313726%,78.431374%);stop-opacity:1;"/>
<stop offset="0.52" style="stop-color:rgb(0%,47.058824%,83.137256%);stop-opacity:1;"/>
<stop offset="1" style="stop-color:rgb(0%,35.686275%,63.137257%);stop-opacity:1;"/>
</linearGradient>
<linearGradient id="linear2" gradientUnits="userSpaceOnUse" x1="5" y1="11.9" x2="13" y2="11.9" gradientTransform="matrix(1.777778,0,0,1.777778,0,0)">
<stop offset="0" style="stop-color:rgb(0%,35.686275%,63.137257%);stop-opacity:1;"/>
<stop offset="0.07" style="stop-color:rgb(0%,37.64706%,66.274512%);stop-opacity:1;"/>
<stop offset="0.36" style="stop-color:rgb(0%,44.313726%,78.431374%);stop-opacity:1;"/>
<stop offset="0.52" style="stop-color:rgb(0%,47.058824%,83.137256%);stop-opacity:1;"/>
<stop offset="1" style="stop-color:rgb(0%,35.686275%,63.137257%);stop-opacity:1;"/>
</linearGradient>
</defs>
<g id="surface1">
<path style=" stroke:none;fill-rule:nonzero;fill:url(#linear0);" d="M 24 8.214844 C 20.070312 8.214844 16.890625 7.199219 16.890625 5.9375 L 16.890625 18.007812 C 16.890625 19.234375 20.019531 20.25 23.910156 20.265625 L 24 20.265625 C 27.929688 20.265625 31.109375 19.253906 31.109375 18.007812 L 31.109375 5.9375 C 31.109375 7.199219 27.929688 8.214844 24 8.214844 "/>
<path style=" stroke:none;fill-rule:nonzero;fill:rgb(90.980393%,90.980393%,90.980393%);fill-opacity:1;" d="M 31.109375 5.9375 C 31.109375 7.199219 27.929688 8.214844 24 8.214844 C 20.070312 8.214844 16.890625 7.199219 16.890625 5.9375 C 16.890625 4.675781 20.070312 3.679688 24 3.679688 C 27.929688 3.679688 31.109375 4.691406 31.109375 5.9375 "/>
<path style=" stroke:none;fill-rule:nonzero;fill:rgb(31.37255%,90.196079%,100%);fill-opacity:1;" d="M 29.457031 5.761719 C 29.457031 6.558594 27.003906 7.199219 24 7.199219 C 20.996094 7.199219 18.542969 6.558594 18.542969 5.761719 C 18.542969 4.960938 20.996094 4.320312 24 4.320312 C 27.003906 4.320312 29.457031 4.960938 29.457031 5.761719 "/>
<path style=" stroke:none;fill-rule:nonzero;fill:rgb(19.607843%,74.509805%,86.666667%);fill-opacity:1;" d="M 24 6.097656 C 22.542969 6.070312 21.085938 6.25 19.679688 6.632812 C 21.082031 7.046875 22.539062 7.238281 24 7.199219 C 25.460938 7.238281 26.917969 7.046875 28.320312 6.632812 C 26.914062 6.25 25.457031 6.070312 24 6.097656 "/>
<path style=" stroke:none;fill-rule:nonzero;fill:url(#linear1);" d="M 8 8.214844 C 4.070312 8.214844 0.890625 7.199219 0.890625 5.9375 L 0.890625 18.007812 C 0.890625 19.234375 4.019531 20.25 8 20.265625 C 11.929688 20.265625 15.109375 19.253906 15.109375 18.007812 L 15.109375 5.9375 C 15.109375 7.199219 11.929688 8.214844 8 8.214844 "/>
<path style=" stroke:none;fill-rule:nonzero;fill:rgb(90.980393%,90.980393%,90.980393%);fill-opacity:1;" d="M 15.109375 5.9375 C 15.109375 7.199219 11.929688 8.214844 8 8.214844 C 4.070312 8.214844 0.890625 7.199219 0.890625 5.9375 C 0.890625 4.675781 4.070312 3.679688 8 3.679688 C 11.929688 3.679688 15.109375 4.691406 15.109375 5.9375 "/>
<path style=" stroke:none;fill-rule:nonzero;fill:rgb(31.37255%,90.196079%,100%);fill-opacity:1;" d="M 13.457031 5.761719 C 13.457031 6.558594 11.003906 7.199219 8 7.199219 C 4.996094 7.199219 2.542969 6.558594 2.542969 5.761719 C 2.542969 4.960938 4.996094 4.320312 8 4.320312 C 11.003906 4.320312 13.457031 4.960938 13.457031 5.761719 "/>
<path style=" stroke:none;fill-rule:nonzero;fill:rgb(19.607843%,74.509805%,86.666667%);fill-opacity:1;" d="M 8 6.097656 C 6.542969 6.070312 5.085938 6.25 3.679688 6.632812 C 5.082031 7.046875 6.539062 7.238281 8 7.199219 C 9.460938 7.238281 10.917969 7.046875 12.320312 6.632812 C 10.914062 6.25 9.457031 6.070312 8 6.097656 "/>
<path style=" stroke:none;fill-rule:nonzero;fill:url(#linear2);" d="M 16 16.265625 C 12.070312 16.265625 8.890625 15.253906 8.890625 13.992188 L 8.890625 26.0625 C 8.890625 27.308594 12.019531 28.300781 15.910156 28.320312 L 16 28.320312 C 19.929688 28.320312 23.109375 27.308594 23.109375 26.0625 L 23.109375 13.992188 C 23.109375 15.253906 19.929688 16.265625 16 16.265625 "/>
<path style=" stroke:none;fill-rule:nonzero;fill:rgb(90.980393%,90.980393%,90.980393%);fill-opacity:1;" d="M 23.109375 13.992188 C 23.109375 15.253906 19.929688 16.265625 16 16.265625 C 12.070312 16.265625 8.890625 15.253906 8.890625 13.992188 C 8.890625 12.730469 12.070312 11.734375 16 11.734375 C 19.929688 11.734375 23.109375 12.746094 23.109375 13.992188 "/>
<path style=" stroke:none;fill-rule:nonzero;fill:rgb(31.37255%,90.196079%,100%);fill-opacity:1;" d="M 21.457031 13.8125 C 21.457031 14.613281 19.003906 15.253906 16 15.253906 C 12.996094 15.253906 10.542969 14.613281 10.542969 13.8125 C 10.542969 13.011719 12.996094 12.445312 16 12.445312 C 19.003906 12.445312 21.457031 13.085938 21.457031 13.882812 "/>
<path style=" stroke:none;fill-rule:nonzero;fill:rgb(19.607843%,74.509805%,86.666667%);fill-opacity:1;" d="M 16 14.222656 C 14.542969 14.195312 13.085938 14.375 11.679688 14.753906 C 13.085938 15.148438 14.542969 15.316406 16 15.253906 C 17.460938 15.292969 18.917969 15.101562 20.320312 14.683594 C 18.910156 14.328125 17.453125 14.171875 16 14.222656 "/>
</g>
</svg>
