<svg role="img" viewBox="0 0 37.25 32" xmlns="http://www.w3.org/2000/svg" xmlns:xlink="http://www.w3.org/1999/xlink"><defs><linearGradient gradientTransform="translate(.719 -1.896)scale(1.99626)" gradientUnits="userSpaceOnUse" id="a" x1="9" x2="9" y1="14.071" y2="1.313"><stop offset="0" style="stop-color:rgb(0%,47.058824%,83.137256%);stop-opacity:1"/><stop offset=".156" style="stop-color:rgb(7.450981%,50.196081%,85.490197%);stop-opacity:1"/><stop offset=".528" style="stop-color:rgb(23.529412%,56.862748%,89.803922%);stop-opacity:1"/><stop offset=".822" style="stop-color:rgb(33.333334%,61.176473%,92.54902%);stop-opacity:1"/><stop offset="1" style="stop-color:rgb(36.862746%,62.7451%,93.725491%);stop-opacity:1"/></linearGradient></defs><path d="M36.652 18.215a8.073 8.073 0 0 0-7.007-7.758C29.402 4.891 24.73.555 19.165.727a10.434 10.434 0 0 0-9.981 6.8 9.632 9.632 0 0 0-8.465 9.27c.207 5.383 4.73 9.586 10.117 9.394.3 0 .598-.011.89-.035H28.11a1.8 1.8 0 0 0 .434-.066 8.175 8.175 0 0 0 8.11-7.875m0 0" style="stroke:none;fill-rule:nonzero;fill:url(#a)"/><path d="M24.809 21.672h-12.7a.553.553 0 0 0-.562.539v3.457a.553.553 0 0 0 .562.539h12.7a.55.55 0 0 0 .558-.539v-3.457a.552.552 0 0 0-.558-.54m0 0" style="stroke:none;fill-rule:nonzero;fill:rgb(19.607843%,74.509805%,86.666667%);fill-opacity:1"/><path d="M24.809 26.879h-12.7a.553.553 0 0 0-.562.539v3.457a.55.55 0 0 0 .562.54h12.7a.544.544 0 0 0 .558-.54v-3.457a.554.554 0 0 0-.558-.54m0 0" style="stroke:none;fill-rule:nonzero;fill:rgb(9.803922%,54.11765%,70.19608%);fill-opacity:1"/><path d="M23.215 22.52h.746c.078 0 .144.066.144.144v.711a.138.138 0 0 1-.136.137h-.758a.136.136 0 0 1-.137-.137v-.719c0-.074.067-.136.14-.136m-.004 1.71h.754a.14.14 0 0 1 .14.141v.707a.143.143 0 0 1-.14.145h-.75a.143.143 0 0 1-.14-.145v-.71c0-.04.01-.075.038-.098a.121.121 0 0 1 .098-.04m.043 3.473h.75c.082 0 .144.063.144.145v.707a.14.14 0 0 1-.136.14h-.75a.144.144 0 0 1-.145-.144v-.703a.135.135 0 0 1 .035-.102.142.142 0 0 1 .102-.043m0 1.707h.75c.082 0 .144.067.144.145v.71a.138.138 0 0 1-.136.137h-.758a.138.138 0 0 1-.137-.136v-.72c0-.073.063-.136.137-.136m0 0" style="stroke:none;fill-rule:nonzero;fill:rgb(70.588237%,92.54902%,21.176471%);fill-opacity:1"/><path d="M24.688 16.055H11.992a.548.548 0 0 0-.394.156.535.535 0 0 0-.168.387v3.465a.547.547 0 0 0 .558.539h12.7a.55.55 0 0 0 .562-.54v-3.464a.556.556 0 0 0-.562-.543m0 0" style="stroke:none;fill-rule:nonzero;fill:rgb(31.37255%,90.196079%,100%);fill-opacity:1"/><path d="M23.094 16.906h.75c.078 0 .144.063.144.145v.71a.14.14 0 0 1-.14.137h-.75a.142.142 0 0 1-.145-.144v-.711c0-.035.016-.07.04-.098a.156.156 0 0 1 .1-.039m0 1.707h.75c.078 0 .144.067.144.145v.707a.14.14 0 0 1-.14.137h-.754a.14.14 0 0 1-.14-.137v-.719a.141.141 0 0 1 .14-.133m.851-5.738-4.851 4.852a.575.575 0 0 1-.817 0l-4.851-4.852a.258.258 0 0 1-.055-.281.26.26 0 0 1 .238-.16h2.98a.255.255 0 0 0 .259-.258V6.117a.2.2 0 0 1 .199-.199h3.265c.114 0 .2.09.2.2v6.062c0 .14.117.258.258.258h2.984c.105-.004.2.058.242.156a.251.251 0 0 1-.05.281m0 0" style="stroke:none;fill-rule:nonzero;fill:rgb(100%,100%,100%);fill-opacity:1"/></svg>