<svg role="img" viewBox="0 0 18 18" xmlns="http://www.w3.org/2000/svg" xmlns:xlink="http://www.w3.org/1999/xlink"><defs><linearGradient gradientUnits="userSpaceOnUse" id="a" x1="2.94" x2="8.67" y1="3.74" y2="3.74"><stop offset="0" stop-color="#b77af4"/><stop offset="1" stop-color="#773adc"/></linearGradient><linearGradient gradientUnits="userSpaceOnUse" id="b" x1="9.13" x2="14.85" y1="3.79" y2="3.79"><stop offset="0" stop-color="#b77af4"/><stop offset="1" stop-color="#773adc"/></linearGradient><linearGradient gradientUnits="userSpaceOnUse" id="c" x1=".01" x2="5.73" y1="9.12" y2="9.12"><stop offset="0" stop-color="#b77af4"/><stop offset="1" stop-color="#773adc"/></linearGradient><linearGradient gradientUnits="userSpaceOnUse" id="d" x1="6.18" x2="11.9" y1="9.08" y2="9.08"><stop offset="0" stop-color="#b77af4"/><stop offset="1" stop-color="#773adc"/></linearGradient><linearGradient gradientUnits="userSpaceOnUse" id="e" x1="12.35" x2="18.08" y1="9.13" y2="9.13"><stop offset="0" stop-color="#b77af4"/><stop offset="1" stop-color="#773adc"/></linearGradient><linearGradient gradientUnits="userSpaceOnUse" id="f" x1="2.87" x2="8.6" y1="14.56" y2="14.56"><stop offset="0" stop-color="#b77af4"/><stop offset="1" stop-color="#773adc"/></linearGradient><linearGradient gradientUnits="userSpaceOnUse" id="g" x1="9.05" x2="14.78" y1="14.6" y2="14.6"><stop offset="0" stop-color="#b77af4"/><stop offset="1" stop-color="#773adc"/></linearGradient></defs><title>Icon-compute-23</title><path d="m5.8 1.22-2.86.53v3.9l2.86.61 2.87-1.15V2.2z" fill="url(#a)"/><path d="M2.94 1.75v3.9l2.89.61v-5Zm1.22 3.6-.81-.16v-3l.81-.13Zm1.26.23-.93-.15V2l.93-.16Z" fill="#341a6e"/><path d="m11.99 1.27-2.86.53v3.9l2.86.61 2.86-1.16v-2.9z" fill="url(#b)"/><path d="M9.13 1.8v3.9l2.87.61v-5Zm1.21 3.6-.81-.16v-3l.81-.13Zm1.26.23-.93-.15V2.05l.93-.17Z" fill="#341a6e"/><path d="m2.87 6.6-2.86.53v3.9l2.86.61 2.87-1.15V7.58z" fill="url(#c)"/><path d="M0 7.13V11l2.89.61v-5Zm1.21 3.61-.81-.17v-3l.81-.14Zm1.27.26-.93-.15V7.38l.93-.16Z" fill="#341a6e"/><path d="m9.04 6.56-2.86.53v3.9l2.86.62 2.86-1.16V7.54z" fill="url(#d)"/><path d="M6.18 7.09V11l2.88.61v-5Zm1.21 3.61-.81-.17v-3l.81-.14Zm1.26.22-.93-.15V7.34l.93-.16Z" fill="#341a6e"/><path d="m15.21 6.61-2.86.53v3.9l2.86.61 2.87-1.15V7.59z" fill="url(#e)"/><path d="M12.35 7.14V11l2.89.61v-5Zm1.22 3.61-.81-.17v-3l.81-.14Zm1.26.22-.93-.15V7.39l.93-.16Z" fill="#341a6e"/><path d="m5.73 12.04-2.86.52v3.9l2.86.62 2.87-1.16v-2.9z" fill="url(#f)"/><path d="M2.87 12.56v3.9l2.89.62V12Zm1.22 3.61L3.28 16v-3l.81-.14Zm1.26.23-.93-.15v-3.44l.93-.16Z" fill="#341a6e"/><path d="m11.91 12.08-2.86.53v3.9l2.86.61 2.87-1.15v-2.91z" fill="url(#g)"/><path d="M9.05 12.61v3.9l2.89.61v-5Zm1.22 3.61-.81-.17v-3l.81-.14Zm1.26.22-.93-.15v-3.43l.93-.16Z" fill="#341a6e"/></svg>