<?xml version="1.0" encoding="UTF-8"?>
<svg xmlns="http://www.w3.org/2000/svg" xmlns:xlink="http://www.w3.org/1999/xlink" width="32" height="32" viewBox="0 0 32 32" version="1.1">
<defs>
<linearGradient id="linear0" gradientUnits="userSpaceOnUse" x1="8.59" y1="-7.79" x2="9.12" y2="20.049999" gradientTransform="matrix(1.777778,0,0,1.777778,0,0)">
<stop offset="0.22" style="stop-color:rgb(19.607843%,83.137256%,96.078432%);stop-opacity:1;"/>
<stop offset="0.47" style="stop-color:rgb(19.215687%,81.960785%,95.294118%);stop-opacity:1;"/>
<stop offset="0.63" style="stop-color:rgb(18.039216%,78.823531%,92.156863%);stop-opacity:1;"/>
<stop offset="0.77" style="stop-color:rgb(16.078432%,72.941178%,87.058824%);stop-opacity:1;"/>
<stop offset="0.89" style="stop-color:rgb(13.333334%,64.705884%,79.607844%);stop-opacity:1;"/>
<stop offset="1" style="stop-color:rgb(9.803922%,54.11765%,70.19608%);stop-opacity:1;"/>
<stop offset="1" style="stop-color:rgb(9.803922%,54.11765%,70.19608%);stop-opacity:1;"/>
</linearGradient>
<filter id="alpha" filterUnits="objectBoundingBox" x="0%" y="0%" width="100%" height="100%">
  <feColorMatrix type="matrix" in="SourceGraphic" values="0 0 0 0 1 0 0 0 0 1 0 0 0 0 1 0 0 0 1 0"/>
</filter>
<mask id="mask0">
  <g filter="url(#alpha)">
<rect x="0" y="0" width="32" height="32" style="fill:rgb(0%,0%,0%);fill-opacity:0.2;stroke:none;"/>
  </g>
</mask>
<clipPath id="clip1">
  <rect x="0" y="0" width="32" height="32"/>
</clipPath>
<g id="surface5" clip-path="url(#clip1)">
<path style=" stroke:none;fill-rule:nonzero;fill:rgb(100%,100%,100%);fill-opacity:1;" d="M 5.226562 15.414062 L 26.84375 15.414062 C 27.136719 15.417969 27.421875 15.523438 27.644531 15.714844 L 4.425781 31.714844 C 4.152344 31.484375 3.992188 31.148438 3.980469 30.792969 L 3.980469 16.570312 C 4.046875 15.925781 4.578125 15.429688 5.226562 15.414062 "/>
</g>
</defs>
<g id="surface1">
<path style=" stroke:none;fill-rule:nonzero;fill:url(#linear0);" d="M 26.773438 15.414062 L 24.996094 15.414062 L 24.996094 9.9375 C 25.011719 7.367188 24.066406 4.882812 22.347656 2.96875 C 20.71875 1.074219 18.339844 -0.0117188 15.839844 0 C 13.316406 -0.0351562 10.90625 1.054688 9.261719 2.96875 C 7.53125 4.875 6.582031 7.363281 6.613281 9.9375 L 6.613281 15.414062 L 5.171875 15.414062 C 4.5 15.421875 3.957031 15.964844 3.945312 16.640625 L 3.945312 30.863281 C 3.957031 31.535156 4.5 32.078125 5.171875 32.089844 L 26.773438 32.089844 C 27.449219 32.078125 28 31.539062 28.019531 30.863281 L 28.019531 16.640625 C 28 15.964844 27.449219 15.421875 26.773438 15.414062 M 20.78125 15.414062 L 10.898438 15.414062 L 10.898438 9.847656 C 10.914062 8.425781 11.464844 7.0625 12.445312 6.027344 C 13.289062 5.0625 14.503906 4.503906 15.785156 4.496094 C 17.074219 4.503906 18.296875 5.0625 19.148438 6.027344 C 19.355469 6.265625 19.546875 6.519531 19.714844 6.792969 C 20.382812 7.667969 20.761719 8.730469 20.800781 9.832031 Z M 20.78125 15.414062 "/>
<path style=" stroke:none;fill-rule:nonzero;fill:rgb(31.37255%,90.196079%,100%);fill-opacity:1;" d="M 26.828125 15.414062 L 5.191406 15.414062 C 4.902344 15.414062 4.625 15.523438 4.410156 15.714844 L 27.609375 31.714844 C 27.890625 31.492188 28.050781 31.152344 28.054688 30.792969 L 28.054688 16.570312 C 28 15.925781 27.46875 15.429688 26.828125 15.414062 "/>
<use xlink:href="#surface5" mask="url(#mask0)"/>
<path style=" stroke:none;fill-rule:nonzero;fill:rgb(100%,100%,100%);fill-opacity:1;" d="M 13.867188 18.84375 L 16 16.710938 C 16.046875 16.671875 16.113281 16.671875 16.160156 16.710938 L 18.277344 18.84375 C 18.304688 18.863281 18.324219 18.898438 18.324219 18.933594 C 18.324219 18.96875 18.304688 19.003906 18.277344 19.023438 L 17.03125 19.023438 C 16.972656 19.023438 16.925781 19.070312 16.925781 19.128906 L 16.925781 21.867188 C 16.925781 21.925781 16.875 21.972656 16.816406 21.972656 L 15.414062 21.972656 C 15.382812 21.980469 15.351562 21.972656 15.332031 21.949219 C 15.308594 21.929688 15.300781 21.898438 15.308594 21.867188 L 15.308594 19.128906 C 15.296875 19.066406 15.246094 19.023438 15.183594 19.023438 L 13.9375 19.023438 C 13.898438 19.019531 13.863281 18.992188 13.847656 18.957031 C 13.832031 18.917969 13.839844 18.875 13.867188 18.84375 M 18.257812 28.585938 L 16.140625 30.703125 C 16.121094 30.726562 16.09375 30.738281 16.0625 30.738281 C 16.03125 30.738281 16.003906 30.726562 15.980469 30.703125 L 13.867188 28.585938 C 13.835938 28.566406 13.820312 28.535156 13.820312 28.496094 C 13.820312 28.460938 13.835938 28.429688 13.867188 28.410156 L 15.109375 28.410156 C 15.171875 28.410156 15.226562 28.363281 15.234375 28.300781 L 15.234375 25.546875 C 15.234375 25.488281 15.285156 25.441406 15.34375 25.441406 L 16.65625 25.441406 C 16.714844 25.441406 16.765625 25.488281 16.765625 25.546875 L 16.765625 28.300781 C 16.765625 28.359375 16.8125 28.410156 16.871094 28.410156 L 18.117188 28.410156 C 18.164062 28.371094 18.234375 28.378906 18.277344 28.425781 C 18.316406 28.476562 18.308594 28.546875 18.257812 28.585938 M 9.902344 25.832031 L 9.902344 24.585938 C 9.902344 24.527344 9.855469 24.480469 9.796875 24.480469 L 7.109375 24.480469 C 7.050781 24.480469 7.003906 24.433594 7.003906 24.375 L 7.003906 23.109375 C 6.984375 23.074219 6.984375 23.03125 7.007812 22.996094 C 7.03125 22.964844 7.070312 22.945312 7.109375 22.949219 L 9.796875 22.949219 C 9.855469 22.949219 9.902344 22.902344 9.902344 22.84375 L 9.902344 21.601562 C 9.90625 21.554688 9.933594 21.519531 9.972656 21.5 C 10.015625 21.480469 10.0625 21.484375 10.097656 21.511719 L 12.214844 23.644531 C 12.25 23.683594 12.25 23.746094 12.214844 23.785156 L 10.097656 25.921875 C 10.0625 25.945312 10.015625 25.949219 9.972656 25.929688 C 9.933594 25.914062 9.90625 25.875 9.902344 25.832031 M 22.222656 21.601562 L 22.222656 22.84375 C 22.222656 22.902344 22.269531 22.949219 22.328125 22.949219 L 25.066406 22.949219 C 25.066406 22.949219 25.191406 22.949219 25.191406 23.058594 L 25.191406 24.375 C 25.183594 24.433594 25.128906 24.480469 25.066406 24.480469 L 22.328125 24.480469 C 22.269531 24.480469 22.222656 24.527344 22.222656 24.585938 L 22.222656 25.832031 C 22.226562 25.875 22.203125 25.917969 22.164062 25.9375 C 22.125 25.957031 22.078125 25.949219 22.042969 25.921875 L 19.929688 23.785156 L 19.929688 23.644531 L 22.042969 21.511719 C 22.042969 21.511719 22.222656 21.492188 22.222656 21.601562 "/>
</g>
</svg>
