<?xml version="1.0" encoding="UTF-8"?>
<svg xmlns="http://www.w3.org/2000/svg" xmlns:xlink="http://www.w3.org/1999/xlink" width="37.25" height="32" viewBox="0 0 37.25 32" version="1.1">
<defs>
<linearGradient id="linear0" gradientUnits="userSpaceOnUse" x1="9" y1="14.071" x2="9" y2="1.313" gradientTransform="matrix(1.99626,0,0,1.99626,0.719,-1.896)">
<stop offset="0" style="stop-color:rgb(0%,47.058824%,83.137256%);stop-opacity:1;"/>
<stop offset="0.156" style="stop-color:rgb(7.450981%,50.196081%,85.490197%);stop-opacity:1;"/>
<stop offset="0.528" style="stop-color:rgb(23.529412%,56.862748%,89.803922%);stop-opacity:1;"/>
<stop offset="0.822" style="stop-color:rgb(33.333334%,61.176473%,92.54902%);stop-opacity:1;"/>
<stop offset="1" style="stop-color:rgb(36.862746%,62.7451%,93.725491%);stop-opacity:1;"/>
</linearGradient>
</defs>
<g id="surface1">
<path style=" stroke:none;fill-rule:nonzero;fill:url(#linear0);" d="M 36.652344 18.214844 C 36.53125 14.261719 33.566406 10.976562 29.644531 10.457031 C 29.402344 4.890625 24.730469 0.554688 19.164062 0.726562 C 14.730469 0.640625 10.726562 3.371094 9.183594 7.527344 C 4.460938 8.101562 0.863281 12.039062 0.71875 16.796875 C 0.925781 22.179688 5.449219 26.382812 10.835938 26.191406 C 11.136719 26.191406 11.433594 26.179688 11.726562 26.15625 L 28.109375 26.15625 C 28.257812 26.152344 28.402344 26.128906 28.542969 26.089844 C 32.917969 26.058594 36.492188 22.585938 36.652344 18.214844 M 36.652344 18.214844 "/>
<path style=" stroke:none;fill-rule:nonzero;fill:rgb(19.607843%,74.509805%,86.666667%);fill-opacity:1;" d="M 24.808594 21.671875 L 12.109375 21.671875 C 11.804688 21.667969 11.554688 21.90625 11.546875 22.210938 L 11.546875 25.667969 C 11.554688 25.972656 11.804688 26.210938 12.109375 26.207031 L 24.808594 26.207031 C 25.113281 26.210938 25.359375 25.96875 25.367188 25.667969 L 25.367188 22.210938 C 25.359375 21.910156 25.113281 21.667969 24.808594 21.671875 M 24.808594 21.671875 "/>
<path style=" stroke:none;fill-rule:nonzero;fill:rgb(9.803922%,54.11765%,70.19608%);fill-opacity:1;" d="M 24.808594 26.878906 L 12.109375 26.878906 C 11.804688 26.875 11.554688 27.113281 11.546875 27.417969 L 11.546875 30.875 C 11.550781 31.019531 11.609375 31.160156 11.714844 31.261719 C 11.820312 31.363281 11.960938 31.417969 12.109375 31.414062 L 24.808594 31.414062 C 24.953125 31.417969 25.097656 31.363281 25.203125 31.261719 C 25.304688 31.160156 25.367188 31.019531 25.367188 30.875 L 25.367188 27.417969 C 25.359375 27.117188 25.109375 26.875 24.808594 26.878906 M 24.808594 26.878906 "/>
<path style=" stroke:none;fill-rule:nonzero;fill:rgb(70.588237%,92.54902%,21.176471%);fill-opacity:1;" d="M 23.214844 22.519531 L 23.960938 22.519531 C 24.039062 22.519531 24.105469 22.585938 24.105469 22.664062 L 24.105469 23.375 C 24.105469 23.449219 24.042969 23.511719 23.96875 23.511719 L 23.210938 23.511719 C 23.175781 23.511719 23.140625 23.496094 23.113281 23.472656 C 23.089844 23.445312 23.074219 23.410156 23.074219 23.375 L 23.074219 22.65625 C 23.074219 22.582031 23.140625 22.519531 23.214844 22.519531 M 23.210938 24.230469 L 23.964844 24.230469 C 24 24.230469 24.035156 24.246094 24.0625 24.269531 C 24.089844 24.296875 24.105469 24.332031 24.105469 24.371094 L 24.105469 25.078125 C 24.105469 25.15625 24.042969 25.222656 23.964844 25.222656 L 23.214844 25.222656 C 23.136719 25.222656 23.074219 25.15625 23.074219 25.078125 L 23.074219 24.367188 C 23.074219 24.328125 23.085938 24.292969 23.113281 24.269531 C 23.136719 24.242188 23.171875 24.226562 23.210938 24.230469 M 23.253906 27.703125 L 24.003906 27.703125 C 24.085938 27.703125 24.148438 27.765625 24.148438 27.847656 L 24.148438 28.554688 C 24.148438 28.628906 24.085938 28.691406 24.011719 28.695312 L 23.261719 28.695312 C 23.222656 28.695312 23.1875 28.679688 23.160156 28.652344 C 23.132812 28.625 23.117188 28.589844 23.117188 28.550781 L 23.117188 27.847656 C 23.113281 27.8125 23.125 27.773438 23.152344 27.746094 C 23.179688 27.71875 23.214844 27.703125 23.253906 27.703125 M 23.253906 29.410156 L 24.003906 29.410156 C 24.085938 29.410156 24.148438 29.476562 24.148438 29.554688 L 24.148438 30.265625 C 24.144531 30.339844 24.085938 30.402344 24.011719 30.402344 L 23.253906 30.402344 C 23.179688 30.402344 23.117188 30.339844 23.117188 30.265625 L 23.117188 29.546875 C 23.117188 29.472656 23.179688 29.410156 23.253906 29.410156 M 23.253906 29.410156 "/>
<path style=" stroke:none;fill-rule:nonzero;fill:rgb(31.37255%,90.196079%,100%);fill-opacity:1;" d="M 24.6875 16.054688 L 11.992188 16.054688 C 11.84375 16.050781 11.703125 16.109375 11.597656 16.210938 C 11.492188 16.3125 11.429688 16.453125 11.429688 16.597656 L 11.429688 20.0625 C 11.433594 20.207031 11.492188 20.347656 11.597656 20.449219 C 11.703125 20.550781 11.84375 20.605469 11.988281 20.601562 L 24.6875 20.601562 C 24.835938 20.605469 24.976562 20.550781 25.082031 20.449219 C 25.1875 20.347656 25.246094 20.207031 25.25 20.0625 L 25.25 16.597656 C 25.242188 16.292969 24.992188 16.050781 24.6875 16.054688 M 24.6875 16.054688 "/>
<path style=" stroke:none;fill-rule:nonzero;fill:rgb(100%,100%,100%);fill-opacity:1;" d="M 23.09375 16.90625 L 23.84375 16.90625 C 23.921875 16.90625 23.988281 16.96875 23.988281 17.050781 L 23.988281 17.761719 C 23.988281 17.835938 23.925781 17.898438 23.847656 17.898438 L 23.097656 17.898438 C 23.058594 17.898438 23.023438 17.882812 22.996094 17.855469 C 22.96875 17.828125 22.953125 17.792969 22.953125 17.753906 L 22.953125 17.042969 C 22.953125 17.007812 22.96875 16.972656 22.992188 16.945312 C 23.019531 16.921875 23.054688 16.90625 23.09375 16.90625 M 23.09375 18.613281 L 23.84375 18.613281 C 23.921875 18.613281 23.988281 18.679688 23.988281 18.757812 L 23.988281 19.464844 C 23.984375 19.542969 23.921875 19.601562 23.847656 19.601562 L 23.09375 19.601562 C 23.015625 19.601562 22.953125 19.542969 22.953125 19.464844 L 22.953125 18.746094 C 22.957031 18.671875 23.019531 18.613281 23.09375 18.613281 M 23.945312 12.875 L 19.09375 17.726562 C 18.984375 17.835938 18.839844 17.898438 18.683594 17.898438 C 18.53125 17.898438 18.382812 17.835938 18.277344 17.726562 L 13.425781 12.875 C 13.351562 12.800781 13.328125 12.691406 13.371094 12.59375 C 13.410156 12.496094 13.503906 12.433594 13.609375 12.433594 L 16.589844 12.433594 C 16.65625 12.433594 16.722656 12.410156 16.773438 12.359375 C 16.820312 12.3125 16.847656 12.246094 16.847656 12.175781 L 16.847656 6.117188 C 16.847656 6.007812 16.9375 5.917969 17.046875 5.917969 L 20.3125 5.917969 C 20.425781 5.917969 20.511719 6.007812 20.511719 6.117188 L 20.511719 12.179688 C 20.511719 12.320312 20.628906 12.4375 20.769531 12.4375 L 23.753906 12.4375 C 23.859375 12.433594 23.953125 12.496094 23.996094 12.59375 C 24.039062 12.6875 24.019531 12.800781 23.945312 12.875 M 23.945312 12.875 "/>
</g>
</svg>
