<?xml version="1.0" encoding="UTF-8"?>
<svg xmlns="http://www.w3.org/2000/svg" xmlns:xlink="http://www.w3.org/1999/xlink" width="32" height="32" viewBox="0 0 32 32" version="1.1">
<defs>
<linearGradient id="linear0" gradientUnits="userSpaceOnUse" x1="5.51" y1="802.5" x2="12.94" y2="810.580017" gradientTransform="matrix(1.777778,0,0,2.826667,0,-2273.351128)">
<stop offset="0" style="stop-color:rgb(0%,47.058824%,83.137256%);stop-opacity:1;"/>
<stop offset="0.02" style="stop-color:rgb(5.098039%,49.411765%,84.705883%);stop-opacity:1;"/>
<stop offset="0.08" style="stop-color:rgb(16.862746%,54.11765%,87.843138%);stop-opacity:1;"/>
<stop offset="0.15" style="stop-color:rgb(25.490198%,58.039218%,90.588236%);stop-opacity:1;"/>
<stop offset="0.22" style="stop-color:rgb(31.764707%,60.784316%,92.156863%);stop-opacity:1;"/>
<stop offset="0.29" style="stop-color:rgb(35.686275%,62.352943%,93.333334%);stop-opacity:1;"/>
<stop offset="0.4" style="stop-color:rgb(36.862746%,62.7451%,93.725491%);stop-opacity:1;"/>
<stop offset="0.55" style="stop-color:rgb(35.686275%,62.352943%,93.333334%);stop-opacity:1;"/>
<stop offset="0.68" style="stop-color:rgb(31.37255%,60.392159%,92.156863%);stop-opacity:1;"/>
<stop offset="0.8" style="stop-color:rgb(24.705882%,57.254905%,90.196079%);stop-opacity:1;"/>
<stop offset="0.91" style="stop-color:rgb(14.901961%,53.333336%,87.450981%);stop-opacity:1;"/>
<stop offset="0.99" style="stop-color:rgb(7.058824%,49.803922%,85.09804%);stop-opacity:1;"/>
</linearGradient>
</defs>
<g id="surface1">
<path style=" stroke:none;fill-rule:nonzero;fill:rgb(46.27451%,73.725492%,17.647059%);fill-opacity:1;" d="M 15.929688 15.539062 C 8.566406 15.539062 2.59375 17.988281 2.59375 21.011719 C 2.59375 24.039062 8.566406 26.488281 15.929688 26.488281 C 23.292969 26.488281 29.261719 24.039062 29.261719 21.011719 C 29.261719 17.988281 23.292969 15.539062 15.929688 15.539062 "/>
<path style=" stroke:none;fill-rule:nonzero;fill:rgb(36.862746%,58.823532%,14.117648%);fill-opacity:1;" d="M 16.265625 19.75 C 13.820312 19.75 11.839844 20.292969 11.839844 20.960938 C 11.839844 21.628906 13.820312 22.167969 16.265625 22.167969 C 18.710938 22.167969 20.691406 21.628906 20.691406 20.960938 C 20.691406 20.292969 18.710938 19.75 16.265625 19.75 "/>
<path style=" stroke:none;fill-rule:nonzero;fill:url(#linear0);" d="M 15.929688 3.394531 C 8.566406 3.394531 2.59375 5.847656 2.59375 8.871094 C 2.59375 11.894531 8.566406 14.347656 15.929688 14.347656 C 23.292969 14.347656 29.261719 11.894531 29.261719 8.871094 C 29.261719 5.847656 23.292969 3.394531 15.929688 3.394531 "/>
<path style=" stroke:none;fill-rule:nonzero;fill:rgb(0%,35.686275%,63.137257%);fill-opacity:1;" d="M 16.265625 7.589844 C 13.820312 7.589844 11.839844 8.132812 11.839844 8.800781 C 11.839844 9.46875 13.820312 10.007812 16.265625 10.007812 C 18.710938 10.007812 20.691406 9.46875 20.691406 8.800781 C 20.691406 8.132812 18.710938 7.589844 16.265625 7.589844 "/>
<path style=" stroke:none;fill-rule:nonzero;fill:rgb(36.862746%,58.823532%,14.117648%);fill-opacity:1;" d="M 16 26.382812 C 23.378906 26.382812 29.332031 23.929688 29.332031 20.90625 L 29.332031 24.140625 C 29.085938 27.074219 23.21875 29.476562 16 29.476562 C 8.78125 29.476562 2.667969 27.023438 2.667969 24 L 2.667969 20.90625 C 2.59375 23.929688 8.570312 26.382812 16 26.382812 "/>
<path style=" stroke:none;fill-rule:nonzero;fill:rgb(0%,47.058824%,83.137256%);fill-opacity:1;" d="M 16 14.222656 C 23.378906 14.222656 29.332031 11.769531 29.332031 8.746094 L 29.332031 11.980469 C 29.085938 14.914062 23.21875 17.316406 16 17.316406 C 8.78125 17.316406 2.667969 14.863281 2.667969 11.839844 L 2.667969 8.746094 C 2.59375 11.769531 8.570312 14.222656 16 14.222656 "/>
</g>
</svg>
