<svg role="img" viewBox="0 0 18 18" xmlns="http://www.w3.org/2000/svg" xmlns:xlink="http://www.w3.org/1999/xlink"><defs><linearGradient gradientUnits="userSpaceOnUse" id="a" x1="8.88" x2="8.88" y1="12.21" y2=".21"><stop offset="0" stop-color="#0078d4"/><stop offset=".82" stop-color="#5ea0ef"/></linearGradient><linearGradient gradientUnits="userSpaceOnUse" id="b" x1="8.88" x2="8.88" y1="16.84" y2="12.21"><stop offset=".15" stop-color="#ccc"/><stop offset="1" stop-color="#707070"/></linearGradient></defs><title>Icon-compute-21</title><rect fill="url(#a)" height="12" rx=".6" width="18" x="-.12" y=".21"/><path d="M11.88 4.46v3.49l-3 1.76v-3.5z" fill="#50e6ff"/><path d="m11.88 4.46-3 1.76-3-1.76 3-1.75z" fill="#c3f1ff"/><path d="M8.88 6.22v3.49l-3-1.76V4.46z" fill="#9cebff"/><path d="m5.88 7.95 3-1.74v3.5z" fill="#c3f1ff"/><path d="m11.88 7.95-3-1.74v3.5z" fill="#9cebff"/><path d="M12.49 15.84c-1.78-.28-1.85-1.56-1.85-3.63H7.11c0 2.07-.06 3.35-1.84 3.63a1 1 0 0 0-.89 1h9a1 1 0 0 0-.89-1" fill="url(#b)"/></svg>