<?xml version="1.0" encoding="UTF-8"?>
<svg xmlns="http://www.w3.org/2000/svg" xmlns:xlink="http://www.w3.org/1999/xlink" width="32" height="32" viewBox="0 0 32 32" version="1.1">
<defs>
<linearGradient id="linear0" gradientUnits="userSpaceOnUse" x1="9.01" y1="16.5" x2="9.01" y2="1.5" gradientTransform="matrix(1.777778,0,0,1.777778,0,0)">
<stop offset="0" style="stop-color:rgb(36.862746%,58.823532%,25.490198%);stop-opacity:1;"/>
<stop offset="0.34" style="stop-color:rgb(41.960785%,66.666669%,25.882354%);stop-opacity:1;"/>
<stop offset="0.67" style="stop-color:rgb(45.09804%,71.764708%,26.274511%);stop-opacity:1;"/>
<stop offset="1" style="stop-color:rgb(46.27451%,73.333335%,26.274511%);stop-opacity:1;"/>
</linearGradient>
</defs>
<g id="surface1">
<path style=" stroke:none;fill-rule:nonzero;fill:rgb(100%,79.215688%,0%);fill-opacity:1;" d="M 28.25 5.171875 L 30.507812 5.171875 C 30.839844 5.171875 31.109375 5.445312 31.109375 5.777344 L 31.109375 12 C 31.109375 12.332031 30.839844 12.605469 30.507812 12.605469 L 28.25 12.605469 Z M 28.25 16 L 30.507812 16 C 30.839844 16 31.109375 16.269531 31.109375 16.605469 L 31.109375 27.023438 C 31.109375 27.355469 30.839844 27.625 30.507812 27.625 L 28.25 27.625 Z M 28.25 16 "/>
<path style=" stroke:none;fill-rule:nonzero;fill:url(#linear0);" d="M 5.011719 2.667969 L 27.023438 2.667969 C 27.699219 2.667969 28.25 3.214844 28.25 3.894531 L 28.25 28.105469 C 28.25 28.785156 27.699219 29.332031 27.023438 29.332031 L 5.011719 29.332031 C 4.335938 29.332031 3.785156 28.785156 3.785156 28.105469 L 3.785156 3.894531 C 3.785156 3.214844 4.335938 2.667969 5.011719 2.667969 Z M 5.011719 2.667969 "/>
<path style=" stroke:none;fill-rule:nonzero;fill:rgb(70.588237%,92.54902%,21.176471%);fill-opacity:1;" d="M 10.488281 22.933594 L 9.226562 22.933594 C 9.132812 22.929688 9.042969 22.886719 8.980469 22.816406 C 8.917969 22.746094 8.882812 22.65625 8.890625 22.558594 L 8.890625 7.714844 C 8.882812 7.621094 8.917969 7.53125 8.980469 7.464844 C 9.046875 7.398438 9.132812 7.359375 9.226562 7.359375 L 12.65625 7.359375 C 12.75 7.359375 12.839844 7.398438 12.902344 7.464844 C 12.96875 7.53125 13 7.621094 12.996094 7.714844 C 13 7.808594 12.96875 7.902344 12.902344 7.972656 C 12.839844 8.042969 12.753906 8.085938 12.65625 8.089844 L 9.5625 8.089844 L 9.5625 22.1875 L 10.488281 22.1875 C 10.582031 22.191406 10.671875 22.234375 10.734375 22.304688 C 10.796875 22.375 10.832031 22.464844 10.828125 22.558594 C 10.828125 22.753906 10.679688 22.914062 10.488281 22.933594 M 10.667969 24.746094 L 7.820312 24.746094 C 7.726562 24.742188 7.640625 24.699219 7.574219 24.628906 C 7.511719 24.558594 7.480469 24.46875 7.484375 24.375 L 7.253906 6.007812 C 7.25 5.910156 7.289062 5.8125 7.359375 5.742188 C 7.414062 5.671875 7.5 5.632812 7.589844 5.636719 L 12.65625 5.636719 L 12.65625 6.363281 L 7.945312 6.363281 L 8.160156 24 L 10.667969 24 Z M 21.332031 23.109375 L 18.507812 23.109375 C 18.410156 23.105469 18.320312 23.0625 18.257812 22.988281 C 18.1875 22.921875 18.148438 22.832031 18.152344 22.738281 L 18.152344 14.042969 C 18.144531 13.953125 18.179688 13.859375 18.242188 13.792969 C 18.308594 13.726562 18.394531 13.6875 18.488281 13.6875 L 20.105469 13.6875 L 20.105469 9.6875 L 20.78125 9.6875 L 20.78125 14.027344 C 20.792969 14.214844 20.652344 14.382812 20.460938 14.398438 L 18.84375 14.398438 L 18.84375 22.257812 L 21.332031 22.257812 Z M 21.332031 23.109375 "/>
<path style=" stroke:none;fill-rule:nonzero;fill:rgb(21.176471%,33.725491%,8.235294%);fill-opacity:1;" d="M 13.03125 4.070312 L 23.023438 4.070312 C 23.277344 4.070312 23.484375 4.277344 23.484375 4.535156 L 23.484375 9.136719 C 23.484375 9.394531 23.277344 9.601562 23.023438 9.601562 L 13.03125 9.601562 C 12.777344 9.601562 12.570312 9.394531 12.570312 9.136719 L 12.570312 4.535156 C 12.570312 4.277344 12.777344 4.070312 13.03125 4.070312 Z M 13.03125 4.070312 "/>
<path style=" stroke:none;fill-rule:nonzero;fill:rgb(21.176471%,33.725491%,8.235294%);fill-opacity:1;" d="M 15.734375 19.644531 L 15.734375 27.429688 C 15.734375 27.6875 15.527344 27.894531 15.269531 27.894531 L 14.257812 27.894531 C 14.003906 27.894531 13.796875 27.6875 13.796875 27.429688 L 13.796875 19.644531 C 13.796875 19.390625 14.003906 19.183594 14.257812 19.183594 L 15.269531 19.183594 C 15.527344 19.183594 15.734375 19.390625 15.734375 19.644531 Z M 15.734375 19.644531 "/>
<path style=" stroke:none;fill-rule:nonzero;fill:rgb(21.176471%,33.725491%,8.235294%);fill-opacity:1;" d="M 12.425781 19.679688 L 12.425781 27.464844 C 12.425781 27.722656 12.21875 27.929688 11.964844 27.929688 L 10.949219 27.929688 C 10.695312 27.929688 10.488281 27.722656 10.488281 27.464844 L 10.488281 19.679688 C 10.488281 19.425781 10.695312 19.21875 10.949219 19.21875 L 11.964844 19.21875 C 12.21875 19.21875 12.425781 19.425781 12.425781 19.679688 Z M 12.425781 19.679688 "/>
<path style=" stroke:none;fill-rule:nonzero;fill:rgb(94.901961%,94.901961%,94.901961%);fill-opacity:1;" d="M 23.058594 19.679688 L 23.058594 27.464844 C 23.058594 27.722656 22.851562 27.929688 22.59375 27.929688 L 21.582031 27.929688 C 21.328125 27.929688 21.121094 27.722656 21.121094 27.464844 L 21.121094 19.679688 C 21.121094 19.425781 21.328125 19.21875 21.582031 19.21875 L 22.59375 19.21875 C 22.851562 19.21875 23.058594 19.425781 23.058594 19.679688 Z M 23.058594 19.679688 "/>
<path style=" stroke:none;fill-rule:nonzero;fill:rgb(94.901961%,94.901961%,94.901961%);fill-opacity:1;" d="M 14.417969 12.335938 C 13.398438 12.335938 12.570312 13.230469 12.570312 14.328125 C 12.570312 15.429688 13.398438 16.320312 14.417969 16.320312 C 15.4375 16.320312 16.265625 15.429688 16.265625 14.328125 C 16.265625 13.230469 15.4375 12.335938 14.417969 12.335938 "/>
<path style=" stroke:none;fill-rule:nonzero;fill:rgb(23.137255%,23.137255%,23.137255%);fill-opacity:1;" d="M 3.75 21.777344 L 1.492188 21.777344 C 1.183594 21.78125 0.925781 21.550781 0.890625 21.246094 L 0.890625 10.828125 C 0.890625 10.492188 1.160156 10.222656 1.492188 10.222656 L 3.75 10.222656 Z M 3.75 21.777344 "/>
</g>
</svg>
