<svg role="img" viewBox="0 0 32 32" xmlns="http://www.w3.org/2000/svg"><path d="M0 0h32v32H0z" style="fill:rgb(100%,100%,100%);fill-opacity:1;stroke:none"/><path d="M18.297.238c.297-.05.586-.039.887-.039H30.52c.492-.008.957.356 1.168.781.152.31.109.614.113.946v11.336a2.727 2.727 0 0 1-.824 1.937c-.258.254-.602.446-.903.653a3373.187 3373.187 0 0 1-6.172 4.085L14.61 26.09c-.336.238-.64.45-1.074.383-.543-.075-.848-.54-1.219-.883-.668-.66-1.324-1.324-1.988-1.985.188-.261.43-.468.652-.695 2.582-2.582 5.172-5.164 7.75-7.746-.53-.57-1.101-1.101-1.64-1.66-.098-.086-.223-.258-.367-.227-.176.16-.336.328-.504.496-2.621 2.618-5.235 5.247-7.864 7.856-.644-.64-1.289-1.281-1.925-1.934-.36-.386-.832-.68-.903-1.246-.066-.43.153-.726.38-1.062 2.058-3.094 4.1-6.196 6.156-9.29 1.468-2.222 2.94-4.44 4.41-6.66A2.755 2.755 0 0 1 18.297.238m0 0" style="stroke:none;fill-rule:nonzero;fill:rgb(16.470589%,39.215687%,88.235295%);fill-opacity:1"/><path d="M22.555 4.79a4.01 4.01 0 0 1 3.472 1.038 3.985 3.985 0 0 1 1.235 2.617 3.985 3.985 0 0 1-.555 2.336 4.019 4.019 0 0 1-2.34 1.801 4.04 4.04 0 0 1-2.488-.094 4.016 4.016 0 0 1-2.16-1.91 4.008 4.008 0 0 1 .363-4.273 4.035 4.035 0 0 1 2.473-1.516m0 0" style="stroke:none;fill-rule:nonzero;fill:rgb(58.039218%,69.803923%,94.901961%);fill-opacity:1"/><path d="M1.629 8.098h10.433c-2.054 3.093-4.097 6.195-6.156 9.289-.226.336-.445.633-.379 1.062.07.567.543.86.903 1.246-.54.559-1.067 1.125-1.602 1.68C3.32 19.813 1.79 18.27.278 16.707c.03-.457.015-.914.019-1.375 0-1.926-.008-3.852-.004-5.777-.004-.14-.04-.274-.066-.41.132-.622.777-1.075 1.402-1.047m0 0" style="stroke:none;fill-rule:nonzero;fill:rgb(8.235294%,29.019609%,74.901962%);fill-opacity:1"/><path d="M.227 9.145c.027.136.062.27.066.41-.004 1.925.004 3.851.004 5.777-.004.461.012.918-.02 1.375L.2 16.613c.004-2.226 0-4.46 0-6.687.004-.266-.015-.52.028-.781m0 0" style="stroke:none;fill-rule:nonzero;fill:rgb(0.392157%,23.137255%,72.549021%);fill-opacity:1"/><path d="M16.723 13.277c.144-.03.27.141.367.227.539.559 1.11 1.09 1.64 1.66-2.578 2.582-5.167 5.164-7.75 7.746-.222.227-.464.434-.652.695l-.074-.07c-.61-.613-1.223-1.223-1.832-1.836 2.723-2.734 5.465-5.469 8.195-8.195.07-.066.082-.137.106-.227m0 0" style="stroke:none;fill-rule:nonzero;fill:rgb(30.980393%,50.980395%,94.117647%);fill-opacity:1"/><path d="M16.723 13.277c-.024.09-.035.16-.106.227-2.73 2.726-5.472 5.46-8.195 8.195.61.613 1.223 1.223 1.832 1.836-.547.54-1.086 1.094-1.637 1.63a433.233 433.233 0 0 0-1.894-1.895c.547-.547 1.097-1.086 1.632-1.641 2.63-2.61 5.243-5.238 7.864-7.856.168-.168.328-.335.504-.496m0 0" style="stroke:none;fill-rule:nonzero;fill:rgb(45.490196%,60.784316%,94.901961%);fill-opacity:1"/><path d="M23.902 19.938v10.511c-.004.508-.27 1.008-.738 1.235-.3.152-.617.113-.941.117-2.246 0-4.504 0-6.75.004-.133.02-.23-.137-.32-.215-1.473-1.477-2.946-2.95-4.423-4.422.532-.523 1.055-1.055 1.586-1.578.371.344.676.808 1.22.883.433.066.737-.145 1.073-.383zm0 0" style="stroke:none;fill-rule:nonzero;fill:rgb(6.27451%,27.843139%,74.117649%);fill-opacity:1"/><path d="M.2 23.902h2.628c.004 1.758 0 3.512.004 5.27 1.754 0 3.508-.004 5.262 0 .004.875.004 1.754.004 2.629-2.633 0-5.266.004-7.899 0-.004-2.633 0-5.266 0-7.899m0 0" style="stroke:none;fill-rule:nonzero;fill:rgb(56.862748%,69.01961%,94.901961%);fill-opacity:1"/></svg>