<?xml version="1.0" encoding="UTF-8"?>
<svg xmlns="http://www.w3.org/2000/svg" xmlns:xlink="http://www.w3.org/1999/xlink" width="32" height="32" viewBox="0 0 32 32" version="1.1">
<defs>
<linearGradient id="linear0" gradientUnits="userSpaceOnUse" x1="8.8" y1="12.87" x2="8.8" y2="0.87" gradientTransform="matrix(1.777778,0,0,1.777778,0,0)">
<stop offset="0" style="stop-color:rgb(0%,47.058824%,83.137256%);stop-opacity:1;"/>
<stop offset="0.82" style="stop-color:rgb(36.862746%,62.7451%,93.725491%);stop-opacity:1;"/>
</linearGradient>
<linearGradient id="linear1" gradientUnits="userSpaceOnUse" x1="8.81" y1="17.5" x2="8.81" y2="12.87" gradientTransform="matrix(1.777778,0,0,1.777778,0,0)">
<stop offset="0" style="stop-color:rgb(7.843138%,56.470591%,87.450981%);stop-opacity:1;"/>
<stop offset="0.98" style="stop-color:rgb(12.156863%,33.725491%,63.921571%);stop-opacity:1;"/>
</linearGradient>
</defs>
<g id="surface1">
<path style=" stroke:none;fill-rule:nonzero;fill:url(#linear0);" d="M 0.710938 1.546875 L 30.578125 1.546875 C 31.167969 1.546875 31.644531 2.023438 31.644531 2.613281 L 31.644531 21.8125 C 31.644531 22.402344 31.167969 22.878906 30.578125 22.878906 L 0.710938 22.878906 C 0.121094 22.878906 -0.355469 22.402344 -0.355469 21.8125 L -0.355469 2.613281 C -0.355469 2.023438 0.121094 1.546875 0.710938 1.546875 Z M 0.710938 1.546875 "/>
<path style=" stroke:none;fill-rule:nonzero;fill:rgb(31.37255%,90.196079%,100%);fill-opacity:1;" d="M 20.976562 9.101562 L 20.976562 15.308594 L 15.644531 18.4375 L 15.644531 12.214844 Z M 20.976562 9.101562 "/>
<path style=" stroke:none;fill-rule:nonzero;fill:rgb(76.47059%,94.509804%,100%);fill-opacity:1;" d="M 20.976562 9.101562 L 15.664062 12.230469 L 10.3125 9.101562 L 15.664062 5.992188 Z M 20.976562 9.101562 "/>
<path style=" stroke:none;fill-rule:nonzero;fill:rgb(61.176473%,92.156863%,100%);fill-opacity:1;" d="M 15.644531 12.230469 L 15.644531 18.4375 L 10.3125 15.308594 L 10.3125 9.101562 Z M 15.644531 12.230469 "/>
<path style=" stroke:none;fill-rule:nonzero;fill:rgb(76.47059%,94.509804%,100%);fill-opacity:1;" d="M 10.3125 15.308594 L 15.644531 12.214844 L 15.644531 18.4375 Z M 10.3125 15.308594 "/>
<path style=" stroke:none;fill-rule:nonzero;fill:rgb(61.176473%,92.156863%,100%);fill-opacity:1;" d="M 20.976562 15.308594 L 15.644531 12.214844 L 15.644531 18.4375 Z M 20.976562 15.308594 "/>
<path style=" stroke:none;fill-rule:nonzero;fill:url(#linear1);" d="M 22.0625 29.332031 C 18.898438 28.835938 18.773438 26.558594 18.792969 22.878906 L 12.445312 22.878906 C 12.445312 26.558594 12.445312 28.835938 9.226562 29.332031 C 8.328125 29.441406 7.65625 30.207031 7.664062 31.109375 L 23.664062 31.109375 C 23.621094 30.210938 22.953125 29.46875 22.0625 29.332031 "/>
<path style=" stroke:none;fill-rule:nonzero;fill:rgb(100%,100%,100%);fill-opacity:1;" d="M 8.320312 3.679688 L 3.429688 3.679688 C 2.78125 3.679688 2.257812 4.207031 2.257812 4.851562 L 2.257812 9.761719 C 2.257812 10.085938 2.519531 10.347656 2.84375 10.347656 L 3.234375 10.347656 C 3.558594 10.347656 3.820312 10.085938 3.820312 9.761719 L 3.820312 5.226562 L 8.320312 5.226562 C 8.636719 5.21875 8.890625 4.957031 8.890625 4.640625 L 8.890625 4.265625 C 8.890625 3.949219 8.636719 3.691406 8.320312 3.679688 M 8.320312 19.074219 L 3.804688 19.074219 L 3.804688 14.578125 C 3.804688 14.253906 3.542969 13.992188 3.21875 13.992188 L 2.84375 13.992188 C 2.519531 13.992188 2.257812 14.253906 2.257812 14.578125 L 2.257812 19.554688 C 2.253906 19.871094 2.375 20.171875 2.59375 20.398438 C 2.816406 20.621094 3.117188 20.746094 3.429688 20.746094 L 8.320312 20.746094 C 8.492188 20.738281 8.648438 20.660156 8.757812 20.527344 C 8.867188 20.394531 8.914062 20.222656 8.890625 20.054688 L 8.890625 19.664062 C 8.890625 19.34375 8.636719 19.085938 8.320312 19.074219 M 27.929688 3.734375 L 23.109375 3.734375 C 22.785156 3.734375 22.523438 3.996094 22.523438 4.320312 L 22.523438 4.691406 C 22.507812 4.859375 22.566406 5.019531 22.675781 5.144531 C 22.789062 5.265625 22.945312 5.335938 23.109375 5.332031 L 27.609375 5.332031 L 27.609375 9.796875 C 27.609375 10.121094 27.871094 10.382812 28.195312 10.382812 L 28.605469 10.382812 C 28.929688 10.382812 29.191406 10.121094 29.191406 9.796875 L 29.191406 4.90625 C 29.191406 4.578125 29.054688 4.265625 28.816406 4.042969 C 28.578125 3.820312 28.253906 3.707031 27.929688 3.734375 M 28.535156 14.027344 L 28.160156 14.027344 C 27.835938 14.027344 27.574219 14.289062 27.574219 14.613281 L 27.574219 19.128906 L 23.109375 19.128906 C 22.785156 19.128906 22.523438 19.390625 22.523438 19.714844 L 22.523438 20.105469 C 22.523438 20.429688 22.785156 20.691406 23.109375 20.691406 L 28 20.691406 C 28.652344 20.695312 29.179688 20.171875 29.191406 19.519531 L 29.191406 14.613281 C 29.191406 14.445312 29.121094 14.285156 28.996094 14.171875 C 28.867188 14.058594 28.699219 14.007812 28.535156 14.027344 "/>
</g>
</svg>
