<?xml version="1.0" encoding="UTF-8"?>
<svg xmlns="http://www.w3.org/2000/svg" xmlns:xlink="http://www.w3.org/1999/xlink" width="35.458" height="32" viewBox="0 0 35.458 32" version="1.1">
<defs>
<linearGradient id="linear0" gradientUnits="userSpaceOnUse" x1="8.637" y1="-1.991" x2="8.637" y2="16.739" gradientTransform="matrix(1.90024,0,0,1.90024,0.684,-2.28)">
<stop offset="0" style="stop-color:rgb(36.862746%,62.7451%,93.725491%);stop-opacity:1;"/>
<stop offset="1" style="stop-color:rgb(0%,47.058824%,83.137256%);stop-opacity:1;"/>
</linearGradient>
<linearGradient id="linear1" gradientUnits="userSpaceOnUse" x1="12.96" y1="8.561" x2="12.96" y2="6.141" gradientTransform="matrix(1.90024,0,0,-1.90024,0.684,35.723999)">
<stop offset="0" style="stop-color:rgb(20%,19.215687%,19.607843%);stop-opacity:1;"/>
<stop offset="1" style="stop-color:rgb(35.686275%,35.294119%,36.078432%);stop-opacity:1;"/>
</linearGradient>
</defs>
<g id="surface1">
<path style=" stroke:none;fill-rule:nonzero;fill:url(#linear0);" d="M 14.804688 13.261719 L 19.722656 10.269531 L 33.507812 15.460938 C 33.207031 14.121094 32.515625 12.902344 31.523438 11.953125 L 31.507812 11.859375 C 30.347656 10.738281 28.878906 9.996094 27.289062 9.730469 C 27.070312 4.589844 22.734375 0.59375 17.597656 0.796875 C 13.515625 0.722656 9.832031 3.230469 8.398438 7.050781 C 4.070312 7.578125 0.785156 11.203125 0.683594 15.5625 C 0.878906 20.503906 5.03125 24.359375 9.976562 24.191406 L 14.804688 24.191406 Z M 14.804688 13.261719 "/>
<path style=" stroke:none;fill-rule:nonzero;fill:rgb(46.27451%,46.27451%,46.27451%);fill-opacity:1;" d="M 19.820312 11.324219 L 19.839844 19.457031 L 34.871094 22.648438 L 34.871094 16.984375 Z M 19.820312 11.324219 "/>
<path style=" stroke:none;fill-rule:nonzero;fill:rgb(60.000002%,60.000002%,60.000002%);fill-opacity:1;" d="M 19.820312 11.324219 L 15.753906 13.792969 L 15.753906 21.355469 L 19.839844 19.457031 "/>
<path style=" stroke:none;fill-rule:nonzero;fill:rgb(63.921571%,63.921571%,63.921571%);fill-opacity:1;" d="M 26.679688 19.570312 L 28.046875 19.949219 L 28.046875 15.523438 L 26.679688 15.046875 Z M 25.3125 14.609375 L 23.941406 14.117188 L 23.941406 18.847656 L 25.3125 19.226562 Z M 29.414062 20.3125 L 30.746094 20.671875 L 30.785156 16.453125 L 29.414062 16 Z M 21.226562 18.144531 L 22.59375 18.488281 L 22.59375 13.679688 L 21.226562 13.222656 Z M 33.5 17.386719 L 32.132812 16.910156 L 32.132812 21.035156 L 33.5 21.414062 Z M 33.5 17.386719 "/>
<path style=" stroke:none;fill-rule:nonzero;fill:rgb(70.19608%,70.19608%,70.19608%);fill-opacity:1;" d="M 17.140625 19.324219 L 16.457031 19.722656 L 16.457031 14.34375 L 17.140625 13.984375 Z M 18.488281 13.203125 L 17.785156 13.660156 L 17.785156 18.886719 L 18.488281 18.507812 Z M 18.488281 13.203125 "/>
<path style=" stroke:none;fill-rule:nonzero;fill:url(#linear1);" d="M 34.871094 22.648438 L 30.765625 24.054688 L 15.753906 21.355469 L 19.839844 19.457031 Z M 34.871094 22.648438 "/>
<path style=" stroke:none;fill-rule:nonzero;fill:rgb(46.27451%,46.27451%,46.27451%);fill-opacity:1;" d="M 34.871094 28.445312 L 19.761719 31.3125 L 19.839844 20.691406 L 34.871094 23.484375 Z M 34.871094 28.445312 "/>
<path style=" stroke:none;fill-rule:nonzero;fill:rgb(63.921571%,63.921571%,63.921571%);fill-opacity:1;" d="M 21.226562 29.566406 L 21.226562 22.820312 L 22.59375 22.992188 L 22.59375 29.335938 Z M 25.3125 28.882812 L 23.941406 29.128906 L 23.941406 23.160156 L 25.3125 23.371094 Z M 26.679688 28.671875 L 26.679688 23.503906 L 28.046875 23.675781 L 28.046875 28.425781 Z M 30.765625 27.949219 L 29.414062 28.199219 L 29.414062 23.847656 L 30.765625 24.054688 Z M 33.539062 27.511719 L 32.132812 27.761719 L 32.132812 24.1875 L 33.445312 24.359375 Z M 33.539062 27.511719 "/>
<path style=" stroke:none;fill-rule:nonzero;fill:rgb(60.000002%,60.000002%,60.000002%);fill-opacity:1;" d="M 15.753906 28.882812 L 15.753906 22.6875 L 19.859375 20.789062 L 19.859375 31.429688 Z M 15.753906 28.882812 "/>
<path style=" stroke:none;fill-rule:nonzero;fill:rgb(70.19608%,70.19608%,70.19608%);fill-opacity:1;" d="M 17.046875 28.863281 L 16.4375 28.558594 L 16.4375 23.3125 L 17.046875 23.027344 Z M 18.507812 22.308594 L 17.785156 22.667969 L 17.785156 29.28125 L 18.488281 29.640625 L 18.488281 22.308594 Z M 18.507812 22.308594 "/>
</g>
</svg>
