<svg role="img" viewBox="0 0 18 18" xmlns="http://www.w3.org/2000/svg" xmlns:xlink="http://www.w3.org/1999/xlink"><defs><linearGradient gradientTransform="matrix(1 0 0 1.59 0 -1278.76)" gradientUnits="userSpaceOnUse" id="a" x1="5.51" x2="12.94" y1="802.5" y2="810.58"><stop offset="0" stop-color="#0078d4"/><stop offset=".02" stop-color="#0d7ed8"/><stop offset=".08" stop-color="#2b8ae0"/><stop offset=".15" stop-color="#4194e7"/><stop offset=".22" stop-color="#519beb"/><stop offset=".29" stop-color="#5b9fee"/><stop offset=".4" stop-color="#5ea0ef"/><stop offset=".55" stop-color="#5b9fee"/><stop offset=".68" stop-color="#509aeb"/><stop offset=".8" stop-color="#3f92e6"/><stop offset=".91" stop-color="#2688df"/><stop offset=".99" stop-color="#127fd9"/></linearGradient></defs><title>Icon-compute-32</title><path d="M8.96 8.74a7.5 3.08 0 1 0 0 6.16 7.5 3.08 0 1 0 0-6.16" fill="#76bc2d"/><path d="M9.15 11.11a2.49.68 0 1 0 0 1.36 2.49.68 0 1 0 0-1.36" fill="#5e9624"/><path d="M8.96 1.91a7.5 3.08 0 1 0 0 6.16 7.5 3.08 0 1 0 0-6.16" fill="url(#a)"/><path d="M9.15 4.27a2.49.68 0 1 0 0 1.36 2.49.68 0 1 0 0-1.36" fill="#005ba1"/><path d="M9 14.84c4.15 0 7.5-1.38 7.5-3.08v1.82c-.14 1.65-3.44 3-7.5 3S1.5 15.2 1.5 13.5v-1.74c-.04 1.7 3.32 3.08 7.5 3.08" fill="#5e9624"/><path d="M9 8c4.15 0 7.5-1.38 7.5-3.08v1.82c-.14 1.65-3.44 3-7.5 3S1.5 8.36 1.5 6.66V4.92C1.46 6.62 4.82 8 9 8" fill="#0078d4"/></svg>