<?xml version="1.0" encoding="UTF-8"?>
<svg xmlns="http://www.w3.org/2000/svg" xmlns:xlink="http://www.w3.org/1999/xlink" width="32" height="32" viewBox="0 0 32 32" version="1.1">
<defs>
<linearGradient id="linear0" gradientUnits="userSpaceOnUse" x1="0.5" y1="10.04" x2="13.18" y2="10.04" gradientTransform="matrix(1.80282,0,0,1.80282,-0.288,-0.18)">
<stop offset="0" style="stop-color:rgb(0%,35.686275%,63.137257%);stop-opacity:1;"/>
<stop offset="0.07" style="stop-color:rgb(0%,37.64706%,66.274512%);stop-opacity:1;"/>
<stop offset="0.36" style="stop-color:rgb(0%,44.313726%,78.431374%);stop-opacity:1;"/>
<stop offset="0.52" style="stop-color:rgb(0%,47.058824%,83.137256%);stop-opacity:1;"/>
<stop offset="0.64" style="stop-color:rgb(0%,45.490196%,80.392158%);stop-opacity:1;"/>
<stop offset="0.82" style="stop-color:rgb(0%,41.568628%,73.333335%);stop-opacity:1;"/>
<stop offset="1" style="stop-color:rgb(0%,35.686275%,63.137257%);stop-opacity:1;"/>
</linearGradient>
</defs>
<g id="surface1">
<path style=" stroke:none;fill-rule:nonzero;fill:url(#linear0);" d="M 12.042969 8.996094 C 5.734375 8.996094 0.613281 7.191406 0.613281 4.847656 L 0.613281 26.863281 C 0.613281 29.132812 5.644531 30.972656 11.878906 31.007812 L 12.042969 31.007812 C 18.351562 31.007812 23.472656 29.207031 23.472656 26.863281 L 23.472656 4.847656 C 23.472656 7.140625 18.351562 8.996094 12.042969 8.996094 M 12.042969 8.996094 "/>
<path style=" stroke:none;fill-rule:nonzero;fill:rgb(90.980393%,90.980393%,90.980393%);fill-opacity:1;" d="M 23.472656 4.847656 C 23.472656 7.140625 18.351562 8.996094 12.042969 8.996094 C 5.734375 8.996094 0.613281 7.140625 0.613281 4.847656 C 0.613281 2.558594 5.734375 0.703125 12.042969 0.703125 C 18.351562 0.703125 23.472656 2.507812 23.472656 4.847656 "/>
<path style=" stroke:none;fill-rule:nonzero;fill:rgb(31.37255%,90.196079%,100%);fill-opacity:1;" d="M 20.804688 4.507812 C 20.804688 5.96875 16.875 7.140625 12.042969 7.140625 C 7.210938 7.140625 3.316406 5.96875 3.316406 4.507812 C 3.316406 3.046875 7.210938 1.875 12.042969 1.875 C 16.875 1.875 20.804688 3.066406 20.804688 4.507812 "/>
<path style=" stroke:none;fill-rule:nonzero;fill:rgb(9.803922%,54.11765%,70.19608%);fill-opacity:1;" d="M 12.042969 5.121094 C 9.695312 5.074219 7.359375 5.40625 5.121094 6.113281 C 7.359375 6.855469 9.707031 7.203125 12.0625 7.140625 C 14.417969 7.203125 16.765625 6.855469 19 6.113281 C 16.75 5.402344 14.402344 5.070312 12.042969 5.121094 M 12.042969 5.121094 "/>
<path style=" stroke:none;fill-rule:nonzero;fill:rgb(94.901961%,94.901961%,94.901961%);fill-opacity:1;" d="M 19.074219 19.832031 L 19.074219 13.738281 L 17.398438 13.738281 L 17.398438 21.199219 L 21.832031 21.199219 L 21.832031 19.832031 Z M 6.183594 16.820312 C 5.851562 16.683594 5.539062 16.496094 5.265625 16.261719 C 5.144531 16.097656 5.089844 15.886719 5.121094 15.683594 C 5.121094 15.460938 5.226562 15.253906 5.410156 15.125 C 5.632812 14.984375 5.898438 14.914062 6.164062 14.925781 C 6.804688 14.90625 7.4375 15.089844 7.96875 15.449219 L 7.96875 13.898438 C 7.390625 13.6875 6.777344 13.589844 6.164062 13.609375 C 5.390625 13.546875 4.621094 13.773438 4.003906 14.242188 C 3.519531 14.640625 3.246094 15.238281 3.261719 15.863281 C 3.261719 16.785156 3.839844 17.503906 5.066406 18.046875 C 5.457031 18.214844 5.828125 18.433594 6.164062 18.695312 C 6.347656 18.832031 6.453125 19.046875 6.453125 19.273438 C 6.453125 19.492188 6.347656 19.703125 6.164062 19.832031 C 5.925781 19.988281 5.640625 20.0625 5.355469 20.046875 C 4.59375 20.058594 3.863281 19.765625 3.316406 19.234375 L 3.316406 20.914062 C 3.917969 21.203125 4.578125 21.347656 5.246094 21.328125 C 6 21.363281 6.742188 21.160156 7.375 20.75 C 7.886719 20.355469 8.175781 19.738281 8.148438 19.09375 C 8.167969 18.632812 8.003906 18.175781 7.699219 17.828125 C 7.269531 17.390625 6.753906 17.046875 6.183594 16.820312 M 15.558594 19.652344 C 15.964844 18.957031 16.171875 18.164062 16.152344 17.359375 C 16.167969 16.671875 16.011719 15.992188 15.703125 15.378906 C 15.421875 14.816406 14.984375 14.347656 14.441406 14.027344 C 13.890625 13.714844 13.269531 13.554688 12.636719 13.558594 C 11.949219 13.546875 11.273438 13.714844 10.671875 14.042969 C 10.109375 14.371094 9.652344 14.855469 9.355469 15.433594 C 9.03125 16.074219 8.871094 16.785156 8.886719 17.503906 C 8.878906 18.160156 9.027344 18.8125 9.320312 19.398438 C 9.59375 19.957031 10.019531 20.425781 10.546875 20.75 C 11.089844 21.082031 11.710938 21.261719 12.347656 21.273438 L 13.882812 23.074219 L 16.027344 23.074219 L 13.863281 21.074219 C 14.578125 20.8125 15.175781 20.308594 15.558594 19.652344 M 13.882812 19.183594 C 13.539062 19.589844 13.035156 19.824219 12.503906 19.824219 C 11.972656 19.824219 11.46875 19.589844 11.125 19.183594 C 10.75 18.660156 10.570312 18.023438 10.617188 17.378906 C 10.570312 16.738281 10.753906 16.097656 11.140625 15.578125 C 11.46875 15.136719 11.996094 14.882812 12.546875 14.910156 C 13.082031 14.894531 13.585938 15.144531 13.898438 15.578125 C 14.253906 16.109375 14.425781 16.742188 14.386719 17.378906 C 14.457031 18.039062 14.277344 18.703125 13.882812 19.234375 Z M 13.882812 19.183594 "/>
<path style=" stroke:none;fill-rule:nonzero;fill:rgb(58.039218%,58.039218%,58.039218%);fill-opacity:1;" d="M 26.410156 31.351562 L 26.84375 29.925781 L 27.691406 29.441406 L 29.152344 30.089844 L 30.089844 29.132812 L 30.089844 29.023438 L 29.421875 27.746094 L 29.820312 26.84375 L 31.277344 26.320312 L 31.441406 26.320312 L 31.441406 25.003906 L 31.261719 25.003906 L 29.820312 24.574219 L 29.351562 23.742188 L 29.980469 22.265625 L 29.023438 21.34375 L 28.917969 21.34375 L 27.636719 21.996094 L 26.753906 21.453125 L 26.175781 19.847656 L 24.84375 19.847656 L 24.84375 20.046875 L 24.410156 21.472656 L 23.492188 21.867188 L 21.921875 21.148438 L 21.003906 22.101562 L 21.09375 22.28125 L 21.777344 23.617188 L 21.417969 24.535156 L 19.722656 25.058594 L 19.722656 26.394531 L 19.921875 26.394531 L 21.34375 26.824219 L 21.742188 27.746094 L 21.039062 29.296875 L 21.996094 30.234375 L 22.15625 30.144531 L 23.492188 29.457031 L 24.410156 29.820312 L 25.023438 31.421875 L 26.339844 31.421875 Z M 24.246094 27.097656 C 23.492188 26.355469 23.480469 25.140625 24.222656 24.382812 C 24.964844 23.625 26.183594 23.617188 26.9375 24.359375 C 27.695312 25.101562 27.703125 26.320312 26.960938 27.074219 C 26.21875 27.832031 25.003906 27.839844 24.246094 27.097656 M 24.246094 27.097656 "/>
</g>
</svg>
