<?xml version="1.0" encoding="UTF-8"?>
<svg xmlns="http://www.w3.org/2000/svg" xmlns:xlink="http://www.w3.org/1999/xlink" width="32" height="32" viewBox="0 0 32 32" version="1.1">
<defs>
<linearGradient id="linear0" gradientUnits="userSpaceOnUse" x1="12.74" y1="15.28" x2="12.74" y2="8.52" gradientTransform="matrix(1.777778,0,0,1.777778,0,0)">
<stop offset="0" style="stop-color:rgb(0%,47.058824%,83.137256%);stop-opacity:1;"/>
<stop offset="0.82" style="stop-color:rgb(36.862746%,62.7451%,93.725491%);stop-opacity:1;"/>
</linearGradient>
<linearGradient id="linear1" gradientUnits="userSpaceOnUse" x1="12.74" y1="17.889999" x2="12.74" y2="15.28" gradientTransform="matrix(1.777778,0,0,1.777778,0,0)">
<stop offset="0.15" style="stop-color:rgb(80.000001%,80.000001%,80.000001%);stop-opacity:1;"/>
<stop offset="1" style="stop-color:rgb(43.921569%,43.921569%,43.921569%);stop-opacity:1;"/>
</linearGradient>
</defs>
<g id="surface1">
<path style=" stroke:none;fill-rule:nonzero;fill:rgb(0%,35.686275%,63.137257%);fill-opacity:1;" d="M 2.007812 1.582031 L 18.773438 1.582031 C 19.105469 1.582031 19.378906 1.851562 19.378906 2.1875 L 19.378906 12.976562 C 19.378906 13.3125 19.105469 13.582031 18.773438 13.582031 L 2.007812 13.582031 C 1.675781 13.582031 1.40625 13.3125 1.40625 12.976562 L 1.40625 2.1875 C 1.40625 1.851562 1.675781 1.582031 2.007812 1.582031 Z M 2.007812 1.582031 "/>
<path style=" stroke:none;fill-rule:nonzero;fill:rgb(31.37255%,90.196079%,100%);fill-opacity:1;" d="M 13.386719 5.832031 L 13.386719 9.332031 L 10.398438 11.074219 L 10.398438 7.589844 Z M 13.386719 5.832031 "/>
<path style=" stroke:none;fill-rule:nonzero;fill:rgb(76.47059%,94.509804%,100%);fill-opacity:1;" d="M 13.386719 5.832031 L 10.398438 7.589844 L 7.394531 5.832031 L 10.398438 4.070312 Z M 13.386719 5.832031 "/>
<path style=" stroke:none;fill-rule:nonzero;fill:rgb(61.176473%,92.156863%,100%);fill-opacity:1;" d="M 10.398438 7.589844 L 10.398438 11.074219 L 7.394531 9.332031 L 7.394531 5.832031 Z M 10.398438 7.589844 "/>
<path style=" stroke:none;fill-rule:nonzero;fill:rgb(0%,47.058824%,83.137256%);fill-opacity:1;" d="M 9.066406 8.460938 L 25.832031 8.460938 C 26.164062 8.460938 26.4375 8.734375 26.4375 9.066406 L 26.4375 19.859375 C 26.4375 20.191406 26.164062 20.460938 25.832031 20.460938 L 9.066406 20.460938 C 8.734375 20.460938 8.460938 20.191406 8.460938 19.859375 L 8.460938 9.066406 C 8.460938 8.734375 8.734375 8.460938 9.066406 8.460938 Z M 9.066406 8.460938 "/>
<path style=" stroke:none;fill-rule:nonzero;fill:rgb(31.37255%,90.196079%,100%);fill-opacity:1;" d="M 20.445312 12.730469 L 20.445312 16.214844 L 17.457031 17.972656 L 17.457031 14.472656 Z M 20.445312 12.730469 "/>
<path style=" stroke:none;fill-rule:nonzero;fill:rgb(76.47059%,94.509804%,100%);fill-opacity:1;" d="M 20.445312 12.730469 L 17.457031 14.472656 L 14.453125 12.730469 L 17.457031 10.96875 Z M 20.445312 12.730469 "/>
<path style=" stroke:none;fill-rule:nonzero;fill:rgb(61.176473%,92.156863%,100%);fill-opacity:1;" d="M 17.457031 14.472656 L 17.457031 17.972656 L 14.453125 16.214844 L 14.453125 12.730469 Z M 17.457031 14.472656 "/>
<path style=" stroke:none;fill-rule:nonzero;fill:url(#linear0);" d="M 14.257812 15.148438 L 31.023438 15.148438 C 31.355469 15.148438 31.625 15.417969 31.625 15.75 L 31.625 26.542969 C 31.625 26.875 31.355469 27.148438 31.023438 27.148438 L 14.257812 27.148438 C 13.925781 27.148438 13.652344 26.875 13.652344 26.542969 L 13.652344 15.75 C 13.652344 15.417969 13.925781 15.148438 14.257812 15.148438 Z M 14.257812 15.148438 "/>
<path style=" stroke:none;fill-rule:nonzero;fill:rgb(31.37255%,90.196079%,100%);fill-opacity:1;" d="M 25.636719 19.414062 L 25.636719 22.898438 L 22.648438 24.65625 L 22.648438 21.15625 Z M 25.636719 19.414062 "/>
<path style=" stroke:none;fill-rule:nonzero;fill:rgb(76.47059%,94.509804%,100%);fill-opacity:1;" d="M 25.636719 19.414062 L 22.648438 21.171875 L 19.644531 19.414062 L 22.648438 17.652344 Z M 25.636719 19.414062 "/>
<path style=" stroke:none;fill-rule:nonzero;fill:rgb(61.176473%,92.156863%,100%);fill-opacity:1;" d="M 22.648438 21.171875 L 22.648438 24.65625 L 19.644531 22.898438 L 19.644531 19.414062 Z M 22.648438 21.171875 "/>
<path style=" stroke:none;fill-rule:nonzero;fill:rgb(76.47059%,94.509804%,100%);fill-opacity:1;" d="M 19.644531 22.898438 L 22.648438 21.15625 L 22.648438 24.65625 Z M 19.644531 22.898438 "/>
<path style=" stroke:none;fill-rule:nonzero;fill:rgb(61.176473%,92.156863%,100%);fill-opacity:1;" d="M 25.636719 22.898438 L 22.648438 21.15625 L 22.648438 24.65625 Z M 25.636719 22.898438 "/>
<path style=" stroke:none;fill-rule:nonzero;fill:url(#linear1);" d="M 26.238281 30.792969 C 24.460938 30.507812 24.460938 29.226562 24.460938 27.234375 L 20.90625 27.234375 C 20.90625 29.296875 20.90625 30.578125 19.128906 30.792969 C 18.625 30.867188 18.25 31.296875 18.238281 31.804688 L 27.128906 31.804688 C 27.117188 31.296875 26.742188 30.867188 26.238281 30.792969 "/>
</g>
</svg>
