<svg role="img" viewBox="0 0 18 18" xmlns="http://www.w3.org/2000/svg" xmlns:xlink="http://www.w3.org/1999/xlink"><defs><linearGradient gradientTransform="rotate(45 9 9)" gradientUnits="userSpaceOnUse" id="a" x1="9" x2="9" y1="18.17" y2="1.506"><stop offset="0" stop-color="#238ab0"/><stop offset=".109" stop-color="#2da4c8"/><stop offset=".775" stop-color="#3ed3f2"/></linearGradient></defs><rect fill="url(#a)" height="12.893" rx=".591" transform="rotate(-45 9 9)" width="12.893" x="2.553" y="2.553"/><path d="m14.092 10.067-.358-.358V8.33h-2.857v1.52h1.281L8.94 13.069 5.721 9.85h1.302V8.33H3.885v1.52h.119l-.216.217 4.498 4.498.654-.653.653.653z" fill="#9cebff"/><path d="M2.854 7.972A1.585 1.577 44.879 1 0 5.1 10.208a1.585 1.577 44.879 1 0-2.246-2.236" fill="#fff"/><path d="M3.336 8.45a.905.896 44.939 1 0 1.281 1.279.905.896 44.939 1 0-1.28-1.279" fill="#86d633"/><path d="M12.891 7.972a1.585 1.577 44.879 1 0 2.246 2.237 1.585 1.577 44.879 1 0-2.246-2.237" fill="#fff"/><path d="M13.374 8.451a.905.896 44.939 1 0 1.28 1.279.905.896 44.939 1 0-1.28-1.279" fill="#86d633"/><path d="m11.04 4.806-2-2a.15.15 0 0 0-.213 0l-2 2a.15.15 0 0 0 .106.257h1.135a.107.107 0 0 1 .107.107v10.263H9.7V5.17a.107.107 0 0 1 .1-.107h1.131a.15.15 0 0 0 .109-.257m-3.228 8.215a1.585 1.577 44.879 1 0 2.246 2.237 1.585 1.577 44.879 1 0-2.246-2.237" fill="#fff"/><path d="M8.295 13.5a.905.896 44.939 1 0 1.282 1.279.905.896 44.939 1 0-1.282-1.279" fill="#86d633"/></svg>