<?xml version="1.0" encoding="UTF-8"?>
<svg xmlns="http://www.w3.org/2000/svg" xmlns:xlink="http://www.w3.org/1999/xlink" width="32" height="32" viewBox="0 0 32 32" version="1.1">
<g id="surface1">
<path style=" stroke:none;fill-rule:nonzero;fill:rgb(0%,0%,0%);fill-opacity:1;" d="M 22.949219 25.78125 L 6.21875 9.050781 C 4.820312 11.007812 4 13.40625 4 16 C 4 22.625 9.375 28 16 28 C 18.59375 28 20.992188 27.179688 22.949219 25.78125 M 25.78125 22.949219 C 27.179688 20.992188 28 18.59375 28 16 C 28 9.375 22.625 4 16 4 C 13.40625 4 11.007812 4.820312 9.050781 6.21875 Z M 0 16 C 0 7.164062 7.164062 0 16 0 C 24.835938 0 32 7.164062 32 16 C 32 24.835938 24.835938 32 16 32 C 7.164062 32 0 24.835938 0 16 "/>
</g>
</svg>
