<?xml version="1.0" encoding="UTF-8"?>
<svg xmlns="http://www.w3.org/2000/svg" xmlns:xlink="http://www.w3.org/1999/xlink" width="27.675676" height="32" viewBox="0 0 27.675676 32" version="1.1">
<g id="surface1">
<path style=" stroke:none;fill-rule:evenodd;fill:rgb(10.588235%,10.588235%,12.156863%);fill-opacity:1;" d="M 25.765625 6.457031 L 15.773438 0.527344 C 14.589844 -0.175781 13.121094 -0.175781 11.9375 0.527344 L 1.941406 6.457031 C 0.734375 7.179688 -0.00390625 8.484375 0 9.890625 L 0 21.753906 C -0.0078125 23.15625 0.722656 24.460938 1.925781 25.1875 L 11.917969 31.117188 C 13.101562 31.820312 14.574219 31.820312 15.753906 31.117188 L 25.75 25.1875 C 26.953125 24.460938 27.683594 23.15625 27.675781 21.753906 L 27.675781 9.890625 C 27.6875 8.492188 26.960938 7.1875 25.765625 6.457031 Z M 18.027344 24.980469 L 18.027344 25.832031 C 18.027344 25.9375 17.96875 26.035156 17.878906 26.09375 L 17.375 26.382812 C 17.292969 26.425781 17.226562 26.382812 17.226562 26.269531 L 17.226562 25.433594 C 16.871094 25.609375 16.460938 25.648438 16.078125 25.546875 C 16.015625 25.503906 15.992188 25.425781 16.019531 25.347656 L 16.203125 24.574219 C 16.21875 24.511719 16.25 24.453125 16.304688 24.40625 C 16.316406 24.394531 16.335938 24.382812 16.351562 24.375 C 16.378906 24.363281 16.40625 24.363281 16.429688 24.375 C 16.785156 24.46875 17.160156 24.421875 17.480469 24.242188 C 17.9375 24.015625 18.238281 23.554688 18.261719 23.042969 C 18.261719 22.609375 18.023438 22.429688 17.449219 22.425781 C 16.722656 22.425781 16.066406 22.289062 16.035156 21.214844 C 16.050781 20.289062 16.480469 19.417969 17.207031 18.84375 L 17.207031 17.980469 C 17.210938 17.875 17.265625 17.777344 17.355469 17.714844 L 17.84375 17.40625 C 17.921875 17.363281 17.988281 17.40625 17.988281 17.519531 L 17.988281 18.382812 C 18.289062 18.246094 18.621094 18.207031 18.945312 18.265625 C 19.015625 18.308594 19.042969 18.394531 19.007812 18.464844 L 18.835938 19.230469 C 18.824219 19.289062 18.792969 19.339844 18.75 19.382812 C 18.738281 19.398438 18.71875 19.410156 18.699219 19.421875 C 18.679688 19.433594 18.652344 19.429688 18.628906 19.421875 C 18.3125 19.351562 17.984375 19.40625 17.707031 19.574219 C 17.296875 19.75 17.023438 20.148438 17.007812 20.597656 C 17.007812 20.988281 17.214844 21.105469 17.90625 21.121094 C 18.832031 21.121094 19.226562 21.539062 19.238281 22.46875 C 19.222656 23.441406 18.777344 24.355469 18.023438 24.96875 Z M 23.261719 23.546875 C 23.273438 23.621094 23.242188 23.695312 23.183594 23.738281 L 20.667969 25.273438 C 20.644531 25.292969 20.605469 25.296875 20.582031 25.28125 C 20.554688 25.265625 20.542969 25.230469 20.546875 25.199219 L 20.546875 24.546875 C 20.550781 24.476562 20.597656 24.414062 20.664062 24.386719 L 23.152344 22.898438 C 23.175781 22.878906 23.210938 22.875 23.238281 22.890625 C 23.261719 22.90625 23.277344 22.941406 23.269531 22.96875 L 23.269531 23.546875 Z M 25.003906 8.960938 L 15.550781 14.800781 C 14.371094 15.496094 13.503906 16.261719 13.503906 17.679688 L 13.503906 29.328125 C 13.503906 30.175781 13.851562 30.710938 14.375 30.890625 C 14.203125 30.921875 14.027344 30.941406 13.851562 30.941406 C 13.296875 30.941406 12.75 30.789062 12.273438 30.507812 L 2.28125 24.574219 C 1.292969 23.980469 0.691406 22.910156 0.699219 21.753906 L 0.699219 9.890625 C 0.691406 8.734375 1.285156 7.664062 2.28125 7.066406 L 12.273438 1.132812 C 13.242188 0.558594 14.445312 0.558594 15.414062 1.132812 L 25.40625 7.066406 C 26.230469 7.5625 26.792969 8.398438 26.941406 9.339844 C 26.617188 8.632812 25.871094 8.449219 25 8.949219 L 25.003906 8.949219 Z M 25.003906 8.960938 "/>
</g>
</svg>
