<svg xmlns="http://www.w3.org/2000/svg" width="32" height="37" stroke="#000" stroke-linecap="round" stroke-linejoin="round" fill="#fff" fill-rule="evenodd"><path d="M29.7921 7.4666L18.2386.6088a4.345 4.345 0 0 0-4.4361 0L2.2467 7.4666a4.608 4.608 0 0 0-2.2466 3.9697v13.7155c-.0087 1.6232.8374 3.1311 2.2272 3.9697l11.5534 6.8578c1.3674.8117 3.0689.8117 4.4362 0l11.5557-6.8578a4.608 4.608 0 0 0 2.2273-3.9697V11.4363a4.608 4.608 0 0 0-2.2067-3.9697zm-8.949 21.417v.9833c-.0011.1235-.0651.2367-.1692.303l-.5854.335c-.0914.048-.1692 0-.1692-.1292v-.9684c-.4132.2031-.8862.249-1.3308.1292-.0709-.048-.0983-.1395-.064-.2287l.2092-.8917c.0183-.0755.0572-.143.1166-.1944.0166-.0165.036-.0301.0572-.04.0294-.0115.0621-.0115.0914 0 .4081.1095.8429.0545 1.2108-.1533a1.612 1.612 0 0 0 .9033-1.3834c0-.5008-.2744-.7089-.9376-.7146-.8392 0-1.6006-.1601-1.6349-1.3995.0194-1.0713.5167-2.0774 1.356-2.744v-.997c.0046-.1232.0674-.2368.1692-.3063l.5648-.3591c.0915-.048.1692 0 .1692.1326v.9971c.346-.1573.7322-.2036 1.1056-.1327a.178.178 0 0 1 .0732.2287l-.1978.8838a.372.372 0 0 1-.1006.1772c-.016.0171-.0343.032-.0572.0457s-.0572.0092-.0846 0a1.464 1.464 0 0 0-1.0645.1738 1.338 1.338 0 0 0-.8072 1.1857c0 .4516.2379.5888 1.0371.6059 1.069 0 1.5286.4837 1.5412 1.5573-.0206 1.1239-.534 2.1815-1.404 2.8927zm6.0517-1.6578c.0138.0846-.0205.1715-.0891.2218l-2.9098 1.7745c-.0275.0228-.0686.0263-.0995.008s-.0457-.0572-.0377-.0914v-.7546c.0034-.0824.0571-.1556.1326-.1853l2.8766-1.723a.088.088 0 0 1 .0995-.008c.0309.0183.0457.0571.0377.0914v.6655zm2.018-16.8665l-10.9326 6.7526c-1.364.8071-2.3667 1.6898-2.3667 3.3316v13.4663c0 .9832.4036 1.6006 1.0084 1.8064-.1999.0374-.4026.0577-.6059.0606a3.578 3.578 0 0 1-1.8237-.5041L2.6389 28.4161a3.773 3.773 0 0 1-1.8316-3.262V11.4363c-.0069-1.3355.6791-2.5748 1.8316-3.2677l11.5534-6.8577c1.1205-.6632 2.5108-.6632 3.6313 0L29.377 8.1686c.9524.5763 1.6007 1.5435 1.7745 2.6297-.375-.8152-1.2382-1.029-2.2432-.4516h.0034z" stroke="none" fill="#1b1b1f"/></svg>