<?xml version="1.0" encoding="UTF-8"?>
<svg xmlns="http://www.w3.org/2000/svg" xmlns:xlink="http://www.w3.org/1999/xlink" width="22.4" height="32" viewBox="0 0 22.4 32" version="1.1">
<g id="surface1">
<path style=" stroke:none;fill-rule:nonzero;fill:rgb(0%,0%,0%);fill-opacity:1;" d="M 19.414062 17.011719 L 19.414062 14.132812 C 19.414062 10.125 16.664062 6.640625 12.765625 5.710938 C 12.78125 5.65625 12.792969 5.597656 12.800781 5.542969 L 12.800781 1.761719 C 12.800781 0.875 12.082031 0.160156 11.199219 0.160156 C 10.316406 0.160156 9.601562 0.875 9.601562 1.761719 L 9.601562 5.542969 C 9.609375 5.597656 9.621094 5.65625 9.632812 5.710938 C 5.734375 6.640625 2.984375 10.125 2.988281 14.132812 L 2.988281 17.011719 C 2.988281 20.828125 0 21.78125 0 23.691406 C 0 24.640625 0 25.601562 0.859375 25.601562 L 21.539062 25.601562 C 22.398438 25.601562 22.398438 24.640625 22.398438 23.691406 C 22.398438 21.78125 19.414062 20.828125 19.414062 17.011719 M 6.117188 27.199219 C 6.984375 29.238281 8.984375 30.558594 11.199219 30.558594 C 13.414062 30.558594 15.414062 29.238281 16.28125 27.199219 Z M 6.117188 27.199219 "/>
</g>
</svg>
