<?xml version="1.0" encoding="UTF-8"?>
<svg xmlns="http://www.w3.org/2000/svg" xmlns:xlink="http://www.w3.org/1999/xlink" width="24.380952" height="32" viewBox="0 0 24.380952 32" version="1.1">
<g id="surface1">
<path style="fill:none;stroke-width:2;stroke-linecap:round;stroke-linejoin:round;stroke:rgb(0%,0%,0%);stroke-opacity:1;stroke-miterlimit:4;" d="M 8.00061 3.463257 L 8.00061 1.099731 M 8.00061 3.46582 C 10.879395 3.57605 13.150635 5.952393 13.13269 8.83374 L 13.13269 10.633301 C 13.13269 13.019897 14.998901 13.614624 14.998901 14.809204 C 14.998901 15.398804 14.998901 16.001221 14.463135 16.001221 L 1.538086 16.001221 C 0.999756 16.001221 0.999756 15.398804 0.999756 14.806641 C 0.999756 13.614624 2.865967 13.017334 2.865967 10.630737 L 2.865967 8.831177 C 2.848022 5.949829 5.121826 3.573486 8.00061 3.463257 Z M 4.539917 16.001221 C 4.729614 17.767456 6.221558 19.108154 8.00061 19.108154 C 9.7771 19.108154 11.269043 17.767456 11.45874 16.001221 Z M 4.539917 16.001221 " transform="matrix(1.52381,0,0,1.52381,0,0)"/>
</g>
</svg>
