<?xml version="1.0" encoding="UTF-8"?>
<svg xmlns="http://www.w3.org/2000/svg" xmlns:xlink="http://www.w3.org/1999/xlink" width="32" height="32" viewBox="0 0 32 32" version="1.1">
<g id="surface1">
<path style=" stroke:none;fill-rule:nonzero;fill:rgb(94.117647%,54.509807%,11.372549%);fill-opacity:1;" d="M 3.964844 12.292969 L 3.964844 15.066406 L 1.628906 13.582031 Z M 3.964844 12.292969 "/>
<path style=" stroke:none;fill-rule:nonzero;fill:rgb(57.254905%,78.431374%,17.647059%);fill-opacity:1;" d="M 3.964844 12.292969 L 6.316406 13.582031 L 6.316406 16.570312 L 3.964844 15.066406 Z M 3.964844 12.292969 "/>
<path style=" stroke:none;fill-rule:nonzero;fill:rgb(20%,74.901962%,75.686276%);fill-opacity:1;" d="M 1.628906 13.582031 L 6.316406 16.570312 L 3.964844 17.832031 L 1.628906 16.570312 Z M 1.628906 13.582031 "/>
<path style=" stroke:none;fill-rule:nonzero;fill:rgb(100%,100%,100%);fill-opacity:1;" d="M 6.425781 13.390625 L 4.074219 12.101562 C 4.011719 12.070312 3.9375 12.070312 3.871094 12.101562 L 1.519531 13.390625 C 1.457031 13.433594 1.414062 13.496094 1.414062 13.582031 L 1.414062 16.570312 C 1.414062 16.644531 1.457031 16.714844 1.53125 16.761719 L 3.871094 18.027344 C 3.9375 18.0625 4.011719 18.0625 4.074219 18.027344 L 6.425781 16.761719 C 6.488281 16.726562 6.542969 16.652344 6.542969 16.570312 L 6.542969 13.582031 C 6.527344 13.492188 6.488281 13.429688 6.425781 13.390625 Z M 6.105469 16.171875 L 4.179688 14.949219 C 4.179688 14.941406 4.179688 14.941406 4.179688 14.941406 L 4.179688 12.652344 L 6.097656 13.707031 Z M 3.753906 14.683594 L 2.042969 13.589844 L 3.753906 12.652344 Z M 3.964844 17.589844 L 1.839844 16.441406 L 1.839844 13.964844 L 5.894531 16.550781 Z M 3.964844 17.589844 "/>
<path style=" stroke:none;fill-rule:nonzero;fill:rgb(34.901962%,34.901962%,34.901962%);fill-opacity:1;" d="M 6.773438 13.199219 L 4.074219 11.75 C 4.011719 11.714844 3.9375 11.714844 3.871094 11.75 L 1.171875 13.199219 C 1.097656 13.242188 1.054688 13.304688 1.054688 13.390625 L 1.054688 16.761719 C 1.054688 16.835938 1.109375 16.90625 1.171875 16.941406 L 3.871094 18.378906 C 3.9375 18.414062 4.011719 18.414062 4.074219 18.378906 L 6.773438 16.941406 C 6.847656 16.90625 6.890625 16.835938 6.890625 16.75 L 6.890625 13.390625 C 6.890625 13.300781 6.835938 13.238281 6.773438 13.199219 Z M 6.527344 16.570312 C 6.527344 16.644531 6.484375 16.714844 6.410156 16.761719 L 4.074219 18.011719 C 4.011719 18.046875 3.9375 18.046875 3.871094 18.011719 L 1.519531 16.746094 C 1.457031 16.710938 1.402344 16.636719 1.402344 16.554688 L 1.402344 13.574219 C 1.402344 13.5 1.449219 13.429688 1.511719 13.382812 L 3.851562 12.097656 C 3.917969 12.0625 3.988281 12.0625 4.054688 12.097656 L 6.40625 13.382812 C 6.46875 13.429688 6.511719 13.492188 6.511719 13.574219 Z M 8.433594 15.867188 L 8.433594 12.09375 L 9.207031 12.09375 L 9.207031 14.578125 C 9.507812 14.054688 10.054688 13.757812 10.71875 13.757812 C 11.785156 13.757812 12.78125 14.523438 12.78125 15.863281 C 12.78125 17.136719 11.878906 18.023438 10.589844 18.023438 C 9.335938 18.023438 8.433594 17.183594 8.433594 15.867188 Z M 11.996094 15.898438 C 11.996094 15.078125 11.441406 14.484375 10.601562 14.484375 C 9.773438 14.484375 9.21875 15.078125 9.21875 15.898438 C 9.21875 16.714844 9.78125 17.308594 10.601562 17.308594 C 11.445312 17.300781 11.996094 16.714844 11.996094 15.898438 Z M 13.570312 13.863281 L 14.347656 13.863281 L 14.347656 17.917969 L 13.570312 17.917969 Z M 15.195312 17.28125 L 17.8125 14.558594 L 15.324219 14.558594 L 15.324219 13.855469 L 18.851562 13.855469 L 18.851562 14.492188 L 16.234375 17.21875 L 18.925781 17.21875 L 18.925781 17.917969 L 15.191406 17.917969 L 15.191406 17.28125 Z M 19.429688 15.929688 C 19.429688 14.65625 20.332031 13.761719 21.621094 13.761719 C 22.894531 13.761719 23.777344 14.636719 23.777344 15.929688 L 23.777344 17.929688 L 23.066406 17.929688 L 23.066406 17.046875 C 22.800781 17.703125 22.195312 18.035156 21.492188 18.035156 C 20.425781 18.023438 19.429688 17.257812 19.429688 15.929688 Z M 23.011719 15.898438 C 23.011719 15.078125 22.449219 14.484375 21.621094 14.484375 C 20.78125 14.484375 20.226562 15.078125 20.226562 15.898438 C 20.226562 16.714844 20.789062 17.308594 21.621094 17.308594 C 22.449219 17.300781 23.011719 16.714844 23.011719 15.898438 Z M 24.5625 18.40625 L 25.363281 18.40625 C 25.554688 18.871094 26.035156 19.078125 26.621094 19.078125 C 27.449219 19.078125 28.003906 18.683594 28.003906 17.621094 L 28.003906 17.152344 C 27.730469 17.671875 27.15625 17.992188 26.472656 17.992188 C 25.417969 17.992188 24.421875 17.269531 24.421875 15.886719 C 24.421875 14.65625 25.324219 13.746094 26.601562 13.746094 C 27.878906 13.746094 28.769531 14.609375 28.769531 15.917969 L 28.769531 17.585938 C 28.769531 19.152344 27.8125 19.753906 26.621094 19.753906 C 25.628906 19.757812 24.855469 19.34375 24.5625 18.40625 Z M 28 15.898438 C 28 15.078125 27.445312 14.484375 26.605469 14.484375 C 25.765625 14.484375 25.210938 15.078125 25.210938 15.898438 C 25.210938 16.714844 25.765625 17.257812 26.605469 17.257812 C 27.449219 17.257812 28 16.714844 28 15.898438 Z M 29.722656 13.863281 L 30.5 13.863281 L 30.5 17.917969 L 29.722656 17.917969 Z M 29.722656 13.863281 "/>
</g>
</svg>
