<?xml version="1.0" encoding="utf-8"?>
<!-- Generator: Adobe Illustrator 19.2.1, SVG Export Plug-In . SVG Version: 6.00 Build 0)  -->
<svg version="1.1" id="layer" xmlns="http://www.w3.org/2000/svg" xmlns:xlink="http://www.w3.org/1999/xlink" x="0px" y="0px"
	 viewBox="0 0 652 652" style="enable-background:new 0 0 652 652;" xml:space="preserve">
<style type="text/css">
	.st0{fill:#F08B1D;}
	.st1{fill:#92C82D;}
	.st2{fill:#33BFC1;}
	.st3{fill:#FFFFFF;}
	.st4{fill:#595959;}
</style>
<polygon class="st0" points="80.8,250.5 80.8,307 33.2,276.7 "/>
<polygon class="st1" points="80.8,250.5 128.7,276.7 128.7,337.6 80.8,307 "/>
<polygon class="st2" points="33.2,276.7 128.7,337.6 80.8,363.3 33.2,337.6 "/>
<path class="st3" d="M130.9,272.8L83,246.6c-1.3-0.7-2.8-0.7-4.1,0L31,272.8c-1.3,0.9-2.2,2.2-2.2,3.9v60.9c0,1.5,0.9,3,2.4,3.9
	l47.7,25.8c1.3,0.7,2.8,0.7,4.1,0l47.9-25.8c1.3-0.7,2.4-2.2,2.4-3.9v-60.9C133,274.9,132.2,273.6,130.9,272.8z M124.4,329.5
	l-39.2-24.9c0-0.2,0-0.2,0-0.2v-46.6l39,21.5L124.4,329.5z M76.5,299.2l-34.9-22.3l34.9-19.1V299.2z M80.8,358.4L37.5,335v-50.5
	l82.6,52.7L80.8,358.4z"/>
<path class="st4" d="M138,268.9l-55-29.5c-1.3-0.7-2.8-0.7-4.1,0l-55,29.5c-1.5,0.9-2.4,2.2-2.4,3.9v68.7c0,1.5,1.1,3,2.4,3.7
	l55,29.3c1.3,0.7,2.8,0.7,4.1,0l55-29.3c1.5-0.7,2.4-2.2,2.4-3.9v-68.5C140.4,271,139.3,269.7,138,268.9z M133,337.6
	c0,1.5-0.9,3-2.4,3.9L83,367c-1.3,0.7-2.8,0.7-4.1,0L31,341.2c-1.3-0.7-2.4-2.2-2.4-3.9v-60.7c0-1.5,0.9-3,2.2-3.9l47.7-26.2
	c1.3-0.7,2.8-0.7,4.1,0l47.9,26.2c1.3,0.9,2.2,2.2,2.2,3.9L133,337.6z M171.8,323.3v-76.9h15.8V297c6.1-10.6,17.3-16.7,30.8-16.7
	c21.7,0,42,15.6,42,42.9c0,26-18.4,44-44.6,44C190.2,367.2,171.8,350.1,171.8,323.3z M244.4,323.9c0-16.7-11.3-28.8-28.4-28.8
	c-16.9,0-28.2,12.1-28.2,28.8c0,16.7,11.5,28.8,28.2,28.8C233.2,352.5,244.4,340.6,244.4,323.9z M276.5,282.5h15.8v82.6h-15.8V282.5
	z M309.6,352.1l53.3-55.5h-50.7v-14.3h71.9v13l-53.3,55.5h54.8v14.3h-76.1V352.1z M395.9,324.6c0-26,18.4-44.2,44.6-44.2
	c26,0,44,17.8,44,44.2v40.7H470v-18c-5.4,13.4-17.8,20.2-32.1,20.2C416.2,367.2,395.9,351.6,395.9,324.6z M468.9,323.9
	c0-16.7-11.5-28.8-28.4-28.8c-17.1,0-28.4,12.1-28.4,28.8c0,16.7,11.5,28.8,28.4,28.8C457.4,352.5,468.9,340.6,468.9,323.9
	L468.9,323.9z M500.5,375h16.3c3.9,9.5,13.7,13.7,25.6,13.7c16.9,0,28.2-8,28.2-29.7v-9.5c-5.6,10.6-17.3,17.1-31.2,17.1
	c-21.5,0-41.8-14.7-41.8-42.9c0-25.1,18.4-43.6,44.4-43.6s44.2,17.6,44.2,44.2v34c0,31.9-19.5,44.2-43.8,44.2
	C522.2,402.6,506.4,394.1,500.5,375z M570.5,323.9c0-16.7-11.3-28.8-28.4-28.8s-28.4,12.1-28.4,28.8c0,16.7,11.3,27.7,28.4,27.7
	C559.3,351.6,570.5,340.6,570.5,323.9z M605.6,282.5h15.8v82.6h-15.8V282.5z"/>
</svg>
