<svg xmlns="http://www.w3.org/2000/svg" width="105" height="122" stroke="none" stroke-linecap="round" stroke-linejoin="round" fill="#fff" fill-rule="nonzero"><path d="M52.0001 4.4249v56.5L4.4 30.6249z" fill="#f08b1d"/><path d="M52 4.4249l47.8999 26.2v60.9L52 60.9249z" fill="#92c82d"/><path d="M4.3999 30.625l95.5 60.9L52 117.225l-47.6001-25.7z" fill="#33bfc1"/><path d="M102.1 26.725L54.2.525c-1.3001-.7-2.8001-.7-4.1 0l-47.9 26.2c-1.3001.9-2.2 2.2-2.2 3.9v60.9c0 1.5.8999 3 2.3999 3.9l47.7001 25.8c1.2999.7 2.7999.7 4.1 0l47.9-25.8c1.2999-.7 2.4-2.2 2.4-3.9v-60.9c-.3-1.8-1.1001-3.1-2.4-3.9zm-6.5 56.7l-39.2001-24.9v-.2-46.6l39 21.5.2001 50.2zM47.7 53.1249L12.7999 30.825 47.7 11.725v41.3999zM52 112.325l-43.3-23.4v-50.5l82.5999 52.6999L52 112.325z"/></svg>