<svg role="img" viewBox="0 0 27.541 32" xmlns="http://www.w3.org/2000/svg"><path d="M13.64 1.16v14.82L1.153 8.031Zm0 0" style="stroke:none;fill-rule:nonzero;fill:rgb(94.117647%,54.509807%,11.372549%);fill-opacity:1"/><path d="m13.64 1.16 12.563 6.871v15.977L13.641 15.98Zm0 0" style="stroke:none;fill-rule:nonzero;fill:rgb(57.254905%,78.431374%,17.647059%);fill-opacity:1"/><path d="m1.152 8.031 25.051 15.977-12.562 6.738-12.489-6.738Zm0 0" style="stroke:none;fill-rule:nonzero;fill:rgb(20%,74.901962%,75.686276%);fill-opacity:1"/><path d="M26.781 7.012 14.215.137a1.116 1.116 0 0 0-1.074 0L.578 7.012C.234 7.246 0 7.586 0 8.032v15.976c0 .39.234.785.629 1.023l12.512 6.766c.34.183.734.183 1.074 0L26.78 25.03c.34-.183.63-.578.63-1.023V8.03c-.079-.469-.29-.812-.63-1.02m-1.707 14.87-10.281-6.53V3.074l10.23 5.64Zm-12.562-7.948L3.355 8.086l9.157-5.012ZM13.64 29.46 2.28 23.324V10.078l21.67 13.824Zm0 0" style="stroke:none;fill-rule:nonzero;fill:rgb(100%,100%,100%);fill-opacity:1"/></svg>