<svg role="img" viewBox="0 0 32 32" xmlns="http://www.w3.org/2000/svg"><path d="M13.441 0C9.511 0 7.266 2.2 6.56 3.898 4.75 4.25 3.137 5.453 2.199 7.16c-1.191 2.184-1.207 4.914-.12 7.82a9.669 9.669 0 0 1 4.062-.902c3.035 0 5.015 1.344 5.097 1.402.293.2.364.59.16.88a.628.628 0 0 1-.878.16c-.016-.012-1.758-1.16-4.38-1.16-1.706 0-3.113.542-4.062 1.062-.68 1.156-.906 2.566-.578 3.84.352 1.37 1.3 2.465 2.719 3.117-.543 1.25-.5 2.508.12 3.601.778 1.372 2.372 2.297 4.141 2.442C9.422 32 12.21 32 13.441 32c.735 0 1.391-.23 1.918-.621V.5c-.484-.336-1.113-.5-1.918-.5m5.118 0c-.805 0-1.434.164-1.918.5v30.86c.523.39 1.183.636 1.918.64h.02c1.37 0 3.44-.664 4.523-2.379-1.98-.984-3.903-2.96-3.903-5.941a.641.641 0 0 1 1.281 0c0 3.265 2.727 4.656 3.758 5.058 1.649-.199 2.852-.832 3.461-1.816.582-.945.602-2.121.04-3.524 1.5-.675 2.5-1.832 2.84-3.277.269-1.125.081-2.34-.458-3.383-1.2 1.16-3.367 2.461-7.082 2.461a.638.638 0 1 1 0-1.277c4.277 0 6.168-1.906 6.86-2.883C31.007 12.113 31 9.355 29.8 7.16c-.938-1.707-2.551-2.91-4.36-3.262C24.734 2.2 22.488 0 18.56 0m-6.4 6.398a.64.64 0 0 1 .64.641c0 .89-.808 3.2-4.48 3.2a.64.64 0 0 1-.64-.637.64.64 0 0 1 .64-.641c2.61 0 3.2-1.422 3.2-1.922a.64.64 0 0 1 .64-.64m8.961 1.282a.64.64 0 0 1 .64.64c0 1.043 1.094 3.2 4.477 3.2.356 0 .64.285.64.64 0 .356-.284.64-.64.64-4.351 0-5.758-3.019-5.758-4.48 0-.355.286-.64.641-.64M7.141 19.2c2.78.464 4.379 2.57 4.379 5.76a.641.641 0 1 1-1.281 0c0-1.472-.438-4.003-3.317-4.48a.651.651 0 0 1 .218-1.28m0 0" style="stroke:none;fill-rule:nonzero;fill:rgb(0%,0%,0%);fill-opacity:1"/></svg>