<?xml version="1.0" encoding="UTF-8"?>
<svg xmlns="http://www.w3.org/2000/svg" xmlns:xlink="http://www.w3.org/1999/xlink" width="32" height="32" viewBox="0 0 32 32" version="1.1">
<g id="surface1">
<path style=" stroke:none;fill-rule:nonzero;fill:rgb(0%,0%,0%);fill-opacity:1;" d="M 13.441406 0 C 9.511719 0 7.265625 2.199219 6.558594 3.898438 C 4.75 4.25 3.136719 5.453125 2.199219 7.160156 C 1.007812 9.34375 0.992188 12.074219 2.078125 14.980469 C 3.351562 14.386719 4.738281 14.082031 6.140625 14.078125 C 9.175781 14.078125 11.15625 15.421875 11.238281 15.480469 C 11.53125 15.679688 11.601562 16.070312 11.398438 16.359375 C 11.304688 16.5 11.15625 16.59375 10.992188 16.625 C 10.828125 16.652344 10.65625 16.617188 10.519531 16.519531 C 10.503906 16.507812 8.761719 15.359375 6.140625 15.359375 C 4.433594 15.359375 3.027344 15.902344 2.078125 16.421875 C 1.398438 17.578125 1.171875 18.988281 1.5 20.261719 C 1.851562 21.632812 2.800781 22.726562 4.21875 23.378906 C 3.675781 24.628906 3.71875 25.886719 4.339844 26.980469 C 5.117188 28.351562 6.710938 29.277344 8.480469 29.421875 C 9.421875 32 12.210938 32 13.441406 32 C 14.175781 32 14.832031 31.769531 15.359375 31.378906 L 15.359375 0.5 C 14.875 0.164062 14.246094 0 13.441406 0 M 18.558594 0 C 17.753906 0 17.125 0.164062 16.640625 0.5 L 16.640625 31.359375 C 17.164062 31.75 17.824219 31.996094 18.558594 32 L 18.578125 32 C 19.949219 32 22.019531 31.335938 23.101562 29.621094 C 21.121094 28.636719 19.199219 26.660156 19.199219 23.679688 C 19.210938 23.335938 19.496094 23.0625 19.839844 23.0625 C 20.183594 23.0625 20.464844 23.335938 20.480469 23.679688 C 20.480469 26.945312 23.207031 28.335938 24.238281 28.738281 C 25.886719 28.539062 27.089844 27.90625 27.699219 26.921875 C 28.28125 25.976562 28.300781 24.800781 27.738281 23.398438 C 29.238281 22.722656 30.238281 21.566406 30.578125 20.121094 C 30.847656 18.996094 30.660156 17.78125 30.121094 16.738281 C 28.921875 17.898438 26.753906 19.199219 23.039062 19.199219 C 22.6875 19.199219 22.402344 18.914062 22.402344 18.558594 C 22.402344 18.207031 22.6875 17.921875 23.039062 17.921875 C 27.316406 17.921875 29.207031 16.015625 29.898438 15.039062 C 31.007812 12.113281 31 9.355469 29.800781 7.160156 C 28.863281 5.453125 27.25 4.25 25.441406 3.898438 C 24.734375 2.199219 22.488281 0 18.558594 0 M 12.160156 6.398438 C 12.328125 6.398438 12.492188 6.464844 12.613281 6.585938 C 12.734375 6.707031 12.800781 6.867188 12.800781 7.039062 C 12.800781 7.929688 11.992188 10.238281 8.320312 10.238281 C 7.96875 10.238281 7.683594 9.953125 7.679688 9.601562 C 7.679688 9.433594 7.746094 9.269531 7.867188 9.148438 C 7.988281 9.027344 8.148438 8.960938 8.320312 8.960938 C 10.929688 8.960938 11.519531 7.539062 11.519531 7.039062 C 11.519531 6.683594 11.804688 6.398438 12.160156 6.398438 M 21.121094 7.679688 C 21.472656 7.679688 21.761719 7.96875 21.761719 8.320312 C 21.761719 9.363281 22.855469 11.519531 26.238281 11.519531 C 26.59375 11.519531 26.878906 11.804688 26.878906 12.160156 C 26.878906 12.515625 26.59375 12.800781 26.238281 12.800781 C 21.886719 12.800781 20.480469 9.78125 20.480469 8.320312 C 20.480469 7.964844 20.765625 7.679688 21.121094 7.679688 M 7.140625 19.199219 C 9.921875 19.664062 11.519531 21.769531 11.519531 24.960938 C 11.527344 25.195312 11.410156 25.414062 11.207031 25.535156 C 11.003906 25.65625 10.753906 25.65625 10.550781 25.535156 C 10.351562 25.414062 10.230469 25.195312 10.238281 24.960938 C 10.238281 23.488281 9.800781 20.957031 6.921875 20.480469 C 6.589844 20.398438 6.378906 20.074219 6.4375 19.738281 C 6.492188 19.402344 6.800781 19.167969 7.140625 19.199219 M 7.140625 19.199219 "/>
</g>
</svg>
