<?xml version="1.0" encoding="utf-8"?>
<svg xmlns="http://www.w3.org/2000/svg" viewBox="0 0 50 50" fill="#000000"><path d="M 21 0 C 14.859375 0 11.351563 3.4375 10.25 6.09375 C 7.421875 6.640625 4.898438 8.519531 3.4375 11.1875 C 1.574219 14.597656 1.550781 18.863281 3.25 23.40625 C 4.886719 22.648438 7.035156 22 9.59375 22 C 14.339844 22 17.433594 24.097656 17.5625 24.1875 C 18.019531 24.5 18.125 25.109375 17.8125 25.5625 C 17.5 26.015625 16.894531 26.121094 16.4375 25.8125 C 16.410156 25.792969 13.691406 24 9.59375 24 C 6.929688 24 4.730469 24.847656 3.25 25.65625 C 2.1875 27.464844 1.832031 29.671875 2.34375 31.65625 C 2.894531 33.800781 4.378906 35.507813 6.59375 36.53125 C 5.746094 38.484375 5.8125 40.445313 6.78125 42.15625 C 7.996094 44.300781 10.484375 45.746094 13.25 45.96875 C 14.71875 50 19.078125 50 21 50 C 22.152344 50 23.175781 49.640625 24 49.03125 L 24 0.78125 C 23.242188 0.257813 22.257813 0 21 0 Z M 29 0 C 27.742188 0 26.757813 0.257813 26 0.78125 L 26 49 C 26.820313 49.609375 27.851563 49.992188 29 50 L 29.03125 50 C 31.167969 50 34.40625 48.964844 36.09375 46.28125 C 33.003906 44.742188 30 41.65625 30 37 C 30 36.445313 30.449219 36 31 36 C 31.550781 36 32 36.445313 32 37 C 32 42.101563 36.261719 44.273438 37.875 44.90625 C 40.445313 44.59375 42.328125 43.605469 43.28125 42.0625 C 44.191406 40.589844 44.222656 38.75 43.34375 36.5625 C 45.683594 35.503906 47.246094 33.695313 47.78125 31.4375 C 48.199219 29.679688 47.90625 27.78125 47.0625 26.15625 C 45.1875 27.96875 41.804688 30 36 30 C 35.449219 30 35 29.554688 35 29 C 35 28.445313 35.449219 28 36 28 C 42.683594 28 45.636719 25.027344 46.71875 23.5 C 48.449219 18.925781 48.4375 14.617188 46.5625 11.1875 C 45.101563 8.519531 42.578125 6.640625 39.75 6.09375 C 38.648438 3.4375 35.140625 0 29 0 Z M 19 10 C 19.550781 10 20 10.445313 20 11 C 20 12.390625 18.738281 16 13 16 C 12.449219 16 12 15.554688 12 15 C 12 14.445313 12.449219 14 13 14 C 17.078125 14 18 11.777344 18 11 C 18 10.445313 18.449219 10 19 10 Z M 33 12 C 33.550781 12 34 12.445313 34 13 C 34 14.632813 35.710938 18 41 18 C 41.550781 18 42 18.445313 42 19 C 42 19.554688 41.550781 20 41 20 C 34.199219 20 32 15.285156 32 13 C 32 12.445313 32.449219 12 33 12 Z M 11.15625 30 C 15.503906 30.722656 18 34.015625 18 39 C 18 39.554688 17.550781 40 17 40 C 16.449219 40 16 39.554688 16 39 C 16 36.703125 15.3125 32.746094 10.8125 32 C 10.265625 31.910156 9.910156 31.390625 10 30.84375 C 10.089844 30.296875 10.605469 29.902344 11.15625 30 Z" fill="#000000"/></svg>
