<svg role="img" viewBox="0 0 50 50" xmlns="http://www.w3.org/2000/svg"><path d="M44.5 0A5.508 5.508 0 0 0 39 5.5c0 3.031 2.469 5.5 5.5 5.5S50 8.531 50 5.5 47.531 0 44.5 0M34.281 1.344a1.044 1.044 0 0 0-.187.031c-.367.078-.66.352-.762.715-.098.363.016.75.293 1.004L35.594 5H24C13.324 5 8.64 11.188 7.375 15.031 7.578 15.02 7.793 15 8 15c.52 0 1.031.047 1.531.125C10.781 12.16 14.582 7 24 7h11.594l-1.875 1.938a.998.998 0 0 0 .441 1.742c.375.078.762-.067.996-.367l3.563-3.688a1.001 1.001 0 0 0-.032-1.406L35 1.656a1 1 0 0 0-.719-.312M44.5 13a5.508 5.508 0 0 0-5.5 5.5c0 3.031 2.469 5.5 5.5 5.5s5.5-2.469 5.5-5.5-2.469-5.5-5.5-5.5m-10.219 1.344a1.044 1.044 0 0 0-.187.031c-.367.078-.66.352-.762.715-.098.363.016.75.293 1.004L35.594 18H30.53c-5.922 0-7.484 1.531-8.875 2.875-.89.86-1.699 1.605-3.906 1.938.145.64.238 1.32.25 2 2.879-.422 3.965-1.473 5.031-2.5C24.257 21.129 25.417 20 30.53 20h5.063l-1.875 1.938a.998.998 0 0 0 .441 1.742c.375.078.762-.067.996-.367l3.563-3.688a1.001 1.001 0 0 0-.032-1.406L35 14.656a1 1 0 0 0-.719-.312M8 17c-4.41 0-8 3.59-8 8s3.59 8 8 8 8-3.59 8-8-3.59-8-8-8m36.5 9a5.508 5.508 0 0 0-5.5 5.5c0 3.031 2.469 5.5 5.5 5.5s5.5-2.469 5.5-5.5-2.469-5.5-5.5-5.5m-26.562.188a9.968 9.968 0 0 1-.438 1.937c2.406.313 3.23 1.11 4.156 2C23.046 31.469 24.61 33 30.531 33h5.063l-1.875 1.938a.998.998 0 0 0 .441 1.742c.375.078.762-.067.996-.367l3.563-3.688a1.001 1.001 0 0 0-.032-1.406L35 27.656a.998.998 0 0 0-.906-.281c-.367.078-.66.352-.762.715-.098.363.016.75.293 1.004L35.594 31H30.53c-5.113 0-6.273-1.129-7.5-2.312-1.074-1.036-2.164-2.086-5.093-2.5M9.53 34.875A9.901 9.901 0 0 1 8 35c-.207 0-.422-.02-.625-.031C8.641 38.812 13.325 45 24 45h11.594l-1.969 1.906c-.3.235-.445.621-.367.996a.998.998 0 0 0 1.742.441l3.688-3.562a1.001 1.001 0 0 0 .03-1.406l-3.562-3.687a1 1 0 0 0-.906-.313.995.995 0 0 0-.773.684.992.992 0 0 0 .242 1.004L35.594 43H24c-9.418 0-13.219-5.16-14.469-8.125M44.5 39a5.508 5.508 0 0 0-5.5 5.5c0 3.031 2.469 5.5 5.5 5.5s5.5-2.469 5.5-5.5-2.469-5.5-5.5-5.5"/></svg>