<?xml version="1.0" encoding="UTF-8"?>
<svg xmlns="http://www.w3.org/2000/svg" xmlns:xlink="http://www.w3.org/1999/xlink" width="32" height="32" viewBox="0 0 32 32" version="1.1">
<g id="surface1">
<path style=" stroke:none;fill-rule:nonzero;fill:rgb(0%,0%,0%);fill-opacity:1;" d="M 22.398438 4.480469 C 21.171875 4.480469 20.007812 4.746094 18.921875 5.238281 L 17.921875 9.601562 L 20.289062 9.601562 L 17.984375 15.359375 L 19.648438 15.359375 L 14.398438 23.808594 L 16 16.640625 L 13.886719 16.640625 L 15.871094 10.878906 L 13.183594 10.878906 L 14.148438 5.84375 C 12.835938 4.957031 11.273438 4.480469 9.601562 4.480469 C 5.011719 4.480469 1.28125 8.210938 1.28125 12.800781 C 1.28125 20.226562 7.789062 24.578125 12.539062 27.761719 C 13.761719 28.578125 14.8125 29.28125 15.589844 29.933594 C 15.710938 30.03125 15.855469 30.078125 16 30.078125 C 16.144531 30.078125 16.289062 30.03125 16.410156 29.933594 C 17.191406 29.28125 18.238281 28.578125 19.460938 27.761719 C 24.210938 24.578125 30.71875 20.226562 30.71875 12.800781 C 30.71875 8.210938 26.988281 4.480469 22.398438 4.480469 "/>
</g>
</svg>
