<svg role="img" viewBox="0 0 46.545 32" xmlns="http://www.w3.org/2000/svg"><path d="M36.18 22.86c-.989 1.527-2.582 2.472-4.344 2.472-2.41 0-4.41-1.098-4.41-3.7 0-3.847 5.613-5.202 9.914-5.46v1.14c.023 2.493-.02 3.825-1.16 5.547m-8-13.829c.644-1.742 2.386-2.492 4.754-2.492 3.375 0 4.343 2.363 4.386 4.32l.02.946c-9.332.453-18.106 2.195-17.934 10.734.13 5.977 5.528 8.43 9.246 8.406 4.325 0 6.73-1.16 9.121-4.105.043 1.246.192 2.558.407 3.523h8.367c-.473-1.453-.582-2.922-.582-4.449V10.41c0-3.765-.711-5.87-2.73-7.7C41.32.97 38.18 0 33.94 0c-3.87 0-7.203.883-9.656 2.559C26.31 4.16 27.641 6.367 28.18 9.03m-9.246 13.184v.773c.128 3.055 1.613 4.95 2.98 6.086-2.324 1.336-5.074 1.895-7.547 1.895C5.336 30.969 0 24.582 0 15.785 0 6.625 5.504 0 14.902 0c6.817 0 12.41 3.613 13.012 10.691h-8.2c0-2.691-1.894-4.129-4.538-4.129-4.238 0-5.547 2.981-5.547 8.493 0 5.601 1.226 8.863 5.57 8.863 1.61.02 2.946-.54 3.719-1.7Zm0 0" style="stroke:none;fill-rule:nonzero;fill:rgb(0%,0%,0%);fill-opacity:1"/></svg>