<?xml version="1.0" encoding="UTF-8"?>
<svg xmlns="http://www.w3.org/2000/svg" xmlns:xlink="http://www.w3.org/1999/xlink" width="46.544998" height="32" viewBox="0 0 46.544998 32" version="1.1">
<g id="surface1">
<path style=" stroke:none;fill-rule:nonzero;fill:rgb(0%,0%,0%);fill-opacity:1;" d="M 36.179688 22.859375 C 35.191406 24.386719 33.597656 25.332031 31.835938 25.332031 C 29.425781 25.332031 27.425781 24.234375 27.425781 21.632812 C 27.425781 17.785156 33.039062 16.429688 37.339844 16.171875 L 37.339844 17.3125 C 37.363281 19.804688 37.320312 21.136719 36.179688 22.859375 M 28.179688 9.03125 C 28.824219 7.289062 30.566406 6.539062 32.933594 6.539062 C 36.308594 6.539062 37.277344 8.902344 37.320312 10.859375 L 37.339844 11.804688 C 28.007812 12.257812 19.234375 14 19.40625 22.539062 C 19.535156 28.515625 24.933594 30.96875 28.652344 30.945312 C 32.976562 30.945312 35.382812 29.785156 37.773438 26.839844 C 37.816406 28.085938 37.964844 29.398438 38.179688 30.363281 L 46.546875 30.363281 C 46.074219 28.910156 45.964844 27.441406 45.964844 25.914062 L 45.964844 10.410156 C 45.964844 6.644531 45.253906 4.539062 43.234375 2.710938 C 41.320312 0.96875 38.179688 0 33.941406 0 C 30.070312 0 26.738281 0.882812 24.285156 2.558594 C 26.308594 4.160156 27.640625 6.367188 28.179688 9.03125 M 18.933594 22.214844 L 18.933594 22.988281 C 19.0625 26.042969 20.546875 27.9375 21.914062 29.074219 C 19.589844 30.410156 16.839844 30.96875 14.367188 30.96875 C 5.335938 30.96875 0 24.582031 0 15.785156 C 0 6.625 5.503906 0 14.902344 0 C 21.71875 0 27.3125 3.613281 27.914062 10.691406 L 19.714844 10.691406 C 19.714844 8 17.820312 6.5625 15.175781 6.5625 C 10.9375 6.5625 9.628906 9.542969 9.628906 15.054688 C 9.628906 20.65625 10.855469 23.917969 15.199219 23.917969 C 16.808594 23.9375 18.144531 23.378906 18.917969 22.21875 Z M 18.933594 22.214844 "/>
</g>
</svg>
