<svg xmlns="http://www.w3.org/2000/svg" width="32" height="22" stroke="#000" stroke-linecap="round" stroke-linejoin="round" fill="#fff" fill-rule="evenodd"><path d="M24.8736 15.7165c-.6799 1.0498-1.7747 1.6997-2.9865 1.6997-1.6558 0-3.031-.7539-3.031-2.5431 0-2.6466 3.8594-3.5779 6.8159-3.7554v.7834c.015 1.7147-.015 2.6316-.7984 3.8144zm-5.5001-9.507c.4434-1.1978 1.6412-1.7147 3.2675-1.7147 2.3211 0 2.9865 1.6262 3.016 2.972l.015.6499c-6.4165.31-12.4491 1.5083-12.3306 7.3778.0885 4.1104 3.7994 5.7956 6.3575 5.7811 2.9721 0 4.6278-.7984 6.269-2.8245.03.8573.133 1.7597.281 2.4246H32c-.3249-.9999-.3999-2.0107-.3999-3.0605V7.1559c0-2.5876-.488-4.0364-1.8777-5.2932C28.4066.6649 26.2479 0 23.3354 0c-2.6611 0-4.9533.6064-6.639 1.7597 1.3898 1.0998 2.3066 2.6171 2.6761 4.4503zm-6.3575 9.0636v.5324c.0885 2.0996 1.1088 3.4004 2.0496 4.1843-1.5967.9169-3.4894 1.3013-5.1891 1.3013C3.6674 21.2911 0 16.8998 0 10.8528 0 4.5538 3.7844.0005 10.2459.0005c4.6868 0 8.5312 2.4846 8.9451 7.3488h-5.6381c0-1.8482-1.3013-2.8385-3.1195-2.8385-2.9126 0-3.8144 2.0497-3.8144 5.84 0 3.8494.8428 6.0916 3.8294 6.0916 1.1088.015 2.0257-.37 2.5576-1.1678z" stroke="none" fill="#000" fill-rule="nonzero"/></svg>