<svg xmlns:xlink="http://www.w3.org/1999/xlink" role="img" viewBox="0 0 140 190" xmlns="http://www.w3.org/2000/svg"><defs><path d="M140.08 153.56a1.46 1.46 0 0 1 0-2.92c4 0 14.81-6.17 23.21-16.2 6.17-7.39 13-19.15 10.46-33.28-2.61-14.54-7.38-20.94-10.67-22a1.85 1.85 0 0 0-2 .3c-.69.65-1.17 2.23-.48 4.67 3.84 13.64 9.11 32.31-8.54 44.22a77.36 77.36 0 0 0-10 7.91 1.46 1.46 0 0 1-2-2.08 78.6 78.6 0 0 1 10.43-8.25c15.9-10.72 11-28.23 7.36-41-.89-3.13-.41-6 1.26-7.57a4.78 4.78 0 0 1 4.94-1c5.51 1.78 10.24 10.86 12.65 24.27 2.73 15.23-4.53 27.8-11.1 35.66-8.7 10.34-20.2 17.27-25.52 17.27" id="a"/><path d="M100.71 184c-29.62 0-49.52-19.19-49.52-47.75 0-30.59 22.18-77.46 49.52-77.46s49.52 46.87 49.52 77.46c0 28.57-19.9 47.75-49.52 47.75m0-122.44c-6.7 0-19.86 3.4-32.84 26.19C59.29 102.84 54 121.42 54 136.26c0 26.9 18.78 45 46.75 45s46.75-18.08 46.75-45c0-14.84-5.34-33.42-13.92-48.5C120.57 65 107.4 61.57 100.71 61.57Z" id="b"/><path d="M99.45 157.2c-14.21 0-24.14-11.64-24.14-28.32a50.48 50.48 0 0 1 6-23.52c4.57-8.23 11-12.76 18.1-12.76s13.53 4.53 18.11 12.76a50.6 50.6 0 0 1 6 23.52c.08 16.68-9.85 28.32-24.07 28.32m0-61.9C85.64 95.3 78 115.16 78 128.88c0 17.7 10.77 25.62 21.45 25.62s21.46-7.92 21.46-25.62c0-13.72-7.64-33.58-21.46-33.58" id="c"/></defs><g data-name="Layer 2"><g data-name="Layer 1" transform="matrix(1.06976 0 0 1.0199 -49.658 .002)"><path class="cls-5" d="M141 135.22a78.64 78.64 0 0 1 10.22-8.08c16.43-11.08 11.92-28.5 7.94-42.61-2.84-10.06 10.77-12.77 16 16.38 5.15 28.68-26.59 51.19-35.11 51.19"/><use xlink:href="#a" class="cls-1"/><path d="M164.93 79.16c3.45 8.22 11.77 31.09.15 45.74s-19.42 13.9-19.42 13.9l1.12 11.1c12.26-6.31 32.62-25.59 28.41-49-2.77-15.4-6.48-20.51-10.26-21.74" style="fill:#603913"/><use xlink:href="#a" class="cls-1"/><path class="cls-7" d="M148.84 136.26c0 29.71-21.55 46.37-48.13 46.37S52.57 166 52.57 136.26s21.55-76.08 48.14-76.08 48.13 46.36 48.13 76.08"/><use xlink:href="#b" class="cls-1"/><path class="cls-8" d="M100.71 60.18h-1c20.67 1.1 45.42 47.77 45.42 74.89.04 27.5-20.62 42.93-46.13 42.93-9.54 0-18.21-.14-25.4-2.28a53.11 53.11 0 0 0 27.1 6.95c26.58 0 48.13-16.66 48.13-46.37s-21.54-76.12-48.12-76.12m37.22 40.56-7.57 6.73s8.56-1.83 8.9-3.37-1.33-3.36-1.33-3.36m1.94 5.65-8.8 6.73s9.94-1.83 10.34-3.37-1.54-3.36-1.54-3.36m2.04 5.84-10.3 7.77s11.64-2.11 12.11-3.89-1.81-3.88-1.81-3.88m-.43 45.64-11-6.69s6.26 10 8.09 9.8 2.91-3.11 2.91-3.11m4.83-5.66-12.27-4s8.4 8.33 10.13 7.69 2.14-3.69 2.14-3.69m-84.84-51.47 9 6.73s-10.13-1.83-10.54-3.37 1.54-3.36 1.54-3.36m-2.29 5.65 10.42 6.73s-11.78-1.83-12.25-3.37 1.83-3.36 1.83-3.36m-2.42 5.84L69 120s-13.78-2.11-14.34-3.89 2.1-3.88 2.1-3.88"/><path class="cls-9" d="M122.25 128.88c0 14.41-8.06 27-22.8 27s-22.8-12.56-22.8-27S84.71 94 99.45 94s22.8 20.48 22.8 34.88"/><use xlink:href="#c" class="cls-1"/><path class="cls-5" d="M143.09 42.72c-.18 2.41-4.7-.74-6.23 1l-31.49-19.25a39.89 39.89 0 0 1 3.15-6.35c6.64-10.87 20.93-21.91 28.07-13.95 4.88 5.43 7.57 24.5 6.5 38.55"/><path class="cls-1" d="m137.14 45.6-1-.64-32.58-19.89.45-1.14a41 41 0 0 1 3.27-6.57C112.42 8.94 122.3 0 130.47 0a9.33 9.33 0 0 1 7.21 3.2c5.37 6 7.93 25.68 6.87 39.63a2.41 2.41 0 0 1-2.62 2.3 10.08 10.08 0 0 1-1.92-.27 10 10 0 0 0-1.64-.24.93.93 0 0 0-.42.06Zm1.23-3.9a11.42 11.42 0 0 1 2.22.3 10.78 10.78 0 0 0 1.08.19c1-14.46-1.95-32.35-6.16-37a6.44 6.44 0 0 0-5-2.23c-6.85 0-15.91 8.11-20.7 16a38.64 38.64 0 0 0-2.58 5L136.83 42a3.92 3.92 0 0 1 1.54-.3m-5.26-8.54c-.07.8-13.28-7-13.28-7a13.37 13.37 0 0 1 1-2.11c2.2-3.61 6.85-9.23 9.36-6 .72.95 3.27 10.44 2.92 15.11m-.11 1.52c-.4 0-1.62 0-13.91-7.23l-1.09-.63.46-1.16a13.77 13.77 0 0 1 1.16-2.34c1.1-1.79 5-7.65 8.77-7.65a3.69 3.69 0 0 1 3 1.56c1.06 1.4 3.52 11.35 3.16 16a1.54 1.54 0 0 1-1.55 1.45m-11.3-9.08c3.79 2.2 7.76 4.42 10 5.5a49.42 49.42 0 0 0-2.7-12.16.71.71 0 0 0-.63-.35c-1.38 0-4.14 2.75-6.28 6.25-.09.25-.26.5-.39.76"/><path class="cls-10" d="m137.14 4.93-7.57 6.73s8.56-1.83 8.9-3.37-1.33-3.36-1.33-3.36"/><path class="cls-7" d="M57.55 43.69c.19 2.41 4.7-.74 6.24 1l31.49-19.25a41.26 41.26 0 0 0-3.16-6.35C85.48 8.22 71.2-2.81 64.05 5.14c-4.88 5.44-7.57 24.51-6.5 38.55"/><path class="cls-8" d="m62.52 8.29 9 6.73S61.36 13.2 61 11.66s1.52-3.37 1.52-3.37m-3.16 6.14 6.83 4.84s-7.72-1.32-8-2.42 1.17-2.42 1.17-2.42"/><path class="cls-1" d="m63.52 46.56-.83-.9a.83.83 0 0 0-.41-.06 9 9 0 0 0-1.64.24 10.15 10.15 0 0 1-1.93.26 2.4 2.4 0 0 1-2.61-2.3C55 29.86 57.6 10.15 63 4.17A9.31 9.31 0 0 1 70.17 1c8.18 0 18.06 9 23.2 17.36a42.43 42.43 0 0 1 3.27 6.58l.45 1.14Zm6.65-42.67a6.42 6.42 0 0 0-5 2.23c-4.22 4.7-7.18 22.6-6.16 37 .31 0 .7-.11 1.08-.18a7 7 0 0 1 3.75 0l29.62-18.1a40.64 40.64 0 0 0-2.58-5C86.08 12 77 3.89 70.17 3.89m-2.63 30.24c.06.81 13.28-7 13.28-7a13.47 13.47 0 0 0-1-2.12c-2.21-3.61-6.86-9.23-9.36-6-.72.99-3.28 10.45-2.92 15.12m.1 1.52a1.54 1.54 0 0 1-1.56-1.41c-.35-4.68 2.1-14.64 3.17-16a3.67 3.67 0 0 1 3-1.56c3.81 0 7.68 5.85 8.78 7.64a15.91 15.91 0 0 1 1.16 2.34l.45 1.16-1.07.63c-12.27 7.18-13.52 7.2-13.93 7.2m4.6-16.09c-.12 0-.36 0-.67.42A50.12 50.12 0 0 0 69 32.08c2.18-1.09 6.16-3.3 10-5.51a6.93 6.93 0 0 0-.43-.75c-2.19-3.51-4.95-6.26-6.33-6.26"/><path class="cls-12" d="M113.32 101.43a33.09 33.09 0 0 1 3.2 4.85c9.48-2.52 17.13-7.23 21.42-13.11-.32-.68-.65-1.33-1-2a57.68 57.68 0 0 1-23.62 10.25Zm-30.7 4.42a32.22 32.22 0 0 1 3.23-4.75 57.62 57.62 0 0 1-21.6-9.51c-.38.72-.72 1.46-1.08 2.19 4.12 5.29 11.01 9.57 19.45 12.07"/><path d="M100.32 102.67a66.22 66.22 0 0 1-14.47-1.57 32.22 32.22 0 0 0-3.23 4.75 61.41 61.41 0 0 0 17.69 2.52 62.47 62.47 0 0 0 16.2-2.08 33.09 33.09 0 0 0-3.2-4.85 68.08 68.08 0 0 1-12.99 1.23" style="fill:#573819"/><use xlink:href="#c" class="cls-1"/><path d="M140.71 88c-1.19 1.1-2.44 2.14-3.76 3.14.34.67.67 1.32 1 2a19.91 19.91 0 0 0 2.76-5.14" style="fill:#533414"/><use xlink:href="#b" class="cls-1"/><path class="cls-7" d="M136.5 55.83A19.6 19.6 0 0 1 144.87 40c-9.45-11-25.69-18.25-44.16-18.25h-1.86a72.28 72.28 0 0 1 1.86 19.54c0 26.2-9.52 48.55-22.9 57.33a66.35 66.35 0 0 0 22.9 4c23.43 0 43.3-11.69 50.21-27.86-8.45-2.95-14.42-10.31-14.42-18.93"/><path class="cls-1" d="M100.71 104.13a67.55 67.55 0 0 1-23.41-4.07 1.46 1.46 0 0 1-.94-1.21 1.44 1.44 0 0 1 .64-1.39c13.3-8.72 22.24-31.27 22.24-56.1a71 71 0 0 0-1.81-19.17 1.46 1.46 0 0 1 1.38-1.83h1.89c18.25 0 35.17 7 45.26 18.75a1.48 1.48 0 0 1 .35 1.12 1.45 1.45 0 0 1-.59 1 18.15 18.15 0 0 0-7.72 14.6c0 7.79 5.28 14.7 13.45 17.6a1.45 1.45 0 0 1 .84.79 1.42 1.42 0 0 1 0 1.16c-7.38 17.2-28.1 28.75-51.58 28.75m-19.77-5.91a65.06 65.06 0 0 0 19.77 3c21.69 0 40.84-10.23 48.24-25.6C140.45 72 135 64.39 135 55.83a20.84 20.84 0 0 1 7.7-16c-9.65-10.42-25.23-16.6-42-16.6a77.46 77.46 0 0 1 1.47 18.15c0 24.71-8.25 46.62-21.23 56.84"/><path class="cls-5" d="M100.71 41.36a102.11 102.11 0 0 0-1.86-19.54c-28.31.75-51 18.55-51 40.41 0 16.05 12.22 29.92 29.93 36.46 13.41-8.78 22.32-31.14 22.93-57.33"/><path class="cls-1" d="M77.81 100.15a1.48 1.48 0 0 1-.51-.09c-18.76-6.92-30.88-21.77-30.88-37.83 0-22.7 23-41.09 52.4-41.87a1.48 1.48 0 0 1 1.47 1.18 104.62 104.62 0 0 1 1.88 19.82C101.55 68 92.3 90.92 78.61 99.91a1.53 1.53 0 0 1-.8.24m19.84-76.83c-27.19 1.21-48.31 18.12-48.31 38.91 0 14.63 11.07 28.23 28.27 34.82 12.59-8.76 21-30.5 21.64-55.72a101.29 101.29 0 0 0-1.6-18.01"/><path class="cls-10" d="m52.16 47.51 9 6.73S51 52.41 50.59 50.87s1.57-3.36 1.57-3.36m-2.29 5.65 10.42 6.73S48.51 58.06 48 56.53s1.87-3.37 1.87-3.37"/><path class="cls-8" d="M133.18 73.41c0-5.71-4.27-10.34-9.53-10.34a9.48 9.48 0 0 0-8.56 5.81c8.31 2.28 13.9 6.61 13.9 12.36a6.68 6.68 0 0 1-.07.77 10.55 10.55 0 0 0 4.26-8.6"/><path class="cls-5" d="M98.85 21.82a102.11 102.11 0 0 1 1.86 19.54 72.28 72.28 0 0 0-1.86-19.54"/><path class="cls-1" d="M100.71 42.82a1.46 1.46 0 0 1-1.44-1.46 101.18 101.18 0 0 0-1.85-19.26 1.46 1.46 0 0 1 2.85-.65 73.91 73.91 0 0 1 1.9 20 1.46 1.46 0 0 1-1.46 1.37"/><path class="cls-5" d="M144.87 40a19.6 19.6 0 0 0-8.37 15.79c0 8.62 6 16 14.42 19a31.92 31.92 0 0 0 2.62-12.58A33.92 33.92 0 0 0 144.87 40"/><path class="cls-1" d="m151.72 76.64-1.29-.46C141.08 72.87 135 64.88 135 55.83a21 21 0 0 1 9-17l1.09-.8.88 1a35.33 35.33 0 0 1 9 23.15 33.23 33.23 0 0 1-2.74 13.15Zm-7.07-34.58A18 18 0 0 0 138 55.83c0 7.37 4.72 14 12.14 17.1a30.29 30.29 0 0 0 2-10.7 32.17 32.17 0 0 0-7.49-20.17m-60.204-3.245a12.3 10.6-7.3 1 0 2.694 21.028 12.3 10.6-7.3 1 0-2.694-21.028"/><path class="cls-9" d="M85.358 43.25a8.94 7.7-7.3 1 0 1.957 15.276 8.94 7.7-7.3 1 0-1.957-15.276"/><path class="cls-1" d="M85.957 48.34a3.35 2.96-7.28 1 0 .75 5.873 3.35 2.96-7.28 1 0-.75-5.872M76.26 41.54a.92.92 0 0 1-.36-.07l-3.39-1.33a1 1 0 1 1 .71-1.81l3.39 1.33a1 1 0 0 1 .55 1.26 1 1 0 0 1-.9.62m2.74-2.3a1 1 0 0 1-.56-.17l-4.07-2.86a1 1 0 0 1-.24-1.36 1 1 0 0 1 1.35-.23l4.08 2.85a1 1 0 0 1 .23 1.36 1 1 0 0 1-.79.41m26.923 8.857a12.3 10.6 7.5 1 0 24.39 3.21 12.3 10.6 7.5 1 0-24.39-3.21"/><path class="cls-9" d="M108.468 49.75a8.94 7.7 7.3 1 0 17.735 2.273 8.94 7.7 7.3 1 0-17.735-2.272"/><path class="cls-1" d="M114.012 50.85a3.35 2.96 7.28 1 0 6.646.848 3.35 2.96 7.28 1 0-6.646-.849M127.4 41.54a1 1 0 0 1-.36-1.88l3.4-1.33a1 1 0 1 1 .71 1.81l-3.4 1.33a.84.84 0 0 1-.35.07m-2.7-2.3a1 1 0 0 1-.56-1.77l4.07-2.85a1 1 0 1 1 1.12 1.59l-4.07 2.86a1 1 0 0 1-.56.17"/><path class="cls-9" d="M129 81.24C129 89.93 116.27 97 100.58 97s-28.41-7-28.41-15.73S84.89 67.1 100.58 67.1 129 72.55 129 81.24"/><path class="cls-15" d="M100.74 94c-10.3.06-19.92-2.6-28.57-12.71.69 10.6 13.65 15.27 28.19 15.27 15.69 0 27-6 28.41-15.27-8.1 8.79-13.47 12.58-28.03 12.71"/><path class="cls-1" d="M101.08 92.33c-8.66 0-16.56-4.53-20.18-11.58a1 1 0 0 1 1.73-.89c3.29 6.41 10.51 10.52 18.45 10.52h.26c7.72-.09 14.82-4.15 18.08-10.34a1 1 0 1 1 1.72.91c-3.64 6.92-11.22 11.28-19.78 11.38Zm-.5 6.1c-16.75 0-29.87-7.55-29.87-17.19 0-9.2 12.28-15.63 29.87-15.63s29.87 6.39 29.87 15.63c0 9.64-13.12 17.19-29.87 17.19m0-29.9c-15.62 0-26.95 5.35-26.95 12.71 0 7.74 12.34 14.27 27 14.27s27-6.53 27-14.27c-.09-7.36-11.43-12.71-27.05-12.71m-.7 4.47h2.28v18.84h-2.28zm9.47-5c0 4.6-8.33 7.44-8.33 7.44S92.7 72.61 92.7 68s3.73-4.07 8.32-4.07 8.33-.51 8.33 4.07"/><path d="M101.02 66.02a5.41.93 0 1 0 0 1.86 5.41.93 0 1 0 0-1.86" style="fill:#a7a9ac"/><path class="cls-8" d="M129.18 164.13c0 4.08-1.85 21.49-12.29 20.21-5.64-.7-13.66-9.51-10.28-11.8 3.59-2.43-3.59-14.95 1.25-11.77s21.32-.72 21.32 3.36"/><path class="cls-9" d="M123.58 179.53c0 4.09-3.86 5.54-9.91 5.54s-11-3.31-11-7.4 2.73-7.49 7.88-4.31 13.03 2.09 13.03 6.17"/><path class="cls-15" d="M113 181.18a27.82 27.82 0 0 1-9.9-6.27 5.62 5.62 0 0 0-.41 2.07c0 4.47 5.31 8.09 11.85 8.09a15.16 15.16 0 0 0 8-2.18 28.1 28.1 0 0 1-9.54-1.71"/><path class="cls-1" d="M114.56 186.29c-7.21 0-13.07-4.18-13.07-9.31 0-3.26 2.32-6.22 6.13-7.91a48.49 48.49 0 0 1-1-8.26 1.22 1.22 0 1 1 2.43-.08 45.8 45.8 0 0 0 1.15 8.81l.25 1.05-1 .37c-3.41 1.23-5.52 3.54-5.52 6 0 3.79 4.77 6.87 10.63 6.87 4.68 0 8.87-2 10.21-5a77.33 77.33 0 0 0 5.09-18.52 1.22 1.22 0 0 1 2.41.35 79.32 79.32 0 0 1-5.27 19.18c-1.76 3.87-6.75 6.45-12.44 6.45"/><path class="cls-5" d="M71.42 164.13c0 4.08 1.85 21.49 12.29 20.21 5.64-.7 13.66-9.51 10.28-11.8-3.59-2.43 2.2-14.95-2.63-11.77s-19.94-.72-19.94 3.36"/><path class="cls-9" d="M77 179.53c0 4.09 3.86 5.54 9.91 5.54s11-3.31 11-7.4-2.73-7.49-7.88-4.31S77 175.45 77 179.53"/><path class="cls-15" d="M88.64 181.55a27.91 27.91 0 0 0 9.57-6.76 5.77 5.77 0 0 1 .5 2c.23 4.47-4.88 8.36-11.41 8.69a15 15 0 0 1-8.15-1.77 28.11 28.11 0 0 0 9.49-2.16"/><path class="cls-1" d="M86 186.29c-5.69 0-10.68-2.58-12.42-6.41a79.72 79.72 0 0 1-5.29-19.17 1.22 1.22 0 0 1 2.41-.35 77.27 77.27 0 0 0 5.11 18.56c1.32 2.89 5.52 4.93 10.19 4.93 5.86 0 10.63-3.08 10.63-6.87 0-2.48-2.11-4.79-5.51-6l-1-.37.24-1.05a45 45 0 0 0 1.15-8.81 1.22 1.22 0 1 1 2.43.08 48.49 48.49 0 0 1-1 8.26c3.81 1.69 6.13 4.65 6.13 7.91.04 5.11-5.82 9.29-13.07 9.29"/><path class="cls-15" d="M118.06 74.6a1.41 1.41 0 1 0 0 2.82 1.41 1.41 0 1 0 0-2.82m-2.78-3.48a1.41 1.41 0 1 0 0 2.82 1.41 1.41 0 1 0 0-2.82m-.92 4.99a1.41 1.41 0 1 0 0 2.82 1.41 1.41 0 1 0 0-2.82m-30.04-1.39a1.41 1.41 0 1 0 0 2.82 1.41 1.41 0 1 0 0-2.82m3.73 1.39a1.41 1.41 0 1 0 0 2.82 1.41 1.41 0 1 0 0-2.82m-.6-4.52a1.41 1.41 0 1 0 0 2.82 1.41 1.41 0 1 0 0-2.82"/><path class="cls-1" d="M139.28 77.22 119.05 77a1 1 0 1 1 0-2l20.22.24a1 1 0 0 1 0 2Zm-23-3.78a1 1 0 0 1-.36-1.88l19-7.48a1 1 0 1 1 .72 1.81l-19 7.48a.84.84 0 0 1-.36.07m-52.87 3.78a1 1 0 0 1 0-2L83.62 75a1 1 0 0 1 0 2l-20.22.24Zm23-3.78a.92.92 0 0 1-.36-.07L67 65.89a1 1 0 1 1 .72-1.81l19 7.48a1 1 0 0 1-.36 1.88Z"/></g></g></svg>