<?xml version="1.0" encoding="UTF-8"?>
<svg xmlns="http://www.w3.org/2000/svg" xmlns:xlink="http://www.w3.org/1999/xlink" width="23.578947" height="32" viewBox="0 0 23.578947 32" version="1.1">
<g id="surface1">
<path style=" stroke:none;fill-rule:nonzero;fill:rgb(45.882353%,29.803923%,16.078432%);fill-opacity:1;" d="M 17.039062 23.226562 C 17.613281 22.71875 18.230469 22.253906 18.882812 21.839844 C 21.84375 19.9375 21.03125 16.945312 20.3125 14.519531 C 19.800781 12.792969 22.253906 12.328125 23.195312 17.332031 C 24.121094 22.261719 18.40625 26.128906 16.871094 26.128906 "/>
<path style=" stroke:none;fill-rule:nonzero;fill:rgb(13.725491%,12.156863%,12.54902%);fill-opacity:1;" d="M 16.875 26.378906 C 16.730469 26.378906 16.613281 26.265625 16.613281 26.128906 C 16.613281 25.988281 16.730469 25.875 16.875 25.875 C 17.59375 25.875 19.542969 24.816406 21.054688 23.09375 C 22.167969 21.824219 23.398438 19.804688 22.941406 17.375 C 22.472656 14.878906 21.613281 13.78125 21.019531 13.597656 C 20.898438 13.546875 20.757812 13.566406 20.660156 13.648438 C 20.535156 13.761719 20.449219 14.03125 20.570312 14.453125 C 21.265625 16.792969 22.214844 20 19.03125 22.046875 C 18.394531 22.453125 17.792969 22.90625 17.230469 23.40625 C 17.125 23.476562 16.980469 23.464844 16.890625 23.375 C 16.800781 23.285156 16.792969 23.148438 16.871094 23.050781 C 17.453125 22.527344 18.082031 22.050781 18.75 21.632812 C 21.613281 19.789062 20.730469 16.78125 20.078125 14.589844 C 19.917969 14.050781 20.003906 13.558594 20.304688 13.289062 C 20.542969 13.074219 20.886719 13.007812 21.195312 13.117188 C 22.1875 13.421875 23.039062 14.980469 23.472656 17.285156 C 23.964844 19.902344 22.65625 22.0625 21.472656 23.410156 C 19.90625 25.1875 17.832031 26.378906 16.875 26.378906 Z M 16.875 26.378906 "/>
<path style=" stroke:none;fill-rule:nonzero;fill:rgb(37.64706%,22.352941%,7.450981%);fill-opacity:1;" d="M 21.351562 13.597656 C 21.972656 15.011719 23.472656 18.9375 21.378906 21.453125 C 19.285156 23.972656 17.878906 23.84375 17.878906 23.84375 L 18.082031 25.75 C 20.289062 24.664062 23.960938 21.351562 23.199219 17.332031 C 22.703125 14.6875 22.03125 13.808594 21.351562 13.597656 Z M 21.351562 13.597656 "/>
<path style=" stroke:none;fill-rule:nonzero;fill:rgb(13.725491%,12.156863%,12.54902%);fill-opacity:1;" d="M 16.875 26.378906 C 16.730469 26.378906 16.613281 26.265625 16.613281 26.128906 C 16.613281 25.988281 16.730469 25.875 16.875 25.875 C 17.59375 25.875 19.542969 24.816406 21.054688 23.09375 C 22.167969 21.824219 23.398438 19.804688 22.941406 17.375 C 22.472656 14.878906 21.613281 13.78125 21.019531 13.597656 C 20.898438 13.546875 20.757812 13.566406 20.660156 13.648438 C 20.535156 13.761719 20.449219 14.03125 20.570312 14.453125 C 21.265625 16.792969 22.214844 20 19.03125 22.046875 C 18.394531 22.453125 17.792969 22.90625 17.230469 23.40625 C 17.125 23.476562 16.980469 23.464844 16.890625 23.375 C 16.800781 23.285156 16.792969 23.148438 16.871094 23.050781 C 17.453125 22.527344 18.082031 22.050781 18.75 21.632812 C 21.613281 19.789062 20.730469 16.78125 20.078125 14.589844 C 19.917969 14.050781 20.003906 13.558594 20.304688 13.289062 C 20.542969 13.074219 20.886719 13.007812 21.195312 13.117188 C 22.1875 13.421875 23.039062 14.980469 23.472656 17.285156 C 23.964844 19.902344 22.65625 22.0625 21.472656 23.410156 C 19.90625 25.1875 17.832031 26.378906 16.875 26.378906 Z M 16.875 26.378906 "/>
<path style=" stroke:none;fill-rule:nonzero;fill:rgb(96.862745%,58.039218%,11.372549%);fill-opacity:1;" d="M 18.453125 23.40625 C 18.453125 28.507812 14.570312 31.371094 9.78125 31.371094 C 4.992188 31.371094 1.109375 28.515625 1.109375 23.40625 C 1.109375 18.296875 4.992188 10.335938 9.78125 10.335938 C 14.570312 10.335938 18.453125 18.300781 18.453125 23.40625 Z M 18.453125 23.40625 "/>
<path style=" stroke:none;fill-rule:nonzero;fill:rgb(13.725491%,12.156863%,12.54902%);fill-opacity:1;" d="M 9.78125 31.605469 C 4.445312 31.605469 0.859375 28.308594 0.859375 23.40625 C 0.859375 18.148438 4.855469 10.097656 9.78125 10.097656 C 14.707031 10.097656 18.703125 18.148438 18.703125 23.40625 C 18.703125 28.3125 15.117188 31.605469 9.78125 31.605469 Z M 9.78125 10.574219 C 8.574219 10.574219 6.203125 11.160156 3.863281 15.074219 C 2.320312 17.664062 1.367188 20.855469 1.367188 23.40625 C 1.367188 28.027344 4.75 31.136719 9.789062 31.136719 C 14.828125 31.136719 18.210938 28.03125 18.210938 23.40625 C 18.210938 20.855469 17.25 17.664062 15.703125 15.074219 C 13.359375 11.164062 10.988281 10.578125 9.78125 10.578125 Z M 9.78125 10.574219 "/>
<path style=" stroke:none;fill-rule:nonzero;fill:rgb(95.686275%,46.666667%,16.078432%);fill-opacity:1;" d="M 9.78125 10.335938 C 9.722656 10.335938 9.667969 10.335938 9.601562 10.335938 C 13.324219 10.527344 17.785156 18.542969 17.785156 23.203125 C 17.792969 27.925781 14.070312 30.574219 9.472656 30.574219 C 7.753906 30.574219 6.191406 30.550781 4.898438 30.183594 C 6.382812 30.992188 8.070312 31.402344 9.78125 31.378906 C 14.570312 31.378906 18.453125 28.515625 18.453125 23.414062 C 18.453125 18.308594 14.570312 10.335938 9.78125 10.335938 Z M 9.78125 10.335938 "/>
<path style=" stroke:none;fill-rule:nonzero;fill:rgb(95.686275%,46.666667%,16.078432%);fill-opacity:1;" d="M 16.488281 17.304688 L 15.125 18.460938 C 15.125 18.460938 16.664062 18.144531 16.726562 17.882812 C 16.789062 17.617188 16.488281 17.304688 16.488281 17.304688 Z M 16.488281 17.304688 "/>
<path style=" stroke:none;fill-rule:nonzero;fill:rgb(95.686275%,46.666667%,16.078432%);fill-opacity:1;" d="M 16.835938 18.273438 L 15.25 19.429688 C 15.25 19.429688 17.042969 19.117188 17.113281 18.851562 C 17.1875 18.589844 16.835938 18.273438 16.835938 18.273438 Z M 16.835938 18.273438 "/>
<path style=" stroke:none;fill-rule:nonzero;fill:rgb(95.686275%,46.666667%,16.078432%);fill-opacity:1;" d="M 17.203125 19.277344 L 15.347656 20.613281 C 15.347656 20.613281 17.445312 20.25 17.53125 19.945312 C 17.617188 19.640625 17.203125 19.277344 17.203125 19.277344 Z M 17.203125 19.277344 "/>
<path style=" stroke:none;fill-rule:nonzero;fill:rgb(95.686275%,46.666667%,16.078432%);fill-opacity:1;" d="M 17.128906 27.117188 L 15.144531 25.96875 C 15.144531 25.96875 16.273438 27.6875 16.601562 27.652344 C 16.933594 27.617188 17.128906 27.117188 17.128906 27.117188 Z M 17.128906 27.117188 "/>
<path style=" stroke:none;fill-rule:nonzero;fill:rgb(95.686275%,46.666667%,16.078432%);fill-opacity:1;" d="M 17.996094 26.144531 L 15.785156 25.457031 C 15.785156 25.457031 17.300781 26.890625 17.613281 26.78125 C 17.921875 26.667969 17.996094 26.144531 17.996094 26.144531 Z M 17.996094 26.144531 "/>
<path style=" stroke:none;fill-rule:nonzero;fill:rgb(95.686275%,46.666667%,16.078432%);fill-opacity:1;" d="M 2.710938 17.304688 L 4.332031 18.460938 C 4.332031 18.460938 2.507812 18.144531 2.433594 17.882812 C 2.359375 17.617188 2.710938 17.304688 2.710938 17.304688 Z M 2.710938 17.304688 "/>
<path style=" stroke:none;fill-rule:nonzero;fill:rgb(95.686275%,46.666667%,16.078432%);fill-opacity:1;" d="M 2.300781 18.273438 L 4.175781 19.429688 C 4.175781 19.429688 2.054688 19.117188 1.96875 18.851562 C 1.882812 18.589844 2.300781 18.273438 2.300781 18.273438 Z M 2.300781 18.273438 "/>
<path style=" stroke:none;fill-rule:nonzero;fill:rgb(95.686275%,46.666667%,16.078432%);fill-opacity:1;" d="M 1.863281 19.277344 L 4.066406 20.613281 C 4.066406 20.613281 1.585938 20.25 1.484375 19.945312 C 1.382812 19.640625 1.863281 19.277344 1.863281 19.277344 Z M 1.863281 19.277344 "/>
<path style=" stroke:none;fill-rule:nonzero;fill:rgb(100%,100%,100%);fill-opacity:1;" d="M 13.664062 22.136719 C 13.664062 24.613281 12.210938 26.777344 9.554688 26.777344 C 6.898438 26.777344 5.445312 24.617188 5.445312 22.136719 C 5.445312 19.65625 6.898438 16.148438 9.554688 16.148438 C 12.210938 16.148438 13.664062 19.664062 13.664062 22.136719 Z M 13.664062 22.136719 "/>
<path style=" stroke:none;fill-rule:nonzero;fill:rgb(13.725491%,12.156863%,12.54902%);fill-opacity:1;" d="M 9.554688 27.003906 C 6.996094 27.003906 5.207031 25.003906 5.207031 22.136719 C 5.214844 20.726562 5.585938 19.339844 6.285156 18.097656 C 7.109375 16.683594 8.269531 15.90625 9.546875 15.90625 C 10.828125 15.90625 11.984375 16.683594 12.808594 18.097656 C 13.507812 19.339844 13.878906 20.726562 13.890625 22.136719 C 13.90625 25.003906 12.117188 27.003906 9.554688 27.003906 Z M 9.554688 16.371094 C 7.066406 16.371094 5.691406 19.78125 5.691406 22.136719 C 5.691406 25.179688 7.628906 26.539062 9.554688 26.539062 C 11.480469 26.539062 13.421875 25.179688 13.421875 22.136719 C 13.421875 19.78125 12.042969 16.371094 9.554688 16.371094 Z M 9.554688 16.371094 "/>
<path style=" stroke:none;fill-rule:nonzero;fill:rgb(45.882353%,29.803923%,16.078432%);fill-opacity:1;" d="M 17.417969 7.339844 C 17.382812 7.753906 16.570312 7.210938 16.292969 7.511719 L 10.621094 4.203125 C 10.777344 3.824219 10.964844 3.460938 11.1875 3.113281 C 12.386719 1.246094 14.960938 -0.652344 16.246094 0.714844 C 17.125 1.648438 17.609375 4.925781 17.417969 7.339844 Z M 17.417969 7.339844 "/>
<path style=" stroke:none;fill-rule:nonzero;fill:rgb(13.725491%,12.156863%,12.54902%);fill-opacity:1;" d="M 16.34375 7.832031 L 16.164062 7.722656 L 10.296875 4.308594 L 10.375 4.109375 C 10.535156 3.71875 10.734375 3.339844 10.964844 2.980469 C 11.890625 1.535156 13.671875 0 15.144531 0 C 15.640625 -0.0078125 16.117188 0.191406 16.441406 0.550781 C 17.410156 1.582031 17.871094 4.960938 17.679688 7.355469 C 17.675781 7.46875 17.621094 7.578125 17.53125 7.652344 C 17.445312 7.726562 17.328125 7.761719 17.207031 7.753906 C 17.089844 7.746094 16.976562 7.730469 16.863281 7.707031 C 16.765625 7.683594 16.667969 7.671875 16.566406 7.664062 C 16.539062 7.664062 16.515625 7.667969 16.492188 7.675781 Z M 16.566406 7.164062 C 16.703125 7.167969 16.835938 7.183594 16.964844 7.214844 C 17.03125 7.230469 17.097656 7.238281 17.160156 7.246094 C 17.339844 4.761719 16.808594 1.691406 16.050781 0.890625 C 15.824219 0.644531 15.496094 0.503906 15.152344 0.507812 C 13.917969 0.507812 12.285156 1.902344 11.421875 3.257812 C 11.246094 3.53125 11.089844 3.820312 10.957031 4.117188 L 16.289062 7.214844 C 16.378906 7.179688 16.472656 7.164062 16.566406 7.164062 Z M 16.566406 7.164062 "/>
<path style=" stroke:none;fill-rule:nonzero;fill:rgb(13.725491%,12.156863%,12.54902%);fill-opacity:1;" d="M 15.617188 5.695312 C 15.605469 5.832031 13.226562 4.492188 13.226562 4.492188 C 13.273438 4.367188 13.335938 4.246094 13.40625 4.132812 C 13.804688 3.511719 14.640625 2.546875 15.09375 3.101562 C 15.222656 3.265625 15.683594 4.894531 15.617188 5.695312 Z M 15.617188 5.695312 "/>
<path style=" stroke:none;fill-rule:nonzero;fill:rgb(13.725491%,12.156863%,12.54902%);fill-opacity:1;" d="M 15.597656 5.957031 C 15.527344 5.957031 15.308594 5.957031 13.09375 4.714844 L 12.898438 4.605469 L 12.980469 4.40625 C 13.035156 4.269531 13.105469 4.132812 13.1875 4.007812 C 13.386719 3.699219 14.089844 2.691406 14.769531 2.691406 C 14.984375 2.691406 15.183594 2.792969 15.308594 2.960938 C 15.5 3.199219 15.941406 4.910156 15.878906 5.707031 C 15.871094 5.847656 15.746094 5.957031 15.597656 5.957031 Z M 13.5625 4.398438 C 14.246094 4.777344 14.960938 5.15625 15.363281 5.34375 C 15.296875 4.628906 15.132812 3.925781 14.878906 3.253906 C 14.855469 3.214844 14.8125 3.191406 14.765625 3.195312 C 14.515625 3.195312 14.019531 3.664062 13.632812 4.265625 C 13.617188 4.308594 13.585938 4.351562 13.5625 4.398438 Z M 13.5625 4.398438 "/>
<path style=" stroke:none;fill-rule:nonzero;fill:rgb(23.529412%,14.117648%,8.235294%);fill-opacity:1;" d="M 16.34375 0.847656 L 14.980469 2.003906 C 14.980469 2.003906 16.523438 1.6875 16.585938 1.425781 C 16.644531 1.160156 16.34375 0.847656 16.34375 0.847656 Z M 16.34375 0.847656 "/>
<path style=" stroke:none;fill-rule:nonzero;fill:rgb(96.862745%,58.039218%,11.372549%);fill-opacity:1;" d="M 2.003906 7.503906 C 2.039062 7.917969 2.851562 7.378906 3.128906 7.675781 L 8.804688 4.371094 C 8.648438 3.992188 8.457031 3.625 8.234375 3.28125 C 7.039062 1.414062 4.464844 -0.480469 3.175781 0.882812 C 2.296875 1.816406 1.8125 5.09375 2.003906 7.503906 Z M 2.003906 7.503906 "/>
<path style=" stroke:none;fill-rule:nonzero;fill:rgb(95.686275%,46.666667%,16.078432%);fill-opacity:1;" d="M 2.902344 1.425781 L 4.523438 2.582031 C 4.523438 2.582031 2.691406 2.269531 2.625 2.003906 C 2.5625 1.738281 2.902344 1.425781 2.902344 1.425781 Z M 2.902344 1.425781 "/>
<path style=" stroke:none;fill-rule:nonzero;fill:rgb(95.686275%,46.666667%,16.078432%);fill-opacity:1;" d="M 2.332031 2.480469 L 3.5625 3.308594 C 3.5625 3.308594 2.171875 3.082031 2.121094 2.894531 C 2.070312 2.707031 2.332031 2.480469 2.332031 2.480469 Z M 2.332031 2.480469 "/>
<path style=" stroke:none;fill-rule:nonzero;fill:rgb(13.725491%,12.156863%,12.54902%);fill-opacity:1;" d="M 3.082031 8 L 2.929688 7.84375 C 2.90625 7.835938 2.882812 7.832031 2.859375 7.832031 C 2.757812 7.839844 2.660156 7.851562 2.5625 7.875 C 2.449219 7.898438 2.332031 7.914062 2.214844 7.917969 C 2.097656 7.929688 1.980469 7.890625 1.890625 7.816406 C 1.800781 7.742188 1.75 7.636719 1.742188 7.523438 C 1.546875 5.128906 2.015625 1.742188 2.988281 0.714844 C 3.3125 0.363281 3.785156 0.164062 4.277344 0.171875 C 5.753906 0.171875 7.53125 1.71875 8.460938 3.152344 C 8.6875 3.515625 8.886719 3.890625 9.046875 4.285156 L 9.128906 4.480469 Z M 4.277344 0.667969 C 3.933594 0.660156 3.601562 0.800781 3.378906 1.050781 C 2.617188 1.859375 2.085938 4.933594 2.269531 7.40625 C 2.324219 7.40625 2.394531 7.386719 2.464844 7.375 C 2.683594 7.316406 2.917969 7.316406 3.136719 7.375 L 8.476562 4.265625 C 8.339844 3.972656 8.1875 3.683594 8.011719 3.410156 C 7.144531 2.0625 5.507812 0.667969 4.277344 0.667969 Z M 4.277344 0.667969 "/>
<path style=" stroke:none;fill-rule:nonzero;fill:rgb(13.725491%,12.156863%,12.54902%);fill-opacity:1;" d="M 3.804688 5.863281 C 3.816406 6.003906 6.199219 4.660156 6.199219 4.660156 C 6.148438 4.535156 6.089844 4.414062 6.019531 4.296875 C 5.621094 3.675781 4.78125 2.710938 4.332031 3.265625 C 4.203125 3.4375 3.742188 5.0625 3.804688 5.863281 Z M 3.804688 5.863281 "/>
<path style=" stroke:none;fill-rule:nonzero;fill:rgb(13.725491%,12.156863%,12.54902%);fill-opacity:1;" d="M 3.824219 6.125 C 3.675781 6.125 3.554688 6.019531 3.542969 5.882812 C 3.480469 5.078125 3.921875 3.367188 4.113281 3.132812 C 4.238281 2.964844 4.4375 2.867188 4.652344 2.867188 C 5.339844 2.867188 6.039062 3.871094 6.234375 4.179688 C 6.316406 4.304688 6.386719 4.441406 6.445312 4.578125 L 6.527344 4.777344 L 6.332031 4.886719 C 4.121094 6.121094 3.898438 6.125 3.824219 6.125 Z M 4.652344 3.359375 C 4.628906 3.359375 4.585938 3.359375 4.53125 3.433594 C 4.289062 4.105469 4.132812 4.800781 4.066406 5.511719 C 4.460938 5.324219 5.179688 4.945312 5.871094 4.5625 C 5.847656 4.519531 5.820312 4.476562 5.792969 4.433594 C 5.398438 3.832031 4.902344 3.359375 4.652344 3.359375 Z M 4.652344 3.359375 "/>
<path style=" stroke:none;fill-rule:nonzero;fill:rgb(37.64706%,23.921569%,9.803922%);fill-opacity:1;" d="M 12.054688 17.421875 C 12.269531 17.683594 12.464844 17.964844 12.628906 18.257812 C 14.339844 17.824219 15.714844 17.015625 16.488281 16.003906 C 16.429688 15.886719 16.371094 15.777344 16.308594 15.660156 C 15.046875 16.546875 13.59375 17.148438 12.054688 17.421875 Z M 12.054688 17.421875 "/>
<path style=" stroke:none;fill-rule:nonzero;fill:rgb(37.64706%,23.921569%,9.803922%);fill-opacity:1;" d="M 6.523438 18.183594 C 6.691406 17.894531 6.886719 17.621094 7.105469 17.367188 C 5.703125 17.082031 4.378906 16.527344 3.210938 15.734375 C 3.144531 15.855469 3.082031 15.984375 3.019531 16.109375 C 3.761719 17.019531 5 17.753906 6.523438 18.183594 Z M 6.523438 18.183594 "/>
<path style=" stroke:none;fill-rule:nonzero;fill:rgb(34.117648%,21.960784%,9.803922%);fill-opacity:1;" d="M 9.710938 17.636719 C 8.835938 17.636719 7.960938 17.546875 7.105469 17.367188 C 6.886719 17.621094 6.691406 17.894531 6.523438 18.183594 C 7.558594 18.472656 8.628906 18.621094 9.710938 18.617188 C 10.695312 18.617188 11.675781 18.5 12.628906 18.257812 C 12.460938 17.964844 12.269531 17.6875 12.050781 17.425781 C 11.28125 17.566406 10.496094 17.636719 9.710938 17.636719 Z M 9.710938 17.636719 "/>
<path style=" stroke:none;fill-rule:nonzero;fill:rgb(13.725491%,12.156863%,12.54902%);fill-opacity:1;" d="M 9.554688 27.003906 C 6.996094 27.003906 5.207031 25.003906 5.207031 22.136719 C 5.214844 20.726562 5.585938 19.339844 6.285156 18.097656 C 7.109375 16.683594 8.269531 15.90625 9.546875 15.90625 C 10.828125 15.90625 11.984375 16.683594 12.808594 18.097656 C 13.507812 19.339844 13.878906 20.726562 13.890625 22.136719 C 13.90625 25.003906 12.117188 27.003906 9.554688 27.003906 Z M 9.554688 16.371094 C 7.066406 16.371094 5.691406 19.78125 5.691406 22.136719 C 5.691406 25.179688 7.628906 26.539062 9.554688 26.539062 C 11.480469 26.539062 13.421875 25.179688 13.421875 22.136719 C 13.421875 19.78125 12.042969 16.371094 9.554688 16.371094 Z M 9.554688 16.371094 "/>
<path style=" stroke:none;fill-rule:nonzero;fill:rgb(32.549021%,20.392157%,7.843138%);fill-opacity:1;" d="M 16.988281 15.117188 C 16.773438 15.304688 16.546875 15.484375 16.3125 15.65625 C 16.371094 15.769531 16.429688 15.882812 16.492188 16 C 16.703125 15.730469 16.867188 15.433594 16.988281 15.117188 Z M 16.988281 15.117188 "/>
<path style=" stroke:none;fill-rule:nonzero;fill:rgb(13.725491%,12.156863%,12.54902%);fill-opacity:1;" d="M 9.78125 31.605469 C 4.445312 31.605469 0.859375 28.308594 0.859375 23.40625 C 0.859375 18.148438 4.855469 10.097656 9.78125 10.097656 C 14.707031 10.097656 18.703125 18.148438 18.703125 23.40625 C 18.703125 28.3125 15.117188 31.605469 9.78125 31.605469 Z M 9.78125 10.574219 C 8.574219 10.574219 6.203125 11.160156 3.863281 15.074219 C 2.320312 17.664062 1.367188 20.855469 1.367188 23.40625 C 1.367188 28.027344 4.75 31.136719 9.789062 31.136719 C 14.828125 31.136719 18.210938 28.03125 18.210938 23.40625 C 18.210938 20.855469 17.25 17.664062 15.703125 15.074219 C 13.359375 11.164062 10.988281 10.578125 9.78125 10.578125 Z M 9.78125 10.574219 "/>
<path style=" stroke:none;fill-rule:nonzero;fill:rgb(96.862745%,58.039218%,11.372549%);fill-opacity:1;" d="M 16.230469 9.589844 C 16.242188 8.503906 16.804688 7.492188 17.738281 6.871094 C 16.035156 4.980469 13.109375 3.738281 9.78125 3.738281 C 9.667969 3.738281 9.558594 3.738281 9.445312 3.738281 C 9.71875 4.835938 9.832031 5.964844 9.78125 7.09375 C 9.78125 11.59375 8.066406 15.433594 5.65625 16.941406 C 6.976562 17.398438 8.375 17.632812 9.78125 17.628906 C 14.003906 17.628906 17.582031 15.621094 18.828125 12.84375 C 17.304688 12.335938 16.230469 11.070312 16.230469 9.589844 Z M 16.230469 9.589844 "/>
<path style=" stroke:none;fill-rule:nonzero;fill:rgb(13.725491%,12.156863%,12.54902%);fill-opacity:1;" d="M 9.78125 17.886719 C 8.34375 17.894531 6.914062 17.65625 5.5625 17.1875 C 5.46875 17.15625 5.40625 17.074219 5.394531 16.980469 C 5.382812 16.886719 5.425781 16.792969 5.507812 16.742188 C 7.90625 15.242188 9.515625 11.371094 9.515625 7.105469 C 9.566406 6 9.457031 4.890625 9.191406 3.8125 C 9.171875 3.738281 9.1875 3.660156 9.234375 3.597656 C 9.285156 3.535156 9.359375 3.5 9.4375 3.496094 L 9.78125 3.496094 C 13.066406 3.496094 16.117188 4.699219 17.933594 6.71875 C 17.980469 6.769531 18.003906 6.839844 17.996094 6.910156 C 17.988281 6.980469 17.949219 7.042969 17.890625 7.082031 C 17.03125 7.65625 16.515625 8.589844 16.5 9.589844 C 16.5 10.929688 17.453125 12.117188 18.921875 12.613281 C 18.992188 12.636719 19.046875 12.6875 19.074219 12.75 C 19.105469 12.8125 19.105469 12.886719 19.074219 12.949219 C 17.746094 15.902344 14.011719 17.886719 9.78125 17.886719 Z M 6.21875 16.871094 C 7.371094 17.21875 8.574219 17.390625 9.78125 17.386719 C 13.6875 17.386719 17.140625 15.628906 18.472656 12.988281 C 16.941406 12.367188 15.960938 11.0625 15.960938 9.589844 C 15.96875 8.523438 16.476562 7.515625 17.347656 6.84375 C 15.609375 5.050781 12.800781 3.992188 9.78125 3.992188 C 9.996094 5.015625 10.085938 6.0625 10.042969 7.109375 C 10.042969 11.351562 8.558594 15.117188 6.21875 16.871094 Z M 6.21875 16.871094 "/>
<path style=" stroke:none;fill-rule:nonzero;fill:rgb(45.882353%,29.803923%,16.078432%);fill-opacity:1;" d="M 9.78125 7.105469 C 9.78125 5.976562 9.671875 4.855469 9.445312 3.75 C 4.347656 3.878906 0.257812 6.933594 0.257812 10.691406 C 0.257812 13.445312 2.460938 15.828125 5.648438 16.953125 C 8.066406 15.445312 9.671875 11.605469 9.78125 7.105469 Z M 9.78125 7.105469 "/>
<path style=" stroke:none;fill-rule:nonzero;fill:rgb(13.725491%,12.156863%,12.54902%);fill-opacity:1;" d="M 5.65625 17.203125 C 5.625 17.203125 5.59375 17.199219 5.5625 17.1875 C 2.183594 16 0 13.449219 0 10.691406 C 0 6.789062 4.144531 3.632812 9.441406 3.496094 C 9.570312 3.496094 9.679688 3.582031 9.707031 3.699219 C 9.933594 4.824219 10.046875 5.960938 10.042969 7.105469 C 9.933594 11.679688 8.265625 15.617188 5.800781 17.164062 C 5.757812 17.1875 5.707031 17.203125 5.65625 17.203125 Z M 9.230469 4.007812 C 4.332031 4.214844 0.527344 7.117188 0.527344 10.691406 C 0.527344 13.203125 2.519531 15.539062 5.621094 16.671875 C 7.886719 15.167969 9.402344 11.433594 9.519531 7.101562 C 9.519531 6.0625 9.421875 5.027344 9.230469 4.007812 Z M 9.230469 4.007812 "/>
<path style=" stroke:none;fill-rule:nonzero;fill:rgb(23.529412%,14.117648%,8.235294%);fill-opacity:1;" d="M 1.035156 8.160156 L 2.65625 9.316406 C 2.65625 9.316406 0.824219 9.003906 0.75 8.738281 C 0.675781 8.472656 1.035156 8.160156 1.035156 8.160156 Z M 1.035156 8.160156 "/>
<path style=" stroke:none;fill-rule:nonzero;fill:rgb(23.529412%,14.117648%,8.235294%);fill-opacity:1;" d="M 0.621094 9.132812 L 2.5 10.289062 C 2.5 10.289062 0.375 9.972656 0.285156 9.710938 C 0.191406 9.449219 0.621094 9.132812 0.621094 9.132812 Z M 0.621094 9.132812 "/>
<path style=" stroke:none;fill-rule:nonzero;fill:rgb(95.686275%,46.666667%,16.078432%);fill-opacity:1;" d="M 15.632812 12.609375 C 15.632812 11.628906 14.863281 10.835938 13.914062 10.835938 C 13.238281 10.847656 12.632812 11.238281 12.371094 11.832031 C 13.871094 12.222656 14.875 12.96875 14.875 13.957031 C 14.875 14 14.871094 14.042969 14.863281 14.085938 C 15.355469 13.742188 15.640625 13.191406 15.632812 12.609375 Z M 15.632812 12.609375 "/>
<path style=" stroke:none;fill-rule:nonzero;fill:rgb(45.882353%,29.803923%,16.078432%);fill-opacity:1;" d="M 9.445312 3.75 C 9.671875 4.855469 9.78125 5.976562 9.78125 7.105469 C 9.832031 5.976562 9.71875 4.847656 9.445312 3.75 Z M 9.445312 3.75 "/>
<path style=" stroke:none;fill-rule:nonzero;fill:rgb(13.725491%,12.156863%,12.54902%);fill-opacity:1;" d="M 9.78125 7.355469 C 9.636719 7.355469 9.523438 7.242188 9.523438 7.105469 C 9.523438 5.996094 9.410156 4.886719 9.1875 3.796875 C 9.15625 3.660156 9.246094 3.527344 9.386719 3.496094 C 9.527344 3.464844 9.667969 3.550781 9.703125 3.683594 C 9.980469 4.808594 10.09375 5.964844 10.042969 7.121094 C 10.035156 7.253906 9.921875 7.355469 9.78125 7.355469 Z M 9.78125 7.355469 "/>
<path style=" stroke:none;fill-rule:nonzero;fill:rgb(45.882353%,29.803923%,16.078432%);fill-opacity:1;" d="M 17.738281 6.871094 C 16.808594 7.492188 16.246094 8.5 16.230469 9.582031 C 16.230469 11.0625 17.3125 12.332031 18.828125 12.847656 C 19.136719 12.164062 19.296875 11.429688 19.300781 10.6875 C 19.28125 9.277344 18.726562 7.921875 17.738281 6.871094 Z M 17.738281 6.871094 "/>
<path style=" stroke:none;fill-rule:nonzero;fill:rgb(13.725491%,12.156863%,12.54902%);fill-opacity:1;" d="M 18.972656 13.164062 L 18.738281 13.085938 C 17.054688 12.515625 15.960938 11.144531 15.960938 9.589844 C 15.972656 8.425781 16.578125 7.335938 17.582031 6.671875 L 17.777344 6.53125 L 17.9375 6.703125 C 18.964844 7.800781 19.539062 9.210938 19.558594 10.679688 C 19.554688 11.457031 19.386719 12.226562 19.0625 12.941406 Z M 17.699219 7.226562 C 16.949219 7.804688 16.511719 8.671875 16.5 9.589844 C 16.5 10.855469 17.351562 11.996094 18.6875 12.527344 C 18.921875 11.941406 19.042969 11.316406 19.046875 10.691406 C 19.027344 9.421875 18.550781 8.199219 17.699219 7.226562 Z M 17.699219 7.226562 "/>
<path style=" stroke:none;fill-rule:nonzero;fill:rgb(13.725491%,12.156863%,12.54902%);fill-opacity:1;" d="M 9.292969 8.207031 C 9.425781 9.203125 8.550781 10.132812 7.335938 10.28125 C 6.121094 10.429688 5.03125 9.738281 4.894531 8.742188 C 4.761719 7.746094 5.636719 6.816406 6.851562 6.667969 C 8.066406 6.519531 9.15625 7.207031 9.292969 8.207031 Z M 9.292969 8.207031 "/>
<path style=" stroke:none;fill-rule:nonzero;fill:rgb(100%,100%,100%);fill-opacity:1;" d="M 8.789062 8.546875 C 8.886719 9.269531 8.25 9.945312 7.367188 10.054688 C 6.484375 10.160156 5.691406 9.660156 5.59375 8.9375 C 5.496094 8.210938 6.132812 7.539062 7.015625 7.429688 C 7.898438 7.320312 8.691406 7.820312 8.789062 8.546875 Z M 8.789062 8.546875 "/>
<path style=" stroke:none;fill-rule:nonzero;fill:rgb(13.725491%,12.156863%,12.54902%);fill-opacity:1;" d="M 7.789062 8.734375 C 7.828125 9.015625 7.589844 9.273438 7.257812 9.3125 C 6.929688 9.351562 6.628906 9.160156 6.59375 8.882812 C 6.554688 8.601562 6.792969 8.34375 7.125 8.304688 C 7.453125 8.265625 7.753906 8.457031 7.789062 8.734375 Z M 7.789062 8.734375 "/>
<path style=" stroke:none;fill-rule:nonzero;fill:rgb(13.725491%,12.156863%,12.54902%);fill-opacity:1;" d="M 5.375 7.136719 C 5.355469 7.136719 5.332031 7.132812 5.3125 7.125 L 4.699219 6.894531 C 4.625 6.886719 4.566406 6.832031 4.550781 6.765625 C 4.53125 6.695312 4.5625 6.621094 4.625 6.582031 C 4.6875 6.542969 4.765625 6.542969 4.828125 6.585938 L 5.4375 6.8125 C 5.527344 6.847656 5.570312 6.945312 5.539062 7.027344 C 5.511719 7.09375 5.449219 7.132812 5.375 7.136719 Z M 5.375 7.136719 "/>
<path style=" stroke:none;fill-rule:nonzero;fill:rgb(13.725491%,12.156863%,12.54902%);fill-opacity:1;" d="M 5.871094 6.742188 C 5.835938 6.742188 5.800781 6.730469 5.769531 6.710938 L 5.035156 6.21875 C 4.957031 6.164062 4.9375 6.0625 4.992188 5.988281 C 5.050781 5.914062 5.15625 5.898438 5.234375 5.945312 L 5.972656 6.4375 C 6.046875 6.492188 6.066406 6.59375 6.011719 6.671875 C 5.980469 6.714844 5.925781 6.738281 5.871094 6.742188 Z M 5.871094 6.742188 "/>
<path style=" stroke:none;fill-rule:nonzero;fill:rgb(13.725491%,12.156863%,12.54902%);fill-opacity:1;" d="M 13.167969 6.734375 C 14.378906 6.886719 15.25 7.816406 15.113281 8.8125 C 14.976562 9.808594 13.882812 10.492188 12.667969 10.339844 C 11.457031 10.1875 10.585938 9.257812 10.722656 8.261719 C 10.859375 7.265625 11.953125 6.582031 13.167969 6.734375 Z M 13.167969 6.734375 "/>
<path style=" stroke:none;fill-rule:nonzero;fill:rgb(100%,100%,100%);fill-opacity:1;" d="M 12.953125 7.429688 C 13.835938 7.539062 14.472656 8.210938 14.375 8.9375 C 14.277344 9.660156 13.484375 10.160156 12.601562 10.054688 C 11.71875 9.945312 11.082031 9.269531 11.179688 8.546875 C 11.277344 7.820312 12.070312 7.320312 12.953125 7.429688 Z M 12.953125 7.429688 "/>
<path style=" stroke:none;fill-rule:nonzero;fill:rgb(13.725491%,12.156863%,12.54902%);fill-opacity:1;" d="M 12.84375 8.304688 C 13.175781 8.34375 13.414062 8.601562 13.375 8.878906 C 13.339844 9.160156 13.039062 9.351562 12.710938 9.3125 C 12.378906 9.273438 12.140625 9.011719 12.179688 8.734375 C 12.214844 8.457031 12.511719 8.261719 12.84375 8.304688 Z M 12.84375 8.304688 "/>
<path style=" stroke:none;fill-rule:nonzero;fill:rgb(13.725491%,12.156863%,12.54902%);fill-opacity:1;" d="M 14.589844 7.136719 C 14.511719 7.128906 14.445312 7.070312 14.433594 6.996094 C 14.417969 6.921875 14.453125 6.847656 14.523438 6.8125 L 15.136719 6.585938 C 15.199219 6.542969 15.28125 6.542969 15.34375 6.582031 C 15.402344 6.621094 15.433594 6.695312 15.417969 6.765625 C 15.398438 6.832031 15.339844 6.886719 15.265625 6.894531 L 14.652344 7.125 C 14.632812 7.132812 14.613281 7.136719 14.589844 7.136719 Z M 14.589844 7.136719 "/>
<path style=" stroke:none;fill-rule:nonzero;fill:rgb(13.725491%,12.156863%,12.54902%);fill-opacity:1;" d="M 14.105469 6.742188 C 14.03125 6.734375 13.96875 6.6875 13.945312 6.621094 C 13.921875 6.554688 13.945312 6.480469 14.003906 6.4375 L 14.734375 5.945312 C 14.785156 5.894531 14.863281 5.875 14.933594 5.898438 C 15.003906 5.925781 15.050781 5.988281 15.050781 6.058594 C 15.050781 6.128906 15.007812 6.195312 14.9375 6.21875 L 14.203125 6.710938 C 14.175781 6.730469 14.140625 6.742188 14.105469 6.742188 Z M 14.105469 6.742188 "/>
<path style=" stroke:none;fill-rule:nonzero;fill:rgb(100%,100%,100%);fill-opacity:1;" d="M 14.878906 13.957031 C 14.878906 15.449219 12.585938 16.664062 9.757812 16.664062 C 6.929688 16.664062 4.640625 15.460938 4.640625 13.960938 C 4.640625 12.460938 6.929688 11.527344 9.757812 11.527344 C 12.585938 11.527344 14.878906 12.460938 14.878906 13.957031 Z M 14.878906 13.957031 "/>
<path style=" stroke:none;fill-rule:nonzero;fill:rgb(90.196079%,90.588236%,90.980393%);fill-opacity:1;" d="M 9.785156 16.148438 C 7.929688 16.15625 6.199219 15.699219 4.640625 13.964844 C 4.765625 15.785156 7.097656 16.585938 9.71875 16.585938 C 12.546875 16.585938 14.582031 15.554688 14.835938 13.964844 C 13.378906 15.472656 12.410156 16.125 9.785156 16.148438 Z M 9.785156 16.148438 "/>
<path style=" stroke:none;fill-rule:nonzero;fill:rgb(13.725491%,12.156863%,12.54902%);fill-opacity:1;" d="M 9.847656 15.859375 C 8.289062 15.859375 6.863281 15.082031 6.210938 13.871094 C 6.191406 13.792969 6.230469 13.714844 6.304688 13.675781 C 6.378906 13.640625 6.46875 13.65625 6.523438 13.71875 C 7.117188 14.820312 8.417969 15.523438 9.847656 15.523438 L 9.894531 15.523438 C 11.285156 15.507812 12.566406 14.8125 13.152344 13.75 C 13.171875 13.679688 13.230469 13.628906 13.304688 13.621094 C 13.378906 13.613281 13.453125 13.648438 13.488281 13.710938 C 13.519531 13.773438 13.511719 13.851562 13.460938 13.90625 C 12.804688 15.09375 11.441406 15.84375 9.898438 15.859375 Z M 9.847656 15.859375 "/>
<path style=" stroke:none;fill-rule:nonzero;fill:rgb(13.725491%,12.156863%,12.54902%);fill-opacity:1;" d="M 9.757812 16.90625 C 6.738281 16.90625 4.375 15.609375 4.375 13.957031 C 4.375 12.375 6.589844 11.269531 9.757812 11.269531 C 12.925781 11.269531 15.140625 12.367188 15.140625 13.957031 C 15.140625 15.609375 12.777344 16.90625 9.757812 16.90625 Z M 9.757812 11.773438 C 6.945312 11.773438 4.902344 12.691406 4.902344 13.957031 C 4.902344 15.285156 7.125 16.40625 9.765625 16.40625 C 12.410156 16.40625 14.632812 15.285156 14.632812 13.957031 C 14.617188 12.691406 12.574219 11.773438 9.757812 11.773438 Z M 9.757812 11.773438 "/>
<path style=" stroke:none;fill-rule:nonzero;fill:rgb(13.725491%,12.156863%,12.54902%);fill-opacity:1;" d="M 9.632812 12.539062 L 10.042969 12.539062 L 10.042969 15.777344 L 9.632812 15.777344 Z M 9.632812 12.539062 "/>
<path style=" stroke:none;fill-rule:nonzero;fill:rgb(13.725491%,12.156863%,12.54902%);fill-opacity:1;" d="M 11.339844 11.679688 C 11.339844 12.472656 9.835938 12.957031 9.835938 12.957031 C 9.835938 12.957031 8.339844 12.472656 8.339844 11.679688 C 8.339844 10.890625 9.011719 10.980469 9.835938 10.980469 C 10.664062 10.980469 11.339844 10.894531 11.339844 11.679688 Z M 11.339844 11.679688 "/>
<path style=" stroke:none;fill-rule:nonzero;fill:rgb(65.490198%,66.274512%,67.450982%);fill-opacity:1;" d="M 10.8125 11.5 C 10.8125 11.589844 10.375 11.660156 9.835938 11.660156 C 9.300781 11.660156 8.863281 11.589844 8.863281 11.5 C 8.863281 11.414062 9.300781 11.339844 9.835938 11.339844 C 10.375 11.339844 10.8125 11.414062 10.8125 11.5 Z M 10.8125 11.5 "/>
<path style=" stroke:none;fill-rule:nonzero;fill:rgb(95.686275%,46.666667%,16.078432%);fill-opacity:1;" d="M 14.910156 28.195312 C 14.910156 28.894531 14.578125 31.886719 12.695312 31.664062 C 11.679688 31.542969 10.234375 30.03125 10.84375 29.636719 C 11.492188 29.21875 10.199219 27.070312 11.070312 27.617188 C 11.941406 28.164062 14.910156 27.492188 14.910156 28.195312 Z M 14.910156 28.195312 "/>
<path style=" stroke:none;fill-rule:nonzero;fill:rgb(100%,100%,100%);fill-opacity:1;" d="M 13.902344 30.839844 C 13.902344 31.542969 13.207031 31.789062 12.117188 31.789062 C 11.027344 31.789062 10.132812 31.222656 10.132812 30.519531 C 10.132812 29.816406 10.625 29.234375 11.554688 29.777344 C 12.480469 30.324219 13.902344 30.136719 13.902344 30.839844 Z M 13.902344 30.839844 "/>
<path style=" stroke:none;fill-rule:nonzero;fill:rgb(90.196079%,90.588236%,90.980393%);fill-opacity:1;" d="M 11.996094 31.121094 C 11.328125 30.886719 10.71875 30.519531 10.210938 30.046875 C 10.164062 30.160156 10.140625 30.277344 10.136719 30.402344 C 10.136719 31.167969 11.09375 31.789062 12.273438 31.789062 C 12.78125 31.796875 13.28125 31.667969 13.714844 31.414062 C 13.128906 31.414062 12.546875 31.3125 11.996094 31.121094 Z M 11.996094 31.121094 "/>
<path style=" stroke:none;fill-rule:nonzero;fill:rgb(13.725491%,12.156863%,12.54902%);fill-opacity:1;" d="M 12.277344 32 C 10.976562 32 9.921875 31.28125 9.921875 30.402344 C 9.921875 29.839844 10.339844 29.332031 11.027344 29.042969 C 10.925781 28.574219 10.863281 28.101562 10.847656 27.625 C 10.835938 27.542969 10.875 27.46875 10.941406 27.425781 C 11.011719 27.378906 11.101562 27.378906 11.171875 27.417969 C 11.246094 27.457031 11.289062 27.53125 11.285156 27.609375 C 11.300781 28.117188 11.371094 28.625 11.492188 29.121094 L 11.535156 29.304688 L 11.355469 29.367188 C 10.742188 29.578125 10.363281 29.976562 10.363281 30.398438 C 10.363281 31.046875 11.222656 31.578125 12.277344 31.578125 C 13.121094 31.578125 13.875 31.234375 14.117188 30.71875 C 14.558594 29.699219 14.867188 28.628906 15.035156 27.539062 C 15.058594 27.429688 15.164062 27.355469 15.28125 27.371094 C 15.394531 27.390625 15.476562 27.488281 15.46875 27.597656 C 15.296875 28.730469 14.976562 29.835938 14.519531 30.890625 C 14.199219 31.558594 13.300781 32 12.277344 32 Z M 12.277344 32 "/>
<path style=" stroke:none;fill-rule:nonzero;fill:rgb(45.882353%,29.803923%,16.078432%);fill-opacity:1;" d="M 4.503906 28.195312 C 4.503906 28.894531 4.835938 31.886719 6.71875 31.664062 C 7.734375 31.542969 9.179688 30.03125 8.570312 29.636719 C 7.925781 29.21875 8.96875 27.070312 8.097656 27.617188 C 7.226562 28.164062 4.503906 27.492188 4.503906 28.195312 Z M 4.503906 28.195312 "/>
<path style=" stroke:none;fill-rule:nonzero;fill:rgb(100%,100%,100%);fill-opacity:1;" d="M 5.507812 30.839844 C 5.507812 31.542969 6.203125 31.789062 7.296875 31.789062 C 8.386719 31.789062 9.277344 31.222656 9.277344 30.519531 C 9.277344 29.816406 8.785156 29.234375 7.855469 29.777344 C 6.929688 30.324219 5.507812 30.136719 5.507812 30.839844 Z M 5.507812 30.839844 "/>
<path style=" stroke:none;fill-rule:nonzero;fill:rgb(90.196079%,90.588236%,90.980393%);fill-opacity:1;" d="M 7.605469 31.1875 C 8.261719 30.917969 8.847656 30.523438 9.332031 30.023438 C 9.382812 30.132812 9.414062 30.25 9.421875 30.367188 C 9.460938 31.136719 8.542969 31.804688 7.367188 31.859375 C 6.855469 31.894531 6.347656 31.789062 5.898438 31.558594 C 6.484375 31.527344 7.0625 31.402344 7.605469 31.1875 Z M 7.605469 31.1875 "/>
<path style=" stroke:none;fill-rule:nonzero;fill:rgb(13.725491%,12.156863%,12.54902%);fill-opacity:1;" d="M 7.132812 32 C 6.105469 32 5.207031 31.558594 4.894531 30.898438 C 4.433594 29.84375 4.113281 28.738281 3.941406 27.605469 C 3.929688 27.496094 4.011719 27.398438 4.128906 27.382812 C 4.242188 27.367188 4.351562 27.4375 4.375 27.546875 C 4.539062 28.640625 4.851562 29.710938 5.296875 30.734375 C 5.53125 31.230469 6.289062 31.582031 7.132812 31.582031 C 8.1875 31.582031 9.046875 31.050781 9.046875 30.402344 C 9.046875 29.976562 8.667969 29.578125 8.054688 29.371094 L 7.875 29.304688 L 7.917969 29.125 C 8.039062 28.628906 8.105469 28.121094 8.125 27.613281 C 8.121094 27.535156 8.164062 27.460938 8.234375 27.421875 C 8.304688 27.382812 8.394531 27.382812 8.464844 27.425781 C 8.535156 27.472656 8.570312 27.546875 8.5625 27.625 C 8.542969 28.105469 8.484375 28.578125 8.382812 29.046875 C 9.066406 29.335938 9.484375 29.84375 9.484375 30.402344 C 9.492188 31.28125 8.4375 32 7.132812 32 Z M 7.132812 32 "/>
<path style=" stroke:none;fill-rule:nonzero;fill:rgb(90.196079%,90.588236%,90.980393%);fill-opacity:1;" d="M 13.160156 13.058594 C 13.160156 13.191406 13.046875 13.300781 12.90625 13.300781 C 12.765625 13.300781 12.652344 13.191406 12.652344 13.058594 C 12.652344 12.921875 12.765625 12.816406 12.90625 12.816406 C 13.046875 12.816406 13.160156 12.921875 13.160156 13.058594 Z M 13.160156 13.058594 "/>
<path style=" stroke:none;fill-rule:nonzero;fill:rgb(90.196079%,90.588236%,90.980393%);fill-opacity:1;" d="M 12.660156 12.460938 C 12.660156 12.59375 12.546875 12.703125 12.40625 12.703125 C 12.265625 12.703125 12.152344 12.59375 12.152344 12.460938 C 12.152344 12.324219 12.265625 12.21875 12.40625 12.21875 C 12.546875 12.21875 12.660156 12.324219 12.660156 12.460938 Z M 12.660156 12.460938 "/>
<path style=" stroke:none;fill-rule:nonzero;fill:rgb(90.196079%,90.588236%,90.980393%);fill-opacity:1;" d="M 12.496094 13.316406 C 12.496094 13.449219 12.382812 13.558594 12.242188 13.558594 C 12.101562 13.558594 11.988281 13.449219 11.988281 13.316406 C 11.988281 13.183594 12.101562 13.074219 12.242188 13.074219 C 12.382812 13.074219 12.496094 13.183594 12.496094 13.316406 Z M 12.496094 13.316406 "/>
<path style=" stroke:none;fill-rule:nonzero;fill:rgb(90.196079%,90.588236%,90.980393%);fill-opacity:1;" d="M 7.082031 13.078125 C 7.082031 13.210938 6.96875 13.320312 6.828125 13.320312 C 6.6875 13.320312 6.574219 13.210938 6.574219 13.078125 C 6.574219 12.945312 6.6875 12.835938 6.828125 12.835938 C 6.96875 12.835938 7.082031 12.945312 7.082031 13.078125 Z M 7.082031 13.078125 "/>
<path style=" stroke:none;fill-rule:nonzero;fill:rgb(90.196079%,90.588236%,90.980393%);fill-opacity:1;" d="M 7.753906 13.316406 C 7.753906 13.449219 7.640625 13.558594 7.5 13.558594 C 7.359375 13.558594 7.246094 13.449219 7.246094 13.316406 C 7.246094 13.183594 7.359375 13.074219 7.5 13.074219 C 7.640625 13.074219 7.753906 13.183594 7.753906 13.316406 Z M 7.753906 13.316406 "/>
<path style=" stroke:none;fill-rule:nonzero;fill:rgb(90.196079%,90.588236%,90.980393%);fill-opacity:1;" d="M 7.644531 12.539062 C 7.644531 12.671875 7.53125 12.78125 7.390625 12.78125 C 7.253906 12.78125 7.136719 12.671875 7.136719 12.539062 C 7.136719 12.40625 7.253906 12.296875 7.390625 12.296875 C 7.53125 12.296875 7.644531 12.40625 7.644531 12.539062 Z M 7.644531 12.539062 "/>
<path style=" stroke:none;fill-rule:nonzero;fill:rgb(13.725491%,12.156863%,12.54902%);fill-opacity:1;" d="M 16.730469 13.265625 L 13.085938 13.226562 C 12.984375 13.226562 12.90625 13.148438 12.90625 13.054688 C 12.90625 12.960938 12.984375 12.882812 13.085938 12.882812 L 16.730469 12.925781 C 16.828125 12.925781 16.910156 13 16.910156 13.097656 C 16.910156 13.191406 16.828125 13.269531 16.730469 13.269531 Z M 16.730469 13.265625 "/>
<path style=" stroke:none;fill-rule:nonzero;fill:rgb(13.725491%,12.156863%,12.54902%);fill-opacity:1;" d="M 12.585938 12.617188 C 12.507812 12.605469 12.445312 12.550781 12.429688 12.476562 C 12.414062 12.402344 12.453125 12.328125 12.523438 12.292969 L 15.945312 11.007812 C 16.007812 10.96875 16.085938 10.964844 16.148438 11.007812 C 16.210938 11.046875 16.238281 11.117188 16.222656 11.1875 C 16.207031 11.253906 16.148438 11.308594 16.074219 11.320312 L 12.652344 12.601562 C 12.632812 12.613281 12.609375 12.617188 12.585938 12.617188 Z M 12.585938 12.617188 "/>
<path style=" stroke:none;fill-rule:nonzero;fill:rgb(13.725491%,12.156863%,12.54902%);fill-opacity:1;" d="M 3.0625 13.265625 C 2.960938 13.265625 2.882812 13.1875 2.882812 13.09375 C 2.882812 12.996094 2.960938 12.921875 3.0625 12.921875 L 6.703125 12.882812 C 6.800781 12.882812 6.882812 12.960938 6.882812 13.054688 C 6.882812 13.148438 6.800781 13.226562 6.703125 13.226562 L 3.058594 13.269531 Z M 3.0625 13.265625 "/>
<path style=" stroke:none;fill-rule:nonzero;fill:rgb(13.725491%,12.156863%,12.54902%);fill-opacity:1;" d="M 7.203125 12.617188 C 7.183594 12.617188 7.160156 12.613281 7.140625 12.601562 L 3.707031 11.320312 C 3.632812 11.308594 3.574219 11.253906 3.558594 11.1875 C 3.542969 11.117188 3.574219 11.046875 3.632812 11.007812 C 3.695312 10.964844 3.777344 10.96875 3.835938 11.007812 L 7.261719 12.292969 C 7.332031 12.328125 7.367188 12.402344 7.355469 12.476562 C 7.339844 12.550781 7.273438 12.605469 7.195312 12.617188 Z M 7.203125 12.617188 "/>
</g>
</svg>
