<svg xml:space="preserve" xmlns:bx="https://boxy-svg.com" role="img" viewBox="0 0 500 500" xmlns="http://www.w3.org/2000/svg"><path bx:origin="0.492308 0.5" d="M374 174.8c-13.7-13.8-31.9-21.3-51.3-21.3-19.3 0-37.6 7.6-51.3 21.3l-21.9 21.9-21.9-21.9c-13.7-13.8-31.9-21.3-51.3-21.3s-37.6 7.6-51.3 21.3c-13.7 13.7-21.3 31.9-21.3 51.3 0 4 .3 7.9.9 11.7h17.8c1.9 0 5.2-1.8 6.2-3.4l.2-.3 7.2-9.2c3.9-5.9 8.9-5.9 10.8-5.7 2 .3 7 1.7 9.1 8.8l13.7 45.7 32.6-73.7c3.1-7.1 8.2-7.6 10.3-7.5 2 .1 7.1 1.2 9.3 8.6l36.8 122.6 33.3-74c3-6.8 10.9-11.9 18.4-11.9h46.2c4.1 0 7.5 3.4 7.5 7.5s-3.3 7.5-7.5 7.5h-46.2c-1.6 0-4.1 1.6-4.8 3.1l-38.2 84.8c-2.9 6.5-7.5 7.4-9.8 7.4-.2 0-.4-.1-.6-.1-2-.1-7.1-1.2-9.3-8.6L210.8 217l-32.6 73.8c-3.1 7.1-8.2 7.6-10.3 7.5-2-.2-7.1-1.3-9.3-8.7l-15-50.3-2.7 3.6c-3.8 5.8-11.8 10-18.6 10h-13.6c3.6 9.1 9.1 17.5 16.2 24.6L249.4 402 374 277.4c13.8-13.7 21.3-31.9 21.3-51.3s-7.6-37.6-21.3-51.3" style="fill:#316BE5"/><path class="st1" d="M260.9 31.4c0-6.2-5-11.3-11.3-11.3s-11.3 5.1-11.3 11.3c0 6.2 5 11.3 11.3 11.3s11.3-5.1 11.3-11.3m-108.8 416a11.3 11.3 0 1 0 0 22.6 11.3 11.3 0 1 0 0-22.6m194.6 22.8c6.2 0 11.3-5.1 11.3-11.3 0-6.2-5.1-11.3-11.3-11.3-6.2 0-11.3 5.1-11.3 11.3 0 6.2 5.1 11.3 11.3 11.3M30.5 295.4c-6.2 0-11.3 5-11.3 11.3 0 6.2 5.1 11.3 11.3 11.3 6.2 0 11.3-5.1 11.3-11.3 0-6.2-5-11.3-11.3-11.3m394.8-168.1c6.2 0 11.3-5.1 11.3-11.3 0-6.2-5.1-11.3-11.3-11.3-6.2 0-11.3 5-11.3 11.3 0 6.3 5.1 11.3 11.3 11.3m37.432 169.693a11.3 11.3 0 1 0 11.88 19.225 11.3 11.3 0 1 0-11.88-19.225M65.606 108.334a11.3 11.3 0 1 0 15.981 15.98 11.3 11.3 0 1 0-15.98-15.98"/><path class="st2" d="M153.4 434.1h-1.3c-13.6 0-24.7 11-24.7 24.6 0 13.6 11 24.7 24.7 24.7 13.6 0 24.6-11 24.6-24.7 0-6.2-2.3-11.9-6.1-16.2l46.9-97.4c-5.9-2.4-11.1-6.5-16.6-9.6zm-1.3 35.9c-6.2 0-11.3-5-11.3-11.3 0-6.2 5-11.3 11.3-11.3 6.2 0 11.3 5.1 11.3 11.3 0 6.3-5.1 11.3-11.3 11.3M50.5 292.3c-4.5-6.2-11.8-10.3-20-10.3-13.6 0-24.6 11-24.6 24.7 0 13.6 11 24.6 24.6 24.6 12.2 0 22.3-8.8 24.3-20.4l87.4-20c-1.8-6.1-5.9-11.6-6.9-18zm-20 25.7c-6.2 0-11.3-5.1-11.3-11.3 0-6.2 5.1-11.3 11.3-11.3 6.2 0 11.3 5 11.3 11.3 0 6.2-5 11.3-11.3 11.3m283.7 140.9c0-5.3 1.3-10.4 3.6-15H181.1c2.3 4.6 3.6 9.6 3.6 14.8 0 9.5-4 17.9-10.5 23.9h150.3c-6.4-5.9-10.3-14.3-10.3-23.7m-208-342.6c0 .8 0 1.6-.1 2.4l125.3-60.4c-8.9-6-14.4-16-14.4-27 0-3.4.5-6.7 1.5-9.7L85.2 85.9c12.3 4.7 21 16.5 21 30.4m161.5-57.9 125.2 60.3c-.1-.9-.1-1.8-.1-2.6 0-13.8 8.6-25.6 20.8-30.3l-132.9-64c.9 3.1 1.5 6.3 1.5 9.7-.1 10.9-5.6 21-14.5 26.9m157.6 90.2c-3.1 0-6.2-.4-9.1-1.3L447 282.4c5.9-5.3 13.6-8.3 21.7-8.3 6.3 0 12.3 1.8 17.3 5l-33.2-145.5c-5.9 9-16 15-27.5 15m-97 293.9c-3.9 4.3-6.3 10.1-6.3 16.4 0 13.6 11 24.7 24.6 24.7 13.6 0 24.6-11 24.6-24.7 0-13.6-11-24.6-24.6-24.6h-1.1l-46.8-97.2c-5.5 3.1-10.9 6.7-16.9 9.1zm18.4 5.1c6.2 0 11.3 5.1 11.3 11.3 0 6.2-5.1 11.3-11.3 11.3-6.2 0-11.3-5.1-11.3-11.3 0-6.2 5.1-11.3 11.3-11.3m92.1-128.1L353.1 427c14.1 2.8 24.9 14.7 26.1 29.3l93.6-117.4c-1.3.2-2.7.3-4.1.3-13.3 0-24.9-8-29.9-19.7M97.3 123.1c.6-2.1 1-4.4 1-6.8 0-13.6-11-24.7-24.7-24.7-13.6 0-24.6 11-24.6 24.7 0 13.6 11 24.6 24.6 24.6 4.2 0 8.2-1 11.7-2.9l48.6 38.8c3.7-5.2 7.8-10.2 12-14.9zm-23.7 4.5c-6.2 0-11.3-5-11.3-11.3 0-6.2 5-11.3 11.3-11.3s11.3 5 11.3 11.3c0 6.3-5 11.3-11.3 11.3M52.1 282.3l30.8-134.8c-3 .9-6.1 1.3-9.3 1.3-11.4 0-21.5-5.9-27.3-14.9L13.2 279.2c5-3.2 11-5 17.4-5 8 0 15.6 2.9 21.5 8.1m93.8 144.5L60.4 319.6c-5.1 11.7-16.7 19.6-29.9 19.6-1.4 0-2.8-.1-4.1-.3l93.3 117c1.2-14.5 12-26.3 26.2-29.1M259 197.9V54.2c8.9-3.7 15.2-12.5 15.2-22.7 0-13.6-11-24.7-24.6-24.7-13.6 0-24.6 11-24.6 24.7 0 10.2 6.2 18.9 15 22.7V198c3.3-.2 6.6-.3 9.9-.3 3-.1 6.1 0 9.1.2M238.3 31.4c0-6.2 5-11.3 11.3-11.3s11.3 5.1 11.3 11.3c0 6.2-5 11.3-11.3 11.3s-11.3-5.1-11.3-11.3M468.7 282c-8.3 0-15.6 4.1-20.1 10.3L363 273.1c-1 6.3-7.1 11.3-8.9 17.3l90.3 20.6c2 11.5 12.1 20.3 24.3 20.3 13.6 0 24.6-11 24.6-24.6 0-13.7-11-24.7-24.6-24.7m0 35.9c-6.2 0-11.3-5-11.3-11.3 0-6.2 5-11.3 11.3-11.3 6.2 0 11.3 5.1 11.3 11.3-.1 6.3-5.1 11.3-11.3 11.3m-54.9-180c3.4 1.8 7.4 2.8 11.5 2.8 13.6 0 24.7-11 24.7-24.6 0-13.6-11-24.7-24.7-24.7-13.6 0-24.6 11-24.6 24.7 0 2.4.4 4.8 1 7l-50.6 40.4c4.3 4.7 10.2 8.2 13.8 13.4zm11.5-33.1c6.2 0 11.3 5 11.3 11.3 0 6.2-5.1 11.3-11.3 11.3-6.2 0-11.3-5.1-11.3-11.3 0-6.3 5.1-11.3 11.3-11.3"/></svg>