<?xml version="1.0" encoding="UTF-8"?>
<svg xmlns="http://www.w3.org/2000/svg" xmlns:xlink="http://www.w3.org/1999/xlink" width="32" height="32" viewBox="0 0 32 32" version="1.1">
<g id="surface1">
<path style=" stroke:none;fill-rule:nonzero;fill:rgb(19.215687%,41.960785%,89.803922%);fill-opacity:1;" d="M 23.9375 11.1875 C 23.058594 10.304688 21.894531 9.824219 20.652344 9.824219 C 19.417969 9.824219 18.246094 10.308594 17.371094 11.1875 L 15.96875 12.589844 L 14.566406 11.1875 C 13.691406 10.304688 12.523438 9.824219 11.28125 9.824219 C 10.042969 9.824219 8.875 10.308594 8 11.1875 C 7.125 12.0625 6.636719 13.230469 6.636719 14.46875 C 6.636719 14.726562 6.65625 14.976562 6.695312 15.21875 L 7.832031 15.21875 C 7.957031 15.21875 8.167969 15.105469 8.230469 15 L 8.242188 14.980469 L 8.703125 14.394531 C 8.953125 14.015625 9.273438 14.015625 9.394531 14.027344 C 9.523438 14.046875 9.84375 14.136719 9.976562 14.59375 L 10.855469 17.515625 L 12.941406 12.800781 C 13.140625 12.34375 13.464844 12.3125 13.601562 12.320312 C 13.726562 12.328125 14.054688 12.398438 14.195312 12.871094 L 16.550781 20.71875 L 18.679688 15.980469 C 18.875 15.546875 19.378906 15.21875 19.859375 15.21875 L 22.816406 15.21875 C 23.078125 15.21875 23.296875 15.4375 23.296875 15.699219 C 23.296875 15.960938 23.085938 16.179688 22.816406 16.179688 L 19.859375 16.179688 C 19.757812 16.179688 19.597656 16.28125 19.550781 16.378906 L 17.105469 21.804688 C 16.921875 22.222656 16.628906 22.277344 16.480469 22.277344 C 16.46875 22.277344 16.453125 22.273438 16.441406 22.273438 C 16.3125 22.265625 15.988281 22.195312 15.847656 21.722656 L 13.492188 13.886719 L 11.40625 18.609375 C 11.207031 19.066406 10.878906 19.097656 10.746094 19.089844 C 10.617188 19.078125 10.292969 19.007812 10.152344 18.535156 L 9.191406 15.316406 L 9.019531 15.546875 C 8.773438 15.917969 8.261719 16.1875 7.828125 16.1875 L 6.957031 16.1875 C 7.1875 16.769531 7.539062 17.304688 7.992188 17.761719 L 15.960938 25.726562 L 23.9375 17.753906 C 24.820312 16.875 25.300781 15.710938 25.300781 14.46875 C 25.300781 13.230469 24.8125 12.0625 23.9375 11.1875 Z M 23.9375 11.1875 "/>
<path style=" stroke:none;fill-rule:nonzero;fill:rgb(19.607843%,42.352942%,89.803922%);fill-opacity:1;" d="M 9.816406 27.78125 L 9.734375 27.78125 C 8.863281 27.78125 8.152344 28.488281 8.152344 29.355469 C 8.152344 30.226562 8.859375 30.9375 9.734375 30.9375 C 10.605469 30.9375 11.308594 30.234375 11.308594 29.355469 C 11.308594 28.960938 11.160156 28.59375 10.917969 28.320312 L 13.921875 22.085938 C 13.542969 21.933594 13.210938 21.671875 12.859375 21.472656 Z M 9.734375 30.078125 C 9.335938 30.078125 9.011719 29.761719 9.011719 29.355469 C 9.011719 28.960938 9.332031 28.632812 9.734375 28.632812 C 10.132812 28.632812 10.457031 28.960938 10.457031 29.355469 C 10.457031 29.761719 10.132812 30.078125 9.734375 30.078125 Z M 9.734375 30.078125 "/>
<path style=" stroke:none;fill-rule:nonzero;fill:rgb(19.607843%,42.352942%,89.803922%);fill-opacity:1;" d="M 3.230469 18.707031 C 2.945312 18.308594 2.476562 18.046875 1.953125 18.046875 C 1.082031 18.046875 0.378906 18.753906 0.378906 19.628906 C 0.378906 20.5 1.082031 21.203125 1.953125 21.203125 C 2.734375 21.203125 3.378906 20.640625 3.507812 19.898438 L 9.101562 18.617188 C 8.984375 18.226562 8.722656 17.875 8.660156 17.464844 Z M 1.953125 20.351562 C 1.554688 20.351562 1.230469 20.027344 1.230469 19.628906 C 1.230469 19.230469 1.554688 18.90625 1.953125 18.90625 C 2.347656 18.90625 2.675781 19.226562 2.675781 19.628906 C 2.675781 20.027344 2.355469 20.351562 1.953125 20.351562 Z M 1.953125 20.351562 "/>
<path style=" stroke:none;fill-rule:nonzero;fill:rgb(19.607843%,42.352942%,89.803922%);fill-opacity:1;" d="M 20.109375 29.371094 C 20.109375 29.03125 20.191406 28.703125 20.339844 28.410156 L 11.589844 28.410156 C 11.738281 28.703125 11.820312 29.023438 11.820312 29.355469 C 11.820312 29.964844 11.566406 30.503906 11.148438 30.886719 L 20.769531 30.886719 C 20.359375 30.507812 20.109375 29.972656 20.109375 29.371094 Z M 20.109375 29.371094 "/>
<path style=" stroke:none;fill-rule:nonzero;fill:rgb(19.607843%,42.352942%,89.803922%);fill-opacity:1;" d="M 6.796875 7.441406 C 6.796875 7.496094 6.796875 7.546875 6.789062 7.597656 L 14.808594 3.730469 C 14.238281 3.347656 13.886719 2.707031 13.886719 2.003906 C 13.886719 1.785156 13.921875 1.574219 13.984375 1.382812 L 5.453125 5.496094 C 6.238281 5.796875 6.796875 6.554688 6.796875 7.441406 Z M 6.796875 7.441406 "/>
<path style=" stroke:none;fill-rule:nonzero;fill:rgb(19.607843%,42.352942%,89.803922%);fill-opacity:1;" d="M 17.132812 3.738281 L 25.144531 7.597656 C 25.140625 7.539062 25.140625 7.480469 25.140625 7.429688 C 25.140625 6.546875 25.691406 5.792969 26.46875 5.492188 L 17.964844 1.394531 C 18.023438 1.59375 18.0625 1.796875 18.0625 2.015625 C 18.054688 2.714844 17.703125 3.359375 17.132812 3.738281 Z M 17.132812 3.738281 "/>
<path style=" stroke:none;fill-rule:nonzero;fill:rgb(19.607843%,42.352942%,89.803922%);fill-opacity:1;" d="M 27.21875 9.511719 C 27.019531 9.511719 26.824219 9.484375 26.636719 9.425781 L 28.609375 18.074219 C 28.984375 17.734375 29.476562 17.542969 29.996094 17.542969 C 30.398438 17.542969 30.785156 17.65625 31.105469 17.863281 L 28.980469 8.550781 C 28.601562 9.125 27.957031 9.511719 27.21875 9.511719 Z M 27.21875 9.511719 "/>
<path style=" stroke:none;fill-rule:nonzero;fill:rgb(19.607843%,42.352942%,89.803922%);fill-opacity:1;" d="M 21.011719 28.320312 C 20.761719 28.59375 20.609375 28.964844 20.609375 29.371094 C 20.609375 30.238281 21.3125 30.949219 22.183594 30.949219 C 23.054688 30.949219 23.757812 30.246094 23.757812 29.371094 C 23.757812 28.5 23.054688 27.796875 22.183594 27.796875 L 22.113281 27.796875 L 19.117188 21.574219 C 18.765625 21.773438 18.417969 22.003906 18.035156 22.15625 Z M 22.1875 28.644531 C 22.585938 28.644531 22.910156 28.972656 22.910156 29.371094 C 22.910156 29.765625 22.585938 30.09375 22.1875 30.09375 C 21.792969 30.09375 21.464844 29.765625 21.464844 29.371094 C 21.464844 28.972656 21.792969 28.644531 22.1875 28.644531 Z M 22.1875 28.644531 "/>
<path style=" stroke:none;fill-rule:nonzero;fill:rgb(19.607843%,42.352942%,89.803922%);fill-opacity:1;" d="M 28.082031 20.449219 L 22.597656 27.328125 C 23.5 27.507812 24.191406 28.269531 24.269531 29.203125 L 30.257812 21.691406 C 30.175781 21.703125 30.085938 21.707031 29.996094 21.707031 C 29.144531 21.707031 28.402344 21.195312 28.082031 20.449219 Z M 28.082031 20.449219 "/>
<path style=" stroke:none;fill-rule:nonzero;fill:rgb(19.607843%,42.352942%,89.803922%);fill-opacity:1;" d="M 6.226562 7.878906 C 6.265625 7.742188 6.292969 7.597656 6.292969 7.441406 C 6.292969 6.574219 5.585938 5.863281 4.710938 5.863281 C 3.839844 5.863281 3.136719 6.566406 3.136719 7.441406 C 3.136719 8.3125 3.839844 9.019531 4.710938 9.019531 C 4.980469 9.019531 5.234375 8.953125 5.460938 8.832031 L 8.570312 11.316406 C 8.804688 10.980469 9.070312 10.664062 9.335938 10.363281 Z M 4.710938 8.167969 C 4.3125 8.167969 3.988281 7.847656 3.988281 7.441406 C 3.988281 7.046875 4.308594 6.71875 4.710938 6.71875 C 5.113281 6.71875 5.433594 7.039062 5.433594 7.441406 C 5.433594 7.847656 5.113281 8.167969 4.710938 8.167969 Z M 4.710938 8.167969 "/>
<path style=" stroke:none;fill-rule:nonzero;fill:rgb(19.607843%,42.352942%,89.803922%);fill-opacity:1;" d="M 3.335938 18.066406 L 5.304688 9.441406 C 5.113281 9.496094 4.914062 9.523438 4.710938 9.523438 C 3.980469 9.523438 3.335938 9.144531 2.964844 8.570312 L 0.84375 17.867188 C 1.164062 17.664062 1.546875 17.546875 1.957031 17.546875 C 2.46875 17.546875 2.957031 17.734375 3.335938 18.066406 Z M 3.335938 18.066406 "/>
<path style=" stroke:none;fill-rule:nonzero;fill:rgb(19.607843%,42.352942%,89.803922%);fill-opacity:1;" d="M 9.335938 27.316406 L 3.867188 20.453125 C 3.539062 21.203125 2.796875 21.707031 1.953125 21.707031 C 1.863281 21.707031 1.773438 21.703125 1.691406 21.691406 L 7.660156 29.175781 C 7.738281 28.25 8.429688 27.496094 9.335938 27.316406 Z M 9.335938 27.316406 "/>
<path style=" stroke:none;fill-rule:nonzero;fill:rgb(19.607843%,42.352942%,89.803922%);fill-opacity:1;" d="M 16.574219 12.664062 L 16.574219 3.46875 C 17.144531 3.230469 17.546875 2.667969 17.546875 2.015625 C 17.546875 1.144531 16.84375 0.433594 15.972656 0.433594 C 15.105469 0.433594 14.398438 1.140625 14.398438 2.015625 C 14.398438 2.667969 14.796875 3.226562 15.359375 3.46875 L 15.359375 12.671875 C 15.570312 12.660156 15.78125 12.652344 15.992188 12.652344 C 16.1875 12.644531 16.382812 12.652344 16.574219 12.664062 Z M 15.25 2.007812 C 15.25 1.613281 15.570312 1.285156 15.972656 1.285156 C 16.378906 1.285156 16.699219 1.613281 16.699219 2.007812 C 16.699219 2.40625 16.378906 2.734375 15.972656 2.734375 C 15.570312 2.734375 15.25 2.40625 15.25 2.007812 Z M 15.25 2.007812 "/>
<path style=" stroke:none;fill-rule:nonzero;fill:rgb(19.607843%,42.352942%,89.803922%);fill-opacity:1;" d="M 29.996094 18.046875 C 29.464844 18.046875 29 18.308594 28.710938 18.707031 L 23.230469 17.476562 C 23.167969 17.882812 22.777344 18.203125 22.664062 18.585938 L 28.441406 19.902344 C 28.570312 20.640625 29.214844 21.203125 29.996094 21.203125 C 30.867188 21.203125 31.570312 20.5 31.570312 19.628906 C 31.570312 18.753906 30.867188 18.046875 29.996094 18.046875 Z M 29.996094 20.34375 C 29.601562 20.34375 29.273438 20.027344 29.273438 19.621094 C 29.273438 19.226562 29.59375 18.898438 29.996094 18.898438 C 30.394531 18.898438 30.71875 19.226562 30.71875 19.621094 C 30.714844 20.027344 30.394531 20.34375 29.996094 20.34375 Z M 29.996094 20.34375 "/>
<path style=" stroke:none;fill-rule:nonzero;fill:rgb(19.607843%,42.352942%,89.803922%);fill-opacity:1;" d="M 26.484375 8.824219 C 26.699219 8.941406 26.957031 9.003906 27.21875 9.003906 C 28.089844 9.003906 28.800781 8.300781 28.800781 7.429688 C 28.800781 6.558594 28.097656 5.847656 27.21875 5.847656 C 26.347656 5.847656 25.644531 6.554688 25.644531 7.429688 C 25.644531 7.585938 25.671875 7.738281 25.707031 7.878906 L 22.46875 10.464844 C 22.746094 10.765625 23.125 10.988281 23.355469 11.320312 Z M 27.21875 6.707031 C 27.617188 6.707031 27.941406 7.027344 27.941406 7.429688 C 27.941406 7.828125 27.617188 8.152344 27.21875 8.152344 C 26.824219 8.152344 26.496094 7.828125 26.496094 7.429688 C 26.496094 7.027344 26.824219 6.707031 27.21875 6.707031 Z M 27.21875 6.707031 "/>
</g>
</svg>
