<?xml version="1.0" encoding="UTF-8"?>
<svg xmlns="http://www.w3.org/2000/svg" xmlns:xlink="http://www.w3.org/1999/xlink" width="32" height="32" viewBox="0 0 32 32" version="1.1">
<g id="surface1">
<path style=" stroke:none;fill-rule:evenodd;fill:rgb(0%,0%,0%);fill-opacity:1;" d="M 16 3 C 8.820312 3 3 8.820312 3 16 C 3 23.179688 8.820312 29 16 29 C 23.179688 29 29 23.179688 29 16 C 29 8.820312 23.179688 3 16 3 M 13.707031 12.292969 C 13.457031 12.027344 13.082031 11.914062 12.726562 12.007812 C 12.375 12.097656 12.097656 12.375 12.007812 12.726562 C 11.914062 13.082031 12.027344 13.457031 12.292969 13.707031 L 14.585938 16 L 12.292969 18.292969 C 12.027344 18.542969 11.914062 18.917969 12.007812 19.273438 C 12.097656 19.625 12.375 19.902344 12.726562 19.992188 C 13.082031 20.085938 13.457031 19.972656 13.707031 19.707031 L 16 17.414062 L 18.292969 19.707031 C 18.542969 19.972656 18.917969 20.085938 19.273438 19.992188 C 19.625 19.902344 19.902344 19.625 19.992188 19.273438 C 20.085938 18.917969 19.972656 18.542969 19.707031 18.292969 L 17.414062 16 L 19.707031 13.707031 C 19.972656 13.457031 20.085938 13.082031 19.992188 12.726562 C 19.902344 12.375 19.625 12.097656 19.273438 12.007812 C 18.917969 11.914062 18.542969 12.027344 18.292969 12.292969 L 16 14.585938 Z M 13.707031 12.292969 "/>
</g>
</svg>
