<?xml version="1.0" encoding="UTF-8"?>
<svg xmlns="http://www.w3.org/2000/svg" xmlns:xlink="http://www.w3.org/1999/xlink" width="59.636002" height="32" viewBox="0 0 59.636002 32" version="1.1">
<g id="surface1">
<path style=" stroke:none;fill-rule:evenodd;fill:rgb(73.333335%,90.196079%,98.431373%);fill-opacity:1;" d="M 46.480469 10.453125 C 46.910156 15.496094 39.0625 20.292969 28.957031 21.167969 C 18.851562 22.046875 10.3125 18.667969 9.886719 13.628906 C 9.457031 8.585938 17.300781 3.789062 27.410156 2.914062 C 37.515625 2.035156 46.054688 5.410156 46.480469 10.453125 "/>
<path style=" stroke:none;fill-rule:evenodd;fill:rgb(100%,100%,100%);fill-opacity:1;" d="M 27.703125 3.503906 C 23.851562 3.441406 19.339844 4.988281 15.984375 6.4375 C 15.625 7.472656 15.445312 8.5625 15.445312 9.660156 C 15.445312 15.640625 20.785156 20.488281 27.371094 20.488281 C 33.960938 20.488281 39.300781 15.640625 39.300781 9.660156 C 39.300781 7.769531 38.761719 5.988281 37.824219 4.441406 C 35.136719 4.019531 31.445312 3.566406 27.703125 3.503906 M 27.371094 3.503906 C 25.238281 3.371094 21.558594 4.496094 18.492188 5.621094 C 18.011719 6.761719 17.765625 7.988281 17.765625 9.226562 C 17.765625 14.464844 22.464844 18.710938 27.433594 18.710938 C 32.371094 18.710938 36.738281 14.457031 37.101562 9.226562 C 37.21875 7.523438 36.640625 5.917969 35.835938 4.53125 C 32.65625 3.964844 29.28125 3.621094 27.371094 3.503906 "/>
<path style=" stroke:none;fill-rule:evenodd;fill:rgb(21.568628%,20.784314%,20.784314%);fill-opacity:1;" d="M 21.894531 8.539062 C 22.15625 7.953125 22.554688 7.664062 22.9375 7.171875 C 22.894531 7.058594 22.800781 6.675781 22.800781 6.542969 C 22.800781 5.957031 23.273438 5.476562 23.855469 5.476562 C 23.992188 5.476562 24.121094 5.503906 24.246094 5.554688 C 26.046875 4.15625 28.378906 3.640625 30.601562 4.144531 L 31.222656 4.3125 C 28.941406 3.992188 26.367188 4.8125 24.617188 6.238281 C 24.667969 6.367188 24.816406 6.730469 24.816406 6.878906 C 24.816406 7.46875 24.441406 7.613281 23.855469 7.613281 C 23.726562 7.613281 23.597656 7.585938 23.480469 7.539062 C 23.085938 8.078125 22.601562 9.101562 22.363281 9.742188 C 23.332031 10.617188 24.207031 10.933594 25.347656 11.363281 C 25.34375 11.308594 25.386719 11.257812 25.386719 11.203125 C 25.386719 9.425781 26.933594 7.984375 28.691406 7.984375 C 30.265625 7.984375 31.570312 9.140625 31.824219 10.660156 C 32.609375 10.152344 33.367188 9.765625 33.949219 9.015625 C 33.8125 8.851562 33.667969 8.378906 33.667969 8.148438 C 33.667969 7.613281 34.097656 7.179688 34.625 7.179688 C 34.699219 7.179688 34.773438 7.191406 34.839844 7.207031 C 35.136719 6.59375 35.355469 5.945312 35.5 5.28125 C 32.75 3.222656 27.433594 3.503906 27.433594 3.503906 C 27.433594 3.503906 23.203125 3.28125 20.339844 4.691406 C 20.535156 6.082031 21.070312 7.402344 21.894531 8.539062 M 35.027344 7.738281 C 35.222656 7.914062 35.328125 8.070312 35.410156 8.21875 C 35.667969 8.6875 35.152344 9.117188 34.625 9.117188 C 34.574219 9.117188 34.519531 9.109375 34.46875 9.097656 C 33.871094 10.039062 32.828125 11.246094 31.902344 11.855469 C 33.324219 12.089844 34.664062 12.667969 35.730469 13.554688 C 36.507812 12.148438 37.101562 10.117188 37.101562 8.390625 C 37.101562 7.078125 36.527344 6.113281 35.664062 5.40625 C 35.617188 6.113281 35.246094 7.097656 35.027344 7.738281 M 23.488281 16.648438 C 23.964844 15.328125 25.128906 14.300781 26.230469 13.402344 C 26.070312 13.179688 25.828125 12.625 25.726562 12.363281 C 24.398438 11.949219 23.203125 11.1875 22.269531 10.152344 L 22.25 10.242188 C 22.078125 11.011719 22.039062 11.804688 22.128906 12.585938 C 22.789062 12.714844 23.265625 13.292969 23.261719 13.964844 C 23.261719 14.371094 22.90625 14.960938 22.632812 15.214844 C 22.929688 15.863281 23.132812 16.179688 23.488281 16.648438 M 23.40625 17.761719 C 22.84375 17.191406 22.449219 16.058594 22.085938 15.347656 C 22.015625 15.359375 21.945312 15.367188 21.875 15.367188 C 21.109375 15.367188 20.304688 14.714844 20.488281 13.964844 C 20.585938 13.546875 20.871094 13.273438 21.332031 13.046875 C 21.230469 12.183594 21.199219 10.945312 21.398438 10.046875 C 21.453125 9.792969 21.574219 9.671875 21.65625 9.425781 C 20.808594 8.175781 20.261719 6.535156 20.261719 4.90625 L 20.265625 4.726562 C 18.839844 5.453125 17.765625 6.59375 17.765625 8.390625 C 17.765625 12.367188 20.03125 16.265625 23.398438 17.792969 Z M 31.6875 12.265625 C 31.253906 13.515625 30.078125 14.417969 28.691406 14.417969 C 27.976562 14.417969 27.285156 14.171875 26.726562 13.726562 C 25.613281 14.605469 24.601562 16.148438 24.085938 17.484375 C 24.316406 17.738281 24.476562 17.945312 24.738281 18.167969 C 25.515625 18.371094 26.589844 18.167969 27.433594 18.167969 C 30.832031 18.167969 33.839844 16.640625 35.5625 13.960938 C 34.417969 13.15625 33.0625 12.394531 31.6875 12.265625 "/>
<path style=" stroke:none;fill-rule:evenodd;fill:rgb(7.058824%,52.941179%,69.411767%);fill-opacity:1;" d="M 21.808594 9.003906 C 22.070312 8.417969 22.398438 7.875 22.78125 7.382812 C 22.738281 7.261719 22.714844 7.136719 22.714844 7.007812 C 22.714844 6.421875 23.1875 5.941406 23.769531 5.941406 C 23.90625 5.941406 24.039062 5.96875 24.160156 6.019531 C 25.960938 4.621094 28.292969 4.101562 30.515625 4.605469 L 31.136719 4.777344 C 28.851562 4.457031 26.492188 5.164062 24.742188 6.59375 C 24.796875 6.726562 24.824219 6.867188 24.824219 7.007812 C 24.828125 7.59375 24.355469 8.070312 23.769531 8.074219 C 23.640625 8.074219 23.515625 8.050781 23.394531 8.003906 C 22.996094 8.546875 22.671875 9.144531 22.4375 9.777344 C 23.261719 10.683594 24.285156 11.386719 25.429688 11.828125 L 25.421875 11.664062 C 25.421875 9.886719 26.847656 8.445312 28.601562 8.445312 C 30.179688 8.445312 31.480469 9.605469 31.734375 11.125 C 32.527344 10.613281 33.222656 9.96875 33.796875 9.21875 C 33.5625 8.929688 33.511719 8.535156 33.671875 8.199219 C 33.828125 7.863281 34.167969 7.648438 34.539062 7.644531 C 34.613281 7.644531 34.683594 7.652344 34.753906 7.671875 C 35.046875 7.058594 35.269531 6.410156 35.410156 5.746094 C 32.664062 3.6875 27.347656 3.96875 27.347656 3.96875 C 27.347656 3.96875 23.117188 3.746094 20.253906 5.15625 C 20.449219 6.546875 20.984375 7.867188 21.808594 9.003906 M 35.175781 7.894531 C 35.371094 8.074219 35.496094 8.328125 35.496094 8.613281 C 35.496094 9.144531 35.066406 9.578125 34.539062 9.578125 C 34.484375 9.578125 34.429688 9.574219 34.378906 9.5625 C 33.785156 10.503906 32.996094 11.304688 32.066406 11.914062 C 33.4375 12.132812 34.726562 12.71875 35.792969 13.609375 C 36.597656 12.152344 37.019531 10.519531 37.015625 8.855469 C 37.015625 7.542969 36.441406 6.578125 35.574219 5.871094 C 35.53125 6.558594 35.398438 7.242188 35.175781 7.894531 M 23.636719 16.96875 C 24.109375 15.636719 24.941406 14.457031 26.035156 13.558594 C 25.875 13.332031 25.742188 13.085938 25.640625 12.828125 C 24.308594 12.417969 23.117188 11.652344 22.183594 10.617188 L 22.160156 10.703125 C 21.992188 11.472656 21.953125 12.265625 22.042969 13.050781 C 22.699219 13.179688 23.175781 13.757812 23.171875 14.425781 C 23.171875 14.835938 23 15.199219 22.726562 15.457031 C 22.976562 15.988281 23.28125 16.496094 23.636719 16.96875 M 23.402344 17.742188 C 22.835938 17.175781 22.363281 16.523438 21.996094 15.8125 C 21.929688 15.824219 21.859375 15.832031 21.785156 15.832031 C 21.414062 15.828125 21.0625 15.679688 20.800781 15.417969 C 20.539062 15.152344 20.394531 14.796875 20.398438 14.425781 C 20.398438 13.890625 20.703125 13.402344 21.183594 13.167969 C 21.074219 12.28125 21.117188 11.382812 21.3125 10.511719 L 21.515625 9.761719 C 20.640625 8.464844 20.171875 6.9375 20.175781 5.371094 L 20.179688 5.191406 C 18.75 5.917969 17.679688 7.058594 17.679688 8.855469 C 17.671875 12.691406 19.90625 16.179688 23.394531 17.777344 Z M 31.601562 12.730469 C 31.167969 13.980469 29.988281 14.882812 28.601562 14.882812 C 27.886719 14.882812 27.195312 14.636719 26.640625 14.191406 C 25.523438 15.070312 24.683594 16.265625 24.167969 17.605469 C 24.398438 17.855469 24.644531 18.09375 24.90625 18.316406 C 25.703125 18.527344 26.523438 18.632812 27.347656 18.632812 C 30.742188 18.632812 33.730469 16.859375 35.453125 14.179688 C 34.308594 13.375 32.976562 12.855469 31.601562 12.730469 "/>
<path style=" stroke:none;fill-rule:evenodd;fill:rgb(100%,100%,100%);fill-opacity:1;" d="M 31.714844 11.902344 L 34.652344 11.191406 L 31.703125 11.039062 L 34.105469 9.183594 L 31.378906 10.171875 L 33.230469 7.578125 L 30.671875 9.296875 L 31.566406 6.257812 L 29.8125 8.761719 L 29.769531 5.597656 L 28.617188 8.417969 L 27.652344 5.566406 L 27.703125 8.925781 L 26.039062 5.914062 L 26.941406 9.109375 L 24.238281 7.125 L 26.355469 9.8125 L 23.003906 8.566406 L 25.648438 10.546875 L 22.253906 10.652344 L 25.726562 11.554688 L 22.253906 12.316406 L 25.679688 12.566406 L 22.789062 14.4375 L 25.765625 13.347656 L 23.699219 15.992188 L 26.308594 13.863281 L 25.371094 17.414062 L 27.386719 14.523438 L 27.101562 17.933594 L 28.246094 14.84375 L 29.21875 18.09375 L 29.457031 14.832031 L 30.902344 17.613281 L 30.046875 14.433594 L 32.695312 16.503906 L 30.984375 13.863281 L 33.886719 15.007812 L 31.667969 12.800781 L 34.644531 13.039062 Z M 31.714844 11.902344 "/>
<path style=" stroke:none;fill-rule:evenodd;fill:rgb(21.568628%,20.784314%,20.784314%);fill-opacity:1;" d="M 0.421875 17.585938 C 9.539062 8.371094 16.820312 5.523438 23.425781 4.226562 C 24.300781 4.054688 24.464844 2.121094 24.464844 2.121094 C 24.464844 2.121094 24.585938 3.546875 25.199219 3.730469 C 25.8125 3.917969 26.605469 1.503906 26.605469 1.503906 C 26.605469 1.503906 25.871094 3.667969 26.605469 3.792969 C 27.339844 3.917969 28.6875 1.6875 28.6875 1.6875 C 28.6875 1.6875 28.136719 3.605469 28.503906 3.730469 C 28.871094 3.855469 30.707031 0.945312 30.707031 0.945312 C 30.707031 0.945312 29.605469 2.863281 30.644531 3.050781 C 31.683594 3.234375 33.203125 1.742188 33.203125 1.742188 C 33.203125 1.742188 32.007812 3.109375 32.539062 3.296875 C 34.804688 4.101562 36.636719 1.128906 36.636719 1.128906 C 36.636719 1.128906 36.210938 2.429688 35.109375 3.855469 C 37.496094 4.472656 39.269531 0.839844 39.269531 0.839844 L 37.496094 4.472656 C 38.414062 4.96875 42.085938 0.699219 42.085938 0.699219 C 42.085938 0.699219 40.1875 4.039062 39.085938 4.71875 C 39.699219 5.214844 41.902344 3.234375 41.902344 3.234375 C 41.902344 3.234375 40.128906 5.460938 40.800781 5.585938 C 41.777344 6.390625 45.386719 1.441406 45.386719 1.441406 C 45.386719 1.441406 43.980469 4.347656 41.902344 6.636719 C 43.640625 7.515625 47.957031 1.875 47.957031 1.875 C 47.957031 1.875 47.835938 3.667969 44.714844 6.515625 C 47.039062 6.207031 50.039062 1.75 50.039062 1.75 C 50.039062 1.75 48.9375 5.089844 46.304688 7.441406 C 48.589844 7.203125 52.242188 1.503906 52.242188 1.503906 C 52.242188 1.503906 50.832031 5.460938 47.957031 7.75 C 51.140625 8.464844 55.726562 3.667969 55.726562 3.667969 C 55.726562 3.667969 53.921875 7.070312 51.566406 8.464844 C 54.199219 9.484375 57.808594 5.277344 57.808594 5.277344 C 57.808594 5.277344 54.199219 10.90625 48.449219 10.660156 C 46.5625 10.578125 40.855469 4.871094 28.625 5.339844 C 12.472656 5.957031 9.046875 12.886719 0.421875 17.585938 M 0.796875 16.886719 C 9.910156 7.671875 17.191406 4.824219 23.800781 3.527344 C 24.671875 3.355469 24.839844 1.421875 24.839844 1.421875 C 24.839844 1.421875 24.960938 2.84375 25.574219 3.03125 C 26.1875 3.214844 26.980469 0.804688 26.980469 0.804688 C 26.980469 0.804688 26.246094 2.96875 26.980469 3.09375 C 27.714844 3.214844 29.058594 0.988281 29.058594 0.988281 C 29.058594 0.988281 28.511719 2.90625 28.875 3.03125 C 29.242188 3.15625 31.078125 0.246094 31.078125 0.246094 C 31.078125 0.246094 29.976562 2.164062 31.019531 2.351562 C 32.058594 2.535156 33.574219 1.042969 33.574219 1.042969 C 33.574219 1.042969 32.382812 2.410156 32.914062 2.597656 C 35.179688 3.402344 37.007812 0.425781 37.007812 0.425781 C 37.007812 0.425781 36.585938 1.730469 35.484375 3.15625 C 37.871094 3.773438 39.640625 0.136719 39.640625 0.136719 L 37.871094 3.773438 C 38.789062 4.269531 42.457031 0 42.457031 0 C 42.457031 0 40.5625 3.339844 39.460938 4.019531 C 40.074219 4.515625 42.273438 2.535156 42.273438 2.535156 C 42.273438 2.535156 40.5 4.761719 41.175781 4.886719 C 42.152344 5.691406 45.761719 0.742188 45.761719 0.742188 C 45.761719 0.742188 44.355469 3.648438 42.273438 5.9375 C 44.015625 6.816406 48.332031 1.175781 48.332031 1.175781 C 48.332031 1.175781 48.210938 2.96875 45.089844 5.816406 C 47.414062 5.503906 50.414062 1.050781 50.414062 1.050781 C 50.414062 1.050781 49.3125 4.390625 46.679688 6.742188 C 48.960938 6.503906 52.613281 0.804688 52.613281 0.804688 C 52.613281 0.804688 51.207031 4.761719 48.332031 7.050781 C 51.511719 7.761719 56.101562 2.96875 56.101562 2.96875 C 56.101562 2.96875 54.296875 6.371094 51.941406 7.761719 C 54.574219 8.785156 58.183594 4.578125 58.183594 4.578125 C 58.183594 4.578125 54.574219 10.207031 48.820312 9.960938 C 46.933594 9.878906 41.226562 4.171875 29 4.640625 C 12.847656 5.257812 9.421875 12.1875 0.796875 16.886719 M 0.183594 18.59375 C 5 21.039062 9.40625 18.222656 14.957031 19.804688 C 19.179688 21.007812 24.320312 22.492188 31.292969 21.472656 C 38.265625 20.449219 44.230469 17.390625 47.078125 11.914062 C 47.964844 9.472656 51.574219 12.472656 51.574219 12.472656 C 51.574219 12.472656 48.941406 11.359375 49.003906 11.882812 C 49.066406 12.410156 52.949219 14.234375 52.949219 14.234375 C 52.949219 14.234375 49.433594 13.121094 49.648438 13.957031 C 49.859375 14.792969 54.050781 18.132812 54.050781 18.132812 C 54.050781 18.132812 49.308594 14.480469 48.914062 14.976562 C 48.515625 15.472656 50.929688 17.480469 50.929688 17.480469 C 50.929688 17.480469 46.925781 14.976562 45.515625 15.714844 C 44.503906 16.246094 49.675781 19.679688 49.675781 19.679688 C 49.675781 19.679688 46.3125 17.078125 45.515625 17.761719 C 44.722656 18.441406 49.308594 24.007812 49.308594 24.007812 C 49.308594 24.007812 44.109375 18.316406 43.589844 18.59375 C 43.070312 18.875 45.027344 21.597656 45.027344 21.597656 C 45.027344 21.597656 42.457031 18.75 41.753906 19.246094 C 41.050781 19.742188 45.425781 27.132812 45.425781 27.132812 C 45.425781 27.132812 40.683594 19.554688 38.726562 20.824219 C 41.800781 27.644531 40.652344 28.617188 40.652344 28.617188 C 40.652344 28.617188 40.261719 21.660156 36.433594 21.84375 C 34.503906 21.9375 37.347656 27.039062 37.347656 27.039062 C 37.347656 27.039062 34.730469 22.378906 32.988281 22.472656 C 36.203125 28.621094 35.054688 31.121094 35.054688 31.121094 C 35.054688 31.121094 35.585938 25.871094 31.226562 22.945312 C 32.878906 24.429688 30.191406 31.121094 30.191406 31.121094 C 30.191406 31.121094 32.554688 21.261719 28.449219 23.140625 C 27.796875 23.4375 28.402344 28.058594 28.402344 28.058594 C 28.402344 28.058594 27.574219 22.769531 26.335938 23.050781 C 25.617188 23.210938 21.75 30.378906 21.75 30.378906 C 21.75 30.378906 24.914062 22.632812 23.953125 22.957031 C 23.25 23.195312 21.933594 26.390625 21.933594 26.390625 C 21.933594 26.390625 22.574219 23.234375 21.933594 23.050781 C 21.289062 22.863281 17.710938 26.390625 17.710938 26.390625 C 17.710938 26.390625 20.371094 23.234375 19.914062 22.585938 C 19.21875 21.601562 18.402344 21.554688 17.4375 21.9375 C 16.027344 22.492188 14.132812 25.089844 14.132812 25.089844 C 14.132812 25.089844 16.023438 22.457031 15.691406 21.472656 C 15.160156 19.886719 9.726562 24.535156 9.726562 24.535156 C 9.726562 24.535156 12.9375 21.472656 12.207031 20.824219 C 11.472656 20.171875 7.484375 20.375 6.238281 20.371094 C 2.570312 20.359375 1.296875 19.488281 0.183594 18.59375 M 0 18.039062 C 4.816406 20.480469 9.222656 17.667969 14.773438 19.25 C 18.996094 20.453125 24.136719 21.9375 31.109375 20.914062 C 38.082031 19.894531 44.046875 16.832031 46.894531 11.359375 C 47.78125 8.914062 51.390625 11.914062 51.390625 11.914062 C 51.390625 11.914062 48.757812 10.800781 48.820312 11.328125 C 48.882812 11.851562 52.765625 13.675781 52.765625 13.675781 C 52.765625 13.675781 49.25 12.5625 49.464844 13.398438 C 49.675781 14.234375 53.867188 17.574219 53.867188 17.574219 C 53.867188 17.574219 49.125 13.925781 48.730469 14.421875 C 48.332031 14.914062 50.75 16.925781 50.75 16.925781 C 50.75 16.925781 46.742188 14.421875 45.332031 15.160156 C 44.320312 15.691406 49.492188 19.121094 49.492188 19.121094 C 49.492188 19.121094 46.128906 16.523438 45.332031 17.203125 C 44.539062 17.882812 49.128906 23.453125 49.128906 23.453125 C 49.128906 23.453125 43.925781 17.761719 43.40625 18.039062 C 42.886719 18.316406 44.84375 21.039062 44.84375 21.039062 C 44.84375 21.039062 42.273438 18.195312 41.570312 18.6875 C 40.867188 19.183594 45.242188 26.574219 45.242188 26.574219 C 45.242188 26.574219 40.5 18.996094 38.542969 20.265625 C 41.617188 27.085938 40.46875 28.058594 40.46875 28.058594 C 40.46875 28.058594 40.078125 21.101562 36.25 21.285156 C 34.320312 21.378906 37.164062 26.484375 37.164062 26.484375 C 37.164062 26.484375 34.546875 21.820312 32.804688 21.914062 C 36.019531 28.0625 34.871094 30.566406 34.871094 30.566406 C 34.871094 30.566406 35.402344 25.3125 31.042969 22.390625 C 32.695312 23.875 30.007812 30.566406 30.007812 30.566406 C 30.007812 30.566406 32.375 20.707031 28.265625 22.585938 C 27.617188 22.882812 28.21875 27.503906 28.21875 27.503906 C 28.21875 27.503906 27.390625 22.214844 26.152344 22.492188 C 25.433594 22.65625 21.566406 29.824219 21.566406 29.824219 C 21.566406 29.824219 24.730469 22.074219 23.769531 22.398438 C 23.066406 22.636719 21.75 25.832031 21.75 25.832031 C 21.75 25.832031 22.390625 22.679688 21.75 22.492188 C 21.105469 22.308594 17.527344 25.832031 17.527344 25.832031 C 17.527344 25.832031 20.1875 22.679688 19.730469 22.027344 C 19.035156 21.042969 18.21875 21 17.253906 21.378906 C 15.84375 21.933594 13.949219 24.535156 13.949219 24.535156 C 13.949219 24.535156 15.839844 21.902344 15.507812 20.914062 C 14.976562 19.332031 9.542969 23.976562 9.542969 23.976562 C 9.542969 23.976562 12.753906 20.914062 12.023438 20.265625 C 11.289062 19.617188 7.300781 19.816406 6.054688 19.8125 C 2.386719 19.800781 1.113281 18.929688 0 18.039062 "/>
</g>
</svg>
