<svg role="img" viewBox="0 0 59.636 32" xmlns="http://www.w3.org/2000/svg"><path d="M46.48 10.453c.43 5.043-7.417 9.84-17.523 10.715-10.105.879-18.644-2.5-19.07-7.54C9.457 8.587 17.3 3.79 27.41 2.915c10.106-.879 18.645 2.496 19.07 7.54" style="stroke:none;fill-rule:evenodd;fill:rgb(73.333335%,90.196079%,98.431373%);fill-opacity:1"/><path d="M27.703 3.504c-3.851-.063-8.363 1.484-11.719 2.934a9.825 9.825 0 0 0-.539 3.222c0 5.98 5.34 10.828 11.926 10.828 6.59 0 11.93-4.847 11.93-10.828 0-1.89-.54-3.672-1.477-5.219-2.687-.421-6.379-.875-10.12-.937m-.333 0c-2.133-.133-5.812.992-8.879 2.117a9.289 9.289 0 0 0-.726 3.606c0 5.238 4.699 9.484 9.668 9.484 4.937 0 9.304-4.254 9.668-9.484.117-1.704-.461-3.309-1.266-4.696-3.18-.566-6.555-.91-8.465-1.027" style="stroke:none;fill-rule:evenodd;fill:rgb(100%,100%,100%);fill-opacity:1"/><path d="M21.895 8.54c.261-.587.66-.876 1.043-1.368-.043-.113-.137-.496-.137-.629 0-.586.472-1.066 1.054-1.066.137 0 .266.027.391.078a7.614 7.614 0 0 1 6.356-1.41l.62.168c-2.28-.32-4.855.5-6.605 1.925.051.13.2.492.2.64 0 .59-.376.735-.962.735-.128 0-.257-.027-.375-.074-.394.54-.878 1.563-1.117 2.203.969.875 1.844 1.192 2.985 1.621-.004-.054.039-.105.039-.16 0-1.777 1.547-3.219 3.304-3.219 1.575 0 2.88 1.157 3.133 2.676.785-.508 1.543-.894 2.125-1.644-.136-.164-.281-.637-.281-.868 0-.535.43-.968.957-.968.074 0 .148.011.215.027a8.566 8.566 0 0 0 .66-1.926c-2.75-2.058-8.066-1.777-8.066-1.777s-4.23-.223-7.094 1.187a8.59 8.59 0 0 0 1.555 3.848m13.132-.8c.196.175.301.331.383.48.258.469-.258.898-.785.898a.685.685 0 0 1-.156-.02c-.598.942-1.64 2.15-2.567 2.758 1.422.235 2.762.813 3.828 1.7.778-1.407 1.372-3.438 1.372-5.164 0-1.313-.575-2.278-1.438-2.985-.047.707-.418 1.692-.637 2.332m-11.539 8.91c.477-1.32 1.64-2.347 2.742-3.246-.16-.222-.402-.777-.503-1.039a7.738 7.738 0 0 1-3.457-2.21l-.02.09a7.094 7.094 0 0 0-.121 2.343 1.399 1.399 0 0 1 1.133 1.379c0 .406-.356.996-.63 1.25.298.648.5.965.856 1.433m-.082 1.114c-.562-.57-.957-1.703-1.32-2.414-.07.011-.14.02-.211.02-.766 0-1.57-.653-1.387-1.403.098-.418.383-.692.844-.918-.102-.863-.133-2.102.066-3 .055-.254.176-.375.258-.621-.847-1.25-1.394-2.89-1.394-4.52l.004-.18c-1.426.727-2.5 1.868-2.5 3.665 0 3.976 2.265 7.875 5.632 9.402zm8.282-5.496c-.434 1.25-1.61 2.152-2.997 2.152a3.155 3.155 0 0 1-1.964-.691c-1.114.878-2.125 2.421-2.641 3.757.23.254.39.461.652.684.778.203 1.852 0 2.696 0 3.398 0 6.406-1.527 8.128-4.207-1.144-.805-2.5-1.566-3.874-1.695" style="stroke:none;fill-rule:evenodd;fill:rgb(21.568628%,20.784314%,20.784314%);fill-opacity:1"/><path d="M21.809 9.004c.261-.586.59-1.129.972-1.621a1.082 1.082 0 0 1-.066-.375c0-.586.473-1.067 1.055-1.067.136 0 .27.028.39.079a7.629 7.629 0 0 1 6.356-1.415l.62.172c-2.284-.32-4.644.387-6.394 1.817.055.133.082.273.082.414a1.06 1.06 0 0 1-1.054 1.066 1 1 0 0 1-.375-.07 7.323 7.323 0 0 0-.957 1.773 7.835 7.835 0 0 0 2.992 2.051l-.008-.164c0-1.777 1.426-3.219 3.18-3.219 1.578 0 2.878 1.16 3.132 2.68a8.25 8.25 0 0 0 2.063-1.906.964.964 0 0 1 .742-1.574.79.79 0 0 1 .215.027 8.556 8.556 0 0 0 .656-1.926c-2.746-2.059-8.062-1.777-8.062-1.777s-4.23-.223-7.094 1.187a8.608 8.608 0 0 0 1.555 3.848m13.367-1.11c.195.18.32.434.32.72 0 .53-.43.964-.957.964a.742.742 0 0 1-.16-.015 7.765 7.765 0 0 1-2.313 2.351 7.712 7.712 0 0 1 3.727 1.695 9.8 9.8 0 0 0 1.223-4.754c0-1.312-.575-2.277-1.442-2.984a7.716 7.716 0 0 1-.398 2.024m-11.54 9.074a7.772 7.772 0 0 1 2.4-3.41 3.378 3.378 0 0 1-.395-.73 7.717 7.717 0 0 1-3.457-2.212l-.024.086a7.227 7.227 0 0 0-.117 2.348 1.394 1.394 0 0 1 1.129 1.375c0 .41-.172.773-.445 1.031.25.531.554 1.04.91 1.512m-.235.773a7.867 7.867 0 0 1-1.406-1.93c-.066.012-.137.02-.21.02a1.396 1.396 0 0 1-1.388-1.406 1.4 1.4 0 0 1 .786-1.258 7.845 7.845 0 0 1 .128-2.656l.204-.75a7.824 7.824 0 0 1-1.34-4.39l.004-.18c-1.43.726-2.5 1.867-2.5 3.663a9.788 9.788 0 0 0 5.715 8.922zm8.2-5.012c-.434 1.25-1.614 2.153-3 2.153a3.136 3.136 0 0 1-1.961-.692c-1.118.88-1.957 2.075-2.473 3.414.23.25.477.489.738.711a9.66 9.66 0 0 0 2.442.317c3.394 0 6.382-1.774 8.105-4.453-1.144-.805-2.476-1.325-3.851-1.45" style="stroke:none;fill-rule:evenodd;fill:rgb(7.058824%,52.941179%,69.411767%);fill-opacity:1"/><path d="m31.715 11.902 2.937-.71-2.949-.153 2.402-1.855-2.726.988 1.851-2.594-2.558 1.719.894-3.04-1.753 2.505-.043-3.164-1.153 2.82-.965-2.852.051 3.36-1.664-3.012.902 3.195-2.703-1.984 2.117 2.688-3.351-1.247 2.644 1.98-3.394.106 3.473.903-3.473.761 3.426.25-2.89 1.871 2.976-1.09-2.067 2.645 2.61-2.129-.938 3.551 2.016-2.89-.285 3.41 1.144-3.09.973 3.25.238-3.262 1.445 2.781-.855-3.18 2.648 2.07-1.71-2.64 2.902 1.145-2.219-2.207 2.977.238Zm0 0" style="stroke:none;fill-rule:evenodd;fill:rgb(100%,100%,100%);fill-opacity:1"/><path d="M.422 17.586C9.539 8.37 16.82 5.523 23.426 4.226c.875-.171 1.039-2.105 1.039-2.105s.12 1.426.734 1.61c.613.187 1.406-2.227 1.406-2.227s-.734 2.164 0 2.289c.735.125 2.082-2.105 2.082-2.105s-.55 1.917-.183 2.042c.367.125 2.203-2.785 2.203-2.785s-1.102 1.918-.062 2.106c1.039.183 2.558-1.309 2.558-1.309s-1.195 1.367-.664 1.555c2.266.805 4.098-2.168 4.098-2.168s-.426 1.3-1.528 2.726C37.496 4.473 39.27.84 39.27.84l-1.773 3.633c.918.496 4.59-3.774 4.59-3.774s-1.898 3.34-3 4.02c.613.496 2.816-1.485 2.816-1.485s-1.773 2.227-1.101 2.352c.976.805 4.586-4.145 4.586-4.145s-1.407 2.907-3.485 5.196c1.739.879 6.055-4.762 6.055-4.762s-.121 1.793-3.242 4.64C47.04 6.207 50.04 1.75 50.04 1.75s-1.102 3.34-3.734 5.691c2.285-.238 5.937-5.937 5.937-5.937s-1.41 3.957-4.285 6.246c3.184.715 7.77-4.082 7.77-4.082s-1.805 3.402-4.16 4.797c2.632 1.02 6.242-3.188 6.242-3.188s-3.61 5.63-9.36 5.383c-1.886-.082-7.594-5.789-19.824-5.32C12.473 5.957 9.047 12.887.422 17.586m.375-.699C9.91 7.672 17.19 4.824 23.8 3.527c.87-.172 1.039-2.105 1.039-2.105s.12 1.422.734 1.61c.613.183 1.406-2.227 1.406-2.227s-.734 2.164 0 2.289c.735.12 2.079-2.106 2.079-2.106s-.547 1.918-.184 2.043c.367.125 2.203-2.785 2.203-2.785s-1.101 1.918-.058 2.106c1.039.183 2.554-1.309 2.554-1.309s-1.191 1.367-.66 1.555c2.266.804 4.094-2.172 4.094-2.172s-.422 1.304-1.524 2.73c2.387.617 4.157-3.02 4.157-3.02l-1.77 3.637C38.79 4.27 42.457 0 42.457 0s-1.895 3.34-2.996 4.02c.613.496 2.812-1.485 2.812-1.485S40.5 4.762 41.176 4.887c.976.804 4.586-4.145 4.586-4.145s-1.407 2.906-3.489 5.196c1.743.878 6.059-4.762 6.059-4.762s-.121 1.793-3.242 4.64c2.324-.312 5.324-4.765 5.324-4.765s-1.102 3.34-3.734 5.691c2.28-.238 5.933-5.937 5.933-5.937s-1.406 3.957-4.281 6.246c3.18.71 7.77-4.082 7.77-4.082s-1.805 3.402-4.16 4.793c2.632 1.023 6.242-3.184 6.242-3.184s-3.61 5.629-9.364 5.383C46.934 9.879 41.227 4.17 29 4.64 12.848 5.258 9.422 12.188.797 16.887m-.613 1.707c4.816 2.445 9.222-.371 14.773 1.21 4.223 1.204 9.363 2.688 16.336 1.669 6.973-1.024 12.937-4.082 15.785-9.559.887-2.441 4.496.559 4.496.559s-2.633-1.114-2.57-.59c.062.527 3.945 2.351 3.945 2.351s-3.515-1.113-3.3-.277c.21.836 4.402 4.176 4.402 4.176s-4.742-3.653-5.137-3.156c-.398.496 2.016 2.503 2.016 2.503s-4.004-2.503-5.414-1.765c-1.012.531 4.16 3.965 4.16 3.965s-3.364-2.602-4.16-1.918c-.793.68 3.793 6.246 3.793 6.246s-5.2-5.692-5.72-5.414c-.519.281 1.438 3.004 1.438 3.004s-2.57-2.848-3.273-2.352c-.703.496 3.672 7.887 3.672 7.887s-4.742-7.578-6.7-6.309c3.075 6.82 1.926 7.793 1.926 7.793s-.39-6.957-4.218-6.773c-1.93.093.914 5.195.914 5.195s-2.618-4.66-4.36-4.566c3.215 6.148 2.067 8.648 2.067 8.648s.53-5.25-3.828-8.176c1.652 1.485-1.036 8.176-1.036 8.176s2.364-9.86-1.742-7.98c-.652.297-.047 4.918-.047 4.918s-.828-5.29-2.066-5.008c-.719.16-4.586 7.328-4.586 7.328s3.164-7.746 2.203-7.422c-.703.238-2.02 3.434-2.02 3.434s.641-3.157 0-3.34c-.644-.188-4.222 3.34-4.222 3.34s2.66-3.157 2.203-3.805c-.695-.984-1.512-1.031-2.477-.648-1.41.554-3.304 3.152-3.304 3.152s1.89-2.633 1.558-3.617c-.53-1.586-5.964 3.062-5.964 3.062s3.21-3.062 2.48-3.71c-.734-.653-4.723-.45-5.969-.454-3.668-.012-4.941-.883-6.054-1.777M0 18.04c4.816 2.44 9.223-.372 14.773 1.21 4.223 1.203 9.364 2.688 16.336 1.664 6.973-1.02 12.938-4.082 15.786-9.555.886-2.445 4.496.555 4.496.555s-2.633-1.113-2.57-.586c.062.524 3.945 2.348 3.945 2.348s-3.516-1.114-3.301-.278c.21.836 4.402 4.176 4.402 4.176s-4.742-3.648-5.137-3.152c-.398.492 2.02 2.504 2.02 2.504s-4.008-2.504-5.418-1.766c-1.012.531 4.16 3.961 4.16 3.961s-3.363-2.598-4.16-1.918c-.793.68 3.797 6.25 3.797 6.25s-5.203-5.691-5.723-5.414c-.52.277 1.438 3 1.438 3s-2.57-2.844-3.274-2.352c-.703.497 3.672 7.887 3.672 7.887s-4.742-7.578-6.699-6.308c3.074 6.82 1.926 7.793 1.926 7.793s-.39-6.957-4.219-6.774c-1.93.094.914 5.2.914 5.2s-2.617-4.665-4.36-4.57c3.216 6.148 2.067 8.651 2.067 8.651s.531-5.253-3.828-8.175c1.652 1.484-1.035 8.175-1.035 8.175s2.367-9.859-1.742-7.98c-.649.297-.047 4.918-.047 4.918s-.828-5.29-2.067-5.012c-.718.164-4.586 7.332-4.586 7.332s3.164-7.75 2.204-7.426c-.704.239-2.02 3.434-2.02 3.434s.64-3.152 0-3.34c-.645-.183-4.223 3.34-4.223 3.34s2.66-3.152 2.203-3.805c-.695-.984-1.511-1.027-2.476-.648-1.41.555-3.305 3.156-3.305 3.156s1.89-2.633 1.559-3.62c-.531-1.583-5.965 3.062-5.965 3.062s3.21-3.063 2.48-3.711c-.734-.649-4.722-.45-5.968-.453C2.387 19.8 1.113 18.93 0 18.039" style="stroke:none;fill-rule:evenodd;fill:rgb(21.568628%,20.784314%,20.784314%);fill-opacity:1"/></svg>