<svg xmlns="http://www.w3.org/2000/svg" width="82" height="44" stroke="none" stroke-linecap="round" stroke-linejoin="round" fill="#fff" fill-rule="evenodd"><path d="M63.9108 14.3739c.5884 6.9312-10.1994 13.5281-24.0947 14.7335S14.1794 25.67 13.5917 18.7391 23.791 5.2103 37.6863 4.0049s25.6368 3.4366 26.2245 10.369" fill="#bbe6fb"/><path d="M38.0943 4.8177c-5.3005-.0872-11.5029 2.0408-16.118 4.0336a13.618 13.618 0 0 0-.7389 4.4313c0 8.2219 7.3422 14.888 16.3996 14.888s16.3995-6.6661 16.3995-14.888c0-2.602-.737-5.0466-2.0294-7.175-3.6923-.5803-8.7706-1.2054-13.9128-1.2899"/><path d="M37.6368 4.8161c-2.9345-.1811-7.9923 1.3669-12.2099 2.9112a12.795 12.795 0 0 0-.9967 4.9587c0 7.2039 6.4595 13.0439 13.2927 13.0439 6.7883 0 12.7943-5.8494 13.2928-13.0439.162-2.3428-.6356-4.5504-1.743-6.4538-4.3725-.7787-9.0128-1.2542-11.6359-1.4161"/><path d="M30.1062 11.7401c.3599-.8061.9053-1.2009 1.4335-1.8767-.0586-.16-.1872-.6832-.1872-.8647 0-.8099.6498-1.4672 1.4511-1.4672a1.431 1.431 0 0 1 .5349.1044c2.4017-1.8507 5.5635-2.6576 8.7409-1.9394l.8541.234c-3.1403-.4402-6.6798.6844-9.0875 2.6494.0736.1754.2775.6769.2775.8786 0 .8102-.5186 1.0074-1.3199 1.0074-.182 0-.3559-.0353-.5168-.0972-.5438.7385-1.2103 2.1452-1.5365 3.0246 1.3315 1.2043 2.5344 1.6407 4.1021 2.2331-.0041-.0755.0538-.1453.0538-.2224 0-2.4427 2.1268-4.428 4.543-4.428 2.1651 0 3.9579 1.592 4.3079 3.6805 1.0803-.6949 2.1249-1.2276 2.921-2.2575-.1858-.2292-.386-.8779-.386-1.1972 0-.7351.59-1.3312 1.317-1.3312.1029 0 .2017.015.2979.0375.4042-.8399.7092-1.7301.9042-2.6482-3.7781-2.8282-11.0879-2.4424-11.0879-2.4424s-5.8169-.3069-9.7547 1.6336c.2626 1.9199 1.0201 3.7451 2.1376 5.289m18.0578-1.1019c.2671.2434.4128.4571.5276.6652.3533.6424-.3556 1.2302-1.0826 1.2302-.0739 0-.1452-.0101-.2162-.0222-.8191 1.2945-2.2539 2.9544-3.5284 3.7898 1.9544.3238 3.7973 1.1153 5.264 2.3384 1.0681-1.9349 1.8872-4.7289 1.8872-7.1022 0-1.8064-.7887-3.1305-1.9793-4.1019-.0624.9676-.5732 2.3211-.8723 3.2027M32.2989 22.8933c.6512-1.8185 2.2531-3.2275 3.7684-4.467-.2217-.3069-.5542-1.0669-.6928-1.4267-1.8481-.5684-3.4835-1.6322-4.7517-3.0404l-.0305.1217c-.2389 1.0822-.2827 2.1667-.1639 3.2245.885.1667 1.5547.9507 1.5547 1.8939 0 .5593-.4848 1.3699-.8611 1.7227.409.8925.688 1.323 1.1769 1.9713m-.1146 1.5265c-.7768-.7809-1.314-2.3387-1.8181-3.3168-.0944.0147-.191.0248-.2898.0248-1.0535 0-2.1572-.894-1.9076-1.9285.1382-.5725.529-.947 1.1654-1.2595-.1449-1.1859-.1843-2.8905.088-4.1234.078-.3527.2433-.518.3529-.8538-1.1624-1.72-1.9135-3.9776-1.9135-6.2175l.0059-.2438c-1.9644.9962-3.4374 2.5656-3.4374 5.0362 0 5.4647 3.1128 10.8254 7.7441 12.9267l.0101-.0444m11.3882-7.5547c-.5984 1.7212-2.2166 2.9574-4.1235 2.9574-1.0201 0-1.9559-.3558-2.6997-.947-1.5331 1.2073-2.9239 3.3281-3.6309 5.168.3173.3452.5383.6292.8942.9353 1.0725.2825 2.5495 0 3.7105 0 4.6696 0 8.8054-2.1005 11.1767-5.784-1.5766-1.104-3.4363-2.1547-5.3273-2.3297" fill="#373535"/><path d="M29.9864 12.3788c.36-.8061.8114-1.5521 1.3393-2.2279-.0587-.1597-.0929-.3321-.0929-.5135 0-.8099.6498-1.4672 1.4511-1.4672.1891 0 .3696.0379.5349.1044 2.4017-1.8507 5.5635-2.6576 8.7409-1.9394l.8541.234c-3.1403-.4402-6.3849.5331-8.7926 2.4984a1.468 1.468 0 0 1 .1137.5698c0 .8103-.6497 1.4672-1.451 1.4672-.182 0-.3559-.0353-.5168-.0972-.5438.7385-.9886 1.5543-1.3147 2.4341 1.1434 1.2459 2.547 2.2312 4.1143 2.8236l-.0116-.2272c0-2.4428 1.9582-4.4232 4.3744-4.4232 2.1651 0 3.9579 1.592 4.3079 3.6805 1.0803-.6949 2.0402-1.5874 2.8359-2.6174-.1857-.2291-.3009-.518-.3009-.8373 0-.7351.5899-1.3312 1.317-1.3312.1028 0 .2017.015.2979.0375.4042-.8399.7092-1.7301.9042-2.6482-3.7781-2.8281-11.0879-2.4424-11.0879-2.4424s-5.8169-.3069-9.7547 1.6336c.2626 1.9199 1.0201 3.7451 2.1375 5.289m18.3816-1.5226c.2671.2434.4384.5923.4384.9845 0 .7351-.5899 1.3316-1.317 1.3316-.0739 0-.1452-.0101-.2162-.0221a10.718 10.718 0 0 1-3.1796 3.2334c1.8842.2979 3.6578 1.1063 5.124 2.3293 1.068-1.9349 1.6784-4.1635 1.6784-6.5368 0-1.8064-.7886-3.1305-1.9793-4.1019-.0624.9676-.2496 1.9004-.5487 2.782M32.4998 23.3301c.6513-1.8185 1.7828-3.4502 3.2982-4.6894-.2218-.3073-.4046-.6428-.5431-1.0026-1.8486-.5683-3.4835-1.6322-4.7518-3.0404l-.0305.1217c-.2392 1.0822-.283 2.1667-.1638 3.2245.8845.1667 1.5547.9507 1.5547 1.8939 0 .5593-.2374 1.0623-.6137 1.415.3414.7318.7611 1.4289 1.25 2.0773m-.3207 1.0676c-.7768-.7809-1.4288-1.6779-1.9325-2.6557-.0948.0146-.1913.0244-.2898.0244-1.0535 0-1.9076-.8636-1.9076-1.9285a1.929 1.929 0 0 1 1.0762-1.734c-.1445-1.1854-.0955-2.416.1772-3.6489l.2827-1.0326c-1.1624-1.7196-1.8433-3.7988-1.8433-6.0387l.0055-.2434c-1.9644.9958-3.4374 2.5656-3.4374 5.0358 0 5.4651 3.2276 10.1646 7.859 12.266l.01-.0444m11.2739-6.8939c-.5985 1.7212-2.2167 2.9574-4.1236 2.9574-1.0201 0-1.9559-.3558-2.6996-.947-1.5332 1.2073-2.6904 2.8529-3.397 4.6932.3169.3452.6557.6705 1.0116.9763 1.0729.2824 2.1981.4338 3.359.4338 4.6697 0 8.7751-2.4379 11.1463-6.121-1.5766-1.1043-3.4058-1.8177-5.2967-1.9927" fill="#1287b1"/><path d="M43.6064 16.3633l4.0415-.9748-4.0567-.2092 3.3014-2.5513-3.7461 1.3579 2.5458-3.5674-3.5161 2.3631 1.2293-4.1759-2.4147 3.4419-.0551-4.3495-1.5888 3.8743-1.3248-3.9205.0717 4.6184-2.2895-4.1398 1.239 4.3956-3.7139-2.7308 2.9092 3.6962-4.6106-1.7144 3.6388 2.7223-4.666.145 4.7707 1.2448-4.7748 1.0439 4.7132.3456-3.9746 2.5735 4.0927-1.5003-2.8397 3.6365 3.5883-2.9262-1.2921 4.8799 2.7702-3.9712-.3882 4.6901 1.5726-4.2518 1.3384 4.4689.3254-4.4824 1.9868 3.8244-1.1739-4.3743 3.638 2.8495-2.3486-3.6331 3.9914 1.5724-3.0518-3.0325 4.0923.3253-4.0307-1.5641z"/><g fill="#373535"><path d="M.5805 24.1828c12.5342-12.6735 22.5448-16.5861 31.63-18.3723 1.2022-.2363 1.4296-2.8924 1.4296-2.8924s.1682 1.9563 1.0096 2.2114 1.9344-3.0622 1.9344-3.0622-1.0093 2.9773 0 3.1474 2.8602-2.892 2.8602-2.892-.7568 2.6366-.2519 2.8068 3.0277-3.8274 3.0277-3.8274-1.5143 2.6366-.084 2.8921 3.5169-1.7997 3.5169-1.7997-1.6405 1.88-.9094 2.1396c3.1127 1.1062 5.6315-2.9844 5.6315-2.9844s-.5837 1.7936-2.0979 3.7499c3.2804.8505 5.717-4.1466 5.717-4.1466l-2.4366 4.9971c1.2619.681 6.3098-5.1883 6.3098-5.1883s-2.6079 4.5933-4.1222 5.5286c.8411.6806 3.8695-2.0412 3.8695-2.0412s-2.4396 3.0618-1.5142 3.232c1.3459 1.1058 6.3087-5.6988 6.3087-5.6988s-1.9344 3.9975-4.7945 7.145c2.3906 1.2091 8.3282-6.5496 8.3282-6.5496s-.1683 2.4668-4.4587 6.3794c3.1967-.4252 7.3188-6.5496 7.3188-6.5496s-1.5142 4.5933-5.1318 7.8253c3.1387-.3302 8.1595-8.1656 8.1595-8.1656s-1.9344 5.4437-5.8878 8.5911c4.3743.9782 10.6834-5.6138 10.6834-5.6138s-2.4816 4.6785-5.7207 6.592c3.6176 1.4034 8.5807-4.3807 8.5807-4.3807s-4.9631 7.7408-12.8703 7.4004c-2.5945-.1115-10.4423-7.9589-27.2557-7.3151C17.1524 8.192 12.4419 17.7185.5805 24.1828"/><path d="M1.0942 23.2203C13.6284 10.5467 23.6386 6.6345 32.7239 4.8479c1.2025-.2362 1.4299-2.892 1.4299-2.892s.1678 1.9567 1.0096 2.2114 1.9344-3.0618 1.9344-3.0618-1.0093 2.9773 0 3.1471 2.8602-2.892 2.8602-2.892-.7568 2.6365-.2527 2.8067S42.7337.3396 42.7337.3396s-1.5142 2.6369-.0839 2.892 3.5169-1.7993 3.5169-1.7993-1.6405 1.8801-.9094 2.1396C48.37 4.6778 50.888.5875 50.888.5875s-.5836 1.7937-2.0971 3.7499c3.2803.8509 5.717-4.1469 5.717-4.1469l-2.4367 4.9978C53.3332 5.8685 58.3803 0 58.3803 0s-2.6072 4.5925-4.1214 5.5282c.8411.6807 3.8695-2.0412 3.8695-2.0412s-2.4396 3.0622-1.5142 3.232c1.3459 1.1062 6.3087-5.6988 6.3087-5.6988s-1.9351 3.9979-4.7945 7.145c2.3906 1.2095 8.3282-6.5496 8.3282-6.5496s-.1683 2.4672-4.4587 6.3798c3.1967-.4256 7.3188-6.55 7.3188-6.55s-1.5142 4.5933-5.1318 7.8257c3.1387-.3302 8.1594-8.1656 8.1594-8.1656S70.41 6.5492 66.4566 9.6963c4.3743.9781 10.6834-5.6135 10.6834-5.6135s-2.4816 4.6778-5.7207 6.5916C75.0369 12.0778 80 6.2938 80 6.2938s-4.9631 7.7407-12.8711 7.4004c-2.5937-.112-10.4415-7.9594-27.2553-7.3152-22.2075.8505-26.9184 10.377-38.7794 16.8413m-.842 2.3486c6.6245 3.3601 12.6817-.5101 20.3155 1.6652 5.8038 1.6543 12.8704 3.6936 22.4597 2.2899s17.7919-5.6135 21.7041-13.1416c1.2196-3.3593 6.1824.7659 6.1824.7659s-3.6169-1.5311-3.5325-.808 5.4256 3.232 5.4256 3.232-4.8372-1.5311-4.5426-.3828 6.0561 5.7416 6.0561 5.7416-6.519-5.0185-7.0654-4.3382 2.7758 3.4453 2.7758 3.4453-5.51-3.4453-7.4451-2.4292c-1.3916.7298 5.7206 5.4489 5.7206 5.4489s-4.627-3.573-5.7206-2.6373 5.2157 8.5912 5.2157 8.5912-7.1508-7.8256-7.8652-7.4429 1.9763 4.1256 1.9763 4.1256-3.5329-3.913-4.4999-3.2323 5.0471 10.845 5.0471 10.845-6.5193-10.4194-9.2111-8.6765c4.2272 9.3781 2.6498 10.718 2.6498 10.718s-.5394-9.5674-5.8046-9.3142c-2.6498.1277 1.2616 7.1449 1.2616 7.1449s-3.6001-6.4091-5.9977-6.2813c4.4189 8.4559 2.8438 11.8952 2.8438 11.8952s.7307-7.2219-5.2626-11.2409c2.2709 2.0408-1.4251 11.2409-1.4251 11.2409s3.2513-13.557-2.3979-10.9723c-.8927.4076-.0632 6.7622-.0632 6.7622s-1.1357-7.2731-2.8386-6.8899c-.993.2227-6.3095 10.0794-6.3095 10.0794s4.3536-10.6538 3.0289-10.2071c-.9652.3256-2.7762 4.7209-2.7762 4.7209s.883-4.3381 0-4.5932-5.8046 4.5932-5.8046 4.5932 3.6596-4.3381 3.0284-5.2314c-.9562-1.3534-2.077-1.4169-3.4069-.8929-1.9352.7625-4.5423 4.3378-4.5423 4.3378s2.599-3.62 2.1446-4.976c-.7292-2.1787-8.2014 4.2105-8.2014 4.2105s4.4163-4.2105 3.407-5.1038-6.4904-.6168-8.2019-.6216c-5.0471-.0158-6.7961-1.213-8.3281-2.4402"/><path d="M0 24.8033c6.6245 3.36 12.6813-.5101 20.3151 1.6655 5.8038 1.6536 12.8708 3.6933 22.4605 2.2895s17.7911-5.6138 21.7033-13.1412c1.2197-3.3597 6.1824.7652 6.1824.7652s-3.6168-1.5307-3.5325-.8076 5.4256 3.2319 5.4256 3.2319-4.8372-1.5307-4.5426-.3823 6.0569 5.7412 6.0569 5.7412-6.5198-5.0189-7.0662-4.3379 2.7762 3.4446 2.7762 3.4446-5.5104-3.4446-7.4451-2.4292c-1.392.7302 5.7202 5.4489 5.7202 5.4489s-4.6269-3.5726-5.7202-2.6369 5.2161 8.5911 5.2161 8.5911-7.1512-7.8256-7.866-7.4428 1.9771 4.1252 1.9771 4.1252-3.5336-3.9126-4.5006-3.232 5.047 10.845 5.047 10.845-6.5193-10.4197-9.2111-8.676c4.2272 9.3777 2.6499 10.7176 2.6499 10.7176s-.5395-9.5674-5.8046-9.3139c-2.6499.1277 1.2615 7.1446 1.2615 7.1446s-3.6001-6.4095-5.9973-6.2818c4.4192 8.4564 2.8434 11.8957 2.8434 11.8957s.7307-7.2224-5.2626-11.2413c2.271 2.0412-1.425 11.2413-1.425 11.2413s3.252-13.5571-2.3973-10.9724c-.8927.408-.0631 6.7622-.0631 6.7622s-1.1364-7.2726-2.839-6.8899c-.9934.2228-6.3098 10.0795-6.3098 10.0795s4.3535-10.6538 3.0288-10.2068c-.9651.3249-2.7762 4.7202-2.7762 4.7202s.8834-4.3378 0-4.5929-5.8042 4.5929-5.8042 4.5929 3.6596-4.3378 3.0281-5.2311c-.9563-1.3534-2.0771-1.4165-3.4066-.8925-1.9355.7622-4.5427 4.3375-4.5427 4.3375s2.599-3.6204 2.145-4.9761c-.7296-2.1783-8.2014 4.2105-8.2014 4.2105s4.4163-4.2105 3.4066-5.1033-6.4904-.6168-8.2019-.6221C3.2807 27.2273 1.532 26.0305 0 24.8033"/></g></svg>