<svg xmlns="http://www.w3.org/2000/svg"  viewBox="0 0 50 50" width="32px" height="32px"><path d="M 9 4 C 8.449219 4 8 4.449219 8 5 L 8 45 C 8 45.554688 8.449219 46 9 46 L 16 46 L 16 48 C 15.996094 48.378906 16.207031 48.726563 16.546875 48.898438 C 16.882813 49.070313 17.289063 49.039063 17.59375 48.8125 L 21 46.25 L 24.40625 48.8125 C 24.710938 49.039063 25.117188 49.070313 25.453125 48.898438 C 25.792969 48.726563 26.003906 48.378906 26 48 L 26 46 L 41 46 C 41.554688 46 42 45.554688 42 45 L 42 5 C 42 4.449219 41.554688 4 41 4 Z M 15 16 L 35 16 L 35 18 L 15 18 Z M 15 22 L 35 22 L 35 24 L 15 24 Z M 21 30.09375 C 21.699219 30.09375 22.207031 30.492188 22.40625 31.09375 C 22.507813 31.195313 22.492188 31.1875 22.59375 31.1875 C 22.824219 31.046875 23.097656 31 23.375 31 C 23.695313 31 24.042969 31.097656 24.3125 31.3125 C 24.8125 31.710938 24.886719 32.304688 24.6875 32.90625 C 24.6875 33.007813 24.8125 32.996094 24.8125 33.09375 C 25.414063 33.195313 25.898438 33.710938 26 34.3125 C 26.101563 34.914063 25.8125 35.511719 25.3125 35.8125 L 25.3125 36.09375 C 25.613281 36.492188 25.707031 37.1875 25.40625 37.6875 C 25.144531 38.125 24.644531 38.40625 24.125 38.40625 C 24.046875 38.40625 23.984375 38.417969 23.90625 38.40625 C 23.90625 38.507813 23.789063 38.496094 23.6875 38.59375 C 23.6875 39.195313 23.414063 39.707031 22.8125 39.90625 C 22.613281 40.003906 22.511719 40 22.3125 40 C 21.914063 40 21.488281 39.800781 21.1875 39.5 L 20.8125 39.5 C 20.519531 39.792969 20.117188 39.96875 19.6875 39.96875 C 19.53125 39.96875 19.347656 39.960938 19.1875 39.90625 C 18.6875 39.707031 18.3125 39.195313 18.3125 38.59375 C 18.3125 38.492188 18.195313 38.503906 18.09375 38.40625 C 18.015625 38.417969 17.953125 38.40625 17.875 38.40625 C 17.355469 38.40625 16.855469 38.125 16.59375 37.6875 C 16.292969 37.1875 16.289063 36.59375 16.6875 36.09375 L 16.6875 35.8125 C 16.1875 35.511719 15.898438 34.914063 16 34.3125 C 16.101563 33.710938 16.585938 33.191406 17.1875 33.09375 C 17.1875 32.992188 17.3125 33.003906 17.3125 32.90625 C 17.113281 32.304688 17.1875 31.714844 17.6875 31.3125 C 17.957031 31.097656 18.304688 31 18.625 31 C 18.902344 31 19.175781 31.046875 19.40625 31.1875 C 19.507813 31.085938 19.492188 31.09375 19.59375 31.09375 C 19.792969 30.492188 20.398438 30.09375 21 30.09375 Z M 18 41.5 C 18.152344 41.589844 18.304688 41.683594 18.46875 41.75 C 18.503906 41.765625 18.527344 41.769531 18.5625 41.78125 C 18.921875 41.902344 19.308594 41.96875 19.6875 41.96875 C 20.132813 41.96875 20.554688 41.882813 20.96875 41.71875 C 21.390625 41.898438 21.867188 42 22.3125 42 C 22.660156 42 23.046875 41.980469 23.5625 41.75 C 23.710938 41.691406 23.863281 41.605469 24 41.53125 L 24 46 L 21.59375 44.1875 C 21.242188 43.925781 20.757813 43.925781 20.40625 44.1875 L 18 46 Z"/></svg>