<svg role="img" viewBox="0 0 30 30" xmlns="http://www.w3.org/2000/svg"><path d="M15.002 2.002c-.367 0-.733.178-.947.535l-.418.697c-.18.3-.478.502-.815.594l-.01.004a1.338 1.338 0 0 1-1.011-.105l-.711-.395a1.105 1.105 0 0 0-1.64.947l-.016.823a1.337 1.337 0 0 1-.414.925c-.246.247-.57.4-.918.407l-.825.013A1.106 1.106 0 0 0 6.33 8.09l.397.713c.17.307.198.666.105 1.004l-.006.017a1.34 1.34 0 0 1-.59.809l-.699.42a1.105 1.105 0 0 0 0 1.894l.7.42c.297.18.498.474.59.809l.003.02a1.33 1.33 0 0 1-.103 1.003l-.397.713a1.105 1.105 0 0 0 .947 1.64l.823.014c.349.006.672.163.918.409l.007.007c.247.246.403.57.409.918l.013.823a1.105 1.105 0 0 0 1.64.947l.714-.397c.307-.17.666-.196 1.004-.103l.02.004c.334.09.629.292.808.59l.42.699a1.105 1.105 0 0 0 1.894 0l.42-.7c.18-.297.474-.498.809-.59l.017-.003a1.331 1.331 0 0 1 1.004.103l.713.397a1.106 1.106 0 0 0 1.643-.947l.013-.823c.006-.349.16-.672.407-.918l.007-.007c.246-.247.57-.403.918-.409l.825-.013a1.105 1.105 0 0 0 .947-1.64l-.397-.714a1.332 1.332 0 0 1-.105-1.004l.006-.02c.09-.334.292-.629.59-.808l.699-.42c.717-.43.717-1.465.002-1.894l-.7-.42a1.337 1.337 0 0 1-.59-.809l-.005-.017a1.332 1.332 0 0 1 .105-1.004l.397-.713a1.106 1.106 0 0 0-.947-1.643l-.825-.013a1.335 1.335 0 0 1-.918-.407l-.007-.007c-.247-.246-.4-.57-.407-.918l-.013-.825a1.106 1.106 0 0 0-1.643-.947l-.713.397c-.307.17-.666.198-1.004.105l-.017-.006a1.337 1.337 0 0 1-.809-.59l-.42-.699a1.094 1.094 0 0 0-.947-.535m9.17 17.17a3.085 3.085 0 0 1-1.416.38l-.201.003-.002.2a3.12 3.12 0 0 1-3.108 3.054 3.104 3.104 0 0 1-1.506-.391l-.173-.098-.104.172c-.02.035-.052.062-.074.096L23 28v-5h5zm-18.346.002L2 23h5v5l5.412-5.412c-.022-.034-.053-.06-.074-.096l-.104-.172-.175.098a3.115 3.115 0 0 1-1.506.393 3.12 3.12 0 0 1-3.106-3.055l-.004-.2-.199-.003a3.094 3.094 0 0 1-1.418-.38"/></svg>