<?xml version="1.0" encoding="UTF-8"?>
<svg xmlns="http://www.w3.org/2000/svg" xmlns:xlink="http://www.w3.org/1999/xlink" width="32" height="32" viewBox="0 0 32 32" version="1.1">
<g id="surface1">
<path style="fill-rule:nonzero;fill:rgb(72.941178%,72.941178%,72.941178%);fill-opacity:1;stroke-width:2.5;stroke-linecap:butt;stroke-linejoin:miter;stroke:rgb(72.941178%,72.941178%,72.941178%);stroke-opacity:1;stroke-miterlimit:10;" d="M 19.104004 64.501953 C 14.294434 65.795898 10.705566 70.10498 10.705566 75.402832 C 10.705566 80.603027 14.294434 84.997559 19.104004 86.303711 L 19.104004 94.995117 L 24.694824 94.995117 L 24.694824 86.206055 C 29.504395 84.899902 33.105469 80.603027 33.105469 75.305176 C 33.105469 70.10498 29.504395 65.698242 24.694824 64.404297 L 24.694824 5.004883 L 19.104004 5.004883 Z M 27.502441 75.305176 C 27.502441 78.405762 25 80.895996 21.899414 80.895996 C 18.798828 80.895996 16.296387 78.405762 16.296387 75.305176 C 16.296387 72.20459 18.798828 69.702148 21.899414 69.702148 C 25 69.702148 27.502441 72.20459 27.502441 75.305176 Z M 38.793945 24.694824 C 38.793945 29.89502 42.39502 34.301758 47.20459 35.595703 L 47.20459 94.995117 L 52.79541 94.995117 L 52.79541 35.498047 C 57.60498 34.204102 61.206055 29.89502 61.206055 24.597168 C 61.206055 19.299316 57.60498 15.002441 52.79541 13.696289 L 52.79541 5.004883 L 47.20459 5.004883 L 47.20459 13.793945 C 42.297363 15.100098 38.793945 19.494629 38.793945 24.694824 Z M 55.603027 24.694824 C 55.603027 27.79541 53.100586 30.297852 50 30.297852 C 46.899414 30.297852 44.396973 27.79541 44.396973 24.694824 C 44.396973 21.594238 46.899414 19.104004 50 19.104004 C 53.100586 19.104004 55.603027 21.594238 55.603027 24.694824 Z M 66.894531 58.398438 C 66.894531 63.598633 70.495605 68.005371 75.305176 69.299316 L 75.305176 94.995117 L 80.895996 94.995117 L 80.895996 69.299316 C 85.705566 68.005371 89.294434 63.696289 89.294434 58.398438 C 89.294434 53.100586 85.705566 48.803711 80.895996 47.497559 L 80.895996 5.004883 L 75.305176 5.004883 L 75.305176 47.595215 C 70.495605 48.803711 66.894531 53.198242 66.894531 58.398438 Z M 83.80127 58.398438 C 83.80127 61.499023 81.298828 64.001465 78.198242 64.001465 C 75.097656 64.001465 72.595215 61.499023 72.595215 58.398438 C 72.595215 55.297852 75.097656 52.79541 78.198242 52.79541 C 81.201172 52.79541 83.80127 55.297852 83.80127 58.398438 Z M 83.80127 58.398438 " transform="matrix(0.32,0,0,0.32,0,0)"/>
</g>
</svg>
