<svg role="img" viewBox="0 0 32 32" xmlns="http://www.w3.org/2000/svg"><path d="M19.104 64.502c-4.81 1.294-8.398 5.603-8.398 10.9 0 5.201 3.588 9.596 8.398 10.902v8.691h5.59v-8.789c4.81-1.306 8.411-5.603 8.411-10.9 0-5.201-3.6-9.608-8.41-10.902v-59.4h-5.591Zm8.398 10.803c0 3.1-2.502 5.591-5.603 5.591-3.1 0-5.603-2.49-5.603-5.59a5.596 5.596 0 0 1 5.603-5.604 5.595 5.595 0 0 1 5.603 5.603Zm11.292-50.61c0 5.2 3.601 9.607 8.41 10.9v59.4h5.591V35.498c4.81-1.294 8.411-5.603 8.411-10.9 0-5.299-3.601-9.596-8.41-10.902V5.005h-5.591v8.789c-4.908 1.306-8.411 5.7-8.411 10.9Zm16.809 0c0 3.1-2.502 5.603-5.603 5.603a5.595 5.595 0 0 1-5.603-5.603c0-3.1 2.502-5.591 5.603-5.591 3.1 0 5.603 2.49 5.603 5.59Zm11.292 33.703c0 5.2 3.6 9.607 8.41 10.901v25.696h5.591V69.3c4.81-1.294 8.398-5.603 8.398-10.9 0-5.298-3.588-9.595-8.398-10.901V5.005h-5.59v42.59c-4.81 1.209-8.411 5.603-8.411 10.803Zm16.906 0a5.595 5.595 0 0 1-5.603 5.603 5.595 5.595 0 0 1-5.603-5.603c0-3.1 2.503-5.603 5.603-5.603 3.003 0 5.603 2.503 5.603 5.603Zm0 0" style="fill-rule:nonzero;fill:rgb(72.941178%,72.941178%,72.941178%);fill-opacity:1;stroke-width:2.5;stroke-linecap:butt;stroke-linejoin:miter;stroke:rgb(72.941178%,72.941178%,72.941178%);stroke-opacity:1;stroke-miterlimit:10" transform="scale(.32)"/></svg>