<svg role="img" viewBox="0 0 48 48" xmlns="http://www.w3.org/2000/svg"><path d="M21.286 4v4.607h4.953V4zM9.573 9.518v4.558h4.954V9.518zm5.857 0v4.558h4.953V9.518zm5.856 0v4.558h4.953V9.518zm16.104 1.41-.699 1.061c-1.383 2.111-1.755 5.584-.277 7.874-.653.357-1.934.845-3.63.815H.184C-.47 24.534.617 29.54 3.481 32.98c2.78 3.328 6.952 5.022 12.403 5.022 11.805 0 20.543-5.498 24.63-15.494 1.604.032 5.072.003 6.85-3.433.11-.191.495-1 .636-1.297l-.995-.676v.005c-1.079-.738-3.57-1.007-5.484-.644-.246-1.823-1.25-3.406-3.08-4.831zM3.72 14.99v4.505h4.959V14.99h-.006zm5.854 0v4.505h4.954V14.99zm5.857 0v4.505h4.953V14.99zm11.72 0v4.505h4.959V14.99zm-5.864.007v4.51h4.953v-4.51z"/><path d="M31.275 24.523a8.325 8.325 0 1 0 0 16.65 8.325 8.325 0 1 0 0-16.65" style="paint-order:stroke;fill:rgb(255,255,255)" transform="translate(-4.807 -2.215)scale(1.20152)"/><path d="M32.841 28.449c-4.962 0-9 4.037-9 9 0 4.964 4.038 9 9 9 4.963 0 9.001-4.036 9.001-9 0-4.963-4.038-9-9-9m4.236 5.699-4.505 6.638-3.521-3.267a.392.392 0 1 1 .533-.574l2.853 2.646 3.992-5.883a.392.392 0 0 1 .648.44"/></svg>