<?xml version="1.0" encoding="utf-8"?>
<svg viewBox="0 0 48 48" width="48" height="48" xmlns="http://www.w3.org/2000/svg">
  <g transform="matrix(1.201519, 0, 0, 1.201519, -4.806743, -2.215456)">
    <path d="M 21.717 5.173 L 21.717 9.007 L 25.839 9.007 L 25.839 5.173 L 21.717 5.173 Z M 11.968 9.765 L 11.968 13.559 L 16.091 13.559 L 16.091 9.765 L 11.968 9.765 Z M 16.843 9.765 L 16.843 13.559 L 20.965 13.559 L 20.965 9.765 L 16.843 9.765 Z M 21.717 9.765 L 21.717 13.559 L 25.839 13.559 L 25.839 9.765 L 21.717 9.765 Z M 35.12 10.938 L 34.538 11.822 C 33.387 13.579 33.077 16.469 34.307 18.375 C 33.764 18.672 32.698 19.078 31.286 19.053 L 4.154 19.053 C 3.609 22.263 4.514 26.429 6.898 29.293 C 9.212 32.063 12.684 33.473 17.221 33.473 C 27.046 33.473 34.318 28.897 37.719 20.577 C 39.055 20.604 41.941 20.58 43.421 17.72 C 43.513 17.561 43.833 16.888 43.95 16.641 L 43.122 16.078 L 43.122 16.082 C 42.224 15.468 40.151 15.244 38.558 15.546 C 38.353 14.029 37.517 12.711 35.994 11.525 L 35.12 10.938 Z M 7.096 14.319 L 7.096 18.069 L 11.223 18.069 L 11.223 14.319 L 11.218 14.319 L 7.096 14.319 Z M 11.968 14.319 L 11.968 18.069 L 16.091 18.069 L 16.091 14.319 L 11.968 14.319 Z M 16.843 14.319 L 16.843 18.069 L 20.965 18.069 L 20.965 14.319 L 16.843 14.319 Z M 26.597 14.319 L 26.597 18.069 L 30.724 18.069 L 30.724 14.319 L 26.597 14.319 Z M 21.717 14.325 L 21.717 18.078 L 25.839 18.078 L 25.839 14.325 L 21.717 14.325 Z"/>
    <ellipse style="paint-order: stroke; fill: rgb(255, 255, 255);" cx="31.275" cy="32.848" rx="8.325" ry="8.325"/>
    <path d="M 31.334 25.521 C 27.204 25.521 23.843 28.881 23.843 33.011 C 23.843 37.143 27.204 40.502 31.334 40.502 C 35.464 40.502 38.825 37.143 38.825 33.011 C 38.825 28.881 35.464 25.521 31.334 25.521 Z M 34.86 30.264 L 31.111 35.789 L 28.18 33.07 C 28.049 32.947 28.041 32.742 28.164 32.608 C 28.285 32.477 28.492 32.469 28.624 32.592 L 30.998 34.794 L 34.321 29.898 C 34.421 29.749 34.625 29.711 34.774 29.812 C 34.922 29.912 34.961 30.114 34.86 30.264 Z"/>
  </g>
</svg>