<?xml version="1.0" encoding="UTF-8"?>
<svg xmlns="http://www.w3.org/2000/svg" xmlns:xlink="http://www.w3.org/1999/xlink" width="32" height="32" viewBox="0 0 32 32" version="1.1">
<g id="surface1">
<path style=" stroke:none;fill-rule:nonzero;fill:rgb(0%,0%,0%);fill-opacity:1;" d="M 16 1.28125 C 7.882812 1.28125 1.28125 7.882812 1.28125 16 C 1.28125 24.117188 7.882812 30.71875 16 30.71875 C 24.117188 30.71875 30.71875 24.117188 30.71875 16 C 30.71875 7.882812 24.117188 1.28125 16 1.28125 M 22.929688 10.601562 L 15.5625 21.457031 L 9.804688 16.113281 C 9.632812 15.957031 9.554688 15.722656 9.605469 15.496094 C 9.65625 15.269531 9.824219 15.089844 10.046875 15.023438 C 10.265625 14.957031 10.507812 15.015625 10.675781 15.175781 L 15.339844 19.503906 L 21.871094 9.878906 C 22.074219 9.601562 22.460938 9.535156 22.746094 9.730469 C 23.03125 9.921875 23.113281 10.308594 22.929688 10.601562 "/>
</g>
</svg>
