<svg role="img" viewBox="0 0 300 304.217" data-name="Layer 1" xmlns="http://www.w3.org/2000/svg"><path d="M40.531 62.595h44.772l22.386 38.838-22.386 38.838H40.53l-22.385-38.838Z" style="fill:#cbdd72"/><path d="M40.531 162.387h44.772l22.386 38.568-22.386 38.569H40.53l-22.385-38.569Z" style="fill:#98ca3f"/><path d="M127.917 211.474h44.771l22.386 38.568-22.386 38.568h-44.771l-22.386-38.568Z" style="fill:#6389c6"/><path d="M127.917 111.682h44.771l22.386 38.838-22.386 38.838h-44.771L105.53 150.52Z" style="fill:#e8282b"/><path d="M127.917 12.43h44.771l22.386 38.568-22.386 38.568h-44.771L105.53 50.998Z" style="fill:#f8c519"/><path d="M214.628 62.595h45.58l22.79 38.838-22.79 38.838h-45.58l-22.79-38.838Z" style="fill:#f07525"/><path d="M214.628 162.387h45.58l22.79 38.568-22.79 38.569h-45.58l-22.79-38.569Z" style="fill:#8162aa"/><path class="cls-8" d="M176.675 104.67h-53.487l-26.827 46.28 26.827 45.96h53.487l27.03-45.977Zm-6.995 79.912h-39.193l-19.935-33.565 19.833-34.02h39.295l19.817 34.02Zm6.995 19.34h-53.487L96.361 250.16l26.827 46.002h53.487l27.03-46.002Zm-6.995 79.889h-39.193l-19.935-33.567 19.833-34.038h39.295l19.817 34.038Zm6.995-278.394h-53.487L96.361 51.714l26.827 45.943h53.487l27.03-45.943Zm-6.995 79.955h-39.193l-19.935-33.658 19.833-33.995h39.295l19.75 33.995Zm94.38 68.924h-53.503l-26.81 46.28 26.81 45.96h53.503l27.03-45.96Zm-7.079 79.9h-39.194l-19.833-33.553 19.833-34.074h39.194l19.834 34.007Zm7.079-179.153h-53.503l-26.81 46.534 26.81 46.246h53.503l27.03-46.246Zm-7.079 80.397h-39.194l-19.833-33.761 19.833-34.219h39.194l19.834 34.219ZM89.425 154.296H36.207l-26.692 46.28 26.692 45.96h53.218l26.894-45.96Zm-7.026 79.9H43.402l-19.734-33.553 19.734-34.074H82.4l19.734 34.074Zm7.026-179.153H36.207L9.515 101.577l26.692 46.246h53.218l26.894-46.246ZM82.4 135.44H43.402l-19.734-33.795 19.734-34.219H82.4l19.734 34.22Z"/></svg>