<svg xmlns="http://www.w3.org/2000/svg" width="33" height="17" stroke="none" stroke-linecap="round" stroke-linejoin="round" fill="#0096d6" fill-rule="nonzero"><path d="M9.0985 11.1845h1.4202v5.5479H9.0985zm12.6935 1.5978c-.0444-.0444-.4883-.3107-1.1984-.3107-.8877 0-1.5534.6214-1.5534 1.4647s.6214 1.4646 1.5534 1.4646c.6657 0 1.1096-.2663 1.1984-.3107v1.509c-.1776.0444-.6658.1775-1.2872.1775-1.5977 0-2.9736-1.0651-2.9736-2.8848 0-1.6422 1.2427-2.8849 2.9736-2.8849.6658 0 1.154.1775 1.2872.1775zm-14.6464 0c-.0443-.0444-.4882-.3107-1.1983-.3107-.8877 0-1.5534.6214-1.5534 1.4647s.6214 1.4646 1.5534 1.4646c.6658 0 1.1096-.2663 1.1983-.3107v1.509c-.1775.0444-.6657.1775-1.287.1775-1.5535 0-2.9737-1.0651-2.9737-2.8848 0-1.6422 1.2427-2.8849 2.9737-2.8849.6657 0 1.1539.1775 1.287.1775zm21.9695 1.1984c0 1.5977-1.2427 2.8848-2.9293 2.8848s-2.9292-1.2871-2.9292-2.8848 1.2427-2.8849 2.9292-2.8849c1.7309 0 2.9293 1.287 2.9293 2.8849zm-2.9293-1.4647c-.8433 0-1.4646.6657-1.4646 1.4647s.6213 1.4646 1.4646 1.4646 1.4647-.6658 1.4647-1.4646-.6214-1.4647-1.4647-1.4647zm-10.3855-.0444s-.6214-.1775-1.1096-.1775c-.577 0-.8876.1775-.8876.4438 0 .3551.3994.4438.6213.5326l.3995.1332c.8876.3106 1.3314.932 1.3314 1.5977 0 1.3759-1.2427 1.8641-2.3079 1.8641-.7545 0-1.4646-.1331-1.509-.1331v-1.2871c.1332.0444.7101.2219 1.3315.2219.7101 0 1.0208-.2219 1.0208-.5326 0-.2663-.2663-.4438-.6213-.5326-.0888-.0444-.222-.0888-.3107-.0888-.7989-.2663-1.4203-.7101-1.4203-1.6421 0-1.0208.7989-1.7309 2.086-1.7309.6658 0 1.3315.1775 1.3759.1775zm-14.38-7.2344a.701.701 0 0 0-.7101-.7101.701.701 0 0 0-.5048.2053.701.701 0 0 0-.2053.5048v1.4646a.701.701 0 0 0 .2053.5048.701.701 0 0 0 .5048.2053c.189.0024.3711-.0716.5048-.2053a.701.701 0 0 0 .2053-.5048zm3.8169-1.9084a.701.701 0 0 0-.2053-.5048c-.1337-.1337-.3158-.2078-.5048-.2054-.3995 0-.6657.3107-.6657.7102v3.373a.701.701 0 0 0 .2053.5048c.1337.1337.3157.2078.5048.2054s.3711-.0717.5048-.2054a.701.701 0 0 0 .2053-.5048v-3.373zM9.0985.7102a.701.701 0 0 0-.2053-.5048.701.701 0 0 0-.5048-.2053.701.701 0 0 0-.5048.2053.701.701 0 0 0-.2053.5048v7.3675a.701.701 0 0 0 .7101.7101c.189.0024.3711-.0716.5048-.2053s.2077-.3158.2053-.5048zm3.8169 2.6186a.701.701 0 0 0-.2053-.5048c-.1337-.1337-.3157-.2078-.5048-.2054s-.3711.0717-.5048.2054a.701.701 0 0 0-.2053.5048v3.373a.701.701 0 0 0 .2053.5048c.1337.1337.3157.2078.5048.2054s.3711-.0717.5048-.2054a.701.701 0 0 0 .2053-.5048zm3.8169 1.9084a.701.701 0 0 0-.7101-.7101.701.701 0 0 0-.7101.7101v1.4646a.701.701 0 0 0 .7101.7101c.189.0024.3711-.0716.5048-.2053a.701.701 0 0 0 .2053-.5048zm3.8169-1.9084c0-.3922-.3179-.7101-.7101-.7101s-.7101.3179-.7101.7101v3.3731c0 .3922.3179.7101.7101.7101s.7101-.3179.7101-.7101zm3.817-2.6186c0-.3922-.3179-.7101-.7101-.7101s-.7102.3179-.7102.7101v7.3676c0 .3922.318.7101.7102.7101s.7101-.3179.7101-.7101zm3.8169 2.6186c0-.3922-.318-.7101-.7102-.7101s-.7101.3179-.7101.7101v3.3731c0 .3922.318.7101.7101.7101s.7102-.3179.7102-.7101zM32 5.2373c0-.3922-.3179-.7102-.7101-.7102s-.7101.318-.7101.7102v1.4646c0 .3922.3179.7101.7101.7101S32 7.0941 32 6.7019z"/></svg>