<svg role="img" viewBox="0 0 62.118 32" xmlns="http://www.w3.org/2000/svg"><path d="M17.125 21.055h2.676v10.441h-2.676Zm23.895 3.008c-.083-.086-.918-.586-2.254-.586-1.672 0-2.926 1.168-2.926 2.757 0 1.586 1.172 2.754 2.926 2.754 1.25 0 2.086-.5 2.254-.582v2.84c-.333.082-1.254.332-2.422.332-3.008 0-5.598-2.004-5.598-5.43 0-3.09 2.34-5.43 5.598-5.43 1.254 0 2.172.337 2.422.337Zm-27.57 0c-.083-.086-.919-.586-2.255-.586-1.672 0-2.925 1.168-2.925 2.757 0 1.586 1.171 2.754 2.925 2.754 1.254 0 2.09-.5 2.254-.582v2.84c-.332.082-1.25.332-2.422.332-2.922 0-5.597-2.004-5.597-5.43 0-3.09 2.34-5.43 5.597-5.43 1.254 0 2.172.337 2.422.337Zm41.355 2.253c0 3.008-2.34 5.43-5.516 5.43-3.172 0-5.512-2.422-5.512-5.43 0-3.007 2.34-5.43 5.512-5.43 3.262 0 5.516 2.423 5.516 5.43m-5.516-2.757c-1.586 0-2.754 1.253-2.754 2.757 0 1.504 1.168 2.758 2.754 2.758 1.59 0 2.758-1.254 2.758-2.758 0-1.503-1.168-2.757-2.758-2.757m-19.547-.082s-1.172-.336-2.09-.336c-1.086 0-1.672.336-1.672.836 0 .668.754.835 1.172 1.003l.75.25c1.672.586 2.508 1.754 2.508 3.008 0 2.59-2.34 3.508-4.344 3.508-1.421 0-2.757-.25-2.84-.25v-2.422c.25.082 1.337.418 2.504.418 1.336 0 1.922-.418 1.922-1.004 0-.5-.5-.836-1.168-1.004-.168-.082-.418-.164-.586-.164-1.503-.504-2.671-1.34-2.671-3.093 0-1.922 1.503-3.258 3.925-3.258 1.254 0 2.504.336 2.59.336ZM2.672 9.859a1.321 1.321 0 0 0-.383-.953 1.321 1.321 0 0 0-.953-.383 1.31 1.31 0 0 0-.95.383A1.34 1.34 0 0 0 0 9.86v2.754a1.325 1.325 0 0 0 1.336 1.34c.355.004.7-.137.95-.387.253-.254.394-.593.386-.953Zm7.187-3.593A1.316 1.316 0 0 0 8.523 4.93c-.753 0-1.253.586-1.253 1.336v6.347a1.318 1.318 0 0 0 1.335 1.34 1.318 1.318 0 0 0 1.336-1.34V6.266Zm7.266-4.93A1.325 1.325 0 0 0 15.789 0a1.325 1.325 0 0 0-1.336 1.336v13.871a1.325 1.325 0 0 0 1.336 1.336c.356.004.7-.137.95-.387a1.3 1.3 0 0 0 .386-.949Zm7.188 4.93a1.33 1.33 0 0 0-.387-.95 1.316 1.316 0 0 0-.95-.386 1.355 1.355 0 0 0-.953.386c-.25.25-.39.594-.386.95v6.347c-.004.36.136.7.386.953a1.365 1.365 0 0 0 1.902 0c.25-.253.391-.593.387-.953Zm7.183 3.593a1.325 1.325 0 0 0-.387-.953c-.25-.25-.593-.39-.949-.383-.355-.007-.7.133-.95.383a1.309 1.309 0 0 0-.386.953v2.754a1.325 1.325 0 0 0 1.336 1.34 1.318 1.318 0 0 0 1.336-1.34Zm7.184-3.593a1.335 1.335 0 1 0-2.672 0v6.351a1.335 1.335 0 1 0 2.672 0Zm7.187-4.93a1.339 1.339 0 0 0-2.676 0v13.871a1.339 1.339 0 0 0 2.676 0Zm7.184 4.93a1.335 1.335 0 1 0-2.672 0v6.351a1.335 1.335 0 1 0 2.672 0Zm7.183 3.593a1.335 1.335 0 1 0-2.672 0v2.758a1.335 1.335 0 1 0 2.672 0Zm0 0" style="stroke:none;fill-rule:nonzero;fill:rgb(0%,58.823532%,83.92157%);fill-opacity:1"/></svg>