<svg xmlns="http://www.w3.org/2000/svg" width="24" height="32" stroke="#000" stroke-linecap="round" stroke-linejoin="round" fill="#fff" fill-rule="evenodd"><path d="M7.4905 10.5394H0v8.3642h7.4905l3.6862 3.5165H24v-8.3642H11.1767l-3.6862-3.5165zm3.6862 12.8854l-3.6862-3.5165H0v7.5956 3.0744V32h24v-1.4217-3.0744-4.0791H11.1767zm0-18.6625L7.4905 1.2458H0v8.2889h7.4905l3.6862 3.5164H24V4.7623H11.1767z" fill="#4b612c" stroke="none"/><path d="M7.4905 9.2936H0v8.3642h7.4905l3.6862 3.5165H24v-8.3642H11.1767L7.4905 9.2936zm3.6862 12.8854l-3.6862-3.5165H0v7.5956 3.0744 1.4217h24v-1.4217-3.0744-4.0791H11.1767z" stroke="none" fill="#759c3e"/><path d="M16.5222 26.372l1.2685-1.2965 2.551 2.6073-1.2686 1.2965z" stroke="none"/><path d="M17.8362 27.7091l4.0871-4.1774 1.2442 1.2717-4.0871 4.1773zm-1.3128-10.7048l1.2685-1.2965 2.551 2.6073-1.2685 1.2965z" stroke="none"/><path d="M17.8374 18.3412l4.0871-4.1773 1.2442 1.2717-4.0871 4.1773z" stroke="none"/><path d="M11.1767 3.5165L7.4905 0H0v8.2889h7.4905l3.6862 3.5164H24V3.5165H11.1767z" fill="#759c3e" stroke="none"/><path d="M17.1815 8.9304l4.0871-4.1774 1.2442 1.2717-4.0871 4.1773z" stroke="none"/><path d="M17.178 6.0212l1.2442-1.2717 4.0871 4.1774-1.2442 1.2716z" stroke="none"/></svg>