<svg xmlns="http://www.w3.org/2000/svg" width="32" height="44" stroke="none" stroke-linecap="round" stroke-linejoin="round" fill="#fff" fill-rule="evenodd"><path d="M0 18.4229v6.5703l16 8.5129v-6.5702l-16-8.513zM0 28.573v6.5703l16 8.5129V37.086L0 28.573z" fill="#aecbfa"/><path d="M16 33.5061l16-8.5129v-6.5703l-16 8.513v6.5702zm0 10.1501l16-8.5129V28.573l-16 8.513v6.5702z" fill="#669df6"/><path d="M32 15.0832V8.513L16 0v6.5703l16 8.5129z" fill="#4285f4"/><path d="M16 0L0 8.513v6.5702l16-8.5129V0z" fill="#669df6"/><path d="M0 8.4475v6.5921l16 8.5129v-6.592L0 8.4475z" fill="#aecbfa"/><path d="M16 23.5525l16-8.5129V8.4475l-16 8.513v6.592z" fill="#669df6"/></svg>