<?xml version="1.0" encoding="UTF-8"?>
<svg xmlns="http://www.w3.org/2000/svg" xmlns:xlink="http://www.w3.org/1999/xlink" width="32" height="32" viewBox="0 0 32 32" version="1.1">
<g id="surface1">
<path style=" stroke:none;fill-rule:nonzero;fill:rgb(0%,0%,0%);fill-opacity:1;" d="M 26.851562 14.753906 C 26.871094 14.519531 26.878906 14.296875 26.878906 14.078125 C 26.878906 9.492188 23.148438 5.761719 18.558594 5.761719 C 15.238281 5.761719 12.277344 7.71875 10.953125 10.710938 C 10.339844 10.402344 9.664062 10.238281 8.960938 10.238281 C 6.871094 10.238281 5.066406 11.699219 4.601562 13.699219 C 1.910156 14.488281 0 17.003906 0 19.839844 C 0 23.371094 2.871094 26.238281 6.398438 26.238281 L 26.238281 26.238281 C 29.417969 26.238281 32 23.65625 32 20.480469 C 32 17.511719 29.738281 15.058594 26.851562 14.753906 Z M 14.738281 22.046875 L 10.425781 17.734375 L 11.332031 16.828125 L 14.699219 20.195312 L 21.289062 13.007812 L 22.234375 13.871094 Z M 14.738281 22.046875 "/>
</g>
</svg>
