<svg xmlns="http://www.w3.org/2000/svg" width="32" height="39" stroke="#000" stroke-linecap="round" stroke-linejoin="round" fill="#fff" fill-rule="evenodd"><style><![CDATA[.B{fill-rule:nonzero}]]></style><g stroke="none" class="B"><g fill="#b7ca9d"><path d="M2.0615 26.9407l.2721.3086 13.7394 3.8955.0621-2.414-9.6169-2.4146-.4712-.1704-3.9806.7955"/><path d="M29.9385 26.9407l-14.0316 4.6837-.0426-2.8942 9.6169-2.4146.4261-.4717 4.0318 1.0974"/></g><path d="M15.8643 10.396l9.6169 2.2423 4.232-.2008.2192-.4243-13.4065-4.8267-.6665 3.2077" fill="#3c4929"/><path d="M6.5127 26.3156l-4.4511.6251-.1242-.4626V12.4995l.1242-.4869 4.022.3043.4291.3263v13.6767" fill="#759c3e"/><path d="M16.1351 10.396l-9.6169 2.2424-4.4567-.6251.168-.2636L16.073 7.8092l.0621 2.5856" fill="#3c4929"/><path d="M15.9805 0L0 8.066.0079 30.8922l15.9726 8.0624.2435-.3615V.4687zm-4.6672 29.7151l-9.2517-2.7743V12.0132l9.2517-2.7737zm14.1788-3.4007l4.4512.6257.2435-.4412V12.4375l-.2435-.4243-4.4512.6251V26.315" fill="#4b612c"/><path d="M15.9805 38.9546l16.0116-8.0618L32 8.0666 15.9805 0zm4.7111-29.7151l9.2517 2.7737v14.9276l-9.2517 2.7755z" fill="#759c3e"/></g></svg>