<?xml version="1.0" encoding="UTF-8"?>
<svg xmlns="http://www.w3.org/2000/svg" xmlns:xlink="http://www.w3.org/1999/xlink" width="32" height="32" viewBox="0 0 32 32" version="1.1">
<g id="surface1">
<path style=" stroke:none;fill-rule:nonzero;fill:rgb(0%,0%,0%);fill-opacity:1;" d="M 28.152344 15.066406 C 28 11.320312 24.902344 8.320312 21.121094 8.320312 C 20.46875 8.320312 19.84375 8.40625 19.222656 8.578125 C 17.789062 6.433594 15.371094 5.121094 12.800781 5.121094 C 8.691406 5.121094 5.328125 8.359375 5.128906 12.421875 C 2.128906 13.246094 0 16.015625 0 19.199219 C 0 23.082031 3.15625 26.238281 7.039062 26.238281 L 26.238281 26.238281 C 29.417969 26.238281 32 23.65625 32 20.480469 C 32 18.027344 30.410156 15.828125 28.152344 15.066406 Z M 19.386719 17.09375 L 16.640625 14.34375 L 16.640625 21.761719 L 15.359375 21.761719 L 15.359375 14.34375 L 12.613281 17.09375 L 11.707031 16.1875 L 16 11.894531 L 20.292969 16.1875 Z M 19.386719 17.09375 "/>
</g>
</svg>
