<svg role="img" viewBox="0 0 23.273 32" xmlns="http://www.w3.org/2000/svg"><path d="M0 13.398v4.778l11.637 6.191V19.59Zm0 7.383v4.778l11.637 6.191v-4.777Zm0 0" style="stroke:none;fill-rule:evenodd;fill:rgb(68.235296%,79.607844%,98.039216%);fill-opacity:1"/><path d="m11.637 24.367 11.636-6.191v-4.778L11.637 19.59Zm0 7.383 11.636-6.191V20.78l-11.636 6.192Zm0 0" style="stroke:none;fill-rule:evenodd;fill:rgb(40.000001%,61.56863%,96.470588%);fill-opacity:1"/><path d="M23.273 10.969V6.19L11.637 0v4.777Zm0 0" style="stroke:none;fill-rule:evenodd;fill:rgb(25.882354%,52.156866%,95.686275%);fill-opacity:1"/><path d="M11.637 0 0 6.191v4.778l11.637-6.192Zm0 0" style="stroke:none;fill-rule:evenodd;fill:rgb(40.000001%,61.56863%,96.470588%);fill-opacity:1"/><path d="M0 6.145v4.793l11.637 6.19v-4.792Zm0 0" style="stroke:none;fill-rule:evenodd;fill:rgb(68.235296%,79.607844%,98.039216%);fill-opacity:1"/><path d="m11.637 17.129 11.636-6.192V6.146l-11.636 6.19Zm0 0" style="stroke:none;fill-rule:evenodd;fill:rgb(40.000001%,61.56863%,96.470588%);fill-opacity:1"/></svg>