<?xml version="1.0" encoding="UTF-8"?>
<svg xmlns="http://www.w3.org/2000/svg" xmlns:xlink="http://www.w3.org/1999/xlink" width="28" height="32" viewBox="0 0 28 32" version="1.1">
<g id="surface1">
<path style=" stroke:none;fill-rule:evenodd;fill:rgb(29.411766%,38.039216%,17.254902%);fill-opacity:1;" d="M 1.128906 12.058594 L 7.316406 12.058594 L 7.316406 26.585938 L 1.128906 26.585938 Z M 10.910156 14.890625 L 17.101562 14.890625 L 17.101562 26.589844 L 10.910156 26.589844 Z M 28 28.890625 L 28 32 L 0 32 L 0 28.890625 Z M 20.6875 10.3125 L 20.6875 26.589844 L 26.878906 26.589844 L 26.878906 10.3125 C 24.949219 11.3125 22.617188 11.3125 20.6875 10.3125 M 20.6875 10.3125 "/>
<path style=" stroke:none;fill-rule:evenodd;fill:rgb(45.882353%,61.176473%,24.313726%);fill-opacity:1;" d="M 1.128906 10.699219 L 7.316406 10.699219 L 7.316406 25.226562 L 1.128906 25.226562 Z M 10.910156 13.527344 L 17.101562 13.527344 L 17.101562 25.226562 L 10.910156 25.226562 Z M 28 27.527344 L 28 30.636719 L 0 30.636719 L 0 27.527344 Z M 20.6875 8.949219 L 20.6875 25.226562 L 26.878906 25.226562 L 26.878906 8.949219 C 24.949219 9.949219 22.617188 9.949219 20.6875 8.949219 M 20.6875 8.949219 "/>
<path style=" stroke:none;fill-rule:evenodd;fill:rgb(55.29412%,3.529412%,3.921569%);fill-opacity:1;" d="M 27.515625 4.910156 C 27.515625 6.875 25.839844 8.464844 23.777344 8.464844 C 21.714844 8.464844 20.042969 6.875 20.042969 4.910156 L 20.042969 3.550781 L 23.777344 1.351562 L 27.507812 3.550781 Z M 27.515625 4.910156 "/>
<path style=" stroke:none;fill-rule:evenodd;fill:rgb(91.764706%,13.333334%,15.294118%);fill-opacity:1;" d="M 20.046875 3.550781 C 20.046875 1.582031 21.714844 0 23.78125 0 C 25.847656 0 27.515625 1.582031 27.515625 3.550781 C 27.515625 5.515625 25.847656 7.097656 23.78125 7.097656 C 21.714844 7.097656 20.046875 5.515625 20.046875 3.550781 M 20.046875 3.550781 "/>
</g>
</svg>
