<?xml version="1.0" encoding="UTF-8"?>
<svg xmlns="http://www.w3.org/2000/svg" xmlns:xlink="http://www.w3.org/1999/xlink" width="32" height="32" viewBox="0 0 32 32" version="1.1">
<g id="surface1">
<path style=" stroke:none;fill-rule:nonzero;fill:rgb(25.882354%,52.156866%,95.686275%);fill-opacity:1;" d="M 16.199219 21.652344 L 20.894531 18.945312 L 20.894531 13.535156 L 19.320312 12.613281 L 14.625 20.746094 Z M 16.199219 21.652344 "/>
<path style=" stroke:none;fill-rule:nonzero;fill:rgb(40.000001%,61.56863%,96.470588%);fill-opacity:1;" d="M 11.507812 13.535156 L 11.507812 18.945312 L 13.078125 19.851562 L 17.785156 11.734375 L 16.199219 10.8125 Z M 11.507812 13.535156 "/>
<path style=" stroke:none;fill-rule:nonzero;fill:rgb(68.235296%,79.607844%,98.039216%);fill-opacity:1;" d="M 15.28125 23.265625 L 9.652344 20.011719 L 9.652344 13.535156 L 4.652344 10.640625 L 4.652344 22.90625 L 15.28125 29.039062 Z M 10.574219 11.933594 L 16.199219 8.679688 L 21.828125 11.933594 L 26.839844 9.039062 L 16.199219 2.894531 L 5.558594 9.039062 Z M 22.746094 20.011719 L 17.121094 23.265625 L 17.121094 29.039062 L 27.761719 22.90625 L 27.761719 10.640625 L 22.746094 13.535156 Z M 22.746094 20.011719 "/>
</g>
</svg>
