<svg role="img" viewBox="0 0 28.121 32" xmlns="http://www.w3.org/2000/svg"><path d="m13.707 31.031 13.719-9.687-13.707-2L0 21.359Zm0 0" style="stroke:none;fill-rule:nonzero;fill:rgb(71.764708%,79.215688%,61.56863%);fill-opacity:1"/><path d="M2.738 6.004v15.121l2.325.691 5.449-8.347-5.45-8.36Zm0 0" style="stroke:none;fill-rule:nonzero;fill:rgb(29.803923%,38.431373%,17.254902%);fill-opacity:1"/><path d="M13.262 6.96v13.442L5.07 21.844V5.109Zm0 0" style="stroke:none;fill-rule:nonzero;fill:rgb(45.882353%,61.176473%,24.705882%);fill-opacity:1"/><path d="M19.078 12.219 9.613 23.215l-3.21-.973V1.61L9.612.008Zm0 0" style="stroke:none;fill-rule:nonzero;fill:rgb(29.803923%,38.431373%,17.254902%);fill-opacity:1"/><path d="M20.566 4.27v16.398L9.613 23.234V0Zm0 0" style="stroke:none;fill-rule:nonzero;fill:rgb(45.882353%,61.176473%,24.705882%);fill-opacity:1"/><path d="M13.707 31.031v-4.816L0 21.359v2.813Zm0 0" style="stroke:none;fill-rule:nonzero;fill:rgb(29.803923%,38.431373%,17.254902%);fill-opacity:1"/><path d="M27.426 21.344v2.828l-13.719 6.86v-4.817Zm0 0" style="stroke:none;fill-rule:nonzero;fill:rgb(45.882353%,61.176473%,24.705882%);fill-opacity:1"/><path d="m13.707 24.434 9.86-7.754h-3.325l-9.465.644Zm0 0" style="stroke:none;fill-rule:nonzero;fill:rgb(71.764708%,79.215688%,61.56863%);fill-opacity:1"/><path d="M10.777 17.324v6.227l2.93.883v-6.797Zm0 0" style="stroke:none;fill-rule:nonzero;fill:rgb(29.803923%,38.431373%,17.254902%);fill-opacity:1"/><path d="M23.566 21.477V16.68l-9.863.953v6.8Zm0 0" style="stroke:none;fill-rule:nonzero;fill:rgb(45.882353%,61.176473%,24.705882%);fill-opacity:1"/></svg>