<svg xmlns="http://www.w3.org/2000/svg" width="32" height="39" stroke="#000" stroke-linecap="round" stroke-linejoin="round" fill="#fff" fill-rule="evenodd"><g stroke="none" style="fill-rule:nonzero"><g fill="#b7ca9d"><path d="m2.062 26.94.272.31 13.739 3.895.062-2.414-9.617-2.415-.471-.17-3.98.795"/><path d="m29.939 26.94-14.032 4.684-.043-2.894 9.617-2.414.426-.472 4.032 1.097"/></g><path d="m15.864 10.396 9.617 2.242 4.232-.2.22-.425-13.407-4.826-.667 3.207" fill="#3c4929"/><path d="m6.513 26.316-4.451.625-.125-.463V12.5l.125-.486 4.022.304.429.326V26.32" fill="#759c3e"/><path d="m16.135 10.396-9.617 2.242-4.456-.625.168-.263 13.843-3.94.062 2.585" fill="#3c4929"/><path d="M15.98 0 0 8.066l.008 22.826 15.973 8.063.243-.362V.47zm-4.667 29.715-9.251-2.774V12.013l9.251-2.774zm14.18-3.4 4.45.625.244-.441V12.438l-.244-.425-4.45.625v13.677" fill="#4b612c"/><path d="m15.98 38.955 16.012-8.062L32 8.067 15.98 0zM20.692 9.24l9.251 2.773v14.928l-9.251 2.775z" fill="#759c3e"/></g></svg>