<svg xmlns="http://www.w3.org/2000/svg" width="29" height="33" stroke="none" stroke-linecap="round" stroke-linejoin="round" fill="#fff" fill-rule="nonzero"><path d="M14.1335 32l14.1475-9.9885-14.133-2.065L0 22.0265z" fill="#b7ca9d"/><path d="M2.824 6.1935v15.59l2.3985.7135 5.617-8.607-5.617-8.6225z" fill="#4c622c"/><path d="M13.678 7.18v13.86l-8.45 1.4875v-17.26z" fill="#759c3f"/><path d="M19.674 12.6l-9.76 11.34-3.31-1.002V1.66L9.914.01z" fill="#4c622c"/><path d="M21.2075 4.4025v16.911L9.9135 23.96V0z" fill="#759c3f"/><path d="M14.1335 32v-4.964L.001 22.0265v2.9z" fill="#4c622c"/><path d="M28.281 22.0115v2.915L14.1335 32v-4.964z" fill="#759c3f"/><path d="M14.1335 25.199l10.171-8h-3.43l-9.761.668z" fill="#b7ca9d"/><path d="M11.1125 17.867v6.421l3.021.911v-7.013z" fill="#4c622c"/><path d="M24.304 22.148v-4.949l-10.171.986v7.0135z" fill="#759c3f"/></svg>