<svg xmlns="http://www.w3.org/2000/svg" width="28" height="32" stroke="#000" stroke-linecap="round" stroke-linejoin="round" fill="#fff" fill-rule="evenodd"><path d="M1.127 12.0604h6.1894v14.5274H1.127zm9.784 2.8297h6.1894v11.6978H10.911zm17.089 14V32H0v-3.1099zm-7.3106-18.5769v16.2747h6.1894V10.3132c-1.9294.9986-4.26.9986-6.1894 0z" fill="#4b612c" stroke="none"/><path d="M1.127 10.6978h6.1894v14.5275H1.127zm9.784 2.8297h6.1894v11.6978H10.911zm17.089 14v3.1099H0v-3.1099zM20.6894 8.9506v16.2747h6.1894V8.9506c-1.9294.9986-4.26.9986-6.1894 0z" stroke="none" fill="#759c3e"/><path d="M27.5145 4.912c0 1.9619-1.6728 3.5522-3.7362 3.5522s-3.7362-1.5903-3.7362-3.5522V3.5494l3.7333-2.1978 3.7333 2.1978z" fill="#8d090a" stroke="none"/><path d="M20.0479 3.5494C20.0479 1.583 21.7129 0 23.7812 0s3.7334 1.583 3.7334 3.5494-1.6651 3.5495-3.7334 3.5495-3.7333-1.5831-3.7333-3.5495z" fill="#ea2227" stroke="none"/></svg>