<?xml version="1.0" encoding="utf-8"?>
<svg xmlns="http://www.w3.org/2000/svg" viewBox="0 0 50 50" fill="#000000"><path d="M 41.953125 23.050781 C 41.984375 22.6875 42 22.339844 42 22 C 42 14.832031 36.167969 9 29 9 C 23.8125 9 19.183594 12.0625 17.117188 16.738281 C 16.15625 16.253906 15.097656 16 14 16 C 10.734375 16 7.917969 18.28125 7.1875 21.40625 C 2.984375 22.640625 0 26.570313 0 31 C 0 36.515625 4.484375 41 10 41 L 41 41 C 45.964844 41 50 36.964844 50 32 C 50 27.359375 46.46875 23.527344 41.953125 23.050781 Z M 23.03125 34.445313 L 16.292969 27.707031 L 17.707031 26.292969 L 22.96875 31.554688 L 33.261719 20.324219 L 34.738281 21.675781 Z" fill="#000000"/></svg>
