<svg role="img" viewBox="0 0 28 32" xmlns="http://www.w3.org/2000/svg"><path d="M1.129 12.059h6.187v14.527H1.13Zm9.781 2.832h6.192V26.59H10.91Zm17.09 14V32H0v-3.11Zm-7.312-18.578V26.59h6.19V10.313c-1.929 1-4.26 1-6.19 0m0 0" style="stroke:none;fill-rule:evenodd;fill:rgb(29.411766%,38.039216%,17.254902%);fill-opacity:1"/><path d="M1.129 10.7h6.187v14.527H1.13Zm9.781 2.827h6.192v11.7H10.91Zm17.09 14v3.11H0v-3.11ZM20.688 8.95v16.278h6.19V8.949c-1.929 1-4.26 1-6.19 0m0 0" style="stroke:none;fill-rule:evenodd;fill:rgb(45.882353%,61.176473%,24.313726%);fill-opacity:1"/><path d="M27.516 4.91c0 1.965-1.676 3.555-3.739 3.555-2.062 0-3.734-1.59-3.734-3.555V3.55l3.734-2.198 3.73 2.199Zm0 0" style="stroke:none;fill-rule:evenodd;fill:rgb(55.29412%,3.529412%,3.921569%);fill-opacity:1"/><path d="M20.047 3.55c0-1.968 1.668-3.55 3.734-3.55 2.067 0 3.735 1.582 3.735 3.55 0 1.966-1.668 3.548-3.735 3.548-2.066 0-3.734-1.582-3.734-3.547m0 0" style="stroke:none;fill-rule:evenodd;fill:rgb(91.764706%,13.333334%,15.294118%);fill-opacity:1"/></svg>