<svg role="img" viewBox="0 0 32 32" xmlns="http://www.w3.org/2000/svg"><path d="M26.852 14.754c.02-.234.027-.457.027-.676 0-4.586-3.73-8.316-8.32-8.316a8.305 8.305 0 0 0-7.606 4.949 4.413 4.413 0 0 0-1.992-.473A4.491 4.491 0 0 0 4.6 13.7c-2.688.79-4.6 3.304-4.6 6.14a6.404 6.404 0 0 0 6.398 6.4h19.84A5.764 5.764 0 0 0 32 20.48a5.769 5.769 0 0 0-5.148-5.726m-12.114 7.293-4.312-4.313.906-.906 3.367 3.367 6.59-7.187.945.863Zm0 0" style="stroke:none;fill-rule:nonzero;fill:rgb(0%,0%,0%);fill-opacity:1"/></svg>