<?xml version="1.0" encoding="UTF-8"?>
<svg xmlns="http://www.w3.org/2000/svg" xmlns:xlink="http://www.w3.org/1999/xlink" width="32" height="32" viewBox="0 0 32 32" version="1.1">
<g id="surface1">
<path style=" stroke:none;fill-rule:nonzero;fill:rgb(0%,0%,0%);fill-opacity:1;" d="M 28.152344 15.066406 C 28.0625 12.917969 26.992188 10.929688 25.253906 9.664062 C 23.515625 8.402344 21.292969 8 19.222656 8.578125 C 17.789062 6.433594 15.371094 5.121094 12.800781 5.121094 C 8.707031 5.125 5.335938 8.332031 5.128906 12.421875 C 2.128906 13.246094 0 16.015625 0 19.199219 C 0.00390625 23.085938 3.152344 26.238281 7.039062 26.238281 L 26.238281 26.238281 C 29.417969 26.238281 31.996094 23.660156 32 20.480469 C 32 18.027344 30.410156 15.828125 28.152344 15.066406 M 19.386719 17.09375 L 16.640625 14.34375 L 16.640625 21.761719 L 15.359375 21.761719 L 15.359375 14.34375 L 12.613281 17.09375 L 11.707031 16.1875 L 16 11.894531 L 20.292969 16.1875 Z M 19.386719 17.09375 "/>
</g>
</svg>
