<?xml version="1.0" encoding="UTF-8"?>
<svg xmlns="http://www.w3.org/2000/svg" xmlns:xlink="http://www.w3.org/1999/xlink" width="32" height="32" viewBox="0 0 32 32" version="1.1">
<g id="surface1">
<path style="fill-rule:nonzero;fill:rgb(0%,0%,0%);fill-opacity:1;stroke-width:1.333;stroke-linecap:round;stroke-linejoin:round;stroke:rgb(64.313728%,64.313728%,64.313728%);stroke-opacity:1;stroke-miterlimit:4;" d="M 5.000498 1.000365 L 5.000498 2.334306 M 9.00063 1.000365 L 9.00063 2.334306 M 5.000498 11.666822 L 5.000498 13.000763 M 9.00063 11.666822 L 9.00063 13.000763 M 2.334306 5.000498 L 1.000365 5.000498 M 2.334306 9.00063 L 1.000365 9.00063 M 13.000763 5.000498 L 11.666822 5.000498 M 13.000763 9.00063 L 11.666822 9.00063 M 3.666556 11.666822 L 10.33119 11.666822 C 11.068324 11.666822 11.666822 11.068324 11.666822 10.33119 L 11.666822 3.666556 C 11.666822 2.931113 11.068324 2.334306 10.33119 2.334306 L 3.666556 2.334306 C 2.931113 2.334306 2.334306 2.931113 2.334306 3.666556 L 2.334306 10.332881 C 2.334306 11.070014 2.931113 11.666822 3.666556 11.666822 M 5.000498 5.000498 L 9.00063 5.000498 L 9.00063 9.00063 L 5.000498 9.00063 Z M 5.000498 5.000498 " transform="matrix(2.31047,0,0,2.31047,-0.116,-0.116)"/>
</g>
</svg>
