<svg role="img" viewBox="0 0 32 32" xmlns="http://www.w3.org/2000/svg"><path d="M5 1v1.334M9 1v1.334m-4 9.333V13m4-1.334V13M2.334 5H1m1.334 4H1m12-4h-1.333M13 9h-1.334m-8 2.666h6.666c.737 0 1.334-.597 1.334-1.334V3.666c0-.735-.597-1.332-1.334-1.332H3.666c-.735 0-1.332.597-1.332 1.332v6.667c0 .737.597 1.334 1.332 1.334M5 5h4v4H5Zm0 0" style="fill-rule:nonzero;fill:rgb(0%,0%,0%);fill-opacity:1;stroke-width:1.333;stroke-linecap:round;stroke-linejoin:round;stroke:rgb(64.313728%,64.313728%,64.313728%);stroke-opacity:1;stroke-miterlimit:4" transform="translate(-.116 -.116)scale(2.31047)"/></svg>