<?xml version="1.0" encoding="UTF-8"?>
<svg xmlns="http://www.w3.org/2000/svg" xmlns:xlink="http://www.w3.org/1999/xlink" width="32" height="32" viewBox="0 0 32 32" version="1.1">
<g id="surface1">
<path style="fill-rule:nonzero;fill:rgb(0%,0%,0%);fill-opacity:1;stroke-width:1.333;stroke-linecap:round;stroke-linejoin:round;stroke:rgb(64.313728%,64.313728%,64.313728%);stroke-opacity:1;stroke-miterlimit:4;" d="M 5.000293 1.000159 L 5.000293 2.3341 M 9.000427 1.000159 L 9.000427 2.3341 M 5.000293 11.66662 L 5.000293 13.000562 M 9.000427 11.66662 L 9.000427 13.000562 M 2.3341 5.000293 L 1.000159 5.000293 M 2.3341 9.000427 L 1.000159 9.000427 M 13.000562 5.000293 L 11.66662 5.000293 M 13.000562 9.000427 L 11.66662 9.000427 M 3.666351 11.66662 L 10.332679 11.66662 C 11.069812 11.66662 11.66662 11.069812 11.66662 10.332679 L 11.66662 3.666351 C 11.66662 2.930908 11.069812 2.3341 10.332679 2.3341 L 3.666351 2.3341 C 2.930908 2.3341 2.3341 2.930908 2.3341 3.666351 L 2.3341 10.332679 C 2.3341 11.069812 2.930908 11.66662 3.666351 11.66662 Z M 5.000293 5.000293 L 9.000427 5.000293 L 9.000427 9.000427 L 5.000293 9.000427 Z M 5.000293 5.000293 " transform="matrix(2.310469,0,0,2.310469,-0.115523,-0.115523)"/>
</g>
</svg>
