<?xml version="1.0" encoding="UTF-8"?>
<svg xmlns="http://www.w3.org/2000/svg" xmlns:xlink="http://www.w3.org/1999/xlink" width="29.714001" height="32" viewBox="0 0 29.714001 32" version="1.1">
<defs>
<linearGradient id="linear0" gradientUnits="userSpaceOnUse" x1="334.519012" y1="-293.069" x2="334.519012" y2="-92.050003" gradientTransform="matrix(0.14991,0,0,-0.14991,-35.264999,-4.105)">
<stop offset="0" style="stop-color:rgb(81.960785%,88.235295%,84.313726%);stop-opacity:1;"/>
<stop offset="1" style="stop-color:rgb(0%,69.01961%,67.843139%);stop-opacity:1;"/>
</linearGradient>
<linearGradient id="linear1" gradientUnits="userSpaceOnUse" x1="334.519012" y1="-293.069" x2="334.519012" y2="-92.050003" gradientTransform="matrix(0.14991,0,0,-0.14991,-35.264999,-4.105)">
<stop offset="0" style="stop-color:rgb(81.960785%,88.235295%,84.313726%);stop-opacity:1;"/>
<stop offset="1" style="stop-color:rgb(0%,69.01961%,67.843139%);stop-opacity:1;"/>
</linearGradient>
<linearGradient id="linear2" gradientUnits="userSpaceOnUse" x1="15.362" y1="-49.217999" x2="15.362" y2="151.800995" gradientTransform="matrix(0.14991,0,0,-0.14991,-1.22,32.450001)">
<stop offset="0" style="stop-color:rgb(81.960785%,88.235295%,84.313726%);stop-opacity:1;"/>
<stop offset="1" style="stop-color:rgb(0%,69.01961%,67.843139%);stop-opacity:1;"/>
</linearGradient>
</defs>
<g id="surface1">
<path style=" stroke:none;fill-rule:nonzero;fill:rgb(0%,69.01961%,67.843139%);fill-opacity:1;" d="M 23.273438 6.84375 L 23.15625 6.769531 L 14.789062 0.683594 L 0.773438 11.207031 L 3.441406 13.171875 L 14.941406 21.566406 L 28.972656 11.027344 Z M 4.597656 9.214844 L 12.152344 3.53125 L 14.25 5.0625 L 6.695312 10.757812 Z M 16.992188 15.179688 L 14.910156 16.738281 L 7.292969 11.175781 L 14.851562 5.511719 L 19.765625 9.109375 L 14.296875 13.214844 Z M 20.351562 9.527344 L 22.449219 11.058594 L 17.578125 14.746094 L 15.480469 13.214844 Z M 23.453125 11.222656 L 23.589844 11.101562 L 23.636719 11.074219 L 20.9375 9.109375 L 23.019531 7.550781 L 27.816406 11.042969 L 20.261719 16.722656 L 18.179688 15.195312 Z M 20.351562 8.660156 L 12.738281 3.097656 L 14.804688 1.539062 L 22.421875 7.101562 Z M 4.011719 9.648438 L 6.109375 11.175781 L 4.042969 12.738281 L 1.941406 11.191406 Z M 6.710938 11.628906 L 14.339844 17.203125 L 12.273438 18.746094 L 4.640625 13.171875 Z M 17.59375 15.613281 L 19.675781 17.144531 L 14.941406 20.695312 L 12.855469 19.167969 Z M 17.59375 15.613281 "/>
<path style=" stroke:none;fill-rule:nonzero;fill:url(#linear0);" d="M 14.878906 31.414062 C 14.800781 31.410156 14.722656 31.386719 14.65625 31.339844 L 0.847656 21.445312 C 0.59375 21.222656 0.546875 20.832031 0.773438 20.578125 L 0.847656 20.5 L 7.746094 15.554688 L 8.179688 16.5 L 1.941406 20.964844 L 14.863281 30.230469 L 27.789062 20.964844 L 21.566406 16.5 L 22 15.554688 L 28.898438 20.5 C 29.152344 20.726562 29.195312 21.117188 28.972656 21.371094 L 28.898438 21.445312 L 15.089844 31.339844 C 15.046875 31.386719 14.957031 31.414062 14.878906 31.414062 M 14.878906 31.414062 "/>
<path style=" stroke:none;fill-rule:nonzero;fill:url(#linear1);" d="M 14.878906 21.519531 C 14.800781 21.515625 14.722656 21.492188 14.65625 21.445312 L 0.847656 11.550781 C 0.59375 11.328125 0.546875 10.9375 0.773438 10.683594 L 0.847656 10.609375 L 14.65625 0.714844 C 14.78125 0.609375 14.964844 0.609375 15.089844 0.714844 L 28.898438 10.609375 C 29.152344 10.832031 29.195312 11.222656 28.972656 11.476562 L 28.898438 11.550781 L 15.089844 21.445312 C 15.046875 21.492188 14.957031 21.519531 14.878906 21.519531 M 1.972656 11.085938 L 14.894531 20.351562 L 27.816406 11.085938 L 14.894531 1.824219 Z M 1.972656 11.085938 "/>
<path style=" stroke:none;fill-rule:nonzero;fill:url(#linear2);" d="M 0.636719 11.085938 L 1.523438 11.085938 L 1.523438 20.980469 L 0.636719 20.980469 Z M 0.636719 11.085938 "/>
</g>
</svg>
