<svg role="img" viewBox="0 0 29.714 32" xmlns="http://www.w3.org/2000/svg" xmlns:xlink="http://www.w3.org/1999/xlink"><defs><linearGradient gradientTransform="matrix(.14991 0 0 -.14991 -35.265 -4.105)" gradientUnits="userSpaceOnUse" id="a" x1="334.519" x2="334.519" y1="-293.069" y2="-92.05"><stop offset="0" style="stop-color:rgb(81.960785%,88.235295%,84.313726%);stop-opacity:1"/><stop offset="1" style="stop-color:rgb(0%,69.01961%,67.843139%);stop-opacity:1"/></linearGradient><linearGradient gradientTransform="matrix(.14991 0 0 -.14991 -35.265 -4.105)" gradientUnits="userSpaceOnUse" id="b" x1="334.519" x2="334.519" y1="-293.069" y2="-92.05"><stop offset="0" style="stop-color:rgb(81.960785%,88.235295%,84.313726%);stop-opacity:1"/><stop offset="1" style="stop-color:rgb(0%,69.01961%,67.843139%);stop-opacity:1"/></linearGradient><linearGradient gradientTransform="matrix(.14991 0 0 -.14991 -1.22 32.45)" gradientUnits="userSpaceOnUse" id="c" x1="15.362" x2="15.362" y1="-49.218" y2="151.801"><stop offset="0" style="stop-color:rgb(81.960785%,88.235295%,84.313726%);stop-opacity:1"/><stop offset="1" style="stop-color:rgb(0%,69.01961%,67.843139%);stop-opacity:1"/></linearGradient></defs><path d="m23.273 6.844-.117-.074L14.79.684.773 11.207l2.668 1.965 11.5 8.394 14.032-10.539ZM4.598 9.214l7.554-5.683 2.098 1.531-7.555 5.696Zm12.394 5.966-2.082 1.558-7.617-5.562 7.559-5.664 4.914 3.597-5.47 4.106Zm3.36-5.653 2.097 1.532-4.87 3.687-2.099-1.531Zm3.101 1.696.137-.121.047-.028-2.7-1.965 2.083-1.558 4.796 3.492-7.554 5.68-2.082-1.528ZM20.352 8.66l-7.614-5.562 2.067-1.559 7.617 5.563Zm-16.34.988 2.097 1.528-2.066 1.562-2.102-1.547Zm2.699 1.98 7.629 5.575-2.067 1.543-7.632-5.574Zm10.883 3.985 2.082 1.532-4.735 3.55-2.086-1.527Zm0 0" style="stroke:none;fill-rule:nonzero;fill:rgb(0%,69.01961%,67.843139%);fill-opacity:1"/><path d="M14.879 31.414a.42.42 0 0 1-.223-.074L.848 21.445c-.254-.222-.301-.613-.075-.867l.075-.078 6.898-4.945.434.945-6.239 4.465 12.922 9.265 12.926-9.265-6.223-4.465.434-.945 6.898 4.945c.254.227.297.617.075.871l-.075.074L15.09 31.34c-.043.047-.133.074-.211.074m0 0" style="stroke:none;fill-rule:nonzero;fill:url(#a)"/><path d="M14.879 21.52a.42.42 0 0 1-.223-.075L.848 11.551c-.254-.223-.301-.614-.075-.867l.075-.075L14.656.715a.337.337 0 0 1 .434 0l13.808 9.894c.254.223.297.614.075.868l-.075.074-13.808 9.894c-.043.047-.133.075-.211.075M1.973 11.086l12.922 9.266 12.921-9.266-12.921-9.262Zm0 0" style="stroke:none;fill-rule:nonzero;fill:url(#b)"/><path d="M.637 11.086h.886v9.894H.637Zm0 0" style="stroke:none;fill-rule:nonzero;fill:url(#c)"/></svg>