<?xml version="1.0" encoding="UTF-8"?>
<svg xmlns="http://www.w3.org/2000/svg" xmlns:xlink="http://www.w3.org/1999/xlink" width="32" height="32" viewBox="0 0 32 32" version="1.1">
<g id="surface1">
<path style=" stroke:none;fill-rule:nonzero;fill:rgb(0%,0%,0%);fill-opacity:1;" d="M 30.183594 13.582031 L 26.398438 12.964844 C 26.179688 12.207031 25.875 11.476562 25.496094 10.785156 L 27.703125 7.636719 C 27.882812 7.382812 27.851562 7.035156 27.632812 6.816406 L 25.144531 4.328125 C 24.921875 4.105469 24.574219 4.078125 24.316406 4.261719 L 21.21875 6.492188 C 20.523438 6.105469 19.785156 5.800781 19.023438 5.578125 L 18.363281 1.808594 C 18.308594 1.503906 18.042969 1.28125 17.730469 1.28125 L 14.210938 1.28125 C 13.898438 1.28125 13.628906 1.507812 13.582031 1.816406 L 12.96875 5.5625 C 12.199219 5.785156 11.464844 6.085938 10.769531 6.46875 L 7.675781 4.257812 C 7.421875 4.078125 7.074219 4.105469 6.851562 4.328125 L 4.363281 6.816406 C 4.144531 7.035156 4.113281 7.378906 4.292969 7.632812 L 6.46875 10.746094 C 6.082031 11.449219 5.773438 12.191406 5.546875 12.960938 L 1.816406 13.582031 C 1.507812 13.632812 1.28125 13.898438 1.28125 14.214844 L 1.28125 17.734375 C 1.28125 18.042969 1.503906 18.308594 1.808594 18.363281 L 5.542969 19.023438 C 5.765625 19.796875 6.074219 20.539062 6.460938 21.238281 L 4.257812 24.320312 C 4.078125 24.574219 4.105469 24.921875 4.328125 25.144531 L 6.816406 27.636719 C 7.035156 27.855469 7.378906 27.886719 7.636719 27.707031 L 10.753906 25.523438 C 11.449219 25.90625 12.191406 26.214844 12.957031 26.433594 L 13.582031 30.1875 C 13.632812 30.496094 13.898438 30.71875 14.210938 30.71875 L 17.730469 30.71875 C 18.042969 30.71875 18.308594 30.496094 18.363281 30.191406 L 19.03125 26.421875 C 19.792969 26.199219 20.53125 25.890625 21.226562 25.503906 L 24.363281 27.707031 C 24.621094 27.886719 24.964844 27.855469 25.183594 27.636719 L 27.671875 25.144531 C 27.894531 24.921875 27.921875 24.574219 27.738281 24.316406 L 25.5 21.210938 C 25.882812 20.519531 26.183594 19.785156 26.402344 19.027344 L 30.1875 18.363281 C 30.496094 18.308594 30.71875 18.042969 30.71875 17.734375 L 30.71875 14.214844 C 30.71875 13.898438 30.492188 13.632812 30.183594 13.582031 M 16 20.480469 C 13.527344 20.480469 11.519531 18.472656 11.519531 16 C 11.519531 13.527344 13.527344 11.519531 16 11.519531 C 18.472656 11.519531 20.480469 13.527344 20.480469 16 C 20.480469 18.472656 18.472656 20.480469 16 20.480469 "/>
</g>
</svg>
