<?xml version="1.0" encoding="UTF-8"?>
<svg xmlns="http://www.w3.org/2000/svg" xmlns:xlink="http://www.w3.org/1999/xlink" width="32" height="32" viewBox="0 0 32 32" version="1.1">
<g id="surface1">
<path style=" stroke:none;fill-rule:nonzero;fill:rgb(68.235296%,79.607844%,98.039216%);fill-opacity:1;" d="M 12 12 L 20 12 L 20 20 L 12 20 Z M 12 12 "/>
<path style=" stroke:none;fill-rule:nonzero;fill:rgb(40.000001%,61.56863%,96.470588%);fill-opacity:1;" d="M 14.667969 2.667969 L 17.332031 2.667969 L 17.332031 8 L 14.667969 8 Z M 9.332031 2.667969 L 12 2.667969 L 12 8 L 9.332031 8 Z M 20 2.667969 L 22.667969 2.667969 L 22.667969 8 L 20 8 Z M 20 2.667969 "/>
<path style=" stroke:none;fill-rule:nonzero;fill:rgb(25.882354%,52.156866%,95.686275%);fill-opacity:1;" d="M 14.667969 24 L 17.332031 24 L 17.332031 29.332031 L 14.667969 29.332031 Z M 9.332031 24 L 12 24 L 12 29.332031 L 9.332031 29.332031 Z M 20 24 L 22.667969 24 L 22.667969 29.332031 L 20 29.332031 Z M 24 17.332031 L 24 14.667969 L 29.332031 14.667969 L 29.332031 17.332031 Z M 24 22.667969 L 24 20 L 29.332031 20 L 29.332031 22.667969 Z M 24 12 L 24 9.332031 L 29.332031 9.332031 L 29.332031 12 Z M 24 12 "/>
<path style=" stroke:none;fill-rule:nonzero;fill:rgb(40.000001%,61.56863%,96.470588%);fill-opacity:1;" d="M 2.667969 17.332031 L 2.667969 14.667969 L 8 14.667969 L 8 17.332031 Z M 2.667969 22.667969 L 2.667969 20 L 8 20 L 8 22.667969 Z M 2.667969 12 L 2.667969 9.332031 L 8 9.332031 L 8 12 Z M 2.667969 12 "/>
<path style=" stroke:none;fill-rule:nonzero;fill:rgb(68.235296%,79.607844%,98.039216%);fill-opacity:1;" d="M 6.667969 6.667969 L 6.667969 25.332031 L 25.332031 25.332031 L 25.332031 6.667969 Z M 22.667969 22.667969 L 9.332031 22.667969 L 9.332031 9.332031 L 22.667969 9.332031 Z M 22.667969 22.667969 "/>
<path style=" stroke:none;fill-rule:nonzero;fill:rgb(40.000001%,61.56863%,96.470588%);fill-opacity:1;" d="M 12 20 L 20 20 L 16 16 Z M 12 20 "/>
<path style=" stroke:none;fill-rule:nonzero;fill:rgb(25.882354%,52.156866%,95.686275%);fill-opacity:1;" d="M 16 16 L 20 20 L 20 12 Z M 16 16 "/>
</g>
</svg>
