<svg role="img" viewBox="0 0 32 32" xmlns="http://www.w3.org/2000/svg"><path d="M12 12h8v8h-8Zm0 0" style="stroke:none;fill-rule:nonzero;fill:rgb(68.235296%,79.607844%,98.039216%);fill-opacity:1"/><path d="M14.668 2.668h2.664V8h-2.664Zm-5.336 0H12V8H9.332Zm10.668 0h2.668V8H20Zm0 0" style="stroke:none;fill-rule:nonzero;fill:rgb(40.000001%,61.56863%,96.470588%);fill-opacity:1"/><path d="M14.668 24h2.664v5.332h-2.664Zm-5.336 0H12v5.332H9.332ZM20 24h2.668v5.332H20Zm4-6.668v-2.664h5.332v2.664Zm0 5.336V20h5.332v2.668ZM24 12V9.332h5.332V12Zm0 0" style="stroke:none;fill-rule:nonzero;fill:rgb(25.882354%,52.156866%,95.686275%);fill-opacity:1"/><path d="M2.668 17.332v-2.664H8v2.664Zm0 5.336V20H8v2.668Zm0-10.668V9.332H8V12Zm0 0" style="stroke:none;fill-rule:nonzero;fill:rgb(40.000001%,61.56863%,96.470588%);fill-opacity:1"/><path d="M6.668 6.668v18.664h18.664V6.668Zm16 16H9.332V9.332h13.336Zm0 0" style="stroke:none;fill-rule:nonzero;fill:rgb(68.235296%,79.607844%,98.039216%);fill-opacity:1"/><path d="M12 20h8l-4-4Zm0 0" style="stroke:none;fill-rule:nonzero;fill:rgb(40.000001%,61.56863%,96.470588%);fill-opacity:1"/><path d="m16 16 4 4v-8Zm0 0" style="stroke:none;fill-rule:nonzero;fill:rgb(25.882354%,52.156866%,95.686275%);fill-opacity:1"/></svg>