<?xml version="1.0" encoding="utf-8"?>
<!-- Generator: Adobe Illustrator 25.4.1, SVG Export Plug-In . SVG Version: 6.00 Build 0)  -->
<svg version="1.1" id="Layer_1" xmlns="http://www.w3.org/2000/svg" xmlns:xlink="http://www.w3.org/1999/xlink" x="0px" y="0px"
	 viewBox="0 0 100 100" style="enable-background:new 0 0 100 100;" xml:space="preserve">
<style type="text/css">
	.st0{fill:#404041;}
</style>
<g>
	<path class="st0" d="M81,43.8c-3,0.3-6,1.4-8.4,3.1c0.1,0.9,0.2,1.8,0.2,2.8c0,12.6-10.2,22.9-22.9,22.9c-1,0-1.9-0.1-2.8-0.2
		c-1.8,2.6-3,5.6-3.3,8.8l0,0.1c0,1.2-0.2,2.3-0.3,3.5l-0.1,1.3l-0.1,0c-0.2,0.9-0.4,1.7-0.7,2.5l2.5,10.8h9.9l2.8-12.1
		c4.9-1,9.4-2.9,13.4-5.6l10.5,6.6l7-7L82,70.8c2.7-4,4.6-8.5,5.6-13.4l12.1-2.8v-9.9L89,42.3C86.4,43.2,83.8,43.7,81,43.8z"/>
	<path class="st0" d="M12.8,57.2c2-0.6,3.8-0.8,5.6-1.1c1.9-0.3,3.6-0.5,5.1-1.1c1.3-0.5,2.5-1.1,3.7-1.8C27.1,52,27,50.9,27,49.7
		c0-6.3,2.6-12,6.7-16.2c4.2-4.1,9.9-6.7,16.2-6.7c1.2,0,2.3,0.1,3.4,0.3c1.6-2.4,2.6-5.1,2.9-7.9c0-2.6,0.5-5.2,1.3-7.6L54.9,0
		h-9.9l-2.8,12.1c-4.9,1-9.4,2.9-13.4,5.6L18.2,11l-7,7l6.6,10.5c-2.6,4-4.6,8.5-5.6,13.4L0.2,44.7v9.9l11.9,2.7
		C12.3,57.3,12.6,57.3,12.8,57.2z"/>
	<path class="st0" d="M66.4,45.6c1.5-1.5,3.2-2.8,5-3.8c2.9-1.7,6.1-2.7,9.4-3c1.5,0,3-0.2,4.5-0.6c2.9-0.7,5.7-2.1,8.1-4.2
		c5-4.4,7.2-10.8,6.5-16.8c-0.1-1.2-1.6-1.8-2.5-0.9l-7,7c-2.6,2.6-6.7,2.6-9.3,0l-4.4-4.4c-2.6-2.6-2.6-6.7,0-9.3l7-7
		c0.9-0.9,0.3-2.3-0.9-2.5c-5.7-0.7-11.6,1.2-15.9,5.6c-2.2,2.2-3.8,4.8-4.7,7.6c-0.7,2-1,4.1-1,6.2c-0.3,3.2-1.3,6.2-2.9,9
		c-1,1.8-2.3,3.5-3.8,5L33.6,54.4c-1,1-2,1.9-3.1,2.6c-0.6,0.4-1.3,0.8-1.9,1.2c-1.3,0.7-2.7,1.4-4.1,1.8c-2.3,0.8-4.5,1-6.9,1.2
		c-1.4,0.1-2.8,0.4-4.2,0.8c-2.9,0.9-5.7,2.6-7.8,4.8c-4.4,4.4-6.2,10.3-5.6,15.9c0.1,1.2,1.6,1.7,2.5,0.9l7-7
		c2.6-2.6,6.7-2.6,9.3,0l4.4,4.4c2.6,2.6,2.6,6.7,0,9.3l-7,7c-0.9,0.9-0.3,2.3,0.9,2.5c6.1,0.7,12.4-1.5,16.8-6.5
		c1.9-2.2,3.3-4.7,4-7.5c0.3-1,0.5-2,0.6-3c0.2-1.7,0.3-3.3,0.6-4.9c0.3-1.5,0.8-2.9,1.4-4.3c0.4-0.9,0.8-1.7,1.3-2.6
		c1-1.8,2.3-3.4,3.7-4.8L66.4,45.6z"/>
</g>
</svg>
