<?xml version="1.0" encoding="UTF-8"?>
<svg xmlns="http://www.w3.org/2000/svg" xmlns:xlink="http://www.w3.org/1999/xlink" width="32" height="32" viewBox="0 0 32 32" version="1.1">
<g id="surface1">
<path style=" stroke:none;fill-rule:nonzero;fill:rgb(25.098041%,25.098041%,25.490198%);fill-opacity:1;" d="M 25.921875 14.015625 C 24.960938 14.113281 24 14.464844 23.230469 15.007812 C 23.265625 15.296875 23.296875 15.585938 23.296875 15.902344 C 23.296875 19.9375 20.03125 23.230469 15.96875 23.230469 C 15.648438 23.230469 15.359375 23.199219 15.070312 23.167969 C 14.496094 24 14.113281 24.960938 14.015625 25.984375 L 14.015625 26.015625 C 14.015625 26.398438 13.953125 26.753906 13.921875 27.136719 L 13.886719 27.550781 L 13.855469 27.550781 C 13.792969 27.839844 13.726562 28.097656 13.632812 28.351562 L 14.433594 31.808594 L 17.601562 31.808594 L 18.496094 27.9375 C 20.0625 27.617188 21.503906 27.007812 22.785156 26.144531 L 26.144531 28.257812 L 28.382812 26.015625 L 26.238281 22.65625 C 27.105469 21.375 27.710938 19.9375 28.03125 18.367188 L 31.902344 17.472656 L 31.902344 14.304688 L 28.480469 13.535156 C 27.648438 13.824219 26.816406 13.984375 25.921875 14.015625 Z M 25.921875 14.015625 "/>
<path style=" stroke:none;fill-rule:nonzero;fill:rgb(25.098041%,25.098041%,25.490198%);fill-opacity:1;" d="M 4.097656 18.304688 C 4.734375 18.113281 5.3125 18.046875 5.886719 17.953125 C 6.496094 17.855469 7.039062 17.792969 7.519531 17.601562 C 7.9375 17.441406 8.320312 17.246094 8.703125 17.023438 C 8.671875 16.640625 8.640625 16.289062 8.640625 15.902344 C 8.640625 13.886719 9.472656 12.0625 10.785156 10.71875 C 12.128906 9.40625 13.953125 8.574219 15.96875 8.574219 C 16.351562 8.574219 16.703125 8.609375 17.054688 8.671875 C 17.566406 7.902344 17.886719 7.039062 17.984375 6.144531 C 17.984375 5.3125 18.144531 4.480469 18.398438 3.710938 L 17.566406 0 L 14.398438 0 L 13.503906 3.871094 C 11.9375 4.191406 10.496094 4.800781 9.214844 5.664062 L 5.824219 3.519531 L 3.585938 5.761719 L 5.695312 9.121094 C 4.863281 10.398438 4.222656 11.839844 3.902344 13.40625 L 0.0625 14.304688 L 0.0625 17.472656 L 3.871094 18.335938 C 3.9375 18.335938 4.03125 18.335938 4.097656 18.304688 Z M 4.097656 18.304688 "/>
<path style=" stroke:none;fill-rule:nonzero;fill:rgb(25.098041%,25.098041%,25.490198%);fill-opacity:1;" d="M 21.246094 14.59375 C 21.726562 14.113281 22.273438 13.695312 22.847656 13.375 C 23.777344 12.832031 24.800781 12.511719 25.855469 12.414062 C 26.335938 12.414062 26.816406 12.351562 27.296875 12.222656 C 28.222656 12 29.121094 11.550781 29.886719 10.878906 C 31.488281 9.472656 32.191406 7.425781 31.96875 5.503906 C 31.9375 5.121094 31.457031 4.929688 31.167969 5.214844 L 28.929688 7.457031 C 28.097656 8.289062 26.785156 8.289062 25.953125 7.457031 L 24.542969 6.046875 C 23.710938 5.214844 23.710938 3.902344 24.542969 3.070312 L 26.785156 0.832031 C 27.070312 0.542969 26.878906 0.0976562 26.496094 0.03125 C 24.671875 -0.191406 22.785156 0.414062 21.40625 1.824219 C 20.703125 2.527344 20.191406 3.359375 19.902344 4.257812 C 19.679688 4.894531 19.585938 5.566406 19.585938 6.238281 C 19.488281 7.265625 19.167969 8.222656 18.65625 9.121094 C 18.335938 9.695312 17.921875 10.238281 17.441406 10.71875 L 10.753906 17.40625 C 10.433594 17.726562 10.113281 18.015625 9.761719 18.238281 C 9.566406 18.367188 9.34375 18.496094 9.152344 18.625 C 8.734375 18.847656 8.289062 19.070312 7.839844 19.199219 C 7.105469 19.457031 6.398438 19.519531 5.632812 19.585938 C 5.183594 19.617188 4.734375 19.710938 4.289062 19.839844 C 3.359375 20.128906 2.464844 20.671875 1.792969 21.375 C 0.382812 22.785156 -0.191406 24.671875 0 26.464844 C 0.03125 26.847656 0.511719 27.007812 0.800781 26.753906 L 3.039062 24.511719 C 3.871094 23.679688 5.183594 23.679688 6.015625 24.511719 L 7.425781 25.921875 C 8.257812 26.753906 8.257812 28.0625 7.425781 28.894531 L 5.183594 31.136719 C 4.894531 31.425781 5.089844 31.871094 5.472656 31.9375 C 7.425781 32.160156 9.441406 31.457031 10.847656 29.855469 C 11.457031 29.152344 11.902344 28.351562 12.128906 27.457031 C 12.222656 27.136719 12.289062 26.816406 12.320312 26.496094 C 12.382812 25.953125 12.414062 25.441406 12.511719 24.929688 C 12.609375 24.449219 12.769531 24 12.960938 23.550781 C 13.089844 23.265625 13.214844 23.007812 13.375 22.71875 C 13.695312 22.144531 14.113281 21.632812 14.558594 21.183594 Z M 21.246094 14.59375 "/>
</g>
</svg>
