<svg role="img" viewBox="0 0 32 32" xmlns="http://www.w3.org/2000/svg"><path d="M25.922 14.016a5.753 5.753 0 0 0-2.692.992c.036.289.067.578.067.894a7.326 7.326 0 0 1-7.328 7.328c-.32 0-.61-.03-.899-.062-.574.832-.957 1.793-1.054 2.816v.032c0 .382-.063.738-.094 1.12l-.035.415h-.032a5.83 5.83 0 0 1-.222.8l.8 3.458h3.169l.894-3.872c1.567-.32 3.008-.93 4.29-1.792l3.359 2.113 2.238-2.242-2.145-3.36a11.808 11.808 0 0 0 1.793-4.289l3.871-.894v-3.168l-3.422-.77c-.832.29-1.664.45-2.558.48m-21.824 4.29c.636-.192 1.215-.258 1.789-.352.61-.098 1.152-.16 1.633-.351.418-.16.8-.356 1.183-.579-.031-.382-.062-.734-.062-1.12 0-2.016.832-3.84 2.144-5.184 1.344-1.313 3.168-2.145 5.184-2.145.383 0 .734.035 1.086.098a5.68 5.68 0 0 0 .93-2.527c0-.832.16-1.665.413-2.434L17.566 0h-3.168l-.894 3.871c-1.566.32-3.008.93-4.29 1.793L5.825 3.52 3.586 5.762l2.11 3.36c-.833 1.276-1.473 2.718-1.794 4.284l-3.84.899v3.168l3.81.863c.066 0 .16 0 .226-.031m17.148-3.711a7.363 7.363 0 0 1 1.602-1.219 7.277 7.277 0 0 1 3.007-.96c.48 0 .961-.063 1.442-.192a6.093 6.093 0 0 0 2.59-1.344 6.22 6.22 0 0 0 2.082-5.375.472.472 0 0 0-.801-.29L28.93 7.458a2.087 2.087 0 0 1-2.977 0l-1.41-1.41a2.087 2.087 0 0 1 0-2.977L26.785.832c.285-.289.094-.734-.289-.8a6.066 6.066 0 0 0-5.09 1.792 6.081 6.081 0 0 0-1.504 2.434 5.99 5.99 0 0 0-.316 1.98 7.134 7.134 0 0 1-.93 2.883 7.323 7.323 0 0 1-1.215 1.598l-6.687 6.687c-.32.32-.64.61-.992.832-.196.13-.418.258-.61.387-.418.223-.863.445-1.312.574-.735.258-1.442.32-2.207.387-.45.031-.899.125-1.344.254a5.96 5.96 0 0 0-2.496 1.535A6.231 6.231 0 0 0 0 26.465c.031.383.512.543.8.289l2.24-2.242a2.087 2.087 0 0 1 2.976 0l1.41 1.41c.832.832.832 2.14 0 2.973l-2.242 2.242c-.29.289-.094.734.289.8a6.187 6.187 0 0 0 5.375-2.082c.609-.703 1.054-1.503 1.28-2.398.095-.32.161-.64.192-.96.063-.544.094-1.056.192-1.567.097-.48.258-.93.449-1.38.129-.284.254-.542.414-.831a7.177 7.177 0 0 1 1.184-1.535Zm0 0" style="stroke:none;fill-rule:nonzero;fill:rgb(25.098041%,25.098041%,25.490198%);fill-opacity:1"/></svg>