<svg role="img" viewBox="0 0 32 32" xmlns="http://www.w3.org/2000/svg"><path d="M27.602 1.836 22.8 6.633l-1.422-1.418a2.803 2.803 0 0 0-3.957 0l-4.024 4.02-.214-.22a1.683 1.683 0 0 0-2.368 0 1.677 1.677 0 0 0-.464 1.407c-.075-.008-.149-.02-.227-.02-.43 0-.855.164-1.18.489a1.676 1.676 0 0 0 0 2.367l.215.215-4.02 4.02a2.808 2.808 0 0 0 0 3.96l1.423 1.422-4.801 4.797 2.566 2.566 4.797-4.8 1.422 1.421a2.808 2.808 0 0 0 3.96 0l4.02-4.023.215.219a1.683 1.683 0 0 0 2.367 0c.383-.383.532-.907.465-1.407a1.68 1.68 0 0 0 1.41-.464 1.683 1.683 0 0 0 0-2.368l-.218-.214 4.02-4.024a2.803 2.803 0 0 0 0-3.957L25.366 9.2l4.797-4.8Zm0 1.129 1.433 1.433-4.8 4.801 1.984 1.989a1.992 1.992 0 0 1 0 2.828l-4.032 4.03a.4.4 0 0 0-.54.54l-.014.016.785.78a.868.868 0 0 1 0 1.235.868.868 0 0 1-1.234 0l-9.801-9.8a.868.868 0 0 1 0-1.235.868.868 0 0 1 1.234 0l.695.7.086.085.016-.015a.4.4 0 0 0 .54-.54l4.03-4.03a1.992 1.992 0 0 1 2.828 0l1.989 1.984Zm-4 5.035a.401.401 0 1 0-.003.802.401.401 0 0 0 .003-.802M14.8 10.8a.401.401 0 1 0-.003.803.401.401 0 0 0 .003-.802m-4.676.4c.223 0 .445.081.617.257l9.801 9.8a.863.863 0 0 1 0 1.231.86.86 0 0 1-1.234 0l-.692-.687-.004-.008-.008-.008-.078-.078-.011.012a.402.402 0 0 0-.59.355.43.43 0 0 0 .05.184l-4.035 4.035a1.992 1.992 0 0 1-2.828 0l-1.988-1.988-4.797 4.8-1.433-1.433 4.8-4.797-1.988-1.988a1.992 1.992 0 0 1 0-2.828l4.031-4.036a.464.464 0 0 0 .188.051.402.402 0 0 0 .355-.59l.012-.011-.059-.059-.015-.016-.012-.011c-.004-.004-.004-.004-.008-.004l-.691-.695a.863.863 0 0 1 0-1.231.86.86 0 0 1 .617-.258M16 12a.4.4 0 0 0 0 .8.401.401 0 0 0 0-.8m1.2 1.2a.401.401 0 1 0 .004.801.401.401 0 0 0-.005-.802m1.198 1.198a.401.401 0 1 0 .005.802.401.401 0 0 0-.005-.802m-7.273.075a.401.401 0 1 0 .005.802.401.401 0 0 0-.005-.802m8.477 1.129a.401.401 0 0 0-.403.398.401.401 0 0 0 .801 0 .4.4 0 0 0-.398-.398m-7.274.07a.401.401 0 1 0-.003.8.401.401 0 0 0 .003-.8M20.8 16.8a.401.401 0 1 0-.003.802.401.401 0 0 0 .003-.802m-7.274.074a.398.398 0 1 0 0 .797c.223 0 .399-.18.399-.399a.395.395 0 0 0-.399-.398m1.2 1.2a.401.401 0 0 0 0 .8c.222 0 .398-.18.398-.402a.395.395 0 0 0-.398-.399m1.199 1.198a.4.4 0 1 0 .003.8.4.4 0 0 0-.003-.8m1.199 1.2a.401.401 0 1 0 .005.802.401.401 0 0 0-.005-.802m-8.797 2.8a.401.401 0 1 0-.003.802.401.401 0 0 0 .003-.802m0 0" style="stroke:none;fill-rule:nonzero;fill:rgb(0%,0%,0%);fill-opacity:1"/></svg>