<?xml version="1.0" encoding="utf-8"?>
<svg xmlns="http://www.w3.org/2000/svg" viewBox="0 0 80 80" fill="#000000"><path d="M 69 4.585938 L 57 16.585938 L 53.449219 13.035156 C 50.722656 10.308594 46.277344 10.308594 43.550781 13.035156 L 33.5 23.085938 L 32.957031 22.542969 C 31.332031 20.917969 28.667969 20.917969 27.042969 22.542969 C 26.089844 23.496094 25.710938 24.808594 25.875 26.058594 C 25.691406 26.035156 25.503906 26.003906 25.316406 26.003906 C 24.242188 26.003906 23.171875 26.414063 22.359375 27.222656 C 20.734375 28.847656 20.734375 31.515625 22.359375 33.140625 L 22.902344 33.683594 L 12.855469 43.734375 C 10.128906 46.457031 10.128906 50.90625 12.855469 53.628906 L 16.40625 57.183594 L 4.40625 69.183594 L 10.816406 75.59375 L 22.816406 63.59375 L 26.367188 67.144531 C 29.09375 69.871094 33.542969 69.871094 36.265625 67.144531 L 46.316406 57.09375 L 46.859375 57.640625 C 48.484375 59.261719 51.148438 59.261719 52.773438 57.640625 C 53.726563 56.683594 54.105469 55.371094 53.9375 54.125 C 55.191406 54.289063 56.503906 53.910156 57.457031 52.957031 C 59.082031 51.332031 59.082031 48.667969 57.457031 47.042969 L 56.914063 46.5 L 66.964844 36.449219 C 69.691406 33.722656 69.691406 29.277344 66.964844 26.550781 L 63.414063 23 L 75.414063 11 Z M 69 7.414063 L 72.585938 11 L 60.585938 23 L 65.550781 27.964844 C 67.511719 29.925781 67.511719 33.074219 65.550781 35.035156 L 55.46875 45.117188 C 55.324219 45.039063 55.164063 45 55 45 C 54.449219 45 54 45.449219 54 46 C 54 46.164063 54.039063 46.324219 54.117188 46.46875 L 54.085938 46.5 L 56.042969 48.457031 C 56.902344 49.316406 56.902344 50.683594 56.042969 51.542969 C 55.183594 52.402344 53.816406 52.402344 52.957031 51.542969 L 28.457031 27.042969 C 27.597656 26.183594 27.597656 24.816406 28.457031 23.957031 C 29.316406 23.097656 30.683594 23.097656 31.542969 23.957031 L 33.28125 25.699219 L 33.5 25.914063 L 33.53125 25.882813 C 33.675781 25.960938 33.835938 26 34 26 C 34.550781 26 35 25.550781 35 25 C 35 24.835938 34.960938 24.675781 34.882813 24.53125 L 44.964844 14.449219 C 46.925781 12.488281 50.074219 12.488281 52.035156 14.449219 L 57 19.414063 Z M 59 20 C 58.449219 20 58 20.449219 58 21 C 58 21.550781 58.449219 22 59 22 C 59.550781 22 60 21.550781 60 21 C 60 20.449219 59.550781 20 59 20 Z M 37 27 C 36.449219 27 36 27.449219 36 28 C 36 28.550781 36.449219 29 37 29 C 37.550781 29 38 28.550781 38 28 C 38 27.449219 37.550781 27 37 27 Z M 25.316406 27.996094 C 25.871094 27.996094 26.429688 28.207031 26.859375 28.640625 L 51.359375 53.140625 C 52.21875 54 52.21875 55.363281 51.359375 56.222656 C 50.5 57.085938 49.132813 57.085938 48.273438 56.222656 L 46.546875 54.5 L 46.535156 54.484375 C 46.527344 54.476563 46.519531 54.46875 46.511719 54.464844 L 46.316406 54.265625 L 46.285156 54.296875 C 46.140625 54.222656 45.980469 54.183594 45.816406 54.183594 C 45.265625 54.183594 44.816406 54.628906 44.816406 55.183594 C 44.820313 55.34375 44.859375 55.503906 44.9375 55.648438 L 34.855469 65.734375 C 32.894531 67.691406 29.742188 67.691406 27.78125 65.734375 L 22.816406 60.765625 L 10.816406 72.765625 L 7.234375 69.183594 L 19.234375 57.183594 L 18.527344 56.472656 L 14.265625 52.21875 C 12.308594 50.257813 12.308594 47.105469 14.265625 45.144531 L 24.347656 35.0625 C 24.492188 35.140625 24.65625 35.179688 24.816406 35.183594 C 25.371094 35.183594 25.816406 34.734375 25.816406 34.183594 C 25.816406 34.019531 25.777344 33.855469 25.699219 33.714844 L 25.730469 33.683594 L 25.582031 33.535156 C 25.574219 33.523438 25.5625 33.511719 25.550781 33.5 L 25.515625 33.464844 C 25.511719 33.460938 25.503906 33.457031 25.5 33.453125 L 23.773438 31.722656 C 22.914063 30.863281 22.914063 29.5 23.773438 28.640625 C 24.203125 28.207031 24.761719 27.996094 25.316406 27.996094 Z M 40 30 C 39.449219 30 39 30.449219 39 31 C 39 31.550781 39.449219 32 40 32 C 40.550781 32 41 31.550781 41 31 C 41 30.449219 40.550781 30 40 30 Z M 43 33 C 42.449219 33 42 33.449219 42 34 C 42 34.550781 42.449219 35 43 35 C 43.550781 35 44 34.550781 44 34 C 44 33.449219 43.550781 33 43 33 Z M 46 36 C 45.449219 36 45 36.449219 45 37 C 45 37.550781 45.449219 38 46 38 C 46.550781 38 47 37.550781 47 37 C 47 36.449219 46.550781 36 46 36 Z M 27.816406 36.183594 C 27.265625 36.183594 26.816406 36.628906 26.816406 37.183594 C 26.816406 37.734375 27.265625 38.183594 27.816406 38.183594 C 28.371094 38.183594 28.816406 37.734375 28.816406 37.183594 C 28.816406 36.628906 28.371094 36.183594 27.816406 36.183594 Z M 49 39 C 48.449219 39 48 39.449219 48 40 C 48 40.550781 48.449219 41 49 41 C 49.550781 41 50 40.550781 50 40 C 50 39.449219 49.550781 39 49 39 Z M 30.816406 39.183594 C 30.265625 39.183594 29.816406 39.628906 29.816406 40.183594 C 29.816406 40.734375 30.265625 41.183594 30.816406 41.183594 C 31.371094 41.183594 31.816406 40.734375 31.816406 40.183594 C 31.816406 39.628906 31.371094 39.183594 30.816406 39.183594 Z M 52 42 C 51.449219 42 51 42.449219 51 43 C 51 43.550781 51.449219 44 52 44 C 52.550781 44 53 43.550781 53 43 C 53 42.449219 52.550781 42 52 42 Z M 33.816406 42.183594 C 33.265625 42.183594 32.816406 42.628906 32.816406 43.183594 C 32.816406 43.734375 33.265625 44.183594 33.816406 44.183594 C 34.371094 44.183594 34.816406 43.734375 34.816406 43.183594 C 34.816406 42.628906 34.371094 42.183594 33.816406 42.183594 Z M 36.816406 45.183594 C 36.265625 45.183594 35.816406 45.628906 35.816406 46.183594 C 35.816406 46.734375 36.265625 47.183594 36.816406 47.183594 C 37.371094 47.183594 37.816406 46.734375 37.816406 46.183594 C 37.816406 45.628906 37.371094 45.183594 36.816406 45.183594 Z M 39.816406 48.183594 C 39.265625 48.183594 38.816406 48.628906 38.816406 49.183594 C 38.816406 49.734375 39.265625 50.183594 39.816406 50.183594 C 40.371094 50.183594 40.816406 49.734375 40.816406 49.183594 C 40.816406 48.628906 40.371094 48.183594 39.816406 48.183594 Z M 42.816406 51.183594 C 42.265625 51.183594 41.816406 51.628906 41.816406 52.183594 C 41.816406 52.734375 42.265625 53.183594 42.816406 53.183594 C 43.371094 53.183594 43.816406 52.734375 43.816406 52.183594 C 43.816406 51.628906 43.371094 51.183594 42.816406 51.183594 Z M 20.816406 58.183594 C 20.265625 58.183594 19.816406 58.628906 19.816406 59.183594 C 19.816406 59.734375 20.265625 60.183594 20.816406 60.183594 C 21.371094 60.183594 21.816406 59.734375 21.816406 59.183594 C 21.816406 58.628906 21.371094 58.183594 20.816406 58.183594 Z" fill="#000000"/></svg>
