<?xml version="1.0" encoding="UTF-8"?>
<svg xmlns="http://www.w3.org/2000/svg" xmlns:xlink="http://www.w3.org/1999/xlink" width="32" height="32" viewBox="0 0 32 32" version="1.1">
<g id="surface1">
<path style=" stroke:none;fill-rule:nonzero;fill:rgb(0%,0%,0%);fill-opacity:1;" d="M 27.601562 1.835938 L 22.800781 6.632812 L 21.378906 5.214844 C 20.285156 4.125 18.515625 4.125 17.421875 5.214844 L 13.398438 9.234375 L 13.183594 9.015625 C 12.527344 8.367188 11.472656 8.367188 10.816406 9.015625 C 10.449219 9.386719 10.277344 9.90625 10.351562 10.421875 C 10.277344 10.414062 10.203125 10.402344 10.125 10.402344 C 9.695312 10.402344 9.269531 10.566406 8.945312 10.890625 C 8.292969 11.546875 8.292969 12.605469 8.945312 13.257812 L 9.160156 13.472656 L 5.140625 17.492188 C 4.050781 18.589844 4.050781 20.359375 5.140625 21.453125 L 6.5625 22.875 L 1.761719 27.671875 L 4.328125 30.238281 L 9.125 25.4375 L 10.546875 26.859375 C 11.640625 27.949219 13.410156 27.949219 14.507812 26.859375 L 18.527344 22.835938 L 18.742188 23.054688 C 19.398438 23.703125 20.453125 23.703125 21.109375 23.054688 C 21.492188 22.671875 21.640625 22.148438 21.574219 21.648438 C 22.089844 21.71875 22.609375 21.550781 22.984375 21.183594 C 23.632812 20.527344 23.632812 19.472656 22.984375 18.816406 L 22.765625 18.601562 L 26.785156 14.578125 C 27.875 13.484375 27.875 11.714844 26.785156 10.621094 L 25.367188 9.199219 L 30.164062 4.398438 Z M 27.601562 2.964844 L 29.035156 4.398438 L 24.234375 9.199219 L 26.21875 11.1875 C 26.597656 11.5625 26.808594 12.070312 26.808594 12.601562 C 26.808594 13.132812 26.597656 13.640625 26.21875 14.015625 L 22.1875 18.046875 C 22.03125 17.964844 21.84375 17.992188 21.71875 18.117188 C 21.59375 18.242188 21.566406 18.429688 21.648438 18.585938 L 21.632812 18.601562 L 22.417969 19.382812 C 22.582031 19.546875 22.675781 19.765625 22.675781 20 C 22.675781 20.230469 22.582031 20.453125 22.417969 20.617188 C 22.253906 20.78125 22.03125 20.875 21.800781 20.875 C 21.570312 20.875 21.347656 20.78125 21.183594 20.617188 L 11.382812 10.816406 C 11.21875 10.652344 11.125 10.429688 11.125 10.199219 C 11.125 9.96875 11.21875 9.746094 11.382812 9.582031 C 11.546875 9.417969 11.769531 9.324219 12 9.324219 C 12.230469 9.324219 12.453125 9.417969 12.617188 9.582031 L 13.3125 10.28125 L 13.398438 10.367188 L 13.414062 10.351562 C 13.570312 10.433594 13.757812 10.40625 13.882812 10.28125 C 14.007812 10.15625 14.035156 9.96875 13.953125 9.8125 L 17.984375 5.78125 C 18.359375 5.40625 18.867188 5.191406 19.398438 5.191406 C 19.929688 5.191406 20.4375 5.40625 20.8125 5.78125 L 22.800781 7.765625 Z M 23.601562 8 C 23.378906 8 23.199219 8.179688 23.199219 8.398438 C 23.199219 8.621094 23.378906 8.800781 23.597656 8.800781 C 23.820312 8.804688 24 8.625 24 8.402344 C 24.003906 8.179688 23.824219 8 23.601562 8 M 14.800781 10.800781 C 14.578125 10.800781 14.398438 10.976562 14.398438 11.199219 C 14.394531 11.421875 14.574219 11.601562 14.796875 11.601562 C 15.019531 11.605469 15.199219 11.425781 15.199219 11.203125 C 15.199219 10.980469 15.019531 10.800781 14.800781 10.800781 M 10.125 11.199219 C 10.347656 11.199219 10.570312 11.28125 10.742188 11.457031 L 20.542969 21.257812 C 20.707031 21.421875 20.800781 21.640625 20.800781 21.875 C 20.800781 22.105469 20.707031 22.328125 20.542969 22.488281 C 20.378906 22.65625 20.15625 22.75 19.925781 22.75 C 19.691406 22.75 19.46875 22.65625 19.308594 22.488281 L 18.617188 21.800781 L 18.613281 21.792969 L 18.527344 21.707031 L 18.515625 21.71875 C 18.390625 21.652344 18.242188 21.660156 18.121094 21.730469 C 18 21.804688 17.925781 21.933594 17.925781 22.074219 C 17.925781 22.140625 17.945312 22.203125 17.976562 22.257812 L 13.941406 26.292969 C 13.566406 26.671875 13.058594 26.882812 12.527344 26.882812 C 11.996094 26.882812 11.484375 26.671875 11.113281 26.292969 L 9.125 24.304688 L 4.328125 29.105469 L 2.894531 27.671875 L 7.695312 22.875 L 5.707031 20.886719 C 5.328125 20.515625 5.117188 20.003906 5.117188 19.472656 C 5.117188 18.941406 5.328125 18.433594 5.707031 18.058594 L 9.738281 14.023438 C 9.796875 14.054688 9.859375 14.070312 9.925781 14.074219 C 10.066406 14.074219 10.195312 14 10.269531 13.878906 C 10.339844 13.757812 10.347656 13.609375 10.28125 13.484375 L 10.292969 13.472656 L 10.207031 13.386719 C 10.203125 13.382812 10.203125 13.382812 10.199219 13.382812 L 9.507812 12.6875 C 9.34375 12.527344 9.25 12.304688 9.25 12.074219 C 9.25 11.84375 9.34375 11.621094 9.507812 11.457031 C 9.667969 11.292969 9.890625 11.199219 10.125 11.199219 M 16 12 C 15.777344 12 15.601562 12.179688 15.601562 12.398438 C 15.601562 12.621094 15.777344 12.800781 16 12.800781 C 16.210938 12.785156 16.371094 12.609375 16.371094 12.398438 C 16.371094 12.191406 16.210938 12.015625 16 12 M 17.199219 13.199219 C 17.050781 13.195312 16.914062 13.269531 16.835938 13.394531 C 16.761719 13.523438 16.761719 13.683594 16.839844 13.808594 C 16.914062 13.933594 17.054688 14.007812 17.203125 14 C 17.425781 14 17.605469 13.820312 17.601562 13.597656 C 17.601562 13.375 17.421875 13.199219 17.199219 13.199219 M 18.398438 14.398438 C 18.175781 14.398438 17.996094 14.578125 18 14.800781 C 18 15.023438 18.179688 15.199219 18.402344 15.199219 C 18.625 15.199219 18.800781 15.015625 18.800781 14.796875 C 18.800781 14.574219 18.617188 14.394531 18.398438 14.398438 M 11.125 14.472656 C 10.902344 14.472656 10.722656 14.652344 10.726562 14.875 C 10.726562 15.097656 10.90625 15.273438 11.128906 15.273438 C 11.351562 15.273438 11.527344 15.09375 11.527344 14.871094 C 11.527344 14.648438 11.34375 14.46875 11.125 14.472656 M 19.601562 15.601562 C 19.378906 15.601562 19.199219 15.777344 19.199219 16 C 19.207031 16.210938 19.386719 16.378906 19.597656 16.378906 C 19.8125 16.378906 19.988281 16.210938 20 16 C 19.996094 15.78125 19.820312 15.601562 19.601562 15.601562 M 12.328125 15.671875 C 12.175781 15.660156 12.035156 15.734375 11.957031 15.859375 C 11.878906 15.988281 11.875 16.148438 11.953125 16.277344 C 12.03125 16.40625 12.175781 16.480469 12.324219 16.472656 C 12.535156 16.457031 12.699219 16.28125 12.699219 16.074219 C 12.699219 15.863281 12.535156 15.6875 12.328125 15.671875 M 20.800781 16.800781 C 20.578125 16.800781 20.398438 16.976562 20.398438 17.199219 C 20.398438 17.421875 20.574219 17.601562 20.796875 17.601562 C 21.019531 17.601562 21.199219 17.425781 21.199219 17.203125 C 21.199219 16.980469 21.019531 16.800781 20.800781 16.800781 M 13.527344 16.875 C 13.304688 16.875 13.128906 17.050781 13.128906 17.273438 C 13.128906 17.492188 13.304688 17.671875 13.527344 17.671875 C 13.75 17.671875 13.925781 17.492188 13.925781 17.273438 C 13.925781 17.167969 13.882812 17.0625 13.808594 16.988281 C 13.734375 16.914062 13.632812 16.871094 13.527344 16.875 M 14.726562 18.074219 C 14.515625 18.089844 14.351562 18.261719 14.351562 18.472656 C 14.351562 18.683594 14.515625 18.859375 14.726562 18.875 C 14.949219 18.875 15.125 18.695312 15.125 18.472656 C 15.125 18.367188 15.082031 18.265625 15.007812 18.1875 C 14.933594 18.113281 14.832031 18.070312 14.726562 18.074219 M 15.925781 19.269531 C 15.703125 19.273438 15.527344 19.453125 15.527344 19.671875 C 15.527344 19.894531 15.707031 20.070312 15.929688 20.070312 C 16.148438 20.070312 16.328125 19.890625 16.328125 19.667969 C 16.324219 19.449219 16.144531 19.269531 15.925781 19.269531 M 17.125 20.472656 C 16.902344 20.472656 16.722656 20.652344 16.726562 20.875 C 16.726562 21.097656 16.90625 21.273438 17.128906 21.273438 C 17.351562 21.273438 17.527344 21.089844 17.527344 20.871094 C 17.527344 20.648438 17.34375 20.46875 17.125 20.472656 M 8.328125 23.269531 C 8.105469 23.269531 7.925781 23.449219 7.925781 23.671875 C 7.921875 23.890625 8.101562 24.070312 8.324219 24.074219 C 8.546875 24.074219 8.726562 23.894531 8.726562 23.671875 C 8.726562 23.453125 8.546875 23.273438 8.328125 23.269531 M 8.328125 23.269531 "/>
</g>
</svg>
