<?xml version="1.0" encoding="UTF-8"?>
<svg xmlns="http://www.w3.org/2000/svg" xmlns:xlink="http://www.w3.org/1999/xlink" width="32" height="32" viewBox="0 0 32 32" version="1.1">
<g id="surface1">
<path style=" stroke:none;fill-rule:nonzero;fill:rgb(0%,0%,0%);fill-opacity:1;" d="M 27.601562 1.835938 L 22.800781 6.632812 L 21.378906 5.214844 C 20.289062 4.125 18.511719 4.125 17.421875 5.214844 L 13.398438 9.234375 L 13.183594 9.015625 C 12.53125 8.367188 11.46875 8.367188 10.816406 9.015625 C 10.4375 9.398438 10.285156 9.921875 10.351562 10.421875 C 10.277344 10.414062 10.203125 10.402344 10.125 10.402344 C 9.695312 10.402344 9.269531 10.566406 8.945312 10.890625 C 8.292969 11.539062 8.292969 12.605469 8.945312 13.257812 L 9.160156 13.472656 L 5.140625 17.492188 C 4.050781 18.582031 4.050781 20.363281 5.140625 21.453125 L 6.5625 22.875 L 1.761719 27.671875 L 4.328125 30.238281 L 9.125 25.4375 L 10.546875 26.859375 C 11.636719 27.949219 13.417969 27.949219 14.507812 26.859375 L 18.527344 22.835938 L 18.742188 23.054688 C 19.394531 23.703125 20.460938 23.703125 21.109375 23.054688 C 21.492188 22.671875 21.640625 22.148438 21.574219 21.648438 C 22.078125 21.714844 22.601562 21.5625 22.984375 21.183594 C 23.632812 20.53125 23.632812 19.46875 22.984375 18.816406 L 22.765625 18.601562 L 26.785156 14.578125 C 27.875 13.488281 27.875 11.710938 26.785156 10.621094 L 25.367188 9.199219 L 30.164062 4.398438 Z M 27.601562 2.964844 L 29.035156 4.398438 L 24.234375 9.199219 L 26.21875 11.1875 C 27.003906 11.96875 27.003906 13.230469 26.21875 14.015625 L 22.1875 18.046875 C 22.128906 18.015625 22.066406 18 22 18 C 21.78125 18 21.601562 18.179688 21.601562 18.398438 C 21.601562 18.464844 21.617188 18.53125 21.648438 18.585938 L 21.632812 18.601562 L 22.417969 19.382812 C 22.761719 19.726562 22.761719 20.273438 22.417969 20.617188 C 22.074219 20.960938 21.527344 20.960938 21.183594 20.617188 L 11.382812 10.816406 C 11.039062 10.472656 11.039062 9.925781 11.382812 9.582031 C 11.726562 9.238281 12.273438 9.238281 12.617188 9.582031 L 13.3125 10.28125 L 13.398438 10.367188 L 13.414062 10.351562 C 13.46875 10.382812 13.535156 10.398438 13.601562 10.398438 C 13.820312 10.398438 14 10.21875 14 10 C 14 9.933594 13.984375 9.871094 13.953125 9.8125 L 17.984375 5.78125 C 18.769531 4.996094 20.03125 4.996094 20.8125 5.78125 L 22.800781 7.765625 Z M 23.601562 8 C 23.378906 8 23.199219 8.179688 23.199219 8.398438 C 23.199219 8.621094 23.378906 8.800781 23.601562 8.800781 C 23.820312 8.800781 24 8.621094 24 8.398438 C 24 8.179688 23.820312 8 23.601562 8 Z M 14.800781 10.800781 C 14.578125 10.800781 14.398438 10.980469 14.398438 11.199219 C 14.398438 11.421875 14.578125 11.601562 14.800781 11.601562 C 15.019531 11.601562 15.199219 11.421875 15.199219 11.199219 C 15.199219 10.980469 15.019531 10.800781 14.800781 10.800781 Z M 10.125 11.199219 C 10.347656 11.199219 10.570312 11.28125 10.742188 11.457031 L 20.542969 21.257812 C 20.886719 21.601562 20.886719 22.144531 20.542969 22.488281 C 20.199219 22.835938 19.652344 22.835938 19.308594 22.488281 L 18.617188 21.800781 L 18.613281 21.792969 C 18.609375 21.789062 18.609375 21.789062 18.605469 21.785156 L 18.527344 21.707031 L 18.515625 21.71875 C 18.457031 21.6875 18.390625 21.671875 18.328125 21.671875 C 18.105469 21.671875 17.925781 21.851562 17.925781 22.074219 C 17.929688 22.136719 17.945312 22.203125 17.976562 22.257812 L 13.941406 26.292969 C 13.15625 27.078125 11.898438 27.078125 11.113281 26.292969 L 9.125 24.304688 L 4.328125 29.105469 L 2.894531 27.671875 L 7.695312 22.875 L 5.707031 20.886719 C 4.921875 20.101562 4.921875 18.84375 5.707031 18.058594 L 9.738281 14.023438 C 9.796875 14.054688 9.863281 14.070312 9.925781 14.074219 C 10.148438 14.074219 10.328125 13.894531 10.328125 13.671875 C 10.328125 13.609375 10.3125 13.542969 10.28125 13.484375 L 10.292969 13.472656 L 10.234375 13.414062 C 10.230469 13.410156 10.226562 13.40625 10.21875 13.398438 L 10.207031 13.386719 C 10.203125 13.382812 10.203125 13.382812 10.199219 13.382812 L 9.507812 12.6875 C 9.164062 12.34375 9.164062 11.800781 9.507812 11.457031 C 9.679688 11.28125 9.90625 11.199219 10.125 11.199219 Z M 16 12 C 15.78125 12 15.601562 12.179688 15.601562 12.398438 C 15.601562 12.621094 15.78125 12.800781 16 12.800781 C 16.21875 12.800781 16.398438 12.621094 16.398438 12.398438 C 16.398438 12.179688 16.21875 12 16 12 Z M 17.199219 13.199219 C 16.980469 13.199219 16.800781 13.378906 16.800781 13.601562 C 16.800781 13.820312 16.980469 14 17.199219 14 C 17.421875 14 17.601562 13.820312 17.601562 13.601562 C 17.601562 13.378906 17.421875 13.199219 17.199219 13.199219 Z M 18.398438 14.398438 C 18.179688 14.398438 18 14.578125 18 14.800781 C 18 15.019531 18.179688 15.199219 18.398438 15.199219 C 18.621094 15.199219 18.800781 15.019531 18.800781 14.800781 C 18.800781 14.578125 18.621094 14.398438 18.398438 14.398438 Z M 11.125 14.472656 C 10.90625 14.472656 10.726562 14.652344 10.726562 14.875 C 10.726562 15.09375 10.90625 15.273438 11.125 15.273438 C 11.347656 15.273438 11.527344 15.09375 11.527344 14.875 C 11.527344 14.652344 11.347656 14.472656 11.125 14.472656 Z M 19.601562 15.601562 C 19.378906 15.601562 19.199219 15.78125 19.199219 16 C 19.199219 16.21875 19.378906 16.398438 19.601562 16.398438 C 19.820312 16.398438 20 16.21875 20 16 C 20 15.78125 19.820312 15.601562 19.601562 15.601562 Z M 12.328125 15.671875 C 12.105469 15.671875 11.925781 15.851562 11.925781 16.074219 C 11.925781 16.292969 12.105469 16.472656 12.328125 16.472656 C 12.546875 16.472656 12.726562 16.292969 12.726562 16.074219 C 12.726562 15.851562 12.546875 15.671875 12.328125 15.671875 Z M 20.800781 16.800781 C 20.578125 16.800781 20.398438 16.980469 20.398438 17.199219 C 20.398438 17.421875 20.578125 17.601562 20.800781 17.601562 C 21.019531 17.601562 21.199219 17.421875 21.199219 17.199219 C 21.199219 16.980469 21.019531 16.800781 20.800781 16.800781 Z M 13.527344 16.875 C 13.304688 16.875 13.125 17.050781 13.125 17.273438 C 13.125 17.492188 13.304688 17.671875 13.527344 17.671875 C 13.75 17.671875 13.925781 17.492188 13.925781 17.273438 C 13.925781 17.050781 13.75 16.875 13.527344 16.875 Z M 14.726562 18.074219 C 14.507812 18.074219 14.328125 18.25 14.328125 18.472656 C 14.328125 18.695312 14.507812 18.875 14.726562 18.875 C 14.949219 18.875 15.125 18.695312 15.125 18.472656 C 15.125 18.25 14.949219 18.074219 14.726562 18.074219 Z M 15.925781 19.273438 C 15.707031 19.273438 15.527344 19.453125 15.527344 19.671875 C 15.527344 19.894531 15.707031 20.074219 15.925781 20.074219 C 16.148438 20.074219 16.328125 19.894531 16.328125 19.671875 C 16.328125 19.453125 16.148438 19.273438 15.925781 19.273438 Z M 17.125 20.472656 C 16.90625 20.472656 16.726562 20.652344 16.726562 20.875 C 16.726562 21.09375 16.90625 21.273438 17.125 21.273438 C 17.347656 21.273438 17.527344 21.09375 17.527344 20.875 C 17.527344 20.652344 17.347656 20.472656 17.125 20.472656 Z M 8.328125 23.273438 C 8.105469 23.273438 7.925781 23.453125 7.925781 23.671875 C 7.925781 23.894531 8.105469 24.074219 8.328125 24.074219 C 8.546875 24.074219 8.726562 23.894531 8.726562 23.671875 C 8.726562 23.453125 8.546875 23.273438 8.328125 23.273438 Z M 8.328125 23.273438 "/>
</g>
</svg>
