<svg role="img" viewBox="0 0 32 32" xmlns="http://www.w3.org/2000/svg"><path d="M1.82 1.922C.816 1.922 0 2.734 0 3.738v2.66h32v-2.66a1.819 1.819 0 0 0-1.82-1.816ZM0 7.68v21.76c0 .356.29.637.64.637h30.72c.355 0 .64-.281.64-.637V7.68Zm9.66 5.101a.59.59 0 0 1 .442.18l4.238 4.36L10 21.558a.62.62 0 0 1-.441.18.637.637 0 0 1-.457-.2.628.628 0 0 1 0-.898l3.437-3.34-3.34-3.442a.635.635 0 0 1 0-.898.639.639 0 0 1 .461-.18m5.059 7.7h8.32c.356 0 .64.285.64.64 0 .356-.284.64-.64.64h-8.32a.641.641 0 0 1 0-1.28m0 0" style="stroke:none;fill-rule:nonzero;fill:rgb(0%,0%,0%);fill-opacity:1"/></svg>