<svg role="img" viewBox="0 0 33.524 32" xmlns="http://www.w3.org/2000/svg"><path d="M16.05 19.184a3.365 3.365 0 0 1-3.37-3.352 3.365 3.365 0 0 1 3.351-3.371 3.363 3.363 0 0 1 3.383 3.34 3.364 3.364 0 0 1-3.363 3.379" style="stroke:none;fill-rule:nonzero;fill:rgb(58.823532%,11.372549%,34.901962%);fill-opacity:1"/><path d="M22.602 17.355a1.55 1.55 0 1 1 0-3.101c.859 0 1.554.695 1.554 1.55 0 .415-.164.81-.457 1.098a1.52 1.52 0 0 1-1.097.453m5.68 1.465a1.49 1.49 0 0 1-1.833.985 1.488 1.488 0 0 1 .766-2.875c.785.191 1.27.976 1.098 1.765 0 .043 0 .078-.032.121m-1.097-3.992a1.549 1.549 0 0 1-1.625-.586 1.568 1.568 0 0 1-.075-1.73c.328-.54.95-.828 1.575-.727a1.547 1.547 0 0 1 1.27 1.18c.038.2.038.406 0 .605a1.496 1.496 0 0 1-1.169 1.262m5.555 3.824a1.554 1.554 0 0 1-3.059-.539 1.55 1.55 0 0 1 1.797-1.258c.8.125 1.371.844 1.309 1.653a.41.41 0 0 0-.032.137m-1.28-3.887a1.55 1.55 0 0 1-1.782-1.274c-.14-.843.43-1.64 1.273-1.777a1.547 1.547 0 0 1 1.782 1.27c.015.132.015.27 0 .402a1.539 1.539 0 0 1-1.274 1.379m-1.082 9.262a1.573 1.573 0 0 1-2.879-1.223 1.575 1.575 0 0 1 3.075.594 1.379 1.379 0 0 1-.196.636m-.558-14.25a1.556 1.556 0 0 1-1.527-2.71 1.56 1.56 0 0 1 2.12.593c.16.27.227.586.192.899-.047.504-.34.957-.782 1.207M16.114 31.434A15.615 15.615 0 0 1 2.387 23.71a15.576 15.576 0 0 1 0-15.734A15.612 15.612 0 0 1 16.113.257a15.455 15.455 0 0 1 9.473 3.22L23.68 5.96a12.483 12.483 0 0 0-13.094-1.277 12.459 12.459 0 0 0-6.95 11.164c0 4.734 2.696 9.062 6.946 11.164a12.49 12.49 0 0 0 13.098-1.266l1.902 2.488a15.48 15.48 0 0 1-9.477 3.2Zm0 0" style="stroke:none;fill-rule:nonzero;fill:rgb(83.92157%,15.294118%,51.372552%);fill-opacity:1"/></svg>