<?xml version="1.0" encoding="UTF-8"?>
<svg xmlns="http://www.w3.org/2000/svg" xmlns:xlink="http://www.w3.org/1999/xlink" width="33.523998" height="32" viewBox="0 0 33.523998 32" version="1.1">
<g id="surface1">
<path style=" stroke:none;fill-rule:nonzero;fill:rgb(58.823532%,11.372549%,34.901962%);fill-opacity:1;" d="M 16.050781 19.183594 C 14.195312 19.1875 12.6875 17.6875 12.679688 15.832031 C 12.675781 13.976562 14.175781 12.46875 16.03125 12.460938 C 17.886719 12.449219 19.402344 13.945312 19.414062 15.800781 C 19.417969 16.695312 19.066406 17.554688 18.433594 18.1875 C 17.804688 18.824219 16.945312 19.179688 16.050781 19.179688 "/>
<path style=" stroke:none;fill-rule:nonzero;fill:rgb(83.92157%,15.294118%,51.372552%);fill-opacity:1;" d="M 22.601562 17.355469 C 21.746094 17.355469 21.050781 16.660156 21.050781 15.804688 C 21.050781 14.949219 21.746094 14.253906 22.601562 14.253906 C 23.460938 14.253906 24.15625 14.949219 24.15625 15.804688 C 24.15625 16.21875 23.992188 16.613281 23.699219 16.902344 C 23.410156 17.195312 23.015625 17.359375 22.601562 17.355469 M 28.28125 18.820312 C 28.039062 19.589844 27.226562 20.027344 26.449219 19.804688 C 25.671875 19.578125 25.21875 18.773438 25.425781 17.992188 C 25.632812 17.210938 26.429688 16.738281 27.214844 16.929688 C 28 17.121094 28.484375 17.90625 28.3125 18.695312 C 28.3125 18.738281 28.3125 18.773438 28.28125 18.816406 M 27.183594 14.824219 C 26.574219 14.976562 25.929688 14.746094 25.558594 14.238281 C 25.1875 13.730469 25.160156 13.046875 25.484375 12.507812 C 25.8125 11.96875 26.433594 11.679688 27.058594 11.78125 C 27.683594 11.878906 28.1875 12.34375 28.328125 12.960938 C 28.367188 13.160156 28.367188 13.367188 28.328125 13.566406 C 28.246094 14.191406 27.777344 14.695312 27.160156 14.828125 M 32.714844 18.652344 C 32.542969 19.472656 31.75 20.003906 30.925781 19.859375 C 30.101562 19.714844 29.539062 18.941406 29.65625 18.113281 C 29.726562 17.707031 29.957031 17.347656 30.292969 17.113281 C 30.628906 16.875 31.046875 16.785156 31.453125 16.855469 C 32.253906 16.980469 32.824219 17.699219 32.761719 18.507812 C 32.742188 18.550781 32.734375 18.597656 32.730469 18.644531 M 31.449219 14.757812 C 30.605469 14.898438 29.808594 14.328125 29.667969 13.484375 C 29.527344 12.640625 30.097656 11.84375 30.941406 11.707031 C 31.785156 11.566406 32.582031 12.132812 32.722656 12.976562 C 32.738281 13.109375 32.738281 13.246094 32.722656 13.378906 C 32.660156 14.074219 32.136719 14.640625 31.449219 14.757812 M 30.367188 24.019531 C 29.976562 24.722656 29.117188 25.015625 28.378906 24.703125 C 27.636719 24.386719 27.253906 23.566406 27.488281 22.796875 C 27.722656 22.027344 28.503906 21.5625 29.292969 21.714844 C 30.082031 21.867188 30.628906 22.589844 30.5625 23.390625 C 30.550781 23.617188 30.484375 23.835938 30.367188 24.027344 M 29.808594 9.777344 C 29.0625 10.167969 28.144531 9.894531 27.730469 9.164062 C 27.316406 8.429688 27.5625 7.5 28.28125 7.066406 C 29.03125 6.648438 29.980469 6.914062 30.402344 7.660156 C 30.5625 7.929688 30.628906 8.246094 30.59375 8.558594 C 30.546875 9.0625 30.253906 9.515625 29.8125 9.765625 M 16.113281 31.433594 C 10.480469 31.523438 5.234375 28.574219 2.386719 23.710938 C -0.457031 18.851562 -0.457031 12.835938 2.386719 7.976562 C 5.234375 3.113281 10.480469 0.164062 16.113281 0.257812 C 19.539062 0.25 22.871094 1.382812 25.585938 3.476562 L 23.679688 5.960938 C 19.910156 3.082031 14.839844 2.585938 10.585938 4.683594 C 6.335938 6.777344 3.640625 11.105469 3.636719 15.847656 C 3.636719 20.582031 6.332031 24.910156 10.582031 27.011719 C 14.835938 29.109375 19.910156 28.621094 23.679688 25.746094 L 25.582031 28.234375 C 22.863281 30.320312 19.53125 31.445312 16.105469 31.433594 Z M 16.113281 31.433594 "/>
</g>
</svg>
