<?xml version="1.0" encoding="UTF-8"?>
<svg xmlns="http://www.w3.org/2000/svg" xmlns:xlink="http://www.w3.org/1999/xlink" width="32" height="32" viewBox="0 0 32 32" version="1.1">
<g id="surface1">
<path style=" stroke:none;fill-rule:nonzero;fill:rgb(0%,0%,0%);fill-opacity:1;" d="M 1.820312 1.921875 C 0.816406 1.921875 0 2.734375 0 3.738281 L 0 6.398438 L 32 6.398438 L 32 3.738281 C 32 2.734375 31.183594 1.921875 30.179688 1.921875 Z M 0 7.679688 L 0 29.441406 C 0 29.796875 0.289062 30.078125 0.640625 30.078125 L 31.359375 30.078125 C 31.714844 30.078125 32 29.796875 32 29.441406 L 32 7.679688 Z M 9.660156 12.78125 C 9.824219 12.777344 9.988281 12.839844 10.101562 12.960938 L 14.339844 17.320312 L 10 21.558594 C 9.882812 21.675781 9.722656 21.738281 9.558594 21.738281 C 9.386719 21.734375 9.222656 21.664062 9.101562 21.539062 C 8.980469 21.417969 8.914062 21.257812 8.914062 21.089844 C 8.914062 20.921875 8.980469 20.757812 9.101562 20.640625 L 12.539062 17.300781 L 9.199219 13.859375 C 8.949219 13.609375 8.949219 13.207031 9.199219 12.960938 C 9.320312 12.839844 9.488281 12.777344 9.660156 12.78125 M 14.71875 20.480469 L 23.039062 20.480469 C 23.394531 20.480469 23.679688 20.765625 23.679688 21.121094 C 23.679688 21.476562 23.394531 21.761719 23.039062 21.761719 L 14.71875 21.761719 C 14.378906 21.742188 14.113281 21.460938 14.113281 21.121094 C 14.113281 20.78125 14.378906 20.5 14.71875 20.480469 M 14.71875 20.480469 "/>
</g>
</svg>
