<svg role="img" viewBox="0 0 32 32" xmlns="http://www.w3.org/2000/svg"><path d="M8.32.64a.639.639 0 0 0-.64.641V3.2h1.28V1.281a.64.64 0 0 0-.64-.64m5.121 0a.639.639 0 0 0-.64.641V3.2h1.277V1.281a.638.638 0 0 0-.637-.64m5.118 0a.638.638 0 0 0-.637.641V3.2h1.277V1.281a.639.639 0 0 0-.64-.64m5.12 0a.641.641 0 0 0-.64.641V3.2h1.281V1.281a.639.639 0 0 0-.64-.64M5.763 3.84A1.92 1.92 0 0 0 3.84 5.762v20.476a1.92 1.92 0 0 0 1.922 1.922h20.476a1.92 1.92 0 0 0 1.922-1.922V5.762a1.92 1.92 0 0 0-1.922-1.922ZM7.68 6.398a1.282 1.282 0 1 1-.002 2.564 1.282 1.282 0 0 1 .002-2.564M1.28 7.68a.641.641 0 0 0 0 1.281H3.2V7.68Zm27.52 0v1.28h1.918a.641.641 0 0 0 0-1.28ZM1.28 12.8a.639.639 0 1 0 0 1.278H3.2v-1.277Zm27.52 0v1.278h1.918a.638.638 0 1 0 0-1.277ZM1.28 17.923a.638.638 0 1 0 0 1.277H3.2v-1.277Zm27.52 0V19.2h1.918a.639.639 0 1 0 0-1.277ZM1.28 23.039a.641.641 0 0 0 0 1.281H3.2v-1.28Zm23.04 0a1.282 1.282 0 1 1-.002 2.564 1.282 1.282 0 0 1 .001-2.564m4.48 0v1.281h1.918a.641.641 0 0 0 0-1.281ZM7.68 28.801v1.918c0 .355.285.64.64.64.356 0 .64-.285.64-.64V28.8Zm5.12 0v1.918a.639.639 0 1 0 1.278 0V28.8Zm5.122 0v1.918a.638.638 0 1 0 1.277 0V28.8Zm5.117 0v1.918c0 .355.285.64.64.64a.638.638 0 0 0 .641-.64V28.8Zm0 0" style="stroke:none;fill-rule:nonzero;fill:rgb(0%,0%,0%);fill-opacity:1"/></svg>