<?xml version="1.0" encoding="UTF-8"?>
<svg xmlns="http://www.w3.org/2000/svg" xmlns:xlink="http://www.w3.org/1999/xlink" width="32" height="32" viewBox="0 0 32 32" version="1.1">
<g id="surface1">
<path style=" stroke:none;fill-rule:nonzero;fill:rgb(0%,0%,0%);fill-opacity:1;" d="M 8.320312 0.640625 C 7.964844 0.640625 7.679688 0.925781 7.679688 1.28125 L 7.679688 3.199219 L 8.960938 3.199219 L 8.960938 1.28125 C 8.960938 0.925781 8.671875 0.640625 8.320312 0.640625 Z M 13.441406 0.640625 C 13.085938 0.640625 12.800781 0.925781 12.800781 1.28125 L 12.800781 3.199219 L 14.078125 3.199219 L 14.078125 1.28125 C 14.078125 0.925781 13.792969 0.640625 13.441406 0.640625 Z M 18.558594 0.640625 C 18.207031 0.640625 17.921875 0.925781 17.921875 1.28125 L 17.921875 3.199219 L 19.199219 3.199219 L 19.199219 1.28125 C 19.199219 0.925781 18.914062 0.640625 18.558594 0.640625 Z M 23.679688 0.640625 C 23.328125 0.640625 23.039062 0.925781 23.039062 1.28125 L 23.039062 3.199219 L 24.320312 3.199219 L 24.320312 1.28125 C 24.320312 0.925781 24.035156 0.640625 23.679688 0.640625 Z M 5.761719 3.839844 C 4.699219 3.839844 3.839844 4.699219 3.839844 5.761719 L 3.839844 26.238281 C 3.839844 27.300781 4.699219 28.160156 5.761719 28.160156 L 26.238281 28.160156 C 27.300781 28.160156 28.160156 27.300781 28.160156 26.238281 L 28.160156 5.761719 C 28.160156 4.699219 27.300781 3.839844 26.238281 3.839844 Z M 7.679688 6.398438 C 8.386719 6.398438 8.960938 6.972656 8.960938 7.679688 C 8.960938 8.386719 8.386719 8.960938 7.679688 8.960938 C 6.972656 8.960938 6.398438 8.386719 6.398438 7.679688 C 6.398438 6.972656 6.972656 6.398438 7.679688 6.398438 Z M 1.28125 7.679688 C 0.925781 7.679688 0.640625 7.964844 0.640625 8.320312 C 0.640625 8.671875 0.925781 8.960938 1.28125 8.960938 L 3.199219 8.960938 L 3.199219 7.679688 Z M 28.800781 7.679688 L 28.800781 8.960938 L 30.71875 8.960938 C 31.074219 8.960938 31.359375 8.671875 31.359375 8.320312 C 31.359375 7.964844 31.074219 7.679688 30.71875 7.679688 Z M 1.28125 12.800781 C 0.925781 12.800781 0.640625 13.085938 0.640625 13.441406 C 0.640625 13.792969 0.925781 14.078125 1.28125 14.078125 L 3.199219 14.078125 L 3.199219 12.800781 Z M 28.800781 12.800781 L 28.800781 14.078125 L 30.71875 14.078125 C 31.074219 14.078125 31.359375 13.792969 31.359375 13.441406 C 31.359375 13.085938 31.074219 12.800781 30.71875 12.800781 Z M 1.28125 17.921875 C 0.925781 17.921875 0.640625 18.207031 0.640625 18.558594 C 0.640625 18.914062 0.925781 19.199219 1.28125 19.199219 L 3.199219 19.199219 L 3.199219 17.921875 Z M 28.800781 17.921875 L 28.800781 19.199219 L 30.71875 19.199219 C 31.074219 19.199219 31.359375 18.914062 31.359375 18.558594 C 31.359375 18.207031 31.074219 17.921875 30.71875 17.921875 Z M 1.28125 23.039062 C 0.925781 23.039062 0.640625 23.328125 0.640625 23.679688 C 0.640625 24.035156 0.925781 24.320312 1.28125 24.320312 L 3.199219 24.320312 L 3.199219 23.039062 Z M 24.320312 23.039062 C 25.027344 23.039062 25.601562 23.613281 25.601562 24.320312 C 25.601562 25.027344 25.027344 25.601562 24.320312 25.601562 C 23.613281 25.601562 23.039062 25.027344 23.039062 24.320312 C 23.039062 23.613281 23.613281 23.039062 24.320312 23.039062 Z M 28.800781 23.039062 L 28.800781 24.320312 L 30.71875 24.320312 C 31.074219 24.320312 31.359375 24.035156 31.359375 23.679688 C 31.359375 23.328125 31.074219 23.039062 30.71875 23.039062 Z M 7.679688 28.800781 L 7.679688 30.71875 C 7.679688 31.074219 7.964844 31.359375 8.320312 31.359375 C 8.675781 31.359375 8.960938 31.074219 8.960938 30.71875 L 8.960938 28.800781 Z M 12.800781 28.800781 L 12.800781 30.71875 C 12.800781 31.074219 13.085938 31.359375 13.441406 31.359375 C 13.792969 31.359375 14.078125 31.074219 14.078125 30.71875 L 14.078125 28.800781 Z M 17.921875 28.800781 L 17.921875 30.71875 C 17.921875 31.074219 18.207031 31.359375 18.558594 31.359375 C 18.914062 31.359375 19.199219 31.074219 19.199219 30.71875 L 19.199219 28.800781 Z M 23.039062 28.800781 L 23.039062 30.71875 C 23.039062 31.074219 23.324219 31.359375 23.679688 31.359375 C 24.035156 31.359375 24.320312 31.074219 24.320312 30.71875 L 24.320312 28.800781 Z M 23.039062 28.800781 "/>
</g>
</svg>
