<svg role="img" viewBox="0 0 900 900" data-name="Layer 1" xmlns="http://www.w3.org/2000/svg" xmlns:xlink="http://www.w3.org/1999/xlink"><defs><clipPath id="a"><path class="cls-1" d="M447.73 309.78a46.76 46.76 0 0 0-46.76 46.76v440.04a46.76 46.76 0 0 0 93.52 0V356.55a46.756 46.756 0 0 0-46.76-46.77"/></clipPath><clipPath id="b"><path class="cls-1" d="M142.32 97.05h606.11v606.11H142.32z"/></clipPath><clipPath id="c"><path class="cls-1" d="m148.157 565.68 462.712-462.712L749.121 241.22 286.41 703.932z"/></clipPath><clipPath id="d"><path class="cls-1" d="M-22.38-67.66h639.05v639.05H-22.38z"/></clipPath><clipPath id="e"><path class="cls-1" d="m-22.387 395.063 462.72-462.72L610.87 102.882l-462.72 462.72z"/></clipPath><clipPath id="f"><path class="cls-1" d="M280.67 235.4h606.11v606.11H280.67z"/></clipPath><clipPath id="g"><path class="cls-1" d="M286.09 703.543 748.807 240.81 885.86 377.857 423.143 840.59z"/></clipPath><clipPath id="h"><path class="cls-1" d="m412.96 670.01 81.54 82.89v-82.89z"/></clipPath></defs><g style="clip-path:url(#a)"><path d="M368.03 276.84h159.41v599.44H368.03z" style="fill:#f7d186"/></g><g class="cls-4" style="clip-path:url(#b)"><g class="cls-5" style="clip-path:url(#c)"><path class="cls-8" d="M115.65 70.37h665.66v665.66H115.65z" style="fill:#ffcd3c"/></g></g><g class="cls-4" style="clip-path:url(#d)"><g class="cls-5" style="clip-path:url(#e)"><path class="cls-8" d="M-55.33-100.6h699.14v699.14H-55.33z" style="fill:#f3807b"/></g></g><g class="cls-4" style="clip-path:url(#f)"><g class="cls-5" style="clip-path:url(#g)"><path class="cls-8" d="M253.14 207.87H918.8v665.66H253.14z" style="fill:#35d0ba"/></g></g><g style="clip-path:url(#h)"><path d="M380.69 636.91h147.03v147.67H380.69z" style="fill:#d8ae64"/></g></svg>