<svg xmlns:xlink="http://www.w3.org/1999/xlink" role="img" viewBox="0 0 34.276 32" xmlns="http://www.w3.org/2000/svg"><defs><path d="M0 0h35v32H0z" id="a"/><path d="M0 0h34.276v32H0z" id="c"/><path d="M31.086 23.844a4.732 4.732 0 0 1-2.2-.54 6.22 6.22 0 0 1-4.98 3.731 5.115 5.115 0 0 1-.734.047c-3.149 0-5.785-2.352-6.168-5.484-.012-.082-.024-.172-.043-.266a8.269 8.269 0 0 0-2.883-4.875c.496.094 1.004.14 1.531.14 1.672 0 3.403-.484 5.153-1.417 0 0 .011 0 .011-.012l.024-.012a.365.365 0 0 0 .07-.047s.54-.332 1.383-.53c.043-.013.078-.013.125-.013.23-.02.473-.043.715-.043 1.59 0 3.066.633 4.207 1.657a4.757 4.757 0 0 1 3.8-1.899c.083 0 .176.012.255.012a10.733 10.733 0 0 0-2.075-1.961c-1.703-1.371-3.652-2.074-5.773-2.074-1.68 0-3.457.472-4.758 1.27-.773.413-1.937.898-3.125.898-1.105 0-2.016-.414-2.754-1.27-.62-.726-.965-1.601-.976-2.535.054-.98.46-1.902 1.14-2.57a3.928 3.928 0 0 1 2.778-1.14c1.058 0 2.062.417 2.796 1.163.278.29.52.614.704.957a2.129 2.129 0 0 0 1.902 1.153c.348 0 .68-.082.992-.243a2.134 2.134 0 0 0 .91-2.878 7.944 7.944 0 0 0-1.453-1.985A8.135 8.135 0 0 0 15.828.66c-1.933 0-3.824.68-5.3 1.922a2.69 2.69 0 0 0-.285.254c-.024.023-.06.047-.083.082l-.035.035c-.035.024-.059.059-.09.078l-.058.059a5.7 5.7 0 0 0-.426.473l-.047.035c-.024.035-.059.058-.082.093a7.73 7.73 0 0 0-1.715 4.493c-.094 2.074.621 4.101 2.016 5.714.289.325.586.625.898.891a8.468 8.468 0 0 0-2.707-.129C3.406 15.191.18 19.293.723 23.797a8.22 8.22 0 0 0 11.511 6.535 2.142 2.142 0 0 0 1.082-2.824 2.133 2.133 0 0 0-2.808-1.082c-.36.16-.75.265-1.14.312-.165.024-.313.024-.473.024a3.948 3.948 0 0 1-3.102-6.387 3.885 3.885 0 0 1 2.64-1.473c.16-.023.31-.023.473-.023 1.992 0 3.688 1.496 3.918 3.469l.031.242a10.493 10.493 0 0 0 3.575 6.277 10.475 10.475 0 0 0 8.008 2.422c4.496-.543 8-3.86 8.976-8.031a4.856 4.856 0 0 1-2.328.586m0 0" id="e"/><path d="M33.645 19.074a2.56 2.56 0 1 1-5.115-.002 2.56 2.56 0 0 1 5.115.002m0 0" id="g"/><radialGradient cx="243.658" cy="64.42" fx="243.658" fy="64.42" gradientTransform="translate(-.176 -1.07)scale(.11524)" gradientUnits="userSpaceOnUse" id="h" r="264.601"><stop offset="0" style="stop-color:rgb(100%,94.117647%,0%);stop-opacity:1"/><stop offset="1" style="stop-color:rgb(96.078432%,56.862748%,11.764706%);stop-opacity:1"/></radialGradient><radialGradient cx="245.652" cy="64.416" fx="245.652" fy="64.416" gradientTransform="translate(-.176 -1.07)scale(.11524)" gradientUnits="userSpaceOnUse" id="k" r="264.712"><stop offset="0" style="stop-color:rgb(100%,94.117647%,0%);stop-opacity:1"/><stop offset="1" style="stop-color:rgb(96.078432%,56.862748%,11.764706%);stop-opacity:1"/></radialGradient><clipPath id="d"><use xlink:href="#a"/></clipPath><clipPath id="f"><use xlink:href="#a"/></clipPath><mask id="j"><g filter="url(#b)"><use xlink:href="#c" style="fill:rgb(0%,0%,0%);fill-opacity:0.6;stroke:none"/></g></mask><mask id="m"><g filter="url(#b)"><use xlink:href="#c" style="fill:rgb(0%,0%,0%);fill-opacity:0.6;stroke:none"/></g></mask><g clip-path="url(#d)" id="i"><use xlink:href="#e" style="stroke:none;fill-rule:nonzero;fill:rgb(96.470588%,57.254905%,11.764706%);fill-opacity:1"/></g><g clip-path="url(#f)" id="l"><use xlink:href="#g" style="stroke:none;fill-rule:nonzero;fill:rgb(96.470588%,57.254905%,11.764706%);fill-opacity:1"/></g><filter filterUnits="objectBoundingBox" height="100%" id="b" width="100%" x="0%" y="0%"><feColorMatrix in="SourceGraphic" values="0 0 0 0 1 0 0 0 0 1 0 0 0 0 1 0 0 0 1 0"/></filter></defs><use xlink:href="#e" style="stroke:none;fill-rule:nonzero;fill:url(#h)"/><use xlink:href="#i" mask="url(#j)"/><use xlink:href="#g" style="stroke:none;fill-rule:nonzero;fill:url(#k)"/><use xlink:href="#l" mask="url(#m)"/></svg>