<?xml version="1.0" encoding="UTF-8"?>
<svg xmlns="http://www.w3.org/2000/svg" xmlns:xlink="http://www.w3.org/1999/xlink" width="34.275919" height="32" viewBox="0 0 34.275919 32" version="1.1">
<defs>
<radialGradient id="radial0" gradientUnits="userSpaceOnUse" cx="243.658005" cy="64.419998" fx="243.658005" fy="64.419998" r="264.601013" gradientTransform="matrix(0.115236,0,0,0.115236,-0.176312,-1.069394)">
<stop offset="0" style="stop-color:rgb(100%,94.117647%,0%);stop-opacity:1;"/>
<stop offset="1" style="stop-color:rgb(96.078432%,56.862748%,11.764706%);stop-opacity:1;"/>
</radialGradient>
<filter id="alpha" filterUnits="objectBoundingBox" x="0%" y="0%" width="100%" height="100%">
  <feColorMatrix type="matrix" in="SourceGraphic" values="0 0 0 0 1 0 0 0 0 1 0 0 0 0 1 0 0 0 1 0"/>
</filter>
<mask id="mask0">
  <g filter="url(#alpha)">
<rect x="0" y="0" width="34.275919" height="32" style="fill:rgb(0%,0%,0%);fill-opacity:0.6;stroke:none;"/>
  </g>
</mask>
<clipPath id="clip1">
  <rect x="0" y="0" width="35" height="32"/>
</clipPath>
<g id="surface5" clip-path="url(#clip1)">
<path style=" stroke:none;fill-rule:nonzero;fill:rgb(96.470588%,57.254905%,11.764706%);fill-opacity:1;" d="M 31.085938 23.84375 C 30.292969 23.84375 29.542969 23.648438 28.886719 23.304688 C 28.046875 25.273438 26.191406 26.761719 23.90625 27.035156 C 23.667969 27.070312 23.414062 27.082031 23.171875 27.082031 C 20.023438 27.082031 17.386719 24.730469 17.003906 21.597656 C 16.992188 21.515625 16.980469 21.425781 16.960938 21.332031 C 16.589844 19.363281 15.542969 17.65625 14.078125 16.457031 C 14.574219 16.550781 15.082031 16.597656 15.609375 16.597656 C 17.28125 16.597656 19.011719 16.113281 20.761719 15.179688 C 20.761719 15.179688 20.773438 15.179688 20.773438 15.167969 L 20.796875 15.15625 C 20.820312 15.144531 20.855469 15.121094 20.867188 15.109375 C 20.867188 15.109375 21.40625 14.777344 22.25 14.578125 C 22.292969 14.566406 22.328125 14.566406 22.375 14.566406 C 22.605469 14.546875 22.847656 14.523438 23.089844 14.523438 C 24.679688 14.523438 26.15625 15.15625 27.296875 16.179688 C 28.171875 15.027344 29.542969 14.28125 31.097656 14.28125 C 31.179688 14.28125 31.273438 14.292969 31.351562 14.292969 C 30.75 13.550781 30.054688 12.890625 29.277344 12.332031 C 27.574219 10.960938 25.625 10.257812 23.503906 10.257812 C 21.824219 10.257812 20.046875 10.730469 18.746094 11.527344 C 17.972656 11.941406 16.808594 12.425781 15.621094 12.425781 C 14.515625 12.425781 13.605469 12.011719 12.867188 11.15625 C 12.246094 10.429688 11.902344 9.554688 11.890625 8.621094 C 11.945312 7.640625 12.351562 6.71875 13.03125 6.050781 C 13.777344 5.316406 14.757812 4.910156 15.808594 4.910156 C 16.867188 4.910156 17.871094 5.328125 18.605469 6.074219 C 18.882812 6.363281 19.125 6.6875 19.308594 7.03125 C 19.679688 7.746094 20.40625 8.183594 21.210938 8.183594 C 21.558594 8.183594 21.890625 8.101562 22.203125 7.941406 C 23.25 7.402344 23.65625 6.109375 23.113281 5.0625 C 22.734375 4.324219 22.238281 3.65625 21.660156 3.078125 C 20.105469 1.511719 18.042969 0.660156 15.828125 0.660156 C 13.894531 0.660156 12.003906 1.339844 10.527344 2.582031 C 10.507812 2.59375 10.460938 2.628906 10.425781 2.664062 C 10.355469 2.722656 10.296875 2.78125 10.242188 2.835938 C 10.21875 2.859375 10.183594 2.882812 10.160156 2.917969 L 10.125 2.953125 C 10.089844 2.976562 10.066406 3.011719 10.035156 3.03125 L 9.976562 3.089844 C 9.828125 3.242188 9.6875 3.390625 9.550781 3.5625 L 9.503906 3.597656 C 9.480469 3.632812 9.445312 3.65625 9.421875 3.691406 C 8.386719 4.980469 7.785156 6.535156 7.707031 8.183594 C 7.613281 10.257812 8.328125 12.285156 9.722656 13.898438 C 10.011719 14.222656 10.308594 14.523438 10.621094 14.789062 C 9.757812 14.601562 8.824219 14.558594 7.914062 14.660156 C 3.40625 15.191406 0.179688 19.292969 0.722656 23.796875 C 1.21875 27.9375 4.722656 31.046875 8.882812 31.046875 C 9.203125 31.046875 9.539062 31.023438 9.859375 30.988281 C 10.691406 30.886719 11.484375 30.667969 12.234375 30.332031 C 13.304688 29.847656 13.800781 28.59375 13.316406 27.507812 C 12.972656 26.738281 12.210938 26.242188 11.371094 26.242188 C 11.070312 26.242188 10.78125 26.300781 10.507812 26.425781 C 10.148438 26.585938 9.757812 26.691406 9.367188 26.738281 C 9.203125 26.761719 9.054688 26.761719 8.894531 26.761719 C 6.898438 26.761719 5.207031 25.261719 4.976562 23.28125 C 4.847656 22.230469 5.148438 21.207031 5.792969 20.375 C 6.449219 19.546875 7.382812 19.015625 8.433594 18.902344 C 8.59375 18.878906 8.742188 18.878906 8.90625 18.878906 C 10.898438 18.878906 12.59375 20.375 12.824219 22.347656 L 12.855469 22.589844 C 13.261719 25.03125 14.527344 27.253906 16.429688 28.867188 C 18.320312 30.472656 20.726562 31.359375 23.195312 31.359375 C 23.609375 31.359375 24.023438 31.335938 24.4375 31.289062 C 28.933594 30.746094 32.4375 27.429688 33.414062 23.257812 C 32.710938 23.636719 31.929688 23.84375 31.085938 23.84375 Z M 31.085938 23.84375 "/>
</g>
<radialGradient id="radial1" gradientUnits="userSpaceOnUse" cx="245.651993" cy="64.416" fx="245.651993" fy="64.416" r="264.712006" gradientTransform="matrix(0.115236,0,0,0.115236,-0.176312,-1.069394)">
<stop offset="0" style="stop-color:rgb(100%,94.117647%,0%);stop-opacity:1;"/>
<stop offset="1" style="stop-color:rgb(96.078432%,56.862748%,11.764706%);stop-opacity:1;"/>
</radialGradient>
<mask id="mask1">
  <g filter="url(#alpha)">
<rect x="0" y="0" width="34.275919" height="32" style="fill:rgb(0%,0%,0%);fill-opacity:0.6;stroke:none;"/>
  </g>
</mask>
<clipPath id="clip2">
  <rect x="0" y="0" width="35" height="32"/>
</clipPath>
<g id="surface8" clip-path="url(#clip2)">
<path style=" stroke:none;fill-rule:nonzero;fill:rgb(96.470588%,57.254905%,11.764706%);fill-opacity:1;" d="M 33.644531 19.074219 C 33.644531 20.488281 32.5 21.632812 31.085938 21.632812 C 29.675781 21.632812 28.527344 20.488281 28.527344 19.074219 C 28.527344 17.660156 29.675781 16.515625 31.085938 16.515625 C 32.5 16.515625 33.644531 17.660156 33.644531 19.074219 Z M 33.644531 19.074219 "/>
</g>
</defs>
<g id="surface1">
<path style=" stroke:none;fill-rule:nonzero;fill:url(#radial0);" d="M 31.085938 23.84375 C 30.292969 23.84375 29.542969 23.648438 28.886719 23.304688 C 28.046875 25.273438 26.191406 26.761719 23.90625 27.035156 C 23.667969 27.070312 23.414062 27.082031 23.171875 27.082031 C 20.023438 27.082031 17.386719 24.730469 17.003906 21.597656 C 16.992188 21.515625 16.980469 21.425781 16.960938 21.332031 C 16.589844 19.363281 15.542969 17.65625 14.078125 16.457031 C 14.574219 16.550781 15.082031 16.597656 15.609375 16.597656 C 17.28125 16.597656 19.011719 16.113281 20.761719 15.179688 C 20.761719 15.179688 20.773438 15.179688 20.773438 15.167969 L 20.796875 15.15625 C 20.820312 15.144531 20.855469 15.121094 20.867188 15.109375 C 20.867188 15.109375 21.40625 14.777344 22.25 14.578125 C 22.292969 14.566406 22.328125 14.566406 22.375 14.566406 C 22.605469 14.546875 22.847656 14.523438 23.089844 14.523438 C 24.679688 14.523438 26.15625 15.15625 27.296875 16.179688 C 28.171875 15.027344 29.542969 14.28125 31.097656 14.28125 C 31.179688 14.28125 31.273438 14.292969 31.351562 14.292969 C 30.75 13.550781 30.054688 12.890625 29.277344 12.332031 C 27.574219 10.960938 25.625 10.257812 23.503906 10.257812 C 21.824219 10.257812 20.046875 10.730469 18.746094 11.527344 C 17.972656 11.941406 16.808594 12.425781 15.621094 12.425781 C 14.515625 12.425781 13.605469 12.011719 12.867188 11.15625 C 12.246094 10.429688 11.902344 9.554688 11.890625 8.621094 C 11.945312 7.640625 12.351562 6.71875 13.03125 6.050781 C 13.777344 5.316406 14.757812 4.910156 15.808594 4.910156 C 16.867188 4.910156 17.871094 5.328125 18.605469 6.074219 C 18.882812 6.363281 19.125 6.6875 19.308594 7.03125 C 19.679688 7.746094 20.40625 8.183594 21.210938 8.183594 C 21.558594 8.183594 21.890625 8.101562 22.203125 7.941406 C 23.25 7.402344 23.65625 6.109375 23.113281 5.0625 C 22.734375 4.324219 22.238281 3.65625 21.660156 3.078125 C 20.105469 1.511719 18.042969 0.660156 15.828125 0.660156 C 13.894531 0.660156 12.003906 1.339844 10.527344 2.582031 C 10.507812 2.59375 10.460938 2.628906 10.425781 2.664062 C 10.355469 2.722656 10.296875 2.78125 10.242188 2.835938 C 10.21875 2.859375 10.183594 2.882812 10.160156 2.917969 L 10.125 2.953125 C 10.089844 2.976562 10.066406 3.011719 10.035156 3.03125 L 9.976562 3.089844 C 9.828125 3.242188 9.6875 3.390625 9.550781 3.5625 L 9.503906 3.597656 C 9.480469 3.632812 9.445312 3.65625 9.421875 3.691406 C 8.386719 4.980469 7.785156 6.535156 7.707031 8.183594 C 7.613281 10.257812 8.328125 12.285156 9.722656 13.898438 C 10.011719 14.222656 10.308594 14.523438 10.621094 14.789062 C 9.757812 14.601562 8.824219 14.558594 7.914062 14.660156 C 3.40625 15.191406 0.179688 19.292969 0.722656 23.796875 C 1.21875 27.9375 4.722656 31.046875 8.882812 31.046875 C 9.203125 31.046875 9.539062 31.023438 9.859375 30.988281 C 10.691406 30.886719 11.484375 30.667969 12.234375 30.332031 C 13.304688 29.847656 13.800781 28.59375 13.316406 27.507812 C 12.972656 26.738281 12.210938 26.242188 11.371094 26.242188 C 11.070312 26.242188 10.78125 26.300781 10.507812 26.425781 C 10.148438 26.585938 9.757812 26.691406 9.367188 26.738281 C 9.203125 26.761719 9.054688 26.761719 8.894531 26.761719 C 6.898438 26.761719 5.207031 25.261719 4.976562 23.28125 C 4.847656 22.230469 5.148438 21.207031 5.792969 20.375 C 6.449219 19.546875 7.382812 19.015625 8.433594 18.902344 C 8.59375 18.878906 8.742188 18.878906 8.90625 18.878906 C 10.898438 18.878906 12.59375 20.375 12.824219 22.347656 L 12.855469 22.589844 C 13.261719 25.03125 14.527344 27.253906 16.429688 28.867188 C 18.320312 30.472656 20.726562 31.359375 23.195312 31.359375 C 23.609375 31.359375 24.023438 31.335938 24.4375 31.289062 C 28.933594 30.746094 32.4375 27.429688 33.414062 23.257812 C 32.710938 23.636719 31.929688 23.84375 31.085938 23.84375 Z M 31.085938 23.84375 "/>
<use xlink:href="#surface5" transform="matrix(1,0,0,1,0,0)" mask="url(#mask0)"/>
<path style=" stroke:none;fill-rule:nonzero;fill:url(#radial1);" d="M 33.644531 19.074219 C 33.644531 20.488281 32.5 21.632812 31.085938 21.632812 C 29.675781 21.632812 28.527344 20.488281 28.527344 19.074219 C 28.527344 17.660156 29.675781 16.515625 31.085938 16.515625 C 32.5 16.515625 33.644531 17.660156 33.644531 19.074219 Z M 33.644531 19.074219 "/>
<use xlink:href="#surface8" transform="matrix(1,0,0,1,0,0)" mask="url(#mask1)"/>
</g>
</svg>
