<svg role="img" viewBox="0 0 96 96" fill="none" xmlns="http://www.w3.org/2000/svg"><g clip-path="url(#a)"><defs><linearGradient gradientUnits="userSpaceOnUse" id="c" x1="38.045" x2="56.658" y1="-1" y2="47.723"><stop stop-color="#0B53CE"/><stop offset="1" stop-color="#7252AA"/></linearGradient><linearGradient gradientUnits="userSpaceOnUse" id="f" x1="64.138" x2="64.138" y1="93.492" y2="35.415"><stop stop-color="#2266E3"/><stop offset="1" stop-color="#AE7FE2"/></linearGradient><linearGradient gradientUnits="userSpaceOnUse" id="g" x1="82" x2="62.076" y1="56.786" y2="56.786"><stop stop-color="#94B9FF"/><stop offset=".288" stop-color="#94B9FF" stop-opacity=".524"/><stop offset="1" stop-color="#538FFF" stop-opacity="0"/></linearGradient><filter id="d"><feFlood flood-opacity="0" result="BackgroundImageFix"/><feBlend in="SourceGraphic" in2="BackgroundImageFix" result="shape"/><feGaussianBlur result="effect1_foregroundBlur" stdDeviation=".4"/></filter><filter id="e"><feFlood flood-opacity="0" result="BackgroundImageFix"/><feBlend in="SourceGraphic" in2="BackgroundImageFix" result="shape"/><feGaussianBlur result="effect1_foregroundBlur" stdDeviation="4"/></filter><clipPath id="a"><path d="M0 0h96v96H0z" fill="white"/></clipPath></defs><mask height="96" id="b" mask-type="alpha" maskUnits="userSpaceOnUse" width="70" x="12" y="0"><path d="M82 31.047a10 10 0 0 0-6.637-9.417L17.345.909C14.74-.021 12 1.909 12 4.676v31.505a4 4 0 0 0 2.655 3.767l26 9.286c2.605.93 5.345-1.001 5.345-3.767v-18.09a2 2 0 0 1 2.704-1.872l6.818 2.566A10 10 0 0 1 62 37.43v7.878L32.627 56.04A4 4 0 0 0 30 59.797V91.28c0 2.778 2.763 4.71 5.373 3.757L75.432 80.4A10 10 0 0 0 82 71.007z" fill="white"/></mask><g mask="url(#b)"><path d="m12-1 70 25v34.325c0 2.765-2.74 4.697-5.345 3.767L62 56.859V37.424a10 10 0 0 0-6.483-9.361l-6.814-2.56A2 2 0 0 0 46 27.375v23.768L12 39z" fill="url(#c)"/><g filter="url(#d)"><path d="M82 31.4c0 4.2-2.624 7.959-6.568 9.4L30 57.4v40l52-19z" fill="black" fill-opacity=".24"/></g><g filter="url(#e)"><path d="M82 33c0 4.2-2.624 7.959-6.568 9.4L30 59v40l52-19z" fill="black" fill-opacity=".32"/></g><path d="M82 31c0 4.2-2.624 7.959-6.568 9.4L30 57v40l52-19z" fill="url(#f)"/><path d="M82 31c0 4.2-2.624 7.959-6.568 9.4L30 57v40l52-19z" fill="url(#g)" opacity=".5"/><path d="m62.001 45.32-16.009 5.857v23.458a2 2 0 0 0 2.705 1.872l6.827-2.57a10 10 0 0 0 6.477-9.36z" fill="#B0ADFF" opacity=".5"/></g></g></svg>