<svg width="12" height="14" viewBox="0 0 12 14" fill="none" xmlns="http://www.w3.org/2000/svg">
<path d="M0.666748 3.66667V10.3333C0.666748 11.8061 3.05456 13 6.00008 13C8.9456 13 11.3334 11.8061 11.3334 10.3333V3.66667M0.666748 3.66667C0.666748 5.13943 3.05456 6.33333 6.00008 6.33333C8.9456 6.33333 11.3334 5.13943 11.3334 3.66667M0.666748 3.66667C0.666748 2.19391 3.05456 1 6.00008 1C8.9456 1 11.3334 2.19391 11.3334 3.66667M11.3334 7C11.3334 8.47276 8.9456 9.66667 6.00008 9.66667C3.05456 9.66667 0.666748 8.47276 0.666748 7" stroke="#A4A4A4" stroke-width="1.33333"/>
</svg>
