<svg xmlns="http://www.w3.org/2000/svg" xmlns:xlink="http://www.w3.org/1999/xlink" viewBox="0 0 48 48"><defs><linearGradient id="a" x1="4.72" y1="32.65" x2="44.79" y2="21.91" gradientUnits="userSpaceOnUse"><stop offset="0.6" stop-color="#fff"/><stop offset="0.97"/></linearGradient><linearGradient id="b" x1="18.97" y1="28.64" x2="33.86" y2="28.64" gradientUnits="userSpaceOnUse"><stop offset="0.03"/><stop offset="0.7" stop-color="#fff"/></linearGradient><mask id="c" x="0.39" y="0.12" width="47.15" height="47.15" maskUnits="userSpaceOnUse"><path d="M44.59,23.69S35.75,11.91,24,11.91,3.34,23.69,3.34,23.69" style="fill:none;stroke:#fff;stroke-linecap:round;stroke-linejoin:round;stroke-width:2.1215277671814px"/><path d="M3.34,23.69S12.18,35.48,24,35.48,44.59,23.69,44.59,23.69" style="fill:none;stroke-linejoin:round;stroke-width:2.1215277671814px;stroke:url(#a)"/><path d="M19.51,31.33A8.84,8.84,0,1,1,32.8,23.69" style="fill:none;stroke:#fff;stroke-linejoin:round;stroke-width:2.1215277671814px"/><path d="M32.8,23.69A8.84,8.84,0,0,1,24,32.53a8.72,8.72,0,0,1-4.45-1.2" style="fill:none;stroke-linejoin:round;stroke-width:2.1215277671814px;stroke:url(#b)"/><circle cx="44.59" cy="23.69" r="1.47"/></mask><linearGradient id="d" x1="0.39" y1="47.27" x2="47.53" y2="0.12" gradientUnits="userSpaceOnUse"><stop offset="0.1" stop-color="#08bdba"/><stop offset="0.9" stop-color="#8a3ffc"/></linearGradient></defs><g style="mask:url(#c)"><rect x="0.39" y="0.12" width="47.15" height="47.15" style="fill:url(#d)"/></g><path d="M28.38,23.69H43.11m-21.38-3.8L14.39,7.28m0,32.83L21.74,27.5m22.85-5.28a1.48,1.48,0,1,0,1.47,1.47A1.47,1.47,0,0,0,44.59,22.22ZM13.65,4.54A1.48,1.48,0,1,0,15.12,6,1.47,1.47,0,0,0,13.65,4.54Zm0,35.36a1.48,1.48,0,1,0,1.47,1.47A1.47,1.47,0,0,0,13.65,39.9ZM24,19.27a4.42,4.42,0,1,0,4.42,4.42A4.42,4.42,0,0,0,24,19.27Z" style="fill:none;stroke:#000;stroke-miterlimit:10;stroke-width:1.0607638835907px"/></svg>