<svg xmlns:xlink="http://www.w3.org/1999/xlink" role="img" viewBox="0 0 32 32" xmlns="http://www.w3.org/2000/svg"><defs><clipPath id="c"><use xlink:href="#a"/></clipPath><clipPath id="e"><use xlink:href="#a"/></clipPath><g clip-path="url(#c)" id="f"><path d="M-.066-.227H32V31.84H-.066Zm0 0" style="stroke:none;fill-rule:nonzero;fill:url(#d)"/></g><g clip-path="url(#e)" id="i"><use xlink:href="#f" mask="url(#g)"/></g><linearGradient gradientTransform="scale(.66667)" gradientUnits="userSpaceOnUse" id="d" x1="-.1" x2="48" y1="47.76" y2="-.34"><stop offset=".1" style="stop-color:rgb(3.137255%,74.117649%,72.941178%);stop-opacity:1"/><stop offset=".9" style="stop-color:rgb(54.11765%,24.705882%,98.823529%);stop-opacity:1"/></linearGradient><filter filterUnits="objectBoundingBox" height="100%" id="h" width="100%" x="0%" y="0%"><feColorMatrix in="SourceGraphic" values="0 0 0 0 1 0 0 0 0 1 0 0 0 0 1 0 0 0 1 0"/></filter><path d="M0 0h32v32H0z" id="a"/><mask id="g"><g filter="url(#h)"><use xlink:href="#b"/></g></mask></defs><use xlink:href="#i"/><path d="m34.47 14.701 3-3-3-3m-24 3c-.005.61.364 1.166.926 1.4.563.24 1.213.112 1.647-.322a1.506 1.506 0 0 0-1.06-2.578 1.51 1.51 0 0 0-1.565 1.488Zm0 24.047a1.515 1.515 0 0 0 .926 1.406 1.51 1.51 0 1 0 .586-2.906 1.51 1.51 0 0 0-1.095.422 1.5 1.5 0 0 0-.469 1.072Zm24 0c0 .832.675 1.506 1.5 1.512a1.51 1.51 0 0 0 .03-3.018 1.503 1.503 0 0 0-1.53 1.5Zm0 0h-21m-1.5-22.547v21.041M37.483 11.69h-24" style="fill:none;stroke-width:1.082244;stroke-linecap:butt;stroke-linejoin:miter;stroke:rgb(0%,0%,0%);stroke-opacity:1;stroke-miterlimit:10" transform="scale(.66667)"/></svg>