<?xml version="1.0" encoding="UTF-8"?>
<svg xmlns="http://www.w3.org/2000/svg" xmlns:xlink="http://www.w3.org/1999/xlink" width="29.767" height="32" viewBox="0 0 29.767 32" version="1.1">
<g id="surface1">
<path style="fill:none;stroke-width:2;stroke-linecap:round;stroke-linejoin:round;stroke:rgb(61.176473%,63.921571%,68.627453%);stroke-opacity:1;stroke-miterlimit:4;" d="M 1.002558 9.500682 L 1.002558 29.499356 C 1.002558 33.91901 8.162188 37.498825 17.001497 37.498825 C 18.381983 37.498825 19.720477 37.414841 21.001232 37.246874 M 1.002558 9.500682 C 1.002558 13.920337 8.162188 17.500152 17.001497 17.500152 C 25.835557 17.500152 33.000436 13.920337 33.000436 9.500682 M 1.002558 9.500682 C 1.002558 5.081028 8.162188 1.501213 17.001497 1.501213 C 25.835557 1.501213 33.000436 5.081028 33.000436 9.500682 M 33.000436 9.500682 L 33.000436 23.499754 M 33.000436 19.500019 C 33.000436 23.919673 25.835557 27.499489 17.001497 27.499489 C 8.162188 27.499489 1.002558 23.919673 1.002558 19.500019 M 33.000436 29.499356 L 33.000436 35.498958 M 33.000436 35.498958 L 33.000436 41.49856 M 33.000436 35.498958 L 39.000038 35.498958 M 33.000436 35.498958 L 27.000834 35.498958 " transform="matrix(0.74419,0,0,0.74419,0,0)"/>
</g>
</svg>
