<?xml version="1.0" encoding="UTF-8"?>
<svg xmlns="http://www.w3.org/2000/svg" xmlns:xlink="http://www.w3.org/1999/xlink" width="27.429001" height="32" viewBox="0 0 27.429001 32" version="1.1">
<g id="surface1">
<path style="fill:none;stroke-width:1.33333;stroke-linecap:butt;stroke-linejoin:miter;stroke:rgb(64.313728%,64.313728%,64.313728%);stroke-opacity:1;stroke-miterlimit:4;" d="M 0.666505 3.667487 L 0.666505 10.332538 C 0.666505 11.805686 3.053961 13.000268 6.000255 13.000268 C 8.944841 13.000268 11.334005 11.805686 11.334005 10.332538 L 11.334005 3.667487 M 0.666505 3.667487 C 0.666505 5.140634 3.053961 6.333508 6.000255 6.333508 C 8.944841 6.333508 11.334005 5.138925 11.334005 3.667487 M 0.666505 3.667487 C 0.666505 2.19434 3.053961 0.999758 6.000255 0.999758 C 8.944841 0.999758 11.334005 2.19434 11.334005 3.667487 M 11.334005 7.000013 C 11.334005 8.47316 8.944841 9.666033 6.000255 9.666033 C 3.053961 9.666033 0.666505 8.47316 0.666505 7.000013 " transform="matrix(2.28571,0,0,2.28571,0,0)"/>
</g>
</svg>
