<svg role="img" viewBox="0 0 29.257 32" xmlns="http://www.w3.org/2000/svg"><path d="m27.137 16.41.77 9.781-13.571 2.434-1.172-9.781 1.938-.27c.316.133.543.18.902.27.586.136 1.262.316 2.254-.227.226-.133.722-.539.902-.808ZM6.176 28.04c-.227-.36-.633-.767-1.262-1.263-.902-.722-.586-1.984-.047-2.75.676-1.308 4.238-3.02 4.059-5.136-.09-.77-.18-1.762-.903-2.48a2.106 2.106 0 0 0 0 .538c.028.18-.316-.36-.449-.902-.136-.18-.27-.27-.406-.54-.09.317-.09.634-.09.634s-.226-.59-.27-1.04c-.136.227-.183.633-.183.633s-.312-.902-.223-1.398c-.136-.406-.586-1.262-.453-3.156.77.543 2.48.406 3.156-.586.227-.317.364-1.219-.09-2.977-.315-1.125-1.08-2.793-1.397-3.426l-.043.047c.18.496.496 1.578.63 2.117.362 1.579.495 2.122.316 2.84-.133.633-.497 1.04-1.442 1.489-.902.453-2.164-.676-2.21-.723-.9-.719-1.579-1.89-1.669-2.434-.09-.629.364-.992.586-1.488-.312.094-.676.274-.676.274s.407-.454.95-.813a5.35 5.35 0 0 0 .586-.406H4.06s.539-.317 1.125-.496H4.37l2.164-.946c.68-.27 1.309-.18 1.668.317.496.676.992 1.035 2.031 1.304.63-.27.856-.449 1.668-.675.72-.813 1.305-.903 1.305-.903s-.402.364-.45.77c.407-.317.856-.59.856-.59s-.18.227-.316.543l.047.047a11.792 11.792 0 0 1 1.035-.496s-.18.18-.36.449l1.352.047c1.668.043 2.031-1.762 2.66-2.031.813-.27 1.172-.45 2.524.902 1.175 1.172 2.074 3.2 1.625 3.652-.36.36-1.13-.136-1.985-1.172-.449-.543-.765-1.218-.945-2.03-.09-.677-.586-1.083-.586-1.083s.316.68.316 1.266c0 .312.043 1.484.54 2.164-.043.09-.09.492-.137.539-.586-.723-1.89-1.219-2.07-1.399.718.586 2.343 1.895 2.972 3.157.586 1.218.227 2.3.543 2.57.09.09 1.262 1.531 1.488 2.297.403 1.308.043 2.66-.496 3.473l-1.445.226a1.988 1.988 0 0 1-.54-.18c.09-.183.317-.632.317-.722l-.09-.137c-.453.633-1.218 1.262-1.851 1.625-.809.45-1.758.406-2.387.18-1.758-.543-3.426-1.715-3.789-2.028 0 0 0 .223.047.313.45.496 1.441 1.398 2.434 2.031l-2.075.223.993 7.664c-.45.047-.496.09-.993.183-.406-1.488-1.214-2.437-2.117-3.023-.765-.496-1.847-.629-2.886-.406l-.043.093c.718-.093 1.578.043 2.433.586.856.54 1.531 1.938 1.8 2.75.317 1.082.544 2.207-.312 3.426-.632.856-2.437 1.352-3.879.313.407.633.903 1.129 1.625 1.218 1.036.137 2.028-.046 2.75-.722.586-.586.899-1.848.81-3.2l.948-.136.313 2.39 15.375-1.847-1.352-12.262-.77.133L25.607 0 0 2.977l3.156 25.515Zm12.176-13.411c.675.496 1.261.805 1.847.766.36-.043.723-.633.946-1.172.18-.36.18-.766-.09-.891-.133-.047-.676-.047-1.07 0-.766.086-1.532.36-1.715.492-.27.184-.133.633.09.805m.18-5.281v.043l.042.09c.184.359.363.722.723.894.09 0 .18-.047.27-.047a1.83 1.83 0 0 1 .632.09v-.27c-.043-.453.09-1.261-.805-1.714-.359-.18-.8-.086-.98.09h.09c.222.09.09.18.043.273-.043.18-.09.223 0 .539m-4.075.109c.227-.18-1.035-.453-2.027.18-.723.496-.723 1.531-.047 2.117.09.047.137.09.18.137.184-.09.453-.184.68-.274a8.4 8.4 0 0 1 1.125-.27c.132-.179.316-.448.27-.944-.044-.676-.587-.543-.18-.95m9.917 12.672-2.566-1.715-2.164 3.606-2.527-.766-2.207 3.383.09 1.07 12.081-2.207-.722-7.527Zm0 0" style="stroke:none;fill-rule:nonzero;fill:rgb(36.078432%,17.647059%,56.470591%);fill-opacity:1"/></svg>