<?xml version="1.0" encoding="UTF-8"?>
<svg xmlns="http://www.w3.org/2000/svg" xmlns:xlink="http://www.w3.org/1999/xlink" width="32" height="32" viewBox="0 0 32 32" version="1.1">
<g id="surface1">
<path style=" stroke:none;fill-rule:nonzero;fill:rgb(0%,0%,0%);fill-opacity:1;" d="M 16 0 C 7.960938 0 2.558594 2.976562 2.558594 5.757812 C 2.558594 8.539062 7.960938 11.519531 16 11.519531 C 24.039062 11.519531 29.441406 8.539062 29.441406 5.757812 C 29.441406 2.976562 24.039062 0 16 0 Z M 2.558594 8.710938 L 2.558594 12.257812 C 2.558594 14.992188 7.960938 17.921875 16 17.921875 C 24.039062 17.921875 29.441406 14.992188 29.441406 12.257812 L 29.441406 8.710938 C 27.089844 11.113281 22.023438 12.800781 16 12.800781 C 9.976562 12.800781 4.910156 11.113281 2.558594 8.710938 Z M 2.558594 15.300781 L 2.558594 18.683594 C 2.558594 21.417969 7.960938 24.320312 16 24.320312 C 24.039062 24.320312 29.441406 21.417969 29.441406 18.683594 L 29.441406 15.300781 C 27.089844 17.703125 22.023438 19.199219 16 19.199219 C 9.976562 19.199219 4.910156 17.703125 2.558594 15.300781 Z M 2.558594 21.730469 L 2.558594 25.054688 C 2.558594 27.789062 7.960938 30.71875 16 30.71875 C 24.039062 30.71875 29.441406 27.789062 29.441406 25.054688 L 29.441406 21.730469 C 27.089844 24.132812 22.023438 25.601562 16 25.601562 C 9.976562 25.601562 4.910156 24.132812 2.558594 21.730469 Z M 2.558594 21.730469 "/>
</g>
</svg>
