<svg xmlns="http://www.w3.org/2000/svg" width="32" height="35" stroke="none" stroke-linecap="round" stroke-linejoin="round" fill="#5c2d90" fill-rule="nonzero"><path d="M29.6826 17.9476l.8382 10.6995-14.8413 2.6626-1.282-10.6996 2.1202-.2958c.3452.1479.5917.1972.9862.2958.6409.148 1.3805.3452 2.4653-.2465.2465-.1479.7889-.5917.9861-.8875zM6.755 30.6687c-.2465-.3945-.6903-.8382-1.3806-1.3806-.9861-.7889-.641-2.1695-.0493-3.0077.7396-1.4299 4.6348-3.3036 4.4376-5.6209-.0986-.8383-.1972-1.923-.9861-2.7119a2.051 2.051 0 0 0 0 .5917c.0286.1962-.3452-.3945-.4931-.9862-.1479-.1972-.2958-.2958-.4437-.5917-.0987.3452-.0987.6904-.0987.6904s-.2465-.641-.2958-1.1341c-.1479.2465-.1972.6903-.1972.6903s-.3452-.9861-.2466-1.5285c-.1479-.4438-.6409-1.3806-.493-3.4515.8382.5917 2.7118.4438 3.4514-.641.2466-.3451.3945-1.3312-.0986-3.2542-.3451-1.2327-1.1833-3.057-1.5285-3.7473l-.0493.0493c.1972.5424.5424 1.7257.6903 2.3174.3945 1.7257.5424 2.3174.3452 3.1063-.148.6903-.5424 1.1341-1.5779 1.6272-.9861.493-2.3667-.7397-2.416-.789-.9861-.7889-1.7257-2.0708-1.8243-2.6625-.0986-.6903.3944-1.0848.641-1.6271-.3452.0986-.7396.2958-.7396.2958s.4437-.4931 1.0354-.8875c.2465-.1479.3944-.2465.641-.4438h-.641s.5917-.3451 1.2327-.5424h-.8876l2.3668-1.0354c.7396-.2958 1.4299-.1972 1.8243.3452.5424.7396 1.0848 1.134 2.2188 1.4299.6903-.2959.9368-.4931 1.8243-.7397.789-.8875 1.4299-.9861 1.4299-.9861s-.4437.3945-.493.8382c.4437-.3451.9368-.641.9368-.641s-.1972.2466-.3451.5917l.0493.0493c.5423-.2958 1.134-.5423 1.134-.5423s-.1972.1972-.3944.493l1.4792.0493c1.8243.0493 2.2188-1.9229 2.9091-2.2188.8875-.2958 1.2819-.493 2.7611.9862 1.282 1.2819 2.2681 3.5007 1.7751 3.9938-.3945.3944-1.2327-.1479-2.1695-1.282-.4931-.5916-.8382-1.3313-1.0355-2.2188-.0986-.7396-.641-1.1833-.641-1.1833s.3452.7396.3452 1.3806c0 .3451.0493 1.6271.5917 2.3667-.0493.0986-.0986.5424-.148.5917-.6409-.789-2.0708-1.3313-2.2681-1.5285.789.6409 2.564 2.0708 3.2543 3.4514.641 1.3313.2465 2.5147.5917 2.8105.0986.0986 1.3805 1.6764 1.6271 2.5146.4437 1.4299.0493 2.9091-.5424 3.7966l-1.5778.2466c-.2465-.0493-.3945-.0986-.5917-.1973.0986-.1972.3452-.6902.3452-.7889l-.0987-.1479c-.493.6903-1.3312 1.3806-2.0215 1.7751-.8875.493-1.923.4437-2.6133.1972-1.9229-.5917-3.7473-1.8737-4.1417-2.2188 0 0 0 .2465.0493.3451.493.5424 1.5778 1.5285 2.6625 2.2188l-2.2681.2466 1.0848 8.3821c-.4931.0493-.5424.0986-1.0848.1972-.4437-1.6271-1.3313-2.6626-2.3174-3.3035-.8382-.5424-2.0216-.6903-3.1556-.4438l-.0493.0986c.7889-.0986 1.7257.0493 2.6625.641s1.6765 2.1202 1.9723 3.0077c.3452 1.1834.5917 2.416-.3451 3.7473-.6903.9368-2.6626 1.4792-4.2404.3452.4438.6902.9861 1.2326 1.775 1.3312 1.1341.148 2.2188-.0493 3.0077-.7889.641-.641.9862-2.0215.8876-3.5007l1.0354-.148.3451 2.6133L32 30.1756l-1.4792-13.4114-.8382.1479L28.0062 0 0 3.2542l3.4515 27.9076zM20.0702 16c.7394.5421 1.3802.8791 2.022.8381.3946-.0489.7892-.6906 1.0354-1.2816.1973-.3946.1973-.838-.0977-.9767-.1465-.0489-.7395-.0489-1.1722 0-.8381.0976-1.6761.3946-1.8735.5421-.2959.1973-.1465.6906.0977.8791m.1954-5.7787v.0488l.0488.0977c.1973.3946.3946.7892.7893.9768.0976 0 .1973-.0488.2959-.0488a2.04 2.04 0 0 1 .6906.0986v-.296c-.0488-.4933.0977-1.3802-.8791-1.8735-.3946-.1973-.8791-.0976-1.0745.0977h.0977c.2462.0977.0977.1973.0489.296-.0489.1973-.0977.2461 0 .5919"/><path d="M15.8388 10.3297c.2461-.1973-1.1331-.4933-2.2193.1973-.7893.5421-.7893 1.6762-.0488 2.317.0976.0488.1465.0977.1973.1465.1973-.0977.4932-.1973.7394-.296.4933-.1465.8791-.2461 1.2327-.2959.1465-.1973.3448-.4933.296-1.0354-.0489-.7395-.6408-.592-.1973-1.0354M26.687 24.1855l-2.8102-1.8735-2.3668 3.9443-2.7614-.8381-2.4156 3.6981.0977 1.1722 13.214-2.4156-.7892-8.2344z"/></svg>