<?xml version="1.0" encoding="UTF-8" standalone="no"?>
<!DOCTYPE svg PUBLIC "-//W3C//DTD SVG 1.1//EN" "http://www.w3.org/Graphics/SVG/1.1/DTD/svg11.dtd">
<svg xmlns="http://www.w3.org/2000/svg" version="1.1" viewBox="0 0 420 420" width="420.0pt" height="420.0pt" xmlns:xlink="http://www.w3.org/1999/xlink">
<defs>
<path d="M 0.00 0.00 L 420.00 0.00 L 420.00 420.00 L 0.00 420.00 L 0.00 0.00 Z M 155.85 142.06 C 152.61 145.42 149.30 148.70 145.98 151.97 C 135.60 141.70 125.32 131.32 114.98 121.01 C 111.80 117.88 107.45 116.11 102.96 116.52 C 98.28 116.85 94.89 119.50 91.75 122.75 C 67.96 146.62 44.10 170.43 20.26 194.26 C 17.69 196.89 14.37 199.68 12.82 203.05 C 10.07 208.66 11.51 215.71 15.97 220.02 C 41.83 245.82 68.17 272.26 93.99 298.00 C 98.13 302.12 103.65 302.40 109.10 301.30 C 113.27 299.98 116.69 295.74 119.77 292.77 C 129.51 283.17 138.96 273.25 148.90 263.87 C 151.63 266.62 154.38 269.37 157.13 272.10 C 147.25 282.54 136.83 292.49 126.74 302.74 C 123.51 306.12 118.98 309.60 117.56 314.16 C 115.55 319.46 117.31 325.77 121.38 329.61 C 147.18 355.40 173.11 381.32 198.89 407.13 C 204.87 413.41 214.91 413.05 220.73 406.74 C 245.04 382.42 269.42 358.03 293.74 333.74 C 297.03 330.36 300.42 327.77 301.79 323.04 C 303.54 317.65 301.64 312.13 297.87 308.13 C 285.97 296.06 273.79 284.25 262.00 272.08 C 265.28 268.82 268.51 265.52 271.85 262.32 C 283.42 274.03 295.13 285.59 306.72 297.28 C 309.82 300.43 313.41 302.79 318.00 302.67 C 322.67 302.99 326.54 301.00 329.73 297.74 C 354.06 273.40 378.39 249.06 402.74 224.74 C 405.99 221.41 409.50 218.67 410.74 213.98 C 412.07 209.97 411.17 205.60 408.98 202.08 C 407.15 199.37 404.52 197.10 402.24 194.77 C 378.06 170.61 353.89 146.44 329.73 122.26 C 326.54 118.99 322.67 117.02 318.00 117.33 C 313.41 117.21 309.83 119.57 306.72 122.72 C 297.44 132.11 288.02 141.35 278.78 150.78 C 277.96 151.52 277.08 152.57 276.00 152.89 C 273.05 150.97 270.59 148.12 268.63 145.21 C 279.86 134.25 290.85 123.03 301.99 111.98 C 306.39 107.73 307.84 101.11 305.50 95.43 C 303.90 91.48 300.33 88.59 297.40 85.60 C 273.12 61.36 248.63 36.77 224.36 12.60 C 218.70 7.04 209.17 6.86 203.49 12.48 C 178.81 37.13 154.15 61.83 129.48 86.48 C 126.54 89.49 123.39 91.89 121.94 95.99 C 120.51 101.22 120.96 107.01 124.91 111.06 C 135.15 121.44 145.57 131.71 155.85 142.06 Z" id="p0" />
<path d="M 224.36 12.60 C 248.63 36.77 273.12 61.36 297.40 85.60 C 300.33 88.59 303.90 91.48 305.50 95.43 C 307.84 101.11 306.39 107.73 301.99 111.98 C 290.85 123.03 279.86 134.25 268.63 145.21 C 270.59 148.12 273.05 150.97 276.00 152.89 C 277.08 152.57 277.96 151.52 278.78 150.78 C 288.02 141.35 297.44 132.11 306.72 122.72 C 309.83 119.57 313.41 117.21 318.00 117.33 C 322.67 117.02 326.54 118.99 329.73 122.26 C 353.89 146.44 378.06 170.61 402.24 194.77 C 404.52 197.10 407.15 199.37 408.98 202.08 C 411.17 205.60 412.07 209.97 410.74 213.98 C 409.50 218.67 405.99 221.41 402.74 224.74 C 378.39 249.06 354.06 273.40 329.73 297.74 C 326.54 301.00 322.67 302.99 318.00 302.67 C 313.41 302.79 309.82 300.43 306.72 297.28 C 295.13 285.59 283.42 274.03 271.85 262.32 C 268.51 265.52 265.28 268.82 262.00 272.08 C 273.79 284.25 285.97 296.06 297.87 308.13 C 301.64 312.13 303.54 317.65 301.79 323.04 C 300.42 327.77 297.03 330.36 293.74 333.74 C 269.42 358.03 245.04 382.42 220.73 406.74 C 214.91 413.05 204.87 413.41 198.89 407.13 C 173.11 381.32 147.18 355.40 121.38 329.61 C 117.31 325.77 115.55 319.46 117.56 314.16 C 118.98 309.60 123.51 306.12 126.74 302.74 C 136.83 292.49 147.25 282.54 157.13 272.10 C 154.38 269.37 151.63 266.62 148.90 263.87 C 138.96 273.25 129.51 283.17 119.77 292.77 C 116.69 295.74 113.27 299.98 109.10 301.30 C 103.65 302.40 98.13 302.12 93.99 298.00 C 68.17 272.26 41.83 245.82 15.97 220.02 C 11.51 215.71 10.07 208.66 12.82 203.05 C 14.37 199.68 17.69 196.89 20.26 194.26 C 44.10 170.43 67.96 146.62 91.75 122.75 C 94.89 119.50 98.28 116.85 102.96 116.52 C 107.45 116.11 111.80 117.88 114.98 121.01 C 125.32 131.32 135.60 141.70 145.98 151.97 C 149.30 148.70 152.61 145.42 155.85 142.06 C 145.57 131.71 135.15 121.44 124.91 111.06 C 120.96 107.01 120.51 101.22 121.94 95.99 C 123.39 91.89 126.54 89.49 129.48 86.48 C 154.15 61.83 178.81 37.13 203.49 12.48 C 209.17 6.86 218.70 7.04 224.36 12.60 Z M 192.83 95.78 C 193.13 95.20 193.42 94.62 193.72 94.03 C 196.67 96.00 200.05 97.05 202.94 99.11 C 205.69 101.08 208.48 102.88 211.44 104.53 C 210.97 104.59 210.49 104.65 210.02 104.71 C 208.01 106.19 206.06 107.40 203.59 107.94 C 202.52 106.83 201.45 105.73 200.37 104.65 C 198.44 104.65 196.52 104.64 194.60 104.61 C 191.67 107.39 189.47 109.82 189.48 114.14 C 191.96 116.98 194.25 119.23 197.90 120.52 C 200.07 119.08 202.27 117.68 204.52 116.38 C 204.92 114.63 205.26 112.86 205.54 111.09 C 208.14 110.34 210.61 109.45 213.03 108.23 C 211.88 113.16 210.03 117.84 208.66 122.70 C 204.37 122.65 199.65 122.19 196.09 125.08 C 193.27 127.90 191.20 131.92 191.58 136.00 C 191.73 139.51 192.77 144.07 196.07 145.95 C 199.21 147.97 202.97 150.48 206.82 148.89 C 209.92 147.61 214.15 145.76 215.54 142.48 C 217.22 139.34 217.98 135.70 216.99 132.22 C 215.87 129.50 214.09 127.01 212.52 124.54 C 214.92 118.83 214.57 112.74 217.50 107.20 C 221.21 110.82 225.42 113.75 228.81 117.72 C 227.27 121.39 227.44 125.16 227.85 129.04 C 229.12 133.11 232.54 135.11 235.85 137.36 C 238.27 137.35 240.76 137.46 243.16 137.16 C 247.46 136.02 250.42 131.89 252.14 128.02 C 254.20 118.88 246.24 110.61 237.12 111.69 C 235.42 112.85 233.68 113.95 231.93 115.02 C 228.44 111.12 223.84 108.92 220.79 104.64 C 225.62 103.32 229.67 100.32 234.46 99.07 C 238.66 105.46 248.19 105.87 254.04 101.74 C 255.59 99.60 256.71 97.15 258.26 94.99 C 258.68 90.28 258.00 85.82 254.89 82.11 C 252.52 80.32 248.89 78.47 246.03 77.67 C 241.15 78.07 235.58 81.03 233.75 85.85 C 232.11 88.92 232.69 92.02 232.72 95.38 C 227.78 97.29 222.95 99.42 218.40 102.14 C 218.31 97.67 218.29 93.20 218.33 88.74 C 221.94 86.22 226.19 82.78 226.34 77.99 C 225.70 74.53 222.62 71.29 220.46 68.60 C 217.51 68.68 214.58 68.70 211.63 68.63 C 210.16 70.09 208.35 71.59 207.39 73.44 C 205.61 77.22 206.08 82.04 208.61 85.38 C 209.85 86.87 212.03 87.66 213.71 88.56 C 213.75 92.79 213.76 97.02 213.61 101.24 C 210.36 99.43 207.64 97.08 204.15 95.71 C 201.02 94.48 198.73 92.36 196.15 90.30 C 198.04 85.34 198.59 82.05 197.12 76.84 C 194.92 73.83 193.88 69.07 190.41 67.54 C 186.73 65.40 183.49 63.24 179.00 63.60 C 174.25 63.10 169.71 66.37 166.14 69.16 C 162.78 73.26 159.89 77.39 160.60 83.00 C 160.07 88.30 163.75 92.40 166.81 96.29 C 169.74 98.47 173.47 100.04 176.94 101.17 C 183.50 102.20 187.36 98.28 192.83 95.78 Z M 158.02 164.02 C 169.30 175.39 180.65 186.69 191.99 198.01 C 198.10 203.38 198.66 214.03 192.74 219.73 C 182.24 230.55 171.23 240.90 160.91 251.88 C 163.83 254.66 166.30 257.68 169.62 260.03 C 178.81 250.43 188.41 241.20 197.72 231.72 C 200.86 228.55 204.30 226.10 209.00 226.28 C 213.61 225.99 217.08 227.51 220.36 230.62 C 230.28 240.39 239.98 250.39 249.96 260.08 C 253.25 256.81 256.56 253.56 259.76 250.20 C 250.01 240.63 240.42 230.89 230.73 221.27 C 226.67 217.34 224.47 211.60 226.22 206.04 C 227.13 202.64 229.27 200.13 231.72 197.72 C 242.77 186.80 253.65 175.71 264.73 164.82 C 262.20 162.17 259.61 159.58 256.98 157.02 C 246.10 167.78 235.33 178.68 224.48 189.48 C 219.00 195.16 208.92 195.30 203.41 189.60 C 191.60 177.83 179.75 165.92 167.93 154.14 C 164.58 157.38 161.29 160.69 158.02 164.02 Z M 285.92 247.76 C 291.52 242.52 296.43 236.74 302.67 232.22 C 301.72 230.73 300.77 229.24 299.82 227.75 C 296.12 231.43 291.62 234.54 288.37 238.59 C 287.65 238.65 286.92 238.71 286.20 238.77 C 283.30 234.86 281.25 230.28 279.16 225.90 C 276.51 219.99 277.48 214.36 277.31 207.99 C 277.22 200.74 281.16 195.39 284.26 189.13 C 291.24 179.69 301.95 172.51 314.00 172.31 C 319.57 172.37 324.65 171.85 329.92 173.33 C 334.25 174.29 337.50 176.60 341.25 178.80 C 343.98 180.40 345.88 182.66 348.14 184.86 C 352.71 189.05 355.52 195.45 357.69 201.16 C 359.10 204.44 358.63 207.53 358.70 211.00 C 358.59 215.22 359.13 219.96 357.86 223.97 C 356.24 229.59 352.49 234.99 349.32 239.85 C 344.95 236.78 341.75 232.69 337.87 229.10 C 336.33 226.62 333.57 230.32 333.11 231.83 C 338.92 236.98 344.58 242.26 350.07 247.76 C 353.24 243.09 357.29 240.22 359.41 235.23 C 362.54 227.60 365.89 220.46 365.39 212.00 C 365.47 204.14 362.52 197.62 359.63 190.53 C 358.05 186.37 354.15 183.93 351.99 179.98 C 349.46 177.57 346.34 175.67 343.70 173.30 C 337.49 170.14 331.03 166.46 324.06 165.77 C 320.07 165.56 315.95 165.55 311.95 165.79 C 304.87 166.53 298.76 170.07 292.28 173.28 C 289.71 175.47 287.30 177.60 284.48 179.48 C 282.54 182.53 280.05 184.99 277.89 187.84 C 274.97 194.20 271.97 200.97 270.93 207.93 C 269.88 214.41 271.25 221.36 273.53 227.45 C 275.51 232.05 277.16 236.84 280.26 240.71 C 282.15 243.06 284.10 245.35 285.92 247.76 Z M 105.85 172.00 C 100.36 174.17 96.43 177.53 90.44 178.30 C 86.95 178.69 83.51 179.55 80.01 179.75 C 76.80 179.98 73.85 178.59 70.71 178.64 C 68.94 180.28 70.00 184.05 69.35 186.35 C 68.15 191.57 69.02 196.69 68.53 201.93 C 67.70 206.95 67.65 212.00 66.64 217.00 C 66.99 222.26 68.46 228.79 72.54 232.46 C 74.23 234.13 76.40 234.70 78.54 235.69 C 82.19 237.22 85.10 239.82 88.83 241.23 C 92.14 242.47 95.31 243.78 98.29 245.71 C 101.45 247.50 105.95 249.42 109.43 247.47 C 113.60 245.65 117.32 243.09 121.69 241.67 C 126.51 240.08 130.07 236.60 134.74 234.74 C 138.62 233.37 140.66 230.05 142.78 226.75 C 144.80 223.04 146.01 218.32 144.87 214.15 C 144.26 209.12 143.25 204.07 143.29 199.00 C 143.27 195.96 142.36 193.06 142.35 190.01 C 142.20 186.40 142.22 181.74 140.31 178.57 C 132.10 180.74 123.80 179.72 115.83 177.10 C 112.32 175.69 109.53 173.14 105.85 172.00 Z M 315.80 174.67 C 315.71 177.51 315.48 180.46 315.77 183.29 C 316.41 184.82 319.70 185.03 320.18 183.28 C 320.47 180.70 320.39 178.07 320.38 175.48 C 318.93 174.59 317.43 174.81 315.80 174.67 Z M 327.57 185.29 C 328.83 186.07 330.09 186.85 331.34 187.64 C 332.82 184.86 334.00 182.06 334.99 179.08 C 333.85 178.54 332.72 178.02 331.58 177.50 C 329.99 180.01 328.87 182.63 327.57 185.29 Z M 300.07 178.81 C 299.54 179.50 299.03 180.21 298.53 180.93 C 299.92 183.33 301.37 185.69 302.94 187.98 C 303.98 187.68 305.02 187.38 306.06 187.08 C 305.39 184.34 304.91 181.10 303.37 178.71 C 302.27 178.72 301.17 178.75 300.07 178.81 Z M 338.93 193.17 C 339.65 194.52 340.37 195.87 341.09 197.22 C 343.67 195.16 346.25 193.09 348.80 190.99 C 347.82 190.04 346.84 189.03 345.78 188.17 C 343.37 189.36 341.39 191.82 338.93 193.17 Z M 286.04 192.94 C 288.48 194.74 290.83 196.62 293.10 198.62 C 294.36 197.36 295.61 196.08 296.85 194.80 C 294.14 193.08 291.35 191.54 288.84 189.50 C 287.89 190.63 286.96 191.79 286.04 192.94 Z M 320.38 217.50 C 321.76 215.93 323.84 214.19 324.35 212.10 C 324.62 209.34 322.15 207.47 320.38 205.75 C 313.24 205.26 306.17 203.17 299.17 201.75 C 299.47 204.06 301.31 204.80 302.92 206.17 C 307.01 209.06 309.82 213.25 313.75 216.23 C 315.82 217.79 317.95 217.35 320.38 217.50 Z M 355.82 207.33 C 355.08 205.87 354.87 204.43 353.27 203.67 C 350.61 204.03 347.83 204.43 345.28 205.30 C 343.89 206.24 344.75 208.95 346.11 209.76 C 349.63 209.80 352.75 209.06 355.82 207.33 Z M 290.36 211.78 C 290.11 210.38 290.96 207.41 289.27 206.89 C 286.89 206.55 284.45 206.32 282.03 206.37 C 280.32 207.06 279.87 210.47 281.72 211.16 C 284.60 211.42 287.49 211.44 290.36 211.78 Z M 207.69 272.54 C 207.69 274.52 207.69 276.51 207.71 278.50 C 200.58 280.03 192.39 281.41 186.28 285.58 C 184.77 283.35 183.41 282.32 180.92 281.28 C 178.30 283.97 175.63 286.61 172.93 289.22 C 173.94 291.45 175.28 293.23 176.95 295.00 C 172.88 298.91 171.76 305.56 169.61 310.68 C 167.72 310.95 163.84 309.86 162.81 311.71 C 162.63 315.47 162.81 319.02 161.43 322.61 C 163.71 323.26 165.99 323.43 168.35 323.46 C 169.28 327.42 170.30 331.33 172.03 335.03 C 172.65 336.70 173.97 338.78 173.60 340.58 C 172.49 341.97 170.78 343.02 169.34 344.05 C 171.73 347.46 173.87 350.93 176.95 353.79 C 178.70 352.59 180.39 351.36 182.05 350.05 C 186.18 353.06 190.46 355.65 194.89 358.20 C 196.14 358.31 197.40 358.43 198.66 358.55 C 198.61 360.80 198.43 362.99 198.10 365.21 C 201.76 367.05 206.50 366.13 210.60 366.33 C 211.05 364.35 211.31 362.41 211.39 360.38 C 215.53 359.03 219.78 359.55 223.84 357.93 C 227.06 356.83 229.49 354.87 232.20 352.89 C 233.74 354.54 235.03 356.27 236.23 358.18 C 239.49 356.68 241.08 354.97 242.92 351.94 C 244.00 351.26 245.08 350.59 246.16 349.92 C 244.69 348.03 243.28 346.11 242.01 344.08 C 243.39 341.47 244.96 338.99 246.49 336.47 C 247.95 334.05 248.48 331.03 249.26 328.28 C 251.18 328.02 255.27 329.29 256.21 327.27 C 256.46 323.80 256.46 320.16 256.22 316.69 C 255.17 314.84 251.27 315.95 249.37 315.69 C 249.51 309.17 248.09 304.46 244.38 299.15 C 246.16 297.83 247.95 296.53 249.72 295.20 C 247.55 291.57 244.44 288.81 241.99 285.40 C 240.45 286.47 238.91 287.53 237.39 288.62 C 236.77 288.62 236.16 288.62 235.55 288.62 C 233.51 286.87 231.49 285.22 229.20 283.80 C 226.56 282.15 223.10 281.53 220.11 280.60 C 220.68 278.64 221.26 276.75 221.46 274.71 C 217.60 272.62 212.02 272.68 207.69 272.54 Z" id="p1" />
<path d="M 179.00 63.60 C 183.49 63.24 186.73 65.40 190.41 67.54 C 193.88 69.07 194.92 73.83 197.12 76.84 C 198.59 82.05 198.04 85.34 196.15 90.30 C 198.73 92.36 201.02 94.48 204.15 95.71 C 207.64 97.08 210.36 99.43 213.61 101.24 C 213.76 97.02 213.75 92.79 213.71 88.56 C 212.03 87.66 209.85 86.87 208.61 85.38 C 206.08 82.04 205.61 77.22 207.39 73.44 C 208.35 71.59 210.16 70.09 211.63 68.63 C 214.58 68.70 217.51 68.68 220.46 68.60 C 222.62 71.29 225.70 74.53 226.34 77.99 C 226.19 82.78 221.94 86.22 218.33 88.74 C 218.29 93.20 218.31 97.67 218.40 102.14 C 222.95 99.42 227.78 97.29 232.72 95.38 C 232.69 92.02 232.11 88.92 233.75 85.85 C 235.58 81.03 241.15 78.07 246.03 77.67 C 248.89 78.47 252.52 80.32 254.89 82.11 C 258.00 85.82 258.68 90.28 258.26 94.99 C 256.71 97.15 255.59 99.60 254.04 101.74 C 248.19 105.87 238.66 105.46 234.46 99.07 C 229.67 100.32 225.62 103.32 220.79 104.64 C 223.84 108.92 228.44 111.12 231.93 115.02 C 233.68 113.95 235.42 112.85 237.12 111.69 C 246.24 110.61 254.20 118.88 252.14 128.02 C 250.42 131.89 247.46 136.02 243.16 137.16 C 240.76 137.46 238.27 137.35 235.85 137.36 C 232.54 135.11 229.12 133.11 227.85 129.04 C 227.44 125.16 227.27 121.39 228.81 117.72 C 225.42 113.75 221.21 110.82 217.50 107.20 C 214.57 112.74 214.92 118.83 212.52 124.54 C 214.09 127.01 215.87 129.50 216.99 132.22 C 217.98 135.70 217.22 139.34 215.54 142.48 C 214.15 145.76 209.92 147.61 206.82 148.89 C 202.97 150.48 199.21 147.97 196.07 145.95 C 192.77 144.07 191.73 139.51 191.58 136.00 C 191.20 131.92 193.27 127.90 196.09 125.08 C 199.65 122.19 204.37 122.65 208.66 122.70 C 210.03 117.84 211.88 113.16 213.03 108.23 C 210.61 109.45 208.14 110.34 205.54 111.09 C 205.26 112.86 204.92 114.63 204.52 116.38 C 202.27 117.68 200.07 119.08 197.90 120.52 C 194.25 119.23 191.96 116.98 189.48 114.14 C 189.47 109.82 191.67 107.39 194.60 104.61 C 196.52 104.64 198.44 104.65 200.37 104.65 C 201.45 105.73 202.52 106.83 203.59 107.94 C 206.06 107.40 208.01 106.19 210.02 104.71 C 210.49 104.65 210.97 104.59 211.44 104.53 C 208.48 102.88 205.69 101.08 202.94 99.11 C 200.05 97.05 196.67 96.00 193.72 94.03 C 193.42 94.62 193.13 95.20 192.83 95.78 C 187.36 98.28 183.50 102.20 176.94 101.17 C 173.47 100.04 169.74 98.47 166.81 96.29 C 163.75 92.40 160.07 88.30 160.60 83.00 C 159.89 77.39 162.78 73.26 166.14 69.16 C 169.71 66.37 174.25 63.10 179.00 63.60 Z M 185.72 95.49 C 188.00 93.24 190.28 90.99 192.50 88.68 C 193.56 84.15 193.89 81.01 192.51 76.48 C 190.14 72.38 186.84 69.14 182.01 68.37 C 178.78 68.17 174.66 67.92 171.92 69.95 C 169.17 72.10 166.74 74.42 165.92 77.95 C 163.80 85.00 166.91 93.21 174.12 95.77 C 178.11 97.49 181.72 96.46 185.72 95.49 Z M 248.44 99.64 C 250.02 98.33 251.65 97.10 253.32 95.91 C 253.81 94.25 254.31 92.59 254.81 90.94 C 253.50 87.73 252.19 84.86 248.91 83.26 C 243.64 80.22 236.69 85.55 236.26 91.00 C 235.91 94.66 238.32 97.05 241.18 98.84 C 243.10 100.20 246.19 99.57 248.44 99.64 Z M 236.29 120.33 C 235.19 122.68 235.27 125.06 235.28 127.60 C 235.99 128.31 236.70 129.03 237.41 129.74 C 238.84 129.70 240.31 129.71 241.74 129.51 C 242.87 128.63 243.85 127.54 244.87 126.53 C 244.58 123.88 244.45 121.59 242.06 119.94 C 240.20 118.63 238.18 119.71 236.29 120.33 Z M 197.95 142.26 C 200.83 143.68 202.98 145.43 206.38 144.42 C 210.73 143.01 215.08 137.77 213.02 133.03 C 212.56 130.46 209.21 129.11 207.46 127.36 C 205.54 127.35 203.48 127.13 201.60 127.53 C 198.73 128.93 195.21 131.43 195.27 135.00 C 195.01 137.70 196.80 139.95 197.95 142.26 Z" id="p2" />
<path d="M 182.01 68.37 C 186.84 69.14 190.14 72.38 192.51 76.48 C 193.89 81.01 193.56 84.15 192.50 88.68 C 190.28 90.99 188.00 93.24 185.72 95.49 C 181.72 96.46 178.11 97.49 174.12 95.77 C 166.91 93.21 163.80 85.00 165.92 77.95 C 166.74 74.42 169.17 72.10 171.92 69.95 C 174.66 67.92 178.78 68.17 182.01 68.37 Z M 172.67 78.78 C 172.71 82.04 172.12 84.99 174.20 87.77 C 175.50 90.28 179.98 89.04 182.34 89.38 C 183.68 88.04 185.01 86.70 186.34 85.35 C 186.34 83.47 186.35 81.60 186.38 79.72 C 183.44 74.51 176.08 73.49 172.67 78.78 Z" id="p3" />
<path d="M 186.38 79.72 C 186.35 81.60 186.34 83.47 186.34 85.35 C 185.01 86.70 183.68 88.04 182.34 89.38 C 179.98 89.04 175.50 90.28 174.20 87.77 C 172.12 84.99 172.71 82.04 172.67 78.78 C 176.08 73.49 183.44 74.51 186.38 79.72 Z" id="p4" />
<path d="M 248.91 83.26 C 252.19 84.86 253.50 87.73 254.81 90.94 C 254.31 92.59 253.81 94.25 253.32 95.91 C 251.65 97.10 250.02 98.33 248.44 99.64 C 246.19 99.57 243.10 100.20 241.18 98.84 C 238.32 97.05 235.91 94.66 236.26 91.00 C 236.69 85.55 243.64 80.22 248.91 83.26 Z" id="p5" />
<path d="M 242.06 119.94 C 244.45 121.59 244.58 123.88 244.87 126.53 C 243.85 127.54 242.87 128.63 241.74 129.51 C 240.31 129.71 238.84 129.70 237.41 129.74 C 236.70 129.03 235.99 128.31 235.28 127.60 C 235.27 125.06 235.19 122.68 236.29 120.33 C 238.18 119.71 240.20 118.63 242.06 119.94 Z" id="p6" />
<path d="M 201.60 127.53 C 203.48 127.13 205.54 127.35 207.46 127.36 C 209.21 129.11 212.56 130.46 213.02 133.03 C 215.08 137.77 210.73 143.01 206.38 144.42 C 202.98 145.43 200.83 143.68 197.95 142.26 C 196.80 139.95 195.01 137.70 195.27 135.00 C 195.21 131.43 198.73 128.93 201.60 127.53 Z" id="p7" />
<path d="M 167.93 154.14 C 179.75 165.92 191.60 177.83 203.41 189.60 C 208.92 195.30 219.00 195.16 224.48 189.48 C 235.33 178.68 246.10 167.78 256.98 157.02 C 259.61 159.58 262.20 162.17 264.73 164.82 C 253.65 175.71 242.77 186.80 231.72 197.72 C 229.27 200.13 227.13 202.64 226.22 206.04 C 224.47 211.60 226.67 217.34 230.73 221.27 C 240.42 230.89 250.01 240.63 259.76 250.20 C 256.56 253.56 253.25 256.81 249.96 260.08 C 239.98 250.39 230.28 240.39 220.36 230.62 C 217.08 227.51 213.61 225.99 209.00 226.28 C 204.30 226.10 200.86 228.55 197.72 231.72 C 188.41 241.20 178.81 250.43 169.62 260.03 C 166.30 257.68 163.83 254.66 160.91 251.88 C 171.23 240.90 182.24 230.55 192.74 219.73 C 198.66 214.03 198.10 203.38 191.99 198.01 C 180.65 186.69 169.30 175.39 158.02 164.02 C 161.29 160.69 164.58 157.38 167.93 154.14 Z" id="p8" />
<path d="M 311.95 165.79 C 315.95 165.55 320.07 165.56 324.06 165.77 C 331.03 166.46 337.49 170.14 343.70 173.30 C 346.34 175.67 349.46 177.57 351.99 179.98 C 354.15 183.93 358.05 186.37 359.63 190.53 C 362.52 197.62 365.47 204.14 365.39 212.00 C 365.89 220.46 362.54 227.60 359.41 235.23 C 357.29 240.22 353.24 243.09 350.07 247.76 C 344.58 242.26 338.92 236.98 333.11 231.83 C 333.57 230.32 336.33 226.62 337.87 229.10 C 341.75 232.69 344.95 236.78 349.32 239.85 C 352.49 234.99 356.24 229.59 357.86 223.97 C 359.13 219.96 358.59 215.22 358.70 211.00 C 358.63 207.53 359.10 204.44 357.69 201.16 C 355.52 195.45 352.71 189.05 348.14 184.86 C 345.88 182.66 343.98 180.40 341.25 178.80 C 337.50 176.60 334.25 174.29 329.92 173.33 C 324.65 171.85 319.57 172.37 314.00 172.31 C 301.95 172.51 291.24 179.69 284.26 189.13 C 281.16 195.39 277.22 200.74 277.31 207.99 C 277.48 214.36 276.51 219.99 279.16 225.90 C 281.25 230.28 283.30 234.86 286.20 238.77 C 286.92 238.71 287.65 238.65 288.37 238.59 C 291.62 234.54 296.12 231.43 299.82 227.75 C 300.77 229.24 301.72 230.73 302.67 232.22 C 296.43 236.74 291.52 242.52 285.92 247.76 C 284.10 245.35 282.15 243.06 280.26 240.71 C 277.16 236.84 275.51 232.05 273.53 227.45 C 271.25 221.36 269.88 214.41 270.93 207.93 C 271.97 200.97 274.97 194.20 277.89 187.84 C 280.05 184.99 282.54 182.53 284.48 179.48 C 287.30 177.60 289.71 175.47 292.28 173.28 C 298.76 170.07 304.87 166.53 311.95 165.79 Z" id="p9" />
<path d="M 105.85 172.00 C 109.53 173.14 112.32 175.69 115.83 177.10 C 123.80 179.72 132.10 180.74 140.31 178.57 C 142.22 181.74 142.20 186.40 142.35 190.01 C 142.36 193.06 143.27 195.96 143.29 199.00 C 143.25 204.07 144.26 209.12 144.87 214.15 C 146.01 218.32 144.80 223.04 142.78 226.75 C 140.66 230.05 138.62 233.37 134.74 234.74 C 130.07 236.60 126.51 240.08 121.69 241.67 C 117.32 243.09 113.60 245.65 109.43 247.47 C 105.95 249.42 101.45 247.50 98.29 245.71 C 95.31 243.78 92.14 242.47 88.83 241.23 C 85.10 239.82 82.19 237.22 78.54 235.69 C 76.40 234.70 74.23 234.13 72.54 232.46 C 68.46 228.79 66.99 222.26 66.64 217.00 C 67.65 212.00 67.70 206.95 68.53 201.93 C 69.02 196.69 68.15 191.57 69.35 186.35 C 70.00 184.05 68.94 180.28 70.71 178.64 C 73.85 178.59 76.80 179.98 80.01 179.75 C 83.51 179.55 86.95 178.69 90.44 178.30 C 96.43 177.53 100.36 174.17 105.85 172.00 Z M 103.30 208.71 C 103.38 216.33 103.20 223.95 103.41 231.56 C 105.18 231.64 106.95 231.70 108.71 231.77 C 108.66 224.42 108.71 217.08 108.70 209.73 C 110.04 208.12 111.61 206.40 112.51 204.49 C 113.33 201.33 112.15 197.43 109.33 195.68 C 106.98 195.04 103.40 194.71 101.61 196.74 C 99.91 198.46 97.58 200.88 98.61 203.50 C 99.23 206.22 101.25 207.18 103.30 208.71 Z" id="p10" />
<path d="M 315.80 174.67 C 317.43 174.81 318.93 174.59 320.38 175.48 C 320.39 178.07 320.47 180.70 320.18 183.28 C 319.70 185.03 316.41 184.82 315.77 183.29 C 315.48 180.46 315.71 177.51 315.80 174.67 Z" id="p11" />
<path d="M 331.58 177.50 C 332.72 178.02 333.85 178.54 334.99 179.08 C 334.00 182.06 332.82 184.86 331.34 187.64 C 330.09 186.85 328.83 186.07 327.57 185.29 C 328.87 182.63 329.99 180.01 331.58 177.50 Z" id="p12" />
<path d="M 300.07 178.81 C 301.17 178.75 302.27 178.72 303.37 178.71 C 304.91 181.10 305.39 184.34 306.06 187.08 C 305.02 187.38 303.98 187.68 302.94 187.98 C 301.37 185.69 299.92 183.33 298.53 180.93 C 299.03 180.21 299.54 179.50 300.07 178.81 Z" id="p13" />
<path d="M 345.78 188.17 C 346.84 189.03 347.82 190.04 348.80 190.99 C 346.25 193.09 343.67 195.16 341.09 197.22 C 340.37 195.87 339.65 194.52 338.93 193.17 C 341.39 191.82 343.37 189.36 345.78 188.17 Z" id="p14" />
<path d="M 288.84 189.50 C 291.35 191.54 294.14 193.08 296.85 194.80 C 295.61 196.08 294.36 197.36 293.10 198.62 C 290.83 196.62 288.48 194.74 286.04 192.94 C 286.96 191.79 287.89 190.63 288.84 189.50 Z" id="p15" />
<path d="M 109.33 195.68 C 112.15 197.43 113.33 201.33 112.51 204.49 C 111.61 206.40 110.04 208.12 108.70 209.73 C 108.71 217.08 108.66 224.42 108.71 231.77 C 106.95 231.70 105.18 231.64 103.41 231.56 C 103.20 223.95 103.38 216.33 103.30 208.71 C 101.25 207.18 99.23 206.22 98.61 203.50 C 97.58 200.88 99.91 198.46 101.61 196.74 C 103.40 194.71 106.98 195.04 109.33 195.68 Z" id="p16" />
<path d="M 299.17 201.75 C 306.17 203.17 313.24 205.26 320.38 205.75 C 322.15 207.47 324.62 209.34 324.35 212.10 C 323.84 214.19 321.76 215.93 320.38 217.50 C 317.95 217.35 315.82 217.79 313.75 216.23 C 309.82 213.25 307.01 209.06 302.92 206.17 C 301.31 204.80 299.47 204.06 299.17 201.75 Z" id="p17" />
<path d="M 353.27 203.67 C 354.87 204.43 355.08 205.87 355.82 207.33 C 352.75 209.06 349.63 209.80 346.11 209.76 C 344.75 208.95 343.89 206.24 345.28 205.30 C 347.83 204.43 350.61 204.03 353.27 203.67 Z" id="p18" />
<path d="M 282.03 206.37 C 284.45 206.32 286.89 206.55 289.27 206.89 C 290.96 207.41 290.11 210.38 290.36 211.78 C 287.49 211.44 284.60 211.42 281.72 211.16 C 279.87 210.47 280.32 207.06 282.03 206.37 Z" id="p19" />
<path d="M 207.69 272.54 C 212.02 272.68 217.60 272.62 221.46 274.71 C 221.26 276.75 220.68 278.64 220.11 280.60 C 223.10 281.53 226.56 282.15 229.20 283.80 C 231.49 285.22 233.51 286.87 235.55 288.62 C 236.16 288.62 236.77 288.62 237.39 288.62 C 238.91 287.53 240.45 286.47 241.99 285.40 C 244.44 288.81 247.55 291.57 249.72 295.20 C 247.95 296.53 246.16 297.83 244.38 299.15 C 248.09 304.46 249.51 309.17 249.37 315.69 C 251.27 315.95 255.17 314.84 256.22 316.69 C 256.46 320.16 256.46 323.80 256.21 327.27 C 255.27 329.29 251.18 328.02 249.26 328.28 C 248.48 331.03 247.95 334.05 246.49 336.47 C 244.96 338.99 243.39 341.47 242.01 344.08 C 243.28 346.11 244.69 348.03 246.16 349.92 C 245.08 350.59 244.00 351.26 242.92 351.94 C 241.08 354.97 239.49 356.68 236.23 358.18 C 235.03 356.27 233.74 354.54 232.20 352.89 C 229.49 354.87 227.06 356.83 223.84 357.93 C 219.78 359.55 215.53 359.03 211.39 360.38 C 211.31 362.41 211.05 364.35 210.60 366.33 C 206.50 366.13 201.76 367.05 198.10 365.21 C 198.43 362.99 198.61 360.80 198.66 358.55 C 197.40 358.43 196.14 358.31 194.89 358.20 C 190.46 355.65 186.18 353.06 182.05 350.05 C 180.39 351.36 178.70 352.59 176.95 353.79 C 173.87 350.93 171.73 347.46 169.34 344.05 C 170.78 343.02 172.49 341.97 173.60 340.58 C 173.97 338.78 172.65 336.70 172.03 335.03 C 170.30 331.33 169.28 327.42 168.35 323.46 C 165.99 323.43 163.71 323.26 161.43 322.61 C 162.81 319.02 162.63 315.47 162.81 311.71 C 163.84 309.86 167.72 310.95 169.61 310.68 C 171.76 305.56 172.88 298.91 176.95 295.00 C 175.28 293.23 173.94 291.45 172.93 289.22 C 175.63 286.61 178.30 283.97 180.92 281.28 C 183.41 282.32 184.77 283.35 186.28 285.58 C 192.39 281.41 200.58 280.03 207.71 278.50 C 207.69 276.51 207.69 274.52 207.69 272.54 Z M 222.35 295.61 C 216.38 291.98 209.50 291.61 202.77 292.75 C 196.77 294.83 189.37 298.40 186.51 304.43 C 184.66 307.96 182.68 311.01 182.10 315.03 C 180.25 323.06 183.84 331.15 188.37 337.61 C 190.50 339.73 193.01 341.67 195.48 343.38 C 201.82 346.43 209.08 347.84 216.00 346.00 C 220.11 344.59 224.22 343.86 227.24 340.50 C 230.48 336.64 234.24 333.58 235.38 328.47 C 236.17 324.09 237.30 320.22 236.28 315.76 C 235.42 311.90 235.35 307.54 232.51 304.49 C 230.58 302.38 228.85 300.12 226.98 297.96 C 225.62 296.93 223.86 296.38 222.35 295.61 Z" id="p20" />
<path d="M 222.35 295.61 C 223.86 296.38 225.62 296.93 226.98 297.96 C 228.85 300.12 230.58 302.38 232.51 304.49 C 235.35 307.54 235.42 311.90 236.28 315.76 C 237.30 320.22 236.17 324.09 235.38 328.47 C 234.24 333.58 230.48 336.64 227.24 340.50 C 224.22 343.86 220.11 344.59 216.00 346.00 C 209.08 347.84 201.82 346.43 195.48 343.38 C 193.01 341.67 190.50 339.73 188.37 337.61 C 183.84 331.15 180.25 323.06 182.10 315.03 C 182.68 311.01 184.66 307.96 186.51 304.43 C 189.37 298.40 196.77 294.83 202.77 292.75 C 209.50 291.61 216.38 291.98 222.35 295.61 Z M 213.95 303.75 C 210.35 303.90 205.16 302.71 202.29 305.28 C 198.85 308.15 195.03 310.33 193.88 314.94 C 193.49 319.14 193.04 323.77 195.44 327.48 C 196.72 330.01 199.49 331.67 201.73 333.32 C 204.90 335.82 209.22 335.60 213.00 335.10 C 215.92 334.03 218.92 332.21 221.32 330.22 C 223.84 326.63 226.25 321.49 225.09 317.03 C 224.31 313.95 222.91 310.67 220.63 308.41 C 218.61 306.62 216.18 305.25 213.95 303.75 Z" id="p21" />
<path d="M 213.95 303.75 C 216.18 305.25 218.61 306.62 220.63 308.41 C 222.91 310.67 224.31 313.95 225.09 317.03 C 226.25 321.49 223.84 326.63 221.32 330.22 C 218.92 332.21 215.92 334.03 213.00 335.10 C 209.22 335.60 204.90 335.82 201.73 333.32 C 199.49 331.67 196.72 330.01 195.44 327.48 C 193.04 323.77 193.49 319.14 193.88 314.94 C 195.03 310.33 198.85 308.15 202.29 305.28 C 205.16 302.71 210.35 303.90 213.95 303.75 Z" id="p22" />
</defs>
<g stroke-width="10pt">
<use stroke="#ffffff" xlink:href="#p0" />
<use stroke="#296498" xlink:href="#p1" />
<use stroke="#fefefe" xlink:href="#p2" />
<use stroke="#2b6598" xlink:href="#p3" />
<use stroke="#ffffff" xlink:href="#p4" />
<use stroke="#296498" xlink:href="#p5" />
<use stroke="#2c6599" xlink:href="#p6" />
<use stroke="#296498" xlink:href="#p7" />
<use stroke="#ffffff" xlink:href="#p8" />
<use stroke="#fefefe" xlink:href="#p9" />
<use stroke="#ffffff" xlink:href="#p10" />
<use stroke="#fefefe" xlink:href="#p11" />
<use stroke="#fefefe" xlink:href="#p12" />
<use stroke="#fefefe" xlink:href="#p13" />
<use stroke="#fdfdfe" xlink:href="#p14" />
<use stroke="#fefefe" xlink:href="#p15" />
<use stroke="#2b6599" xlink:href="#p16" />
<use stroke="#ffffff" xlink:href="#p17" />
<use stroke="#fefefe" xlink:href="#p18" />
<use stroke="#fefefe" xlink:href="#p19" />
<use stroke="#ffffff" xlink:href="#p20" />
<use stroke="#296498" xlink:href="#p21" />
<use stroke="#ffffff" xlink:href="#p22" />
</g>
<g>
<use fill="#ffffff" xlink:href="#p0" />
<use fill="#296498" xlink:href="#p1" />
<use fill="#fefefe" xlink:href="#p2" />
<use fill="#2b6598" xlink:href="#p3" />
<use fill="#ffffff" xlink:href="#p4" />
<use fill="#296498" xlink:href="#p5" />
<use fill="#2c6599" xlink:href="#p6" />
<use fill="#296498" xlink:href="#p7" />
<use fill="#ffffff" xlink:href="#p8" />
<use fill="#fefefe" xlink:href="#p9" />
<use fill="#ffffff" xlink:href="#p10" />
<use fill="#fefefe" xlink:href="#p11" />
<use fill="#fefefe" xlink:href="#p12" />
<use fill="#fefefe" xlink:href="#p13" />
<use fill="#fdfdfe" xlink:href="#p14" />
<use fill="#fefefe" xlink:href="#p15" />
<use fill="#2b6599" xlink:href="#p16" />
<use fill="#ffffff" xlink:href="#p17" />
<use fill="#fefefe" xlink:href="#p18" />
<use fill="#fefefe" xlink:href="#p19" />
<use fill="#ffffff" xlink:href="#p20" />
<use fill="#296498" xlink:href="#p21" />
<use fill="#ffffff" xlink:href="#p22" />
</g>
</svg>