<?xml version="1.0" encoding="UTF-8"?>
<svg xmlns="http://www.w3.org/2000/svg" xmlns:xlink="http://www.w3.org/1999/xlink" width="29.257" height="32" viewBox="0 0 29.257 32" version="1.1">
<g id="surface1">
<path style=" stroke:none;fill-rule:nonzero;fill:rgb(36.078432%,17.647059%,56.470591%);fill-opacity:1;" d="M 27.136719 16.410156 L 27.90625 26.191406 L 14.335938 28.625 L 13.164062 18.84375 L 15.101562 18.574219 C 15.417969 18.707031 15.644531 18.753906 16.003906 18.84375 C 16.589844 18.980469 17.265625 19.160156 18.257812 18.617188 C 18.484375 18.484375 18.980469 18.078125 19.160156 17.808594 Z M 6.175781 28.039062 C 5.949219 27.679688 5.542969 27.273438 4.914062 26.777344 C 4.011719 26.054688 4.328125 24.792969 4.867188 24.027344 C 5.542969 22.71875 9.105469 21.007812 8.925781 18.890625 C 8.835938 18.121094 8.746094 17.128906 8.023438 16.410156 C 8 16.589844 8 16.769531 8.023438 16.949219 C 8.050781 17.128906 7.707031 16.589844 7.574219 16.046875 C 7.4375 15.867188 7.304688 15.777344 7.167969 15.507812 C 7.078125 15.824219 7.078125 16.140625 7.078125 16.140625 C 7.078125 16.140625 6.851562 15.550781 6.808594 15.101562 C 6.671875 15.328125 6.625 15.734375 6.625 15.734375 C 6.625 15.734375 6.3125 14.832031 6.402344 14.335938 C 6.265625 13.929688 5.816406 13.074219 5.949219 11.179688 C 6.71875 11.722656 8.429688 11.585938 9.105469 10.59375 C 9.332031 10.277344 9.46875 9.375 9.015625 7.617188 C 8.699219 6.492188 7.933594 4.824219 7.617188 4.191406 L 7.574219 4.238281 C 7.753906 4.734375 8.070312 5.816406 8.203125 6.355469 C 8.566406 7.933594 8.699219 8.476562 8.519531 9.195312 C 8.386719 9.828125 8.023438 10.234375 7.078125 10.683594 C 6.175781 11.136719 4.914062 10.007812 4.867188 9.960938 C 3.96875 9.242188 3.289062 8.070312 3.199219 7.527344 C 3.109375 6.898438 3.5625 6.535156 3.785156 6.039062 C 3.472656 6.132812 3.109375 6.3125 3.109375 6.3125 C 3.109375 6.3125 3.515625 5.859375 4.058594 5.5 C 4.265625 5.378906 4.460938 5.242188 4.644531 5.09375 L 4.058594 5.09375 C 4.058594 5.09375 4.597656 4.777344 5.183594 4.597656 L 4.371094 4.597656 L 6.535156 3.652344 C 7.214844 3.382812 7.84375 3.472656 8.203125 3.96875 C 8.699219 4.644531 9.195312 5.003906 10.234375 5.273438 C 10.863281 5.003906 11.089844 4.824219 11.902344 4.597656 C 12.621094 3.785156 13.207031 3.695312 13.207031 3.695312 C 13.207031 3.695312 12.804688 4.058594 12.757812 4.464844 C 13.164062 4.148438 13.613281 3.875 13.613281 3.875 C 13.613281 3.875 13.433594 4.101562 13.296875 4.417969 L 13.34375 4.464844 C 13.679688 4.28125 14.023438 4.117188 14.378906 3.96875 C 14.378906 3.96875 14.199219 4.148438 14.019531 4.417969 L 15.371094 4.464844 C 17.039062 4.507812 17.402344 2.703125 18.03125 2.433594 C 18.84375 2.164062 19.203125 1.984375 20.554688 3.335938 C 21.730469 4.507812 22.628906 6.535156 22.179688 6.988281 C 21.820312 7.347656 21.050781 6.851562 20.195312 5.816406 C 19.746094 5.273438 19.429688 4.597656 19.25 3.785156 C 19.160156 3.109375 18.664062 2.703125 18.664062 2.703125 C 18.664062 2.703125 18.980469 3.382812 18.980469 3.96875 C 18.980469 4.28125 19.023438 5.453125 19.519531 6.132812 C 19.476562 6.222656 19.429688 6.625 19.382812 6.671875 C 18.796875 5.949219 17.492188 5.453125 17.3125 5.273438 C 18.03125 5.859375 19.65625 7.167969 20.285156 8.429688 C 20.871094 9.648438 20.511719 10.730469 20.828125 11 C 20.917969 11.089844 22.089844 12.53125 22.316406 13.296875 C 22.71875 14.605469 22.359375 15.957031 21.820312 16.769531 L 20.375 16.996094 C 20.1875 16.960938 20.003906 16.902344 19.835938 16.816406 C 19.925781 16.632812 20.152344 16.183594 20.152344 16.09375 L 20.0625 15.957031 C 19.609375 16.589844 18.84375 17.21875 18.210938 17.582031 C 17.402344 18.03125 16.453125 17.988281 15.824219 17.761719 C 14.066406 17.21875 12.398438 16.046875 12.035156 15.734375 C 12.035156 15.734375 12.035156 15.957031 12.082031 16.046875 C 12.53125 16.542969 13.523438 17.445312 14.515625 18.078125 L 12.441406 18.300781 L 13.433594 25.964844 C 12.984375 26.011719 12.9375 26.054688 12.441406 26.148438 C 12.035156 24.660156 11.226562 23.710938 10.324219 23.125 C 9.558594 22.628906 8.476562 22.496094 7.4375 22.71875 L 7.394531 22.8125 C 8.113281 22.71875 8.972656 22.855469 9.828125 23.398438 C 10.683594 23.9375 11.359375 25.335938 11.628906 26.148438 C 11.945312 27.230469 12.171875 28.355469 11.316406 29.574219 C 10.683594 30.429688 8.878906 30.925781 7.4375 29.886719 C 7.84375 30.519531 8.339844 31.015625 9.0625 31.105469 C 10.097656 31.242188 11.089844 31.058594 11.8125 30.382812 C 12.398438 29.796875 12.710938 28.535156 12.621094 27.183594 L 13.570312 27.046875 L 13.882812 29.4375 L 29.257812 27.589844 L 27.90625 15.328125 L 27.136719 15.460938 L 25.605469 0 L 0 2.976562 L 3.15625 28.492188 Z M 18.351562 14.628906 C 19.027344 15.125 19.613281 15.433594 20.199219 15.394531 C 20.558594 15.351562 20.921875 14.761719 21.144531 14.222656 C 21.324219 13.863281 21.324219 13.457031 21.054688 13.332031 C 20.921875 13.285156 20.378906 13.285156 19.984375 13.332031 C 19.21875 13.417969 18.453125 13.691406 18.269531 13.824219 C 18 14.007812 18.136719 14.457031 18.359375 14.628906 M 18.539062 9.347656 L 18.539062 9.390625 L 18.582031 9.480469 C 18.765625 9.839844 18.945312 10.203125 19.304688 10.375 C 19.394531 10.375 19.484375 10.328125 19.574219 10.328125 C 19.789062 10.320312 20.003906 10.351562 20.207031 10.417969 L 20.207031 10.148438 C 20.164062 9.695312 20.296875 8.886719 19.402344 8.433594 C 19.042969 8.253906 18.601562 8.347656 18.421875 8.523438 L 18.511719 8.523438 C 18.734375 8.613281 18.601562 8.703125 18.554688 8.796875 C 18.511719 8.976562 18.464844 9.019531 18.554688 9.335938 M 14.480469 9.445312 C 14.707031 9.265625 13.445312 8.992188 12.453125 9.625 C 11.730469 10.121094 11.730469 11.15625 12.40625 11.742188 C 12.496094 11.789062 12.542969 11.832031 12.585938 11.878906 C 12.769531 11.789062 13.039062 11.695312 13.265625 11.605469 C 13.632812 11.488281 14.011719 11.398438 14.390625 11.335938 C 14.523438 11.15625 14.707031 10.886719 14.660156 10.390625 C 14.617188 9.714844 14.074219 9.847656 14.480469 9.441406 M 24.398438 22.113281 L 21.832031 20.398438 L 19.667969 24.003906 L 17.140625 23.238281 L 14.933594 26.621094 L 15.023438 27.691406 L 27.105469 25.484375 L 26.382812 17.957031 Z M 24.398438 22.113281 "/>
</g>
</svg>
