<svg xmlns="http://www.w3.org/2000/svg" xmlns:xlink="http://www.w3.org/1999/xlink" viewBox="0 0 48 48"><defs><linearGradient id="a" x1="644.59" y1="-14190.96" x2="625.44" y2="-14190.96" gradientTransform="translate(670 -14182) rotate(180)" gradientUnits="userSpaceOnUse"><stop offset="0" stop-color="#fff" stop-opacity="0"/><stop offset="0.45" stop-color="#fff"/></linearGradient><linearGradient id="b" x1="646.06" y1="-14185.69" x2="625.44" y2="-14185.69" gradientTransform="translate(670 -14162) rotate(180)" gradientUnits="userSpaceOnUse"><stop offset="0" stop-color="#fff" stop-opacity="0"/><stop offset="0.5" stop-color="#fff"/></linearGradient><linearGradient id="c" x1="644" y1="-14183.06" x2="625.71" y2="-14183.06" gradientTransform="translate(669.41 -14152) rotate(180)" gradientUnits="userSpaceOnUse"><stop offset="0" stop-color="#fff" stop-opacity="0"/><stop offset="0.4" stop-color="#fff"/></linearGradient><linearGradient id="d" x1="23.94" y1="16.33" x2="44.56" y2="16.33" gradientTransform="matrix(1, 0, 0, 1, 0, 0)" xlink:href="#b"/><linearGradient id="e" x1="23.94" y1="38.43" x2="39.71" y2="38.43" gradientUnits="userSpaceOnUse"><stop offset="0" stop-color="#fff" stop-opacity="0"/><stop offset="0.6" stop-color="#fff"/></linearGradient><linearGradient id="f" x1="16.72" y1="35.4" x2="53.16" y2="14.36" gradientUnits="userSpaceOnUse"><stop offset="0.05" stop-color="#e0e0e0"/><stop offset="0.26" stop-color="#f6f6f6"/><stop offset="0.4" stop-color="#fff"/></linearGradient><linearGradient id="g" x1="-5.61" y1="13.74" x2="30.89" y2="34.82" gradientUnits="userSpaceOnUse"><stop offset="0.05"/><stop offset="0.09" stop-color="#151515"/><stop offset="0.22" stop-color="#4a4a4a"/><stop offset="0.35" stop-color="#787878"/><stop offset="0.47" stop-color="#9e9e9e"/><stop offset="0.6" stop-color="#bbb"/><stop offset="0.72" stop-color="#cfcfcf"/><stop offset="0.84" stop-color="#dcdcdc"/><stop offset="0.96" stop-color="#e0e0e0"/></linearGradient><mask id="h" x="0.37" y="0.12" width="47.15" height="47.15" maskUnits="userSpaceOnUse"><path d="M24.19,44.74h0Z" style="fill:none"/><path d="M24.47,44.72l-.21,0Z" style="fill:none"/><polygon points="24.21 44.74 24.2 44.74 24.21 44.74 24.21 44.74" style="fill:none"/><line x1="25.41" y1="8.96" x2="44.56" y2="8.96" style="fill:none;stroke-linejoin:round;stroke-width:2.1215277671813966px;stroke:url(#a)"/><line x1="23.94" y1="23.69" x2="44.56" y2="23.69" style="fill:none;stroke-linejoin:round;stroke-width:2.1215277671813966px;stroke:url(#b)"/><line x1="43.7" y1="31.06" x2="25.41" y2="31.06" style="fill:none;stroke-linejoin:round;stroke-width:2.1215277671813966px;stroke:url(#c)"/><line x1="44.56" y1="16.33" x2="23.94" y2="16.33" style="fill:none;stroke-linejoin:round;stroke-width:2.1215277671813966px;stroke:url(#d)"/><line x1="39.71" y1="38.43" x2="23.94" y2="38.43" style="fill:none;stroke-linejoin:round;stroke-width:2.1215277671813966px;stroke:url(#e)"/><rect x="37.2" y="13.38" width="2.95" height="5.89"/><path d="M23.94,45.79A20.68,20.68,0,0,0,44.56,25.17V1.6" style="fill:none;stroke-linecap:round;stroke-linejoin:round;stroke-width:2.1215277671813966px;stroke:url(#f)"/><path d="M3.31,1.6m0-1.48V25.17A20.68,20.68,0,0,0,23.94,45.79" style="fill:none;stroke-linejoin:round;stroke-width:2.1215277671813966px;stroke:url(#g)"/><path d="M44.56,1.6H3.31m0,0" style="fill:none;stroke:#fff;stroke-linejoin:round;stroke-width:2.1215277671813966px"/></mask><linearGradient id="i" x1="0.37" y1="47.27" x2="47.51" y2="0.12" gradientUnits="userSpaceOnUse"><stop offset="0.1" stop-color="#08bdba"/><stop offset="0.9" stop-color="#8a3ffc"/></linearGradient><mask id="j" x="0.37" y="0.12" width="47.15" height="47.15" maskUnits="userSpaceOnUse"><line x1="23.94" y1="1.6" x2="23.94" y2="7.49" style="fill:none;stroke:#fff;stroke-linejoin:round;stroke-width:1.0607639257416688px"/><circle cx="23.94" cy="8.96" r="1.47" style="fill:none;stroke:#fff;stroke-miterlimit:10;stroke-width:1.0607638835906983px"/><circle cx="23.94" cy="31.06" r="1.47" style="fill:none;stroke:#fff;stroke-miterlimit:10;stroke-width:1.0607638835906983px"/><circle cx="38.67" cy="16.33" r="1.47" style="fill:none;stroke:#fff;stroke-miterlimit:10;stroke-width:1.0607638835906983px"/><line x1="23.94" y1="29.59" x2="23.94" y2="10.43" style="fill:none;stroke:#fff;stroke-linejoin:round;stroke-width:1.0607639257416688px"/><line x1="23.94" y1="32.53" x2="23.94" y2="45.79" style="fill:none;stroke:#fff;stroke-linejoin:round;stroke-width:1.0607639257416688px"/><path d="M3.31,1.6V25.17a20.63,20.63,0,0,0,41.25,0V1.6Z" style="fill:none;stroke:#000;stroke-linejoin:round;stroke-width:2.1215277671813966px"/></mask></defs><g style="mask:url(#h)"><rect x="0.37" y="0.12" width="47.15" height="47.15" style="fill:url(#i)"/></g><g style="mask:url(#j)"><rect x="0.37" y="0.12" width="47.15" height="47.15"/></g></svg>