<svg xmlns="http://www.w3.org/2000/svg" xmlns:xlink="http://www.w3.org/1999/xlink" viewBox="0 0 48 48"><defs><linearGradient id="a" x1="6.65" y1="25.98" x2="26.22" y2="6.41" gradientUnits="userSpaceOnUse"><stop offset="0.1" stop-color="#e0e0e0"/><stop offset="0.9"/></linearGradient><linearGradient id="b" x1="-2.26" y1="16.63" x2="16.86" y2="-2.49" gradientUnits="userSpaceOnUse"><stop offset="0.1" stop-color="#e0e0e0"/><stop offset="0.9" stop-color="#fff"/></linearGradient><linearGradient id="c" x1="30.7" y1="25.98" x2="50.27" y2="6.41" xlink:href="#a"/><linearGradient id="d" x1="21.79" y1="16.63" x2="40.91" y2="-2.49" xlink:href="#b"/><linearGradient id="e" x1="6.65" y1="50.03" x2="26.22" y2="30.46" xlink:href="#a"/><linearGradient id="f" x1="-2.26" y1="40.68" x2="16.86" y2="21.56" xlink:href="#b"/><linearGradient id="g" x1="30.7" y1="50.03" x2="50.27" y2="30.46" xlink:href="#a"/><linearGradient id="h" x1="21.79" y1="40.68" x2="40.91" y2="21.56" xlink:href="#b"/><mask id="i" x="-0.1" y="-0.34" width="48.1" height="48.1" maskUnits="userSpaceOnUse"><polyline points="2.91 20.71 20.94 20.71 20.94 2.67" style="fill:none;stroke-linecap:round;stroke-linejoin:round;stroke-width:2.1644874000549317px;stroke:url(#a)"/><polyline points="20.94 2.67 2.91 2.67 2.91 20.71" style="fill:none;stroke-linejoin:round;stroke-width:2.1644874000549317px;stroke:url(#b)"/><polyline points="26.96 20.71 44.99 20.71 44.99 2.67" style="fill:none;stroke-linecap:round;stroke-linejoin:round;stroke-width:2.1644874000549317px;stroke:url(#c)"/><polyline points="44.99 2.67 26.96 2.67 26.96 20.71" style="fill:none;stroke-linejoin:round;stroke-width:2.1644874000549317px;stroke:url(#d)"/><polyline points="2.91 44.76 20.94 44.76 20.94 26.72" style="fill:none;stroke-linecap:round;stroke-linejoin:round;stroke-width:2.1644874000549317px;stroke:url(#e)"/><polyline points="20.94 26.72 2.91 26.72 2.91 44.76" style="fill:none;stroke-linejoin:round;stroke-width:2.1644874000549317px;stroke:url(#f)"/><polyline points="26.96 44.76 44.99 44.76 44.99 26.72" style="fill:none;stroke-linecap:round;stroke-linejoin:round;stroke-width:2.1644874000549317px;stroke:url(#g)"/><polyline points="44.99 26.72 26.96 26.72 26.96 44.76" style="fill:none;stroke-linejoin:round;stroke-width:2.1644874000549317px;stroke:url(#h)"/></mask><linearGradient id="j" x1="-0.1" y1="47.76" x2="48" y2="-0.34" gradientUnits="userSpaceOnUse"><stop offset="0.1" stop-color="#08bdba"/><stop offset="0.9" stop-color="#8a3ffc"/></linearGradient></defs><g style="mask:url(#i)"><rect x="-0.1" y="-0.34" width="48.1" height="48.1" style="fill:url(#j)"/></g><path d="M34.47,14.7l3-3-3-3m-24,3a1.51,1.51,0,1,0,1.51-1.5A1.51,1.51,0,0,0,10.42,11.69Zm0,24.05a1.51,1.51,0,1,0,1.51-1.5A1.51,1.51,0,0,0,10.42,35.74Zm24,0A1.51,1.51,0,1,0,36,34.24,1.5,1.5,0,0,0,34.47,35.74Zm0,0h-21m-1.5-22.55V34.24M37.48,11.69h-24" style="fill:none;stroke:#000;stroke-miterlimit:10;stroke-width:1.0822437000274658px"/></svg>