<svg xmlns:xlink="http://www.w3.org/1999/xlink" role="img" viewBox="0 0 32 32" xmlns="http://www.w3.org/2000/svg"><defs><clipPath id="c"><use xlink:href="#a"/></clipPath><clipPath id="e"><use xlink:href="#a"/></clipPath><g clip-path="url(#c)" id="f"><path d="M.262.078h31.43v31.434H.261Zm0 0" style="stroke:none;fill-rule:nonzero;fill:url(#d)"/></g><g clip-path="url(#e)" id="i"><use xlink:href="#f" mask="url(#g)"/></g><linearGradient gradientTransform="scale(.66667)" gradientUnits="userSpaceOnUse" id="d" x1=".39" x2="47.53" y1="47.27" y2=".12"><stop offset=".1" style="stop-color:rgb(3.137255%,74.117649%,72.941178%);stop-opacity:1"/><stop offset=".9" style="stop-color:rgb(54.11765%,24.705882%,98.823529%);stop-opacity:1"/></linearGradient><filter filterUnits="objectBoundingBox" height="100%" id="h" width="100%" x="0%" y="0%"><feColorMatrix in="SourceGraphic" values="0 0 0 0 1 0 0 0 0 1 0 0 0 0 1 0 0 0 1 0"/></filter><path d="M0 0h32v32H0z" id="a"/><mask id="g"><g filter="url(#h)"><use xlink:href="#b"/></g></mask></defs><use xlink:href="#i"/><path d="M28.383 23.69h14.724m-21.375-3.797L14.391 7.277m0 32.83 7.347-12.609m22.852-5.28c-.598 0-1.143.358-1.377.909a1.479 1.479 0 0 0 .322 1.617 1.479 1.479 0 0 0 2.526-1.055c0-.808-.657-1.47-1.471-1.47ZM13.652 4.542A1.48 1.48 0 1 0 15.117 6c0-.809-.662-1.459-1.465-1.459Zm0 35.361a1.48 1.48 0 0 0-1.06 2.525 1.48 1.48 0 0 0 2.525-1.06c0-.808-.656-1.465-1.465-1.465ZM24 19.272a4.414 4.414 0 0 0-4.418 4.417A4.414 4.414 0 0 0 24 28.107a4.414 4.414 0 0 0 4.418-4.418A4.414 4.414 0 0 0 24 19.271Zm0 0" style="fill:none;stroke-width:1.060764;stroke-linecap:butt;stroke-linejoin:miter;stroke:rgb(0%,0%,0%);stroke-opacity:1;stroke-miterlimit:10" transform="scale(.66667)"/></svg>