<?xml version="1.0" encoding="UTF-8"?>
<svg xmlns="http://www.w3.org/2000/svg" xmlns:xlink="http://www.w3.org/1999/xlink" width="29.767442" height="32" viewBox="0 0 29.767442 32" version="1.1">
<g id="surface1">
<path style="fill:none;stroke-width:2;stroke-linecap:round;stroke-linejoin:round;stroke:rgb(61.176473%,63.921571%,68.627453%);stroke-opacity:1;stroke-miterlimit:4;" d="M 1.002563 9.500732 L 1.002563 29.499512 C 1.002563 33.919189 8.162231 37.499023 17.001587 37.499023 C 18.38208 37.499023 19.720581 37.415039 21.001343 37.24707 M 1.002563 9.500732 C 1.002563 13.92041 8.162231 17.500244 17.001587 17.500244 C 25.835693 17.500244 33.00061 13.92041 33.00061 9.500732 M 1.002563 9.500732 C 1.002563 5.081055 8.162231 1.501221 17.001587 1.501221 C 25.835693 1.501221 33.00061 5.081055 33.00061 9.500732 M 33.00061 9.500732 L 33.00061 23.499878 M 33.00061 19.500122 C 33.00061 23.9198 25.835693 27.499634 17.001587 27.499634 C 8.162231 27.499634 1.002563 23.9198 1.002563 19.500122 M 33.00061 29.499512 L 33.00061 35.499146 M 33.00061 35.499146 L 33.00061 41.498779 M 33.00061 35.499146 L 39.000244 35.499146 M 33.00061 35.499146 L 27.000977 35.499146 " transform="matrix(0.744186,0,0,0.744186,0,0)"/>
</g>
</svg>
