<svg role="img" viewBox="0 0 29.767 32" xmlns="http://www.w3.org/2000/svg"><path d="M1.003 9.5v20c0 4.42 7.16 7.999 15.999 7.999 1.38 0 2.719-.084 4-.252m-20-27.746c0 4.42 7.16 8 16 8C25.836 17.5 33 13.92 33 9.5m-31.998 0c0-4.42 7.16-8 15.999-8C25.835 1.5 33 5.08 33 9.5m0 0v14m0-4c0 4.42-7.165 8-16 8-8.839 0-15.998-3.58-15.998-8M33 29.5v6m0 0v5.999m0-6h6m-6 0h-6" style="fill:none;stroke-width:2;stroke-linecap:round;stroke-linejoin:round;stroke:rgb(61.176473%,63.921571%,68.627453%);stroke-opacity:1;stroke-miterlimit:4" transform="scale(.74419)"/></svg>