<?xml version="1.0" encoding="UTF-8"?>
<svg xmlns="http://www.w3.org/2000/svg" xmlns:xlink="http://www.w3.org/1999/xlink" width="27.428571" height="32" viewBox="0 0 27.428571 32" version="1.1">
<g id="surface1">
<path style="fill:none;stroke-width:1.33333;stroke-linecap:butt;stroke-linejoin:miter;stroke:rgb(64.313728%,64.313728%,64.313728%);stroke-opacity:1;stroke-miterlimit:4;" d="M 0.666504 3.66748 L 0.666504 10.33252 C 0.666504 11.805664 3.053955 13.000244 6.000244 13.000244 C 8.944824 13.000244 11.333984 11.805664 11.333984 10.33252 L 11.333984 3.66748 M 0.666504 3.66748 C 0.666504 5.138916 3.053955 6.333496 6.000244 6.333496 C 8.944824 6.333496 11.333984 5.138916 11.333984 3.66748 M 0.666504 3.66748 C 0.666504 2.194336 3.053955 0.999756 6.000244 0.999756 C 8.944824 0.999756 11.333984 2.194336 11.333984 3.66748 M 11.333984 7 C 11.333984 8.473145 8.944824 9.666016 6.000244 9.666016 C 3.053955 9.666016 0.666504 8.473145 0.666504 7 " transform="matrix(2.285714,0,0,2.285714,0,0)"/>
</g>
</svg>
