<?xml version="1.0" encoding="UTF-8"?>
<svg xmlns="http://www.w3.org/2000/svg" xmlns:xlink="http://www.w3.org/1999/xlink" width="32" height="32" viewBox="0 0 32 32" version="1.1">
<g id="surface1">
<path style="fill-rule:nonzero;fill:rgb(0%,0%,0%);fill-opacity:1;stroke-width:13.333333;stroke-linecap:butt;stroke-linejoin:miter;stroke:rgb(100%,100%,100%);stroke-opacity:1;stroke-miterlimit:4;" d="M 0 0 L 420 0 L 420 420 L 0 420 Z M 155.859375 142.067871 C 152.629395 145.400391 149.296875 148.681641 145.964355 151.962891 C 135.60791 141.708984 125.302734 131.30127 114.997559 120.996094 C 111.818848 117.868652 107.460938 116.125488 102.949219 116.535645 C 98.283691 116.843262 94.899902 119.509277 91.772461 122.739258 C 67.983398 146.630859 44.091797 170.419922 20.251465 194.260254 C 17.687988 196.875 14.355469 199.694824 12.817383 203.027344 C 10.048828 208.666992 11.484375 215.690918 15.944824 219.997559 C 41.835938 245.837402 68.188477 272.241211 93.977051 297.978516 C 98.129883 302.131348 103.666992 302.387695 109.101562 301.311035 C 113.254395 299.978027 116.689453 295.722656 119.765625 292.749023 C 129.506836 283.161621 138.94043 273.266602 148.886719 263.884277 C 151.655273 266.601562 154.372559 269.370117 157.141113 272.087402 C 147.246094 282.546387 136.838379 292.492676 126.738281 302.746582 C 123.508301 306.130371 118.996582 309.616699 117.561035 314.179688 C 115.561523 319.460449 117.304688 325.766602 121.35498 329.611816 C 147.194824 355.400391 173.085938 381.342773 198.874512 407.131348 C 204.873047 413.38623 214.921875 413.027344 220.715332 406.721191 C 245.01709 382.419434 269.421387 358.015137 293.723145 333.764648 C 297.004395 330.380859 300.439453 327.766113 301.772461 323.049316 C 303.515625 317.666016 301.618652 312.128906 297.875977 308.129883 C 285.981445 296.081543 273.779297 284.238281 261.987305 272.087402 C 265.268555 268.806152 268.498535 265.524902 271.831055 262.294922 C 283.417969 274.035645 295.107422 285.571289 306.745605 297.260742 C 309.821777 300.439453 313.410645 302.797852 318.024902 302.695312 C 322.69043 303.00293 326.535645 301.003418 329.714355 297.722168 C 354.067383 273.42041 378.369141 249.067383 402.722168 224.765625 C 406.003418 221.433105 409.489746 218.664551 410.720215 213.999023 C 412.053223 209.94873 411.181641 205.59082 408.977051 202.104492 C 407.131348 199.387207 404.516602 197.080078 402.260742 194.772949 C 378.061523 170.625 353.913574 146.425781 329.714355 122.277832 C 326.535645 118.996582 322.69043 116.99707 318.024902 117.304688 C 313.410645 117.202148 309.821777 119.560547 306.745605 122.739258 C 297.414551 132.121582 288.032227 141.350098 278.803711 150.783691 C 277.983398 151.501465 277.060547 152.578125 275.983887 152.885742 C 273.061523 150.98877 270.600586 148.117676 268.652344 145.195312 C 279.880371 134.274902 290.852051 123.046875 301.977539 111.972656 C 306.386719 107.717285 307.822266 101.103516 305.515137 95.412598 C 303.874512 91.464844 300.336914 88.59375 297.414551 85.620117 C 273.112793 61.369629 248.605957 36.760254 224.355469 12.612305 C 218.71582 7.023926 209.179688 6.870117 203.48877 12.458496 C 178.828125 37.119141 154.16748 61.831055 129.455566 86.491699 C 126.533203 89.465332 123.405762 91.875 121.918945 95.976562 C 120.534668 101.206055 120.944824 106.999512 124.892578 111.049805 C 135.146484 121.45752 145.554199 131.711426 155.859375 142.067871 Z M 155.859375 142.067871 " transform="matrix(0.0761905,0,0,0.0761905,0,0)"/>
<path style="fill-rule:nonzero;fill:rgb(0%,0%,0%);fill-opacity:1;stroke-width:13.333333;stroke-linecap:butt;stroke-linejoin:miter;stroke:rgb(16.078432%,39.215687%,59.607846%);stroke-opacity:1;stroke-miterlimit:4;" d="M 224.355469 12.612305 C 248.605957 36.760254 273.112793 61.369629 297.414551 85.620117 C 300.336914 88.59375 303.874512 91.464844 305.515137 95.412598 C 307.822266 101.103516 306.386719 107.717285 301.977539 111.972656 C 290.852051 123.046875 279.880371 134.274902 268.652344 145.195312 C 270.600586 148.117676 273.061523 150.98877 275.983887 152.885742 C 277.060547 152.578125 277.983398 151.501465 278.803711 150.783691 C 288.032227 141.350098 297.414551 132.121582 306.745605 122.739258 C 309.821777 119.560547 313.410645 117.202148 318.024902 117.304688 C 322.69043 116.99707 326.535645 118.996582 329.714355 122.277832 C 353.913574 146.425781 378.061523 170.625 402.260742 194.772949 C 404.516602 197.080078 407.131348 199.387207 408.977051 202.104492 C 411.181641 205.59082 412.053223 209.94873 410.720215 213.999023 C 409.489746 218.664551 406.003418 221.433105 402.722168 224.765625 C 378.369141 249.067383 354.067383 273.42041 329.714355 297.722168 C 326.535645 301.003418 322.69043 303.00293 318.024902 302.695312 C 313.410645 302.797852 309.821777 300.439453 306.745605 297.260742 C 295.107422 285.571289 283.417969 274.035645 271.831055 262.294922 C 268.498535 265.524902 265.268555 268.806152 261.987305 272.087402 C 273.779297 284.238281 285.981445 296.081543 297.875977 308.129883 C 301.618652 312.128906 303.515625 317.666016 301.772461 323.049316 C 300.439453 327.766113 297.004395 330.380859 293.723145 333.764648 C 269.421387 358.015137 245.01709 382.419434 220.715332 406.721191 C 214.921875 413.027344 204.873047 413.38623 198.874512 407.131348 C 173.085938 381.342773 147.194824 355.400391 121.35498 329.611816 C 117.304688 325.766602 115.561523 319.460449 117.561035 314.179688 C 118.996582 309.616699 123.508301 306.130371 126.738281 302.746582 C 136.838379 292.492676 147.246094 282.546387 157.141113 272.087402 C 154.372559 269.370117 151.655273 266.601562 148.886719 263.884277 C 138.94043 273.266602 129.506836 283.161621 119.765625 292.749023 C 116.689453 295.722656 113.254395 299.978027 109.101562 301.311035 C 103.666992 302.387695 98.129883 302.131348 93.977051 297.978516 C 68.188477 272.241211 41.835938 245.837402 15.944824 219.997559 C 11.484375 215.690918 10.048828 208.666992 12.817383 203.027344 C 14.355469 199.694824 17.687988 196.875 20.251465 194.260254 C 44.091797 170.419922 67.983398 146.630859 91.772461 122.739258 C 94.899902 119.509277 98.283691 116.843262 102.949219 116.535645 C 107.460938 116.125488 111.818848 117.868652 114.997559 120.996094 C 125.302734 131.30127 135.60791 141.708984 145.964355 151.962891 C 149.296875 148.681641 152.629395 145.400391 155.859375 142.067871 C 145.554199 131.711426 135.146484 121.45752 124.892578 111.049805 C 120.944824 106.999512 120.534668 101.206055 121.918945 95.976562 C 123.405762 91.875 126.533203 89.465332 129.455566 86.491699 C 154.16748 61.831055 178.828125 37.119141 203.48877 12.458496 C 209.179688 6.870117 218.71582 7.023926 224.355469 12.612305 Z M 192.824707 95.771484 C 193.132324 95.20752 193.439941 94.643555 193.696289 94.02832 C 196.669922 95.976562 200.053711 97.053223 202.924805 99.104004 C 205.693359 101.103516 208.461914 102.897949 211.435547 104.538574 C 210.974121 104.589844 210.512695 104.641113 210 104.692383 C 208.000488 106.179199 206.052246 107.409668 203.591309 107.922363 C 202.514648 106.845703 201.437988 105.717773 200.361328 104.641113 C 198.464355 104.641113 196.516113 104.641113 194.619141 104.589844 C 191.645508 107.409668 189.492188 109.819336 189.492188 114.125977 C 191.953125 116.99707 194.260254 119.25293 197.900391 120.534668 C 200.053711 119.099121 202.258301 117.663574 204.51416 116.381836 C 204.924316 114.638672 205.283203 112.844238 205.539551 111.101074 C 208.154297 110.332031 210.615234 109.460449 213.024902 108.22998 C 211.896973 113.151855 210.05127 117.817383 208.666992 122.687988 C 204.360352 122.636719 199.643555 122.175293 196.105957 125.097656 C 193.286133 127.91748 191.184082 131.916504 191.594238 136.018066 C 191.748047 139.504395 192.773438 144.067383 196.054688 145.964355 C 199.233398 147.963867 202.976074 150.476074 206.821289 148.886719 C 209.897461 147.60498 214.152832 145.759277 215.537109 142.478027 C 217.229004 139.350586 217.998047 135.710449 216.972656 132.224121 C 215.844727 129.506836 214.101562 126.994629 212.512207 124.533691 C 214.921875 118.842773 214.562988 112.741699 217.485352 107.20459 C 221.228027 110.844727 225.432129 113.76709 228.815918 117.714844 C 227.277832 121.40625 227.431641 125.148926 227.841797 129.04541 C 229.123535 133.095703 232.558594 135.095215 235.839844 137.351074 C 238.249512 137.351074 240.761719 137.453613 243.171387 137.145996 C 247.478027 136.018066 250.400391 131.865234 252.143555 128.02002 C 254.194336 118.894043 246.247559 110.588379 237.121582 111.665039 C 235.429688 112.844238 233.686523 113.972168 231.943359 114.997559 C 228.457031 111.101074 223.842773 108.896484 220.766602 104.641113 C 225.637207 103.308105 229.6875 100.334473 234.455566 99.052734 C 238.659668 105.461426 248.195801 105.871582 254.040527 101.71875 C 255.578613 99.616699 256.706543 97.155762 258.244629 95.002441 C 258.654785 90.285645 257.988281 85.825195 254.912109 82.133789 C 252.502441 80.339355 248.913574 78.493652 246.04248 77.67334 C 241.171875 78.083496 235.583496 81.005859 233.737793 85.825195 C 232.097168 88.901367 232.712402 92.028809 232.712402 95.361328 C 227.790527 97.30957 222.971191 99.411621 218.408203 102.128906 C 218.305664 97.668457 218.305664 93.208008 218.305664 88.747559 C 221.945801 86.235352 226.201172 82.800293 226.35498 77.980957 C 225.688477 74.545898 222.612305 71.264648 220.458984 68.598633 C 217.485352 68.701172 214.562988 68.701172 211.640625 68.649902 C 210.153809 70.085449 208.359375 71.572266 207.385254 73.417969 C 205.59082 77.211914 206.103516 82.03125 208.615723 85.36377 C 209.846191 86.850586 212.050781 87.670898 213.691406 88.54248 C 213.742676 92.797852 213.742676 97.001953 213.588867 101.257324 C 210.358887 99.411621 207.641602 97.104492 204.155273 95.720215 C 201.027832 94.489746 198.720703 92.336426 196.157227 90.285645 C 198.054199 85.36377 198.566895 82.03125 197.131348 76.853027 C 194.926758 73.828125 193.901367 69.060059 190.415039 67.521973 C 186.723633 65.419922 183.493652 63.215332 178.981934 63.625488 C 174.265137 63.112793 169.702148 66.394043 166.164551 69.162598 C 162.780762 73.26416 159.909668 77.365723 160.576172 83.005371 C 160.063477 88.286133 163.754883 92.387695 166.831055 96.28418 C 169.753418 98.48877 173.444824 100.026855 176.931152 101.154785 C 183.493652 102.180176 187.338867 98.283691 192.824707 95.771484 Z M 158.012695 164.01123 C 169.291992 175.393066 180.673828 186.672363 192.004395 198.00293 C 198.105469 203.38623 198.669434 214.050293 192.722168 219.741211 C 182.263184 230.559082 171.240234 240.915527 160.935059 251.887207 C 163.806152 254.655762 166.318359 257.680664 169.599609 260.039062 C 178.828125 250.45166 188.415527 241.223145 197.695312 231.738281 C 200.874023 228.55957 204.309082 226.098633 208.974609 226.303711 C 213.588867 225.996094 217.075195 227.53418 220.356445 230.610352 C 230.302734 240.402832 239.992676 250.400391 249.938965 260.090332 C 253.271484 256.809082 256.552734 253.579102 259.782715 250.195312 C 249.990234 240.60791 240.402832 230.866699 230.712891 221.279297 C 226.662598 217.331543 224.458008 211.589355 226.201172 206.052246 C 227.124023 202.617188 229.277344 200.10498 231.738281 197.695312 C 242.76123 186.774902 253.630371 175.700684 264.70459 164.831543 C 262.192383 162.165527 259.628906 159.602051 256.962891 157.038574 C 246.09375 167.805176 235.327148 178.674316 224.458008 189.492188 C 219.023438 195.183105 208.92334 195.285645 203.38623 189.594727 C 191.594238 177.854004 179.750977 165.908203 167.907715 154.116211 C 164.575195 157.397461 161.293945 160.678711 158.012695 164.01123 Z M 285.930176 247.734375 C 291.518555 242.504883 296.44043 236.762695 302.695312 232.199707 C 301.721191 230.712891 300.74707 229.226074 299.824219 227.739258 C 296.132812 231.430664 291.621094 234.558105 288.391113 238.608398 C 287.67334 238.659668 286.904297 238.710938 286.186523 238.762207 C 283.31543 234.865723 281.264648 230.302734 279.162598 225.893555 C 276.496582 219.997559 277.470703 214.35791 277.316895 208.000488 C 277.214355 200.720215 281.162109 195.388184 284.238281 189.133301 C 291.262207 179.699707 301.92627 172.521973 313.974609 172.316895 C 319.562988 172.368164 324.638672 171.855469 329.919434 173.342285 C 334.226074 174.265137 337.507324 176.623535 341.25 178.776855 C 343.967285 180.41748 345.864258 182.67334 348.120117 184.87793 C 352.734375 189.030762 355.50293 195.439453 357.70752 201.181641 C 359.091797 204.462891 358.630371 207.539062 358.681641 211.025391 C 358.579102 215.229492 359.143066 219.946289 357.861328 223.945312 C 356.220703 229.584961 352.478027 234.968262 349.299316 239.838867 C 344.941406 236.762695 341.762695 232.712402 337.866211 229.123535 C 336.328125 226.611328 333.55957 230.302734 333.098145 231.84082 C 338.942871 236.967773 344.58252 242.248535 350.068359 247.734375 C 353.24707 243.068848 357.297363 240.197754 359.399414 235.224609 C 362.526855 227.585449 365.910645 220.458984 365.397949 211.999512 C 365.449219 204.155273 362.526855 197.644043 359.604492 190.517578 C 358.066406 186.364746 354.169922 183.955078 351.965332 179.956055 C 349.453125 177.546387 346.325684 175.649414 343.710938 173.291016 C 337.507324 170.163574 331.047363 166.472168 324.074707 165.754395 C 320.075684 165.549316 315.974121 165.549316 311.975098 165.805664 C 304.848633 166.523438 298.747559 170.061035 292.287598 173.291016 C 289.724121 175.495605 287.314453 177.597656 284.494629 179.494629 C 282.546387 182.519531 280.03418 184.980469 277.880859 187.851562 C 274.958496 194.208984 271.984863 200.976562 270.908203 207.949219 C 269.882812 214.40918 271.26709 221.381836 273.522949 227.431641 C 275.522461 232.045898 277.163086 236.865234 280.239258 240.710449 C 282.13623 243.068848 284.084473 245.324707 285.930176 247.734375 Z M 105.871582 172.009277 C 100.334473 174.162598 96.437988 177.546387 90.439453 178.31543 C 86.953125 178.674316 83.518066 179.545898 80.031738 179.750977 C 76.801758 179.956055 73.828125 178.571777 70.700684 178.623047 C 68.95752 180.263672 69.98291 184.057617 69.367676 186.364746 C 68.137207 191.594238 69.008789 196.669922 68.547363 201.950684 C 67.675781 206.975098 67.624512 211.999512 66.650391 217.023926 C 67.009277 222.253418 68.444824 228.764648 72.546387 232.456055 C 74.238281 234.147949 76.391602 234.711914 78.544922 235.686035 C 82.185059 237.224121 85.107422 239.838867 88.850098 241.223145 C 92.131348 242.453613 95.310059 243.786621 98.283691 245.734863 C 101.462402 247.478027 105.974121 249.42627 109.40918 247.478027 C 113.613281 245.632324 117.304688 243.068848 121.713867 241.68457 C 126.533203 240.095215 130.070801 236.608887 134.736328 234.763184 C 138.632812 233.378906 140.683594 230.046387 142.785645 226.765137 C 144.785156 223.022461 146.015625 218.305664 144.887695 214.152832 C 144.272461 209.128418 143.24707 204.052734 143.29834 198.977051 C 143.24707 195.952148 142.375488 193.081055 142.375488 190.004883 C 142.22168 186.416016 142.22168 181.750488 140.324707 178.571777 C 132.121582 180.725098 123.815918 179.699707 115.817871 177.084961 C 112.331543 175.700684 109.511719 173.137207 105.871582 172.009277 Z M 315.820312 174.675293 C 315.717773 177.495117 315.461426 180.46875 315.769043 183.288574 C 316.435547 184.82666 319.716797 185.031738 320.178223 183.288574 C 320.48584 180.725098 320.383301 178.059082 320.383301 175.495605 C 318.947754 174.572754 317.409668 174.829102 315.820312 174.675293 Z M 327.561035 185.288086 C 328.842773 186.057129 330.073242 186.826172 331.35498 187.646484 C 332.841797 184.87793 334.020996 182.058105 334.995117 179.084473 C 333.867188 178.520508 332.739258 178.007812 331.560059 177.495117 C 329.970703 180.007324 328.894043 182.62207 327.561035 185.288086 Z M 300.080566 178.828125 C 299.516602 179.494629 299.055176 180.212402 298.54248 180.930176 C 299.926758 183.339844 301.362305 185.698242 302.95166 188.005371 C 303.977051 187.697754 305.002441 187.390137 306.079102 187.08252 C 305.412598 184.365234 304.899902 181.083984 303.361816 178.725586 C 302.285156 178.725586 301.157227 178.725586 300.080566 178.828125 Z M 338.942871 193.183594 C 339.660645 194.516602 340.378418 195.849609 341.096191 197.233887 C 343.659668 195.183105 346.274414 193.081055 348.786621 190.979004 C 347.8125 190.056152 346.838379 189.030762 345.761719 188.15918 C 343.352051 189.338379 341.403809 191.799316 338.942871 193.183594 Z M 286.032715 192.927246 C 288.493652 194.72168 290.852051 196.618652 293.10791 198.618164 C 294.338379 197.336426 295.620117 196.054688 296.850586 194.824219 C 294.133301 193.081055 291.364746 191.542969 288.852539 189.492188 C 287.878418 190.620117 286.955566 191.799316 286.032715 192.927246 Z M 320.383301 217.485352 C 321.767578 215.947266 323.818359 214.204102 324.331055 212.102051 C 324.638672 209.333496 322.126465 207.487793 320.383301 205.744629 C 313.256836 205.283203 306.181641 203.181152 299.157715 201.745605 C 299.465332 204.052734 301.311035 204.821777 302.900391 206.154785 C 307.001953 209.077148 309.821777 213.22998 313.769531 216.254883 C 315.820312 217.792969 317.973633 217.331543 320.383301 217.485352 Z M 355.810547 207.333984 C 355.092773 205.847168 354.887695 204.411621 353.24707 203.693848 C 350.632324 204.052734 347.8125 204.411621 345.300293 205.283203 C 343.864746 206.257324 344.736328 208.974609 346.120605 209.743652 C 349.606934 209.794922 352.734375 209.077148 355.810547 207.333984 Z M 290.339355 211.794434 C 290.134277 210.358887 290.95459 207.385254 289.262695 206.872559 C 286.904297 206.564941 284.443359 206.308594 282.033691 206.359863 C 280.341797 207.077637 279.880371 210.461426 281.726074 211.179199 C 284.597168 211.435547 287.468262 211.435547 290.339355 211.794434 Z M 207.692871 272.548828 C 207.692871 274.49707 207.692871 276.496582 207.692871 278.496094 C 200.566406 280.03418 192.414551 281.418457 186.262207 285.571289 C 184.775391 283.366699 183.391113 282.341309 180.930176 281.264648 C 178.31543 283.981934 175.649414 286.59668 172.932129 289.211426 C 173.95752 291.467285 175.290527 293.210449 176.931152 295.004883 C 172.880859 298.901367 171.75293 305.566406 169.599609 310.693359 C 167.702637 310.949707 163.857422 309.873047 162.832031 311.71875 C 162.626953 315.461426 162.832031 318.999023 161.447754 322.587891 C 163.703613 323.254395 166.010742 323.408203 168.369141 323.459473 C 169.291992 327.407227 170.317383 331.35498 172.009277 335.046387 C 172.624512 336.687012 173.95752 338.789062 173.598633 340.583496 C 172.470703 341.967773 170.778809 343.044434 169.343262 344.069824 C 171.75293 347.453613 173.85498 350.939941 176.931152 353.811035 C 178.725586 352.580566 180.366211 351.350098 182.058105 350.068359 C 186.159668 353.041992 190.466309 355.656738 194.875488 358.220215 C 196.157227 358.322754 197.387695 358.425293 198.669434 358.527832 C 198.618164 360.783691 198.413086 362.988281 198.105469 365.192871 C 201.745605 367.038574 206.513672 366.115723 210.615234 366.320801 C 211.025391 364.372559 211.333008 362.424316 211.384277 360.373535 C 215.537109 359.040527 219.79248 359.553223 223.842773 357.912598 C 227.072754 356.835938 229.482422 354.887695 232.199707 352.888184 C 233.737793 354.528809 235.019531 356.271973 236.25 358.168945 C 239.47998 356.682129 241.069336 354.990234 242.915039 351.965332 C 243.991699 351.247559 245.068359 350.581055 246.14502 349.914551 C 244.709473 348.017578 243.273926 346.120605 241.992188 344.069824 C 243.376465 341.455078 244.96582 338.994141 246.503906 336.481934 C 247.939453 334.072266 248.503418 331.047363 249.272461 328.278809 C 251.169434 328.022461 255.270996 329.304199 256.193848 327.253418 C 256.450195 323.818359 256.450195 320.178223 256.245117 316.691895 C 255.168457 314.846191 251.271973 315.974121 249.375 315.666504 C 249.528809 309.155273 248.093262 304.438477 244.401855 299.157715 C 246.14502 297.824707 247.939453 296.542969 249.733887 295.209961 C 247.529297 291.569824 244.453125 288.80127 241.992188 285.41748 C 240.454102 286.494141 238.916016 287.519531 237.37793 288.596191 C 236.762695 288.596191 236.147461 288.596191 235.532227 288.596191 C 233.532715 286.853027 231.481934 285.212402 229.174805 283.776855 C 226.560059 282.13623 223.125 281.520996 220.100098 280.598145 C 220.664062 278.649902 221.279297 276.75293 221.484375 274.702148 C 217.587891 272.600098 211.999512 272.702637 207.692871 272.548828 Z M 207.692871 272.548828 " transform="matrix(0.0761905,0,0,0.0761905,0,0)"/>
<path style="fill-rule:nonzero;fill:rgb(0%,0%,0%);fill-opacity:1;stroke-width:13.333333;stroke-linecap:butt;stroke-linejoin:miter;stroke:rgb(99.607843%,99.607843%,99.607843%);stroke-opacity:1;stroke-miterlimit:4;" d="M 178.981934 63.625488 C 183.493652 63.215332 186.723633 65.419922 190.415039 67.521973 C 193.901367 69.060059 194.926758 73.828125 197.131348 76.853027 C 198.566895 82.03125 198.054199 85.36377 196.157227 90.285645 C 198.720703 92.336426 201.027832 94.489746 204.155273 95.720215 C 207.641602 97.104492 210.358887 99.411621 213.588867 101.257324 C 213.742676 97.001953 213.742676 92.797852 213.691406 88.54248 C 212.050781 87.670898 209.846191 86.850586 208.615723 85.36377 C 206.103516 82.03125 205.59082 77.211914 207.385254 73.417969 C 208.359375 71.572266 210.153809 70.085449 211.640625 68.649902 C 214.562988 68.701172 217.485352 68.701172 220.458984 68.598633 C 222.612305 71.264648 225.688477 74.545898 226.35498 77.980957 C 226.201172 82.800293 221.945801 86.235352 218.305664 88.747559 C 218.305664 93.208008 218.305664 97.668457 218.408203 102.128906 C 222.971191 99.411621 227.790527 97.30957 232.712402 95.361328 C 232.712402 92.028809 232.097168 88.901367 233.737793 85.825195 C 235.583496 81.005859 241.171875 78.083496 246.04248 77.67334 C 248.913574 78.493652 252.502441 80.339355 254.912109 82.133789 C 257.988281 85.825195 258.654785 90.285645 258.244629 95.002441 C 256.706543 97.155762 255.578613 99.616699 254.040527 101.71875 C 248.195801 105.871582 238.659668 105.461426 234.455566 99.052734 C 229.6875 100.334473 225.637207 103.308105 220.766602 104.641113 C 223.842773 108.896484 228.457031 111.101074 231.943359 114.997559 C 233.686523 113.972168 235.429688 112.844238 237.121582 111.665039 C 246.247559 110.588379 254.194336 118.894043 252.143555 128.02002 C 250.400391 131.865234 247.478027 136.018066 243.171387 137.145996 C 240.761719 137.453613 238.249512 137.351074 235.839844 137.351074 C 232.558594 135.095215 229.123535 133.095703 227.841797 129.04541 C 227.431641 125.148926 227.277832 121.40625 228.815918 117.714844 C 225.432129 113.76709 221.228027 110.844727 217.485352 107.20459 C 214.562988 112.741699 214.921875 118.842773 212.512207 124.533691 C 214.101562 126.994629 215.844727 129.506836 216.972656 132.224121 C 217.998047 135.710449 217.229004 139.350586 215.537109 142.478027 C 214.152832 145.759277 209.897461 147.60498 206.821289 148.886719 C 202.976074 150.476074 199.233398 147.963867 196.054688 145.964355 C 192.773438 144.067383 191.748047 139.504395 191.594238 136.018066 C 191.184082 131.916504 193.286133 127.91748 196.105957 125.097656 C 199.643555 122.175293 204.360352 122.636719 208.666992 122.687988 C 210.05127 117.817383 211.896973 113.151855 213.024902 108.22998 C 210.615234 109.460449 208.154297 110.332031 205.539551 111.101074 C 205.283203 112.844238 204.924316 114.638672 204.51416 116.381836 C 202.258301 117.663574 200.053711 119.099121 197.900391 120.534668 C 194.260254 119.25293 191.953125 116.99707 189.492188 114.125977 C 189.492188 109.819336 191.645508 107.409668 194.619141 104.589844 C 196.516113 104.641113 198.464355 104.641113 200.361328 104.641113 C 201.437988 105.717773 202.514648 106.845703 203.591309 107.922363 C 206.052246 107.409668 208.000488 106.179199 210 104.692383 C 210.512695 104.641113 210.974121 104.589844 211.435547 104.538574 C 208.461914 102.897949 205.693359 101.103516 202.924805 99.104004 C 200.053711 97.053223 196.669922 95.976562 193.696289 94.02832 C 193.439941 94.643555 193.132324 95.20752 192.824707 95.771484 C 187.338867 98.283691 183.493652 102.180176 176.931152 101.154785 C 173.444824 100.026855 169.753418 98.48877 166.831055 96.28418 C 163.754883 92.387695 160.063477 88.286133 160.576172 83.005371 C 159.909668 77.365723 162.780762 73.26416 166.164551 69.162598 C 169.702148 66.394043 174.265137 63.112793 178.981934 63.625488 Z M 185.698242 95.515137 C 188.005371 93.259277 190.26123 91.003418 192.51709 88.696289 C 193.54248 84.133301 193.901367 81.005859 192.51709 76.494141 C 190.158691 72.392578 186.826172 69.162598 182.006836 68.393555 C 178.776855 68.188477 174.675293 67.932129 171.906738 69.931641 C 169.189453 72.084961 166.728516 74.443359 165.908203 77.929688 C 163.806152 85.004883 166.933594 93.208008 174.111328 95.771484 C 178.110352 97.514648 181.699219 96.437988 185.698242 95.515137 Z M 248.452148 99.616699 C 250.041504 98.334961 251.630859 97.104492 253.322754 95.925293 C 253.835449 94.233398 254.296875 92.592773 254.80957 90.952148 C 253.476562 87.722168 252.194824 84.851074 248.913574 83.261719 C 243.632812 80.236816 236.711426 85.568848 236.25 91.003418 C 235.891113 94.643555 238.300781 97.053223 241.171875 98.847656 C 243.120117 100.180664 246.196289 99.56543 248.452148 99.616699 Z M 236.30127 120.32959 C 235.17334 122.687988 235.275879 125.046387 235.275879 127.609863 C 235.993652 128.327637 236.711426 129.04541 237.429199 129.763184 C 238.864746 129.711914 240.300293 129.711914 241.73584 129.506836 C 242.86377 128.635254 243.837891 127.558594 244.863281 126.533203 C 244.555664 123.867188 244.453125 121.611328 242.043457 119.919434 C 240.197754 118.637695 238.198242 119.714355 236.30127 120.32959 Z M 197.95166 142.272949 C 200.822754 143.657227 202.976074 145.45166 206.359863 144.42627 C 210.717773 142.990723 215.075684 137.76123 213.024902 133.044434 C 212.563477 130.480957 209.230957 129.09668 207.436523 127.353516 C 205.539551 127.353516 203.48877 127.148438 201.591797 127.507324 C 198.720703 128.942871 195.234375 131.455078 195.285645 134.992676 C 195.029297 137.709961 196.82373 139.96582 197.95166 142.272949 Z M 197.95166 142.272949 " transform="matrix(0.0761905,0,0,0.0761905,0,0)"/>
<path style="fill-rule:nonzero;fill:rgb(0%,0%,0%);fill-opacity:1;stroke-width:13.333333;stroke-linecap:butt;stroke-linejoin:miter;stroke:rgb(16.862746%,39.607844%,59.607846%);stroke-opacity:1;stroke-miterlimit:4;" d="M 182.006836 68.393555 C 186.826172 69.162598 190.158691 72.392578 192.51709 76.494141 C 193.901367 81.005859 193.54248 84.133301 192.51709 88.696289 C 190.26123 91.003418 188.005371 93.259277 185.698242 95.515137 C 181.699219 96.437988 178.110352 97.514648 174.111328 95.771484 C 166.933594 93.208008 163.806152 85.004883 165.908203 77.929688 C 166.728516 74.443359 169.189453 72.084961 171.906738 69.931641 C 174.675293 67.932129 178.776855 68.188477 182.006836 68.393555 Z M 172.675781 78.80127 C 172.727051 82.03125 172.111816 85.004883 174.213867 87.773438 C 175.495605 90.285645 179.956055 89.055176 182.314453 89.362793 C 183.69873 88.029785 185.031738 86.696777 186.364746 85.36377 C 186.364746 83.466797 186.364746 81.621094 186.364746 79.724121 C 183.442383 74.494629 176.05957 73.469238 172.675781 78.80127 Z M 172.675781 78.80127 " transform="matrix(0.0761905,0,0,0.0761905,0,0)"/>
<path style="fill-rule:nonzero;fill:rgb(0%,0%,0%);fill-opacity:1;stroke-width:13.333333;stroke-linecap:butt;stroke-linejoin:miter;stroke:rgb(100%,100%,100%);stroke-opacity:1;stroke-miterlimit:4;" d="M 186.364746 79.724121 C 186.364746 81.621094 186.364746 83.466797 186.364746 85.36377 C 185.031738 86.696777 183.69873 88.029785 182.314453 89.362793 C 179.956055 89.055176 175.495605 90.285645 174.213867 87.773438 C 172.111816 85.004883 172.727051 82.03125 172.675781 78.80127 C 176.05957 73.469238 183.442383 74.494629 186.364746 79.724121 Z M 186.364746 79.724121 " transform="matrix(0.0761905,0,0,0.0761905,0,0)"/>
<path style="fill-rule:nonzero;fill:rgb(0%,0%,0%);fill-opacity:1;stroke-width:13.333333;stroke-linecap:butt;stroke-linejoin:miter;stroke:rgb(16.078432%,39.215687%,59.607846%);stroke-opacity:1;stroke-miterlimit:4;" d="M 248.913574 83.261719 C 252.194824 84.851074 253.476562 87.722168 254.80957 90.952148 C 254.296875 92.592773 253.835449 94.233398 253.322754 95.925293 C 251.630859 97.104492 250.041504 98.334961 248.452148 99.616699 C 246.196289 99.56543 243.120117 100.180664 241.171875 98.847656 C 238.300781 97.053223 235.891113 94.643555 236.25 91.003418 C 236.711426 85.568848 243.632812 80.236816 248.913574 83.261719 Z M 248.913574 83.261719 " transform="matrix(0.0761905,0,0,0.0761905,0,0)"/>
<path style="fill-rule:nonzero;fill:rgb(0%,0%,0%);fill-opacity:1;stroke-width:13.333333;stroke-linecap:butt;stroke-linejoin:miter;stroke:rgb(17.254902%,39.607844%,60.000002%);stroke-opacity:1;stroke-miterlimit:4;" d="M 242.043457 119.919434 C 244.453125 121.611328 244.555664 123.867188 244.863281 126.533203 C 243.837891 127.558594 242.86377 128.635254 241.73584 129.506836 C 240.300293 129.711914 238.864746 129.711914 237.429199 129.763184 C 236.711426 129.04541 235.993652 128.327637 235.275879 127.609863 C 235.275879 125.046387 235.17334 122.687988 236.30127 120.32959 C 238.198242 119.714355 240.197754 118.637695 242.043457 119.919434 Z M 242.043457 119.919434 " transform="matrix(0.0761905,0,0,0.0761905,0,0)"/>
<path style="fill-rule:nonzero;fill:rgb(0%,0%,0%);fill-opacity:1;stroke-width:13.333333;stroke-linecap:butt;stroke-linejoin:miter;stroke:rgb(16.078432%,39.215687%,59.607846%);stroke-opacity:1;stroke-miterlimit:4;" d="M 201.591797 127.507324 C 203.48877 127.148438 205.539551 127.353516 207.436523 127.353516 C 209.230957 129.09668 212.563477 130.480957 213.024902 133.044434 C 215.075684 137.76123 210.717773 142.990723 206.359863 144.42627 C 202.976074 145.45166 200.822754 143.657227 197.95166 142.272949 C 196.82373 139.96582 195.029297 137.709961 195.285645 134.992676 C 195.234375 131.455078 198.720703 128.942871 201.591797 127.507324 Z M 201.591797 127.507324 " transform="matrix(0.0761905,0,0,0.0761905,0,0)"/>
<path style="fill-rule:nonzero;fill:rgb(0%,0%,0%);fill-opacity:1;stroke-width:13.333333;stroke-linecap:butt;stroke-linejoin:miter;stroke:rgb(100%,100%,100%);stroke-opacity:1;stroke-miterlimit:4;" d="M 167.907715 154.116211 C 179.750977 165.908203 191.594238 177.854004 203.38623 189.594727 C 208.92334 195.285645 219.023438 195.183105 224.458008 189.492188 C 235.327148 178.674316 246.09375 167.805176 256.962891 157.038574 C 259.628906 159.602051 262.192383 162.165527 264.70459 164.831543 C 253.630371 175.700684 242.76123 186.774902 231.738281 197.695312 C 229.277344 200.10498 227.124023 202.617188 226.201172 206.052246 C 224.458008 211.589355 226.662598 217.331543 230.712891 221.279297 C 240.402832 230.866699 249.990234 240.60791 259.782715 250.195312 C 256.552734 253.579102 253.271484 256.809082 249.938965 260.090332 C 239.992676 250.400391 230.302734 240.402832 220.356445 230.610352 C 217.075195 227.53418 213.588867 225.996094 208.974609 226.303711 C 204.309082 226.098633 200.874023 228.55957 197.695312 231.738281 C 188.415527 241.223145 178.828125 250.45166 169.599609 260.039062 C 166.318359 257.680664 163.806152 254.655762 160.935059 251.887207 C 171.240234 240.915527 182.263184 230.559082 192.722168 219.741211 C 198.669434 214.050293 198.105469 203.38623 192.004395 198.00293 C 180.673828 186.672363 169.291992 175.393066 158.012695 164.01123 C 161.293945 160.678711 164.575195 157.397461 167.907715 154.116211 Z M 167.907715 154.116211 " transform="matrix(0.0761905,0,0,0.0761905,0,0)"/>
<path style="fill-rule:nonzero;fill:rgb(0%,0%,0%);fill-opacity:1;stroke-width:13.333333;stroke-linecap:butt;stroke-linejoin:miter;stroke:rgb(99.607843%,99.607843%,99.607843%);stroke-opacity:1;stroke-miterlimit:4;" d="M 311.975098 165.805664 C 315.974121 165.549316 320.075684 165.549316 324.074707 165.754395 C 331.047363 166.472168 337.507324 170.163574 343.710938 173.291016 C 346.325684 175.649414 349.453125 177.546387 351.965332 179.956055 C 354.169922 183.955078 358.066406 186.364746 359.604492 190.517578 C 362.526855 197.644043 365.449219 204.155273 365.397949 211.999512 C 365.910645 220.458984 362.526855 227.585449 359.399414 235.224609 C 357.297363 240.197754 353.24707 243.068848 350.068359 247.734375 C 344.58252 242.248535 338.942871 236.967773 333.098145 231.84082 C 333.55957 230.302734 336.328125 226.611328 337.866211 229.123535 C 341.762695 232.712402 344.941406 236.762695 349.299316 239.838867 C 352.478027 234.968262 356.220703 229.584961 357.861328 223.945312 C 359.143066 219.946289 358.579102 215.229492 358.681641 211.025391 C 358.630371 207.539062 359.091797 204.462891 357.70752 201.181641 C 355.50293 195.439453 352.734375 189.030762 348.120117 184.87793 C 345.864258 182.67334 343.967285 180.41748 341.25 178.776855 C 337.507324 176.623535 334.226074 174.265137 329.919434 173.342285 C 324.638672 171.855469 319.562988 172.368164 313.974609 172.316895 C 301.92627 172.521973 291.262207 179.699707 284.238281 189.133301 C 281.162109 195.388184 277.214355 200.720215 277.316895 208.000488 C 277.470703 214.35791 276.496582 219.997559 279.162598 225.893555 C 281.264648 230.302734 283.31543 234.865723 286.186523 238.762207 C 286.904297 238.710938 287.67334 238.659668 288.391113 238.608398 C 291.621094 234.558105 296.132812 231.430664 299.824219 227.739258 C 300.74707 229.226074 301.721191 230.712891 302.695312 232.199707 C 296.44043 236.762695 291.518555 242.504883 285.930176 247.734375 C 284.084473 245.324707 282.13623 243.068848 280.239258 240.710449 C 277.163086 236.865234 275.522461 232.045898 273.522949 227.431641 C 271.26709 221.381836 269.882812 214.40918 270.908203 207.949219 C 271.984863 200.976562 274.958496 194.208984 277.880859 187.851562 C 280.03418 184.980469 282.546387 182.519531 284.494629 179.494629 C 287.314453 177.597656 289.724121 175.495605 292.287598 173.291016 C 298.747559 170.061035 304.848633 166.523438 311.975098 165.805664 Z M 311.975098 165.805664 " transform="matrix(0.0761905,0,0,0.0761905,0,0)"/>
<path style="fill-rule:nonzero;fill:rgb(0%,0%,0%);fill-opacity:1;stroke-width:13.333333;stroke-linecap:butt;stroke-linejoin:miter;stroke:rgb(100%,100%,100%);stroke-opacity:1;stroke-miterlimit:4;" d="M 105.871582 172.009277 C 109.511719 173.137207 112.331543 175.700684 115.817871 177.084961 C 123.815918 179.699707 132.121582 180.725098 140.324707 178.571777 C 142.22168 181.750488 142.22168 186.416016 142.375488 190.004883 C 142.375488 193.081055 143.24707 195.952148 143.29834 198.977051 C 143.24707 204.052734 144.272461 209.128418 144.887695 214.152832 C 146.015625 218.305664 144.785156 223.022461 142.785645 226.765137 C 140.683594 230.046387 138.632812 233.378906 134.736328 234.763184 C 130.070801 236.608887 126.533203 240.095215 121.713867 241.68457 C 117.304688 243.068848 113.613281 245.632324 109.40918 247.478027 C 105.974121 249.42627 101.462402 247.478027 98.283691 245.734863 C 95.310059 243.786621 92.131348 242.453613 88.850098 241.223145 C 85.107422 239.838867 82.185059 237.224121 78.544922 235.686035 C 76.391602 234.711914 74.238281 234.147949 72.546387 232.456055 C 68.444824 228.764648 67.009277 222.253418 66.650391 217.023926 C 67.624512 211.999512 67.675781 206.975098 68.547363 201.950684 C 69.008789 196.669922 68.137207 191.594238 69.367676 186.364746 C 69.98291 184.057617 68.95752 180.263672 70.700684 178.623047 C 73.828125 178.571777 76.801758 179.956055 80.031738 179.750977 C 83.518066 179.545898 86.953125 178.674316 90.439453 178.31543 C 96.437988 177.546387 100.334473 174.162598 105.871582 172.009277 Z M 103.308105 208.718262 C 103.359375 216.306152 103.205566 223.945312 103.410645 231.584473 C 105.205078 231.635742 106.948242 231.687012 108.691406 231.789551 C 108.640137 224.406738 108.691406 217.075195 108.691406 209.743652 C 110.024414 208.103027 111.61377 206.411133 112.485352 204.51416 C 113.305664 201.335449 112.126465 197.438965 109.306641 195.695801 C 106.999512 195.029297 103.410645 194.72168 101.616211 196.721191 C 99.924316 198.464355 97.565918 200.874023 98.591309 203.48877 C 99.206543 206.206055 101.257324 207.180176 103.308105 208.718262 Z M 103.308105 208.718262 " transform="matrix(0.0761905,0,0,0.0761905,0,0)"/>
<path style="fill-rule:nonzero;fill:rgb(0%,0%,0%);fill-opacity:1;stroke-width:13.333333;stroke-linecap:butt;stroke-linejoin:miter;stroke:rgb(99.607843%,99.607843%,99.607843%);stroke-opacity:1;stroke-miterlimit:4;" d="M 315.820312 174.675293 C 317.409668 174.829102 318.947754 174.572754 320.383301 175.495605 C 320.383301 178.059082 320.48584 180.725098 320.178223 183.288574 C 319.716797 185.031738 316.435547 184.82666 315.769043 183.288574 C 315.461426 180.46875 315.717773 177.495117 315.820312 174.675293 Z M 315.820312 174.675293 " transform="matrix(0.0761905,0,0,0.0761905,0,0)"/>
<path style="fill-rule:nonzero;fill:rgb(0%,0%,0%);fill-opacity:1;stroke-width:13.333333;stroke-linecap:butt;stroke-linejoin:miter;stroke:rgb(99.607843%,99.607843%,99.607843%);stroke-opacity:1;stroke-miterlimit:4;" d="M 331.560059 177.495117 C 332.739258 178.007812 333.867188 178.520508 334.995117 179.084473 C 334.020996 182.058105 332.841797 184.87793 331.35498 187.646484 C 330.073242 186.826172 328.842773 186.057129 327.561035 185.288086 C 328.894043 182.62207 329.970703 180.007324 331.560059 177.495117 Z M 331.560059 177.495117 " transform="matrix(0.0761905,0,0,0.0761905,0,0)"/>
<path style="fill-rule:nonzero;fill:rgb(0%,0%,0%);fill-opacity:1;stroke-width:13.333333;stroke-linecap:butt;stroke-linejoin:miter;stroke:rgb(99.607843%,99.607843%,99.607843%);stroke-opacity:1;stroke-miterlimit:4;" d="M 300.080566 178.828125 C 301.157227 178.725586 302.285156 178.725586 303.361816 178.725586 C 304.899902 181.083984 305.412598 184.365234 306.079102 187.08252 C 305.002441 187.390137 303.977051 187.697754 302.95166 188.005371 C 301.362305 185.698242 299.926758 183.339844 298.54248 180.930176 C 299.055176 180.212402 299.516602 179.494629 300.080566 178.828125 Z M 300.080566 178.828125 " transform="matrix(0.0761905,0,0,0.0761905,0,0)"/>
<path style="fill-rule:nonzero;fill:rgb(0%,0%,0%);fill-opacity:1;stroke-width:13.333333;stroke-linecap:butt;stroke-linejoin:miter;stroke:rgb(99.215686%,99.215686%,99.607843%);stroke-opacity:1;stroke-miterlimit:4;" d="M 345.761719 188.15918 C 346.838379 189.030762 347.8125 190.056152 348.786621 190.979004 C 346.274414 193.081055 343.659668 195.183105 341.096191 197.233887 C 340.378418 195.849609 339.660645 194.516602 338.942871 193.183594 C 341.403809 191.799316 343.352051 189.338379 345.761719 188.15918 Z M 345.761719 188.15918 " transform="matrix(0.0761905,0,0,0.0761905,0,0)"/>
<path style="fill-rule:nonzero;fill:rgb(0%,0%,0%);fill-opacity:1;stroke-width:13.333333;stroke-linecap:butt;stroke-linejoin:miter;stroke:rgb(99.607843%,99.607843%,99.607843%);stroke-opacity:1;stroke-miterlimit:4;" d="M 288.852539 189.492188 C 291.364746 191.542969 294.133301 193.081055 296.850586 194.824219 C 295.620117 196.054688 294.338379 197.336426 293.10791 198.618164 C 290.852051 196.618652 288.493652 194.72168 286.032715 192.927246 C 286.955566 191.799316 287.878418 190.620117 288.852539 189.492188 Z M 288.852539 189.492188 " transform="matrix(0.0761905,0,0,0.0761905,0,0)"/>
<path style="fill-rule:nonzero;fill:rgb(0%,0%,0%);fill-opacity:1;stroke-width:13.333333;stroke-linecap:butt;stroke-linejoin:miter;stroke:rgb(16.862746%,39.607844%,60.000002%);stroke-opacity:1;stroke-miterlimit:4;" d="M 109.306641 195.695801 C 112.126465 197.438965 113.305664 201.335449 112.485352 204.51416 C 111.61377 206.411133 110.024414 208.103027 108.691406 209.743652 C 108.691406 217.075195 108.640137 224.406738 108.691406 231.789551 C 106.948242 231.687012 105.205078 231.635742 103.410645 231.584473 C 103.205566 223.945312 103.359375 216.306152 103.308105 208.718262 C 101.257324 207.180176 99.206543 206.206055 98.591309 203.48877 C 97.565918 200.874023 99.924316 198.464355 101.616211 196.721191 C 103.410645 194.72168 106.999512 195.029297 109.306641 195.695801 Z M 109.306641 195.695801 " transform="matrix(0.0761905,0,0,0.0761905,0,0)"/>
<path style="fill-rule:nonzero;fill:rgb(0%,0%,0%);fill-opacity:1;stroke-width:13.333333;stroke-linecap:butt;stroke-linejoin:miter;stroke:rgb(100%,100%,100%);stroke-opacity:1;stroke-miterlimit:4;" d="M 299.157715 201.745605 C 306.181641 203.181152 313.256836 205.283203 320.383301 205.744629 C 322.126465 207.487793 324.638672 209.333496 324.331055 212.102051 C 323.818359 214.204102 321.767578 215.947266 320.383301 217.485352 C 317.973633 217.331543 315.820312 217.792969 313.769531 216.254883 C 309.821777 213.22998 307.001953 209.077148 302.900391 206.154785 C 301.311035 204.821777 299.465332 204.052734 299.157715 201.745605 Z M 299.157715 201.745605 " transform="matrix(0.0761905,0,0,0.0761905,0,0)"/>
<path style="fill-rule:nonzero;fill:rgb(0%,0%,0%);fill-opacity:1;stroke-width:13.333333;stroke-linecap:butt;stroke-linejoin:miter;stroke:rgb(99.607843%,99.607843%,99.607843%);stroke-opacity:1;stroke-miterlimit:4;" d="M 353.24707 203.693848 C 354.887695 204.411621 355.092773 205.847168 355.810547 207.333984 C 352.734375 209.077148 349.606934 209.794922 346.120605 209.743652 C 344.736328 208.974609 343.864746 206.257324 345.300293 205.283203 C 347.8125 204.411621 350.632324 204.052734 353.24707 203.693848 Z M 353.24707 203.693848 " transform="matrix(0.0761905,0,0,0.0761905,0,0)"/>
<path style="fill-rule:nonzero;fill:rgb(0%,0%,0%);fill-opacity:1;stroke-width:13.333333;stroke-linecap:butt;stroke-linejoin:miter;stroke:rgb(99.607843%,99.607843%,99.607843%);stroke-opacity:1;stroke-miterlimit:4;" d="M 282.033691 206.359863 C 284.443359 206.308594 286.904297 206.564941 289.262695 206.872559 C 290.95459 207.385254 290.134277 210.358887 290.339355 211.794434 C 287.468262 211.435547 284.597168 211.435547 281.726074 211.179199 C 279.880371 210.461426 280.341797 207.077637 282.033691 206.359863 Z M 282.033691 206.359863 " transform="matrix(0.0761905,0,0,0.0761905,0,0)"/>
<path style="fill-rule:nonzero;fill:rgb(0%,0%,0%);fill-opacity:1;stroke-width:13.333333;stroke-linecap:butt;stroke-linejoin:miter;stroke:rgb(100%,100%,100%);stroke-opacity:1;stroke-miterlimit:4;" d="M 207.692871 272.548828 C 211.999512 272.702637 217.587891 272.600098 221.484375 274.702148 C 221.279297 276.75293 220.664062 278.649902 220.100098 280.598145 C 223.125 281.520996 226.560059 282.13623 229.174805 283.776855 C 231.481934 285.212402 233.532715 286.853027 235.532227 288.596191 C 236.147461 288.596191 236.762695 288.596191 237.37793 288.596191 C 238.916016 287.519531 240.454102 286.494141 241.992188 285.41748 C 244.453125 288.80127 247.529297 291.569824 249.733887 295.209961 C 247.939453 296.542969 246.14502 297.824707 244.401855 299.157715 C 248.093262 304.438477 249.528809 309.155273 249.375 315.666504 C 251.271973 315.974121 255.168457 314.846191 256.245117 316.691895 C 256.450195 320.178223 256.450195 323.818359 256.193848 327.253418 C 255.270996 329.304199 251.169434 328.022461 249.272461 328.278809 C 248.503418 331.047363 247.939453 334.072266 246.503906 336.481934 C 244.96582 338.994141 243.376465 341.455078 241.992188 344.069824 C 243.273926 346.120605 244.709473 348.017578 246.14502 349.914551 C 245.068359 350.581055 243.991699 351.247559 242.915039 351.965332 C 241.069336 354.990234 239.47998 356.682129 236.25 358.168945 C 235.019531 356.271973 233.737793 354.528809 232.199707 352.888184 C 229.482422 354.887695 227.072754 356.835938 223.842773 357.912598 C 219.79248 359.553223 215.537109 359.040527 211.384277 360.373535 C 211.333008 362.424316 211.025391 364.372559 210.615234 366.320801 C 206.513672 366.115723 201.745605 367.038574 198.105469 365.192871 C 198.413086 362.988281 198.618164 360.783691 198.669434 358.527832 C 197.387695 358.425293 196.157227 358.322754 194.875488 358.220215 C 190.466309 355.656738 186.159668 353.041992 182.058105 350.068359 C 180.366211 351.350098 178.725586 352.580566 176.931152 353.811035 C 173.85498 350.939941 171.75293 347.453613 169.343262 344.069824 C 170.778809 343.044434 172.470703 341.967773 173.598633 340.583496 C 173.95752 338.789062 172.624512 336.687012 172.009277 335.046387 C 170.317383 331.35498 169.291992 327.407227 168.369141 323.459473 C 166.010742 323.408203 163.703613 323.254395 161.447754 322.587891 C 162.832031 318.999023 162.626953 315.461426 162.832031 311.71875 C 163.857422 309.873047 167.702637 310.949707 169.599609 310.693359 C 171.75293 305.566406 172.880859 298.901367 176.931152 295.004883 C 175.290527 293.210449 173.95752 291.467285 172.932129 289.211426 C 175.649414 286.59668 178.31543 283.981934 180.930176 281.264648 C 183.391113 282.341309 184.775391 283.366699 186.262207 285.571289 C 192.414551 281.418457 200.566406 280.03418 207.692871 278.496094 C 207.692871 276.496582 207.692871 274.49707 207.692871 272.548828 Z M 222.355957 295.620117 C 216.357422 291.97998 209.487305 291.621094 202.770996 292.749023 C 196.772461 294.851074 189.389648 298.388672 186.518555 304.438477 C 184.672852 307.976074 182.67334 311.000977 182.109375 315.05127 C 180.263672 323.049316 183.852539 331.149902 188.364258 337.609863 C 190.517578 339.711914 193.029785 341.660156 195.490723 343.40332 C 201.796875 346.428223 209.077148 347.86377 215.998535 346.018066 C 220.100098 344.58252 224.20166 343.864746 227.226562 340.480957 C 230.456543 336.635742 234.250488 333.55957 235.378418 328.483887 C 236.147461 324.074707 237.275391 320.229492 236.30127 315.769043 C 235.429688 311.923828 235.327148 307.514648 232.507324 304.489746 C 230.559082 302.387695 228.867188 300.131836 226.970215 297.978516 C 225.637207 296.953125 223.842773 296.38916 222.355957 295.620117 Z M 222.355957 295.620117 " transform="matrix(0.0761905,0,0,0.0761905,0,0)"/>
<path style="fill-rule:nonzero;fill:rgb(0%,0%,0%);fill-opacity:1;stroke-width:13.333333;stroke-linecap:butt;stroke-linejoin:miter;stroke:rgb(16.078432%,39.215687%,59.607846%);stroke-opacity:1;stroke-miterlimit:4;" d="M 222.355957 295.620117 C 223.842773 296.38916 225.637207 296.953125 226.970215 297.978516 C 228.867188 300.131836 230.559082 302.387695 232.507324 304.489746 C 235.327148 307.514648 235.429688 311.923828 236.30127 315.769043 C 237.275391 320.229492 236.147461 324.074707 235.378418 328.483887 C 234.250488 333.55957 230.456543 336.635742 227.226562 340.480957 C 224.20166 343.864746 220.100098 344.58252 215.998535 346.018066 C 209.077148 347.86377 201.796875 346.428223 195.490723 343.40332 C 193.029785 341.660156 190.517578 339.711914 188.364258 337.609863 C 183.852539 331.149902 180.263672 323.049316 182.109375 315.05127 C 182.67334 311.000977 184.672852 307.976074 186.518555 304.438477 C 189.389648 298.388672 196.772461 294.851074 202.770996 292.749023 C 209.487305 291.621094 216.357422 291.97998 222.355957 295.620117 Z M 213.947754 303.771973 C 210.358887 303.874512 205.180664 302.695312 202.30957 305.258789 C 198.874512 308.129883 195.029297 310.334473 193.901367 314.94873 C 193.491211 319.152832 193.029785 323.76709 195.439453 327.458496 C 196.721191 330.021973 199.489746 331.662598 201.745605 333.303223 C 204.924316 335.81543 209.230957 335.610352 213.024902 335.097656 C 215.895996 334.020996 218.920898 332.226562 221.330566 330.227051 C 223.842773 326.638184 226.252441 321.51123 225.073242 317.050781 C 224.304199 313.974609 222.919922 310.693359 220.612793 308.38623 C 218.613281 306.643066 216.203613 305.258789 213.947754 303.771973 Z M 213.947754 303.771973 " transform="matrix(0.0761905,0,0,0.0761905,0,0)"/>
<path style="fill-rule:nonzero;fill:rgb(0%,0%,0%);fill-opacity:1;stroke-width:13.333333;stroke-linecap:butt;stroke-linejoin:miter;stroke:rgb(100%,100%,100%);stroke-opacity:1;stroke-miterlimit:4;" d="M 213.947754 303.771973 C 216.203613 305.258789 218.613281 306.643066 220.612793 308.38623 C 222.919922 310.693359 224.304199 313.974609 225.073242 317.050781 C 226.252441 321.51123 223.842773 326.638184 221.330566 330.227051 C 218.920898 332.226562 215.895996 334.020996 213.024902 335.097656 C 209.230957 335.610352 204.924316 335.81543 201.745605 333.303223 C 199.489746 331.662598 196.721191 330.021973 195.439453 327.458496 C 193.029785 323.76709 193.491211 319.152832 193.901367 314.94873 C 195.029297 310.334473 198.874512 308.129883 202.30957 305.258789 C 205.180664 302.695312 210.358887 303.874512 213.947754 303.771973 Z M 213.947754 303.771973 " transform="matrix(0.0761905,0,0,0.0761905,0,0)"/>
<path style=" stroke:none;fill-rule:nonzero;fill:rgb(100%,100%,100%);fill-opacity:1;" d="M 0 0 L 32 0 L 32 32 L 0 32 Z M 11.875 10.824219 C 11.628906 11.078125 11.375 11.328125 11.121094 11.578125 C 10.332031 10.796875 9.546875 10.003906 8.761719 9.21875 C 8.519531 8.980469 8.1875 8.847656 7.84375 8.878906 C 7.488281 8.902344 7.230469 9.105469 6.992188 9.351562 C 5.179688 11.171875 3.359375 12.984375 1.542969 14.800781 C 1.347656 15 1.09375 15.214844 0.976562 15.46875 C 0.765625 15.898438 0.875 16.433594 1.214844 16.761719 C 3.1875 18.730469 5.195312 20.742188 7.160156 22.703125 C 7.476562 23.019531 7.898438 23.039062 8.3125 22.957031 C 8.628906 22.855469 8.890625 22.53125 9.125 22.304688 C 9.867188 21.574219 10.585938 20.820312 11.34375 20.105469 C 11.554688 20.3125 11.761719 20.523438 11.972656 20.730469 C 11.21875 21.527344 10.425781 22.285156 9.65625 23.066406 C 9.410156 23.324219 9.066406 23.589844 8.957031 23.9375 C 8.804688 24.339844 8.9375 24.820312 9.246094 25.113281 C 11.214844 27.078125 13.1875 29.054688 15.152344 31.019531 C 15.609375 31.496094 16.375 31.46875 16.816406 30.988281 C 18.667969 29.136719 20.527344 27.277344 22.378906 25.429688 C 22.628906 25.171875 22.890625 24.972656 22.992188 24.613281 C 23.125 24.203125 22.980469 23.78125 22.695312 23.476562 C 21.789062 22.558594 20.859375 21.65625 19.960938 20.730469 C 20.210938 20.480469 20.457031 20.230469 20.710938 19.984375 C 21.59375 20.878906 22.484375 21.757812 23.371094 22.648438 C 23.605469 22.890625 23.878906 23.070312 24.230469 23.0625 C 24.585938 23.085938 24.878906 22.933594 25.121094 22.683594 C 26.976562 20.832031 28.828125 18.976562 30.683594 17.125 C 30.933594 16.871094 31.199219 16.660156 31.292969 16.304688 C 31.394531 15.996094 31.328125 15.664062 31.160156 15.398438 C 31.019531 15.191406 30.820312 15.015625 30.648438 14.839844 C 28.804688 13 26.964844 11.15625 25.121094 9.316406 C 24.878906 9.066406 24.585938 8.914062 24.230469 8.9375 C 23.878906 8.929688 23.605469 9.109375 23.371094 9.351562 C 22.660156 10.066406 21.945312 10.769531 21.242188 11.488281 C 21.179688 11.542969 21.109375 11.625 21.027344 11.648438 C 20.804688 11.503906 20.617188 11.285156 20.46875 11.0625 C 21.324219 10.230469 22.160156 9.375 23.007812 8.53125 C 23.34375 8.207031 23.453125 7.703125 23.277344 7.269531 C 23.152344 6.96875 22.882812 6.75 22.660156 6.523438 C 20.808594 4.675781 18.941406 2.800781 17.09375 0.960938 C 16.664062 0.535156 15.9375 0.523438 15.503906 0.949219 C 13.625 2.828125 11.746094 4.710938 9.863281 6.589844 C 9.640625 6.816406 9.402344 7 9.289062 7.3125 C 9.183594 7.710938 9.214844 8.152344 9.515625 8.460938 C 10.296875 9.253906 11.089844 10.035156 11.875 10.824219 Z M 11.875 10.824219 "/>
<path style=" stroke:none;fill-rule:nonzero;fill:rgb(16.078432%,39.215687%,59.607846%);fill-opacity:1;" d="M 17.09375 0.960938 C 18.941406 2.800781 20.808594 4.675781 22.660156 6.523438 C 22.882812 6.75 23.152344 6.96875 23.277344 7.269531 C 23.453125 7.703125 23.34375 8.207031 23.007812 8.53125 C 22.160156 9.375 21.324219 10.230469 20.46875 11.0625 C 20.617188 11.285156 20.804688 11.503906 21.027344 11.648438 C 21.109375 11.625 21.179688 11.542969 21.242188 11.488281 C 21.945312 10.769531 22.660156 10.066406 23.371094 9.351562 C 23.605469 9.109375 23.878906 8.929688 24.230469 8.9375 C 24.585938 8.914062 24.878906 9.066406 25.121094 9.316406 C 26.964844 11.15625 28.804688 13 30.648438 14.839844 C 30.820312 15.015625 31.019531 15.191406 31.160156 15.398438 C 31.328125 15.664062 31.394531 15.996094 31.292969 16.304688 C 31.199219 16.660156 30.933594 16.871094 30.683594 17.125 C 28.828125 18.976562 26.976562 20.832031 25.121094 22.683594 C 24.878906 22.933594 24.585938 23.085938 24.230469 23.0625 C 23.878906 23.070312 23.605469 22.890625 23.371094 22.648438 C 22.484375 21.757812 21.59375 20.878906 20.710938 19.984375 C 20.457031 20.230469 20.210938 20.480469 19.960938 20.730469 C 20.859375 21.65625 21.789062 22.558594 22.695312 23.476562 C 22.980469 23.78125 23.125 24.203125 22.992188 24.613281 C 22.890625 24.972656 22.628906 25.171875 22.378906 25.429688 C 20.527344 27.277344 18.667969 29.136719 16.816406 30.988281 C 16.375 31.46875 15.609375 31.496094 15.152344 31.019531 C 13.1875 29.054688 11.214844 27.078125 9.246094 25.113281 C 8.9375 24.820312 8.804688 24.339844 8.957031 23.9375 C 9.066406 23.589844 9.410156 23.324219 9.65625 23.066406 C 10.425781 22.285156 11.21875 21.527344 11.972656 20.730469 C 11.761719 20.523438 11.554688 20.3125 11.34375 20.105469 C 10.585938 20.820312 9.867188 21.574219 9.125 22.304688 C 8.890625 22.53125 8.628906 22.855469 8.3125 22.957031 C 7.898438 23.039062 7.476562 23.019531 7.160156 22.703125 C 5.195312 20.742188 3.1875 18.730469 1.214844 16.761719 C 0.875 16.433594 0.765625 15.898438 0.976562 15.46875 C 1.09375 15.214844 1.347656 15 1.542969 14.800781 C 3.359375 12.984375 5.179688 11.171875 6.992188 9.351562 C 7.230469 9.105469 7.488281 8.902344 7.84375 8.878906 C 8.1875 8.847656 8.519531 8.980469 8.761719 9.21875 C 9.546875 10.003906 10.332031 10.796875 11.121094 11.578125 C 11.375 11.328125 11.628906 11.078125 11.875 10.824219 C 11.089844 10.035156 10.296875 9.253906 9.515625 8.460938 C 9.214844 8.152344 9.183594 7.710938 9.289062 7.3125 C 9.402344 7 9.640625 6.816406 9.863281 6.589844 C 11.746094 4.710938 13.625 2.828125 15.503906 0.949219 C 15.9375 0.523438 16.664062 0.535156 17.09375 0.960938 Z M 14.691406 7.296875 C 14.714844 7.253906 14.738281 7.210938 14.757812 7.164062 C 14.984375 7.3125 15.242188 7.394531 15.460938 7.550781 C 15.671875 7.703125 15.882812 7.839844 16.109375 7.964844 C 16.074219 7.96875 16.039062 7.972656 16 7.976562 C 15.847656 8.089844 15.699219 8.183594 15.511719 8.222656 C 15.429688 8.140625 15.347656 8.054688 15.265625 7.972656 C 15.121094 7.972656 14.972656 7.972656 14.828125 7.96875 C 14.601562 8.183594 14.4375 8.367188 14.4375 8.695312 C 14.625 8.914062 14.800781 9.085938 15.078125 9.183594 C 15.242188 9.074219 15.410156 8.964844 15.582031 8.867188 C 15.613281 8.734375 15.640625 8.597656 15.660156 8.464844 C 15.859375 8.40625 16.046875 8.339844 16.230469 8.246094 C 16.144531 8.621094 16.003906 8.976562 15.898438 9.347656 C 15.570312 9.34375 15.210938 9.308594 14.941406 9.53125 C 14.726562 9.746094 14.566406 10.050781 14.597656 10.363281 C 14.609375 10.628906 14.6875 10.976562 14.9375 11.121094 C 15.179688 11.273438 15.464844 11.464844 15.757812 11.34375 C 15.992188 11.246094 16.316406 11.105469 16.421875 10.855469 C 16.550781 10.617188 16.609375 10.339844 16.53125 10.074219 C 16.445312 9.867188 16.3125 9.675781 16.191406 9.488281 C 16.375 9.054688 16.347656 8.589844 16.570312 8.167969 C 16.855469 8.445312 17.175781 8.667969 17.433594 8.96875 C 17.316406 9.25 17.328125 9.535156 17.359375 9.832031 C 17.457031 10.140625 17.71875 10.292969 17.96875 10.464844 C 18.152344 10.464844 18.34375 10.472656 18.527344 10.449219 C 18.855469 10.363281 19.078125 10.046875 19.210938 9.753906 C 19.367188 9.058594 18.761719 8.425781 18.066406 8.507812 C 17.9375 8.597656 17.804688 8.683594 17.671875 8.761719 C 17.40625 8.464844 17.054688 8.296875 16.820312 7.972656 C 17.191406 7.871094 17.5 7.644531 17.863281 7.546875 C 18.183594 8.035156 18.910156 8.066406 19.355469 7.75 C 19.472656 7.589844 19.558594 7.402344 19.675781 7.238281 C 19.707031 6.878906 19.65625 6.539062 19.421875 6.257812 C 19.238281 6.121094 18.964844 5.980469 18.746094 5.917969 C 18.375 5.949219 17.949219 6.171875 17.808594 6.539062 C 17.683594 6.773438 17.730469 7.011719 17.730469 7.265625 C 17.355469 7.414062 16.988281 7.574219 16.640625 7.78125 C 16.632812 7.441406 16.632812 7.101562 16.632812 6.761719 C 16.910156 6.570312 17.234375 6.308594 17.246094 5.941406 C 17.195312 5.679688 16.960938 5.429688 16.796875 5.226562 C 16.570312 5.234375 16.347656 5.234375 16.125 5.230469 C 16.011719 5.339844 15.875 5.453125 15.800781 5.59375 C 15.664062 5.882812 15.703125 6.25 15.894531 6.503906 C 15.988281 6.617188 16.15625 6.679688 16.28125 6.746094 C 16.285156 7.070312 16.285156 7.390625 16.273438 7.714844 C 16.027344 7.574219 15.820312 7.398438 15.554688 7.292969 C 15.316406 7.199219 15.140625 7.035156 14.945312 6.878906 C 15.089844 6.503906 15.128906 6.25 15.019531 5.855469 C 14.851562 5.625 14.773438 5.261719 14.507812 5.144531 C 14.226562 4.984375 13.980469 4.816406 13.636719 4.847656 C 13.277344 4.808594 12.929688 5.058594 12.660156 5.269531 C 12.402344 5.582031 12.183594 5.894531 12.234375 6.324219 C 12.195312 6.726562 12.476562 7.039062 12.710938 7.335938 C 12.933594 7.503906 13.214844 7.621094 13.480469 7.707031 C 13.980469 7.785156 14.273438 7.488281 14.691406 7.296875 Z M 12.039062 12.496094 C 12.898438 13.363281 13.765625 14.222656 14.628906 15.085938 C 15.09375 15.496094 15.136719 16.308594 14.683594 16.742188 C 13.886719 17.566406 13.046875 18.355469 12.261719 19.191406 C 12.480469 19.402344 12.671875 19.632812 12.921875 19.8125 C 13.625 19.082031 14.355469 18.378906 15.0625 17.65625 C 15.304688 17.414062 15.566406 17.226562 15.921875 17.242188 C 16.273438 17.21875 16.539062 17.335938 16.789062 17.570312 C 17.546875 18.316406 18.285156 19.078125 19.042969 19.816406 C 19.296875 19.566406 19.546875 19.320312 19.792969 19.0625 C 19.046875 18.332031 18.316406 17.589844 17.578125 16.859375 C 17.269531 16.558594 17.101562 16.121094 17.234375 15.699219 C 17.304688 15.4375 17.46875 15.246094 17.65625 15.0625 C 18.496094 14.230469 19.324219 13.386719 20.167969 12.558594 C 19.976562 12.355469 19.78125 12.160156 19.578125 11.964844 C 18.75 12.785156 17.929688 13.613281 17.101562 14.4375 C 16.6875 14.871094 15.917969 14.878906 15.496094 14.445312 C 14.597656 13.550781 13.695312 12.640625 12.792969 11.742188 C 12.539062 11.992188 12.289062 12.242188 12.039062 12.496094 Z M 21.785156 18.875 C 22.210938 18.476562 22.585938 18.039062 23.0625 17.691406 C 22.988281 17.578125 22.914062 17.464844 22.84375 17.351562 C 22.5625 17.632812 22.21875 17.871094 21.972656 18.179688 C 21.917969 18.183594 21.859375 18.1875 21.804688 18.191406 C 21.585938 17.894531 21.429688 17.546875 21.269531 17.210938 C 21.066406 16.761719 21.140625 16.332031 21.128906 15.847656 C 21.121094 15.292969 21.421875 14.886719 21.65625 14.410156 C 22.191406 13.691406 23.003906 13.144531 23.921875 13.128906 C 24.347656 13.132812 24.734375 13.09375 25.136719 13.207031 C 25.464844 13.277344 25.714844 13.457031 26 13.621094 C 26.207031 13.746094 26.351562 13.917969 26.523438 14.085938 C 26.875 14.402344 27.085938 14.890625 27.253906 15.328125 C 27.359375 15.578125 27.324219 15.8125 27.328125 16.078125 C 27.320312 16.398438 27.363281 16.757812 27.265625 17.0625 C 27.140625 17.492188 26.855469 17.902344 26.613281 18.273438 C 26.28125 18.039062 26.039062 17.730469 25.742188 17.457031 C 25.625 17.265625 25.414062 17.546875 25.378906 17.664062 C 25.824219 18.054688 26.253906 18.457031 26.671875 18.875 C 26.914062 18.519531 27.222656 18.300781 27.382812 17.921875 C 27.621094 17.339844 27.878906 16.796875 27.839844 16.152344 C 27.84375 15.554688 27.621094 15.058594 27.398438 14.515625 C 27.28125 14.199219 26.984375 14.015625 26.816406 13.710938 C 26.625 13.527344 26.386719 13.382812 26.1875 13.203125 C 25.714844 12.964844 25.222656 12.683594 24.691406 12.628906 C 24.386719 12.613281 24.074219 12.613281 23.769531 12.632812 C 23.226562 12.6875 22.761719 12.957031 22.269531 13.203125 C 22.074219 13.371094 21.890625 13.53125 21.675781 13.675781 C 21.527344 13.90625 21.335938 14.09375 21.171875 14.3125 C 20.949219 14.796875 20.722656 15.3125 20.640625 15.84375 C 20.5625 16.335938 20.667969 16.867188 20.839844 17.328125 C 20.992188 17.679688 21.117188 18.046875 21.351562 18.339844 C 21.496094 18.519531 21.644531 18.691406 21.785156 18.875 Z M 8.066406 13.105469 C 7.644531 13.269531 7.347656 13.527344 6.890625 13.585938 C 6.625 13.613281 6.363281 13.679688 6.097656 13.695312 C 5.851562 13.710938 5.625 13.605469 5.386719 13.609375 C 5.253906 13.734375 5.332031 14.023438 5.285156 14.199219 C 5.191406 14.597656 5.257812 14.984375 5.222656 15.386719 C 5.15625 15.769531 5.152344 16.152344 5.078125 16.535156 C 5.105469 16.933594 5.214844 17.429688 5.527344 17.710938 C 5.65625 17.839844 5.820312 17.882812 5.984375 17.957031 C 6.261719 18.074219 6.484375 18.273438 6.769531 18.378906 C 7.019531 18.472656 7.261719 18.574219 7.488281 18.722656 C 7.730469 18.855469 8.074219 19.003906 8.335938 18.855469 C 8.65625 18.714844 8.9375 18.519531 9.273438 18.414062 C 9.640625 18.292969 9.910156 18.027344 10.265625 17.886719 C 10.5625 17.78125 10.71875 17.527344 10.878906 17.277344 C 11.03125 16.992188 11.125 16.632812 11.039062 16.316406 C 10.992188 15.933594 10.914062 15.546875 10.917969 15.160156 C 10.914062 14.929688 10.847656 14.710938 10.847656 14.476562 C 10.835938 14.203125 10.835938 13.847656 10.691406 13.605469 C 10.066406 13.769531 9.433594 13.691406 8.824219 13.492188 C 8.558594 13.386719 8.34375 13.191406 8.066406 13.105469 Z M 24.0625 13.308594 C 24.054688 13.523438 24.035156 13.75 24.058594 13.964844 C 24.109375 14.082031 24.359375 14.097656 24.394531 13.964844 C 24.417969 13.769531 24.410156 13.566406 24.410156 13.371094 C 24.300781 13.300781 24.183594 13.320312 24.0625 13.308594 Z M 24.957031 14.117188 C 25.054688 14.175781 25.148438 14.234375 25.246094 14.296875 C 25.359375 14.085938 25.449219 13.871094 25.523438 13.644531 C 25.4375 13.601562 25.351562 13.5625 25.261719 13.523438 C 25.140625 13.714844 25.058594 13.914062 24.957031 14.117188 Z M 22.863281 13.625 C 22.820312 13.675781 22.785156 13.730469 22.746094 13.785156 C 22.851562 13.96875 22.960938 14.148438 23.082031 14.324219 C 23.160156 14.300781 23.238281 14.277344 23.320312 14.253906 C 23.269531 14.046875 23.230469 13.796875 23.113281 13.617188 C 23.03125 13.617188 22.945312 13.617188 22.863281 13.625 Z M 25.824219 14.71875 C 25.878906 14.820312 25.933594 14.921875 25.988281 15.027344 C 26.183594 14.871094 26.382812 14.710938 26.574219 14.550781 C 26.5 14.480469 26.425781 14.402344 26.34375 14.335938 C 26.160156 14.425781 26.011719 14.613281 25.824219 14.71875 Z M 21.792969 14.699219 C 21.980469 14.835938 22.160156 14.980469 22.332031 15.132812 C 22.425781 15.035156 22.523438 14.9375 22.617188 14.84375 C 22.410156 14.710938 22.199219 14.59375 22.007812 14.4375 C 21.933594 14.523438 21.863281 14.613281 21.792969 14.699219 Z M 24.410156 16.570312 C 24.515625 16.453125 24.671875 16.320312 24.710938 16.160156 C 24.734375 15.949219 24.542969 15.808594 24.410156 15.675781 C 23.867188 15.640625 23.328125 15.480469 22.792969 15.371094 C 22.816406 15.546875 22.957031 15.605469 23.078125 15.707031 C 23.390625 15.929688 23.605469 16.246094 23.90625 16.476562 C 24.0625 16.59375 24.226562 16.558594 24.410156 16.570312 Z M 27.109375 15.796875 C 27.054688 15.683594 27.039062 15.574219 26.914062 15.519531 C 26.714844 15.546875 26.5 15.574219 26.308594 15.640625 C 26.199219 15.714844 26.265625 15.921875 26.371094 15.980469 C 26.636719 15.984375 26.875 15.929688 27.109375 15.796875 Z M 22.121094 16.136719 C 22.105469 16.027344 22.167969 15.800781 22.039062 15.761719 C 21.859375 15.738281 21.671875 15.71875 21.488281 15.722656 C 21.359375 15.777344 21.324219 16.035156 21.464844 16.089844 C 21.683594 16.109375 21.902344 16.109375 22.121094 16.136719 Z M 15.824219 20.765625 C 15.824219 20.914062 15.824219 21.066406 15.824219 21.21875 C 15.28125 21.335938 14.660156 21.441406 14.191406 21.757812 C 14.078125 21.589844 13.972656 21.511719 13.785156 21.429688 C 13.585938 21.636719 13.382812 21.835938 13.175781 22.035156 C 13.253906 22.207031 13.355469 22.339844 13.480469 22.476562 C 13.171875 22.773438 13.085938 23.28125 12.921875 23.671875 C 12.777344 23.691406 12.484375 23.609375 12.40625 23.75 C 12.390625 24.035156 12.40625 24.304688 12.300781 24.578125 C 12.472656 24.628906 12.648438 24.640625 12.828125 24.644531 C 12.898438 24.945312 12.976562 25.246094 13.105469 25.527344 C 13.152344 25.652344 13.253906 25.8125 13.226562 25.949219 C 13.140625 26.054688 13.011719 26.136719 12.902344 26.214844 C 13.085938 26.472656 13.246094 26.738281 13.480469 26.957031 C 13.617188 26.863281 13.742188 26.769531 13.871094 26.671875 C 14.183594 26.898438 14.511719 27.097656 14.847656 27.292969 C 14.945312 27.300781 15.039062 27.308594 15.136719 27.316406 C 15.132812 27.488281 15.117188 27.65625 15.09375 27.824219 C 15.371094 27.964844 15.734375 27.894531 16.046875 27.910156 C 16.078125 27.761719 16.101562 27.613281 16.105469 27.457031 C 16.421875 27.355469 16.746094 27.394531 17.054688 27.269531 C 17.300781 27.1875 17.484375 27.039062 17.691406 26.886719 C 17.808594 27.011719 17.90625 27.144531 18 27.289062 C 18.246094 27.175781 18.367188 27.046875 18.507812 26.816406 C 18.589844 26.761719 18.671875 26.710938 18.753906 26.660156 C 18.644531 26.515625 18.535156 26.371094 18.4375 26.214844 C 18.542969 26.015625 18.664062 25.828125 18.78125 25.636719 C 18.890625 25.453125 18.933594 25.222656 18.992188 25.011719 C 19.136719 24.992188 19.449219 25.089844 19.519531 24.933594 C 19.539062 24.671875 19.539062 24.394531 19.523438 24.128906 C 19.441406 23.988281 19.144531 24.074219 19 24.050781 C 19.011719 23.554688 18.902344 23.195312 18.621094 22.792969 C 18.753906 22.691406 18.890625 22.59375 19.027344 22.492188 C 18.859375 22.214844 18.625 22.003906 18.4375 21.746094 C 18.320312 21.828125 18.203125 21.90625 18.085938 21.988281 C 18.039062 21.988281 17.992188 21.988281 17.945312 21.988281 C 17.792969 21.855469 17.636719 21.730469 17.460938 21.621094 C 17.261719 21.496094 17 21.449219 16.769531 21.378906 C 16.8125 21.230469 16.859375 21.085938 16.875 20.929688 C 16.578125 20.769531 16.152344 20.777344 15.824219 20.765625 Z M 15.824219 20.765625 "/>
<path style=" stroke:none;fill-rule:nonzero;fill:rgb(99.607843%,99.607843%,99.607843%);fill-opacity:1;" d="M 13.636719 4.847656 C 13.980469 4.816406 14.226562 4.984375 14.507812 5.144531 C 14.773438 5.261719 14.851562 5.625 15.019531 5.855469 C 15.128906 6.25 15.089844 6.503906 14.945312 6.878906 C 15.140625 7.035156 15.316406 7.199219 15.554688 7.292969 C 15.820312 7.398438 16.027344 7.574219 16.273438 7.714844 C 16.285156 7.390625 16.285156 7.070312 16.28125 6.746094 C 16.15625 6.679688 15.988281 6.617188 15.894531 6.503906 C 15.703125 6.25 15.664062 5.882812 15.800781 5.59375 C 15.875 5.453125 16.011719 5.339844 16.125 5.230469 C 16.347656 5.234375 16.570312 5.234375 16.796875 5.226562 C 16.960938 5.429688 17.195312 5.679688 17.246094 5.941406 C 17.234375 6.308594 16.910156 6.570312 16.632812 6.761719 C 16.632812 7.101562 16.632812 7.441406 16.640625 7.78125 C 16.988281 7.574219 17.355469 7.414062 17.730469 7.265625 C 17.730469 7.011719 17.683594 6.773438 17.808594 6.539062 C 17.949219 6.171875 18.375 5.949219 18.746094 5.917969 C 18.964844 5.980469 19.238281 6.121094 19.421875 6.257812 C 19.65625 6.539062 19.707031 6.878906 19.675781 7.238281 C 19.558594 7.402344 19.472656 7.589844 19.355469 7.75 C 18.910156 8.066406 18.183594 8.035156 17.863281 7.546875 C 17.5 7.644531 17.191406 7.871094 16.820312 7.972656 C 17.054688 8.296875 17.40625 8.464844 17.671875 8.761719 C 17.804688 8.683594 17.9375 8.597656 18.066406 8.507812 C 18.761719 8.425781 19.367188 9.058594 19.210938 9.753906 C 19.078125 10.046875 18.855469 10.363281 18.527344 10.449219 C 18.34375 10.472656 18.152344 10.464844 17.96875 10.464844 C 17.71875 10.292969 17.457031 10.140625 17.359375 9.832031 C 17.328125 9.535156 17.316406 9.25 17.433594 8.96875 C 17.175781 8.667969 16.855469 8.445312 16.570312 8.167969 C 16.347656 8.589844 16.375 9.054688 16.191406 9.488281 C 16.3125 9.675781 16.445312 9.867188 16.53125 10.074219 C 16.609375 10.339844 16.550781 10.617188 16.421875 10.855469 C 16.316406 11.105469 15.992188 11.246094 15.757812 11.34375 C 15.464844 11.464844 15.179688 11.273438 14.9375 11.121094 C 14.6875 10.976562 14.609375 10.628906 14.597656 10.363281 C 14.566406 10.050781 14.726562 9.746094 14.941406 9.53125 C 15.210938 9.308594 15.570312 9.34375 15.898438 9.347656 C 16.003906 8.976562 16.144531 8.621094 16.230469 8.246094 C 16.046875 8.339844 15.859375 8.40625 15.660156 8.464844 C 15.640625 8.597656 15.613281 8.734375 15.582031 8.867188 C 15.410156 8.964844 15.242188 9.074219 15.078125 9.183594 C 14.800781 9.085938 14.625 8.914062 14.4375 8.695312 C 14.4375 8.367188 14.601562 8.183594 14.828125 7.96875 C 14.972656 7.972656 15.121094 7.972656 15.265625 7.972656 C 15.347656 8.054688 15.429688 8.140625 15.511719 8.222656 C 15.699219 8.183594 15.847656 8.089844 16 7.976562 C 16.039062 7.972656 16.074219 7.96875 16.109375 7.964844 C 15.882812 7.839844 15.671875 7.703125 15.460938 7.550781 C 15.242188 7.394531 14.984375 7.3125 14.757812 7.164062 C 14.738281 7.210938 14.714844 7.253906 14.691406 7.296875 C 14.273438 7.488281 13.980469 7.785156 13.480469 7.707031 C 13.214844 7.621094 12.933594 7.503906 12.710938 7.335938 C 12.476562 7.039062 12.195312 6.726562 12.234375 6.324219 C 12.183594 5.894531 12.402344 5.582031 12.660156 5.269531 C 12.929688 5.058594 13.277344 4.808594 13.636719 4.847656 Z M 14.148438 7.277344 C 14.324219 7.105469 14.496094 6.933594 14.667969 6.757812 C 14.746094 6.410156 14.773438 6.171875 14.667969 5.828125 C 14.488281 5.515625 14.234375 5.269531 13.867188 5.210938 C 13.621094 5.195312 13.308594 5.175781 13.097656 5.328125 C 12.890625 5.492188 12.703125 5.671875 12.640625 5.9375 C 12.480469 6.476562 12.71875 7.101562 13.265625 7.296875 C 13.570312 7.429688 13.84375 7.347656 14.148438 7.277344 Z M 18.929688 7.589844 C 19.050781 7.492188 19.171875 7.398438 19.300781 7.308594 C 19.339844 7.179688 19.375 7.054688 19.414062 6.929688 C 19.3125 6.683594 19.214844 6.464844 18.964844 6.34375 C 18.5625 6.113281 18.035156 6.519531 18 6.933594 C 17.972656 7.210938 18.15625 7.394531 18.375 7.53125 C 18.523438 7.632812 18.757812 7.585938 18.929688 7.589844 Z M 18.003906 9.167969 C 17.917969 9.347656 17.925781 9.527344 17.925781 9.722656 C 17.980469 9.777344 18.035156 9.832031 18.089844 9.886719 C 18.199219 9.882812 18.308594 9.882812 18.417969 9.867188 C 18.503906 9.800781 18.578125 9.71875 18.65625 9.640625 C 18.632812 9.4375 18.625 9.265625 18.441406 9.136719 C 18.300781 9.039062 18.148438 9.121094 18.003906 9.167969 Z M 15.082031 10.839844 C 15.300781 10.945312 15.464844 11.082031 15.722656 11.003906 C 16.054688 10.894531 16.386719 10.496094 16.230469 10.136719 C 16.195312 9.941406 15.941406 9.835938 15.804688 9.703125 C 15.660156 9.703125 15.503906 9.6875 15.359375 9.714844 C 15.140625 9.824219 14.875 10.015625 14.878906 10.285156 C 14.859375 10.492188 14.996094 10.664062 15.082031 10.839844 Z M 15.082031 10.839844 "/>
<path style=" stroke:none;fill-rule:nonzero;fill:rgb(16.862746%,39.607844%,59.607846%);fill-opacity:1;" d="M 13.867188 5.210938 C 14.234375 5.269531 14.488281 5.515625 14.667969 5.828125 C 14.773438 6.171875 14.746094 6.410156 14.667969 6.757812 C 14.496094 6.933594 14.324219 7.105469 14.148438 7.277344 C 13.84375 7.347656 13.570312 7.429688 13.265625 7.296875 C 12.71875 7.101562 12.480469 6.476562 12.640625 5.9375 C 12.703125 5.671875 12.890625 5.492188 13.097656 5.328125 C 13.308594 5.175781 13.621094 5.195312 13.867188 5.210938 Z M 13.15625 6.003906 C 13.160156 6.25 13.113281 6.476562 13.273438 6.6875 C 13.371094 6.878906 13.710938 6.785156 13.890625 6.808594 C 13.996094 6.707031 14.097656 6.605469 14.199219 6.503906 C 14.199219 6.359375 14.199219 6.21875 14.199219 6.074219 C 13.976562 5.675781 13.414062 5.597656 13.15625 6.003906 Z M 13.15625 6.003906 "/>
<path style=" stroke:none;fill-rule:nonzero;fill:rgb(100%,100%,100%);fill-opacity:1;" d="M 14.199219 6.074219 C 14.199219 6.21875 14.199219 6.359375 14.199219 6.503906 C 14.097656 6.605469 13.996094 6.707031 13.890625 6.808594 C 13.710938 6.785156 13.371094 6.878906 13.273438 6.6875 C 13.113281 6.476562 13.160156 6.25 13.15625 6.003906 C 13.414062 5.597656 13.976562 5.675781 14.199219 6.074219 Z M 14.199219 6.074219 "/>
<path style=" stroke:none;fill-rule:nonzero;fill:rgb(16.078432%,39.215687%,59.607846%);fill-opacity:1;" d="M 18.964844 6.34375 C 19.214844 6.464844 19.3125 6.683594 19.414062 6.929688 C 19.375 7.054688 19.339844 7.179688 19.300781 7.308594 C 19.171875 7.398438 19.050781 7.492188 18.929688 7.589844 C 18.757812 7.585938 18.523438 7.632812 18.375 7.53125 C 18.15625 7.394531 17.972656 7.210938 18 6.933594 C 18.035156 6.519531 18.5625 6.113281 18.964844 6.34375 Z M 18.964844 6.34375 "/>
<path style=" stroke:none;fill-rule:nonzero;fill:rgb(17.254902%,39.607844%,60.000002%);fill-opacity:1;" d="M 18.441406 9.136719 C 18.625 9.265625 18.632812 9.4375 18.65625 9.640625 C 18.578125 9.71875 18.503906 9.800781 18.417969 9.867188 C 18.308594 9.882812 18.199219 9.882812 18.089844 9.886719 C 18.035156 9.832031 17.980469 9.777344 17.925781 9.722656 C 17.925781 9.527344 17.917969 9.347656 18.003906 9.167969 C 18.148438 9.121094 18.300781 9.039062 18.441406 9.136719 Z M 18.441406 9.136719 "/>
<path style=" stroke:none;fill-rule:nonzero;fill:rgb(16.078432%,39.215687%,59.607846%);fill-opacity:1;" d="M 15.359375 9.714844 C 15.503906 9.6875 15.660156 9.703125 15.804688 9.703125 C 15.941406 9.835938 16.195312 9.941406 16.230469 10.136719 C 16.386719 10.496094 16.054688 10.894531 15.722656 11.003906 C 15.464844 11.082031 15.300781 10.945312 15.082031 10.839844 C 14.996094 10.664062 14.859375 10.492188 14.878906 10.285156 C 14.875 10.015625 15.140625 9.824219 15.359375 9.714844 Z M 15.359375 9.714844 "/>
<path style=" stroke:none;fill-rule:nonzero;fill:rgb(100%,100%,100%);fill-opacity:1;" d="M 12.792969 11.742188 C 13.695312 12.640625 14.597656 13.550781 15.496094 14.445312 C 15.917969 14.878906 16.6875 14.871094 17.101562 14.4375 C 17.929688 13.613281 18.75 12.785156 19.578125 11.964844 C 19.78125 12.160156 19.976562 12.355469 20.167969 12.558594 C 19.324219 13.386719 18.496094 14.230469 17.65625 15.0625 C 17.46875 15.246094 17.304688 15.4375 17.234375 15.699219 C 17.101562 16.121094 17.269531 16.558594 17.578125 16.859375 C 18.316406 17.589844 19.046875 18.332031 19.792969 19.0625 C 19.546875 19.320312 19.296875 19.566406 19.042969 19.816406 C 18.285156 19.078125 17.546875 18.316406 16.789062 17.570312 C 16.539062 17.335938 16.273438 17.21875 15.921875 17.242188 C 15.566406 17.226562 15.304688 17.414062 15.0625 17.65625 C 14.355469 18.378906 13.625 19.082031 12.921875 19.8125 C 12.671875 19.632812 12.480469 19.402344 12.261719 19.191406 C 13.046875 18.355469 13.886719 17.566406 14.683594 16.742188 C 15.136719 16.308594 15.09375 15.496094 14.628906 15.085938 C 13.765625 14.222656 12.898438 13.363281 12.039062 12.496094 C 12.289062 12.242188 12.539062 11.992188 12.792969 11.742188 Z M 12.792969 11.742188 "/>
<path style=" stroke:none;fill-rule:nonzero;fill:rgb(99.607843%,99.607843%,99.607843%);fill-opacity:1;" d="M 23.769531 12.632812 C 24.074219 12.613281 24.386719 12.613281 24.691406 12.628906 C 25.222656 12.683594 25.714844 12.964844 26.1875 13.203125 C 26.386719 13.382812 26.625 13.527344 26.816406 13.710938 C 26.984375 14.015625 27.28125 14.199219 27.398438 14.515625 C 27.621094 15.058594 27.84375 15.554688 27.839844 16.152344 C 27.878906 16.796875 27.621094 17.339844 27.382812 17.921875 C 27.222656 18.300781 26.914062 18.519531 26.671875 18.875 C 26.253906 18.457031 25.824219 18.054688 25.378906 17.664062 C 25.414062 17.546875 25.625 17.265625 25.742188 17.457031 C 26.039062 17.730469 26.28125 18.039062 26.613281 18.273438 C 26.855469 17.902344 27.140625 17.492188 27.265625 17.0625 C 27.363281 16.757812 27.320312 16.398438 27.328125 16.078125 C 27.324219 15.8125 27.359375 15.578125 27.253906 15.328125 C 27.085938 14.890625 26.875 14.402344 26.523438 14.085938 C 26.351562 13.917969 26.207031 13.746094 26 13.621094 C 25.714844 13.457031 25.464844 13.277344 25.136719 13.207031 C 24.734375 13.09375 24.347656 13.132812 23.921875 13.128906 C 23.003906 13.144531 22.191406 13.691406 21.65625 14.410156 C 21.421875 14.886719 21.121094 15.292969 21.128906 15.847656 C 21.140625 16.332031 21.066406 16.761719 21.269531 17.210938 C 21.429688 17.546875 21.585938 17.894531 21.804688 18.191406 C 21.859375 18.1875 21.917969 18.183594 21.972656 18.179688 C 22.21875 17.871094 22.5625 17.632812 22.84375 17.351562 C 22.914062 17.464844 22.988281 17.578125 23.0625 17.691406 C 22.585938 18.039062 22.210938 18.476562 21.785156 18.875 C 21.644531 18.691406 21.496094 18.519531 21.351562 18.339844 C 21.117188 18.046875 20.992188 17.679688 20.839844 17.328125 C 20.667969 16.867188 20.5625 16.335938 20.640625 15.84375 C 20.722656 15.3125 20.949219 14.796875 21.171875 14.3125 C 21.335938 14.09375 21.527344 13.90625 21.675781 13.675781 C 21.890625 13.53125 22.074219 13.371094 22.269531 13.203125 C 22.761719 12.957031 23.226562 12.6875 23.769531 12.632812 Z M 23.769531 12.632812 "/>
<path style=" stroke:none;fill-rule:nonzero;fill:rgb(100%,100%,100%);fill-opacity:1;" d="M 8.066406 13.105469 C 8.34375 13.191406 8.558594 13.386719 8.824219 13.492188 C 9.433594 13.691406 10.066406 13.769531 10.691406 13.605469 C 10.835938 13.847656 10.835938 14.203125 10.847656 14.476562 C 10.847656 14.710938 10.914062 14.929688 10.917969 15.160156 C 10.914062 15.546875 10.992188 15.933594 11.039062 16.316406 C 11.125 16.632812 11.03125 16.992188 10.878906 17.277344 C 10.71875 17.527344 10.5625 17.78125 10.265625 17.886719 C 9.910156 18.027344 9.640625 18.292969 9.273438 18.414062 C 8.9375 18.519531 8.65625 18.714844 8.335938 18.855469 C 8.074219 19.003906 7.730469 18.855469 7.488281 18.722656 C 7.261719 18.574219 7.019531 18.472656 6.769531 18.378906 C 6.484375 18.273438 6.261719 18.074219 5.984375 17.957031 C 5.820312 17.882812 5.65625 17.839844 5.527344 17.710938 C 5.214844 17.429688 5.105469 16.933594 5.078125 16.535156 C 5.152344 16.152344 5.15625 15.769531 5.222656 15.386719 C 5.257812 14.984375 5.191406 14.597656 5.285156 14.199219 C 5.332031 14.023438 5.253906 13.734375 5.386719 13.609375 C 5.625 13.605469 5.851562 13.710938 6.097656 13.695312 C 6.363281 13.679688 6.625 13.613281 6.890625 13.585938 C 7.347656 13.527344 7.644531 13.269531 8.066406 13.105469 Z M 7.871094 15.902344 C 7.875 16.480469 7.863281 17.0625 7.878906 17.644531 C 8.015625 17.648438 8.148438 17.652344 8.28125 17.660156 C 8.277344 17.097656 8.28125 16.539062 8.28125 15.980469 C 8.382812 15.855469 8.503906 15.726562 8.570312 15.582031 C 8.632812 15.339844 8.542969 15.042969 8.328125 14.910156 C 8.152344 14.859375 7.878906 14.835938 7.742188 14.988281 C 7.613281 15.121094 7.433594 15.304688 7.511719 15.503906 C 7.558594 15.710938 7.714844 15.785156 7.871094 15.902344 Z M 7.871094 15.902344 "/>
<path style=" stroke:none;fill-rule:nonzero;fill:rgb(99.607843%,99.607843%,99.607843%);fill-opacity:1;" d="M 24.0625 13.308594 C 24.183594 13.320312 24.300781 13.300781 24.410156 13.371094 C 24.410156 13.566406 24.417969 13.769531 24.394531 13.964844 C 24.359375 14.097656 24.109375 14.082031 24.058594 13.964844 C 24.035156 13.75 24.054688 13.523438 24.0625 13.308594 Z M 24.0625 13.308594 "/>
<path style=" stroke:none;fill-rule:nonzero;fill:rgb(99.607843%,99.607843%,99.607843%);fill-opacity:1;" d="M 25.261719 13.523438 C 25.351562 13.5625 25.4375 13.601562 25.523438 13.644531 C 25.449219 13.871094 25.359375 14.085938 25.246094 14.296875 C 25.148438 14.234375 25.054688 14.175781 24.957031 14.117188 C 25.058594 13.914062 25.140625 13.714844 25.261719 13.523438 Z M 25.261719 13.523438 "/>
<path style=" stroke:none;fill-rule:nonzero;fill:rgb(99.607843%,99.607843%,99.607843%);fill-opacity:1;" d="M 22.863281 13.625 C 22.945312 13.617188 23.03125 13.617188 23.113281 13.617188 C 23.230469 13.796875 23.269531 14.046875 23.320312 14.253906 C 23.238281 14.277344 23.160156 14.300781 23.082031 14.324219 C 22.960938 14.148438 22.851562 13.96875 22.746094 13.785156 C 22.785156 13.730469 22.820312 13.675781 22.863281 13.625 Z M 22.863281 13.625 "/>
<path style=" stroke:none;fill-rule:nonzero;fill:rgb(99.215686%,99.215686%,99.607843%);fill-opacity:1;" d="M 26.34375 14.335938 C 26.425781 14.402344 26.5 14.480469 26.574219 14.550781 C 26.382812 14.710938 26.183594 14.871094 25.988281 15.027344 C 25.933594 14.921875 25.878906 14.820312 25.824219 14.71875 C 26.011719 14.613281 26.160156 14.425781 26.34375 14.335938 Z M 26.34375 14.335938 "/>
<path style=" stroke:none;fill-rule:nonzero;fill:rgb(99.607843%,99.607843%,99.607843%);fill-opacity:1;" d="M 22.007812 14.4375 C 22.199219 14.59375 22.410156 14.710938 22.617188 14.84375 C 22.523438 14.9375 22.425781 15.035156 22.332031 15.132812 C 22.160156 14.980469 21.980469 14.835938 21.792969 14.699219 C 21.863281 14.613281 21.933594 14.523438 22.007812 14.4375 Z M 22.007812 14.4375 "/>
<path style=" stroke:none;fill-rule:nonzero;fill:rgb(16.862746%,39.607844%,60.000002%);fill-opacity:1;" d="M 8.328125 14.910156 C 8.542969 15.042969 8.632812 15.339844 8.570312 15.582031 C 8.503906 15.726562 8.382812 15.855469 8.28125 15.980469 C 8.28125 16.539062 8.277344 17.097656 8.28125 17.660156 C 8.148438 17.652344 8.015625 17.648438 7.878906 17.644531 C 7.863281 17.0625 7.875 16.480469 7.871094 15.902344 C 7.714844 15.785156 7.558594 15.710938 7.511719 15.503906 C 7.433594 15.304688 7.613281 15.121094 7.742188 14.988281 C 7.878906 14.835938 8.152344 14.859375 8.328125 14.910156 Z M 8.328125 14.910156 "/>
<path style=" stroke:none;fill-rule:nonzero;fill:rgb(100%,100%,100%);fill-opacity:1;" d="M 22.792969 15.371094 C 23.328125 15.480469 23.867188 15.640625 24.410156 15.675781 C 24.542969 15.808594 24.734375 15.949219 24.710938 16.160156 C 24.671875 16.320312 24.515625 16.453125 24.410156 16.570312 C 24.226562 16.558594 24.0625 16.59375 23.90625 16.476562 C 23.605469 16.246094 23.390625 15.929688 23.078125 15.707031 C 22.957031 15.605469 22.816406 15.546875 22.792969 15.371094 Z M 22.792969 15.371094 "/>
<path style=" stroke:none;fill-rule:nonzero;fill:rgb(99.607843%,99.607843%,99.607843%);fill-opacity:1;" d="M 26.914062 15.519531 C 27.039062 15.574219 27.054688 15.683594 27.109375 15.796875 C 26.875 15.929688 26.636719 15.984375 26.371094 15.980469 C 26.265625 15.921875 26.199219 15.714844 26.308594 15.640625 C 26.5 15.574219 26.714844 15.546875 26.914062 15.519531 Z M 26.914062 15.519531 "/>
<path style=" stroke:none;fill-rule:nonzero;fill:rgb(99.607843%,99.607843%,99.607843%);fill-opacity:1;" d="M 21.488281 15.722656 C 21.671875 15.71875 21.859375 15.738281 22.039062 15.761719 C 22.167969 15.800781 22.105469 16.027344 22.121094 16.136719 C 21.902344 16.109375 21.683594 16.109375 21.464844 16.089844 C 21.324219 16.035156 21.359375 15.777344 21.488281 15.722656 Z M 21.488281 15.722656 "/>
<path style=" stroke:none;fill-rule:nonzero;fill:rgb(100%,100%,100%);fill-opacity:1;" d="M 15.824219 20.765625 C 16.152344 20.777344 16.578125 20.769531 16.875 20.929688 C 16.859375 21.085938 16.8125 21.230469 16.769531 21.378906 C 17 21.449219 17.261719 21.496094 17.460938 21.621094 C 17.636719 21.730469 17.792969 21.855469 17.945312 21.988281 C 17.992188 21.988281 18.039062 21.988281 18.085938 21.988281 C 18.203125 21.90625 18.320312 21.828125 18.4375 21.746094 C 18.625 22.003906 18.859375 22.214844 19.027344 22.492188 C 18.890625 22.59375 18.753906 22.691406 18.621094 22.792969 C 18.902344 23.195312 19.011719 23.554688 19 24.050781 C 19.144531 24.074219 19.441406 23.988281 19.523438 24.128906 C 19.539062 24.394531 19.539062 24.671875 19.519531 24.933594 C 19.449219 25.089844 19.136719 24.992188 18.992188 25.011719 C 18.933594 25.222656 18.890625 25.453125 18.78125 25.636719 C 18.664062 25.828125 18.542969 26.015625 18.4375 26.214844 C 18.535156 26.371094 18.644531 26.515625 18.753906 26.660156 C 18.671875 26.710938 18.589844 26.761719 18.507812 26.816406 C 18.367188 27.046875 18.246094 27.175781 18 27.289062 C 17.90625 27.144531 17.808594 27.011719 17.691406 26.886719 C 17.484375 27.039062 17.300781 27.1875 17.054688 27.269531 C 16.746094 27.394531 16.421875 27.355469 16.105469 27.457031 C 16.101562 27.613281 16.078125 27.761719 16.046875 27.910156 C 15.734375 27.894531 15.371094 27.964844 15.09375 27.824219 C 15.117188 27.65625 15.132812 27.488281 15.136719 27.316406 C 15.039062 27.308594 14.945312 27.300781 14.847656 27.292969 C 14.511719 27.097656 14.183594 26.898438 13.871094 26.671875 C 13.742188 26.769531 13.617188 26.863281 13.480469 26.957031 C 13.246094 26.738281 13.085938 26.472656 12.902344 26.214844 C 13.011719 26.136719 13.140625 26.054688 13.226562 25.949219 C 13.253906 25.8125 13.152344 25.652344 13.105469 25.527344 C 12.976562 25.246094 12.898438 24.945312 12.828125 24.644531 C 12.648438 24.640625 12.472656 24.628906 12.300781 24.578125 C 12.40625 24.304688 12.390625 24.035156 12.40625 23.75 C 12.484375 23.609375 12.777344 23.691406 12.921875 23.671875 C 13.085938 23.28125 13.171875 22.773438 13.480469 22.476562 C 13.355469 22.339844 13.253906 22.207031 13.175781 22.035156 C 13.382812 21.835938 13.585938 21.636719 13.785156 21.429688 C 13.972656 21.511719 14.078125 21.589844 14.191406 21.757812 C 14.660156 21.441406 15.28125 21.335938 15.824219 21.21875 C 15.824219 21.066406 15.824219 20.914062 15.824219 20.765625 Z M 16.941406 22.523438 C 16.484375 22.246094 15.960938 22.21875 15.449219 22.304688 C 14.992188 22.464844 14.429688 22.734375 14.210938 23.195312 C 14.070312 23.464844 13.917969 23.695312 13.875 24.003906 C 13.734375 24.613281 14.007812 25.230469 14.351562 25.722656 C 14.515625 25.882812 14.707031 26.03125 14.894531 26.164062 C 15.375 26.394531 15.929688 26.503906 16.457031 26.363281 C 16.769531 26.253906 17.082031 26.199219 17.3125 25.941406 C 17.558594 25.648438 17.847656 25.414062 17.933594 25.027344 C 17.992188 24.691406 18.078125 24.398438 18.003906 24.058594 C 17.9375 23.765625 17.929688 23.429688 17.714844 23.199219 C 17.566406 23.039062 17.4375 22.867188 17.292969 22.703125 C 17.191406 22.625 17.054688 22.582031 16.941406 22.523438 Z M 16.941406 22.523438 "/>
<path style=" stroke:none;fill-rule:nonzero;fill:rgb(16.078432%,39.215687%,59.607846%);fill-opacity:1;" d="M 16.941406 22.523438 C 17.054688 22.582031 17.191406 22.625 17.292969 22.703125 C 17.4375 22.867188 17.566406 23.039062 17.714844 23.199219 C 17.929688 23.429688 17.9375 23.765625 18.003906 24.058594 C 18.078125 24.398438 17.992188 24.691406 17.933594 25.027344 C 17.847656 25.414062 17.558594 25.648438 17.3125 25.941406 C 17.082031 26.199219 16.769531 26.253906 16.457031 26.363281 C 15.929688 26.503906 15.375 26.394531 14.894531 26.164062 C 14.707031 26.03125 14.515625 25.882812 14.351562 25.722656 C 14.007812 25.230469 13.734375 24.613281 13.875 24.003906 C 13.917969 23.695312 14.070312 23.464844 14.210938 23.195312 C 14.429688 22.734375 14.992188 22.464844 15.449219 22.304688 C 15.960938 22.21875 16.484375 22.246094 16.941406 22.523438 Z M 16.300781 23.144531 C 16.027344 23.152344 15.632812 23.0625 15.414062 23.257812 C 15.152344 23.476562 14.859375 23.644531 14.773438 23.996094 C 14.742188 24.316406 14.707031 24.667969 14.890625 24.949219 C 14.988281 25.144531 15.199219 25.269531 15.371094 25.394531 C 15.613281 25.585938 15.941406 25.570312 16.230469 25.53125 C 16.449219 25.449219 16.679688 25.3125 16.863281 25.160156 C 17.054688 24.886719 17.238281 24.496094 17.148438 24.15625 C 17.089844 23.921875 16.984375 23.671875 16.808594 23.496094 C 16.65625 23.363281 16.472656 23.257812 16.300781 23.144531 Z M 16.300781 23.144531 "/>
<path style=" stroke:none;fill-rule:nonzero;fill:rgb(100%,100%,100%);fill-opacity:1;" d="M 16.300781 23.144531 C 16.472656 23.257812 16.65625 23.363281 16.808594 23.496094 C 16.984375 23.671875 17.089844 23.921875 17.148438 24.15625 C 17.238281 24.496094 17.054688 24.886719 16.863281 25.160156 C 16.679688 25.3125 16.449219 25.449219 16.230469 25.53125 C 15.941406 25.570312 15.613281 25.585938 15.371094 25.394531 C 15.199219 25.269531 14.988281 25.144531 14.890625 24.949219 C 14.707031 24.667969 14.742188 24.316406 14.773438 23.996094 C 14.859375 23.644531 15.152344 23.476562 15.414062 23.257812 C 15.632812 23.0625 16.027344 23.152344 16.300781 23.144531 Z M 16.300781 23.144531 "/>
</g>
</svg>
