<svg width="40" height="43" viewBox="0 0 40 43" fill="none" xmlns="http://www.w3.org/2000/svg">
    <path d="M1 9.5V29.5C1 33.918 8.163 37.5 17 37.5C18.381 37.5 19.721 37.413 21 37.248M1 9.5C1 13.918 8.163 17.5 17 17.5C25.837 17.5 33 13.918 33 9.5M1 9.5C1 5.082 8.163 1.5 17 1.5C25.837 1.5 33 5.082 33 9.5M33 9.5V23.5M33 19.5C33 23.918 25.837 27.5 17 27.5C8.163 27.5 1 23.918 1 19.5M33 29.5V35.5M33 35.5V41.5M33 35.5H39M33 35.5H27" stroke="#9CA3AF" stroke-width="2" stroke-linecap="round" stroke-linejoin="round"/>
</svg>
