<?xml version="1.0" encoding="UTF-8"?>
<svg xmlns="http://www.w3.org/2000/svg" xmlns:xlink="http://www.w3.org/1999/xlink" width="32" height="32" viewBox="0 0 32 32" version="1.1">
<g id="surface1">
<path style=" stroke:none;fill-rule:nonzero;fill:rgb(0%,0%,0%);fill-opacity:1;" d="M 19.78125 16.902344 C 19.25 16.910156 19.878906 17.175781 20.566406 17.28125 C 20.75 17.144531 20.921875 16.996094 21.085938 16.835938 C 20.65625 16.941406 20.21875 16.941406 19.78125 16.902344 M 22.613281 16.199219 C 22.925781 15.761719 23.15625 15.289062 23.238281 14.796875 C 23.167969 15.148438 22.976562 15.449219 22.796875 15.765625 C 21.808594 16.390625 22.703125 15.398438 22.796875 15.023438 C 21.738281 16.359375 22.652344 15.824219 22.613281 16.199219 M 23.660156 13.476562 C 23.726562 12.523438 23.472656 12.824219 23.390625 13.1875 C 23.488281 13.238281 23.566406 13.859375 23.660156 13.476562 M 17.777344 0.476562 C 18.058594 0.527344 18.386719 0.566406 18.339844 0.636719 C 18.648438 0.566406 18.71875 0.503906 17.777344 0.476562 M 18.339844 0.636719 L 18.140625 0.675781 L 18.328125 0.660156 Z M 27.128906 13.835938 C 27.15625 14.6875 26.878906 15.101562 26.621094 15.835938 L 26.167969 16.066406 C 25.792969 16.789062 26.203125 16.523438 25.933594 17.101562 C 25.351562 17.621094 24.167969 18.726562 23.789062 18.824219 C 23.511719 18.816406 23.976562 18.496094 24.035156 18.371094 C 23.253906 18.90625 23.410156 19.175781 22.214844 19.503906 L 22.179688 19.425781 C 19.238281 20.808594 15.148438 18.066406 15.203125 14.320312 C 15.171875 14.558594 15.113281 14.5 15.046875 14.59375 C 14.894531 12.671875 15.9375 10.734375 17.695312 9.941406 C 19.414062 9.09375 21.425781 9.441406 22.65625 10.589844 C 21.984375 9.703125 20.636719 8.765625 19.042969 8.851562 C 17.480469 8.878906 16.015625 9.871094 15.53125 10.949219 C 14.730469 11.453125 14.636719 12.890625 14.289062 13.152344 C 13.816406 16.601562 15.171875 18.09375 17.457031 19.84375 C 17.816406 20.085938 17.558594 20.121094 17.609375 20.308594 C 16.832031 19.9375 16.140625 19.410156 15.578125 18.757812 C 15.882812 19.203125 16.210938 19.636719 16.632812 19.972656 C 15.917969 19.730469 14.960938 18.238281 14.679688 18.175781 C 15.914062 20.386719 19.691406 22.054688 21.667969 21.226562 C 20.753906 21.261719 19.59375 21.246094 18.566406 20.863281 C 18.132812 20.640625 17.546875 20.183594 17.648438 20.097656 C 20.347656 21.105469 23.136719 20.859375 25.46875 18.988281 C 26.0625 18.523438 26.710938 17.738281 26.898438 17.726562 C 26.617188 18.152344 26.949219 17.933594 26.730469 18.308594 C 27.324219 17.351562 26.476562 17.921875 27.34375 16.660156 L 27.664062 17.101562 C 27.546875 16.308594 28.648438 15.347656 28.535156 14.09375 C 28.789062 13.710938 28.816406 14.507812 28.550781 15.390625 C 28.921875 14.410156 28.648438 14.253906 28.742188 13.449219 C 28.84375 13.71875 28.984375 14.007812 29.050781 14.292969 C 28.808594 13.347656 29.300781 12.699219 29.421875 12.152344 C 29.300781 12.097656 29.046875 12.570312 28.988281 11.453125 C 29 10.96875 29.125 11.199219 29.175781 11.078125 C 29.078125 11.023438 28.828125 10.652344 28.675781 9.941406 C 28.789062 9.773438 28.972656 10.375 29.121094 10.398438 C 29.023438 9.832031 28.859375 9.398438 28.851562 8.964844 C 28.414062 8.050781 28.699219 9.085938 28.34375 8.574219 C 27.878906 7.117188 28.730469 8.234375 28.789062 7.574219 C 29.492188 8.597656 29.894531 10.183594 30.078125 10.84375 C 29.9375 10.050781 29.722656 9.269531 29.433594 8.515625 C 29.648438 8.605469 29.085938 6.863281 29.710938 8.015625 C 29.046875 5.5625 26.859375 3.269531 24.84375 2.191406 C 25.089844 2.421875 25.402344 2.703125 25.289062 2.746094 C 24.289062 2.148438 24.464844 2.101562 24.324219 1.851562 C 23.507812 1.519531 23.453125 1.878906 22.914062 1.851562 C 21.375 1.039062 21.078125 1.125 19.664062 0.613281 L 19.730469 0.914062 C 18.710938 0.574219 18.546875 1.042969 17.441406 0.914062 C 17.375 0.863281 17.796875 0.726562 18.140625 0.675781 C 17.15625 0.804688 17.203125 0.484375 16.238281 0.710938 C 16.476562 0.546875 16.726562 0.433594 16.980469 0.292969 C 16.175781 0.34375 15.066406 0.761719 15.40625 0.378906 C 14.101562 0.964844 11.773438 1.78125 10.46875 3.007812 L 10.425781 2.734375 C 9.828125 3.449219 7.820312 4.878906 7.65625 5.808594 L 7.5 5.84375 C 7.191406 6.371094 6.988281 6.96875 6.742188 7.511719 C 6.335938 8.203125 6.144531 7.777344 6.203125 7.886719 C 5.402344 9.507812 5.003906 10.871094 4.664062 11.988281 C 4.90625 12.359375 4.667969 14.195312 4.761719 15.664062 C 4.359375 22.921875 9.855469 29.96875 15.863281 31.597656 C 16.742188 31.914062 18.050781 31.898438 19.164062 31.933594 C 17.851562 31.558594 17.683594 31.734375 16.402344 31.289062 C 15.476562 30.851562 15.273438 30.355469 14.621094 29.789062 L 14.878906 30.246094 C 13.597656 29.792969 14.136719 29.683594 13.089844 29.355469 L 13.367188 28.992188 C 12.953125 28.960938 12.265625 28.292969 12.078125 27.921875 L 11.621094 27.941406 C 11.078125 27.265625 10.785156 26.78125 10.808594 26.402344 L 10.660156 26.664062 C 10.492188 26.378906 8.648438 24.136719 9.605469 24.65625 C 9.425781 24.496094 9.191406 24.390625 8.933594 23.925781 L 9.128906 23.703125 C 8.671875 23.113281 8.28125 22.351562 8.308594 22.101562 C 8.554688 22.433594 8.726562 22.492188 8.894531 22.550781 C 7.734375 19.664062 7.667969 22.390625 6.789062 19.613281 L 6.972656 19.597656 C 6.828125 19.382812 6.742188 19.148438 6.628906 18.921875 L 6.710938 18.113281 C 5.871094 17.140625 6.476562 13.996094 6.597656 12.269531 C 6.679688 11.566406 7.296875 10.820312 7.761719 9.648438 L 7.480469 9.601562 C 8.023438 8.648438 10.589844 5.78125 11.777344 5.929688 C 12.351562 5.207031 11.664062 5.925781 11.550781 5.746094 C 12.816406 4.4375 13.210938 4.820312 14.066406 4.585938 C 14.988281 4.039062 13.277344 4.796875 13.710938 4.378906 C 15.300781 3.96875 14.839844 3.453125 16.914062 3.246094 C 17.136719 3.371094 16.40625 3.441406 16.226562 3.601562 C 17.550781 2.953125 20.421875 3.101562 22.28125 3.960938 C 24.445312 4.972656 26.875 7.960938 26.96875 10.769531 L 27.078125 10.800781 C 27.023438 11.917969 27.25 13.207031 26.859375 14.394531 Z M 14.015625 17.628906 L 13.941406 17.996094 C 14.289062 18.46875 14.566406 18.980469 15.007812 19.347656 C 14.691406 18.726562 14.453125 18.46875 14.015625 17.628906 M 14.835938 17.59375 C 14.652344 17.390625 14.546875 17.148438 14.421875 16.90625 C 14.539062 17.332031 14.777344 17.699219 15 18.074219 Z M 29.351562 14.441406 L 29.273438 14.636719 C 29.132812 15.660156 28.824219 16.652344 28.355469 17.574219 C 28.875 16.59375 29.210938 15.523438 29.351562 14.441406 M 17.882812 0.226562 C 18.238281 0.09375 18.761719 0.152344 19.136719 0.0664062 C 18.644531 0.109375 18.152344 0.132812 17.667969 0.195312 Z M 5.347656 6.890625 C 5.429688 7.648438 4.773438 7.945312 5.496094 7.445312 C 5.878906 6.578125 5.34375 7.203125 5.347656 6.890625 M 4.503906 10.414062 C 4.671875 9.90625 4.699219 9.601562 4.761719 9.308594 C 4.304688 9.890625 4.550781 10.015625 4.503906 10.414062 "/>
</g>
</svg>
