<svg role="img" viewBox="0 0 32 32" xmlns="http://www.w3.org/2000/svg"><path d="M19.781 16.902c-.531.008.098.274.785.38a5.58 5.58 0 0 0 .52-.446c-.43.105-.867.105-1.305.066m2.832-.703c.313-.437.543-.91.625-1.402-.07.351-.261.652-.441.969-.988.625-.094-.368 0-.743-1.059 1.336-.145.801-.184 1.176m1.047-2.722c.067-.954-.187-.653-.27-.29.098.051.176.672.27.29m-5.883-13c.282.05.61.09.563.16.308-.07.379-.133-.563-.16m.563.16-.2.039.188-.016zm8.789 13.199c.027.851-.25 1.266-.508 2l-.453.23c-.375.723.035.457-.234 1.036-.582.52-1.766 1.625-2.145 1.722-.277-.008.188-.328.246-.453-.781.535-.625.805-1.82 1.133l-.035-.078c-2.942 1.383-7.032-1.36-6.977-5.106-.031.239-.09.18-.156.274-.152-1.922.89-3.86 2.648-4.653 1.72-.847 3.73-.5 4.961.649-.672-.887-2.02-1.824-3.613-1.738-1.563.027-3.027 1.02-3.512 2.097-.8.504-.894 1.942-1.242 2.203-.473 3.45.883 4.942 3.168 6.692.36.242.102.277.152.465a6.235 6.235 0 0 1-2.03-1.551c.304.445.632.879 1.054 1.215-.715-.243-1.672-1.735-1.953-1.797 1.234 2.21 5.011 3.879 6.988 3.05-.914.036-2.074.02-3.102-.363-.433-.222-1.02-.68-.918-.765 2.7 1.007 5.489.761 7.82-1.11.595-.465 1.243-1.25 1.43-1.261-.28.425.051.207-.168.582.594-.957-.253-.387.614-1.649l.32.442c-.117-.793.984-1.754.871-3.008.254-.383.281.414.016 1.297.37-.98.097-1.137.191-1.942.102.27.242.559.309.844-.242-.945.25-1.594.37-2.14-.12-.055-.374.417-.433-.7.012-.484.137-.254.188-.375-.098-.055-.348-.426-.5-1.137.113-.168.297.434.445.457-.098-.566-.262-1-.27-1.433-.437-.914-.152.12-.507-.39-.465-1.458.386-.34.445-1 .703 1.023 1.106 2.609 1.29 3.269a12.986 12.986 0 0 0-.645-2.328c.214.09-.348-1.653.277-.5-.664-2.453-2.852-4.746-4.867-5.825.246.23.558.512.445.555-1-.598-.824-.644-.965-.894-.816-.332-.87.027-1.41 0-1.539-.813-1.836-.727-3.25-1.239l.066.301c-1.02-.34-1.183.129-2.289 0-.066-.05.356-.187.7-.238-.985.129-.938-.192-1.903.035.239-.164.489-.277.742-.418-.804.05-1.914.469-1.574.086-1.304.586-3.633 1.402-4.937 2.629l-.043-.274C9.828 3.45 7.82 4.88 7.656 5.81l-.156.035c-.309.527-.512 1.125-.758 1.668-.406.691-.597.265-.539.375-.8 1.62-1.2 2.984-1.539 4.101.242.371.004 2.207.098 3.676-.403 7.258 5.093 14.305 11.101 15.934.88.316 2.188.3 3.301.336-1.312-.375-1.48-.2-2.762-.645-.925-.437-1.129-.934-1.78-1.5l.257.457c-1.281-.453-.742-.562-1.79-.89l.278-.364c-.414-.031-1.101-.699-1.289-1.07l-.457.02c-.543-.676-.836-1.16-.812-1.54l-.149.262c-.168-.285-2.012-2.527-1.055-2.008-.18-.16-.414-.265-.671-.73l.195-.223c-.457-.59-.848-1.351-.82-1.601.246.332.418.39.586.449-1.16-2.887-1.227-.16-2.106-2.938l.184-.015c-.145-.215-.23-.45-.344-.676l.082-.809c-.84-.972-.234-4.117-.113-5.843.082-.704.699-1.45 1.164-2.622l-.282-.046c.543-.954 3.11-3.82 4.297-3.672.575-.723-.113-.004-.226-.184 1.265-1.309 1.66-.926 2.515-1.16.922-.547-.789.21-.355-.207 1.59-.41 1.129-.926 3.203-1.133.223.125-.508.195-.687.356 1.324-.649 4.195-.5 6.054.359 2.164 1.012 4.594 4 4.688 6.809l.11.03c-.056 1.118.171 2.407-.22 3.595zM14.016 17.63l-.075.367c.348.473.625.984 1.067 1.352-.317-.621-.555-.88-.992-1.72m.82-.034c-.184-.203-.29-.446-.414-.688.117.426.355.793.578 1.168zm14.516-3.153-.079.196a9.243 9.243 0 0 1-.918 2.937c.52-.98.856-2.05.997-3.133M17.882.227c.356-.133.88-.075 1.255-.16-.492.042-.985.066-1.469.128zM5.348 6.89c.082.757-.575 1.054.148.554.383-.867-.152-.242-.148-.554m-.844 3.523c.168-.508.195-.812.258-1.105-.457.582-.211.707-.258 1.105" style="stroke:none;fill-rule:nonzero;fill:rgb(0%,0%,0%);fill-opacity:1"/></svg>