<svg role="img" viewBox="0 0 32 32" xmlns="http://www.w3.org/2000/svg"><path d="m1.102.18-.922.922 9.601 9.597.457.442.461-.442 2.102-2.097 7.219 7.218.46.442.461-.442 2.098-2.101 6.762 6.761h-4.2v1.282H32v-7.043h-1.281v4.84l-7.219-7.22-.46-.44-.462.44-2.098 2.102-7.218-7.222-.461-.438-.461.438-2.102 2.101ZM0 5.12V32h1.281V5.121Zm3.84 3.84V32h1.28V8.96Zm3.84 3.84V32h1.28V12.8Zm3.84 0V32h1.28V12.8Zm3.84 2.558V32h1.28V15.36Zm7.68 2.563V32h1.28V17.922Zm-3.84 1.277V32h1.28V19.2Zm7.679 5.121V32h1.281v-7.68Zm3.84 0V32H32v-7.68Zm0 0" style="stroke:none;fill-rule:nonzero;fill:rgb(0%,0%,0%);fill-opacity:1"/></svg>