<?xml version="1.0" encoding="UTF-8"?>
<svg xmlns="http://www.w3.org/2000/svg" xmlns:xlink="http://www.w3.org/1999/xlink" width="32" height="32" viewBox="0 0 32 32" version="1.1">
<g id="surface1">
<path style=" stroke:none;fill-rule:nonzero;fill:rgb(22.745098%,85.490197%,49.019608%);fill-opacity:1;" d="M 6.152344 0 C 5.472656 0 4.921875 0.550781 4.921875 1.230469 L 4.921875 17.230469 C 4.921875 17.910156 5.472656 18.460938 6.152344 18.460938 L 28.308594 18.460938 C 28.988281 18.460938 29.539062 17.910156 29.539062 17.230469 L 29.539062 1.230469 C 29.539062 0.550781 28.988281 0 28.308594 0 Z M 13.539062 2.460938 L 20.921875 2.460938 C 21.601562 2.460938 22.152344 3.011719 22.152344 3.691406 C 22.152344 4.371094 21.601562 4.921875 20.921875 4.921875 L 13.539062 4.921875 C 12.859375 4.921875 12.308594 4.371094 12.308594 3.691406 C 12.308594 3.011719 12.859375 2.460938 13.539062 2.460938 M 6.152344 19.691406 C 2.769531 19.691406 0 22.460938 0 25.847656 C 0 29.230469 2.769531 32 6.152344 32 L 32 32 L 32 29.539062 L 6.152344 29.539062 C 4.101562 29.539062 2.460938 27.898438 2.460938 25.847656 C 2.460938 23.792969 4.101562 22.152344 6.152344 22.152344 L 32 22.152344 L 32 19.691406 Z M 6.152344 23.382812 C 4.792969 23.382812 3.691406 24.488281 3.691406 25.847656 C 3.691406 27.207031 4.792969 28.308594 6.152344 28.308594 C 7.511719 28.308594 8.617188 27.207031 8.617188 25.847656 C 8.617188 24.488281 7.511719 23.382812 6.152344 23.382812 M 17.230469 23.382812 C 15.871094 23.382812 14.769531 24.488281 14.769531 25.847656 C 14.769531 27.207031 15.871094 28.308594 17.230469 28.308594 C 18.589844 28.308594 19.691406 27.207031 19.691406 25.847656 C 19.691406 24.488281 18.589844 23.382812 17.230469 23.382812 M 28.308594 23.382812 C 26.949219 23.382812 25.847656 24.488281 25.847656 25.847656 C 25.847656 27.207031 26.949219 28.308594 28.308594 28.308594 C 29.667969 28.308594 30.769531 27.207031 30.769531 25.847656 C 30.769531 24.488281 29.667969 23.382812 28.308594 23.382812 "/>
</g>
</svg>
