<svg role="img" viewBox="0 0 32.881 32" xmlns="http://www.w3.org/2000/svg"><path d="M25.938 15.14a7.402 7.402 0 0 0 4.16-5.44 14.946 14.946 0 0 0-9.52-8.274 11.292 11.292 0 0 1 1.988 7.094 9.582 9.582 0 0 1 3.372 6.62m-17.93-3.824A7.393 7.393 0 0 0 1.59 13.68a14.957 14.957 0 0 0 3.723 12.203 11.392 11.392 0 0 1 2.007-7.188 9.558 9.558 0 0 1 .688-7.379m1.683 11.27a7.392 7.392 0 0 0 1.07 7.105 14.987 14.987 0 0 0 11.344-.007 11.3 11.3 0 0 1-5.84-4.325 9.544 9.544 0 0 1-6.574-2.773m8.84-16.066a7.395 7.395 0 0 0-4.472-5.5A15.009 15.009 0 0 0 3.746 7.816a11.381 11.381 0 0 1 7.2.192A9.463 9.463 0 0 1 18.53 6.52m6.684 12.992a9.509 9.509 0 0 1-4.602 4.875 7.442 7.442 0 0 0 6.707 1.71 15.004 15.004 0 0 0 4.082-10.277 11.342 11.342 0 0 1-6.187 3.692m0 0" style="stroke:none;fill-rule:nonzero;fill:rgb(26.666668%,62.352943%,84.705883%);fill-opacity:1"/><path d="M21.14 15.82a4.69 4.69 0 1 1-9.379.004 4.69 4.69 0 0 1 9.38-.004m0 0" style="stroke:none;fill-rule:nonzero;fill:rgb(94.117647%,30.19608%,36.078432%);fill-opacity:1"/></svg>