<?xml version="1.0" encoding="UTF-8"?>
<svg xmlns="http://www.w3.org/2000/svg" xmlns:xlink="http://www.w3.org/1999/xlink" width="32" height="32" viewBox="0 0 32 32" version="1.1">
<g id="surface1">
<path style=" stroke:none;fill-rule:nonzero;fill:rgb(0%,0%,0%);fill-opacity:1;" d="M 16.332031 4.667969 C 16.886719 4.667969 17.332031 5.113281 17.332031 5.667969 L 17.332031 11.332031 L 23 11.332031 C 23.550781 11.332031 24 11.78125 24 12.332031 C 24 12.886719 23.550781 13.332031 23 13.332031 L 17.332031 13.332031 L 17.332031 19 C 17.332031 19.550781 16.886719 20 16.332031 20 C 15.78125 20 15.332031 19.550781 15.332031 19 L 15.332031 13.332031 L 9.667969 13.332031 C 9.113281 13.332031 8.667969 12.886719 8.667969 12.332031 C 8.667969 11.78125 9.113281 11.332031 9.667969 11.332031 L 15.332031 11.332031 L 15.332031 5.667969 C 15.332031 5.113281 15.78125 4.667969 16.332031 4.667969 M 8.75 25.667969 C 8.75 25.113281 9.195312 24.667969 9.75 24.667969 L 23 24.667969 C 23.550781 24.667969 24 25.113281 24 25.667969 C 24 26.21875 23.550781 26.667969 23 26.667969 L 9.75 26.667969 C 9.195312 26.667969 8.75 26.21875 8.75 25.667969 "/>
</g>
</svg>
