<?xml version="1.0" encoding="UTF-8"?>
<svg xmlns="http://www.w3.org/2000/svg" xmlns:xlink="http://www.w3.org/1999/xlink" width="32" height="32" viewBox="0 0 32 32" version="1.1">
<g id="surface1">
<path style=" stroke:none;fill-rule:nonzero;fill:rgb(40.000001%,39.607844%,82.352942%);fill-opacity:1;" d="M 27.269531 7.988281 C 23.605469 5.242188 20.089844 5.320312 20.089844 5.320312 L 19.730469 5.730469 C 24.089844 7.039062 26.117188 8.960938 26.117188 8.960938 C 19.878906 5.527344 11.933594 5.550781 5.449219 8.960938 C 5.449219 8.960938 7.550781 6.933594 12.167969 5.628906 L 11.910156 5.320312 C 11.910156 5.320312 8.421875 5.242188 4.730469 7.984375 C 4.730469 7.984375 1.039062 14.628906 1.039062 22.808594 C 1.039062 22.808594 3.191406 26.5 8.859375 26.679688 C 8.859375 26.679688 9.808594 25.550781 10.578125 24.578125 C 7.320312 23.605469 6.089844 21.578125 6.089844 21.578125 C 8.136719 22.859375 10.203125 23.660156 12.78125 24.167969 C 16.976562 25.03125 22.195312 24.144531 26.089844 21.578125 C 26.089844 21.578125 24.808594 23.65625 21.449219 24.605469 C 22.007812 25.292969 22.574219 25.976562 23.140625 26.65625 C 28.808594 26.476562 30.964844 22.78125 30.964844 22.808594 C 30.960938 14.628906 27.269531 7.988281 27.269531 7.988281 M 11.21875 20.421875 C 9.78125 20.421875 8.601562 19.167969 8.601562 17.601562 C 8.707031 13.855469 13.753906 13.867188 13.832031 17.601562 C 13.832031 19.167969 12.679688 20.421875 11.21875 20.421875 M 20.578125 20.421875 C 19.140625 20.421875 17.960938 19.167969 17.960938 17.601562 C 18.078125 13.863281 23.0625 13.863281 23.191406 17.601562 C 23.191406 19.167969 22.039062 20.421875 20.578125 20.421875 "/>
</g>
</svg>
