<svg role="img" viewBox="0 0 32 32" xmlns="http://www.w3.org/2000/svg"><path d="M4.922 0c-.578 0-1.078.426-1.203 1.04L.422 20.62c.27-.09.55-.14.86-.14h29.437c.312 0 .61.066.883.16L28.34 1.02C28.223.426 27.719 0 27.14 0Zm-3.64 21.762c-.743 0-1.282.535-1.282 1.277v7.68C0 31.46.54 32 1.281 32H30.72c.74 0 1.28-.54 1.28-1.281v-7.68c0-.742-.54-1.277-1.281-1.277Zm3.198 3.84h1.282v1.918H7.68v-1.918h1.28v1.918h1.919v-1.918h1.281v1.918h1.918v-1.918h1.281v1.918h1.922v-1.918h1.278v1.918h1.921v-1.918h1.282V28.8H4.48Zm21.758 0c.707 0 1.282.574 1.282 1.277 0 .707-.575 1.281-1.282 1.281a1.28 1.28 0 0 1 0-2.559m0 0" style="stroke:none;fill-rule:nonzero;fill:#3ada7d;fill-opacity:1"/></svg>