<?xml version="1.0" encoding="UTF-8"?>
<svg xmlns="http://www.w3.org/2000/svg" xmlns:xlink="http://www.w3.org/1999/xlink" width="32" height="32" viewBox="0 0 32 32" version="1.1">
<g id="surface1">
<path style=" stroke:none;fill-rule:nonzero;fill:rgb(0%,0%,0%);fill-opacity:1;" d="M 4.921875 0 C 4.328125 0.0078125 3.824219 0.4375 3.71875 1.019531 L 0.398438 20.640625 C 0.683594 20.535156 0.980469 20.480469 1.28125 20.480469 L 30.71875 20.480469 C 31.019531 20.480469 31.292969 20.546875 31.558594 20.640625 L 28.28125 1.019531 C 28.179688 0.4375 27.675781 0.0078125 27.082031 0 Z M 16 5.121094 C 20.945312 5.121094 24.960938 7.984375 24.960938 11.519531 C 24.960938 15.054688 20.945312 17.921875 16 17.921875 C 11.054688 17.921875 7.039062 15.054688 7.039062 11.519531 C 7.039062 7.984375 11.054688 5.121094 16 5.121094 M 16 9.601562 C 14.941406 9.601562 14.078125 10.171875 14.078125 10.878906 C 14.078125 11.585938 14.941406 12.160156 16 12.160156 C 17.058594 12.160156 17.921875 11.585938 17.921875 10.878906 C 17.921875 10.171875 17.058594 9.601562 16 9.601562 M 1.28125 21.761719 C 0.574219 21.761719 0 22.335938 0 23.039062 L 0 30.71875 C 0 31.425781 0.574219 32 1.28125 32 L 30.71875 32 C 31.425781 32 32 31.425781 32 30.71875 L 32 23.039062 C 32 22.335938 31.425781 21.761719 30.71875 21.761719 Z M 25.601562 25.601562 C 26.308594 25.601562 26.878906 26.171875 26.878906 26.878906 C 26.878906 27.585938 26.308594 28.160156 25.601562 28.160156 C 24.894531 28.160156 24.320312 27.585938 24.320312 26.878906 C 24.320312 26.171875 24.894531 25.601562 25.601562 25.601562 "/>
</g>
</svg>
