<?xml version="1.0" encoding="utf-8"?>
<svg xmlns="http://www.w3.org/2000/svg" viewBox="0 0 50 50" fill="#000000"><path d="M 7.6875 0 C 6.785156 0 6.003906 0.664063 5.8125 1.625 L 0.65625 32.21875 C 1.078125 32.078125 1.519531 32 2 32 L 48 32 C 48.488281 32 48.949219 32.105469 49.375 32.25 L 44.28125 1.59375 C 44.097656 0.664063 43.3125 0 42.40625 0 Z M 2 34 C 0.839844 34 0 34.839844 0 36 L 0 48 C 0 49.160156 0.839844 50 2 50 L 48 50 C 49.160156 50 50 49.160156 50 48 L 50 36 C 50 34.839844 49.160156 34 48 34 Z M 7 40 L 9 40 L 9 43 L 12 43 L 12 40 L 14 40 L 14 43 L 17 43 L 17 40 L 19 40 L 19 43 L 22 43 L 22 40 L 24 40 L 24 43 L 27 43 L 27 40 L 29 40 L 29 43 L 32 43 L 32 40 L 34 40 L 34 45 L 7 45 Z M 41 40 C 42.101563 40 43 40.898438 43 42 C 43 43.101563 42.101563 44 41 44 C 39.898438 44 39 43.101563 39 42 C 39 40.898438 39.898438 40 41 40 Z" fill="#000000"/></svg>
