<svg xmlns="http://www.w3.org/2000/svg" xmlns:xlink="http://www.w3.org/1999/xlink" viewBox="0,0,256,256" width="32px" height="32px"><defs><clipPath id="clip-1"><path d="M0,256v-256h256l0,177.72157c-5.58958,-31.63721 -33.38275,-55.86557 -66.56,-55.86557c-37.1712,0 -67.584,30.4128 -67.584,67.584c0,33.17725 24.22836,60.97042 55.86557,66.56zM256,256h-54.84157c27.82865,-4.91669 49.92488,-27.01292 54.84157,-54.84157z" id="overlayBgMask" fill="none"></path></clipPath></defs><g clip-path="url(#clip-1)" fill="none" fill-rule="nonzero" stroke="none" stroke-width="1" stroke-linecap="butt" stroke-linejoin="miter" stroke-miterlimit="10" stroke-dasharray="" stroke-dashoffset="0" font-family="none" font-weight="none" font-size="none" text-anchor="none" style="mix-blend-mode: normal"><g transform="scale(5.12,5.12)" fill="#000000"><path d="M7.6875,0c-0.91016,0 -1.72266,0.6875 -1.875,1.59375l-5.1875,30.65625c0.42578,-0.15625 0.89453,-0.25 1.375,-0.25h46c0.46875,0 0.89453,0.10156 1.3125,0.25l-5.125,-30.65625c-0.15234,-0.91016 -0.96094,-1.59375 -1.875,-1.59375zM25,8c7.72656,0 14,4.47656 14,10c0,5.51953 -6.27344,10 -14,10c-7.72656,0 -14,-4.48047 -14,-10c0,-5.52344 6.27344,-10 14,-10zM25,15c-1.65625,0 -3,0.89453 -3,2c0,1.10547 1.34375,2 3,2c1.65625,0 3,-0.89453 3,-2c0,-1.10547 -1.34375,-2 -3,-2zM2,34c-1.10156,0 -2,0.89844 -2,2v12c0,1.10156 0.89844,2 2,2h46c1.10156,0 2,-0.89844 2,-2v-12c0,-1.10156 -0.89844,-2 -2,-2zM40,40c1.10547,0 2,0.89453 2,2c0,1.10547 -0.89453,2 -2,2c-1.10547,0 -2,-0.89453 -2,-2c0,-1.10547 0.89453,-2 2,-2z"></path></g></g><g fill="#ff1919" fill-rule="nonzero" stroke="none" stroke-width="1" stroke-linecap="butt" stroke-linejoin="miter" stroke-miterlimit="10" stroke-dasharray="" stroke-dashoffset="0" font-family="none" font-weight="none" font-size="none" text-anchor="none" style="mix-blend-mode: normal"><g transform="translate(133.12,133.12) scale(5.632,5.632)" id="overlay"><path d="M10,0c-5.5,0 -10,4.5 -10,10c0,5.5 4.5,10 10,10c5.5,0 10,-4.5 10,-10c0,-5.5 -4.5,-10 -10,-10zM11,14.8c0,0.1 -0.1,0.2 -0.2,0.2h-1.6c-0.1,0 -0.2,-0.1 -0.2,-0.2v-1.6c0,-0.1 0.1,-0.2 0.2,-0.2h1.6c0.1,0 0.2,0.1 0.2,0.2c0,0 0,1.6 0,1.6zM11,10.8c0,0.1 -0.1,0.2 -0.2,0.2h-1.6c-0.1,0 -0.2,-0.1 -0.2,-0.2v-5.6c0,-0.1 0.1,-0.2 0.2,-0.2h1.6c0.1,0 0.2,0.1 0.2,0.2z"></path></g></g></svg>