<?xml version="1.0" encoding="UTF-8"?>
<svg xmlns="http://www.w3.org/2000/svg" xmlns:xlink="http://www.w3.org/1999/xlink" width="32" height="32" viewBox="0 0 32 32" version="1.1">
<defs>
<clipPath id="clip1">
  <path d="M 0 32 L 0 0 L 32 0 L 32 22.214844 C 31.300781 18.261719 27.828125 15.230469 23.679688 15.230469 C 19.035156 15.230469 15.230469 19.035156 15.230469 23.679688 C 15.230469 27.828125 18.261719 31.300781 22.214844 32 Z M 32 32 L 25.144531 32 C 28.625 31.386719 31.386719 28.625 32 25.144531 Z M 32 32 "/>
</clipPath>
</defs>
<g id="surface1">
<g clip-path="url(#clip1)" clip-rule="nonzero">
<path style=" stroke:none;fill-rule:nonzero;fill:rgb(0%,0%,0%);fill-opacity:1;" d="M 4.921875 0 C 4.328125 0.0078125 3.824219 0.4375 3.71875 1.019531 L 0.398438 20.640625 C 0.671875 20.539062 0.972656 20.480469 1.28125 20.480469 L 30.71875 20.480469 C 31.019531 20.480469 31.292969 20.546875 31.558594 20.640625 L 28.28125 1.019531 C 28.179688 0.4375 27.675781 0.0078125 27.082031 0 Z M 16 5.121094 C 20.945312 5.121094 24.960938 7.984375 24.960938 11.519531 C 24.960938 15.054688 20.945312 17.921875 16 17.921875 C 11.054688 17.921875 7.039062 15.054688 7.039062 11.519531 C 7.039062 7.984375 11.054688 5.121094 16 5.121094 M 16 9.601562 C 14.941406 9.601562 14.078125 10.171875 14.078125 10.878906 C 14.078125 11.585938 14.941406 12.160156 16 12.160156 C 17.058594 12.160156 17.921875 11.585938 17.921875 10.878906 C 17.921875 10.171875 17.058594 9.601562 16 9.601562 M 1.28125 21.761719 C 0.574219 21.761719 0 22.335938 0 23.039062 L 0 30.71875 C 0 31.425781 0.574219 32 1.28125 32 L 30.71875 32 C 31.425781 32 32 31.425781 32 30.71875 L 32 23.039062 C 32 22.335938 31.425781 21.761719 30.71875 21.761719 Z M 25.601562 25.601562 C 26.308594 25.601562 26.878906 26.171875 26.878906 26.878906 C 26.878906 27.585938 26.308594 28.160156 25.601562 28.160156 C 24.894531 28.160156 24.320312 27.585938 24.320312 26.878906 C 24.320312 26.171875 24.894531 25.601562 25.601562 25.601562 "/>
</g>
<path style=" stroke:none;fill-rule:nonzero;fill:rgb(100%,9.803922%,9.803922%);fill-opacity:1;" d="M 23.679688 16.640625 C 19.808594 16.640625 16.640625 19.808594 16.640625 23.679688 C 16.640625 27.550781 19.808594 30.71875 23.679688 30.71875 C 27.550781 30.71875 30.71875 27.550781 30.71875 23.679688 C 30.71875 19.808594 27.550781 16.640625 23.679688 16.640625 M 24.382812 27.058594 C 24.382812 27.128906 24.3125 27.199219 24.242188 27.199219 L 23.117188 27.199219 C 23.046875 27.199219 22.976562 27.128906 22.976562 27.058594 L 22.976562 25.933594 C 22.976562 25.863281 23.046875 25.792969 23.117188 25.792969 L 24.242188 25.792969 C 24.3125 25.792969 24.382812 25.863281 24.382812 25.933594 Z M 24.382812 24.242188 C 24.382812 24.3125 24.3125 24.382812 24.242188 24.382812 L 23.117188 24.382812 C 23.046875 24.382812 22.976562 24.3125 22.976562 24.242188 L 22.976562 20.300781 C 22.976562 20.230469 23.046875 20.160156 23.117188 20.160156 L 24.242188 20.160156 C 24.3125 20.160156 24.382812 20.230469 24.382812 20.300781 Z M 24.382812 24.242188 "/>
</g>
</svg>
