<svg role="img" viewBox="0 0 256 256" xmlns="http://www.w3.org/2000/svg" xmlns:xlink="http://www.w3.org/1999/xlink"><defs><clipPath id="a"><path d="M0 256V0h256v177.722c-5.59-31.638-33.383-55.866-66.56-55.866-37.171 0-67.584 30.413-67.584 67.584 0 33.177 24.228 60.97 55.866 66.56zm256 0h-54.842c27.83-4.917 49.925-27.013 54.842-54.842z" fill="none"/></clipPath></defs><g clip-path="url(#a)" fill="none" font-family="none" font-size="none" font-weight="none" stroke-miterlimit="10" style="mix-blend-mode:normal" text-anchor="none"><path d="M39.363 0a9.882 9.882 0 0 0-9.6 8.161L3.2 165.12c2.181-.799 4.582-1.28 7.04-1.28h235.52c2.401 0 4.582.522 6.723 1.28L226.237 8.161A9.846 9.846 0 0 0 216.647 0zM128 40.96c39.562 0 71.68 22.922 71.68 51.2 0 28.262-32.118 51.2-71.68 51.2s-71.68-22.938-71.68-51.2c0-28.278 32.118-51.2 71.68-51.2m0 35.84c-8.479 0-15.36 4.582-15.36 10.24s6.881 10.24 15.36 10.24 15.36-4.582 15.36-10.24S136.479 76.8 128 76.8M10.24 174.08C4.598 174.08 0 178.678 0 184.32v61.44C0 251.402 4.598 256 10.24 256h235.52c5.642 0 10.24-4.598 10.24-10.24v-61.44c0-5.642-4.598-10.24-10.24-10.24zM204.8 204.8a10.24 10.24 0 1 1 0 20.48 10.24 10.24 0 1 1 0-20.48" fill="#000000"/></g><path d="M10 0C4.5 0 0 4.5 0 10s4.5 10 10 10 10-4.5 10-10S15.5 0 10 0m1 14.8c0 .1-.1.2-.2.2H9.2c-.1 0-.2-.1-.2-.2v-1.6c0-.1.1-.2.2-.2h1.6c.1 0 .2.1.2.2zm0-4c0 .1-.1.2-.2.2H9.2c-.1 0-.2-.1-.2-.2V5.2c0-.1.1-.2.2-.2h1.6c.1 0 .2.1.2.2z" fill="#ff1919" font-family="none" font-size="none" font-weight="none" style="mix-blend-mode:normal" text-anchor="none" transform="translate(133.12 133.12)scale(5.632)"/></svg>