<svg role="img" viewBox="0 0 50 50" xmlns="http://www.w3.org/2000/svg"><path d="M7.688 0a1.93 1.93 0 0 0-1.875 1.594L.625 32.25A4.02 4.02 0 0 1 2 32h46c.469 0 .895.102 1.313.25L44.187 1.594A1.923 1.923 0 0 0 42.314 0ZM25 8c7.727 0 14 4.477 14 10 0 5.52-6.273 10-14 10s-14-4.48-14-10c0-5.523 6.273-10 14-10m0 7c-1.656 0-3 .895-3 2s1.344 2 3 2 3-.895 3-2-1.344-2-3-2M2 34c-1.102 0-2 .898-2 2v12c0 1.102.898 2 2 2h46c1.102 0 2-.898 2-2V36c0-1.102-.898-2-2-2Zm38 6a1.999 1.999 0 1 1 0 4 1.999 1.999 0 1 1 0-4"/></svg>