<svg xmlns="http://www.w3.org/2000/svg" width="32" height="42" stroke="#000" stroke-linecap="round" stroke-linejoin="round" fill="#fff" fill-rule="evenodd"><path d="M14.5331 0h6.7489v31.2063c-3.4582.6571-5.9913.9193-8.7615.9193C4.2899 32.1256 0 28.4046 0 21.2685 0 14.3946 4.5534 9.9301 11.6012 9.9301c1.0952 0 1.9327.087 2.9332.3498zm0 15.7082c-.7879-.2622-1.4444-.3498-2.2761-.3498-3.4144 0-5.3857 2.1014-5.3857 5.7787 0 3.5902 1.8824 5.5596 5.3471 5.5596.7441 0 1.3567-.0438 2.3192-.1739zM32 10.4107v15.6289c0 5.3858-.3943 7.9678-1.5758 10.2001-1.0952 2.1453-2.5395 3.502-5.5158 4.9908l-6.2606-2.9763c2.9763-1.4006 4.4213-2.6259 5.347-4.5096.9632-1.9327 1.2692-4.1591 1.2692-10.0242V10.4107zM25.2582.0361H32v6.917h-6.7418z" stroke="none" fill="#092e20" fill-rule="nonzero"/></svg>