<svg role="img" viewBox="0 0 24.381 32" xmlns="http://www.w3.org/2000/svg"><path d="M11.074 0h5.14v23.777c-2.636.5-4.566.7-6.675.7C3.27 24.477 0 21.64 0 16.203c0-5.234 3.469-8.637 8.84-8.637.832 0 1.473.067 2.234.266Zm0 11.969a5.127 5.127 0 0 0-1.734-.266c-2.602 0-4.106 1.598-4.106 4.402 0 2.735 1.434 4.235 4.075 4.235.566 0 1.035-.031 1.77-.133Zm13.309-4.035V19.84c0 4.101-.301 6.07-1.203 7.77-.832 1.636-1.934 2.671-4.203 3.804l-4.77-2.27c2.27-1.066 3.371-2 4.074-3.433.735-1.473.969-3.168.969-7.637V7.934ZM19.246.027h5.137v5.27h-5.137Zm0 0" style="stroke:none;fill-rule:nonzero;fill:rgb(3.529412%,18.039216%,12.54902%);fill-opacity:1"/></svg>