<?xml version="1.0" encoding="UTF-8"?>
<svg xmlns="http://www.w3.org/2000/svg" xmlns:xlink="http://www.w3.org/1999/xlink" width="32" height="32" viewBox="0 0 32 32" version="1.1">
<g id="surface1">
<path style=" stroke:none;fill-rule:nonzero;fill:rgb(20.392157%,59.607846%,85.882354%);fill-opacity:1;" d="M 16 2.667969 C 11.078125 2.667969 6.78125 5.355469 4.472656 9.332031 L 7.726562 9.332031 C 8.925781 7.851562 10.492188 6.675781 12.316406 6.003906 C 11.898438 6.972656 11.5625 8.105469 11.308594 9.332031 L 14.050781 9.332031 C 14.6875 6.699219 15.582031 5.332031 16 5.332031 C 16.417969 5.332031 17.3125 6.699219 17.949219 9.332031 L 20.691406 9.332031 C 20.4375 8.105469 20.101562 6.972656 19.683594 6.003906 C 21.503906 6.675781 23.074219 7.851562 24.273438 9.332031 L 27.527344 9.332031 C 25.21875 5.355469 20.921875 2.667969 16 2.667969 M 4.214844 12 L 4.214844 20 L 7.058594 20 C 7.753906 19.996094 8.378906 19.835938 8.929688 19.519531 C 9.476562 19.203125 9.921875 18.734375 10.210938 18.171875 C 10.511719 17.59375 10.667969 16.933594 10.667969 16.1875 L 10.667969 15.816406 C 10.667969 15.074219 10.511719 14.410156 10.203125 13.824219 C 9.910156 13.261719 9.464844 12.792969 8.917969 12.472656 C 8.367188 12.160156 7.742188 12 7.042969 12 Z M 12.941406 12 L 12.941406 20 L 14.589844 20 L 14.589844 14.738281 L 17.796875 20 L 19.445312 20 L 19.445312 12 L 17.800781 12 L 17.800781 17.273438 L 14.589844 12 Z M 24.445312 12 C 23.894531 12 23.394531 12.09375 22.949219 12.277344 C 22.507812 12.464844 22.167969 12.722656 21.929688 13.050781 C 21.691406 13.378906 21.566406 13.773438 21.574219 14.175781 C 21.574219 14.988281 22.019531 15.628906 22.902344 16.105469 C 23.226562 16.28125 23.664062 16.460938 24.222656 16.640625 C 24.777344 16.820312 25.160156 16.992188 25.375 17.152344 C 25.589844 17.316406 25.699219 17.550781 25.699219 17.851562 C 25.699219 18.128906 25.589844 18.347656 25.375 18.503906 C 25.160156 18.65625 24.863281 18.734375 24.480469 18.734375 C 23.457031 18.734375 22.941406 18.300781 22.941406 17.441406 L 21.332031 17.441406 C 21.332031 17.945312 21.464844 18.386719 21.722656 18.769531 C 21.980469 19.148438 22.355469 19.453125 22.847656 19.671875 C 23.363281 19.894531 23.917969 20.007812 24.480469 20 C 25.34375 20 26.03125 19.808594 26.539062 19.425781 C 27.050781 19.042969 27.304688 18.511719 27.304688 17.839844 C 27.304688 17.230469 27.097656 16.726562 26.679688 16.320312 C 26.261719 15.914062 25.597656 15.574219 24.683594 15.300781 C 24.191406 15.152344 23.816406 14.988281 23.558594 14.816406 C 23.304688 14.644531 23.175781 14.433594 23.175781 14.183594 C 23.171875 13.925781 23.292969 13.679688 23.503906 13.527344 C 23.722656 13.363281 24.027344 13.277344 24.417969 13.277344 C 24.824219 13.277344 25.140625 13.378906 25.363281 13.574219 C 25.589844 13.773438 25.703125 14.050781 25.703125 14.410156 L 27.308594 14.410156 C 27.3125 13.964844 27.1875 13.527344 26.945312 13.15625 C 26.695312 12.78125 26.34375 12.484375 25.933594 12.300781 C 25.496094 12.101562 25.003906 12 24.445312 12 M 5.933594 13.335938 L 6.925781 13.335938 C 7.566406 13.335938 8.054688 13.542969 8.390625 13.964844 C 8.726562 14.382812 8.894531 15 8.894531 15.8125 L 8.894531 16.234375 C 8.886719 17.019531 8.714844 17.621094 8.375 18.042969 C 8.035156 18.464844 7.546875 18.675781 6.910156 18.675781 L 5.933594 18.675781 Z M 4.472656 22.667969 C 6.78125 26.644531 11.078125 29.332031 16 29.332031 C 20.921875 29.332031 25.21875 26.644531 27.527344 22.667969 L 24.273438 22.667969 C 23.074219 24.148438 21.507812 25.324219 19.683594 25.996094 C 20.101562 25.027344 20.433594 23.894531 20.691406 22.667969 L 17.949219 22.667969 C 17.308594 25.300781 16.414062 26.667969 15.996094 26.667969 C 15.582031 26.667969 14.6875 25.300781 14.050781 22.667969 L 11.308594 22.667969 C 11.5625 23.894531 11.898438 25.027344 12.316406 25.996094 C 10.496094 25.324219 8.925781 24.148438 7.726562 22.667969 Z M 4.472656 22.667969 "/>
</g>
</svg>
