<svg role="img" viewBox="0 0 32 32" xmlns="http://www.w3.org/2000/svg"><path d="M16 2.668c-4.922 0-9.219 2.687-11.527 6.664h3.254c1.199-1.48 2.765-2.656 4.59-3.328-.419.969-.755 2.101-1.008 3.328h2.742c.636-2.633 1.531-4 1.949-4 .418 0 1.313 1.367 1.95 4h2.741c-.253-1.227-.59-2.36-1.007-3.328 1.82.672 3.39 1.848 4.59 3.328h3.253C25.22 5.355 20.922 2.668 16 2.668M4.215 12v8h2.844c.695-.004 1.32-.164 1.87-.48a3.28 3.28 0 0 0 1.282-1.348c.3-.578.457-1.238.457-1.985v-.37c0-.743-.156-1.407-.465-1.993a3.35 3.35 0 0 0-1.285-1.351C8.368 12.16 7.742 12 7.043 12Zm8.726 0v8h1.649v-5.262L17.797 20h1.648v-8h-1.644v5.273L14.59 12Zm11.504 0c-.55 0-1.05.094-1.496.277-.441.188-.781.446-1.02.774a1.864 1.864 0 0 0-.355 1.125c0 .812.446 1.453 1.328 1.93.325.175.762.355 1.32.535.555.18.938.351 1.153.511.215.164.324.399.324.7 0 .277-.11.496-.324.652-.215.152-.512.23-.895.23-1.023 0-1.539-.433-1.539-1.293h-1.609c0 .504.133.946.39 1.329.258.378.633.683 1.126.902A3.972 3.972 0 0 0 24.48 20c.864 0 1.551-.191 2.06-.574.51-.383.765-.914.765-1.586 0-.61-.207-1.113-.625-1.52-.418-.406-1.082-.746-1.996-1.02-.493-.148-.868-.312-1.125-.484-.254-.171-.383-.382-.383-.632a.79.79 0 0 1 .328-.657c.219-.164.523-.25.914-.25.406 0 .723.102.945.297.227.2.34.477.34.836h1.606a2.25 2.25 0 0 0-.364-1.254 2.373 2.373 0 0 0-1.011-.855c-.438-.2-.93-.301-1.489-.301M5.934 13.336h.992c.64 0 1.129.207 1.465.629.336.418.504 1.035.504 1.848v.421c-.008.786-.18 1.387-.52 1.809-.34.422-.828.633-1.465.633h-.976Zm-1.461 9.332C6.78 26.645 11.078 29.332 16 29.332c4.922 0 9.219-2.687 11.527-6.664h-3.254c-1.199 1.48-2.765 2.656-4.59 3.328.419-.969.75-2.101 1.008-3.328H17.95c-.64 2.633-1.535 4-1.953 4-.414 0-1.309-1.367-1.945-4H11.31c.254 1.227.59 2.36 1.007 3.328-1.82-.672-3.39-1.848-4.59-3.328Zm0 0" style="stroke:none;fill-rule:nonzero;fill:rgb(20.392157%,59.607846%,85.882354%);fill-opacity:1"/></svg>