<svg role="img" viewBox="0 0 24 24" xmlns="http://www.w3.org/2000/svg"><path d="M10.645 3.5v2.303h2.476V3.5zM4.787 6.258v2.28h2.479v-2.28zm2.93 0v2.28h2.476v-2.28zm2.928 0v2.28h2.476v-2.28zm8.05.705-.35.531c-.69 1.055-.877 2.792-.138 3.938-.326.178-.966.42-1.814.406H.093c-.325 1.927.217 4.431 1.65 6.15 1.39 1.666 3.474 2.512 6.2 2.512 5.902 0 10.27-2.75 12.315-7.746.802.015 2.535.002 3.424-1.717.056-.095.247-.5.318-.648l-.498-.338v.002c-.54-.368-1.784-.503-2.74-.32-.124-.912-.626-1.704-1.541-2.417zM1.861 8.994v2.252H4.34V8.994h-.002zm2.926 0v2.252h2.479V8.994zm2.93 0v2.252h2.476V8.994zm5.86 0v2.252h2.478V8.994zm-2.932.004v2.254h2.476V8.998z"/></svg>