<?xml version="1.0" encoding="utf-8"?>
<svg viewBox="0 0 48 48" width="48" height="48" xmlns="http://www.w3.org/2000/svg">
  <path d="M 21.286 0 L 21.286 5.111 L 26.239 5.111 L 26.239 0 L 21.286 0 Z M 9.573 6.121 L 9.573 11.181 L 14.526 11.181 L 14.526 6.121 L 9.573 6.121 Z M 15.43 6.121 L 15.43 11.181 L 20.383 11.181 L 20.383 6.121 L 15.43 6.121 Z M 21.286 6.121 L 21.286 11.181 L 26.239 11.181 L 26.239 6.121 L 21.286 6.121 Z M 37.391 7.687 L 36.691 8.864 C 35.309 11.207 34.935 15.061 36.413 17.602 C 35.761 17.998 34.48 18.54 32.784 18.505 L 0.184 18.505 C -0.471 22.785 0.617 28.342 3.481 32.16 C 6.261 35.853 10.433 37.733 15.884 37.733 C 27.689 37.733 36.427 31.632 40.513 20.538 C 42.118 20.574 45.586 20.543 47.364 16.729 C 47.474 16.517 47.86 15.62 48 15.289 L 47.005 14.539 L 47.005 14.545 C 45.926 13.726 43.436 13.427 41.521 13.83 C 41.275 11.807 40.271 10.051 38.44 8.469 L 37.391 7.687 Z M 3.719 12.194 L 3.719 17.195 L 8.677 17.195 L 8.677 12.194 L 8.672 12.194 L 3.719 12.194 Z M 9.573 12.194 L 9.573 17.195 L 14.526 17.195 L 14.526 12.194 L 9.573 12.194 Z M 15.43 12.194 L 15.43 17.195 L 20.383 17.195 L 20.383 12.194 L 15.43 12.194 Z M 27.149 12.194 L 27.149 17.195 L 32.109 17.195 L 32.109 12.194 L 27.149 12.194 Z M 21.286 12.202 L 21.286 17.207 L 26.239 17.207 L 26.239 12.202 L 21.286 12.202 Z"/>
  <ellipse style="paint-order: stroke; fill: rgb(255, 255, 255);" cx="32.77" cy="36.9" rx="10.003" ry="11.1"/>
  <path d="M 32.797 47.427 C 37.909 47.427 42.066 42.813 42.066 37.142 C 42.066 31.471 37.909 26.856 32.797 26.856 C 27.687 26.856 23.528 31.471 23.528 37.142 C 23.528 42.813 27.687 47.427 32.797 47.427 Z M 28.578 39.121 C 28.639 38.96 28.779 38.856 28.935 38.856 L 30.094 38.856 C 30.197 38.856 30.295 38.902 30.368 38.983 L 32.025 40.821 L 32.025 30.713 C 32.025 30.477 32.198 30.285 32.412 30.285 L 33.184 30.285 C 33.397 30.285 33.57 30.477 33.57 30.713 L 33.57 40.821 L 35.228 38.983 C 35.3 38.902 35.399 38.856 35.501 38.856 L 36.659 38.856 C 36.816 38.856 36.957 38.96 37.016 39.121 C 37.076 39.281 37.042 39.465 36.934 39.587 L 33.072 43.873 C 32.92 44.041 32.675 44.041 32.525 43.873 L 28.663 39.587 C 28.552 39.465 28.519 39.281 28.578 39.121 Z"/>
</svg>