<?xml version="1.0" encoding="UTF-8"?>
<svg xmlns="http://www.w3.org/2000/svg" xmlns:xlink="http://www.w3.org/1999/xlink" width="32" height="32" viewBox="0 0 32 32" version="1.1">
<g id="surface1">
<path style=" stroke:none;fill-rule:nonzero;fill:rgb(20.392157%,59.607846%,85.882354%);fill-opacity:1;" d="M 17.5 3.5 C 17.773438 3.5 18 3.726562 18 4 L 18 11.5 L 21.5 11.5 C 21.773438 11.5 22 11.726562 22 12 L 22 15.5 L 22.046875 15.5 C 22.074219 15.5 23.09375 15.515625 23.882812 14.914062 C 23.390625 14.039062 22.570312 11.800781 24.617188 8.722656 C 24.6875 8.609375 24.804688 8.535156 24.933594 8.507812 C 25.0625 8.484375 25.199219 8.507812 25.3125 8.585938 C 25.429688 8.664062 27.832031 10.304688 27.726562 12.59375 C 28.769531 12.273438 30.285156 12.296875 31.824219 13.621094 C 31.984375 13.757812 32.039062 13.972656 31.96875 14.167969 C 31.960938 14.195312 30.976562 16.8125 27.84375 17.042969 C 27.734375 17.015625 27.617188 17 27.5 17 L 25.789062 17 C 25.960938 16.601562 26.046875 16.359375 26.050781 16.34375 C 26.125 16.117188 26.351562 15.96875 26.59375 16.003906 C 29.324219 16.367188 30.5 14.835938 30.878906 14.144531 C 28.9375 12.710938 27.398438 13.84375 27.328125 13.898438 C 27.148438 14.03125 26.898438 14.03125 26.71875 13.898438 C 26.542969 13.757812 26.476562 13.523438 26.558594 13.3125 C 27.1875 11.738281 25.871094 10.34375 25.164062 9.734375 C 23.402344 12.78125 24.90625 14.660156 24.921875 14.679688 C 25.082031 14.875 25.074219 15.15625 24.902344 15.335938 C 23.789062 16.539062 22.109375 16.5 22.03125 16.5 L 21.507812 16.5 C 21.507812 16.5 21.503906 16.5 21.5 16.5 L 1.085938 16.5 C 0.949219 17.523438 0.773438 20.355469 2.503906 22.714844 C 4.070312 24.851562 6.804688 26.105469 10.628906 26.4375 C 11.136719 26.476562 11.628906 26.5 12.105469 26.5 C 15.890625 26.5 18.75 25.1875 20.871094 23.507812 L 19.4375 24.941406 C 19.179688 25.199219 19.027344 25.539062 19.003906 25.898438 C 17.117188 26.863281 14.839844 27.5 12.117188 27.5 C 11.609375 27.5 11.085938 27.476562 10.542969 27.429688 C 6.414062 27.078125 3.4375 25.683594 1.6875 23.296875 C -0.71875 20 0.132812 16.054688 0.171875 15.890625 C 0.226562 15.664062 0.429688 15.5 0.660156 15.5 L 1 15.5 L 1 12 C 1 11.726562 1.226562 11.5 1.5 11.5 L 5 11.5 L 5 8 C 5 7.726562 5.226562 7.5 5.5 7.5 L 13 7.5 L 13 4 C 13 3.726562 13.226562 3.5 13.5 3.5 Z M 14 7.5 L 17 7.5 L 17 4.5 L 14 4.5 Z M 6 11.5 L 9 11.5 L 9 10 C 9 9.726562 9.226562 9.5 9.5 9.5 C 9.773438 9.5 10 9.726562 10 10 L 10 11.5 L 13 11.5 L 13 8.5 L 6 8.5 Z M 14 11.5 L 15.5 11.5 C 15.773438 11.5 16 11.726562 16 12 C 16 12.273438 15.773438 12.5 15.5 12.5 L 14 12.5 L 14 15.5 L 17 15.5 L 17 8.5 L 14 8.5 Z M 2 15.5 L 5 15.5 L 5 12.5 L 2 12.5 Z M 6 15.5 L 9 15.5 L 9 12.5 L 6 12.5 Z M 10 15.5 L 13 15.5 L 13 12.5 L 10 12.5 Z M 18 15.5 L 21 15.5 L 21 12.5 L 18 12.5 Z M 7.5 20.25 C 7.5 20.9375 6.9375 21.5 6.25 21.5 C 5.5625 21.5 5 20.9375 5 20.25 C 5 19.5625 5.5625 19 6.25 19 C 6.9375 19 7.5 19.5625 7.5 20.25 Z M 21.507812 19.375 L 22.273438 20.015625 C 22.480469 20.195312 22.507812 20.511719 22.328125 20.726562 C 22.226562 20.839844 22.085938 20.898438 21.945312 20.898438 C 21.832031 20.898438 21.71875 20.859375 21.625 20.78125 L 20.859375 20.132812 C 20.648438 19.957031 20.625 19.640625 20.804688 19.429688 C 20.890625 19.324219 21.015625 19.265625 21.140625 19.257812 C 21.273438 19.242188 21.402344 19.28125 21.507812 19.375 Z M 19.84375 21.136719 L 20.46875 21.914062 C 20.644531 22.125 20.609375 22.445312 20.398438 22.617188 C 20.304688 22.691406 20.195312 22.726562 20.085938 22.726562 C 19.9375 22.726562 19.792969 22.664062 19.695312 22.542969 L 19.066406 21.765625 C 18.890625 21.550781 18.921875 21.234375 19.140625 21.0625 C 19.246094 20.976562 19.375 20.941406 19.507812 20.953125 C 19.632812 20.96875 19.753906 21.03125 19.84375 21.136719 Z M 17.878906 22.542969 L 18.332031 23.433594 C 18.457031 23.679688 18.359375 23.980469 18.113281 24.109375 C 18.039062 24.140625 17.960938 24.160156 17.886719 24.160156 C 17.703125 24.160156 17.53125 24.0625 17.441406 23.886719 L 16.984375 22.996094 C 16.863281 22.75 16.960938 22.449219 17.203125 22.320312 C 17.265625 22.289062 17.332031 22.273438 17.398438 22.269531 C 17.59375 22.257812 17.785156 22.359375 17.878906 22.542969 Z M 15.664062 23.492188 L 15.914062 24.460938 C 15.984375 24.726562 15.820312 25 15.554688 25.070312 C 15.515625 25.082031 15.46875 25.085938 15.429688 25.085938 C 15.207031 25.085938 15.003906 24.9375 14.945312 24.710938 L 14.695312 23.742188 C 14.625 23.476562 14.789062 23.203125 15.054688 23.132812 C 15.121094 23.117188 15.1875 23.113281 15.253906 23.125 C 15.445312 23.152344 15.613281 23.289062 15.664062 23.492188 Z M 13.289062 23.949219 L 13.34375 24.945312 C 13.355469 25.226562 13.140625 25.460938 12.867188 25.472656 C 12.859375 25.472656 12.851562 25.476562 12.84375 25.476562 C 12.578125 25.476562 12.355469 25.265625 12.34375 25 L 12.292969 24 C 12.277344 23.726562 12.492188 23.492188 12.765625 23.476562 C 13.039062 23.460938 13.273438 23.671875 13.289062 23.949219 Z M 23 22.585938 C 22.839844 22.53125 22.671875 22.503906 22.5 22.503906 C 22.28125 22.503906 22.066406 22.550781 21.875 22.640625 C 22.28125 22.25 22.65625 21.851562 23 21.453125 Z M 23 22.585938 "/>
<path style=" stroke:none;fill-rule:nonzero;fill:rgb(20.392157%,59.607846%,85.882354%);fill-opacity:1;" d="M 26 32 C 25.871094 32 25.742188 31.953125 25.644531 31.851562 L 20.148438 26.355469 C 19.953125 26.160156 19.953125 25.84375 20.148438 25.648438 L 22.144531 23.648438 C 22.339844 23.453125 22.65625 23.453125 22.851562 23.648438 L 24 24.796875 L 24 18.503906 C 24 18.226562 24.222656 18.003906 24.5 18.003906 L 27.5 18.003906 C 27.773438 18.003906 28 18.226562 28 18.503906 L 28 24.796875 L 29.148438 23.648438 C 29.34375 23.453125 29.65625 23.453125 29.851562 23.648438 L 31.851562 25.648438 C 31.945312 25.742188 32 25.875 32 26.003906 C 32 26.140625 31.945312 26.265625 31.851562 26.359375 L 26.351562 31.851562 C 26.253906 31.953125 26.125 32 26 32 Z M 21.207031 26 L 26 30.792969 L 30.792969 26.003906 L 29.5 24.710938 L 27.851562 26.359375 C 27.710938 26.5 27.492188 26.546875 27.304688 26.46875 C 27.121094 26.390625 27 26.207031 27 26.003906 L 27 19.003906 L 25 19.003906 L 25 26.003906 C 25 26.207031 24.875 26.390625 24.6875 26.46875 C 24.5 26.546875 24.289062 26.5 24.144531 26.359375 L 22.5 24.710938 Z M 21.207031 26 "/>
</g>
</svg>
