<?xml version="1.0" encoding="utf-8"?>
<svg xmlns="http://www.w3.org/2000/svg" viewBox="0 0 24 24" fill="#000000"><path d="M15.854,12.481c-0.735-0.46-1.758-0.881-3.068-1.264c-1.31-0.382-2.251-0.807-2.822-1.276 C9.392,9.474,9.106,8.845,9.106,8.056c0-0.85,0.271-1.514,0.813-1.989c0.541-0.476,1.323-0.713,2.345-0.713 c0.979,0,1.758,0.321,2.333,0.964c0.576,0.643,0.864,1.51,0.864,2.601L15.46,9h2.372l0.001-0.08c0-1.582-0.401-2.829-1.205-3.74 c-0.804-0.91-1.927-1.455-3.371-1.632L13.25,3.547V1h-2v2.551C9.858,3.716,8.756,4.19,7.953,4.983 C7.132,5.794,6.721,6.832,6.721,8.098c0,1.243,0.419,2.268,1.257,3.075c0.838,0.806,2.172,1.461,4.002,1.963 c1.315,0.394,2.249,0.834,2.804,1.32c0.553,0.487,0.831,1.085,0.831,1.795c0,0.842-0.323,1.506-0.967,1.992 c-0.645,0.486-1.53,0.729-2.656,0.729c-1.151,0-2.041-0.289-2.668-0.868s-0.94-1.405-0.94-2.478H6c0,1.528,0.453,2.738,1.359,3.63 c0.883,0.869,2.101,1.37,3.641,1.517V23h2v-2.21l0.025-0.001c1.572-0.147,2.795-0.617,3.667-1.413 C17.563,18.581,18,17.531,18,16.227c0-0.818-0.175-1.532-0.522-2.143C17.13,13.475,16.588,12.94,15.854,12.481z" fill="#000000"/></svg>
