<?xml version="1.0" encoding="UTF-8"?>
<svg xmlns="http://www.w3.org/2000/svg" xmlns:xlink="http://www.w3.org/1999/xlink" width="32" height="32" viewBox="0 0 32 32" version="1.1">
<g id="surface1">
<path style=" stroke:none;fill-rule:nonzero;fill:rgb(0%,0%,0%);fill-opacity:1;" d="M 21.136719 16.640625 C 20.160156 16.027344 18.792969 15.464844 17.046875 14.957031 C 15.300781 14.445312 14.046875 13.878906 13.285156 13.253906 C 12.523438 12.632812 12.140625 11.792969 12.140625 10.742188 C 12.140625 9.609375 12.503906 8.722656 13.226562 8.089844 C 13.945312 7.453125 14.988281 7.136719 16.351562 7.136719 C 17.65625 7.136719 18.695312 7.566406 19.460938 8.425781 C 20.230469 9.28125 20.613281 10.4375 20.613281 11.890625 L 20.613281 12 L 23.777344 12 L 23.777344 11.894531 C 23.777344 9.785156 23.242188 8.121094 22.171875 6.90625 C 21.097656 5.691406 19.601562 4.964844 17.675781 4.730469 L 17.667969 4.730469 L 17.667969 1.332031 L 15 1.332031 L 15 4.734375 C 13.144531 4.953125 11.675781 5.585938 10.605469 6.644531 C 9.507812 7.726562 8.960938 9.109375 8.960938 10.796875 C 8.960938 12.453125 9.519531 13.820312 10.636719 14.898438 C 11.753906 15.972656 13.535156 16.84375 15.972656 17.515625 C 17.726562 18.039062 18.972656 18.625 19.710938 19.273438 C 20.449219 19.925781 20.820312 20.722656 20.820312 21.667969 C 20.820312 22.789062 20.390625 23.675781 19.53125 24.324219 C 18.671875 24.972656 17.492188 25.296875 15.988281 25.296875 C 14.453125 25.296875 13.269531 24.910156 12.433594 24.136719 C 11.597656 23.367188 11.179688 22.265625 11.179688 20.835938 L 8 20.835938 C 8 22.871094 8.605469 24.484375 9.8125 25.675781 C 10.988281 26.832031 12.613281 27.5 14.667969 27.699219 L 14.667969 30.667969 L 17.332031 30.667969 L 17.332031 27.71875 L 17.367188 27.71875 C 19.460938 27.523438 21.09375 26.894531 22.257812 25.835938 C 23.417969 24.773438 24 23.375 24 21.636719 C 24 20.546875 23.765625 19.59375 23.304688 18.777344 C 22.839844 17.964844 22.117188 17.253906 21.136719 16.640625 M 21.136719 16.640625 "/>
</g>
</svg>
