<svg role="img" viewBox="0 0 32 32" xmlns="http://www.w3.org/2000/svg"><path d="M21.137 16.64c-.977-.613-2.344-1.175-4.09-1.683-1.746-.512-3-1.078-3.762-1.703-.762-.621-1.144-1.461-1.144-2.512 0-1.133.363-2.02 1.086-2.652.718-.637 1.761-.953 3.125-.953 1.304 0 2.343.43 3.109 1.289.77.855 1.152 2.011 1.152 3.465V12h3.164v-.105c0-2.11-.535-3.774-1.605-4.989-1.074-1.215-2.57-1.941-4.496-2.176h-.008V1.332H15v3.402c-1.855.22-3.324.852-4.395 1.91-1.097 1.083-1.644 2.465-1.644 4.153 0 1.656.559 3.023 1.676 4.101 1.117 1.075 2.898 1.946 5.336 2.618 1.754.523 3 1.109 3.738 1.757.738.653 1.11 1.45 1.11 2.395 0 1.121-.43 2.008-1.29 2.656-.86.649-2.039.973-3.543.973-1.535 0-2.718-.387-3.554-1.16-.836-.77-1.254-1.871-1.254-3.301H8c0 2.035.605 3.648 1.813 4.84 1.175 1.156 2.8 1.824 4.855 2.023v2.969h2.664v-2.95h.035c2.094-.195 3.727-.823 4.89-1.882 1.161-1.063 1.743-2.461 1.743-4.2 0-1.09-.234-2.042-.695-2.859-.465-.812-1.188-1.523-2.168-2.136m0 0" style="stroke:none;fill-rule:nonzero;fill:rgb(0%,0%,0%);fill-opacity:1"/></svg>