<svg xmlns:xlink="http://www.w3.org/1999/xlink" role="img" viewBox="0 0 32 32" xmlns="http://www.w3.org/2000/svg"><defs><clipPath id="c"><use xlink:href="#a"/></clipPath><filter filterUnits="objectBoundingBox" height="100%" id="b" width="100%" x="0%" y="0%"><feColorMatrix in="SourceGraphic" values="0 0 0 0 1 0 0 0 0 1 0 0 0 0 1 0 0 0 1 0"/></filter><path d="M0 0h32v32H0z" id="a"/><mask id="e"><g filter="url(#b)"><use xlink:href="#a" style="fill:rgb(0%,0%,0%);fill-opacity:0.1;stroke:none"/></g></mask><g clip-path="url(#c)" id="d"><path d="M4.91 4.5A16 16 0 1 0 27.5 27.09Zm0 0" style="stroke:none;fill-rule:nonzero;fill:rgb(100%,100%,100%);fill-opacity:1"/></g></defs><path d="M32 16c0 8.836-7.164 16-16 16S0 24.836 0 16 7.164 0 16 0s16 7.164 16 16m0 0" style="stroke:none;fill-rule:nonzero;fill:rgb(36.078432%,17.647059%,56.862748%);fill-opacity:1"/><use xlink:href="#d" mask="url(#e)"/><path d="M3.7 18.625a.673.673 0 0 1-.5-.21.687.687 0 0 1-.204-.5.687.687 0 0 1 .203-.5.692.692 0 0 1 1 0 .691.691 0 0 1 .211.5.688.688 0 0 1-.21.5.688.688 0 0 1-.5.21m9.937-.125h-1.313l-4.683-7.27a2.899 2.899 0 0 1-.29-.57H7.31c.046.414.062.832.05 1.25v6.59H6.297V9.387H7.68l4.558 7.136c.192.297.317.5.371.614h.028a9.057 9.057 0 0 1-.067-1.34v-6.41h1.067Zm7.207 0H16V9.387h4.621v.965H17.09v3.027h3.289v.96h-3.29V17.5h3.763ZM28 10.352h-2.648V18.5h-1.067v-8.148h-2.62v-.965H28Zm0 0" style="stroke:none;fill-rule:nonzero;fill:rgb(100%,100%,100%);fill-opacity:1"/><path d="M13.059 24.7a2.48 2.48 0 0 1-1.16.245 1.882 1.882 0 0 1-1.434-.574 2.124 2.124 0 0 1-.54-1.5 2.235 2.235 0 0 1 .606-1.633c.403-.41.961-.636 1.54-.617.34-.012.683.047 1 .176v.5a1.952 1.952 0 0 0-1-.25 1.516 1.516 0 0 0-1.176.5 1.807 1.807 0 0 0-.45 1.289c-.023.445.125.887.418 1.223.285.308.692.472 1.106.457.386.007.765-.086 1.097-.282Zm2.046.245a1.394 1.394 0 0 1-1.066-.445 1.558 1.558 0 0 1-.394-1.113c-.024-.434.125-.86.414-1.184a1.503 1.503 0 0 1 1.117-.422c.39-.023.773.13 1.043.414.265.32.402.73.375 1.145a1.6 1.6 0 0 1-.403 1.148 1.418 1.418 0 0 1-1.086.457m.036-2.734a.916.916 0 0 0-.73.312c-.192.25-.29.559-.27.872-.02.304.078.605.27.84.183.206.452.32.73.312a.892.892 0 0 0 .714-.3c.18-.25.27-.556.25-.86a1.34 1.34 0 0 0-.25-.867.865.865 0 0 0-.714-.31m3.789.15a.598.598 0 0 0-.364-.094.613.613 0 0 0-.5.289 1.34 1.34 0 0 0-.207.789v1.531h-.5v-3h.5v.625a1.03 1.03 0 0 1 .317-.5.712.712 0 0 1 .469-.176.868.868 0 0 1 .285.04Zm2.93 1.14h-2.114a1.1 1.1 0 0 0 .254.77.926.926 0 0 0 .71.27c.34-.005.665-.122.93-.337v.453a1.762 1.762 0 0 1-1.046.285 1.28 1.28 0 0 1-1-.41 1.678 1.678 0 0 1-.364-1.152 1.63 1.63 0 0 1 .395-1.14c.25-.29.617-.45 1-.438.344-.02.68.12.91.379.23.304.344.68.32 1.058Zm-.5-.406a.988.988 0 0 0-.2-.645.687.687 0 0 0-.55-.23.777.777 0 0 0-.575.246 1.12 1.12 0 0 0-.297.637Zm0 0" style="stroke:none;fill-rule:nonzero;fill:rgb(94.901961%,94.901961%,94.901961%);fill-opacity:1"/></svg>