<svg xmlns="http://www.w3.org/2000/svg" width="32" height="13" stroke="#000" stroke-linecap="round" stroke-linejoin="round" fill="#fff" fill-rule="evenodd"><style><![CDATA[.B{fill-rule:nonzero}.C{stroke:none}]]></style><defs><linearGradient id="A" x1="50%" y1="0%" x2="50%" y2="100%"><stop offset="0%" stop-color="#0994dc"/><stop offset="35%" stop-color="#66cef5"/><stop offset="85%" stop-color="#127bca"/></linearGradient><linearGradient id="B" x1="50%" y1="0%" x2="50%" y2="100%"><stop offset="0%" stop-color="#0e76bc"/><stop offset="36%" stop-color="#36aee8"/><stop offset="84%" stop-color="#00adef"/></linearGradient><linearGradient id="C" x1="50%" y1="100%" x2="50%" y2="0%"><stop offset="0%" stop-color="#1c63b7"/><stop offset="50%" stop-color="#33bdf2"/><stop offset="100%" stop-color="#33bdf2" stop-opacity=".5"/></linearGradient><linearGradient id="D" x1="50%" y1="0%" x2="50%" y2="100%"><stop offset="0%" stop-color="#166ab8"/><stop offset="38%" stop-color="#36aee8"/><stop offset="84%" stop-color="#0798dd"/></linearGradient><linearGradient id="E" x1="50%" y1="0%" x2="50%" y2="100%"><stop offset="0%" stop-color="#124379"/><stop offset="38%" stop-color="#1487cb"/><stop offset="84%" stop-color="#165197"/></linearGradient><linearGradient id="F" x1="50%" y1="100%" x2="50%" y2="0%"><stop offset="0%" stop-color="#33bdf2" stop-opacity=".5"/><stop offset="100%" stop-color="#1dacd8"/></linearGradient><linearGradient id="G" x1="50%" y1="100%" x2="50%" y2="0%"><stop offset="0%" stop-color="#136ab4"/><stop offset="61%" stop-color="#59caf5" stop-opacity=".5"/><stop offset="100%" stop-color="#59caf5" stop-opacity=".2"/></linearGradient><linearGradient id="H" x1="50%" y1="0%" x2="50%" y2="100%"><stop offset="0%" stop-color="#05a1e6"/><stop offset="100%" stop-color="#05a1e6" stop-opacity=".25"/></linearGradient><linearGradient id="I" x1="50%" y1="100%" x2="50%" y2="0%"><stop offset="0%" stop-color="#318ed5"/><stop offset="100%" stop-color="#38a7e4"/></linearGradient><linearGradient id="J" x1="50%" y1="100%" x2="50%" y2="0%"><stop offset="0%" stop-color="#05a1e6"/><stop offset="100%" stop-color="#05a1e6" stop-opacity=".25"/></linearGradient><linearGradient id="K" x1="50%" y1="100%" x2="50%" y2="0%"><stop offset="0%" stop-color="#1959a6"/><stop offset="50%" stop-color="#05a1e6"/><stop offset="100%" stop-color="#7ec5ea"/></linearGradient><linearGradient id="L" x1="50%" y1="100%" x2="50%" y2="0%"><stop offset="0%" stop-color="#165096"/><stop offset="100%" stop-color="#0d82ca"/></linearGradient><linearGradient id="M" x1="50%" y1="0%" x2="50%" y2="100%"><stop offset="0%" stop-color="#05a1e6"/><stop offset="85%" stop-color="#0495d6"/></linearGradient><linearGradient id="N" x1="50%" y1="100%" x2="50%" y2="0%"><stop offset="0%" stop-color="#38a7e4"/><stop offset="100%" stop-color="#0e88d3" stop-opacity=".3"/></linearGradient><linearGradient id="O" x1="50%" y1="0%" x2="50%" y2="100%"><stop offset="0%" stop-color="#168cd4"/><stop offset="70%" stop-color="#1c87cc"/><stop offset="100%" stop-color="#154b8d"/></linearGradient><linearGradient id="P" x1="0%" y1="50%" x2="100%" y2="50%"><stop offset="0%" stop-color="#97d6ee"/><stop offset="100%" stop-color="#55c1ea"/></linearGradient><linearGradient id="Q" x1="0%" y1="50%" x2="100%" y2="50%"><stop offset="0%" stop-color="#7accec"/><stop offset="100%" stop-color="#3fb7ed"/></linearGradient><linearGradient id="R" x1="50%" y1="0%" x2="50%" y2="100%"><stop offset="0%" stop-color="#1da7e7"/><stop offset="100%" stop-color="#37abe7" stop-opacity="0"/></linearGradient></defs><path d="M26.5737 11.54h-.2851v.8861h-.1163V11.54h-.2861v-.1055h.6875v.1055zm1.1674.8859h-.1158V11.76l.0095-.1924h0c-.0119.0452-.0218.0767-.0309.0967l-.3376.7616h-.0566l-.3386-.7559c-.0099-.021-.0198-.0551-.0305-.1024h-.004c.004.0399.0054.1044.0054.194v.6643h-.1112v-.9916h.1534l.3041.6921c.023.052.0374.0922.0448.1189h.0045l.0478-.122.3103-.689h.1462v.9916z" fill="#000" class="B C"/><path d="M11.1142 2.6034c1.1533 3.5267 1.5902 9.818 4.9625 9.818h0c.2568 0 .5162-.0251.7766-.0747h0c-3.0656-.7148-3.429-6.9376-5.2996-10.1602h0a15.574 15.574 0 0 0-.4395.4169" fill="url(#A)" class="B C"/><path d="M11.5537 2.1864c1.8706 3.2226 2.234 9.4455 5.2996 10.1603h0c.2408-.0443.4822-.1112.724-.1956h0c-2.7516-1.3483-3.5123-7.391-5.6366-10.3002h0c-.1287.1071-.2578.2193-.387.3355" fill="url(#B)" class="B C"/><path d="M14.2489.27c-.2563 0-.5162.0251-.7771.0747-.6824.1286-1.3755.4224-2.0744.8671.1909.1883.3726.4039.5434.6391.7107-.5897 1.4168-1.0256 2.1203-1.2876.264-.0977.527-.1713.7909-.2197C14.6616.2952 14.4609.27 14.2489.27" fill="#14559a" class="B C"/><path d="M19.7254 10.9083l.846-.7415C19.3996 6.6565 18.9802.2752 15.5842.2752c-.2429 0-.4878.0226-.7323.0679 3.0934.7694 3.4897 7.4997 4.8735 10.5652" fill="url(#C)" class="B C"/><path d="M14.8519.3434c-.1904-.0484-.3911-.0736-.6031-.0736l1.3354.0049a3.967 3.967 0 0 0-.7323.0685" fill="#3092c4" class="B C"/><path d="M19.666 11.6541c-.1327-.1266-.2588-.2656-.3828-.4138-.5713.4045-1.1404.7112-1.706.9109a2.629 2.629 0 0 0 .6361.2167c.1734.0354.353.0535.5419.0535.6345 0 1.1362-.0751 1.5634-.28-.2352-.1271-.4508-.2918-.6526-.4873" fill="#1969bc" class="B C"/><path d="M14.0609.5639c2.7707 1.4492 3.0116 8.0117 5.2224 10.6764h0a9.357 9.357 0 0 0 .4415-.332h0C18.341 7.8427 17.9453 1.1119 14.8524.3431h0c-.264.0494-.5275.1225-.7915.2208" fill="url(#D)" class="B C"/><path d="M11.9406 1.8509c2.1244 2.9092 2.885 8.952 5.6367 10.3003h0c.5655-.1997 1.1347-.5064 1.7059-.9109h0C17.0724 8.5756 16.8316 2.0131 14.0608.5639h0c-.7035.2614-1.4095.6973-2.1202 1.287" fill="url(#E)" class="B C"/><path d="M9.755 2.5185c-.333.7529-.6731 1.7425-1.0843 3.0342.8177-1.1523 1.6329-2.145 2.4434-2.9493-.1116-.3433-.2316-.6598-.3607-.9418-.3314.2537-.6654.5394-.9984.8569" fill="url(#F)" class="B C"/><path d="M11.0487 1.4445l-.2949.2172c.1292.282.2485.5985.3602.9417l.4395-.4168c-.157-.2697-.3237-.5188-.5048-.7421" fill="#2b74b1" class="B C"/><path d="M11.3974 1.2117l-.3489.2326c.1811.2233.3479.4724.5054.7426l.387-.336c-.1709-.2352-.3525-.4509-.5435-.6392" fill="#125a9e" class="B C"/><path d="M30.2962.0014c-1.567 6.0432-4.84 10.8972-7.584 12.1209h-.0052c-.0499.0227-.0993.0433-.1482.0633-.0067.0041-.0128.0046-.018.007-.0144.0059-.0278.0104-.0422.0161-.0067.0041-.0128.0054-.019.0079-.0232.0082-.0458.0152-.0685.0242-.0097.0041-.019.0067-.0283.0099a.339.339 0 0 1-.034.0112c-.0102.004-.021.007-.0329.0115s-.0201.0058-.0293.0099c-.0201.0058-.0386.0107-.0587.0177-.0082 0-.0159.0045-.0247.0066s-.0262.007-.0396.0107-.017.0054-.0268.0074-.0293.0079-.0432.0112l-.0525.0115c.124.0458.2532.0689.3927.0689C25.0357 12.4173 27.6592 7.7544 32 0h-1.7044z" fill="url(#G)" class="B C"/><path d="M8.1056.5152c.0017 0 .0037-.0041.0047-.0041s.0052 0 .0062-.004h.0033L8.162.491c.0037 0 .0056 0 .0082-.0041s.0073-.004.0109-.0046l.0453-.016h.0024l.0999-.035c.0046 0 .0092-.0041.0149-.0041l.0427-.0127c.0067-.0041.0134-.0041.0195-.0063l.0433-.0127c.0062 0 .0118-.0041.0164-.0045l.1431-.0371c.0067 0 .0123-.004.0195-.0044.0139-.0041.0268-.0063.0417-.0083.0062-.0041.0134-.0041.0206-.0062.0139-.0041.0273-.0045.0422-.0079h.0098l.087-.016h.0175C8.8607.307 8.8731.3066 8.887.304c.0077 0 .0154-.004.0227-.004.0128 0 .0257-.0041.0385-.0058.0068 0 .0134 0 .0211-.0041L9.063.2818 8.7861.2674C5.8559.2674 1.8187 5.7044 0 12.7455h.3505c.582-1.038 1.1049-2.0199 1.5829-2.9416C3.2071 4.8167 5.8013 1.4155 8.1058.5144" fill="url(#H)" class="B C"/><g fill="#0d82ca" class="B C"><path d="M9.755 2.5184c.333-.3175.6669-.6031.9984-.8568l-.2378-.4596c-.2681.3252-.513.7544-.7606 1.3164"/><path d="M9.9958.5564c.1914.1606.3627.3814.5197.6459l.1513-.1693c-.2176-.2033-.4528-.37-.7081-.4956.0103.0057.0206.0103.0313.0148 0 0 .0041.0041.0058.0041"/></g><path d="M1.9333 9.8045C4.6052 4.6557 5.8712 1.3971 8.1057.515h0c-2.304.9017-4.8987 4.3028-6.1724 9.2895" fill="url(#I)" class="B C"/><path d="M10.6666 1.0329l-.1513.1693c.0839.1405.1621.2934.2383.4596l.2949-.2172a4.023 4.023 0 0 0-.3819-.4117" fill="#127bca" class="B C"/><path d="M3.1463 12.7229h0c-.0165.0041-.0329.0041-.0484.0058h-.0092c-.014 0-.0284.0041-.0412.0041h-.0067c-.0334.0041-.0664.0041-.0983.0066h-.0103c2.7043-.0757 3.9405-1.4297 4.5539-3.3935l1.1847-3.7953c-1.1327 1.5943-2.2706 3.4948-3.4146 5.6238-.5516 1.0262-1.3905 1.4548-2.1099 1.5465" fill="url(#J)" class="B C"/><path d="M3.1463 12.7219h0c.7194-.0917 1.5583-.5198 2.1099-1.5465h0c1.144-2.1285 2.2824-4.0295 3.414-5.6238h0l1.0849-3.0342h0c-2.2556 2.147-4.5199 5.717-6.6088 10.2035" fill="url(#K)" class="B C"/><path d="M1.9332 9.8046l-1.583 2.9416h1.0195c.1348-1.0308.3263-2.0137.5635-2.9411" fill="#05a1e6" class="B C"/><path d="M8.9692.2927c-.0082 0-.0144.004-.0216.004h0c-.0123.0041-.0252.0041-.0381.0054h0c-.0076 0-.0149 0-.0226.0041h0c-.0139.0041-.0268.0045-.0401.0071h0c-.0063 0-.0124 0-.0175.004h0l-.087.0153h0-.0098 0c-.0149.004-.0283.0062-.0422.0082h0c-.0072.0041-.0144.0041-.0211.0057h0c-.0139.0041-.0278.0058-.0412.0083h0c-.0072.0041-.0128.0041-.0195.0045h0l-.1431.037h0c-.0051 0-.0103.0041-.0165.0049h0L8.4057.414h0c-.0062.0041-.0134.0041-.0196.0057h0l-.0427.0128h0c-.0056 0-.0103.004-.0154.004h0l-.0993.035h0 0l-.0453.0157h0c-.0062.004-.0119.005-.019.0078h0c-.0145.0045-.0289.0103-.0422.0157h0c-.0051.0041-.0103.0045-.0139.0066h0c-2.2345.8821-3.5005 4.1407-6.1724 9.2895h0c-.2372.9274-.4292 1.9103-.5635 2.9411h0 .1431l.9803-.0041h0 .0237.069.0236.0067.0237.0134.0093.0185.0576.0577.0483.0129.0849 0c.0319-.0041.0648-.0041.0983-.0066h0 .0062 0c.0139 0 .0277-.0041.0411-.0041h0 .0098 0c.0149 0 .0319-.0041.0484-.0058h0 0C5.2377 8.2408 7.502 4.6708 9.7576 2.5238h0c.2481-.562.4925-.9912.7601-1.3159h0c-.1564-.2645-.3278-.4858-.5192-.6464h0s-.0052 0-.0056-.0041h0C9.982.553 9.9718.5476 9.961.5422h0c-.0109-.0058-.0201-.0103-.0314-.016h0a.335.335 0 0 1-.0309-.0149h0c-.0134-.0041-.0242-.0098-.036-.0152h0C9.8529.492 9.8442.4878 9.8344.4837h0A1.094 1.094 0 0 1 9.7752.459h0c-.0088-.004-.017-.0062-.0253-.0094h0C9.7361.4446 9.7201.438 9.7057.4319h0C9.6985.4278 9.6903.427 9.682.424h0L9.6208.403h0-.0051 0C9.592.3952 9.5688.3894 9.5447.3828h0c-.0056-.004-.0103-.004-.016-.0049h0L9.469.3611h0c-.0051 0-.0098-.0041-.0138-.0041h0C9.4068.3442 9.3569.3339 9.3064.3245h0c-.0052 0-.0103-.0041-.0154-.0041h0C9.2694.3163 9.2483.3125 9.2267.3101h0C9.2215.306 9.2184.306 9.2138.306h0C9.1881.3019 9.1629.299 9.1377.2961h0-.0134 0C9.1037.292 9.0847.2916 9.0656.2895h0c-.0324.0041-.0633.0058-.0937.0087" fill="url(#L)" class="B C"/><path d="M24.1752 3.3469l-1.2927 4.1232h0C24.2931 5.529 25.6826 3.087 27.0057.269h0c-1.5434.4847-2.3668 1.5943-2.8305 3.0779" fill="url(#M)" class="B C"/><path d="M22.9273 12.0194l-.2151.1029c2.744-1.2238 6.017-6.0777 7.584-12.1209h-.3175c-3.6003 6.4312-4.7582 10.7366-7.0514 12.018" fill="url(#N)" class="B C"/><path d="M21.1355 11.4791c.597-.7287 1.0833-1.9674 1.7472-4.0089-.7658 1.0519-1.5367 1.9561-2.3081 2.6935 0 .0041 0 .0041-.0041.0067.1683.5043.353.9494.5635 1.3086" fill="#079ae1" class="B C"/><path d="M21.1355 11.4791c-.2033.2481-.4183.4369-.6577.5769l-.1595.0854a2.311 2.311 0 0 0 .8373.264h0 0l.1369.012h.0082c.021 0 .0433 0 .0659.0041h.0091.0674.0726.0227.0514c.0083 0 .0169 0 .0251-.0041.0161 0 .0329 0 .0494-.0041h.0058.0186c.0168 0 .0354-.0041.0535-.0058h.004c.0054 0 .0112-.0041.0165-.0041.0189-.0041.0387-.0058.0572-.0087h.0168l.0644-.0107h.004.0062l.1282-.0271c-.3541-.1297-.6505-.4354-.9058-.8708" fill="#1969bc" class="B C"/><g fill="#1e5cb3" class="B C"><path d="M16.0767 12.4214c.2568 0 .5162-.0251.7766-.0751.2408-.0438.4822-.1107.724-.1951.2013.0983.4123.1714.6356.2167.1734.0354.3535.0535.5424.0535h-2.6786z"/><path d="M18.7554 12.4215c.634 0 1.1363-.0752 1.5629-.28a2.311 2.311 0 0 0 .8373.264h0 0l.1369.012h.0083c.021 0 .0432 0 .0658.004h.0095.0674-2.6899z"/></g><path d="M21.4451 12.4215h.0731.0226.051c.0087 0 .0169 0 .0251-.0041.0161 0 .0329 0 .0499-.0041h.0054.019c.0169 0 .0354-.0041.053-.0057h.0045c.0054 0 .0107-.0041.0161-.0041.0189-.0041.0387-.0057.0571-.0086.0062 0 .0111 0 .0177-.0041l.0643-.0103h.0041.0062l.1281-.0272h0c.124.0458.2532.069.3927.069l-.9891.004z" fill="#1d60b5" class="B C"/><path d="M20.5722 10.1705v-.0041l-.8461.7416-.442.3319.3829.4138c.2017.1955.4173.3602.6525.4873l.159-.0854c.2398-.14.4549-.3289.6582-.5769-.2105-.3592-.3952-.8044-.5635-1.3087" fill="#175fab" class="B C"/><path d="M28.9731.0014h-1.3349-.1328 0-.1256 0-.0049l-.2532.0124h0l-.1178.2522h0c-1.3231 2.818-2.7126 5.2599-4.1231 7.2011h0c-.6634 2.0415-1.1502 3.2802-1.7472 4.0089h0c.2553.4354.5522.7415.9052.8712h0c.0103-.004.0185-.004.0278-.0062h0 .0057 0c.0062 0 .0129-.0041.0196-.0041h0l.0442-.0111h0c.0093-.004.017-.0044.0263-.0074h0l.0396-.0103h0c.0083-.0041.0165-.0054.0247-.007h0l.0587-.0178h0c.0093-.004.019-.0074.0293-.0098h0l.033-.012h0l.0339-.0107h0c.0093-.004.0191-.0066.0278-.0103h0l.069-.0243h0c.0062 0 .0123-.0057.019-.007h0l.0422-.0165h0c.0051-.0041.0114-.0045.018-.0066h0l.1482-.0633h0 .0053 0l.2146-.1029h0c2.2936-1.2814 3.4515-5.5868 7.0518-12.018h0-1.0055z" fill="url(#O)" class="B C"/><path d="M9.063.284c.0057 0 .0108 0 .0165.0041.0138 0 .0278 0 .0416.0045h.014l.0761.0099c.0047 0 .0088 0 .0129.0041l.0643.0107c.0047 0 .0108.004.016.004l.1482.033c.0046 0 .0093.0041.0134.0041l.0596.0168c.0063 0 .0108.0041.0165.005l.0705.0202c.0011 0 .0025 0 .0052.0041l.0618.021c.0082.004.0159.0058.0237.0078l.0442.0181c.0083 0 .0165.0057.0252.0087l.0587.0247.0288.0123a.239.239 0 0 0 .0355.0153l.0313.0148.0315.016c.2552.1256.4904.2929.7081.4957a2.296 2.296 0 0 1 .2511-.228C10.4417.4733 9.9024.2808 9.2802.2808L9.063.2903" fill="#7dcbec" class="B C"/><path d="M10.6666 1.0329a4.011 4.011 0 0 1 .3818.4117l.349-.2326c-.1524-.1523-.3129-.2892-.4802-.4071-.0869.0674-.1703.1436-.2506.228" fill="#5ec5ed" class="B C"/><path d="M9.0628.2839L9.28.2751c.6222 0 1.1616.1925 1.6375.5296C11.4199.4084 12.0271.27 12.8706.27H8.786c.0942 0 .1863.0057.2768.0139" fill="url(#P)" class="B C"/><path d="M12.8705.27c-.8435 0-1.4507.1384-1.953.5347.1667.1178.3273.2547.4796.4071.6994-.4447 1.3921-.739 2.075-.8677.2604-.0489.5203-.0741.7766-.0741h-1.3782z" fill="url(#Q)" class="B C"/><path d="M22.8826 7.4711l1.2932-4.1241C24.64 1.8628 25.4619.7532 27.0052.269l.1189-.2522c-2.516.1508-3.6919 1.4307-4.2837 3.326l-2.2654 6.8209c.7709-.737 1.5418-1.6417 2.3076-2.6926" fill="url(#R)" class="B C"/></svg>