<?xml version="1.0" encoding="UTF-8"?>
<svg xmlns="http://www.w3.org/2000/svg" xmlns:xlink="http://www.w3.org/1999/xlink" width="8" height="32" viewBox="0 0 8 32" version="1.1">
<g id="surface1">
<path style="fill:none;stroke-width:2;stroke-linecap:round;stroke-linejoin:round;stroke:rgb(65.490198%,65.490198%,65.490198%);stroke-opacity:1;stroke-miterlimit:4;" d="M 2 2.166016 L 2 2.175781 M 2 8 L 2 8.007812 M 2 13.833984 L 2 13.841797 M 2 3 C 1.695312 3.009766 1.410156 2.853516 1.253906 2.591797 C 1.097656 2.330078 1.097656 2.003906 1.253906 1.740234 C 1.410156 1.478516 1.695312 1.322266 2 1.332031 C 2.449219 1.347656 2.804688 1.716797 2.804688 2.166016 C 2.804688 2.615234 2.449219 2.984375 2 3 M 2 8.833984 C 1.695312 8.84375 1.410156 8.6875 1.253906 8.425781 C 1.097656 8.164062 1.097656 7.837891 1.253906 7.574219 C 1.410156 7.3125 1.695312 7.15625 2 7.167969 C 2.449219 7.181641 2.804688 7.550781 2.804688 8 C 2.804688 8.449219 2.449219 8.818359 2 8.833984 M 2 14.666016 C 1.539062 14.666016 1.166016 14.294922 1.166016 13.833984 C 1.166016 13.373047 1.537109 13 1.998047 13 C 2.458984 13 2.832031 13.371094 2.832031 13.832031 C 2.832031 14.292969 2.460938 14.666016 2 14.666016 M 2 14.666016 " transform="matrix(2,0,0,2,0,0)"/>
</g>
</svg>
