<?xml version="1.0" encoding="UTF-8"?>
<svg xmlns="http://www.w3.org/2000/svg" xmlns:xlink="http://www.w3.org/1999/xlink" width="8" height="32" viewBox="0 0 8 32" version="1.1">
<g id="surface1">
<path style="fill:none;stroke-width:2;stroke-linecap:round;stroke-linejoin:round;stroke:rgb(65.490198%,65.490198%,65.490198%);stroke-opacity:1;stroke-miterlimit:4;" d="M 2 2.166016 L 2 2.175781 M 2 8 L 2 8.007812 M 2 13.833984 L 2 13.841797 M 2 3 C 1.539062 3 1.166016 2.626953 1.166016 2.166016 C 1.166016 1.707031 1.539062 1.333984 2 1.333984 C 2.460938 1.333984 2.833984 1.707031 2.833984 2.166016 C 2.833984 2.626953 2.460938 3 2 3 Z M 2 8.833984 C 1.539062 8.833984 1.166016 8.460938 1.166016 8 C 1.166016 7.539062 1.539062 7.166016 2 7.166016 C 2.460938 7.166016 2.833984 7.539062 2.833984 8 C 2.833984 8.460938 2.460938 8.833984 2 8.833984 Z M 2 14.666016 C 1.539062 14.666016 1.166016 14.292969 1.166016 13.833984 C 1.166016 13.373047 1.539062 13 2 13 C 2.460938 13 2.833984 13.373047 2.833984 13.833984 C 2.833984 14.292969 2.460938 14.666016 2 14.666016 Z M 2 14.666016 " transform="matrix(2,0,0,2,0,0)"/>
</g>
</svg>
