<svg width="4" height="16" viewBox="0 0 4 16" fill="none" xmlns="http://www.w3.org/2000/svg">
<path d="M1.99992 2.16667L1.99992 2.175M1.99992 8L1.99992 8.00833M1.99992 13.8333L1.99992 13.8417M1.99992 3C1.53968 3 1.16658 2.6269 1.16658 2.16667C1.16658 1.70643 1.53968 1.33333 1.99992 1.33333C2.46016 1.33333 2.83325 1.70643 2.83325 2.16667C2.83325 2.6269 2.46016 3 1.99992 3ZM1.99992 8.83333C1.53968 8.83333 1.16658 8.46024 1.16658 8C1.16658 7.53976 1.53968 7.16667 1.99992 7.16667C2.46016 7.16667 2.83325 7.53976 2.83325 8C2.83325 8.46024 2.46016 8.83333 1.99992 8.83333ZM1.99992 14.6667C1.53968 14.6667 1.16658 14.2936 1.16658 13.8333C1.16658 13.3731 1.53968 13 1.99992 13C2.46016 13 2.83325 13.3731 2.83325 13.8333C2.83325 14.2936 2.46015 14.6667 1.99992 14.6667Z" stroke="#A7A7A7" stroke-width="2" stroke-linecap="round" stroke-linejoin="round"/>
</svg>
