<svg role="img" viewBox="0 0 48 48" xmlns="http://www.w3.org/2000/svg"><path d="M253.772 20.334a25.743 26.192 0 1 0 0 52.384 25.743 26.192 0 1 0 0-52.384" style="fill:rgb(255,255,255)" transform="translate(-170.121 -11.527)scale(.76359)"/><path d="M23.853 42.473c10.105 0 18.326-8.221 18.326-18.327S33.96 5.82 23.853 5.82 5.527 14.041 5.527 24.146s8.22 18.327 18.326 18.327m-8.342-14.8a.767.767 0 0 1 .708-.474h2.29a.75.75 0 0 1 .539.228l3.276 3.276v-18.01c0-.422.345-.763.767-.763h1.524c.422 0 .767.341.767.763v18.01l3.276-3.276a.75.75 0 0 1 .539-.228h2.29a.764.764 0 0 1 .543 1.305l-7.635 7.635a.762.762 0 0 1-1.081 0l-7.638-7.635a.768.768 0 0 1-.165-.831"/></svg>