<?xml version="1.0" encoding="utf-8"?>
<svg xmlns="http://www.w3.org/2000/svg" viewBox="0 0 50 50" fill="#000000"><path d="M 29 4.53125 C 23.992188 4.53125 19.414063 7.4375 17.21875 11.875 C 16.082031 11.125 14.734375 10.71875 13.34375 10.71875 C 9.640625 10.71875 6.621094 13.609375 6.375 17.25 C 2.59375 18.628906 0 22.273438 0 26.34375 C 0 31.675781 4.324219 36 9.65625 36 L 24 36 L 24 26 C 24 25.449219 24.449219 25 25 25 C 25.550781 25 26 25.449219 26 26 L 26 36 L 41.09375 36 C 46.003906 36 50 32 50 27.09375 C 50 22.546875 46.574219 18.78125 42.125 18.25 C 42.136719 18.054688 42.15625 17.871094 42.15625 17.6875 C 42.15625 10.4375 36.25 4.53125 29 4.53125 Z M 26 36 L 24 36 L 24 43.59375 L 20.71875 40.28125 C 20.328125 39.890625 19.671875 39.890625 19.28125 40.28125 C 18.890625 40.671875 18.890625 41.328125 19.28125 41.71875 L 25 47.40625 L 30.71875 41.71875 C 31.109375 41.328125 31.109375 40.671875 30.71875 40.28125 C 30.328125 39.890625 29.671875 39.890625 29.28125 40.28125 L 26 43.59375 Z" fill="#000000"/></svg>
