<?xml version="1.0" encoding="utf-8"?>
<svg viewBox="0 0 48 48" width="48" height="48" xmlns="http://www.w3.org/2000/svg">
  <g transform="matrix(0.763592, 0, 0, 0.763592, -170.121155, -11.526882)">
    <g>
      <ellipse style="fill: rgb(255, 255, 255);" cx="253.772" cy="46.526" rx="25.743" ry="26.192"/>
      <path d="M 254.029 70.718 C 267.263 70.718 278.029 59.952 278.029 46.718 C 278.029 33.484 267.263 22.718 254.029 22.718 C 240.795 22.718 230.029 33.484 230.029 46.718 C 230.029 59.952 240.795 70.718 254.029 70.718 Z M 243.104 51.336 C 243.258 50.961 243.627 50.716 244.031 50.716 L 247.031 50.716 C 247.295 50.716 247.549 50.822 247.736 51.014 L 252.027 55.305 L 252.027 31.718 C 252.027 31.166 252.479 30.72 253.031 30.72 L 255.027 30.72 C 255.579 30.72 256.031 31.166 256.031 31.718 L 256.031 55.305 L 260.322 51.014 C 260.509 50.822 260.763 50.716 261.027 50.716 L 264.027 50.716 C 264.435 50.716 264.8 50.961 264.954 51.336 C 265.107 51.71 265.021 52.142 264.738 52.425 L 254.739 62.424 C 254.346 62.817 253.712 62.817 253.323 62.424 L 243.32 52.425 C 243.037 52.142 242.951 51.71 243.104 51.336 Z"/>
    </g>
  </g>
</svg>