<svg xmlns="http://www.w3.org/2000/svg"  viewBox="0 0 24 24" width="32px" height="32px"><path d="M12,24c6.6171875,0,12-5.3833008,12-12S18.6171875,0,12,0S0,5.3833008,0,12S5.3828125,24,12,24z M6.5380859,14.3085938C6.6152344,14.121582,6.7978516,14,7,14h1.5c0.1328125,0,0.2597656,0.0527344,0.3535156,0.1464844	L11,16.2929688V4.5C11,4.2236328,11.2236328,4,11.5,4h1C12.7763672,4,13,4.2236328,13,4.5v11.7929688l2.1464844-2.1464844	C15.2402344,14.0527344,15.3671875,14,15.5,14H17c0.2021484,0,0.3847656,0.121582,0.4619141,0.3085938	s0.0341797,0.4018555-0.1083984,0.5449219l-5,5c-0.1953125,0.1953125-0.5117188,0.1953125-0.7070313,0l-5-5	C6.5039063,14.7104492,6.4609375,14.4956055,6.5380859,14.3085938z"/></svg>