<?xml version="1.0" encoding="UTF-8"?>
<svg xmlns="http://www.w3.org/2000/svg" xmlns:xlink="http://www.w3.org/1999/xlink" width="32" height="32" viewBox="0 0 32 32" version="1.1">
<g id="surface1">
<path style=" stroke:none;fill-rule:nonzero;fill:rgb(0%,0%,0%);fill-opacity:1;" d="M 18.558594 2.898438 C 15.355469 2.898438 12.425781 4.761719 11.019531 7.601562 C 10.28125 7.117188 9.421875 6.859375 8.539062 6.859375 C 6.171875 6.859375 4.238281 8.710938 4.078125 11.039062 C 1.636719 11.9375 0.0117188 14.257812 0 16.859375 C 0 20.273438 2.765625 23.042969 6.179688 23.039062 L 15.359375 23.039062 L 15.359375 16.640625 C 15.359375 16.289062 15.648438 16 16 16 C 16.351562 16 16.640625 16.289062 16.640625 16.640625 L 16.640625 23.039062 L 26.300781 23.039062 C 29.445312 23.035156 31.996094 20.488281 32 17.339844 C 32 14.429688 29.808594 12.019531 26.960938 11.679688 C 26.96875 11.554688 26.980469 11.4375 26.980469 11.320312 C 26.980469 6.679688 23.199219 2.898438 18.558594 2.898438 M 16.640625 23.039062 L 15.359375 23.039062 L 15.359375 27.898438 L 13.261719 25.78125 C 13.003906 25.53125 12.59375 25.53125 12.339844 25.78125 C 12.089844 26.035156 12.089844 26.445312 12.339844 26.699219 L 16 30.339844 L 19.660156 26.699219 C 19.910156 26.445312 19.910156 26.035156 19.660156 25.78125 C 19.402344 25.53125 18.996094 25.53125 18.738281 25.78125 L 16.640625 27.898438 Z M 16.640625 23.039062 "/>
</g>
</svg>
