<svg role="img" viewBox="0 0 48 48" xmlns="http://www.w3.org/2000/svg"><path d="m24.017 46.276-.397-.184C23.421 46.004 4 36.714 4 9.022V8.29l.714-.156c6.729-1.478 10.703-3.569 13.604-5.096C20.573 1.855 22.199 1 24 1c1.8 0 3.426.855 5.682 2.038 2.901 1.527 6.874 3.618 13.604 5.096L44 8.29v.732c0 26.772-19.393 36.953-19.588 37.056z"/><path d="M253.772 20.334a25.743 26.192 0 1 0 0 52.384 25.743 26.192 0 1 0 0-52.384" style="fill:rgb(255,255,255)" transform="translate(-96.634 -.007)scale(.47724)"/><path d="M24.599 33.742c6.316 0 11.454-5.138 11.454-11.453s-5.138-11.454-11.454-11.454-11.454 5.138-11.454 11.454 5.138 11.453 11.454 11.453m-5.214-9.25a.48.48 0 0 1 .442-.295h1.432a.47.47 0 0 1 .337.142l2.047 2.048V15.13c0-.263.216-.476.48-.476h.952c.264 0 .48.213.48.476v11.257l2.047-2.048a.47.47 0 0 1 .337-.142h1.431a.477.477 0 0 1 .34.815l-4.772 4.772a.476.476 0 0 1-.676 0l-4.774-4.772a.48.48 0 0 1-.103-.52"/></svg>