<?xml version="1.0" encoding="UTF-8"?>
<svg xmlns="http://www.w3.org/2000/svg" xmlns:xlink="http://www.w3.org/1999/xlink" width="32" height="32" viewBox="0 0 32 32" version="1.1">
<g id="surface1">
<path style=" stroke:none;fill-rule:nonzero;fill:rgb(0%,0%,0%);fill-opacity:1;" d="M 16 32 C 24.824219 32 32 24.824219 32 16 C 32 7.175781 24.824219 0 16 0 C 7.175781 0 0 7.175781 0 16 C 0 24.824219 7.175781 32 16 32 M 8.71875 19.078125 C 8.820312 18.828125 9.0625 18.667969 9.332031 18.667969 L 11.332031 18.667969 C 11.511719 18.667969 11.679688 18.738281 11.804688 18.863281 L 14.667969 21.722656 L 14.667969 6 C 14.667969 5.632812 14.964844 5.332031 15.332031 5.332031 L 16.667969 5.332031 C 17.035156 5.332031 17.332031 5.632812 17.332031 6 L 17.332031 21.722656 L 20.195312 18.863281 C 20.320312 18.738281 20.488281 18.667969 20.667969 18.667969 L 22.667969 18.667969 C 22.9375 18.667969 23.179688 18.828125 23.285156 19.078125 C 23.386719 19.328125 23.328125 19.613281 23.136719 19.804688 L 16.472656 26.472656 C 16.347656 26.597656 16.175781 26.667969 16 26.667969 C 15.824219 26.667969 15.652344 26.597656 15.527344 26.472656 L 8.863281 19.804688 C 8.671875 19.613281 8.613281 19.328125 8.71875 19.078125 "/>
</g>
</svg>
