<?xml version="1.0" encoding="UTF-8"?>
<svg xmlns="http://www.w3.org/2000/svg" xmlns:xlink="http://www.w3.org/1999/xlink" width="32" height="32" viewBox="0 0 32 32" version="1.1">
<g id="surface1">
<path style=" stroke:none;fill-rule:nonzero;fill:rgb(100%,100%,100%);fill-opacity:1;" d="M 15.769531 2.667969 C 8.535156 2.667969 2.667969 8.636719 2.667969 16 C 2.667969 23.363281 8.535156 29.332031 15.769531 29.332031 C 23.007812 29.332031 28.875 23.363281 28.875 16 C 28.875 8.636719 23.007812 2.667969 15.769531 2.667969 "/>
<path style=" stroke:none;fill-rule:nonzero;fill:rgb(0%,0%,0%);fill-opacity:1;" d="M 15.902344 28.316406 C 22.636719 28.316406 28.121094 22.835938 28.121094 16.097656 C 28.121094 9.359375 22.640625 3.878906 15.902344 3.878906 C 9.164062 3.878906 3.683594 9.359375 3.683594 16.097656 C 3.683594 22.835938 9.164062 28.316406 15.902344 28.316406 M 10.339844 18.449219 C 10.417969 18.257812 10.605469 18.132812 10.8125 18.132812 L 12.339844 18.132812 C 12.476562 18.132812 12.605469 18.1875 12.699219 18.285156 L 14.882812 20.46875 L 14.882812 8.460938 C 14.882812 8.179688 15.113281 7.953125 15.394531 7.953125 L 16.410156 7.953125 C 16.691406 7.953125 16.921875 8.179688 16.921875 8.460938 L 16.921875 20.46875 L 19.105469 18.285156 C 19.199219 18.1875 19.328125 18.132812 19.464844 18.132812 L 20.992188 18.132812 C 21.199219 18.132812 21.382812 18.253906 21.464844 18.445312 C 21.542969 18.636719 21.5 18.855469 21.351562 19.003906 L 16.261719 24.09375 C 16.167969 24.1875 16.039062 24.242188 15.902344 24.242188 C 15.769531 24.242188 15.636719 24.1875 15.542969 24.09375 L 10.449219 19.003906 C 10.304688 18.855469 10.261719 18.640625 10.339844 18.449219 "/>
</g>
</svg>
