<?xml version="1.0" encoding="UTF-8"?>
<svg xmlns="http://www.w3.org/2000/svg" xmlns:xlink="http://www.w3.org/1999/xlink" width="32" height="32" viewBox="0 0 32 32" version="1.1">
<g id="surface1">
<path style=" stroke:none;fill-rule:nonzero;fill:rgb(0%,0%,0%);fill-opacity:1;" d="M 16.011719 30.851562 L 15.746094 30.726562 C 15.613281 30.667969 2.667969 24.476562 2.667969 6.015625 L 2.667969 5.527344 L 3.144531 5.421875 C 7.628906 4.4375 10.277344 3.042969 12.210938 2.023438 C 13.714844 1.238281 14.800781 0.667969 16 0.667969 C 17.199219 0.667969 18.285156 1.238281 19.789062 2.023438 C 21.722656 3.042969 24.371094 4.4375 28.855469 5.421875 L 29.332031 5.527344 L 29.332031 6.015625 C 29.332031 23.863281 16.40625 30.648438 16.273438 30.71875 Z M 16.011719 30.851562 "/>
<path style=" stroke:none;fill-rule:nonzero;fill:rgb(100%,100%,100%);fill-opacity:1;" d="M 16.316406 6.464844 C 11.792969 6.464844 8.128906 10.195312 8.128906 14.796875 C 8.128906 19.398438 11.792969 23.132812 16.316406 23.132812 C 20.839844 23.132812 24.507812 19.398438 24.507812 14.796875 C 24.507812 10.195312 20.839844 6.464844 16.316406 6.464844 "/>
<path style=" stroke:none;fill-rule:nonzero;fill:rgb(0%,0%,0%);fill-opacity:1;" d="M 16.398438 22.496094 C 20.609375 22.496094 24.035156 19.070312 24.035156 14.859375 C 24.035156 10.648438 20.609375 7.222656 16.398438 7.222656 C 12.1875 7.222656 8.761719 10.648438 8.761719 14.859375 C 8.761719 19.070312 12.1875 22.496094 16.398438 22.496094 M 12.921875 16.328125 C 12.972656 16.210938 13.089844 16.132812 13.21875 16.132812 L 14.171875 16.132812 C 14.257812 16.132812 14.339844 16.164062 14.398438 16.226562 L 15.761719 17.589844 L 15.761719 10.085938 C 15.761719 9.910156 15.90625 9.769531 16.082031 9.769531 L 16.714844 9.769531 C 16.894531 9.769531 17.035156 9.910156 17.035156 10.085938 L 17.035156 17.589844 L 18.402344 16.226562 C 18.460938 16.164062 18.542969 16.132812 18.625 16.132812 L 19.578125 16.132812 C 19.710938 16.128906 19.824219 16.207031 19.875 16.328125 C 19.925781 16.445312 19.898438 16.582031 19.808594 16.675781 L 16.625 19.855469 C 16.566406 19.917969 16.484375 19.949219 16.398438 19.949219 C 16.316406 19.949219 16.234375 19.917969 16.175781 19.855469 L 12.992188 16.675781 C 12.902344 16.582031 12.875 16.445312 12.921875 16.328125 "/>
</g>
</svg>
