<svg role="img" viewBox="0 0 32 32" xmlns="http://www.w3.org/2000/svg"><path d="M18.559 2.898c-3.204 0-6.133 1.864-7.54 4.704a4.5 4.5 0 0 0-2.48-.743c-2.367 0-4.3 1.852-4.46 4.18A6.228 6.228 0 0 0 0 16.86a6.178 6.178 0 0 0 6.18 6.18h9.18v-6.398c0-.352.288-.641.64-.641.352 0 .64.29.64.64v6.4h9.66a5.71 5.71 0 0 0 5.7-5.7c0-2.91-2.191-5.32-5.04-5.66.009-.125.02-.242.02-.36 0-4.64-3.78-8.422-8.421-8.422M16.64 23.04h-1.282v4.86l-2.097-2.118a.66.66 0 0 0-.922 0 .656.656 0 0 0 0 .918L16 30.34l3.66-3.64a.656.656 0 0 0 0-.918.66.66 0 0 0-.922 0l-2.097 2.117Zm0 0" style="stroke:none;fill-rule:nonzero;fill:rgb(0%,0%,0%);fill-opacity:1"/></svg>