<svg role="img" viewBox="0 0 31.03 32" xmlns="http://www.w3.org/2000/svg"><path d="M10.473 2.629a86.173 86.173 0 0 0-1.168 8.496c-.47 5.648-.18 9.438-.18 9.438l-7.957 7.554-.918-9.012L0 11.977c0-.09.047-.18.047-.27 0-.11.133-1.164 1.164-2.152C2.332 8.48 10.605 2 10.473 2.629" style="stroke:none;fill-rule:nonzero;fill:rgb(22.745098%,54.11765%,79.215688%);fill-opacity:1"/><path d="M10.473 2.629a86.173 86.173 0 0 0-1.168 8.496S.496 10.07 0 12.203c0-.113.16-1.414 1.191-2.398C2.313 8.727 10.605 2 10.473 2.629" style="stroke:none;fill-rule:nonzero;fill:rgb(14.901961%,14.117648%,14.117648%);fill-opacity:1"/><path d="M0 11.688v.492c.09-.383.25-.653.563-1.078.648-.829 1.703-1.051 2.128-1.098 2.153-.29 5.336-.629 8.543-.715 5.672-.18 9.414.29 9.414.29l7.957-7.556L19.684.68 12.285.008c-.11 0-1.207-.137-2.238.851L.945 9.512C-.085 10.496 0 11.598 0 11.687" style="stroke:none;fill-rule:nonzero;fill:rgb(78.431374%,83.92157%,26.274511%);fill-opacity:1"/><path d="m28.316 21.348-8.543.761c-5.671.18-9.437-.289-9.437-.289l-7.957 7.575 8.965 1.367 7.062.605c.114 0 .293-.09.407-.09.109 0 1.207-.199 2.238-1.187 1.12-1.074 7.894-8.809 7.265-8.742" style="stroke:none;fill-rule:nonzero;fill:rgb(38.82353%,18.82353%,54.901963%);fill-opacity:1"/><path d="m28.316 21.348-8.543.761s.606 8.856-1.523 9.239c.113 0 1.57-.07 2.602-1.055 1.12-1.078 8.093-9.012 7.464-8.945" style="stroke:none;fill-rule:nonzero;fill:rgb(14.901961%,14.117648%,14.117648%);fill-opacity:1"/><path d="M18.723 31.39c-.16 0-.317-.023-.496-.023.406-.066.671-.199 1.097-.515.856-.606 1.121-1.657 1.211-2.082l1.145-8.497c.449-5.652.18-9.418.18-9.418l7.956-7.578.922 8.993.29 7.398c0 .11.09 1.21-.942 2.195l-9.078 8.676c-1.078.988-2.176.852-2.285.852" style="stroke:none;fill-rule:nonzero;fill:rgb(50.588238%,72.549021%,31.37255%);fill-opacity:1"/></svg>