<?xml version="1.0" encoding="UTF-8"?>
<svg xmlns="http://www.w3.org/2000/svg" xmlns:xlink="http://www.w3.org/1999/xlink" width="31.030001" height="32" viewBox="0 0 31.030001 32" version="1.1">
<g id="surface1">
<path style=" stroke:none;fill-rule:nonzero;fill:rgb(22.745098%,54.11765%,79.215688%);fill-opacity:1;" d="M 10.472656 2.628906 C 9.941406 5.441406 9.554688 8.273438 9.304688 11.125 C 8.835938 16.773438 9.125 20.5625 9.125 20.5625 L 1.167969 28.117188 L 0.25 19.105469 L 0 11.976562 C 0 11.886719 0.046875 11.796875 0.046875 11.707031 C 0.046875 11.597656 0.179688 10.542969 1.210938 9.554688 C 2.332031 8.480469 10.605469 2 10.472656 2.628906 "/>
<path style=" stroke:none;fill-rule:nonzero;fill:rgb(14.901961%,14.117648%,14.117648%);fill-opacity:1;" d="M 10.472656 2.628906 C 9.941406 5.441406 9.554688 8.273438 9.304688 11.125 C 9.304688 11.125 0.496094 10.070312 0 12.203125 C 0 12.089844 0.160156 10.789062 1.191406 9.804688 C 2.3125 8.726562 10.605469 2 10.472656 2.628906 "/>
<path style=" stroke:none;fill-rule:nonzero;fill:rgb(78.431374%,83.92157%,26.274511%);fill-opacity:1;" d="M 0 11.6875 L 0 12.179688 C 0.0898438 11.796875 0.25 11.527344 0.5625 11.101562 C 1.210938 10.273438 2.265625 10.050781 2.691406 10.003906 C 4.84375 9.714844 8.027344 9.375 11.234375 9.289062 C 16.90625 9.109375 20.648438 9.578125 20.648438 9.578125 L 28.605469 2.023438 L 19.683594 0.679688 L 12.285156 0.0078125 C 12.175781 0.0078125 11.078125 -0.128906 10.046875 0.859375 L 0.945312 9.511719 C -0.0859375 10.496094 0 11.597656 0 11.6875 "/>
<path style=" stroke:none;fill-rule:nonzero;fill:rgb(38.82353%,18.82353%,54.901963%);fill-opacity:1;" d="M 28.316406 21.347656 L 19.773438 22.109375 C 14.101562 22.289062 10.335938 21.820312 10.335938 21.820312 L 2.378906 29.394531 L 11.34375 30.761719 L 18.40625 31.367188 C 18.519531 31.367188 18.699219 31.277344 18.8125 31.277344 C 18.921875 31.277344 20.019531 31.078125 21.050781 30.089844 C 22.171875 29.015625 28.945312 21.28125 28.316406 21.347656 "/>
<path style=" stroke:none;fill-rule:nonzero;fill:rgb(14.901961%,14.117648%,14.117648%);fill-opacity:1;" d="M 28.316406 21.347656 L 19.773438 22.109375 C 19.773438 22.109375 20.378906 30.964844 18.25 31.347656 C 18.363281 31.347656 19.820312 31.277344 20.851562 30.292969 C 21.972656 29.214844 28.945312 21.28125 28.316406 21.347656 "/>
<path style=" stroke:none;fill-rule:nonzero;fill:rgb(50.588238%,72.549021%,31.37255%);fill-opacity:1;" d="M 18.722656 31.390625 C 18.5625 31.390625 18.40625 31.367188 18.226562 31.367188 C 18.632812 31.300781 18.898438 31.167969 19.324219 30.851562 C 20.179688 30.246094 20.445312 29.195312 20.535156 28.769531 L 21.679688 20.273438 C 22.128906 14.621094 21.859375 10.855469 21.859375 10.855469 L 29.816406 3.277344 L 30.738281 12.269531 L 31.027344 19.667969 C 31.027344 19.777344 31.117188 20.878906 30.085938 21.863281 L 21.007812 30.539062 C 19.929688 31.527344 18.832031 31.390625 18.722656 31.390625 "/>
</g>
</svg>
