<svg xmlns="http://www.w3.org/2000/svg" width="32" height="33" stroke="none" stroke-linecap="round" stroke-linejoin="round" fill="#fff" fill-rule="nonzero"><path d="M10.7983 2.7112c-.4161 2.1962-.9247 5.456-1.2021 8.7619-.4856 5.8258-.185 9.7329-.185 9.7329l-8.207 7.7909-.9479-9.2936-.2543-7.3517c0-.0925.0462-.185.0462-.2775 0-.1156.1388-1.2021 1.2022-2.2193 1.1559-1.1097 9.6866-7.791 9.5479-7.1436" fill="#3a8aca"/><path d="M10.7983 2.7113c-.4161 2.1962-.9247 5.4559-1.2021 8.7619 0 0-9.0856-1.0866-9.5942 1.1097 0-.1156.1618-1.4565 1.2253-2.4737 1.1559-1.1097 9.7097-8.0453 9.571-7.3979" fill="#262424"/><path d="M.002 12.0511v.5086c.0925-.393.2544-.6704.578-1.1097.6704-.8554 1.757-1.0866 2.1963-1.1328 2.2193-.3006 5.5021-.6473 8.8081-.7398 5.8489-.1849 9.7097.3005 9.7097.3005l8.2071-7.7909L20.3.6999 12.6709.0064c-.1156 0-1.2483-.1388-2.3118.8785L.973 9.8086c-1.0635 1.0172-.971 2.15-.971 2.2425" fill="#c8d643"/><path d="M29.2007 22.0151l-8.8082.7861c-5.8489.185-9.7328-.3005-9.7328-.3005l-8.2071 7.814L11.7 31.7249l7.2823.6242c.1156 0 .3005-.0924.4161-.0924s1.2484-.2081 2.3119-1.2253c1.1559-1.1098 8.1377-9.0856 7.4904-9.0163" fill="#63308c"/><path d="M29.2007 22.0151l-8.8082.7861s.6242 9.1318-1.572 9.5248c.1156 0 1.6183-.0694 2.6818-1.0866 1.1559-1.1097 8.3457-9.2936 7.6984-9.2243" fill="#262424"/><path d="M19.3059 32.3722c-.1618 0-.3236-.0231-.5086-.0231.4161-.0694.6936-.2081 1.1328-.5318.8785-.6242 1.1559-1.7107 1.2484-2.15l1.179-8.7619c.4624-5.8258.185-9.7097.185-9.7097l8.207-7.8141.9479 9.2705.3005 7.6291c0 .1156.0925 1.2484-.9709 2.2656l-9.363 8.9469c-1.1097 1.0172-2.2425.8785-2.3581.8785" fill="#81b950"/></svg>