<svg role="img" viewBox="0 0 28.112 32" xmlns="http://www.w3.org/2000/svg"><path d="m1.965 6.348-1.352.636v18.04l1.352.64 5.469-9.191Zm0 0" style="stroke:none;fill-rule:nonzero;fill:rgb(61.56863%,31.37255%,14.509805%);fill-opacity:1"/><path d="m5.113 24.965-3.148.7V6.347l3.148.68Zm0 0" style="stroke:none;fill-rule:nonzero;fill:rgb(96.078432%,52.156866%,21.176471%);fill-opacity:1"/><path d="m3.453 5.64 1.66-.78 7.883 11.956-7.883 10.336-1.66-.78Zm0 0" style="stroke:none;fill-rule:nonzero;fill:rgb(61.56863%,31.37255%,14.509805%);fill-opacity:1"/><path d="m9.04 26.102-3.927 1.05V4.86L9.04 5.914Zm0 0" style="stroke:none;fill-rule:nonzero;fill:rgb(96.078432%,52.156866%,21.176471%);fill-opacity:1"/><path d="m6.96 3.98 2.08-.984 11.628 15.129L9.039 29.012l-2.078-.98Zm0 0" style="stroke:none;fill-rule:nonzero;fill:rgb(61.56863%,31.37255%,14.509805%);fill-opacity:1"/><path d="M14.078 27.27 9.04 29.012V2.996l5.04 1.746Zm0 0" style="stroke:none;fill-rule:nonzero;fill:rgb(96.078432%,52.156866%,21.176471%);fill-opacity:1"/><path d="M11.39 1.887 14.079.613l12.578 16.262-12.578 14.52-2.687-1.27Zm0 0" style="stroke:none;fill-rule:nonzero;fill:rgb(61.56863%,31.37255%,14.509805%);fill-opacity:1"/><path d="m27.547 25.02-13.469 6.375V.613l13.469 6.375Zm0 0" style="stroke:none;fill-rule:nonzero;fill:rgb(96.078432%,52.156866%,21.176471%);fill-opacity:1"/></svg>