<?xml version="1.0" encoding="UTF-8"?>
<svg xmlns="http://www.w3.org/2000/svg" xmlns:xlink="http://www.w3.org/1999/xlink" width="28.112" height="32" viewBox="0 0 28.112 32" version="1.1">
<g id="surface1">
<path style=" stroke:none;fill-rule:nonzero;fill:rgb(61.56863%,31.37255%,14.509805%);fill-opacity:1;" d="M 1.964844 6.347656 L 0.613281 6.984375 L 0.613281 25.023438 L 1.964844 25.664062 L 7.433594 16.472656 Z M 1.964844 6.347656 "/>
<path style=" stroke:none;fill-rule:nonzero;fill:rgb(96.078432%,52.156866%,21.176471%);fill-opacity:1;" d="M 5.113281 24.964844 L 1.964844 25.664062 L 1.964844 6.347656 L 5.113281 7.027344 Z M 5.113281 24.964844 "/>
<path style=" stroke:none;fill-rule:nonzero;fill:rgb(61.56863%,31.37255%,14.509805%);fill-opacity:1;" d="M 3.453125 5.640625 L 5.113281 4.859375 L 12.996094 16.816406 L 5.113281 27.152344 L 3.453125 26.371094 Z M 3.453125 5.640625 "/>
<path style=" stroke:none;fill-rule:nonzero;fill:rgb(96.078432%,52.156866%,21.176471%);fill-opacity:1;" d="M 9.039062 26.101562 L 5.113281 27.152344 L 5.113281 4.859375 L 9.039062 5.914062 Z M 9.039062 26.101562 "/>
<path style=" stroke:none;fill-rule:nonzero;fill:rgb(61.56863%,31.37255%,14.509805%);fill-opacity:1;" d="M 6.960938 3.980469 L 9.039062 2.996094 L 20.667969 18.125 L 9.039062 29.011719 L 6.960938 28.03125 Z M 6.960938 3.980469 "/>
<path style=" stroke:none;fill-rule:nonzero;fill:rgb(96.078432%,52.156866%,21.176471%);fill-opacity:1;" d="M 14.078125 27.269531 L 9.039062 29.011719 L 9.039062 2.996094 L 14.078125 4.742188 Z M 14.078125 27.269531 "/>
<path style=" stroke:none;fill-rule:nonzero;fill:rgb(61.56863%,31.37255%,14.509805%);fill-opacity:1;" d="M 11.390625 1.886719 L 14.078125 0.613281 L 26.65625 16.875 L 14.078125 31.394531 L 11.390625 30.125 Z M 11.390625 1.886719 "/>
<path style=" stroke:none;fill-rule:nonzero;fill:rgb(96.078432%,52.156866%,21.176471%);fill-opacity:1;" d="M 27.546875 25.019531 L 14.078125 31.394531 L 14.078125 0.613281 L 27.546875 6.988281 Z M 27.546875 25.019531 "/>
</g>
</svg>
