<?xml version="1.0" encoding="UTF-8"?>
<svg xmlns="http://www.w3.org/2000/svg" xmlns:xlink="http://www.w3.org/1999/xlink" width="32" height="32" viewBox="0 0 32 32" version="1.1">
<g id="surface1">
<path style=" stroke:none;fill-rule:evenodd;fill:rgb(61.56863%,31.37255%,14.509805%);fill-opacity:1;" d="M 0 16.632812 C 0 8.117188 7.136719 1.261719 16 1.261719 C 24.863281 1.261719 32 8.117188 32 16.632812 C 32 25.144531 24.863281 32 16 32 C 7.136719 32 0 25.144531 0 16.632812 M 0 15.367188 L 32 15.367188 L 32 16.632812 L 0 16.632812 Z M 0 15.367188 "/>
<path style=" stroke:none;fill-rule:evenodd;fill:rgb(96.078432%,52.156866%,21.176471%);fill-opacity:1;" d="M 0 15.367188 C 0 6.855469 7.136719 0 16 0 C 24.863281 0 32 6.855469 32 15.367188 C 32 23.882812 24.863281 30.738281 16 30.738281 C 7.136719 30.738281 0 23.882812 0 15.367188 M 0 15.367188 "/>
<path style=" stroke:none;fill-rule:evenodd;fill:rgb(100%,100%,100%);fill-opacity:1;" d="M 17.035156 13.703125 L 14.96875 13.703125 L 13.859375 4.546875 L 18.144531 4.546875 Z M 25.253906 20.445312 L 26.078125 19.789062 L 23.085938 15.496094 L 16.535156 13.296875 L 16 16.773438 L 21.90625 17.304688 Z M 6.746094 20.445312 L 5.925781 19.789062 L 8.914062 15.496094 L 15.464844 13.296875 L 16 16.773438 L 10.09375 17.304688 Z M 13.027344 4.546875 C 13.027344 2.964844 14.355469 1.691406 16 1.691406 C 17.644531 1.691406 18.96875 2.964844 18.96875 4.546875 C 18.96875 6.125 17.644531 7.398438 16 7.398438 C 14.355469 7.398438 13.027344 6.125 13.027344 4.546875 M 13.027344 4.546875 "/>
<path style=" stroke:none;fill-rule:evenodd;fill:rgb(96.078432%,52.156866%,21.176471%);fill-opacity:1;" d="M 16 7.652344 C 14.214844 7.652344 12.765625 6.261719 12.765625 4.546875 C 12.765625 2.828125 14.214844 1.4375 16 1.4375 C 17.785156 1.4375 19.234375 2.828125 19.234375 4.546875 C 19.234375 6.261719 17.785156 7.648438 16 7.652344 M 16 1.945312 C 17.496094 1.945312 18.707031 3.109375 18.707031 4.546875 C 18.707031 5.980469 17.496094 7.144531 16 7.144531 C 14.503906 7.144531 13.292969 5.980469 13.292969 4.546875 C 13.292969 3.109375 14.503906 1.945312 16 1.945312 M 15.027344 4.546875 C 15.027344 4.027344 15.460938 3.609375 16 3.609375 C 16.539062 3.609375 16.972656 4.027344 16.972656 4.546875 C 16.972656 5.0625 16.539062 5.480469 16 5.480469 C 15.460938 5.480469 15.027344 5.0625 15.027344 4.546875 M 15.027344 4.546875 "/>
<path style=" stroke:none;fill-rule:evenodd;fill:rgb(100%,100%,100%);fill-opacity:1;" d="M 13.859375 15 C 13.859375 13.859375 14.8125 12.945312 16 12.945312 C 17.1875 12.945312 18.140625 13.859375 18.140625 15 C 18.140625 16.140625 17.183594 17.054688 16 17.054688 C 14.816406 17.054688 13.859375 16.140625 13.859375 15 M 13.859375 15 "/>
<path style=" stroke:none;fill-rule:evenodd;fill:rgb(96.078432%,52.156866%,21.176471%);fill-opacity:1;" d="M 16 17.308594 C 14.675781 17.304688 13.601562 16.273438 13.601562 15 C 13.601562 13.726562 14.675781 12.695312 16 12.691406 C 17.324219 12.6875 18.402344 13.71875 18.40625 14.988281 C 18.40625 15.609375 18.152344 16.203125 17.703125 16.628906 C 17.253906 17.0625 16.640625 17.308594 16 17.308594 M 16 13.191406 C 17.035156 13.1875 17.878906 13.992188 17.882812 14.988281 C 17.886719 15.984375 17.046875 16.796875 16.011719 16.796875 C 14.972656 16.800781 14.132812 15.996094 14.128906 15 C 14.125 14.003906 14.964844 13.195312 16 13.191406 L 16 13.195312 Z M 15.34375 15 C 15.34375 14.648438 15.636719 14.367188 16 14.367188 C 16.363281 14.367188 16.65625 14.648438 16.65625 15 C 16.652344 15.171875 16.582031 15.335938 16.460938 15.453125 C 16.335938 15.570312 16.171875 15.636719 16 15.632812 C 15.828125 15.636719 15.664062 15.570312 15.539062 15.453125 C 15.417969 15.335938 15.347656 15.171875 15.34375 15 M 15.34375 15 "/>
<path style=" stroke:none;fill-rule:evenodd;fill:rgb(100%,100%,100%);fill-opacity:1;" d="M 9.097656 19.738281 L 22.902344 19.738281 L 22.902344 27.066406 L 9.097656 27.066406 Z M 9.097656 19.738281 "/>
<path style=" stroke:none;fill-rule:evenodd;fill:rgb(98.431373%,74.901962%,57.647061%);fill-opacity:1;" d="M 9.789062 20.328125 L 10.84375 20.328125 L 10.84375 26.476562 L 9.789062 26.476562 Z M 11.683594 20.328125 L 12.734375 20.328125 L 12.734375 26.476562 L 11.683594 26.476562 Z M 13.582031 20.328125 L 14.632812 20.328125 L 14.632812 26.476562 L 13.582031 26.476562 Z M 15.472656 20.328125 L 16.527344 20.328125 L 16.527344 26.476562 L 15.472656 26.476562 Z M 17.367188 20.328125 L 18.417969 20.328125 L 18.417969 26.476562 L 17.367188 26.476562 Z M 19.265625 20.328125 L 20.316406 20.328125 L 20.316406 26.476562 L 19.265625 26.476562 Z M 21.15625 20.328125 L 22.210938 20.328125 L 22.210938 26.476562 L 21.15625 26.476562 Z M 21.15625 20.328125 "/>
</g>
</svg>
