<svg xmlns="http://www.w3.org/2000/svg" width="32" height="32" stroke="#000" stroke-linecap="round" stroke-linejoin="round" fill="#fff" fill-rule="evenodd"><g fill="#9d5025" stroke="none"><path d="M0 16.6313C0 8.117 7.136 1.2626 16 1.2626S32 8.117 32 16.6313 24.864 32 16 32 0 25.1455 0 16.6313z"/><path d="M0 15.3687h32v1.2626H0z"/></g><path d="M0 15.3687C0 6.8544 7.136 0 16 0s16 6.8544 16 15.3687-7.136 15.3687-16 15.3687S0 23.8829 0 15.3687z" fill="#f58536" stroke="none"/><path d="M17.0358 13.702h-2.0664L13.86 4.5454h4.2852l-1.1094 9.1566z" stroke="none"/><path d="M25.254 20.4444l.8255-.6565-2.9918-4.2929-6.5514-2.197L16 16.7728l5.9047.5302 3.3493 3.1414z" stroke="none"/><path d="M6.746 20.4444l-.8203-.6565 2.9866-4.2929 6.5514-2.197L16 16.7728l-5.9047.5302-3.3493 3.1414zm6.2832-15.899c0-1.5808 1.325-2.8535 2.9708-2.8535s2.9707 1.2727 2.9707 2.8535S17.6458 7.3989 16 7.3989s-2.9708-1.2726-2.9708-2.8535z" stroke="none"/><path d="M16 7.6515c-1.7859 0-3.2336-1.3906-3.2336-3.1061S14.2141 1.4394 16 1.4394s3.2337 1.3906 3.2337 3.106S17.7848 7.6487 16 7.6515zm0-5.7071c1.4956 0 2.7079 1.1645 2.7079 2.601S17.4956 7.1464 16 7.1464s-2.7078-1.1644-2.7078-2.601S14.5046 1.9444 16 1.9444h0zm-.9727 2.6011c0-.5177.4338-.9344.9727-.9344s.9727.4167.9727.9344-.4338.9343-.9727.9343-.9727-.4167-.9727-.9343z" stroke="none" fill="#f58536"/><path d="M13.86 15c0-1.1388.9544-2.0556 2.14-2.0556s2.1399.9168 2.1399 2.0556-.9544 2.0555-2.1399 2.0555-2.14-.9168-2.14-2.0555z" stroke="none"/><path d="M16 17.3081c-1.325-.0028-2.3976-1.0354-2.3976-2.3081S14.675 12.6947 16 12.6919s2.4024 1.0252 2.4081 2.298c.0014.6143-.2517 1.204-.7034 1.6389s-1.0651.6793-1.7047.6793zm0-4.1162c1.0367-.0028 1.8794.8022 1.8823 1.798s-.8351 1.8053-1.8718 1.808-1.8794-.8022-1.8823-1.7979.8351-1.8053 1.8718-1.8081v.005zM15.3428 15c0-.3497.2931-.6313.6572-.6313s.6573.2816.6573.6313-.2931.6313-.6573.6313-.6572-.2815-.6572-.6313z" stroke="none" fill="#f58536"/><path d="M9.0963 19.7374h13.8074v7.3283H9.0963z" stroke="none"/><path d="M9.7903 20.3283h1.0516v6.1464H9.7903zm1.8929 0h1.0516v6.1464h-1.0516zm1.8982 0h1.0516v6.1464h-1.0516zm1.8928 0h1.0516v6.1464h-1.0516zm1.8928 0h1.0516v6.1464H17.367zm1.8982 0h1.0516v6.1464h-1.0516zm1.8929 0h1.0516v6.1464h-1.0516z" stroke="none" fill="#fbbf93"/></svg>