<svg role="img" viewBox="0 0 32 32" xmlns="http://www.w3.org/2000/svg"><path d="M0 16.633C0 8.117 7.137 1.262 16 1.262s16 6.855 16 15.37C32 25.146 24.863 32 16 32S0 25.145 0 16.633m0-1.266h32v1.266H0Zm0 0" style="stroke:none;fill-rule:evenodd;fill:rgb(61.56863%,31.37255%,14.509805%);fill-opacity:1"/><path d="M0 15.367C0 6.855 7.137 0 16 0s16 6.855 16 15.367c0 8.516-7.137 15.371-16 15.371S0 23.883 0 15.368m0 0" style="stroke:none;fill-rule:evenodd;fill:rgb(96.078432%,52.156866%,21.176471%);fill-opacity:1"/><path d="M17.035 13.703H14.97l-1.11-9.156h4.286Zm8.219 6.742.824-.656-2.992-4.293-6.55-2.2L16 16.774l5.906.532Zm-18.508 0-.82-.656 2.988-4.293 6.55-2.2.536 3.477-5.906.532Zm6.281-15.898c0-1.582 1.328-2.856 2.973-2.856 1.645 0 2.969 1.274 2.969 2.856 0 1.578-1.324 2.851-2.969 2.851-1.645 0-2.973-1.273-2.973-2.851m0 0" style="stroke:none;fill-rule:evenodd;fill:rgb(100%,100%,100%);fill-opacity:1"/><path d="M16 7.652c-1.785 0-3.234-1.39-3.234-3.105 0-1.719 1.449-3.11 3.234-3.11s3.234 1.391 3.234 3.11c0 1.715-1.449 3.101-3.234 3.105m0-5.707c1.496 0 2.707 1.164 2.707 2.602 0 1.433-1.21 2.598-2.707 2.598-1.496 0-2.707-1.165-2.707-2.598 0-1.438 1.21-2.602 2.707-2.602m-.973 2.602c0-.52.434-.938.973-.938.54 0 .973.418.973.938 0 .516-.434.933-.973.933-.54 0-.973-.418-.973-.933m0 0" style="stroke:none;fill-rule:evenodd;fill:rgb(96.078432%,52.156866%,21.176471%);fill-opacity:1"/><path d="M13.86 15c0-1.14.953-2.055 2.14-2.055 1.188 0 2.14.914 2.14 2.055 0 1.14-.956 2.055-2.14 2.055-1.184 0-2.14-.914-2.14-2.055m0 0" style="stroke:none;fill-rule:evenodd;fill:rgb(100%,100%,100%);fill-opacity:1"/><path d="M16 17.309c-1.324-.004-2.398-1.036-2.398-2.309 0-1.273 1.074-2.305 2.398-2.309 1.324-.004 2.402 1.028 2.406 2.297a2.25 2.25 0 0 1-.703 1.64c-.45.434-1.062.68-1.703.68m0-4.118c1.035-.004 1.879.801 1.883 1.797.004.996-.836 1.809-1.871 1.809-1.04.004-1.88-.8-1.883-1.797-.004-.996.836-1.805 1.871-1.809v.004ZM15.344 15c0-.352.293-.633.656-.633.363 0 .656.281.656.633a.643.643 0 0 1-.656.633.643.643 0 0 1-.656-.633m0 0" style="stroke:none;fill-rule:evenodd;fill:rgb(96.078432%,52.156866%,21.176471%);fill-opacity:1"/><path d="M9.098 19.738h13.804v7.328H9.098Zm0 0" style="stroke:none;fill-rule:evenodd;fill:rgb(100%,100%,100%);fill-opacity:1"/><path d="M9.79 20.328h1.054v6.149H9.789Zm1.894 0h1.05v6.149h-1.05Zm1.898 0h1.05v6.149h-1.05Zm1.89 0h1.055v6.149h-1.054Zm1.895 0h1.051v6.149h-1.05Zm1.899 0h1.05v6.149h-1.05Zm1.89 0h1.055v6.149h-1.055Zm0 0" style="stroke:none;fill-rule:evenodd;fill:rgb(98.431373%,74.901962%,57.647061%);fill-opacity:1"/></svg>