<svg xmlns:xlink="http://www.w3.org/1999/xlink" role="img" viewBox="0 0 23.04 32" xmlns="http://www.w3.org/2000/svg"><defs><linearGradient gradientTransform="matrix(1 0 0 -1 0 102)" gradientUnits="userSpaceOnUse" id="i" x1="36" x2="36" y1="3" y2="101"><stop offset="0" style="stop-color:rgb(78.431374%,83.137256%,85.882354%);stop-opacity:1"/><stop offset=".139" style="stop-color:rgb(84.705883%,88.235295%,90.196079%);stop-opacity:1"/><stop offset=".359" style="stop-color:rgb(92.156863%,94.117647%,95.294118%);stop-opacity:1"/><stop offset=".617" style="stop-color:rgb(97.647059%,98.039216%,98.431373%);stop-opacity:1"/><stop offset="1" style="stop-color:rgb(100%,100%,100%);stop-opacity:1"/></linearGradient><linearGradient gradientTransform="matrix(1 0 0 -1 0 100)" gradientUnits="userSpaceOnUse" id="c" x1="36.2" x2="36.2" y1="27.3" y2="68.3"><stop offset="0" style="stop-color:rgb(67.843139%,80.000001%,86.274511%);stop-opacity:1"/><stop offset="1" style="stop-color:rgb(29.803923%,42.352942%,48.235294%);stop-opacity:1"/></linearGradient><linearGradient gradientTransform="matrix(1 0 0 -1 0 100)" gradientUnits="userSpaceOnUse" id="d" x1="36.2" x2="36.2" y1="26.8" y2="68.8"><stop offset="0" style="stop-color:rgb(67.843139%,80.000001%,86.274511%);stop-opacity:1"/><stop offset="1" style="stop-color:rgb(29.803923%,42.352942%,48.235294%);stop-opacity:1"/></linearGradient><linearGradient gradientTransform="matrix(1 0 0 -1 0 100)" gradientUnits="userSpaceOnUse" id="e" x1="50.8" x2="50.8" y1="27.3" y2="68.3"><stop offset="0" style="stop-color:rgb(67.843139%,80.000001%,86.274511%);stop-opacity:1"/><stop offset="1" style="stop-color:rgb(29.803923%,42.352942%,48.235294%);stop-opacity:1"/></linearGradient><linearGradient gradientTransform="matrix(1 0 0 -1 0 100)" gradientUnits="userSpaceOnUse" id="f" x1="50.8" x2="50.8" y1="26.8" y2="68.8"><stop offset="0" style="stop-color:rgb(67.843139%,80.000001%,86.274511%);stop-opacity:1"/><stop offset="1" style="stop-color:rgb(29.803923%,42.352942%,48.235294%);stop-opacity:1"/></linearGradient><linearGradient gradientTransform="matrix(1 0 0 -1 0 100)" gradientUnits="userSpaceOnUse" id="g" x1="21.4" x2="21.4" y1="27.3" y2="68.3"><stop offset="0" style="stop-color:rgb(67.843139%,80.000001%,86.274511%);stop-opacity:1"/><stop offset="1" style="stop-color:rgb(29.803923%,42.352942%,48.235294%);stop-opacity:1"/></linearGradient><linearGradient gradientTransform="matrix(1 0 0 -1 0 100)" gradientUnits="userSpaceOnUse" id="h" x1="21.4" x2="21.4" y1="26.8" y2="68.8"><stop offset="0" style="stop-color:rgb(67.843139%,80.000001%,86.274511%);stop-opacity:1"/><stop offset="1" style="stop-color:rgb(29.803923%,42.352942%,48.235294%);stop-opacity:1"/></linearGradient><linearGradient gradientTransform="matrix(1 0 0 -1 0 102)" gradientUnits="userSpaceOnUse" id="l" x1="45.037" x2="58.537" y1="74.187" y2="87.687"><stop offset="0" style="stop-color:rgb(100%,100%,100%);stop-opacity:1"/><stop offset=".35" style="stop-color:rgb(98.039216%,98.431373%,98.431373%);stop-opacity:1"/><stop offset=".532" style="stop-color:rgb(92.941177%,94.509804%,95.686275%);stop-opacity:1"/><stop offset=".675" style="stop-color:rgb(86.666667%,89.803922%,91.37255%);stop-opacity:1"/><stop offset=".799" style="stop-color:rgb(78.039217%,82.745099%,85.490197%);stop-opacity:1"/><stop offset=".908" style="stop-color:rgb(67.843139%,74.117649%,78.039217%);stop-opacity:1"/><stop offset="1" style="stop-color:rgb(57.254905%,64.705884%,69.01961%);stop-opacity:1"/></linearGradient><clipPath id="b"><path d="M0 0h24v32H0z"/></clipPath><filter filterUnits="objectBoundingBox" height="100%" id="a" width="100%" x="0%" y="0%"><feColorMatrix in="SourceGraphic" values="0 0 0 0 1 0 0 0 0 1 0 0 0 0 1 0 0 0 1 0"/></filter><mask id="k"><g filter="url(#a)"><path d="M0 0h23.04v32H0z" style="fill:rgb(0%,0%,0%);fill-opacity:0.9;stroke:none"/></g></mask><g clip-path="url(#b)" id="j"><path d="M42.004 46.399c0-2.503-1.501-4.504-3.698-5.396v-7.3c0-1.208-.904-2.099-2.1-2.099-1.208 0-2.112.891-2.112 2.1v7.3c-2.197.793-3.698 2.892-3.698 5.395 0 2.502 1.501 4.602 3.698 5.395 0 .11-.097.306-.097.403v18.408c0 1.197.903 2.1 2.1 2.1 1.208 0 2.099-.903 2.099-2.1V52.197c0-.195 0-.293-.098-.403 2.405-.793 3.906-2.893 3.906-5.395Zm-5.798 1.599a1.584 1.584 0 0 1-1.611-1.6c0-.902.708-1.598 1.611-1.598.891 0 1.6.696 1.6 1.599s-.709 1.599-1.6 1.599Zm0 0" style="fill-rule:nonzero;fill:url(#c);stroke-width:1;stroke-linecap:butt;stroke-linejoin:miter;stroke:url(#d);stroke-miterlimit:10" transform="scale(.32)"/><path d="M53.003 33.801c0-1.196-.903-2.1-2.1-2.1-1.208 0-2.1.904-2.1 2.1v17.2c-2.209.793-3.698 2.893-3.698 5.395 0 2.503 1.49 4.603 3.699 5.408 0 .098-.098.293-.098.39v8.411c0 1.197.891 2.1 2.1 2.1 1.196 0 2.1-.903 2.1-2.1v-8.41c0-.195 0-.293-.11-.39 2.209-.806 3.698-2.906 3.698-5.409 0-2.502-1.49-4.492-3.699-5.395v-17.2Zm-2.1 24.195a1.574 1.574 0 0 1-1.599-1.6c0-.89.696-1.599 1.6-1.599.89 0 1.598.708 1.598 1.6 0 .903-.708 1.599-1.599 1.599Zm0 0" style="fill-rule:nonzero;fill:url(#e);stroke-width:1;stroke-linecap:butt;stroke-linejoin:miter;stroke:url(#f);stroke-miterlimit:10" transform="scale(.32)"/><path d="M19.397 70.605c0 1.197.903 2.1 2.1 2.1 1.208 0 2.1-.903 2.1-2.1v-8.41c0-.195 0-.293-.098-.39 2.197-.806 3.698-2.906 3.698-5.409 0-2.502-1.501-4.492-3.698-5.395v-17.2c0-1.196-.904-2.1-2.1-2.1-1.196 0-2.1.904-2.1 2.1v17.2c-2.197.793-3.698 2.893-3.698 5.395 0 2.503 1.501 4.603 3.698 5.408 0 .098-.097.293-.097.39v8.411Zm2.1-15.808c.903 0 1.599.708 1.599 1.6 0 .903-.696 1.599-1.6 1.599-.89 0-1.599-.696-1.599-1.6 0-.89.708-1.599 1.6-1.599Zm0 0" style="fill-rule:nonzero;fill:url(#g);stroke-width:1;stroke-linecap:butt;stroke-linejoin:miter;stroke:url(#h);stroke-miterlimit:10" transform="scale(.32)"/></g></defs><path d="m44.995 1.001 27.002 26.697v71.301H0V1.001Zm0 0" style="fill-rule:nonzero;fill:url(#i);stroke-width:2;stroke-linecap:butt;stroke-linejoin:miter;stroke:rgb(44.313726%,56.862748%,63.137257%);stroke-opacity:1;stroke-miterlimit:4" transform="scale(.32)"/><use xlink:href="#j" mask="url(#k)"/><path d="m44.995 1.001 27.002 26.697H44.995Zm0 0" style="fill-rule:nonzero;fill:url(#l);stroke-width:2;stroke-linecap:butt;stroke-linejoin:bevel;stroke:rgb(44.313726%,56.862748%,63.137257%);stroke-opacity:1;stroke-miterlimit:4" transform="scale(.32)"/></svg>