<svg role="img" viewBox="0 0 64 64" xmlns="http://www.w3.org/2000/svg"><path d="M56.197 5.049a2.497 2.497 0 0 0-1.574.74l-1.871 1.85 3.684 3.709 1.837-1.883c.92-.967.993-2.299.075-3.217l-.63-.652c-.41-.411-.962-.586-1.52-.547m-5.224 4.365L31.23 29.184l-2.176 4.787c-.242.556.387 1.184.943.967l4.955-2.08 19.744-19.745zM17.02 11.021c-3.309 0-6 2.691-6 6V46.98c0 3.309 2.691 6 6 6h29.96c3.309 0 6-2.691 6-6V19.072l-3.999 4V46.98c0 1.103-.897 2-2 2h-29.96c-1.103 0-2-.897-2-2V17.02c0-1.103.897-2 2-2h24.114l3.994-4z"/></svg>