<?xml version="1.0" encoding="UTF-8"?>
<svg xmlns="http://www.w3.org/2000/svg" xmlns:xlink="http://www.w3.org/1999/xlink" width="28.530001" height="32" viewBox="0 0 28.530001 32" version="1.1">
<defs>
<linearGradient id="linear0" gradientUnits="userSpaceOnUse" x1="0.855" y1="0.974" x2="0.059" y2="-0.037" gradientTransform="matrix(6.82422,0,0,8.84375,11.371,11.18)">
<stop offset="0" style="stop-color:rgb(30.980393%,40.000001%,72.549021%);stop-opacity:1;"/>
<stop offset="0.01" style="stop-color:rgb(28.235295%,30.980393%,67.058825%);stop-opacity:1;"/>
</linearGradient>
<linearGradient id="linear1" gradientUnits="userSpaceOnUse" x1="1.106" y1="0.943" x2="0.145" y2="-0.035" gradientTransform="matrix(12.80469,0,0,21.679689,15.16,0.617)">
<stop offset="0" style="stop-color:rgb(30.980393%,40.000001%,72.549021%);stop-opacity:1;"/>
<stop offset="0.01" style="stop-color:rgb(28.235295%,30.980393%,67.058825%);stop-opacity:1;"/>
</linearGradient>
<linearGradient id="linear2" gradientUnits="userSpaceOnUse" x1="0.63" y1="0.945" x2="0.117" y2="0.176" gradientTransform="matrix(26.136721,0,0,30.773439,0.617,0.617)">
<stop offset="0" style="stop-color:rgb(29.803923%,40.784314%,73.333335%);stop-opacity:1;"/>
<stop offset="0.01" style="stop-color:rgb(31.764707%,50.196081%,78.823531%);stop-opacity:1;"/>
</linearGradient>
</defs>
<g id="surface1">
<path style=" stroke:none;fill-rule:nonzero;fill:url(#linear0);" d="M 11.371094 11.179688 L 12.636719 11.179688 L 12.636719 14.90625 L 16.273438 11.179688 L 17.941406 11.179688 L 13.949219 15.285156 L 18.195312 20.023438 L 16.578125 20.023438 L 12.636719 15.601562 L 12.636719 20.023438 L 11.371094 20.023438 Z M 11.371094 11.179688 "/>
<path style=" stroke:none;fill-rule:nonzero;fill:url(#linear1);" d="M 15.332031 7.671875 L 21.554688 11.261719 C 21.660156 11.324219 21.726562 11.4375 21.726562 11.558594 L 21.726562 18.746094 C 21.726562 18.867188 21.792969 18.980469 21.898438 19.042969 L 27.449219 22.25 C 27.554688 22.3125 27.6875 22.3125 27.792969 22.25 C 27.898438 22.191406 27.964844 22.074219 27.964844 21.953125 L 27.964844 7.957031 C 27.964844 7.835938 27.898438 7.71875 27.792969 7.660156 L 15.675781 0.660156 C 15.570312 0.601562 15.4375 0.601562 15.332031 0.664062 C 15.226562 0.722656 15.160156 0.835938 15.160156 0.960938 L 15.160156 7.371094 C 15.160156 7.496094 15.222656 7.609375 15.332031 7.671875 "/>
<path style=" stroke:none;fill-rule:nonzero;fill:url(#linear2);" d="M 20.683594 20.546875 L 14.460938 24.140625 C 14.355469 24.203125 14.222656 24.203125 14.117188 24.140625 L 7.027344 20.046875 C 6.921875 19.984375 6.855469 19.871094 6.855469 19.75 L 6.855469 11.558594 C 6.855469 11.4375 6.921875 11.324219 7.027344 11.261719 L 13.25 7.667969 C 13.355469 7.605469 13.421875 7.492188 13.421875 7.371094 L 13.421875 0.960938 C 13.421875 0.839844 13.355469 0.726562 13.25 0.664062 C 13.144531 0.601562 13.011719 0.601562 12.90625 0.660156 L 0.785156 7.660156 C 0.679688 7.722656 0.617188 7.835938 0.617188 7.957031 L 0.617188 23.351562 C 0.617188 23.472656 0.679688 23.585938 0.785156 23.648438 L 14.117188 31.347656 C 14.226562 31.40625 14.355469 31.40625 14.460938 31.347656 L 26.582031 24.347656 C 26.6875 24.289062 26.753906 24.175781 26.753906 24.050781 C 26.753906 23.929688 26.6875 23.816406 26.582031 23.753906 L 21.027344 20.546875 C 20.921875 20.484375 20.789062 20.484375 20.683594 20.546875 "/>
</g>
</svg>
