<?xml version="1.0" encoding="UTF-8"?>
<svg xmlns="http://www.w3.org/2000/svg" xmlns:xlink="http://www.w3.org/1999/xlink" width="32" height="32" viewBox="0 0 32 32" version="1.1">
<g id="surface1">
<path style=" stroke:none;fill-rule:nonzero;fill:rgb(100%,100%,100%);fill-opacity:1;" d="M 31.996094 16.800781 C 31.996094 14.109375 30.324219 11.785156 27.84375 10.871094 C 27.945312 10.300781 28 9.726562 28 9.148438 C 28 4.15625 23.949219 0.109375 18.960938 0.109375 C 16.058594 0.105469 13.332031 1.507812 11.648438 3.871094 C 10.8125 3.222656 9.78125 2.875 8.722656 2.878906 C 6.070312 2.882812 3.921875 5.03125 3.917969 7.683594 C 3.917969 8.257812 4.023438 8.832031 4.203125 9.355469 C 1.699219 10.21875 0 12.621094 0 15.285156 C -0.00390625 17.953125 1.667969 20.335938 4.179688 21.238281 C 4.074219 21.808594 4.019531 22.386719 4.023438 22.964844 C 4.023438 27.925781 8.070312 31.972656 13.03125 31.972656 C 15.957031 31.972656 18.648438 30.5625 20.347656 28.210938 C 21.191406 28.871094 22.226562 29.230469 23.296875 29.230469 C 25.949219 29.230469 28.101562 27.078125 28.101562 24.425781 C 28.101562 23.851562 28 23.277344 27.816406 22.753906 C 30.269531 21.867188 31.996094 19.464844 31.996094 16.800781 M 31.996094 16.800781 "/>
<path style=" stroke:none;fill-rule:nonzero;fill:rgb(95.686275%,74.117649%,9.803922%);fill-opacity:1;" d="M 12.511719 13.796875 L 19.640625 17.058594 L 26.851562 10.738281 C 27.328125 8.375 26.714844 5.917969 25.1875 4.050781 C 23.660156 2.183594 21.375 1.101562 18.960938 1.101562 C 16.304688 1.09375 13.820312 2.40625 12.328125 4.601562 L 11.125 10.816406 Z M 12.511719 13.796875 "/>
<path style=" stroke:none;fill-rule:nonzero;fill:rgb(23.529412%,74.509805%,69.411767%);fill-opacity:1;" d="M 5.117188 21.34375 C 5.011719 21.878906 4.960938 22.421875 4.960938 22.964844 C 4.960938 27.402344 8.59375 31.035156 13.03125 31.035156 C 15.707031 31.03125 18.207031 29.714844 19.71875 27.507812 L 20.894531 21.292969 L 19.300781 18.261719 L 12.144531 14.996094 Z M 5.117188 21.34375 "/>
<path style=" stroke:none;fill-rule:nonzero;fill:rgb(91.37255%,27.843139%,54.901963%);fill-opacity:1;" d="M 5.066406 8.988281 L 9.949219 10.140625 L 11.046875 4.574219 C 10.371094 4.058594 9.546875 3.785156 8.699219 3.792969 C 7.4375 3.796875 6.253906 4.414062 5.53125 5.445312 C 4.808594 6.480469 4.636719 7.800781 5.066406 8.988281 M 5.066406 8.988281 "/>
<path style=" stroke:none;fill-rule:nonzero;fill:rgb(17.254902%,27.058825%,56.078434%);fill-opacity:1;" d="M 4.648438 10.164062 C 2.457031 10.871094 0.941406 12.984375 0.941406 15.285156 C 0.933594 17.523438 2.320312 19.535156 4.414062 20.324219 L 11.28125 14.109375 L 10.03125 11.417969 Z M 4.648438 10.164062 "/>
<path style=" stroke:none;fill-rule:nonzero;fill:rgb(58.431375%,77.64706%,23.921569%);fill-opacity:1;" d="M 20.972656 27.480469 C 21.652344 28.003906 22.460938 28.292969 23.296875 28.292969 C 24.558594 28.289062 25.742188 27.671875 26.464844 26.636719 C 27.1875 25.601562 27.359375 24.28125 26.929688 23.09375 L 22.042969 21.945312 Z M 20.972656 27.480469 "/>
<path style=" stroke:none;fill-rule:nonzero;fill:rgb(9.019608%,40.000001%,33.333334%);fill-opacity:1;" d="M 21.964844 20.664062 L 27.347656 21.917969 C 29.539062 21.1875 31.054688 19.097656 31.054688 16.800781 C 31.054688 14.5625 29.671875 12.558594 27.582031 11.757812 L 20.527344 17.921875 Z M 21.964844 20.664062 "/>
</g>
</svg>
