<?xml version="1.0" encoding="UTF-8"?>
<svg xmlns="http://www.w3.org/2000/svg" xmlns:xlink="http://www.w3.org/1999/xlink" width="32" height="32" viewBox="0 0 32 32" version="1.1">
<g id="surface1">
<path style=" stroke:none;fill-rule:nonzero;fill:rgb(100%,100%,100%);fill-opacity:1;" d="M 31.996094 16.800781 C 31.996094 14.109375 30.324219 11.785156 27.84375 10.871094 C 27.945312 10.300781 28 9.726562 28 9.148438 C 28 4.15625 23.949219 0.109375 18.960938 0.109375 C 16.0625 0.109375 13.347656 1.492188 11.648438 3.871094 C 10.8125 3.21875 9.792969 2.878906 8.722656 2.878906 C 6.085938 2.878906 3.917969 5.019531 3.917969 7.683594 C 3.917969 8.257812 4.023438 8.832031 4.203125 9.355469 C 1.699219 10.21875 0 12.621094 0 15.285156 C 0 17.972656 1.671875 20.324219 4.179688 21.238281 C 4.074219 21.789062 4.023438 22.363281 4.023438 22.964844 C 4.023438 27.925781 8.070312 31.972656 13.03125 31.972656 C 15.957031 31.972656 18.648438 30.5625 20.347656 28.210938 C 21.183594 28.867188 22.226562 29.230469 23.296875 29.230469 C 25.933594 29.230469 28.101562 27.089844 28.101562 24.425781 C 28.101562 23.851562 28 23.277344 27.816406 22.753906 C 30.269531 21.867188 31.996094 19.464844 31.996094 16.800781 Z M 31.996094 16.800781 "/>
<path style=" stroke:none;fill-rule:nonzero;fill:rgb(95.686275%,74.117649%,9.803922%);fill-opacity:1;" d="M 12.511719 13.796875 L 19.640625 17.058594 L 26.851562 10.738281 C 26.953125 10.214844 27.007812 9.679688 27.007812 9.148438 C 27.007812 4.707031 23.402344 1.101562 18.960938 1.101562 C 16.296875 1.101562 13.816406 2.40625 12.328125 4.601562 L 11.125 10.816406 Z M 12.511719 13.796875 "/>
<path style=" stroke:none;fill-rule:nonzero;fill:rgb(23.529412%,74.509805%,69.411767%);fill-opacity:1;" d="M 5.117188 21.34375 C 5.015625 21.867188 4.960938 22.414062 4.960938 22.964844 C 4.960938 27.402344 8.59375 31.035156 13.03125 31.035156 C 15.722656 31.035156 18.203125 29.703125 19.71875 27.507812 L 20.894531 21.292969 L 19.300781 18.261719 L 12.144531 14.996094 Z M 5.117188 21.34375 "/>
<path style=" stroke:none;fill-rule:nonzero;fill:rgb(91.37255%,27.843139%,54.901963%);fill-opacity:1;" d="M 5.066406 8.988281 L 9.949219 10.140625 L 11.046875 4.574219 C 10.367188 4.054688 9.558594 3.792969 8.699219 3.792969 C 6.582031 3.792969 4.832031 5.515625 4.832031 7.65625 C 4.832031 8.101562 4.910156 8.570312 5.066406 8.988281 Z M 5.066406 8.988281 "/>
<path style=" stroke:none;fill-rule:nonzero;fill:rgb(17.254902%,27.058825%,56.078434%);fill-opacity:1;" d="M 4.648438 10.164062 C 2.457031 10.871094 0.941406 12.984375 0.941406 15.285156 C 0.941406 17.53125 2.324219 19.542969 4.414062 20.324219 L 11.28125 14.109375 L 10.03125 11.417969 Z M 4.648438 10.164062 "/>
<path style=" stroke:none;fill-rule:nonzero;fill:rgb(58.431375%,77.64706%,23.921569%);fill-opacity:1;" d="M 20.972656 27.480469 C 21.652344 28.003906 22.460938 28.292969 23.296875 28.292969 C 25.414062 28.292969 27.164062 26.566406 27.164062 24.425781 C 27.164062 23.957031 27.085938 23.511719 26.929688 23.09375 L 22.042969 21.945312 Z M 20.972656 27.480469 "/>
<path style=" stroke:none;fill-rule:nonzero;fill:rgb(9.019608%,40.000001%,33.333334%);fill-opacity:1;" d="M 21.964844 20.664062 L 27.347656 21.917969 C 29.539062 21.1875 31.054688 19.097656 31.054688 16.800781 C 31.054688 14.554688 29.671875 12.566406 27.582031 11.757812 L 20.527344 17.921875 Z M 21.964844 20.664062 "/>
</g>
</svg>
