<svg role="img" viewBox="0 0 32 32" xmlns="http://www.w3.org/2000/svg"><path d="M27.863 7.355v-.003A13.468 13.468 0 0 0 17.5 2.5c-5.3 0-9.883 3.055-12.094 7.5h17.598a5.348 5.348 0 0 0 3.457-1.25c.5-.422.973-.879 1.402-1.395" style="stroke:none;fill-rule:evenodd;fill:rgb(99.607843%,77.254903%,7.843138%);fill-opacity:1"/><path d="M4 16c0 1.21.16 2.383.46 3.5H21a3.5 3.5 0 1 0 0-7H4.46C4.16 13.617 4 14.79 4 16" style="stroke:none;fill-rule:evenodd;fill:rgb(20.392157%,21.568628%,25.490198%);fill-opacity:1"/><path d="M27.863 24.645v.003A13.468 13.468 0 0 1 17.5 29.5c-5.3 0-9.883-3.055-12.094-7.5h17.598a5.35 5.35 0 0 1 3.457 1.25c.5.422.973.879 1.402 1.395" style="stroke:none;fill-rule:evenodd;fill:rgb(0%,74.901962%,70.19608%);fill-opacity:1"/></svg>