<svg role="img" viewBox="0 0 32 32" xmlns="http://www.w3.org/2000/svg"><path d="M31.996 16.8c0-2.69-1.672-5.015-4.152-5.929A9.81 9.81 0 0 0 28 9.148C28 4.156 23.95.11 18.96.11a8.96 8.96 0 0 0-7.312 3.762 4.72 4.72 0 0 0-2.925-.992 4.809 4.809 0 0 0-4.805 4.805c0 .574.105 1.148.285 1.671C1.7 10.22 0 12.621 0 15.285a6.318 6.318 0 0 0 4.18 5.953 9.157 9.157 0 0 0-.157 1.727c0 4.96 4.047 9.008 9.008 9.008 2.926 0 5.617-1.41 7.317-3.762a4.789 4.789 0 0 0 2.949 1.02 4.809 4.809 0 0 0 4.805-4.805c0-.574-.102-1.149-.286-1.672 2.454-.887 4.18-3.29 4.18-5.953m0 0" style="stroke:none;fill-rule:nonzero;fill:rgb(100%,100%,100%);fill-opacity:1"/><path d="m12.512 13.797 7.129 3.262 7.21-6.32a8.05 8.05 0 0 0-7.89-9.637 7.995 7.995 0 0 0-6.633 3.5l-1.203 6.214Zm0 0" style="stroke:none;fill-rule:nonzero;fill:rgb(95.686275%,74.117649%,9.803922%);fill-opacity:1"/><path d="M5.117 21.344a8.543 8.543 0 0 0-.156 1.62c0 4.438 3.633 8.071 8.07 8.071a8.119 8.119 0 0 0 6.688-3.527l1.176-6.215-1.594-3.031-7.156-3.266Zm0 0" style="stroke:none;fill-rule:nonzero;fill:rgb(23.529412%,74.509805%,69.411767%);fill-opacity:1"/><path d="m5.066 8.988 4.883 1.153 1.098-5.567a3.815 3.815 0 0 0-2.348-.781 3.873 3.873 0 0 0-3.633 5.195m0 0" style="stroke:none;fill-rule:nonzero;fill:rgb(91.37255%,27.843139%,54.901963%);fill-opacity:1"/><path d="M4.648 10.164c-2.191.707-3.707 2.82-3.707 5.121a5.37 5.37 0 0 0 3.473 5.04l6.867-6.216-1.25-2.691Zm0 0" style="stroke:none;fill-rule:nonzero;fill:rgb(17.254902%,27.058825%,56.078434%);fill-opacity:1"/><path d="M20.973 27.48c.68.524 1.488.813 2.324.813a3.876 3.876 0 0 0 3.633-5.2l-4.887-1.148Zm0 0" style="stroke:none;fill-rule:nonzero;fill:rgb(58.431375%,77.64706%,23.921569%);fill-opacity:1"/><path d="m21.965 20.664 5.383 1.254c2.191-.73 3.707-2.82 3.707-5.117a5.402 5.402 0 0 0-3.473-5.043l-7.055 6.164Zm0 0" style="stroke:none;fill-rule:nonzero;fill:rgb(9.019608%,40.000001%,33.333334%);fill-opacity:1"/></svg>