<?xml version="1.0" encoding="UTF-8"?>
<svg xmlns="http://www.w3.org/2000/svg" xmlns:xlink="http://www.w3.org/1999/xlink" width="32" height="32" viewBox="0 0 32 32" version="1.1">
<g id="surface1">
<path style=" stroke:none;fill-rule:evenodd;fill:rgb(99.607843%,77.254903%,7.843138%);fill-opacity:1;" d="M 27.863281 7.355469 L 27.863281 7.351562 C 25.300781 4.273438 21.503906 2.496094 17.5 2.5 C 12.199219 2.5 7.617188 5.554688 5.40625 10 L 23.003906 10 C 24.269531 10.003906 25.492188 9.5625 26.460938 8.75 C 26.960938 8.328125 27.433594 7.871094 27.863281 7.355469 "/>
<path style=" stroke:none;fill-rule:evenodd;fill:rgb(20.392157%,21.568628%,25.490198%);fill-opacity:1;" d="M 4 16 C 4 17.210938 4.160156 18.382812 4.460938 19.5 L 21 19.5 C 22.933594 19.5 24.5 17.933594 24.5 16 C 24.5 14.066406 22.933594 12.5 21 12.5 L 4.460938 12.5 C 4.160156 13.617188 4 14.789062 4 16 "/>
<path style=" stroke:none;fill-rule:evenodd;fill:rgb(0%,74.901962%,70.19608%);fill-opacity:1;" d="M 27.863281 24.644531 L 27.863281 24.648438 C 25.300781 27.726562 21.503906 29.503906 17.5 29.5 C 12.199219 29.5 7.617188 26.445312 5.40625 22 L 23.003906 22 C 24.269531 21.996094 25.492188 22.4375 26.460938 23.25 C 26.960938 23.671875 27.433594 24.128906 27.863281 24.644531 "/>
</g>
</svg>
