<svg xmlns="http://www.w3.org/2000/svg" width="32" height="32" stroke="none" stroke-linecap="round" stroke-linejoin="round" fill="#fff" fill-rule="evenodd"><path d="M0 16.6313C0 8.117 7.136 1.2626 16 1.2626S32 8.117 32 16.6313 24.864 32 16 32 0 25.1455 0 16.6313z" fill="#9d5025"/><path d="M0 15.3687C0 6.8544 7.136 0 16 0s16 6.8544 16 15.3687-7.136 15.3687-16 15.3687S0 23.8829 0 15.3687z" fill="#f58536"/><path d="M2.5501 10.8839h5.81v8.9697h-5.81zM21.116 4.7576h5.1844v4.9798H21.116zm0 8.1212h5.1844v4.9798H21.116zm0 8.1263h5.1844v4.9798H21.116z"/><path d="M19.6858 16.0253l.8623-.4091.5679-.2677-.5679-.2727-.7676-.3637-2.3136-1.0959v1.0959h-6.9457l7.8922-4.8535.6257.9293 1.3092-2.1212.3839-.6262.3838-.6162-.7361.0858-.836.091-2.4713.2778.5942.8788-9.68 5.9544-1.0673.6566 1.2724.7778 9.4749 5.8333-.5942.8788 2.4713.2778.836.0909.7361.0859-.3838-.6162-.3839-.6262-1.3092-2.1212-.6257.9293-7.8922-4.8536h6.9457v1.0556l2.2189-1.0556z"/></svg>