<svg role="img" viewBox="0 0 44 32" xmlns="http://www.w3.org/2000/svg"><path d="m13.398 19.613-.058-2.57-2.7-1.68.055 2.57Zm3.836 6.426-.058-2.516-2.36-1.472a.423.423 0 0 1-.097-.074l.058 2.53ZM8.79 29.422l-6.18-3.836-.152-6.426 3.023-1.305-.054-2.57-4.84 2.078c-.379.172-.606.512-.586.91l.191 7.707c0 .399.247.793.622 1.02l7.406 4.594c.34.207.758.265 1.117.168.035-.02.074-.02.113-.035l4.555-1.965-2.477-1.532Zm0 0" style="stroke:none;fill-rule:nonzero;fill:rgb(70.19608%,10.196079%,67.058825%);fill-opacity:1"/><path d="M28.758 15.21a1.473 1.473 0 0 0-.735-1.19l-8.996-5.575-.28.114.054 2.703 7.125 4.422.168 7.218 2.722 1.68.153-.055Zm-10.77 12.68-8.37-5.18-.208-8.69 3.817-1.645-.075-3.004-5.914 2.55c-.433.192-.699.587-.68 1.06l.247 10.203c0 .472.28.925.734 1.191l9.809 6.086c.394.242.886.32 1.304.187a.246.246 0 0 1 .114-.039l5.78-2.492-2.874-1.777Zm0 0" style="stroke:none;fill-rule:nonzero;fill:rgb(81.960785%,38.82353%,80.784315%);fill-opacity:1"/><path d="M41.512 8.07 28.949.285c-.472-.285-1.023-.36-1.492-.207-.039.016-.098.035-.133.055L15.06 5.422c-.489.21-.793.664-.774 1.21l.305 13.075c.015.531.34 1.059.848 1.363l12.566 7.782a1.83 1.83 0 0 0 1.492.21c.04-.019.094-.039.133-.058l12.262-5.29a1.25 1.25 0 0 0 .773-1.21l-.3-13.074c-.02-.532-.34-1.04-.852-1.36M28.738 25.926 17.82 19.16l-.265-11.355L28.21 3.21l10.922 6.766.265 11.355Zm0 0" style="stroke:none;fill-rule:nonzero;fill:rgb(88.235295%,24.313726%,68.627453%);fill-opacity:1"/></svg>