<svg xmlns="http://www.w3.org/2000/svg" width="33" height="24" stroke="none" stroke-linecap="round" stroke-linejoin="round" fill="#fff" fill-rule="nonzero"><path d="M10.0482 14.7102l-.0426-1.9273-2.0264-1.2612.0425 1.9273zm2.8768 4.8182l-.0426-1.8847-1.7714-1.1054c-.0283-.0142-.0566-.0425-.0708-.0567l.0425 1.8989zM6.5904 22.065l-4.6339-2.8767-.1134-4.8182 2.2674-.9779-.0425-1.9272-3.6279 1.5588c-.2834.1275-.4535.3826-.4393.6802l.1417 5.7819c0 .2976.1843.5951.4677.7652l5.5551 3.4436c.255.1559.5668.1984.8361.1276.0283-.0142.0567-.0142.085-.0283l3.4152-1.4739-1.8564-1.1479z" fill="#b31aab"/><path d="M21.5694 11.4083c-.0142-.3401-.2126-.6944-.5527-.8928L14.2712 6.335l-.2126.085.0426 2.0265 5.3425 3.3161.1275 5.4134 2.0407 1.2612.1134-.0425zm-8.0776 9.5088l-6.2779-3.8828-.1558-6.5188 2.8625-1.2329-.0566-2.2532-4.4356 1.9131c-.3259.1417-.5243.4393-.5102.7936l.1843 7.6524c0 .3543.2125.6944.5526.8929l7.3549 4.5631c.2976.1842.666.2409.9778.1417.0283-.0142.0567-.0284.085-.0284l4.3364-1.8706-2.154-1.3321z" fill="#d163ce"/><path d="M31.1349 6.0517L21.711.2131c-.3542-.2126-.7652-.2692-1.1195-.1559-.0283.0142-.0708.0284-.0992.0425l-9.1971 3.968c-.3684.1559-.5952.496-.581.907l.2268 9.8064c.0141.3968.255.7936.6376 1.0203l9.4239 5.8386c.3401.2125.7653.2692 1.1195.1558.0284-.0141.0709-.0283.0992-.0425l9.1971-3.9679c.3685-.1559.5952-.5101.581-.907l-.2267-9.8064c-.0142-.3968-.2551-.7795-.6377-1.0203m-9.5798 13.3917l-8.1909-5.0733-.1983-8.5168 7.9925-3.4437 8.1909 5.0733.1984 8.5169z" fill="#e13eaf"/></svg>