<?xml version="1.0" encoding="UTF-8"?>
<svg xmlns="http://www.w3.org/2000/svg" xmlns:xlink="http://www.w3.org/1999/xlink" width="44" height="32" viewBox="0 0 44 32" version="1.1">
<g id="surface1">
<path style=" stroke:none;fill-rule:nonzero;fill:rgb(70.19608%,10.196079%,67.058825%);fill-opacity:1;" d="M 13.398438 19.613281 L 13.339844 17.042969 L 10.640625 15.363281 L 10.695312 17.933594 Z M 17.234375 26.039062 L 17.175781 23.523438 L 14.816406 22.050781 C 14.78125 22.03125 14.746094 22.007812 14.71875 21.976562 L 14.777344 24.507812 Z M 8.789062 29.421875 L 2.609375 25.585938 L 2.457031 19.160156 L 5.480469 17.855469 L 5.425781 15.285156 L 0.585938 17.363281 C 0.207031 17.535156 -0.0195312 17.875 0 18.273438 L 0.191406 25.980469 C 0.191406 26.378906 0.4375 26.773438 0.8125 27 L 8.21875 31.59375 C 8.558594 31.800781 8.976562 31.859375 9.335938 31.761719 C 9.371094 31.742188 9.410156 31.742188 9.449219 31.726562 L 14.003906 29.761719 L 11.527344 28.230469 Z M 8.789062 29.421875 "/>
<path style=" stroke:none;fill-rule:nonzero;fill:rgb(81.960785%,38.82353%,80.784315%);fill-opacity:1;" d="M 28.757812 15.210938 C 28.730469 14.714844 28.453125 14.269531 28.023438 14.019531 L 19.027344 8.445312 L 18.746094 8.558594 L 18.800781 11.261719 L 25.925781 15.683594 L 26.09375 22.902344 L 28.816406 24.582031 L 28.96875 24.527344 Z M 17.988281 27.890625 L 9.617188 22.710938 L 9.410156 14.019531 L 13.226562 12.375 L 13.152344 9.371094 L 7.238281 11.921875 C 6.804688 12.113281 6.539062 12.507812 6.558594 12.980469 L 6.804688 23.183594 C 6.804688 23.65625 7.085938 24.109375 7.539062 24.375 L 17.347656 30.460938 C 17.742188 30.703125 18.234375 30.78125 18.652344 30.648438 C 18.6875 30.625 18.726562 30.613281 18.765625 30.609375 L 24.546875 28.117188 L 21.671875 26.339844 Z M 17.988281 27.890625 "/>
<path style=" stroke:none;fill-rule:nonzero;fill:rgb(88.235295%,24.313726%,68.627453%);fill-opacity:1;" d="M 41.511719 8.070312 L 28.949219 0.285156 C 28.476562 0 27.925781 -0.0742188 27.457031 0.078125 C 27.417969 0.09375 27.359375 0.113281 27.324219 0.132812 L 15.058594 5.421875 C 14.570312 5.632812 14.265625 6.085938 14.285156 6.632812 L 14.589844 19.707031 C 14.605469 20.238281 14.929688 20.765625 15.4375 21.070312 L 28.003906 28.851562 C 28.449219 29.132812 28.992188 29.210938 29.496094 29.0625 C 29.535156 29.042969 29.589844 29.023438 29.628906 29.003906 L 41.890625 23.714844 C 42.378906 23.511719 42.6875 23.03125 42.664062 22.503906 L 42.363281 9.429688 C 42.34375 8.898438 42.023438 8.390625 41.511719 8.070312 M 28.738281 25.925781 L 17.820312 19.160156 L 17.554688 7.804688 L 28.210938 3.210938 L 39.132812 9.976562 L 39.398438 21.332031 Z M 28.738281 25.925781 "/>
</g>
</svg>
