<?xml version="1.0" encoding="UTF-8"?>
<svg xmlns="http://www.w3.org/2000/svg" xmlns:xlink="http://www.w3.org/1999/xlink" width="32" height="32" viewBox="0 0 32 32" version="1.1">
<defs>
<clipPath id="clip1">
  <path d="M 1 3 L 31 3 L 31 28 L 1 28 Z M 1 3 "/>
</clipPath>
<clipPath id="clip2">
  <path d="M 0 32 L 0 0 L 32 0 L 32 32 Z M 23.039062 10.496094 C 19.660156 10.496094 16.894531 13.261719 16.894531 16.640625 C 16.894531 20.019531 19.660156 22.785156 23.039062 22.785156 C 26.417969 22.785156 29.183594 20.019531 29.183594 16.640625 C 29.183594 13.261719 26.417969 10.496094 23.039062 10.496094 "/>
</clipPath>
</defs>
<g id="surface1">
<g clip-path="url(#clip1)" clip-rule="nonzero">
<g clip-path="url(#clip2)" clip-rule="nonzero">
<path style=" stroke:none;fill-rule:nonzero;fill:rgb(0%,0%,0%);fill-opacity:1;" d="M 1.28125 3.839844 L 1.28125 5.121094 L 3.839844 5.121094 C 4.203125 5.121094 4.480469 5.398438 4.480469 5.761719 L 4.480469 27.519531 L 5.761719 27.519531 L 5.761719 24.320312 L 8.320312 24.320312 L 8.320312 22.398438 C 8.320312 22.046875 8.609375 21.761719 8.960938 21.761719 L 15.359375 21.761719 C 15.710938 21.761719 16 22.046875 16 22.398438 L 16 24.320312 L 30.078125 24.320312 L 30.078125 9.601562 L 5.761719 9.601562 L 5.761719 5.761719 C 5.761719 4.707031 4.894531 3.839844 3.839844 3.839844 Z M 19.839844 11.519531 L 21.121094 11.519531 L 21.121094 13.441406 L 19.839844 13.441406 L 19.839844 14.71875 L 17.921875 14.71875 L 17.921875 13.441406 L 19.839844 13.441406 Z M 22.398438 11.519531 L 23.679688 11.519531 L 23.679688 13.441406 L 22.398438 13.441406 Z M 24.960938 11.519531 L 26.238281 11.519531 L 26.238281 13.441406 L 28.160156 13.441406 L 28.160156 14.71875 L 26.238281 14.71875 L 26.238281 13.441406 L 24.960938 13.441406 Z M 13.441406 12.800781 C 14.148438 12.800781 14.71875 13.375 14.71875 14.078125 C 14.71875 14.785156 14.148438 15.359375 13.441406 15.359375 C 12.734375 15.359375 12.160156 14.785156 12.160156 14.078125 C 12.160156 13.375 12.734375 12.800781 13.441406 12.800781 M 5.761719 13.441406 L 8.320312 13.441406 L 8.320312 18.558594 L 5.761719 18.558594 Z M 17.921875 16 L 19.839844 16 L 19.839844 17.28125 L 17.921875 17.28125 Z M 26.238281 16 L 28.160156 16 L 28.160156 17.28125 L 26.238281 17.28125 Z M 17.921875 18.558594 L 19.839844 18.558594 L 19.839844 19.839844 L 21.121094 19.839844 L 21.121094 21.761719 L 19.839844 21.761719 L 19.839844 19.839844 L 17.921875 19.839844 Z M 26.238281 18.558594 L 28.160156 18.558594 L 28.160156 19.839844 L 26.238281 19.839844 L 26.238281 21.761719 L 24.960938 21.761719 L 24.960938 19.839844 L 26.238281 19.839844 Z M 22.398438 19.839844 L 23.679688 19.839844 L 23.679688 21.761719 L 22.398438 21.761719 Z M 22.398438 19.839844 "/>
</g>
</g>
<path style=" stroke:none;fill-rule:nonzero;fill:rgb(0%,0%,0%);fill-opacity:1;" d="M 23.039062 11.519531 C 20.222656 11.519531 17.921875 13.824219 17.921875 16.640625 C 17.921875 19.457031 20.222656 21.761719 23.039062 21.761719 C 25.855469 21.761719 28.160156 19.457031 28.160156 16.640625 C 28.160156 13.824219 25.855469 11.519531 23.039062 11.519531 M 23.550781 19.097656 C 23.550781 19.148438 23.5 19.199219 23.449219 19.199219 L 22.628906 19.199219 C 22.578125 19.199219 22.527344 19.148438 22.527344 19.097656 L 22.527344 18.277344 C 22.527344 18.226562 22.578125 18.175781 22.628906 18.175781 L 23.449219 18.175781 C 23.5 18.175781 23.550781 18.226562 23.550781 18.277344 Z M 23.550781 17.050781 C 23.550781 17.101562 23.5 17.152344 23.449219 17.152344 L 22.628906 17.152344 C 22.578125 17.152344 22.527344 17.101562 22.527344 17.050781 L 22.527344 14.183594 C 22.527344 14.132812 22.578125 14.078125 22.628906 14.078125 L 23.449219 14.078125 C 23.5 14.078125 23.550781 14.132812 23.550781 14.183594 Z M 23.550781 17.050781 "/>
</g>
</svg>
