<?xml version="1.0" encoding="UTF-8"?>
<svg xmlns="http://www.w3.org/2000/svg" xmlns:xlink="http://www.w3.org/1999/xlink" width="32" height="32" viewBox="0 0 32 32" version="1.1">
<g id="surface1">
<path style=" stroke:none;fill-rule:nonzero;fill:rgb(0%,0%,0%);fill-opacity:1;" d="M 31.859375 29.023438 L 16.554688 2.515625 C 16.324219 2.121094 15.675781 2.121094 15.445312 2.515625 L 0.0859375 29.121094 C -0.0273438 29.316406 -0.0273438 29.5625 0.0859375 29.761719 C 0.199219 29.957031 0.414062 30.078125 0.640625 30.078125 L 31.371094 30.078125 C 31.726562 30.078125 32.011719 29.796875 32.011719 29.441406 C 32.011719 29.289062 31.957031 29.140625 31.859375 29.023438 M 15.035156 12.328125 C 15.035156 12.191406 15.128906 12.101562 15.265625 12.101562 L 16.734375 12.101562 C 16.871094 12.101562 16.960938 12.191406 16.960938 12.328125 L 16.960938 21.585938 C 16.960938 21.722656 16.871094 21.816406 16.734375 21.816406 L 15.265625 21.816406 C 15.203125 21.820312 15.144531 21.796875 15.097656 21.75 C 15.054688 21.707031 15.03125 21.648438 15.035156 21.585938 Z M 17.011719 25.558594 C 17.011719 25.699219 16.917969 25.789062 16.78125 25.789062 L 15.21875 25.789062 C 15.082031 25.789062 14.992188 25.695312 14.992188 25.558594 L 14.992188 23.882812 C 14.992188 23.746094 15.085938 23.65625 15.21875 23.65625 L 16.78125 23.65625 C 16.921875 23.65625 17.011719 23.746094 17.011719 23.882812 Z M 17.011719 25.558594 "/>
</g>
</svg>
