<?xml version="1.0" encoding="utf-8"?>
<svg xmlns="http://www.w3.org/2000/svg" viewBox="0 0 50 50" fill="#000000"><path d="M 49.777344 45.347656 L 25.867188 3.929688 C 25.507813 3.3125 24.492188 3.3125 24.132813 3.929688 L 0.132813 45.5 C -0.0429688 45.808594 -0.0429688 46.191406 0.132813 46.5 C 0.3125 46.808594 0.644531 47 1 47 L 49 47 C 49.007813 47 49.015625 47 49.019531 47 C 49.574219 47 50.019531 46.554688 50.019531 46 C 50.019531 45.75 49.929688 45.523438 49.777344 45.347656 Z M 23.492188 19.265625 C 23.492188 19.050781 23.636719 18.90625 23.851563 18.90625 L 26.148438 18.90625 C 26.363281 18.90625 26.503906 19.050781 26.503906 19.265625 L 26.503906 33.726563 C 26.503906 33.941406 26.363281 34.085938 26.148438 34.085938 L 23.851563 34.085938 C 23.636719 34.085938 23.492188 33.941406 23.492188 33.726563 Z M 26.578125 39.9375 C 26.578125 40.152344 26.433594 40.292969 26.222656 40.292969 L 23.78125 40.292969 C 23.566406 40.292969 23.425781 40.148438 23.425781 39.9375 L 23.425781 37.316406 C 23.425781 37.101563 23.570313 36.960938 23.78125 36.960938 L 26.222656 36.960938 C 26.4375 36.960938 26.578125 37.101563 26.578125 37.316406 Z" fill="#000000"/></svg>
