<svg role="img" viewBox="0 0 33.422 32" xmlns="http://www.w3.org/2000/svg"><path d="M15.223 14.297a2.073 2.073 0 1 1-4.145 0 2.071 2.071 0 0 1 4.145 0m2.683 0a2.073 2.073 0 1 0 4.145 0 2.071 2.071 0 0 0-4.145 0m14.114 2.25c-.149.012-.301.02-.461.02-.922 0-1.82-.22-2.63-.614.27-1.547.384-3.105.352-4.656a23.872 23.872 0 0 0-3.011-3.57 6.005 6.005 0 0 1 2.125-2.278l.39-.242-.305-.34A15.83 15.83 0 0 0 22.938.824l-.422-.183-.106.445a5.979 5.979 0 0 1-1.504 2.726 24.15 24.15 0 0 0-4.343-1.789 24.297 24.297 0 0 0-4.336 1.786 5.959 5.959 0 0 1-1.497-2.72l-.109-.448-.418.183A16.026 16.026 0 0 0 4.66 4.867l-.305.34.391.242a5.97 5.97 0 0 1 2.117 2.262 24.643 24.643 0 0 0-3.008 3.559c-.03 1.55.075 3.12.348 4.687a5.96 5.96 0 0 1-3.078.59l-.457-.035.043.457a15.782 15.782 0 0 0 2.133 6.523l.23.395.352-.297a5.951 5.951 0 0 1 2.824-1.32 24.177 24.177 0 0 0 2.418 3.937c1.469.512 2.996.895 4.578 1.125a5.929 5.929 0 0 1-.383 3.125l-.172.426.446.097c1.148.25 2.3.38 3.433.38l3.43-.38.45-.097-.177-.426a5.98 5.98 0 0 1-.378-3.129 24.263 24.263 0 0 0 4.562-1.121 24.337 24.337 0 0 0 2.422-3.941 5.96 5.96 0 0 1 2.836 1.324l.351.293.23-.39a15.775 15.775 0 0 0 2.13-6.524l.043-.457Zm-10.547 5.578c-1.621.441-3.27.664-4.91.664-1.641 0-3.29-.223-4.915-.664a19.13 19.13 0 0 1-2.101-4.434 18.867 18.867 0 0 1-.887-4.859 18.84 18.84 0 0 1 3.559-3.39 18.945 18.945 0 0 1 4.344-2.36c1.546.594 3 1.383 4.335 2.356a18.677 18.677 0 0 1 3.575 3.41 18.759 18.759 0 0 1-.895 4.84 18.857 18.857 0 0 1-2.105 4.437m0 0" style="stroke:none;fill-rule:nonzero;fill:rgb(25.490198%,61.960787%,85.490197%);fill-opacity:1"/></svg>