<?xml version="1.0" encoding="UTF-8"?>
<svg xmlns="http://www.w3.org/2000/svg" xmlns:xlink="http://www.w3.org/1999/xlink" width="33.422222" height="32" viewBox="0 0 33.422222 32" version="1.1">
<g id="surface1">
<path style=" stroke:none;fill-rule:nonzero;fill:rgb(25.490198%,61.960787%,85.490197%);fill-opacity:1;" d="M 15.222656 14.296875 C 15.222656 15.445312 14.292969 16.375 13.148438 16.375 C 12.003906 16.375 11.078125 15.445312 11.078125 14.296875 C 11.078125 13.15625 12.003906 12.226562 13.148438 12.226562 C 14.292969 12.226562 15.222656 13.15625 15.222656 14.296875 Z M 15.222656 14.296875 "/>
<path style=" stroke:none;fill-rule:nonzero;fill:rgb(25.490198%,61.960787%,85.490197%);fill-opacity:1;" d="M 17.90625 14.296875 C 17.90625 15.445312 18.832031 16.375 19.980469 16.375 C 21.125 16.375 22.050781 15.445312 22.050781 14.296875 C 22.050781 13.15625 21.125 12.226562 19.980469 12.226562 C 18.832031 12.226562 17.90625 13.15625 17.90625 14.296875 Z M 17.90625 14.296875 "/>
<path style=" stroke:none;fill-rule:nonzero;fill:rgb(25.490198%,61.960787%,85.490197%);fill-opacity:1;" d="M 32.019531 16.546875 C 31.871094 16.558594 31.71875 16.566406 31.558594 16.566406 C 30.636719 16.566406 29.738281 16.347656 28.929688 15.953125 C 29.199219 14.40625 29.3125 12.847656 29.28125 11.296875 C 28.40625 10.027344 27.402344 8.828125 26.269531 7.726562 C 26.761719 6.804688 27.488281 6.011719 28.394531 5.449219 L 28.785156 5.207031 L 28.480469 4.867188 C 26.917969 3.105469 25.050781 1.746094 22.9375 0.824219 L 22.515625 0.640625 L 22.410156 1.085938 C 22.15625 2.125 21.628906 3.0625 20.90625 3.8125 C 19.515625 3.074219 18.0625 2.476562 16.5625 2.023438 C 15.070312 2.476562 13.617188 3.070312 12.226562 3.808594 C 11.507812 3.058594 10.980469 2.125 10.730469 1.089844 L 10.621094 0.640625 L 10.203125 0.824219 C 8.113281 1.734375 6.199219 3.132812 4.660156 4.867188 L 4.355469 5.207031 L 4.746094 5.449219 C 5.648438 6.007812 6.375 6.796875 6.863281 7.710938 C 5.734375 8.8125 4.734375 10.007812 3.855469 11.269531 C 3.824219 12.820312 3.929688 14.390625 4.203125 15.957031 C 3.394531 16.351562 2.503906 16.566406 1.585938 16.566406 C 1.425781 16.566406 1.273438 16.558594 1.125 16.546875 L 0.667969 16.511719 L 0.710938 16.96875 C 0.9375 19.277344 1.652344 21.472656 2.84375 23.492188 L 3.074219 23.886719 L 3.425781 23.589844 C 4.234375 22.90625 5.210938 22.449219 6.25 22.269531 C 6.933594 23.667969 7.746094 24.984375 8.667969 26.207031 C 10.136719 26.71875 11.664062 27.101562 13.246094 27.332031 C 13.398438 28.375 13.277344 29.457031 12.863281 30.457031 L 12.691406 30.882812 L 13.136719 30.980469 C 14.285156 31.230469 15.4375 31.359375 16.570312 31.359375 L 20 30.980469 L 20.449219 30.882812 L 20.273438 30.457031 C 19.863281 29.457031 19.742188 28.375 19.894531 27.328125 C 21.46875 27.101562 22.996094 26.71875 24.457031 26.207031 C 25.378906 24.984375 26.191406 23.667969 26.878906 22.265625 C 27.921875 22.445312 28.902344 22.902344 29.714844 23.589844 L 30.066406 23.882812 L 30.296875 23.492188 C 31.488281 21.464844 32.203125 19.273438 32.425781 16.96875 L 32.46875 16.511719 Z M 21.472656 22.125 C 19.851562 22.566406 18.203125 22.789062 16.5625 22.789062 C 14.921875 22.789062 13.273438 22.566406 11.648438 22.125 C 10.757812 20.738281 10.054688 19.253906 9.546875 17.691406 C 9.042969 16.136719 8.746094 14.507812 8.660156 12.832031 C 9.710938 11.535156 10.902344 10.398438 12.21875 9.441406 C 13.558594 8.46875 15.015625 7.675781 16.5625 7.082031 C 18.109375 7.675781 19.5625 8.464844 20.898438 9.4375 C 22.222656 10.398438 23.421875 11.542969 24.472656 12.847656 C 24.382812 14.515625 24.085938 16.136719 23.578125 17.6875 C 23.074219 19.25 22.367188 20.738281 21.472656 22.125 Z M 21.472656 22.125 "/>
</g>
</svg>
