<svg role="img" viewBox="0 0 50 50" xmlns="http://www.w3.org/2000/svg"><path d="M14.938 4c-2.93 0-5.239 1.078-6.532 3.063-1.066 1.64-1.3 3.746-.625 5.718-.234.395-.355.918-.281 1.563.156 1.332.652 1.965 1.125 2.281.219.96.719 2.078 1.281 2.719v.125c.004.586.02 1.11-.031 1.75-.328.68-1.379 1.117-2.562 1.625C5.164 23.77 2.23 25.027 2 28.937c-.016.274.094.551.281.75.188.2.446.313.719.313h44a.97.97 0 0 0 .719-.312c.191-.2.297-.477.281-.75-.23-3.922-3.352-5.172-5.625-6.094-1.21-.492-2.352-.98-2.687-1.657-.051-.64-.036-1.132-.032-1.718v-.157c.551-.64 1.004-1.726 1.219-2.687.473-.316 1-.95 1.156-2.281.07-.586-.027-1.114-.25-1.531.489-1.34.469-3.504-.343-5.157-.684-1.39-1.82-2.215-3.25-2.406l-.344-.687A1.023 1.023 0 0 0 36.937 4c-2.93 0-5.242 1.082-6.53 3.063-1.067 1.64-1.27 3.746-.594 5.718-.235.395-.387.918-.313 1.563.156 1.332.652 1.969 1.125 2.281.219.965.719 2.078 1.281 2.719v.125c.004.586.02 1.105-.031 1.75-.328.68-1.379 1.117-2.562 1.625-1.446.62-3.247 1.398-4.344 3.031-1.157-1.637-3.063-2.41-4.594-3.031-1.21-.492-2.352-.98-2.687-1.657-.051-.636-.036-1.132-.032-1.718v-.157c.551-.64 1.004-1.726 1.219-2.687.473-.316 1-.95 1.156-2.281.07-.586-.027-1.114-.25-1.531.489-1.344.469-3.504-.343-5.157-.684-1.39-1.82-2.215-3.25-2.406l-.344-.687A1.023 1.023 0 0 0 14.938 4m26.968 29.969c-.043.008-.086.02-.125.031a.994.994 0 0 0-.781.703c-.105.367.004.758.281 1.016L44.563 39H30.906c-.55.027-.98.496-.953 1.047.027.55.496.98 1.047.953h13.563l-3.282 3.281a1.014 1.014 0 0 0 0 1.438c.399.398 1.04.398 1.438 0l4.843-4.875a.913.913 0 0 0 .22-.188v-.031c.062-.066.113-.14.156-.219v-.031a.466.466 0 0 0 .03-.062v-.032c.012-.031.024-.062.032-.093a1.048 1.048 0 0 0 0-.313v-.094a.466.466 0 0 0-.031-.062v-.032a.466.466 0 0 0-.032-.062v-.031a.466.466 0 0 0-.03-.063l-.032-.031a1.065 1.065 0 0 0-.156-.219h-.032a.472.472 0 0 0-.062-.062l-4.906-4.938a1.004 1.004 0 0 0-.813-.312M7.875 34a1.008 1.008 0 0 0-.594.281l-4.937 4.907a.472.472 0 0 0-.063.062v.031a.945.945 0 0 0-.125.125v.032a.472.472 0 0 0-.062.062v.031a.984.984 0 0 0-.125.344v.031a1.029 1.029 0 0 0 0 .157v.03c.015.157.07.305.156.438l.031.032c.008.019.02.042.031.062l.032.031.031.032.031.03a.906.906 0 0 0 .188.157l4.812 4.844c.399.398 1.04.398 1.438 0a1.014 1.014 0 0 0 0-1.438L5.438 41H19c.36.004.695-.184.879-.496a1.01 1.01 0 0 0 0-1.008c-.184-.312-.52-.5-.879-.496H5.438l3.28-3.281a.997.997 0 0 0 .216-1.172A.996.996 0 0 0 7.875 34M23 39c-.55 0-1 .45-1 1s.45 1 1 1 1-.45 1-1-.45-1-1-1m4 0c-.55 0-1 .45-1 1s.45 1 1 1 1-.45 1-1-.45-1-1-1"/></svg>