<?xml version="1.0" encoding="UTF-8"?>
<svg xmlns="http://www.w3.org/2000/svg" xmlns:xlink="http://www.w3.org/1999/xlink" width="32" height="32" viewBox="0 0 32 32" version="1.1">
<g id="surface1">
<path style=" stroke:none;fill-rule:nonzero;fill:rgb(0%,0%,0%);fill-opacity:1;" d="M 9.558594 2.558594 C 7.683594 2.558594 6.207031 3.25 5.378906 4.519531 C 4.699219 5.570312 4.546875 6.917969 4.980469 8.179688 C 4.832031 8.433594 4.753906 8.765625 4.800781 9.179688 C 4.898438 10.03125 5.21875 10.4375 5.519531 10.640625 C 5.660156 11.253906 5.980469 11.96875 6.339844 12.378906 L 6.339844 12.460938 C 6.34375 12.835938 6.351562 13.171875 6.320312 13.582031 C 6.109375 14.015625 5.4375 14.296875 4.679688 14.621094 C 3.304688 15.210938 1.425781 16.015625 1.28125 18.519531 C 1.269531 18.695312 1.339844 18.871094 1.460938 19 C 1.582031 19.128906 1.746094 19.199219 1.921875 19.199219 L 30.078125 19.199219 C 30.253906 19.199219 30.421875 19.128906 30.539062 19 C 30.664062 18.871094 30.730469 18.695312 30.71875 18.519531 C 30.574219 16.011719 28.574219 15.210938 27.121094 14.621094 C 26.34375 14.304688 25.613281 13.992188 25.398438 13.558594 C 25.367188 13.148438 25.378906 12.835938 25.378906 12.460938 L 25.378906 12.359375 C 25.734375 11.949219 26.023438 11.253906 26.160156 10.640625 C 26.460938 10.4375 26.800781 10.03125 26.898438 9.179688 C 26.945312 8.804688 26.882812 8.46875 26.738281 8.199219 C 27.054688 7.34375 27.039062 5.957031 26.519531 4.898438 C 26.082031 4.011719 25.355469 3.480469 24.441406 3.359375 L 24.21875 2.921875 C 24.109375 2.699219 23.886719 2.5625 23.640625 2.558594 C 21.765625 2.558594 20.285156 3.253906 19.460938 4.519531 C 18.777344 5.570312 18.648438 6.917969 19.082031 8.179688 C 18.929688 8.433594 18.832031 8.765625 18.878906 9.179688 C 18.980469 10.03125 19.296875 10.441406 19.601562 10.640625 C 19.738281 11.257812 20.058594 11.96875 20.417969 12.378906 L 20.417969 12.460938 C 20.421875 12.835938 20.433594 13.167969 20.398438 13.582031 C 20.191406 14.015625 19.515625 14.296875 18.761719 14.621094 C 17.835938 15.015625 16.683594 15.515625 15.980469 16.558594 C 15.238281 15.511719 14.019531 15.019531 13.039062 14.621094 C 12.265625 14.304688 11.535156 13.992188 11.320312 13.558594 C 11.289062 13.152344 11.296875 12.835938 11.300781 12.460938 L 11.300781 12.359375 C 11.652344 11.949219 11.941406 11.253906 12.078125 10.640625 C 12.382812 10.4375 12.71875 10.03125 12.820312 9.179688 C 12.863281 8.804688 12.800781 8.46875 12.660156 8.199219 C 12.972656 7.339844 12.960938 5.957031 12.441406 4.898438 C 12.003906 4.011719 11.277344 3.480469 10.359375 3.359375 L 10.140625 2.921875 C 10.03125 2.699219 9.804688 2.5625 9.558594 2.558594 M 26.820312 21.738281 C 26.792969 21.746094 26.765625 21.753906 26.738281 21.761719 C 26.5 21.800781 26.308594 21.976562 26.238281 22.210938 C 26.171875 22.445312 26.242188 22.695312 26.417969 22.859375 L 28.519531 24.960938 L 19.78125 24.960938 C 19.429688 24.976562 19.152344 25.277344 19.167969 25.628906 C 19.1875 25.980469 19.488281 26.257812 19.839844 26.238281 L 28.519531 26.238281 L 26.417969 28.339844 C 26.296875 28.460938 26.226562 28.628906 26.226562 28.800781 C 26.226562 28.972656 26.296875 29.136719 26.417969 29.261719 C 26.675781 29.515625 27.085938 29.515625 27.339844 29.261719 L 30.441406 26.140625 C 30.492188 26.109375 30.539062 26.066406 30.582031 26.019531 L 30.582031 26 C 30.621094 25.957031 30.652344 25.910156 30.679688 25.859375 L 30.679688 25.839844 C 30.6875 25.828125 30.695312 25.8125 30.699219 25.800781 L 30.699219 25.78125 C 30.707031 25.761719 30.714844 25.738281 30.71875 25.71875 C 30.730469 25.652344 30.730469 25.585938 30.71875 25.519531 L 30.71875 25.460938 C 30.714844 25.445312 30.707031 25.433594 30.699219 25.421875 L 30.699219 25.398438 C 30.695312 25.386719 30.6875 25.371094 30.679688 25.359375 L 30.679688 25.339844 C 30.675781 25.328125 30.667969 25.3125 30.660156 25.300781 L 30.640625 25.28125 C 30.613281 25.230469 30.578125 25.183594 30.539062 25.140625 L 30.519531 25.140625 C 30.507812 25.125 30.496094 25.113281 30.480469 25.101562 L 27.339844 21.941406 C 27.207031 21.796875 27.015625 21.722656 26.820312 21.738281 M 5.039062 21.761719 C 4.898438 21.777344 4.761719 21.839844 4.660156 21.941406 L 1.5 25.082031 C 1.484375 25.09375 1.472656 25.105469 1.460938 25.121094 L 1.460938 25.140625 C 1.429688 25.164062 1.402344 25.191406 1.378906 25.21875 L 1.378906 25.242188 C 1.367188 25.253906 1.351562 25.265625 1.339844 25.28125 L 1.339844 25.300781 C 1.300781 25.367188 1.273438 25.441406 1.261719 25.519531 L 1.261719 25.539062 C 1.257812 25.574219 1.257812 25.605469 1.261719 25.640625 L 1.261719 25.660156 C 1.269531 25.761719 1.304688 25.855469 1.359375 25.941406 L 1.378906 25.960938 C 1.386719 25.972656 1.394531 25.988281 1.398438 26 L 1.421875 26.019531 L 1.460938 26.058594 C 1.496094 26.097656 1.535156 26.132812 1.582031 26.160156 L 4.660156 29.261719 C 4.914062 29.515625 5.324219 29.515625 5.582031 29.261719 C 5.703125 29.136719 5.773438 28.972656 5.773438 28.800781 C 5.773438 28.628906 5.703125 28.460938 5.582031 28.339844 L 3.480469 26.238281 L 12.160156 26.238281 C 12.390625 26.242188 12.605469 26.121094 12.722656 25.921875 C 12.835938 25.722656 12.835938 25.476562 12.722656 25.277344 C 12.605469 25.078125 12.390625 24.957031 12.160156 24.960938 L 3.480469 24.960938 L 5.578125 22.859375 C 5.785156 22.667969 5.84375 22.363281 5.71875 22.109375 C 5.59375 21.855469 5.320312 21.714844 5.039062 21.761719 M 14.71875 24.960938 C 14.367188 24.960938 14.078125 25.246094 14.078125 25.601562 C 14.078125 25.953125 14.367188 26.238281 14.71875 26.238281 C 15.070312 26.238281 15.359375 25.953125 15.359375 25.601562 C 15.359375 25.246094 15.070312 24.960938 14.71875 24.960938 M 17.28125 24.960938 C 16.929688 24.960938 16.640625 25.246094 16.640625 25.601562 C 16.640625 25.953125 16.929688 26.238281 17.28125 26.238281 C 17.632812 26.238281 17.921875 25.953125 17.921875 25.601562 C 17.921875 25.246094 17.632812 24.960938 17.28125 24.960938 "/>
</g>
</svg>
