<svg xmlns="http://www.w3.org/2000/svg"  viewBox="0 0 50 50" width="32px" height="32px"><path d="M 14.9375 4 C 12.007813 4 9.699219 5.078125 8.40625 7.0625 C 7.339844 8.703125 7.105469 10.808594 7.78125 12.78125 C 7.546875 13.175781 7.425781 13.699219 7.5 14.34375 C 7.65625 15.675781 8.152344 16.308594 8.625 16.625 C 8.84375 17.585938 9.34375 18.703125 9.90625 19.34375 L 9.90625 19.46875 C 9.910156 20.054688 9.925781 20.578125 9.875 21.21875 C 9.546875 21.898438 8.496094 22.335938 7.3125 22.84375 C 5.164063 23.769531 2.230469 25.027344 2 28.9375 C 1.984375 29.210938 2.09375 29.488281 2.28125 29.6875 C 2.46875 29.886719 2.726563 30 3 30 L 47 30 C 47.273438 30 47.53125 29.890625 47.71875 29.6875 C 47.910156 29.488281 48.015625 29.210938 48 28.9375 C 47.769531 25.015625 44.648438 23.765625 42.375 22.84375 C 41.164063 22.351563 40.023438 21.863281 39.6875 21.1875 C 39.636719 20.546875 39.652344 20.054688 39.65625 19.46875 L 39.65625 19.3125 C 40.207031 18.671875 40.660156 17.585938 40.875 16.625 C 41.347656 16.308594 41.875 15.675781 42.03125 14.34375 C 42.101563 13.757813 42.003906 13.230469 41.78125 12.8125 C 42.269531 11.472656 42.25 9.308594 41.4375 7.65625 C 40.753906 6.265625 39.617188 5.441406 38.1875 5.25 L 37.84375 4.5625 C 37.675781 4.222656 37.316406 4 36.9375 4 C 34.007813 4 31.695313 5.082031 30.40625 7.0625 C 29.339844 8.703125 29.136719 10.808594 29.8125 12.78125 C 29.578125 13.175781 29.425781 13.699219 29.5 14.34375 C 29.65625 15.675781 30.152344 16.3125 30.625 16.625 C 30.84375 17.589844 31.34375 18.703125 31.90625 19.34375 L 31.90625 19.46875 C 31.910156 20.054688 31.925781 20.574219 31.875 21.21875 C 31.546875 21.898438 30.496094 22.335938 29.3125 22.84375 C 27.867188 23.464844 26.066406 24.242188 24.96875 25.875 C 23.8125 24.238281 21.90625 23.464844 20.375 22.84375 C 19.164063 22.351563 18.023438 21.863281 17.6875 21.1875 C 17.636719 20.550781 17.652344 20.054688 17.65625 19.46875 L 17.65625 19.3125 C 18.207031 18.671875 18.660156 17.585938 18.875 16.625 C 19.347656 16.308594 19.875 15.675781 20.03125 14.34375 C 20.101563 13.757813 20.003906 13.230469 19.78125 12.8125 C 20.269531 11.46875 20.25 9.308594 19.4375 7.65625 C 18.753906 6.265625 17.617188 5.441406 16.1875 5.25 L 15.84375 4.5625 C 15.675781 4.222656 15.316406 4 14.9375 4 Z M 41.90625 33.96875 C 41.863281 33.976563 41.820313 33.988281 41.78125 34 C 41.40625 34.066406 41.105469 34.339844 41 34.703125 C 40.894531 35.070313 41.003906 35.460938 41.28125 35.71875 L 44.5625 39 L 31 39 C 30.96875 39 30.9375 39 30.90625 39 C 30.355469 39.027344 29.925781 39.496094 29.953125 40.046875 C 29.980469 40.597656 30.449219 41.027344 31 41 L 44.5625 41 L 41.28125 44.28125 C 40.882813 44.679688 40.882813 45.320313 41.28125 45.71875 C 41.679688 46.117188 42.320313 46.117188 42.71875 45.71875 L 47.5625 40.84375 C 47.644531 40.792969 47.71875 40.730469 47.78125 40.65625 C 47.78125 40.644531 47.78125 40.636719 47.78125 40.625 C 47.84375 40.558594 47.894531 40.484375 47.9375 40.40625 C 47.9375 40.394531 47.9375 40.386719 47.9375 40.375 C 47.949219 40.355469 47.960938 40.332031 47.96875 40.3125 C 47.96875 40.300781 47.96875 40.292969 47.96875 40.28125 C 47.980469 40.25 47.992188 40.21875 48 40.1875 C 48.015625 40.082031 48.015625 39.980469 48 39.875 C 48 39.855469 48 39.832031 48 39.8125 C 48 39.800781 48 39.792969 48 39.78125 C 47.992188 39.761719 47.980469 39.738281 47.96875 39.71875 C 47.96875 39.707031 47.96875 39.699219 47.96875 39.6875 C 47.960938 39.667969 47.949219 39.644531 47.9375 39.625 C 47.9375 39.613281 47.9375 39.605469 47.9375 39.59375 C 47.929688 39.574219 47.917969 39.550781 47.90625 39.53125 C 47.894531 39.519531 47.886719 39.511719 47.875 39.5 C 47.832031 39.421875 47.78125 39.347656 47.71875 39.28125 L 47.6875 39.28125 C 47.667969 39.257813 47.648438 39.238281 47.625 39.21875 L 42.71875 34.28125 C 42.511719 34.058594 42.210938 33.945313 41.90625 33.96875 Z M 7.875 34 C 7.652344 34.023438 7.441406 34.125 7.28125 34.28125 L 2.34375 39.1875 C 2.320313 39.207031 2.300781 39.226563 2.28125 39.25 L 2.28125 39.28125 C 2.234375 39.320313 2.195313 39.359375 2.15625 39.40625 C 2.15625 39.417969 2.15625 39.425781 2.15625 39.4375 C 2.132813 39.457031 2.113281 39.476563 2.09375 39.5 C 2.09375 39.511719 2.09375 39.519531 2.09375 39.53125 C 2.03125 39.636719 1.988281 39.753906 1.96875 39.875 C 1.96875 39.886719 1.96875 39.894531 1.96875 39.90625 C 1.964844 39.957031 1.964844 40.011719 1.96875 40.0625 C 1.96875 40.074219 1.96875 40.082031 1.96875 40.09375 C 1.984375 40.25 2.039063 40.398438 2.125 40.53125 C 2.136719 40.542969 2.144531 40.550781 2.15625 40.5625 C 2.164063 40.582031 2.175781 40.605469 2.1875 40.625 C 2.199219 40.636719 2.207031 40.644531 2.21875 40.65625 C 2.230469 40.667969 2.238281 40.675781 2.25 40.6875 C 2.261719 40.699219 2.269531 40.707031 2.28125 40.71875 C 2.335938 40.777344 2.398438 40.832031 2.46875 40.875 L 7.28125 45.71875 C 7.679688 46.117188 8.320313 46.117188 8.71875 45.71875 C 9.117188 45.320313 9.117188 44.679688 8.71875 44.28125 L 5.4375 41 L 19 41 C 19.359375 41.003906 19.695313 40.816406 19.878906 40.503906 C 20.058594 40.191406 20.058594 39.808594 19.878906 39.496094 C 19.695313 39.183594 19.359375 38.996094 19 39 L 5.4375 39 L 8.71875 35.71875 C 9.042969 35.417969 9.128906 34.941406 8.933594 34.546875 C 8.742188 34.148438 8.308594 33.929688 7.875 34 Z M 23 39 C 22.449219 39 22 39.449219 22 40 C 22 40.550781 22.449219 41 23 41 C 23.550781 41 24 40.550781 24 40 C 24 39.449219 23.550781 39 23 39 Z M 27 39 C 26.449219 39 26 39.449219 26 40 C 26 40.550781 26.449219 41 27 41 C 27.550781 41 28 40.550781 28 40 C 28 39.449219 27.550781 39 27 39 Z"/></svg>