<?xml version="1.0" encoding="UTF-8"?>
<svg xmlns="http://www.w3.org/2000/svg" xmlns:xlink="http://www.w3.org/1999/xlink" width="32" height="32" viewBox="0 0 32 32" version="1.1">
<g id="surface1">
<path style=" stroke:none;fill-rule:nonzero;fill:rgb(0%,0%,0%);fill-opacity:1;" d="M 0.640625 -0.0195312 C 0.273438 -0.0195312 -0.0195312 0.273438 -0.0195312 0.640625 L -0.0195312 31.359375 C -0.0195312 31.726562 0.273438 32.019531 0.640625 32.019531 L 19.839844 32.019531 C 20.207031 32.019531 20.5 31.726562 20.5 31.359375 L 20.5 16.640625 L 10.238281 16.640625 C 9.886719 16.640625 9.601562 16.351562 9.601562 16 C 9.601562 15.648438 9.886719 15.359375 10.238281 15.359375 L 20.5 15.359375 L 20.5 0.640625 C 20.5 0.273438 20.207031 -0.0195312 19.839844 -0.0195312 Z M 20.5 15.359375 L 20.5 16.640625 L 29.179688 16.640625 L 24.578125 21.242188 C 24.460938 21.359375 24.390625 21.519531 24.390625 21.691406 C 24.390625 21.859375 24.460938 22.019531 24.578125 22.140625 C 24.707031 22.265625 24.855469 22.339844 25.019531 22.339844 C 25.183594 22.339844 25.355469 22.265625 25.480469 22.140625 L 31.621094 16 L 25.480469 9.859375 C 25.363281 9.738281 25.199219 9.671875 25.03125 9.671875 C 24.863281 9.671875 24.699219 9.738281 24.582031 9.859375 C 24.460938 9.980469 24.394531 10.140625 24.394531 10.308594 C 24.394531 10.480469 24.460938 10.640625 24.582031 10.757812 L 29.179688 15.359375 Z M 20.5 15.359375 "/>
</g>
</svg>
