<svg xmlns="http://www.w3.org/2000/svg"  viewBox="0 0 50 50" width="32px" height="32px"><path d="M 4 2 C 3.398438 2 3 2.398438 3 3 L 3 6 C 3 6.300781 3.113281 6.488281 3.3125 6.6875 L 19.3125 23.6875 C 19.511719 23.886719 19.800781 24 20 24 L 30 24 C 30.300781 24 30.488281 23.886719 30.6875 23.6875 L 46.6875 6.6875 C 46.886719 6.488281 47 6.300781 47 6 L 47 3 C 47 2.398438 46.601563 2 46 2 Z M 19 26 L 19 41 C 19 41.398438 19.199219 41.707031 19.5 41.90625 L 29.5 47.90625 C 29.601563 48.007813 29.800781 48 30 48 C 30.199219 48 30.300781 48.007813 30.5 47.90625 C 30.800781 47.707031 31 47.398438 31 47 L 31 26 Z"/></svg>