<svg role="img" viewBox="0 0 32 32" xmlns="http://www.w3.org/2000/svg"><path d="M28.523 13.082S27 14.469 24.45 16.122C23.758 12.077 21.83 7.09 18.012 1c0 0-1.25 6.535-5.41 12.719-1.813-2.801-2.59-4.996-2.59-4.996C-3.074 21.762 7.773 31 14.582 31c8.742 0 16.438-4.18 13.941-17.918M15.031 30.164c-1.906 0-6.156-1.324-8.21-7.441 0 0 .738.379 1.937.816.05-2.113.898-4.816 3.074-8.23 0 0 .543 1.464 1.813 3.332 2.91-4.121 3.785-8.48 3.785-8.48 2.672 4.062 4.023 7.39 4.511 10.081 1.782-1.101 2.848-2.023 2.848-2.023-.121 2.71-.644 4.836-1.402 6.496 1.191-.195 1.945-.402 1.945-.402-3.434 4.847-6.898 5.851-10.3 5.851m-4.082-8.238s1.402 1.914 2.468 1.453c0 0 2.027-3.152 4.937-4.902 0 0-.597 4.8.09 5.652.91 1.129 3.38-1.254 3.38-1.254 0 2.84-3.118 6.414-5.903 6.414-2.77 0-6.692-3.078-4.973-7.363M24.922 9.059c1.047-1.52 1.762-3.079 1.762-3.079 1.761 2.887.722 4.645-.051 5.22-1.04.769-2.926-.384-1.711-2.141M5.75 8.566c-1.031-1.761-1.145-3.96-1.145-3.96-2.511 3.773-1.53 5.828-.695 6.453 1.121.832 3.024-.457 1.84-2.493m5.84-3.921c.129-1.184-.367-2.41-.367-2.41 2.382 1.53 2.355 2.863 2.043 3.382-.418.7-1.825.399-1.676-.972" style="stroke:none;fill-rule:nonzero;fill:rgb(0%,0%,0%);fill-opacity:1"/></svg>