<svg role="img" viewBox="0 0 32 32" xmlns="http://www.w3.org/2000/svg"><path d="M2 29a1 1 0 0 0 1 1h7v-6H2zm10-5h8v6h-8zm10 6h7a1 1 0 0 0 1-1v-5h-8zm5-14h3v6h-3zM2 16h3v6H2zm7.994 0H7v6h8v-1.271a1.984 1.984 0 0 1-.253-.17l-1.622-1.304A17.651 17.651 0 0 1 9.994 16m7.26 4.559c-.08.064-.166.12-.254.17V22h8v-6h-2.994a17.655 17.655 0 0 1-3.131 3.255zM7.055 8H3a1 1 0 0 0-1 1v5h6.72a14.754 14.754 0 0 1-1.664-6M29 8h-4.056a14.743 14.743 0 0 1-1.665 6H30V9a1 1 0 0 0-1-1M13.751 18.476l1.622 1.303a.999.999 0 0 0 1.254 0l1.621-1.303C22.011 15.453 24 11.484 24 7a1 1 0 0 0-.504-.868l-7-4a1 1 0 0 0-.992 0l-7 4A1 1 0 0 0 8 7c0 4.484 1.99 8.453 5.751 11.476m-.458-9.183a1 1 0 0 1 1.414 0l1.184 1.185L18.2 7.4a.999.999 0 1 1 1.6 1.2l-3 4a.999.999 0 0 1-1.507.107l-2-2a1 1 0 0 1 0-1.414"/></svg>