<svg role="img" viewBox="0 0 139 39" fill="white" stroke-linecap="round" stroke-linejoin="round" xmlns="http://www.w3.org/2000/svg"><path d="M32.084 1.429 42.23 19 32.084 36.572h-20.29L1.65 19 11.794 1.43zM32.91 0H10.97L0 19l10.97 19h21.94l10.969-19zM22.25 9.485h2.615v3.024H22.25zm-2.948 0h2.462v3.024h-2.462zm-9.416-.678 7.932 1.746v.456L7.19 13.472 4 19l8.97 15.767h.728c.547-.411 1.751-1.63 2.736-3.036s1.455-2.176 2.156-2.59c.21-.142.45-.238.709-.285l.02-.007v.005c.104-.018.21-.033.318-.033.817 0 1.505.524 1.765 1.252-.33-.16-.996-.356-1.624.23-.879.82-.371 2.257-.371 2.257.033.104.07.194.108.278-.477.583-1.706 1.567-2.23 1.929h.564c.618-.462 2.378-1.852 3.534-3.503 1.14-1.627 1.68-2.513 2.49-2.991a2.18 2.18 0 0 1 .817-.329l.025-.007-.002.005c.12-.02.243-.037.369-.037.943 0 1.737.604 2.037 1.444-.381-.185-1.15-.41-1.875.266-1.015.946-.428 2.606-.428 2.606.086.274.19.494.314.63-.46.571-1.679 1.55-2.205 1.916h.55c.486-.37 1.781-1.41 2.575-2.545.83-1.184 1.224-1.828 1.812-2.176.176-.119.379-.2.596-.24.006-.001.01-.004.017-.005l-.001.004c.088-.015.177-.027.268-.027.686 0 1.264.44 1.483 1.051-.277-.134-.837-.298-1.365.193-.738.69-.311 1.897-.311 1.897.063.2.138.36.228.46l-.005.005c.095.159.503.997 1.348 1.383h.79l8.97-15.766-3.212-5.563-10.429-2.418v-.456l7.781-1.712-3.11-5.388H12.97m5.945 10.717V9.508h-.72L22.09 6.4l3.897 3.108h-.72v4.673h2.46s-1.293 1.84-1.293 3.967h-8.687c0-2.128-1.291-3.967-1.291-3.967zm4.713 4.82-6.366 3.675.435-3.676zm-7.156 10.364.46-3.888L26.377 20l.4 3.391zm8.088-2.087v-.49l2.665-1.539.365 3.093c-.917-1.447-3.03-1.064-3.03-1.064m29.707-15.681c.459 0 .838.038 1.138.114s.554.159.761.246l-.425 1.916a2.346 2.346 0 0 0-.581-.164 4.253 4.253 0 0 0-.647-.049c-.295 0-.544.04-.746.123s-.36.194-.474.336-.197.31-.246.508-.074.409-.074.638v.425h3.013v2.03h-3.013v6.583h-2.44v-9.071c0-1.113.314-1.997.942-2.652s1.558-.983 2.792-.983m6.582 12.87c-.709-.011-1.285-.088-1.727-.23s-.791-.34-1.048-.597-.432-.567-.524-.933-.14-.779-.14-1.237v-9.48l2.44-.393v9.382c0 .219.017.415.05.59s.095.322.188.442.227.218.401.295.41.125.705.147zm5.355-9.006c.721 0 1.32.082 1.802.246s.865.398 1.154.704.494.676.614 1.114.18.922.18 1.456v5.076l-1.457.27c-.623.104-1.376.156-2.26.156-.556 0-1.061-.048-1.515-.147s-.843-.26-1.17-.483a2.212 2.212 0 0 1-.754-.876c-.175-.36-.262-.803-.262-1.326 0-.503.101-.928.303-1.277s.472-.628.81-.836.727-.357 1.163-.45.89-.14 1.36-.14l.843.042c.246.027.444.063.598.106v-.23c0-.414-.126-.746-.377-.998s-.688-.377-1.31-.377c-.411 0-.822.03-1.228.09s-.753.145-1.048.254l-.312-1.965.533-.14.696-.13.794-.098zm.197 7.138.687-.016.525-.049v-1.85a4.323 4.323 0 0 0-.443-.066l-.54-.033c-.23 0-.445.014-.647.042s-.38.079-.532.155-.273.18-.36.311-.131.294-.131.49c0 .384.128.648.385.795s.608.221 1.056.221m5.56-6.615c.415-.12.95-.232 1.605-.335s1.343-.156 2.063-.156c.731 0 1.34.096 1.826.286s.87.462 1.155.811.485.765.605 1.244.18 1.015.18 1.605v4.863h-2.44v-4.568c0-.786-.103-1.343-.31-1.67s-.595-.492-1.163-.492l-.557.025-.524.058v6.647h-2.44zm11.974 2.798.744-.813.744-.839.68-.79.548-.65h2.901l-1.695 1.903-1.81 1.87c.328.296.667.649 1.016 1.059l1.015 1.271.901 1.312.688 1.197H86.86l-.596-.944-.711-1.033-.793-.994a6.606 6.606 0 0 0-.826-.804v3.775h-2.44V11.99l2.44-.393zm9.437 4.768c.611 0 1.116-.102 1.515-.303s.598-.544.598-1.024c0-.23-.035-.426-.107-.59s-.187-.311-.352-.441-.38-.257-.647-.378l-.99-.425-.901-.402a3.68 3.68 0 0 1-.753-.474 2.062 2.062 0 0 1-.524-.647c-.13-.251-.196-.557-.196-.917 0-.688.26-1.244.777-1.67s1.231-.639 2.137-.639c.579 0 1.057.05 1.433.147s.642.186.795.263l-.246.95c-.131-.066-.352-.153-.663-.263s-.768-.164-1.368-.164c-.24 0-.466.025-.68.074s-.4.126-.564.23-.295.236-.393.394-.147.353-.147.582.043.427.13.591.216.31.386.435.376.243.622.351l.843.359.94.4c.302.136.566.3.795.49a2.273 2.273 0 0 1 .557.688c.143.268.213.603.213 1.007 0 .764-.287 1.342-.86 1.736s-1.356.589-2.349.589c-.743 0-1.31-.063-1.702-.188l-.787-.287.278-.966c.033.022.104.057.213.107s.257.103.442.163.407.113.663.156.554.066.893.066m12.26-3.473c0 .667-.096 1.272-.288 1.818s-.458 1.01-.802 1.392a3.66 3.66 0 0 1-1.22.893c-.47.213-.988.319-1.555.319s-1.087-.106-1.556-.32-.876-.51-1.22-.892-.611-.845-.802-1.392-.287-1.151-.287-1.818.096-1.27.287-1.817.458-1.012.802-1.4a3.589 3.589 0 0 1 1.22-.9c.47-.212.988-.32 1.556-.32s1.086.107 1.555.32a3.617 3.617 0 0 1 1.22.9c.343.387.612.854.802 1.4s.287 1.152.287 1.817m-1.13 0c0-1.058-.246-1.9-.737-2.53s-1.157-.94-1.997-.94-1.507.313-1.998.94-.737 1.472-.737 2.53.246 1.9.737 2.523 1.157.933 1.998.933 1.506-.311 1.997-.933.737-1.463.737-2.523m9.847 3.93-1.277.295c-.535.11-1.19.164-1.965.164-.633 0-1.163-.094-1.589-.278s-.769-.448-1.031-.787-.45-.747-.565-1.228-.172-1.01-.172-1.588v-4.748h1.065v4.404c0 .6.043 1.108.13 1.523s.23.75.426 1.007.45.442.762.557.69.172 1.138.172c.501 0 .938-.027 1.31-.082s.605-.104.704-.147v-7.434h1.064zm5.753-8.334c.349 0 .68.028.99.082s.527.109.648.164l-.214.916c-.087-.043-.264-.09-.532-.139s-.62-.073-1.056-.073c-.459 0-.827.033-1.105.098s-.462.12-.55.164v7.417h-1.063V16.23c.272-.12.649-.243 1.13-.369s1.064-.188 1.752-.188m6.844 8.81c-.655 0-1.234-.105-1.735-.312s-.92-.505-1.253-.892-.587-.852-.761-1.392-.262-1.138-.262-1.793c0-.666.09-1.272.27-1.818s.44-1.015.778-1.408.747-.696 1.228-.908 1.02-.32 1.621-.32c.458 0 .887.039 1.285.114s.707.176.926.296l-.279.916c-.218-.109-.464-.196-.737-.261s-.639-.099-1.097-.099c-.939 0-1.651.303-2.137.909s-.729 1.465-.729 2.579c0 .502.055.963.164 1.384s.286.78.532 1.08.563.535.95.704.86.254 1.416.254c.459 0 .844-.052 1.155-.156s.538-.193.68-.27l.229.917c-.197.11-.505.215-.926.32s-.859.155-1.318.155m3.576-4.42c0-.743.106-1.39.319-1.94s.491-1.014.835-1.385.737-.646 1.18-.826.897-.271 1.366-.271c1.037 0 1.864.338 2.481 1.015s.926 1.72.926 3.128l-.009.262-.024.246h-5.945c.034 1.037.29 1.833.77 2.39s1.244.835 2.292.835c.579 0 1.037-.054 1.376-.163l.737-.279.196.917c-.153.087-.44.192-.86.311s-.914.18-1.481.18c-.743 0-1.375-.109-1.9-.327s-.955-.524-1.293-.917-.584-.86-.737-1.4-.23-1.132-.23-1.777m6.01-.671c-.022-.884-.229-1.572-.622-2.063s-.95-.737-1.67-.737c-.382 0-.723.077-1.024.23s-.563.357-.786.613-.398.554-.524.893-.2.692-.22 1.064z"/></svg>