<?xml version="1.0" encoding="utf-8"?>
<!-- Generator: Adobe Illustrator 16.0.0, SVG Export Plug-In . SVG Version: 6.00 Build 0)  -->
<!DOCTYPE svg PUBLIC "-//W3C//DTD SVG 1.1//EN" "http://www.w3.org/Graphics/SVG/1.1/DTD/svg11.dtd">
<svg version="1.1" id="Layer_1" xmlns="http://www.w3.org/2000/svg" xmlns:xlink="http://www.w3.org/1999/xlink" x="0px" y="0px" width="177px" height="153px" viewBox="20 16 177 153" enable-background="new 20 16 177 153" xml:space="preserve">
	<path fill="white" d="M149.286,21.845l40.713,70.517l-40.713,70.517H67.861L27.148,92.362l40.713-70.517H149.286z M152.597,16.112
	H64.551l-44.023,76.25l44.023,76.249h88.046l44.022-76.249L152.597,16.112z" />
	<rect x="109.819" y="54.177" fill="white" width="10.491" height="12.137" />
	<rect x="97.986" y="54.177" fill="white" width="9.881" height="12.137" />
	<path fill="white" d="M60.196,51.456l31.833,7.006v1.829l-42.641,9.885L36.579,92.363l35.997,63.273h2.925
	c2.194-1.65,7.026-6.539,10.978-12.183c3.963-5.656,5.841-8.734,8.652-10.396c0.842-0.567,1.809-0.954,2.845-1.144
	c0.03-0.009,0.053-0.02,0.083-0.026c-0.001,0.006-0.002,0.012-0.003,0.018c0.418-0.071,0.842-0.129,1.28-0.129
	c3.277,0,6.039,2.102,7.083,5.021c-1.326-0.642-4-1.426-6.52,0.925c-3.527,3.289-1.489,9.059-1.489,9.059
	c0.132,0.416,0.28,0.778,0.435,1.114c-1.916,2.338-6.845,6.289-8.949,7.741h2.261c2.482-1.852,9.544-7.433,14.186-14.059
	c4.574-6.529,6.743-10.084,9.987-12.002c0.973-0.652,2.088-1.101,3.284-1.319c0.035-0.009,0.062-0.023,0.097-0.03
	c-0.002,0.006-0.003,0.014-0.005,0.021c0.483-0.083,0.972-0.149,1.479-0.149c3.783,0,6.971,2.424,8.176,5.795
	c-1.531-0.74-4.618-1.646-7.527,1.067c-4.071,3.797-1.718,10.459-1.718,10.459c0.348,1.1,0.766,1.984,1.261,2.531
	c-1.846,2.291-6.737,6.219-8.849,7.686h2.212c1.948-1.488,7.144-5.66,10.331-10.211c3.331-4.752,4.909-7.339,7.27-8.735
	c0.708-0.476,1.52-0.802,2.391-0.961c0.025-0.006,0.045-0.016,0.07-0.021c-0.002,0.005-0.002,0.011-0.004,0.016
	c0.352-0.061,0.708-0.109,1.076-0.109c2.754,0,5.074,1.766,5.951,4.218c-1.113-0.537-3.36-1.197-5.478,0.776
	c-2.963,2.765-1.25,7.613-1.25,7.613c0.253,0.8,0.557,1.445,0.917,1.843c-0.006,0.007-0.014,0.015-0.02,0.022
	c0.382,0.637,2.019,4.002,5.408,5.55h3.169l35.998-63.273L167.68,70.039l-41.851-9.702v-1.829l31.226-6.872l-12.484-21.623H72.576
	 M96.437,73.022V54.268h-2.893l15.64-12.472l15.638,12.472h-2.891v18.755h9.87c0,0-5.185,7.38-5.185,15.919h-13.823h-7.219H91.751
	c0-8.539-5.184-15.919-5.184-15.919H96.437z M115.352,92.363l-25.548,14.749l1.743-14.749H115.352z M86.631,133.956l1.845-15.603
	l37.91-21.974l1.609,13.608L86.631,133.956z M119.09,125.583v-1.969l10.694-6.174l1.467,12.41
	C127.57,124.045,119.09,125.583,119.09,125.583" />
</svg>
