<svg xml:space="preserve" role="img" viewBox="20 16 177 153" xmlns="http://www.w3.org/2000/svg"><path d="m149.286 21.845 40.713 70.517-40.713 70.517H67.861L27.148 92.362l40.713-70.517zm3.311-5.733H64.551l-44.023 76.25 44.023 76.249h88.046l44.022-76.249zm-42.778 38.065h10.491v12.137h-10.491zm-11.833 0h9.881v12.137h-9.881zm-37.79-2.721 31.833 7.006v1.829l-42.641 9.885-12.809 22.187 35.997 63.273h2.925c2.194-1.65 7.026-6.539 10.978-12.183 3.963-5.656 5.841-8.734 8.652-10.396a7.503 7.503 0 0 1 2.845-1.144c.03-.009.053-.02.083-.026l-.003.018a7.607 7.607 0 0 1 1.28-.129c3.277 0 6.039 2.102 7.083 5.021-1.326-.642-4-1.426-6.52.925-3.527 3.289-1.489 9.059-1.489 9.059.132.416.28.778.435 1.114-1.916 2.338-6.845 6.289-8.949 7.741h2.261c2.482-1.852 9.544-7.433 14.186-14.059 4.574-6.529 6.743-10.084 9.987-12.002a8.683 8.683 0 0 1 3.284-1.319c.035-.009.062-.023.097-.03l-.005.021a8.682 8.682 0 0 1 1.479-.149c3.783 0 6.971 2.424 8.176 5.795-1.531-.74-4.618-1.646-7.527 1.067-4.071 3.797-1.718 10.459-1.718 10.459.348 1.1.766 1.984 1.261 2.531-1.846 2.291-6.737 6.219-8.849 7.686h2.212c1.948-1.488 7.144-5.66 10.331-10.211 3.331-4.752 4.909-7.339 7.27-8.735a6.303 6.303 0 0 1 2.391-.961c.025-.006.045-.016.07-.021l-.004.016a6.27 6.27 0 0 1 1.076-.109c2.754 0 5.074 1.766 5.951 4.218-1.113-.537-3.36-1.197-5.478.776-2.963 2.765-1.25 7.613-1.25 7.613.253.8.557 1.445.917 1.843l-.02.022c.382.637 2.019 4.002 5.408 5.55h3.169l35.998-63.273-12.889-22.325-41.851-9.702v-1.829l31.226-6.872-12.484-21.623H72.576m23.861 43.009V54.268h-2.893l15.64-12.472 15.638 12.472h-2.891v18.755h9.87s-5.185 7.38-5.185 15.919H91.751c0-8.539-5.184-15.919-5.184-15.919zm18.915 19.341-25.548 14.749 1.743-14.749zm-28.721 41.593 1.845-15.603 37.91-21.974 1.609 13.608zm32.459-8.373v-1.969l10.694-6.174 1.467 12.41c-3.681-5.805-12.161-4.267-12.161-4.267" fill="white"/></svg>