<?xml version="1.0" encoding="UTF-8"?>
<svg xmlns="http://www.w3.org/2000/svg" xmlns:xlink="http://www.w3.org/1999/xlink" width="32" height="32" viewBox="0 0 32 32" version="1.1">
<defs>
<linearGradient id="linear0" gradientUnits="userSpaceOnUse" x1="199.866837" y1="531.210266" x2="23.452351" y2="595.419861" gradientTransform="matrix(0.153995,0.0423717,-0.0423717,0.153995,23.226478,-73.509582)">
<stop offset="0.2986" style="stop-color:rgb(0%,59.215689%,80.784315%);stop-opacity:1;"/>
<stop offset="0.3791" style="stop-color:rgb(3.529412%,60.000002%,77.254903%);stop-opacity:1;"/>
<stop offset="0.5119" style="stop-color:rgb(13.333334%,61.56863%,67.843139%);stop-opacity:1;"/>
<stop offset="0.6469" style="stop-color:rgb(25.882354%,63.921571%,56.078434%);stop-opacity:1;"/>
<stop offset="0.7352" style="stop-color:rgb(36.470589%,67.843139%,50.980395%);stop-opacity:1;"/>
<stop offset="0.9239" style="stop-color:rgb(63.137257%,77.64706%,38.039216%);stop-opacity:1;"/>
<stop offset="1" style="stop-color:rgb(74.509805%,81.960785%,32.549021%);stop-opacity:1;"/>
</linearGradient>
<linearGradient id="linear1" gradientUnits="userSpaceOnUse" x1="-2.30704" y1="536.366455" x2="185.483383" y2="536.366455" gradientTransform="matrix(0.153995,0.0423717,-0.0423717,0.153995,23.226478,-73.509582)">
<stop offset="0.08199" style="stop-color:rgb(23.921569%,39.607844%,68.627453%);stop-opacity:1;"/>
<stop offset="0.2305" style="stop-color:rgb(13.725491%,44.705883%,72.156864%);stop-opacity:1;"/>
<stop offset="0.5058" style="stop-color:rgb(0%,72.156864%,73.333335%);stop-opacity:1;"/>
</linearGradient>
<filter id="alpha" filterUnits="objectBoundingBox" x="0%" y="0%" width="100%" height="100%">
  <feColorMatrix type="matrix" in="SourceGraphic" values="0 0 0 0 1 0 0 0 0 1 0 0 0 0 1 0 0 0 1 0"/>
</filter>
<mask id="mask0">
  <g filter="url(#alpha)">
<rect x="0" y="0" width="32" height="32" style="fill:rgb(0%,0%,0%);fill-opacity:0.8;stroke:none;"/>
  </g>
</mask>
<linearGradient id="linear2" gradientUnits="userSpaceOnUse" x1="-2.38391" y1="515.501038" x2="99.626389" y2="515.501038" gradientTransform="matrix(0.153995,0.0423717,-0.0423717,0.153995,23.226478,-73.509582)">
<stop offset="0.1297" style="stop-color:rgb(0%,0%,0%);stop-opacity:1;"/>
<stop offset="0.3277" style="stop-color:rgb(0%,20%,29.411766%);stop-opacity:1;"/>
<stop offset="0.5276" style="stop-color:rgb(0%,38.039216%,56.470591%);stop-opacity:1;"/>
<stop offset="0.6723" style="stop-color:rgb(0%,49.803922%,73.333335%);stop-opacity:1;"/>
<stop offset="0.7457" style="stop-color:rgb(0%,54.11765%,80.000001%);stop-opacity:1;"/>
</linearGradient>
<clipPath id="clip1">
  <rect x="0" y="0" width="32" height="32"/>
</clipPath>
<g id="surface5" clip-path="url(#clip1)">
<path style=" stroke:none;fill-rule:nonzero;fill:url(#linear2);" d="M 1.027344 5.839844 C 1.027344 5.792969 1.042969 5.746094 1.027344 5.714844 C 1.042969 5.753906 1.042969 5.800781 1.027344 5.839844 Z M 1.027344 5.839844 "/>
</g>
<mask id="mask1">
  <g filter="url(#alpha)">
<rect x="0" y="0" width="32" height="32" style="fill:rgb(0%,0%,0%);fill-opacity:0.8;stroke:none;"/>
  </g>
</mask>
<linearGradient id="linear3" gradientUnits="userSpaceOnUse" x1="-2.38391" y1="511.907166" x2="99.626389" y2="511.907166" gradientTransform="matrix(0.153995,0.0423717,-0.0423717,0.153995,23.226478,-73.509582)">
<stop offset="0.1297" style="stop-color:rgb(0%,0%,0%);stop-opacity:1;"/>
<stop offset="0.3277" style="stop-color:rgb(0%,20%,29.411766%);stop-opacity:1;"/>
<stop offset="0.5276" style="stop-color:rgb(0%,38.039216%,56.470591%);stop-opacity:1;"/>
<stop offset="0.6723" style="stop-color:rgb(0%,49.803922%,73.333335%);stop-opacity:1;"/>
<stop offset="0.7457" style="stop-color:rgb(0%,54.11765%,80.000001%);stop-opacity:1;"/>
</linearGradient>
<clipPath id="clip2">
  <rect x="0" y="0" width="32" height="32"/>
</clipPath>
<g id="surface8" clip-path="url(#clip2)">
<path style=" stroke:none;fill-rule:nonzero;fill:url(#linear3);" d="M 2.371094 5.539062 C 2.34375 5.523438 2.316406 5.519531 2.289062 5.523438 C 2.339844 5.539062 2.386719 5.570312 2.433594 5.585938 C 2.433594 5.570312 2.402344 5.554688 2.371094 5.539062 Z M 2.371094 5.539062 "/>
</g>
<mask id="mask2">
  <g filter="url(#alpha)">
<rect x="0" y="0" width="32" height="32" style="fill:rgb(0%,0%,0%);fill-opacity:0.8;stroke:none;"/>
  </g>
</mask>
<linearGradient id="linear4" gradientUnits="userSpaceOnUse" x1="-2.38391" y1="512.304871" x2="99.626389" y2="512.304871" gradientTransform="matrix(0.153995,0.0423717,-0.0423717,0.153995,23.226478,-73.509582)">
<stop offset="0.1297" style="stop-color:rgb(0%,0%,0%);stop-opacity:1;"/>
<stop offset="0.3277" style="stop-color:rgb(0%,20%,29.411766%);stop-opacity:1;"/>
<stop offset="0.5276" style="stop-color:rgb(0%,38.039216%,56.470591%);stop-opacity:1;"/>
<stop offset="0.6723" style="stop-color:rgb(0%,49.803922%,73.333335%);stop-opacity:1;"/>
<stop offset="0.7457" style="stop-color:rgb(0%,54.11765%,80.000001%);stop-opacity:1;"/>
</linearGradient>
<clipPath id="clip3">
  <rect x="0" y="0" width="32" height="32"/>
</clipPath>
<g id="surface11" clip-path="url(#clip3)">
<path style=" stroke:none;fill-rule:nonzero;fill:url(#linear4);" d="M 2.863281 5.746094 C 2.847656 5.746094 2.816406 5.730469 2.800781 5.730469 C 2.847656 5.746094 2.898438 5.777344 2.929688 5.777344 C 2.898438 5.761719 2.882812 5.746094 2.863281 5.746094 Z M 2.863281 5.746094 "/>
</g>
<linearGradient id="linear5" gradientUnits="userSpaceOnUse" x1="12.9109" y1="532.485535" x2="99.54641" y2="532.485535" gradientTransform="matrix(0.153995,0.0423717,-0.0423717,0.153995,23.226478,-73.509582)">
<stop offset="0.1297" style="stop-color:rgb(14.117648%,51.372552%,77.254903%);stop-opacity:1;"/>
<stop offset="0.1672" style="stop-color:rgb(14.117648%,52.549022%,78.039217%);stop-opacity:1;"/>
<stop offset="0.676" style="stop-color:rgb(16.078432%,69.411767%,87.450981%);stop-opacity:1;"/>
<stop offset="0.9352" style="stop-color:rgb(16.862746%,76.078433%,90.980393%);stop-opacity:1;"/>
</linearGradient>
<mask id="mask3">
  <g filter="url(#alpha)">
<rect x="0" y="0" width="32" height="32" style="fill:rgb(0%,0%,0%);fill-opacity:0.8;stroke:none;"/>
  </g>
</mask>
<linearGradient id="linear6" gradientUnits="userSpaceOnUse" x1="-2.38391" y1="520.222717" x2="99.626389" y2="520.222717" gradientTransform="matrix(0.153995,0.0423717,-0.0423717,0.153995,23.226478,-73.509582)">
<stop offset="0.1297" style="stop-color:rgb(0%,0%,0%);stop-opacity:1;"/>
<stop offset="0.3277" style="stop-color:rgb(0%,20%,29.411766%);stop-opacity:1;"/>
<stop offset="0.5276" style="stop-color:rgb(0%,38.039216%,56.470591%);stop-opacity:1;"/>
<stop offset="0.6723" style="stop-color:rgb(0%,49.803922%,73.333335%);stop-opacity:1;"/>
<stop offset="0.7457" style="stop-color:rgb(0%,54.11765%,80.000001%);stop-opacity:1;"/>
</linearGradient>
<clipPath id="clip4">
  <rect x="0" y="0" width="32" height="32"/>
</clipPath>
<g id="surface14" clip-path="url(#clip4)">
<path style=" stroke:none;fill-rule:nonzero;fill:url(#linear6);" d="M 1.269531 6.765625 C 1.21875 6.671875 1.1875 6.558594 1.140625 6.449219 C 1.1875 6.542969 1.21875 6.65625 1.269531 6.765625 Z M 1.269531 6.765625 "/>
</g>
<mask id="mask4">
  <g filter="url(#alpha)">
<rect x="0" y="0" width="32" height="32" style="fill:rgb(0%,0%,0%);fill-opacity:0.3;stroke:none;"/>
  </g>
</mask>
<linearGradient id="linear7" gradientUnits="userSpaceOnUse" x1="-2.08882" y1="516.066223" x2="-2.08872" y2="516.066223" gradientTransform="matrix(0.153995,0.0423717,-0.0423717,0.153995,23.226478,-73.509582)">
<stop offset="0" style="stop-color:rgb(40.784314%,17.254902%,56.470591%);stop-opacity:1;"/>
<stop offset="0.496" style="stop-color:rgb(50.588238%,48.627451%,72.549021%);stop-opacity:1;"/>
<stop offset="1" style="stop-color:rgb(100%,100%,100%);stop-opacity:1;"/>
</linearGradient>
<clipPath id="clip5">
  <rect x="0" y="0" width="32" height="32"/>
</clipPath>
<g id="surface17" clip-path="url(#clip5)">
<path style=" stroke:none;fill-rule:nonzero;fill:url(#linear7);" d="M 1.027344 5.890625 C 1.027344 5.875 1.027344 5.875 1.042969 5.855469 C 1.042969 5.875 1.042969 5.875 1.027344 5.890625 Z M 1.027344 5.890625 "/>
</g>
<mask id="mask5">
  <g filter="url(#alpha)">
<rect x="0" y="0" width="32" height="32" style="fill:rgb(0%,0%,0%);fill-opacity:0.3;stroke:none;"/>
  </g>
</mask>
<linearGradient id="linear8" gradientUnits="userSpaceOnUse" x1="84.380783" y1="511.652008" x2="32.71159" y2="511.652008" gradientTransform="matrix(0.153995,0.0423717,-0.0423717,0.153995,23.226478,-73.509582)">
<stop offset="0" style="stop-color:rgb(40.784314%,17.254902%,56.470591%);stop-opacity:1;"/>
<stop offset="0.496" style="stop-color:rgb(50.588238%,48.627451%,72.549021%);stop-opacity:1;"/>
<stop offset="1" style="stop-color:rgb(100%,100%,100%);stop-opacity:1;"/>
</linearGradient>
<clipPath id="clip6">
  <rect x="0" y="0" width="32" height="32"/>
</clipPath>
<g id="surface20" clip-path="url(#clip6)">
<path style=" stroke:none;fill-rule:nonzero;fill:url(#linear8);" d="M 1.714844 5.296875 C 1.921875 5.378906 2.113281 5.441406 2.304688 5.523438 C 2.097656 5.441406 1.90625 5.363281 1.714844 5.296875 Z M 1.714844 5.296875 "/>
</g>
<mask id="mask6">
  <g filter="url(#alpha)">
<rect x="0" y="0" width="32" height="32" style="fill:rgb(0%,0%,0%);fill-opacity:0.3;stroke:none;"/>
  </g>
</mask>
<linearGradient id="linear9" gradientUnits="userSpaceOnUse" x1="84.380783" y1="517.770325" x2="32.71159" y2="517.770325" gradientTransform="matrix(0.153995,0.0423717,-0.0423717,0.153995,23.226478,-73.509582)">
<stop offset="0" style="stop-color:rgb(40.784314%,17.254902%,56.470591%);stop-opacity:1;"/>
<stop offset="0.496" style="stop-color:rgb(50.588238%,48.627451%,72.549021%);stop-opacity:1;"/>
<stop offset="1" style="stop-color:rgb(100%,100%,100%);stop-opacity:1;"/>
</linearGradient>
<clipPath id="clip7">
  <rect x="0" y="0" width="32" height="32"/>
</clipPath>
<g id="surface23" clip-path="url(#clip7)">
<path style=" stroke:none;fill-rule:nonzero;fill:url(#linear9);" d="M 1.027344 5.890625 C 1.035156 6.078125 1.074219 6.269531 1.140625 6.449219 C 1.074219 6.269531 1.035156 6.078125 1.027344 5.890625 Z M 1.027344 5.890625 "/>
</g>
<mask id="mask7">
  <g filter="url(#alpha)">
<rect x="0" y="0" width="32" height="32" style="fill:rgb(0%,0%,0%);fill-opacity:0.3;stroke:none;"/>
  </g>
</mask>
<linearGradient id="linear10" gradientUnits="userSpaceOnUse" x1="84.380783" y1="512.603027" x2="32.71159" y2="512.603027" gradientTransform="matrix(0.153995,0.0423717,-0.0423717,0.153995,23.226478,-73.509582)">
<stop offset="0" style="stop-color:rgb(40.784314%,17.254902%,56.470591%);stop-opacity:1;"/>
<stop offset="0.496" style="stop-color:rgb(50.588238%,48.627451%,72.549021%);stop-opacity:1;"/>
<stop offset="1" style="stop-color:rgb(100%,100%,100%);stop-opacity:1;"/>
</linearGradient>
<clipPath id="clip8">
  <rect x="0" y="0" width="32" height="32"/>
</clipPath>
<g id="surface26" clip-path="url(#clip8)">
<path style=" stroke:none;fill-rule:nonzero;fill:url(#linear10);" d="M 3.390625 5.96875 L 3.488281 6.015625 C 3.3125 5.9375 3.121094 5.855469 2.929688 5.777344 C 2.992188 5.808594 3.039062 5.824219 3.105469 5.855469 C 3.203125 5.886719 3.300781 5.925781 3.390625 5.96875 Z M 3.390625 5.96875 "/>
</g>
<linearGradient id="linear11" gradientUnits="userSpaceOnUse" x1="0.80929" y1="550.396851" x2="83.561981" y2="550.396851" gradientTransform="matrix(0.153995,0.0423717,-0.0423717,0.153995,23.226478,-73.509582)">
<stop offset="0.1297" style="stop-color:rgb(23.137255%,40.392157%,67.843139%);stop-opacity:1;"/>
<stop offset="0.5697" style="stop-color:rgb(13.333334%,48.627451%,66.666669%);stop-opacity:1;"/>
<stop offset="0.9352" style="stop-color:rgb(6.666667%,54.11765%,65.882355%);stop-opacity:1;"/>
</linearGradient>
<mask id="mask8">
  <g filter="url(#alpha)">
<rect x="0" y="0" width="32" height="32" style="fill:rgb(0%,0%,0%);fill-opacity:0.3;stroke:none;"/>
  </g>
</mask>
<linearGradient id="linear12" gradientUnits="userSpaceOnUse" x1="84.380783" y1="512.108765" x2="32.71159" y2="512.108765" gradientTransform="matrix(0.153995,0.0423717,-0.0423717,0.153995,23.226478,-73.509582)">
<stop offset="0" style="stop-color:rgb(40.784314%,17.254902%,56.470591%);stop-opacity:1;"/>
<stop offset="0.496" style="stop-color:rgb(50.588238%,48.627451%,72.549021%);stop-opacity:1;"/>
<stop offset="1" style="stop-color:rgb(100%,100%,100%);stop-opacity:1;"/>
</linearGradient>
<clipPath id="clip9">
  <rect x="0" y="0" width="32" height="32"/>
</clipPath>
<g id="surface29" clip-path="url(#clip9)">
<path style=" stroke:none;fill-rule:nonzero;fill:url(#linear12);" d="M 2.800781 5.730469 L 2.464844 5.585938 C 2.480469 5.585938 2.496094 5.601562 2.511719 5.601562 C 2.59375 5.632812 2.6875 5.679688 2.800781 5.730469 Z M 2.800781 5.730469 "/>
</g>
<mask id="mask9">
  <g filter="url(#alpha)">
<rect x="0" y="0" width="32" height="32" style="fill:rgb(0%,0%,0%);fill-opacity:0.8;stroke:none;"/>
  </g>
</mask>
<linearGradient id="linear13" gradientUnits="userSpaceOnUse" x1="-2.38811" y1="532.058228" x2="99.622192" y2="532.058228" gradientTransform="matrix(0.153995,0.0423717,-0.0423717,0.153995,23.226478,-73.509582)">
<stop offset="0.1297" style="stop-color:rgb(0%,0%,0%);stop-opacity:1;"/>
<stop offset="0.3277" style="stop-color:rgb(0%,20%,29.411766%);stop-opacity:1;"/>
<stop offset="0.5276" style="stop-color:rgb(0%,38.039216%,56.470591%);stop-opacity:1;"/>
<stop offset="0.6723" style="stop-color:rgb(0%,49.803922%,73.333335%);stop-opacity:1;"/>
<stop offset="0.7457" style="stop-color:rgb(0%,54.11765%,80.000001%);stop-opacity:1;"/>
</linearGradient>
<clipPath id="clip10">
  <rect x="0" y="0" width="32" height="32"/>
</clipPath>
<g id="surface32" clip-path="url(#clip10)">
<path style=" stroke:none;fill-rule:nonzero;fill:url(#linear13);" d="M 5.277344 11.589844 C 7.496094 13.394531 9.957031 14.625 12.238281 14.929688 C 11.871094 12.550781 9.84375 9.417969 3.488281 6.015625 C 3.453125 6.003906 3.421875 5.988281 3.390625 5.96875 C 3.296875 5.921875 3.199219 5.890625 3.121094 5.839844 C 3.058594 5.808594 3.007812 5.792969 2.945312 5.761719 C 2.898438 5.746094 2.847656 5.714844 2.816406 5.714844 C 2.71875 5.667969 2.617188 5.628906 2.511719 5.601562 C 2.496094 5.601562 2.480469 5.585938 2.464844 5.585938 C 2.417969 5.570312 2.371094 5.539062 2.320312 5.523438 C 2.128906 5.457031 1.9375 5.363281 1.730469 5.296875 C 1.363281 5.1875 1.15625 5.363281 1.078125 5.632812 C 1.066406 5.664062 1.0625 5.695312 1.058594 5.730469 C 1.042969 5.761719 1.058594 5.808594 1.058594 5.855469 C 1.058594 5.875 1.058594 5.875 1.042969 5.890625 C 1.054688 6.078125 1.089844 6.269531 1.15625 6.449219 C 1.191406 6.5625 1.234375 6.675781 1.285156 6.785156 C 1.953125 8.300781 3.582031 10.21875 5.277344 11.589844 Z M 5.277344 11.589844 "/>
</g>
<linearGradient id="linear14" gradientUnits="userSpaceOnUse" x1="-2.38811" y1="532.058228" x2="80.610283" y2="532.058228" gradientTransform="matrix(0.153995,0.0423717,-0.0423717,0.153995,23.226478,-73.509582)">
<stop offset="0.1297" style="stop-color:rgb(22.745098%,40.392157%,69.01961%);stop-opacity:1;"/>
<stop offset="0.5622" style="stop-color:rgb(20.784314%,49.803922%,74.117649%);stop-opacity:1;"/>
<stop offset="0.9352" style="stop-color:rgb(19.607843%,56.470591%,77.64706%);stop-opacity:1;"/>
</linearGradient>
<linearGradient id="linear15" gradientUnits="userSpaceOnUse" x1="99.663979" y1="520.441711" x2="185.507874" y2="520.441711" gradientTransform="matrix(0.153995,0.0423717,-0.0423717,0.153995,23.226478,-73.509582)">
<stop offset="0.1724" style="stop-color:rgb(30.588236%,36.078432%,65.882355%);stop-opacity:1;"/>
<stop offset="0.9937" style="stop-color:rgb(12.156863%,76.47059%,95.294118%);stop-opacity:1;"/>
</linearGradient>
</defs>
<g id="surface1">
<path style=" stroke:none;fill-rule:nonzero;fill:url(#linear0);" d="M 30.878906 9.960938 C 30.191406 9.867188 28.675781 9.835938 25.671875 10.457031 C 25.316406 10.542969 24.953125 10.578125 24.585938 10.570312 C 24.203125 10.535156 23.789062 10.425781 23.421875 10.3125 C 21.773438 9.753906 20.417969 9.929688 19.617188 10.34375 C 19.171875 10.585938 18.820312 10.886719 18.4375 11.398438 C 17.941406 12.070312 16.902344 14.113281 15.480469 14.65625 C 14.683594 15.167969 13.820312 15.695312 13.070312 16.445312 C 12.589844 16.941406 12.464844 18.105469 11.203125 19.242188 C 9.796875 21.285156 8.183594 22.769531 6.539062 23.855469 C 4.160156 25.519531 2.164062 26.027344 2.164062 26.027344 C 2.164062 26.027344 7.449219 27.480469 13.246094 24.765625 C 17.65625 22.691406 19.9375 18.648438 20.464844 17.753906 L 23.339844 12.867188 C 23.597656 12.421875 24.058594 11.847656 24.488281 11.621094 C 24.632812 11.542969 24.761719 11.496094 24.792969 11.464844 C 25.113281 11.304688 25.449219 11.175781 25.785156 11.046875 C 27.796875 10.328125 29.886719 10.265625 30.863281 10.152344 C 30.992188 10.121094 30.972656 9.976562 30.878906 9.960938 Z M 30.878906 9.960938 "/>
<path style=" stroke:none;fill-rule:nonzero;fill:url(#linear1);" d="M 30.878906 9.960938 C 30.191406 9.867188 28.675781 9.835938 25.671875 10.457031 C 25.316406 10.542969 24.953125 10.578125 24.585938 10.570312 C 24.203125 10.535156 23.789062 10.425781 23.421875 10.3125 C 21.726562 9.753906 20.433594 9.898438 19.617188 10.34375 C 19.171875 10.585938 18.820312 10.886719 18.4375 11.398438 C 17.941406 12.070312 16.902344 14.113281 15.480469 14.65625 C 13.886719 13.15625 12.480469 11.894531 11.121094 10.777344 C 10.355469 10.167969 9.605469 9.59375 8.964844 9.179688 C 7.335938 8.0625 5.691406 7.054688 4.046875 6.273438 C 3.3125 5.9375 2.546875 5.632812 1.699219 5.3125 C 1.332031 5.203125 1.125 5.378906 1.058594 5.664062 C 1.027344 5.761719 0.996094 6.015625 1.15625 6.464844 C 1.523438 7.453125 2.066406 8.589844 2.722656 9.738281 C 2.960938 10.167969 3.230469 10.617188 3.519531 11.0625 C 4.84375 13.140625 6.507812 15.230469 8.199219 16.878906 C 8.566406 17.230469 8.917969 17.546875 9.300781 17.851562 C 9.761719 18.234375 10.238281 18.59375 10.738281 18.921875 C 10.785156 18.953125 11.027344 19.097656 11.1875 19.191406 C 11.503906 19.367188 11.9375 19.578125 12.207031 19.6875 C 13.550781 20.277344 14.714844 20.453125 15.738281 20.4375 C 17.511719 20.488281 18.949219 19.929688 19.652344 18.984375 C 19.945312 18.585938 20.21875 18.171875 20.464844 17.738281 L 23.339844 12.851562 C 23.597656 12.40625 24.058594 11.832031 24.488281 11.605469 C 24.632812 11.527344 24.761719 11.480469 24.792969 11.445312 C 25.097656 11.304688 25.097656 11.351562 25.417969 11.222656 C 27.460938 10.503906 29.90625 10.25 30.878906 10.136719 C 30.921875 10.132812 30.957031 10.09375 30.957031 10.050781 C 30.957031 10.003906 30.921875 9.96875 30.878906 9.960938 Z M 30.878906 9.960938 "/>
<use xlink:href="#surface5" mask="url(#mask0)"/>
<use xlink:href="#surface8" mask="url(#mask1)"/>
<use xlink:href="#surface11" mask="url(#mask2)"/>
<path style=" stroke:none;fill-rule:nonzero;fill:url(#linear5);" d="M 12.238281 14.945312 C 13.375 15.089844 14.476562 15.007812 15.464844 14.625 C 14.507812 13.730469 13.597656 12.917969 12.75 12.183594 C 12.320312 11.816406 11.90625 11.445312 11.503906 11.113281 C 11.488281 11.097656 11.457031 11.078125 11.457031 11.0625 C 11.347656 10.96875 11.25 10.886719 11.152344 10.808594 C 11.121094 10.792969 11.105469 10.761719 11.089844 10.761719 C 10.324219 10.152344 9.574219 9.59375 8.964844 9.164062 C 7.335938 8.0625 5.707031 7.039062 4.0625 6.257812 C 3.917969 6.175781 3.773438 6.128906 3.617188 6.050781 C 3.566406 6.03125 3.519531 6 3.488281 6 C 9.84375 9.433594 11.871094 12.550781 12.238281 14.945312 Z M 12.238281 14.945312 "/>
<use xlink:href="#surface14" mask="url(#mask3)"/>
<use xlink:href="#surface17" mask="url(#mask4)"/>
<use xlink:href="#surface20" mask="url(#mask5)"/>
<use xlink:href="#surface23" mask="url(#mask6)"/>
<use xlink:href="#surface26" mask="url(#mask7)"/>
<path style=" stroke:none;fill-rule:nonzero;fill:url(#linear11);" d="M 5.277344 11.589844 C 3.566406 10.21875 1.953125 8.300781 1.269531 6.785156 C 2.863281 10.824219 7.015625 16.558594 10.722656 18.921875 C 10.785156 18.96875 11.011719 19.097656 11.1875 19.191406 C 11.664062 18.457031 12.542969 16.941406 12.238281 14.945312 C 9.957031 14.640625 7.496094 13.394531 5.277344 11.589844 Z M 5.277344 11.589844 "/>
<use xlink:href="#surface29" mask="url(#mask8)"/>
<use xlink:href="#surface32" mask="url(#mask9)"/>
<path style=" stroke:none;fill-rule:nonzero;fill:url(#linear14);" d="M 5.277344 11.589844 C 7.496094 13.394531 9.957031 14.625 12.238281 14.929688 C 11.871094 12.550781 9.84375 9.417969 3.488281 6.015625 C 3.453125 6.003906 3.421875 5.988281 3.390625 5.96875 C 3.296875 5.921875 3.199219 5.890625 3.121094 5.839844 C 3.058594 5.808594 3.007812 5.792969 2.945312 5.761719 C 2.898438 5.746094 2.847656 5.714844 2.816406 5.714844 C 2.71875 5.667969 2.617188 5.628906 2.511719 5.601562 C 2.496094 5.601562 2.480469 5.585938 2.464844 5.585938 C 2.417969 5.570312 2.371094 5.539062 2.320312 5.523438 C 2.128906 5.457031 1.9375 5.363281 1.730469 5.296875 C 1.363281 5.1875 1.15625 5.363281 1.078125 5.632812 C 1.066406 5.664062 1.0625 5.695312 1.058594 5.730469 C 1.042969 5.761719 1.058594 5.808594 1.058594 5.855469 C 1.058594 5.875 1.058594 5.875 1.042969 5.890625 C 1.054688 6.078125 1.089844 6.269531 1.15625 6.449219 C 1.191406 6.5625 1.234375 6.675781 1.285156 6.785156 C 1.953125 8.300781 3.582031 10.21875 5.277344 11.589844 Z M 5.277344 11.589844 "/>
<path style=" stroke:none;fill-rule:nonzero;fill:url(#linear15);" d="M 30.878906 9.960938 C 30.191406 9.867188 28.675781 9.835938 25.671875 10.457031 C 25.316406 10.542969 24.953125 10.578125 24.585938 10.570312 C 24.203125 10.535156 23.789062 10.425781 23.421875 10.3125 C 22.460938 9.992188 21.648438 9.898438 20.992188 9.945312 C 20.425781 9.984375 19.882812 10.171875 19.410156 10.488281 C 19.035156 10.734375 18.710938 11.046875 18.453125 11.414062 C 17.957031 12.085938 16.917969 14.128906 15.5 14.671875 C 16.617188 15.726562 18.339844 16.605469 19.953125 16.078125 C 21.503906 15.566406 22.460938 14.195312 22.765625 13.746094 C 23.402344 12.804688 23.753906 12.453125 23.789062 12.40625 C 23.867188 12.324219 24.457031 11.640625 25.6875 11.222656 C 27.507812 10.617188 30.253906 10.25 30.910156 10.183594 C 30.992188 10.121094 30.972656 9.976562 30.878906 9.960938 Z M 30.878906 9.960938 "/>
<path style=" stroke:none;fill-rule:nonzero;fill:rgb(100%,100%,100%);fill-opacity:1;" d="M 22.421875 11.707031 C 22.421875 11.972656 22.207031 12.183594 21.945312 12.183594 C 21.679688 12.183594 21.464844 11.972656 21.464844 11.707031 C 21.464844 11.441406 21.679688 11.226562 21.945312 11.226562 C 22.207031 11.226562 22.421875 11.441406 22.421875 11.707031 Z M 22.421875 11.707031 "/>
</g>
</svg>
