<svg xmlns="http://www.w3.org/2000/svg" width="32" height="27" stroke="#000" stroke-linecap="round" stroke-linejoin="round" fill="#fff" fill-rule="evenodd"><defs><linearGradient y2="50.00%" y1="50.00%" x2="100.00%" x1="-0.00%" id="A"><stop stop-color="#2a59a2" offset="0%"/></linearGradient><linearGradient y2="50.00%" y1="50.00%" x2="179.76%" x1="-7.21%" id="B"><stop stop-color="#91d3f2" offset="0%"/><stop stop-color="#6fb2de" offset="26.6%"/><stop stop-color="#5598ce" offset="52.1%"/><stop stop-color="#4b8fc8" offset="67.3%"/></linearGradient><linearGradient y2="50.00%" y1="50.00%" x2="160.91%" x1="-0.00%" id="C"><stop stop-color="#2c9ec7" offset="0%"/><stop stop-color="#2c63a5" offset="40.4%"/><stop stop-color="#395da1" offset="100%"/></linearGradient><linearGradient y2="50.00%" y1="50.00%" x2="441.18%" x1="-415.68%" id="D"><stop stop-color="#4faac4" offset="0%"/><stop stop-color="#2f75b1" offset=".2%"/><stop stop-color="#356eac" offset="100%"/></linearGradient><linearGradient id="E" x1="-0.00%" x2="162.18%" y1="50.00%" y2="50.00%"><stop offset="0%" stop-color="#4faac4"/><stop offset=".2%" stop-color="#2f81b6"/><stop offset="100%" stop-color="#3b5ea9"/></linearGradient><linearGradient y2="50.00%" y1="50.00%" x2="146.50%" x1="-79.61%" id="F"><stop stop-color="#4faac4" offset="0%"/><stop stop-color="#1e3773" offset=".2%"/><stop stop-color="#203370" offset="100%"/></linearGradient><linearGradient y2="-3.06%" y1="147.30%" x2="50.00%" x1="50.00%" id="G"><stop stop-color="#4faac4" offset="0%"/><stop stop-color="#2c5a9a" offset=".2%"/><stop stop-color="#374580" offset="100%"/></linearGradient><linearGradient y2="50.00%" y1="50.00%" x2="129.61%" x1="-22.26%" id="H"><stop stop-color="#38b1da" offset="11.2%"/><stop stop-color="#326fb5" offset="100%"/></linearGradient></defs><g stroke="none" fill-rule="nonzero"><path d="M31.8293 11.1454h-.5714c-1.0393-.0129-3.0327.0983-4.8399 1.6599-4.3151 3.7359-5.3002 9.2352-12.6842 12.2032C7.5831 27.4802 0 25.1404 0 25.1404s6.7661-.4705 7.6633-5.6337C8.3639 15.4683 4.69 12.601 2.3838 8.9581.0388 5.248-.5636 2.1662.5662.8347c3.2034-3.7825 12.0249 6.4429 16.4046 7.8209 4.2866 1.347 7.1798-1.7814 10.7295-1.3211 1.1325.1447 1.6858.6334 2.0529 1.2565.1241.2094.4292.923.7007 1.1867.2663.2586.6205.4499.9514.6438.4214.2482.8377.7239.424.7239z" fill="url(#A)"/><path d="M11.5569 5.2299L8.3277 2.8073l-.7265-.5093C4.7185.3253 2.0451-.9105.5663.8346-.5636 2.1661.0388 5.248 2.3864 8.9581l.0724.1138c1.2229 1.8925 4.7701 6.3266 13.178 6.1378.5532-.5869 1.3935-1.696 2.4794-2.9034-1.7607-2.8466-4.4134-5.3287-6.5593-7.0764z" fill="url(#B)"/><path d="M20.032 18.6069c.0336-1.2617-.1965-2.5053-.6335-3.7075-1.1039.1654-2.3475.2792-3.7618.3102-1.029 1.0937-3.3791 4.0152-7.2728 6.6472C3.1801 25.3627.0026 25.1403.0026 25.1403s7.5857 2.3399 13.7338-.1318c2.2054-.8868 3.842-1.9986 5.1657-3.2241.2172-.2068 1.0833-1.2875 1.1299-3.1775z" fill="url(#C)"/><path d="M18.1187 12.3062l-2.4794 2.9034c1.4168-.031 2.6604-.1448 3.7618-.3102-.1293-.3594-.2792-.7136-.4447-1.0626-.2482-.5197-.53-1.0316-.8377-1.5306z" fill="url(#D)"/><path d="M24.422 7.7326c-2.27.6877-4.5374 1.8382-7.4512.923-1.4427-.4525-3.3688-1.8667-5.4139-3.4257 2.1459 1.7477 4.7986 4.2272 6.5618 7.0764 1.6082-1.7814 3.7541-3.7722 6.3033-4.5737z" fill="url(#E)"/><path d="M19.4011 14.8994c.4369 1.2023.667 2.4459.6334 3.7076-.0491 1.8873-.9152 2.9681-1.1324 3.1775 3.1051-2.8725 4.4935-6.3602 7.5185-8.9793.5636-.4861 1.1427-.8325 1.7089-1.0781h-.0026c-1.983.8325-4.1341 2.4794-8.7258 3.1723z" fill="url(#F)"/><path d="M31.8293 11.1454c.4136 0-.0026-.4757-.4215-.7213-.3309-.1965-.6851-.3879-.9514-.6438-.2741-.2637-.5791-.9799-.7007-1.1867-.3697-.6257-.9204-1.1118-2.0528-1.2566-1.1375-.1473-2.2079.075-3.2783.3982-2.5493.8015-4.6978 2.7923-6.3059 4.5737.3076.4989.592 1.0083.8377 1.5279l.4447 1.0627c4.5943-.6929 6.7428-2.3399 8.7258-3.1724h.0026c1.2488-.5429 2.4174-.592 3.131-.5817z" fill="url(#G)"/><path d="M8.3639 21.8569c3.8937-2.632 6.2438-5.5535 7.2728-6.6472-8.4078.1888-11.955-4.2453-13.178-6.1378 2.3089 3.5912 5.9 6.4403 5.2071 10.4349-.8971 5.163-7.6632 5.6336-7.6632 5.6336s3.1775.2223 8.3613-3.2835z" fill="url(#H)"/><path d="M26.7955 9.2605c0-.3695.2998-.667.6722-.667s.6722.2975.6722.667-.2998.6671-.6722.6671-.6722-.2975-.6722-.6671z"/></g></svg>