<svg role="img" viewBox="0 0 23.077 32" xmlns="http://www.w3.org/2000/svg"><path d="M1.031 8.793a.895.895 0 0 1 0-1.5L11.06.773a.902.902 0 0 1 .976 0l10.028 6.52a.895.895 0 0 1 0 1.5l-10.028 6.52a.887.887 0 0 1-.976 0Zm0 0" style="stroke:none;fill-rule:nonzero;fill:rgb(19.607843%,42.352942%,89.803922%);fill-opacity:1"/><path d="M13.129 9.945h.695a.524.524 0 0 0 .457-.265.511.511 0 0 0 0-.528l-2.277-3.945a.528.528 0 0 0-.914 0L8.813 9.152a.511.511 0 0 0 0 .528.524.524 0 0 0 .457.265h.695c.289 0 .527.235.527.528v4.504l.465.304c.36.235.82.235 1.18 0l.465-.304v-4.504c0-.293.238-.528.527-.528m0 0" style="stroke:none;fill-rule:nonzero;fill:rgb(75.686276%,82.352942%,96.862745%);fill-opacity:1"/><path d="m15.02 18.656-2.418-1.574v.746c.789.332 1.593.606 2.418.828m-2.418.512v1.047c.8.242 1.609.445 2.41.64 2.613.645 5.082 1.254 7.066 3.239.102.101.195.203.29.308a.897.897 0 0 0-.305-1.168l-3.93-2.554c-.953-.313-1.922-.555-2.883-.793-.906-.223-1.793-.446-2.648-.719m-2.11-.86a9.715 9.715 0 0 1-.996-.578l-.898.582a10.83 10.83 0 0 0 1.894 1.11Zm3.004 3.333-.894-.223v1.027l.656.164c2.613.645 5.082 1.254 7.07 3.239.004.004.004.007.008.007l.852-.55c-.055-.055-.102-.11-.157-.164-2.18-2.18-4.902-2.852-7.535-3.5m-3.004-.836a10.835 10.835 0 0 1-3.195-1.645l-.879.57c1.25 1.036 2.64 1.66 4.074 2.125Zm0 2.273c-1.957-.512-3.797-1.14-5.367-2.508l-.863.563c1.843 1.699 4.039 2.41 6.23 2.972Zm2.11 1.559c2.046.527 3.968 1.16 5.597 2.61l.86-.56c-1.903-1.789-4.188-2.503-6.457-3.082Zm-9.618-2.672-.851.555c.027.03.054.062.086.093 2.183 2.18 4.902 2.852 7.535 3.5 2.277.563 4.445 1.098 6.281 2.54l.875-.567c-2.066-1.742-4.527-2.352-6.918-2.941-2.586-.637-5.031-1.243-7.008-3.18M1.172 23.66a13.396 13.396 0 0 1-.285-.305.896.896 0 0 0-.258.727.895.895 0 0 0 .402.652l2.953 1.922c1.305.54 2.672.88 4.016 1.211 2.102.516 4.105 1.012 5.84 2.215l.894-.582c-1.976-1.484-4.265-2.055-6.496-2.602-2.613-.644-5.082-1.253-7.066-3.238m9.61 7.414c.195.094.39.196.581.305.23.047.473.004.672-.125l.496-.32c-1.594-1.067-3.363-1.606-5.129-2.055Zm0 0" style="stroke:none;fill-rule:nonzero;fill:rgb(19.607843%,42.352942%,89.803922%);fill-opacity:1"/></svg>