<?xml version="1.0" encoding="UTF-8"?>
<svg xmlns="http://www.w3.org/2000/svg" xmlns:xlink="http://www.w3.org/1999/xlink" width="32" height="32" viewBox="0 0 32 32" version="1.1">
<g id="surface1">
<path style=" stroke:none;fill-rule:nonzero;fill:rgb(60.000002%,60.000002%,60.000002%);fill-opacity:1;" d="M 28.800781 6.398438 L 14.398438 6.398438 L 11.199219 3.199219 L 3.199219 3.199219 C 1.441406 3.199219 0 4.640625 0 6.398438 L 0 12.800781 L 32 12.800781 L 32 9.601562 C 32 7.839844 30.558594 6.398438 28.800781 6.398438 Z M 28.800781 6.398438 "/>
<path style=" stroke:none;fill-rule:nonzero;fill:rgb(72.941178%,72.941178%,72.941178%);fill-opacity:1;" d="M 28.800781 6.398438 L 3.199219 6.398438 C 1.441406 6.398438 0 7.839844 0 9.601562 L 0 25.601562 C 0 27.359375 1.441406 28.800781 3.199219 28.800781 L 28.800781 28.800781 C 30.558594 28.800781 32 27.359375 32 25.601562 L 32 9.601562 C 32 7.839844 30.558594 6.398438 28.800781 6.398438 Z M 28.800781 6.398438 "/>
<path style=" stroke:none;fill-rule:nonzero;fill:rgb(53.333336%,53.333336%,53.333336%);fill-opacity:1;" d="M 22.785156 17.535156 L 16.609375 11.359375 C 16.257812 11.007812 15.679688 11.007812 15.328125 11.359375 L 14.046875 12.640625 L 15.648438 14.238281 C 16 14.113281 16.480469 14.207031 16.769531 14.496094 C 17.054688 14.785156 17.152344 15.265625 17.023438 15.617188 L 18.59375 17.183594 C 18.976562 17.054688 19.425781 17.152344 19.710938 17.441406 C 20.128906 17.855469 20.128906 18.558594 19.710938 18.976562 C 19.296875 19.390625 18.59375 19.390625 18.175781 18.976562 C 17.855469 18.65625 17.792969 18.175781 17.953125 17.792969 L 16.511719 16.351562 L 16.511719 20.191406 L 16.800781 20.382812 C 17.214844 20.800781 17.214844 21.503906 16.800781 21.921875 C 16.382812 22.335938 15.679688 22.335938 15.265625 21.921875 C 14.847656 21.503906 14.816406 20.800781 15.230469 20.382812 C 15.328125 20.289062 15.425781 20.191406 15.550781 20.160156 L 15.550781 16.289062 C 15.457031 16.222656 15.328125 16.160156 15.230469 16.0625 C 14.910156 15.742188 14.847656 15.265625 15.007812 14.878906 L 13.441406 13.28125 L 9.214844 17.503906 C 8.863281 17.855469 8.863281 18.433594 9.214844 18.785156 L 15.359375 24.929688 C 15.710938 25.28125 16.289062 25.28125 16.640625 24.929688 L 22.753906 18.816406 C 23.136719 18.433594 23.136719 17.855469 22.785156 17.535156 Z M 22.785156 17.535156 "/>
</g>
</svg>
