<svg role="img" viewBox="0 0 32 32" xmlns="http://www.w3.org/2000/svg"><path d="M28.8 6.398H14.399L11.2 3.2h-8A3.21 3.21 0 0 0 0 6.4v6.4h32V9.6a3.212 3.212 0 0 0-3.2-3.203m0 0" style="stroke:none;fill-rule:nonzero;fill:rgb(60.000002%,60.000002%,60.000002%);fill-opacity:1"/><path d="M28.8 6.398H3.2A3.212 3.212 0 0 0 0 9.602v16A3.21 3.21 0 0 0 3.2 28.8h25.6a3.21 3.21 0 0 0 3.2-3.2v-16a3.212 3.212 0 0 0-3.2-3.203m0 0" style="stroke:none;fill-rule:nonzero;fill:rgb(72.941178%,72.941178%,72.941178%);fill-opacity:1"/><path d="M22.785 17.535 16.61 11.36a.91.91 0 0 0-1.28 0l-1.282 1.282 1.601 1.597a1.134 1.134 0 0 1 1.122.258c.285.29.382.77.253 1.121l1.57 1.567a1.101 1.101 0 0 1 1.118.257 1.096 1.096 0 0 1 0 1.536 1.104 1.104 0 0 1-1.535 0 1.09 1.09 0 0 1-.223-1.184l-1.441-1.441v3.84l.289.19a1.109 1.109 0 0 1 0 1.54 1.104 1.104 0 0 1-1.535 0c-.418-.418-.45-1.121-.036-1.54.098-.093.196-.19.32-.222v-3.87c-.093-.067-.222-.13-.32-.227a1.089 1.089 0 0 1-.222-1.184l-1.569-1.6-4.226 4.223a.91.91 0 0 0 0 1.281l6.144 6.145a.91.91 0 0 0 1.282 0l6.113-6.114c.383-.382.383-.96.031-1.28m0 0" style="stroke:none;fill-rule:nonzero;fill:rgb(53.333336%,53.333336%,53.333336%);fill-opacity:1"/></svg>