<?xml version="1.0" encoding="UTF-8"?>
<svg xmlns="http://www.w3.org/2000/svg" xmlns:xlink="http://www.w3.org/1999/xlink" width="35.609287" height="32" viewBox="0 0 35.609287 32" version="1.1">
<defs>
<filter id="alpha" filterUnits="objectBoundingBox" x="0%" y="0%" width="100%" height="100%">
  <feColorMatrix type="matrix" in="SourceGraphic" values="0 0 0 0 1 0 0 0 0 1 0 0 0 0 1 0 0 0 1 0"/>
</filter>
<mask id="mask0">
  <g filter="url(#alpha)">
<rect x="0" y="0" width="35.609287" height="32" style="fill:rgb(0%,0%,0%);fill-opacity:0.07;stroke:none;"/>
  </g>
</mask>
<clipPath id="clip1">
  <rect x="0" y="0" width="36" height="32"/>
</clipPath>
<g id="surface5" clip-path="url(#clip1)">
<path style=" stroke:none;fill-rule:nonzero;fill:rgb(0%,0%,0%);fill-opacity:1;" d="M 22.160156 8.96875 L 14.742188 10.152344 L 13.285156 15.023438 L 11.039062 13.074219 L 13.394531 22.988281 L 22.394531 31.992188 L 25.117188 31.992188 C 26.265625 31.953125 27.308594 31.3125 27.863281 30.304688 L 33.546875 20.421875 Z M 22.160156 8.96875 "/>
</g>
</defs>
<g id="surface1">
<path style=" stroke:none;fill-rule:nonzero;fill:rgb(25.882354%,52.156866%,95.686275%);fill-opacity:1;" d="M 35.179688 14.359375 L 27.867188 1.636719 C 27.304688 0.644531 26.261719 0.0195312 25.121094 0 L 10.488281 0 C 9.347656 0.0195312 8.304688 0.640625 7.742188 1.636719 L 0.425781 14.328125 C -0.140625 15.3125 -0.140625 16.523438 0.425781 17.507812 L 7.742188 30.304688 C 8.292969 31.3125 9.335938 31.957031 10.484375 32 L 25.117188 32 C 26.265625 31.960938 27.308594 31.320312 27.863281 30.3125 L 35.179688 17.589844 C 35.753906 16.589844 35.753906 15.363281 35.179688 14.359375 Z M 35.179688 14.359375 "/>
<use xlink:href="#surface5" mask="url(#mask0)"/>
<path style=" stroke:none;fill-rule:nonzero;fill:rgb(100%,100%,100%);fill-opacity:1;" d="M 19.960938 16.019531 C 19.960938 17.234375 18.972656 18.222656 17.753906 18.222656 C 16.539062 18.222656 15.550781 17.234375 15.550781 16.019531 C 15.550781 14.800781 16.539062 13.8125 17.753906 13.8125 C 18.972656 13.8125 19.960938 14.800781 19.960938 16.019531 M 25.921875 15.441406 L 24.269531 12.570312 L 20.902344 12.570312 L 22.875 15.996094 L 22.34375 16.921875 L 20.335938 20.414062 L 19.714844 21.492188 L 18.636719 23.355469 L 21.375 23.355469 C 21.769531 23.355469 22.132812 23.140625 22.332031 22.800781 L 25.921875 16.550781 C 26.117188 16.210938 26.117188 15.792969 25.921875 15.453125 "/>
<path style=" stroke:none;fill-rule:nonzero;fill:rgb(100%,100%,100%);fill-opacity:1;" d="M 15.257812 20.417969 L 12.71875 15.996094 L 11.035156 13.078125 L 9.671875 15.441406 C 9.476562 15.78125 9.476562 16.199219 9.671875 16.539062 L 13.257812 22.804688 C 13.457031 23.144531 13.820312 23.359375 14.214844 23.359375 L 17.503906 23.359375 L 19.195312 20.417969 Z M 23.710938 11.59375 L 22.339844 9.207031 C 22.144531 8.863281 21.777344 8.652344 21.382812 8.648438 L 14.210938 8.648438 C 13.816406 8.652344 13.453125 8.863281 13.253906 9.207031 L 11.59375 12.101562 L 13.28125 15.027344 L 15.257812 11.59375 Z M 23.710938 11.59375 "/>
</g>
</svg>
