<svg xmlns="http://www.w3.org/2000/svg" viewBox="0 0 6071.05 5455.7" xml:space="preserve"><path fill="#4285F4" d="m5998.075 2448.3-1247.3-2169.4c-95.5-169.3-273.4-275.4-467.7-278.9h-2495.2c-194.3 3.4-372.3 109.5-467.6 278.9L72.375 2442.6c-96.5 168-96.5 374.6 0 542.6l1247.4 2181.7c94.4 171.7 271.9 281.3 467.6 288.8h2495.2c195.8-6.7 373.6-115.9 468.1-287.4l1247.4-2169.4c97.3-170.7 97.3-379.9 0-550.6z"/><path opacity=".07" d="m3777.975 1529.1-1264.5 202-248.5 830-383.2-332 402.2 1689.9 1533.8 1535.3h464.8c195.8-6.7 373.6-115.9 468.1-287.4l969-1685.1-1941.7-1952.7z"/><g fill="#FFF"><path d="M3403.275 2730.9c0 207.7-168.4 376.1-376.1 376.1-207.7 0-376.1-168.4-376.1-376.1 0-207.7 168.4-376.1 376.1-376.1 207.7 0 376.1 168.4 376.1 376.1M4419.675 2632.3l-281.7-489h-574.4l336.3 583.8-90.6 157.9-342 595.7-105.8 183.5-184 317.8h466.7c67.4-.4 129.5-36.5 163.2-94.9l612.3-1065.1c33-58.1 33-129.3 0-187.3"/><path d="m2601.275 3480.8-432.6-753.6-287.4-497.5-232.4 402.7c-33 58.1-33 129.3 0 187.3l611.4 1068.1c33.7 58.3 95.8 94.5 163.2 94.9h561.1l287.9-501.8h-671.2v-.1zM4042.175 1976.4l-233.3-406.9c-33.7-58.3-95.8-94.5-163.2-94.9h-1222.7c-67.4.4-129.5 36.5-163.2 94.9l-283.1 493.7 287.9 498.5 336.7-585.3h1440.9z"/></g></svg>