<svg xmlns:xlink="http://www.w3.org/1999/xlink" role="img" viewBox="0 0 35.609 32" xmlns="http://www.w3.org/2000/svg"><defs><clipPath id="b"><path d="M0 0h36v32H0z"/></clipPath><filter filterUnits="objectBoundingBox" height="100%" id="a" width="100%" x="0%" y="0%"><feColorMatrix in="SourceGraphic" values="0 0 0 0 1 0 0 0 0 1 0 0 0 0 1 0 0 0 1 0"/></filter><mask id="d"><g filter="url(#a)"><path d="M0 0h35.609v32H0z" style="fill:rgb(0%,0%,0%);fill-opacity:0.07;stroke:none"/></g></mask><g clip-path="url(#b)" id="c"><path d="m22.16 8.969-7.418 1.183-1.457 4.871-2.246-1.949 2.356 9.914 9 9.004h2.722a3.26 3.26 0 0 0 2.746-1.687l5.684-9.883Zm0 0" style="stroke:none;fill-rule:nonzero;fill:rgb(0%,0%,0%);fill-opacity:1"/></g></defs><path d="M35.18 14.36 27.867 1.636A3.223 3.223 0 0 0 25.121 0H10.488c-1.14.02-2.183.64-2.746 1.637L.426 14.328a3.187 3.187 0 0 0 0 3.18l7.316 12.797A3.265 3.265 0 0 0 10.484 32h14.633a3.26 3.26 0 0 0 2.746-1.687L35.18 17.59c.574-1 .574-2.227 0-3.23m0 0" style="stroke:none;fill-rule:nonzero;fill:rgb(25.882354%,52.156866%,95.686275%);fill-opacity:1"/><use xlink:href="#c" mask="url(#d)"/><path d="M19.96 16.02a2.206 2.206 0 1 1-4.41-.005 2.206 2.206 0 0 1 4.41.005m5.962-.579-1.652-2.87h-3.368l1.973 3.425-.531.926-2.008 3.492-.621 1.078-1.078 1.863h2.738c.395 0 .758-.214.957-.554l3.59-6.25c.195-.34.195-.758 0-1.098m-10.664 4.965-2.54-4.422-1.683-2.918-1.363 2.363c-.195.34-.195.758 0 1.098l3.586 6.266c.199.34.562.554.957.554h3.289l1.691-2.941Zm8.453-8.824L22.34 9.207a1.113 1.113 0 0 0-.957-.559H14.21a1.118 1.118 0 0 0-.957.559l-1.66 2.895 1.687 2.925 1.977-3.433Zm0 0" style="stroke:none;fill-rule:nonzero;fill:rgb(100%,100%,100%);fill-opacity:1"/></svg>