<?xml version="1.0" encoding="UTF-8"?>
<svg xmlns="http://www.w3.org/2000/svg" xmlns:xlink="http://www.w3.org/1999/xlink" width="32" height="32" viewBox="0 0 32 32" version="1.1">
<g id="surface1">
<path style=" stroke:none;fill-rule:nonzero;fill:rgb(68.235296%,79.607844%,98.039216%);fill-opacity:1;" d="M 11.199219 11.199219 L 20.800781 11.199219 L 20.800781 20.800781 L 11.199219 20.800781 Z M 11.199219 11.199219 "/>
<path style=" stroke:none;fill-rule:nonzero;fill:rgb(40.000001%,61.56863%,96.470588%);fill-opacity:1;" d="M 14.398438 0 L 17.601562 0 L 17.601562 6.398438 L 14.398438 6.398438 Z M 8 0 L 11.199219 0 L 11.199219 6.398438 L 8 6.398438 Z M 20.800781 0 L 24 0 L 24 6.398438 L 20.800781 6.398438 Z M 20.800781 0 "/>
<path style=" stroke:none;fill-rule:nonzero;fill:rgb(25.882354%,52.156866%,95.686275%);fill-opacity:1;" d="M 14.398438 25.601562 L 17.601562 25.601562 L 17.601562 32 L 14.398438 32 Z M 8 25.601562 L 11.199219 25.601562 L 11.199219 32 L 8 32 Z M 20.800781 25.601562 L 24 25.601562 L 24 32 L 20.800781 32 Z M 25.601562 17.601562 L 25.601562 14.398438 L 32 14.398438 L 32 17.601562 Z M 25.601562 24 L 25.601562 20.800781 L 32 20.800781 L 32 24 Z M 25.601562 11.199219 L 25.601562 8 L 32 8 L 32 11.199219 Z M 25.601562 11.199219 "/>
<path style=" stroke:none;fill-rule:nonzero;fill:rgb(40.000001%,61.56863%,96.470588%);fill-opacity:1;" d="M 0 17.601562 L 0 14.398438 L 6.398438 14.398438 L 6.398438 17.601562 Z M 0 24 L 0 20.800781 L 6.398438 20.800781 L 6.398438 24 Z M 0 11.199219 L 0 8 L 6.398438 8 L 6.398438 11.199219 Z M 0 11.199219 "/>
<path style=" stroke:none;fill-rule:nonzero;fill:rgb(68.235296%,79.607844%,98.039216%);fill-opacity:1;" d="M 4.800781 4.800781 L 4.800781 27.199219 L 27.199219 27.199219 L 27.199219 4.800781 Z M 24 24 L 8 24 L 8 8 L 24 8 Z M 24 24 "/>
<path style=" stroke:none;fill-rule:nonzero;fill:rgb(40.000001%,61.56863%,96.470588%);fill-opacity:1;" d="M 11.199219 20.800781 L 20.800781 20.800781 L 16 16 Z M 11.199219 20.800781 "/>
<path style=" stroke:none;fill-rule:nonzero;fill:rgb(25.882354%,52.156866%,95.686275%);fill-opacity:1;" d="M 16 16 L 20.800781 20.800781 L 20.800781 11.199219 Z M 16 16 "/>
</g>
</svg>
