<svg xmlns="http://www.w3.org/2000/svg" width="32" height="32" stroke="none" stroke-linecap="round" stroke-linejoin="round" fill="#fff" fill-rule="nonzero"><path d="M11.2 11.2h9.6v9.6h-9.6z" fill="#aecbfa"/><path d="M14.4 0h3.2v6.4h-3.2zM8 0h3.2v6.4H8zm12.8 0H24v6.4h-3.2z" fill="#669df6"/><path d="M14.4 25.6h3.2V32h-3.2zm-6.4 0h3.2V32H8zm12.8 0H24V32h-3.2zm4.8-8v-3.2H32v3.2zm0 6.4v-3.2H32V24zm0-12.8V8H32v3.2z" fill="#4285f4"/><path d="M0 17.6v-3.2h6.4v3.2zM0 24v-3.2h6.4V24zm0-12.8V8h6.4v3.2z" fill="#669df6"/><path d="M4.8 4.8v22.4h22.4V4.8zM24 24H8V8h16z" fill="#aecbfa"/><path d="M11.2 20.8h9.6L16 16l-4.8 4.8z" fill="#669df6"/><path d="M16 16l4.8 4.8v-9.6L16 16z" fill="#4285f4"/></svg>