<svg role="img" viewBox="0 0 32 32" xmlns="http://www.w3.org/2000/svg"><path d="M11.2 11.2h9.6v9.6h-9.6Zm0 0" style="stroke:none;fill-rule:nonzero;fill:rgb(68.235296%,79.607844%,98.039216%);fill-opacity:1"/><path d="M14.398 0h3.204v6.398h-3.204ZM8 0h3.2v6.398H8Zm12.8 0H24v6.398h-3.2Zm0 0" style="stroke:none;fill-rule:nonzero;fill:rgb(40.000001%,61.56863%,96.470588%);fill-opacity:1"/><path d="M14.398 25.602h3.204V32h-3.204Zm-6.398 0h3.2V32H8Zm12.8 0H24V32h-3.2Zm4.802-8v-3.204H32v3.204Zm0 6.398v-3.2H32V24Zm0-12.8V8H32v3.2Zm0 0" style="stroke:none;fill-rule:nonzero;fill:rgb(25.882354%,52.156866%,95.686275%);fill-opacity:1"/><path d="M0 17.602v-3.204h6.398v3.204ZM0 24v-3.2h6.398V24Zm0-12.8V8h6.398v3.2Zm0 0" style="stroke:none;fill-rule:nonzero;fill:rgb(40.000001%,61.56863%,96.470588%);fill-opacity:1"/><path d="M4.8 4.8v22.4h22.4V4.8ZM24 24H8V8h16Zm0 0" style="stroke:none;fill-rule:nonzero;fill:rgb(68.235296%,79.607844%,98.039216%);fill-opacity:1"/><path d="M11.2 20.8h9.6L16 16Zm0 0" style="stroke:none;fill-rule:nonzero;fill:rgb(40.000001%,61.56863%,96.470588%);fill-opacity:1"/><path d="m16 16 4.8 4.8v-9.6Zm0 0" style="stroke:none;fill-rule:nonzero;fill:rgb(25.882354%,52.156866%,95.686275%);fill-opacity:1"/></svg>