<svg role="img" viewBox="0 0 32 32" xmlns="http://www.w3.org/2000/svg"><path d="M2.668 5.332h26.664v9.336H2.668Zm0 0" style="stroke:none;fill-rule:nonzero;fill:rgb(68.235296%,79.607844%,98.039216%);fill-opacity:1"/><path d="M26.668 5.332h2.664v9.336h-2.664Zm0 0" style="stroke:none;fill-rule:nonzero;fill:rgb(40.000001%,61.56863%,96.470588%);fill-opacity:1"/><path d="M29.332 5.332h-2.664v9.336Zm0 0" style="stroke:none;fill-rule:nonzero;fill:rgb(25.882354%,52.156866%,95.686275%);fill-opacity:1"/><path d="M2.668 5.332h2.664v9.336H2.668Zm0 0" style="stroke:none;fill-rule:nonzero;fill:rgb(40.000001%,61.56863%,96.470588%);fill-opacity:1"/><path d="M8 9.332h8v1.336H8ZM22 8a1.999 1.999 0 1 1 0 4 1.999 1.999 0 1 1 0-4m0 0" style="stroke:none;fill-rule:nonzero;fill:rgb(100%,100%,100%);fill-opacity:1"/><path d="M2.668 17.332h26.664v9.336H2.668Zm0 0" style="stroke:none;fill-rule:nonzero;fill:rgb(68.235296%,79.607844%,98.039216%);fill-opacity:1"/><path d="M26.668 17.332h2.664v9.336h-2.664Zm0 0" style="stroke:none;fill-rule:nonzero;fill:rgb(40.000001%,61.56863%,96.470588%);fill-opacity:1"/><path d="M29.332 17.332h-2.664v9.336Zm0 0" style="stroke:none;fill-rule:nonzero;fill:rgb(25.882354%,52.156866%,95.686275%);fill-opacity:1"/><path d="M2.668 17.332h2.664v9.336H2.668Zm0 0" style="stroke:none;fill-rule:nonzero;fill:rgb(40.000001%,61.56863%,96.470588%);fill-opacity:1"/><path d="M8 21.332h8v1.336H8ZM22 20a1.999 1.999 0 1 1 0 4 1.999 1.999 0 1 1 0-4m0 0" style="stroke:none;fill-rule:nonzero;fill:rgb(100%,100%,100%);fill-opacity:1"/></svg>