<?xml version="1.0" encoding="UTF-8"?>
<svg xmlns="http://www.w3.org/2000/svg" xmlns:xlink="http://www.w3.org/1999/xlink" width="32" height="32" viewBox="0 0 32 32" version="1.1">
<g id="surface1">
<path style=" stroke:none;fill-rule:nonzero;fill:rgb(0%,0%,0%);fill-opacity:1;" d="M 21.332031 25.667969 C 21.332031 23.273438 23.273438 21.332031 25.667969 21.332031 C 28.058594 21.332031 30 23.273438 30 25.667969 C 30 28.058594 28.058594 30 25.667969 30 C 23.273438 30 21.332031 28.058594 21.332031 25.667969 M 2 25.667969 C 2 23.273438 3.941406 21.332031 6.332031 21.332031 C 8.726562 21.332031 10.667969 23.273438 10.667969 25.667969 C 10.667969 28.058594 8.726562 30 6.332031 30 C 3.941406 30 2 28.058594 2 25.667969 M 2 6.332031 C 2 3.941406 3.941406 2 6.332031 2 C 8.726562 2 10.667969 3.941406 10.667969 6.332031 C 10.667969 8.726562 8.726562 10.667969 6.332031 10.667969 C 3.941406 10.667969 2 8.726562 2 6.332031 M 6.332031 4 C 5.042969 4 4 5.046875 4 6.335938 C 4 7.625 5.046875 8.667969 6.335938 8.667969 C 7.625 8.667969 8.667969 7.621094 8.667969 6.332031 C 8.667969 5.042969 7.621094 4 6.332031 4 M 6.332031 23.332031 C 5.042969 23.332031 4 24.378906 4 25.667969 C 4 26.957031 5.046875 28 6.335938 28 C 7.625 28 8.667969 26.957031 8.667969 25.667969 C 8.667969 24.378906 7.621094 23.332031 6.332031 23.332031 M 25.667969 23.332031 C 24.378906 23.332031 23.332031 24.378906 23.332031 25.667969 C 23.332031 26.957031 24.378906 28 25.667969 28 C 26.957031 28 28 26.957031 28 25.667969 C 28 24.378906 26.957031 23.332031 25.667969 23.332031 M 17.875 2.292969 C 18.261719 2.683594 18.261719 3.316406 17.875 3.707031 L 16.246094 5.332031 L 21.667969 5.332031 C 24.429688 5.332031 26.667969 7.570312 26.667969 10.332031 L 26.667969 22 C 26.667969 22.550781 26.21875 23 25.667969 23 C 25.113281 23 24.667969 22.550781 24.667969 22 L 24.667969 10.332031 C 24.667969 8.675781 23.324219 7.332031 21.667969 7.332031 L 16.246094 7.332031 L 17.875 8.960938 C 18.253906 9.351562 18.246094 9.976562 17.863281 10.363281 C 17.476562 10.746094 16.851562 10.753906 16.460938 10.375 L 13.125 7.039062 C 12.738281 6.648438 12.738281 6.015625 13.125 5.625 L 16.460938 2.292969 C 16.851562 1.902344 17.484375 1.902344 17.875 2.292969 M 6.332031 9.667969 C 6.886719 9.667969 7.332031 10.113281 7.332031 10.667969 L 7.332031 21.332031 C 7.332031 21.886719 6.886719 22.332031 6.332031 22.332031 C 5.78125 22.332031 5.332031 21.886719 5.332031 21.332031 L 5.332031 10.667969 C 5.332031 10.113281 5.78125 9.667969 6.332031 9.667969 "/>
</g>
</svg>
