<?xml version="1.0" encoding="UTF-8"?>
<svg xmlns="http://www.w3.org/2000/svg" xmlns:xlink="http://www.w3.org/1999/xlink" width="32" height="32" viewBox="0 0 32 32" version="1.1">
<g id="surface1">
<path style=" stroke:none;fill-rule:nonzero;fill:rgb(0%,0%,0%);fill-opacity:1;" d="M 7.667969 8.667969 C 6.378906 8.667969 5.332031 7.621094 5.332031 6.332031 C 5.332031 5.042969 6.378906 4 7.667969 4 C 8.957031 4 10 5.042969 10 6.332031 C 10 7.621094 8.957031 8.667969 7.667969 8.667969 M 12.667969 11.667969 C 12.667969 10.378906 13.710938 9.332031 15 9.332031 C 16.289062 9.332031 17.335938 10.378906 17.335938 11.667969 C 17.335938 12.957031 16.289062 14 15 14 C 13.710938 14 12.667969 12.957031 12.667969 11.667969 M 7.667969 30 C 5.464844 30 3.613281 28.351562 3.359375 26.167969 C 3.105469 23.980469 4.53125 21.949219 6.671875 21.449219 C 6.667969 21.410156 6.667969 21.371094 6.667969 21.332031 L 6.667969 14.667969 C 6.667969 14.113281 7.113281 13.667969 7.667969 13.667969 C 8.21875 13.667969 8.667969 14.113281 8.667969 14.667969 L 8.667969 21.332031 C 8.667969 21.371094 8.664062 21.410156 8.660156 21.449219 C 10.792969 21.960938 12.207031 23.984375 11.953125 26.164062 C 11.699219 28.34375 9.859375 29.988281 7.667969 30 M 5.332031 25.667969 C 5.332031 26.957031 6.378906 28 7.667969 28 C 8.957031 28 10 26.953125 10 25.664062 C 10 24.375 8.957031 23.332031 7.667969 23.332031 C 6.378906 23.332031 5.332031 24.378906 5.332031 25.667969 M 20 17 C 20 14.605469 21.941406 12.667969 24.332031 12.667969 C 26.726562 12.667969 28.667969 14.605469 28.667969 17 C 28.667969 19.394531 26.726562 21.332031 24.332031 21.332031 C 21.941406 21.332031 20 19.394531 20 17 M 24.332031 19.332031 C 25.621094 19.332031 26.667969 18.289062 26.667969 17 C 26.667969 15.710938 25.621094 14.667969 24.332031 14.667969 C 23.042969 14.667969 22 15.710938 22 17 C 22 18.289062 23.042969 19.332031 24.332031 19.332031 "/>
</g>
</svg>
