<?xml version="1.0" encoding="UTF-8"?>
<svg xmlns="http://www.w3.org/2000/svg" xmlns:xlink="http://www.w3.org/1999/xlink" width="32" height="32" viewBox="0 0 32 32" version="1.1">
<g id="surface1">
<path style=" stroke:none;fill-rule:nonzero;fill:rgb(0%,0%,0%);fill-opacity:1;" d="M 22 25.667969 C 22 23.273438 23.941406 21.332031 26.332031 21.332031 C 28.726562 21.332031 30.667969 23.273438 30.667969 25.667969 C 30.667969 28.058594 28.726562 30 26.332031 30 C 23.941406 30 22 28.058594 22 25.667969 M 26.332031 23.332031 C 25.042969 23.332031 24 24.378906 24 25.667969 C 24 26.957031 25.046875 28 26.335938 28 C 27.625 28 28.667969 26.957031 28.667969 25.667969 C 28.667969 24.378906 27.621094 23.332031 26.332031 23.332031 M 18.539062 2.292969 C 18.929688 2.683594 18.929688 3.316406 18.539062 3.707031 L 16.914062 5.332031 L 22.332031 5.332031 C 25.09375 5.332031 27.332031 7.570312 27.332031 10.332031 L 27.332031 22 C 27.332031 22.550781 26.886719 23 26.332031 23 C 25.78125 23 25.332031 22.550781 25.332031 22 L 25.332031 10.332031 C 25.332031 8.675781 23.988281 7.332031 22.332031 7.332031 L 16.914062 7.332031 L 18.542969 8.960938 C 18.921875 9.351562 18.914062 9.976562 18.527344 10.363281 C 18.140625 10.746094 17.519531 10.753906 17.125 10.375 L 13.792969 7.039062 C 13.402344 6.648438 13.402344 6.015625 13.792969 5.625 L 17.125 2.292969 C 17.515625 1.902344 18.148438 1.902344 18.539062 2.292969 M 10 6.332031 C 10 8.726562 8.058594 10.667969 5.667969 10.667969 C 3.273438 10.667969 1.332031 8.726562 1.332031 6.332031 C 1.332031 3.941406 3.273438 2 5.667969 2 C 8.058594 2 10 3.941406 10 6.332031 M 5.667969 8.667969 C 6.957031 8.667969 8 7.621094 8 6.332031 C 8 5.042969 6.953125 4 5.664062 4 C 4.375 4 3.332031 5.042969 3.332031 6.332031 C 3.332031 7.621094 4.378906 8.667969 5.667969 8.667969 M 13.460938 29.707031 C 13.070312 29.316406 13.070312 28.683594 13.460938 28.292969 L 15.085938 26.667969 L 9.667969 26.667969 C 6.90625 26.667969 4.667969 24.429688 4.667969 21.667969 L 4.667969 10 C 4.667969 9.449219 5.113281 9 5.667969 9 C 6.21875 9 6.667969 9.449219 6.667969 10 L 6.667969 21.667969 C 6.667969 23.324219 8.011719 24.667969 9.667969 24.667969 L 15.085938 24.667969 L 13.457031 23.039062 C 13.195312 22.789062 13.089844 22.417969 13.183594 22.066406 C 13.277344 21.714844 13.550781 21.441406 13.902344 21.351562 C 14.25 21.261719 14.621094 21.367188 14.875 21.625 L 18.207031 24.960938 C 18.597656 25.351562 18.597656 25.984375 18.207031 26.375 L 14.875 29.707031 C 14.484375 30.097656 13.851562 30.097656 13.460938 29.707031 "/>
</g>
</svg>
