<svg xmlns="http://www.w3.org/2000/svg" xml:space="preserve" width="114.862" height="114.862"><path d="M901.547 500.352 500.355 901.527c-23.093 23.11-60.566 23.11-83.691 0l-83.301-83.316 105.676-105.676c24.559 8.293 52.723 2.727 72.293-16.847 19.688-19.696 25.207-48.102 16.699-72.75l101.856-101.844c24.648 8.496 53.066 3.004 72.754-16.711 27.5-27.492 27.5-72.059 0-99.574-27.52-27.516-72.078-27.516-99.61 0-20.683 20.703-25.801 51.097-15.312 76.582l-95 94.992V326.414c6.699-3.32 13.027-7.742 18.613-13.312 27.5-27.497 27.5-72.059 0-99.598-27.5-27.488-72.09-27.488-99.57 0-27.5 27.539-27.5 72.101 0 99.598 6.797 6.789 14.668 11.925 23.066 15.363v252.281a69.79 69.79 0 0 0-23.066 15.367c-20.828 20.821-25.84 51.395-15.157 76.977L292.426 777.285 17.328 502.211c-23.105-23.129-23.105-60.602 0-83.711L418.54 17.324c23.098-23.105 60.559-23.105 83.691 0l399.317 399.317c23.117 23.113 23.117 60.605 0 83.711" style="fill:#100f0d;fill-opacity:1;fill-rule:nonzero;stroke:none" transform="matrix(.13 0 0 -.13 0 114.862)"/></svg>