<svg role="img" viewBox="0 0 32 32" xmlns="http://www.w3.org/2000/svg"><path d="M32.652 13.879 18.122-.652a2.145 2.145 0 0 0-3.032 0l-3.016 3.02 3.828 3.827a2.546 2.546 0 0 1 3.223 3.242l3.688 3.692a2.549 2.549 0 0 1 2.637 4.21 2.551 2.551 0 0 1-4.164-2.773l-3.442-3.441v9.055c.242.117.472.277.676.48a2.549 2.549 0 1 1-2.77-.555V10.97a2.552 2.552 0 0 1-1.387-3.348L10.59 3.848.629 13.813a2.138 2.138 0 0 0 0 3.03L15.16 31.372c.836.84 2.192.84 3.031 0l14.461-14.46a2.145 2.145 0 0 0 0-3.032" style="stroke:none;fill-rule:nonzero;fill:rgb(6.27451%,5.882353%,5.098039%);fill-opacity:1"/></svg>