<?xml version="1.0" encoding="UTF-8"?>
<svg xmlns="http://www.w3.org/2000/svg" xmlns:xlink="http://www.w3.org/1999/xlink" width="31.059" height="32" viewBox="0 0 31.059 32" version="1.1">
<g id="surface1">
<path style=" stroke:none;fill-rule:evenodd;fill:rgb(0%,0%,0%);fill-opacity:1;" d="M 15.058594 0 C 6.742188 0 0 6.996094 0 15.625 C 0 22.527344 4.3125 28.382812 10.296875 30.449219 C 11.050781 30.589844 11.328125 30.109375 11.328125 29.695312 L 11.304688 26.789062 C 7.117188 27.730469 6.230469 24.945312 6.230469 24.945312 C 5.546875 23.140625 4.558594 22.660156 4.558594 22.660156 C 3.191406 21.691406 4.667969 21.710938 4.667969 21.710938 C 6.179688 21.820312 6.976562 23.320312 6.976562 23.320312 C 8.320312 25.707031 10.5 25.019531 11.359375 24.617188 C 11.496094 23.609375 11.886719 22.917969 12.3125 22.53125 C 8.972656 22.136719 5.457031 20.796875 5.457031 14.808594 C 5.457031 13.101562 6.042969 11.710938 7.003906 10.617188 C 6.851562 10.21875 6.332031 8.628906 7.152344 6.480469 C 7.152344 6.480469 8.414062 6.058594 11.292969 8.082031 C 12.519531 7.734375 13.785156 7.558594 15.058594 7.554688 C 16.339844 7.5625 17.625 7.734375 18.828125 8.082031 C 21.703125 6.058594 22.964844 6.480469 22.964844 6.480469 C 23.789062 8.632812 23.269531 10.21875 23.117188 10.617188 C 24.082031 11.710938 24.664062 13.101562 24.664062 14.808594 C 24.664062 20.808594 21.144531 22.132812 17.789062 22.519531 C 18.332031 23.003906 18.808594 23.953125 18.808594 25.410156 L 18.789062 29.699219 C 18.789062 30.113281 19.0625 30.597656 19.828125 30.449219 C 25.808594 28.378906 30.117188 22.523438 30.117188 15.625 C 30.117188 6.996094 23.375 0 15.058594 0 M 15.058594 0 "/>
</g>
</svg>
