<svg xmlns="http://www.w3.org/2000/svg" width="33" height="34" stroke="#000" stroke-linecap="round" stroke-linejoin="round" fill="#fff" fill-rule="evenodd"><path d="M16 0C7.1642 0 0 7.4324 0 16.5996c0 7.3356 4.584 13.5566 10.9425 15.7509.8.1524 1.0918-.3608 1.0918-.7985l-.0229-3.0903c-4.4495 1.0031-5.3897-1.9573-5.3897-1.9573-.7284-1.917-1.7764-2.4274-1.7764-2.4274-1.4541-1.0294.1143-1.0096.1143-1.0096 1.6065.1155 2.4522 1.7105 2.4522 1.7105 1.4278 2.5372 3.7459 1.8034 4.6564 1.3779.1455-1.0704.56-1.8034 1.0156-2.2171-3.5516-.4191-7.2876-1.8438-7.2876-8.2046 0-1.8133.624-3.2926 1.6457-4.4549-.163-.4213-.7139-2.1105.1581-4.395 0 0 1.3417-.4457 4.4 1.7021 1.2754-.3695 2.6438-.5524 4-.5581 1.3592.0061 2.7284.1905 4.0057.56 3.053-2.1501 4.3962-1.7021 4.3962-1.7021.8751 2.2869.3238 3.9733.16 4.3931 1.0255 1.1619 1.6446 2.6412 1.6446 4.4549 0 6.3771-3.7421 7.7813-7.3067 8.1924.5764.5143 1.0857 1.5238 1.0857 3.072l-.0213 4.555c0 .4419.291.9585 1.1017.8C27.4198 30.1524 32 23.9314 32 16.5996 32 7.4324 24.8358 0 16 0z" fill="#000" stroke="none"/></svg>