<svg role="img" viewBox="0 0 31.059 32" xmlns="http://www.w3.org/2000/svg"><path d="M15.059 0C6.742 0 0 6.996 0 15.625c0 6.902 4.313 12.758 10.297 14.824.754.14 1.031-.34 1.031-.754l-.023-2.906c-4.188.941-5.075-1.844-5.075-1.844-.683-1.804-1.671-2.285-1.671-2.285-1.368-.969.109-.95.109-.95 1.512.11 2.309 1.61 2.309 1.61 1.343 2.387 3.523 1.7 4.382 1.297.137-1.008.528-1.699.954-2.086-3.34-.394-6.856-1.734-6.856-7.722 0-1.707.586-3.098 1.547-4.192-.152-.398-.672-1.988.148-4.137 0 0 1.262-.421 4.141 1.602a13.96 13.96 0 0 1 3.766-.527c1.28.008 2.566.18 3.77.527 2.874-2.023 4.136-1.602 4.136-1.602.824 2.153.305 3.739.152 4.137.965 1.094 1.547 2.485 1.547 4.192 0 6-3.52 7.324-6.875 7.71.543.485 1.02 1.434 1.02 2.891l-.02 4.29c0 .413.273.898 1.04.75 5.98-2.071 10.288-7.927 10.288-14.825C30.117 6.996 23.375 0 15.06 0m0 0" style="stroke:none;fill-rule:evenodd;fill:rgb(0%,0%,0%);fill-opacity:1"/></svg>