<svg role="img" viewBox="0 0 33.546 32" xmlns="http://www.w3.org/2000/svg"><path d="m16.773 24.902 3.563-10.953h-7.117Zm0 0" style="stroke:none;fill-rule:nonzero;fill:rgb(88.627452%,26.274511%,16.078432%);fill-opacity:1"/><path d="m8.23 13.95-1.082 3.327a.744.744 0 0 0 .266.825l9.36 6.8Zm0 0" style="stroke:none;fill-rule:nonzero;fill:rgb(98.823529%,63.921571%,14.901961%);fill-opacity:1"/><path d="M8.23 13.95h4.989l-2.145-6.598a.371.371 0 0 0-.703 0Zm0 0" style="stroke:none;fill-rule:nonzero;fill:rgb(88.627452%,26.274511%,16.078432%);fill-opacity:1"/><path d="m25.32 13.95 1.082 3.327a.742.742 0 0 1-.265.825l-9.364 6.8Zm0 0" style="stroke:none;fill-rule:nonzero;fill:rgb(98.823529%,63.921571%,14.901961%);fill-opacity:1"/><path d="M25.32 13.95h-4.984l2.14-6.598c.11-.336.59-.336.704 0Zm0 0" style="stroke:none;fill-rule:nonzero;fill:rgb(88.627452%,26.274511%,16.078432%);fill-opacity:1"/><path d="m16.773 24.902 3.563-10.953h4.984Zm0 0L8.23 13.95h4.989Zm0 0" style="stroke:none;fill-rule:nonzero;fill:rgb(98.823529%,42.745098%,14.901961%);fill-opacity:1"/></svg>