<?xml version="1.0" encoding="UTF-8" standalone="no"?>
<!DOCTYPE svg PUBLIC "-//W3C//DTD SVG 1.1//EN" "http://www.w3.org/Graphics/SVG/1.1/DTD/svg11.dtd">
<svg xmlns="http://www.w3.org/2000/svg" version="1.1" viewBox="0 0 512 512" width="512.0pt" height="512.0pt">
<path d="M 0.00 0.00 L 512.00 0.00 L 512.00 512.00 L 0.00 512.00 L 0.00 0.00 Z" fill="#ffffff" />
<path d="M 256.11 42.60 C 257.30 43.15 258.45 43.76 259.59 44.40 C 320.46 79.32 381.96 114.28 442.72 149.27 C 442.78 220.38 442.78 291.62 442.72 362.73 C 440.06 364.47 437.27 365.93 434.52 367.52 C 377.48 400.14 320.44 432.79 263.39 465.39 C 260.98 466.79 258.61 468.22 256.11 469.42 C 205.47 440.70 154.81 411.63 104.23 382.78 C 92.61 376.06 80.81 369.59 69.28 362.73 C 69.22 291.62 69.22 220.38 69.28 149.27 C 76.79 144.73 84.51 140.52 92.11 136.14 C 138.37 109.71 184.63 83.32 230.89 56.89 C 239.33 52.21 247.61 47.20 256.11 42.60 Z" fill="#aecbfa" />
<path d="M 246.21 96.00 C 246.32 113.66 246.19 131.34 246.27 149.01 C 246.11 150.18 246.65 152.73 245.26 153.24 C 220.53 167.65 195.54 181.85 170.84 196.29 C 171.33 196.75 171.86 197.18 172.42 197.56 C 199.23 213.07 226.14 228.53 252.92 244.08 C 254.12 244.63 255.50 245.99 256.80 244.93 C 283.01 229.86 309.30 214.59 335.53 199.52 C 337.12 198.53 339.19 197.70 340.34 196.20 C 315.31 181.64 290.13 167.25 265.09 152.71 C 264.89 133.60 265.04 114.46 265.02 95.35 C 310.84 121.16 356.60 147.19 402.38 173.08 C 402.60 176.39 402.49 179.69 402.50 183.00 C 402.50 228.67 402.49 274.33 402.50 320.00 C 402.44 323.23 402.81 326.60 402.00 329.68 C 384.26 319.47 366.47 309.27 348.80 298.93 C 348.69 270.35 348.78 241.74 348.76 213.15 C 321.25 229.48 293.75 245.85 266.27 262.25 C 266.23 295.01 266.24 327.77 266.26 360.52 C 291.22 345.79 316.07 330.89 341.00 316.11 C 357.82 325.71 374.56 335.51 391.38 345.13 C 347.30 370.15 303.16 395.07 259.08 420.08 C 258.09 420.62 257.09 421.14 256.08 421.64 C 210.83 396.13 165.54 370.53 120.33 344.95 C 137.10 335.26 153.85 325.40 170.74 315.93 C 195.73 330.83 220.75 345.69 245.74 360.58 C 245.75 327.81 245.78 295.03 245.73 262.26 C 218.26 245.84 190.76 229.49 163.25 213.16 C 163.26 239.77 163.24 266.39 163.25 293.00 C 163.23 294.88 163.43 296.94 162.96 298.76 C 145.14 308.98 127.35 319.31 109.53 329.57 C 109.46 280.05 109.53 230.52 109.50 181.00 C 109.47 178.36 109.45 175.72 109.62 173.09 C 155.12 147.42 200.64 121.54 246.21 96.00 Z" fill="#ffffff" />
<path d="M 163.25 213.16 C 190.76 229.49 218.26 245.84 245.73 262.26 C 245.78 295.03 245.75 327.81 245.74 360.58 C 220.75 345.69 195.73 330.83 170.74 315.93 C 153.85 325.40 137.10 335.26 120.33 344.95 C 116.76 342.94 113.17 340.99 109.64 338.92 C 109.36 335.80 109.51 332.69 109.53 329.57 C 127.35 319.31 145.14 308.98 162.96 298.76 C 163.43 296.94 163.23 294.88 163.25 293.00 C 163.24 266.39 163.26 239.77 163.25 213.16 Z" fill="#669df6" />
<path d="M 348.76 213.15 C 348.78 241.74 348.69 270.35 348.80 298.93 C 366.47 309.27 384.26 319.47 402.00 329.68 C 402.94 332.53 402.41 335.92 402.44 338.89 C 398.77 341.01 395.06 343.05 391.38 345.13 C 374.56 335.51 357.82 325.71 341.00 316.11 C 316.07 330.89 291.22 345.79 266.26 360.52 C 266.24 327.77 266.23 295.01 266.27 262.25 C 293.75 245.85 321.25 229.48 348.76 213.15 Z" fill="#4285f4" />
</svg>