<?xml version="1.0" encoding="UTF-8"?>
<svg xmlns="http://www.w3.org/2000/svg" xmlns:xlink="http://www.w3.org/1999/xlink" width="32" height="32" viewBox="0 0 32 32" version="1.1">
<g id="surface1">
<rect x="0" y="0" width="32" height="32" style="fill:rgb(100%,100%,100%);fill-opacity:1;stroke:none;"/>
<path style=" stroke:none;fill-rule:nonzero;fill:rgb(68.235296%,79.607844%,98.039216%);fill-opacity:1;" d="M 16.007812 2.664062 C 16.082031 2.695312 16.152344 2.734375 16.222656 2.773438 C 20.027344 4.957031 23.871094 7.140625 27.671875 9.328125 L 27.671875 22.671875 C 27.503906 22.78125 27.328125 22.871094 27.15625 22.96875 C 23.59375 25.007812 20.027344 27.050781 16.460938 29.085938 C 16.3125 29.175781 16.164062 29.265625 16.007812 29.339844 C 12.84375 27.542969 9.675781 25.726562 6.515625 23.921875 C 5.789062 23.503906 5.050781 23.097656 4.328125 22.671875 L 4.328125 9.328125 C 4.800781 9.046875 5.28125 8.78125 5.757812 8.507812 C 8.648438 6.855469 11.539062 5.207031 14.429688 3.554688 C 14.957031 3.261719 15.476562 2.949219 16.007812 2.664062 M 16.007812 2.664062 "/>
<path style=" stroke:none;fill-rule:nonzero;fill:rgb(100%,100%,100%);fill-opacity:1;" d="M 15.386719 6 C 15.394531 7.105469 15.386719 8.207031 15.390625 9.3125 C 15.382812 9.386719 15.414062 9.546875 15.328125 9.578125 C 13.78125 10.476562 12.222656 11.367188 10.675781 12.269531 C 10.707031 12.296875 10.742188 12.324219 10.777344 12.347656 C 12.453125 13.316406 14.132812 14.28125 15.808594 15.253906 C 15.882812 15.289062 15.96875 15.375 16.050781 15.308594 C 17.6875 14.367188 19.332031 13.410156 20.96875 12.46875 C 21.070312 12.40625 21.199219 12.355469 21.269531 12.261719 C 19.707031 11.351562 18.132812 10.453125 16.566406 9.542969 C 16.554688 8.351562 16.566406 7.152344 16.5625 5.960938 C 19.425781 7.574219 22.289062 9.199219 25.148438 10.816406 C 25.164062 11.023438 25.15625 11.230469 25.15625 11.4375 L 25.15625 20 C 25.152344 20.203125 25.175781 20.414062 25.125 20.605469 C 24.015625 19.96875 22.90625 19.328125 21.800781 18.683594 C 21.792969 16.898438 21.796875 15.109375 21.796875 13.320312 L 16.640625 16.390625 L 16.640625 22.53125 C 18.203125 21.613281 19.753906 20.679688 21.3125 19.757812 C 22.363281 20.355469 23.410156 20.96875 24.460938 21.570312 C 21.707031 23.132812 18.949219 24.691406 16.191406 26.253906 C 16.128906 26.289062 16.066406 26.320312 16.003906 26.351562 C 13.175781 24.757812 10.347656 23.15625 7.519531 21.558594 C 8.570312 20.953125 9.617188 20.335938 10.671875 19.746094 L 15.359375 22.535156 L 15.359375 16.390625 C 13.640625 15.363281 11.921875 14.34375 10.203125 13.324219 L 10.203125 18.3125 C 10.203125 18.429688 10.214844 18.558594 10.183594 18.671875 C 9.070312 19.3125 7.960938 19.957031 6.84375 20.597656 C 6.839844 17.503906 6.84375 14.40625 6.84375 11.3125 C 6.84375 11.148438 6.839844 10.984375 6.851562 10.816406 C 9.695312 9.214844 12.539062 7.597656 15.386719 6 M 15.386719 6 "/>
<path style=" stroke:none;fill-rule:nonzero;fill:rgb(40.000001%,61.56863%,96.470588%);fill-opacity:1;" d="M 10.203125 13.324219 C 11.921875 14.34375 13.640625 15.363281 15.359375 16.390625 L 15.359375 22.535156 L 10.671875 19.746094 C 9.617188 20.335938 8.570312 20.953125 7.519531 21.558594 C 7.296875 21.433594 7.074219 21.3125 6.851562 21.183594 C 6.835938 20.988281 6.84375 20.792969 6.84375 20.597656 C 7.960938 19.957031 9.070312 19.3125 10.183594 18.671875 C 10.214844 18.558594 10.203125 18.429688 10.203125 18.3125 Z M 10.203125 13.324219 "/>
<path style=" stroke:none;fill-rule:nonzero;fill:rgb(25.882354%,52.156866%,95.686275%);fill-opacity:1;" d="M 21.796875 13.320312 C 21.796875 15.109375 21.792969 16.898438 21.800781 18.683594 C 22.90625 19.328125 24.015625 19.96875 25.125 20.605469 C 25.183594 20.78125 25.152344 20.996094 25.152344 21.179688 C 24.921875 21.3125 24.691406 21.441406 24.460938 21.570312 C 23.410156 20.96875 22.363281 20.355469 21.3125 19.757812 C 19.753906 20.679688 18.203125 21.613281 16.640625 22.53125 L 16.640625 16.390625 Z M 21.796875 13.320312 "/>
</g>
</svg>
