<svg role="img" viewBox="0 0 32 32" xmlns="http://www.w3.org/2000/svg"><path d="M0 0h32v32H0z" style="fill:rgb(100%,100%,100%);fill-opacity:1;stroke:none"/><path d="M16.008 2.664c.074.031.144.07.215.11 3.804 2.183 7.648 4.367 11.449 6.554v13.344c-.168.11-.344.2-.516.297-3.562 2.039-7.129 4.082-10.695 6.117-.148.09-.297.18-.453.254-3.164-1.797-6.332-3.613-9.492-5.418-.727-.418-1.465-.824-2.188-1.25V9.328c.473-.281.953-.547 1.43-.82 2.89-1.653 5.781-3.301 8.672-4.953.527-.293 1.047-.606 1.578-.89m0 0" style="stroke:none;fill-rule:nonzero;fill:rgb(68.235296%,79.607844%,98.039216%);fill-opacity:1"/><path d="M15.387 6c.008 1.105 0 2.207.004 3.313-.008.074.023.234-.063.265-1.547.899-3.105 1.79-4.652 2.692a1 1 0 0 0 .101.078c1.676.968 3.356 1.933 5.032 2.906.074.035.16.121.242.055 1.637-.942 3.281-1.899 4.918-2.84.101-.063.23-.114.3-.207-1.562-.91-3.136-1.809-4.703-2.719-.011-1.191 0-2.39-.003-3.582 2.863 1.613 5.726 3.238 8.585 4.855.016.207.008.414.008.621V20c-.004.203.02.414-.031.605a563.736 563.736 0 0 1-3.324-1.921c-.008-1.786-.004-3.575-.004-5.364l-5.156 3.07v6.141c1.562-.918 3.113-1.851 4.672-2.773 1.05.597 2.097 1.21 3.148 1.812-2.754 1.563-5.512 3.121-8.27 4.684-.062.035-.125.066-.187.098-2.828-1.594-5.656-3.196-8.484-4.793 1.05-.606 2.097-1.223 3.152-1.813l4.687 2.79V16.39c-1.718-1.028-3.437-2.047-5.156-3.067v4.989c0 .117.012.246-.02.359-1.113.64-2.222 1.285-3.34 1.926-.003-3.094 0-6.192 0-9.285 0-.165-.003-.329.009-.497 2.843-1.6 5.687-3.217 8.535-4.815m0 0" style="stroke:none;fill-rule:nonzero;fill:rgb(100%,100%,100%);fill-opacity:1"/><path d="M10.203 13.324c1.719 1.02 3.438 2.04 5.156 3.067v6.144l-4.687-2.789c-1.055.59-2.102 1.207-3.152 1.813-.223-.125-.446-.247-.668-.375-.016-.196-.008-.391-.008-.586 1.117-.641 2.226-1.285 3.34-1.926.03-.113.02-.242.02-.36zm0 0" style="stroke:none;fill-rule:nonzero;fill:rgb(40.000001%,61.56863%,96.470588%);fill-opacity:1"/><path d="M21.797 13.32c0 1.79-.004 3.578.004 5.364 1.105.644 2.215 1.285 3.324 1.921.059.176.027.391.027.575-.23.133-.46.261-.691.39-1.05-.601-2.098-1.215-3.148-1.812-1.56.922-3.11 1.855-4.672 2.773v-6.14zm0 0" style="stroke:none;fill-rule:nonzero;fill:rgb(25.882354%,52.156866%,95.686275%);fill-opacity:1"/></svg>