<svg role="img" viewBox="0 0 36.196 32" xmlns="http://www.w3.org/2000/svg"><path d="M5.719 14.379c-.059 0-.074-.027-.043-.07l.297-.387c.027-.04.101-.07.156-.07h5.078c.059 0 .07.043.043.085l-.242.372c-.028.043-.098.086-.14.086ZM3.57 15.688c-.058 0-.07-.028-.043-.07l.297-.388c.031-.043.102-.07.156-.07h6.489c.054 0 .086.043.07.086l-.113.34c-.016.059-.07.086-.13.086Zm3.442 1.308c-.059 0-.07-.043-.043-.086l.199-.355c.027-.043.086-.086.14-.086h2.848c.055 0 .082.043.082.101l-.027.34a.106.106 0 0 1-.098.102Zm14.761-2.875c-.894.23-1.507.399-2.386.629-.215.055-.23.07-.414-.145-.215-.242-.371-.398-.668-.539-.899-.441-1.766-.312-2.575.211-.968.63-1.464 1.551-1.453 2.703.016 1.137.797 2.079 1.922 2.235.969.129 1.778-.215 2.418-.938.13-.16.242-.328.383-.527h-2.742c-.301 0-.371-.187-.274-.426a23.6 23.6 0 0 1 .727-1.55.383.383 0 0 1 .355-.231h5.176c-.027.387-.027.77-.082 1.152a6.104 6.104 0 0 1-1.168 2.79c-1.023 1.35-2.36 2.19-4.055 2.417-1.394.184-2.687-.086-3.824-.937-1.054-.797-1.648-1.852-1.804-3.16-.188-1.547.27-2.942 1.207-4.164 1.007-1.325 2.347-2.164 3.98-2.461 1.34-.242 2.617-.086 3.77.695a4.46 4.46 0 0 1 1.652 2.008c.082.125.027.195-.145.238m4.707 7.867c-1.293-.027-2.472-.398-3.468-1.254-.84-.722-1.367-1.648-1.535-2.742-.258-1.61.183-3.031 1.152-4.297 1.035-1.363 2.289-2.074 3.98-2.375 1.45-.254 2.817-.113 4.055.727 1.121.765 1.82 1.805 2.004 3.172.242 1.918-.313 3.484-1.637 4.82-.937.953-2.09 1.55-3.41 1.82-.387.07-.77.086-1.14.13m3.387-5.746c-.015-.183-.015-.328-.043-.469-.258-1.41-1.55-2.207-2.902-1.89-1.32.297-2.176 1.137-2.488 2.472-.254 1.11.285 2.235 1.308 2.688.781.344 1.567.3 2.317-.086 1.125-.582 1.738-1.492 1.808-2.715m0 0" style="stroke:none;fill-rule:nonzero;fill:rgb(0%,67.450982%,84.313726%);fill-opacity:1"/></svg>