<svg xmlns="http://www.w3.org/2000/svg" width="32" height="32" stroke="none" stroke-linecap="round" stroke-linejoin="round" fill="#fff" fill-rule="nonzero"><path d="M0 4.8C0 2.1408 2.1408 0 4.8 0h22.4C29.8592 0 32 2.1408 32 4.8v22.4c0 2.6592-2.1408 4.8-4.8 4.8H4.8C2.1408 32 0 29.8592 0 27.2z"/><path d="M24.125 25c2.8125-2.625 4.0625-7 3.3125-11.1875H16.25v4.625h6.375c-.25 1.5-1.125 2.75-2.375 3.5625z" fill="#4285f4"/><path d="M5.625 21.3125A12 12 0 0 0 24.125 25l-3.875-3c-3.3125 2.1875-8.8125 1.375-10.6875-3.75z" fill="#34a853"/><path d="M9.5625 18.25c-.5-1.5625-.5-3 0-4.5625L5.625 10.625c-1.4375 2.875-1.875 6.9375 0 10.6875z" fill="#fbbc02"/><path d="M9.5625 13.6875c1.375-4.3125 7.25-6.8125 11.1875-3.125l3.4375-3.375C19.3125 2.5 9.8125 2.6875 5.625 10.625z" fill="#ea4335"/></svg>