<?xml version="1.0" encoding="UTF-8"?>
<svg xmlns="http://www.w3.org/2000/svg" xmlns:xlink="http://www.w3.org/1999/xlink" width="32" height="32" viewBox="0 0 32 32" version="1.1">
<g id="surface1">
<path style=" stroke:none;fill-rule:nonzero;fill:rgb(100%,100%,100%);fill-opacity:1;" d="M 0 4.800781 C 0 2.140625 2.140625 0 4.800781 0 L 27.199219 0 C 29.859375 0 32 2.140625 32 4.800781 L 32 27.199219 C 32 29.859375 29.859375 32 27.199219 32 L 4.800781 32 C 3.527344 32.003906 2.304688 31.496094 1.402344 30.597656 C 0.503906 29.695312 -0.00390625 28.472656 0 27.199219 Z M 0 4.800781 "/>
<path style=" stroke:none;fill-rule:nonzero;fill:rgb(25.882354%,52.156866%,95.686275%);fill-opacity:1;" d="M 24.125 25 C 26.9375 22.375 28.1875 18 27.4375 13.8125 L 16.25 13.8125 L 16.25 18.4375 L 22.625 18.4375 C 22.375 19.9375 21.5 21.1875 20.25 22 Z M 24.125 25 "/>
<path style=" stroke:none;fill-rule:nonzero;fill:rgb(20.392157%,65.882355%,32.549021%);fill-opacity:1;" d="M 5.625 21.3125 C 7.292969 24.59375 10.371094 26.925781 13.980469 27.648438 C 17.589844 28.367188 21.328125 27.390625 24.125 25 L 20.25 22 C 16.9375 24.1875 11.4375 23.375 9.5625 18.25 Z M 5.625 21.3125 "/>
<path style=" stroke:none;fill-rule:nonzero;fill:rgb(98.431373%,73.725492%,0.784314%);fill-opacity:1;" d="M 9.5625 18.25 C 9.0625 16.6875 9.0625 15.25 9.5625 13.6875 L 5.625 10.625 C 4.1875 13.5 3.75 17.5625 5.625 21.3125 Z M 9.5625 18.25 "/>
<path style=" stroke:none;fill-rule:nonzero;fill:rgb(91.764706%,26.274511%,20.784314%);fill-opacity:1;" d="M 9.5625 13.6875 C 10.9375 9.375 16.8125 6.875 20.75 10.5625 L 24.1875 7.1875 C 19.3125 2.5 9.8125 2.6875 5.625 10.625 Z M 9.5625 13.6875 "/>
</g>
</svg>
