<?xml version="1.0" encoding="UTF-8"?>
<svg xmlns="http://www.w3.org/2000/svg" xmlns:xlink="http://www.w3.org/1999/xlink" width="30.773001" height="32" viewBox="0 0 30.773001 32" version="1.1">
<defs>
<linearGradient id="linear0" gradientUnits="userSpaceOnUse" x1="175.5" y1="109.5" x2="175.5" y2="361.350006" gradientTransform="matrix(0.08767,0,0,0.08767,0,0)">
<stop offset="0" style="stop-color:rgb(94.117647%,35.294119%,15.686275%);stop-opacity:1;"/>
<stop offset="1" style="stop-color:rgb(98.431373%,79.215688%,3.921569%);stop-opacity:1;"/>
</linearGradient>
</defs>
<g id="surface1">
<path style=" stroke:none;fill-rule:nonzero;fill:url(#linear0);" d="M 29.984375 14.132812 C 29.925781 13.515625 29.820312 12.902344 29.667969 12.300781 C 29.472656 11.542969 29.195312 10.808594 28.84375 10.109375 C 28.425781 9.269531 27.910156 8.480469 27.308594 7.757812 C 27.046875 7.445312 26.769531 7.148438 26.476562 6.863281 C 26.925781 5.085938 25.933594 3.542969 25.933594 3.542969 C 24.222656 3.4375 23.136719 4.078125 22.734375 4.367188 C 22.664062 4.339844 22.601562 4.304688 22.53125 4.277344 C 21.621094 3.910156 20.671875 3.648438 19.699219 3.5 C 19.640625 3.488281 19.582031 3.480469 19.523438 3.472656 C 18.777344 1.085938 16.640625 0.0859375 16.640625 0.0859375 C 14.246094 1.605469 13.800781 3.726562 13.800781 3.726562 C 13.800781 3.726562 13.789062 3.769531 13.773438 3.847656 C 13.640625 3.882812 13.511719 3.925781 13.378906 3.960938 C 13.195312 4.019531 13.015625 4.082031 12.835938 4.15625 C 12.28125 4.367188 11.742188 4.613281 11.222656 4.902344 C 10.878906 5.09375 10.546875 5.304688 10.222656 5.523438 C 10.179688 5.503906 10.136719 5.488281 10.136719 5.488281 C 6.820312 4.226562 3.882812 5.742188 3.882812 5.742188 C 3.613281 9.265625 5.207031 11.484375 5.523438 11.886719 C 5.445312 12.105469 5.375 12.328125 5.304688 12.546875 C 5.058594 13.34375 4.875 14.160156 4.761719 15.007812 C 4.742188 15.128906 4.726562 15.253906 4.714844 15.378906 C 1.648438 16.894531 0.746094 19.988281 0.746094 19.988281 C 3.296875 22.925781 6.277344 23.109375 6.277344 23.109375 L 6.285156 23.101562 C 6.664062 23.777344 7.101562 24.417969 7.59375 25.019531 C 7.804688 25.277344 8.011719 25.511719 8.242188 25.75 C 7.3125 28.414062 8.371094 30.625 8.371094 30.625 C 11.214844 30.730469 13.082031 29.378906 13.476562 29.070312 C 13.753906 29.167969 14.046875 29.257812 14.335938 29.324219 C 15.210938 29.554688 16.105469 29.683594 17 29.71875 C 17.21875 29.730469 17.445312 29.738281 17.664062 29.730469 L 17.980469 29.730469 L 18.121094 29.71875 L 18.121094 29.730469 C 19.464844 31.640625 21.8125 31.914062 21.8125 31.914062 C 23.488281 30.148438 23.582031 28.398438 23.582031 28.019531 L 23.582031 27.863281 C 24.667969 27.09375 25.597656 26.128906 26.328125 25.019531 C 26.371094 24.953125 26.414062 24.882812 26.460938 24.8125 C 28.351562 24.917969 29.695312 23.636719 29.695312 23.636719 C 29.378906 21.664062 28.257812 20.699219 28.019531 20.515625 C 28.019531 20.515625 28.011719 20.507812 27.992188 20.496094 C 27.976562 20.488281 27.976562 20.480469 27.976562 20.480469 C 27.964844 20.46875 27.949219 20.460938 27.933594 20.453125 L 27.957031 20.09375 C 27.976562 19.882812 27.976562 19.664062 27.976562 19.453125 L 27.976562 19.121094 L 27.96875 18.988281 L 27.957031 18.8125 C 27.957031 18.753906 27.949219 18.699219 27.941406 18.648438 C 27.933594 18.59375 27.933594 18.535156 27.921875 18.480469 L 27.90625 18.316406 L 27.878906 18.148438 C 27.847656 17.929688 27.804688 17.714844 27.757812 17.5 C 27.554688 16.660156 27.230469 15.855469 26.792969 15.113281 C 26.359375 14.398438 25.820312 13.753906 25.1875 13.203125 C 24.582031 12.667969 23.898438 12.230469 23.164062 11.898438 C 22.453125 11.582031 21.699219 11.367188 20.925781 11.265625 C 20.550781 11.214844 20.171875 11.195312 19.796875 11.203125 L 19.515625 11.203125 L 19.375 11.214844 C 19.324219 11.214844 19.269531 11.222656 19.226562 11.222656 C 18.289062 11.304688 17.378906 11.601562 16.570312 12.089844 C 15.964844 12.453125 15.421875 12.917969 14.964844 13.457031 C 14.539062 13.972656 14.195312 14.550781 13.949219 15.175781 C 13.71875 15.765625 13.585938 16.386719 13.546875 17.015625 C 13.535156 17.167969 13.535156 17.324219 13.535156 17.472656 L 13.535156 17.585938 L 13.546875 17.710938 C 13.554688 17.78125 13.554688 17.859375 13.5625 17.929688 C 13.644531 18.800781 13.964844 19.636719 14.484375 20.339844 C 14.800781 20.761719 15.183594 21.125 15.613281 21.425781 C 16.027344 21.707031 16.472656 21.910156 16.910156 22.039062 C 17.351562 22.171875 17.789062 22.226562 18.199219 22.226562 L 18.429688 22.226562 C 18.453125 22.226562 18.480469 22.226562 18.507812 22.214844 C 18.550781 22.214844 18.59375 22.207031 18.640625 22.207031 C 18.648438 22.207031 18.664062 22.207031 18.675781 22.199219 L 18.71875 22.191406 C 18.742188 22.191406 18.769531 22.179688 18.796875 22.179688 L 18.945312 22.15625 C 18.992188 22.148438 19.039062 22.136719 19.085938 22.121094 C 19.183594 22.101562 19.269531 22.066406 19.359375 22.039062 C 19.53125 21.980469 19.699219 21.914062 19.859375 21.832031 C 20.015625 21.75 20.15625 21.65625 20.296875 21.566406 C 20.332031 21.539062 20.375 21.515625 20.410156 21.480469 C 20.550781 21.367188 20.574219 21.15625 20.460938 21.015625 C 20.363281 20.890625 20.1875 20.855469 20.050781 20.9375 C 20.015625 20.953125 19.980469 20.972656 19.945312 20.988281 C 19.824219 21.050781 19.695312 21.101562 19.566406 21.144531 C 19.363281 21.21875 19.152344 21.261719 18.9375 21.277344 C 18.902344 21.277344 18.867188 21.285156 18.824219 21.285156 L 18.613281 21.285156 C 18.570312 21.285156 18.523438 21.285156 18.480469 21.277344 L 18.429688 21.277344 C 18.410156 21.277344 18.382812 21.277344 18.367188 21.269531 C 18.324219 21.261719 18.289062 21.261719 18.246094 21.25 C 17.917969 21.203125 17.59375 21.109375 17.289062 20.972656 C 16.964844 20.828125 16.664062 20.628906 16.402344 20.390625 C 15.832031 19.878906 15.457031 19.191406 15.332031 18.4375 C 15.304688 18.242188 15.292969 18.046875 15.296875 17.851562 C 15.296875 17.796875 15.308594 17.746094 15.308594 17.691406 L 15.308594 17.621094 C 15.308594 17.59375 15.316406 17.570312 15.316406 17.542969 C 15.324219 17.4375 15.34375 17.332031 15.359375 17.226562 C 15.507812 16.386719 15.929688 15.5625 16.578125 14.9375 C 16.746094 14.78125 16.921875 14.640625 17.105469 14.507812 C 17.675781 14.109375 18.34375 13.871094 19.035156 13.808594 C 19.148438 13.800781 19.261719 13.789062 19.382812 13.789062 L 19.65625 13.789062 L 19.753906 13.800781 C 20.007812 13.816406 20.253906 13.851562 20.496094 13.914062 C 20.988281 14.019531 21.46875 14.203125 21.917969 14.449219 C 22.8125 14.949219 23.574219 15.71875 24.039062 16.648438 C 24.277344 17.113281 24.441406 17.613281 24.523438 18.128906 C 24.539062 18.261719 24.558594 18.394531 24.566406 18.523438 L 24.582031 18.71875 L 24.582031 19.09375 C 24.582031 19.15625 24.574219 19.261719 24.574219 19.324219 C 24.566406 19.464844 24.546875 19.613281 24.53125 19.753906 C 24.492188 20.035156 24.4375 20.3125 24.363281 20.585938 C 24.292969 20.855469 24.207031 21.128906 24.101562 21.402344 C 23.886719 21.929688 23.609375 22.433594 23.277344 22.898438 C 22.59375 23.832031 21.683594 24.578125 20.628906 25.066406 C 20.105469 25.304688 19.550781 25.472656 18.980469 25.566406 C 18.695312 25.617188 18.410156 25.644531 18.121094 25.652344 L 17.683594 25.652344 C 17.527344 25.652344 17.375 25.644531 17.21875 25.625 C 15.992188 25.53125 14.792969 25.191406 13.703125 24.617188 C 12.074219 23.753906 10.75 22.410156 9.914062 20.769531 C 9.644531 20.230469 9.429688 19.671875 9.265625 19.09375 C 9.109375 18.515625 9.011719 17.925781 8.96875 17.332031 L 8.960938 17.21875 L 8.960938 16.4375 C 8.980469 15.832031 9.054688 15.230469 9.179688 14.640625 C 9.359375 13.75 9.640625 12.882812 10.019531 12.054688 C 10.519531 10.984375 11.167969 10.03125 11.949219 9.265625 C 12.144531 9.074219 12.34375 8.894531 12.554688 8.722656 C 12.765625 8.554688 12.984375 8.398438 13.210938 8.25 C 13.433594 8.101562 13.667969 7.964844 13.90625 7.847656 C 14.019531 7.785156 14.140625 7.722656 14.265625 7.671875 C 14.324219 7.644531 14.386719 7.617188 14.449219 7.59375 C 14.511719 7.566406 14.570312 7.539062 14.632812 7.511719 C 14.878906 7.410156 15.132812 7.320312 15.394531 7.242188 C 15.457031 7.222656 15.527344 7.207031 15.589844 7.179688 L 15.78125 7.128906 C 15.914062 7.09375 16.042969 7.058594 16.175781 7.03125 C 16.238281 7.015625 16.308594 7.003906 16.378906 6.988281 C 16.445312 6.96875 16.507812 6.960938 16.578125 6.945312 C 16.648438 6.933594 16.710938 6.917969 16.78125 6.910156 L 16.875 6.890625 L 16.980469 6.875 C 17.050781 6.863281 17.113281 6.855469 17.183594 6.847656 C 17.261719 6.839844 17.332031 6.828125 17.410156 6.820312 C 17.472656 6.8125 17.578125 6.804688 17.640625 6.792969 C 17.683594 6.785156 17.734375 6.785156 17.78125 6.777344 L 17.875 6.769531 L 17.921875 6.757812 L 17.972656 6.757812 C 18.050781 6.75 18.121094 6.75 18.199219 6.742188 L 18.316406 6.734375 L 18.402344 6.734375 C 18.464844 6.734375 18.535156 6.722656 18.59375 6.722656 C 18.847656 6.714844 19.113281 6.714844 19.367188 6.722656 C 20.828125 6.78125 22.261719 7.148438 23.574219 7.792969 C 24.40625 8.195312 25.144531 8.695312 25.792969 9.242188 C 25.835938 9.277344 25.871094 9.3125 25.914062 9.347656 C 25.949219 9.378906 25.996094 9.414062 26.03125 9.449219 C 26.109375 9.519531 26.179688 9.589844 26.257812 9.660156 C 26.335938 9.730469 26.40625 9.800781 26.476562 9.871094 C 26.546875 9.941406 26.617188 10.011719 26.6875 10.089844 C 26.957031 10.378906 27.214844 10.667969 27.441406 10.96875 C 27.863281 11.511719 28.238281 12.097656 28.554688 12.710938 C 28.570312 12.746094 28.589844 12.78125 28.605469 12.816406 C 28.625 12.851562 28.640625 12.886719 28.660156 12.921875 C 28.695312 12.992188 28.730469 13.0625 28.757812 13.132812 C 28.792969 13.203125 28.816406 13.265625 28.851562 13.335938 C 28.878906 13.40625 28.914062 13.464844 28.941406 13.535156 C 29.046875 13.800781 29.152344 14.054688 29.230469 14.289062 C 29.359375 14.675781 29.457031 15.019531 29.535156 15.316406 C 29.5625 15.4375 29.675781 15.519531 29.800781 15.5 C 29.929688 15.492188 30.03125 15.382812 30.027344 15.253906 C 30.035156 14.9375 30.027344 14.5625 29.984375 14.132812 M 29.984375 14.132812 "/>
</g>
</svg>
