<svg role="img" viewBox="0 0 30.773 32" xmlns="http://www.w3.org/2000/svg" xmlns:xlink="http://www.w3.org/1999/xlink"><defs><linearGradient gradientTransform="scale(.08767)" gradientUnits="userSpaceOnUse" id="a" x1="175.5" x2="175.5" y1="109.5" y2="361.35"><stop offset="0" style="stop-color:rgb(94.117647%,35.294119%,15.686275%);stop-opacity:1"/><stop offset="1" style="stop-color:rgb(98.431373%,79.215688%,3.921569%);stop-opacity:1"/></linearGradient></defs><path d="M29.984 14.133a12.21 12.21 0 0 0-.316-1.832 11.113 11.113 0 0 0-.824-2.192 12.255 12.255 0 0 0-1.535-2.351 11.822 11.822 0 0 0-.832-.895c.449-1.777-.543-3.32-.543-3.32-1.711-.106-2.797.535-3.2.824-.07-.027-.132-.062-.203-.09A12.796 12.796 0 0 0 19.7 3.5a2.734 2.734 0 0 0-.176-.027C18.777 1.086 16.641.086 16.641.086c-2.395 1.52-2.84 3.64-2.84 3.64s-.012.044-.028.122c-.132.035-.261.078-.394.113a6.401 6.401 0 0 0-.543.195 12.335 12.335 0 0 0-1.613.746c-.344.192-.676.403-1 .621-.043-.02-.086-.035-.086-.035-3.317-1.261-6.254.254-6.254.254-.27 3.524 1.324 5.742 1.64 6.145-.078.218-.148.441-.218.66-.246.797-.43 1.613-.543 2.46a6 6 0 0 0-.047.372c-3.067 1.516-3.969 4.61-3.969 4.61 2.55 2.937 5.531 3.12 5.531 3.12l.008-.007c.38.675.817 1.316 1.309 1.918.21.257.418.492.648.73-.93 2.664.13 4.875.13 4.875 2.843.105 4.71-1.246 5.105-1.555.277.098.57.188.859.254.875.23 1.77.36 2.664.395.219.011.445.02.664.011h.316l.141-.011v.011c1.344 1.91 3.692 2.184 3.692 2.184 1.675-1.766 1.769-3.516 1.769-3.894v-.157a10.624 10.624 0 0 0 2.746-2.844c.043-.066.086-.136.133-.206 1.89.105 3.234-1.176 3.234-1.176-.316-1.973-1.437-2.938-1.675-3.121 0 0-.008-.008-.028-.02-.015-.008-.015-.016-.015-.016a.205.205 0 0 0-.043-.027l.023-.36c.02-.21.02-.429.02-.64v-.331l-.008-.134-.012-.175c0-.06-.008-.114-.016-.165-.007-.054-.007-.113-.02-.168l-.015-.164-.027-.168a9.446 9.446 0 0 0-.121-.648 8.696 8.696 0 0 0-.965-2.387 8.071 8.071 0 0 0-1.605-1.91 8.062 8.062 0 0 0-2.024-1.305 8.078 8.078 0 0 0-2.238-.632 7.294 7.294 0 0 0-1.13-.063h-.279l-.141.012c-.05 0-.105.008-.148.008a6.193 6.193 0 0 0-2.656.867 6.43 6.43 0 0 0-1.606 1.367 6.23 6.23 0 0 0-1.016 1.719 5.994 5.994 0 0 0-.402 1.84c-.012.152-.012.308-.012.457v.113l.012.125c.008.07.008.148.015.219a4.814 4.814 0 0 0 .922 2.41 4.94 4.94 0 0 0 1.13 1.086c.413.281.859.484 1.296.613.442.133.88.188 1.29.188h.229c.023 0 .05 0 .078-.012.043 0 .086-.008.133-.008.007 0 .023 0 .035-.008l.043-.008c.023 0 .05-.011.078-.011l.148-.024a.985.985 0 0 0 .14-.035c.099-.02.185-.055.274-.082a3.83 3.83 0 0 0 .5-.207c.157-.082.297-.176.438-.266.035-.027.078-.05.113-.086a.33.33 0 0 0 .05-.464.314.314 0 0 0-.41-.078c-.034.015-.07.035-.105.05a2.49 2.49 0 0 1-.379.157 2.338 2.338 0 0 1-.628.132c-.036 0-.07.008-.114.008h-.211c-.043 0-.09 0-.133-.008h-.05c-.02 0-.047 0-.063-.007-.043-.008-.078-.008-.12-.02a3.484 3.484 0 0 1-.958-.277 3.376 3.376 0 0 1-.887-.582 3.356 3.356 0 0 1-1.07-1.953 3.688 3.688 0 0 1-.035-.586c0-.055.012-.106.012-.16v-.072c0-.027.007-.05.007-.078.008-.105.028-.211.043-.316.149-.84.57-1.665 1.22-2.29a5.67 5.67 0 0 1 .526-.43 4.032 4.032 0 0 1 1.93-.698c.113-.008.227-.02.348-.02h.273l.098.012c.254.015.5.05.742.113.492.106.973.29 1.422.535.895.5 1.656 1.27 2.121 2.2.238.464.402.964.484 1.48.016.133.036.266.043.394l.016.196v.375c0 .062-.008.168-.008.23-.008.14-.027.29-.043.43a6.42 6.42 0 0 1-.168.832c-.07.27-.156.543-.261.816a7.265 7.265 0 0 1-.825 1.496 6.817 6.817 0 0 1-2.648 2.168 6.588 6.588 0 0 1-1.649.5 5.72 5.72 0 0 1-.859.086h-.437a3.71 3.71 0 0 1-.465-.027 8.986 8.986 0 0 1-3.516-1.008 8.963 8.963 0 0 1-3.789-3.847 9.405 9.405 0 0 1-.648-1.676 9.277 9.277 0 0 1-.297-1.762l-.008-.113v-.781a10.336 10.336 0 0 1 .219-1.797 11.93 11.93 0 0 1 .84-2.586c.5-1.07 1.148-2.024 1.93-2.79a8.94 8.94 0 0 1 .605-.542 10 10 0 0 1 .656-.473 6.54 6.54 0 0 1 .695-.402c.114-.063.235-.125.36-.176a2.59 2.59 0 0 1 .183-.078 8.45 8.45 0 0 1 .184-.082c.246-.102.5-.192.762-.27.062-.02.132-.035.195-.062l.191-.051c.133-.035.262-.07.395-.098.062-.015.133-.027.203-.043.066-.02.129-.027.2-.043.07-.011.132-.027.202-.035l.094-.02.105-.015c.07-.012.133-.02.204-.027.078-.008.148-.02.226-.028.063-.008.168-.015.23-.027.044-.008.094-.008.141-.016l.094-.007.047-.012h.05c.079-.008.15-.008.227-.016l.117-.008h.086c.063 0 .133-.011.192-.011.254-.008.52-.008.773 0a10.544 10.544 0 0 1 4.207 1.07c.832.402 1.57.902 2.219 1.45.043.034.078.07.121.105.035.03.082.066.117.101.078.07.149.14.227.211.078.07.148.14.219.211.07.07.14.14.21.219.27.289.528.578.754.879a11.24 11.24 0 0 1 1.114 1.742c.015.035.035.07.05.105.02.036.036.07.055.106.035.07.07.14.098.21.035.071.058.134.094.204.027.07.062.129.09.2.105.265.21.519.288.753.13.387.227.73.305 1.027.027.121.14.204.266.184a.241.241 0 0 0 .226-.246c.008-.316 0-.691-.043-1.121m0 0" style="stroke:none;fill-rule:nonzero;fill:url(#a)"/></svg>