<svg role="img" viewBox="0 0 28.444 32" xmlns="http://www.w3.org/2000/svg"><path d="m2.59 24.36-1.172-.68 13.07-22.637 1.172.68Zm-1.442-2.489H27.29v1.356H1.15Zm13.59 8.313L1.664 22.633l.68-1.172 13.074 7.55Zm11.36-19.676L13.023 2.957l.676-1.172 13.078 7.55ZM2.348 10.5l-.68-1.172 13.086-7.55.68 1.171ZM25.86 24.36 12.784 1.718l1.172-.676L27.031 23.68ZM2.183 8.43h1.355v15.097H2.184Zm22.722 0h1.356v15.097h-1.356ZM14.512 29.61l-.594-1.024 11.375-6.566.59 1.023Zm13.543-5.641a2.853 2.853 0 0 1-3.89 1.047 2.858 2.858 0 0 1-1.048-3.895 2.857 2.857 0 0 1 3.895-1.043 2.836 2.836 0 0 1 1.043 3.89M5.316 10.84a2.851 2.851 0 0 1-3.89 1.043A2.857 2.857 0 0 1 .379 7.988a2.853 2.853 0 0 1 3.894-1.043 2.852 2.852 0 0 1 1.043 3.89M.391 23.97a2.852 2.852 0 0 1 1.043-3.89 2.857 2.857 0 0 1 3.894 1.042 2.858 2.858 0 0 1-1.047 3.895c-1.37.78-3.11.32-3.89-1.043M23.125 10.84a2.862 2.862 0 0 1 1.047-3.895 2.858 2.858 0 0 1 3.894 1.047 2.856 2.856 0 0 1-1.046 3.89 2.857 2.857 0 0 1-3.895-1.042m-8.902 21.12a2.853 2.853 0 0 1-2.633-1.757 2.848 2.848 0 1 1 5.48-1.09 2.856 2.856 0 0 1-2.847 2.848m0-26.266a2.827 2.827 0 0 1-2.016-.832 2.827 2.827 0 0 1-.832-2.015A2.85 2.85 0 0 1 12.797.383a2.833 2.833 0 0 1 2.848 0 2.845 2.845 0 0 1 1.425 2.465c0 .757-.3 1.48-.832 2.015a2.85 2.85 0 0 1-2.015.832" style="stroke:none;fill-rule:nonzero;fill:rgb(88.235295%,0%,59.607846%);fill-opacity:1"/></svg>