<?xml version="1.0" encoding="UTF-8"?>
<svg xmlns="http://www.w3.org/2000/svg" xmlns:xlink="http://www.w3.org/1999/xlink" width="28.444" height="32" viewBox="0 0 28.444 32" version="1.1">
<g id="surface1">
<path style=" stroke:none;fill-rule:nonzero;fill:rgb(88.235295%,0%,59.607846%);fill-opacity:1;" d="M 2.589844 24.359375 L 1.417969 23.679688 L 14.488281 1.042969 L 15.660156 1.722656 Z M 1.148438 21.871094 L 27.289062 21.871094 L 27.289062 23.226562 L 1.148438 23.226562 Z M 14.738281 30.183594 L 1.664062 22.632812 L 2.34375 21.460938 L 15.417969 29.011719 Z M 26.097656 10.507812 L 13.023438 2.957031 L 13.699219 1.785156 L 26.777344 9.335938 Z M 2.347656 10.5 L 1.667969 9.328125 L 14.753906 1.777344 L 15.433594 2.949219 Z M 25.859375 24.359375 L 12.785156 1.71875 L 13.957031 1.042969 L 27.03125 23.679688 Z M 2.183594 8.429688 L 3.539062 8.429688 L 3.539062 23.527344 L 2.183594 23.527344 Z M 24.90625 8.429688 L 26.261719 8.429688 L 26.261719 23.527344 L 24.90625 23.527344 Z M 14.511719 29.609375 L 13.917969 28.585938 L 25.292969 22.019531 L 25.882812 23.042969 Z M 28.054688 23.96875 C 27.269531 25.332031 25.527344 25.796875 24.164062 25.015625 C 22.804688 24.226562 22.335938 22.488281 23.117188 21.121094 C 23.90625 19.761719 25.648438 19.292969 27.011719 20.078125 C 27.667969 20.453125 28.148438 21.074219 28.34375 21.804688 C 28.539062 22.535156 28.4375 23.316406 28.054688 23.96875 M 5.316406 10.839844 C 4.527344 12.199219 2.789062 12.667969 1.425781 11.882812 C 0.0625 11.09375 -0.40625 9.351562 0.378906 7.988281 C 1.167969 6.625 2.910156 6.160156 4.273438 6.945312 C 5.632812 7.734375 6.101562 9.472656 5.316406 10.835938 M 0.390625 23.96875 C -0.394531 22.609375 0.0742188 20.867188 1.433594 20.078125 C 2.796875 19.296875 4.539062 19.761719 5.328125 21.121094 C 6.109375 22.488281 5.644531 24.226562 4.28125 25.015625 C 2.910156 25.796875 1.171875 25.335938 0.390625 23.972656 M 23.125 10.839844 C 22.34375 9.472656 22.8125 7.734375 24.171875 6.945312 C 25.535156 6.164062 27.277344 6.628906 28.066406 7.992188 C 28.847656 9.355469 28.378906 11.09375 27.019531 11.882812 C 25.65625 12.667969 23.914062 12.199219 23.125 10.839844 M 14.222656 31.960938 C 13.070312 31.960938 12.03125 31.265625 11.589844 30.203125 C 11.148438 29.140625 11.394531 27.914062 12.207031 27.101562 C 13.023438 26.285156 14.246094 26.042969 15.3125 26.484375 C 16.375 26.925781 17.070312 27.960938 17.070312 29.113281 C 17.066406 30.683594 15.792969 31.957031 14.222656 31.960938 M 14.222656 5.695312 C 13.464844 5.699219 12.742188 5.398438 12.207031 4.863281 C 11.671875 4.328125 11.371094 3.605469 11.375 2.847656 C 11.375 1.832031 11.917969 0.890625 12.796875 0.382812 C 13.675781 -0.128906 14.765625 -0.128906 15.644531 0.382812 C 16.527344 0.890625 17.070312 1.832031 17.070312 2.847656 C 17.070312 3.605469 16.769531 4.328125 16.238281 4.863281 C 15.703125 5.394531 14.976562 5.695312 14.222656 5.695312 "/>
</g>
</svg>
