<svg xmlns="http://www.w3.org/2000/svg" width="32" height="36" stroke="none" stroke-linecap="round" stroke-linejoin="round" fill="#e10098" fill-rule="nonzero"><path d="M2.9122 27.4026l-1.3183-.7622L16.2974 1.174l1.3184.7623z"/><path d="M1.2907 24.6052h29.4095v1.5245H1.2907z"/><path d="M16.5827 33.9561L1.8732 25.4633l.7623-1.3184 14.7095 8.4928zm12.7788-22.1369L14.6507 3.3277l.7623-1.3184 14.7095 8.4928z"/><path d="M2.6391 11.8144l-.7623-1.3183 14.7227-8.4952.7623 1.3184z"/><path d="M29.0906 27.4026L14.3846 1.9339l1.3184-.7623 14.706 25.4687zM2.4569 9.4846h1.5245v16.9856H2.4569zm25.5622 0h1.5246v16.9856h-1.5246z"/><path d="M16.3239 33.3101l-.6652-1.153 12.7943-7.3865.6652 1.153z"/><path d="M31.5632 26.9663c-.8868 1.5313-2.845 2.0571-4.3795 1.1758-1.5313-.8867-2.0571-2.845-1.1757-4.3795.8867-1.5313 2.845-2.057 4.3794-1.1757 1.5425.8905 2.0663 2.8465 1.1745 4.3794m-25.579-14.773c-.8867 1.5313-2.8449 2.057-4.3794 1.1757-1.532-.8867-2.0578-2.8459-1.1757-4.3806s2.845-2.0571 4.3794-1.1758c1.5313.8868 2.0571 2.845 1.1757 4.3794M.4374 26.9663c-.8813-1.5344-.3556-3.4927 1.1757-4.3794 1.5344-.8813 3.4927-.3556 4.3794 1.1757.8814 1.5345.3556 3.4928-1.1757 4.3795-1.5425.8809-3.4998.3595-4.3794-1.1746m25.5802-14.7731c-.8814-1.5344-.3556-3.4927 1.1757-4.3794 1.5345-.8813 3.4927-.3556 4.3794 1.1758.8813 1.5344.3556 3.4927-1.1757 4.3794-1.5345.8813-3.4927.3556-4.3794-1.1758M16.0002 35.9553a3.205 3.205 0 0 1-2.2657-5.4715 3.205 3.205 0 0 1 5.4706 2.2678c-.0046 1.7679-1.4369 3.1997-3.2049 3.2037m0-29.5462a3.2 3.2 0 0 1-3.2048-3.2048c0-1.1448.6107-2.2026 1.6021-2.775s2.2129-.5724 3.2043 0 1.6021 1.6302 1.6021 2.775a3.199 3.199 0 0 1-.9373 2.2663 3.2 3.2 0 0 1-2.2664.9374"/></svg>