<svg role="img" viewBox="0 0 50 50" xmlns="http://www.w3.org/2000/svg"><path d="M17 2a5 5 0 1 0 0 10 5 5 0 0 0 0-10m15.813 0a5 5 0 1 0-.001 10 5 5 0 0 0 0-10M17 13a6.776 6.776 0 0 0-3.062.719 8.013 8.013 0 0 1 3.093 6.312c0 2.504-1.16 4.75-2.968 6.219a10.922 10.922 0 0 1 3.718 3.125 7.867 7.867 0 0 1-.75-3.344c0-3.972 2.918-7.289 6.719-7.906C22.945 15.148 20.254 13 17 13m15.813 0c-3.239 0-5.934 2.133-6.75 5.094 3.917.515 6.968 3.879 6.968 7.937a7.95 7.95 0 0 1-.656 3.157 11.06 11.06 0 0 1 3.594-2.97 7.962 7.962 0 0 1-2.938-6.187A7.968 7.968 0 0 1 36 13.813 6.671 6.671 0 0 0 32.813 13M9.03 14.031c-3.312 0-6 2.688-6 6a6 6 0 1 0 6-6m32 0c-3.312 0-6 2.688-6 6a6 6 0 1 0 6-6m-16 6c-3.312 0-6 2.688-6 6a6 6 0 1 0 6-6M9 27c-4.96 0-9 4.035-9 9v3.5c0 .313.152.625.406.813C.636 40.488 2.844 42 9 42c2.133 0 3.793-.191 5.063-.437a10.976 10.976 0 0 1 3.656-7.75C16.742 29.898 13.21 27 9 27m32 0c-4.195 0-7.727 2.887-8.719 6.781A10.997 10.997 0 0 1 36 41.594c1.262.242 2.898.406 5 .406 6.156 0 8.363-1.512 8.594-1.687A1.02 1.02 0 0 0 50 39.5V36c0-4.965-4.035-9-9-9m-15.969 6.031c-4.96 0-9 4.035-9 9v3.5c0 .317.153.594.407.782.23.175 2.437 1.718 8.593 1.718 6.157 0 8.364-1.543 8.594-1.718a.967.967 0 0 0 .406-.782v-3.5c0-4.965-4.035-9-9-9"/></svg>