<?xml version="1.0" encoding="UTF-8"?>
<svg xmlns="http://www.w3.org/2000/svg" xmlns:xlink="http://www.w3.org/1999/xlink" width="32" height="32" viewBox="0 0 32 32" version="1.1">
<g id="surface1">
<path style=" stroke:none;fill-rule:nonzero;fill:rgb(0%,0%,0%);fill-opacity:1;" d="M 10.878906 1.28125 C 9.113281 1.28125 7.679688 2.710938 7.679688 4.480469 C 7.679688 6.246094 9.113281 7.679688 10.878906 7.679688 C 12.648438 7.679688 14.078125 6.246094 14.078125 4.480469 C 14.078125 2.710938 12.648438 1.28125 10.878906 1.28125 M 21 1.28125 C 19.234375 1.28125 17.800781 2.710938 17.800781 4.480469 C 17.800781 6.246094 19.230469 7.679688 21 7.679688 C 22.765625 7.679688 24.199219 6.246094 24.199219 4.480469 C 24.199219 2.710938 22.765625 1.28125 21 1.28125 M 10.878906 8.320312 C 10.199219 8.316406 9.527344 8.476562 8.921875 8.78125 C 10.167969 9.75 10.898438 11.242188 10.898438 12.820312 C 10.898438 14.421875 10.15625 15.859375 9 16.800781 C 9.933594 17.28125 10.746094 17.964844 11.378906 18.800781 C 11.066406 18.128906 10.902344 17.398438 10.898438 16.660156 C 10.898438 14.117188 12.765625 11.996094 15.199219 11.601562 C 14.683594 9.695312 12.960938 8.320312 10.878906 8.320312 M 21 8.320312 C 18.925781 8.320312 17.203125 9.683594 16.679688 11.582031 C 19.1875 11.910156 21.140625 14.0625 21.140625 16.660156 C 21.140625 17.355469 20.996094 18.042969 20.71875 18.679688 C 21.34375 17.890625 22.128906 17.242188 23.019531 16.78125 C 21.828125 15.808594 21.136719 14.355469 21.140625 12.820312 C 21.136719 11.273438 21.835938 9.808594 23.039062 8.839844 C 22.414062 8.5 21.714844 8.320312 21 8.320312 M 5.777344 8.980469 C 3.660156 8.980469 1.9375 10.699219 1.9375 12.820312 C 1.9375 14.941406 3.660156 16.660156 5.777344 16.660156 C 7.898438 16.660156 9.621094 14.941406 9.621094 12.820312 C 9.621094 10.699219 7.898438 8.980469 5.777344 8.980469 M 26.257812 8.980469 C 24.140625 8.980469 22.417969 10.699219 22.417969 12.820312 C 22.417969 14.941406 24.136719 16.660156 26.257812 16.660156 C 28.378906 16.660156 30.097656 14.941406 30.097656 12.820312 C 30.097656 10.699219 28.378906 8.980469 26.257812 8.980469 M 16.019531 12.820312 C 13.898438 12.820312 12.179688 14.539062 12.179688 16.660156 C 12.179688 18.78125 13.898438 20.5 16.019531 20.5 C 18.140625 20.5 19.859375 18.78125 19.859375 16.660156 C 19.859375 14.539062 18.140625 12.820312 16.019531 12.820312 M 5.761719 17.28125 C 2.585938 17.28125 0 19.863281 0 23.039062 L 0 25.28125 C 0 25.480469 0.0976562 25.679688 0.261719 25.800781 C 0.40625 25.914062 1.820312 26.878906 5.761719 26.878906 C 7.125 26.878906 8.1875 26.757812 9 26.601562 C 9.074219 24.699219 9.921875 22.910156 11.339844 21.640625 C 10.714844 19.132812 8.453125 17.28125 5.761719 17.28125 M 26.238281 17.28125 C 23.554688 17.28125 21.292969 19.128906 20.660156 21.621094 C 22.101562 22.890625 22.964844 24.699219 23.039062 26.621094 C 23.847656 26.773438 24.894531 26.878906 26.238281 26.878906 C 30.179688 26.878906 31.59375 25.914062 31.738281 25.800781 C 31.902344 25.675781 32 25.484375 32 25.28125 L 32 23.039062 C 32 19.863281 29.417969 17.28125 26.238281 17.28125 M 16.019531 21.140625 C 12.84375 21.140625 10.261719 23.722656 10.261719 26.898438 L 10.261719 29.140625 C 10.261719 29.34375 10.359375 29.519531 10.519531 29.640625 C 10.667969 29.753906 12.078125 30.738281 16.019531 30.738281 C 19.960938 30.738281 21.371094 29.753906 21.519531 29.640625 C 21.683594 29.523438 21.777344 29.339844 21.78125 29.140625 L 21.78125 26.898438 C 21.78125 23.722656 19.199219 21.140625 16.019531 21.140625 "/>
</g>
</svg>
