<?xml version="1.0" encoding="UTF-8"?>
<svg xmlns="http://www.w3.org/2000/svg" xmlns:xlink="http://www.w3.org/1999/xlink" width="32" height="32" viewBox="0 0 32 32" version="1.1">
<g id="surface1">
<path style=" stroke:none;fill-rule:nonzero;fill:rgb(50.196081%,50.196081%,50.196081%);fill-opacity:1;" d="M 10.878906 1.28125 C 9.113281 1.28125 7.679688 2.710938 7.679688 4.480469 C 7.679688 6.246094 9.113281 7.679688 10.878906 7.679688 C 12.648438 7.679688 14.078125 6.246094 14.078125 4.480469 C 14.078125 2.710938 12.648438 1.28125 10.878906 1.28125 Z M 21 1.28125 C 19.234375 1.28125 17.800781 2.710938 17.800781 4.480469 C 17.800781 6.246094 19.234375 7.679688 21 7.679688 C 22.765625 7.679688 24.199219 6.246094 24.199219 4.480469 C 24.199219 2.710938 22.765625 1.28125 21 1.28125 Z M 10.878906 8.320312 C 10.167969 8.320312 9.507812 8.484375 8.921875 8.78125 C 10.121094 9.71875 10.898438 11.183594 10.898438 12.820312 C 10.898438 14.421875 10.15625 15.859375 9 16.800781 C 9.933594 17.285156 10.746094 17.957031 11.378906 18.800781 C 11.074219 18.144531 10.898438 17.425781 10.898438 16.660156 C 10.898438 14.117188 12.765625 11.996094 15.199219 11.601562 C 14.683594 9.695312 12.960938 8.320312 10.878906 8.320312 Z M 21 8.320312 C 18.925781 8.320312 17.203125 9.683594 16.679688 11.578125 C 19.1875 11.910156 21.140625 14.0625 21.140625 16.660156 C 21.140625 17.378906 20.988281 18.058594 20.71875 18.679688 C 21.34375 17.890625 22.128906 17.238281 23.019531 16.78125 C 21.871094 15.839844 21.140625 14.417969 21.140625 12.820312 C 21.140625 11.210938 21.878906 9.78125 23.039062 8.839844 C 22.425781 8.511719 21.75 8.320312 21 8.320312 Z M 5.78125 8.980469 C 3.660156 8.980469 1.941406 10.699219 1.941406 12.820312 C 1.941406 14.941406 3.660156 16.660156 5.78125 16.660156 C 7.898438 16.660156 9.621094 14.941406 9.621094 12.820312 C 9.621094 10.699219 7.898438 8.980469 5.78125 8.980469 Z M 26.261719 8.980469 C 24.140625 8.980469 22.421875 10.699219 22.421875 12.820312 C 22.421875 14.941406 24.140625 16.660156 26.261719 16.660156 C 28.378906 16.660156 30.101562 14.941406 30.101562 12.820312 C 30.101562 10.699219 28.378906 8.980469 26.261719 8.980469 Z M 16.019531 12.820312 C 13.898438 12.820312 12.179688 14.539062 12.179688 16.660156 C 12.179688 18.78125 13.898438 20.5 16.019531 20.5 C 18.140625 20.5 19.859375 18.78125 19.859375 16.660156 C 19.859375 14.539062 18.140625 12.820312 16.019531 12.820312 Z M 5.761719 17.28125 C 2.585938 17.28125 0 19.863281 0 23.039062 L 0 25.28125 C 0 25.480469 0.0976562 25.679688 0.261719 25.800781 C 0.40625 25.914062 1.820312 26.878906 5.761719 26.878906 C 7.125 26.878906 8.1875 26.757812 9 26.601562 C 9.082031 24.632812 9.960938 22.871094 11.339844 21.640625 C 10.714844 19.136719 8.453125 17.28125 5.761719 17.28125 Z M 26.238281 17.28125 C 23.554688 17.28125 21.296875 19.128906 20.660156 21.621094 C 22.058594 22.851562 22.960938 24.636719 23.039062 26.621094 C 23.847656 26.773438 24.894531 26.878906 26.238281 26.878906 C 30.179688 26.878906 31.59375 25.914062 31.738281 25.800781 C 31.902344 25.679688 32 25.484375 32 25.28125 L 32 23.039062 C 32 19.863281 29.417969 17.28125 26.238281 17.28125 Z M 16.019531 21.140625 C 12.84375 21.140625 10.261719 23.722656 10.261719 26.898438 L 10.261719 29.140625 C 10.261719 29.34375 10.359375 29.519531 10.519531 29.640625 C 10.667969 29.753906 12.078125 30.738281 16.019531 30.738281 C 19.960938 30.738281 21.371094 29.753906 21.519531 29.640625 C 21.683594 29.519531 21.78125 29.339844 21.78125 29.140625 L 21.78125 26.898438 C 21.78125 23.722656 19.199219 21.140625 16.019531 21.140625 Z M 16.019531 21.140625 "/>
</g>
</svg>
