<?xml version="1.0" encoding="UTF-8"?>
<svg xmlns="http://www.w3.org/2000/svg" xmlns:xlink="http://www.w3.org/1999/xlink" width="81.231003" height="32" viewBox="0 0 81.231003 32" version="1.1">
<g id="surface1">
<path style=" stroke:none;fill-rule:evenodd;fill:rgb(17.647059%,65.098041%,69.01961%);fill-opacity:1;" d="M 29.363281 12.117188 L 31.589844 12.117188 C 32.277344 12.117188 32.828125 12.023438 33.238281 11.839844 C 33.625 11.675781 33.953125 11.398438 34.179688 11.046875 C 34.394531 10.703125 34.542969 10.28125 34.621094 9.777344 C 34.695312 9.273438 34.734375 8.6875 34.734375 8.027344 C 34.734375 7.363281 34.695312 6.777344 34.621094 6.273438 C 34.542969 5.769531 34.382812 5.339844 34.140625 4.984375 C 33.886719 4.625 33.53125 4.347656 33.121094 4.191406 C 32.695312 4.019531 32.113281 3.933594 31.394531 3.933594 L 29.363281 3.933594 Z M 25.453125 0.242188 L 31.742188 0.242188 C 36.347656 0.242188 38.648438 2.917969 38.648438 8.273438 C 38.648438 9.863281 38.398438 11.226562 37.898438 12.367188 C 37.398438 13.507812 36.523438 14.425781 35.273438 15.117188 L 39.492188 27.609375 L 35.347656 27.609375 L 31.644531 15.722656 L 29.363281 15.722656 L 29.363281 27.609375 L 25.453125 27.609375 Z M 41.792969 0.242188 L 47.660156 0.242188 C 48.746094 0.242188 49.679688 0.382812 50.5 0.667969 C 51.316406 0.949219 52.058594 1.449219 52.722656 2.164062 C 53.386719 2.875 53.859375 3.738281 54.105469 4.679688 C 54.363281 5.640625 54.488281 6.941406 54.488281 8.582031 C 54.488281 9.789062 54.394531 10.648438 54.253906 11.507812 C 54.113281 12.367188 53.660156 13.859375 51.875 14.875 C 50.757812 15.507812 49.160156 15.734375 47.699219 15.734375 L 45.707031 15.734375 L 45.707031 27.609375 L 41.792969 27.609375 Z M 45.703125 12.117188 L 47.585938 12.117188 C 48.378906 12.117188 48.992188 12.015625 49.425781 11.808594 C 49.863281 11.605469 50.183594 11.332031 50.386719 10.984375 C 50.589844 10.632812 50.710938 10.210938 50.75 9.714844 L 50.808594 8.058594 L 50.75 6.453125 C 50.726562 5.992188 50.609375 5.542969 50.40625 5.128906 C 50.214844 4.757812 49.914062 4.464844 49.503906 4.25 C 49.09375 4.039062 48.507812 3.929688 47.742188 3.929688 L 45.707031 3.929688 Z M 69.832031 21.496094 C 69.835938 22.328125 69.671875 23.152344 69.351562 23.917969 C 69.042969 24.667969 68.597656 25.355469 68.03125 25.9375 C 67.464844 26.515625 66.792969 26.984375 66.054688 27.320312 C 65.289062 27.667969 64.457031 27.84375 63.617188 27.839844 C 62.851562 27.835938 62.09375 27.730469 61.355469 27.53125 C 60.597656 27.332031 59.890625 26.96875 59.285156 26.472656 C 58.671875 25.972656 58.164062 25.3125 57.769531 24.492188 C 57.371094 23.671875 57.175781 22.636719 57.175781 21.378906 L 57.175781 6.304688 C 57.175781 5.417969 57.328125 4.574219 57.632812 3.804688 C 57.925781 3.058594 58.371094 2.378906 58.9375 1.808594 C 59.511719 1.234375 60.199219 0.78125 60.953125 0.480469 C 61.734375 0.160156 62.597656 0 63.542969 0 C 64.4375 0 65.269531 0.160156 66.035156 0.480469 C 66.800781 0.800781 67.46875 1.25 68.03125 1.824219 C 68.605469 2.421875 69.054688 3.128906 69.351562 3.902344 C 69.671875 4.707031 69.832031 5.574219 69.832031 6.535156 L 69.832031 8.070312 L 65.921875 8.070312 L 65.921875 6.765625 C 65.921875 5.996094 65.703125 5.328125 65.269531 4.765625 C 64.859375 4.210938 64.195312 3.894531 63.503906 3.921875 C 62.53125 3.921875 61.886719 4.222656 61.566406 4.824219 C 61.246094 5.425781 61.085938 6.1875 61.085938 7.109375 L 61.085938 21.101562 C 61.085938 21.894531 61.257812 22.5625 61.605469 23.097656 C 61.953125 23.636719 62.570312 23.90625 63.464844 23.90625 C 63.722656 23.90625 63.996094 23.863281 64.289062 23.773438 C 64.585938 23.679688 64.863281 23.53125 65.097656 23.328125 C 65.359375 23.097656 65.5625 22.808594 65.691406 22.484375 C 65.84375 22.125 65.921875 21.675781 65.921875 21.136719 L 65.921875 19.792969 L 69.832031 19.792969 Z M 77.5 13.890625 C 77.5 12.890625 76.691406 12.082031 75.695312 12.082031 L 65.925781 12.082031 L 65.925781 15.695312 L 73.890625 15.695312 L 73.890625 19.730469 L 72.664062 19.730469 L 75.714844 24.042969 L 78.769531 19.730469 L 77.5 19.730469 Z M 8.878906 15.730469 L 8.878906 21.148438 C 8.878906 22.277344 9.070312 23.257812 9.453125 24.089844 C 9.808594 24.878906 10.324219 25.585938 10.96875 26.164062 C 11.585938 26.707031 12.304688 27.132812 13.078125 27.414062 C 13.835938 27.691406 14.632812 27.832031 15.4375 27.835938 C 16.242188 27.835938 17.042969 27.691406 17.796875 27.414062 C 18.574219 27.132812 19.289062 26.707031 19.90625 26.164062 C 20.53125 25.613281 21.035156 24.921875 21.421875 24.089844 C 21.804688 23.253906 21.996094 22.277344 21.996094 21.148438 L 21.996094 12.121094 L 14.984375 12.113281 L 14.976562 15.730469 L 18.082031 15.730469 L 18.082031 21.148438 C 18.082031 22.097656 17.820312 22.796875 17.296875 23.246094 C 16.773438 23.695312 16.117188 23.929688 15.4375 23.917969 C 14.753906 23.929688 14.089844 23.691406 13.574219 23.246094 C 13.058594 22.796875 12.789062 22.097656 12.789062 21.148438 L 12.789062 6.699219 C 12.789062 5.75 13.050781 5.054688 13.574219 4.605469 C 14.089844 4.160156 14.753906 3.917969 15.4375 3.929688 C 16.117188 3.917969 16.78125 4.160156 17.296875 4.605469 C 17.820312 5.054688 18.082031 5.75 18.082031 6.699219 L 18.082031 8.082031 L 21.992188 8.082031 L 21.992188 6.699219 C 21.992188 5.597656 21.800781 4.625 21.417969 3.777344 C 21.035156 2.933594 20.53125 2.234375 19.902344 1.683594 C 19.285156 1.136719 18.570312 0.714844 17.792969 0.433594 C 17.039062 0.15625 16.242188 0.015625 15.4375 0.0117188 C 14.632812 0.015625 13.835938 0.15625 13.078125 0.433594 C 12.300781 0.714844 11.585938 1.136719 10.96875 1.683594 C 10.34375 2.234375 9.835938 2.933594 9.453125 3.777344 C 9.066406 4.625 8.878906 5.597656 8.878906 6.699219 L 8.878906 12.117188 L 4.878906 12.117188 L 4.878906 8.082031 L 6.105469 8.082031 L 3.050781 3.769531 L 0 8.082031 L 1.269531 8.082031 L 1.269531 13.925781 C 1.269531 14.921875 2.074219 15.730469 3.070312 15.734375 L 8.878906 15.734375 Z M 8.878906 15.730469 "/>
</g>
</svg>
