<svg role="img" viewBox="0 0 81.231 32" xmlns="http://www.w3.org/2000/svg"><path d="M29.363 12.117h2.227c.687 0 1.238-.094 1.648-.277a2.12 2.12 0 0 0 .942-.793c.215-.344.363-.766.441-1.27.074-.504.113-1.09.113-1.75 0-.664-.039-1.25-.113-1.754-.078-.503-.238-.933-.48-1.289a2.226 2.226 0 0 0-1.02-.793c-.426-.171-1.008-.257-1.726-.257h-2.032ZM25.453.242h6.29c4.605 0 6.905 2.676 6.905 8.031 0 1.59-.25 2.954-.75 4.094-.5 1.14-1.375 2.059-2.625 2.75l4.22 12.492h-4.145l-3.703-11.886h-2.282v11.886h-3.91Zm16.34 0h5.867c1.086 0 2.02.14 2.84.426.816.281 1.559.781 2.223 1.496a5.849 5.849 0 0 1 1.382 2.516c.258.96.383 2.261.383 3.902 0 1.207-.093 2.066-.234 2.926-.14.86-.594 2.351-2.379 3.367-1.117.633-2.715.86-4.176.86h-1.992v11.874h-3.914Zm3.91 11.875h1.883c.793 0 1.406-.101 1.84-.308.437-.204.758-.477.96-.825.204-.351.325-.773.364-1.27l.059-1.655-.059-1.606a3.406 3.406 0 0 0-.344-1.324c-.191-.371-.492-.664-.902-.879-.41-.21-.996-.32-1.762-.32h-2.035Zm24.129 9.38a6.23 6.23 0 0 1-.48 2.421 6.369 6.369 0 0 1-1.32 2.02 6.608 6.608 0 0 1-1.977 1.382 5.83 5.83 0 0 1-2.438.52 8.803 8.803 0 0 1-2.262-.309 5.464 5.464 0 0 1-2.07-1.058c-.613-.5-1.12-1.16-1.515-1.98-.399-.821-.594-1.856-.594-3.114V6.305c0-.887.152-1.73.457-2.5a5.878 5.878 0 0 1 1.304-1.996A6.02 6.02 0 0 1 60.954.48c.781-.32 1.645-.48 2.59-.48.895 0 1.727.16 2.492.48.766.32 1.434.77 1.996 1.344a6.159 6.159 0 0 1 1.32 2.078c.32.805.481 1.672.481 2.633V8.07h-3.91V6.766c0-.77-.219-1.438-.652-2a2.1 2.1 0 0 0-1.766-.844c-.973 0-1.617.3-1.938.902-.32.602-.48 1.364-.48 2.285v13.993c0 .793.172 1.46.52 1.996.347.539.964.808 1.859.808.258 0 .531-.043.824-.133a2.29 2.29 0 0 0 .809-.445 2.25 2.25 0 0 0 .593-.844c.153-.359.23-.808.23-1.347v-1.344h3.911ZM77.5 13.89c0-1-.809-1.809-1.805-1.809h-9.77v3.613h7.966v4.035h-1.227l3.05 4.313 3.056-4.313H77.5ZM8.879 15.73v5.417c0 1.13.191 2.11.574 2.942a6.15 6.15 0 0 0 1.516 2.074 6.58 6.58 0 0 0 2.11 1.25 6.86 6.86 0 0 0 2.358.422 6.77 6.77 0 0 0 2.36-.422 6.56 6.56 0 0 0 2.11-1.25c.624-.55 1.128-1.242 1.515-2.074.383-.836.574-1.813.574-2.942V12.12l-7.012-.008-.007 3.617h3.105v5.418c0 .95-.262 1.649-.785 2.098-.524.45-1.18.684-1.86.672a2.777 2.777 0 0 1-1.863-.672c-.515-.45-.785-1.148-.785-2.098V6.7c0-.949.262-1.644.785-2.094a2.78 2.78 0 0 1 1.864-.675c.68-.012 1.343.23 1.859.675.523.45.785 1.145.785 2.094v1.383h3.91V6.699c0-1.101-.191-2.074-.574-2.922-.383-.843-.887-1.543-1.516-2.093a6.491 6.491 0 0 0-2.109-1.25 6.915 6.915 0 0 0-2.355-.422 6.92 6.92 0 0 0-2.36.422 6.52 6.52 0 0 0-2.11 1.25c-.624.55-1.132 1.25-1.515 2.093-.387.848-.574 1.82-.574 2.922v5.418h-4V8.082h1.226L3.051 3.77 0 8.082h1.27v5.844c0 .996.804 1.804 1.8 1.808h5.81Zm0 0" style="stroke:none;fill-rule:evenodd;fill:rgb(17.647059%,65.098041%,69.01961%);fill-opacity:1"/></svg>