<?xml version="1.0" encoding="UTF-8"?>
<svg xmlns="http://www.w3.org/2000/svg" xmlns:xlink="http://www.w3.org/1999/xlink" width="25.143" height="32" viewBox="0 0 25.143 32" version="1.1">
<g id="surface1">
<path style=" stroke:none;fill-rule:evenodd;fill:rgb(17.647059%,65.098041%,69.01961%);fill-opacity:1;" d="M 9.839844 17.425781 L 9.839844 23.429688 C 9.839844 24.675781 10.054688 25.761719 10.476562 26.6875 C 10.902344 27.609375 11.464844 28.375 12.15625 28.984375 C 12.84375 29.589844 13.636719 30.0625 14.496094 30.371094 C 15.332031 30.679688 16.21875 30.835938 17.109375 30.839844 C 17.988281 30.839844 18.859375 30.683594 19.726562 30.371094 C 20.585938 30.0625 21.378906 29.589844 22.0625 28.984375 C 22.757812 28.375 23.316406 27.609375 23.742188 26.6875 C 24.167969 25.761719 24.378906 24.675781 24.378906 23.429688 L 24.378906 13.425781 L 16.609375 13.414062 L 16.601562 17.425781 L 20.042969 17.425781 L 20.042969 23.429688 C 20.042969 24.476562 19.753906 25.253906 19.175781 25.75 C 18.601562 26.246094 17.910156 26.496094 17.113281 26.496094 C 16.320312 26.496094 15.632812 26.246094 15.050781 25.75 C 14.46875 25.253906 14.183594 24.480469 14.183594 23.429688 L 14.183594 7.410156 C 14.183594 6.359375 14.476562 5.585938 15.050781 5.089844 C 15.628906 4.59375 16.320312 4.34375 17.113281 4.34375 C 17.910156 4.34375 18.59375 4.59375 19.175781 5.089844 C 19.757812 5.585938 20.042969 6.359375 20.042969 7.410156 L 20.042969 8.945312 L 24.382812 8.945312 L 24.382812 7.410156 C 24.382812 6.191406 24.167969 5.109375 23.742188 4.175781 C 23.316406 3.238281 22.757812 2.464844 22.0625 1.851562 C 21.378906 1.246094 20.585938 0.777344 19.726562 0.46875 C 18.890625 0.160156 18.003906 0 17.109375 0 C 16.230469 0 15.359375 0.15625 14.496094 0.46875 C 13.636719 0.777344 12.839844 1.246094 12.15625 1.851562 C 11.464844 2.464844 10.902344 3.238281 10.476562 4.175781 C 10.054688 5.113281 9.839844 6.191406 9.839844 7.410156 L 9.839844 13.414062 L 5.40625 13.414062 L 5.40625 8.945312 L 6.765625 8.945312 L 3.382812 4.164062 L 0 8.945312 L 1.40625 8.945312 L 1.40625 15.417969 C 1.40625 16.527344 2.300781 17.425781 3.40625 17.425781 L 9.84375 17.425781 Z M 9.839844 17.425781 "/>
</g>
</svg>
