<svg xmlns="http://www.w3.org/2000/svg" width="33" height="42" stroke="#000" stroke-linecap="round" stroke-linejoin="round" fill="#fff" fill-rule="evenodd"><path d="M12.9162 22.8689v7.8801c0 1.6399.2783 3.0655.8368 4.2766s1.2927 2.2173 2.204 3.0186 1.9352 1.4072 3.0692 1.817 2.2793.6147 3.4316.6147 2.297-.2049 3.4316-.6147a9.494 9.494 0 0 0 3.0692-1.817c.9114-.8013 1.6462-1.8075 2.2041-3.0186s.8367-2.6373.8367-4.2766V17.6197l-10.1987-.0158-.0126 5.265h4.52v7.8801c0 1.3787-.3814 2.3944-1.1384 3.0471s-1.6646.9784-2.7068.9784-1.9435-.3263-2.7069-.9784-1.1383-1.6677-1.1383-3.0471V9.7269c0-1.3787.3813-2.3944 1.1383-3.0471s1.6646-.9784 2.7069-.9784 1.9434.3263 2.7068.9784 1.1384 1.6684 1.1384 3.0471v2.0124H32V9.7269c0-1.6026-.2783-3.0187-.8367-4.2487s-1.2927-2.2452-2.2041-3.0471A9.517 9.517 0 0 0 25.8907.6135C24.7573.2024 23.6107 0 22.4578 0s-2.297.2049-3.4316.6147a9.494 9.494 0 0 0-3.0692 1.817c-.9113.8013-1.6462 1.817-2.204 3.0471s-.8368 2.6461-.8368 4.2487v7.8801H7.0934v-5.869h1.786L4.4397 5.4649 0 11.7386h1.8467v8.4994c0 1.4533 1.1744 2.6309 2.6246 2.6309h8.4462z" stroke="none" fill="#2da6b0"/></svg>