<svg xmlns="http://www.w3.org/2000/svg" width="33" height="13" stroke="#000" stroke-linecap="round" stroke-linejoin="round" fill="#fff" fill-rule="evenodd"><path d="M11.9289 4.9221h.9039c.2802 0 .5044-.0376.6701-.1121s.2934-.1821.3819-.3218.1481-.3122.1793-.5164.0469-.4419.0469-.7113-.016-.5068-.0469-.7114-.096-.3795-.1949-.5244-.2402-.2522-.4131-.3218-.4103-.1049-.7013-.1049h-.8259zM10.3398.0985h2.5559c1.8702 0 2.8053 1.0876 2.8053 3.2632 0 .6453-.1013 1.1997-.3043 1.6629s-.5584.8354-1.0676 1.1168l1.7141 5.0743H14.36l-1.5052-4.8289h-.9259v4.8289h-1.5891zm6.6385 0h2.3842c.4404 0 .8206.0572 1.1529.1721s.6337.3174.9039.6085.4618.6406.5612 1.0227c.1041.3903.1561.9187.1561 1.5852 0 .4892-.0392.8395-.0961 1.1881s-.2414.9556-.9663 1.3671c-.4531.2574-1.1036.3498-1.6957.3498h-.8102v4.8237h-1.5892zm1.5892 4.8236h.7638c.3222 0 .5712-.0412.7486-.1241s.3066-.1945.3895-.3362.1321-.3139.1481-.5152l.0232-.6733-.0232-.6525c-.0152-.2062-.0625-.3843-.1401-.5364s-.2002-.2702-.3663-.3571-.4051-.1305-.7166-.1305h-.8258zm9.8022 3.8109c0 .3435-.0649.6713-.195.9835s-.309.5857-.5376.8199-.5025.426-.8026.562a2.347 2.347 0 0 1-.9895.2109c-.3014 0-.6077-.0416-.9195-.1249a2.227 2.227 0 0 1-.8414-.4295c-.2494-.2029-.4544-.4711-.6157-.8046s-.2414-.7546-.2414-1.2649V2.5607c0-.3602.0625-.7025.187-1.0147s.3014-.5829.53-.8118.5011-.4084.8182-.5389S25.4299 0 25.8142 0c.3634 0 .7013.0652 1.0127.1953s.5817.3123.8102.5465.4083.5151.5376.843.195.6805.195 1.0696v.6245h-1.5892v-.5308c0-.3123-.0881-.5829-.265-.8118a.857.857 0 0 0-.717-.3435c-.3946 0-.6572.1225-.7869.3671s-.195.5544-.195.9287v5.6835c0 .3226.0701.5932.2106.8118s.3923.3282.7557.3282c.1041 0 .2162-.0184.3351-.0548s.2282-.0961.3274-.1801.1794-.1978.2414-.3435.0937-.3283.0937-.5464v-.5464h1.5892zm3.1143-3.0903c0-.4059-.3282-.735-.7325-.735h-3.9698v1.4691h3.2368v1.6393h-.4988l1.2402 1.7521L32 8.0161h-.5156zm-27.8769.7485v2.2005c0 .4579.0781.8566.2338 1.1945s.3611.6193.6156.843.5404.3931.8567.5076c.3069.1127.6313.1709.9583.1717s.6513-.059.9583-.1717a2.652 2.652 0 0 0 .8567-.5076c.2542-.2233.4595-.5044.6156-.843s.2338-.7366.2338-1.1945V4.9249l-2.8481-.004-.004 1.4703h1.2621v2.2009c0 .3851-.1065.6685-.3194.851s-.4788.2785-.7558.2734c-.277.0051-.5461-.0923-.7558-.2734s-.3194-.4659-.3194-.851V2.7217c0-.3851.1065-.6685.3194-.8511a1.125 1.125 0 0 1 .7558-.2734 1.125 1.125 0 0 1 .7558.2734c.2129.1821.3194.466.3194.8511v.562h1.5892v-.562c0-.4476-.0781-.8431-.2338-1.1865s-.361-.6273-.6156-.8511S7.5453.291 7.229.1765a2.803 2.803 0 0 0-.9583-.1717c-.327.0009-.6514.059-.9583.1717a2.652 2.652 0 0 0-.8567.5076c-.2541.2234-.4595.5076-.6156.8511s-.2338.7389-.2338 1.1865v2.2004H1.9815V3.2833h.4988L1.2401 1.5312 0 3.2833h.5156v2.3738a.734.734 0 0 0 .7325.7349h2.359z" stroke="none" fill="#2da6b0"/></svg>