<svg xmlns="http://www.w3.org/2000/svg" xmlns:xlink="http://www.w3.org/1999/xlink" width="32" height="33" stroke="#000" stroke-linecap="round" stroke-linejoin="round" fill="#fff" fill-rule="evenodd"><g stroke="#284a6a" fill="none"><path d="M15.9859 11.9268l-3.3465-3.7834" stroke-width=".26"/><path d="M5.4315 9.012l2.6194 3.8246" stroke-width=".13"/><g stroke-width=".26"><path d="M15.9859 11.9268l3.3103-3.8246m.6914 8.0453l3.9288-3.3103m-3.9288 3.3053l3.9288 3.4557m-4.5835 4.3661l-3.3465-3.7103m-3.3466 3.7103l3.3466-3.7103m-7.9311-.8012l3.7834-3.3103m-3.7829-3.3113l3.7834 3.3103m4.1467-4.2202l-7.9311.9093m7.9311-.9088l7.931.9094"/><path d="M19.9877 16.1425l-.692-8.0403m.692 8.0403l-.6543 7.8213"/><path d="M23.9165 19.5982l-7.931.6542m-7.9301-.8052l7.9311.8052"/><path d="M12.6394 23.9643l-.8052-7.8214m.8052-8.004l-.8052 8.003"/></g><g stroke-width=".13"><path d="M4.4174 13.8502l3.6384-1.0186m.7634-7.4208l3.8247 2.7286m.8686-4.4386l-.8732 4.4386m.8732-4.4386l5.7832 4.4013"/><path d="M18.4231 3.7008l.8726 4.4013m3.8206-2.6913l-3.8246 2.6923m7.2441.9089l-7.2401-.9099m4.6208 4.7295l2.6193-3.8246m-2.6193 3.8246l3.7104 1.0186"/><path d="M23.9165 12.8316l3.6384 5.5296M18.4231 3.7008l-5.7842 4.4386"/><path d="M23.9165 12.8316l-.8052-7.4213m.8052 14.1879l3.6384-1.237m-3.6385 1.237l3.7104-5.748m-3.7104 5.748l2.6194 3.5287m-2.6194-3.5287l-.8052 7.1299m-3.7783-2.7638l3.7834 2.7648"/><path d="M19.333 23.9643l7.2029-.8369m-7.2029.8369l-.8676 4.4688m.8676-4.4688l-5.8205 4.4688m-.8731-4.4688l.8731 4.4788"/><path d="M12.6394 23.9644l5.826 4.4687m-5.821-4.4687l-3.8246 2.7648m3.8246-2.7648l-7.2129-.8012m2.6239-3.7104l-2.6239 3.7104"/><path d="M8.0553 19.4527l.764 7.2759m-.764-7.2759l-3.6736-1.1272m3.6736-5.4939L4.3817 18.325"/><path d="M8.0553 19.4527l-3.6384-5.6021m4.4023-8.4393l-.7639 7.4213"/><path d="M5.4315 9.012l7.2029-.8731"/></g></g><g stroke="#24405d" stroke-width=".101"><path d="M8.8192 5.4109l-2.801-1.3095m2.801 1.3095l-.2174-3.0557m4.9106 1.3457L8.6018 2.3552" fill="none"/><path d="M13.5125 3.7008l-2.1101-2.5826m2.1101 2.5826l.8726-3.0969m-5.5658 4.807l2.5826-4.2927m7.0212 2.5826L14.3851.6039" fill="none"/><path d="M18.423 3.7008L17.5092.4997m-4.0018 3.2006L17.5092.4997m.9138 3.2006l2.1106-2.5831m2.5832 4.2926l-2.5882-4.2916" fill="none"/><path d="M23.1163 5.4109l.2547-3.0557m-4.9479 1.3457l4.9468-1.3462m-.2536 3.0562l2.8685-1.4554m-2.8685 1.4554l4.9836.7639" fill="none"/><path d="M26.5358 9.0121l1.5641-2.8373m-1.5641 2.8373l-.546-5.0566m.546 5.0566l3.2741-.2547m-3.2741.2547l4.4788 2.5464" fill="none"/><path d="M27.6269 13.8502l2.1825-5.0928m-2.1825 5.0928l3.3832-2.2918m-3.3832 2.2918l3.7833.7639m-3.8563 3.7471l3.8563-3.7471" fill="none"/><path d="M27.5539 18.3612l3.9655-.7276m-3.8926-3.7834l3.8926 3.7834m-3.9655.7276l3.3832 2.2556m-4.4013 2.5101l4.4018-2.5101" fill="none"/><path d="M26.5358 23.1269l3.2378.3271m-2.2142-5.0928l2.2142 5.0928m-3.2328-.3271l1.5279 2.8685m-1.5279-2.8685l-.5772 5.0203" fill="none"/><path d="M25.9536 28.1472l-2.8372-1.4191m0 0l.2184 3.1704m-.2184-3.1704l4.9468-.7277m-4.9468.7277l-2.5877 4.3656" fill="none"/><path d="M18.4653 28.4331l2.0633 2.6556m-2.0633-2.6556l4.8749 1.4554m-4.8749-1.4554l-.9561 3.2741m.9561-3.2741l-4.0742 3.2741" fill="none"/><path d="M13.5125 28.4331l.8731 3.2741m-.8731-3.2741l3.9967 3.2741m-3.9967-3.2741l-2.0733 2.6556m-2.6199-4.3606l2.6194 4.3656" fill="none"/><path d="M13.5125 28.4331L8.5657 29.961m.2536-3.2328l-.2546 3.2378m.2546-3.2378l-2.8373 1.564m-.5505-5.129l.5455 5.1295" fill="none"/><path d="M8.8193 26.7282l-4.9831-.6905m1.5953-2.8745l-1.6003 2.8685m1.6003-2.8685l-3.2741.3271m3.2741-.3271L.9254 20.653m3.4558-2.3279L.9254 20.653m3.4558-2.3279l-3.9288-.6915" fill="none"/><path d="M4.3812 18.325l-2.2143 5.1658m2.2505-9.6406L.4519 17.6336" fill="none"/><path d="M4.3812 18.325L.4524 14.6141m3.9655-.7639l-3.3833-2.2555" fill="none"/><path d="M4.4174 13.8502l-3.9655.7639m3.9655-.7639L2.1619 8.7574" fill="none"/><path d="M5.4314 9.012l-3.2741-.2546m3.2741.2546l-4.3968 2.5827M5.4314 9.012l-1.56-2.6913m1.56 2.6913l.5823-4.9116" fill="none"/><path d="M8.8193 5.4108l-4.9479.9099" fill="none"/></g><g stroke="none" fill-rule="nonzero"><path d="M9.8912 18.0337l.0267-3.8247 3.8271.0267-.0267 3.8246zm4.1407-4.2132l.0266-3.8246 3.8272.0267-.0267 3.8246zm-.0011 8.389l.0267-3.8246 3.8272.0267-.0267 3.8246zm4.1769-4.2121l.0267-3.8246 3.8271.0267-.0266 3.8246z" fill="#256ea5"/><path d="M17.9873 9.4327l.0186-2.6556 2.6671.0186-.0186 2.6556zm-6.668-.0005l.0187-2.6556 2.6671.0186-.0186 2.6556zm-4.6157 4.7305l.0186-2.6556 2.6672.0186-.0186 2.6556zm-.003 6.6714l.0277-2.6556 2.6661.0277-.0276 2.6556zm15.9014-.0503l.0186-2.6556 2.6672.0186-.0187 2.6556zm.0538-6.6025l.0277-2.6556 2.6662.0277-.0277 2.6556z" fill="#3378bc"/><path d="M4.5422 9.8786l.0121-1.7463 1.7427.0121-.0121 1.7463zm3.4069-3.5539l.0121-1.7463 1.7427.0121-.012 1.7463zm4.6902-1.7578l.0121-1.7463 1.7427.0121-.012 1.7462zM3.5161 14.7147l.0121-1.7462 1.7311.012-.0121 1.7463zm22.139-6.5582l1.7463-.0121.012 1.7427-1.7462.0121zm-3.4084-3.6133l1.7462-.0121.0121 1.7428-1.7462.012zm-4.7053-1.714l1.7462-.0121.0121 1.7427-1.7462.0121zm9.1288 10.1584l1.7462-.0121.0121 1.7427-1.7463.0121z" fill="#169bd6"/><path d="M11.2826 25.3633l.0186-2.6556 2.6672.0186-.0186 2.6556zm6.6679 0l.0186-2.6556 2.6672.0186-.0186 2.6556z" fill="#3378bc"/><path d="M25.6436 24.0196l.012-1.7462 1.7428.0121-.0121 1.7462zm-3.3707 3.5902l.012-1.7463 1.7428.0121-.0121 1.7462zm-4.6902 1.721l.012-1.7462 1.7428.0121-.0121 1.7462zm9.0865-10.1473l.012-1.7463 1.7428.0121-.0121 1.7463zM4.5457 22.2734l1.7463-.0121.0121 1.7427-1.7463.0121zm3.408 3.577l1.7462-.0121.0121 1.7428-1.7462.012zm4.668 1.7136l1.7463-.0121.0121 1.7427-1.7463.0121zM3.5292 17.4423l1.7462-.0121.0121 1.7427-1.7462.0121z" fill="#169bd6"/><g fill="#00a8da"><use xlink:href="#B"/><use xlink:href="#B" x="1.245" y="2.8574"/><use xlink:href="#B" x="-1.6849" y="-2.5283"/><use xlink:href="#B" x="-23.7751" y="-4.6897"/><use xlink:href="#B" x="-29.3072" y="5.8603"/><use xlink:href="#B" x="-3.8096" y="-4.6892"/><use xlink:href="#B" x="-28.7572" y="2.8564"/><use xlink:href="#B" x="-18.3542" y="-7.6201"/><use xlink:href="#B" x="-27.5856" y="-0.001"/><use xlink:href="#B" x="-25.8635" y="-2.5645"/><path d="M8.1137 1.8771l.9461-.0065.0065.9642-.9461.0065zm5.8436-1.86l.9461-.0065.0066.9642-.9461.0066z"/><use xlink:href="#B" x="-6.3746" y="-6.3745"/><use xlink:href="#B" x="1.722" y="5.8245"/><path d="M17.0347.9461L17.0412 0l.9642.0065-.0065.9461z"/><use xlink:href="#B" x="-9.2682" y="-7.6568"/><use xlink:href="#B" x="-3.8106" y="19.4155"/><use xlink:href="#B" x="1.722" y="8.8651"/><use xlink:href="#B" x="-23.7761" y="19.415"/><use xlink:href="#B" x="1.245" y="11.9107"/><use xlink:href="#B" x="-9.2692" y="22.3831"/><use xlink:href="#B" x="-0.0005" y="14.7631"/><use xlink:href="#B" x="-1.6854" y="17.3276"/><path d="M22.8939 29.4566l.9461-.0065.0065.9642-.9461.0066zm-5.8084 1.7865l.9461-.0065.0065.9642-.9461.0066z"/><use xlink:href="#B" x="-21.1749" y="21.2106"/><use xlink:href="#B" x="-27.6224" y="14.7258"/><use xlink:href="#B" x="-28.7582" y="11.9057"/><use xlink:href="#B" x="-25.9013" y="17.3266"/><use xlink:href="#B" x="-29.3072" y="8.8646"/><use xlink:href="#B" x="-15.3136" y="22.9689"/><use xlink:href="#B" x="-18.3904" y="22.3459"/></g></g><defs ><path id="B" d="M29.3072 9.2254l.0065-.9461.9642.0065-.0065.9461z"/></defs></svg>