<svg role="img" viewBox="0 0 31.03 32" xmlns="http://www.w3.org/2000/svg"><path d="m15.984 11.928-3.343-3.783" style="fill:none;stroke-width:0.26;stroke-linecap:round;stroke-linejoin:round;stroke:rgb(15.686275%,29.019609%,41.568628%);stroke-opacity:1;stroke-miterlimit:4" transform="scale(.9697)"/><path d="m5.43 9.011 2.623 3.827" style="fill:none;stroke-width:0.13;stroke-linecap:round;stroke-linejoin:round;stroke:rgb(15.686275%,29.019609%,41.568628%);stroke-opacity:1;stroke-miterlimit:4" transform="scale(.9697)"/><path d="M15.984 11.928 19.296 8.1m.693 8.045 3.927-3.308m-3.927 3.303 3.927 3.457m-4.584 4.366-3.344-3.71m-3.347 3.71 3.347-3.71m-7.931-.801 3.782-3.312m-3.782-3.31 3.782 3.31m4.145-4.221-7.927.91m7.927-.91 7.932.91m-3.927 3.312-.693-8.04m.693 8.04-.657 7.823m4.584-4.366-7.932.656m-7.927-.805 7.931.805m-3.348 3.71-.805-7.823m.806-8.004-.806 8.004" style="fill:none;stroke-width:0.26;stroke-linecap:round;stroke-linejoin:round;stroke:rgb(15.686275%,29.019609%,41.568628%);stroke-opacity:1;stroke-miterlimit:4" transform="scale(.9697)"/><path d="m4.42 13.85 3.637-1.02m.761-7.42 3.827 2.731m.866-4.439-.87 4.44m.87-4.44 5.785 4.399m-.874-4.399.874 4.399m3.819-2.691-3.823 2.695m7.243.906-7.24-.91m4.621 4.73 2.619-3.824m-2.619 3.823 3.71 1.02m-3.71-1.02 3.638 5.531M18.422 3.702l-5.781 4.44m11.275 4.688-.806-7.42m.806 14.188 3.638-1.237m-3.638 1.237 3.71-5.749m-3.71 5.749 2.619 3.529m-2.619-3.53-.806 7.13m-3.778-2.763 3.783 2.764m-3.783-2.764 7.203-.837m-7.203.837-.866 4.468m.866-4.468-5.821 4.468m-.87-4.468.87 4.48m-.871-4.48 5.826 4.468m-5.821-4.468-3.827 2.764m3.827-2.764-7.215-.801m2.627-3.71-2.627 3.71m2.627-3.71.761 7.275m-.761-7.275-3.674-1.128m3.674-5.495-3.674 5.495m3.674 1.128-3.642-5.604M8.818 5.41l-.761 7.424M5.43 9.011l7.203-.874" style="fill:none;stroke-width:0.13;stroke-linecap:round;stroke-linejoin:round;stroke:rgb(15.686275%,29.019609%,41.568628%);stroke-opacity:1;stroke-miterlimit:4" transform="scale(.9697)"/><path d="m8.818 5.41-2.8-1.31m2.8 1.31L8.6 2.357m4.911 1.345-4.91-1.345m4.91 1.345L11.404 1.12m2.107 2.582.874-3.098M8.818 5.41 11.4 1.12m7.022 2.582L14.385.604m4.037 3.098L17.512.5m-4.005 3.202L17.511.5m.91 3.202 2.111-2.586M23.12 5.41l-2.59-4.29m2.585 4.29.257-3.053m-4.95 1.345 4.946-1.345m-.253 3.053 2.872-1.454M23.115 5.41l4.987.765m-1.567 2.836 1.567-2.836m-1.567 2.836-.544-5.055m.544 5.055 3.275-.253m-3.275.253 4.479 2.546m-3.388 2.293 2.184-5.092m-2.184 5.091 3.384-2.292m-3.384 2.292 3.783.766m-3.855 3.746 3.855-3.746m-3.855 3.746 3.964-.729m-3.892-3.783 3.892 3.783m-3.964.73 3.384 2.255m-4.403 2.51 4.403-2.51m-4.403 2.51 3.238.326m-2.215-5.092 2.215 5.092m-3.23-.326 1.526 2.868m-1.526-2.868-.58 5.019m-.009 0-2.84-1.418m0 0 .222 3.17m-.221-3.17 4.946-.73m-4.946.73-2.587 4.367m-2.062-2.663 2.062 2.659m-2.062-2.66 4.874 1.46m-4.874-1.46-.955 3.276m.955-3.275-4.077 3.275m-.878-3.275.874 3.275m-.874-3.275 4 3.275m-4-3.275-2.07 2.659m-2.623-4.363 2.622 4.367m2.071-2.663-4.947 1.53m.254-3.234-.254 3.239m.254-3.24-2.836 1.564m-.552-5.128.548 5.128m2.84-1.563-4.983-.689m1.595-2.876-1.6 2.868m1.6-2.868-3.27.326m3.27-.326-4.503-2.51m3.456-2.328L.927 20.653m3.456-2.328L.45 17.632m3.933.693-2.216 5.164m2.252-9.64L.451 17.632m3.932.693L.45 14.615m3.968-.766-3.384-2.255M4.42 13.85l-3.969.765m3.968-.766L2.163 8.758m3.267.253-3.27-.253m3.27.253-4.395 2.583M5.43 9.01 3.871 6.32m1.56 2.69.583-4.91m2.804 1.31-4.947.91" style="fill:none;stroke-width:0.101;stroke-linecap:round;stroke-linejoin:round;stroke:rgb(14.117648%,25.098041%,36.470589%);stroke-opacity:1;stroke-miterlimit:4" transform="scale(.9697)"/><path d="m9.59 17.488.027-3.71 3.711.027-.027 3.707Zm4.015-4.086.028-3.71 3.71.027-.027 3.707Zm0 8.133.028-3.707 3.71.027-.027 3.707Zm4.051-4.082.028-3.71 3.71.027-.027 3.707Zm0 0" style="stroke:none;fill-rule:nonzero;fill:rgb(14.509805%,43.137255%,64.705884%);fill-opacity:1"/><path d="m17.441 9.148.02-2.578 2.586.02-.02 2.574Zm-6.464-.003.02-2.575 2.585.02-.02 2.574ZM6.5 13.735l.02-2.575 2.585.016-.02 2.574Zm-.004 6.468.027-2.574 2.586.027-.027 2.574Zm15.422-.05.016-2.575 2.59.02-.02 2.574Zm.05-6.403.028-2.574 2.586.027-.027 2.574Zm0 0" style="stroke:none;fill-rule:nonzero;fill:rgb(20%,47.058824%,73.725492%);fill-opacity:1"/><path d="m4.406 9.578.012-1.691 1.687.011-.011 1.692Zm3.301-3.445.012-1.692 1.691.012-.012 1.692Zm4.55-1.703.013-1.696 1.687.012-.012 1.695ZM3.41 14.27l.012-1.696 1.68.012-.012 1.695Zm21.47-6.36 1.691-.012.012 1.688-1.691.012Zm-3.305-3.504 1.692-.011.011 1.687-1.691.012Zm-4.562-1.664 1.691-.012.012 1.692-1.692.012Zm8.851 9.852 1.692-.012.011 1.691-1.691.012Zm0 0" style="stroke:none;fill-rule:nonzero;fill:rgb(8.627451%,60.784316%,83.92157%);fill-opacity:1"/><path d="m10.941 24.594.016-2.574 2.59.02-.02 2.573Zm6.465 0 .02-2.574 2.586.02-.02 2.573Zm0 0" style="stroke:none;fill-rule:nonzero;fill:rgb(20%,47.058824%,73.725492%);fill-opacity:1"/><path d="m24.867 23.293.012-1.695 1.687.011-.011 1.696Zm-3.27 3.48.012-1.695 1.692.012-.012 1.695Zm-4.546 1.668.012-1.691 1.687.012-.012 1.691Zm8.808-9.84.012-1.69 1.692.01-.012 1.692ZM4.406 21.599l1.696-.012.011 1.691-1.695.012Zm3.305 3.468 1.695-.011.012 1.691-1.695.012Zm4.527 1.664 1.696-.011.011 1.687-1.695.012Zm-8.816-9.816 1.695-.012.012 1.692-1.695.011Zm0 0" style="stroke:none;fill-rule:nonzero;fill:rgb(8.627451%,60.784316%,83.92157%);fill-opacity:1"/><path d="m28.418 8.945.008-.918.933.008-.004.918Zm1.207 2.77.008-.914.933.004-.003.918Zm-2.84-5.219.008-.918.934.004-.008.918ZM5.363 4.398l.008-.918.934.008-.004.918ZM0 14.629l.008-.918.933.008-.007.918ZM24.727 4.398l.003-.918.938.008-.008.918ZM.535 11.715l.004-.918.938.008-.008.918ZM10.621 1.559 10.63.64l.934.004-.008.918ZM1.668 8.945l.008-.918.933.008-.004.918ZM3.34 6.46l.004-.917.937.004-.008.918Zm4.527-4.64.918-.008.008.938-.918.004ZM13.535.016l.918-.004.004.933-.918.008Zm8.703 2.75.004-.918.938.004-.008.918Zm7.852 11.828.004-.918.937.008-.008.918ZM16.52.918 16.523 0l.938.008-.008.914Zm2.914.602.003-.915.934.004-.004.918Zm5.289 26.253.007-.918.934.008-.004.918Zm5.367-10.23.004-.918.937.008-.008.914ZM5.363 27.773l.008-.918.934.008-.008.914Zm24.262-7.277.008-.918.933.008-.003.914ZM19.43 30.652l.008-.918.933.004-.004.918Zm8.988-7.39.008-.918.933.008-.004.918Zm-1.633 2.488.008-.918.934.004-.008.918ZM22.2 28.563l.917-.004.008.933-.918.008Zm-5.634 1.734.918-.008.008.938-.918.003Zm-8.679-.781.004-.918.937.004-.008.918Zm-6.254-6.289.008-.918.933.003-.004.918ZM.531 20.492l.008-.918.934.004-.004.918ZM3.3 25.746l.009-.918.933.008-.004.918ZM0 17.543l.008-.918.933.004-.007.918Zm13.57 13.676.004-.918.938.008-.008.918Zm-2.984-.606.008-.918.933.008-.007.918Zm0 0" style="stroke:none;fill-rule:nonzero;fill:rgb(0%,65.882355%,85.490197%);fill-opacity:1"/></svg>