<?xml version="1.0" encoding="UTF-8"?>
<svg xmlns="http://www.w3.org/2000/svg" xmlns:xlink="http://www.w3.org/1999/xlink" width="31.030303" height="32" viewBox="0 0 31.030303 32" version="1.1">
<g id="surface1">
<path style="fill:none;stroke-width:0.26;stroke-linecap:round;stroke-linejoin:round;stroke:rgb(15.686275%,29.019609%,41.568628%);stroke-opacity:1;stroke-miterlimit:4;" d="M 15.984375 11.927856 L 12.640869 8.145264 " transform="matrix(0.969697,0,0,0.969697,0,0)"/>
<path style="fill:none;stroke-width:0.13;stroke-linecap:round;stroke-linejoin:round;stroke:rgb(15.686275%,29.019609%,41.568628%);stroke-opacity:1;stroke-miterlimit:4;" d="M 5.430176 9.011353 L 8.052612 12.838257 " transform="matrix(0.969697,0,0,0.969697,0,0)"/>
<path style="fill:none;stroke-width:0.26;stroke-linecap:round;stroke-linejoin:round;stroke:rgb(15.686275%,29.019609%,41.568628%);stroke-opacity:1;stroke-miterlimit:4;" d="M 15.984375 11.927856 L 19.295654 8.100952 M 19.988525 16.145508 L 23.916138 12.838257 M 19.988525 16.141479 L 23.916138 19.597778 M 19.331909 23.964478 L 15.988403 20.254395 M 12.640869 23.964478 L 15.988403 20.254395 M 8.056641 19.452759 L 11.839233 16.141479 M 8.056641 12.8302 L 11.839233 16.141479 M 15.984375 11.9198 L 8.056641 12.8302 M 15.984375 11.9198 L 23.916138 12.8302 " transform="matrix(0.969697,0,0,0.969697,0,0)"/>
<path style="fill:none;stroke-width:0.26;stroke-linecap:round;stroke-linejoin:round;stroke:rgb(15.686275%,29.019609%,41.568628%);stroke-opacity:1;stroke-miterlimit:4;" d="M 19.988525 16.141479 L 19.295654 8.100952 M 19.988525 16.141479 L 19.331909 23.964478 " transform="matrix(0.969697,0,0,0.969697,0,0)"/>
<path style="fill:none;stroke-width:0.26;stroke-linecap:round;stroke-linejoin:round;stroke:rgb(15.686275%,29.019609%,41.568628%);stroke-opacity:1;stroke-miterlimit:4;" d="M 23.916138 19.597778 L 15.984375 20.254395 M 8.056641 19.44873 L 15.988403 20.254395 " transform="matrix(0.969697,0,0,0.969697,0,0)"/>
<path style="fill:none;stroke-width:0.26;stroke-linecap:round;stroke-linejoin:round;stroke:rgb(15.686275%,29.019609%,41.568628%);stroke-opacity:1;stroke-miterlimit:4;" d="M 12.640869 23.964478 L 11.835205 16.141479 M 12.640869 8.137207 L 11.835205 16.141479 " transform="matrix(0.969697,0,0,0.969697,0,0)"/>
<path style="fill:none;stroke-width:0.13;stroke-linecap:round;stroke-linejoin:round;stroke:rgb(15.686275%,29.019609%,41.568628%);stroke-opacity:1;stroke-miterlimit:4;" d="M 4.419067 13.849365 L 8.056641 12.8302 M 8.817993 5.410034 L 12.644897 8.141235 M 13.510986 3.702026 L 12.640869 8.141235 M 13.510986 3.702026 L 19.295654 8.100952 " transform="matrix(0.969697,0,0,0.969697,0,0)"/>
<path style="fill:none;stroke-width:0.13;stroke-linecap:round;stroke-linejoin:round;stroke:rgb(15.686275%,29.019609%,41.568628%);stroke-opacity:1;stroke-miterlimit:4;" d="M 18.421509 3.702026 L 19.295654 8.100952 M 23.114502 5.410034 L 19.291626 8.10498 M 26.534546 9.011353 L 19.295654 8.100952 M 23.916138 12.8302 L 26.534546 9.007324 M 23.916138 12.8302 L 27.626221 13.849365 " transform="matrix(0.969697,0,0,0.969697,0,0)"/>
<path style="fill:none;stroke-width:0.13;stroke-linecap:round;stroke-linejoin:round;stroke:rgb(15.686275%,29.019609%,41.568628%);stroke-opacity:1;stroke-miterlimit:4;" d="M 23.916138 12.8302 L 27.553711 18.361084 M 18.421509 3.702026 L 12.640869 8.141235 " transform="matrix(0.969697,0,0,0.969697,0,0)"/>
<path style="fill:none;stroke-width:0.13;stroke-linecap:round;stroke-linejoin:round;stroke:rgb(15.686275%,29.019609%,41.568628%);stroke-opacity:1;stroke-miterlimit:4;" d="M 23.916138 12.8302 L 23.110474 5.410034 M 23.916138 19.597778 L 27.553711 18.361084 M 23.916138 19.597778 L 27.626221 13.849365 M 23.916138 19.597778 L 26.534546 23.126587 M 23.916138 19.597778 L 23.110474 26.727905 M 19.331909 23.964478 L 23.114502 26.727905 " transform="matrix(0.969697,0,0,0.969697,0,0)"/>
<path style="fill:none;stroke-width:0.13;stroke-linecap:round;stroke-linejoin:round;stroke:rgb(15.686275%,29.019609%,41.568628%);stroke-opacity:1;stroke-miterlimit:4;" d="M 19.331909 23.964478 L 26.534546 23.126587 M 19.331909 23.964478 L 18.46582 28.431885 M 19.331909 23.964478 L 13.510986 28.431885 M 12.640869 23.964478 L 13.510986 28.44397 " transform="matrix(0.969697,0,0,0.969697,0,0)"/>
<path style="fill:none;stroke-width:0.13;stroke-linecap:round;stroke-linejoin:round;stroke:rgb(15.686275%,29.019609%,41.568628%);stroke-opacity:1;stroke-miterlimit:4;" d="M 12.640869 23.964478 L 18.46582 28.431885 M 12.644897 23.964478 L 8.817993 26.727905 M 12.644897 23.964478 L 5.430176 23.162842 M 8.056641 19.452759 L 5.430176 23.162842 " transform="matrix(0.969697,0,0,0.969697,0,0)"/>
<path style="fill:none;stroke-width:0.13;stroke-linecap:round;stroke-linejoin:round;stroke:rgb(15.686275%,29.019609%,41.568628%);stroke-opacity:1;stroke-miterlimit:4;" d="M 8.056641 19.452759 L 8.817993 26.727905 M 8.056641 19.452759 L 4.382812 18.324829 M 8.056641 12.8302 L 4.382812 18.324829 " transform="matrix(0.969697,0,0,0.969697,0,0)"/>
<path style="fill:none;stroke-width:0.13;stroke-linecap:round;stroke-linejoin:round;stroke:rgb(15.686275%,29.019609%,41.568628%);stroke-opacity:1;stroke-miterlimit:4;" d="M 8.056641 19.452759 L 4.415039 13.849365 M 8.817993 5.410034 L 8.056641 12.834229 " transform="matrix(0.969697,0,0,0.969697,0,0)"/>
<path style="fill:none;stroke-width:0.13;stroke-linecap:round;stroke-linejoin:round;stroke:rgb(15.686275%,29.019609%,41.568628%);stroke-opacity:1;stroke-miterlimit:4;" d="M 5.430176 9.011353 L 12.632812 8.137207 " transform="matrix(0.969697,0,0,0.969697,0,0)"/>
<path style="fill:none;stroke-width:0.101;stroke-linecap:round;stroke-linejoin:round;stroke:rgb(14.117648%,25.098041%,36.470589%);stroke-opacity:1;stroke-miterlimit:4;" d="M 8.817993 5.410034 L 6.018311 4.10083 M 8.817993 5.410034 L 8.600464 2.356567 M 13.510986 3.702026 L 8.600464 2.356567 " transform="matrix(0.969697,0,0,0.969697,0,0)"/>
<path style="fill:none;stroke-width:0.101;stroke-linecap:round;stroke-linejoin:round;stroke:rgb(14.117648%,25.098041%,36.470589%);stroke-opacity:1;stroke-miterlimit:4;" d="M 13.510986 3.702026 L 11.404175 1.119873 M 13.510986 3.702026 L 14.385132 0.604248 M 8.817993 5.410034 L 11.400146 1.119873 M 18.421509 3.702026 L 14.385132 0.604248 " transform="matrix(0.969697,0,0,0.969697,0,0)"/>
<path style="fill:none;stroke-width:0.101;stroke-linecap:round;stroke-linejoin:round;stroke:rgb(14.117648%,25.098041%,36.470589%);stroke-opacity:1;stroke-miterlimit:4;" d="M 18.421509 3.702026 L 17.511108 0.499512 M 13.506958 3.702026 L 17.511108 0.499512 M 18.421509 3.702026 L 20.532349 1.115845 M 23.11853 5.410034 L 20.52832 1.119873 " transform="matrix(0.969697,0,0,0.969697,0,0)"/>
<path style="fill:none;stroke-width:0.101;stroke-linecap:round;stroke-linejoin:round;stroke:rgb(14.117648%,25.098041%,36.470589%);stroke-opacity:1;stroke-miterlimit:4;" d="M 23.114502 5.410034 L 23.372314 2.356567 M 18.421509 3.702026 L 23.368286 2.356567 M 23.114502 5.410034 L 25.986694 3.955811 M 23.114502 5.410034 L 28.101562 6.175415 " transform="matrix(0.969697,0,0,0.969697,0,0)"/>
<path style="fill:none;stroke-width:0.101;stroke-linecap:round;stroke-linejoin:round;stroke:rgb(14.117648%,25.098041%,36.470589%);stroke-opacity:1;stroke-miterlimit:4;" d="M 26.534546 9.011353 L 28.101562 6.175415 M 26.534546 9.011353 L 25.990723 3.955811 M 26.534546 9.011353 L 29.80957 8.757568 M 26.534546 9.011353 L 31.014038 11.557251 " transform="matrix(0.969697,0,0,0.969697,0,0)"/>
<path style="fill:none;stroke-width:0.101;stroke-linecap:round;stroke-linejoin:round;stroke:rgb(14.117648%,25.098041%,36.470589%);stroke-opacity:1;stroke-miterlimit:4;" d="M 27.626221 13.849365 L 29.80957 8.757568 M 27.626221 13.849365 L 31.01001 11.557251 M 27.626221 13.849365 L 31.408813 14.614746 M 27.553711 18.361084 L 31.408813 14.614746 " transform="matrix(0.969697,0,0,0.969697,0,0)"/>
<path style="fill:none;stroke-width:0.101;stroke-linecap:round;stroke-linejoin:round;stroke:rgb(14.117648%,25.098041%,36.470589%);stroke-opacity:1;stroke-miterlimit:4;" d="M 27.553711 18.361084 L 31.517578 17.631958 M 27.626221 13.849365 L 31.517578 17.631958 M 27.553711 18.361084 L 30.9375 20.616943 M 26.534546 23.126587 L 30.9375 20.616943 " transform="matrix(0.969697,0,0,0.969697,0,0)"/>
<path style="fill:none;stroke-width:0.101;stroke-linecap:round;stroke-linejoin:round;stroke:rgb(14.117648%,25.098041%,36.470589%);stroke-opacity:1;stroke-miterlimit:4;" d="M 26.534546 23.126587 L 29.773315 23.452881 M 27.557739 18.361084 L 29.773315 23.452881 M 26.542603 23.126587 L 28.069336 25.994751 M 26.542603 23.126587 L 25.962524 28.145874 " transform="matrix(0.969697,0,0,0.969697,0,0)"/>
<path style="fill:none;stroke-width:0.101;stroke-linecap:round;stroke-linejoin:round;stroke:rgb(14.117648%,25.098041%,36.470589%);stroke-opacity:1;stroke-miterlimit:4;" d="M 25.954468 28.145874 L 23.114502 26.727905 M 23.114502 26.727905 L 23.33606 29.898193 M 23.114502 26.727905 L 28.061279 25.998779 M 23.114502 26.727905 L 20.52832 31.094604 " transform="matrix(0.969697,0,0,0.969697,0,0)"/>
<path style="fill:none;stroke-width:0.101;stroke-linecap:round;stroke-linejoin:round;stroke:rgb(14.117648%,25.098041%,36.470589%);stroke-opacity:1;stroke-miterlimit:4;" d="M 18.46582 28.431885 L 20.52832 31.090576 M 18.46582 28.431885 L 23.340088 29.890137 M 18.46582 28.431885 L 17.511108 31.706909 M 18.46582 28.431885 L 14.38916 31.706909 " transform="matrix(0.969697,0,0,0.969697,0,0)"/>
<path style="fill:none;stroke-width:0.101;stroke-linecap:round;stroke-linejoin:round;stroke:rgb(14.117648%,25.098041%,36.470589%);stroke-opacity:1;stroke-miterlimit:4;" d="M 13.510986 28.431885 L 14.385132 31.706909 M 13.510986 28.431885 L 17.511108 31.706909 M 13.510986 28.431885 L 11.44043 31.090576 M 8.817993 26.727905 L 11.44043 31.094604 " transform="matrix(0.969697,0,0,0.969697,0,0)"/>
<path style="fill:none;stroke-width:0.101;stroke-linecap:round;stroke-linejoin:round;stroke:rgb(14.117648%,25.098041%,36.470589%);stroke-opacity:1;stroke-miterlimit:4;" d="M 13.510986 28.431885 L 8.564209 29.962646 M 8.817993 26.727905 L 8.564209 29.966675 M 8.817993 26.727905 L 5.982056 28.290894 M 5.430176 23.162842 L 5.978027 28.290894 " transform="matrix(0.969697,0,0,0.969697,0,0)"/>
<path style="fill:none;stroke-width:0.101;stroke-linecap:round;stroke-linejoin:round;stroke:rgb(14.117648%,25.098041%,36.470589%);stroke-opacity:1;stroke-miterlimit:4;" d="M 8.817993 26.727905 L 3.834961 26.039062 M 5.430176 23.162842 L 3.830933 26.031006 M 5.430176 23.162842 L 2.15918 23.489136 M 5.430176 23.162842 L 0.926514 20.653198 M 4.382812 18.324829 L 0.926514 20.653198 M 4.382812 18.324829 L 0.451172 17.631958 " transform="matrix(0.969697,0,0,0.969697,0,0)"/>
<path style="fill:none;stroke-width:0.101;stroke-linecap:round;stroke-linejoin:round;stroke:rgb(14.117648%,25.098041%,36.470589%);stroke-opacity:1;stroke-miterlimit:4;" d="M 4.382812 18.324829 L 2.167236 23.489136 M 4.419067 13.849365 L 0.451172 17.631958 " transform="matrix(0.969697,0,0,0.969697,0,0)"/>
<path style="fill:none;stroke-width:0.101;stroke-linecap:round;stroke-linejoin:round;stroke:rgb(14.117648%,25.098041%,36.470589%);stroke-opacity:1;stroke-miterlimit:4;" d="M 4.382812 18.324829 L 0.451172 14.614746 M 4.419067 13.849365 L 1.035278 11.593506 " transform="matrix(0.969697,0,0,0.969697,0,0)"/>
<path style="fill:none;stroke-width:0.101;stroke-linecap:round;stroke-linejoin:round;stroke:rgb(14.117648%,25.098041%,36.470589%);stroke-opacity:1;stroke-miterlimit:4;" d="M 4.419067 13.849365 L 0.451172 14.614746 M 4.419067 13.849365 L 2.163208 8.757568 " transform="matrix(0.969697,0,0,0.969697,0,0)"/>
<path style="fill:none;stroke-width:0.101;stroke-linecap:round;stroke-linejoin:round;stroke:rgb(14.117648%,25.098041%,36.470589%);stroke-opacity:1;stroke-miterlimit:4;" d="M 5.430176 9.011353 L 2.15918 8.757568 M 5.430176 9.011353 L 1.035278 11.593506 M 5.430176 9.011353 L 3.871216 6.320435 M 5.430176 9.011353 L 6.014282 4.10083 " transform="matrix(0.969697,0,0,0.969697,0,0)"/>
<path style="fill:none;stroke-width:0.101;stroke-linecap:round;stroke-linejoin:round;stroke:rgb(14.117648%,25.098041%,36.470589%);stroke-opacity:1;stroke-miterlimit:4;" d="M 8.817993 5.410034 L 3.871216 6.320435 " transform="matrix(0.969697,0,0,0.969697,0,0)"/>
<path style=" stroke:none;fill-rule:nonzero;fill:rgb(14.509805%,43.137255%,64.705884%);fill-opacity:1;" d="M 9.589844 17.488281 L 9.617188 13.777344 L 13.328125 13.804688 L 13.300781 17.511719 Z M 13.605469 13.402344 L 13.632812 9.691406 L 17.34375 9.71875 L 17.316406 13.425781 Z M 13.605469 21.535156 L 13.632812 17.828125 L 17.34375 17.855469 L 17.316406 21.5625 Z M 17.65625 17.453125 L 17.683594 13.742188 L 21.394531 13.769531 L 21.367188 17.476562 Z M 17.65625 17.453125 "/>
<path style=" stroke:none;fill-rule:nonzero;fill:rgb(20%,47.058824%,73.725492%);fill-opacity:1;" d="M 17.441406 9.148438 L 17.460938 6.570312 L 20.046875 6.589844 L 20.027344 9.164062 Z M 10.976562 9.144531 L 10.996094 6.570312 L 13.582031 6.589844 L 13.5625 9.164062 Z M 6.5 13.734375 L 6.519531 11.160156 L 9.105469 11.175781 L 9.085938 13.75 Z M 6.496094 20.203125 L 6.523438 17.628906 L 9.109375 17.65625 L 9.082031 20.230469 Z M 21.917969 20.152344 L 21.933594 17.578125 L 24.523438 17.597656 L 24.503906 20.171875 Z M 21.96875 13.75 L 21.996094 11.175781 L 24.582031 11.203125 L 24.554688 13.777344 Z M 21.96875 13.75 "/>
<path style=" stroke:none;fill-rule:nonzero;fill:rgb(8.627451%,60.784316%,83.92157%);fill-opacity:1;" d="M 4.40625 9.578125 L 4.417969 7.886719 L 6.105469 7.898438 L 6.09375 9.589844 Z M 7.707031 6.132812 L 7.71875 4.441406 L 9.410156 4.453125 L 9.398438 6.144531 Z M 12.257812 4.429688 L 12.269531 2.734375 L 13.957031 2.746094 L 13.945312 4.441406 Z M 3.410156 14.269531 L 3.421875 12.574219 L 5.101562 12.585938 L 5.089844 14.28125 Z M 24.878906 7.910156 L 26.570312 7.898438 L 26.582031 9.585938 L 24.890625 9.597656 Z M 21.574219 4.40625 L 23.265625 4.394531 L 23.277344 6.082031 L 21.585938 6.09375 Z M 17.011719 2.742188 L 18.703125 2.730469 L 18.714844 4.421875 L 17.023438 4.433594 Z M 25.863281 12.59375 L 27.554688 12.582031 L 27.566406 14.273438 L 25.875 14.285156 Z M 25.863281 12.59375 "/>
<path style=" stroke:none;fill-rule:nonzero;fill:rgb(20%,47.058824%,73.725492%);fill-opacity:1;" d="M 10.941406 24.59375 L 10.957031 22.019531 L 13.546875 22.039062 L 13.527344 24.613281 Z M 17.40625 24.59375 L 17.425781 22.019531 L 20.011719 22.039062 L 19.992188 24.613281 Z M 17.40625 24.59375 "/>
<path style=" stroke:none;fill-rule:nonzero;fill:rgb(8.627451%,60.784316%,83.92157%);fill-opacity:1;" d="M 24.867188 23.292969 L 24.878906 21.597656 L 26.566406 21.609375 L 26.554688 23.304688 Z M 21.597656 26.773438 L 21.609375 25.078125 L 23.300781 25.089844 L 23.289062 26.785156 Z M 17.050781 28.441406 L 17.0625 26.75 L 18.75 26.761719 L 18.738281 28.453125 Z M 25.859375 18.601562 L 25.871094 16.910156 L 27.5625 16.921875 L 27.550781 18.613281 Z M 4.40625 21.597656 L 6.101562 21.585938 L 6.113281 23.277344 L 4.417969 23.289062 Z M 7.710938 25.066406 L 9.40625 25.054688 L 9.417969 26.746094 L 7.722656 26.757812 Z M 12.238281 26.730469 L 13.933594 26.71875 L 13.945312 28.40625 L 12.25 28.417969 Z M 3.421875 16.914062 L 5.117188 16.902344 L 5.128906 18.59375 L 3.433594 18.605469 Z M 3.421875 16.914062 "/>
<path style=" stroke:none;fill-rule:nonzero;fill:rgb(0%,65.882355%,85.490197%);fill-opacity:1;" d="M 28.417969 8.945312 L 28.425781 8.027344 L 29.359375 8.035156 L 29.355469 8.953125 Z M 28.417969 8.945312 "/>
<path style=" stroke:none;fill-rule:nonzero;fill:rgb(0%,65.882355%,85.490197%);fill-opacity:1;" d="M 29.625 11.714844 L 29.632812 10.800781 L 30.566406 10.804688 L 30.5625 11.722656 Z M 29.625 11.714844 "/>
<path style=" stroke:none;fill-rule:nonzero;fill:rgb(0%,65.882355%,85.490197%);fill-opacity:1;" d="M 26.785156 6.496094 L 26.792969 5.578125 L 27.726562 5.582031 L 27.71875 6.5 Z M 26.785156 6.496094 "/>
<path style=" stroke:none;fill-rule:nonzero;fill:rgb(0%,65.882355%,85.490197%);fill-opacity:1;" d="M 5.363281 4.398438 L 5.371094 3.480469 L 6.304688 3.488281 L 6.300781 4.40625 Z M 5.363281 4.398438 "/>
<path style=" stroke:none;fill-rule:nonzero;fill:rgb(0%,65.882355%,85.490197%);fill-opacity:1;" d="M 0 14.628906 L 0.0078125 13.710938 L 0.941406 13.71875 L 0.933594 14.636719 Z M 0 14.628906 "/>
<path style=" stroke:none;fill-rule:nonzero;fill:rgb(0%,65.882355%,85.490197%);fill-opacity:1;" d="M 24.726562 4.398438 L 24.730469 3.480469 L 25.667969 3.488281 L 25.660156 4.40625 Z M 24.726562 4.398438 "/>
<path style=" stroke:none;fill-rule:nonzero;fill:rgb(0%,65.882355%,85.490197%);fill-opacity:1;" d="M 0.535156 11.714844 L 0.539062 10.796875 L 1.476562 10.804688 L 1.46875 11.722656 Z M 0.535156 11.714844 "/>
<path style=" stroke:none;fill-rule:nonzero;fill:rgb(0%,65.882355%,85.490197%);fill-opacity:1;" d="M 10.621094 1.558594 L 10.628906 0.640625 L 11.5625 0.644531 L 11.554688 1.5625 Z M 10.621094 1.558594 "/>
<path style=" stroke:none;fill-rule:nonzero;fill:rgb(0%,65.882355%,85.490197%);fill-opacity:1;" d="M 1.667969 8.945312 L 1.675781 8.027344 L 2.609375 8.035156 L 2.605469 8.953125 Z M 1.667969 8.945312 "/>
<path style=" stroke:none;fill-rule:nonzero;fill:rgb(0%,65.882355%,85.490197%);fill-opacity:1;" d="M 3.339844 6.460938 L 3.34375 5.542969 L 4.28125 5.546875 L 4.273438 6.464844 Z M 3.339844 6.460938 "/>
<path style=" stroke:none;fill-rule:nonzero;fill:rgb(0%,65.882355%,85.490197%);fill-opacity:1;" d="M 7.867188 1.820312 L 8.785156 1.8125 L 8.792969 2.75 L 7.875 2.753906 Z M 13.535156 0.015625 L 14.453125 0.0117188 L 14.457031 0.945312 L 13.539062 0.953125 Z M 13.535156 0.015625 "/>
<path style=" stroke:none;fill-rule:nonzero;fill:rgb(0%,65.882355%,85.490197%);fill-opacity:1;" d="M 22.238281 2.765625 L 22.242188 1.847656 L 23.179688 1.851562 L 23.171875 2.769531 Z M 22.238281 2.765625 "/>
<path style=" stroke:none;fill-rule:nonzero;fill:rgb(0%,65.882355%,85.490197%);fill-opacity:1;" d="M 30.089844 14.59375 L 30.09375 13.675781 L 31.03125 13.683594 L 31.023438 14.601562 Z M 30.089844 14.59375 "/>
<path style=" stroke:none;fill-rule:nonzero;fill:rgb(0%,65.882355%,85.490197%);fill-opacity:1;" d="M 16.519531 0.917969 L 16.523438 0 L 17.460938 0.0078125 L 17.453125 0.921875 Z M 16.519531 0.917969 "/>
<path style=" stroke:none;fill-rule:nonzero;fill:rgb(0%,65.882355%,85.490197%);fill-opacity:1;" d="M 19.433594 1.519531 L 19.4375 0.605469 L 20.371094 0.609375 L 20.367188 1.527344 Z M 19.433594 1.519531 "/>
<path style=" stroke:none;fill-rule:nonzero;fill:rgb(0%,65.882355%,85.490197%);fill-opacity:1;" d="M 24.722656 27.773438 L 24.730469 26.855469 L 25.664062 26.863281 L 25.660156 27.78125 Z M 24.722656 27.773438 "/>
<path style=" stroke:none;fill-rule:nonzero;fill:rgb(0%,65.882355%,85.490197%);fill-opacity:1;" d="M 30.089844 17.542969 L 30.09375 16.625 L 31.03125 16.632812 L 31.023438 17.546875 Z M 30.089844 17.542969 "/>
<path style=" stroke:none;fill-rule:nonzero;fill:rgb(0%,65.882355%,85.490197%);fill-opacity:1;" d="M 5.363281 27.773438 L 5.371094 26.855469 L 6.304688 26.863281 L 6.296875 27.777344 Z M 5.363281 27.773438 "/>
<path style=" stroke:none;fill-rule:nonzero;fill:rgb(0%,65.882355%,85.490197%);fill-opacity:1;" d="M 29.625 20.496094 L 29.632812 19.578125 L 30.566406 19.585938 L 30.5625 20.5 Z M 29.625 20.496094 "/>
<path style=" stroke:none;fill-rule:nonzero;fill:rgb(0%,65.882355%,85.490197%);fill-opacity:1;" d="M 19.429688 30.652344 L 19.4375 29.734375 L 20.371094 29.738281 L 20.367188 30.65625 Z M 19.429688 30.652344 "/>
<path style=" stroke:none;fill-rule:nonzero;fill:rgb(0%,65.882355%,85.490197%);fill-opacity:1;" d="M 28.417969 23.261719 L 28.425781 22.34375 L 29.359375 22.351562 L 29.355469 23.269531 Z M 28.417969 23.261719 "/>
<path style=" stroke:none;fill-rule:nonzero;fill:rgb(0%,65.882355%,85.490197%);fill-opacity:1;" d="M 26.785156 25.75 L 26.792969 24.832031 L 27.726562 24.835938 L 27.71875 25.753906 Z M 26.785156 25.75 "/>
<path style=" stroke:none;fill-rule:nonzero;fill:rgb(0%,65.882355%,85.490197%);fill-opacity:1;" d="M 22.199219 28.5625 L 23.117188 28.558594 L 23.125 29.492188 L 22.207031 29.5 Z M 16.566406 30.296875 L 17.484375 30.289062 L 17.492188 31.226562 L 16.574219 31.230469 Z M 16.566406 30.296875 "/>
<path style=" stroke:none;fill-rule:nonzero;fill:rgb(0%,65.882355%,85.490197%);fill-opacity:1;" d="M 7.886719 29.515625 L 7.890625 28.597656 L 8.828125 28.601562 L 8.820312 29.519531 Z M 7.886719 29.515625 "/>
<path style=" stroke:none;fill-rule:nonzero;fill:rgb(0%,65.882355%,85.490197%);fill-opacity:1;" d="M 1.632812 23.226562 L 1.640625 22.308594 L 2.574219 22.3125 L 2.570312 23.230469 Z M 1.632812 23.226562 "/>
<path style=" stroke:none;fill-rule:nonzero;fill:rgb(0%,65.882355%,85.490197%);fill-opacity:1;" d="M 0.53125 20.492188 L 0.539062 19.574219 L 1.472656 19.578125 L 1.46875 20.496094 Z M 0.53125 20.492188 "/>
<path style=" stroke:none;fill-rule:nonzero;fill:rgb(0%,65.882355%,85.490197%);fill-opacity:1;" d="M 3.300781 25.746094 L 3.308594 24.828125 L 4.242188 24.835938 L 4.238281 25.753906 Z M 3.300781 25.746094 "/>
<path style=" stroke:none;fill-rule:nonzero;fill:rgb(0%,65.882355%,85.490197%);fill-opacity:1;" d="M 0 17.542969 L 0.0078125 16.625 L 0.941406 16.628906 L 0.933594 17.546875 Z M 0 17.542969 "/>
<path style=" stroke:none;fill-rule:nonzero;fill:rgb(0%,65.882355%,85.490197%);fill-opacity:1;" d="M 13.570312 31.21875 L 13.574219 30.300781 L 14.511719 30.308594 L 14.503906 31.226562 Z M 13.570312 31.21875 "/>
<path style=" stroke:none;fill-rule:nonzero;fill:rgb(0%,65.882355%,85.490197%);fill-opacity:1;" d="M 10.585938 30.613281 L 10.59375 29.695312 L 11.527344 29.703125 L 11.519531 30.621094 Z M 10.585938 30.613281 "/>
</g>
</svg>
