<svg role="img" viewBox="0 0 31.801 32" xmlns="http://www.w3.org/2000/svg" xmlns:xlink="http://www.w3.org/1999/xlink"><defs><clipPath id="a"><path d="M8 24h8v7H8Zm0 0"/></clipPath><clipPath id="b"><path d="m15.34 26.941-6.074-2.68-.34 3.825 6.68 2.121Zm0 0"/></clipPath><clipPath id="d"><path d="M9 8h7v13H9Zm0 0"/></clipPath><clipPath id="e"><path d="M10.453 12.152h3.41v2.91h-.808v-1.238a.899.899 0 0 0-.899-.898.898.898 0 0 0-.894.898v1.239h-.809Zm-.68 6.371 5.059 2.23-.348-4.269h.664v-1.422h-.492v-2.91h.492v-.836l-2.73-2.671v-.188a.258.258 0 0 0-.258-.258.255.255 0 0 0-.258.258v.188l-2.73 2.671v.836h.492v2.91h-.492v1.426h.781Zm0 0"/></clipPath><clipPath id="g"><path d="M9 20h7v5H9Zm0 0"/></clipPath><clipPath id="h"><path d="m9.477 21.875 5.652 2.492-.086-1.039-5.484-2.414Zm0 0"/></clipPath><clipPath id="j"><path d="M9 22h7v5H9Zm0 0"/></clipPath><clipPath id="k"><path d="m9.328 23.55 5.945 2.622-.082-1.035-5.78-2.547Zm0 0"/></clipPath><clipPath id="m"><path d="M9 19h6v4H9Zm0 0"/></clipPath><clipPath id="n"><path d="m9.707 19.238-.082.961 5.355 2.363-.085-1.039Zm0 0"/></clipPath><clipPath id="p"><path d="M15 3h13v11H15Zm0 0"/></clipPath><clipPath id="q"><path d="M27.613 6.152a15.423 15.423 0 0 0-2.633-2.488c-.136-.105-.28-.203-.421-.3l-2 2.074-7.286 7.578L25.31 7.82l2.57-1.324c-.09-.117-.176-.234-.266-.344m0 0"/></clipPath><clipPath id="s"><path d="M15 14h17v6H15Zm0 0"/></clipPath><clipPath id="t"><path d="M31.191 15.887c0-.176-.011-.352-.02-.524l-2.847-.203-13.05-.937 12.8 4.441 2.692.934c.007-.032.02-.063.027-.094.266-1.145.402-2.317.402-3.492v-.121Zm0 0"/></clipPath><clipPath id="v"><path d="M15 9h16v5H15Zm0 0"/></clipPath><clipPath id="w"><path d="M30.773 12.438a15.127 15.127 0 0 0-1.226-3.336l-2.735.878-11.34 3.641 12.563-.426 2.88-.097c-.048-.223-.09-.442-.142-.66m0 0"/></clipPath><linearGradient gradientTransform="matrix(2.69247 0 0 -2.69247 -703.978 2591.402)" gradientUnits="userSpaceOnUse" id="c" x1="264.79" x2="267.27" y1="952.39" y2="952.39"><stop offset="0" style="stop-color:rgb(37.64706%,72.549021%,19.607843%);stop-opacity:1"/><stop offset=".28" style="stop-color:rgb(37.64706%,72.549021%,19.607843%);stop-opacity:1"/><stop offset="1" style="stop-color:rgb(21.176471%,48.627451%,20.392157%);stop-opacity:1"/></linearGradient><linearGradient gradientTransform="matrix(2.40756 0 0 -2.40756 -625.993 2315.665)" gradientUnits="userSpaceOnUse" id="f" x1="263.77" x2="266.26" y1="955.65" y2="955.65"><stop offset="0" style="stop-color:rgb(37.64706%,72.549021%,19.607843%);stop-opacity:1"/><stop offset=".28" style="stop-color:rgb(37.64706%,72.549021%,19.607843%);stop-opacity:1"/><stop offset="1" style="stop-color:rgb(21.176471%,48.627451%,20.392157%);stop-opacity:1"/></linearGradient><linearGradient gradientTransform="matrix(2.27838 0 0 -2.27838 -590.36 2195.58)" gradientUnits="userSpaceOnUse" id="i" x1="263.28" x2="265.76" y1="953.74" y2="953.74"><stop offset="0" style="stop-color:rgb(37.64706%,72.549021%,19.607843%);stop-opacity:1"/><stop offset=".28" style="stop-color:rgb(37.64706%,72.549021%,19.607843%);stop-opacity:1"/><stop offset="1" style="stop-color:rgb(21.176471%,48.627451%,20.392157%);stop-opacity:1"/></linearGradient><linearGradient gradientTransform="matrix(2.39783 0 0 -2.39783 -623.078 2309.744)" gradientUnits="userSpaceOnUse" id="l" x1="263.77" x2="266.25" y1="953.2" y2="953.2"><stop offset="0" style="stop-color:rgb(37.64706%,72.549021%,19.607843%);stop-opacity:1"/><stop offset=".28" style="stop-color:rgb(37.64706%,72.549021%,19.607843%);stop-opacity:1"/><stop offset="1" style="stop-color:rgb(21.176471%,48.627451%,20.392157%);stop-opacity:1"/></linearGradient><linearGradient gradientTransform="matrix(2.15893 0 0 -2.15893 -557.643 2081.418)" gradientUnits="userSpaceOnUse" id="o" x1="262.73" x2="265.21" y1="954.34" y2="954.34"><stop offset="0" style="stop-color:rgb(37.64706%,72.549021%,19.607843%);stop-opacity:1"/><stop offset=".28" style="stop-color:rgb(37.64706%,72.549021%,19.607843%);stop-opacity:1"/><stop offset="1" style="stop-color:rgb(21.176471%,48.627451%,20.392157%);stop-opacity:1"/></linearGradient><linearGradient gradientTransform="scale(5.8477 -5.8477)rotate(36.52 1588.19 68.11)" gradientUnits="userSpaceOnUse" id="r" x1="272.14" x2="274.62" y1="955.15" y2="955.15"><stop offset="0" style="stop-color:rgb(27.058825%,58.823532%,84.705883%);stop-opacity:1"/><stop offset=".2" style="stop-color:rgb(27.058825%,58.823532%,84.705883%);stop-opacity:1"/><stop offset="1" style="stop-color:rgb(100%,100%,100%);stop-opacity:1"/></linearGradient><linearGradient gradientTransform="scale(6.88381 -6.88381)rotate(-11.54 -4587.339 1803.377)" gradientUnits="userSpaceOnUse" id="u" x1="270.65" x2="273.13" y1="952.38" y2="952.38"><stop offset="0" style="stop-color:rgb(25.490198%,58.039218%,84.313726%);stop-opacity:1"/><stop offset=".2" style="stop-color:rgb(25.490198%,58.039218%,84.313726%);stop-opacity:1"/><stop offset="1" style="stop-color:rgb(100%,100%,100%);stop-opacity:1"/></linearGradient><linearGradient gradientTransform="scale(6.31311 -6.31311)rotate(10.23 5477.514 -1024.698)" gradientUnits="userSpaceOnUse" id="x" x1="270.97" x2="273.45" y1="953.75" y2="953.75"><stop offset="0" style="stop-color:rgb(25.490198%,58.039218%,84.313726%);stop-opacity:1"/><stop offset=".33" style="stop-color:rgb(26.666668%,58.823532%,84.705883%);stop-opacity:1"/><stop offset="1" style="stop-color:rgb(100%,100%,100%);stop-opacity:1"/></linearGradient></defs><path d="M2.64 16.012c0-7.278 5.895-13.176 13.173-13.176 7.273 0 13.171 5.898 13.171 13.172 0 7.277-5.898 13.172-13.172 13.172-7.273 0-13.171-5.895-13.171-13.168" style="stroke:none;fill-rule:nonzero;fill:rgb(100%,100%,100%);fill-opacity:1"/><g clip-path="url(#a)"><g clip-path="url(#b)"><path d="m15.34 26.941-6.074-2.68-.34 3.825 6.68 2.125z" style="stroke:none;fill-rule:nonzero;fill:url(#c)"/></g></g><g clip-path="url(#d)"><g clip-path="url(#e)"><path d="M10.453 12.152h3.41v2.91h-.808v-1.238a.899.899 0 0 0-.899-.898.898.898 0 0 0-.894.898v1.239h-.809Zm-.68 6.371 5.059 2.23-.348-4.269h.664v-1.422h-.492v-2.91h.492v-.836l-2.73-2.671v-.188a.258.258 0 0 0-.258-.258.255.255 0 0 0-.258.258v.188l-2.73 2.671v.836h.492v2.91h-.492v1.426h.781z" style="stroke:none;fill-rule:nonzero;fill:url(#f)"/></g></g><g clip-path="url(#g)"><g clip-path="url(#h)"><path d="m9.473 21.875 5.652 2.492-.086-1.039-5.488-2.414-.086.961" style="stroke:none;fill-rule:nonzero;fill:url(#i)"/></g></g><g clip-path="url(#j)"><g clip-path="url(#k)"><path d="m9.328 23.55 5.945 2.622-.085-1.035-5.782-2.547-.086.96" style="stroke:none;fill-rule:nonzero;fill:url(#l)"/></g></g><g clip-path="url(#m)"><g clip-path="url(#n)"><path d="m9.707 19.238-.086.961 5.36 2.36-.09-1.04-5.188-2.285" style="stroke:none;fill-rule:nonzero;fill:url(#o)"/></g></g><path d="m26.813 9.98 2.734-.878c-.008-.02-.016-.04-.027-.059a15.334 15.334 0 0 0-1.641-2.55L25.305 7.82c.566.649 1.062 1.36 1.48 2.11.012.015.016.03.027.047m1.512 5.183 2.848.203a15.253 15.253 0 0 0-.266-2.265l-2.875.097c.149.649.246 1.305.29 1.965M16.012 28.559c-6.922 0-12.551-5.63-12.551-12.551C3.46 9.09 9.094 3.46 16.01 3.46a12.465 12.465 0 0 1 6.75 1.977l1.997-2.079A15.295 15.295 0 0 0 16.012.625C7.532.625.629 7.527.629 16.012c0 8.484 6.902 15.383 15.383 15.383 7.246 0 13.332-5.043 14.953-11.797l-2.688-.934c-1.222 5.648-6.257 9.895-12.265 9.895" style="stroke:none;fill-rule:nonzero;fill:rgb(0%,0%,0%);fill-opacity:1"/><g clip-path="url(#p)"><g clip-path="url(#q)"><path d="M27.613 6.152a15.423 15.423 0 0 0-2.633-2.488c-.136-.105-.28-.203-.421-.3l-2 2.074-7.286 7.578L25.31 7.82l2.57-1.324c-.09-.113-.176-.23-.266-.34" style="stroke:none;fill-rule:nonzero;fill:url(#r)"/></g></g><g clip-path="url(#s)"><g clip-path="url(#t)"><path d="M31.191 15.887c0-.176-.011-.352-.02-.524l-2.847-.203-13.05-.937 12.8 4.441 2.692.934c.007-.032.02-.063.027-.094.266-1.145.402-2.317.402-3.492v-.121" style="stroke:none;fill-rule:nonzero;fill:url(#u)"/></g></g><g clip-path="url(#v)"><g clip-path="url(#w)"><path d="M30.773 12.438a15.127 15.127 0 0 0-1.226-3.336l-2.735.878-11.34 3.641 12.563-.426 2.88-.097a17.33 17.33 0 0 0-.142-.664" style="stroke:none;fill-rule:nonzero;fill:url(#x)"/></g></g></svg>