<?xml version="1.0" encoding="UTF-8"?>
<svg xmlns="http://www.w3.org/2000/svg" xmlns:xlink="http://www.w3.org/1999/xlink" width="31.801001" height="32" viewBox="0 0 31.801001 32" version="1.1">
<defs>
<clipPath id="clip1">
  <path d="M 8 24 L 16 24 L 16 31 L 8 31 Z M 8 24 "/>
</clipPath>
<clipPath id="clip2">
  <path d="M 15.339844 26.941406 L 9.265625 24.261719 L 8.925781 28.085938 L 15.605469 30.207031 Z M 15.339844 26.941406 "/>
</clipPath>
<linearGradient id="linear0" gradientUnits="userSpaceOnUse" x1="264.790009" y1="952.390015" x2="267.269989" y2="952.390015" gradientTransform="matrix(2.69247,0,0,-2.69247,-703.978027,2591.4021)">
<stop offset="0" style="stop-color:rgb(37.64706%,72.549021%,19.607843%);stop-opacity:1;"/>
<stop offset="0.28" style="stop-color:rgb(37.64706%,72.549021%,19.607843%);stop-opacity:1;"/>
<stop offset="1" style="stop-color:rgb(21.176471%,48.627451%,20.392157%);stop-opacity:1;"/>
</linearGradient>
<clipPath id="clip3">
  <path d="M 9 8 L 16 8 L 16 21 L 9 21 Z M 9 8 "/>
</clipPath>
<clipPath id="clip4">
  <path d="M 10.453125 12.152344 L 13.863281 12.152344 L 13.863281 15.0625 L 13.054688 15.0625 L 13.054688 13.824219 C 13.054688 13.328125 12.652344 12.925781 12.15625 12.925781 C 11.660156 12.929688 11.261719 13.328125 11.261719 13.824219 L 11.261719 15.0625 L 10.453125 15.0625 Z M 9.773438 18.523438 L 14.832031 20.753906 L 14.484375 16.484375 L 15.148438 16.484375 L 15.148438 15.0625 L 14.65625 15.0625 L 14.65625 12.152344 L 15.148438 12.152344 L 15.148438 11.316406 L 12.417969 8.644531 L 12.417969 8.457031 C 12.417969 8.316406 12.300781 8.199219 12.160156 8.199219 C 12.089844 8.199219 12.023438 8.226562 11.976562 8.273438 C 11.929688 8.320312 11.902344 8.386719 11.902344 8.457031 L 11.902344 8.644531 L 9.171875 11.316406 L 9.171875 12.152344 L 9.664062 12.152344 L 9.664062 15.0625 L 9.171875 15.0625 L 9.171875 16.488281 L 9.953125 16.488281 Z M 9.773438 18.523438 "/>
</clipPath>
<linearGradient id="linear1" gradientUnits="userSpaceOnUse" x1="263.769989" y1="955.650024" x2="266.26001" y2="955.650024" gradientTransform="matrix(2.40756,0,0,-2.40756,-625.992981,2315.665039)">
<stop offset="0" style="stop-color:rgb(37.64706%,72.549021%,19.607843%);stop-opacity:1;"/>
<stop offset="0.28" style="stop-color:rgb(37.64706%,72.549021%,19.607843%);stop-opacity:1;"/>
<stop offset="1" style="stop-color:rgb(21.176471%,48.627451%,20.392157%);stop-opacity:1;"/>
</linearGradient>
<clipPath id="clip5">
  <path d="M 9 20 L 16 20 L 16 25 L 9 25 Z M 9 20 "/>
</clipPath>
<clipPath id="clip6">
  <path d="M 9.476562 21.875 L 15.128906 24.367188 L 15.042969 23.328125 L 9.558594 20.914062 Z M 9.476562 21.875 "/>
</clipPath>
<linearGradient id="linear2" gradientUnits="userSpaceOnUse" x1="263.279999" y1="953.73999" x2="265.76001" y2="953.73999" gradientTransform="matrix(2.27838,0,0,-2.27838,-590.359985,2195.580078)">
<stop offset="0" style="stop-color:rgb(37.64706%,72.549021%,19.607843%);stop-opacity:1;"/>
<stop offset="0.28" style="stop-color:rgb(37.64706%,72.549021%,19.607843%);stop-opacity:1;"/>
<stop offset="1" style="stop-color:rgb(21.176471%,48.627451%,20.392157%);stop-opacity:1;"/>
</linearGradient>
<clipPath id="clip7">
  <path d="M 9 22 L 16 22 L 16 27 L 9 27 Z M 9 22 "/>
</clipPath>
<clipPath id="clip8">
  <path d="M 9.328125 23.550781 L 15.273438 26.171875 L 15.191406 25.136719 L 9.410156 22.589844 Z M 9.328125 23.550781 "/>
</clipPath>
<linearGradient id="linear3" gradientUnits="userSpaceOnUse" x1="263.769989" y1="953.200012" x2="266.25" y2="953.200012" gradientTransform="matrix(2.39783,0,0,-2.39783,-623.078003,2309.743896)">
<stop offset="0" style="stop-color:rgb(37.64706%,72.549021%,19.607843%);stop-opacity:1;"/>
<stop offset="0.28" style="stop-color:rgb(37.64706%,72.549021%,19.607843%);stop-opacity:1;"/>
<stop offset="1" style="stop-color:rgb(21.176471%,48.627451%,20.392157%);stop-opacity:1;"/>
</linearGradient>
<clipPath id="clip9">
  <path d="M 9 19 L 15 19 L 15 23 L 9 23 Z M 9 19 "/>
</clipPath>
<clipPath id="clip10">
  <path d="M 9.707031 19.238281 L 9.625 20.199219 L 14.980469 22.5625 L 14.894531 21.523438 Z M 9.707031 19.238281 "/>
</clipPath>
<linearGradient id="linear4" gradientUnits="userSpaceOnUse" x1="262.730011" y1="954.340027" x2="265.209991" y2="954.340027" gradientTransform="matrix(2.15893,0,0,-2.15893,-557.643005,2081.417969)">
<stop offset="0" style="stop-color:rgb(37.64706%,72.549021%,19.607843%);stop-opacity:1;"/>
<stop offset="0.28" style="stop-color:rgb(37.64706%,72.549021%,19.607843%);stop-opacity:1;"/>
<stop offset="1" style="stop-color:rgb(21.176471%,48.627451%,20.392157%);stop-opacity:1;"/>
</linearGradient>
<clipPath id="clip11">
  <path d="M 15 3 L 28 3 L 28 14 L 15 14 Z M 15 3 "/>
</clipPath>
<clipPath id="clip12">
  <path d="M 27.613281 6.152344 C 26.835938 5.222656 25.953125 4.386719 24.980469 3.664062 C 24.84375 3.558594 24.699219 3.460938 24.558594 3.363281 L 22.558594 5.4375 L 15.273438 13.015625 L 25.308594 7.820312 L 27.878906 6.496094 C 27.789062 6.378906 27.703125 6.261719 27.613281 6.152344 M 27.613281 6.152344 "/>
</clipPath>
<linearGradient id="linear5" gradientUnits="userSpaceOnUse" x1="272.140015" y1="955.150024" x2="274.619995" y2="955.150024" gradientTransform="matrix(4.699499,-3.479986,-3.479986,-4.699499,2060.58272,5448.674753)">
<stop offset="0" style="stop-color:rgb(27.058825%,58.823532%,84.705883%);stop-opacity:1;"/>
<stop offset="0.2" style="stop-color:rgb(27.058825%,58.823532%,84.705883%);stop-opacity:1;"/>
<stop offset="1" style="stop-color:rgb(100%,100%,100%);stop-opacity:1;"/>
</linearGradient>
<clipPath id="clip13">
  <path d="M 15 14 L 32 14 L 32 20 L 15 20 Z M 15 14 "/>
</clipPath>
<clipPath id="clip14">
  <path d="M 31.191406 15.886719 C 31.191406 15.710938 31.179688 15.535156 31.171875 15.363281 L 28.324219 15.160156 L 15.273438 14.222656 L 28.074219 18.664062 L 30.765625 19.597656 C 30.773438 19.566406 30.785156 19.535156 30.792969 19.503906 C 31.058594 18.359375 31.195312 17.1875 31.195312 16.011719 L 31.195312 15.890625 Z M 31.191406 15.886719 "/>
</clipPath>
<linearGradient id="linear6" gradientUnits="userSpaceOnUse" x1="270.649994" y1="952.380005" x2="273.130005" y2="952.380005" gradientTransform="matrix(6.744656,1.37712,1.37712,-6.744656,-3121.814297,6066.368367)">
<stop offset="0" style="stop-color:rgb(25.490198%,58.039218%,84.313726%);stop-opacity:1;"/>
<stop offset="0.2" style="stop-color:rgb(25.490198%,58.039218%,84.313726%);stop-opacity:1;"/>
<stop offset="1" style="stop-color:rgb(100%,100%,100%);stop-opacity:1;"/>
</linearGradient>
<clipPath id="clip15">
  <path d="M 15 9 L 31 9 L 31 14 L 15 14 Z M 15 9 "/>
</clipPath>
<clipPath id="clip16">
  <path d="M 30.773438 12.4375 C 30.496094 11.28125 30.085938 10.160156 29.546875 9.101562 L 26.8125 9.980469 L 15.472656 13.621094 L 28.035156 13.195312 L 30.914062 13.097656 C 30.867188 12.875 30.824219 12.65625 30.773438 12.4375 M 30.773438 12.4375 "/>
</clipPath>
<linearGradient id="linear7" gradientUnits="userSpaceOnUse" x1="270.970001" y1="953.75" x2="273.450012" y2="953.75" gradientTransform="matrix(6.212749,-1.121209,-1.121209,-6.212749,-599.170959,6244.275297)">
<stop offset="0" style="stop-color:rgb(25.490198%,58.039218%,84.313726%);stop-opacity:1;"/>
<stop offset="0.33" style="stop-color:rgb(26.666668%,58.823532%,84.705883%);stop-opacity:1;"/>
<stop offset="1" style="stop-color:rgb(100%,100%,100%);stop-opacity:1;"/>
</linearGradient>
</defs>
<g id="surface1">
<path style=" stroke:none;fill-rule:nonzero;fill:rgb(100%,100%,100%);fill-opacity:1;" d="M 2.640625 16.011719 C 2.640625 8.734375 8.535156 2.835938 15.8125 2.835938 C 23.085938 2.835938 28.984375 8.734375 28.984375 16.007812 C 28.984375 23.285156 23.085938 29.179688 15.8125 29.179688 C 8.539062 29.179688 2.640625 23.285156 2.640625 16.011719 "/>
<g clip-path="url(#clip1)" clip-rule="nonzero">
<g clip-path="url(#clip2)" clip-rule="nonzero">
<path style=" stroke:none;fill-rule:nonzero;fill:url(#linear0);" d="M 15.339844 26.941406 L 9.265625 24.261719 L 8.925781 28.085938 L 15.605469 30.210938 Z M 15.339844 26.941406 "/>
</g>
</g>
<g clip-path="url(#clip3)" clip-rule="nonzero">
<g clip-path="url(#clip4)" clip-rule="nonzero">
<path style=" stroke:none;fill-rule:nonzero;fill:url(#linear1);" d="M 10.453125 12.152344 L 13.863281 12.152344 L 13.863281 15.0625 L 13.054688 15.0625 L 13.054688 13.824219 C 13.054688 13.328125 12.652344 12.925781 12.15625 12.925781 C 11.660156 12.929688 11.261719 13.328125 11.261719 13.824219 L 11.261719 15.0625 L 10.453125 15.0625 Z M 9.773438 18.523438 L 14.832031 20.753906 L 14.484375 16.484375 L 15.148438 16.484375 L 15.148438 15.0625 L 14.65625 15.0625 L 14.65625 12.152344 L 15.148438 12.152344 L 15.148438 11.316406 L 12.417969 8.644531 L 12.417969 8.457031 C 12.417969 8.316406 12.300781 8.199219 12.160156 8.199219 C 12.089844 8.199219 12.023438 8.226562 11.976562 8.273438 C 11.929688 8.320312 11.902344 8.386719 11.902344 8.457031 L 11.902344 8.644531 L 9.171875 11.316406 L 9.171875 12.152344 L 9.664062 12.152344 L 9.664062 15.0625 L 9.171875 15.0625 L 9.171875 16.488281 L 9.953125 16.488281 Z M 9.773438 18.523438 "/>
</g>
</g>
<g clip-path="url(#clip5)" clip-rule="nonzero">
<g clip-path="url(#clip6)" clip-rule="nonzero">
<path style=" stroke:none;fill-rule:nonzero;fill:url(#linear2);" d="M 9.472656 21.875 L 15.125 24.367188 L 15.039062 23.328125 L 9.550781 20.914062 L 9.464844 21.875 "/>
</g>
</g>
<g clip-path="url(#clip7)" clip-rule="nonzero">
<g clip-path="url(#clip8)" clip-rule="nonzero">
<path style=" stroke:none;fill-rule:nonzero;fill:url(#linear3);" d="M 9.328125 23.550781 L 15.273438 26.171875 L 15.1875 25.136719 L 9.40625 22.589844 L 9.320312 23.550781 "/>
</g>
</g>
<g clip-path="url(#clip9)" clip-rule="nonzero">
<g clip-path="url(#clip10)" clip-rule="nonzero">
<path style=" stroke:none;fill-rule:nonzero;fill:url(#linear4);" d="M 9.707031 19.238281 L 9.621094 20.199219 L 14.980469 22.558594 L 14.890625 21.519531 L 9.703125 19.234375 "/>
</g>
</g>
<path style=" stroke:none;fill-rule:nonzero;fill:rgb(0%,0%,0%);fill-opacity:1;" d="M 26.8125 9.980469 L 29.546875 9.101562 C 29.539062 9.082031 29.53125 9.0625 29.519531 9.042969 C 29.058594 8.140625 28.507812 7.285156 27.878906 6.492188 L 25.304688 7.820312 C 25.871094 8.46875 26.367188 9.179688 26.785156 9.929688 C 26.796875 9.945312 26.800781 9.960938 26.8125 9.976562 M 28.324219 15.160156 L 31.171875 15.363281 C 31.140625 14.601562 31.050781 13.84375 30.90625 13.097656 L 28.03125 13.195312 C 28.179688 13.84375 28.277344 14.5 28.320312 15.160156 M 16.011719 28.558594 C 9.089844 28.558594 3.460938 22.929688 3.460938 16.007812 C 3.460938 9.089844 9.09375 3.460938 16.011719 3.460938 C 18.402344 3.457031 20.746094 4.144531 22.761719 5.4375 L 24.757812 3.359375 C 22.191406 1.574219 19.136719 0.621094 16.011719 0.625 C 7.53125 0.625 0.628906 7.527344 0.628906 16.011719 C 0.628906 24.496094 7.53125 31.394531 16.011719 31.394531 C 23.257812 31.394531 29.34375 26.351562 30.964844 19.597656 L 28.277344 18.664062 C 27.054688 24.3125 22.019531 28.558594 16.011719 28.558594 "/>
<g clip-path="url(#clip11)" clip-rule="nonzero">
<g clip-path="url(#clip12)" clip-rule="nonzero">
<path style=" stroke:none;fill-rule:nonzero;fill:url(#linear5);" d="M 27.613281 6.152344 C 26.835938 5.222656 25.953125 4.386719 24.980469 3.664062 C 24.84375 3.558594 24.699219 3.460938 24.558594 3.363281 L 22.558594 5.4375 L 15.273438 13.015625 L 25.308594 7.820312 L 27.878906 6.496094 C 27.789062 6.382812 27.703125 6.265625 27.613281 6.15625 "/>
</g>
</g>
<g clip-path="url(#clip13)" clip-rule="nonzero">
<g clip-path="url(#clip14)" clip-rule="nonzero">
<path style=" stroke:none;fill-rule:nonzero;fill:url(#linear6);" d="M 31.191406 15.886719 C 31.191406 15.710938 31.179688 15.535156 31.171875 15.363281 L 28.324219 15.160156 L 15.273438 14.222656 L 28.074219 18.664062 L 30.765625 19.597656 C 30.773438 19.566406 30.785156 19.535156 30.792969 19.503906 C 31.058594 18.359375 31.195312 17.1875 31.195312 16.011719 L 31.195312 15.890625 "/>
</g>
</g>
<g clip-path="url(#clip15)" clip-rule="nonzero">
<g clip-path="url(#clip16)" clip-rule="nonzero">
<path style=" stroke:none;fill-rule:nonzero;fill:url(#linear7);" d="M 30.773438 12.4375 C 30.496094 11.28125 30.085938 10.160156 29.546875 9.101562 L 26.8125 9.980469 L 15.472656 13.621094 L 28.035156 13.195312 L 30.914062 13.097656 C 30.871094 12.875 30.824219 12.65625 30.773438 12.433594 "/>
</g>
</g>
</g>
</svg>
