<?xml version="1.0" encoding="UTF-8"?>
<svg xmlns="http://www.w3.org/2000/svg" xmlns:xlink="http://www.w3.org/1999/xlink" width="30.365" height="32" viewBox="0 0 30.365 32" version="1.1">
<g id="surface1">
<path style=" stroke:none;fill-rule:nonzero;fill:rgb(17.647059%,49.019608%,89.411765%);fill-opacity:1;" d="M 26.90625 0 L 16.242188 0 L 16.242188 14.128906 L 30.359375 14.128906 L 30.359375 3.449219 C 30.359375 1.542969 28.8125 -0.00390625 26.90625 0 "/>
<path style=" stroke:none;fill-rule:nonzero;fill:rgb(1.568628%,10.196079%,23.137255%);fill-opacity:1;" d="M 26.90625 17.871094 L 19.71875 17.871094 C 18.804688 17.871094 17.925781 18.234375 17.28125 18.882812 C 16.632812 19.527344 16.269531 20.40625 16.269531 21.320312 L 16.269531 31.992188 L 30.359375 31.992188 L 30.359375 21.347656 C 30.359375 19.441406 28.8125 17.894531 26.90625 17.898438 M 12.101562 32 L 3.53125 32 C 1.582031 32 0 30.417969 0 28.46875 L 0 3.53125 C 0 1.582031 1.582031 0 3.53125 0 L 12.101562 0 Z M 12.101562 32 "/>
</g>
</svg>
