<?xml version="1.0" encoding="UTF-8"?>
<svg xmlns="http://www.w3.org/2000/svg" xmlns:xlink="http://www.w3.org/1999/xlink" width="32" height="32" viewBox="0 0 32 32" version="1.1">
<g id="surface1">
<path style=" stroke:none;fill-rule:nonzero;fill:rgb(25.098041%,25.098041%,25.490198%);fill-opacity:1;" d="M 29.886719 5.183594 C 26.6875 1.984375 21.535156 1.984375 18.335938 5.183594 L 16.894531 6.625 L 15.457031 5.183594 C 12.257812 1.984375 7.105469 1.984375 3.902344 5.183594 C 2.335938 6.71875 1.601562 8.382812 1.601562 10.207031 C 1.601562 11.519531 1.953125 12.894531 2.625 14.398438 C 3.96875 13.601562 5.503906 13.121094 7.167969 13.121094 C 12.03125 13.121094 15.96875 17.089844 15.96875 21.953125 C 15.96875 24.097656 15.199219 26.046875 13.953125 27.585938 C 15.230469 28.574219 16.289062 29.183594 16.832031 29.183594 C 18.625 29.183594 27.359375 20.0625 29.824219 16.734375 C 32.320312 13.441406 33.054688 8.382812 29.886719 5.183594 Z M 29.886719 5.183594 "/>
<path style=" stroke:none;fill-rule:nonzero;fill:rgb(25.098041%,25.098041%,25.490198%);fill-opacity:1;" d="M 7.199219 14.753906 C 5.792969 14.753906 4.480469 15.167969 3.359375 15.871094 C 1.34375 17.152344 0 19.390625 0 21.984375 C 0 25.984375 3.230469 29.214844 7.199219 29.214844 C 9.441406 29.214844 11.425781 28.191406 12.734375 26.59375 C 13.761719 25.34375 14.398438 23.710938 14.398438 21.953125 C 14.433594 17.984375 11.199219 14.753906 7.199219 14.753906 Z M 11.390625 23.488281 L 8.671875 23.488281 L 8.671875 26.207031 L 5.695312 26.207031 L 5.695312 23.488281 L 3.007812 23.488281 L 3.007812 20.480469 L 5.695312 20.480469 L 5.695312 17.792969 L 8.671875 17.792969 L 8.671875 20.480469 L 11.359375 20.480469 L 11.359375 23.488281 Z M 11.390625 23.488281 "/>
</g>
</svg>
