<?xml version="1.0" encoding="UTF-8"?>
<svg xmlns="http://www.w3.org/2000/svg" xmlns:xlink="http://www.w3.org/1999/xlink" width="32" height="32" viewBox="0 0 32 32" version="1.1">
<g id="surface1">
<path style=" stroke:none;fill-rule:nonzero;fill:rgb(5.882353%,8.627451%,53.725493%);fill-opacity:1;" d="M 8.738281 7.753906 C 8.699219 7.714844 8.660156 7.679688 8.621094 7.644531 C 7.816406 6.867188 7.191406 5.96875 6.8125 4.910156 C 6.707031 4.613281 6.625 4.308594 6.640625 3.992188 C 6.640625 3.960938 6.640625 3.929688 6.644531 3.898438 C 6.671875 3.488281 6.949219 3.277344 7.351562 3.375 C 7.480469 3.410156 7.601562 3.457031 7.71875 3.515625 C 8.160156 3.738281 8.519531 4.066406 8.851562 4.421875 C 9.4375 5.046875 9.90625 5.773438 10.238281 6.5625 C 10.246094 6.582031 10.253906 6.601562 10.265625 6.617188 C 10.277344 6.628906 10.289062 6.644531 10.300781 6.652344 C 11.875 5.707031 13.652344 5.160156 15.484375 5.058594 C 15.476562 5.011719 15.46875 4.964844 15.457031 4.917969 C 15.269531 4.144531 15.214844 3.347656 15.289062 2.554688 C 15.320312 2.078125 15.414062 1.609375 15.570312 1.160156 C 15.648438 0.925781 15.765625 0.703125 15.921875 0.511719 C 15.980469 0.441406 16.050781 0.378906 16.125 0.328125 C 16.28125 0.21875 16.484375 0.21875 16.640625 0.328125 C 16.800781 0.433594 16.929688 0.582031 17.011719 0.757812 C 17.171875 1.050781 17.285156 1.367188 17.347656 1.695312 C 17.5 2.390625 17.542969 3.101562 17.484375 3.808594 C 17.457031 4.238281 17.382812 4.667969 17.261719 5.082031 C 17.71875 5.167969 18.171875 5.230469 18.617188 5.335938 C 19.507812 5.542969 20.371094 5.855469 21.1875 6.269531 C 21.59375 6.472656 21.980469 6.714844 22.386719 6.945312 C 22.398438 6.917969 22.417969 6.882812 22.433594 6.847656 C 22.855469 5.679688 23.582031 4.648438 24.539062 3.855469 C 24.761719 3.664062 25.015625 3.515625 25.292969 3.414062 C 25.371094 3.386719 25.449219 3.371094 25.53125 3.359375 C 25.929688 3.316406 26.097656 3.566406 26.128906 3.867188 C 26.152344 4.089844 26.132812 4.316406 26.078125 4.53125 C 25.933594 5.089844 25.699219 5.625 25.390625 6.113281 C 24.957031 6.8125 24.441406 7.445312 23.785156 7.957031 C 23.761719 7.976562 23.738281 7.996094 23.71875 8.019531 C 24.359375 8.613281 24.929688 9.273438 25.417969 9.996094 C 25.382812 10.003906 25.347656 10.011719 25.3125 10.015625 C 24.632812 10.015625 23.953125 10.015625 23.277344 10.019531 C 23.195312 10.015625 23.121094 9.976562 23.074219 9.910156 C 21.59375 8.292969 19.597656 7.242188 17.429688 6.929688 C 16.789062 6.835938 16.140625 6.8125 15.492188 6.855469 C 13.5625 6.972656 11.71875 7.683594 10.210938 8.890625 C 9.820312 9.199219 9.457031 9.539062 9.125 9.90625 C 9.0625 9.980469 8.972656 10.023438 8.875 10.019531 C 8.230469 10.015625 7.582031 10.015625 6.933594 10.015625 L 6.796875 10.015625 C 6.835938 9.863281 7.234375 9.316406 7.683594 8.828125 C 8.019531 8.464844 8.375 8.121094 8.738281 7.753906 M 25.25 22.265625 C 24.800781 22.898438 24.285156 23.480469 23.714844 24.003906 L 23.835938 24.105469 C 24.824219 24.914062 25.570312 25.980469 25.992188 27.183594 C 26.101562 27.480469 26.152344 27.792969 26.132812 28.109375 C 26.125 28.1875 26.109375 28.269531 26.082031 28.34375 C 26.015625 28.570312 25.792969 28.707031 25.5625 28.667969 C 25.410156 28.648438 25.265625 28.605469 25.128906 28.539062 C 24.921875 28.433594 24.722656 28.308594 24.539062 28.164062 C 23.578125 27.375 22.851562 26.34375 22.433594 25.175781 C 22.421875 25.144531 22.40625 25.109375 22.386719 25.054688 C 21.875 25.394531 21.339844 25.695312 20.785156 25.953125 C 19.671875 26.460938 18.484375 26.785156 17.265625 26.917969 L 17.292969 27.058594 C 17.488281 27.820312 17.554688 28.609375 17.484375 29.390625 C 17.460938 29.882812 17.367188 30.363281 17.203125 30.828125 C 17.125 31.019531 17.035156 31.207031 16.933594 31.386719 C 16.894531 31.457031 16.84375 31.523438 16.785156 31.578125 C 16.53125 31.839844 16.226562 31.84375 15.976562 31.574219 C 15.878906 31.464844 15.796875 31.34375 15.726562 31.214844 C 15.53125 30.84375 15.429688 30.441406 15.359375 30.03125 C 15.265625 29.472656 15.234375 28.90625 15.269531 28.339844 C 15.289062 27.925781 15.351562 27.511719 15.457031 27.113281 L 15.480469 27.007812 C 15.476562 26.992188 15.472656 26.976562 15.46875 26.960938 C 13.636719 26.859375 11.855469 26.308594 10.285156 25.363281 C 10.261719 25.417969 10.238281 25.46875 10.214844 25.519531 C 9.773438 26.546875 9.097656 27.453125 8.238281 28.167969 C 8.011719 28.363281 7.75 28.515625 7.46875 28.613281 C 7.335938 28.667969 7.191406 28.683594 7.050781 28.660156 C 6.890625 28.632812 6.761719 28.523438 6.703125 28.371094 C 6.613281 28.152344 6.628906 27.925781 6.660156 27.699219 C 6.710938 27.382812 6.804688 27.078125 6.9375 26.785156 C 7.328125 25.871094 7.90625 25.050781 8.632812 24.371094 C 8.664062 24.34375 8.691406 24.316406 8.722656 24.285156 L 8.746094 24.246094 C 8.0625 23.652344 7.449219 22.980469 6.921875 22.242188 C 6.984375 22.234375 7.027344 22.230469 7.070312 22.230469 C 7.742188 22.226562 8.414062 22.230469 9.089844 22.226562 C 9.179688 22.222656 9.265625 22.261719 9.324219 22.332031 C 10.058594 23.082031 10.910156 23.707031 11.847656 24.179688 C 12.839844 24.691406 13.917969 25.011719 15.027344 25.125 C 18.042969 25.417969 20.636719 24.503906 22.8125 22.382812 C 22.910156 22.273438 23.050781 22.21875 23.195312 22.226562 C 23.820312 22.234375 24.449219 22.226562 25.078125 22.226562 L 25.238281 22.226562 Z M 22.445312 12.65625 C 22.625 12.65625 22.796875 12.667969 22.964844 12.652344 C 23.15625 12.636719 23.296875 12.703125 23.433594 12.832031 C 24.242188 13.578125 25.058594 14.3125 25.871094 15.050781 L 26.007812 15.167969 C 26.054688 15.128906 26.101562 15.089844 26.144531 15.050781 C 26.980469 14.289062 27.820312 13.523438 28.65625 12.757812 C 28.726562 12.6875 28.824219 12.648438 28.925781 12.65625 C 29.132812 12.664062 29.339844 12.65625 29.554688 12.65625 L 29.554688 19.398438 C 29.445312 19.433594 27.964844 19.4375 27.785156 19.402344 L 27.785156 15.988281 L 27.753906 15.972656 C 27.175781 16.5 26.597656 17.023438 26.007812 17.5625 C 25.417969 17.03125 24.835938 16.503906 24.25 15.980469 L 24.21875 15.992188 C 24.214844 16.277344 24.21875 16.5625 24.21875 16.847656 L 24.21875 19.417969 L 22.460938 19.417969 C 22.429688 19.304688 22.414062 13.039062 22.445312 12.65625 M 6.25 12.664062 L 7.992188 12.664062 C 8.027344 12.777344 8.035156 19.253906 8 19.417969 L 6.253906 19.417969 C 6.242188 18.988281 6.25 18.5625 6.25 18.132812 C 6.246094 17.710938 6.25 17.285156 6.25 16.851562 L 4.085938 16.851562 L 4.085938 19.394531 C 3.953125 19.433594 2.464844 19.4375 2.316406 19.402344 L 2.316406 12.664062 L 4.078125 12.664062 L 4.078125 15.046875 C 4.207031 15.082031 6.058594 15.089844 6.246094 15.054688 C 6.246094 14.863281 6.25 14.667969 6.25 14.472656 Z M 10.085938 19.414062 L 10.085938 12.683594 C 10.1875 12.652344 14.023438 12.636719 14.273438 12.671875 L 14.273438 14.105469 C 14.21875 14.109375 14.160156 14.117188 14.101562 14.117188 L 11.863281 14.117188 L 11.863281 15.234375 L 13.996094 15.234375 L 13.996094 16.71875 L 11.882812 16.71875 C 11.847656 16.84375 11.835938 17.730469 11.867188 17.976562 C 11.917969 17.980469 11.976562 17.988281 12.035156 17.988281 L 14.273438 17.988281 L 14.273438 19.414062 Z M 16.273438 19.417969 C 16.242188 19.238281 16.25 12.789062 16.28125 12.664062 L 18.019531 12.664062 L 18.019531 17.640625 C 18.09375 17.644531 18.152344 17.652344 18.210938 17.652344 L 20.460938 17.652344 L 20.460938 19.417969 Z M 16.273438 19.417969 "/>
</g>
</svg>
