<svg role="img" viewBox="0 0 100 100" xmlns="http://www.w3.org/2000/svg"><path d="M50 30.234c5.36 0 10.562.719 15.5 2.047l-5.828 5.828c-2.64-2.156-6-3.437-9.672-3.437a15.271 15.271 0 0 0-10.844 4.5A15.23 15.23 0 0 0 34.672 50c0 3.656 1.28 7.03 3.437 9.671l-7 7.016A59.368 59.368 0 0 1 5.843 49.999C16.687 37.874 32.453 30.233 50 30.233zm18.891 3.078A59.368 59.368 0 0 1 94.157 50C83.313 62.125 67.548 69.766 50.001 69.766c-5.36 0-10.562-.719-15.5-2.047l5.828-5.828c2.64 2.156 6 3.438 9.672 3.438a15.27 15.27 0 0 0 10.844-4.5A15.23 15.23 0 0 0 65.329 50a15.24 15.24 0 0 0-3.437-9.672zm-11.438 7.016A12.123 12.123 0 0 0 50 37.796c-3.375 0-6.438 1.36-8.625 3.563a12.134 12.134 0 0 0-3.578 8.64c0 2.813.953 5.407 2.531 7.454zM42.547 59.672A12.123 12.123 0 0 0 50 62.202c3.375 0 6.438-1.358 8.625-3.562A12.134 12.134 0 0 0 62.203 50c0-2.813-.937-5.406-2.531-7.453z" fill-rule="evenodd"/></svg>