<?xml version="1.0" encoding="UTF-8"?>
<svg xmlns="http://www.w3.org/2000/svg" xmlns:xlink="http://www.w3.org/1999/xlink" width="32" height="32" viewBox="0 0 32 32" version="1.1">
<g id="surface1">
<path style=" stroke:none;fill-rule:evenodd;fill:rgb(0%,0%,0%);fill-opacity:1;" d="M 16 9.675781 C 17.714844 9.675781 19.378906 9.90625 20.960938 10.328125 L 19.09375 12.195312 C 18.25 11.503906 17.175781 11.09375 16 11.09375 C 14.699219 11.09375 13.449219 11.613281 12.53125 12.535156 C 11.609375 13.453125 11.09375 14.699219 11.09375 16 C 11.09375 17.167969 11.503906 18.25 12.195312 19.09375 L 9.953125 21.339844 C 6.84375 20.289062 4.058594 18.449219 1.871094 16 C 5.339844 12.121094 10.386719 9.675781 16 9.675781 Z M 22.046875 10.660156 C 25.15625 11.710938 27.941406 13.550781 30.128906 16 C 26.660156 19.878906 21.617188 22.324219 16 22.324219 C 14.285156 22.324219 12.621094 22.09375 11.039062 21.671875 L 12.90625 19.804688 C 13.75 20.496094 14.824219 20.90625 16 20.90625 C 17.300781 20.90625 18.550781 20.386719 19.46875 19.464844 C 20.390625 18.546875 20.910156 17.300781 20.90625 16 C 20.90625 14.871094 20.519531 13.777344 19.804688 12.90625 Z M 18.386719 12.90625 C 17.703125 12.378906 16.863281 12.09375 16 12.09375 C 14.921875 12.09375 13.941406 12.53125 13.238281 13.234375 C 12.503906 13.964844 12.09375 14.960938 12.09375 16 C 12.09375 16.898438 12.398438 17.730469 12.90625 18.386719 Z M 13.613281 19.09375 C 14.296875 19.621094 15.136719 19.90625 16 19.90625 C 17.078125 19.90625 18.058594 19.46875 18.761719 18.765625 C 19.496094 18.03125 19.90625 17.039062 19.90625 16 C 19.90625 15.101562 19.605469 14.269531 19.09375 13.613281 Z M 13.613281 19.09375 "/>
</g>
</svg>
