<?xml version="1.0" encoding="UTF-8"?>
<svg xmlns="http://www.w3.org/2000/svg" xmlns:xlink="http://www.w3.org/1999/xlink" width="32" height="32" viewBox="0 0 32 32" version="1.1">
<g id="surface1">
<path style=" stroke:none;fill-rule:nonzero;fill:rgb(0%,0%,0%);fill-opacity:1;" d="M 6.273438 28.800781 L 4.480469 28.800781 C 3.710938 28.800781 3.199219 29.3125 3.199219 30.078125 C 3.199219 30.847656 3.710938 31.359375 4.480469 31.359375 L 27.390625 31.359375 C 28.160156 31.359375 28.671875 30.847656 28.671875 30.078125 C 28.671875 29.3125 28.160156 28.800781 27.390625 28.800781 L 25.601562 28.800781 C 24.960938 22.398438 20.480469 17.921875 18.046875 16 C 20.480469 14.078125 24.960938 9.601562 25.601562 3.199219 L 27.390625 3.199219 C 28.03125 3.199219 28.671875 2.6875 28.671875 1.921875 C 28.671875 1.28125 28.03125 0.640625 27.390625 0.640625 L 4.351562 0.640625 C 3.710938 0.640625 3.070312 1.28125 3.070312 1.921875 C 3.070312 2.6875 3.710938 3.199219 4.351562 3.199219 L 6.144531 3.199219 C 6.785156 9.601562 11.265625 14.078125 13.695312 16 C 11.390625 17.921875 6.910156 22.398438 6.273438 28.800781 M 10.238281 7.808594 C 9.601562 6.398438 9.089844 4.863281 8.832031 3.199219 L 23.167969 3.199219 C 22.910156 4.863281 22.398438 6.398438 21.761719 7.808594 Z M 15.488281 18.046875 L 16 17.664062 L 16.511719 18.046875 C 17.535156 18.816406 19.070312 20.222656 20.351562 22.144531 L 11.519531 22.144531 C 12.929688 20.222656 14.464844 18.816406 15.488281 18.046875 "/>
</g>
</svg>
