<svg xmlns="http://www.w3.org/2000/svg"  viewBox="0 0 25 25" width="28px" height="28px"><path d="M4.9,22.5H3.5c-0.6,0-1,0.4-1,1s0.4,1,1,1c5.9,0,14.8,0,17.9,0c0.6,0,1-0.4,1-1s-0.4-1-1-1h-1.4c-0.5-5-4-8.5-5.9-10 c1.9-1.5,5.4-5,5.9-10h1.4c0.5,0,1-0.4,1-1c0-0.5-0.5-1-1-1c-4.5,0-13.4,0-18,0c-0.5,0-1,0.5-1,1c0,0.6,0.5,1,1,1h1.4 c0.5,5,4,8.5,5.9,10C8.9,14,5.4,17.5,4.9,22.5z M8,6.1C7.5,5,7.1,3.8,6.9,2.5h11.2C17.9,3.8,17.5,5,17,6.1H8z M12.1,14.1l0.4-0.3 l0.4,0.3c0.8,0.6,2,1.7,3,3.2H9C10.1,15.8,11.3,14.7,12.1,14.1z"/></svg>
