<svg xmlns="http://www.w3.org/2000/svg" width="33" height="36" stroke="none" stroke-linecap="round" stroke-linejoin="round" fill="#fff" fill-rule="evenodd"><path d="M32 0H0l2.6667 30.6667 13.3333 4 13.3333-4L32 0" fill="#e44d26"/><path d="M11.9285 26.7785l-4.381-1.3143-.3571-4.1072-.118-1.3571h4.2667l.2322 2.6714 4.4286 1.3286v4zm4.0716-17.4453h-5.5884l.3478 4h5.2406v4h-4.8928-4.2666l-.3479-4-.3478-4-.3478-4h4.2667 5.9362z" fill="#ebebeb"/><path d="M27.5942 20l.2319-2.6666.3478-4 .3479-4 .3477-4 .2319-2.6667H16v29.3334l8.0953-2.4286 2.738-.8214.3572-4.1072.3571-4.1071z" fill="#f16529"/><path d="M16 9.3332h5.5884 4.2667l.3478-4h-4.2667H16zm4.8927 8.0001H16v-4h5.2406 4.2667l-.3479 4L24.9275 20l-.118 1.3571-.3571 4.1071-4.381 1.3143L16 28v-4l4.4286-1.3286L20.6609 20z"/></svg>