<?xml version="1.0" encoding="UTF-8"?>
<svg xmlns="http://www.w3.org/2000/svg" xmlns:xlink="http://www.w3.org/1999/xlink" width="29.333" height="32" viewBox="0 0 29.333 32" version="1.1">
<g id="surface1">
<path style=" stroke:none;fill-rule:evenodd;fill:rgb(89.411765%,30.19608%,14.901961%);fill-opacity:1;" d="M 28.445312 0 L 0 0 L 2.371094 27.257812 L 14.222656 30.816406 L 26.074219 27.257812 Z M 28.445312 0 "/>
<path style=" stroke:none;fill-rule:evenodd;fill:rgb(92.156863%,92.156863%,92.156863%);fill-opacity:1;" d="M 10.601562 23.804688 L 6.707031 22.636719 L 6.390625 18.984375 L 6.285156 17.777344 L 10.078125 17.777344 L 10.285156 20.152344 L 14.222656 21.332031 L 14.222656 24.890625 Z M 14.222656 8.296875 L 9.253906 8.296875 L 9.5625 11.851562 L 14.222656 11.851562 L 14.222656 15.40625 L 6.082031 15.40625 L 5.769531 11.851562 L 5.152344 4.742188 L 14.222656 4.742188 Z M 14.222656 8.296875 "/>
<path style=" stroke:none;fill-rule:evenodd;fill:rgb(94.509804%,39.607844%,16.078432%);fill-opacity:1;" d="M 24.527344 17.777344 L 24.734375 15.40625 L 25.660156 4.742188 L 25.867188 2.371094 L 14.222656 2.371094 L 14.222656 28.445312 L 21.417969 26.285156 L 23.851562 25.554688 L 24.167969 21.90625 L 24.488281 18.253906 Z M 24.527344 17.777344 "/>
<path style=" stroke:none;fill-rule:evenodd;fill:rgb(100%,100%,100%);fill-opacity:1;" d="M 14.222656 8.296875 L 22.980469 8.296875 L 23.292969 4.742188 L 14.222656 4.742188 Z M 18.570312 15.40625 L 14.222656 15.40625 L 14.222656 11.851562 L 22.671875 11.851562 L 22.363281 15.40625 L 22.15625 17.777344 L 22.054688 18.984375 L 21.734375 22.636719 L 17.839844 23.804688 L 14.222656 24.890625 L 14.222656 21.332031 L 18.160156 20.152344 L 18.367188 17.777344 Z M 18.570312 15.40625 "/>
</g>
</svg>
