<svg role="img" viewBox="0 0 29.333 32" xmlns="http://www.w3.org/2000/svg"><path d="M28.445 0H0l2.371 27.258 11.852 3.558 11.851-3.558z" style="stroke:none;fill-rule:evenodd;fill:rgb(89.411765%,30.19608%,14.901961%);fill-opacity:1"/><path d="m10.602 23.805-3.895-1.168-.316-3.653-.106-1.207h3.793l.207 2.375 3.938 1.18v3.559Zm3.62-15.508H9.255l.309 3.555h4.66v3.554H6.082l-.312-3.554-.618-7.11h9.07Zm0 0" style="stroke:none;fill-rule:evenodd;fill:rgb(92.156863%,92.156863%,92.156863%);fill-opacity:1"/><path d="m24.527 17.777.207-2.37.926-10.665.207-2.37H14.223v26.073l7.195-2.16 2.434-.73.316-3.649.32-3.652Zm0 0" style="stroke:none;fill-rule:evenodd;fill:rgb(94.509804%,39.607844%,16.078432%);fill-opacity:1"/><path d="M14.223 8.297h8.757l.313-3.555h-9.07Zm4.347 7.11h-4.347v-3.555h8.449l-.309 3.554-.207 2.371-.101 1.207-.32 3.653-3.895 1.168-3.617 1.086v-3.559l3.937-1.18.207-2.375Zm0 0" style="stroke:none;fill-rule:evenodd;fill:rgb(100%,100%,100%);fill-opacity:1"/></svg>