<svg role="img" viewBox="0 0 32 32" xmlns="http://www.w3.org/2000/svg"><path d="M16 2.668c-4.922 0-9.219 2.687-11.527 6.664h3.254c1.199-1.48 2.765-2.656 4.59-3.328-.419.969-.755 2.101-1.008 3.328h2.742c.636-2.633 1.531-4 1.949-4 .418 0 1.313 1.367 1.95 4h2.741c-.253-1.227-.59-2.36-1.007-3.328 1.82.672 3.39 1.848 4.59 3.328h3.253C25.22 5.355 20.922 2.668 16 2.668M1.332 12l1.656 8h1.746l1.133-4.629L6.997 20h1.737l1.657-8H8.387l-.719 4.488L6.605 12H5.121l-1.07 4.496L3.344 12Zm10.14 0 1.657 8h1.742l1.133-4.629L17.137 20h1.734l1.656-8h-2l-.718 4.488L16.746 12h-1.488l-1.067 4.496-.71-4.496Zm10.137 0 1.657 8h1.746l1.133-4.629L27.273 20h1.739l1.656-8H28.66l-.715 4.488L26.88 12h-1.484l-1.067 4.496L23.621 12ZM4.473 22.668C6.78 26.645 11.078 29.332 16 29.332c4.922 0 9.219-2.687 11.527-6.664h-3.254c-1.199 1.48-2.765 2.656-4.59 3.328.419-.969.75-2.101 1.008-3.328H17.95c-.64 2.633-1.535 4-1.953 4-.414 0-1.309-1.367-1.945-4H11.31c.254 1.227.59 2.36 1.007 3.328-1.82-.672-3.39-1.848-4.59-3.328Zm0 0" style="stroke:none;fill-rule:nonzero;fill:rgb(20.392157%,59.607846%,85.882354%);fill-opacity:1"/></svg>