<svg role="img" viewBox="0 0 32 32" xmlns="http://www.w3.org/2000/svg"><path d="M16 2.05A13.946 13.946 0 0 0 3.938 9.024h2.777a11.759 11.759 0 0 1 4.707-3.707 15.757 15.757 0 0 0-1.508 3.707h2.45C13.28 6.168 14.69 4.38 16 4.38c1.313 0 2.715 1.789 3.637 4.644h2.449a15.592 15.592 0 0 0-1.508-3.707 11.744 11.744 0 0 1 4.711 3.707h2.777A13.966 13.966 0 0 0 16 2.051M3.938 22.98a13.928 13.928 0 0 0 24.129 0h-2.778a11.702 11.702 0 0 1-4.71 3.704 15.498 15.498 0 0 0 1.507-3.704h-2.45c-.917 2.856-2.32 4.645-3.636 4.645-1.316 0-2.719-1.79-3.633-4.648H9.914a15.623 15.623 0 0 0 1.508 3.707 11.692 11.692 0 0 1-4.707-3.707ZM2.273 11.145h1.86v2.91h.02c.296-.578 1.05-.942 1.726-.942 1.894 0 2.047 1.38 2.047 2.2v3.64h-1.86v-3.312c0-.547-.187-.996-.93-.996-.699 0-1.003.605-1.003 1.207v3.101h-1.86Zm10.309 3.343h-1.148v2.575c0 .445.265.542.668.542.164 0 .316-.02.48-.02v1.368c-.34 0-.676.055-1.016.055-1.586 0-1.988-.473-1.988-2.012v-2.508h-.941v-1.207h.941v-1.719h1.856v1.72h1.148Zm4.254 0h-1.14v2.575c0 .445.261.542.667.542.164 0 .317-.02.48-.02v1.368c-.335 0-.675.055-1.003.055-1.586 0-1.992-.473-1.992-2.012v-2.508h-.957v-1.207h.937v-1.719h1.867v1.72h1.149Zm.832-1.207h1.77v.656h.023c.34-.527.934-.84 1.562-.82 1.786 0 2.54 1.52 2.54 3.13 0 1.476-.79 2.874-2.395 2.874a1.914 1.914 0 0 1-1.61-.777h-.038v2.515h-1.852Zm1.793 2.778c0 .996.285 1.64 1.125 1.64.844 0 1.117-.863 1.117-1.64 0-.723-.273-1.52-1.105-1.52-.493-.004-1.137.336-1.137 1.516ZM26 17.082a.754.754 0 0 0 .305.629c.203.137.445.207.691.2.348 0 .871-.165.871-.602 0-.442-.59-.516-.906-.606-1.168-.297-2.633-.328-2.633-1.86 0-1.355 1.473-1.738 2.59-1.738 1.234 0 2.559.364 2.617 1.836h-1.719a.51.51 0 0 0-.246-.48 1.014 1.014 0 0 0-.59-.145c-.308 0-.804.032-.804.426 0 .528 1.246.645 2.097.82 1.137.231 1.446 1.06 1.446 1.532 0 1.52-1.446 2.011-2.723 2.011-1.36 0-2.723-.449-2.777-2.03Zm0 0" style="stroke:none;fill-rule:nonzero;fill:rgb(20.392157%,59.607846%,85.882354%);fill-opacity:1"/></svg>