<?xml version="1.0" encoding="UTF-8"?>
<svg xmlns="http://www.w3.org/2000/svg" xmlns:xlink="http://www.w3.org/1999/xlink" width="32" height="32" viewBox="0 0 32 32" version="1.1">
<g id="surface1">
<path style=" stroke:none;fill-rule:nonzero;fill:rgb(20.392157%,59.607846%,85.882354%);fill-opacity:1;" d="M 16 2.050781 C 11.023438 2.054688 6.425781 4.714844 3.9375 9.023438 L 6.714844 9.023438 C 7.9375 7.402344 9.558594 6.125 11.421875 5.316406 C 10.765625 6.484375 10.257812 7.730469 9.914062 9.023438 L 12.363281 9.023438 C 13.28125 6.167969 14.691406 4.378906 16 4.378906 C 17.3125 4.378906 18.714844 6.167969 19.636719 9.023438 L 22.085938 9.023438 C 21.746094 7.730469 21.238281 6.484375 20.578125 5.316406 C 22.441406 6.125 24.066406 7.402344 25.289062 9.023438 L 28.066406 9.023438 C 25.574219 4.714844 20.976562 2.058594 16 2.050781 M 3.9375 22.980469 C 6.425781 27.292969 11.023438 29.949219 16.003906 29.949219 C 20.980469 29.949219 25.578125 27.292969 28.066406 22.980469 L 25.289062 22.980469 C 24.066406 24.601562 22.445312 25.878906 20.578125 26.683594 C 21.238281 25.519531 21.746094 24.273438 22.085938 22.980469 L 19.636719 22.980469 C 18.71875 25.835938 17.316406 27.625 16 27.625 C 14.683594 27.625 13.28125 25.835938 12.367188 22.976562 L 9.914062 22.976562 C 10.253906 24.273438 10.761719 25.519531 11.421875 26.683594 C 9.558594 25.878906 7.933594 24.601562 6.714844 22.976562 Z M 2.273438 11.144531 L 4.132812 11.144531 L 4.132812 14.054688 L 4.152344 14.054688 C 4.449219 13.476562 5.203125 13.113281 5.878906 13.113281 C 7.773438 13.113281 7.925781 14.492188 7.925781 15.3125 L 7.925781 18.953125 L 6.066406 18.953125 L 6.066406 15.640625 C 6.066406 15.09375 5.878906 14.644531 5.136719 14.644531 C 4.4375 14.644531 4.132812 15.25 4.132812 15.851562 L 4.132812 18.953125 L 2.273438 18.953125 Z M 12.582031 14.488281 L 11.433594 14.488281 L 11.433594 17.0625 C 11.433594 17.507812 11.699219 17.605469 12.101562 17.605469 C 12.265625 17.605469 12.417969 17.585938 12.582031 17.585938 L 12.582031 18.953125 C 12.242188 18.953125 11.90625 19.007812 11.566406 19.007812 C 9.980469 19.007812 9.578125 18.535156 9.578125 16.996094 L 9.578125 14.488281 L 8.636719 14.488281 L 8.636719 13.28125 L 9.578125 13.28125 L 9.578125 11.5625 L 11.433594 11.5625 L 11.433594 13.28125 L 12.582031 13.28125 Z M 16.835938 14.488281 L 15.695312 14.488281 L 15.695312 17.0625 C 15.695312 17.507812 15.957031 17.605469 16.363281 17.605469 C 16.527344 17.605469 16.679688 17.585938 16.84375 17.585938 L 16.84375 18.953125 C 16.507812 18.953125 16.167969 19.007812 15.839844 19.007812 C 14.253906 19.007812 13.847656 18.535156 13.847656 16.996094 L 13.847656 14.488281 L 12.890625 14.488281 L 12.890625 13.28125 L 13.828125 13.28125 L 13.828125 11.5625 L 15.695312 11.5625 L 15.695312 13.28125 L 16.84375 13.28125 Z M 17.667969 13.28125 L 19.4375 13.28125 L 19.4375 13.9375 L 19.460938 13.9375 C 19.800781 13.410156 20.394531 13.097656 21.023438 13.117188 C 22.808594 13.117188 23.5625 14.636719 23.5625 16.246094 C 23.5625 17.722656 22.773438 19.121094 21.167969 19.121094 C 20.535156 19.144531 19.933594 18.851562 19.558594 18.34375 L 19.519531 18.34375 L 19.519531 20.859375 L 17.667969 20.859375 Z M 19.460938 16.058594 C 19.460938 17.054688 19.746094 17.699219 20.585938 17.699219 C 21.429688 17.699219 21.703125 16.835938 21.703125 16.058594 C 21.703125 15.335938 21.429688 14.539062 20.597656 14.539062 C 20.105469 14.535156 19.460938 14.875 19.460938 16.054688 Z M 26 17.082031 C 25.992188 17.328125 26.105469 17.5625 26.304688 17.710938 C 26.507812 17.847656 26.75 17.917969 26.996094 17.910156 C 27.34375 17.910156 27.867188 17.746094 27.867188 17.308594 C 27.867188 16.867188 27.277344 16.792969 26.960938 16.703125 C 25.792969 16.40625 24.328125 16.375 24.328125 14.84375 C 24.328125 13.488281 25.800781 13.105469 26.917969 13.105469 C 28.152344 13.105469 29.476562 13.46875 29.535156 14.941406 L 27.816406 14.941406 C 27.832031 14.746094 27.738281 14.5625 27.570312 14.460938 C 27.394531 14.351562 27.1875 14.304688 26.980469 14.316406 C 26.671875 14.316406 26.175781 14.347656 26.175781 14.742188 C 26.175781 15.269531 27.421875 15.386719 28.273438 15.5625 C 29.410156 15.792969 29.71875 16.621094 29.71875 17.09375 C 29.71875 18.613281 28.273438 19.105469 26.996094 19.105469 C 25.636719 19.105469 24.273438 18.65625 24.21875 17.074219 Z M 26 17.082031 "/>
</g>
</svg>
