<?xml version="1.0" encoding="UTF-8"?>
<svg xmlns="http://www.w3.org/2000/svg" xmlns:xlink="http://www.w3.org/1999/xlink" width="32" height="32" viewBox="0 0 32 32" version="1.1">
<g id="surface1">
<path style=" stroke:none;fill-rule:nonzero;fill:rgb(20.392157%,59.607846%,85.882354%);fill-opacity:1;" d="M 16 2.667969 C 11.078125 2.667969 6.78125 5.355469 4.472656 9.332031 L 7.726562 9.332031 C 8.925781 7.851562 10.492188 6.675781 12.316406 6.003906 C 11.898438 6.972656 11.5625 8.105469 11.308594 9.332031 L 14.050781 9.332031 C 14.6875 6.699219 15.582031 5.332031 16 5.332031 C 16.417969 5.332031 17.3125 6.699219 17.949219 9.332031 L 20.691406 9.332031 C 20.4375 8.105469 20.101562 6.972656 19.683594 6.003906 C 21.503906 6.675781 23.074219 7.851562 24.273438 9.332031 L 27.527344 9.332031 C 25.21875 5.355469 20.921875 2.667969 16 2.667969 M 1.332031 12 L 2.988281 20 L 4.734375 20 L 5.867188 15.371094 L 6.996094 20 L 8.734375 20 L 10.390625 12 L 8.386719 12 L 7.667969 16.488281 L 6.605469 12 L 5.121094 12 L 4.050781 16.496094 L 3.34375 12 Z M 11.472656 12 L 13.128906 20 L 14.871094 20 L 16.003906 15.371094 L 17.136719 20 L 18.871094 20 L 20.527344 12 L 18.527344 12 L 17.808594 16.488281 L 16.746094 12 L 15.257812 12 L 14.191406 16.496094 L 13.480469 12 Z M 21.609375 12 L 23.265625 20 L 25.011719 20 L 26.144531 15.371094 L 27.273438 20 L 29.011719 20 L 30.667969 12 L 28.660156 12 L 27.945312 16.488281 L 26.878906 12 L 25.394531 12 L 24.328125 16.496094 L 23.621094 12 Z M 4.472656 22.667969 C 6.78125 26.644531 11.078125 29.332031 16 29.332031 C 20.921875 29.332031 25.21875 26.644531 27.527344 22.667969 L 24.273438 22.667969 C 23.074219 24.148438 21.507812 25.324219 19.683594 25.996094 C 20.101562 25.027344 20.433594 23.894531 20.691406 22.667969 L 17.949219 22.667969 C 17.308594 25.300781 16.414062 26.667969 15.996094 26.667969 C 15.582031 26.667969 14.6875 25.300781 14.050781 22.667969 L 11.308594 22.667969 C 11.5625 23.894531 11.898438 25.027344 12.316406 25.996094 C 10.496094 25.324219 8.925781 24.148438 7.726562 22.667969 Z M 4.472656 22.667969 "/>
</g>
</svg>
