<?xml version="1.0" encoding="UTF-8"?>
<svg xmlns="http://www.w3.org/2000/svg" xmlns:xlink="http://www.w3.org/1999/xlink" width="36.923077" height="32" viewBox="0 0 36.923077 32" version="1.1">
<g id="surface1">
<path style="fill-rule:nonzero;fill:rgb(0%,0%,0%);fill-opacity:1;stroke-width:13.333333;stroke-linecap:butt;stroke-linejoin:miter;stroke:rgb(100%,100%,100%);stroke-opacity:1;stroke-miterlimit:4;" d="M 0 -0.000000000000042633 L 599.980469 -0.000000000000042633 L 599.980469 520 L 0 520 Z M 16.123047 260.825195 C 63.857422 342.963867 111.274414 425.419922 159.008789 507.558594 C 179.321289 507.495117 199.697266 507.177734 220.009766 507.050781 C 294.404297 507.050781 368.544922 506.860352 442.939453 506.606445 C 444.208984 506.669922 444.780273 505.336914 445.478516 504.448242 C 492.832031 423.261719 540.375977 341.884766 587.856445 260.761719 C 553.833008 202.236328 519.619141 143.837891 485.595703 85.375977 C 471.630859 61.635742 457.919922 37.641602 443.828125 13.964844 C 352.548828 14.02832 261.269531 13.964844 169.990234 14.02832 C 166.689453 14.02832 163.325195 13.774414 160.024414 14.091797 C 158.310547 15.488281 157.294922 18.217773 156.088867 20.058594 C 109.49707 100.292969 62.77832 180.59082 16.123047 260.825195 Z M 16.123047 260.825195 " transform="matrix(0.0615385,0,0,0.0615385,0,0.000000000000002624)"/>
<path style="fill-rule:nonzero;fill:rgb(0%,0%,0%);fill-opacity:1;stroke-width:13.333333;stroke-linecap:butt;stroke-linejoin:miter;stroke:rgb(63.529414%,70.980394%,83.529413%);stroke-opacity:1;stroke-miterlimit:4;" d="M 160.024414 14.091797 C 163.325195 13.774414 166.689453 14.02832 169.990234 14.02832 C 261.269531 13.964844 352.548828 14.02832 443.828125 13.964844 C 457.919922 37.641602 471.630859 61.635742 485.595703 85.375977 C 519.619141 143.837891 553.833008 202.236328 587.856445 260.761719 C 540.375977 341.884766 492.832031 423.261719 445.478516 504.448242 C 444.780273 505.336914 444.208984 506.669922 442.939453 506.606445 C 368.544922 506.860352 294.404297 507.050781 220.009766 507.050781 C 199.697266 507.177734 179.321289 507.495117 159.008789 507.558594 C 111.274414 425.419922 63.857422 342.963867 16.123047 260.825195 C 62.77832 180.59082 109.49707 100.292969 156.088867 20.058594 C 157.294922 18.217773 158.310547 15.488281 160.024414 14.091797 Z M 170.498047 39.355469 C 126.953125 114.257812 83.154297 189.09668 39.482422 263.999023 C 82.900391 339.155273 126.381836 414.311523 169.736328 489.467773 C 256.508789 489.467773 343.662109 488.896484 430.43457 488.579102 C 474.106445 413.740234 517.77832 338.774414 561.513672 263.935547 C 519.301758 191.381836 476.962891 118.828125 434.750977 46.274414 C 433.164062 43.544922 431.577148 40.878906 429.926758 38.212891 C 343.47168 38.720703 257.143555 38.78418 170.498047 39.355469 Z M 170.498047 39.355469 " transform="matrix(0.0615385,0,0,0.0615385,0,0.000000000000002624)"/>
<path style="fill-rule:nonzero;fill:rgb(0%,0%,0%);fill-opacity:1;stroke-width:13.333333;stroke-linecap:butt;stroke-linejoin:miter;stroke:rgb(100%,100%,100%);stroke-opacity:1;stroke-miterlimit:4;" d="M 429.926758 38.212891 C 431.577148 40.878906 433.164062 43.544922 434.750977 46.274414 C 476.962891 118.828125 519.301758 191.381836 561.513672 263.935547 C 517.77832 338.774414 474.106445 413.740234 430.43457 488.579102 C 343.662109 488.896484 256.508789 489.467773 169.736328 489.467773 C 126.381836 414.311523 82.900391 339.155273 39.482422 263.999023 C 83.154297 189.09668 126.953125 114.257812 170.498047 39.355469 C 257.143555 38.78418 343.47168 38.720703 429.926758 38.212891 Z M 48.496094 263.935547 C 90.517578 336.489258 132.348633 409.169922 174.306641 481.723633 C 258.15918 481.40625 342.392578 481.279297 425.864258 480.771484 C 468.139648 408.535156 510.224609 336.171875 552.5 263.935547 C 510.224609 191.318359 467.885742 118.764648 425.673828 46.147461 C 344.487305 46.337891 263.237305 46.782227 181.987305 46.845703 C 179.765625 46.90918 177.353516 46.591797 175.195312 47.226562 C 173.481445 49.511719 172.148438 52.177734 170.688477 54.65332 C 129.936523 124.414062 89.248047 194.238281 48.496094 263.935547 Z M 48.496094 263.935547 " transform="matrix(0.0615385,0,0,0.0615385,0,0.000000000000002624)"/>
<path style="fill-rule:nonzero;fill:rgb(0%,0%,0%);fill-opacity:1;stroke-width:13.333333;stroke-linecap:butt;stroke-linejoin:miter;stroke:rgb(35.686275%,48.235294%,70.980394%);stroke-opacity:1;stroke-miterlimit:4;" d="M 425.673828 46.147461 C 467.885742 118.764648 510.224609 191.318359 552.5 263.935547 C 510.224609 336.171875 468.139648 408.535156 425.864258 480.771484 C 342.392578 481.279297 258.15918 481.40625 174.306641 481.723633 C 132.348633 409.169922 90.517578 336.489258 48.496094 263.935547 C 89.248047 194.238281 129.936523 124.414062 170.688477 54.65332 C 172.148438 52.177734 173.481445 49.511719 175.195312 47.226562 C 177.353516 46.591797 179.765625 46.90918 181.987305 46.845703 C 263.237305 46.782227 344.487305 46.337891 425.673828 46.147461 Z M 385.874023 140.981445 C 385.74707 192.270508 385.9375 243.496094 385.810547 294.785156 C 328.364258 294.785156 270.854492 294.848633 213.344727 294.785156 C 213.408203 243.876953 213.217773 192.714844 213.47168 141.870117 C 201.855469 141.743164 190.239258 141.743164 178.623047 141.425781 C 178.178711 145.234375 178.242188 149.106445 178.242188 152.978516 C 186.113281 153.232422 193.920898 153.168945 201.791992 153.359375 C 201.918945 204.331055 201.728516 255.302734 201.855469 306.274414 C 267.045898 306.337891 332.236328 306.337891 397.426758 306.274414 C 397.363281 255.429687 397.363281 203.378906 397.426758 152.53418 C 405.297852 152.407227 413.168945 152.724609 421.040039 152.407227 C 421.103516 148.598633 421.103516 144.790039 420.976562 140.981445 C 409.296875 140.854492 397.617188 140.981445 385.874023 140.981445 Z M 224.770508 199.25293 C 224.770508 201.538086 224.707031 203.759766 224.707031 205.981445 C 249.84375 220.073242 274.980469 234.228516 300.117188 248.256836 C 324.746094 233.847656 349.311523 219.375 373.876953 204.96582 C 373.876953 203.061523 373.876953 201.220703 373.876953 199.316406 C 324.174805 199.25293 274.472656 199.316406 224.770508 199.25293 Z M 224.770508 212.900391 C 224.707031 236.005859 224.770508 259.111328 224.707031 282.216797 C 274.472656 282.216797 324.174805 282.280273 373.876953 282.216797 C 373.813477 258.793945 373.876953 235.371094 373.813477 211.948242 C 351.59668 224.960937 329.379883 238.100586 307.163086 251.176758 C 304.87793 252.446289 302.592773 254.160156 300.053711 254.858398 C 297.768555 254.033203 295.673828 252.636719 293.515625 251.430664 C 270.600586 238.608398 247.685547 225.786133 224.770508 212.900391 Z M 413.867188 412.724609 C 416.279297 414.882812 418.691406 417.041016 421.103516 419.262695 C 422.880859 417.421875 424.658203 415.581055 426.37207 413.740234 C 424.277344 411.835937 422.119141 409.868164 419.960938 407.963867 C 428.530273 397.617187 428.974609 380.922852 420.532227 370.449219 C 412.915039 360.737305 397.744141 359.150391 387.524414 365.561523 C 379.970703 370.449219 376.225586 379.145508 376.162109 388.032227 C 375.78125 396.728516 379.018555 405.488281 386.12793 410.883789 C 393.935547 416.787109 405.297852 417.041016 413.867188 412.724609 Z M 174.243164 362.895508 C 174.116211 380.097656 174.306641 397.236328 174.179688 414.375 C 175.830078 414.438477 177.480469 414.438477 179.130859 414.438477 C 179.067383 397.299805 179.257812 380.097656 179.067383 362.958984 C 177.480469 362.958984 175.830078 362.958984 174.243164 362.895508 Z M 189.667969 362.895508 C 189.541016 380.03418 189.667969 397.236328 189.604492 414.438477 C 196.713867 414.438477 203.886719 414.438477 210.996094 414.438477 C 215.439453 414.438477 219.755859 413.994141 223.691406 411.708984 C 231.245117 407.519531 232.133789 394.887695 225.214844 389.746094 C 223.4375 388.413086 221.21582 387.841797 219.121094 387.143555 C 221.21582 386.254883 223.183594 385.556641 224.770508 383.779297 C 229.277344 379.145508 229.086914 370.131836 223.691406 366.259766 C 219.819336 363.339844 214.677734 363.085937 209.980469 362.895508 C 203.188477 362.832031 196.459961 362.895508 189.667969 362.895508 Z M 237.592773 362.895508 C 237.529297 380.03418 237.592773 397.236328 237.529297 414.438477 C 239.243164 414.438477 240.893555 414.438477 242.543945 414.438477 C 242.543945 399.584961 242.480469 384.731445 242.607422 369.87793 C 248.701172 384.731445 254.287109 399.838867 260.571289 414.56543 C 262.03125 414.501953 263.491211 414.438477 265.014648 414.375 C 270.917969 399.711914 276.567383 384.921875 282.597656 370.258789 C 282.788086 384.985352 282.597656 399.648437 282.661133 414.375 C 284.248047 414.438477 285.898438 414.501953 287.548828 414.501953 C 287.739258 397.363281 287.548828 380.161133 287.612305 363.022461 C 285.454102 362.958984 283.168945 362.641602 281.074219 363.022461 C 279.931641 363.339844 279.677734 365.180664 279.169922 366.132812 C 273.774414 380.097656 268.188477 393.999023 262.792969 407.963867 C 256.508789 393.237305 251.049805 377.939453 244.765625 363.212891 C 242.480469 362.578125 239.941406 362.895508 237.592773 362.895508 Z M 314.208984 414.311523 C 317.763672 414.501953 321.318359 414.438477 324.873047 414.375 C 324.936523 402.631836 324.682617 390.825195 325 379.018555 C 329.760742 390.571289 333.378906 402.695312 337.758789 414.438477 C 340.615234 414.438477 343.535156 414.438477 346.391602 414.438477 C 350.834961 402.631836 354.389648 390.380859 359.150391 378.701172 C 359.404297 390.571289 359.213867 402.504883 359.213867 414.375 C 362.768555 414.438477 366.259766 414.438477 369.814453 414.375 C 369.6875 397.236328 369.814453 380.097656 369.750977 362.958984 C 364.418945 362.895508 358.959961 362.578125 353.691406 363.212891 C 351.342773 371.210937 348.613281 379.082031 346.137695 387.016602 C 344.804688 390.825195 344.042969 394.570312 342.265625 398.125 C 338.330078 386.445312 334.267578 374.829102 330.395508 363.149414 C 325.126953 362.768555 319.731445 362.705078 314.399414 363.085937 C 314.082031 380.097656 314.526367 397.236328 314.208984 414.311523 Z M 314.208984 414.311523 " transform="matrix(0.0615385,0,0,0.0615385,0,0.000000000000002624)"/>
<path style="fill-rule:nonzero;fill:rgb(0%,0%,0%);fill-opacity:1;stroke-width:13.333333;stroke-linecap:butt;stroke-linejoin:miter;stroke:rgb(63.529414%,70.980394%,83.529413%);stroke-opacity:1;stroke-miterlimit:4;" d="M 385.874023 140.981445 C 397.617188 140.981445 409.296875 140.854492 420.976562 140.981445 C 421.103516 144.790039 421.103516 148.598633 421.040039 152.407227 C 413.168945 152.724609 405.297852 152.407227 397.426758 152.53418 C 397.363281 203.378906 397.363281 255.429687 397.426758 306.274414 C 332.236328 306.337891 267.045898 306.337891 201.855469 306.274414 C 201.728516 255.302734 201.918945 204.331055 201.791992 153.359375 C 193.920898 153.168945 186.113281 153.232422 178.242188 152.978516 C 178.242188 149.106445 178.178711 145.234375 178.623047 141.425781 C 190.239258 141.743164 201.855469 141.743164 213.47168 141.870117 C 213.217773 192.714844 213.408203 243.876953 213.344727 294.785156 C 270.854492 294.848633 328.364258 294.785156 385.810547 294.785156 C 385.9375 243.496094 385.74707 192.270508 385.874023 140.981445 Z M 385.874023 140.981445 " transform="matrix(0.0615385,0,0,0.0615385,0,0.000000000000002624)"/>
<path style="fill-rule:nonzero;fill:rgb(0%,0%,0%);fill-opacity:1;stroke-width:13.333333;stroke-linecap:butt;stroke-linejoin:miter;stroke:rgb(100%,100%,100%);stroke-opacity:1;stroke-miterlimit:4;" d="M 224.770508 199.25293 C 274.472656 199.316406 324.174805 199.25293 373.876953 199.316406 C 373.876953 201.220703 373.876953 203.061523 373.876953 204.96582 C 349.311523 219.375 324.746094 233.847656 300.117188 248.256836 C 274.980469 234.228516 249.84375 220.073242 224.707031 205.981445 C 224.707031 203.759766 224.770508 201.538086 224.770508 199.25293 Z M 224.770508 199.25293 " transform="matrix(0.0615385,0,0,0.0615385,0,0.000000000000002624)"/>
<path style="fill-rule:nonzero;fill:rgb(0%,0%,0%);fill-opacity:1;stroke-width:13.333333;stroke-linecap:butt;stroke-linejoin:miter;stroke:rgb(100%,100%,100%);stroke-opacity:1;stroke-miterlimit:4;" d="M 373.813477 211.948242 C 373.876953 235.371094 373.813477 258.793945 373.876953 282.216797 C 324.174805 282.280273 274.472656 282.216797 224.707031 282.216797 C 224.770508 259.111328 224.707031 236.005859 224.770508 212.900391 C 247.685547 225.786133 270.600586 238.608398 293.515625 251.430664 C 295.673828 252.636719 297.768555 254.033203 300.053711 254.858398 C 302.592773 254.160156 304.87793 252.446289 307.163086 251.176758 C 329.379883 238.100586 351.59668 224.960937 373.813477 211.948242 Z M 373.813477 211.948242 " transform="matrix(0.0615385,0,0,0.0615385,0,0.000000000000002624)"/>
<path style="fill-rule:nonzero;fill:rgb(0%,0%,0%);fill-opacity:1;stroke-width:13.333333;stroke-linecap:butt;stroke-linejoin:miter;stroke:rgb(100%,100%,100%);stroke-opacity:1;stroke-miterlimit:4;" d="M 420.532227 370.449219 C 428.974609 380.922852 428.530273 397.617187 419.960938 407.963867 C 422.119141 409.868164 424.277344 411.835937 426.37207 413.740234 C 424.658203 415.581055 422.880859 417.421875 421.103516 419.262695 C 418.691406 417.041016 416.279297 414.882812 413.867188 412.724609 C 405.297852 417.041016 393.935547 416.787109 386.12793 410.883789 C 379.018555 405.488281 375.78125 396.728516 376.162109 388.032227 C 376.225586 379.145508 379.970703 370.449219 387.524414 365.561523 C 397.744141 359.150391 412.915039 360.737305 420.532227 370.449219 Z M 405.742188 406.05957 C 404.599609 403.964844 402.822266 402.568359 401.044922 401.044922 C 402.822266 399.140625 404.536133 397.299805 406.313477 395.458984 C 408.28125 397.236328 410.249023 399.077148 412.216797 400.854492 C 416.469727 393.745117 416.469727 383.144531 411.772461 376.289062 C 407.138672 369.6875 395.839844 369.624023 391.079102 376.035156 C 387.714844 380.541992 387.016602 386.572266 387.524414 392.03125 C 388.032227 396.855469 390.19043 401.870117 394.506836 404.40918 C 398.125 406.44043 401.806641 406.25 405.742188 406.05957 Z M 405.742188 406.05957 " transform="matrix(0.0615385,0,0,0.0615385,0,0.000000000000002624)"/>
<path style="fill-rule:nonzero;fill:rgb(0%,0%,0%);fill-opacity:1;stroke-width:13.333333;stroke-linecap:butt;stroke-linejoin:miter;stroke:rgb(100%,100%,100%);stroke-opacity:1;stroke-miterlimit:4;" d="M 174.243164 362.895508 C 175.830078 362.958984 177.480469 362.958984 179.067383 362.958984 C 179.257812 380.097656 179.067383 397.299805 179.130859 414.438477 C 177.480469 414.438477 175.830078 414.438477 174.179688 414.375 C 174.306641 397.236328 174.116211 380.097656 174.243164 362.895508 Z M 174.243164 362.895508 " transform="matrix(0.0615385,0,0,0.0615385,0,0.000000000000002624)"/>
<path style="fill-rule:nonzero;fill:rgb(0%,0%,0%);fill-opacity:1;stroke-width:13.333333;stroke-linecap:butt;stroke-linejoin:miter;stroke:rgb(100%,100%,100%);stroke-opacity:1;stroke-miterlimit:4;" d="M 189.667969 362.895508 C 196.459961 362.895508 203.188477 362.832031 209.980469 362.895508 C 214.677734 363.085937 219.819336 363.339844 223.691406 366.259766 C 229.086914 370.131836 229.277344 379.145508 224.770508 383.779297 C 223.183594 385.556641 221.21582 386.254883 219.121094 387.143555 C 221.21582 387.841797 223.4375 388.413086 225.214844 389.746094 C 232.133789 394.887695 231.245117 407.519531 223.691406 411.708984 C 219.755859 413.994141 215.439453 414.438477 210.996094 414.438477 C 203.886719 414.438477 196.713867 414.438477 189.604492 414.438477 C 189.667969 397.236328 189.541016 380.03418 189.667969 362.895508 Z M 194.619141 367.148437 C 194.555664 373.242187 194.619141 379.399414 194.555664 385.493164 C 200.395508 385.493164 206.235352 385.620117 212.011719 385.493164 C 215.883789 385.429687 219.755859 384.350586 221.977539 380.922852 C 224.262695 376.923828 222.929688 370.512695 218.486328 368.544922 C 215.820312 367.211914 212.963867 367.275391 209.980469 367.148437 C 204.838867 367.148437 199.760742 367.211914 194.619141 367.148437 Z M 194.619141 389.746094 C 194.555664 396.538086 194.619141 403.393555 194.619141 410.249023 C 201.030273 410.12207 207.568359 410.375977 214.042969 410.12207 C 218.295898 409.804687 222.358398 408.344727 224.199219 404.21875 C 225.405273 400.537109 225.405273 395.458984 222.167969 392.792969 C 219.18457 390.19043 214.804688 389.80957 210.996094 389.746094 C 205.537109 389.682617 200.078125 389.746094 194.619141 389.746094 Z M 194.619141 389.746094 " transform="matrix(0.0615385,0,0,0.0615385,0,0.000000000000002624)"/>
<path style="fill-rule:nonzero;fill:rgb(0%,0%,0%);fill-opacity:1;stroke-width:13.333333;stroke-linecap:butt;stroke-linejoin:miter;stroke:rgb(100%,100%,100%);stroke-opacity:1;stroke-miterlimit:4;" d="M 237.592773 362.895508 C 239.941406 362.895508 242.480469 362.578125 244.765625 363.212891 C 251.049805 377.939453 256.508789 393.237305 262.792969 407.963867 C 268.188477 393.999023 273.774414 380.097656 279.169922 366.132812 C 279.677734 365.180664 279.931641 363.339844 281.074219 363.022461 C 283.168945 362.641602 285.454102 362.958984 287.612305 363.022461 C 287.548828 380.161133 287.739258 397.363281 287.548828 414.501953 C 285.898438 414.501953 284.248047 414.438477 282.661133 414.375 C 282.597656 399.648437 282.788086 384.985352 282.597656 370.258789 C 276.567383 384.921875 270.917969 399.711914 265.014648 414.375 C 263.491211 414.438477 262.03125 414.501953 260.571289 414.56543 C 254.287109 399.838867 248.701172 384.731445 242.607422 369.87793 C 242.480469 384.731445 242.543945 399.584961 242.543945 414.438477 C 240.893555 414.438477 239.243164 414.438477 237.529297 414.438477 C 237.592773 397.236328 237.529297 380.03418 237.592773 362.895508 Z M 237.592773 362.895508 " transform="matrix(0.0615385,0,0,0.0615385,0,0.000000000000002624)"/>
<path style="fill-rule:nonzero;fill:rgb(0%,0%,0%);fill-opacity:1;stroke-width:13.333333;stroke-linecap:butt;stroke-linejoin:miter;stroke:rgb(100%,100%,100%);stroke-opacity:1;stroke-miterlimit:4;" d="M 314.399414 363.085937 C 319.731445 362.705078 325.126953 362.768555 330.395508 363.149414 C 334.267578 374.829102 338.330078 386.445312 342.265625 398.125 C 344.042969 394.570312 344.804688 390.825195 346.137695 387.016602 C 348.613281 379.082031 351.342773 371.210937 353.691406 363.212891 C 358.959961 362.578125 364.418945 362.895508 369.750977 362.958984 C 369.814453 380.097656 369.6875 397.236328 369.814453 414.375 C 366.259766 414.438477 362.768555 414.438477 359.213867 414.375 C 359.213867 402.504883 359.404297 390.571289 359.150391 378.701172 C 354.389648 390.380859 350.834961 402.631836 346.391602 414.438477 C 343.535156 414.438477 340.615234 414.438477 337.758789 414.438477 C 333.378906 402.695312 329.760742 390.571289 325 379.018555 C 324.682617 390.825195 324.936523 402.631836 324.873047 414.375 C 321.318359 414.438477 317.763672 414.501953 314.208984 414.311523 C 314.526367 397.236328 314.082031 380.097656 314.399414 363.085937 Z M 314.399414 363.085937 " transform="matrix(0.0615385,0,0,0.0615385,0,0.000000000000002624)"/>
<path style="fill-rule:nonzero;fill:rgb(0%,0%,0%);fill-opacity:1;stroke-width:13.333333;stroke-linecap:butt;stroke-linejoin:miter;stroke:rgb(35.686275%,48.235294%,70.980394%);stroke-opacity:1;stroke-miterlimit:4;" d="M 194.619141 367.148437 C 199.760742 367.211914 204.838867 367.148437 209.980469 367.148437 C 212.963867 367.275391 215.820312 367.211914 218.486328 368.544922 C 222.929688 370.512695 224.262695 376.923828 221.977539 380.922852 C 219.755859 384.350586 215.883789 385.429687 212.011719 385.493164 C 206.235352 385.620117 200.395508 385.493164 194.555664 385.493164 C 194.619141 379.399414 194.555664 373.242187 194.619141 367.148437 Z M 194.619141 367.148437 " transform="matrix(0.0615385,0,0,0.0615385,0,0.000000000000002624)"/>
<path style="fill-rule:nonzero;fill:rgb(0%,0%,0%);fill-opacity:1;stroke-width:13.333333;stroke-linecap:butt;stroke-linejoin:miter;stroke:rgb(35.686275%,48.235294%,70.980394%);stroke-opacity:1;stroke-miterlimit:4;" d="M 411.772461 376.289062 C 416.469727 383.144531 416.469727 393.745117 412.216797 400.854492 C 410.249023 399.077148 408.28125 397.236328 406.313477 395.458984 C 404.536133 397.299805 402.822266 399.140625 401.044922 401.044922 C 402.822266 402.568359 404.599609 403.964844 405.742188 406.05957 C 401.806641 406.25 398.125 406.44043 394.506836 404.40918 C 390.19043 401.870117 388.032227 396.855469 387.524414 392.03125 C 387.016602 386.572266 387.714844 380.541992 391.079102 376.035156 C 395.839844 369.624023 407.138672 369.6875 411.772461 376.289062 Z M 411.772461 376.289062 " transform="matrix(0.0615385,0,0,0.0615385,0,0.000000000000002624)"/>
<path style="fill-rule:nonzero;fill:rgb(0%,0%,0%);fill-opacity:1;stroke-width:13.333333;stroke-linecap:butt;stroke-linejoin:miter;stroke:rgb(35.686275%,48.235294%,70.980394%);stroke-opacity:1;stroke-miterlimit:4;" d="M 194.619141 389.746094 C 200.078125 389.746094 205.537109 389.682617 210.996094 389.746094 C 214.804688 389.80957 219.18457 390.19043 222.167969 392.792969 C 225.405273 395.458984 225.405273 400.537109 224.199219 404.21875 C 222.358398 408.344727 218.295898 409.804687 214.042969 410.12207 C 207.568359 410.375977 201.030273 410.12207 194.619141 410.249023 C 194.619141 403.393555 194.555664 396.538086 194.619141 389.746094 Z M 194.619141 389.746094 " transform="matrix(0.0615385,0,0,0.0615385,0,0.000000000000002624)"/>
<path style=" stroke:none;fill-rule:nonzero;fill:rgb(100%,100%,100%);fill-opacity:1;" d="M 0 0 L 36.921875 0 L 36.921875 32 L 0 32 Z M 0.992188 16.050781 C 3.929688 21.105469 6.847656 26.179688 9.785156 31.234375 C 11.035156 31.230469 12.289062 31.210938 13.539062 31.203125 C 18.117188 31.203125 22.679688 31.191406 27.257812 31.175781 C 27.335938 31.179688 27.371094 31.097656 27.414062 31.042969 C 30.328125 26.046875 33.253906 21.039062 36.175781 16.046875 C 34.082031 12.445312 31.976562 8.851562 29.882812 5.253906 C 29.023438 3.792969 28.179688 2.316406 27.3125 0.859375 C 21.695312 0.863281 16.078125 0.859375 10.460938 0.863281 C 10.257812 0.863281 10.050781 0.847656 9.847656 0.867188 C 9.742188 0.953125 9.679688 1.121094 9.605469 1.234375 C 6.738281 6.171875 3.863281 11.113281 0.992188 16.050781 Z M 0.992188 16.050781 "/>
<path style=" stroke:none;fill-rule:nonzero;fill:rgb(63.529414%,70.980394%,83.529413%);fill-opacity:1;" d="M 9.847656 0.867188 C 10.050781 0.847656 10.257812 0.863281 10.460938 0.863281 C 16.078125 0.859375 21.695312 0.863281 27.3125 0.859375 C 28.179688 2.316406 29.023438 3.792969 29.882812 5.253906 C 31.976562 8.851562 34.082031 12.445312 36.175781 16.046875 C 33.253906 21.039062 30.328125 26.046875 27.414062 31.042969 C 27.371094 31.097656 27.335938 31.179688 27.257812 31.175781 C 22.679688 31.191406 18.117188 31.203125 13.539062 31.203125 C 12.289062 31.210938 11.035156 31.230469 9.785156 31.234375 C 6.847656 26.179688 3.929688 21.105469 0.992188 16.050781 C 3.863281 11.113281 6.738281 6.171875 9.605469 1.234375 C 9.679688 1.121094 9.742188 0.953125 9.847656 0.867188 Z M 10.492188 2.421875 C 7.8125 7.03125 5.117188 11.636719 2.429688 16.246094 C 5.101562 20.871094 7.777344 25.496094 10.445312 30.121094 C 15.785156 30.121094 21.148438 30.085938 26.488281 30.066406 C 29.175781 25.460938 31.863281 20.847656 34.554688 16.242188 C 31.957031 11.777344 29.351562 7.3125 26.753906 2.847656 C 26.65625 2.679688 26.558594 2.515625 26.457031 2.351562 C 21.136719 2.382812 15.824219 2.386719 10.492188 2.421875 Z M 10.492188 2.421875 "/>
<path style=" stroke:none;fill-rule:nonzero;fill:rgb(100%,100%,100%);fill-opacity:1;" d="M 26.457031 2.351562 C 26.558594 2.515625 26.65625 2.679688 26.753906 2.847656 C 29.351562 7.3125 31.957031 11.777344 34.554688 16.242188 C 31.863281 20.847656 29.175781 25.460938 26.488281 30.066406 C 21.148438 30.085938 15.785156 30.121094 10.445312 30.121094 C 7.777344 25.496094 5.101562 20.871094 2.429688 16.246094 C 5.117188 11.636719 7.8125 7.03125 10.492188 2.421875 C 15.824219 2.386719 21.136719 2.382812 26.457031 2.351562 Z M 2.984375 16.242188 C 5.570312 20.707031 8.144531 25.179688 10.726562 29.644531 C 15.886719 29.625 21.070312 29.617188 26.207031 29.585938 C 28.808594 25.140625 31.398438 20.6875 34 16.242188 C 31.398438 11.773438 28.792969 7.308594 26.195312 2.839844 C 21.199219 2.851562 16.199219 2.878906 11.199219 2.882812 C 11.0625 2.886719 10.914062 2.867188 10.78125 2.90625 C 10.675781 3.046875 10.59375 3.210938 10.503906 3.363281 C 7.996094 7.65625 5.492188 11.953125 2.984375 16.242188 Z M 2.984375 16.242188 "/>
<path style=" stroke:none;fill-rule:nonzero;fill:rgb(35.686275%,48.235294%,70.980394%);fill-opacity:1;" d="M 26.195312 2.839844 C 28.792969 7.308594 31.398438 11.773438 34 16.242188 C 31.398438 20.6875 28.808594 25.140625 26.207031 29.585938 C 21.070312 29.617188 15.886719 29.625 10.726562 29.644531 C 8.144531 25.179688 5.570312 20.707031 2.984375 16.242188 C 5.492188 11.953125 7.996094 7.65625 10.503906 3.363281 C 10.59375 3.210938 10.675781 3.046875 10.78125 2.90625 C 10.914062 2.867188 11.0625 2.886719 11.199219 2.882812 C 16.199219 2.878906 21.199219 2.851562 26.195312 2.839844 Z M 23.746094 8.675781 C 23.738281 11.832031 23.75 14.984375 23.742188 18.140625 C 20.207031 18.140625 16.667969 18.144531 13.128906 18.140625 C 13.132812 15.007812 13.121094 11.859375 13.136719 8.730469 C 12.421875 8.722656 11.707031 8.722656 10.992188 8.703125 C 10.964844 8.9375 10.96875 9.175781 10.96875 9.414062 C 11.453125 9.429688 11.933594 9.425781 12.417969 9.4375 C 12.425781 12.574219 12.414062 15.710938 12.421875 18.847656 C 16.433594 18.851562 20.445312 18.851562 24.457031 18.847656 C 24.453125 15.71875 24.453125 12.515625 24.457031 9.386719 C 24.941406 9.378906 25.425781 9.398438 25.910156 9.378906 C 25.914062 9.144531 25.914062 8.910156 25.90625 8.675781 C 25.1875 8.667969 24.46875 8.675781 23.746094 8.675781 Z M 13.832031 12.261719 C 13.832031 12.402344 13.828125 12.539062 13.828125 12.675781 C 15.375 13.542969 16.921875 14.414062 18.46875 15.277344 C 19.984375 14.390625 21.496094 13.5 23.007812 12.613281 C 23.007812 12.496094 23.007812 12.382812 23.007812 12.265625 C 19.949219 12.261719 16.890625 12.265625 13.832031 12.261719 Z M 13.832031 13.101562 C 13.828125 14.523438 13.832031 15.945312 13.828125 17.367188 C 16.890625 17.367188 19.949219 17.371094 23.007812 17.367188 C 23.003906 15.925781 23.007812 14.484375 23.003906 13.042969 C 21.636719 13.84375 20.269531 14.652344 18.902344 15.457031 C 18.761719 15.535156 18.621094 15.640625 18.464844 15.683594 C 18.324219 15.632812 18.195312 15.546875 18.0625 15.472656 C 16.652344 14.683594 15.242188 13.894531 13.832031 13.101562 Z M 25.46875 25.398438 C 25.617188 25.53125 25.765625 25.664062 25.914062 25.800781 C 26.023438 25.6875 26.132812 25.574219 26.238281 25.460938 C 26.109375 25.34375 25.976562 25.222656 25.84375 25.105469 C 26.371094 24.46875 26.398438 23.441406 25.878906 22.796875 C 25.410156 22.199219 24.476562 22.101562 23.847656 22.496094 C 23.382812 22.796875 23.152344 23.332031 23.148438 23.878906 C 23.125 24.414062 23.324219 24.953125 23.761719 25.285156 C 24.242188 25.648438 24.941406 25.664062 25.46875 25.398438 Z M 10.722656 22.332031 C 10.714844 23.390625 10.726562 24.445312 10.71875 25.5 C 10.820312 25.503906 10.921875 25.503906 11.023438 25.503906 C 11.019531 24.449219 11.03125 23.390625 11.019531 22.335938 C 10.921875 22.335938 10.820312 22.335938 10.722656 22.332031 Z M 11.671875 22.332031 C 11.664062 23.386719 11.671875 24.445312 11.667969 25.503906 C 12.105469 25.503906 12.546875 25.503906 12.984375 25.503906 C 13.257812 25.503906 13.523438 25.476562 13.765625 25.335938 C 14.230469 25.078125 14.285156 24.300781 13.859375 23.984375 C 13.75 23.902344 13.613281 23.867188 13.484375 23.824219 C 13.613281 23.769531 13.734375 23.726562 13.832031 23.617188 C 14.109375 23.332031 14.097656 22.777344 13.765625 22.539062 C 13.527344 22.359375 13.210938 22.34375 12.921875 22.332031 C 12.503906 22.328125 12.089844 22.332031 11.671875 22.332031 Z M 14.621094 22.332031 C 14.617188 23.386719 14.621094 24.445312 14.617188 25.503906 C 14.722656 25.503906 14.824219 25.503906 14.925781 25.503906 C 14.925781 24.589844 14.921875 23.675781 14.929688 22.761719 C 15.304688 23.675781 15.648438 24.605469 16.035156 25.511719 C 16.125 25.507812 16.214844 25.503906 16.308594 25.5 C 16.671875 24.597656 17.019531 23.6875 17.390625 22.785156 C 17.402344 23.691406 17.390625 24.59375 17.394531 25.5 C 17.492188 25.503906 17.59375 25.507812 17.695312 25.507812 C 17.707031 24.453125 17.695312 23.394531 17.699219 22.339844 C 17.566406 22.335938 17.425781 22.316406 17.296875 22.339844 C 17.226562 22.359375 17.210938 22.472656 17.179688 22.53125 C 16.847656 23.390625 16.503906 24.246094 16.171875 25.105469 C 15.785156 24.199219 15.449219 23.257812 15.0625 22.351562 C 14.921875 22.3125 14.765625 22.332031 14.621094 22.332031 Z M 19.335938 25.496094 C 19.554688 25.507812 19.773438 25.503906 19.992188 25.5 C 19.996094 24.777344 19.980469 24.050781 20 23.324219 C 20.292969 24.035156 20.515625 24.78125 20.785156 25.503906 C 20.960938 25.503906 21.140625 25.503906 21.316406 25.503906 C 21.589844 24.777344 21.808594 24.023438 22.101562 23.304688 C 22.117188 24.035156 22.105469 24.769531 22.105469 25.5 C 22.324219 25.503906 22.539062 25.503906 22.757812 25.5 C 22.75 24.445312 22.757812 23.390625 22.753906 22.335938 C 22.425781 22.332031 22.089844 22.3125 21.765625 22.351562 C 21.621094 22.84375 21.453125 23.328125 21.300781 23.816406 C 21.21875 24.050781 21.171875 24.28125 21.0625 24.5 C 20.820312 23.78125 20.570312 23.066406 20.332031 22.347656 C 20.007812 22.324219 19.675781 22.320312 19.347656 22.34375 C 19.328125 23.390625 19.355469 24.445312 19.335938 25.496094 Z M 19.335938 25.496094 "/>
<path style=" stroke:none;fill-rule:nonzero;fill:rgb(63.529414%,70.980394%,83.529413%);fill-opacity:1;" d="M 23.746094 8.675781 C 24.46875 8.675781 25.1875 8.667969 25.90625 8.675781 C 25.914062 8.910156 25.914062 9.144531 25.910156 9.378906 C 25.425781 9.398438 24.941406 9.378906 24.457031 9.386719 C 24.453125 12.515625 24.453125 15.71875 24.457031 18.847656 C 20.445312 18.851562 16.433594 18.851562 12.421875 18.847656 C 12.414062 15.710938 12.425781 12.574219 12.417969 9.4375 C 11.933594 9.425781 11.453125 9.429688 10.96875 9.414062 C 10.96875 9.175781 10.964844 8.9375 10.992188 8.703125 C 11.707031 8.722656 12.421875 8.722656 13.136719 8.730469 C 13.121094 11.859375 13.132812 15.007812 13.128906 18.140625 C 16.667969 18.144531 20.207031 18.140625 23.742188 18.140625 C 23.75 14.984375 23.738281 11.832031 23.746094 8.675781 Z M 23.746094 8.675781 "/>
<path style=" stroke:none;fill-rule:nonzero;fill:rgb(100%,100%,100%);fill-opacity:1;" d="M 13.832031 12.261719 C 16.890625 12.265625 19.949219 12.261719 23.007812 12.265625 C 23.007812 12.382812 23.007812 12.496094 23.007812 12.613281 C 21.496094 13.5 19.984375 14.390625 18.46875 15.277344 C 16.921875 14.414062 15.375 13.542969 13.828125 12.675781 C 13.828125 12.539062 13.832031 12.402344 13.832031 12.261719 Z M 13.832031 12.261719 "/>
<path style=" stroke:none;fill-rule:nonzero;fill:rgb(100%,100%,100%);fill-opacity:1;" d="M 23.003906 13.042969 C 23.007812 14.484375 23.003906 15.925781 23.007812 17.367188 C 19.949219 17.371094 16.890625 17.367188 13.828125 17.367188 C 13.832031 15.945312 13.828125 14.523438 13.832031 13.101562 C 15.242188 13.894531 16.652344 14.683594 18.0625 15.472656 C 18.195312 15.546875 18.324219 15.632812 18.464844 15.683594 C 18.621094 15.640625 18.761719 15.535156 18.902344 15.457031 C 20.269531 14.652344 21.636719 13.84375 23.003906 13.042969 Z M 23.003906 13.042969 "/>
<path style=" stroke:none;fill-rule:nonzero;fill:rgb(100%,100%,100%);fill-opacity:1;" d="M 25.878906 22.796875 C 26.398438 23.441406 26.371094 24.46875 25.84375 25.105469 C 25.976562 25.222656 26.109375 25.34375 26.238281 25.460938 C 26.132812 25.574219 26.023438 25.6875 25.914062 25.800781 C 25.765625 25.664062 25.617188 25.53125 25.46875 25.398438 C 24.941406 25.664062 24.242188 25.648438 23.761719 25.285156 C 23.324219 24.953125 23.125 24.414062 23.148438 23.878906 C 23.152344 23.332031 23.382812 22.796875 23.847656 22.496094 C 24.476562 22.101562 25.410156 22.199219 25.878906 22.796875 Z M 24.96875 24.988281 C 24.898438 24.859375 24.789062 24.773438 24.679688 24.679688 C 24.789062 24.5625 24.894531 24.449219 25.003906 24.335938 C 25.125 24.445312 25.246094 24.558594 25.367188 24.667969 C 25.628906 24.230469 25.628906 23.578125 25.339844 23.15625 C 25.054688 22.75 24.359375 22.746094 24.066406 23.140625 C 23.859375 23.417969 23.816406 23.789062 23.847656 24.125 C 23.878906 24.421875 24.011719 24.730469 24.277344 24.886719 C 24.5 25.011719 24.726562 25 24.96875 24.988281 Z M 24.96875 24.988281 "/>
<path style=" stroke:none;fill-rule:nonzero;fill:rgb(100%,100%,100%);fill-opacity:1;" d="M 10.722656 22.332031 C 10.820312 22.335938 10.921875 22.335938 11.019531 22.335938 C 11.03125 23.390625 11.019531 24.449219 11.023438 25.503906 C 10.921875 25.503906 10.820312 25.503906 10.71875 25.5 C 10.726562 24.445312 10.714844 23.390625 10.722656 22.332031 Z M 10.722656 22.332031 "/>
<path style=" stroke:none;fill-rule:nonzero;fill:rgb(100%,100%,100%);fill-opacity:1;" d="M 11.671875 22.332031 C 12.089844 22.332031 12.503906 22.328125 12.921875 22.332031 C 13.210938 22.34375 13.527344 22.359375 13.765625 22.539062 C 14.097656 22.777344 14.109375 23.332031 13.832031 23.617188 C 13.734375 23.726562 13.613281 23.769531 13.484375 23.824219 C 13.613281 23.867188 13.75 23.902344 13.859375 23.984375 C 14.285156 24.300781 14.230469 25.078125 13.765625 25.335938 C 13.523438 25.476562 13.257812 25.503906 12.984375 25.503906 C 12.546875 25.503906 12.105469 25.503906 11.667969 25.503906 C 11.671875 24.445312 11.664062 23.386719 11.671875 22.332031 Z M 11.976562 22.59375 C 11.972656 22.96875 11.976562 23.347656 11.972656 23.722656 C 12.332031 23.722656 12.691406 23.730469 13.046875 23.722656 C 13.285156 23.71875 13.523438 23.652344 13.660156 23.441406 C 13.800781 23.195312 13.71875 22.800781 13.445312 22.679688 C 13.28125 22.597656 13.105469 22.601562 12.921875 22.59375 C 12.605469 22.59375 12.292969 22.597656 11.976562 22.59375 Z M 11.976562 23.984375 C 11.972656 24.402344 11.976562 24.824219 11.976562 25.246094 C 12.371094 25.238281 12.773438 25.253906 13.171875 25.238281 C 13.433594 25.21875 13.683594 25.128906 13.796875 24.875 C 13.871094 24.648438 13.871094 24.335938 13.671875 24.171875 C 13.488281 24.011719 13.21875 23.988281 12.984375 23.984375 C 12.648438 23.980469 12.3125 23.984375 11.976562 23.984375 Z M 11.976562 23.984375 "/>
<path style=" stroke:none;fill-rule:nonzero;fill:rgb(100%,100%,100%);fill-opacity:1;" d="M 14.621094 22.332031 C 14.765625 22.332031 14.921875 22.3125 15.0625 22.351562 C 15.449219 23.257812 15.785156 24.199219 16.171875 25.105469 C 16.503906 24.246094 16.847656 23.390625 17.179688 22.53125 C 17.210938 22.472656 17.226562 22.359375 17.296875 22.339844 C 17.425781 22.316406 17.566406 22.335938 17.699219 22.339844 C 17.695312 23.394531 17.707031 24.453125 17.695312 25.507812 C 17.59375 25.507812 17.492188 25.503906 17.394531 25.5 C 17.390625 24.59375 17.402344 23.691406 17.390625 22.785156 C 17.019531 23.6875 16.671875 24.597656 16.308594 25.5 C 16.214844 25.503906 16.125 25.507812 16.035156 25.511719 C 15.648438 24.605469 15.304688 23.675781 14.929688 22.761719 C 14.921875 23.675781 14.925781 24.589844 14.925781 25.503906 C 14.824219 25.503906 14.722656 25.503906 14.617188 25.503906 C 14.621094 24.445312 14.617188 23.386719 14.621094 22.332031 Z M 14.621094 22.332031 "/>
<path style=" stroke:none;fill-rule:nonzero;fill:rgb(100%,100%,100%);fill-opacity:1;" d="M 19.347656 22.34375 C 19.675781 22.320312 20.007812 22.324219 20.332031 22.347656 C 20.570312 23.066406 20.820312 23.78125 21.0625 24.5 C 21.171875 24.28125 21.21875 24.050781 21.300781 23.816406 C 21.453125 23.328125 21.621094 22.84375 21.765625 22.351562 C 22.089844 22.3125 22.425781 22.332031 22.753906 22.335938 C 22.757812 23.390625 22.75 24.445312 22.757812 25.5 C 22.539062 25.503906 22.324219 25.503906 22.105469 25.5 C 22.105469 24.769531 22.117188 24.035156 22.101562 23.304688 C 21.808594 24.023438 21.589844 24.777344 21.316406 25.503906 C 21.140625 25.503906 20.960938 25.503906 20.785156 25.503906 C 20.515625 24.78125 20.292969 24.035156 20 23.324219 C 19.980469 24.050781 19.996094 24.777344 19.992188 25.5 C 19.773438 25.503906 19.554688 25.507812 19.335938 25.496094 C 19.355469 24.445312 19.328125 23.390625 19.347656 22.34375 Z M 19.347656 22.34375 "/>
<path style=" stroke:none;fill-rule:nonzero;fill:rgb(35.686275%,48.235294%,70.980394%);fill-opacity:1;" d="M 11.976562 22.59375 C 12.292969 22.597656 12.605469 22.59375 12.921875 22.59375 C 13.105469 22.601562 13.28125 22.597656 13.445312 22.679688 C 13.71875 22.800781 13.800781 23.195312 13.660156 23.441406 C 13.523438 23.652344 13.285156 23.71875 13.046875 23.722656 C 12.691406 23.730469 12.332031 23.722656 11.972656 23.722656 C 11.976562 23.347656 11.972656 22.96875 11.976562 22.59375 Z M 11.976562 22.59375 "/>
<path style=" stroke:none;fill-rule:nonzero;fill:rgb(35.686275%,48.235294%,70.980394%);fill-opacity:1;" d="M 25.339844 23.15625 C 25.628906 23.578125 25.628906 24.230469 25.367188 24.667969 C 25.246094 24.558594 25.125 24.445312 25.003906 24.335938 C 24.894531 24.449219 24.789062 24.5625 24.679688 24.679688 C 24.789062 24.773438 24.898438 24.859375 24.96875 24.988281 C 24.726562 25 24.5 25.011719 24.277344 24.886719 C 24.011719 24.730469 23.878906 24.421875 23.847656 24.125 C 23.816406 23.789062 23.859375 23.417969 24.066406 23.140625 C 24.359375 22.746094 25.054688 22.75 25.339844 23.15625 Z M 25.339844 23.15625 "/>
<path style=" stroke:none;fill-rule:nonzero;fill:rgb(35.686275%,48.235294%,70.980394%);fill-opacity:1;" d="M 11.976562 23.984375 C 12.3125 23.984375 12.648438 23.980469 12.984375 23.984375 C 13.21875 23.988281 13.488281 24.011719 13.671875 24.171875 C 13.871094 24.335938 13.871094 24.648438 13.796875 24.875 C 13.683594 25.128906 13.433594 25.21875 13.171875 25.238281 C 12.773438 25.253906 12.371094 25.238281 11.976562 25.246094 C 11.976562 24.824219 11.972656 24.402344 11.976562 23.984375 Z M 11.976562 23.984375 "/>
</g>
</svg>
