<?xml version="1.0" encoding="UTF-8"?>
<svg xmlns="http://www.w3.org/2000/svg" xmlns:xlink="http://www.w3.org/1999/xlink" width="36.923" height="32" viewBox="0 0 36.923 32" version="1.1">
<g id="surface1">
<path style="fill-rule:nonzero;fill:rgb(0%,0%,0%);fill-opacity:1;stroke-width:13.333333;stroke-linecap:butt;stroke-linejoin:miter;stroke:rgb(100%,100%,100%);stroke-opacity:1;stroke-miterlimit:4;" d="M 0 0 L 599.980094 0.000731124 L 599.992274 520.000317 L 0.0121792 519.999586 Z M 16.103251 260.83956 C 63.839641 342.962294 111.26088 425.404611 158.99727 507.527345 C 179.309654 507.512489 199.683295 507.179822 219.994792 507.038019 C 294.389195 507.026452 368.528819 506.88971 442.92145 506.624249 C 444.191361 506.67886 444.753316 505.34193 445.508794 504.447984 C 492.866235 423.184795 540.351066 341.984194 587.835897 260.783592 C 553.84811 202.241616 519.607315 143.828359 485.619971 85.349856 C 471.616588 61.643924 457.928357 37.618409 443.79847 13.976836 C 352.519691 14.042804 261.240026 13.981825 169.961248 14.047793 C 166.660186 14.007362 163.294322 13.776955 159.995919 14.117365 C 158.291442 15.462272 157.294922 18.198719 156.101778 20.047868 C 109.498928 100.290164 62.769574 180.59682 16.103251 260.83956 Z M 16.103251 260.83956 " transform="matrix(0.0615385,0.000429627,-0.000429627,0.0615385,0,0)"/>
<path style="fill-rule:nonzero;fill:rgb(0%,0%,0%);fill-opacity:1;stroke-width:13.333333;stroke-linecap:butt;stroke-linejoin:miter;stroke:rgb(63.529414%,70.980394%,83.529413%);stroke-opacity:1;stroke-miterlimit:4;" d="M 159.995919 14.117365 C 163.294322 13.776955 166.660186 14.007362 169.961248 14.047793 C 261.240026 13.981825 352.519691 14.042804 443.79847 13.976836 C 457.928357 37.618409 471.616588 61.643924 485.619971 85.349856 C 519.607315 143.828359 553.84811 202.241616 587.835897 260.783592 C 540.35018 341.857247 492.803205 423.248712 445.508794 504.447984 C 444.753316 505.34193 444.191361 506.67886 442.92145 506.624249 C 368.528819 506.88971 294.389195 507.026452 219.994792 507.038019 C 199.683295 507.179822 179.309654 507.512489 158.99727 507.527345 C 111.26088 425.404611 63.839641 342.962294 16.103251 260.83956 C 62.769574 180.59682 109.498928 100.290164 156.101778 20.047868 C 157.294922 18.198719 158.291442 15.462272 159.995919 14.117365 Z M 170.518899 39.371032 C 126.92555 114.26029 83.141338 189.087403 39.484516 263.977104 C 82.919441 339.147451 126.354367 414.317799 169.725819 489.488589 C 256.497984 489.454084 343.647445 488.909132 430.417394 488.55726 C 474.07466 413.731033 517.794513 338.777415 561.515251 263.950745 C 519.304489 191.374388 476.966781 118.798919 434.756462 46.286036 C 433.150571 43.567757 431.544681 40.849478 429.939233 38.194672 C 343.48798 38.734749 257.160129 38.766152 170.518899 39.371032 Z M 170.518899 39.371032 " transform="matrix(0.0615385,0.000429627,-0.000429627,0.0615385,0,0)"/>
<path style="fill-rule:nonzero;fill:rgb(0%,0%,0%);fill-opacity:1;stroke-width:13.333333;stroke-linecap:butt;stroke-linejoin:miter;stroke:rgb(100%,100%,100%);stroke-opacity:1;stroke-miterlimit:4;" d="M 429.939233 38.194672 C 431.544681 40.849478 433.150571 43.567757 434.756462 46.286036 C 476.966781 118.798919 519.304489 191.374388 561.515251 263.950745 C 517.794513 338.777415 474.07466 413.731033 430.417394 488.55726 C 343.647445 488.909132 256.497984 489.454084 169.725819 489.488589 C 126.354367 414.317799 82.919441 339.147451 39.484516 263.977104 C 83.141338 189.087403 126.92555 114.26029 170.518899 39.371032 C 257.160129 38.766152 343.48798 38.734749 429.939233 38.194672 Z M 48.497742 263.914179 C 90.518084 336.491865 132.348892 409.197826 174.305317 481.712482 C 258.155489 481.380994 342.388274 481.30074 425.856275 480.781491 C 468.134851 408.50395 510.222563 336.164264 552.501581 263.950196 C 510.226903 191.31081 467.889194 118.73534 425.678432 46.158984 C 344.493258 46.344913 263.246383 46.78518 181.996849 46.844606 C 179.775722 46.923589 177.361517 46.623061 175.207408 47.209388 C 173.509578 49.506396 172.131775 52.182029 170.689168 54.667685 C 129.91623 124.395654 89.271124 194.249683 48.497742 263.914179 Z M 48.497742 263.914179 " transform="matrix(0.0615385,0.000429627,-0.000429627,0.0615385,0,0)"/>
<path style="fill-rule:nonzero;fill:rgb(0%,0%,0%);fill-opacity:1;stroke-width:13.333333;stroke-linecap:butt;stroke-linejoin:miter;stroke:rgb(35.686275%,48.235294%,70.980394%);stroke-opacity:1;stroke-miterlimit:4;" d="M 425.678432 46.158984 C 467.889194 118.73534 510.226903 191.31081 552.501581 263.950196 C 510.222563 336.164264 468.135294 408.567423 425.856275 480.781491 C 342.388274 481.30074 258.155489 481.380994 174.305317 481.712482 C 132.348892 409.197826 90.518084 336.491865 48.497742 263.914179 C 89.271124 194.249683 129.91623 124.395654 170.689168 54.667685 C 172.131775 52.182029 173.509578 49.506396 175.207408 47.209388 C 177.361517 46.623061 179.775722 46.923589 181.996849 46.844606 C 263.246383 46.78518 344.493258 46.344913 425.678432 46.158984 Z M 385.842213 140.953639 C 385.755952 192.243272 385.923142 243.467658 385.836882 294.75729 C 328.39077 294.777487 270.881628 294.861601 213.371157 294.755294 C 213.396603 243.846945 213.229856 192.686032 213.446165 141.839828 C 201.829198 141.730501 190.213118 141.748122 178.594822 141.448375 C 178.177096 145.259883 178.2676 149.131319 178.231158 153.003641 C 186.103636 153.202586 193.910868 153.14808 201.783345 153.347025 C 201.948763 204.317518 201.73334 255.290669 201.835283 306.261605 C 267.02604 306.314292 332.216796 306.36698 397.406666 306.29272 C 397.369082 255.448288 397.386551 203.397418 397.412441 152.552543 C 405.282703 152.434121 413.155623 152.696539 421.024556 152.387697 C 421.124915 148.578405 421.098327 144.769999 421.008265 140.962036 C 409.327825 140.853153 397.585684 140.998606 385.842213 140.953639 Z M 224.765076 199.270535 C 224.781028 201.555578 224.733065 203.777592 224.685101 205.999605 C 249.856368 220.042614 274.965047 234.213014 300.136314 248.256023 C 324.728215 233.865596 349.31923 219.348221 373.847658 204.958237 L 373.871693 199.308658 C 324.169339 199.274793 274.467429 199.304401 224.765076 199.270535 Z M 224.796876 212.917765 C 224.704284 236.023866 224.802112 259.128637 224.709519 282.234738 C 274.474903 282.204687 324.177699 282.302026 373.879167 282.208944 C 373.842597 258.786363 373.8695 235.363338 373.83293 211.940757 C 351.580239 224.981847 329.391466 238.085967 307.139218 251.19053 C 304.863038 252.475951 302.589516 254.142213 300.055453 254.858146 C 297.764649 254.048945 295.660277 252.667153 293.493317 251.412751 C 270.615957 238.623257 247.67468 225.770733 224.796876 212.917765 Z M 413.892101 412.754709 C 416.319157 414.895967 418.682741 417.037667 421.110241 419.242398 C 422.875089 417.452735 424.639494 415.599597 426.340426 413.746903 C 424.295982 411.856881 422.123705 409.840798 419.952315 407.951661 C 428.512913 397.608699 428.967629 380.9112 420.515576 370.433104 C 412.893995 360.710929 397.775798 359.166086 387.537416 365.585217 C 379.954283 370.462374 376.206143 379.121348 376.141236 388.008515 C 375.757631 396.707476 378.992898 405.508126 386.139589 410.853736 C 393.925002 416.766176 405.289404 417.067696 413.892101 412.754709 Z M 174.237449 362.884906 C 174.103645 380.087977 174.286765 397.22536 174.152517 414.364958 C 175.80327 414.41691 177.454022 414.468862 179.104331 414.45734 C 179.048158 397.319072 179.245436 380.115557 179.062316 362.978174 C 177.47548 362.989253 175.824728 362.937301 174.237449 362.884906 Z M 189.662378 362.904171 C 189.528131 380.043769 189.648221 397.245068 189.57789 414.447697 L 210.969322 414.425307 C 215.412905 414.457761 219.725996 413.983314 223.709312 411.733826 C 231.233403 407.491847 232.161238 394.917018 225.206297 389.760498 C 223.419735 388.439964 221.193734 387.820739 219.094236 387.137155 C 221.246129 386.233461 223.209373 385.584989 224.783801 383.796655 C 229.258066 379.131632 229.068194 370.119291 223.709395 366.284635 C 219.816688 363.328416 214.673568 363.110416 209.974762 362.889314 C 203.182218 362.809783 196.454478 362.920229 189.662378 362.904171 Z M 237.587032 362.886971 C 237.516259 380.026126 237.572875 397.227868 237.502544 414.430497 L 242.517388 414.458962 C 242.540642 399.605294 242.500421 384.752068 242.587148 369.897957 C 248.720817 384.708641 254.285442 399.840681 260.545615 414.587006 C 262.00506 414.51334 263.464506 414.439674 264.987425 414.365566 C 270.91548 399.724579 276.588311 384.894945 282.579839 370.253516 C 282.809594 384.978465 282.594591 399.643042 282.633925 414.369321 C 284.221204 414.421716 285.871956 414.473668 287.522708 414.52562 C 287.720429 397.385578 287.536866 380.184722 287.607639 363.045567 C 285.448656 362.933687 283.161397 362.632273 281.069433 363.027737 C 279.929127 363.35308 279.688084 365.195582 279.186944 366.151229 C 273.761802 380.090463 268.209714 394.030582 262.784572 407.969816 C 256.524399 393.223491 251.022362 377.964062 244.762189 363.217737 C 242.472714 362.598955 239.935549 362.870575 237.587032 362.886971 Z M 314.181548 414.339503 C 317.73739 414.505108 321.291458 414.416819 324.84597 414.392003 C 324.954411 402.648089 324.681567 390.843361 324.979985 379.034645 C 329.757669 390.554017 333.397263 402.716099 337.731963 414.428994 L 346.364792 414.432201 C 350.852899 402.657711 354.385359 390.38208 359.128246 378.732764 C 359.401533 390.600966 359.230948 402.535743 359.186868 414.406161 C 362.741823 414.444819 366.232862 414.420446 369.787374 414.395631 C 369.667727 397.257805 369.801974 380.118207 369.745801 362.979938 C 364.413147 362.890214 358.951773 362.547483 353.68791 363.218998 C 351.331755 371.233489 348.593429 379.060219 346.109884 387.012123 C 344.80353 390.829834 344.067994 394.580084 342.25208 398.147447 C 338.298221 386.431894 334.281775 374.843731 330.391389 363.127735 C 325.120436 362.783674 319.724308 362.694394 314.395199 363.112458 C 314.069645 380.126439 314.506659 397.262049 314.181548 414.339503 Z M 314.181548 414.339503 " transform="matrix(0.0615385,0.000429627,-0.000429627,0.0615385,0,0)"/>
<path style="fill-rule:nonzero;fill:rgb(0%,0%,0%);fill-opacity:1;stroke-width:13.333333;stroke-linecap:butt;stroke-linejoin:miter;stroke:rgb(63.529414%,70.980394%,83.529413%);stroke-opacity:1;stroke-miterlimit:4;" d="M 385.842213 140.953639 C 397.585684 140.998606 409.327825 140.853153 421.008265 140.962036 C 421.098327 144.769999 421.124915 148.578405 421.024556 152.387697 C 413.155623 152.696539 405.282703 152.434121 397.412441 152.552543 C 397.386551 203.397418 397.369082 255.448288 397.406666 306.29272 C 332.216796 306.36698 267.02604 306.314292 201.835283 306.261605 C 201.73334 255.290669 201.948763 204.317518 201.783345 153.347025 C 193.910868 153.14808 186.103636 153.202586 178.231158 153.003641 C 178.2676 149.131319 178.177096 145.259883 178.594822 141.448375 C 190.213118 141.748122 201.829198 141.730501 213.446165 141.839828 C 213.229856 192.686032 213.396603 243.846945 213.371157 294.755294 C 270.881628 294.861601 328.39077 294.777487 385.836882 294.75729 C 385.923142 243.467658 385.755952 192.243272 385.842213 140.953639 Z M 385.842213 140.953639 " transform="matrix(0.0615385,0.000429627,-0.000429627,0.0615385,0,0)"/>
<path style="fill-rule:nonzero;fill:rgb(0%,0%,0%);fill-opacity:1;stroke-width:13.333333;stroke-linecap:butt;stroke-linejoin:miter;stroke:rgb(100%,100%,100%);stroke-opacity:1;stroke-miterlimit:4;" d="M 224.765076 199.270535 C 274.467429 199.304401 324.169339 199.274793 373.871693 199.308658 L 373.847658 204.958237 C 349.31923 219.348221 324.728215 233.865596 300.136314 248.256023 C 274.965047 234.213014 249.856368 220.042614 224.685101 205.999605 C 224.733065 203.777592 224.781028 201.555578 224.765076 199.270535 Z M 373.83293 211.940757 C 373.8695 235.363338 373.842597 258.786363 373.879167 282.208944 C 324.177699 282.302026 274.474903 282.204687 224.709519 282.234738 C 224.802112 259.128637 224.704284 236.023866 224.796876 212.917765 C 247.67468 225.770733 270.615957 238.623257 293.493317 251.412751 C 295.660277 252.667153 297.764649 254.048945 300.055453 254.858146 C 302.589516 254.142213 304.863038 252.475951 307.139218 251.19053 C 329.391466 238.085967 351.580239 224.981847 373.83293 211.940757 Z M 420.515576 370.433104 C 428.967629 380.9112 428.512913 397.608699 419.952315 407.951661 C 422.123705 409.840798 424.295982 411.856881 426.340426 413.746903 C 424.639494 415.599597 422.875089 417.452735 421.110241 419.242398 C 418.682741 417.037667 416.319157 414.895967 413.892101 412.754709 C 405.289404 417.067696 393.925002 416.766176 386.139589 410.853736 C 378.992898 405.508126 375.757631 396.707476 376.141236 388.008515 C 376.206143 379.121348 379.954283 370.462374 387.537416 365.585217 C 397.775798 359.166086 412.893995 360.710929 420.515576 370.433104 Z M 405.720529 406.083247 C 404.626858 403.996157 402.83941 402.548676 401.051518 401.037722 C 402.81548 399.121111 404.516412 397.268417 406.344734 395.47831 C 408.261344 397.242272 410.241871 399.069264 412.221955 400.832783 C 416.488961 393.757099 416.47843 383.156594 411.796568 376.270339 C 407.116922 369.701451 395.817765 369.653382 391.101572 376.03396 C 387.705469 380.564503 386.985886 386.599797 387.531783 392.054966 C 388.009775 396.875845 390.20288 401.875179 394.536798 404.383983 C 398.105934 406.453791 401.786063 406.237669 405.720529 406.083247 Z M 174.237449 362.884906 C 175.824728 362.937301 177.47548 362.989253 179.062316 362.978174 C 179.245436 380.115557 179.048158 397.319072 179.104331 414.45734 C 177.454022 414.468862 175.80327 414.41691 174.152517 414.364958 C 174.286765 397.22536 174.103645 380.087977 174.237449 362.884906 Z M 189.662378 362.904171 C 196.454478 362.920229 203.182218 362.809783 209.974762 362.889314 C 214.673568 363.110416 219.816688 363.328416 223.709395 366.284635 C 229.068194 370.119291 229.258066 379.131632 224.783801 383.796655 C 223.209373 385.584989 221.246129 386.233461 219.094236 387.137155 C 221.193734 387.820739 223.419735 388.439964 225.206297 389.760498 C 232.161238 394.917018 231.233403 407.491847 223.709312 411.733826 C 219.725996 413.983314 215.412905 414.457761 210.969322 414.425307 L 189.57789 414.447697 C 189.648221 397.245068 189.528131 380.043769 189.662378 362.904171 Z M 194.642996 367.122326 C 194.55859 373.216661 194.601574 379.373584 194.580641 385.467476 C 200.42064 385.490181 206.261525 385.639833 212.036721 385.472561 C 215.9086 385.445529 219.772946 384.33945 221.970586 380.896375 C 224.291629 376.944626 222.91393 370.543116 218.45661 368.542986 C 215.844893 367.228212 212.988589 367.248153 210.004452 367.142034 C 204.863104 367.177928 199.78523 367.213379 194.642996 367.122326 Z M 194.610332 389.720196 C 194.5308 396.512739 194.642132 403.367426 194.626517 410.222999 C 201.036891 410.114769 207.576869 410.386494 214.04983 410.150873 C 218.300334 409.803816 222.352441 408.315567 224.228283 404.239973 C 225.408577 400.550095 225.436599 395.471777 222.180399 392.76502 C 219.17898 390.183437 214.796654 389.833172 210.987362 389.732814 C 205.528204 389.70745 200.06949 389.74556 194.610332 389.720196 Z M 237.587032 362.886971 C 239.935549 362.870575 242.472714 362.598955 244.762189 363.217737 C 251.022362 377.964062 256.524399 393.223491 262.784572 407.969816 C 268.209714 394.030582 273.761802 380.090463 279.186944 366.151229 C 279.688084 365.195582 279.929127 363.35308 281.069433 363.027737 C 283.161397 362.632273 285.448656 362.933687 287.607639 363.045567 C 287.536866 380.184722 287.720429 397.385578 287.522708 414.52562 C 285.871956 414.473668 284.221204 414.421716 282.633925 414.369321 C 282.594591 399.643042 282.809594 384.978465 282.579839 370.253516 C 276.588311 384.894945 270.91548 399.724579 264.987425 414.365566 C 263.464506 414.439674 262.00506 414.51334 260.545615 414.587006 C 254.285442 399.840681 248.720817 384.708641 242.587148 369.897957 C 242.500421 384.752068 242.540642 399.605294 242.517388 414.458962 L 237.502544 414.430497 C 237.572875 397.227868 237.516259 380.026126 237.587032 362.886971 Z M 314.395199 363.112458 C 319.724308 362.694394 325.120436 362.783674 330.391389 363.127735 C 334.281775 374.843731 338.298221 386.431894 342.25208 398.147447 C 344.067994 394.580084 344.80353 390.829834 346.109884 387.012123 C 348.593429 379.060219 351.331755 371.233489 353.68791 363.218998 C 358.951773 362.547483 364.413147 362.890214 369.745801 362.979938 C 369.801974 380.118207 369.667727 397.257805 369.787374 414.395631 C 366.232862 414.420446 362.741823 414.444819 359.186868 414.406161 C 359.230948 402.535743 359.401533 390.600966 359.128246 378.732764 C 354.385359 390.38208 350.852899 402.657711 346.364792 414.432201 L 337.731963 414.428994 C 333.397263 402.716099 329.757669 390.554017 324.979985 379.034645 C 324.681567 390.843361 324.954411 402.648089 324.84597 414.392003 C 321.291458 414.416819 317.73739 414.505108 314.181548 414.339503 C 314.506659 397.262049 314.069645 380.126439 314.395199 363.112458 Z M 314.395199 363.112458 " transform="matrix(0.0615385,0.000429627,-0.000429627,0.0615385,0,0)"/>
<path style="fill-rule:nonzero;fill:rgb(0%,0%,0%);fill-opacity:1;stroke-width:13.333333;stroke-linecap:butt;stroke-linejoin:miter;stroke:rgb(35.686275%,48.235294%,70.980394%);stroke-opacity:1;stroke-miterlimit:4;" d="M 194.642996 367.122326 C 199.78523 367.213379 204.863104 367.177928 210.004452 367.142034 C 212.988589 367.248153 215.844893 367.228212 218.45661 368.542986 C 222.91393 370.543116 224.291629 376.944626 221.970586 380.896375 C 219.772946 384.33945 215.9086 385.445529 212.036721 385.472561 C 206.261525 385.639833 200.42064 385.490181 194.580641 385.467476 C 194.601574 379.373584 194.55859 373.216661 194.642996 367.122326 Z M 411.796568 376.270339 C 416.47843 383.156594 416.488961 393.757099 412.221955 400.832783 C 410.241871 399.069264 408.261344 397.242272 406.344734 395.47831 C 404.516412 397.268417 402.81548 399.121111 401.051518 401.037722 C 402.83941 402.548676 404.626858 403.996157 405.720529 406.083247 C 401.786063 406.237669 398.105934 406.453791 394.536798 404.383983 C 390.20288 401.875179 388.009775 396.875845 387.531783 392.054966 C 386.985886 386.599797 387.705469 380.564503 391.101572 376.03396 C 395.817765 369.653382 407.116922 369.701451 411.796568 376.270339 Z M 194.610332 389.720196 C 200.06949 389.74556 205.528204 389.70745 210.987362 389.732814 C 214.796654 389.833172 219.17898 390.183437 222.180399 392.76502 C 225.436599 395.471777 225.408577 400.550095 224.228283 404.239973 C 222.352441 408.315567 218.300334 409.803816 214.04983 410.150873 C 207.576869 410.386494 201.036891 410.114769 194.626517 410.222999 C 194.642132 403.367426 194.5308 396.512739 194.610332 389.720196 Z M 194.610332 389.720196 " transform="matrix(0.0615385,0.000429627,-0.000429627,0.0615385,0,0)"/>
<path style=" stroke:none;fill-rule:nonzero;fill:rgb(100%,100%,100%);fill-opacity:1;" d="M 0 0 L 36.921875 0 L 36.921875 32 L 0 32 Z M 0.992188 16.050781 C 3.929688 21.105469 6.847656 26.179688 9.785156 31.234375 C 11.035156 31.230469 12.289062 31.210938 13.539062 31.203125 C 18.117188 31.203125 22.679688 31.191406 27.257812 31.175781 C 27.335938 31.179688 27.371094 31.097656 27.414062 31.042969 C 30.328125 26.046875 33.253906 21.039062 36.175781 16.046875 C 34.082031 12.445312 31.976562 8.851562 29.882812 5.253906 C 29.023438 3.792969 28.179688 2.316406 27.3125 0.859375 C 21.695312 0.863281 16.078125 0.859375 10.460938 0.863281 C 10.257812 0.863281 10.050781 0.847656 9.847656 0.867188 C 9.742188 0.953125 9.679688 1.121094 9.605469 1.234375 C 6.738281 6.171875 3.863281 11.113281 0.992188 16.050781 M 0.992188 16.050781 "/>
<path style=" stroke:none;fill-rule:nonzero;fill:rgb(63.529414%,70.980394%,83.529413%);fill-opacity:1;" d="M 9.847656 0.867188 C 10.050781 0.847656 10.257812 0.863281 10.460938 0.863281 C 16.078125 0.859375 21.695312 0.863281 27.3125 0.859375 C 28.179688 2.316406 29.023438 3.792969 29.882812 5.253906 C 31.976562 8.851562 34.082031 12.445312 36.175781 16.046875 C 33.253906 21.039062 30.328125 26.046875 27.414062 31.042969 C 27.371094 31.097656 27.335938 31.179688 27.257812 31.175781 C 22.679688 31.191406 18.117188 31.203125 13.539062 31.203125 C 12.289062 31.210938 11.035156 31.230469 9.785156 31.234375 C 6.847656 26.179688 3.929688 21.105469 0.992188 16.050781 C 3.863281 11.113281 6.738281 6.171875 9.605469 1.234375 C 9.679688 1.121094 9.742188 0.953125 9.847656 0.867188 M 10.492188 2.421875 C 7.8125 7.03125 5.117188 11.636719 2.429688 16.246094 C 5.101562 20.871094 7.777344 25.496094 10.445312 30.121094 C 15.785156 30.121094 21.148438 30.085938 26.488281 30.066406 C 29.175781 25.460938 31.863281 20.847656 34.554688 16.242188 C 31.957031 11.777344 29.351562 7.3125 26.753906 2.847656 C 26.65625 2.679688 26.558594 2.515625 26.457031 2.351562 C 21.136719 2.382812 15.824219 2.386719 10.492188 2.421875 M 10.492188 2.421875 "/>
<path style=" stroke:none;fill-rule:nonzero;fill:rgb(100%,100%,100%);fill-opacity:1;" d="M 26.457031 2.351562 C 26.558594 2.515625 26.65625 2.679688 26.753906 2.847656 C 29.351562 7.3125 31.957031 11.777344 34.554688 16.242188 C 31.863281 20.847656 29.175781 25.460938 26.488281 30.066406 C 21.148438 30.085938 15.785156 30.121094 10.445312 30.121094 C 7.777344 25.496094 5.101562 20.871094 2.429688 16.246094 C 5.117188 11.636719 7.8125 7.03125 10.492188 2.421875 C 15.824219 2.386719 21.136719 2.382812 26.457031 2.351562 M 2.984375 16.242188 C 5.570312 20.707031 8.144531 25.179688 10.726562 29.644531 C 15.886719 29.625 21.070312 29.617188 26.207031 29.585938 C 28.808594 25.140625 31.398438 20.6875 34 16.242188 C 31.398438 11.773438 28.792969 7.308594 26.195312 2.839844 C 21.199219 2.851562 16.199219 2.878906 11.199219 2.882812 C 11.0625 2.886719 10.914062 2.867188 10.78125 2.90625 C 10.675781 3.046875 10.59375 3.210938 10.503906 3.363281 C 7.996094 7.65625 5.492188 11.953125 2.984375 16.242188 M 2.984375 16.242188 "/>
<path style=" stroke:none;fill-rule:nonzero;fill:rgb(35.686275%,48.235294%,70.980394%);fill-opacity:1;" d="M 26.195312 2.839844 C 28.792969 7.308594 31.398438 11.773438 34 16.242188 C 31.398438 20.6875 28.808594 25.140625 26.207031 29.585938 C 21.070312 29.617188 15.886719 29.625 10.726562 29.644531 C 8.144531 25.179688 5.570312 20.707031 2.984375 16.242188 C 5.492188 11.953125 7.996094 7.65625 10.503906 3.363281 C 10.59375 3.210938 10.675781 3.046875 10.78125 2.90625 C 10.914062 2.867188 11.0625 2.886719 11.199219 2.882812 C 16.199219 2.878906 21.199219 2.851562 26.195312 2.839844 M 23.746094 8.675781 C 23.738281 11.832031 23.75 14.984375 23.742188 18.140625 C 20.207031 18.140625 16.667969 18.144531 13.128906 18.140625 C 13.132812 15.007812 13.121094 11.859375 13.136719 8.730469 C 12.421875 8.722656 11.707031 8.722656 10.992188 8.703125 C 10.964844 8.9375 10.96875 9.175781 10.96875 9.414062 C 11.453125 9.429688 11.933594 9.425781 12.417969 9.4375 C 12.425781 12.574219 12.414062 15.710938 12.421875 18.847656 C 16.433594 18.851562 20.445312 18.851562 24.457031 18.847656 C 24.453125 15.695312 24.453125 12.539062 24.457031 9.386719 C 24.941406 9.378906 25.425781 9.398438 25.910156 9.378906 C 25.914062 9.144531 25.914062 8.910156 25.90625 8.675781 C 25.1875 8.667969 24.46875 8.675781 23.746094 8.675781 M 13.832031 12.261719 C 13.832031 12.402344 13.828125 12.539062 13.828125 12.675781 C 15.375 13.542969 16.921875 14.414062 18.46875 15.277344 C 19.984375 14.390625 21.496094 13.5 23.007812 12.613281 L 23.007812 12.265625 C 19.949219 12.261719 16.890625 12.265625 13.832031 12.261719 M 13.832031 13.101562 C 13.828125 14.523438 13.832031 15.945312 13.828125 17.367188 C 16.890625 17.367188 19.949219 17.371094 23.007812 17.367188 C 23.003906 15.925781 23.007812 14.484375 23.003906 13.042969 C 21.636719 13.84375 20.269531 14.652344 18.902344 15.457031 C 18.761719 15.535156 18.621094 15.640625 18.464844 15.683594 C 18.324219 15.632812 18.195312 15.546875 18.0625 15.472656 C 16.652344 14.683594 15.242188 13.894531 13.832031 13.101562 M 25.46875 25.398438 C 25.617188 25.53125 25.765625 25.664062 25.914062 25.800781 C 26.023438 25.6875 26.132812 25.574219 26.238281 25.460938 C 26.109375 25.34375 25.976562 25.222656 25.84375 25.105469 C 26.371094 24.46875 26.398438 23.441406 25.878906 22.796875 C 25.410156 22.199219 24.476562 22.101562 23.847656 22.496094 C 23.382812 22.796875 23.152344 23.332031 23.148438 23.878906 C 23.125 24.414062 23.324219 24.953125 23.761719 25.285156 C 24.242188 25.648438 24.941406 25.664062 25.46875 25.398438 M 10.722656 22.332031 C 10.714844 23.390625 10.726562 24.445312 10.71875 25.5 C 10.820312 25.503906 10.921875 25.503906 11.023438 25.503906 C 11.019531 24.449219 11.03125 23.390625 11.019531 22.335938 C 10.921875 22.335938 10.820312 22.335938 10.722656 22.332031 M 11.671875 22.332031 C 11.664062 23.386719 11.671875 24.445312 11.667969 25.503906 L 12.984375 25.503906 C 13.257812 25.503906 13.523438 25.476562 13.765625 25.335938 C 14.230469 25.078125 14.285156 24.300781 13.859375 23.984375 C 13.75 23.902344 13.613281 23.867188 13.484375 23.824219 C 13.613281 23.769531 13.734375 23.726562 13.832031 23.617188 C 14.109375 23.332031 14.097656 22.777344 13.765625 22.539062 C 13.527344 22.359375 13.210938 22.34375 12.921875 22.332031 C 12.503906 22.328125 12.089844 22.332031 11.671875 22.332031 M 14.621094 22.332031 C 14.617188 23.386719 14.621094 24.445312 14.617188 25.503906 L 14.925781 25.503906 C 14.925781 24.589844 14.921875 23.675781 14.929688 22.761719 C 15.304688 23.675781 15.648438 24.605469 16.035156 25.511719 L 16.308594 25.5 C 16.671875 24.597656 17.019531 23.6875 17.390625 22.785156 C 17.402344 23.691406 17.390625 24.59375 17.394531 25.5 C 17.492188 25.503906 17.59375 25.507812 17.695312 25.507812 C 17.707031 24.453125 17.695312 23.394531 17.699219 22.339844 C 17.566406 22.335938 17.425781 22.316406 17.296875 22.339844 C 17.226562 22.359375 17.210938 22.472656 17.179688 22.53125 C 16.847656 23.390625 16.503906 24.246094 16.171875 25.105469 C 15.785156 24.199219 15.449219 23.257812 15.0625 22.351562 C 14.921875 22.3125 14.765625 22.332031 14.621094 22.332031 M 19.335938 25.496094 C 19.554688 25.507812 19.773438 25.503906 19.992188 25.5 C 19.996094 24.777344 19.980469 24.050781 20 23.324219 C 20.292969 24.035156 20.515625 24.78125 20.785156 25.503906 L 21.316406 25.503906 C 21.589844 24.777344 21.808594 24.023438 22.101562 23.304688 C 22.117188 24.035156 22.105469 24.769531 22.105469 25.5 C 22.324219 25.503906 22.539062 25.503906 22.757812 25.5 C 22.75 24.445312 22.757812 23.390625 22.753906 22.335938 C 22.425781 22.332031 22.089844 22.3125 21.765625 22.351562 C 21.621094 22.84375 21.453125 23.328125 21.300781 23.816406 C 21.21875 24.050781 21.171875 24.28125 21.0625 24.5 C 20.820312 23.78125 20.570312 23.066406 20.332031 22.347656 C 20.003906 22.324219 19.675781 22.320312 19.347656 22.34375 C 19.328125 23.390625 19.355469 24.445312 19.335938 25.496094 M 19.335938 25.496094 "/>
<path style=" stroke:none;fill-rule:nonzero;fill:rgb(63.529414%,70.980394%,83.529413%);fill-opacity:1;" d="M 23.746094 8.675781 C 24.46875 8.675781 25.1875 8.667969 25.90625 8.675781 C 25.914062 8.910156 25.914062 9.144531 25.910156 9.378906 C 25.425781 9.398438 24.941406 9.378906 24.457031 9.386719 C 24.453125 12.539062 24.453125 15.695312 24.457031 18.847656 C 20.445312 18.851562 16.433594 18.851562 12.421875 18.847656 C 12.414062 15.710938 12.425781 12.574219 12.417969 9.4375 C 11.933594 9.425781 11.453125 9.429688 10.96875 9.414062 C 10.96875 9.175781 10.964844 8.9375 10.992188 8.703125 C 11.707031 8.722656 12.421875 8.722656 13.136719 8.730469 C 13.121094 11.859375 13.132812 15.007812 13.128906 18.140625 C 16.667969 18.144531 20.207031 18.140625 23.742188 18.140625 C 23.75 14.984375 23.738281 11.832031 23.746094 8.675781 M 23.746094 8.675781 "/>
<path style=" stroke:none;fill-rule:nonzero;fill:rgb(100%,100%,100%);fill-opacity:1;" d="M 13.832031 12.261719 C 16.890625 12.265625 19.949219 12.261719 23.007812 12.265625 L 23.007812 12.613281 C 21.496094 13.5 19.984375 14.390625 18.46875 15.277344 C 16.921875 14.414062 15.375 13.542969 13.828125 12.675781 C 13.828125 12.539062 13.832031 12.402344 13.832031 12.261719 M 23.003906 13.042969 C 23.007812 14.484375 23.003906 15.925781 23.007812 17.367188 C 19.949219 17.371094 16.890625 17.367188 13.828125 17.367188 C 13.832031 15.945312 13.828125 14.523438 13.832031 13.101562 C 15.242188 13.894531 16.652344 14.683594 18.0625 15.472656 C 18.195312 15.546875 18.324219 15.632812 18.464844 15.683594 C 18.621094 15.640625 18.761719 15.535156 18.902344 15.457031 C 20.269531 14.652344 21.636719 13.84375 23.003906 13.042969 M 25.878906 22.796875 C 26.398438 23.441406 26.371094 24.46875 25.84375 25.105469 C 25.976562 25.222656 26.109375 25.34375 26.238281 25.460938 C 26.132812 25.574219 26.023438 25.6875 25.914062 25.800781 C 25.765625 25.664062 25.617188 25.53125 25.46875 25.398438 C 24.941406 25.664062 24.242188 25.648438 23.761719 25.285156 C 23.324219 24.953125 23.125 24.414062 23.148438 23.878906 C 23.152344 23.332031 23.382812 22.796875 23.847656 22.496094 C 24.476562 22.101562 25.410156 22.199219 25.878906 22.796875 M 24.96875 24.988281 C 24.898438 24.859375 24.789062 24.773438 24.679688 24.679688 L 25.003906 24.335938 C 25.125 24.445312 25.246094 24.558594 25.367188 24.667969 C 25.628906 24.230469 25.628906 23.578125 25.339844 23.15625 C 25.054688 22.75 24.359375 22.746094 24.066406 23.140625 C 23.859375 23.417969 23.816406 23.789062 23.847656 24.125 C 23.878906 24.421875 24.011719 24.730469 24.277344 24.886719 C 24.5 25.011719 24.726562 25 24.96875 24.988281 M 10.722656 22.332031 C 10.820312 22.335938 10.921875 22.335938 11.019531 22.335938 C 11.03125 23.390625 11.019531 24.449219 11.023438 25.503906 C 10.921875 25.503906 10.820312 25.503906 10.71875 25.5 C 10.726562 24.445312 10.714844 23.390625 10.722656 22.332031 M 11.671875 22.332031 C 12.089844 22.332031 12.503906 22.328125 12.921875 22.332031 C 13.210938 22.34375 13.527344 22.359375 13.765625 22.539062 C 14.097656 22.777344 14.109375 23.332031 13.832031 23.617188 C 13.734375 23.726562 13.613281 23.769531 13.484375 23.824219 C 13.613281 23.867188 13.75 23.902344 13.859375 23.984375 C 14.285156 24.300781 14.230469 25.078125 13.765625 25.335938 C 13.523438 25.476562 13.257812 25.503906 12.984375 25.503906 L 11.667969 25.503906 C 11.671875 24.445312 11.664062 23.386719 11.671875 22.332031 M 11.976562 22.59375 C 11.972656 22.96875 11.976562 23.347656 11.972656 23.722656 C 12.332031 23.722656 12.691406 23.730469 13.046875 23.722656 C 13.285156 23.71875 13.523438 23.652344 13.660156 23.441406 C 13.800781 23.195312 13.71875 22.800781 13.445312 22.679688 C 13.28125 22.597656 13.105469 22.601562 12.921875 22.59375 C 12.605469 22.59375 12.292969 22.597656 11.976562 22.59375 M 11.976562 23.984375 C 11.972656 24.402344 11.976562 24.824219 11.976562 25.246094 C 12.371094 25.238281 12.773438 25.253906 13.171875 25.238281 C 13.433594 25.21875 13.683594 25.128906 13.796875 24.875 C 13.871094 24.648438 13.871094 24.335938 13.671875 24.171875 C 13.488281 24.011719 13.21875 23.988281 12.984375 23.984375 C 12.648438 23.980469 12.3125 23.984375 11.976562 23.984375 M 14.621094 22.332031 C 14.765625 22.332031 14.921875 22.3125 15.0625 22.351562 C 15.449219 23.257812 15.785156 24.199219 16.171875 25.105469 C 16.503906 24.246094 16.847656 23.390625 17.179688 22.53125 C 17.210938 22.472656 17.226562 22.359375 17.296875 22.339844 C 17.425781 22.316406 17.566406 22.335938 17.699219 22.339844 C 17.695312 23.394531 17.707031 24.453125 17.695312 25.507812 C 17.59375 25.507812 17.492188 25.503906 17.394531 25.5 C 17.390625 24.59375 17.402344 23.691406 17.390625 22.785156 C 17.019531 23.6875 16.671875 24.597656 16.308594 25.5 L 16.035156 25.511719 C 15.648438 24.605469 15.304688 23.675781 14.929688 22.761719 C 14.921875 23.675781 14.925781 24.589844 14.925781 25.503906 L 14.617188 25.503906 C 14.621094 24.445312 14.617188 23.386719 14.621094 22.332031 M 19.347656 22.34375 C 19.675781 22.320312 20.007812 22.324219 20.332031 22.347656 C 20.570312 23.066406 20.820312 23.78125 21.0625 24.5 C 21.171875 24.28125 21.21875 24.050781 21.300781 23.816406 C 21.453125 23.328125 21.621094 22.84375 21.765625 22.351562 C 22.089844 22.3125 22.425781 22.332031 22.753906 22.335938 C 22.757812 23.390625 22.75 24.445312 22.757812 25.5 C 22.539062 25.503906 22.324219 25.503906 22.105469 25.5 C 22.105469 24.769531 22.117188 24.035156 22.101562 23.304688 C 21.808594 24.023438 21.589844 24.777344 21.316406 25.503906 L 20.785156 25.503906 C 20.515625 24.78125 20.292969 24.035156 20 23.324219 C 19.980469 24.050781 19.996094 24.777344 19.992188 25.5 C 19.773438 25.503906 19.554688 25.507812 19.335938 25.496094 C 19.355469 24.445312 19.328125 23.390625 19.347656 22.34375 M 19.347656 22.34375 "/>
<path style=" stroke:none;fill-rule:nonzero;fill:rgb(35.686275%,48.235294%,70.980394%);fill-opacity:1;" d="M 11.976562 22.59375 C 12.292969 22.597656 12.605469 22.59375 12.921875 22.59375 C 13.105469 22.601562 13.28125 22.597656 13.445312 22.679688 C 13.71875 22.800781 13.800781 23.195312 13.660156 23.441406 C 13.523438 23.652344 13.285156 23.71875 13.046875 23.722656 C 12.691406 23.730469 12.332031 23.722656 11.972656 23.722656 C 11.976562 23.347656 11.972656 22.96875 11.976562 22.59375 M 25.339844 23.15625 C 25.628906 23.578125 25.628906 24.230469 25.367188 24.667969 C 25.246094 24.558594 25.125 24.445312 25.003906 24.335938 C 24.894531 24.449219 24.789062 24.5625 24.679688 24.679688 C 24.789062 24.773438 24.898438 24.859375 24.96875 24.988281 C 24.726562 25 24.5 25.011719 24.277344 24.886719 C 24.011719 24.730469 23.878906 24.421875 23.847656 24.125 C 23.816406 23.789062 23.859375 23.417969 24.066406 23.140625 C 24.359375 22.746094 25.054688 22.75 25.339844 23.15625 M 11.976562 23.984375 C 12.3125 23.984375 12.648438 23.980469 12.984375 23.984375 C 13.21875 23.988281 13.488281 24.011719 13.671875 24.171875 C 13.871094 24.335938 13.871094 24.648438 13.796875 24.875 C 13.683594 25.128906 13.433594 25.21875 13.171875 25.238281 C 12.773438 25.253906 12.371094 25.238281 11.976562 25.246094 C 11.976562 24.824219 11.972656 24.402344 11.976562 23.984375 M 11.976562 23.984375 "/>
</g>
</svg>
