<svg xmlns="http://www.w3.org/2000/svg" width="34" height="28" stroke="#000" stroke-linecap="round" stroke-linejoin="round" fill="#fff" fill-rule="evenodd"><defs><linearGradient id="A" x1="82.44%" y1="-12.39%" x2="21.72%" y2="104.27%"><stop offset="0%" stop-color="#50ffd2"/><stop offset="1%" stop-color="#0064ff"/></linearGradient></defs><g stroke="none" fill="url(#A)" fill-rule="nonzero"><path d="M4.2434 10.6491c-.1022 0-.2045-.0321-.3068-.0803L1.0738 9.0109c-.2726-.1285-.3919-.4337-.2896-.7067.1193-.2891.4601-.4497.7838-.3373l.1023.0482L4.533 9.573c.2898.1446.409.4979.2557.771-.1023.1926-.3068.3051-.5453.3051zm4.9587-4.6576c-.2215 0-.4089-.1125-.5282-.2891L7.021 3.0041c-.1534-.2409-.1023-.5621.1192-.7548.2556-.2088.6305-.1767.8521.0642.017.0321.0511.0482.0681.0803l1.6529 2.6983c.1704.2569.1023.5942-.1533.7869-.1193.0803-.2386.1125-.3579.1125zm6.1346-2.3128V.6111c0-.3213.2385-.5782.5793-.6103.3409-.0161.6135.2248.6305.546v3.1801c0 .3212-.2726.5782-.6134.5782h-.0341c-.3067-.0482-.5623-.3213-.5623-.6264zm7.3614 2.3128c-.1192 0-.2385-.0322-.3408-.0964a.576.576 0 0 1-.1533-.787l1.6529-2.6982c.1704-.273.5453-.3694.8349-.2088.0341.0161.0682.0321.0853.0643.2215.1927.2726.5139.1193.7548l-1.653 2.6982a.69.69 0 0 1-.5453.2731zm4.9418 4.6576c-.2216 0-.4261-.1125-.5453-.3051-.1363-.2892-.0341-.6264.2555-.771l2.8288-1.5418c.2556-.1446.5793-.0964.7838.1124.2216.2409.1875.5943-.0681.803-.0341.0161-.0511.0482-.0852.0643l-2.8969 1.574c-.0511.0321-.1533.0642-.2726.0642z"/><path d="M8.2649 23.6905c-4.2431-3.9991-4.2431-10.4877 0-14.4868s11.1274-3.9992 15.3704 0a11.317 11.317 0 0 1 .8691.9154 10.828 10.828 0 0 1 .5282.6907l-1.0053.6263c-.1534-.2088-.3068-.4176-.4772-.6103-.2385-.2891-.4941-.5621-.7668-.8191-3.7659-3.5494-9.8834-3.5494-13.6664 0-3.7659 3.5494-3.7659 9.3153 0 12.8808z"/><path d="M23.7035 26.6939H6.9698c-3.8852-.0321-7.0036-3.0034-6.9695-6.6652l1.2099.016c-.0171 3.0195 2.556 5.4928 5.7596 5.525h16.7167c3.9193 0 7.0887-2.9874 7.1058-6.6813 0-1.6382-.6475-3.2283-1.8063-4.4649l.9032-.7549c3.0502 3.2282 2.7605 8.175-.6476 11.0498-1.5336 1.2688-3.4933 1.9755-5.5381 1.9755z"/><path d="M1.2101 20.0287l-1.2099-.0161c.0171-3.2121 2.4879-5.9425 5.8449-6.4725l.2045 1.1243c-2.7776.4497-4.8225 2.7142-4.8395 5.3643z"/><path d="M16.5977 18.808l-1.2099-.016c.0341-4.3204 3.783-7.8056 8.3669-7.7735 2.3345.0161 4.5668.9637 6.1345 2.6019l-.9032.7548c-2.6071-2.7464-7.1058-2.9873-10.0197-.53-1.4825 1.2849-2.3516 3.0837-2.3686 4.9628z"/></g></svg>