<?xml version="1.0" encoding="UTF-8" standalone="no"?>
<!DOCTYPE svg PUBLIC "-//W3C//DTD SVG 1.1//EN" "http://www.w3.org/Graphics/SVG/1.1/DTD/svg11.dtd">
<svg xmlns="http://www.w3.org/2000/svg" version="1.1" viewBox="0 0 600 520" width="600.0pt" height="520.0pt" xmlns:xlink="http://www.w3.org/1999/xlink">
<defs>
<path d="M 0.00 0.00 L 600.00 0.00 L 600.00 520.00 L 0.00 520.00 L 0.00 0.00 Z M 16.13 260.81 C 63.84 342.97 111.26 425.44 158.99 507.58 C 179.31 507.49 199.67 507.16 220.00 507.02 C 294.40 507.07 368.53 506.84 442.92 506.58 C 444.23 506.70 444.80 505.33 445.46 504.45 C 492.82 423.27 540.40 341.90 587.83 260.73 C 553.85 202.26 519.65 143.82 485.60 85.39 C 471.64 61.62 457.95 37.64 443.81 13.99 C 352.54 14.02 261.27 13.99 170.00 14.00 C 166.68 14.05 163.32 13.80 160.01 14.09 C 158.30 15.48 157.31 18.19 156.09 20.06 C 109.47 100.31 62.76 180.57 16.13 260.81 Z" id="p0" />
<path d="M 160.01 14.09 C 163.32 13.80 166.68 14.05 170.00 14.00 C 261.27 13.99 352.54 14.02 443.81 13.99 C 457.95 37.64 471.64 61.62 485.60 85.39 C 519.65 143.82 553.85 202.26 587.83 260.73 C 540.40 341.90 492.82 423.27 445.46 504.45 C 444.80 505.33 444.23 506.70 442.92 506.58 C 368.53 506.84 294.40 507.07 220.00 507.02 C 199.67 507.16 179.31 507.49 158.99 507.58 C 111.26 425.44 63.84 342.97 16.13 260.81 C 62.76 180.57 109.47 100.31 156.09 20.06 C 157.31 18.19 158.30 15.48 160.01 14.09 Z M 170.51 39.33 C 126.96 114.26 83.16 189.09 39.51 263.97 C 82.93 339.14 126.37 414.29 169.76 489.48 C 256.48 489.45 343.65 488.88 430.42 488.58 C 474.13 413.71 517.77 338.78 561.53 263.93 C 519.28 191.37 476.98 118.84 434.72 46.29 C 433.18 43.57 431.60 40.87 429.91 38.24 C 343.47 38.69 257.13 38.79 170.51 39.33 Z" id="p1" />
<path d="M 429.91 38.24 C 431.60 40.87 433.18 43.57 434.72 46.29 C 476.98 118.84 519.28 191.37 561.53 263.93 C 517.77 338.78 474.13 413.71 430.42 488.58 C 343.65 488.88 256.48 489.45 169.76 489.48 C 126.37 414.29 82.93 339.14 39.51 263.97 C 83.16 189.09 126.96 114.26 170.51 39.33 C 257.13 38.79 343.47 38.69 429.91 38.24 Z M 48.52 263.95 C 90.50 336.52 132.35 409.17 174.31 481.74 C 258.13 481.40 342.38 481.28 425.89 480.79 C 468.15 408.53 510.25 336.17 552.53 263.92 C 510.24 191.33 467.90 118.77 425.66 46.15 C 344.49 46.32 263.23 46.79 182.00 46.85 C 179.79 46.90 177.36 46.62 175.22 47.20 C 173.46 49.51 172.18 52.20 170.68 54.68 C 129.96 124.43 89.27 194.21 48.52 263.95 Z" id="p2" />
<path d="M 425.66 46.15 C 467.90 118.77 510.24 191.33 552.53 263.92 C 510.25 336.17 468.15 408.53 425.89 480.79 C 342.38 481.28 258.13 481.40 174.31 481.74 C 132.35 409.17 90.50 336.52 48.52 263.95 C 89.27 194.21 129.96 124.43 170.68 54.68 C 172.18 52.20 173.46 49.51 175.22 47.20 C 177.36 46.62 179.79 46.90 182.00 46.85 C 263.23 46.79 344.49 46.32 425.66 46.15 Z M 385.90 140.97 C 385.76 192.24 385.91 243.52 385.83 294.79 C 328.34 294.81 270.84 294.84 213.36 294.77 C 213.41 243.88 213.21 192.73 213.48 141.89 C 201.87 141.72 190.25 141.77 178.64 141.40 C 178.17 145.25 178.23 149.10 178.24 152.96 C 186.09 153.23 193.94 153.20 201.79 153.39 C 201.90 204.34 201.76 255.31 201.85 306.27 C 267.03 306.36 332.23 306.33 397.41 306.28 C 397.38 255.42 397.36 203.37 397.41 152.53 C 405.28 152.42 413.17 152.70 421.04 152.40 C 421.12 148.60 421.10 144.81 420.99 141.01 C 409.30 140.87 397.59 140.95 385.90 140.97 Z M 224.78 199.27 C 224.75 201.51 224.73 203.76 224.73 206.00 C 249.86 220.09 274.98 234.20 300.13 248.26 C 324.73 233.87 349.29 219.40 373.85 204.94 C 373.86 203.06 373.87 201.19 373.88 199.31 C 324.18 199.26 274.48 199.34 224.78 199.27 Z M 224.75 212.89 C 224.70 236.00 224.74 259.11 224.73 282.22 C 274.45 282.23 324.16 282.25 373.88 282.21 C 373.82 258.78 373.89 235.35 373.84 211.92 C 351.60 224.98 329.37 238.08 307.14 251.16 C 304.87 252.44 302.57 254.17 300.05 254.87 C 297.77 254.05 295.66 252.63 293.54 251.46 C 270.62 238.60 247.67 225.77 224.75 212.89 Z M 413.87 412.71 C 416.29 414.88 418.70 417.06 421.11 419.24 C 422.87 417.41 424.63 415.58 426.38 413.74 C 424.25 411.81 422.11 409.89 419.98 407.97 C 428.54 397.64 428.96 380.94 420.55 370.45 C 412.91 360.74 397.74 359.14 387.55 365.55 C 379.99 370.47 376.21 379.17 376.15 388.01 C 375.80 396.75 379.00 405.49 386.10 410.88 C 393.92 416.78 405.27 417.07 413.87 412.71 Z M 174.24 362.91 C 174.14 380.07 174.28 397.24 174.16 414.40 C 175.82 414.41 177.48 414.41 179.14 414.42 C 179.08 397.27 179.25 380.11 179.05 362.96 C 177.45 362.94 175.84 362.93 174.24 362.91 Z M 189.65 362.89 C 189.55 380.06 189.65 397.24 189.60 414.42 C 196.73 414.44 203.87 414.43 211.00 414.44 C 215.47 414.42 219.76 413.98 223.70 411.71 C 231.24 407.55 232.14 394.90 225.22 389.77 C 223.43 388.41 221.22 387.86 219.12 387.17 C 221.24 386.26 223.21 385.57 224.78 383.79 C 229.25 379.16 229.06 370.16 223.70 366.26 C 219.81 363.31 214.69 363.10 210.01 362.91 C 203.22 362.82 196.44 362.90 189.65 362.89 Z M 237.60 362.87 C 237.50 380.06 237.60 397.24 237.55 414.42 C 239.22 414.43 240.88 414.43 242.55 414.43 C 242.57 399.59 242.45 384.74 242.61 369.89 C 248.73 384.73 254.30 399.81 260.57 414.58 C 262.05 414.50 263.52 414.43 265.00 414.37 C 270.90 399.69 276.56 384.90 282.58 370.28 C 282.76 384.97 282.61 399.68 282.64 414.38 C 284.27 414.43 285.91 414.48 287.54 414.53 C 287.76 397.37 287.56 380.19 287.64 363.02 C 285.47 362.93 283.20 362.67 281.06 363.00 C 279.95 363.31 279.67 365.20 279.15 366.13 C 273.76 380.11 268.18 394.02 262.77 407.99 C 256.51 393.23 251.06 377.95 244.77 363.23 C 242.51 362.60 239.93 362.91 237.60 362.87 Z M 314.22 414.31 C 317.78 414.48 321.33 414.47 324.89 414.39 C 324.91 402.61 324.66 390.80 325.02 379.03 C 329.79 390.59 333.37 402.70 337.73 414.43 C 340.62 414.43 343.52 414.44 346.41 414.46 C 350.81 402.61 354.40 390.41 359.12 378.70 C 359.40 390.58 359.23 402.50 359.21 414.39 C 362.74 414.45 366.27 414.45 369.81 414.40 C 369.70 397.25 369.83 380.10 369.75 362.96 C 364.43 362.92 358.99 362.60 353.71 363.19 C 351.36 371.18 348.64 379.06 346.14 387.01 C 344.81 390.83 344.03 394.55 342.25 398.15 C 338.34 386.47 334.25 374.84 330.42 363.13 C 325.14 362.78 319.71 362.69 314.42 363.07 C 314.11 380.12 314.51 397.25 314.22 414.31 Z" id="p3" />
<path d="M 385.90 140.97 C 397.59 140.95 409.30 140.87 420.99 141.01 C 421.10 144.81 421.12 148.60 421.04 152.40 C 413.17 152.70 405.28 152.42 397.41 152.53 C 397.36 203.37 397.38 255.42 397.41 306.28 C 332.23 306.33 267.03 306.36 201.85 306.27 C 201.76 255.31 201.90 204.34 201.79 153.39 C 193.94 153.20 186.09 153.23 178.24 152.96 C 178.23 149.10 178.17 145.25 178.64 141.40 C 190.25 141.77 201.87 141.72 213.48 141.89 C 213.21 192.73 213.41 243.88 213.36 294.77 C 270.84 294.84 328.34 294.81 385.83 294.79 C 385.91 243.52 385.76 192.24 385.90 140.97 Z" id="p4" />
<path d="M 224.78 199.27 C 274.48 199.34 324.18 199.26 373.88 199.31 C 373.87 201.19 373.86 203.06 373.85 204.94 C 349.29 219.40 324.73 233.87 300.13 248.26 C 274.98 234.20 249.86 220.09 224.73 206.00 C 224.73 203.76 224.75 201.51 224.78 199.27 Z" id="p5" />
<path d="M 373.84 211.92 C 373.89 235.35 373.82 258.78 373.88 282.21 C 324.16 282.25 274.45 282.23 224.73 282.22 C 224.74 259.11 224.70 236.00 224.75 212.89 C 247.67 225.77 270.62 238.60 293.54 251.46 C 295.66 252.63 297.77 254.05 300.05 254.87 C 302.57 254.17 304.87 252.44 307.14 251.16 C 329.37 238.08 351.60 224.98 373.84 211.92 Z" id="p6" />
<path d="M 420.55 370.45 C 428.96 380.94 428.54 397.64 419.98 407.97 C 422.11 409.89 424.25 411.81 426.38 413.74 C 424.63 415.58 422.87 417.41 421.11 419.24 C 418.70 417.06 416.29 414.88 413.87 412.71 C 405.27 417.07 393.92 416.78 386.10 410.88 C 379.00 405.49 375.80 396.75 376.15 388.01 C 376.21 379.17 379.99 370.47 387.55 365.55 C 397.74 359.14 412.91 360.74 420.55 370.45 Z M 405.75 406.05 C 404.58 403.97 402.81 402.56 401.03 401.02 C 402.80 399.16 404.56 397.31 406.31 395.45 C 408.30 397.25 410.26 399.07 412.23 400.88 C 416.50 393.76 416.50 383.17 411.76 376.28 C 407.16 369.68 395.84 369.60 391.08 376.05 C 387.69 380.55 387.01 386.55 387.53 392.01 C 388.04 396.85 390.16 401.89 394.53 404.44 C 398.12 406.44 401.78 406.23 405.75 406.05 Z" id="p7" />
<path d="M 174.24 362.91 C 175.84 362.93 177.45 362.94 179.05 362.96 C 179.25 380.11 179.08 397.27 179.14 414.42 C 177.48 414.41 175.82 414.41 174.16 414.40 C 174.28 397.24 174.14 380.07 174.24 362.91 Z" id="p8" />
<path d="M 189.65 362.89 C 196.44 362.90 203.22 362.82 210.01 362.91 C 214.69 363.10 219.81 363.31 223.70 366.26 C 229.06 370.16 229.25 379.16 224.78 383.79 C 223.21 385.57 221.24 386.26 219.12 387.17 C 221.22 387.86 223.43 388.41 225.22 389.77 C 232.14 394.90 231.24 407.55 223.70 411.71 C 219.76 413.98 215.47 414.42 211.00 414.44 C 203.87 414.43 196.73 414.44 189.60 414.42 C 189.65 397.24 189.55 380.06 189.65 362.89 Z M 194.62 367.13 C 194.55 373.26 194.62 379.38 194.56 385.51 C 200.39 385.52 206.21 385.59 212.03 385.51 C 215.91 385.44 219.75 384.33 221.95 380.91 C 224.28 376.95 222.90 370.49 218.50 368.52 C 215.80 367.20 212.94 367.25 210.00 367.16 C 204.87 367.14 199.74 367.20 194.62 367.13 Z M 194.59 389.72 C 194.58 396.56 194.59 403.39 194.59 410.23 C 201.06 410.15 207.55 410.40 214.02 410.13 C 218.27 409.80 222.37 408.37 224.20 404.20 C 225.40 400.56 225.40 395.49 222.18 392.82 C 219.17 390.16 214.83 389.81 211.00 389.72 C 205.53 389.69 200.06 389.74 194.59 389.72 Z" id="p9" />
<path d="M 237.60 362.87 C 239.93 362.91 242.51 362.60 244.77 363.23 C 251.06 377.95 256.51 393.23 262.77 407.99 C 268.18 394.02 273.76 380.11 279.15 366.13 C 279.67 365.20 279.95 363.31 281.06 363.00 C 283.20 362.67 285.47 362.93 287.64 363.02 C 287.56 380.19 287.76 397.37 287.54 414.53 C 285.91 414.48 284.27 414.43 282.64 414.38 C 282.61 399.68 282.76 384.97 282.58 370.28 C 276.56 384.90 270.90 399.69 265.00 414.37 C 263.52 414.43 262.05 414.50 260.57 414.58 C 254.30 399.81 248.73 384.73 242.61 369.89 C 242.45 384.74 242.57 399.59 242.55 414.43 C 240.88 414.43 239.22 414.43 237.55 414.42 C 237.60 397.24 237.50 380.06 237.60 362.87 Z" id="p10" />
<path d="M 314.42 363.07 C 319.71 362.69 325.14 362.78 330.42 363.13 C 334.25 374.84 338.34 386.47 342.25 398.15 C 344.03 394.55 344.81 390.83 346.14 387.01 C 348.64 379.06 351.36 371.18 353.71 363.19 C 358.99 362.60 364.43 362.92 369.75 362.96 C 369.83 380.10 369.70 397.25 369.81 414.40 C 366.27 414.45 362.74 414.45 359.21 414.39 C 359.23 402.50 359.40 390.58 359.12 378.70 C 354.40 390.41 350.81 402.61 346.41 414.46 C 343.52 414.44 340.62 414.43 337.73 414.43 C 333.37 402.70 329.79 390.59 325.02 379.03 C 324.66 390.80 324.91 402.61 324.89 414.39 C 321.33 414.47 317.78 414.48 314.22 414.31 C 314.51 397.25 314.11 380.12 314.42 363.07 Z" id="p11" />
<path d="M 194.62 367.13 C 199.74 367.20 204.87 367.14 210.00 367.16 C 212.94 367.25 215.80 367.20 218.50 368.52 C 222.90 370.49 224.28 376.95 221.95 380.91 C 219.75 384.33 215.91 385.44 212.03 385.51 C 206.21 385.59 200.39 385.52 194.56 385.51 C 194.62 379.38 194.55 373.26 194.62 367.13 Z" id="p12" />
<path d="M 411.76 376.28 C 416.50 383.17 416.50 393.76 412.23 400.88 C 410.26 399.07 408.30 397.25 406.31 395.45 C 404.56 397.31 402.80 399.16 401.03 401.02 C 402.81 402.56 404.58 403.97 405.75 406.05 C 401.78 406.23 398.12 406.44 394.53 404.44 C 390.16 401.89 388.04 396.85 387.53 392.01 C 387.01 386.55 387.69 380.55 391.08 376.05 C 395.84 369.60 407.16 369.68 411.76 376.28 Z" id="p13" />
<path d="M 194.59 389.72 C 200.06 389.74 205.53 389.69 211.00 389.72 C 214.83 389.81 219.17 390.16 222.18 392.82 C 225.40 395.49 225.40 400.56 224.20 404.20 C 222.37 408.37 218.27 409.80 214.02 410.13 C 207.55 410.40 201.06 410.15 194.59 410.23 C 194.59 403.39 194.58 396.56 194.59 389.72 Z" id="p14" />
</defs>
<g stroke-width="10pt">
<use stroke="#ffffff" xlink:href="#p0" />
<use stroke="#a2b5d5" xlink:href="#p1" />
<use stroke="#ffffff" xlink:href="#p2" />
<use stroke="#5b7bb5" xlink:href="#p3" />
<use stroke="#a2b5d5" xlink:href="#p4" />
<use stroke="#ffffff" xlink:href="#p5" />
<use stroke="#ffffff" xlink:href="#p6" />
<use stroke="#ffffff" xlink:href="#p7" />
<use stroke="#ffffff" xlink:href="#p8" />
<use stroke="#ffffff" xlink:href="#p9" />
<use stroke="#ffffff" xlink:href="#p10" />
<use stroke="#ffffff" xlink:href="#p11" />
<use stroke="#5b7bb5" xlink:href="#p12" />
<use stroke="#5b7bb5" xlink:href="#p13" />
<use stroke="#5b7bb5" xlink:href="#p14" />
</g>
<g>
<use fill="#ffffff" xlink:href="#p0" />
<use fill="#a2b5d5" xlink:href="#p1" />
<use fill="#ffffff" xlink:href="#p2" />
<use fill="#5b7bb5" xlink:href="#p3" />
<use fill="#a2b5d5" xlink:href="#p4" />
<use fill="#ffffff" xlink:href="#p5" />
<use fill="#ffffff" xlink:href="#p6" />
<use fill="#ffffff" xlink:href="#p7" />
<use fill="#ffffff" xlink:href="#p8" />
<use fill="#ffffff" xlink:href="#p9" />
<use fill="#ffffff" xlink:href="#p10" />
<use fill="#ffffff" xlink:href="#p11" />
<use fill="#5b7bb5" xlink:href="#p12" />
<use fill="#5b7bb5" xlink:href="#p13" />
<use fill="#5b7bb5" xlink:href="#p14" />
</g>
</svg>