<svg role="img" viewBox="0 0 36.923 32" xmlns="http://www.w3.org/2000/svg"><path d="M0 0h599.98v520H0Zm16.123 260.825c47.734 82.139 95.151 164.595 142.886 246.734 20.312-.064 40.688-.381 61-.508 74.395 0 148.536-.19 222.93-.445 1.27.064 1.841-1.27 2.54-2.158a187462.334 187462.334 0 0 1 142.377-243.686c-34.023-58.526-68.237-116.924-102.26-175.386-13.965-23.74-27.676-47.734-41.768-71.411-91.28.063-182.558 0-273.838.063-3.3 0-6.665-.254-9.966.064-1.713 1.396-2.73 4.126-3.935 5.967-46.592 80.234-93.31 160.532-139.966 240.766Zm0 0" style="fill-rule:nonzero;fill:rgb(0%,0%,0%);fill-opacity:1;stroke-width:13.333333;stroke-linecap:butt;stroke-linejoin:miter;stroke:rgb(100%,100%,100%);stroke-opacity:1;stroke-miterlimit:4" transform="rotate(.4)scale(.06154)"/><path d="M160.024 14.092c3.301-.318 6.665-.064 9.966-.064 91.28-.063 182.559 0 273.838-.063 14.092 23.677 27.803 47.67 41.768 71.411 34.023 58.462 68.237 116.86 102.26 175.386-47.48 81.123-95.024 162.5-142.377 243.686-.699.889-1.27 2.222-2.54 2.158-74.394.254-148.535.445-222.93.445-20.312.127-40.688.444-61 .508-47.735-82.14-95.152-164.595-142.886-246.734 46.655-80.234 93.374-160.532 139.966-240.766 1.206-1.841 2.222-4.57 3.935-5.967Zm10.474 25.263C126.953 114.258 83.154 189.097 39.482 264c43.418 75.156 86.9 150.313 130.254 225.469 86.773 0 173.926-.572 260.699-.889 43.671-74.839 87.343-149.805 131.079-224.643-42.212-72.554-84.551-145.108-126.763-217.662a337.937 337.937 0 0 0-4.824-8.061c-86.455.508-172.783.571-259.429 1.142Zm0 0" style="fill-rule:nonzero;fill:rgb(0%,0%,0%);fill-opacity:1;stroke-width:13.333333;stroke-linecap:butt;stroke-linejoin:miter;stroke:rgb(63.529414%,70.980394%,83.529413%);stroke-opacity:1;stroke-miterlimit:4" transform="rotate(.4)scale(.06154)"/><path d="M429.927 38.213a337.937 337.937 0 0 1 4.824 8.061c42.212 72.554 84.55 145.108 126.763 217.662-43.736 74.838-87.408 149.804-131.08 224.643-86.772.317-173.925.889-260.698.889C126.382 414.312 82.9 339.155 39.482 263.999c43.672-74.902 87.471-149.741 131.016-224.644 86.646-.57 172.974-.634 259.429-1.142ZM48.497 263.936c42.02 72.553 83.852 145.234 125.81 217.788 83.852-.318 168.086-.445 251.557-.953 42.276-72.236 84.36-144.6 126.636-216.835-42.275-72.618-84.614-145.171-126.826-217.789-81.187.19-162.437.635-243.687.699-2.221.063-4.633-.254-6.792.38-1.714 2.286-3.047 4.952-4.507 7.427-40.751 69.761-81.44 139.585-122.192 209.283Zm0 0" style="fill-rule:nonzero;fill:rgb(0%,0%,0%);fill-opacity:1;stroke-width:13.333333;stroke-linecap:butt;stroke-linejoin:miter;stroke:rgb(100%,100%,100%);stroke-opacity:1;stroke-miterlimit:4" transform="rotate(.4)scale(.06154)"/><path d="M425.674 46.147c42.212 72.618 84.55 145.171 126.826 217.789-42.275 72.236-84.36 144.6-126.636 216.835-83.471.508-167.705.635-251.557.953-41.958-72.554-83.79-145.235-125.81-217.788 40.751-69.698 81.44-139.522 122.191-209.283 1.46-2.475 2.793-5.141 4.507-7.426 2.159-.635 4.57-.318 6.792-.381 81.25-.064 162.5-.508 243.687-.699Zm-39.8 94.834c-.127 51.29.063 102.515-.063 153.804-57.447 0-114.957.064-172.466 0 .063-50.908-.127-102.07.127-152.915-11.617-.127-23.233-.127-34.849-.444-.444 3.808-.38 7.68-.38 11.553 7.87.253 15.678.19 23.549.38.127 50.972-.063 101.944.063 152.915 65.19.064 130.381.064 195.572 0-.064-50.844-.064-102.895 0-153.74 7.87-.127 15.742.19 23.613-.127.064-3.808.064-7.617-.063-11.426-11.68-.127-23.36 0-35.103 0Zm-161.103 58.272c0 2.285-.064 4.507-.064 6.728 25.137 14.092 50.273 28.248 75.41 42.276 24.63-14.41 49.195-28.882 73.76-43.291v-5.65c-49.702-.063-99.404 0-149.106-.063Zm0 13.647c-.064 23.106 0 46.211-.064 69.317 49.766 0 99.468.063 149.17 0-.064-23.423 0-46.846-.064-70.269-22.216 13.013-44.433 26.153-66.65 39.229-2.285 1.27-4.57 2.983-7.11 3.681-2.284-.825-4.38-2.221-6.537-3.427-22.915-12.823-45.83-25.645-68.745-38.53Zm189.096 199.825a673.138 673.138 0 0 1 7.237 6.538c1.777-1.841 3.554-3.682 5.268-5.523-2.095-1.904-4.253-3.872-6.411-5.776 8.57-10.347 9.014-27.041.571-37.515-7.617-9.712-22.788-11.299-33.008-4.887-7.553 4.887-11.298 13.584-11.362 22.47-.38 8.697 2.857 17.456 9.966 22.852 7.808 5.903 19.17 6.157 27.74 1.84Zm-239.624-49.83c-.127 17.203.064 34.341-.063 51.48 1.65.063 3.3.063 4.95.063-.063-17.138.128-34.34-.063-51.479-1.587 0-3.237 0-4.824-.063Zm15.425 0c-.127 17.14 0 34.341-.064 51.543h21.392c4.443 0 8.76-.444 12.695-2.729 7.554-4.19 8.443-16.821 1.524-21.963-1.778-1.333-4-1.904-6.094-2.602 2.095-.89 4.063-1.587 5.65-3.365 4.506-4.633 4.316-13.647-1.08-17.52-3.872-2.92-9.013-3.173-13.71-3.363-6.793-.064-13.521 0-20.313 0Zm47.925 0c-.064 17.14 0 34.341-.064 51.543h5.015c0-14.853-.064-29.707.063-44.56 6.094 14.853 11.68 29.96 17.964 44.687 1.46-.063 2.92-.127 4.444-.19 5.903-14.663 11.552-29.453 17.583-44.116.19 14.726 0 29.39.063 44.116 1.587.063 3.237.127 4.888.127.19-17.139 0-34.34.063-51.48-2.158-.063-4.443-.38-6.538 0-1.142.318-1.396 2.159-1.904 3.11-5.396 13.966-10.982 27.867-16.377 41.832-6.284-14.727-11.743-30.025-18.027-44.751-2.286-.635-4.825-.317-7.173-.317Zm76.616 51.417c3.555.19 7.11.126 10.664.063.064-11.743-.19-23.55.127-35.356 4.76 11.552 8.379 23.676 12.759 35.42h8.633c4.443-11.807 7.998-24.058 12.758-35.738.254 11.87.064 23.804.064 35.674 3.555.063 7.046.063 10.6 0-.127-17.139 0-34.277-.063-51.416-5.332-.063-10.791-.38-16.06.254-2.348 7.998-5.078 15.869-7.553 23.804-1.333 3.808-2.095 7.553-3.872 11.108-3.936-11.68-7.998-23.296-11.87-34.976-5.269-.38-10.665-.444-15.997-.063-.317 17.012.127 34.15-.19 51.226Zm0 0" style="fill-rule:nonzero;fill:rgb(0%,0%,0%);fill-opacity:1;stroke-width:13.333333;stroke-linecap:butt;stroke-linejoin:miter;stroke:rgb(35.686275%,48.235294%,70.980394%);stroke-opacity:1;stroke-miterlimit:4" transform="rotate(.4)scale(.06154)"/><path d="M385.874 140.981c11.743 0 23.423-.127 35.103 0 .127 3.809.127 7.618.063 11.426-7.871.318-15.742 0-23.613.127-.064 50.845-.064 102.896 0 153.74-65.19.064-130.381.064-195.572 0-.126-50.971.064-101.943-.063-152.915-7.871-.19-15.679-.127-23.55-.38 0-3.873-.063-7.745.381-11.553 11.616.317 23.232.317 34.849.444-.254 50.845-.064 102.007-.127 152.915 57.51.064 115.02 0 172.466 0 .127-51.289-.064-102.514.063-153.804Zm0 0" style="fill-rule:nonzero;fill:rgb(0%,0%,0%);fill-opacity:1;stroke-width:13.333333;stroke-linecap:butt;stroke-linejoin:miter;stroke:rgb(63.529414%,70.980394%,83.529413%);stroke-opacity:1;stroke-miterlimit:4" transform="rotate(.4)scale(.06154)"/><path d="M224.77 199.253c49.703.063 99.405 0 149.107.063v5.65c-24.565 14.409-49.13 28.882-73.76 43.29-25.137-14.027-50.273-28.183-75.41-42.275 0-2.221.064-4.443.064-6.728Zm149.043 12.695c.064 23.423 0 46.846.064 70.269-49.702.063-99.404 0-149.17 0 .064-23.106 0-46.211.064-69.317 22.915 12.886 45.83 25.708 68.745 38.53 2.158 1.207 4.253 2.603 6.538 3.428 2.539-.698 4.824-2.412 7.11-3.681 22.216-13.076 44.433-26.216 66.65-39.229Zm46.719 158.502c8.443 10.473 7.998 27.167-.571 37.514 2.158 1.904 4.316 3.872 6.411 5.776-1.714 1.841-3.491 3.682-5.268 5.523a673.138 673.138 0 0 0-7.237-6.538c-8.57 4.316-19.931 4.062-27.74-1.841-7.108-5.396-10.346-14.155-9.965-22.852.064-8.886 3.809-17.583 11.362-22.47 10.22-6.412 25.391-4.825 33.008 4.887Zm-14.79 35.61c-1.142-2.095-2.92-3.492-4.697-5.015 1.777-1.904 3.491-3.745 5.268-5.586 1.968 1.777 3.936 3.618 5.904 5.395 4.253-7.109 4.253-17.71-.445-24.565-4.633-6.601-15.932-6.665-20.693-.254-3.364 4.507-4.062 10.537-3.555 15.996.508 4.824 2.666 9.84 6.983 12.378 3.618 2.031 7.3 1.841 11.235 1.65Zm-231.499-43.164c1.587.063 3.237.063 4.824.063.19 17.139 0 34.34.064 51.48-1.65 0-3.3 0-4.951-.064.127-17.139-.064-34.277.063-51.48Zm15.425 0c6.792 0 13.52-.064 20.312 0 4.698.19 9.84.444 13.711 3.364 5.396 3.872 5.586 12.886 1.08 17.52-1.587 1.777-3.555 2.475-5.65 3.364 2.095.698 4.316 1.27 6.094 2.602 6.919 5.142 6.03 17.774-1.524 21.963-3.935 2.285-8.252 2.73-12.695 2.73h-21.392c.064-17.203-.063-34.405.064-51.543Zm4.951 4.252c-.063 6.094 0 12.251-.063 18.345 5.84 0 11.68.127 17.456 0 3.872-.063 7.744-1.142 9.966-4.57 2.285-4 .952-10.41-3.492-12.378-2.666-1.333-5.522-1.27-8.506-1.397-5.141 0-10.22.064-15.36 0Zm0 22.598c-.063 6.792 0 13.648 0 20.503 6.411-.127 12.95.127 19.424-.127 4.253-.317 8.315-1.777 10.156-5.903 1.206-3.682 1.206-8.76-2.031-11.426-2.983-2.603-7.363-2.983-11.172-3.047-5.459-.063-10.918 0-16.377 0Zm42.974-26.85c2.348 0 4.887-.318 7.173.317 6.284 14.726 11.743 30.024 18.027 44.75 5.395-13.964 10.981-27.865 16.377-41.83.508-.952.762-2.793 1.904-3.11 2.095-.381 4.38-.064 6.538 0-.063 17.138.127 34.34-.063 51.479-1.65 0-3.301-.064-4.888-.127-.063-14.727.127-29.39-.063-44.116-6.03 14.663-11.68 29.453-17.583 44.116-1.524.063-2.984.127-4.444.19-6.284-14.726-11.87-29.834-17.964-44.687-.127 14.853-.063 29.707-.063 44.56h-5.015c.064-17.202 0-34.404.064-51.542Zm76.807.19c5.331-.38 10.727-.317 15.996.063 3.872 11.68 7.934 23.296 11.87 34.976 1.777-3.555 2.539-7.3 3.872-11.108 2.475-7.935 5.205-15.806 7.553-23.804 5.269-.635 10.728-.317 16.06-.254.063 17.139-.063 34.277.063 51.416-3.554.063-7.045.063-10.6 0 0-11.87.19-23.804-.064-35.674-4.76 11.68-8.315 23.93-12.758 35.737h-8.633c-4.38-11.743-7.998-23.867-12.759-35.42-.317 11.807-.063 23.614-.127 35.357-3.555.063-7.11.127-10.664-.063.317-17.076-.127-34.214.19-51.226Zm0 0" style="fill-rule:nonzero;fill:rgb(0%,0%,0%);fill-opacity:1;stroke-width:13.333333;stroke-linecap:butt;stroke-linejoin:miter;stroke:rgb(100%,100%,100%);stroke-opacity:1;stroke-miterlimit:4" transform="rotate(.4)scale(.06154)"/><path d="M194.62 367.148c5.14.064 10.219 0 15.36 0 2.984.127 5.84.064 8.506 1.397 4.444 1.968 5.777 8.379 3.492 12.378-2.222 3.428-6.094 4.507-9.966 4.57-5.777.127-11.616 0-17.456 0 .063-6.094 0-12.25.063-18.345Zm217.152 9.142c4.698 6.855 4.698 17.455.445 24.564-1.968-1.777-3.936-3.618-5.904-5.395-1.777 1.84-3.49 3.682-5.268 5.586 1.777 1.523 3.555 2.92 4.697 5.015-3.935.19-7.617.38-11.235-1.65-4.317-2.54-6.475-7.555-6.983-12.379-.507-5.459.19-11.489 3.555-15.996 4.76-6.411 16.06-6.348 20.693.254ZM194.62 389.746c5.458 0 10.917-.063 16.376 0 3.809.064 8.189.444 11.172 3.047 3.237 2.666 3.237 7.744 2.031 11.426-1.84 4.126-5.903 5.586-10.156 5.903-6.475.254-13.013 0-19.424.127 0-6.855-.063-13.71 0-20.503Zm0 0" style="fill-rule:nonzero;fill:rgb(0%,0%,0%);fill-opacity:1;stroke-width:13.333333;stroke-linecap:butt;stroke-linejoin:miter;stroke:rgb(35.686275%,48.235294%,70.980394%);stroke-opacity:1;stroke-miterlimit:4" transform="rotate(.4)scale(.06154)"/><path d="M0 0h36.922v32H0Zm.992 16.05c2.938 5.055 5.856 10.13 8.793 15.184 1.25-.004 2.504-.023 3.754-.03 4.578 0 9.14-.013 13.719-.028.078.004.113-.078.156-.133 2.914-4.996 5.84-10.004 8.762-14.996-2.094-3.602-4.2-7.195-6.293-10.793-.86-1.461-1.703-2.938-2.57-4.395-5.618.004-11.235 0-16.852.004-.203 0-.41-.015-.613.004-.106.086-.168.254-.243.367-2.867 4.938-5.742 9.88-8.613 14.817m0 0" style="stroke:none;fill-rule:nonzero;fill:rgb(100%,100%,100%);fill-opacity:1"/><path d="M9.848.867c.203-.02.41-.004.613-.004C16.078.86 21.695.863 27.313.86c.867 1.457 1.71 2.934 2.57 4.395 2.094 3.598 4.199 7.191 6.293 10.793-2.922 4.992-5.848 10-8.762 14.996-.043.055-.078.137-.156.133-4.578.015-9.14.027-13.719.027-1.25.008-2.504.027-3.754.031C6.848 26.18 3.93 21.105.992 16.051c2.871-4.938 5.746-9.88 8.613-14.817.075-.113.137-.28.243-.367m.644 1.555c-2.68 4.61-5.375 9.215-8.062 13.824 2.672 4.625 5.347 9.25 8.015 13.875 5.34 0 10.703-.035 16.043-.055 2.688-4.605 5.375-9.218 8.067-13.824-2.598-4.465-5.203-8.93-7.801-13.394a20.796 20.796 0 0 0-.297-.496c-5.32.03-10.633.035-15.965.07m0 0" style="stroke:none;fill-rule:nonzero;fill:rgb(63.529414%,70.980394%,83.529413%);fill-opacity:1"/><path d="M26.457 2.352c.102.164.2.328.297.496 2.598 4.464 5.203 8.93 7.8 13.394-2.69 4.606-5.378 9.219-8.066 13.824-5.34.02-10.703.055-16.043.055-2.668-4.625-5.343-9.25-8.015-13.875 2.687-4.61 5.383-9.215 8.062-13.824 5.332-.035 10.645-.04 15.965-.07M2.984 16.242c2.586 4.465 5.16 8.938 7.743 13.403 5.16-.02 10.343-.028 15.48-.06 2.602-4.444 5.191-8.897 7.793-13.343-2.602-4.469-5.207-8.933-7.805-13.402-4.996.012-9.996.039-14.996.043-.136.004-.285-.016-.418.023-.105.14-.187.305-.277.457-2.508 4.293-5.012 8.59-7.52 12.88m0 0" style="stroke:none;fill-rule:nonzero;fill:rgb(100%,100%,100%);fill-opacity:1"/><path d="M26.195 2.84c2.598 4.469 5.203 8.933 7.805 13.402-2.602 4.445-5.191 8.899-7.793 13.344-5.137.031-10.32.039-15.48.059-2.582-4.465-5.157-8.938-7.743-13.403 2.508-4.289 5.012-8.586 7.52-12.879.09-.152.172-.316.277-.457.133-.039.281-.02.418-.023 5-.004 10-.031 14.996-.043m-2.449 5.836c-.008 3.156.004 6.308-.004 9.465-3.535 0-7.074.004-10.613 0 .004-3.133-.008-6.282.008-9.41-.715-.008-1.43-.008-2.145-.028-.027.235-.023.473-.023.711.484.016.965.012 1.449.024.008 3.136-.004 6.273.004 9.41 4.012.004 8.023.004 12.035 0a3819.31 3819.31 0 0 1 0-9.461c.484-.008.969.011 1.453-.008a13.73 13.73 0 0 0-.004-.703c-.718-.008-1.437 0-2.16 0m-9.914 3.586c0 .14-.004.277-.004.414 1.547.867 3.094 1.738 4.64 2.601 1.516-.886 3.028-1.777 4.54-2.664v-.347c-3.059-.004-6.117 0-9.176-.004m0 .84c-.004 1.421 0 2.843-.004 4.265 3.063 0 6.121.004 9.18 0-.004-1.441 0-2.883-.004-4.324-1.367.8-2.734 1.61-4.102 2.414-.14.078-.28.184-.437.227-.14-.051-.27-.137-.402-.211-1.41-.79-2.82-1.578-4.231-2.371m11.637 12.296c.148.133.297.266.445.403.11-.113.219-.227.324-.34-.129-.117-.261-.238-.394-.356.527-.636.554-1.664.035-2.308-.469-.598-1.402-.695-2.031-.3-.465.3-.696.835-.7 1.382-.023.535.176 1.074.614 1.406.48.363 1.18.38 1.707.113m-14.746-3.066c-.008 1.059.004 2.113-.004 3.168.101.004.203.004.304.004-.003-1.055.008-2.113-.003-3.168-.098 0-.2 0-.297-.004m.949 0c-.008 1.055 0 2.113-.004 3.172h1.316c.274 0 .54-.027.782-.168.464-.258.52-1.035.093-1.352-.109-.082-.246-.117-.375-.16.13-.054.25-.097.348-.207.277-.285.266-.84-.066-1.078-.239-.18-.555-.195-.844-.207-.418-.004-.832 0-1.25 0m2.95 0c-.005 1.055 0 2.113-.005 3.172h.309c0-.914-.004-1.828.004-2.742.375.914.718 1.843 1.105 2.75l.274-.012c.363-.902.71-1.812 1.082-2.715.011.906 0 1.809.004 2.715.097.004.199.008.3.008.012-1.055 0-2.113.004-3.168-.133-.004-.273-.024-.402 0-.07.02-.086.133-.117.191-.332.86-.676 1.715-1.008 2.574-.387-.906-.723-1.847-1.11-2.753-.14-.04-.296-.02-.44-.02m4.714 3.164c.219.012.437.008.656.004.004-.723-.012-1.45.008-2.176.293.711.516 1.457.785 2.18h.531c.274-.727.493-1.48.786-2.2.015.731.003 1.466.003 2.196.22.004.434.004.653 0-.008-1.055 0-2.11-.004-3.164-.328-.004-.664-.023-.988.016-.145.492-.313.976-.465 1.464-.082.235-.13.465-.238.684-.243-.719-.493-1.434-.731-2.152a6.897 6.897 0 0 0-.984-.004c-.02 1.047.007 2.101-.012 3.152m0 0" style="stroke:none;fill-rule:nonzero;fill:rgb(35.686275%,48.235294%,70.980394%);fill-opacity:1"/><path d="M23.746 8.676c.723 0 1.442-.008 2.16 0 .008.234.008.469.004.703-.484.02-.969 0-1.453.008a3819.31 3819.31 0 0 0 0 9.46c-4.012.005-8.023.005-12.035 0-.008-3.136.004-6.273-.004-9.41-.484-.011-.965-.007-1.45-.023 0-.238-.003-.476.024-.71.715.019 1.43.019 2.145.026-.016 3.13-.004 6.278-.008 9.41 3.539.005 7.078 0 10.613 0 .008-3.156-.004-6.308.004-9.464m0 0" style="stroke:none;fill-rule:nonzero;fill:rgb(63.529414%,70.980394%,83.529413%);fill-opacity:1"/><path d="M13.832 12.262c3.059.004 6.117 0 9.176.004v.347c-1.512.887-3.024 1.778-4.54 2.664-1.546-.863-3.093-1.734-4.64-2.601 0-.137.004-.274.004-.414m9.172.781c.004 1.441 0 2.883.004 4.324-3.059.004-6.117 0-9.18 0 .004-1.422 0-2.844.004-4.265 1.41.793 2.82 1.582 4.23 2.37.133.075.262.16.403.212.156-.043.297-.149.437-.227 1.368-.805 2.735-1.613 4.102-2.414m2.875 9.754c.52.644.492 1.672-.035 2.308.133.118.265.239.394.356-.105.113-.215.227-.324.34-.148-.137-.297-.27-.445-.403-.528.266-1.227.25-1.707-.113-.438-.332-.637-.87-.614-1.406.004-.547.235-1.082.7-1.383.629-.394 1.562-.297 2.03.3m-.91 2.191c-.07-.129-.18-.215-.29-.308l.325-.344c.121.11.242.223.363.332.262-.438.262-1.09-.027-1.512-.285-.406-.98-.41-1.274-.015-.207.277-.25.648-.218.984.03.297.164.605.43.762.222.125.449.113.69.101m-14.244-2.655c.097.004.199.004.297.004.011 1.055 0 2.113.003 3.168-.101 0-.203 0-.304-.004.008-1.055-.004-2.11.004-3.168m.949 0c.418 0 .832-.004 1.25 0 .289.012.605.027.844.207.332.238.343.793.066 1.078-.098.11-.219.153-.348.207.13.043.266.078.375.16.426.317.371 1.094-.093 1.352-.243.14-.508.168-.782.168h-1.316c.004-1.059-.004-2.117.004-3.172m.305.262c-.004.375 0 .754-.004 1.129.359 0 .718.007 1.074 0 .238-.004.476-.07.613-.282.14-.246.059-.64-.215-.761-.164-.082-.34-.078-.523-.086-.317 0-.629.004-.945 0m0 1.39c-.004.418 0 .84 0 1.262.394-.008.796.008 1.195-.008.262-.02.512-.11.625-.363.074-.227.074-.54-.125-.703-.184-.16-.453-.184-.688-.188-.336-.004-.671 0-1.007 0m2.644-1.652c.145 0 .3-.02.441.02.387.906.723 1.847 1.11 2.753.332-.859.676-1.714 1.008-2.574.03-.058.047-.172.117-.191.129-.024.27-.004.402 0-.004 1.055.008 2.113-.004 3.168-.101 0-.203-.004-.3-.008-.004-.906.007-1.809-.004-2.715-.371.902-.72 1.813-1.082 2.715l-.274.012c-.387-.907-.73-1.836-1.105-2.75-.008.914-.004 1.828-.004 2.742h-.309c.004-1.059 0-2.117.004-3.172m4.727.012c.328-.024.66-.02.984.004.238.718.488 1.433.73 2.152.11-.219.157-.45.239-.684.152-.488.32-.972.465-1.464.324-.04.66-.02.988-.016.004 1.055-.004 2.11.004 3.164a18.16 18.16 0 0 1-.653 0c0-.73.012-1.465-.003-2.195-.293.718-.512 1.472-.786 2.199h-.53c-.27-.723-.493-1.469-.786-2.18-.02.727-.004 1.453-.008 2.176-.219.004-.437.008-.656-.004.02-1.05-.008-2.105.012-3.152m0 0" style="stroke:none;fill-rule:nonzero;fill:rgb(100%,100%,100%);fill-opacity:1"/><path d="M11.977 22.594c.316.004.628 0 .945 0 .183.008.36.004.523.086.274.12.356.515.215.761-.137.211-.375.278-.613.282-.356.007-.715 0-1.074 0 .004-.375 0-.754.004-1.13m13.363.563c.289.422.289 1.074.027 1.512-.12-.11-.242-.223-.363-.332-.11.113-.215.227-.324.344.11.093.218.18.289.308-.242.012-.469.024-.692-.101-.265-.157-.398-.465-.43-.762-.03-.336.012-.707.22-.984.292-.395.988-.391 1.273.015m-13.363.828c.335 0 .671-.004 1.007 0 .235.004.504.028.688.188.2.164.2.476.125.703-.113.254-.363.344-.625.363-.399.016-.8 0-1.195.008 0-.422-.004-.844 0-1.262m0 0" style="stroke:none;fill-rule:nonzero;fill:rgb(35.686275%,48.235294%,70.980394%);fill-opacity:1"/></svg>