<svg xmlns="http://www.w3.org/2000/svg" width="32" height="13" stroke="#000" stroke-linecap="round" stroke-linejoin="round" fill="#fff" fill-rule="evenodd"><path d="M0 0v.8756h6.228V0zm7.1109 0v.8756h8.876S15.0803 0 13.8796 0zm10.617 0v.8756h5.3691L22.7785 0zm9.2195 0l-.3186.8756h5.3214V0zM0 1.703v.8756h6.228V1.703zm7.1109.0012v.874h9.9093s-.1156-.6739-.3174-.874zm10.617 0v.874h5.9625l-.2948-.874zm8.582 0l-.2949.874h5.9348v-.874zM1.79 3.406v.8768h2.6974V3.406zm7.1109 0v.8768h2.6974V3.406zm5.3214 0v.8768h2.6974s.1715-.4631.1715-.8768zm5.296 0v.8768h4.7782l-.3186-.8768zm6.2047 0l-.3202.8768h4.806V3.406zM1.7904 5.1102v.8756h2.6974v-.8756zm7.1109 0v.8756h6.8937s.5717-.4492.7596-.8756zm10.617 0v.8756h2.6974v-.4876l.1716.4876h4.9415l.1838-.4876v.4876H30.21v-.8756h-5.0641l-.2687.7416-.2695-.7416zM1.7941 6.8132v.8756h2.6974v-.8756zm7.1109 0v.8756h7.6492c-.1838-.4247-.7596-.8756-.7596-.8756zm10.617 0v.8756h2.6974v-.8756zm3.1875 0l.3267.8756h3.7049l.3104-.8756zm4.8059 0v.8756h2.6975v-.8756zM1.7949 8.5162v.8756h2.6974v-.8756zm7.1109 0v.8756h2.6974v-.8756zm5.3214 0v.8756h2.8685c0-.4133-.1715-.8756-.1715-.8756zm5.296 0v.8756h2.6974v-.8756zm3.7997 0l.3161.8756h2.483l.3186-.8756zm4.1934 0v.8756h2.6974v-.8756zM.0539 10.2192v.8768h6.228v-.8768zm7.0623 0v.8768h9.5883c.2017-.2009.3173-.8768.3173-.8768zm10.6656 0v.8768h4.4331v-.8768zm6.1545 0l.3251.8768h1.2635l.3051-.8768zm3.58 0v.8768H32v-.8768zM.0539 11.9234v.8756h6.228v-.8756zm7.0623 0v.874h6.7593c1.2007 0 2.1073-.874 2.1073-.874zm10.6656 0v.8756h4.4331v-.8756zm6.7712 0l.3124.8731.0539.0013.3173-.874zm2.9637 0v.8756H32v-.8756z" stroke="none" fill="#1f70c1" fill-rule="nonzero"/></svg>