<svg role="img" viewBox="0 0 32 32" xmlns="http://www.w3.org/2000/svg"><path d="M0 8.965h6.23v.879H0Zm13.816 0H7.121v.879h8.926l-.14-.137-.18-.129-.188-.129-.203-.11-.203-.097-.207-.082-.219-.074-.223-.047L14.266 9l-.215-.035Zm3.985 0v.879h5.375l-.309-.88Zm9.183 0-.312.879H32v-.88ZM0 10.672v.863h6.23v-.863Zm1.781 1.691v.883h2.66v-.883Zm0 1.696v.886h2.66v-.886Zm14.895-3.387H7.12v.863h9.89l-.105-.348-.082-.226-.097-.207Zm-7.774 1.691v.883h2.66v-.883Zm8.192 0h-2.852v.883h2.707l.024-.074.05-.219.036-.223.027-.226Zm-.524 1.696H8.902v.886h6.825l.152-.101.168-.145.156-.164.145-.172.14-.18Zm1.23-3.387v.863h5.973l-.312-.863Zm14.2 0h-5.613l-.301.863H32Zm-12.414 1.691v.883h4.773l-.308-.883Zm10.68 0h-4.477l-.305.883h4.782Zm-7.73 2.578h4.788l.27-.785v.785h2.672v-.882h-5.063l-.277.785-.278-.785h-5.062v.882h2.668v-.789ZM0 20.863v.89h6.23v-.89Zm0-1.707v.89h6.23v-.89Zm1.781-3.39v.875h2.66v-.875Zm0 1.699v.883h2.66v-.883Zm13.946-1.7H8.902v.876h7.668l-.082-.102-.14-.18-.145-.175-.156-.164-.172-.145Zm-6.825 1.7v.883h2.66v-.883Zm8.047 0h-2.707v.883h2.852l-.008-.133-.027-.227-.032-.218-.054-.22Zm.063 1.691h-9.89v.89h9.554l.05-.077.098-.207.082-.215.067-.211Zm-.965 1.707H7.12v.89h6.664l.23-.007.227-.027.211-.04.223-.046.222-.078.204-.078.203-.098.207-.11.183-.12.184-.141Zm3.539-5.097v.875h2.668v-.875Zm7.144.875.31-.875h-4.231l.3.875Zm.864-.875v.875h2.672v-.875Zm-8.008 1.699v.883h2.668v-.883Zm6.875 0h-3.07l.3.883h2.465Zm1.133 0v.883h2.672v-.883ZM17.8 19.156v.89h4.453v-.89Zm8.078 0h-1.91l.304.89h1.305Zm1.715 0v.89H32v-.89ZM17.8 20.863v.89h4.453v-.89Zm9.793 0v.89H32v-.89Zm-2.606.89.305-.886h-.734l.3.887Zm0 0" style="stroke:none;fill-rule:nonzero;fill:rgb(0%,0%,0%);fill-opacity:1"/></svg>