<?xml version="1.0" encoding="UTF-8"?>
<svg xmlns="http://www.w3.org/2000/svg" xmlns:xlink="http://www.w3.org/1999/xlink" width="32" height="32" viewBox="0 0 32 32" version="1.1">
<g id="surface1">
<path style=" stroke:none;fill-rule:nonzero;fill:rgb(20.392157%,59.607846%,85.882354%);fill-opacity:1;" d="M 16 2.050781 C 11.023438 2.054688 6.425781 4.714844 3.9375 9.023438 L 6.714844 9.023438 C 7.9375 7.402344 9.558594 6.125 11.421875 5.316406 C 10.765625 6.484375 10.257812 7.730469 9.914062 9.023438 L 12.363281 9.023438 C 13.28125 6.167969 14.691406 4.378906 16 4.378906 C 17.3125 4.378906 18.714844 6.167969 19.636719 9.023438 L 22.085938 9.023438 C 21.746094 7.730469 21.238281 6.484375 20.578125 5.316406 C 22.441406 6.125 24.066406 7.402344 25.289062 9.023438 L 28.066406 9.023438 C 25.574219 4.714844 20.976562 2.058594 16 2.050781 M 3.9375 22.980469 C 6.425781 27.292969 11.023438 29.949219 16.003906 29.949219 C 20.980469 29.949219 25.578125 27.292969 28.066406 22.980469 L 25.289062 22.980469 C 24.066406 24.601562 22.445312 25.878906 20.578125 26.683594 C 21.238281 25.519531 21.746094 24.273438 22.085938 22.980469 L 19.636719 22.980469 C 18.71875 25.835938 17.316406 27.625 16 27.625 C 14.683594 27.625 13.28125 25.835938 12.367188 22.976562 L 9.914062 22.976562 C 10.253906 24.273438 10.761719 25.519531 11.421875 26.683594 C 9.558594 25.878906 7.933594 24.601562 6.714844 22.976562 Z M 4.425781 12.328125 L 2.441406 12.328125 L 2.441406 10.808594 L 4.425781 10.808594 Z M 2.441406 13.082031 L 4.425781 13.082031 L 4.425781 19.15625 L 2.441406 19.15625 Z M 9.785156 15.3125 C 9.757812 14.804688 9.324219 14.410156 8.816406 14.433594 C 7.707031 14.433594 7.527344 15.382812 7.527344 16.222656 C 7.527344 17.003906 7.867188 17.8125 8.710938 17.8125 C 9.414062 17.8125 9.75 17.429688 9.84375 16.773438 L 11.773438 16.773438 C 11.585938 18.410156 10.347656 19.332031 8.722656 19.332031 C 6.898438 19.332031 5.542969 18.09375 5.542969 16.222656 C 5.542969 14.292969 6.769531 12.914062 8.722656 12.914062 C 10.242188 12.914062 11.5625 13.71875 11.714844 15.3125 Z M 12.765625 13.082031 L 14.691406 13.082031 L 14.691406 13.910156 L 14.714844 13.910156 C 15.074219 13.289062 15.738281 12.90625 16.457031 12.902344 C 17.214844 12.902344 17.894531 13.148438 18.222656 13.886719 C 18.644531 13.253906 19.363281 12.882812 20.125 12.914062 C 22.054688 12.914062 22.265625 14.375 22.265625 15.53125 L 22.265625 19.152344 L 20.277344 19.152344 L 20.277344 15.589844 C 20.277344 14.9375 19.960938 14.550781 19.445312 14.550781 C 18.59375 14.550781 18.511719 15.207031 18.511719 16.1875 L 18.511719 19.15625 L 16.519531 19.15625 L 16.519531 15.707031 C 16.519531 14.996094 16.320312 14.550781 15.773438 14.550781 C 15.058594 14.550781 14.753906 14.96875 14.753906 16.199219 L 14.753906 19.15625 L 12.765625 19.15625 Z M 23.59375 13.082031 L 25.488281 13.082031 L 25.488281 13.78125 L 25.511719 13.78125 C 25.875 13.214844 26.511719 12.882812 27.183594 12.90625 C 29.089844 12.90625 29.898438 14.53125 29.898438 16.25 C 29.898438 17.828125 29.054688 19.324219 27.335938 19.324219 C 26.65625 19.351562 26.007812 19.042969 25.605469 18.496094 L 25.582031 18.496094 L 25.582031 21.183594 L 23.59375 21.183594 Z M 25.511719 16.050781 C 25.511719 17.113281 25.816406 17.804688 26.71875 17.804688 C 27.621094 17.804688 27.910156 16.878906 27.910156 16.050781 C 27.910156 15.277344 27.617188 14.425781 26.730469 14.425781 C 26.203125 14.433594 25.511719 14.796875 25.511719 16.058594 Z M 25.511719 16.050781 "/>
</g>
</svg>
