<svg role="img" viewBox="0 0 32 32" xmlns="http://www.w3.org/2000/svg"><path d="M16 2.05A13.946 13.946 0 0 0 3.938 9.024h2.777a11.759 11.759 0 0 1 4.707-3.707 15.757 15.757 0 0 0-1.508 3.707h2.45C13.28 6.168 14.69 4.38 16 4.38c1.313 0 2.715 1.789 3.637 4.644h2.449a15.592 15.592 0 0 0-1.508-3.707 11.744 11.744 0 0 1 4.711 3.707h2.777A13.966 13.966 0 0 0 16 2.051M3.938 22.98a13.928 13.928 0 0 0 24.129 0h-2.778a11.702 11.702 0 0 1-4.71 3.704 15.498 15.498 0 0 0 1.507-3.704h-2.45c-.917 2.856-2.32 4.645-3.636 4.645-1.316 0-2.719-1.79-3.633-4.648H9.914a15.623 15.623 0 0 0 1.508 3.707 11.692 11.692 0 0 1-4.707-3.707Zm.488-10.652H2.44v-1.52h1.985Zm-1.985.754h1.985v6.074H2.44Zm7.344 2.231a.928.928 0 0 0-.969-.88c-1.109 0-1.289.95-1.289 1.79 0 .78.34 1.59 1.184 1.59.703 0 1.039-.383 1.133-1.04h1.93c-.188 1.637-1.426 2.559-3.051 2.559-1.825 0-3.18-1.238-3.18-3.11 0-1.929 1.227-3.308 3.18-3.308 1.52 0 2.84.805 2.992 2.399Zm2.981-2.231h1.925v.828h.024a2.025 2.025 0 0 1 1.742-1.008c.758 0 1.438.246 1.766.985a2.18 2.18 0 0 1 1.902-.973c1.93 0 2.14 1.461 2.14 2.617v3.621h-1.988V15.59c0-.652-.316-1.04-.832-1.04-.851 0-.933.657-.933 1.637v2.97H16.52v-3.45c0-.71-.2-1.156-.747-1.156-.714 0-1.02.418-1.02 1.648v2.957h-1.987Zm10.828 0h1.894v.7h.024c.363-.567 1-.9 1.672-.876 1.906 0 2.714 1.625 2.714 3.344 0 1.578-.843 3.074-2.562 3.074a2.043 2.043 0 0 1-1.73-.828h-.024v2.688h-1.988Zm1.918 2.969c0 1.062.304 1.754 1.207 1.754.902 0 1.191-.926 1.191-1.754 0-.774-.293-1.625-1.18-1.625-.527.008-1.218.37-1.218 1.633Zm0 0" style="stroke:none;fill-rule:nonzero;fill:rgb(20.392157%,59.607846%,85.882354%);fill-opacity:1"/></svg>