<?xml version="1.0" encoding="UTF-8"?>
<svg xmlns="http://www.w3.org/2000/svg" xmlns:xlink="http://www.w3.org/1999/xlink" width="32" height="32" viewBox="0 0 32 32" version="1.1">
<g id="surface1">
<path style=" stroke:none;fill-rule:nonzero;fill:rgb(0%,0%,0%);fill-opacity:1;" d="M 16 1.28125 C 14.941406 1.28125 14.078125 2.140625 14.078125 3.199219 L 14.078125 5.761719 L 17.921875 5.761719 L 17.921875 3.199219 C 17.921875 2.140625 17.058594 1.28125 16 1.28125 M 16 3.199219 C 16.234375 3.191406 16.453125 3.3125 16.570312 3.511719 C 16.691406 3.714844 16.691406 3.964844 16.570312 4.164062 C 16.453125 4.367188 16.234375 4.488281 16 4.480469 C 15.65625 4.46875 15.378906 4.1875 15.378906 3.839844 C 15.378906 3.496094 15.65625 3.210938 16 3.199219 M 8.320312 3.839844 C 7.261719 3.839844 6.398438 4.703125 6.398438 5.761719 L 6.398438 26.238281 C 6.398438 27.296875 7.261719 28.160156 8.320312 28.160156 L 19.738281 28.160156 C 20.730469 30.414062 22.984375 32 25.601562 32 C 29.128906 32 32 29.128906 32 25.601562 C 32 22.074219 29.128906 19.199219 25.601562 19.199219 L 25.601562 5.761719 C 25.601562 4.703125 24.738281 3.839844 23.679688 3.839844 L 19.199219 3.839844 L 19.199219 6.398438 C 19.199219 6.753906 18.914062 7.039062 18.558594 7.039062 L 13.441406 7.039062 C 13.089844 7.039062 12.800781 6.753906 12.800781 6.398438 L 12.800781 3.839844 Z M 15.980469 10.238281 C 16.605469 10.238281 17.089844 10.40625 17.28125 10.738281 C 19.113281 10.996094 18.546875 13.460938 18.28125 14.261719 C 18.378906 14.320312 18.539062 14.503906 18.5 14.839844 C 18.425781 15.46875 18.183594 15.628906 18.019531 15.640625 C 17.957031 16.226562 17.585938 16.910156 17.378906 17.019531 C 17.378906 17.4375 17.359375 17.761719 17.398438 18.21875 C 17.816406 19.339844 20.554688 19.234375 21.039062 21.140625 C 20.847656 21.335938 20.664062 21.542969 20.5 21.761719 L 10.878906 21.761719 C 10.878906 21.660156 10.890625 21.570312 10.898438 21.480469 L 10.878906 21.460938 C 11.128906 19.21875 14.140625 19.398438 14.578125 18.21875 C 14.585938 18.191406 14.597656 18.160156 14.621094 18.140625 C 14.652344 17.722656 14.640625 17.414062 14.640625 17.019531 C 14.433594 16.910156 14.042969 16.226562 13.980469 15.640625 C 13.816406 15.625 13.554688 15.46875 13.480469 14.839844 C 13.441406 14.5 13.601562 14.320312 13.699219 14.257812 C 13.148438 12.140625 13.46875 10.285156 15.980469 10.238281 M 25.601562 20.480469 C 28.433594 20.480469 30.71875 22.765625 30.71875 25.601562 C 30.71875 28.433594 28.433594 30.71875 25.601562 30.71875 C 22.765625 30.71875 20.480469 28.433594 20.480469 25.601562 C 20.480469 22.765625 22.765625 20.480469 25.601562 20.480469 M 27.78125 22.519531 L 25 26.820312 L 23.320312 25.28125 L 22.460938 26.238281 L 24.699219 28.261719 L 25.261719 28.78125 L 25.679688 28.140625 L 28.859375 23.199219 Z M 27.78125 22.519531 "/>
</g>
</svg>
