<svg xmlns="http://www.w3.org/2000/svg"  viewBox="0 0 50 50" width="32px" height="32px"><path d="M 2 -0.03125 C 1.425781 -0.03125 0.96875 0.425781 0.96875 1 L 0.96875 49 C 0.96875 49.574219 1.425781 50.03125 2 50.03125 L 32 50.03125 C 32.574219 50.03125 33.03125 49.574219 33.03125 49 L 33.03125 26 L 18.40625 26 L 25.59375 33.1875 C 25.984375 33.578125 25.984375 34.203125 25.59375 34.59375 C 25.398438 34.789063 25.132813 34.90625 24.875 34.90625 C 24.617188 34.90625 24.382813 34.789063 24.1875 34.59375 L 14.59375 25 L 24.1875 15.40625 C 24.578125 15.015625 25.203125 15.015625 25.59375 15.40625 C 25.984375 15.796875 25.984375 16.421875 25.59375 16.8125 L 18.40625 24 L 33.03125 24 L 33.03125 1 C 33.03125 0.425781 32.574219 -0.03125 32 -0.03125 Z M 33.03125 24 L 33.03125 26 L 48 26 C 48.554688 26 49 25.550781 49 25 C 49 24.449219 48.554688 24 48 24 Z"/></svg>