<?xml version="1.0" encoding="UTF-8"?>
<svg xmlns="http://www.w3.org/2000/svg" xmlns:xlink="http://www.w3.org/1999/xlink" width="32" height="32" viewBox="0 0 32 32" version="1.1">
<g id="surface1">
<path style=" stroke:none;fill-rule:nonzero;fill:rgb(0%,0%,0%);fill-opacity:1;" d="M 1.28125 -0.0195312 C 0.914062 -0.0195312 0.621094 0.273438 0.621094 0.640625 L 0.621094 31.359375 C 0.621094 31.726562 0.914062 32.019531 1.28125 32.019531 L 20.480469 32.019531 C 20.847656 32.019531 21.140625 31.726562 21.140625 31.359375 L 21.140625 16.640625 L 11.78125 16.640625 L 16.378906 21.242188 C 16.5 21.359375 16.566406 21.519531 16.566406 21.691406 C 16.566406 21.859375 16.5 22.019531 16.378906 22.140625 C 16.257812 22.265625 16.09375 22.335938 15.921875 22.339844 C 15.753906 22.339844 15.605469 22.265625 15.480469 22.140625 L 9.339844 16 L 15.480469 9.859375 C 15.597656 9.738281 15.761719 9.671875 15.929688 9.671875 C 16.097656 9.671875 16.261719 9.738281 16.378906 9.859375 C 16.5 9.980469 16.566406 10.140625 16.566406 10.308594 C 16.566406 10.480469 16.5 10.640625 16.378906 10.757812 L 11.78125 15.359375 L 21.140625 15.359375 L 21.140625 0.640625 C 21.140625 0.273438 20.847656 -0.0195312 20.480469 -0.0195312 Z M 21.140625 15.359375 L 21.140625 16.640625 L 30.71875 16.640625 C 31.074219 16.640625 31.359375 16.351562 31.359375 16 C 31.359375 15.648438 31.074219 15.359375 30.71875 15.359375 Z M 21.140625 15.359375 "/>
</g>
</svg>
