<?xml version="1.0" encoding="utf-8"?>
<!-- Generator: Adobe Illustrator 25.4.1, SVG Export Plug-In . SVG Version: 6.00 Build 0)  -->
<svg version="1.1" id="Layer_1" xmlns="http://www.w3.org/2000/svg" xmlns:xlink="http://www.w3.org/1999/xlink" x="0px" y="0px"
	 viewBox="0 0 100 100" style="enable-background:new 0 0 100 100;" xml:space="preserve">
<style type="text/css">
	.st0{fill:#404041;}
</style>
<g>
	<g>
		<path class="st0" d="M59.9,80.7c-2.4,2.8-6,4.5-9.9,4.5c-4,0-7.5-1.8-9.9-4.5c-3.7,1.5-6.4,5.2-6.4,9.4v6.7c0,1.7,1.4,3.1,3.1,3.1
			h26.3c1.7,0,3.1-1.4,3.1-3.1v-6.7C66.3,85.9,63.7,82.2,59.9,80.7z"/>
		<path class="st0" d="M43.5,80c1.8,1.4,4,2.3,6.5,2.3c2.5,0,4.7-0.9,6.5-2.3c2.8-2.3,4.4-6.1,3.5-10.2c-0.8-4-4.1-7.1-8.1-7.8
			c-6.5-1.2-12.2,3.8-12.2,10.1C39.7,75.2,41.2,78.1,43.5,80z"/>
	</g>
	<g>
		<path class="st0" d="M29.6,88.9C15.1,81.2,6.1,66.3,6.1,50c0-2.9,0.3-5.9,0.9-8.7l4.9,1c-0.5,2.5-0.8,5.1-0.8,7.7
			c0,14.5,8,27.7,20.8,34.4L29.6,88.9z"/>
	</g>
	<g>
		<path class="st0" d="M70.8,88.7l-2.4-4.4C81,77.5,88.9,64.4,88.9,50c0-2.9-0.3-5.7-0.9-8.5l4.9-1.1c0.7,3.1,1,6.3,1,9.6
			C93.9,66.2,85,81,70.8,88.7z"/>
	</g>
	<g>
		<path class="st0" d="M70,16.6c-6-3.6-12.9-5.5-20-5.5c-7,0-13.8,1.9-19.8,5.4l-2.5-4.3c6.7-4,14.5-6.1,22.3-6.1
			c7.9,0,15.7,2.1,22.5,6.2L70,16.6z"/>
	</g>
	<g>
		<path class="st0" d="M26.2,18.9c-2.4,2.8-6,4.5-9.9,4.5c-4,0-7.5-1.8-9.9-4.5C2.6,20.4,0,24.1,0,28.3v6.5c0,1.8,1.5,3.3,3.3,3.3
			h25.9c1.8,0,3.3-1.5,3.3-3.3v-6.5C32.6,24.1,29.9,20.4,26.2,18.9z"/>
		<path class="st0" d="M9.8,18.2c1.8,1.4,4,2.3,6.5,2.3c2.5,0,4.7-0.9,6.5-2.3c2.8-2.3,4.4-6.1,3.5-10.2c-0.8-4-4.1-7.1-8.1-7.8
			C11.7-1,6,3.9,6,10.3C6,13.4,7.5,16.3,9.8,18.2z"/>
	</g>
	<g>
		<path class="st0" d="M93.6,18.9c-2.4,2.8-6,4.5-9.9,4.5c-4,0-7.5-1.8-9.9-4.5c-3.7,1.5-6.4,5.2-6.4,9.4v6.8c0,1.7,1.4,3,3,3H97
			c1.7,0,3-1.4,3-3v-6.8C100,24.1,97.4,20.4,93.6,18.9z"/>
		<path class="st0" d="M77.2,18.2c1.8,1.4,4,2.3,6.5,2.3c2.5,0,4.7-0.9,6.5-2.3c2.8-2.3,4.4-6.1,3.5-10.2c-0.8-4-4.1-7.1-8.1-7.8
			C79.1-1,73.5,3.9,73.5,10.3C73.5,13.4,74.9,16.3,77.2,18.2z"/>
	</g>
</g>
</svg>
