<?xml version="1.0" encoding="utf-8"?>
<svg xmlns="http://www.w3.org/2000/svg" viewBox="0 0 50 50" fill="#000000"><path d="M 25 1.9277344 L 19.464844 7.4648438 A 1.0001 1.0001 0 1 0 20.878906 8.8789062 L 24 5.7578125 L 24 15 A 1.0001 1.0001 0 1 0 26 15 L 26 5.7578125 L 29.121094 8.8789062 A 1.0001 1.0001 0 1 0 30.535156 7.4648438 L 25 1.9277344 z M 40 9.9277344 L 34.464844 15.464844 A 1.0001 1.0001 0 1 0 35.878906 16.878906 L 39 13.757812 L 39 23 A 1.0001 1.0001 0 1 0 41 23 L 41 13.757812 L 44.121094 16.878906 A 1.0001 1.0001 0 1 0 45.535156 15.464844 L 40 9.9277344 z M 10 16.927734 L 4.4648438 22.464844 A 1.0001 1.0001 0 1 0 5.8789062 23.878906 L 9 20.757812 L 9 30 A 1.0001 1.0001 0 1 0 11 30 L 11 20.757812 L 14.121094 23.878906 A 1.0001 1.0001 0 1 0 15.535156 22.464844 L 10 16.927734 z M 20 18 C 19.447 18 19 18.448 19 19 L 19 46 C 19 46.553 19.447 47 20 47 L 30 47 C 30.553 47 31 46.553 31 46 L 31 19 C 31 18.448 30.553 18 30 18 L 20 18 z M 35 26 C 34.447 26 34 26.447 34 27 L 34 46 C 34 46.553 34.447 47 35 47 L 45 47 C 45.553 47 46 46.553 46 46 L 46 27 C 46 26.447 45.553 26 45 26 L 35 26 z M 5 33 C 4.447 33 4 33.447 4 34 L 4 46 C 4 46.553 4.447 47 5 47 L 15 47 C 15.553 47 16 46.553 16 46 L 16 34 C 16 33.447 15.553 33 15 33 L 5 33 z" fill="#000000"/></svg>
