<?xml version="1.0" encoding="UTF-8"?>
<svg xmlns="http://www.w3.org/2000/svg" xmlns:xlink="http://www.w3.org/1999/xlink" width="32" height="32" viewBox="0 0 32 32" version="1.1">
<g id="surface1">
<path style=" stroke:none;fill-rule:nonzero;fill:rgb(0%,0%,0%);fill-opacity:1;" d="M 24.960938 0 L 24.960938 1.28125 L 29.800781 1.28125 L 21.761719 9.320312 L 19.660156 7.21875 L 19.199219 6.78125 L 18.738281 7.21875 L 11.519531 14.441406 L 9.421875 12.339844 L 8.960938 11.898438 L 8.5 12.339844 L 0.179688 20.660156 L 1.101562 21.578125 L 8.960938 13.71875 L 11.058594 15.820312 L 11.519531 16.261719 L 11.980469 15.820312 L 19.199219 8.601562 L 21.300781 10.699219 L 21.761719 11.140625 L 22.21875 10.699219 L 30.71875 2.199219 L 30.71875 7.039062 L 32 7.039062 L 32 0 Z M 26.878906 8.960938 L 26.878906 32 L 28.160156 32 L 28.160156 8.960938 Z M 30.71875 9.601562 L 30.71875 32 L 32 32 L 32 9.601562 Z M 19.199219 12.800781 L 19.199219 32 L 20.480469 32 L 20.480469 12.800781 Z M 23.039062 12.800781 L 23.039062 32 L 24.320312 32 L 24.320312 12.800781 Z M 15.359375 15.359375 L 15.359375 32 L 16.640625 32 L 16.640625 15.359375 Z M 7.679688 17.921875 L 7.679688 32 L 8.960938 32 L 8.960938 17.921875 Z M 11.519531 19.199219 L 11.519531 32 L 12.800781 32 L 12.800781 19.199219 Z M 3.839844 21.761719 L 3.839844 32 L 5.121094 32 L 5.121094 21.761719 Z M 0 24.320312 L 0 32 L 1.28125 32 L 1.28125 24.320312 Z M 0 24.320312 "/>
</g>
</svg>
