<svg role="img" viewBox="0 0 32 32" xmlns="http://www.w3.org/2000/svg"><path d="m16 1.234-3.543 3.543a.64.64 0 0 0 .281 1.082.64.64 0 0 0 .625-.175l1.996-2v5.918a.642.642 0 1 0 1.281 0V3.684l1.997 2a.64.64 0 0 0 1.082-.282.64.64 0 0 0-.176-.625Zm9.602 5.121-3.543 3.543a.635.635 0 0 0-.176.622.636.636 0 0 0 1.078.28l2-1.995v5.914a.64.64 0 0 0 .96.562.64.64 0 0 0 .317-.562V8.805l2 1.996c.16.168.399.234.621.18a.637.637 0 0 0 .281-1.082ZM6.398 10.832 2.86 14.379a.637.637 0 0 0 .282 1.078.635.635 0 0 0 .62-.176l2-1.996V19.2a.64.64 0 0 0 .962.563.64.64 0 0 0 .316-.563v-5.914l2 1.996c.16.168.399.235.621.176a.63.63 0 0 0 .457-.457.635.635 0 0 0-.176-.621Zm6.403.688a.64.64 0 0 0-.64.64v17.281c0 .352.284.637.64.637h6.398c.356 0 .64-.285.64-.637v-17.28a.641.641 0 0 0-.64-.641Zm9.597 5.12a.638.638 0 0 0-.636.641v12.16c0 .352.285.637.636.637h6.403a.64.64 0 0 0 .64-.637v-12.16a.64.64 0 0 0-.64-.64ZM3.2 21.122a.641.641 0 0 0-.64.64v7.68a.64.64 0 0 0 .64.637h6.403a.637.637 0 0 0 .636-.637v-7.68a.638.638 0 0 0-.636-.64Zm0 0" style="stroke:none;fill-rule:nonzero;fill:rgb(0%,0%,0%);fill-opacity:1"/></svg>