<svg role="img" viewBox="0 0 32 32" xmlns="http://www.w3.org/2000/svg"><path d="M24.96 0v1.281h4.84l-8.038 8.04-2.102-2.102-.46-.438-.462.438-7.218 7.222-2.098-2.101-.461-.442-.461.442-8.32 8.32.922.918 7.859-7.86 2.098 2.102.46.442.461-.442 7.22-7.218 2.1 2.097.462.442.457-.442 8.5-8.5v4.84H32V0Zm1.919 8.96V32h1.281V8.96Zm3.84.642V32H32V9.602ZM19.199 12.8V32h1.281V12.8Zm3.84 0V32h1.281V12.8Zm-7.68 2.558V32h1.282V15.36Zm-7.68 2.563V32h1.282V17.922Zm3.84 1.277V32h1.282V19.2Zm-7.68 2.563V32h1.282V21.762ZM0 24.32V32h1.281v-7.68Zm0 0" style="stroke:none;fill-rule:nonzero;fill:rgb(0%,0%,0%);fill-opacity:1"/></svg>