<?xml version="1.0" encoding="UTF-8"?>
<svg xmlns="http://www.w3.org/2000/svg" xmlns:xlink="http://www.w3.org/1999/xlink" width="32" height="32" viewBox="0 0 32 32" version="1.1">
<g id="surface1">
<path style=" stroke:none;fill-rule:nonzero;fill:rgb(0%,0%,0%);fill-opacity:1;" d="M 8.539062 7.679688 C 3.964844 7.679688 0.328125 11.015625 0 15.378906 L 0 15.601562 C -0.0078125 15.738281 -0.0195312 15.878906 -0.0195312 16.019531 C -0.0195312 16.125 -0.00390625 16.222656 0.0195312 16.320312 C 0.171875 20.902344 3.742188 24.320312 8.460938 24.320312 C 11.925781 24.320312 13.703125 22.105469 14.980469 19.738281 C 14.449219 18.882812 13.949219 18.007812 13.480469 17.121094 C 12.21875 19.890625 11.042969 21.820312 8.460938 21.820312 C 5.105469 21.820312 2.648438 19.5 2.519531 16.28125 C 2.539062 16.199219 2.539062 16.109375 2.539062 16.019531 C 2.539062 12.726562 5.121094 10.238281 8.539062 10.238281 C 11.0625 10.238281 12.457031 12.503906 14.460938 16.238281 C 16.484375 20.015625 18.777344 24.300781 23.78125 24.300781 C 28.039062 24.300781 31.644531 20.863281 31.980469 16.660156 C 31.984375 16.585938 31.996094 16.511719 32 16.441406 C 32.007812 16.300781 32.019531 16.160156 32.019531 16.019531 C 32.019531 15.914062 32.003906 15.816406 31.980469 15.71875 C 31.824219 11.191406 28.207031 7.679688 23.601562 7.679688 C 20.085938 7.679688 18.179688 10.03125 16.820312 12.539062 C 17.179688 13.171875 17.503906 13.816406 17.839844 14.441406 C 17.988281 14.71875 18.136719 14.976562 18.28125 15.238281 C 19.546875 12.46875 20.835938 10.179688 23.601562 10.179688 C 26.953125 10.179688 29.390625 12.558594 29.480469 15.839844 C 29.472656 15.898438 29.460938 15.960938 29.460938 16.019531 C 29.460938 19.066406 26.808594 21.738281 23.78125 21.738281 C 20.308594 21.738281 18.566406 18.488281 16.71875 15.039062 C 14.78125 11.421875 12.777344 7.679688 8.539062 7.679688 M 8.539062 7.679688 "/>
</g>
</svg>
