<svg role="img" viewBox="0 0 32 32" xmlns="http://www.w3.org/2000/svg"><path d="M8.54 7.68C3.964 7.68.327 11.016 0 15.379v.223c-.008.136-.02.277-.02.418 0 .105.016.203.04.3.152 4.582 3.722 8 8.44 8 3.466 0 5.243-2.215 6.52-4.582a45.418 45.418 0 0 1-1.5-2.617c-1.261 2.77-2.437 4.7-5.02 4.7-3.355 0-5.812-2.321-5.94-5.54.02-.082.02-.172.02-.261 0-3.293 2.581-5.782 6-5.782 2.523 0 3.917 2.266 5.92 6 2.024 3.778 4.317 8.063 9.321 8.063 4.258 0 7.864-3.438 8.2-7.64.003-.075.015-.15.019-.22.008-.14.02-.28.02-.421 0-.106-.016-.204-.04-.301-.156-4.528-3.773-8.04-8.378-8.04-3.516 0-5.422 2.352-6.782 4.86.36.633.684 1.277 1.02 1.902.148.278.297.536.441.797 1.266-2.77 2.555-5.058 5.32-5.058 3.352 0 5.79 2.379 5.88 5.66-.008.058-.02.12-.02.18 0 3.046-2.652 5.718-5.68 5.718-3.472 0-5.215-3.25-7.062-6.699-1.938-3.617-3.942-7.36-8.18-7.36m0 0" style="stroke:none;fill-rule:nonzero;fill:rgb(0%,0%,0%);fill-opacity:1"/></svg>