<?xml version="1.0" encoding="UTF-8"?>
<svg xmlns="http://www.w3.org/2000/svg" xmlns:xlink="http://www.w3.org/1999/xlink" width="32" height="32" viewBox="0 0 32 32" version="1.1">
<g id="surface1">
<path style=" stroke:none;fill-rule:nonzero;fill:rgb(0%,0%,0%);fill-opacity:1;" d="M 16 0.078125 C 10.394531 0.078125 5.839844 4.636719 5.839844 10.238281 C 5.839844 19.246094 15.164062 31.195312 15.558594 31.699219 C 15.664062 31.835938 15.828125 31.917969 16 31.921875 C 16.171875 31.917969 16.335938 31.835938 16.441406 31.699219 C 16.835938 31.1875 26.160156 19.039062 26.160156 10.238281 C 26.160156 4.636719 21.605469 0.078125 16 0.078125 M 12.160156 8.300781 L 13.121094 8.300781 L 13.121094 15.621094 L 12.160156 15.621094 Z M 15.398438 8.300781 L 18.621094 8.300781 C 19.359375 8.300781 19.898438 8.480469 20.28125 8.859375 C 20.660156 9.238281 20.859375 9.777344 20.859375 10.460938 C 20.859375 11.140625 20.660156 11.675781 20.28125 12.058594 C 19.898438 12.441406 19.359375 12.628906 18.621094 12.621094 L 16.378906 12.621094 L 16.378906 15.621094 L 15.398438 15.621094 Z M 16.378906 9.121094 L 16.378906 11.800781 L 18.28125 11.800781 C 18.832031 11.808594 19.246094 11.691406 19.5 11.460938 C 19.753906 11.226562 19.878906 10.898438 19.878906 10.460938 C 19.878906 10.023438 19.753906 9.691406 19.5 9.460938 C 19.246094 9.234375 18.832031 9.121094 18.28125 9.121094 Z M 16.378906 9.121094 "/>
</g>
</svg>
