<svg role="img" viewBox="0 0 32 32" xmlns="http://www.w3.org/2000/svg"><path d="M16 .078c-5.605 0-10.16 4.559-10.16 10.16 0 9.008 9.324 20.957 9.719 21.461a.57.57 0 0 0 .441.223.57.57 0 0 0 .441-.223c.395-.512 9.72-12.66 9.72-21.46C26.16 4.636 21.604.078 16 .078m-3.84 8.223h.961v7.32h-.96Zm3.238 0h3.223c.738 0 1.277.18 1.66.558.38.38.578.918.578 1.602 0 .68-.199 1.215-.578 1.598-.383.382-.922.57-1.66.562H16.38v3h-.98Zm.98.82v2.68h1.903c.551.008.965-.11 1.219-.34.254-.234.379-.563.379-1 0-.438-.125-.77-.379-1-.254-.227-.668-.34-1.219-.34Zm0 0" style="stroke:none;fill-rule:nonzero;fill:rgb(0%,0%,0%);fill-opacity:1"/></svg>