<?xml version="1.0" encoding="utf-8"?>
<svg xmlns="http://www.w3.org/2000/svg" viewBox="0 0 50 50" fill="#000000"><path d="M 25 0.125 C 16.242188 0.125 9.125 7.242188 9.125 16 C 9.125 30.070313 23.691406 48.742188 24.3125 49.53125 C 24.480469 49.742188 24.730469 49.875 25 49.875 C 25.273438 49.871094 25.523438 49.746094 25.6875 49.53125 C 26.308594 48.730469 40.875 29.746094 40.875 16 C 40.875 7.242188 33.757813 0.125 25 0.125 Z M 19 12.96875 L 20.5 12.96875 L 20.5 24.40625 L 19 24.40625 Z M 24.0625 12.96875 L 29.09375 12.96875 C 30.246094 12.96875 31.09375 13.25 31.6875 13.84375 C 32.28125 14.4375 32.59375 15.277344 32.59375 16.34375 C 32.59375 17.410156 32.28125 18.246094 31.6875 18.84375 C 31.09375 19.441406 30.246094 19.730469 29.09375 19.71875 L 25.59375 19.71875 L 25.59375 24.40625 L 24.0625 24.40625 Z M 25.59375 14.25 L 25.59375 18.4375 L 28.5625 18.4375 C 29.425781 18.449219 30.070313 18.269531 30.46875 17.90625 C 30.867188 17.542969 31.0625 17.027344 31.0625 16.34375 C 31.0625 15.660156 30.867188 15.140625 30.46875 14.78125 C 30.070313 14.425781 29.425781 14.25 28.5625 14.25 Z" fill="#000000"/></svg>
