<svg xmlns="http://www.w3.org/2000/svg" width="33" height="38" stroke="none" stroke-linecap="round" stroke-linejoin="round" fill="#fff" fill-rule="evenodd"><path d="M23.3466 10.3396s2.3046.9326 3.7862 12.9494c0 0-2.1382.8229-.823 2.2497s1.4836 4.1154 1.4836 4.1154-7.7916 1.152-21.3445.1645c0 0-5.4321-11.0838-3.2944-14.9247l3.5667.1097s5.1576 2.5788 4.9383-.1644c0 0 .9495-.0943 1.0935-.1811s1.2539 2.0464 4.2369-1.5133c0 0 4.6401-1.7726 6.2829-2.7817zM5.6593 12.3685S4.2558 8.335 2.4812 9.1758s.1292 3.856.6292 4.5009c0 .0002 1.5325-.9992 2.5489-1.3064z" fill="#60d0e4" fill-rule="nonzero"/><path d="M17.4064 32.9226c-.1751-.284-.5825-.2781-.9826-.3364-.2618-.0386-.857-.1032-.8727-.4309-.0218-.3578.5049-.49.8618-.5655.8537-.1804 1.7048-.1483 2.7328-.1483.4408 0 1.0285.0277 1.0769.3229.0404.2478-.169.4248-.3366.5384-.1488.101-.4494.1964-.4575.4176-.0148.3923.7069.3207.5384.8613-.0621.1999-.4088.3142-.673.3927-.8378.2401-1.8224.3223-2.7867.4041-.8728.0742-1.9893.2411-3.0156.0943-.2939-.0437-.6816-.154-.6999-.3633-.0295-.3353.5236-.4411.8212-.485.8225-.12 1.5942-.0672 2.4904-.1075.6249-.0284 1.2523-.0219 1.3056-.5922zm-8.8178.1213c.606-.0289 1.4573.0092 2.0595.1615.1576.0399.4571.1047.4578.2692.0008.1759-.3945.2509-.6192.3098-1.2803.3316-2.5919.4364-4.0116.6054-.258.0313-.5262.0489-.8078.1213-.1641.0424-.5662.1619-.552.3635.0178.2487.6611.1811.929.202.3446.0267.781.0686.8076.3229.0454.4336-.8109.4528-1.2385.4844-1.1782.0884-2.1909.0443-3.2849-.0943-.2131-.0268-.4799-.0772-.6999-.1614-.1963-.0757-.4655-.1894-.4712-.377-.0087-.2803.4298-.3862.6731-.4442.9032-.2142 1.8876-.2963 2.827-.4981.5965-.128 1.1841-.3563 1.6691-.552.5297-.2138 1.031-.4904 1.5752-.6462.2181-.0617.3927-.053.6863-.0672zm11.1735.9426c.1405-.0142.5229.0015.5249.1882.0033.2732-.859.2723-.8727.0135-.0103-.1618.1903-.1854.35-.2017zm-1.104.2291c.1833-.0171.4896-.0066.4983.1884.0131.2954-.8727.2828-.8618 0 .0062-.1276.1715-.1708.3633-.1884zm-1.3191.2281c.0808-.0061.2749-.0152.4174.0135.0517.0105.2634.0884.2692.1615.0116.1385-.2819.1907-.4171.2018-.2666.0225-.7484-.0115-.7676-.1749s.3417-.1903.4981-.2019zm-1.7497.1349c.2116-.0284.6927-.0179.6999.2151.0105.3332-1.0691.3349-1.0771.0135-.0039-.1734.2131-.2066.3774-.2286zm-2.0464.0244c.1795-.0122.3586-.0118.5519.027.0938.0186.3831.0856.3927.215.0138.2476-.6846.2923-1.0254.2694-.2062-.0135-.5908-.0934-.5924-.2557-.0012-.1374.2078-.1839.2693-.202.1468-.0426.2287-.0437.4036-.0537zm-12.5873.5389c-.0644.1964-.7025.305-.9425.1614.1252-.2181.6617-.2736.9425-.1614zm.1483.3521c-.1642.243-.7947.3312-1.1039.1752.1663-.2408.7941-.332 1.1039-.1752zm.2557.3229c-.1756.2211-.7963.3303-1.1039.1619.1228-.2256.8607-.3381 1.1039-.1619zm1.1308.1619c-.1141.2721-.8831.3923-1.1443.175.1375-.2863.8518-.3775 1.1443-.175zm.9153.0537c.1717-.0136.5162-.0278.6999.0268.3403.101.0724.2836-.1883.35-.2684.0704-.5598.1038-.9021.0807-.1611-.0109-.4321-.0539-.4443-.1614-.0148-.1277.2459-.1905.3365-.2156.1963-.055.3207-.0666.4983-.0808zm2.6926.1479c-.0152.1708-.2443.2688-.4443.3366a2.843 2.843 0 0 1-.6731.1345c-.1495.0093-.4451-.001-.4713-.1077-.0393-.1592.3199-.2836.4309-.3228.2297-.0825.4545-.1309.6595-.1479s.4244-.0088.4983.1075zm11.2543-25.9815c.0152.0026.0074.0135 0 .0135-.9011 1.0113-1.7428 2.0945-2.8001 3.0021-.1225.1054-.3453.3207-.5116.3098-.0942-.0061-.2129-.1381-.3093-.1752-.5673-.2167-1.1695.2238-1.1444.8483-.209.0639-.435.0872-.673.1075-.2263.0218-.4891.0768-.7134.0539-.1659-.017-.2738-.1038-.4981-.0808-.1032.011-.1844.0782-.3099.0943-.1963.0249-.4581-.0421-.6865-.0943-1.4312-.3272-2.6508-1.0733-4.0522-1.3729.1728-.1054.3914-.1649.5924-.24.0345-.065-.0698-.1697-.0404-.229 3.3154.3455 6.2055-.4456 8.6833-1.2655.859-.2842 1.6963-.6427 2.4653-.9691z" fill="#000"/><path d="M14.889 11.1679c-2.4776.8199-5.3678 1.6113-8.6833 1.2655-.0293.0588.0746.1636.0403.229-.2007.0773-.4195.137-.5923.24 1.4011.2996 2.6209 1.0437 4.0521 1.3729.2265.0525.4926.1192.6866.0943.1253-.0161.2064-.0835.3098-.0943.2243-.0229.332.064.4981.0808.2247.0229.4872-.0345.7134-.0539.2383-.0203.4641-.0436.6731-.1075-.0249-.6245.5749-1.0647 1.1443-.8483.0967.0371.2153.1688.3094.1752.1662.0109.389-.2044.5116-.3098 1.0572-.9076 1.8994-1.9908 2.8-3.0021.0075 0 .0153-.0109 0-.0135l-2.4653.9691z" fill="#638b18"/><path d="M16.1007 33.5149c-.8963.0406-1.6679-.0122-2.4904.1076-.3.0436-.8509.1496-.8213.485.0184.2094.4059.3215.7.3632 1.0262.1471 2.1429-.0202 3.0155-.0942.9644-.0818 1.949-.1615 2.7868-.4041.2618-.0763.6108-.1904.673-.3927.1686-.541-.5533-.4691-.5384-.8613.0083-.2193.3089-.3164.4575-.4176.1675-.1134.377-.2906.3366-.5385-.0484-.2954-.6364-.3229-1.0769-.3229-1.0254 0-1.8791-.0323-2.7328.1484-.3567.0755-.8815.2079-.8618.5655.0181.3277.6109.3923.8727.4309.4003.0582.8072.0523.9827.3364-.0531.5701-.6808.5638-1.3056.5921zm-8.1985-.4036c-.5441.1558-1.0455.4324-1.5752.6462-.4852.1955-1.0727.4237-1.6691.552l-2.827.4981c-.2433.058-.6816.1636-.6731.4442.0057.1876.2749.301.4713.377.2182.0842.4865.1346.6999.1614 1.0939.1386 2.1062.1827 3.2848.0943.4276-.0318 1.2839-.0509 1.2385-.4843-.0265-.2545-.4629-.2963-.8076-.3229-.2683-.0208-.9111.0464-.929-.202-.0142-.2016.3877-.3212.552-.3636.2818-.0724.5498-.09.8078-.1213l4.0116-.6054c.2247-.0589.6201-.1339.6192-.3098-.0007-.1649-.3002-.2295-.4577-.2692-.6022-.1523-1.4537-.1905-2.0596-.1615-.2936.014-.4704.0053-.6864.0672zm11.5101 1.0767c.016.259.8782.2618.8727-.0135-.0021-.1868-.3846-.2029-.5249-.1883-.1597.0166-.36.0399-.3499.2018zm-1.1174.2181c-.0136.2828.8727.2954.8617 0-.0087-.1954-.3152-.2055-.4982-.1884-.1916.0174-.357.0606-.3633.1884zm-1.4541.2396c.0191.1636.5006.1973.7675.175.1353-.0109.4287-.0655.4171-.2019-.0059-.073-.2175-.1509-.2692-.1613-.1423-.0291-.3364-.0219-.4174-.0136-.1564.0115-.517.041-.498.2018zm-1.6287.1615c.0076.3213 1.0873.3196 1.0771-.0136-.0074-.233-.4887-.2434-.6999-.2151-.1643.0218-.3814.055-.3775.2287zm-2.0733-.148c-.0616.0181-.2705.0646-.2692.2021.0015.1623.3861.2399.5923.2556.3386.0228 1.0368-.0218 1.0254-.2694-.0072-.1296-.2967-.1964-.3927-.2149-.1933-.0388-.3724-.0392-.552-.027-.1745.012-.2563.0109-.4036.0536zm-13.1253.6463c.24.1435.8779.037.9425-.1615-.2805-.1121-.817-.0567-.9425.1615zM0 35.6689c.3092.156.9397.0681 1.1039-.1752-.3098-.1566-.9376-.0654-1.1039.1752zm.2557.3098c.3055.1681.9283.0589 1.1039-.1618-.2432-.1746-.9811-.0637-1.1039.1618zm1.0904.175c.2612.2173 1.0298.0971 1.1443-.175-.2923-.2022-1.0066-.109-1.1443.175zm1.5615-.041c-.0906.0251-.3491.0879-.3364.2155.0124.1076.2829.1528.4442.1615.3425.0229.6335-.0103.9021-.0807.2607-.0687.5289-.2492.1883-.35-.1837-.0545-.528-.0403-.6999-.0268-.1774.014-.2996.0255-.4983.0807zm2.6929-.0397c-.2051.0148-.4299.0654-.6596.1479-.109.0399-.4703.1636-.4308.3229.0261.1091.3218.117.4712.1076a2.856 2.856 0 0 0 .6731-.1344c.2-.0655.4291-.1658.4444-.3367-.0742-.116-.2985-.1221-.4983-.1075z" fill="#000"/><g fill-rule="nonzero"><path d="M17.1736 8.0624c-8.0933 3.5119-12.1535 1.9753-12.1535 1.9753l.9599 1.9205c5.7888.6585 11.7377-2.4555 11.7377-2.4555l.2976-.8155s-.493.1062-.7766-.6458z" fill="#e1caa2"/><path d="M17.7636 5.7097l-.103-.3497s-6.525-2.5513-8.0043-1.7696-3.3947 2.1403-4.7941 4.2385l-.0205 1.6668s4.0194 1.6668 12.3049-1.9271c0 0-.1097-1.0019.6175-1.8589z" fill="#638b18"/><path d="M18.2654 8.0837c-.0982.0855-.1906.1483-.288.1294-.294-.0578-.4298-.6292-.3027-1.2764s.4686-1.1246.7631-1.069c.2829.0556.4189.5865.3159 1.203 0 0-.3133.5749-.4617.9785z" fill="#000"/><path d="M22.2765 5.0858s-1.4836-.9739-3.0588 1.1934c0 0-.2057-1.2872-1.2621-.7409 0 0 .2057-1.8519.0685-2.1126 0 0 .4117.1235.535.3977 0 0 1.0839-1.0559 1.0151-2.5238 0 0 .288.041.288.4115 0 0 .4036-.8928.7992-1.374l.0375-.0529c1.5911-1.3854.1235 2.7438.1235 2.7438s-.0855.2051-.1731.3154.7536-.2803.7434-.5993.1054.4501 0 .5891c0 0 1.3915-1.1007 1.4325-1.6771 0 0 .2195.439.1645.7954 0 0 1.2345-.9326 1.2621-1.3718 0 0 .1528 2.3731-2.1948 3.2785 0 0 .384 0 .864-.096z" fill="#e1caa2"/><path d="M23.0587 7.9253s4.9521-1.0974 2.3183.672-3.018 1.6873-3.018 1.6873.535-.7932.6997-2.3593zm-.782 2.4278l-4.5543 1.9891s1.4131-1.2071.9329-1.8658c0 .0002 2.3868-.3563 3.6217-.1233z" fill="#638b18"/><path d="M18.0516 10.0106c1.2619-3.4979 1.8963-3.8917 1.8963-3.8917.5983-.6437 1.3512-.9273 1.9457-.655.5149.2356.7911.8341.7935 1.5571l-.0002.0437s-.0949 1.7641-.5886 2.7655c0 0-1.8382-.2607-3.8137.2607z" fill="#60d0e4"/><path d="M19.8537 8.4474s.9875-1.9653 1.59-1.5111c0 0 .1484.1778-.2369 1.4716 0 0 1.5927-1.9457-.0589-1.9952-.0002.0002-1.1061-.0393-1.2937 2.0347zM4.5031 12.3051s-1.3003-1.967-1.4181-1.5752.0785 1.0847.109 1.2741-.9935-1.2091-.3071-1.7192 1.5359 1.0721 1.6144 2.0196z" fill="#000"/><path d="M2.9874 14.2944h.0512s.7536-.5483.9764-.6338-.274.822 1.0446.822-3.4253.1713-4.5042-.7706c0 0-.0938-.4073 1.3522-1.0777 0 0 .8727 1.5595 1.08 1.6581z" fill="#638b18"/><path d="M7.6295 14.8252c-1.4916-.6589-2.6081-.8509-2.6081-.8509l-.0333.0013c-.2343 0-.4246-.152-.4246-.3394s.1903-.3395.4246-.3395c.0195 0 .039.001.0584.003s1.0952.1833 2.7992.8952l.1855.0764c1.5843.5864 2.2222.6021 2.2222.6021.2138.0181.2701.0181.2985-.0026s.2058-.0899.2058-.0899c.2253.0059.4062.1621.4062.3539 0 .1845-.3164.3855-.5297.4023 0 0-1.1727.0925-2.9423-.6895zm10.6032-3.9516a.293.293 0 0 0 .0054-.0576c0-.1697-.1404-.3054-.3137-.3054-.0426-.0001-.0848.0084-.1242.0249l-1.2968 1.4153c-.5315.6017-1.8308 2.0229-2.375 2.0868l-.3072.0318c-.0257-.051-.1645-.1745-.1645-.1745-.0873-.0775-.2051-.1102-.3172-.0759-.1789.0545-.2753.2618-.2147.4577a.404.404 0 0 0 .1233.1894c.0583.0501.8997.9113 2.4488-.7085l1.6899-1.7859s.7854-.8579.8385-1.0625z" fill="#000"/><path d="M20.9416 17.2508c0 1.7204-1.3963 3.1162-3.1199 3.1162s-3.119-1.3956-3.119-3.1162 1.3963-3.1198 3.119-3.1198 3.1187 1.3955 3.1199 3.1177zm-9.6869 2.2774c0 1.7205-1.3963 3.1161-3.1199 3.1161S5.018 21.2508 5.018 19.5282s1.3963-3.1199 3.1192-3.1199a3.12 3.12 0 0 1 3.1199 3.1199zm2.5997 4.9952c.0823.4663.2743 1.4539.9327 1.3715s.4117-1.3992.4117-1.3992-1.1249-.0545-1.2348 0zm-.3839.1296s-.6039.2575-1.0859.5716c0 0 .24 1.2271 1.0407.8607 0 0 .5269-.116.0772-1.3498zm-1.5334-2.7262s-3.8398 1.1562-1.9564 3.098c1.235 1.2728 2.9441-.8945 3.8556-.8736 0 0 .2091-.0949.6458-.038s3.2861.285 3.5519-.8547-.0759-1.3296-.285-1.4624-1.7094-1.0254-3.9507-.3989z"/><path d="M6.8849 20.5985c0-.5416.436-.9776.9776-.9776s.9777.436.9777.9776-.436.9777-.9777.9777-.9776-.436-.9776-.9777zm9.5476-2.3319a.9777.9777 0 0 1 1.9553 0 .9777.9777 0 0 1-1.9553 0zm-4.7854 3.7272c-.1039-.5127.5687-1.0788 1.5081-1.2691s1.7793.0692 1.8833.5819-.5688 1.0787-1.5083 1.269-1.7792-.0691-1.8831-.5818z" fill="#000"/><path d="M11.5495 22.5484s-2.4142 1.1246-1.2871 2.0573 1.6733-.5759 3.3194-.8502 3.5392.1645 3.9233-.5489.5235-1.2873-2.1676-1.5364c0 0-.2465 1.1799-1.6734 1.3169s-1.6729-.1099-2.1119-.439z" fill="#e1caa2"/><path d="M30.657 27.854s3.9864.845-1.7768 1.6902c0 0 1.3651-.5634 1.7768-1.6902z" fill="#231f20"/><path d="M27.927 28.2439s-.1302-2.0362-1.3435-3.1412 1.0184-1.4515 1.7117-1.1485 3.575 2.2967 1.0399 4.8532c0 0-1.0833.78-1.3865-.4548z" fill="#e1caa2"/><path d="M2.4548 27.7884s-.2057 1.0287-.041 1.4609c0 0-3.4777-.597-.1647-1.4199z" fill="#000"/><path d="M4.1212 25.4633s-2.1352 2.5264-1.0289 4.5882c.9055 1.6873 2.7366-.2261 2.7779-.288z" fill="#e1caa2"/></g></svg>