<?xml version="1.0" encoding="UTF-8"?>
<svg xmlns="http://www.w3.org/2000/svg" xmlns:xlink="http://www.w3.org/1999/xlink" width="27.789474" height="32" viewBox="0 0 27.789474 32" version="1.1">
<g id="surface1">
<path style=" stroke:none;fill-rule:nonzero;fill:rgb(37.64706%,81.568629%,89.411765%);fill-opacity:1;" d="M 19.660156 8.707031 C 19.660156 8.707031 21.601562 9.492188 22.847656 19.613281 C 22.847656 19.613281 21.046875 20.304688 22.15625 21.507812 C 23.261719 22.707031 23.40625 24.972656 23.40625 24.972656 C 23.40625 24.972656 16.84375 25.941406 5.429688 25.109375 C 5.429688 25.109375 0.855469 15.777344 2.65625 12.542969 L 5.660156 12.632812 C 5.660156 12.632812 10.003906 14.804688 9.820312 12.496094 C 9.820312 12.496094 10.617188 12.417969 10.738281 12.34375 C 10.859375 12.269531 11.796875 14.066406 14.308594 11.070312 C 14.308594 11.070312 18.214844 9.578125 19.597656 8.726562 Z M 4.765625 10.414062 C 4.765625 10.414062 3.582031 7.019531 2.089844 7.726562 C 0.59375 8.433594 2.199219 10.972656 2.621094 11.515625 C 2.621094 11.515625 3.910156 10.675781 4.765625 10.417969 Z M 4.765625 10.414062 "/>
<path style=" stroke:none;fill-rule:evenodd;fill:rgb(0%,0%,0%);fill-opacity:1;" d="M 14.65625 27.722656 C 14.511719 27.484375 14.167969 27.488281 13.832031 27.441406 C 13.609375 27.410156 13.109375 27.355469 13.09375 27.078125 C 13.078125 26.777344 13.519531 26.664062 13.820312 26.601562 C 14.539062 26.449219 15.257812 26.476562 16.121094 26.476562 C 16.492188 26.476562 16.988281 26.5 17.03125 26.75 C 17.0625 26.957031 16.886719 27.105469 16.746094 27.203125 C 16.621094 27.289062 16.367188 27.367188 16.359375 27.554688 C 16.347656 27.882812 16.957031 27.824219 16.8125 28.28125 C 16.761719 28.449219 16.46875 28.542969 16.246094 28.609375 C 15.542969 28.8125 14.710938 28.882812 13.902344 28.949219 C 13.164062 29.011719 12.226562 29.152344 11.363281 29.03125 C 11.113281 28.992188 10.789062 28.898438 10.773438 28.722656 C 10.746094 28.441406 11.210938 28.351562 11.464844 28.316406 C 12.15625 28.214844 12.804688 28.257812 13.5625 28.226562 C 14.085938 28.199219 14.617188 28.207031 14.660156 27.726562 Z M 7.234375 27.828125 C 7.742188 27.800781 8.460938 27.835938 8.96875 27.960938 C 9.097656 27.996094 9.351562 28.050781 9.351562 28.1875 C 9.351562 28.335938 9.019531 28.402344 8.832031 28.449219 C 7.753906 28.730469 6.648438 28.816406 5.453125 28.960938 C 5.234375 28.984375 5.007812 29 4.773438 29.0625 C 4.632812 29.097656 4.296875 29.199219 4.308594 29.367188 C 4.324219 29.578125 4.863281 29.519531 5.089844 29.539062 C 5.378906 29.5625 5.746094 29.597656 5.769531 29.808594 C 5.808594 30.175781 5.085938 30.191406 4.726562 30.21875 C 3.734375 30.292969 2.882812 30.253906 1.960938 30.136719 C 1.78125 30.117188 1.558594 30.074219 1.371094 30.003906 C 1.207031 29.9375 0.980469 29.84375 0.976562 29.683594 C 0.96875 29.449219 1.335938 29.359375 1.542969 29.3125 C 2.300781 29.128906 3.132812 29.0625 3.921875 28.890625 C 4.425781 28.785156 4.917969 28.589844 5.328125 28.425781 C 5.773438 28.246094 6.195312 28.015625 6.652344 27.882812 C 6.835938 27.832031 6.984375 27.839844 7.230469 27.824219 Z M 16.640625 28.621094 C 16.761719 28.609375 17.082031 28.621094 17.082031 28.777344 C 17.085938 29.007812 16.359375 29.007812 16.347656 28.789062 C 16.339844 28.652344 16.507812 28.632812 16.644531 28.621094 Z M 15.710938 28.8125 C 15.867188 28.796875 16.125 28.808594 16.132812 28.972656 C 16.144531 29.21875 15.398438 29.210938 15.40625 28.972656 C 15.410156 28.863281 15.550781 28.828125 15.710938 28.8125 Z M 14.601562 29.003906 C 14.667969 29 14.832031 28.992188 14.953125 29.015625 C 14.996094 29.027344 15.175781 29.089844 15.179688 29.152344 C 15.1875 29.269531 14.941406 29.3125 14.828125 29.324219 C 14.605469 29.339844 14.199219 29.3125 14.183594 29.175781 C 14.164062 29.039062 14.46875 29.015625 14.601562 29.003906 Z M 13.128906 29.117188 C 13.304688 29.09375 13.710938 29.105469 13.71875 29.300781 C 13.726562 29.582031 12.816406 29.582031 12.808594 29.3125 C 12.808594 29.164062 12.988281 29.136719 13.128906 29.117188 Z M 11.40625 29.140625 C 11.554688 29.128906 11.707031 29.128906 11.871094 29.160156 C 11.949219 29.179688 12.191406 29.234375 12.199219 29.34375 C 12.210938 29.550781 11.625 29.589844 11.335938 29.570312 C 11.164062 29.558594 10.839844 29.492188 10.835938 29.355469 C 10.835938 29.238281 11.011719 29.199219 11.0625 29.183594 C 11.1875 29.148438 11.257812 29.148438 11.402344 29.140625 Z M 0.804688 29.59375 C 0.75 29.757812 0.214844 29.851562 0.0117188 29.730469 C 0.117188 29.546875 0.566406 29.5 0.804688 29.59375 Z M 0.929688 29.890625 C 0.792969 30.09375 0.261719 30.167969 0 30.039062 C 0.140625 29.835938 0.667969 29.757812 0.929688 29.890625 Z M 1.144531 30.160156 C 0.996094 30.347656 0.472656 30.441406 0.214844 30.296875 C 0.320312 30.109375 0.941406 30.011719 1.144531 30.160156 Z M 2.097656 30.296875 C 2 30.527344 1.355469 30.628906 1.132812 30.445312 C 1.25 30.203125 1.851562 30.128906 2.097656 30.296875 Z M 2.867188 30.34375 C 3.011719 30.332031 3.300781 30.320312 3.457031 30.367188 C 3.742188 30.449219 3.519531 30.605469 3.296875 30.660156 C 3.074219 30.71875 2.828125 30.746094 2.539062 30.726562 C 2.402344 30.71875 2.175781 30.683594 2.164062 30.59375 C 2.152344 30.484375 2.371094 30.433594 2.449219 30.410156 C 2.613281 30.363281 2.71875 30.355469 2.867188 30.34375 Z M 5.136719 30.46875 C 5.121094 30.613281 4.929688 30.695312 4.761719 30.75 C 4.578125 30.8125 4.386719 30.851562 4.195312 30.863281 C 4.070312 30.871094 3.820312 30.863281 3.796875 30.773438 C 3.765625 30.640625 4.066406 30.535156 4.160156 30.5 C 4.355469 30.433594 4.542969 30.390625 4.714844 30.378906 C 4.886719 30.363281 5.074219 30.371094 5.136719 30.46875 Z M 14.613281 8.589844 C 14.625 8.589844 14.617188 8.601562 14.613281 8.601562 C 13.855469 9.453125 13.144531 10.363281 12.253906 11.128906 C 12.152344 11.214844 11.964844 11.398438 11.824219 11.390625 C 11.746094 11.382812 11.644531 11.273438 11.5625 11.242188 C 11.085938 11.058594 10.578125 11.429688 10.601562 11.957031 C 10.421875 12.007812 10.234375 12.027344 10.03125 12.046875 C 9.84375 12.066406 9.621094 12.109375 9.433594 12.089844 C 9.292969 12.078125 9.203125 12.003906 9.011719 12.023438 C 8.925781 12.03125 8.859375 12.089844 8.75 12.101562 C 8.585938 12.125 8.367188 12.066406 8.171875 12.023438 C 6.96875 11.746094 5.941406 11.121094 4.761719 10.867188 C 4.90625 10.777344 5.089844 10.730469 5.261719 10.664062 C 5.289062 10.609375 5.203125 10.523438 5.226562 10.472656 C 8.019531 10.761719 10.453125 10.097656 12.539062 9.40625 C 13.261719 9.167969 13.96875 8.867188 14.613281 8.589844 Z M 14.613281 8.589844 "/>
<path style=" stroke:none;fill-rule:evenodd;fill:rgb(38.82353%,54.509807%,9.411765%);fill-opacity:1;" d="M 12.539062 9.40625 C 10.453125 10.09375 8.019531 10.761719 5.226562 10.46875 C 5.203125 10.519531 5.289062 10.609375 5.261719 10.664062 C 5.089844 10.726562 4.90625 10.777344 4.761719 10.863281 C 5.941406 11.117188 6.96875 11.742188 8.171875 12.019531 C 8.363281 12.066406 8.589844 12.121094 8.75 12.101562 C 8.855469 12.085938 8.925781 12.03125 9.011719 12.019531 C 9.203125 12.003906 9.292969 12.074219 9.433594 12.089844 C 9.621094 12.109375 9.84375 12.058594 10.03125 12.042969 C 10.234375 12.027344 10.421875 12.007812 10.597656 11.953125 C 10.578125 11.425781 11.082031 11.058594 11.5625 11.238281 C 11.644531 11.269531 11.746094 11.382812 11.824219 11.386719 C 11.964844 11.394531 12.152344 11.214844 12.253906 11.125 C 13.144531 10.363281 13.855469 9.449219 14.613281 8.597656 C 14.617188 8.597656 14.625 8.589844 14.613281 8.585938 L 12.535156 9.402344 Z M 12.539062 9.40625 "/>
<path style=" stroke:none;fill-rule:evenodd;fill:rgb(0%,0%,0%);fill-opacity:1;" d="M 13.558594 28.222656 C 12.804688 28.257812 12.152344 28.210938 11.460938 28.3125 C 11.207031 28.351562 10.746094 28.441406 10.769531 28.722656 C 10.785156 28.898438 11.113281 28.992188 11.359375 29.027344 C 12.222656 29.152344 13.164062 29.011719 13.898438 28.949219 C 14.710938 28.878906 15.539062 28.8125 16.246094 28.609375 C 16.464844 28.542969 16.757812 28.449219 16.8125 28.277344 C 16.953125 27.820312 16.347656 27.882812 16.359375 27.550781 C 16.367188 27.367188 16.617188 27.285156 16.742188 27.199219 C 16.886719 27.105469 17.0625 26.957031 17.027344 26.746094 C 16.988281 26.5 16.492188 26.476562 16.121094 26.476562 C 15.257812 26.476562 14.539062 26.449219 13.820312 26.601562 C 13.519531 26.664062 13.078125 26.773438 13.09375 27.078125 C 13.109375 27.351562 13.609375 27.40625 13.828125 27.4375 C 14.164062 27.488281 14.507812 27.484375 14.65625 27.722656 C 14.609375 28.203125 14.082031 28.199219 13.554688 28.222656 Z M 6.65625 27.882812 C 6.195312 28.015625 5.773438 28.246094 5.328125 28.425781 C 4.917969 28.59375 4.425781 28.785156 3.921875 28.890625 L 1.542969 29.3125 C 1.335938 29.359375 0.96875 29.449219 0.976562 29.6875 C 0.980469 29.84375 1.207031 29.9375 1.371094 30.003906 C 1.554688 30.074219 1.78125 30.117188 1.960938 30.140625 C 2.882812 30.253906 3.734375 30.292969 4.726562 30.21875 C 5.085938 30.191406 5.808594 30.175781 5.769531 29.8125 C 5.746094 29.597656 5.378906 29.5625 5.089844 29.539062 C 4.863281 29.519531 4.324219 29.578125 4.308594 29.367188 C 4.296875 29.199219 4.632812 29.097656 4.773438 29.0625 C 5.011719 29 5.234375 28.988281 5.453125 28.960938 L 8.832031 28.449219 C 9.019531 28.402344 9.351562 28.335938 9.351562 28.191406 C 9.351562 28.050781 9.101562 27.996094 8.96875 27.964844 C 8.460938 27.835938 7.742188 27.800781 7.234375 27.828125 C 6.984375 27.839844 6.835938 27.832031 6.65625 27.882812 Z M 16.347656 28.789062 C 16.359375 29.007812 17.085938 29.011719 17.082031 28.777344 C 17.082031 28.621094 16.757812 28.609375 16.640625 28.621094 C 16.503906 28.632812 16.335938 28.652344 16.34375 28.789062 Z M 15.40625 28.972656 C 15.394531 29.210938 16.140625 29.222656 16.132812 28.972656 C 16.125 28.808594 15.867188 28.800781 15.710938 28.816406 C 15.550781 28.828125 15.410156 28.867188 15.40625 28.972656 Z M 14.183594 29.175781 C 14.199219 29.3125 14.601562 29.339844 14.828125 29.324219 C 14.941406 29.3125 15.1875 29.265625 15.179688 29.152344 C 15.175781 29.089844 14.996094 29.027344 14.953125 29.015625 C 14.832031 28.992188 14.667969 29 14.601562 29.003906 C 14.46875 29.015625 14.164062 29.039062 14.183594 29.175781 Z M 12.808594 29.3125 C 12.816406 29.582031 13.726562 29.582031 13.71875 29.300781 C 13.710938 29.105469 13.304688 29.09375 13.128906 29.117188 C 12.988281 29.136719 12.808594 29.164062 12.808594 29.3125 Z M 11.0625 29.1875 C 11.011719 29.203125 10.835938 29.242188 10.835938 29.355469 C 10.839844 29.492188 11.164062 29.558594 11.335938 29.570312 C 11.621094 29.589844 12.210938 29.554688 12.199219 29.34375 C 12.195312 29.234375 11.949219 29.179688 11.867188 29.164062 C 11.707031 29.132812 11.554688 29.132812 11.402344 29.140625 C 11.257812 29.152344 11.1875 29.152344 11.0625 29.1875 Z M 0.0117188 29.730469 C 0.214844 29.851562 0.75 29.761719 0.804688 29.59375 C 0.570312 29.5 0.117188 29.546875 0.0117188 29.730469 Z M 0 30.035156 C 0.261719 30.167969 0.792969 30.09375 0.929688 29.890625 C 0.667969 29.757812 0.140625 29.835938 0 30.035156 Z M 0.214844 30.296875 C 0.472656 30.4375 0.996094 30.347656 1.144531 30.160156 C 0.941406 30.015625 0.320312 30.109375 0.214844 30.296875 Z M 1.132812 30.445312 C 1.355469 30.628906 2 30.527344 2.097656 30.296875 C 1.851562 30.128906 1.25 30.207031 1.132812 30.445312 Z M 2.449219 30.410156 C 2.371094 30.433594 2.15625 30.484375 2.164062 30.59375 C 2.175781 30.683594 2.402344 30.722656 2.539062 30.726562 C 2.828125 30.746094 3.074219 30.71875 3.300781 30.660156 C 3.519531 30.601562 3.746094 30.449219 3.457031 30.367188 C 3.304688 30.320312 3.011719 30.332031 2.867188 30.34375 C 2.71875 30.355469 2.617188 30.363281 2.449219 30.410156 Z M 4.714844 30.378906 C 4.542969 30.390625 4.355469 30.433594 4.160156 30.5 C 4.070312 30.535156 3.765625 30.640625 3.796875 30.773438 C 3.820312 30.867188 4.070312 30.871094 4.195312 30.863281 C 4.386719 30.847656 4.578125 30.8125 4.761719 30.75 C 4.929688 30.695312 5.121094 30.613281 5.136719 30.46875 C 5.074219 30.371094 4.882812 30.363281 4.714844 30.378906 Z M 4.714844 30.378906 "/>
<path style=" stroke:none;fill-rule:nonzero;fill:rgb(88.235295%,79.215688%,63.529414%);fill-opacity:1;" d="M 14.460938 6.789062 C 7.648438 9.746094 4.226562 8.453125 4.226562 8.453125 L 5.035156 10.070312 C 9.910156 10.625 14.921875 8.003906 14.921875 8.003906 L 15.171875 7.316406 C 15.171875 7.316406 14.753906 7.40625 14.515625 6.773438 Z M 14.460938 6.789062 "/>
<path style=" stroke:none;fill-rule:nonzero;fill:rgb(38.82353%,54.509807%,9.411765%);fill-opacity:1;" d="M 14.957031 4.808594 L 14.871094 4.515625 C 14.871094 4.515625 9.378906 2.363281 8.132812 3.023438 C 6.886719 3.683594 5.273438 4.824219 4.09375 6.59375 L 4.078125 7.996094 C 4.078125 7.996094 7.460938 9.398438 14.4375 6.375 C 14.4375 6.375 14.347656 5.53125 14.960938 4.808594 Z M 14.957031 4.808594 "/>
<path style=" stroke:none;fill-rule:nonzero;fill:rgb(0%,0%,0%);fill-opacity:1;" d="M 15.382812 6.808594 C 15.296875 6.878906 15.222656 6.933594 15.140625 6.917969 C 14.890625 6.867188 14.777344 6.386719 14.882812 5.839844 C 14.992188 5.296875 15.277344 4.894531 15.527344 4.941406 C 15.765625 4.988281 15.878906 5.433594 15.792969 5.953125 C 15.792969 5.953125 15.527344 6.4375 15.402344 6.777344 Z M 15.382812 6.808594 "/>
<path style=" stroke:none;fill-rule:nonzero;fill:rgb(88.235295%,79.215688%,63.529414%);fill-opacity:1;" d="M 18.757812 4.28125 C 18.757812 4.28125 17.511719 3.460938 16.183594 5.289062 C 16.183594 5.289062 16.011719 4.203125 15.121094 4.664062 C 15.121094 4.664062 15.292969 3.105469 15.179688 2.886719 C 15.179688 2.886719 15.523438 2.988281 15.628906 3.21875 C 15.628906 3.21875 16.542969 2.332031 16.484375 1.09375 C 16.484375 1.09375 16.726562 1.128906 16.726562 1.441406 C 16.726562 1.441406 17.066406 0.6875 17.398438 0.285156 L 17.429688 0.238281 C 18.769531 -0.925781 17.535156 2.550781 17.535156 2.550781 C 17.535156 2.550781 17.460938 2.722656 17.390625 2.816406 C 17.316406 2.910156 18.023438 2.578125 18.015625 2.3125 C 18.007812 2.042969 18.105469 2.691406 18.015625 2.808594 C 18.015625 2.808594 19.1875 1.878906 19.222656 1.394531 C 19.222656 1.394531 19.40625 1.765625 19.359375 2.0625 C 19.359375 2.0625 20.398438 1.277344 20.421875 0.910156 C 20.421875 0.910156 20.550781 2.90625 18.574219 3.671875 C 18.574219 3.671875 18.898438 3.671875 19.300781 3.589844 Z M 18.757812 4.28125 "/>
<path style=" stroke:none;fill-rule:nonzero;fill:rgb(38.82353%,54.509807%,9.411765%);fill-opacity:1;" d="M 19.417969 6.675781 C 19.417969 6.675781 23.589844 5.75 21.371094 7.238281 C 19.152344 8.730469 18.828125 8.660156 18.828125 8.660156 C 18.828125 8.660156 19.277344 7.992188 19.417969 6.675781 Z M 18.757812 8.71875 L 14.925781 10.394531 C 14.925781 10.394531 16.113281 9.375 15.710938 8.820312 C 15.710938 8.824219 17.71875 8.523438 18.757812 8.71875 Z M 18.757812 8.71875 "/>
<path style=" stroke:none;fill-rule:nonzero;fill:rgb(37.64706%,81.568629%,89.411765%);fill-opacity:1;" d="M 15.203125 8.429688 C 16.265625 5.484375 16.796875 5.152344 16.796875 5.152344 C 17.300781 4.609375 17.9375 4.371094 18.4375 4.601562 C 18.871094 4.800781 19.101562 5.304688 19.105469 5.914062 L 19.105469 5.949219 C 19.105469 5.949219 19.023438 7.433594 18.609375 8.277344 C 18.609375 8.277344 17.0625 8.058594 15.398438 8.496094 Z M 15.203125 8.429688 "/>
<path style=" stroke:none;fill-rule:nonzero;fill:rgb(0%,0%,0%);fill-opacity:1;" d="M 16.71875 7.113281 C 16.71875 7.113281 17.550781 5.457031 18.058594 5.839844 C 18.058594 5.839844 18.183594 5.992188 17.859375 7.082031 C 17.859375 7.082031 19.199219 5.441406 17.808594 5.398438 C 17.808594 5.398438 16.878906 5.367188 16.71875 7.113281 Z M 3.792969 10.363281 C 3.792969 10.363281 2.695312 8.707031 2.597656 9.035156 C 2.5 9.367188 2.664062 9.949219 2.691406 10.109375 C 2.714844 10.269531 1.851562 9.089844 2.429688 8.660156 C 3.007812 8.230469 3.722656 9.5625 3.789062 10.363281 Z M 3.792969 10.363281 "/>
<path style=" stroke:none;fill-rule:nonzero;fill:rgb(38.82353%,54.509807%,9.411765%);fill-opacity:1;" d="M 2.515625 12.039062 L 2.558594 12.039062 C 2.558594 12.039062 3.195312 11.574219 3.382812 11.503906 C 3.570312 11.433594 3.148438 12.195312 4.261719 12.195312 C 5.371094 12.195312 1.375 12.339844 0.46875 11.546875 C 0.46875 11.546875 0.390625 11.203125 1.605469 10.640625 C 1.605469 10.640625 2.339844 11.953125 2.515625 12.035156 Z M 2.515625 12.039062 "/>
<path style=" stroke:none;fill-rule:nonzero;fill:rgb(0%,0%,0%);fill-opacity:1;" d="M 6.425781 12.484375 C 5.167969 11.929688 4.230469 11.769531 4.230469 11.769531 L 4.199219 11.769531 C 4.003906 11.769531 3.84375 11.640625 3.84375 11.484375 C 3.84375 11.324219 4.003906 11.195312 4.199219 11.195312 C 4.21875 11.195312 4.234375 11.199219 4.25 11.199219 C 4.265625 11.203125 5.171875 11.355469 6.605469 11.953125 L 6.761719 12.019531 C 8.097656 12.511719 8.632812 12.523438 8.632812 12.523438 C 8.816406 12.539062 8.863281 12.539062 8.886719 12.523438 C 8.910156 12.503906 9.058594 12.445312 9.058594 12.445312 C 9.25 12.453125 9.402344 12.582031 9.402344 12.746094 C 9.402344 12.902344 9.132812 13.070312 8.957031 13.082031 C 8.957031 13.082031 7.96875 13.160156 6.476562 12.503906 Z M 15.355469 9.15625 C 15.355469 9.140625 15.359375 9.125 15.359375 9.109375 C 15.359375 8.964844 15.238281 8.851562 15.09375 8.851562 C 15.058594 8.851562 15.023438 8.859375 14.988281 8.871094 L 13.898438 10.0625 C 13.449219 10.570312 12.355469 11.765625 11.898438 11.820312 L 11.640625 11.847656 C 11.617188 11.804688 11.5 11.699219 11.5 11.699219 C 11.425781 11.636719 11.328125 11.609375 11.234375 11.636719 C 11.082031 11.683594 11 11.859375 11.050781 12.023438 C 11.070312 12.085938 11.105469 12.140625 11.15625 12.183594 C 11.207031 12.222656 11.914062 12.949219 13.21875 11.585938 L 14.640625 10.082031 C 14.640625 10.082031 15.304688 9.359375 15.347656 9.1875 Z M 15.355469 9.15625 "/>
<path style=" stroke:none;fill-rule:nonzero;fill:rgb(100%,100%,100%);fill-opacity:1;" d="M 17.636719 14.527344 C 17.636719 15.976562 16.460938 17.152344 15.007812 17.152344 C 13.554688 17.152344 12.382812 15.976562 12.382812 14.527344 C 12.382812 13.078125 13.558594 11.898438 15.007812 11.898438 C 16.457031 11.898438 17.632812 13.074219 17.636719 14.523438 Z M 9.476562 16.445312 C 9.476562 17.894531 8.300781 19.070312 6.851562 19.070312 C 5.398438 19.070312 4.226562 17.894531 4.226562 16.445312 C 4.226562 14.996094 5.402344 13.816406 6.851562 13.816406 C 8.304688 13.816406 9.480469 14.992188 9.480469 16.445312 Z M 11.667969 20.652344 C 11.734375 21.042969 11.898438 21.875 12.453125 21.804688 C 13.007812 21.738281 12.800781 20.628906 12.800781 20.628906 C 12.800781 20.628906 11.851562 20.582031 11.757812 20.628906 Z M 11.34375 20.761719 C 11.34375 20.761719 10.835938 20.976562 10.429688 21.242188 C 10.429688 21.242188 10.632812 22.273438 11.304688 21.964844 C 11.304688 21.964844 11.75 21.867188 11.371094 20.828125 Z M 10.050781 18.464844 C 10.050781 18.464844 6.820312 19.4375 8.40625 21.074219 C 9.445312 22.144531 10.882812 20.320312 11.652344 20.335938 C 11.652344 20.335938 11.828125 20.257812 12.195312 20.304688 C 12.5625 20.355469 14.960938 20.546875 15.1875 19.585938 C 15.410156 18.625 15.121094 18.464844 14.945312 18.355469 C 14.769531 18.242188 13.507812 17.492188 11.621094 18.019531 Z M 10.050781 18.464844 "/>
<path style=" stroke:none;fill-rule:nonzero;fill:rgb(0%,0%,0%);fill-opacity:1;" d="M 5.796875 17.347656 C 5.796875 16.890625 6.164062 16.523438 6.621094 16.523438 C 7.078125 16.523438 7.445312 16.890625 7.445312 17.347656 C 7.445312 17.800781 7.078125 18.167969 6.621094 18.167969 C 6.164062 18.167969 5.796875 17.800781 5.796875 17.347656 Z M 13.839844 15.382812 C 13.84375 14.929688 14.210938 14.566406 14.660156 14.566406 C 15.113281 14.566406 15.480469 14.929688 15.484375 15.382812 C 15.480469 15.832031 15.113281 16.199219 14.660156 16.199219 C 14.210938 16.199219 13.84375 15.832031 13.839844 15.382812 Z M 9.808594 18.519531 C 9.71875 18.089844 10.285156 17.613281 11.078125 17.453125 C 11.867188 17.292969 12.578125 17.511719 12.664062 17.941406 C 12.75 18.375 12.183594 18.851562 11.394531 19.011719 C 10.601562 19.171875 9.894531 18.953125 9.808594 18.519531 Z M 9.808594 18.519531 "/>
<path style=" stroke:none;fill-rule:nonzero;fill:rgb(88.235295%,79.215688%,63.529414%);fill-opacity:1;" d="M 9.726562 18.988281 C 9.726562 18.988281 7.691406 19.933594 8.640625 20.71875 C 9.589844 21.507812 10.050781 20.234375 11.4375 20.003906 C 12.824219 19.773438 14.417969 20.144531 14.742188 19.542969 C 15.066406 18.941406 15.183594 18.457031 12.914062 18.25 C 12.914062 18.25 12.707031 19.242188 11.507812 19.359375 C 10.304688 19.472656 10.097656 19.265625 9.726562 18.988281 Z M 9.726562 18.988281 "/>
<path style=" stroke:none;fill-rule:nonzero;fill:rgb(13.725491%,12.156863%,12.54902%);fill-opacity:1;" d="M 25.816406 23.457031 C 25.816406 23.457031 29.171875 24.167969 24.320312 24.878906 C 24.320312 24.878906 25.46875 24.40625 25.816406 23.457031 Z M 25.816406 23.457031 "/>
<path style=" stroke:none;fill-rule:nonzero;fill:rgb(88.235295%,79.215688%,63.529414%);fill-opacity:1;" d="M 23.515625 23.785156 C 23.515625 23.785156 23.40625 22.070312 22.386719 21.140625 C 21.363281 20.207031 23.242188 19.917969 23.828125 20.171875 C 24.410156 20.425781 26.839844 22.105469 24.703125 24.257812 C 24.703125 24.257812 23.789062 24.914062 23.535156 23.875 Z M 23.515625 23.785156 "/>
<path style=" stroke:none;fill-rule:nonzero;fill:rgb(0%,0%,0%);fill-opacity:1;" d="M 2.066406 23.402344 C 2.066406 23.402344 1.894531 24.265625 2.03125 24.632812 C 2.03125 24.632812 -0.894531 24.128906 1.894531 23.433594 Z M 2.066406 23.402344 "/>
<path style=" stroke:none;fill-rule:nonzero;fill:rgb(88.235295%,79.215688%,63.529414%);fill-opacity:1;" d="M 3.46875 21.441406 C 3.46875 21.441406 1.671875 23.570312 2.605469 25.304688 C 3.367188 26.726562 4.910156 25.117188 4.941406 25.0625 Z M 3.46875 21.441406 "/>
</g>
</svg>
