<?xml version="1.0" encoding="UTF-8"?>
<svg xmlns="http://www.w3.org/2000/svg" xmlns:xlink="http://www.w3.org/1999/xlink" width="32" height="32" viewBox="0 0 32 32" version="1.1">
<g id="surface1">
<path style=" stroke:none;fill-rule:nonzero;fill:rgb(37.64706%,81.568629%,89.411765%);fill-opacity:1;" d="M 22.414062 9.027344 C 22.414062 9.027344 24.425781 9.839844 25.71875 20.332031 C 25.71875 20.332031 23.851562 21.050781 25 22.296875 C 26.148438 23.539062 26.296875 25.886719 26.296875 25.886719 C 26.296875 25.886719 19.492188 26.894531 7.660156 26.03125 C 7.660156 26.03125 2.917969 16.355469 4.785156 13.003906 L 7.898438 13.097656 C 7.898438 13.097656 12.402344 15.347656 12.210938 12.953125 C 12.210938 12.953125 13.039062 12.871094 13.164062 12.796875 C 13.292969 12.71875 14.261719 14.582031 16.863281 11.476562 C 16.863281 11.476562 20.914062 9.929688 22.347656 9.046875 Z M 6.972656 10.800781 C 6.972656 10.800781 5.746094 7.277344 4.199219 8.011719 C 2.648438 8.746094 4.3125 11.378906 4.746094 11.941406 C 4.746094 11.941406 6.085938 11.066406 6.972656 10.800781 Z M 6.972656 10.800781 "/>
<path style=" stroke:none;fill-rule:evenodd;fill:rgb(0%,0%,0%);fill-opacity:1;" d="M 17.226562 28.742188 C 17.074219 28.492188 16.71875 28.5 16.371094 28.449219 C 16.140625 28.414062 15.621094 28.359375 15.609375 28.070312 C 15.589844 27.757812 16.050781 27.644531 16.359375 27.578125 C 17.105469 27.421875 17.847656 27.449219 18.746094 27.449219 C 19.132812 27.449219 19.644531 27.472656 19.6875 27.730469 C 19.722656 27.945312 19.539062 28.101562 19.394531 28.199219 C 19.261719 28.289062 19 28.371094 18.992188 28.566406 C 18.980469 28.90625 19.609375 28.84375 19.464844 29.316406 C 19.410156 29.492188 19.105469 29.589844 18.875 29.660156 C 18.144531 29.871094 17.285156 29.941406 16.441406 30.011719 C 15.679688 30.078125 14.707031 30.222656 13.808594 30.09375 C 13.554688 30.058594 13.214844 29.960938 13.199219 29.777344 C 13.171875 29.484375 13.65625 29.394531 13.914062 29.355469 C 14.632812 29.25 15.308594 29.296875 16.089844 29.261719 C 16.636719 29.234375 17.183594 29.242188 17.230469 28.742188 Z M 9.53125 28.847656 C 10.058594 28.824219 10.800781 28.855469 11.328125 28.988281 C 11.464844 29.023438 11.726562 29.078125 11.726562 29.222656 C 11.726562 29.378906 11.382812 29.441406 11.1875 29.492188 C 10.070312 29.785156 8.925781 29.875 7.683594 30.023438 C 7.460938 30.050781 7.226562 30.066406 6.980469 30.128906 C 6.835938 30.164062 6.484375 30.269531 6.496094 30.445312 C 6.511719 30.664062 7.074219 30.605469 7.308594 30.621094 C 7.609375 30.644531 7.992188 30.683594 8.011719 30.90625 C 8.054688 31.28125 7.304688 31.300781 6.933594 31.328125 C 5.902344 31.40625 5.019531 31.367188 4.066406 31.246094 C 3.878906 31.222656 3.644531 31.175781 3.453125 31.105469 C 3.28125 31.039062 3.046875 30.9375 3.042969 30.773438 C 3.035156 30.53125 3.417969 30.4375 3.628906 30.386719 C 4.417969 30.199219 5.277344 30.128906 6.097656 29.953125 C 6.617188 29.839844 7.132812 29.640625 7.554688 29.46875 C 8.015625 29.285156 8.453125 29.042969 8.929688 28.90625 C 9.121094 28.851562 9.273438 28.859375 9.53125 28.847656 Z M 19.285156 29.671875 C 19.40625 29.660156 19.742188 29.671875 19.742188 29.835938 C 19.746094 30.074219 18.992188 30.074219 18.980469 29.847656 C 18.972656 29.707031 19.148438 29.683594 19.285156 29.671875 Z M 18.320312 29.871094 C 18.480469 29.855469 18.75 29.863281 18.757812 30.035156 C 18.765625 30.292969 17.992188 30.28125 18.003906 30.035156 C 18.007812 29.925781 18.152344 29.886719 18.320312 29.871094 Z M 17.167969 30.070312 C 17.238281 30.066406 17.410156 30.054688 17.535156 30.082031 C 17.578125 30.089844 17.761719 30.160156 17.769531 30.222656 C 17.777344 30.34375 17.523438 30.390625 17.40625 30.398438 C 17.171875 30.417969 16.75 30.390625 16.734375 30.246094 C 16.71875 30.105469 17.03125 30.078125 17.167969 30.070312 M 15.640625 30.1875 C 15.828125 30.164062 16.246094 30.171875 16.253906 30.375 C 16.261719 30.664062 15.320312 30.667969 15.3125 30.386719 C 15.308594 30.234375 15.5 30.207031 15.640625 30.1875 Z M 13.855469 30.210938 C 14.011719 30.199219 14.167969 30.199219 14.335938 30.234375 C 14.417969 30.25 14.671875 30.308594 14.679688 30.421875 C 14.691406 30.636719 14.082031 30.675781 13.785156 30.65625 C 13.605469 30.644531 13.269531 30.574219 13.265625 30.433594 C 13.265625 30.3125 13.449219 30.273438 13.503906 30.257812 C 13.628906 30.21875 13.703125 30.21875 13.855469 30.210938 M 2.867188 30.679688 C 2.808594 30.851562 2.253906 30.945312 2.042969 30.820312 C 2.152344 30.628906 2.621094 30.582031 2.867188 30.679688 M 2.996094 30.988281 C 2.851562 31.199219 2.300781 31.277344 2.03125 31.140625 C 2.175781 30.929688 2.726562 30.847656 2.996094 30.988281 M 3.21875 31.269531 C 3.066406 31.460938 2.523438 31.558594 2.253906 31.410156 C 2.363281 31.214844 3.007812 31.113281 3.21875 31.269531 M 4.207031 31.410156 C 4.105469 31.648438 3.433594 31.753906 3.207031 31.5625 C 3.328125 31.3125 3.949219 31.234375 4.207031 31.410156 M 5.003906 31.457031 C 5.15625 31.445312 5.457031 31.433594 5.617188 31.480469 C 5.914062 31.570312 5.679688 31.726562 5.453125 31.785156 C 5.195312 31.851562 4.929688 31.875 4.664062 31.855469 C 4.523438 31.847656 4.285156 31.808594 4.277344 31.714844 C 4.261719 31.605469 4.492188 31.550781 4.570312 31.527344 C 4.742188 31.480469 4.851562 31.46875 5.003906 31.457031 M 7.355469 31.585938 C 7.34375 31.734375 7.140625 31.820312 6.96875 31.878906 C 6.777344 31.941406 6.582031 31.980469 6.378906 31.996094 C 6.25 32.003906 5.992188 31.996094 5.96875 31.902344 C 5.933594 31.765625 6.246094 31.65625 6.34375 31.621094 C 6.53125 31.554688 6.722656 31.511719 6.921875 31.492188 C 7.09375 31.480469 7.289062 31.484375 7.355469 31.585938 M 17.179688 8.902344 C 17.195312 8.90625 17.1875 8.914062 17.179688 8.914062 C 16.394531 9.796875 15.660156 10.742188 14.738281 11.535156 C 14.628906 11.628906 14.433594 11.816406 14.289062 11.804688 C 14.207031 11.800781 14.105469 11.6875 14.019531 11.652344 C 13.523438 11.464844 13 11.847656 13.019531 12.394531 C 12.839844 12.449219 12.640625 12.46875 12.433594 12.488281 C 12.234375 12.507812 12.007812 12.554688 11.808594 12.535156 C 11.664062 12.519531 11.570312 12.445312 11.375 12.464844 C 11.285156 12.472656 11.214844 12.53125 11.105469 12.546875 C 10.933594 12.570312 10.707031 12.511719 10.503906 12.464844 C 9.257812 12.179688 8.191406 11.527344 6.96875 11.265625 C 7.117188 11.175781 7.308594 11.121094 7.484375 11.054688 C 7.515625 11 7.425781 10.910156 7.449219 10.855469 C 10.34375 11.160156 12.867188 10.46875 15.03125 9.75 C 15.78125 9.503906 16.511719 9.191406 17.183594 8.90625 Z M 17.179688 8.902344 "/>
<path style=" stroke:none;fill-rule:evenodd;fill:rgb(38.82353%,54.509807%,9.411765%);fill-opacity:1;" d="M 15.03125 9.75 C 12.867188 10.464844 10.34375 11.15625 7.449219 10.855469 C 7.425781 10.90625 7.515625 10.996094 7.484375 11.054688 C 7.308594 11.121094 7.117188 11.175781 6.96875 11.265625 C 8.191406 11.527344 9.257812 12.175781 10.503906 12.464844 C 10.703125 12.511719 10.933594 12.570312 11.105469 12.546875 C 11.214844 12.53125 11.285156 12.472656 11.375 12.464844 C 11.570312 12.445312 11.664062 12.519531 11.808594 12.535156 C 12.007812 12.554688 12.234375 12.503906 12.433594 12.488281 C 12.640625 12.46875 12.839844 12.449219 13.019531 12.394531 C 13 11.847656 13.523438 11.464844 14.019531 11.652344 C 14.105469 11.683594 14.207031 11.800781 14.289062 11.804688 C 14.433594 11.816406 14.628906 11.628906 14.734375 11.535156 C 15.660156 10.742188 16.394531 9.796875 17.179688 8.914062 C 17.1875 8.914062 17.195312 8.90625 17.179688 8.902344 C 16.511719 9.1875 15.78125 9.5 15.03125 9.75 Z M 15.03125 9.75 "/>
<path style=" stroke:none;fill-rule:evenodd;fill:rgb(0%,0%,0%);fill-opacity:1;" d="M 16.089844 29.257812 C 15.304688 29.292969 14.632812 29.25 13.914062 29.351562 C 13.652344 29.390625 13.171875 29.484375 13.195312 29.777344 C 13.214844 29.960938 13.550781 30.058594 13.808594 30.09375 C 14.703125 30.222656 15.679688 30.074219 16.441406 30.011719 C 17.28125 29.941406 18.140625 29.871094 18.875 29.660156 C 19.101562 29.59375 19.40625 29.492188 19.460938 29.316406 C 19.609375 28.84375 18.976562 28.90625 18.992188 28.5625 C 19 28.371094 19.261719 28.289062 19.390625 28.199219 C 19.535156 28.101562 19.71875 27.945312 19.683594 27.730469 C 19.640625 27.472656 19.128906 27.445312 18.746094 27.445312 C 17.847656 27.445312 17.101562 27.417969 16.359375 27.578125 C 16.046875 27.640625 15.589844 27.757812 15.605469 28.070312 C 15.621094 28.355469 16.140625 28.414062 16.367188 28.445312 C 16.71875 28.496094 17.074219 28.492188 17.226562 28.738281 C 17.179688 29.238281 16.632812 29.234375 16.085938 29.257812 Z M 8.929688 28.90625 C 8.457031 29.042969 8.019531 29.285156 7.554688 29.472656 C 7.132812 29.640625 6.617188 29.839844 6.097656 29.953125 C 5.277344 30.128906 4.417969 30.199219 3.628906 30.386719 C 3.417969 30.4375 3.035156 30.53125 3.042969 30.777344 C 3.046875 30.9375 3.28125 31.039062 3.453125 31.105469 C 3.644531 31.179688 3.878906 31.222656 4.066406 31.246094 C 5.019531 31.367188 5.902344 31.40625 6.933594 31.328125 C 7.304688 31.300781 8.054688 31.285156 8.015625 30.90625 C 7.992188 30.683594 7.609375 30.644531 7.308594 30.621094 C 7.074219 30.605469 6.515625 30.664062 6.496094 30.445312 C 6.484375 30.269531 6.835938 30.167969 6.980469 30.128906 C 7.226562 30.066406 7.460938 30.050781 7.683594 30.023438 C 8.925781 29.875 10.070312 29.785156 11.1875 29.496094 C 11.382812 29.445312 11.726562 29.378906 11.726562 29.222656 C 11.726562 29.082031 11.464844 29.023438 11.328125 28.988281 C 10.800781 28.855469 10.058594 28.824219 9.53125 28.847656 C 9.273438 28.859375 9.121094 28.851562 8.929688 28.90625 Z M 18.980469 29.847656 C 18.992188 30.074219 19.746094 30.074219 19.742188 29.835938 C 19.738281 29.671875 19.40625 29.65625 19.28125 29.671875 C 19.144531 29.683594 18.96875 29.703125 18.976562 29.847656 Z M 18.003906 30.035156 C 17.992188 30.285156 18.765625 30.296875 18.757812 30.035156 C 18.75 29.867188 18.480469 29.859375 18.320312 29.871094 C 18.152344 29.886719 18.007812 29.925781 18.003906 30.039062 Z M 16.734375 30.246094 C 16.75 30.390625 17.171875 30.417969 17.402344 30.398438 C 17.523438 30.390625 17.777344 30.34375 17.769531 30.222656 C 17.761719 30.160156 17.578125 30.089844 17.535156 30.082031 C 17.414062 30.0625 17.289062 30.058594 17.167969 30.070312 C 17.03125 30.078125 16.71875 30.105469 16.734375 30.246094 M 15.3125 30.386719 C 15.320312 30.667969 16.261719 30.664062 16.253906 30.375 C 16.246094 30.171875 15.824219 30.164062 15.640625 30.1875 C 15.5 30.207031 15.308594 30.234375 15.3125 30.386719 Z M 13.503906 30.257812 C 13.449219 30.273438 13.265625 30.316406 13.265625 30.433594 C 13.269531 30.574219 13.605469 30.644531 13.785156 30.65625 C 14.078125 30.675781 14.691406 30.636719 14.679688 30.421875 C 14.671875 30.308594 14.421875 30.25 14.335938 30.234375 C 14.179688 30.203125 14.015625 30.195312 13.855469 30.210938 C 13.703125 30.222656 13.632812 30.222656 13.503906 30.257812 M 2.042969 30.820312 C 2.253906 30.949219 2.808594 30.855469 2.867188 30.679688 C 2.621094 30.582031 2.152344 30.632812 2.042969 30.820312 M 2.03125 31.140625 C 2.300781 31.277344 2.851562 31.199219 2.996094 30.988281 C 2.726562 30.851562 2.175781 30.929688 2.03125 31.140625 M 2.253906 31.410156 C 2.523438 31.554688 3.066406 31.460938 3.21875 31.269531 C 3.007812 31.117188 2.363281 31.214844 2.253906 31.410156 M 3.207031 31.5625 C 3.433594 31.753906 4.105469 31.648438 4.207031 31.410156 C 3.949219 31.234375 3.328125 31.316406 3.207031 31.5625 M 4.570312 31.527344 C 4.492188 31.550781 4.265625 31.601562 4.277344 31.714844 C 4.289062 31.808594 4.523438 31.847656 4.664062 31.855469 C 4.929688 31.875 5.195312 31.851562 5.453125 31.785156 C 5.679688 31.726562 5.914062 31.566406 5.617188 31.480469 C 5.457031 31.433594 5.15625 31.445312 5.003906 31.457031 C 4.859375 31.464844 4.710938 31.488281 4.570312 31.527344 Z M 6.921875 31.492188 C 6.722656 31.507812 6.53125 31.550781 6.34375 31.621094 C 6.25 31.65625 5.933594 31.765625 5.96875 31.902344 C 5.992188 32 6.25 32.003906 6.378906 31.996094 C 6.582031 31.980469 6.777344 31.941406 6.96875 31.878906 C 7.144531 31.824219 7.34375 31.734375 7.355469 31.585938 C 7.292969 31.484375 7.09375 31.480469 6.921875 31.492188 Z M 6.921875 31.492188 "/>
<path style=" stroke:none;fill-rule:nonzero;fill:rgb(88.235295%,79.215688%,63.529414%);fill-opacity:1;" d="M 17.023438 7.039062 C 9.960938 10.105469 6.414062 8.761719 6.414062 8.761719 L 7.253906 10.441406 C 12.304688 11.015625 17.5 8.296875 17.5 8.296875 L 17.761719 7.582031 C 17.761719 7.582031 17.328125 7.675781 17.082031 7.019531 Z M 17.023438 7.039062 "/>
<path style=" stroke:none;fill-rule:nonzero;fill:rgb(38.82353%,54.509807%,9.411765%);fill-opacity:1;" d="M 17.539062 4.984375 L 17.449219 4.679688 C 17.449219 4.679688 11.753906 2.453125 10.460938 3.132812 C 9.167969 3.816406 7.5 5.003906 6.277344 6.835938 L 6.257812 8.289062 C 6.257812 8.289062 9.769531 9.746094 17 6.605469 C 17 6.605469 16.90625 5.734375 17.539062 4.984375 Z M 17.539062 4.984375 "/>
<path style=" stroke:none;fill-rule:nonzero;fill:rgb(0%,0%,0%);fill-opacity:1;" d="M 17.976562 7.058594 C 17.890625 7.132812 17.8125 7.1875 17.726562 7.171875 C 17.46875 7.121094 17.351562 6.621094 17.460938 6.054688 C 17.574219 5.492188 17.871094 5.074219 18.128906 5.121094 C 18.375 5.171875 18.492188 5.632812 18.40625 6.171875 C 18.40625 6.171875 18.132812 6.675781 18 7.027344 Z M 17.976562 7.058594 "/>
<path style=" stroke:none;fill-rule:nonzero;fill:rgb(88.235295%,79.215688%,63.529414%);fill-opacity:1;" d="M 21.480469 4.441406 C 21.480469 4.441406 20.1875 3.589844 18.808594 5.480469 C 18.808594 5.480469 18.628906 4.355469 17.707031 4.835938 C 17.707031 4.835938 17.886719 3.21875 17.765625 2.992188 C 17.765625 2.992188 18.128906 3.097656 18.234375 3.335938 C 18.234375 3.335938 19.179688 2.414062 19.121094 1.132812 C 19.121094 1.132812 19.371094 1.171875 19.371094 1.492188 C 19.371094 1.492188 19.722656 0.714844 20.070312 0.292969 L 20.101562 0.246094 C 21.492188 -0.960938 20.210938 2.644531 20.210938 2.644531 C 20.210938 2.644531 20.136719 2.820312 20.058594 2.917969 C 19.984375 3.015625 20.71875 2.671875 20.707031 2.394531 C 20.699219 2.117188 20.800781 2.789062 20.707031 2.910156 C 20.707031 2.910156 21.921875 1.949219 21.960938 1.445312 C 21.960938 1.445312 22.152344 1.828125 22.101562 2.140625 C 22.101562 2.140625 23.179688 1.324219 23.203125 0.941406 C 23.203125 0.941406 23.335938 3.015625 21.289062 3.804688 C 21.289062 3.804688 21.621094 3.804688 22.042969 3.71875 Z M 21.480469 4.441406 "/>
<path style=" stroke:none;fill-rule:nonzero;fill:rgb(38.82353%,54.509807%,9.411765%);fill-opacity:1;" d="M 22.164062 6.917969 C 22.164062 6.917969 26.484375 5.960938 24.1875 7.503906 C 21.886719 9.050781 21.550781 8.976562 21.550781 8.976562 C 21.550781 8.976562 22.019531 8.285156 22.164062 6.917969 M 21.480469 9.039062 L 17.503906 10.773438 C 17.503906 10.773438 18.738281 9.722656 18.320312 9.144531 C 18.320312 9.144531 20.402344 8.835938 21.480469 9.039062 Z M 21.480469 9.039062 "/>
<path style=" stroke:none;fill-rule:nonzero;fill:rgb(37.64706%,81.568629%,89.411765%);fill-opacity:1;" d="M 17.792969 8.738281 C 18.894531 5.683594 19.445312 5.339844 19.445312 5.339844 C 19.96875 4.78125 20.625 4.53125 21.144531 4.769531 C 21.59375 4.976562 21.835938 5.496094 21.839844 6.128906 L 21.839844 6.167969 C 21.839844 6.167969 21.753906 7.710938 21.324219 8.582031 C 21.324219 8.582031 19.71875 8.355469 17.996094 8.8125 Z M 17.792969 8.738281 "/>
<path style=" stroke:none;fill-rule:nonzero;fill:rgb(0%,0%,0%);fill-opacity:1;" d="M 19.363281 7.375 C 19.363281 7.375 20.226562 5.660156 20.753906 6.054688 C 20.753906 6.054688 20.882812 6.210938 20.546875 7.339844 C 20.546875 7.339844 21.9375 5.640625 20.496094 5.597656 C 20.496094 5.597656 19.527344 5.5625 19.363281 7.375 M 5.964844 10.742188 C 5.964844 10.742188 4.828125 9.023438 4.726562 9.367188 C 4.621094 9.710938 4.792969 10.3125 4.820312 10.480469 C 4.847656 10.644531 3.953125 9.425781 4.550781 8.976562 C 5.152344 8.53125 5.894531 9.914062 5.960938 10.742188 Z M 5.964844 10.742188 "/>
<path style=" stroke:none;fill-rule:nonzero;fill:rgb(38.82353%,54.509807%,9.411765%);fill-opacity:1;" d="M 4.640625 12.480469 L 4.683594 12.480469 C 4.683594 12.480469 5.34375 12 5.535156 11.925781 C 5.730469 11.851562 5.296875 12.644531 6.449219 12.644531 C 7.601562 12.644531 3.460938 12.792969 2.515625 11.96875 C 2.515625 11.96875 2.433594 11.617188 3.695312 11.03125 C 3.695312 11.03125 4.460938 12.390625 4.640625 12.476562 Z M 4.640625 12.480469 "/>
<path style=" stroke:none;fill-rule:nonzero;fill:rgb(0%,0%,0%);fill-opacity:1;" d="M 8.691406 12.941406 C 7.390625 12.367188 6.414062 12.199219 6.414062 12.199219 C 6.40625 12.199219 6.394531 12.199219 6.386719 12.199219 C 6.183594 12.199219 6.015625 12.066406 6.015625 11.90625 C 6.015625 11.742188 6.183594 11.609375 6.386719 11.609375 C 6.402344 11.609375 6.421875 11.609375 6.4375 11.609375 C 6.4375 11.609375 7.394531 11.769531 8.882812 12.390625 L 9.042969 12.460938 C 10.425781 12.972656 10.984375 12.984375 10.984375 12.984375 C 11.171875 13 11.21875 13 11.242188 12.980469 C 11.269531 12.964844 11.425781 12.902344 11.425781 12.902344 C 11.621094 12.910156 11.777344 13.046875 11.777344 13.210938 C 11.777344 13.375 11.503906 13.550781 11.316406 13.5625 C 11.316406 13.5625 10.292969 13.644531 8.746094 12.960938 Z M 17.949219 9.492188 C 17.964844 9.414062 17.941406 9.332031 17.890625 9.269531 C 17.835938 9.210938 17.761719 9.175781 17.679688 9.175781 C 17.644531 9.175781 17.605469 9.183594 17.570312 9.199219 L 16.441406 10.433594 C 15.976562 10.957031 14.839844 12.199219 14.367188 12.253906 L 14.097656 12.28125 C 14.074219 12.238281 13.953125 12.128906 13.953125 12.128906 C 13.878906 12.0625 13.773438 12.035156 13.675781 12.0625 C 13.523438 12.113281 13.4375 12.292969 13.488281 12.464844 C 13.507812 12.527344 13.546875 12.585938 13.597656 12.628906 C 13.597656 12.628906 14.382812 13.425781 15.734375 12.011719 L 17.210938 10.453125 C 17.210938 10.453125 17.898438 9.703125 17.941406 9.523438 Z M 17.949219 9.492188 "/>
<path style=" stroke:none;fill-rule:nonzero;fill:rgb(100%,100%,100%);fill-opacity:1;" d="M 20.316406 15.058594 C 20.316406 16.5625 19.09375 17.78125 17.589844 17.78125 C 16.085938 17.78125 14.867188 16.5625 14.867188 15.058594 C 14.867188 13.554688 16.085938 12.335938 17.589844 12.335938 C 19.09375 12.335938 20.3125 13.554688 20.316406 15.058594 Z M 11.859375 17.046875 C 11.859375 18.550781 10.636719 19.769531 9.132812 19.769531 C 7.628906 19.769531 6.414062 18.550781 6.414062 17.046875 C 6.414062 15.546875 7.632812 14.324219 9.136719 14.324219 C 10.640625 14.324219 11.859375 15.542969 11.859375 17.046875 Z M 14.128906 21.410156 C 14.199219 21.816406 14.367188 22.679688 14.941406 22.605469 C 15.515625 22.535156 15.300781 21.386719 15.300781 21.386719 C 15.300781 21.386719 14.320312 21.335938 14.222656 21.386719 Z M 13.792969 21.523438 C 13.792969 21.523438 13.265625 21.746094 12.84375 22.023438 C 12.84375 22.023438 13.054688 23.09375 13.753906 22.773438 C 13.753906 22.773438 14.210938 22.671875 13.820312 21.59375 Z M 12.453125 19.140625 C 12.453125 19.140625 9.101562 20.152344 10.746094 21.847656 C 11.824219 22.957031 13.316406 21.066406 14.113281 21.085938 C 14.113281 21.085938 14.292969 21 14.675781 21.050781 C 15.054688 21.101562 17.542969 21.300781 17.777344 20.304688 C 18.007812 19.308594 17.710938 19.144531 17.527344 19.027344 C 17.34375 18.910156 16.035156 18.132812 14.078125 18.679688 Z M 12.453125 19.140625 "/>
<path style=" stroke:none;fill-rule:nonzero;fill:rgb(0%,0%,0%);fill-opacity:1;" d="M 8.894531 17.128906 C 8.425781 17.128906 8.042969 17.511719 8.042969 17.984375 C 8.042969 18.453125 8.425781 18.835938 8.894531 18.835938 C 9.367188 18.835938 9.75 18.453125 9.75 17.984375 C 9.75 17.511719 9.367188 17.128906 8.894531 17.128906 M 17.230469 15.09375 C 16.757812 15.09375 16.378906 15.476562 16.378906 15.945312 C 16.378906 16.417969 16.757812 16.800781 17.230469 16.800781 C 17.703125 16.800781 18.085938 16.417969 18.085938 15.945312 C 18.085938 15.476562 17.703125 15.09375 17.230469 15.09375 M 13.515625 18.09375 C 12.976562 18.191406 12.5 18.449219 12.277344 18.757812 C 12.054688 19.066406 12.121094 19.378906 12.445312 19.578125 C 12.769531 19.777344 13.308594 19.828125 13.84375 19.707031 C 14.386719 19.609375 14.859375 19.355469 15.082031 19.042969 C 15.304688 18.734375 15.242188 18.421875 14.914062 18.222656 C 14.589844 18.023438 14.054688 17.976562 13.515625 18.09375 "/>
<path style=" stroke:none;fill-rule:nonzero;fill:rgb(88.235295%,79.215688%,63.529414%);fill-opacity:1;" d="M 12.113281 19.683594 C 12.113281 19.683594 10.007812 20.667969 10.992188 21.480469 C 11.976562 22.296875 12.453125 20.976562 13.890625 20.738281 C 15.324219 20.5 16.980469 20.882812 17.3125 20.257812 C 17.648438 19.636719 17.773438 19.136719 15.421875 18.917969 C 15.421875 18.917969 15.207031 19.949219 13.960938 20.066406 C 12.714844 20.1875 12.5 19.972656 12.117188 19.683594 Z M 12.113281 19.683594 "/>
<path style=" stroke:none;fill-rule:nonzero;fill:rgb(13.725491%,12.156863%,12.54902%);fill-opacity:1;" d="M 28.796875 24.316406 C 28.796875 24.316406 32.277344 25.054688 27.246094 25.792969 C 27.246094 25.792969 28.4375 25.300781 28.796875 24.316406 "/>
<path style=" stroke:none;fill-rule:nonzero;fill:rgb(88.235295%,79.215688%,63.529414%);fill-opacity:1;" d="M 26.414062 24.65625 C 26.414062 24.65625 26.300781 22.878906 25.238281 21.914062 C 24.179688 20.949219 26.128906 20.648438 26.734375 20.914062 C 27.339844 21.175781 29.855469 22.917969 27.640625 25.148438 C 27.640625 25.148438 26.695312 25.828125 26.433594 24.753906 Z M 26.414062 24.65625 "/>
<path style=" stroke:none;fill-rule:nonzero;fill:rgb(0%,0%,0%);fill-opacity:1;" d="M 4.175781 24.261719 C 4.175781 24.261719 3.996094 25.15625 4.140625 25.535156 C 4.140625 25.535156 1.101562 25.015625 3.996094 24.296875 Z M 4.175781 24.261719 "/>
<path style=" stroke:none;fill-rule:nonzero;fill:rgb(88.235295%,79.215688%,63.529414%);fill-opacity:1;" d="M 5.628906 22.230469 C 5.628906 22.230469 3.765625 24.433594 4.730469 26.234375 C 5.523438 27.707031 7.121094 26.039062 7.15625 25.984375 Z M 5.628906 22.230469 "/>
</g>
</svg>
