<svg role="img" viewBox="-113.76 -96.84 64 64" xmlns="http://www.w3.org/2000/svg"><path d="M-68.932-78.787s4.024 1.628 6.61 22.61c0 0-3.732 1.437-1.436 3.928s2.59 7.186 2.59 7.186-13.604 2.011-37.268.287c0 0-9.485-19.353-5.752-26.06l6.227.192s9.006 4.503 8.623-.287c0 0 1.658-.164 1.91-.316s2.188 3.573 7.397-2.642c0 0 8.102-3.095 10.97-4.857zm-30.883 3.546s-2.45-7.046-5.549-5.578.226 6.733 1.099 7.859c0 0 2.675-1.745 4.45-2.282z" fill="#60d0e4"/><g fill-rule="evenodd"><path d="M-79.304-39.356c-.306-.496-1.017-.486-1.716-.588-.457-.067-1.496-.18-1.523-.752-.038-.625.881-.856 1.504-.987 1.491-.315 2.977-.26 4.772-.26.77 0 1.796.049 1.88.564.07.433-.295.742-.587.94-.26.177-.785.343-.8.73-.025.685 1.235.56.941 1.504-.109.349-.714.548-1.175.685-1.463.42-3.182.563-4.866.706-1.524.13-3.473.42-5.265.164-.513-.076-1.19-.269-1.222-.634-.052-.585.914-.77 1.433-.847 1.437-.21 2.784-.117 4.349-.188 1.09-.049 2.186-.038 2.28-1.033zm-15.396.212c1.058-.051 2.544.016 3.596.282.275.07.798.182.8.47 0 .307-.69.438-1.082.54-2.235.58-4.526.762-7.004 1.058-.451.054-.92.085-1.411.211-.286.074-.989.283-.964.635.031.434 1.154.316 1.622.353.602.046 1.364.12 1.41.564.08.757-1.415.79-2.162.845-2.057.155-3.825.078-5.736-.164-.372-.047-.838-.135-1.222-.282-.342-.132-.813-.33-.822-.658-.016-.49.75-.675 1.175-.776 1.577-.374 3.296-.517 4.936-.87 1.042-.223 2.067-.622 2.914-.963.925-.374 1.8-.857 2.75-1.129.382-.108.686-.092 1.199-.117zm19.51 1.645c.245-.024.912.003.916.329.006.477-1.5.475-1.524.024-.018-.283.332-.324.611-.353zm-1.928.4c.32-.03.855-.011.87.33.023.515-1.524.493-1.505 0 .01-.223.3-.299.634-.33zm-2.303.399c.14-.01.48-.027.728.023.09.019.46.155.47.282.02.242-.492.333-.728.353-.466.039-1.307-.02-1.34-.306-.033-.28.596-.332.87-.352m-3.056.235c.37-.05 1.21-.031 1.222.376.019.581-1.866.584-1.88.023-.007-.302.372-.36.659-.399zm-3.573.043c.314-.022.626-.02.964.047.164.032.669.15.686.375.024.433-1.196.51-1.79.47-.36-.023-1.032-.162-1.035-.446-.002-.24.363-.32.47-.352.256-.075.4-.077.705-.094m-21.978.94c-.112.344-1.226.533-1.645.283.218-.381 1.155-.478 1.645-.282m.26.615c-.288.424-1.389.578-1.928.305.29-.42 1.386-.58 1.927-.305m.447.563c-.307.386-1.39.577-1.928.283.215-.394 1.503-.59 1.928-.283m1.974.283c-.2.475-1.542.685-1.998.306.24-.5 1.487-.66 1.998-.306m1.598.094c.3-.024.901-.049 1.222.047.594.176.127.495-.329.61a4.802 4.802 0 0 1-1.575.142c-.28-.02-.754-.095-.775-.282-.026-.223.429-.333.587-.377.343-.096.56-.116.87-.14m4.702.258c-.027.298-.427.47-.776.588a4.956 4.956 0 0 1-1.175.234c-.261.017-.778-.001-.823-.187-.069-.278.558-.496.752-.564a4.559 4.559 0 0 1 1.152-.258c.349-.026.74-.016.87.187m19.65-45.365c.027.005.013.024 0 .024-1.573 1.765-3.043 3.657-4.889 5.241-.214.184-.603.56-.893.541-.165-.01-.372-.24-.54-.306-.99-.378-2.042.391-1.998 1.481-.365.112-.76.153-1.176.188-.395.038-.854.134-1.245.094-.29-.03-.478-.18-.87-.14-.18.018-.322.136-.54.164-.344.043-.8-.074-1.2-.165-2.499-.571-4.628-1.874-7.075-2.397.302-.184.684-.288 1.034-.419.06-.113-.122-.296-.07-.4 5.789.604 10.835-.778 15.161-2.21 1.5-.496 2.962-1.122 4.305-1.691z"/><path d="M-83.7-77.34c-4.325 1.43-9.372 2.812-15.16 2.209-.052.102.13.285.07.4-.35.134-.733.239-1.035.422 2.447.523 4.577 1.823 7.076 2.398.395.091.86.208 1.198.164.22-.028.36-.146.541-.164.392-.04.58.111.87.14.392.04.85-.06 1.246-.093.416-.036.81-.077 1.175-.188-.044-1.09 1.004-1.86 1.998-1.481.169.064.376.294.54.306.29.019.68-.357.893-.541 1.846-1.585 3.317-3.476 4.89-5.242.012 0 .026-.02 0-.024-1.34.57-2.802 1.196-4.301 1.692z" fill="#638b18"/><path d="M-81.584-38.322c-1.565.07-2.912-.021-4.348.188-.524.076-1.486.261-1.434.847.032.365.709.561 1.222.634 1.792.257 3.742-.035 5.265-.165 1.684-.142 3.403-.282 4.866-.705.457-.133 1.067-.333 1.175-.686.295-.945-.966-.819-.94-1.504.015-.383.54-.552.8-.729.292-.198.657-.507.587-.94-.085-.516-1.111-.564-1.88-.564-1.79 0-3.282-.056-4.772.26-.623.131-1.54.362-1.505.987.032.572 1.067.685 1.524.752.699.102 1.41.091 1.716.587-.093.996-1.189.985-2.28 1.034zm-14.315-.705c-.95.272-1.825.755-2.75 1.129-.847.341-1.873.74-2.914.963-1.64.353-3.36.496-4.936.87-.425.101-1.19.286-1.176.776.01.327.48.525.823.658.381.147.85.235 1.222.282 1.91.242 3.678.319 5.736.164.746-.055 2.242-.088 2.162-.845-.046-.444-.808-.518-1.41-.564-.469-.036-1.59.081-1.622-.353-.025-.352.677-.56.964-.634.492-.127.96-.158 1.41-.212 2.48-.299 4.77-.478 7.005-1.057.392-.103 1.082-.234 1.08-.541 0-.288-.523-.401-.798-.47-1.052-.266-2.539-.333-3.596-.282-.513.024-.822.009-1.199.117zm20.098 1.88c.027.452 1.533.457 1.523-.023-.003-.326-.671-.355-.916-.33-.279.03-.629.07-.611.353zm-1.952.381c-.023.494 1.524.516 1.505 0-.015-.341-.55-.359-.87-.329-.334.03-.623.106-.634.33zm-2.539.418c.034.286.875.345 1.34.306.237-.02.75-.114.729-.352-.01-.128-.38-.264-.47-.282a2.85 2.85 0 0 0-.729-.024c-.273.02-.903.072-.87.352m-2.843.282c.013.561 1.898.558 1.88-.023-.013-.407-.853-.425-1.222-.376-.286.038-.665.096-.659.4zm-3.62-.258c-.108.032-.473.113-.47.353.002.283.674.419 1.034.446.591.04 1.81-.038 1.79-.47-.012-.226-.518-.343-.685-.375a3.547 3.547 0 0 0-.964-.048c-.305.021-.448.02-.705.094m-22.918 1.128c.42.251 1.533.065 1.646-.281-.49-.196-1.427-.1-1.646.281m-.023.635c.54.272 1.64.119 1.927-.306-.54-.273-1.637-.114-1.927.306m.446.541c.533.293 1.621.103 1.928-.283-.425-.304-1.713-.11-1.928.283m1.904.306c.456.379 1.798.169 1.998-.306-.51-.353-1.758-.19-1.998.306m2.726-.072c-.158.044-.609.153-.587.376.022.188.494.267.776.282a4.813 4.813 0 0 0 1.575-.14c.455-.12.923-.436.329-.612-.321-.095-.922-.07-1.222-.047a4.04 4.04 0 0 0-.87.141zm4.702-.07a4.4 4.4 0 0 0-1.151.259c-.19.07-.821.286-.753.564.046.19.562.204.823.187a4.975 4.975 0 0 0 1.176-.234c.349-.114.749-.29.776-.588-.13-.203-.522-.213-.87-.188z"/></g><path d="M-79.71-82.764c-14.132 6.132-21.22 3.45-21.22 3.45l1.675 3.353c10.108 1.15 20.495-4.288 20.495-4.288l.52-1.424s-.861.186-1.357-1.127z" fill="#e1caa2"/><path d="m-78.68-86.871-.18-.61s-11.39-4.456-13.976-3.09-5.927 3.736-8.37 7.4l-.036 2.91s7.018 2.91 21.485-3.365c0 0-.192-1.749 1.078-3.245z" fill="#638b18"/><path d="M-77.804-82.726c-.171.15-.333.259-.503.226-.513-.101-.75-1.099-.529-2.229s.819-1.964 1.333-1.866c.494.097.731 1.024.552 2.1 0 0-.547 1.004-.807 1.709z"/><path d="M-70.8-87.96s-2.587-1.701-5.341 2.083c0 0-.36-2.251-2.204-1.294 0 0 .36-3.233.12-3.688 0 0 .719.215.934.694 0 0 1.892-1.844 1.772-4.407 0 0 .503.072.503.719 0 0 .705-1.559 1.395-2.4l.066-.091c2.778-2.42.216 4.79.216 4.79s-.15.358-.302.551 1.315-.49 1.297-1.046.184.786 0 1.028c0 0 2.43-1.922 2.502-2.928 0 0 .383.766.287 1.389 0 0 2.155-1.629 2.204-2.396 0 0 .262 4.144-3.833 5.725 0 0 .67 0 1.509-.168z" fill="#e1caa2"/><path d="M-69.435-83.003s8.647-1.916 4.048 1.174-5.27 2.946-5.27 2.946.935-1.385 1.222-4.12m-1.365 4.24-7.952 3.472s2.467-2.107 1.629-3.257c0 0 4.167-.623 6.323-.216z" fill="#638b18"/><path d="M-78.177-79.362c2.203-6.107 3.31-6.795 3.31-6.795 1.045-1.124 2.36-1.619 3.398-1.144.9.412 1.381 1.457 1.386 2.72v.08s-.167 3.08-1.029 4.828c0 0-3.21-.455-6.658.455z" fill="#60d0e4"/><path d="M-75.03-82.091s1.723-3.432 2.776-2.639c0 0 .259.31-.414 2.57 0 0 2.78-3.397-.103-3.484 0 0-1.931-.068-2.259 3.553m-26.804 6.736s-2.27-3.435-2.476-2.75.137 1.893.19 2.224-1.734-2.111-.536-3.002 2.682 1.872 2.82 3.526z"/><path d="M-104.48-71.882h.09s1.315-.957 1.704-1.107-.478 1.436 1.824 1.436-5.98.299-7.864-1.346c0 0-.164-.71 2.36-1.882 0 0 1.524 2.723 1.886 2.896z" fill="#638b18"/><path d="M-96.375-70.955c-2.604-1.15-4.554-1.486-4.554-1.486a.738.738 0 0 1-.058.002c-.409 0-.741-.265-.741-.592s.332-.593.741-.593a.994.994 0 0 1 .102.005s1.913.32 4.888 1.563l.323.134c2.767 1.024 3.88 1.051 3.88 1.051.374.032.472.032.522-.005s.36-.156.36-.156c.393.01.708.283.708.617 0 .323-.552.674-.925.703 0 0-2.047.161-5.137-1.204zm18.514-6.9a.54.54 0 0 0-.538-.634.56.56 0 0 0-.217.044l-2.264 2.47c-.928 1.052-3.197 3.533-4.147 3.645l-.537.055c-.045-.089-.287-.304-.287-.304a.579.579 0 0 0-.554-.133c-.312.095-.48.457-.375.8a.705.705 0 0 0 .216.33s1.57 1.591 4.275-1.237l2.951-3.118s1.371-1.498 1.464-1.856z"/><path d="M-73.131-66.72c0 3.004-2.438 5.441-5.448 5.441s-5.446-2.437-5.446-5.44a5.448 5.448 0 0 1 5.446-5.448 5.447 5.447 0 0 1 5.448 5.443zm-16.914 3.976c0 3.004-2.438 5.441-5.448 5.441s-5.442-2.433-5.442-5.44 2.438-5.448 5.447-5.448a5.447 5.447 0 0 1 5.447 5.447zm4.54 8.722c.143.814.478 2.539 1.628 2.395s.719-2.443.719-2.443-1.965-.095-2.157 0zm-.671.227s-1.055.45-1.896.998c0 0 .419 2.142 1.817 1.503 0 0 .92-.203.135-2.357zm-2.678-4.76s-6.704 2.018-3.415 5.409c2.156 2.222 5.14-1.562 6.732-1.526 0 0 .364-.165 1.127-.066s5.738.498 6.202-1.492-.133-2.322-.498-2.554-2.984-1.79-6.898-.696z" fill="#fff"/><path d="M-95.968-62.582a1.707 1.707 0 1 0 0 3.414 1.707 1.707 0 1 0 0-3.414m16.67-4.07a1.707 1.705 0 1 0 0 3.41 1.707 1.705 0 1 0 0-3.41m-7.428 5.998a3.02 1.649-11.45 1 0 .654 3.231 3.02 1.649-11.45 1 0-.654-3.231"/><path d="M-89.53-57.47s-4.216 1.963-2.248 3.592 2.922-1.006 5.796-1.485 6.18.288 6.85-.958.915-2.248-3.784-2.683c0 0-.43 2.06-2.922 2.3s-2.921-.192-3.688-.767z" fill="#e1caa2"/><path d="M-56.168-48.206s6.96 1.475-3.102 2.95c0 0 2.383-.983 3.102-2.95" fill="#231f20"/><path d="M-60.934-47.525s-.228-3.556-2.346-5.485 1.778-2.535 2.989-2.005 6.242 4.01 1.815 8.474c0 0-1.891 1.361-2.42-.795z" fill="#e1caa2"/><path d="M-105.41-48.32s-.36 1.795-.072 2.55c0 0-6.072-1.042-.287-2.48z"/><path d="M-102.5-52.38s-3.729 4.41-1.797 8.01c1.581 2.947 4.778-.394 4.85-.502z" fill="#e1caa2"/></svg>