<?xml version="1.0" encoding="UTF-8"?>
<svg xmlns="http://www.w3.org/2000/svg" xmlns:xlink="http://www.w3.org/1999/xlink" width="28.095275" height="32" viewBox="0 0 28.095275 32" version="1.1">
<g id="surface1">
<path style=" stroke:none;fill-rule:nonzero;fill:rgb(13.333334%,12.156863%,12.156863%);fill-opacity:1;" d="M 5.050781 30.996094 C 4.683594 31.078125 4.402344 31.230469 4.425781 31.335938 C 4.449219 31.445312 4.769531 31.46875 5.136719 31.386719 C 5.503906 31.304688 5.785156 31.152344 5.761719 31.046875 C 5.738281 30.9375 5.421875 30.917969 5.050781 30.996094 Z M 5.050781 30.996094 "/>
<path style=" stroke:none;fill-rule:nonzero;fill:rgb(13.333334%,12.156863%,12.156863%);fill-opacity:1;" d="M 3.496094 30.910156 C 3.101562 30.941406 2.785156 31.054688 2.792969 31.160156 C 2.804688 31.265625 3.132812 31.324219 3.527344 31.292969 C 3.921875 31.261719 4.238281 31.152344 4.230469 31.046875 C 4.21875 30.9375 3.890625 30.878906 3.496094 30.910156 Z M 3.496094 30.910156 "/>
<path style=" stroke:none;fill-rule:nonzero;fill:rgb(13.333334%,12.156863%,12.156863%);fill-opacity:1;" d="M 2.226562 30.796875 C 1.964844 30.832031 1.757812 30.925781 1.769531 31.011719 C 1.78125 31.09375 2.003906 31.128906 2.265625 31.09375 C 2.53125 31.058594 2.734375 30.960938 2.722656 30.878906 C 2.710938 30.796875 2.488281 30.757812 2.226562 30.796875 Z M 2.226562 30.796875 "/>
<path style=" stroke:none;fill-rule:nonzero;fill:rgb(13.333334%,12.156863%,12.156863%);fill-opacity:1;" d="M 1.296875 30.679688 C 1.039062 30.714844 0.84375 30.800781 0.851562 30.867188 C 0.863281 30.933594 1.074219 30.957031 1.332031 30.921875 C 1.585938 30.882812 1.78125 30.800781 1.773438 30.734375 C 1.761719 30.667969 1.550781 30.644531 1.296875 30.679688 Z M 1.296875 30.679688 "/>
<path style=" stroke:none;fill-rule:nonzero;fill:rgb(13.333334%,12.156863%,12.156863%);fill-opacity:1;" d="M 1.117188 30.65625 C 1.371094 30.621094 1.570312 30.535156 1.5625 30.46875 C 1.550781 30.402344 1.335938 30.378906 1.082031 30.417969 C 0.828125 30.453125 0.628906 30.539062 0.640625 30.605469 C 0.648438 30.671875 0.863281 30.695312 1.117188 30.65625 Z M 1.117188 30.65625 "/>
<path style=" stroke:none;fill-rule:nonzero;fill:rgb(13.333334%,12.156863%,12.156863%);fill-opacity:1;" d="M 1.0625 30.34375 C 1.28125 30.3125 1.453125 30.238281 1.445312 30.179688 C 1.4375 30.125 1.25 30.101562 1.03125 30.132812 C 0.808594 30.167969 0.636719 30.238281 0.644531 30.296875 C 0.652344 30.355469 0.839844 30.375 1.0625 30.34375 Z M 1.0625 30.34375 "/>
<path style=" stroke:none;fill-rule:nonzero;fill:rgb(13.333334%,12.156863%,12.156863%);fill-opacity:1;" d="M 12.121094 29.707031 C 11.746094 29.707031 11.441406 29.808594 11.441406 29.929688 C 11.441406 30.054688 11.746094 30.152344 12.121094 30.152344 C 12.496094 30.152344 12.800781 30.054688 12.800781 29.929688 C 12.800781 29.808594 12.496094 29.707031 12.121094 29.707031 Z M 12.121094 29.707031 "/>
<path style=" stroke:none;fill-rule:nonzero;fill:rgb(13.333334%,12.156863%,12.156863%);fill-opacity:1;" d="M 13.867188 29.679688 C 13.617188 29.679688 13.414062 29.769531 13.414062 29.882812 C 13.414062 29.992188 13.617188 30.085938 13.867188 30.085938 C 14.117188 30.085938 14.320312 29.992188 14.320312 29.882812 C 14.320312 29.769531 14.117188 29.679688 13.867188 29.679688 Z M 13.867188 29.679688 "/>
<path style=" stroke:none;fill-rule:nonzero;fill:rgb(13.333334%,12.156863%,12.156863%);fill-opacity:1;" d="M 15.773438 29.738281 C 15.773438 29.828125 15.554688 29.902344 15.277344 29.902344 C 15.003906 29.902344 14.78125 29.828125 14.78125 29.738281 C 14.78125 29.648438 15.003906 29.574219 15.277344 29.574219 C 15.554688 29.574219 15.773438 29.648438 15.773438 29.738281 Z M 15.773438 29.738281 "/>
<path style=" stroke:none;fill-rule:nonzero;fill:rgb(13.333334%,12.156863%,12.156863%);fill-opacity:1;" d="M 16.367188 29.382812 C 16.167969 29.382812 16.007812 29.460938 16.007812 29.554688 C 16.007812 29.652344 16.167969 29.726562 16.367188 29.726562 C 16.566406 29.726562 16.726562 29.652344 16.726562 29.554688 C 16.726562 29.460938 16.566406 29.382812 16.367188 29.382812 Z M 16.367188 29.382812 "/>
<path style=" stroke:none;fill-rule:nonzero;fill:rgb(13.333334%,12.156863%,12.156863%);fill-opacity:1;" d="M 17.671875 29.359375 C 17.671875 29.449219 17.507812 29.527344 17.304688 29.527344 C 17.105469 29.527344 16.941406 29.449219 16.941406 29.359375 C 16.941406 29.265625 17.105469 29.1875 17.304688 29.1875 C 17.507812 29.1875 17.671875 29.265625 17.671875 29.359375 Z M 17.671875 29.359375 "/>
<path style=" stroke:none;fill-rule:nonzero;fill:rgb(100%,100%,100%);fill-opacity:1;" d="M 16.628906 12.714844 C 16.386719 12.613281 16.132812 12.546875 15.875 12.523438 C 15.785156 12.511719 15.695312 12.507812 15.605469 12.507812 C 14.15625 12.507812 12.980469 13.683594 12.980469 15.132812 C 12.980469 16.585938 14.15625 17.761719 15.605469 17.761719 C 15.695312 17.761719 15.785156 17.753906 15.875 17.746094 C 17.066406 17.625 18.027344 16.707031 18.203125 15.523438 C 18.378906 14.335938 17.734375 13.183594 16.628906 12.714844 Z M 15.25 16.835938 C 14.792969 16.835938 14.421875 16.46875 14.421875 16.007812 C 14.421875 15.550781 14.792969 15.183594 15.25 15.183594 C 15.707031 15.183594 16.078125 15.550781 16.078125 16.007812 C 16.078125 16.46875 15.707031 16.835938 15.25 16.835938 Z M 15.25 16.835938 "/>
<path style=" stroke:none;fill-rule:nonzero;fill:rgb(100%,100%,100%);fill-opacity:1;" d="M 7.894531 19.613281 C 7.988281 19.601562 8.078125 19.582031 8.164062 19.558594 C 8.207031 19.546875 8.25 19.527344 8.292969 19.515625 C 8.359375 19.492188 8.425781 19.472656 8.492188 19.445312 C 8.542969 19.421875 8.589844 19.394531 8.640625 19.371094 C 8.691406 19.34375 8.746094 19.320312 8.796875 19.292969 C 9.789062 18.710938 10.285156 17.550781 10.027344 16.433594 C 10.011719 16.371094 9.996094 16.308594 9.976562 16.246094 C 9.589844 15.007812 8.359375 14.234375 7.074219 14.429688 C 5.792969 14.625 4.84375 15.730469 4.84375 17.027344 C 4.84375 17.785156 5.171875 18.507812 5.742188 19.003906 C 6.3125 19.503906 7.074219 19.730469 7.824219 19.628906 C 7.847656 19.625 7.871094 19.617188 7.894531 19.613281 Z M 7.234375 17.121094 C 7.691406 17.121094 8.058594 17.492188 8.058594 17.949219 C 8.058594 18.40625 7.691406 18.777344 7.234375 18.777344 C 6.777344 18.777344 6.40625 18.40625 6.40625 17.949219 C 6.40625 17.492188 6.777344 17.121094 7.234375 17.121094 Z M 7.234375 17.121094 "/>
<path style=" stroke:none;fill-rule:nonzero;fill:rgb(13.333334%,12.156863%,12.156863%);fill-opacity:1;" d="M 7.359375 28.445312 C 6.90625 28.546875 5.585938 29.265625 4.441406 29.484375 C 3.300781 29.703125 2.3125 29.816406 1.964844 29.945312 C 1.617188 30.074219 1.347656 30.332031 2.027344 30.589844 C 2.710938 30.84375 6.007812 30.933594 6.304688 30.589844 C 6.601562 30.242188 6.101562 30.089844 5.378906 30.101562 C 4.867188 30.105469 4.929688 29.929688 4.929688 29.90625 C 4.929688 29.90625 4.960938 29.683594 5.753906 29.574219 C 6.539062 29.464844 10.027344 29.136719 9.964844 28.765625 C 9.898438 28.394531 7.808594 28.339844 7.359375 28.445312 Z M 7.359375 28.445312 "/>
<path style=" stroke:none;fill-rule:nonzero;fill:rgb(13.333334%,12.156863%,12.156863%);fill-opacity:1;" d="M 14.214844 28.804688 C 13.429688 28.84375 11.660156 28.753906 11.414062 29.164062 C 11.171875 29.574219 12.132812 29.726562 13.648438 29.601562 C 15.164062 29.472656 17.308594 29.304688 17.398438 28.84375 C 17.488281 28.378906 17 28.46875 16.949219 28.175781 C 16.898438 27.878906 17.488281 27.878906 17.605469 27.441406 C 17.71875 27.007812 16.808594 27.058594 16 27.058594 C 15.191406 27.058594 13.84375 27.132812 13.714844 27.558594 C 13.585938 27.980469 14.332031 27.980469 14.855469 28.085938 C 15.382812 28.1875 15.230469 28.378906 15.230469 28.378906 C 15.203125 28.648438 14.996094 28.765625 14.214844 28.804688 Z M 14.214844 28.804688 "/>
<path style=" stroke:none;fill-rule:nonzero;fill:rgb(13.333334%,12.156863%,12.156863%);fill-opacity:1;" d="M 26.367188 24.054688 C 26.265625 24.339844 26.101562 24.59375 25.882812 24.800781 C 25.5 25.164062 25.164062 25.382812 24.863281 25.460938 C 26.519531 25.226562 27.503906 24.9375 27.503906 24.621094 C 27.503906 24.421875 27.097656 24.226562 26.367188 24.054688 Z M 26.367188 24.054688 "/>
<path style=" stroke:none;fill-rule:nonzero;fill:rgb(13.333334%,12.156863%,12.156863%);fill-opacity:1;" d="M 1.339844 24.621094 C 1.339844 24.839844 1.816406 25.046875 2.664062 25.234375 C 2.613281 24.824219 2.625 24.410156 2.699219 24.003906 C 1.828125 24.191406 1.339844 24.402344 1.339844 24.621094 Z M 1.339844 24.621094 "/>
<path style=" stroke:none;fill-rule:nonzero;fill:rgb(40.392157%,81.176472%,89.019608%);fill-opacity:1;" d="M 23.53125 23.59375 C 23.425781 22.820312 23.097656 22.476562 22.808594 22.167969 C 22.535156 21.882812 22.28125 21.617188 22.363281 21.121094 C 22.4375 20.664062 22.800781 20.382812 23.394531 20.3125 C 23.035156 17.875 22.507812 14.800781 21.828125 12.175781 C 21.488281 10.867188 20.953125 9.957031 20.234375 9.351562 C 19.410156 9.773438 18.417969 10.238281 17.3125 10.714844 C 16.515625 11.0625 15.714844 11.394531 14.90625 11.710938 C 14.277344 12.386719 13.585938 13.054688 13.164062 13.246094 C 12.914062 13.363281 12.640625 13.429688 12.363281 13.433594 C 11.96875 13.445312 11.597656 13.269531 11.355469 12.957031 C 11.207031 13 11.058594 13.03125 10.910156 13.050781 C 10.785156 13.066406 10.601562 13.082031 10.375 13.097656 C 10.464844 13.335938 10.421875 13.601562 10.257812 13.796875 C 10.074219 14.019531 9.773438 14.132812 9.351562 14.132812 C 8.746094 14.132812 7.878906 13.902344 6.722656 13.433594 C 6.566406 13.371094 6.40625 13.308594 6.25 13.25 C 6.160156 13.25 6.074219 13.25 5.984375 13.25 C 4.878906 13.25 4.011719 13.214844 3.335938 13.160156 C 2.59375 14.695312 2.917969 16.398438 3.1875 17.808594 C 3.449219 19.15625 4.351562 21.554688 5.1875 23.617188 C 5.5 24.382812 5.800781 25.101562 6.058594 25.703125 C 8.324219 25.902344 11.234375 26.023438 14.402344 26.023438 C 18.175781 26.023438 21.574219 25.851562 23.96875 25.582031 C 23.792969 24.863281 23.574219 23.863281 23.535156 23.609375 Z M 16.628906 17.554688 C 16.386719 17.65625 16.132812 17.71875 15.875 17.746094 C 15.785156 17.753906 15.695312 17.761719 15.605469 17.761719 C 14.15625 17.761719 12.980469 16.585938 12.980469 15.132812 C 12.980469 13.683594 14.15625 12.507812 15.605469 12.507812 C 15.695312 12.507812 15.785156 12.511719 15.875 12.523438 C 17.066406 12.644531 18.027344 13.558594 18.203125 14.746094 C 18.378906 15.929688 17.734375 17.085938 16.628906 17.554688 Z M 4.84375 17.027344 C 4.84375 15.730469 5.792969 14.625 7.074219 14.429688 C 8.359375 14.234375 9.589844 15.007812 9.976562 16.246094 C 9.996094 16.308594 10.011719 16.371094 10.027344 16.433594 C 10.285156 17.554688 9.789062 18.710938 8.796875 19.292969 C 8.746094 19.320312 8.691406 19.34375 8.640625 19.371094 C 8.589844 19.394531 8.542969 19.421875 8.492188 19.445312 C 8.425781 19.472656 8.359375 19.492188 8.292969 19.515625 C 8.25 19.527344 8.207031 19.546875 8.164062 19.558594 C 8.078125 19.582031 7.988281 19.601562 7.894531 19.613281 C 7.871094 19.617188 7.847656 19.625 7.824219 19.628906 C 7.074219 19.730469 6.3125 19.503906 5.742188 19.003906 C 5.171875 18.507812 4.84375 17.785156 4.84375 17.027344 Z M 11.855469 22.585938 C 11.71875 22.636719 11.5625 22.617188 11.4375 22.539062 C 11.191406 22.386719 11.085938 22.027344 11.046875 21.839844 L 11.058594 21.832031 C 11.339844 21.644531 11.636719 21.484375 11.949219 21.355469 C 11.972656 21.414062 12 21.492188 12.023438 21.582031 C 12.027344 21.589844 12.03125 21.597656 12.03125 21.605469 C 12.050781 21.671875 12.070312 21.746094 12.085938 21.820312 C 12.085938 21.824219 12.085938 21.828125 12.085938 21.832031 C 12.125 22.03125 12.136719 22.242188 12.070312 22.394531 C 12.035156 22.488281 11.953125 22.558594 11.855469 22.585938 Z M 12.875 22.386719 C 12.832031 22.382812 12.792969 22.375 12.757812 22.359375 C 12.617188 22.308594 12.515625 22.082031 12.441406 21.832031 C 12.414062 21.738281 12.390625 21.640625 12.371094 21.550781 C 12.367188 21.546875 12.367188 21.539062 12.367188 21.535156 C 12.34375 21.4375 12.328125 21.339844 12.3125 21.246094 C 12.378906 21.230469 12.445312 21.21875 12.511719 21.207031 C 12.59375 21.199219 12.679688 21.199219 12.761719 21.199219 L 12.765625 21.199219 C 12.898438 21.199219 13.0625 21.203125 13.238281 21.207031 L 13.394531 21.210938 C 13.40625 21.332031 13.421875 21.503906 13.441406 21.757812 C 13.445312 21.78125 13.445312 21.808594 13.445312 21.832031 C 13.453125 22.34375 13.089844 22.410156 12.875 22.386719 Z M 15.121094 20.765625 C 14.902344 20.851562 14.671875 20.902344 14.4375 20.914062 C 14.257812 20.925781 14.050781 20.933594 13.804688 20.933594 C 13.691406 20.933594 13.578125 20.933594 13.46875 20.929688 C 13.359375 20.929688 13.25 20.925781 13.148438 20.921875 C 12.988281 20.917969 12.828125 20.914062 12.667969 20.914062 C 12.628906 20.914062 12.59375 20.914062 12.5625 20.917969 C 12.515625 20.917969 12.476562 20.917969 12.441406 20.921875 C 12.425781 20.921875 12.410156 20.925781 12.394531 20.925781 C 12.242188 20.945312 12.09375 20.980469 11.949219 21.027344 C 11.527344 21.164062 11.160156 21.390625 10.851562 21.585938 C 10.734375 21.660156 10.621094 21.730469 10.515625 21.789062 C 10.328125 21.886719 10.121094 21.9375 9.910156 21.933594 C 9.492188 21.933594 9.101562 21.769531 8.863281 21.496094 C 8.765625 21.386719 8.695312 21.257812 8.652344 21.117188 C 8.613281 20.972656 8.601562 20.824219 8.621094 20.675781 C 8.636719 20.5625 8.671875 20.453125 8.71875 20.347656 C 8.816406 20.160156 8.945312 19.992188 9.105469 19.855469 C 9.542969 19.464844 10.128906 19.253906 10.222656 19.222656 L 10.46875 19.140625 C 10.460938 19.117188 10.453125 19.09375 10.449219 19.066406 C 10.394531 18.734375 10.714844 18.390625 11.21875 18.1875 C 11.378906 18.125 11.542969 18.082031 11.710938 18.050781 C 11.746094 18.046875 11.78125 18.042969 11.8125 18.039062 C 11.890625 18.027344 11.964844 18.023438 12.042969 18.019531 C 12.121094 18.019531 12.195312 18.019531 12.273438 18.023438 C 12.285156 18.027344 12.292969 18.027344 12.304688 18.027344 C 12.671875 18.0625 12.972656 18.1875 13.125 18.375 C 13.148438 18.402344 13.167969 18.429688 13.183594 18.460938 L 13.480469 18.460938 C 14.15625 18.46875 14.714844 18.558594 15.136719 18.734375 C 15.402344 18.839844 15.605469 18.980469 15.730469 19.140625 C 15.777344 19.199219 15.816406 19.269531 15.84375 19.339844 C 15.855469 19.375 15.867188 19.410156 15.871094 19.445312 C 15.875 19.460938 15.875 19.472656 15.875 19.488281 C 15.882812 19.542969 15.890625 19.601562 15.890625 19.65625 C 15.894531 20.136719 15.617188 20.542969 15.121094 20.765625 Z M 15.121094 20.765625 "/>
<path style=" stroke:none;fill-rule:nonzero;fill:rgb(0%,0%,0%);fill-opacity:1;" d="M 19.011719 6.421875 C 19.011719 6.398438 19.003906 6.378906 19 6.355469 C 18.992188 6.332031 18.980469 6.308594 18.96875 6.289062 L 18.949219 6.253906 L 18.921875 6.222656 C 18.886719 6.179688 18.84375 6.144531 18.796875 6.121094 L 18.785156 6.117188 L 18.78125 6.113281 L 18.761719 6.105469 L 18.757812 6.101562 L 18.730469 6.09375 L 18.675781 6.074219 C 18.640625 6.0625 18.601562 6.054688 18.5625 6.050781 C 18.523438 6.042969 18.484375 6.039062 18.445312 6.039062 C 18.402344 6.042969 18.363281 6.042969 18.320312 6.050781 C 18.167969 6.078125 18.027344 6.148438 17.910156 6.25 C 17.808594 6.335938 17.722656 6.441406 17.652344 6.554688 C 17.535156 6.742188 17.449219 6.945312 17.394531 7.160156 C 17.355469 7.304688 17.328125 7.453125 17.316406 7.605469 C 17.308594 7.660156 17.308594 7.703125 17.308594 7.734375 C 17.308594 7.746094 17.308594 7.757812 17.308594 7.765625 C 17.308594 7.773438 17.308594 7.777344 17.308594 7.777344 L 17.390625 7.628906 C 17.445312 7.535156 17.515625 7.402344 17.609375 7.246094 C 17.707031 7.078125 17.816406 6.914062 17.9375 6.761719 C 18.003906 6.683594 18.074219 6.613281 18.152344 6.554688 C 18.222656 6.5 18.300781 6.464844 18.386719 6.445312 C 18.40625 6.445312 18.425781 6.441406 18.445312 6.441406 L 18.449219 6.441406 C 18.46875 6.441406 18.488281 6.441406 18.507812 6.445312 C 18.527344 6.449219 18.550781 6.449219 18.570312 6.457031 L 18.621094 6.46875 L 18.636719 6.476562 C 18.640625 6.476562 18.640625 6.476562 18.640625 6.476562 L 18.640625 6.480469 L 18.644531 6.480469 C 18.644531 6.480469 18.640625 6.480469 18.640625 6.480469 C 18.644531 6.484375 18.648438 6.488281 18.648438 6.492188 C 18.660156 6.523438 18.667969 6.554688 18.671875 6.589844 C 18.671875 6.664062 18.667969 6.738281 18.65625 6.8125 C 18.652344 6.832031 18.652344 6.855469 18.648438 6.875 C 18.632812 6.972656 18.613281 7.0625 18.59375 7.152344 C 18.550781 7.324219 18.511719 7.472656 18.484375 7.578125 C 18.460938 7.679688 18.445312 7.742188 18.445312 7.742188 C 18.484375 7.699219 18.523438 7.65625 18.558594 7.613281 C 18.652344 7.492188 18.738281 7.367188 18.808594 7.234375 C 18.859375 7.144531 18.902344 7.050781 18.941406 6.957031 C 18.941406 6.953125 18.945312 6.945312 18.945312 6.941406 C 18.988281 6.832031 19.015625 6.714844 19.027344 6.597656 C 19.03125 6.539062 19.027344 6.476562 19.011719 6.421875 Z M 19.011719 6.421875 "/>
<path style=" stroke:none;fill-rule:nonzero;fill:rgb(0%,0%,0%);fill-opacity:1;" d="M 18.640625 6.480469 L 18.640625 6.476562 L 18.636719 6.476562 C 18.636719 6.476562 18.640625 6.480469 18.640625 6.480469 Z M 18.640625 6.480469 "/>
<path style=" stroke:none;fill-rule:nonzero;fill:rgb(13.333334%,12.156863%,12.156863%);fill-opacity:1;" d="M 2.683594 11.304688 L 2.71875 11.304688 L 2.683594 11.242188 Z M 2.683594 11.304688 "/>
<path style=" stroke:none;fill-rule:nonzero;fill:rgb(13.333334%,12.156863%,12.156863%);fill-opacity:1;" d="M 2.898438 10.023438 C 2.925781 10.113281 2.960938 10.199219 3.003906 10.285156 C 3.003906 10.285156 3.003906 10.285156 3.007812 10.289062 C 3.007812 10.289062 3.007812 10.292969 3.011719 10.296875 C 3.039062 10.347656 3.066406 10.402344 3.097656 10.449219 C 3.101562 10.460938 3.109375 10.46875 3.113281 10.480469 C 3.148438 10.53125 3.183594 10.585938 3.222656 10.632812 C 3.226562 10.636719 3.226562 10.636719 3.226562 10.640625 C 3.242188 10.660156 3.257812 10.675781 3.269531 10.691406 C 3.28125 10.707031 3.292969 10.71875 3.300781 10.726562 C 3.320312 10.75 3.328125 10.757812 3.328125 10.757812 C 3.328125 10.757812 3.324219 10.734375 3.316406 10.699219 C 3.3125 10.671875 3.308594 10.644531 3.300781 10.605469 C 3.28125 10.511719 3.253906 10.375 3.226562 10.214844 C 3.214844 10.136719 3.203125 10.050781 3.195312 9.964844 C 3.195312 9.929688 3.195312 9.886719 3.195312 9.851562 C 3.195312 9.847656 3.195312 9.84375 3.195312 9.839844 C 3.195312 9.800781 3.199219 9.761719 3.210938 9.726562 C 3.214844 9.699219 3.226562 9.675781 3.242188 9.65625 C 3.253906 9.644531 3.265625 9.636719 3.28125 9.632812 L 3.292969 9.628906 L 3.3125 9.625 C 3.316406 9.625 3.316406 9.628906 3.3125 9.628906 C 3.308594 9.632812 3.304688 9.632812 3.304688 9.632812 C 3.300781 9.632812 3.300781 9.632812 3.300781 9.632812 L 3.304688 9.632812 C 3.304688 9.632812 3.308594 9.636719 3.3125 9.636719 L 3.316406 9.636719 C 3.34375 9.648438 3.371094 9.664062 3.394531 9.679688 C 3.464844 9.738281 3.53125 9.804688 3.589844 9.875 C 3.652344 9.949219 3.714844 10.03125 3.773438 10.109375 C 3.890625 10.269531 4 10.425781 4.09375 10.558594 C 4.171875 10.667969 4.253906 10.777344 4.332031 10.882812 C 4.390625 10.960938 4.429688 11.007812 4.429688 11.007812 L 4.429688 11.003906 L 4.425781 10.964844 C 4.421875 10.953125 4.421875 10.9375 4.417969 10.917969 C 4.414062 10.898438 4.410156 10.875 4.40625 10.851562 C 4.40625 10.84375 4.402344 10.835938 4.402344 10.824219 C 4.386719 10.757812 4.371094 10.6875 4.351562 10.621094 C 4.347656 10.605469 4.34375 10.585938 4.335938 10.566406 C 4.324219 10.519531 4.308594 10.46875 4.289062 10.421875 C 4.269531 10.363281 4.25 10.304688 4.226562 10.246094 C 4.214844 10.21875 4.203125 10.191406 4.191406 10.164062 C 4.15625 10.082031 4.117188 10 4.074219 9.917969 C 4.023438 9.820312 3.960938 9.722656 3.894531 9.632812 C 3.859375 9.582031 3.820312 9.535156 3.777344 9.488281 C 3.734375 9.441406 3.683594 9.398438 3.632812 9.359375 C 3.601562 9.335938 3.570312 9.316406 3.535156 9.296875 C 3.5 9.28125 3.460938 9.265625 3.425781 9.253906 C 3.414062 9.25 3.398438 9.246094 3.386719 9.246094 C 3.375 9.242188 3.367188 9.242188 3.355469 9.238281 L 3.335938 9.238281 L 3.3125 9.234375 C 3.28125 9.234375 3.253906 9.238281 3.222656 9.242188 L 3.203125 9.25 L 3.183594 9.253906 L 3.15625 9.261719 L 3.132812 9.273438 C 3.046875 9.308594 2.976562 9.371094 2.929688 9.449219 C 2.90625 9.484375 2.890625 9.519531 2.878906 9.558594 C 2.867188 9.597656 2.863281 9.632812 2.859375 9.671875 C 2.851562 9.789062 2.863281 9.910156 2.898438 10.023438 Z M 2.898438 10.023438 "/>
<path style=" stroke:none;fill-rule:nonzero;fill:rgb(87.450981%,79.215688%,63.921571%);fill-opacity:1;" d="M 4.214844 26.417969 C 4.832031 26.417969 5.265625 26.082031 5.570312 25.648438 C 5.222656 24.839844 4.648438 23.480469 4.105469 22.046875 C 3.910156 22.222656 3.742188 22.425781 3.605469 22.648438 C 3.148438 23.355469 2.769531 25.007812 3.246094 25.878906 C 3.441406 26.242188 3.761719 26.417969 4.214844 26.417969 Z M 4.214844 26.417969 "/>
<path style=" stroke:none;fill-rule:nonzero;fill:rgb(87.450981%,79.215688%,63.921571%);fill-opacity:1;" d="M 25.949219 22.328125 C 25.589844 21.394531 24.820312 20.730469 24.082031 20.71875 L 24.054688 20.714844 C 23.945312 20.699219 23.835938 20.691406 23.722656 20.695312 C 23.320312 20.695312 22.828125 20.777344 22.757812 21.1875 C 22.710938 21.472656 22.835938 21.617188 23.097656 21.890625 C 23.398438 22.207031 23.808594 22.640625 23.929688 23.539062 C 24.070312 24.574219 24.324219 25.097656 24.679688 25.097656 C 24.847656 25.097656 25.148438 24.996094 25.652344 24.519531 C 26.269531 23.9375 26.210938 23.003906 25.949219 22.328125 Z M 25.949219 22.328125 "/>
<path style=" stroke:none;fill-rule:nonzero;fill:rgb(13.333334%,12.156863%,12.156863%);fill-opacity:1;" d="M 6.40625 17.949219 C 6.40625 18.40625 6.777344 18.777344 7.234375 18.777344 C 7.691406 18.777344 8.058594 18.40625 8.058594 17.949219 C 8.058594 17.492188 7.691406 17.121094 7.234375 17.121094 C 6.777344 17.121094 6.40625 17.492188 6.40625 17.949219 Z M 6.40625 17.949219 "/>
<path style=" stroke:none;fill-rule:nonzero;fill:rgb(13.333334%,12.156863%,12.156863%);fill-opacity:1;" d="M 15.25 15.183594 C 14.792969 15.183594 14.421875 15.550781 14.421875 16.007812 C 14.421875 16.46875 14.792969 16.835938 15.25 16.835938 C 15.707031 16.835938 16.078125 16.46875 16.078125 16.007812 C 16.078125 15.550781 15.707031 15.183594 15.25 15.183594 Z M 15.25 15.183594 "/>
<path style=" stroke:none;fill-rule:nonzero;fill:rgb(39.215687%,54.901963%,10.196079%);fill-opacity:1;" d="M 19.960938 7.640625 C 19.855469 8.269531 19.652344 8.960938 19.515625 9.148438 L 19.390625 9.324219 C 19.960938 9.046875 20.472656 8.78125 20.902344 8.539062 C 22.40625 7.699219 22.589844 7.328125 22.613281 7.234375 C 22.628906 7.175781 22.613281 7.15625 22.605469 7.148438 C 22.589844 7.128906 22.484375 7.023438 22.011719 7.023438 C 21.492188 7.023438 20.765625 7.144531 20.007812 7.308594 C 19.996094 7.417969 19.976562 7.53125 19.960938 7.640625 Z M 19.960938 7.640625 "/>
<path style=" stroke:none;fill-rule:nonzero;fill:rgb(39.215687%,54.901963%,10.196079%);fill-opacity:1;" d="M 19.375 9.332031 L 19.15625 9.3125 C 18.84375 9.292969 18.53125 9.28125 18.214844 9.28125 C 17.65625 9.28125 16.917969 9.316406 16.3125 9.460938 C 16.429688 9.707031 16.394531 10.003906 16.21875 10.214844 C 16.070312 10.394531 15.820312 10.691406 15.519531 11.035156 C 16.066406 10.8125 16.613281 10.582031 17.152344 10.347656 C 17.902344 10.023438 18.640625 9.6875 19.375 9.332031 Z M 19.375 9.332031 "/>
<path style=" stroke:none;fill-rule:nonzero;fill:rgb(39.215687%,54.901963%,10.196079%);fill-opacity:1;" d="M 4.988281 8.699219 C 5.695312 8.882812 6.425781 8.972656 7.15625 8.964844 C 8.433594 8.964844 11.144531 8.714844 14.957031 7.054688 L 15.042969 7.015625 C 15.03125 6.804688 15.046875 6.59375 15.09375 6.390625 C 15.160156 6.042969 15.320312 5.726562 15.550781 5.464844 C 15.523438 5.359375 15.492188 5.253906 15.457031 5.152344 C 15.015625 4.917969 11.390625 3.570312 9.5 3.570312 C 9.335938 3.566406 9.171875 3.582031 9.011719 3.609375 C 7.335938 3.953125 4.789062 6.863281 4.699219 7.277344 C 4.671875 7.457031 4.679688 8.015625 4.699219 8.621094 Z M 4.988281 8.699219 "/>
<path style=" stroke:none;fill-rule:nonzero;fill:rgb(39.215687%,54.901963%,10.196079%);fill-opacity:1;" d="M 10.867188 12.652344 C 10.984375 12.636719 11.101562 12.613281 11.214844 12.578125 C 11.195312 12.289062 11.355469 12.019531 11.617188 11.894531 C 11.878906 11.773438 12.191406 11.820312 12.402344 12.023438 C 12.464844 12.011719 12.527344 11.988281 12.585938 11.960938 C 12.933594 11.796875 14.183594 10.460938 15.136719 9.316406 C 15.167969 9.273438 15.207031 9.238281 15.25 9.207031 C 13.074219 10.144531 10.039062 11.171875 7.144531 11.171875 C 6.707031 11.175781 6.265625 11.148438 5.828125 11.09375 L 5.894531 11.28125 L 5.53125 11.417969 C 5.527344 11.417969 5.464844 11.441406 5.363281 11.484375 C 5.828125 11.59375 6.457031 11.808594 7.246094 12.128906 C 8.695312 12.710938 9.25 12.734375 9.386719 12.726562 C 9.585938 12.621094 9.824219 12.617188 10.023438 12.71875 C 10.398438 12.691406 10.691406 12.671875 10.867188 12.652344 Z M 10.867188 12.652344 "/>
<path style=" stroke:none;fill-rule:nonzero;fill:rgb(39.215687%,54.901963%,10.196079%);fill-opacity:1;" d="M 4.953125 12.835938 C 4.898438 12.824219 4.84375 12.816406 4.789062 12.808594 C 4.597656 12.820312 4.414062 12.757812 4.273438 12.625 C 4.132812 12.496094 4.050781 12.316406 4.046875 12.125 C 3.855469 12.234375 3.664062 12.351562 3.488281 12.472656 L 3.171875 12.691406 L 2.9375 12.386719 C 2.679688 12.035156 2.445312 11.667969 2.246094 11.28125 C 1.683594 11.546875 1.246094 11.835938 1.140625 12.109375 C 1.121094 12.144531 1.125 12.1875 1.148438 12.21875 C 1.238281 12.355469 1.785156 12.761719 4.953125 12.835938 Z M 4.953125 12.835938 "/>
<path style=" stroke:none;fill-rule:nonzero;fill:rgb(87.450981%,79.215688%,63.921571%);fill-opacity:1;" d="M 15.117188 7.421875 C 13.59375 8.085938 10.257812 9.367188 7.15625 9.367188 C 6.390625 9.375 5.625 9.28125 4.882812 9.089844 C 4.957031 9.203125 5.03125 9.324219 5.105469 9.453125 C 5.324219 9.84375 5.515625 10.246094 5.675781 10.664062 C 6.164062 10.738281 6.652344 10.773438 7.144531 10.769531 C 8.925781 10.769531 11.710938 10.363281 15.527344 8.644531 C 15.589844 8.457031 15.667969 8.21875 15.765625 7.957031 C 15.757812 7.957031 15.753906 7.960938 15.746094 7.960938 C 15.703125 7.960938 15.664062 7.953125 15.625 7.945312 C 15.386719 7.894531 15.210938 7.699219 15.117188 7.421875 Z M 15.117188 7.421875 "/>
<path style=" stroke:none;fill-rule:nonzero;fill:rgb(40.392157%,81.176472%,89.019608%);fill-opacity:1;" d="M 2.71875 11.304688 C 2.882812 11.59375 3.0625 11.875 3.257812 12.140625 C 4.179688 11.503906 5.386719 11.042969 5.386719 11.042969 C 5.386719 11.042969 5.355469 10.949219 5.296875 10.800781 C 5.246094 10.667969 5.191406 10.53125 5.128906 10.398438 C 5.085938 10.304688 5.042969 10.207031 4.996094 10.113281 C 4.976562 10.074219 4.960938 10.035156 4.941406 9.996094 L 4.925781 9.964844 C 4.898438 9.917969 4.875 9.871094 4.851562 9.824219 L 4.84375 9.808594 C 4.746094 9.632812 4.644531 9.457031 4.535156 9.289062 C 4.164062 8.734375 3.695312 8.261719 3.167969 8.261719 C 2.984375 8.265625 2.808594 8.320312 2.65625 8.417969 C 1.691406 9 2.1875 10.335938 2.683594 11.242188 Z M 2.859375 9.671875 C 2.863281 9.632812 2.867188 9.597656 2.878906 9.558594 C 2.890625 9.519531 2.90625 9.484375 2.929688 9.449219 C 2.976562 9.371094 3.046875 9.308594 3.132812 9.273438 L 3.15625 9.261719 L 3.183594 9.253906 L 3.203125 9.25 L 3.222656 9.242188 C 3.253906 9.238281 3.28125 9.234375 3.3125 9.234375 L 3.335938 9.234375 L 3.355469 9.238281 C 3.367188 9.238281 3.375 9.242188 3.386719 9.246094 C 3.398438 9.246094 3.414062 9.25 3.425781 9.253906 C 3.460938 9.265625 3.5 9.28125 3.535156 9.296875 C 3.570312 9.316406 3.601562 9.335938 3.632812 9.359375 C 3.683594 9.398438 3.734375 9.441406 3.777344 9.488281 C 3.820312 9.535156 3.859375 9.582031 3.894531 9.632812 C 3.960938 9.722656 4.023438 9.820312 4.074219 9.917969 C 4.117188 10 4.15625 10.082031 4.191406 10.164062 C 4.203125 10.191406 4.214844 10.21875 4.226562 10.246094 C 4.25 10.304688 4.269531 10.363281 4.289062 10.421875 C 4.308594 10.46875 4.324219 10.519531 4.335938 10.566406 C 4.34375 10.585938 4.347656 10.605469 4.351562 10.621094 C 4.371094 10.6875 4.386719 10.757812 4.402344 10.824219 C 4.402344 10.835938 4.40625 10.84375 4.40625 10.851562 C 4.410156 10.875 4.414062 10.898438 4.417969 10.917969 C 4.421875 10.9375 4.421875 10.953125 4.425781 10.964844 L 4.429688 11.003906 L 4.429688 11.007812 C 4.429688 11.007812 4.390625 10.960938 4.332031 10.882812 C 4.253906 10.777344 4.171875 10.667969 4.09375 10.558594 C 4 10.425781 3.890625 10.269531 3.773438 10.109375 C 3.714844 10.03125 3.652344 9.949219 3.589844 9.875 C 3.53125 9.804688 3.464844 9.738281 3.394531 9.679688 C 3.371094 9.664062 3.34375 9.648438 3.316406 9.636719 L 3.3125 9.636719 C 3.308594 9.636719 3.304688 9.632812 3.304688 9.632812 L 3.300781 9.632812 L 3.304688 9.632812 C 3.304688 9.632812 3.308594 9.632812 3.3125 9.628906 C 3.316406 9.628906 3.316406 9.625 3.3125 9.625 L 3.292969 9.628906 L 3.28125 9.632812 C 3.265625 9.636719 3.253906 9.644531 3.242188 9.65625 C 3.226562 9.675781 3.214844 9.699219 3.210938 9.726562 C 3.199219 9.761719 3.195312 9.800781 3.195312 9.839844 C 3.195312 9.84375 3.195312 9.847656 3.195312 9.851562 C 3.195312 9.886719 3.195312 9.929688 3.195312 9.964844 C 3.203125 10.050781 3.214844 10.136719 3.226562 10.214844 C 3.253906 10.375 3.28125 10.507812 3.300781 10.605469 C 3.308594 10.644531 3.3125 10.671875 3.316406 10.699219 C 3.324219 10.734375 3.328125 10.757812 3.328125 10.757812 C 3.328125 10.757812 3.320312 10.75 3.300781 10.726562 C 3.292969 10.71875 3.28125 10.707031 3.269531 10.691406 C 3.253906 10.675781 3.242188 10.660156 3.226562 10.640625 C 3.226562 10.636719 3.226562 10.636719 3.222656 10.632812 C 3.183594 10.585938 3.148438 10.53125 3.113281 10.480469 C 3.109375 10.46875 3.101562 10.460938 3.097656 10.449219 C 3.066406 10.402344 3.039062 10.347656 3.011719 10.296875 C 3.007812 10.292969 3.007812 10.289062 3.003906 10.289062 C 3.003906 10.285156 3.003906 10.285156 3.003906 10.285156 C 2.960938 10.199219 2.925781 10.113281 2.898438 10.023438 C 2.863281 9.910156 2.851562 9.789062 2.859375 9.671875 Z M 2.859375 9.671875 "/>
<path style=" stroke:none;fill-rule:nonzero;fill:rgb(87.450981%,79.215688%,63.921571%);fill-opacity:1;" d="M 16.109375 5.183594 C 16.148438 5.183594 16.1875 5.1875 16.226562 5.195312 C 16.523438 5.261719 16.722656 5.546875 16.789062 5.941406 C 17.351562 5.148438 17.964844 4.75 18.621094 4.75 C 18.875 4.746094 19.128906 4.8125 19.34375 4.941406 C 19.691406 4.519531 19.910156 4.230469 19.910156 4.230469 C 19.652344 4.277344 19.105469 4.347656 19.105469 4.347656 C 21.164062 3.589844 21 1.53125 21 1.53125 C 21 1.886719 19.933594 2.738281 19.933594 2.738281 C 19.984375 2.433594 19.816406 2.03125 19.816406 2.03125 C 19.863281 2.433594 18.585938 3.472656 18.585938 3.472656 C 18.679688 3.285156 18.609375 2.953125 18.609375 2.953125 C 18.539062 3.332031 17.972656 3.472656 17.972656 3.472656 C 18.328125 3.046875 18.988281 0.800781 18.492188 0.65625 C 17.996094 0.515625 17.308594 2.125 17.308594 2.125 C 17.285156 1.746094 17.074219 1.746094 17.074219 1.746094 C 17.167969 2.929688 16.222656 3.875 16.222656 3.875 C 16.152344 3.636719 15.773438 3.519531 15.773438 3.519531 C 15.894531 3.78125 15.753906 4.980469 15.710938 5.320312 C 15.828125 5.234375 15.964844 5.1875 16.109375 5.183594 Z M 16.109375 5.183594 "/>
<path style=" stroke:none;fill-rule:nonzero;fill:rgb(0%,0%,0%);fill-opacity:1;" d="M 15.601562 7.488281 C 15.613281 7.496094 15.625 7.507812 15.636719 7.515625 C 15.640625 7.519531 15.644531 7.519531 15.648438 7.523438 C 15.664062 7.539062 15.6875 7.546875 15.710938 7.554688 C 15.730469 7.558594 15.753906 7.558594 15.777344 7.554688 C 15.851562 7.539062 15.921875 7.5 15.972656 7.441406 C 16.039062 7.292969 16.105469 7.144531 16.175781 7 C 16.242188 6.863281 16.308594 6.730469 16.375 6.609375 C 16.476562 6.074219 16.339844 5.632812 16.140625 5.589844 C 16.128906 5.585938 16.117188 5.585938 16.105469 5.585938 C 15.902344 5.585938 15.605469 5.941406 15.488281 6.476562 C 15.402344 6.859375 15.441406 7.203125 15.542969 7.394531 C 15.558594 7.425781 15.578125 7.457031 15.601562 7.484375 Z M 15.601562 7.488281 "/>
<path style=" stroke:none;fill-rule:nonzero;fill:rgb(40.392157%,81.176472%,89.019608%);fill-opacity:1;" d="M 18.640625 6.476562 L 18.640625 6.480469 C 18.640625 6.480469 18.644531 6.480469 18.644531 6.480469 L 18.640625 6.480469 Z M 18.640625 6.476562 "/>
<path style=" stroke:none;fill-rule:nonzero;fill:rgb(40.392157%,81.176472%,89.019608%);fill-opacity:1;" d="M 18.621094 5.152344 C 17.449219 5.152344 16.589844 6.914062 16.136719 8.113281 C 16.019531 8.429688 15.914062 8.75 15.816406 9.074219 C 15.875 9.085938 15.929688 9.105469 15.984375 9.132812 C 16.664062 8.925781 17.550781 8.878906 18.214844 8.878906 C 18.78125 8.878906 19.191406 8.914062 19.191406 8.914062 C 19.367188 8.664062 20.398438 5.152344 18.621094 5.152344 Z M 18.945312 6.941406 C 18.945312 6.945312 18.941406 6.953125 18.941406 6.957031 C 18.902344 7.050781 18.859375 7.144531 18.808594 7.234375 C 18.738281 7.367188 18.652344 7.492188 18.558594 7.613281 C 18.523438 7.65625 18.484375 7.699219 18.445312 7.742188 C 18.445312 7.742188 18.460938 7.679688 18.484375 7.578125 C 18.511719 7.472656 18.550781 7.324219 18.59375 7.152344 C 18.613281 7.0625 18.632812 6.972656 18.648438 6.875 C 18.652344 6.855469 18.652344 6.832031 18.65625 6.8125 C 18.667969 6.738281 18.671875 6.664062 18.671875 6.589844 C 18.667969 6.554688 18.660156 6.523438 18.648438 6.492188 C 18.648438 6.488281 18.644531 6.484375 18.640625 6.480469 C 18.640625 6.480469 18.636719 6.476562 18.636719 6.476562 C 18.636719 6.476562 18.640625 6.476562 18.640625 6.476562 C 18.640625 6.476562 18.640625 6.476562 18.636719 6.476562 L 18.621094 6.46875 L 18.570312 6.457031 C 18.550781 6.449219 18.527344 6.449219 18.507812 6.445312 C 18.488281 6.441406 18.46875 6.441406 18.449219 6.441406 C 18.425781 6.441406 18.40625 6.445312 18.386719 6.445312 C 18.300781 6.464844 18.222656 6.5 18.152344 6.554688 C 18.074219 6.613281 18.003906 6.683594 17.9375 6.761719 C 17.816406 6.914062 17.707031 7.078125 17.609375 7.246094 C 17.515625 7.402344 17.445312 7.535156 17.390625 7.628906 L 17.308594 7.777344 C 17.308594 7.777344 17.308594 7.773438 17.308594 7.765625 C 17.308594 7.757812 17.308594 7.746094 17.308594 7.734375 C 17.308594 7.703125 17.308594 7.660156 17.316406 7.605469 C 17.328125 7.453125 17.355469 7.304688 17.394531 7.160156 C 17.449219 6.945312 17.535156 6.742188 17.652344 6.554688 C 17.722656 6.441406 17.808594 6.335938 17.910156 6.25 C 18.027344 6.148438 18.167969 6.078125 18.320312 6.050781 C 18.363281 6.042969 18.402344 6.042969 18.445312 6.039062 C 18.484375 6.039062 18.523438 6.042969 18.5625 6.050781 C 18.601562 6.054688 18.640625 6.0625 18.675781 6.074219 L 18.730469 6.09375 L 18.757812 6.101562 L 18.761719 6.105469 L 18.78125 6.113281 L 18.785156 6.117188 L 18.796875 6.121094 C 18.84375 6.144531 18.886719 6.179688 18.921875 6.222656 L 18.949219 6.253906 L 18.96875 6.289062 C 18.980469 6.308594 18.992188 6.332031 19 6.355469 C 19.003906 6.378906 19.011719 6.398438 19.011719 6.421875 C 19.027344 6.476562 19.03125 6.539062 19.027344 6.597656 C 19.015625 6.714844 18.988281 6.832031 18.945312 6.941406 Z M 18.945312 6.941406 "/>
<path style=" stroke:none;fill-rule:nonzero;fill:rgb(0%,0%,0%);fill-opacity:1;" d="M 12.363281 13.007812 C 12.578125 13.003906 12.792969 12.953125 12.988281 12.855469 C 13.457031 12.648438 14.59375 11.503906 15.890625 9.941406 C 15.988281 9.824219 15.972656 9.648438 15.855469 9.550781 C 15.738281 9.453125 15.5625 9.46875 15.464844 9.585938 C 14.898438 10.265625 13.3125 12.085938 12.769531 12.347656 L 12.761719 12.351562 C 12.667969 12.394531 12.570312 12.425781 12.46875 12.441406 L 12.261719 12.476562 L 12.109375 12.332031 C 12.054688 12.28125 11.988281 12.253906 11.914062 12.253906 C 11.8125 12.253906 11.722656 12.308594 11.671875 12.398438 C 11.625 12.488281 11.628906 12.597656 11.679688 12.683594 C 11.703125 12.714844 11.902344 13.007812 12.363281 13.007812 Z M 12.363281 13.007812 "/>
<path style=" stroke:none;fill-rule:nonzero;fill:rgb(0%,0%,0%);fill-opacity:1;" d="M 9.585938 13.101562 L 9.503906 13.144531 L 9.410156 13.152344 C 9.390625 13.152344 9.367188 13.152344 9.34375 13.152344 C 9.085938 13.152344 8.445312 13.070312 7.089844 12.523438 C 5.589844 11.917969 4.996094 11.828125 4.777344 11.828125 C 4.75 11.828125 4.726562 11.828125 4.699219 11.832031 C 4.546875 11.859375 4.449219 12.003906 4.476562 12.15625 C 4.5 12.292969 4.625 12.390625 4.765625 12.382812 L 4.792969 12.382812 L 4.824219 12.386719 C 4.992188 12.398438 5.523438 12.488281 6.878906 13.039062 C 7.980469 13.484375 8.808594 13.707031 9.351562 13.707031 C 9.636719 13.707031 9.832031 13.644531 9.929688 13.527344 C 10 13.441406 10.015625 13.328125 9.96875 13.230469 C 9.921875 13.132812 9.824219 13.070312 9.714844 13.070312 C 9.671875 13.070312 9.625 13.082031 9.585938 13.101562 Z M 9.585938 13.101562 "/>
<path style=" stroke:none;fill-rule:nonzero;fill:rgb(87.450981%,79.215688%,63.921571%);fill-opacity:1;" d="M 15.476562 19.511719 C 15.4375 19.277344 14.871094 18.875 13.476562 18.863281 C 13.476562 18.863281 13.476562 18.867188 13.476562 18.871094 C 13.46875 18.914062 13.460938 18.953125 13.449219 18.992188 C 13.441406 19.019531 13.433594 19.050781 13.417969 19.082031 C 13.332031 19.300781 13.1875 19.492188 12.996094 19.632812 C 12.796875 19.78125 12.511719 19.914062 12.105469 19.972656 C 12 19.988281 11.90625 20 11.8125 20.007812 C 11.800781 20.007812 11.789062 20.007812 11.78125 20.011719 C 11.667969 20.019531 11.566406 20.023438 11.46875 20.023438 C 10.78125 20.023438 10.511719 19.796875 10.351562 19.601562 C 10.351562 19.601562 10.347656 19.601562 10.339844 19.605469 C 10.332031 19.609375 10.316406 19.613281 10.300781 19.621094 C 10.070312 19.707031 9.101562 20.105469 9.019531 20.730469 C 9.015625 20.761719 9.011719 20.792969 9.011719 20.824219 C 9.011719 20.886719 9.019531 20.945312 9.035156 21 C 9.136719 21.351562 9.542969 21.53125 9.910156 21.53125 C 10.050781 21.535156 10.191406 21.503906 10.320312 21.4375 C 10.601562 21.285156 10.96875 21.011719 11.425781 20.804688 C 11.714844 20.664062 12.023438 20.574219 12.34375 20.527344 C 12.449219 20.515625 12.558594 20.511719 12.667969 20.515625 C 12.976562 20.515625 13.394531 20.535156 13.804688 20.535156 C 14.265625 20.535156 14.710938 20.507812 14.957031 20.398438 C 15.019531 20.371094 15.082031 20.335938 15.140625 20.296875 C 15.1875 20.265625 15.234375 20.226562 15.277344 20.183594 C 15.3125 20.148438 15.347656 20.109375 15.375 20.066406 C 15.410156 20.007812 15.441406 19.945312 15.460938 19.878906 C 15.480469 19.804688 15.492188 19.730469 15.488281 19.652344 C 15.488281 19.617188 15.488281 19.585938 15.484375 19.554688 C 15.480469 19.539062 15.480469 19.523438 15.476562 19.511719 Z M 15.476562 19.511719 "/>
<path style=" stroke:none;fill-rule:nonzero;fill:rgb(13.333334%,12.156863%,12.156863%);fill-opacity:1;" d="M 10.734375 19.445312 C 11.015625 19.625 11.472656 19.703125 11.972656 19.621094 C 12.003906 19.613281 12.035156 19.609375 12.066406 19.601562 C 12.738281 19.464844 13.234375 19.074219 13.238281 18.6875 C 13.242188 18.609375 13.222656 18.53125 13.183594 18.460938 C 13.167969 18.429688 13.148438 18.402344 13.125 18.375 C 12.972656 18.1875 12.671875 18.0625 12.304688 18.027344 C 12.292969 18.027344 12.285156 18.027344 12.273438 18.023438 C 12.195312 18.019531 12.121094 18.019531 12.042969 18.019531 C 11.964844 18.023438 11.890625 18.027344 11.8125 18.039062 C 11.78125 18.042969 11.746094 18.046875 11.710938 18.050781 C 11.542969 18.082031 11.378906 18.125 11.21875 18.1875 C 10.714844 18.390625 10.394531 18.734375 10.449219 19.066406 C 10.453125 19.09375 10.460938 19.117188 10.46875 19.140625 C 10.519531 19.269531 10.613281 19.375 10.734375 19.445312 Z M 10.734375 19.445312 "/>
</g>
</svg>
