<?xml version="1.0" encoding="UTF-8"?>
<svg xmlns="http://www.w3.org/2000/svg" xmlns:xlink="http://www.w3.org/1999/xlink" width="24" height="32" viewBox="0 0 24 32" version="1.1">
<g id="surface1">
<path style=" stroke:none;fill-rule:nonzero;fill:rgb(30.588236%,47.058824%,58.823532%);fill-opacity:1;" d="M 7.59375 24.628906 C 7.59375 24.628906 6.367188 25.371094 8.445312 25.585938 C 10.933594 25.90625 12.273438 25.851562 15.039062 25.320312 C 15.597656 25.660156 16.183594 25.945312 16.796875 26.171875 C 10.574219 28.832031 2.699219 26.011719 7.59375 24.628906 M 6.796875 21.171875 C 6.796875 21.171875 5.46875 22.179688 7.542969 22.394531 C 10.253906 22.660156 12.382812 22.714844 16.054688 21.96875 C 16.410156 22.332031 16.847656 22.605469 17.328125 22.765625 C 9.828125 25 1.425781 22.980469 6.796875 21.171875 M 21.476562 27.242188 C 21.476562 27.242188 22.382812 27.988281 20.46875 28.574219 C 16.902344 29.636719 5.519531 29.96875 2.328125 28.574219 C 1.210938 28.09375 3.339844 27.402344 4.023438 27.296875 C 4.714844 27.136719 5.085938 27.136719 5.085938 27.136719 C 3.863281 26.285156 -3.050781 28.894531 1.578125 29.625 C 14.289062 31.703125 24.769531 28.722656 21.46875 27.234375 Z M 8.167969 17.554688 C 8.167969 17.554688 2.371094 18.945312 6.09375 19.414062 C 7.691406 19.628906 10.828125 19.574219 13.753906 19.363281 C 15.355469 19.210938 16.945312 19 18.53125 18.726562 C 18.53125 18.726562 17.679688 19.097656 17.097656 19.46875 C 11.191406 21.011719 -0.136719 20.320312 3.105469 18.726562 C 5.871094 17.394531 8.160156 17.554688 8.160156 17.554688 Z M 18.542969 23.351562 C 24.5 20.265625 21.734375 17.277344 19.820312 17.660156 C 19.339844 17.765625 19.125 17.871094 19.125 17.871094 C 19.125 17.871094 19.285156 17.554688 19.660156 17.449219 C 23.433594 16.117188 26.414062 21.4375 18.433594 23.519531 C 18.433594 23.519531 18.488281 23.46875 18.539062 23.359375 Z M 8.765625 31.757812 C 14.511719 32.128906 23.289062 31.542969 23.5 28.828125 C 23.5 28.828125 23.074219 29.894531 18.765625 30.691406 C 13.871094 31.59375 7.808594 31.488281 4.246094 30.902344 C 4.246094 30.902344 4.988281 31.542969 8.765625 31.753906 Z M 8.765625 31.757812 "/>
<path style=" stroke:none;fill-rule:nonzero;fill:rgb(96.078432%,50.980395%,9.803922%);fill-opacity:1;" d="M 14.933594 0 C 14.933594 0 18.234375 3.351562 11.796875 8.402344 C 6.636719 12.5 10.625 14.839844 11.796875 17.5 C 8.765625 14.789062 6.585938 12.394531 8.074219 10.160156 C 10.253906 6.859375 16.265625 5.273438 14.933594 0 M 13.242188 15.265625 C 14.785156 17.019531 12.816406 18.617188 12.816406 18.617188 C 12.816406 18.617188 16.753906 16.597656 14.945312 14.09375 C 13.296875 11.703125 12.019531 10.53125 18.933594 6.542969 C 18.933594 6.542969 8.03125 9.253906 13.242188 15.265625 M 13.242188 15.265625 "/>
</g>
</svg>
