<svg role="img" viewBox="0 0 24 32" xmlns="http://www.w3.org/2000/svg"><path d="M7.594 24.629s-1.227.742.851.957c2.489.32 3.828.266 6.594-.266.559.34 1.145.625 1.758.852-6.223 2.66-14.098-.16-9.203-1.543m-.797-3.457s-1.328 1.008.746 1.223c2.71.265 4.84.32 8.512-.426a3.21 3.21 0 0 0 1.273.797C9.828 25 1.426 22.98 6.797 21.172m14.68 6.07s.906.746-1.008 1.332c-3.567 1.063-14.95 1.395-18.14 0-1.118-.48 1.01-1.172 1.694-1.277.692-.16 1.063-.16 1.063-.16-1.223-.852-8.137 1.758-3.508 2.488 12.711 2.078 23.192-.902 19.89-2.39ZM8.168 17.555s-5.797 1.39-2.074 1.86c1.597.214 4.734.16 7.66-.052a64.457 64.457 0 0 0 4.777-.636s-.851.37-1.433.742c-5.907 1.543-17.235.851-13.993-.742 2.766-1.332 5.055-1.172 5.055-1.172Zm10.375 5.797c5.957-3.086 3.191-6.075 1.277-5.692-.48.106-.695.211-.695.211s.16-.316.535-.422c3.774-1.332 6.754 3.988-1.226 6.07 0 0 .054-.05.105-.16Zm-9.777 8.406c5.746.37 14.523-.215 14.734-2.93 0 0-.426 1.067-4.734 1.863-4.895.903-10.957.797-14.52.211 0 0 .742.641 4.52.852Zm0 0" style="stroke:none;fill-rule:nonzero;fill:rgb(30.588236%,47.058824%,58.823532%);fill-opacity:1"/><path d="M14.934 0s3.3 3.352-3.137 8.402c-5.16 4.098-1.172 6.438 0 9.098-3.031-2.71-5.211-5.105-3.723-7.34 2.18-3.3 8.192-4.887 6.86-10.16m-1.692 15.266c1.543 1.754-.426 3.351-.426 3.351s3.938-2.02 2.13-4.523c-1.65-2.39-2.926-3.563 3.988-7.551 0 0-10.903 2.71-5.692 8.723m0 0" style="stroke:none;fill-rule:nonzero;fill:rgb(96.078432%,50.980395%,9.803922%);fill-opacity:1"/></svg>