<svg xmlns="http://www.w3.org/2000/svg" width="48" height="64" stroke="none" stroke-linecap="round" stroke-linejoin="round" fill="#fff" fill-rule="nonzero"><path d="M15.1872 49.2563s-2.449 1.4893 1.7023 1.9154c4.9776.6371 7.6596.5316 13.1906-.5316a19.951 19.951 0 0 0 3.5102 1.7023c-12.444 5.3201-28.1931-.3186-18.4051-3.0861zm-1.5928-6.9149s-2.66 2.0209 1.4892 2.449c5.4257.5316 9.6804.6371 17.0235-.8502.7141.7244 1.5884 1.2706 2.5524 1.5949-15.0004 4.4678-31.8087.426-21.0651-3.1917zm29.3618 12.1454s1.8078 1.4893-2.0209 2.66c-7.1279 2.1304-29.8934 2.7874-36.2768 0-2.2339-.9557 2.0209-2.3395 3.3848-2.5525 1.3838-.3186 2.1304-.3186 2.1304-.3186-2.4489-1.7023-16.2766 3.5102-7.0204 4.9776 25.4257 4.1493 46.3832-1.8079 39.787-4.7864zM16.3381 35.106s-11.5959 2.7874-4.1494 3.7232c3.1916.4261 9.4674.3186 15.319-.1055 4.7865-.4261 9.557-1.2743 9.557-1.2743s-1.7023.7447-2.873 1.4893c-11.8069 3.0862-34.469 1.7024-27.9782-1.4893 5.5311-2.66 10.1066-2.3394 10.1066-2.3394zm20.7466 11.5958c11.9144-6.1722 6.3832-12.1453 2.5524-11.3828-.9556.2131-1.3838.4261-1.3838.4261s.3187-.6371 1.0632-.8502c7.554-2.66 13.5112 7.9781-2.4488 12.1454 0 0 .1055-.1055.213-.3186zm-19.552 16.8103C29.021 64.2568 46.576 63.0862 47 57.6585c0 0-.8501 2.1304-9.4674 3.7232-9.788 1.8079-21.9154 1.5929-29.0433.4261 0 0 1.4894 1.2743 9.0434 1.7023z" fill="#4e7896"/><path d="M29.8692 0s6.5963 6.7018-6.2758 16.8083c-10.3195 8.1912-2.3395 12.8721 0 18.1922-6.0647-5.4256-10.4251-10.2141-7.4465-14.68C20.5073 13.7222 32.5293 10.5505 29.8692 0zm-3.3847 30.5326c3.086 3.5102-.8502 6.7018-.8502 6.7018s7.8725-4.0418 4.2548-9.0433c-3.2972-4.7864-5.8537-7.1279 7.978-15.106 0 0-21.8077 5.4256-11.3826 17.4475z" fill="#f58219"/></svg>