<svg xmlns="http://www.w3.org/2000/svg" width="76" height="78" stroke="#000" stroke-linecap="round" stroke-linejoin="round" fill="#fff" fill-rule="evenodd"><defs><linearGradient id="A" x1="91.85%" y1="185.57%" x2="28.30%" y2="144.24%"><stop offset="18%" stop-color="#0052cc"/><stop offset="100%" stop-color="#2684ff"/></linearGradient><linearGradient id="B" x1="8.69%" y1="-32.67%" x2="72.12%" y2="8.59%"><stop offset="18%" stop-color="#0052cc"/><stop offset="100%" stop-color="#2684ff"/></linearGradient></defs><g stroke="none" fill-rule="nonzero"><path d="M74.3001 36.7l-33.5-33.5L37.6 0h0L12.4001 25.2h0l-11.5 11.5C-.3 37.9-.3 39.9.9001 41.1l23 23L37.6 77.8l25.2001-25.2.3999-.4 11.1001-11.1c1.1999-1.2 1.1999-3.2 0-4.4zM37.5 50.4L26 38.9l11.5-11.5L49 38.9 37.5 50.4z" fill="#2684ff"/><path d="M37.5 27.4C30 19.9 29.9001 7.7 37.4001.1L12.2 25.3 25.9001 39 37.5 27.4z" fill="url(#A)"/><path d="M49.0001 38.8l-11.5 11.5a19.314 19.314 0 0 1 0 27.4h0l25.3-25.3-13.8-13.6z" fill="url(#B)"/></g></svg>