<?xml version="1.0" encoding="UTF-8"?>
<svg xmlns="http://www.w3.org/2000/svg" xmlns:xlink="http://www.w3.org/1999/xlink" width="32" height="32" viewBox="0 0 32 32" version="1.1">
<defs>
<linearGradient id="linear0" gradientUnits="userSpaceOnUse" x1="57.437801" y1="354.285614" x2="41.360199" y2="338.207886" gradientTransform="matrix(0.0490798,0,0,-0.0490798,0,32)">
<stop offset="0.18" style="stop-color:rgb(0%,32.156864%,80.000001%);stop-opacity:1;"/>
<stop offset="1" style="stop-color:rgb(14.901961%,51.764709%,100%);stop-opacity:1;"/>
</linearGradient>
<linearGradient id="linear1" gradientUnits="userSpaceOnUse" x1="61.698799" y1="308.093201" x2="77.745598" y2="324.140015" gradientTransform="matrix(0.0490798,0,0,-0.0490798,0,32)">
<stop offset="0.18" style="stop-color:rgb(0%,32.156864%,80.000001%);stop-opacity:1;"/>
<stop offset="1" style="stop-color:rgb(14.901961%,51.764709%,100%);stop-opacity:1;"/>
</linearGradient>
</defs>
<g id="surface1">
<path style=" stroke:none;fill-rule:nonzero;fill:rgb(14.509805%,21.960784%,34.509805%);fill-opacity:1;" d="M 6.585938 14.292969 L 6.984375 14.292969 L 6.984375 16.320312 C 6.984375 16.855469 6.75 17.226562 6.199219 17.226562 C 6.035156 17.230469 5.875 17.203125 5.71875 17.152344 L 5.71875 16.765625 C 5.851562 16.816406 5.988281 16.84375 6.128906 16.839844 C 6.46875 16.839844 6.585938 16.636719 6.585938 16.347656 Z M 6.585938 14.292969 "/>
<path style=" stroke:none;fill-rule:nonzero;fill:rgb(14.509805%,21.960784%,34.509805%);fill-opacity:1;" d="M 7.710938 14.136719 C 7.847656 14.125 7.964844 14.226562 7.976562 14.367188 C 7.976562 14.375 7.976562 14.390625 7.976562 14.398438 C 7.976562 14.546875 7.859375 14.664062 7.710938 14.664062 C 7.5625 14.664062 7.445312 14.546875 7.445312 14.398438 C 7.4375 14.261719 7.539062 14.144531 7.675781 14.136719 C 7.691406 14.136719 7.699219 14.136719 7.710938 14.136719 Z M 7.519531 14.988281 L 7.902344 14.988281 L 7.902344 17.207031 L 7.519531 17.207031 Z M 7.519531 14.988281 "/>
<path style=" stroke:none;fill-rule:nonzero;fill:rgb(14.509805%,21.960784%,34.509805%);fill-opacity:1;" d="M 8.476562 14.988281 L 8.847656 14.988281 L 8.847656 15.382812 C 8.976562 15.121094 9.203125 14.933594 9.632812 14.960938 L 9.632812 15.332031 C 9.144531 15.285156 8.847656 15.429688 8.847656 15.902344 L 8.847656 17.210938 L 8.476562 17.210938 Z M 8.476562 14.988281 "/>
<path style=" stroke:none;fill-rule:nonzero;fill:rgb(14.509805%,21.960784%,34.509805%);fill-opacity:1;" d="M 11.425781 16.808594 C 11.285156 17.105469 11.019531 17.25 10.675781 17.25 C 10.085938 17.25 9.785156 16.75 9.785156 16.097656 C 9.785156 15.46875 10.097656 14.945312 10.71875 14.945312 C 11.042969 14.945312 11.292969 15.09375 11.425781 15.382812 L 11.425781 14.988281 L 11.808594 14.988281 L 11.808594 17.207031 L 11.425781 17.207031 Z M 10.777344 16.898438 C 11.121094 16.898438 11.425781 16.683594 11.425781 16.1875 L 11.425781 16.003906 C 11.425781 15.515625 11.144531 15.292969 10.820312 15.292969 C 10.390625 15.292969 10.167969 15.578125 10.167969 16.09375 C 10.167969 16.628906 10.378906 16.898438 10.777344 16.898438 Z M 10.777344 16.898438 "/>
<path style=" stroke:none;fill-rule:nonzero;fill:rgb(14.509805%,21.960784%,34.509805%);fill-opacity:1;" d="M 14.066406 17.25 C 13.5 17.25 13.242188 17.136719 13.015625 17.027344 L 13.015625 16.617188 C 13.285156 16.761719 13.703125 16.863281 14.089844 16.863281 C 14.53125 16.863281 14.695312 16.691406 14.695312 16.433594 C 14.695312 16.171875 14.53125 16.039062 13.976562 15.902344 C 13.320312 15.738281 13.027344 15.515625 13.027344 15.039062 C 13.027344 14.582031 13.375 14.246094 14.050781 14.246094 C 14.472656 14.246094 14.742188 14.351562 14.945312 14.457031 L 14.945312 14.855469 C 14.664062 14.703125 14.355469 14.625 14.035156 14.636719 C 13.652344 14.636719 13.429688 14.769531 13.429688 15.03125 C 13.429688 15.273438 13.613281 15.390625 14.128906 15.523438 C 14.75 15.679688 15.09375 15.878906 15.09375 16.402344 C 15.09375 16.90625 14.789062 17.25 14.066406 17.25 Z M 14.066406 17.25 "/>
<path style=" stroke:none;fill-rule:nonzero;fill:rgb(14.509805%,21.960784%,34.509805%);fill-opacity:1;" d="M 15.429688 16.09375 C 15.429688 15.425781 15.824219 14.945312 16.484375 14.945312 C 17.152344 14.945312 17.535156 15.429688 17.535156 16.09375 C 17.535156 16.753906 17.148438 17.25 16.484375 17.25 C 15.824219 17.25 15.429688 16.761719 15.429688 16.09375 Z M 15.804688 16.09375 C 15.804688 16.515625 16.015625 16.898438 16.484375 16.898438 C 16.957031 16.898438 17.164062 16.515625 17.164062 16.09375 C 17.164062 15.671875 16.957031 15.304688 16.484375 15.304688 C 16.015625 15.304688 15.804688 15.671875 15.804688 16.09375 Z M 15.804688 16.09375 "/>
<path style=" stroke:none;fill-rule:nonzero;fill:rgb(14.509805%,21.960784%,34.509805%);fill-opacity:1;" d="M 18.507812 14.988281 L 19.082031 14.988281 L 19.082031 15.34375 L 18.507812 15.34375 L 18.507812 17.207031 L 18.136719 17.207031 L 18.136719 15.34375 L 17.773438 15.34375 L 17.773438 14.988281 L 18.128906 14.988281 L 18.128906 14.75 C 18.128906 14.335938 18.359375 14.054688 18.835938 14.054688 C 18.925781 14.054688 19.007812 14.066406 19.09375 14.089844 L 19.09375 14.445312 C 19.011719 14.429688 18.933594 14.417969 18.851562 14.417969 C 18.617188 14.417969 18.5 14.558594 18.5 14.757812 Z M 18.507812 14.988281 "/>
<path style=" stroke:none;fill-rule:nonzero;fill:rgb(14.509805%,21.960784%,34.509805%);fill-opacity:1;" d="M 20.367188 16.835938 C 20.445312 16.835938 20.53125 16.820312 20.609375 16.804688 L 20.609375 17.171875 C 20.523438 17.199219 20.4375 17.207031 20.351562 17.207031 C 19.878906 17.207031 19.648438 16.925781 19.648438 16.515625 L 19.648438 15.34375 L 19.285156 15.34375 L 19.285156 14.988281 L 19.640625 14.988281 L 19.640625 14.519531 L 20.015625 14.519531 L 20.015625 14.988281 L 20.605469 14.988281 L 20.605469 15.34375 L 20.015625 15.34375 L 20.015625 16.503906 C 20.019531 16.703125 20.136719 16.835938 20.367188 16.835938 Z M 20.367188 16.835938 "/>
<path style=" stroke:none;fill-rule:nonzero;fill:rgb(14.509805%,21.960784%,34.509805%);fill-opacity:1;" d="M 20.714844 14.988281 L 21.136719 14.988281 L 21.777344 16.875 L 22.425781 14.988281 L 22.789062 14.988281 L 23.4375 16.875 L 24.074219 14.988281 L 24.496094 14.988281 L 23.679688 17.207031 L 23.191406 17.207031 L 22.808594 16.132812 L 22.605469 15.449219 L 22.40625 16.132812 L 22.015625 17.207031 L 21.527344 17.207031 Z M 20.714844 14.988281 "/>
<path style=" stroke:none;fill-rule:nonzero;fill:rgb(14.509805%,21.960784%,34.509805%);fill-opacity:1;" d="M 26.242188 16.808594 C 26.101562 17.105469 25.835938 17.25 25.492188 17.25 C 24.902344 17.25 24.605469 16.75 24.605469 16.097656 C 24.605469 15.46875 24.914062 14.945312 25.535156 14.945312 C 25.859375 14.945312 26.109375 15.09375 26.242188 15.382812 L 26.242188 14.988281 L 26.625 14.988281 L 26.625 17.207031 L 26.242188 17.207031 Z M 25.59375 16.898438 C 25.9375 16.898438 26.242188 16.683594 26.242188 16.1875 L 26.242188 16.003906 C 26.242188 15.515625 25.964844 15.292969 25.640625 15.292969 C 25.210938 15.296875 24.988281 15.578125 24.988281 16.09375 C 24.988281 16.628906 25.203125 16.898438 25.59375 16.898438 Z M 25.59375 16.898438 "/>
<path style=" stroke:none;fill-rule:nonzero;fill:rgb(14.509805%,21.960784%,34.509805%);fill-opacity:1;" d="M 27.203125 14.988281 L 27.578125 14.988281 L 27.578125 15.382812 C 27.707031 15.121094 27.929688 14.933594 28.363281 14.960938 L 28.363281 15.332031 C 27.871094 15.285156 27.578125 15.429688 27.578125 15.902344 L 27.578125 17.210938 L 27.203125 17.210938 Z M 27.203125 14.988281 "/>
<path style=" stroke:none;fill-rule:nonzero;fill:rgb(14.509805%,21.960784%,34.509805%);fill-opacity:1;" d="M 29.707031 17.25 C 28.878906 17.25 28.515625 16.769531 28.515625 16.09375 C 28.515625 15.421875 28.886719 14.945312 29.566406 14.945312 C 30.246094 14.945312 30.523438 15.421875 30.523438 16.09375 L 30.523438 16.265625 L 28.902344 16.265625 C 28.957031 16.644531 29.203125 16.886719 29.722656 16.886719 C 29.953125 16.886719 30.179688 16.847656 30.398438 16.769531 L 30.398438 17.125 C 30.214844 17.21875 29.933594 17.25 29.707031 17.25 Z M 28.894531 15.941406 L 30.136719 15.941406 C 30.109375 15.527344 29.925781 15.292969 29.546875 15.292969 C 29.136719 15.289062 28.933594 15.554688 28.894531 15.941406 Z M 28.894531 15.941406 "/>
<path style=" stroke:none;fill-rule:nonzero;fill:rgb(14.901961%,51.764709%,100%);fill-opacity:1;" d="M 4.726562 15.640625 L 2.925781 13.839844 L 1.125 15.640625 C 1.066406 15.699219 1.066406 15.796875 1.125 15.859375 L 2.925781 17.660156 L 4.160156 16.421875 L 4.179688 16.402344 L 4.726562 15.859375 C 4.785156 15.796875 4.785156 15.699219 4.726562 15.640625 Z M 2.921875 16.3125 L 2.355469 15.75 L 2.921875 15.183594 L 3.484375 15.75 Z M 2.921875 16.3125 "/>
<path style=" stroke:none;fill-rule:nonzero;fill:url(#linear0);" d="M 2.921875 15.183594 C 2.550781 14.816406 2.546875 14.21875 2.914062 13.84375 L 1.679688 15.082031 L 2.351562 15.753906 Z M 2.921875 15.183594 "/>
<path style=" stroke:none;fill-rule:nonzero;fill:url(#linear1);" d="M 3.484375 15.746094 L 2.921875 16.308594 C 3.292969 16.683594 3.292969 17.28125 2.921875 17.652344 L 4.160156 16.414062 Z M 3.484375 15.746094 "/>
</g>
</svg>
