<?xml version="1.0" encoding="utf-8"?>
<!-- Generator: Adobe Illustrator 19.2.1, SVG Export Plug-In . SVG Version: 6.00 Build 0)  -->
<svg version="1.1" id="layer" xmlns="http://www.w3.org/2000/svg" xmlns:xlink="http://www.w3.org/1999/xlink" x="0px" y="0px"
	 viewBox="0 0 652 652" style="enable-background:new 0 0 652 652;" xml:space="preserve">
<style type="text/css">
	.st0{fill:#253858;}
	.st1{fill:#2684FF;}
	.st2{fill:url(#SVGID_1_);}
	.st3{fill:url(#SVGID_2_);}
</style>
<g id="Layer_2">
	<g id="Blue">
		<path class="st0" d="M134.2,291.2h8.1v41.3c0,10.9-4.8,18.5-16,18.5c-3.3,0.1-6.6-0.5-9.8-1.5v-7.9c2.7,1,5.5,1.6,8.4,1.5
			c6.9,0,9.3-4.1,9.3-10L134.2,291.2z"/>
		<path class="st0" d="M157.1,288c2.8-0.2,5.2,1.9,5.4,4.7c0,0.2,0,0.5,0,0.7c0,3-2.4,5.4-5.4,5.4c-3,0-5.4-2.4-5.4-5.4c0,0,0,0,0,0
			c-0.2-2.8,1.9-5.2,4.7-5.4C156.7,288,156.9,288,157.1,288z M153.2,305.4h7.8v45.2h-7.8V305.4z"/>
		<path class="st0" d="M172.7,305.4h7.6v8c2.6-5.3,7.2-9.1,16-8.6v7.6c-10-1-16,2-16,11.6v26.7h-7.6V305.4z"/>
		<path class="st0" d="M232.8,342.5c-2.9,6-8.3,9-15.3,9c-12,0-18.1-10.2-18.1-23.5c0-12.8,6.3-23.5,19-23.5c6.6,0,11.7,3,14.4,8.9
			v-8h7.8v45.2h-7.8L232.8,342.5z M219.6,344.3c7,0,13.2-4.4,13.2-14.5v-3.7c0-10-5.7-14.5-12.3-14.5c-8.8,0-13.3,5.8-13.3,16.3
			C207.2,338.8,211.5,344.3,219.6,344.3L219.6,344.3z"/>
		<path class="st0" d="M286.6,351.5c-11.5,0-16.8-2.3-21.4-4.6v-8.3c5.5,2.9,14,5,21.9,5c9,0,12.3-3.5,12.3-8.8s-3.3-8-14.6-10.8
			c-13.4-3.3-19.4-7.9-19.4-17.6c0-9.3,7.1-16.1,20.9-16.1c8.6,0,14.1,2.1,18.2,4.3v8.1c-5.7-3.1-12-4.7-18.5-4.5
			c-7.8,0-12.4,2.7-12.4,8.1c0,4.9,3.8,7.3,14.3,10c12.6,3.2,19.6,7.2,19.6,17.9C307.5,344.5,301.3,351.5,286.6,351.5z"/>
		<path class="st0" d="M314.4,327.9c0-13.6,8-23.4,21.5-23.4c13.6,0,21.4,9.9,21.4,23.4s-7.9,23.6-21.4,23.6
			S314.4,341.5,314.4,327.9z M322,327.9c0,8.6,4.3,16.4,13.9,16.4s13.8-7.8,13.8-16.4s-4.2-16.1-13.8-16.1S322,319.3,322,327.9
			L322,327.9z"/>
		<path class="st0" d="M377.1,305.4h11.7v7.2h-11.7v38h-7.6v-38h-7.4v-7.2h7.3v-4.9c0-8.4,4.7-14.1,14.4-14.1c1.8,0,3.5,0.2,5.2,0.7
			v7.2c-1.6-0.3-3.2-0.5-4.9-0.5c-4.8,0-7.2,2.8-7.2,6.9L377.1,305.4z"/>
		<path class="st0" d="M415,343c1.6,0,3.3-0.3,4.9-0.6v7.5c-1.7,0.5-3.5,0.7-5.2,0.7c-9.7,0-14.4-5.7-14.4-14.1v-23.9h-7.4v-7.2h7.3
			v-9.6h7.6v9.6h12v7.2h-12v23.7C407.9,340.3,410.3,343,415,343z"/>
		<path class="st0" d="M422.1,305.4h8.6l13,38.4l13.2-38.4h7.4l13.2,38.4l13-38.4h8.6l-16.6,45.2h-10l-7.8-21.9l-4.1-13.9l-4.1,13.9
			l-7.9,21.9h-10L422.1,305.4z"/>
		<path class="st0" d="M534.7,342.5c-2.9,6-8.3,9-15.3,9c-12,0-18.1-10.2-18.1-23.5c0-12.8,6.3-23.5,19-23.5c6.6,0,11.7,3,14.4,8.9
			v-8h7.8v45.2h-7.8L534.7,342.5z M521.5,344.3c7,0,13.2-4.4,13.2-14.5v-3.7c0-10-5.7-14.5-12.3-14.5c-8.7,0.1-13.3,5.8-13.3,16.3
			C509.1,338.8,513.5,344.3,521.5,344.3L521.5,344.3z"/>
		<path class="st0" d="M554.3,305.4h7.6v8c2.6-5.3,7.2-9.1,16-8.6v7.6c-10-1-16,2-16,11.6v26.7h-7.6V305.4z"/>
		<path class="st0" d="M605.3,351.5c-16.9,0-24.3-9.8-24.3-23.6c0-13.7,7.6-23.4,21.4-23.4c13.9,0,19.5,9.7,19.5,23.4v3.5h-33
			c1.1,7.7,6.1,12.7,16.7,12.7c4.7,0,9.3-0.8,13.8-2.4v7.2C615.6,350.8,609.9,351.5,605.3,351.5z M588.7,324.8H614
			c-0.5-8.4-4.3-13.2-12-13.2C593.7,311.5,589.5,316.9,588.7,324.8L588.7,324.8z"/>
		<path class="st1" d="M96.3,318.7l-33.5-33.5l-3.2-3.2l0,0l-25.2,25.2l0,0l-11.5,11.5c-1.2,1.2-1.2,3.2,0,4.4l23,23l13.7,13.7
			l25.2-25.2l0.4-0.4l11.1-11.1C97.5,321.9,97.5,319.9,96.3,318.7z M59.5,332.4L48,320.9l11.5-11.5L71,320.9L59.5,332.4z"/>
		
			<linearGradient id="SVGID_1_" gradientUnits="userSpaceOnUse" x1="57.4378" y1="354.2856" x2="41.3602" y2="338.2079" gradientTransform="matrix(1 0 0 -1 0 652)">
			<stop  offset="0.18" style="stop-color:#0052CC"/>
			<stop  offset="1" style="stop-color:#2684FF"/>
		</linearGradient>
		<path class="st2" d="M59.5,309.4c-7.5-7.5-7.6-19.7-0.1-27.3l-25.2,25.2l13.7,13.7L59.5,309.4z"/>
		
			<linearGradient id="SVGID_2_" gradientUnits="userSpaceOnUse" x1="61.6988" y1="308.0932" x2="77.7456" y2="324.14" gradientTransform="matrix(1 0 0 -1 0 652)">
			<stop  offset="0.18" style="stop-color:#0052CC"/>
			<stop  offset="1" style="stop-color:#2684FF"/>
		</linearGradient>
		<path class="st3" d="M71,320.8l-11.5,11.5c7.6,7.6,7.6,19.8,0,27.4c0,0,0,0,0,0l0,0l25.3-25.3L71,320.8z"/>
	</g>
</g>
</svg>
