<svg role="img" viewBox="0 0 31.179 32" xmlns="http://www.w3.org/2000/svg" xmlns:xlink="http://www.w3.org/1999/xlink"><defs><linearGradient gradientTransform="matrix(10.3789 0 0 15.95703 5.004 .043)" gradientUnits="userSpaceOnUse" id="a" x1=".918" x2=".283" y1="1.856" y2="1.442"><stop offset=".18" style="stop-color:rgb(0%,32.156864%,80.000001%);stop-opacity:1"/><stop offset="1" style="stop-color:rgb(14.901961%,51.764709%,100%);stop-opacity:1"/></linearGradient><linearGradient gradientTransform="matrix(10.38281 0 0 15.95703 15.383 15.918)" gradientUnits="userSpaceOnUse" id="b" x1=".087" x2=".721" y1="-.327" y2=".086"><stop offset=".18" style="stop-color:rgb(0%,32.156864%,80.000001%);stop-opacity:1"/><stop offset="1" style="stop-color:rgb(14.901961%,51.764709%,100%);stop-opacity:1"/></linearGradient></defs><path d="M30.48 15.055 15.426 0 .37 15.055a1.285 1.285 0 0 0 0 1.808l15.055 15.055L30.48 16.863a1.292 1.292 0 0 0 0-1.808m-15.097 5.62-4.715-4.718 4.715-4.715 4.719 4.715Zm0 0" style="stroke:none;fill-rule:nonzero;fill:rgb(14.901961%,51.764709%,100%);fill-opacity:1"/><path d="M15.383 11.242c-3.074-3.078-3.117-8.082-.04-11.199L5.004 10.379 10.626 16Zm0 0" style="stroke:none;fill-rule:nonzero;fill:url(#a)"/><path d="m20.102 15.918-4.72 4.719a7.91 7.91 0 0 1 2.34 5.62 7.9 7.9 0 0 1-2.34 5.618l10.384-10.379Zm0 0" style="stroke:none;fill-rule:nonzero;fill:url(#b)"/></svg>