<?xml version="1.0" encoding="UTF-8"?>
<svg xmlns="http://www.w3.org/2000/svg" xmlns:xlink="http://www.w3.org/1999/xlink" width="31.179487" height="32" viewBox="0 0 31.179487 32" version="1.1">
<defs>
<linearGradient id="linear0" gradientUnits="userSpaceOnUse" x1="0.9185" y1="1.8557" x2="0.283" y2="1.4424" gradientTransform="matrix(10.378906,0,0,15.957031,5.003906,0.0429688)">
<stop offset="0.18" style="stop-color:rgb(0%,32.156864%,80.000001%);stop-opacity:1;"/>
<stop offset="1" style="stop-color:rgb(14.901961%,51.764709%,100%);stop-opacity:1;"/>
</linearGradient>
<linearGradient id="linear1" gradientUnits="userSpaceOnUse" x1="0.0869" y1="-0.3267" x2="0.7212" y2="0.0859" gradientTransform="matrix(10.382812,0,0,15.957031,15.382812,15.917969)">
<stop offset="0.18" style="stop-color:rgb(0%,32.156864%,80.000001%);stop-opacity:1;"/>
<stop offset="1" style="stop-color:rgb(14.901961%,51.764709%,100%);stop-opacity:1;"/>
</linearGradient>
</defs>
<g id="surface1">
<path style=" stroke:none;fill-rule:nonzero;fill:rgb(14.901961%,51.764709%,100%);fill-opacity:1;" d="M 30.480469 15.054688 L 15.425781 0 L 0.371094 15.054688 C -0.125 15.546875 -0.125 16.371094 0.371094 16.863281 L 15.425781 31.917969 L 30.480469 16.863281 C 30.972656 16.371094 30.972656 15.546875 30.480469 15.054688 Z M 15.382812 20.675781 L 10.667969 15.957031 L 15.382812 11.242188 L 20.101562 15.957031 Z M 15.382812 20.675781 "/>
<path style=" stroke:none;fill-rule:nonzero;fill:url(#linear0);" d="M 15.382812 11.242188 C 12.308594 8.164062 12.265625 3.160156 15.34375 0.0429688 L 5.003906 10.378906 L 10.625 16 Z M 15.382812 11.242188 "/>
<path style=" stroke:none;fill-rule:nonzero;fill:url(#linear1);" d="M 20.101562 15.917969 L 15.382812 20.636719 C 16.882812 22.125 17.722656 24.144531 17.722656 26.257812 C 17.722656 28.367188 16.882812 30.390625 15.382812 31.875 L 25.765625 21.496094 Z M 20.101562 15.917969 "/>
</g>
</svg>
