<svg role="img" viewBox="0 0 26 32" xmlns="http://www.w3.org/2000/svg"><path d="M13 14.516A3.488 3.488 0 0 0 9.516 18 3.488 3.488 0 0 0 13 21.484 3.488 3.488 0 0 0 16.484 18a3.38 3.38 0 0 0-.093-.773C18.94 14.262 22.89 9.637 25 7c.723-.902-.07-1.758-1-1-2.664 2.168-7.258 6.086-10.215 8.613a3.485 3.485 0 0 0-.785-.097m.996-6.52c0-.55-.45-1-1-1s-1 .45-1 1 .45 1 1 1 1-.45 1-1m6 8c0 .55.45 1 1 1s1-.45 1-1-.45-1-1-1-1 .45-1 1m-11-8c-.55 0-1 .45-1 1s.45 1 1 1 1-.45 1-1-.45-1-1-1m-2 4c0-.55-.45-1-1-1s-1 .45-1 1 .45 1 1 1 1-.45 1-1m-3 4c0 .55.45 1 1 1s1-.45 1-1-.45-1-1-1-1 .45-1 1m14-7c0-.55-.45-1-1-1s-1 .45-1 1 .45 1 1 1 1-.45 1-1m6.781 1.527-2.148 2.809c.234.848.371 1.742.371 2.668 0 5.523-4.477 10-10 10S3 21.523 3 16 7.477 6 13 6c2.059 0 3.969.625 5.559 1.691l2.476-1.894A12.915 12.915 0 0 0 13 3C5.82 3 0 8.82 0 16s5.82 13 13 13 13-5.82 13-13c0-1.96-.445-3.812-1.223-5.477m0 0" style="stroke:none;fill-rule:nonzero;fill:rgb(0%,0%,0%);fill-opacity:1"/></svg>