<?xml version="1.0" encoding="UTF-8"?>
<svg xmlns="http://www.w3.org/2000/svg" xmlns:xlink="http://www.w3.org/1999/xlink" width="26" height="32" viewBox="0 0 26 32" version="1.1">
<g id="surface1">
<path style=" stroke:none;fill-rule:nonzero;fill:rgb(0%,0%,0%);fill-opacity:1;" d="M 13 14.515625 C 11.078125 14.519531 9.519531 16.078125 9.515625 18 C 9.519531 19.921875 11.078125 21.480469 13 21.484375 C 14.921875 21.480469 16.480469 19.921875 16.484375 18 C 16.484375 17.738281 16.453125 17.480469 16.390625 17.226562 C 18.941406 14.261719 22.890625 9.636719 25 7 C 25.722656 6.097656 24.929688 5.242188 24 6 C 21.335938 8.167969 16.742188 12.085938 13.785156 14.613281 C 13.527344 14.550781 13.265625 14.519531 13 14.515625 M 13.996094 7.996094 C 13.996094 7.445312 13.546875 6.996094 12.996094 6.996094 C 12.445312 6.996094 11.996094 7.445312 11.996094 7.996094 C 11.996094 8.546875 12.445312 8.996094 12.996094 8.996094 C 13.546875 8.996094 13.996094 8.546875 13.996094 7.996094 M 19.996094 15.996094 C 19.996094 16.546875 20.445312 16.996094 20.996094 16.996094 C 21.546875 16.996094 21.996094 16.546875 21.996094 15.996094 C 21.996094 15.445312 21.546875 14.996094 20.996094 14.996094 C 20.445312 14.996094 19.996094 15.445312 19.996094 15.996094 M 8.996094 7.996094 C 8.445312 7.996094 7.996094 8.445312 7.996094 8.996094 C 7.996094 9.546875 8.445312 9.996094 8.996094 9.996094 C 9.546875 9.996094 9.996094 9.546875 9.996094 8.996094 C 9.996094 8.445312 9.546875 7.996094 8.996094 7.996094 M 6.996094 11.996094 C 6.996094 11.445312 6.546875 10.996094 5.996094 10.996094 C 5.445312 10.996094 4.996094 11.445312 4.996094 11.996094 C 4.996094 12.546875 5.445312 12.996094 5.996094 12.996094 C 6.546875 12.996094 6.996094 12.546875 6.996094 11.996094 M 3.996094 15.996094 C 3.996094 16.546875 4.445312 16.996094 4.996094 16.996094 C 5.546875 16.996094 5.996094 16.546875 5.996094 15.996094 C 5.996094 15.445312 5.546875 14.996094 4.996094 14.996094 C 4.445312 14.996094 3.996094 15.445312 3.996094 15.996094 M 17.996094 8.996094 C 17.996094 8.445312 17.546875 7.996094 16.996094 7.996094 C 16.445312 7.996094 15.996094 8.445312 15.996094 8.996094 C 15.996094 9.546875 16.445312 9.996094 16.996094 9.996094 C 17.546875 9.996094 17.996094 9.546875 17.996094 8.996094 M 24.777344 10.523438 L 22.628906 13.332031 C 22.863281 14.179688 23 15.074219 23 16 C 23 21.523438 18.523438 26 13 26 C 7.476562 26 3 21.523438 3 16 C 3 10.476562 7.476562 6 13 6 C 15.058594 6 16.96875 6.625 18.558594 7.691406 L 21.035156 5.796875 C 18.75 3.984375 15.917969 3 13 3 C 5.820312 3 0 8.820312 0 16 C 0 23.179688 5.820312 29 13 29 C 20.179688 29 26 23.179688 26 16 C 26 14.039062 25.554688 12.1875 24.777344 10.523438 M 24.777344 10.523438 "/>
</g>
</svg>
