<svg xmlns:xlink="http://www.w3.org/1999/xlink" role="img" viewBox="0 0 23.04 32" xmlns="http://www.w3.org/2000/svg"><defs><linearGradient gradientTransform="translate(0 2)" gradientUnits="userSpaceOnUse" id="e" x1="36" x2="36" y1="97" y2="-1"><stop offset="0" style="stop-color:rgb(78.431374%,83.137256%,85.882354%);stop-opacity:1"/><stop offset=".139" style="stop-color:rgb(84.705883%,88.235295%,90.196079%);stop-opacity:1"/><stop offset=".359" style="stop-color:rgb(92.156863%,94.117647%,95.294118%);stop-opacity:1"/><stop offset=".617" style="stop-color:rgb(97.647059%,98.039216%,98.431373%);stop-opacity:1"/><stop offset="1" style="stop-color:rgb(100%,100%,100%);stop-opacity:1"/></linearGradient><linearGradient gradientTransform="scale(.32)" gradientUnits="userSpaceOnUse" id="c" x1="21.45" x2="21.45" y1="61.55" y2="21.95"><stop offset="0" style="stop-color:rgb(67.843139%,80.000001%,86.274511%);stop-opacity:1"/><stop offset="1" style="stop-color:rgb(29.803923%,42.352942%,48.235294%);stop-opacity:1"/></linearGradient><linearGradient gradientTransform="scale(.32)" gradientUnits="userSpaceOnUse" id="d" x1="51.7" x2="51.7" y1="61.45" y2="21.95"><stop offset="0" style="stop-color:rgb(67.843139%,80.000001%,86.274511%);stop-opacity:1"/><stop offset="1" style="stop-color:rgb(29.803923%,42.352942%,48.235294%);stop-opacity:1"/></linearGradient><linearGradient gradientTransform="translate(0 2)" gradientUnits="userSpaceOnUse" id="h" x1="45.037" x2="58.537" y1="25.813" y2="12.313"><stop offset="0" style="stop-color:rgb(100%,100%,100%);stop-opacity:1"/><stop offset=".35" style="stop-color:rgb(98.039216%,98.431373%,98.431373%);stop-opacity:1"/><stop offset=".532" style="stop-color:rgb(92.941177%,94.509804%,95.686275%);stop-opacity:1"/><stop offset=".675" style="stop-color:rgb(86.666667%,89.803922%,91.37255%);stop-opacity:1"/><stop offset=".799" style="stop-color:rgb(78.039217%,82.745099%,85.490197%);stop-opacity:1"/><stop offset=".908" style="stop-color:rgb(67.843139%,74.117649%,78.039217%);stop-opacity:1"/><stop offset="1" style="stop-color:rgb(57.254905%,64.705884%,69.01961%);stop-opacity:1"/></linearGradient><clipPath id="b"><path d="M0 0h24v32H0z"/></clipPath><filter filterUnits="objectBoundingBox" height="100%" id="a" width="100%" x="0%" y="0%"><feColorMatrix in="SourceGraphic" values="0 0 0 0 1 0 0 0 0 1 0 0 0 0 1 0 0 0 1 0"/></filter><mask id="g"><g filter="url(#a)"><path d="M0 0h23.04v32H0z" style="fill:rgb(0%,0%,0%);fill-opacity:0.95;stroke:none"/></g></mask><g clip-path="url(#b)" id="f"><path d="M4.61 14.113v-1.57c.32-.031.574-.063.734-.16.16-.063.289-.223.418-.383.125-.191.191-.414.254-.703.03-.227.062-.578.062-1.09 0-.863.035-1.437.129-1.793.066-.316.227-.605.418-.797.191-.191.512-.351.895-.48.257-.067.671-.13 1.25-.13h.351v1.567c-.48 0-.8.035-.93.098a.803.803 0 0 0-.32.258c-.062.093-.094.285-.094.574s-.035.8-.066 1.566c-.031.45-.063.801-.16 1.09-.094.254-.223.48-.352.672-.129.16-.351.352-.64.543.257.16.48.32.64.512.16.191.29.449.387.738.094.285.156.672.156 1.152.035.735.035 1.184.035 1.407 0 .289.032.48.094.609.066.129.191.191.32.254.13.066.45.098.93.098v1.566H8.77c-.579 0-1.06-.031-1.344-.125a1.876 1.876 0 0 1-.801-.48c-.227-.227-.352-.481-.45-.801-.062-.32-.097-.832-.097-1.535 0-.801-.031-1.344-.094-1.57-.097-.352-.257-.606-.449-.766-.223-.196-.512-.32-.926-.32m0 0" style="stroke:none;fill-rule:nonzero;fill:url(#c)"/><path d="M18.785 14.113c-.32.032-.578.063-.738.16-.16.063-.285.223-.414.383-.13.192-.192.414-.258.703a8.052 8.052 0 0 0-.062 1.09c0 .863-.032 1.438-.13 1.79a1.452 1.452 0 0 1-.413.8c-.196.191-.512.352-.899.48-.254.067-.672.13-1.246.13h-.352v-1.57c.48 0 .766-.032.926-.095a.647.647 0 0 0 .32-.257c.067-.094.098-.286.098-.575 0-.257.031-.77.063-1.535.03-.449.097-.832.191-1.09.098-.289.227-.511.387-.703a2.42 2.42 0 0 1 .605-.511c-.32-.223-.574-.418-.703-.61a2.818 2.818 0 0 1-.418-1.086c-.062-.32-.094-.992-.094-2.015 0-.32-.03-.547-.097-.672a.736.736 0 0 0-.285-.258c-.13-.063-.45-.098-.961-.098V7.04h.351c.574 0 1.055.031 1.344.129a1.9 1.9 0 0 1 .8.48c.223.223.352.48.446.801.067.32.129.832.129 1.535 0 .801.031 1.313.098 1.567.093.351.254.61.449.738.191.16.512.223.894.254Zm0 0" style="stroke:none;fill-rule:nonzero;fill:url(#d)"/></g></defs><path d="m44.995 1.001 27.002 26.697v71.301H0V1.001Zm0 0" style="fill-rule:nonzero;fill:url(#e);stroke-width:2;stroke-linecap:butt;stroke-linejoin:miter;stroke:rgb(44.313726%,56.862748%,63.137257%);stroke-opacity:1;stroke-miterlimit:4" transform="scale(.32)"/><use xlink:href="#f" mask="url(#g)"/><path d="m44.995 1.001 27.002 26.697H44.995Zm0 0" style="fill-rule:nonzero;fill:url(#h);stroke-width:2;stroke-linecap:butt;stroke-linejoin:bevel;stroke:rgb(44.313726%,56.862748%,63.137257%);stroke-opacity:1;stroke-miterlimit:4" transform="scale(.32)"/><path d="M8.992 22.879h1.281v4.066c0 .543-.035.926-.128 1.215a1.72 1.72 0 0 1-.672.895c-.32.226-.77.351-1.313.351-.64 0-1.12-.191-1.473-.543-.351-.351-.511-.863-.511-1.566l1.215-.129c0 .352.066.64.16.77.129.222.351.351.64.351.29 0 .48-.098.61-.258.129-.16.191-.511.191-1.023Zm2.367 4.32 1.25-.129c.063.418.223.739.446.93.226.191.547.29.93.29.413 0 .734-.099.925-.259.227-.191.32-.383.32-.605 0-.16-.03-.29-.125-.387a1.61 1.61 0 0 0-.48-.285c-.16-.067-.512-.16-1.023-.29-.707-.16-1.188-.386-1.473-.64-.387-.351-.578-.77-.578-1.281 0-.32.097-.64.289-.926.191-.289.45-.512.8-.64.352-.16.766-.223 1.247-.223.8 0 1.41.191 1.824.543.418.351.61.832.64 1.406l-1.28.067c-.063-.32-.16-.579-.352-.707-.192-.16-.446-.223-.832-.223-.383 0-.672.062-.895.223a.46.46 0 0 0-.191.386c0 .16.062.285.191.383.16.129.574.29 1.184.414.61.129 1.09.29 1.41.45.316.16.543.382.703.64.16.258.254.61.254 1.023 0 .352-.094.703-.32 1.024-.192.32-.48.547-.864.707-.382.156-.832.223-1.406.223-.8 0-1.441-.192-1.855-.579-.418-.254-.672-.797-.739-1.535m0 0" style="stroke:none;fill-rule:nonzero;fill:rgb(29.803923%,42.352942%,48.235294%);fill-opacity:1"/></svg>