<svg role="img" viewBox="0 0 32 32" xmlns="http://www.w3.org/2000/svg"><path d="M31 11v10h-2l-2-6v6h-2V11h2l2 6v-6Zm-9.668 10h-2.664A1.667 1.667 0 0 1 17 19.332v-6.664c0-.922.746-1.668 1.668-1.668h2.664c.922 0 1.668.746 1.668 1.668v6.664c0 .922-.746 1.668-1.668 1.668M19 19h2v-6h-2Zm-5.668 2H9v-2h4v-2h-2a2 2 0 0 1-2-2v-2.332C9 11.746 9.746 11 10.668 11H15v2h-4v2h2a2 2 0 0 1 2 2v2.332c0 .922-.746 1.668-1.668 1.668m-8 0H2.668A1.667 1.667 0 0 1 1 19.332V17h2v2h2v-8h2v8.332C7 20.254 6.254 21 5.332 21m0 0" style="stroke:none;fill-rule:nonzero;fill:rgb(0%,0%,0%);fill-opacity:1"/></svg>