<?xml version="1.0" encoding="UTF-8"?>
<svg xmlns="http://www.w3.org/2000/svg" xmlns:xlink="http://www.w3.org/1999/xlink" width="32" height="32" viewBox="0 0 32 32" version="1.1">
<g id="surface1">
<path style=" stroke:none;fill-rule:nonzero;fill:rgb(0%,0%,0%);fill-opacity:1;" d="M 31 11 L 31 21 L 29 21 L 27 15 L 27 21 L 25 21 L 25 11 L 27 11 L 29 17 L 29 11 Z M 21.332031 21 L 18.667969 21 C 18.226562 21 17.800781 20.824219 17.488281 20.511719 C 17.175781 20.199219 17 19.773438 17 19.332031 L 17 12.667969 C 17 11.746094 17.746094 11 18.667969 11 L 21.332031 11 C 22.253906 11 23 11.746094 23 12.667969 L 23 19.332031 C 23 20.253906 22.253906 21 21.332031 21 M 19 19 L 21 19 L 21 13 L 19 13 Z M 13.332031 21 L 9 21 L 9 19 L 13 19 L 13 17 L 11 17 C 9.894531 17 9 16.105469 9 15 L 9 12.667969 C 9 11.746094 9.746094 11 10.667969 11 L 15 11 L 15 13 L 11 13 L 11 15 L 13 15 C 14.105469 15 15 15.894531 15 17 L 15 19.332031 C 15 20.253906 14.253906 21 13.332031 21 M 5.332031 21 L 2.667969 21 C 2.226562 21 1.800781 20.824219 1.488281 20.511719 C 1.175781 20.199219 1 19.773438 1 19.332031 L 1 17 L 3 17 L 3 19 L 5 19 L 5 11 L 7 11 L 7 19.332031 C 7 20.253906 6.253906 21 5.332031 21 M 5.332031 21 "/>
</g>
</svg>
