<svg height="32" viewBox="0 0 32 32" width="32" xmlns="http://www.w3.org/2000/svg"><path d="m31 11v10h-2l-2-6v6h-2v-10h2l2 6v-6z"/><path d="m21.3335 21h-2.667a1.6684 1.6684 0 0 1 -1.6665-1.6665v-6.667a1.6684 1.6684 0 0 1 1.6665-1.6665h2.667a1.6684 1.6684 0 0 1 1.6665 1.6665v6.667a1.6684 1.6684 0 0 1 -1.6665 1.6665zm-2.3335-2h2v-6h-2z"/><path d="m13.3335 21h-4.3335v-2h4v-2h-2a2.002 2.002 0 0 1 -2-2v-2.3335a1.6684 1.6684 0 0 1 1.6665-1.6665h4.3335v2h-4v2h2a2.002 2.002 0 0 1 2 2v2.3335a1.6684 1.6684 0 0 1 -1.6665 1.6665z"/><path d="m5.3335 21h-2.667a1.6684 1.6684 0 0 1 -1.6665-1.6665v-2.3335h2v2h2v-8h2v8.3335a1.6684 1.6684 0 0 1 -1.6665 1.6665z"/><path d="m0 0h32v32h-32z" fill="none"/></svg>