<svg role="img" viewBox="0 0 32 32" xmlns="http://www.w3.org/2000/svg"><path d="M18.313 8.617 18.28.094h-4.754l.032 8.523 2.379 3.266Zm-4.754 14.606v8.554h4.754v-8.554l-2.375-3.262Zm0 0" style="stroke:none;fill-rule:evenodd;fill:rgb(100%,100%,100%);fill-opacity:1"/><path d="m18.313 23.223 5.007 6.906 3.832-2.785-5.004-6.907-3.835-1.238ZM13.559 8.617 8.523 1.711 4.688 4.5l5.007 6.906 3.864 1.235Zm0 0" style="stroke:none;fill-rule:evenodd;fill:rgb(0%,94.901961%,90.196079%);fill-opacity:1"/><path d="m9.695 11.406-8.11-2.629-1.46 4.496 8.113 2.665 3.832-1.27Zm10.075 5.766 2.378 3.265 8.11 2.63 1.457-4.5-8.11-2.63Zm0 0" style="stroke:none;fill-rule:evenodd;fill:rgb(0%,72.549021%,94.509804%);fill-opacity:1"/><path d="m23.605 15.938 8.11-2.665-1.457-4.496-8.11 2.63-2.378 3.261Zm-15.367 0L.125 18.566l1.46 4.5 8.11-2.628 2.375-3.266Zm0 0" style="stroke:none;fill-rule:evenodd;fill:rgb(83.92157%,22.745098%,100%);fill-opacity:1"/><path d="m9.695 20.438-5.007 6.906 3.835 2.785 5.036-6.906v-4.024Zm12.453-9.032L27.152 4.5 23.32 1.71l-5.007 6.907v4.024Zm0 0" style="stroke:none;fill-rule:evenodd;fill:rgb(98.431373%,0.392157%,35.686275%);fill-opacity:1"/></svg>