<?xml version="1.0" encoding="UTF-8"?>
<svg xmlns="http://www.w3.org/2000/svg" xmlns:xlink="http://www.w3.org/1999/xlink" width="32" height="32" viewBox="0 0 32 32" version="1.1">
<g id="surface1">
<path style=" stroke:none;fill-rule:evenodd;fill:rgb(100%,100%,100%);fill-opacity:1;" d="M 18.3125 8.617188 L 18.28125 0.09375 L 13.527344 0.09375 L 13.558594 8.617188 L 15.9375 11.882812 Z M 13.558594 23.222656 L 13.558594 31.777344 L 18.3125 31.777344 L 18.3125 23.222656 L 15.9375 19.960938 Z M 13.558594 23.222656 "/>
<path style=" stroke:none;fill-rule:evenodd;fill:rgb(0%,94.901961%,90.196079%);fill-opacity:1;" d="M 18.3125 23.222656 L 23.320312 30.128906 L 27.152344 27.34375 L 22.148438 20.4375 L 18.3125 19.199219 Z M 13.558594 8.617188 L 8.523438 1.710938 L 4.6875 4.5 L 9.695312 11.40625 L 13.558594 12.640625 Z M 13.558594 8.617188 "/>
<path style=" stroke:none;fill-rule:evenodd;fill:rgb(0%,72.549021%,94.509804%);fill-opacity:1;" d="M 9.695312 11.40625 L 1.585938 8.777344 L 0.125 13.273438 L 8.238281 15.9375 L 12.070312 14.667969 Z M 19.769531 17.171875 L 22.148438 20.4375 L 30.257812 23.066406 L 31.714844 18.566406 L 23.605469 15.9375 Z M 19.769531 17.171875 "/>
<path style=" stroke:none;fill-rule:evenodd;fill:rgb(83.92157%,22.745098%,100%);fill-opacity:1;" d="M 23.605469 15.9375 L 31.714844 13.273438 L 30.257812 8.777344 L 22.148438 11.40625 L 19.769531 14.667969 Z M 8.238281 15.9375 L 0.125 18.566406 L 1.585938 23.066406 L 9.695312 20.4375 L 12.070312 17.171875 Z M 8.238281 15.9375 "/>
<path style=" stroke:none;fill-rule:evenodd;fill:rgb(98.431373%,0.392157%,35.686275%);fill-opacity:1;" d="M 9.695312 20.4375 L 4.6875 27.34375 L 8.523438 30.128906 L 13.558594 23.222656 L 13.558594 19.199219 Z M 22.148438 11.40625 L 27.152344 4.5 L 23.320312 1.710938 L 18.3125 8.617188 L 18.3125 12.640625 Z M 22.148438 11.40625 "/>
</g>
</svg>
