<svg role="img" viewBox="0 0 194.256 159.089" data-name="Layer 1" xmlns="http://www.w3.org/2000/svg"><title>sub-project-brand-logo-variants</title><path d="M173.695 0H20.561A20.621 20.621 0 0 0 0 20.56v117.968a20.621 20.621 0 0 0 20.56 20.561h153.135a20.621 20.621 0 0 0 20.561-20.56V20.56A20.621 20.621 0 0 0 173.696 0M82.083 115.687 44.71 137.405a10 10 0 1 1-10.049-17.292l37.372-21.718a10 10 0 1 1 10.049 17.292m14.702-33.09h-.045a10 10 0 0 1-9.956-10.043l.188-43.053a10 10 0 0 1 9.999-9.956h.045a10 10 0 0 1 9.956 10.043l-.188 43.053a10 10 0 0 1-9.999 9.957m66.125 51.158a9.996 9.996 0 0 1-13.66 3.66l-37.427-21.608a10 10 0 0 1 10-17.32l37.427 21.608a10 10 0 0 1 3.66 13.66" style="fill:#ffc61c"/></svg>