<?xml version="1.0" encoding="UTF-8"?>
<svg xmlns="http://www.w3.org/2000/svg" xmlns:xlink="http://www.w3.org/1999/xlink" width="39.073674" height="32" viewBox="0 0 39.073674 32" version="1.1">
<g id="surface1">
<path style=" stroke:none;fill-rule:nonzero;fill:rgb(100%,77.64706%,10.980392%);fill-opacity:1;" d="M 34.9375 0 L 4.136719 0 C 1.855469 0.0078125 0.0078125 1.855469 0 4.136719 L 0 27.863281 C 0.0078125 30.144531 1.855469 31.992188 4.136719 32 L 34.9375 32 C 37.21875 31.992188 39.066406 30.144531 39.074219 27.863281 L 39.074219 4.136719 C 39.066406 1.855469 37.21875 0.0078125 34.9375 0 M 16.511719 23.269531 L 8.992188 27.636719 C 8.371094 28.003906 7.601562 28.007812 6.976562 27.648438 C 6.351562 27.289062 5.964844 26.625 5.964844 25.90625 C 5.964844 25.1875 6.347656 24.519531 6.972656 24.160156 L 14.488281 19.792969 C 15.109375 19.429688 15.878906 19.425781 16.503906 19.78125 C 17.128906 20.140625 17.515625 20.804688 17.515625 21.523438 C 17.519531 22.246094 17.132812 22.910156 16.511719 23.269531 M 19.46875 16.613281 L 19.457031 16.613281 C 18.347656 16.609375 17.453125 15.703125 17.457031 14.59375 L 17.492188 5.933594 C 17.5 4.828125 18.398438 3.929688 19.503906 3.929688 L 19.515625 3.929688 C 20.625 3.9375 21.523438 4.839844 21.515625 5.953125 L 21.480469 14.613281 C 21.472656 15.71875 20.574219 16.613281 19.46875 16.613281 M 32.769531 26.90625 C 32.214844 27.867188 30.984375 28.195312 30.019531 27.640625 L 22.492188 23.292969 C 21.539062 22.734375 21.214844 21.511719 21.769531 20.554688 C 22.320312 19.59375 23.542969 19.265625 24.503906 19.808594 L 32.03125 24.15625 C 32.996094 24.710938 33.324219 25.941406 32.769531 26.90625 "/>
</g>
</svg>
