<svg role="img" viewBox="0 0 48 48" xmlns="http://www.w3.org/2000/svg"><path d="M47.368 46H1l15.436-32.926 9.299 6.835L37.863 1zm-17.001-7.112h.1a4.423 4.423 0 0 0 3.077-1.237 4.04 4.04 0 0 0 1.324-3.043 3.695 3.695 0 0 0-1.276-2.921 3.885 3.885 0 0 0-2.646-1.14h-.076c-.13 0-.26.018-.385.053l2.448-3.638-1.95-1.361-.923 1.361-2.358 3.602a25.867 25.867 0 0 0-.955 1.488 8.51 8.51 0 0 0-.56 1.206 3.74 3.74 0 0 0-.268 1.39 4.025 4.025 0 0 0 1.306 3.01 4.365 4.365 0 0 0 3.05 1.238zm-10.366-3.916 2.702 3.822h2.889l-3.179-4.434 2.823-3.919-1.874-1.297-.827 1.091-2.538 3.58v-7.197l-2.531-2.063v14.238h2.531v-3.824zm10.37 1.53c-1.432 0-2.327-1.551-1.611-2.791a1.86 1.86 0 0 1 1.611-.931h.017c.495.001.969.203 1.311.561.361.331.565.8.561 1.29a1.89 1.89 0 0 1-1.889 1.867z" fill="#7d64ff"/></svg>