<?xml version="1.0" encoding="UTF-8"?>
<svg xmlns="http://www.w3.org/2000/svg" xmlns:xlink="http://www.w3.org/1999/xlink" width="32" height="32" viewBox="0 0 32 32" version="1.1">
<g id="surface1">
<path style=" stroke:none;fill-rule:nonzero;fill:rgb(49.019608%,39.215687%,100%);fill-opacity:1;" d="M 31.578125 30.667969 L 0.667969 30.667969 L 10.957031 8.714844 L 17.15625 13.273438 L 25.242188 0.667969 Z M 20.246094 25.925781 L 20.3125 25.925781 C 21.078125 25.925781 21.8125 25.632812 22.363281 25.101562 C 22.933594 24.582031 23.253906 23.84375 23.246094 23.070312 C 23.269531 22.328125 22.957031 21.613281 22.394531 21.125 C 21.925781 20.65625 21.292969 20.382812 20.628906 20.363281 L 20.578125 20.363281 C 20.492188 20.363281 20.40625 20.375 20.324219 20.398438 L 21.957031 17.976562 L 20.65625 17.066406 L 20.039062 17.976562 L 18.46875 20.375 C 18.246094 20.699219 18.03125 21.03125 17.832031 21.367188 C 17.6875 21.625 17.5625 21.894531 17.457031 22.171875 C 17.339844 22.464844 17.28125 22.78125 17.28125 23.097656 C 17.269531 23.859375 17.589844 24.589844 18.148438 25.105469 C 18.695312 25.636719 19.421875 25.929688 20.183594 25.929688 Z M 13.335938 23.316406 L 15.136719 25.863281 L 17.0625 25.863281 L 14.941406 22.90625 L 16.824219 20.292969 L 15.574219 19.429688 L 15.023438 20.15625 L 13.332031 22.542969 L 13.332031 17.746094 L 11.644531 16.371094 L 11.644531 25.863281 L 13.332031 25.863281 L 13.332031 23.3125 Z M 20.246094 24.335938 C 19.292969 24.335938 18.695312 23.300781 19.171875 22.472656 C 19.394531 22.089844 19.804688 21.851562 20.246094 21.851562 L 20.257812 21.851562 C 20.589844 21.855469 20.90625 21.988281 21.132812 22.226562 C 21.375 22.449219 21.507812 22.761719 21.507812 23.085938 C 21.5 23.777344 20.9375 24.332031 20.246094 24.332031 Z M 20.246094 24.335938 "/>
</g>
</svg>
