<?xml version="1.0" encoding="utf-8"?>
<svg viewBox="0 0 48 48" width="48" height="48" xmlns="http://www.w3.org/2000/svg">
  <path d="M 47.368 46 L 1 46 L 16.436 13.074 L 25.735 19.909 L 37.863 1 L 47.368 46 Z M 30.367 38.888 L 30.467 38.888 C 31.614 38.89 32.718 38.447 33.544 37.651 C 34.401 36.873 34.883 35.765 34.868 34.608 C 34.906 33.491 34.437 32.418 33.592 31.687 C 32.889 30.982 31.942 30.574 30.946 30.547 L 30.87 30.547 C 30.74 30.547 30.61 30.565 30.485 30.6 L 32.933 26.962 L 30.983 25.601 L 30.06 26.962 L 27.702 30.564 C 27.296 31.161 26.957 31.687 26.747 32.052 C 26.529 32.439 26.342 32.842 26.187 33.258 C 26.01 33.7 25.919 34.172 25.919 34.648 C 25.907 35.791 26.382 36.886 27.225 37.658 C 28.041 38.453 29.136 38.897 30.275 38.896 L 30.367 38.888 Z M 20.001 34.972 L 22.703 38.794 L 25.592 38.794 L 22.413 34.36 L 25.236 30.441 L 23.362 29.144 L 22.535 30.235 L 19.997 33.815 L 19.997 26.618 L 17.466 24.555 L 17.466 38.793 L 19.997 38.793 L 19.997 34.969 L 20.001 34.972 Z M 30.371 36.502 C 28.939 36.502 28.044 34.951 28.76 33.711 C 29.092 33.135 29.707 32.78 30.371 32.78 L 30.388 32.78 C 30.883 32.781 31.357 32.983 31.699 33.341 C 32.06 33.672 32.264 34.141 32.26 34.631 C 32.247 35.665 31.406 36.497 30.371 36.498 L 30.371 36.502 Z" fill="#7d64ff"/>
</svg>