<svg role="img" viewBox="0 0 32.978 32" xmlns="http://www.w3.org/2000/svg"><path d="M16.379.848a2.066 2.066 0 0 0-.793.199L4.723 6.238a2.06 2.06 0 0 0-1.121 1.399L.922 19.293a2.046 2.046 0 0 0 .398 1.742l7.52 9.348c.394.488.992.773 1.62.773l12.056-.004c.632 0 1.23-.28 1.625-.773l7.515-9.348a2.045 2.045 0 0 0 .403-1.742L29.375 7.633a2.063 2.063 0 0 0-1.125-1.399L17.387 1.047a2.082 2.082 0 0 0-1.008-.2m0 0" style="stroke:none;fill-rule:nonzero;fill:rgb(19.607843%,42.352942%,89.803922%);fill-opacity:1"/><path d="M16.375.004a2.22 2.22 0 0 0-.84.21L4.07 5.696a2.171 2.171 0 0 0-1.187 1.473L.055 19.473a2.164 2.164 0 0 0 .297 1.668c.039.062.082.117.125.172l7.937 9.87A2.2 2.2 0 0 0 10.13 32l12.723-.004c.668 0 1.3-.3 1.714-.816l7.934-9.867a2.17 2.17 0 0 0 .422-1.84L30.09 7.164a2.185 2.185 0 0 0-1.184-1.473L17.438.215a2.206 2.206 0 0 0-1.063-.211m.004.844c.348-.02.695.05 1.008.199L28.25 6.234c.57.274.98.79 1.125 1.399l2.684 11.656a2.042 2.042 0 0 1-.403 1.742l-7.515 9.348a2.065 2.065 0 0 1-1.625.773l-12.055.004c-.633 0-1.23-.285-1.621-.773l-7.52-9.348a2.046 2.046 0 0 1-.398-1.742l2.68-11.656a2.068 2.068 0 0 1 1.12-1.399l10.864-5.191c.246-.117.52-.188.793-.2m.078 6.169c-.254-.008-7.305 3.457-7.398 3.636-.223.426-1.829 7.828-1.73 7.989.054.093 1.21 1.558 2.566 3.254l2.468 3.085 4.063.004h4.062l2.582-3.226 2.586-3.227-.906-3.968c-.496-2.18-.941-4-.988-4.043-.125-.125-7.168-3.5-7.305-3.504m.36 1.73 1.66.484-1.66.48-1.665-.48Zm-1.665.668 1.555.461-.004 2.164-1.55-.855Zm3.325 0v1.77l-1.547.855-.008-2.164Zm-4.02 2.953 1.664.48-1.664.485-1.66-.484Zm4.04 0 1.663.48-1.664.485-1.66-.484Zm-5.7.664 1.555.465-.008 2.164-1.547-.86Zm3.324 0v1.77l-1.55.86-.005-2.165Zm.715 0 1.555.465-.008 2.164-1.547-.86Zm3.324 0v1.77l-1.55.86-.008-2.165Zm-6.308 2.774c.496.015.113.515.671.78.602.286.723-.429 1.102.118.375.543-.336.406-.281 1.067.05.664.734.414.449 1.011-.285.602-.523-.086-1.07.29-.547.378.011.843-.649.894-.66.055-.187-.492-.785-.777-.598-.286-.723.43-1.101-.118-.376-.547.34-.41.285-1.07-.055-.66-.735-.41-.45-1.012.286-.597.52.09 1.067-.289.547-.375-.012-.84.652-.894.04 0 .078-.004.11 0m4.27.66c.886.027.026.855.835 1.219.805.359.855-.832 1.461-.188.61.64-.586.621-.27 1.445.317.829 1.192.02 1.168.903-.027.883-.855.027-1.218.836-.36.804.832.851.191 1.46-.644.606-.625-.585-1.45-.269-.827.313-.015 1.192-.901 1.164-.883-.023-.028-.851-.833-1.215-.808-.36-.855.832-1.464.188-.606-.64.586-.621.27-1.45-.313-.824-1.192-.015-1.165-.898.024-.883.852-.027 1.215-.836.36-.804-.832-.851-.188-1.46.641-.606.622.585 1.45.269.824-.317.015-1.192.898-1.168m-4.231.465a.973.973 0 1 0 0 1.945.973.973 0 0 0 0-1.945m4.14.879a1.945 1.945 0 0 0-1.945 1.941c0 1.074.871 1.945 1.945 1.945a1.944 1.944 0 0 0 0-3.887m0 0" style="stroke:none;fill-rule:nonzero;fill:rgb(100%,100%,100%);fill-opacity:1"/></svg>