<svg role="img" viewBox="0 0 32.978 32" xmlns="http://www.w3.org/2000/svg"><path d="M16.379.848a2.066 2.066 0 0 0-.793.199L4.723 6.238a2.06 2.06 0 0 0-1.121 1.399L.922 19.293a2.046 2.046 0 0 0 .398 1.742l7.52 9.348c.394.488.992.773 1.62.773l12.056-.004c.632 0 1.23-.28 1.625-.773l7.515-9.348a2.045 2.045 0 0 0 .403-1.742L29.375 7.633a2.063 2.063 0 0 0-1.125-1.399L17.387 1.047a2.082 2.082 0 0 0-1.008-.2m0 0" style="stroke:none;fill-rule:nonzero;fill:rgb(19.607843%,42.352942%,89.803922%);fill-opacity:1"/><path d="M16.375.004a2.22 2.22 0 0 0-.84.21L4.07 5.696a2.171 2.171 0 0 0-1.187 1.473L.055 19.473a2.164 2.164 0 0 0 .297 1.668c.039.062.082.117.125.172l7.937 9.87A2.2 2.2 0 0 0 10.13 32l12.723-.004c.668 0 1.3-.3 1.714-.816l7.934-9.867a2.17 2.17 0 0 0 .422-1.84L30.09 7.164a2.185 2.185 0 0 0-1.184-1.473L17.438.215a2.206 2.206 0 0 0-1.063-.211m.004.844c.348-.02.695.05 1.008.199L28.25 6.234c.57.274.98.79 1.125 1.399l2.684 11.656a2.042 2.042 0 0 1-.403 1.742l-7.515 9.348a2.065 2.065 0 0 1-1.625.773l-12.055.004c-.633 0-1.23-.285-1.621-.773l-7.52-9.348a2.046 2.046 0 0 1-.398-1.742l2.68-11.656a2.068 2.068 0 0 1 1.12-1.399l10.864-5.191c.246-.117.52-.188.793-.2m-3.816 4.887c-.016 0-.579.211-1.247.47-.671.253-1.242.476-1.277.484-.031.011-.059.035-.059.05 0 .012.137.371.297.797.164.426.297.79.293.809-.004.023-.152.09-.457.207-.246.094-.445.18-.441.191.012.031 3.035 1.383 3.082 1.375.035-.004.184-.32.723-1.531.375-.844.683-1.543.683-1.559 0-.015-.008-.027-.02-.023-.367.148-.894.336-.913.328-.016-.004-.165-.367-.332-.805-.196-.511-.313-.793-.332-.793m3.93 4.051A9.337 9.337 0 0 0 7.62 16.2a9.34 9.34 0 0 0 2.867 10.066c.008 0 .438-.425.953-.945.532-.53.954-.972.97-1.004.054-.148-.071-.421-.298-.648-.234-.23-.484-.348-.64-.293-.043.012-.227.184-.508.465-.246.242-.461.441-.48.441-.04 0-.274-.285-.516-.633a7.838 7.838 0 0 1-1.2-2.664c-.078-.316-.18-.914-.164-.96.008-.02.165-.028.684-.028.73 0 .774-.004.86-.113.09-.113.136-.281.144-.528.012-.265-.023-.44-.113-.597-.09-.153-.086-.153-.867-.153-.38 0-.704-.007-.723-.02-.024-.015-.024-.062.008-.35a7.971 7.971 0 0 1 1.265-3.5c.157-.235.438-.602.461-.602.016 0 .274.25.578.55l.555.551.113-.011c.32-.032.742-.418.832-.758a.478.478 0 0 0 .016-.172c-.012-.047-.16-.215-.563-.617-.5-.5-.546-.559-.52-.59.095-.117.677-.54 1.06-.77.949-.578 2.234-1.011 3.214-1.09l.172-.011.016 1.633.086.082c.25.234.937.242 1.199.015l.086-.074.008-.82.012-.82.167.003c.207.004.707.09 1.086.188a7.893 7.893 0 0 1 3.008 1.496c.11.09.2.18.2.2 0 .019-.243.277-.544.577l-.543.543.004.121c.004.364.497.856.856.86h.121l.543-.543c.3-.297.555-.543.57-.543.012 0 .098.105.196.23a8.084 8.084 0 0 1 1.457 3.356c.07.41.109.824.082.86-.02.023-.153.026-.739.026h-.71l-.063.051c-.137.117-.234.477-.207.75.023.219.09.395.18.496l.082.086.718.004c.715.008.72.008.72.051 0 .098-.071.512-.138.82a8.023 8.023 0 0 1-1.254 2.828c-.246.344-.449.59-.488.59-.015 0-.23-.199-.472-.445-.5-.5-.52-.512-.711-.453-.344.097-.72.512-.75.828l-.012.11.832.85c1.066 1.087 1.082 1.102 1.133 1.075.078-.043.601-.539.828-.789a9.355 9.355 0 0 0 2.191-8.66 9.372 9.372 0 0 0-2.89-4.695 9.307 9.307 0 0 0-6.149-2.317m-1.763 3.856c-.37 0-.789.214-.91.46-.039.086-.043.11-.02.18a160 160 0 0 0 .845 2.196l.824 2.117-.074.152a1.198 1.198 0 0 0 .23 1.41 1.21 1.21 0 0 0 1.559.145c.586-.399.703-1.23.253-1.781-.152-.184-.308-.29-.62-.415-.047-.02-.145-.257-.883-2.16-.457-1.175-.844-2.16-.86-2.187-.054-.086-.148-.121-.344-.117M10.2 25.977c-.364-.309-1.09-1.165-1.462-1.715-.633-.946-1.164-2.25-1.406-3.473-.172-.867-.156-2.613.031-3.492.758-3.555 3.352-6.29 6.809-7.18 2.586-.664 5.273-.203 7.531 1.301.688.457 1.867 1.598 2.32 2.246 1.766 2.516 2.23 5.563 1.278 8.414-.442 1.317-1.133 2.45-2.149 3.5l-.644.672-.953-.953c-.563-.559-.957-1.008-.957-1.078 0-.305.507-.817.808-.817.063 0 .328.207.59.461.555.54.508.547 1.04-.222a8.187 8.187 0 0 0 1.335-3.383l.043-.274h-1.492l-.106-.203c-.12-.238-.101-.883.036-1.047.066-.082.226-.105.816-.105h.734v-.25c0-.652-.37-1.977-.789-2.813-.218-.437-.875-1.449-.937-1.449-.024 0-.297.25-.606.555-.492.492-.578.55-.726.515-.262-.066-.672-.472-.715-.707-.035-.187.008-.253.508-.785.633-.672.64-.597-.13-1.129-.964-.668-2.394-1.222-3.417-1.328l-.39-.043-.04.825c-.027.601-.066.851-.137.921-.14.145-.675.172-.96.055l-.239-.101V11.21l-.242.004c-.629.004-2.133.473-2.914.914-.492.273-1.36.894-1.36.973 0 .035.247.316.551.625.496.507.547.582.508.746-.058.23-.472.644-.707.703-.164.039-.23-.008-.742-.516-.328-.324-.594-.543-.637-.515-.113.07-.676.93-.902 1.378-.414.82-.93 2.723-.82 3.016.027.07.195.09.742.09.781 0 .867.039.945.394.024.11.024.329 0 .485-.062.418-.187.476-.984.476-.77 0-.739-.043-.567.778.254 1.199.828 2.394 1.637 3.414l.125.156.516-.465c.297-.265.57-.465.648-.465.176 0 .617.399.719.645.074.183.066.21-.246.566-.18.203-.61.653-.957.996l-.637.625Zm0 0" style="stroke:none;fill-rule:nonzero;fill:rgb(100%,100%,100%);fill-opacity:1"/></svg>