<svg role="img" viewBox="0 0 32.978 32" xmlns="http://www.w3.org/2000/svg"><path d="M16.379.848a2.066 2.066 0 0 0-.793.199L4.723 6.238a2.06 2.06 0 0 0-1.121 1.399L.922 19.293a2.046 2.046 0 0 0 .398 1.742l7.52 9.348c.394.488.992.773 1.62.773l12.056-.004c.632 0 1.23-.28 1.625-.773l7.515-9.348a2.045 2.045 0 0 0 .403-1.742L29.375 7.633a2.063 2.063 0 0 0-1.125-1.399L17.387 1.047a2.082 2.082 0 0 0-1.008-.2m0 0" style="stroke:none;fill-rule:nonzero;fill:rgb(19.607843%,42.352942%,89.803922%);fill-opacity:1"/><path d="M16.375.004a2.22 2.22 0 0 0-.84.21L4.07 5.696a2.171 2.171 0 0 0-1.187 1.473L.055 19.473a2.164 2.164 0 0 0 .297 1.668c.039.062.082.117.125.172l7.937 9.87A2.2 2.2 0 0 0 10.13 32l12.723-.004c.668 0 1.3-.3 1.714-.816l7.934-9.867a2.17 2.17 0 0 0 .422-1.84L30.09 7.164a2.185 2.185 0 0 0-1.184-1.473L17.438.215a2.206 2.206 0 0 0-1.063-.211m.004.844c.348-.02.695.05 1.008.199L28.25 6.234c.57.274.98.79 1.125 1.399l2.684 11.656a2.042 2.042 0 0 1-.403 1.742l-7.515 9.348a2.065 2.065 0 0 1-1.625.773l-12.055.004c-.633 0-1.23-.285-1.621-.773l-7.52-9.348a2.046 2.046 0 0 1-.398-1.742l2.68-11.656a2.068 2.068 0 0 1 1.12-1.399l10.864-5.191c.246-.117.52-.188.793-.2m-.844 6.79A7.667 7.667 0 0 0 7.871 15.3a7.667 7.667 0 0 0 7.664 7.664c.95 0 1.856-.18 2.695-.496v-1.805c0-.613.5-1.644 1.114-1.644v-1.676c0-.84 1.254-2.262 2.793-2.262.379 0 .734.074 1.062.211a7.668 7.668 0 0 0-7.664-7.656m1.535 2.683 2.68 2.684h-1.914v3.062h-1.531v-3.062h-1.918Zm-3.832 4.215h1.532v3.067h1.918l-2.684 2.68-2.684-2.68h1.918Zm9.094 1.902a1.98 1.98 0 0 0-1.98 1.981v1.187a.794.794 0 0 0-.793.793v3.172c0 .434.355.793.793.793h3.96c.438 0 .793-.36.793-.793v-3.172a.794.794 0 0 0-.793-.793v-1.187a1.98 1.98 0 0 0-1.98-1.98m0 .79a1.19 1.19 0 0 1 1.188 1.191v1.187h-2.375v-1.187c0-.656.527-1.191 1.187-1.191m0 0" style="stroke:none;fill-rule:nonzero;fill:rgb(100%,100%,100%);fill-opacity:1"/></svg>