<?xml version="1.0" encoding="UTF-8"?>
<svg xmlns="http://www.w3.org/2000/svg" xmlns:xlink="http://www.w3.org/1999/xlink" width="32.978001" height="32" viewBox="0 0 32.978001 32" version="1.1">
<g id="surface1">
<path style=" stroke:none;fill-rule:nonzero;fill:rgb(19.607843%,42.352942%,89.803922%);fill-opacity:1;" d="M 16.378906 0.847656 C 16.105469 0.859375 15.835938 0.929688 15.585938 1.046875 L 4.722656 6.238281 C 4.15625 6.507812 3.742188 7.023438 3.601562 7.636719 L 0.921875 19.292969 C 0.78125 19.902344 0.925781 20.546875 1.320312 21.035156 L 8.839844 30.382812 C 9.234375 30.871094 9.832031 31.15625 10.460938 31.15625 L 22.515625 31.152344 C 23.148438 31.152344 23.746094 30.871094 24.140625 30.378906 L 31.65625 21.03125 C 32.050781 20.542969 32.199219 19.902344 32.058594 19.289062 L 29.375 7.632812 C 29.234375 7.019531 28.820312 6.503906 28.25 6.234375 L 17.386719 1.046875 C 17.074219 0.898438 16.726562 0.828125 16.378906 0.847656 M 16.378906 0.847656 "/>
<path style=" stroke:none;fill-rule:nonzero;fill:rgb(100%,100%,100%);fill-opacity:1;" d="M 16.375 0.00390625 C 16.082031 0.0195312 15.796875 0.0898438 15.535156 0.214844 L 4.070312 5.695312 C 3.46875 5.980469 3.03125 6.523438 2.882812 7.167969 L 0.0546875 19.472656 C -0.078125 20.046875 0.03125 20.648438 0.351562 21.140625 C 0.390625 21.203125 0.433594 21.257812 0.476562 21.3125 L 8.414062 31.183594 C 8.832031 31.699219 9.464844 32 10.128906 32 L 22.851562 31.996094 C 23.519531 31.996094 24.152344 31.695312 24.566406 31.179688 L 32.5 21.3125 C 32.914062 20.796875 33.070312 20.117188 32.921875 19.472656 L 30.089844 7.164062 C 29.9375 6.519531 29.503906 5.976562 28.90625 5.691406 L 17.4375 0.214844 C 17.105469 0.0585938 16.742188 -0.015625 16.375 0.00390625 M 16.378906 0.847656 C 16.726562 0.828125 17.074219 0.898438 17.386719 1.046875 L 28.25 6.234375 C 28.820312 6.507812 29.230469 7.023438 29.375 7.632812 L 32.058594 19.289062 C 32.199219 19.902344 32.050781 20.542969 31.65625 21.03125 L 24.140625 30.378906 C 23.746094 30.871094 23.148438 31.15625 22.515625 31.152344 L 10.460938 31.15625 C 9.828125 31.15625 9.230469 30.871094 8.839844 30.382812 L 1.320312 21.035156 C 0.925781 20.546875 0.78125 19.902344 0.921875 19.292969 L 3.601562 7.636719 C 3.742188 7.023438 4.15625 6.511719 4.722656 6.238281 L 15.585938 1.046875 C 15.832031 0.929688 16.105469 0.859375 16.378906 0.847656 M 16.378906 0.847656 "/>
<path style="fill:none;stroke-width:0.79375;stroke-linecap:butt;stroke-linejoin:round;stroke:rgb(100%,100%,100%);stroke-opacity:1;stroke-miterlimit:10;" d="M 10.413847 8.091968 L 14.122427 8.091968 " transform="matrix(1.82853,0,0,1.82853,-1.71,-0.73)"/>
<path style="fill:none;stroke-width:0.794;stroke-linecap:butt;stroke-linejoin:round;stroke:rgb(100%,100%,100%);stroke-opacity:1;stroke-miterlimit:10;" d="M 8.296795 5.974916 L 14.122427 5.974916 " transform="matrix(1.82853,0,0,1.82853,-1.71,-0.73)"/>
<path style="fill:none;stroke-width:0.79375;stroke-linecap:butt;stroke-linejoin:round;stroke:rgb(100%,100%,100%);stroke-opacity:1;stroke-miterlimit:10;" d="M 5.782394 5.974916 L 7.241473 5.974916 " transform="matrix(1.82853,0,0,1.82853,-1.71,-0.73)"/>
<path style="fill-rule:evenodd;fill:rgb(100%,100%,100%);fill-opacity:1;stroke-width:0.264583;stroke-linecap:square;stroke-linejoin:miter;stroke:rgb(19.607843%,42.352942%,89.803922%);stroke-opacity:1;stroke-miterlimit:10;" d="M 7.717863 8.431637 C 7.717863 7.265228 8.728323 6.318857 9.97591 6.318857 C 11.223497 6.318857 12.233957 7.265228 12.233957 8.431637 L 11.180771 8.431637 C 11.180771 7.848432 10.642429 7.376315 9.978046 7.376315 C 9.313663 7.376315 8.777457 7.848432 8.777457 8.431637 Z M 7.717863 8.431637 L 7.719999 8.431637 M 7.717863 8.431637 " transform="matrix(1.82853,0,0,1.82853,-1.71,-0.73)"/>
<path style="fill:none;stroke-width:0.79375;stroke-linecap:butt;stroke-linejoin:round;stroke:rgb(100%,100%,100%);stroke-opacity:1;stroke-miterlimit:10;" d="M 10.413847 10.206884 L 14.122427 10.206884 M 8.296795 12.323937 L 14.122427 12.323937 M 5.782394 12.323937 L 7.241473 12.323937 " transform="matrix(1.82853,0,0,1.82853,-1.71,-0.73)"/>
<path style="fill-rule:evenodd;fill:rgb(100%,100%,100%);fill-opacity:1;stroke-width:0.264583;stroke-linecap:square;stroke-linejoin:miter;stroke:rgb(19.607843%,42.352942%,89.803922%);stroke-opacity:1;stroke-miterlimit:10;" d="M 7.162431 8.369684 L 12.778708 8.369684 L 12.778708 12.026994 L 7.162431 12.026994 Z M 7.162431 8.369684 L 7.164567 8.369684 M 7.162431 8.369684 " transform="matrix(1.82853,0,0,1.82853,-1.71,-0.73)"/>
<path style=" stroke:none;fill-rule:nonzero;fill:rgb(19.607843%,42.352942%,89.803922%);fill-opacity:1;" d="M 17.535156 17.917969 C 17.535156 18.480469 17.078125 18.933594 16.519531 18.933594 C 15.957031 18.933594 15.503906 18.476562 15.503906 17.917969 C 15.503906 17.355469 15.957031 16.902344 16.519531 16.902344 C 17.082031 16.902344 17.535156 17.355469 17.535156 17.917969 M 17.535156 17.917969 "/>
</g>
</svg>
