<?xml version="1.0" encoding="UTF-8"?>
<svg xmlns="http://www.w3.org/2000/svg" xmlns:xlink="http://www.w3.org/1999/xlink" width="32.978001" height="32" viewBox="0 0 32.978001 32" version="1.1">
<g id="surface1">
<path style=" stroke:none;fill-rule:nonzero;fill:rgb(19.607843%,42.352942%,89.803922%);fill-opacity:1;" d="M 16.378906 0.847656 C 16.105469 0.859375 15.835938 0.929688 15.585938 1.046875 L 4.722656 6.238281 C 4.15625 6.507812 3.742188 7.023438 3.601562 7.636719 L 0.921875 19.292969 C 0.78125 19.902344 0.925781 20.546875 1.320312 21.035156 L 8.839844 30.382812 C 9.234375 30.871094 9.832031 31.15625 10.460938 31.15625 L 22.515625 31.152344 C 23.148438 31.152344 23.746094 30.871094 24.140625 30.378906 L 31.65625 21.03125 C 32.050781 20.542969 32.199219 19.902344 32.058594 19.289062 L 29.375 7.632812 C 29.234375 7.019531 28.820312 6.503906 28.25 6.234375 L 17.386719 1.046875 C 17.074219 0.898438 16.726562 0.828125 16.378906 0.847656 M 16.378906 0.847656 "/>
<path style=" stroke:none;fill-rule:nonzero;fill:rgb(100%,100%,100%);fill-opacity:1;" d="M 16.375 0.00390625 C 16.082031 0.0195312 15.796875 0.0898438 15.535156 0.214844 L 4.070312 5.695312 C 3.46875 5.980469 3.03125 6.523438 2.882812 7.167969 L 0.0546875 19.472656 C -0.078125 20.046875 0.03125 20.648438 0.351562 21.140625 C 0.390625 21.203125 0.433594 21.257812 0.476562 21.3125 L 8.414062 31.183594 C 8.832031 31.699219 9.464844 32 10.128906 32 L 22.851562 31.996094 C 23.519531 31.996094 24.152344 31.695312 24.566406 31.179688 L 32.5 21.3125 C 32.914062 20.796875 33.070312 20.117188 32.921875 19.472656 L 30.089844 7.164062 C 29.9375 6.519531 29.503906 5.976562 28.90625 5.691406 L 17.4375 0.214844 C 17.105469 0.0585938 16.742188 -0.015625 16.375 0.00390625 M 16.378906 0.847656 C 16.726562 0.828125 17.074219 0.898438 17.386719 1.046875 L 28.25 6.234375 C 28.820312 6.507812 29.230469 7.023438 29.375 7.632812 L 32.058594 19.289062 C 32.199219 19.902344 32.050781 20.542969 31.65625 21.03125 L 24.140625 30.378906 C 23.746094 30.871094 23.148438 31.15625 22.515625 31.152344 L 10.460938 31.15625 C 9.828125 31.15625 9.230469 30.871094 8.839844 30.382812 L 1.320312 21.035156 C 0.925781 20.546875 0.78125 19.902344 0.921875 19.292969 L 3.601562 7.636719 C 3.742188 7.023438 4.15625 6.511719 4.722656 6.238281 L 15.585938 1.046875 C 15.832031 0.929688 16.105469 0.859375 16.378906 0.847656 M 16.378906 0.847656 "/>
<path style=" stroke:none;fill-rule:evenodd;fill:rgb(100%,100%,100%);fill-opacity:1;" d="M 14.472656 6.832031 L 7.546875 8.839844 L 14.472656 10.851562 L 16.53125 10.253906 C 17.496094 9.347656 18.773438 8.84375 20.097656 8.839844 C 20.429688 8.839844 20.753906 8.875 21.070312 8.933594 L 21.402344 8.839844 Z M 7.546875 9.609375 L 7.546875 16.980469 L 13.3125 20.175781 L 13.3125 17.910156 C 13.3125 17.226562 13.589844 16.660156 14.015625 16.203125 L 14.03125 11.539062 Z M 15.644531 11.320312 L 14.914062 11.539062 L 14.921875 13.191406 C 15.042969 12.527344 15.285156 11.890625 15.644531 11.320312 M 20.097656 13.273438 C 19.875 13.265625 19.660156 13.351562 19.503906 13.507812 C 19.34375 13.664062 19.257812 13.878906 19.265625 14.101562 L 19.265625 14.933594 L 20.925781 14.933594 L 20.925781 14.101562 C 20.933594 13.882812 20.851562 13.664062 20.691406 13.507812 C 20.535156 13.351562 20.320312 13.265625 20.097656 13.273438 M 20.097656 13.273438 "/>
<path style=" stroke:none;fill-rule:nonzero;fill:rgb(100%,100%,100%);fill-opacity:1;" d="M 20.101562 9.945312 C 18 9.945312 16.292969 11.652344 16.292969 13.753906 L 16.292969 16.039062 C 15.457031 16.039062 14.769531 16.722656 14.769531 17.558594 L 14.769531 23.652344 C 14.769531 24.492188 15.457031 25.167969 16.292969 25.167969 L 23.910156 25.167969 C 24.746094 25.167969 25.433594 24.492188 25.433594 23.652344 L 25.433594 17.558594 C 25.433594 16.722656 24.746094 16.039062 23.910156 16.039062 L 23.910156 13.753906 C 23.910156 11.652344 22.203125 9.949219 20.101562 9.945312 M 20.101562 11.46875 C 20.707031 11.46875 21.289062 11.707031 21.71875 12.136719 C 22.148438 12.566406 22.386719 13.148438 22.386719 13.753906 L 22.386719 16.039062 L 17.816406 16.039062 L 17.816406 13.753906 C 17.816406 13.148438 18.058594 12.566406 18.484375 12.140625 C 18.914062 11.710938 19.496094 11.46875 20.101562 11.46875 M 20.101562 11.46875 "/>
</g>
</svg>
