<?xml version="1.0" encoding="UTF-8"?>
<svg xmlns="http://www.w3.org/2000/svg" xmlns:xlink="http://www.w3.org/1999/xlink" width="32.978001" height="32" viewBox="0 0 32.978001 32" version="1.1">
<g id="surface1">
<path style=" stroke:none;fill-rule:nonzero;fill:rgb(19.607843%,42.352942%,89.803922%);fill-opacity:1;" d="M 16.378906 0.847656 C 16.105469 0.859375 15.835938 0.929688 15.585938 1.046875 L 4.722656 6.238281 C 4.15625 6.507812 3.742188 7.023438 3.601562 7.636719 L 0.921875 19.292969 C 0.78125 19.902344 0.925781 20.546875 1.320312 21.035156 L 8.839844 30.382812 C 9.234375 30.871094 9.832031 31.15625 10.460938 31.15625 L 22.515625 31.152344 C 23.148438 31.152344 23.746094 30.871094 24.140625 30.378906 L 31.65625 21.03125 C 32.050781 20.542969 32.199219 19.902344 32.058594 19.289062 L 29.375 7.632812 C 29.234375 7.019531 28.820312 6.503906 28.25 6.234375 L 17.386719 1.046875 C 17.074219 0.898438 16.726562 0.828125 16.378906 0.847656 M 16.378906 0.847656 "/>
<path style=" stroke:none;fill-rule:nonzero;fill:rgb(100%,100%,100%);fill-opacity:1;" d="M 16.375 0.00390625 C 16.082031 0.0195312 15.796875 0.0898438 15.535156 0.214844 L 4.070312 5.695312 C 3.46875 5.980469 3.03125 6.523438 2.882812 7.167969 L 0.0546875 19.472656 C -0.078125 20.046875 0.03125 20.648438 0.351562 21.140625 C 0.390625 21.203125 0.433594 21.257812 0.476562 21.3125 L 8.414062 31.183594 C 8.832031 31.699219 9.464844 32 10.128906 32 L 22.851562 31.996094 C 23.519531 31.996094 24.152344 31.695312 24.566406 31.179688 L 32.5 21.3125 C 32.914062 20.796875 33.070312 20.117188 32.921875 19.472656 L 30.089844 7.164062 C 29.9375 6.519531 29.503906 5.976562 28.90625 5.691406 L 17.4375 0.214844 C 17.105469 0.0585938 16.742188 -0.015625 16.375 0.00390625 M 16.378906 0.847656 C 16.726562 0.828125 17.074219 0.898438 17.386719 1.046875 L 28.25 6.234375 C 28.820312 6.507812 29.230469 7.023438 29.375 7.632812 L 32.058594 19.289062 C 32.199219 19.902344 32.050781 20.542969 31.65625 21.03125 L 24.140625 30.378906 C 23.746094 30.871094 23.148438 31.15625 22.515625 31.152344 L 10.460938 31.15625 C 9.828125 31.15625 9.230469 30.871094 8.839844 30.382812 L 1.320312 21.035156 C 0.925781 20.546875 0.78125 19.902344 0.921875 19.292969 L 3.601562 7.636719 C 3.742188 7.023438 4.15625 6.511719 4.722656 6.238281 L 15.585938 1.046875 C 15.832031 0.929688 16.105469 0.859375 16.378906 0.847656 M 17.5 16.300781 C 17.496094 16.808594 17.082031 17.21875 16.574219 17.21875 C 16.328125 17.21875 16.09375 17.125 15.921875 16.953125 C 15.746094 16.78125 15.648438 16.546875 15.648438 16.300781 C 15.648438 15.792969 16.0625 15.382812 16.574219 15.382812 C 17.082031 15.382812 17.5 15.792969 17.5 16.300781 M 16.683594 8.851562 L 11 11.367188 L 11 15.117188 C 11 18.589844 13.421875 21.839844 16.683594 22.628906 C 19.941406 21.839844 22.363281 18.589844 22.363281 15.117188 L 22.363281 11.367188 Z M 19.691406 18.945312 L 13.671875 18.945312 L 13.671875 13.890625 L 14.535156 13.890625 L 14.535156 13.339844 C 14.535156 12.148438 15.507812 11.183594 16.710938 11.183594 C 17.914062 11.183594 18.886719 12.148438 18.886719 13.339844 L 18.886719 13.890625 L 19.691406 13.890625 Z M 16.679688 11.984375 C 15.964844 11.984375 15.382812 12.5625 15.378906 13.28125 L 15.378906 13.820312 L 17.988281 13.820312 L 17.988281 13.269531 C 17.976562 12.554688 17.394531 11.980469 16.679688 11.984375 M 16.679688 11.984375 "/>
<path style="fill:none;stroke-width:0.4;stroke-linecap:butt;stroke-linejoin:round;stroke:rgb(100%,100%,100%);stroke-opacity:1;stroke-dasharray:0.8,0.4;stroke-dashoffset:0.4;stroke-miterlimit:10;" d="M 4.917697 5.456261 L 14.847121 5.456261 L 14.847121 14.112464 L 4.917697 14.112464 Z M 4.917697 5.456261 " transform="matrix(1.82853,0,0,1.82853,-1.582,-1.891)"/>
</g>
</svg>
