<?xml version="1.0" encoding="UTF-8"?>
<svg xmlns="http://www.w3.org/2000/svg" xmlns:xlink="http://www.w3.org/1999/xlink" width="32.978285" height="32" viewBox="0 0 32.978285 32" version="1.1">
<g id="surface1">
<path style=" stroke:none;fill-rule:nonzero;fill:rgb(19.607843%,42.352942%,89.803922%);fill-opacity:1;" d="M 16.378906 0.847656 C 16.101562 0.859375 15.832031 0.929688 15.585938 1.046875 L 4.722656 6.238281 C 4.152344 6.507812 3.742188 7.023438 3.597656 7.632812 L 0.917969 19.292969 C 0.796875 19.835938 0.898438 20.402344 1.203125 20.871094 C 1.238281 20.925781 1.277344 20.980469 1.320312 21.035156 L 8.835938 30.382812 C 9.230469 30.871094 9.828125 31.15625 10.460938 31.15625 L 22.515625 31.15625 C 23.148438 31.15625 23.746094 30.871094 24.140625 30.382812 L 31.65625 21.03125 C 32.050781 20.542969 32.195312 19.898438 32.054688 19.289062 L 29.371094 7.632812 C 29.234375 7.023438 28.820312 6.507812 28.25 6.238281 L 17.386719 1.046875 C 17.074219 0.898438 16.726562 0.828125 16.378906 0.84375 "/>
<path style=" stroke:none;fill-rule:nonzero;fill:rgb(100%,100%,100%);fill-opacity:1;" d="M 16.375 0.00390625 C 16.082031 0.0195312 15.796875 0.0898438 15.535156 0.21875 L 4.066406 5.691406 C 3.46875 5.980469 3.03125 6.523438 2.882812 7.167969 L 0.0546875 19.472656 C -0.078125 20.046875 0.0273438 20.648438 0.351562 21.144531 C 0.390625 21.203125 0.433594 21.261719 0.476562 21.316406 L 8.410156 31.183594 C 8.828125 31.699219 9.460938 32 10.125 32 L 22.851562 32 C 23.519531 32 24.148438 31.699219 24.566406 31.183594 L 32.5 21.3125 C 32.914062 20.792969 33.070312 20.117188 32.921875 19.472656 L 30.09375 7.164062 C 29.945312 6.519531 29.507812 5.976562 28.90625 5.691406 L 17.441406 0.214844 C 17.109375 0.0546875 16.742188 -0.015625 16.375 0 M 16.382812 0.847656 C 16.730469 0.828125 17.074219 0.898438 17.386719 1.046875 L 28.25 6.234375 C 28.820312 6.503906 29.234375 7.019531 29.375 7.628906 L 32.058594 19.285156 C 32.199219 19.898438 32.050781 20.539062 31.65625 21.03125 L 24.140625 30.378906 C 23.746094 30.867188 23.148438 31.152344 22.515625 31.152344 L 10.460938 31.15625 C 9.832031 31.15625 9.234375 30.871094 8.839844 30.382812 L 1.324219 21.035156 C 1.28125 20.980469 1.242188 20.925781 1.203125 20.871094 C 0.898438 20.402344 0.796875 19.832031 0.921875 19.289062 L 3.601562 7.632812 C 3.742188 7.023438 4.15625 6.507812 4.722656 6.238281 L 15.585938 1.046875 C 15.835938 0.925781 16.105469 0.859375 16.382812 0.847656 "/>
<path style=" stroke:none;fill-rule:evenodd;fill:rgb(100%,100%,100%);fill-opacity:1;" d="M 6.570312 19.667969 L 11.890625 19.667969 L 11.890625 23.402344 L 6.570312 23.402344 Z M 13.828125 19.667969 L 19.148438 19.667969 L 19.148438 23.402344 L 13.828125 23.402344 Z M 21.085938 19.667969 L 26.40625 19.667969 L 26.40625 23.402344 L 21.085938 23.402344 Z M 12.273438 8.601562 L 20.703125 8.601562 L 20.703125 12.332031 L 12.273438 12.332031 Z M 12.273438 8.601562 "/>
<path style=" stroke:none;fill-rule:nonzero;fill:rgb(100%,100%,100%);fill-opacity:1;" d="M 13.316406 13.199219 L 14.15625 14.039062 L 10.394531 17.800781 L 9.550781 16.957031 Z M 13.316406 13.199219 "/>
<path style=" stroke:none;fill-rule:nonzero;fill:rgb(100%,100%,100%);fill-opacity:1;" d="M 18.863281 13.199219 L 18.019531 14.042969 L 21.78125 17.800781 L 22.625 16.957031 Z M 18.863281 13.199219 "/>
<path style=" stroke:none;fill-rule:nonzero;fill:rgb(100%,100%,100%);fill-opacity:1;" d="M 16.929688 13.515625 L 15.738281 13.511719 L 15.703125 17.625 L 16.898438 17.628906 Z M 16.929688 13.515625 "/>
</g>
</svg>
