<?xml version="1.0" encoding="UTF-8"?>
<svg xmlns="http://www.w3.org/2000/svg" xmlns:xlink="http://www.w3.org/1999/xlink" width="32.978001" height="32" viewBox="0 0 32.978001 32" version="1.1">
<g id="surface1">
<path style=" stroke:none;fill-rule:nonzero;fill:rgb(19.607843%,42.352942%,89.803922%);fill-opacity:1;" d="M 16.378906 0.847656 C 16.105469 0.859375 15.835938 0.929688 15.585938 1.046875 L 4.722656 6.238281 C 4.15625 6.507812 3.742188 7.023438 3.601562 7.636719 L 0.921875 19.292969 C 0.78125 19.902344 0.925781 20.546875 1.320312 21.035156 L 8.839844 30.382812 C 9.234375 30.871094 9.832031 31.15625 10.460938 31.15625 L 22.515625 31.152344 C 23.148438 31.152344 23.746094 30.871094 24.140625 30.378906 L 31.65625 21.03125 C 32.050781 20.542969 32.199219 19.902344 32.058594 19.289062 L 29.375 7.632812 C 29.234375 7.019531 28.820312 6.503906 28.25 6.234375 L 17.386719 1.046875 C 17.074219 0.898438 16.726562 0.828125 16.378906 0.847656 M 16.378906 0.847656 "/>
<path style=" stroke:none;fill-rule:nonzero;fill:rgb(100%,100%,100%);fill-opacity:1;" d="M 16.375 0.00390625 C 16.082031 0.0195312 15.796875 0.0898438 15.535156 0.214844 L 4.070312 5.695312 C 3.46875 5.980469 3.03125 6.523438 2.882812 7.167969 L 0.0546875 19.472656 C -0.078125 20.046875 0.03125 20.648438 0.351562 21.140625 C 0.390625 21.203125 0.433594 21.257812 0.476562 21.3125 L 8.414062 31.183594 C 8.832031 31.699219 9.464844 32 10.128906 32 L 22.851562 31.996094 C 23.519531 31.996094 24.152344 31.695312 24.566406 31.179688 L 32.5 21.3125 C 32.914062 20.796875 33.070312 20.117188 32.921875 19.472656 L 30.089844 7.164062 C 29.9375 6.519531 29.503906 5.976562 28.90625 5.691406 L 17.4375 0.214844 C 17.105469 0.0585938 16.742188 -0.015625 16.375 0.00390625 M 16.378906 0.847656 C 16.726562 0.828125 17.074219 0.898438 17.386719 1.046875 L 28.25 6.234375 C 28.820312 6.507812 29.230469 7.023438 29.375 7.632812 L 32.058594 19.289062 C 32.199219 19.902344 32.050781 20.542969 31.65625 21.03125 L 24.140625 30.378906 C 23.746094 30.871094 23.148438 31.15625 22.515625 31.152344 L 10.460938 31.15625 C 9.828125 31.15625 9.230469 30.871094 8.839844 30.382812 L 1.320312 21.035156 C 0.925781 20.546875 0.78125 19.902344 0.921875 19.292969 L 3.601562 7.636719 C 3.742188 7.023438 4.15625 6.511719 4.722656 6.238281 L 15.585938 1.046875 C 15.832031 0.929688 16.105469 0.859375 16.378906 0.847656 M 15.535156 7.636719 C 11.304688 7.636719 7.875 11.070312 7.871094 15.300781 C 7.871094 19.53125 11.304688 22.960938 15.535156 22.964844 C 16.484375 22.964844 17.390625 22.785156 18.230469 22.46875 L 18.230469 20.664062 C 18.230469 20.050781 18.730469 19.019531 19.34375 19.019531 L 19.34375 17.34375 C 19.34375 16.503906 20.597656 15.082031 22.136719 15.082031 C 22.515625 15.082031 22.871094 15.15625 23.199219 15.292969 C 23.191406 11.0625 19.765625 7.636719 15.535156 7.636719 M 17.070312 10.320312 L 19.75 13.003906 L 17.835938 13.003906 L 17.835938 16.066406 L 16.304688 16.066406 L 16.304688 13.003906 L 14.386719 13.003906 Z M 13.238281 14.535156 L 14.769531 14.535156 L 14.769531 17.601562 L 16.6875 17.601562 L 14.003906 20.28125 L 11.320312 17.601562 L 13.238281 17.601562 Z M 22.332031 16.4375 C 21.238281 16.4375 20.351562 17.324219 20.351562 18.417969 L 20.351562 19.605469 C 19.914062 19.605469 19.558594 19.960938 19.558594 20.398438 L 19.558594 23.570312 C 19.558594 24.003906 19.914062 24.363281 20.351562 24.363281 L 24.3125 24.363281 C 24.75 24.363281 25.105469 24.003906 25.105469 23.570312 L 25.105469 20.398438 C 25.105469 19.960938 24.75 19.605469 24.3125 19.605469 L 24.3125 18.417969 C 24.3125 17.324219 23.425781 16.4375 22.332031 16.4375 M 22.332031 17.226562 C 22.988281 17.226562 23.519531 17.761719 23.519531 18.417969 L 23.519531 19.605469 L 21.144531 19.605469 L 21.144531 18.417969 C 21.144531 17.761719 21.671875 17.226562 22.332031 17.226562 M 22.332031 17.226562 "/>
</g>
</svg>
