<svg role="img" viewBox="0 0 32.978 32" xmlns="http://www.w3.org/2000/svg"><path d="M16.379.848a2.066 2.066 0 0 0-.793.199L4.723 6.238a2.06 2.06 0 0 0-1.121 1.399L.922 19.293a2.046 2.046 0 0 0 .398 1.742l7.52 9.348c.394.488.992.773 1.62.773l12.056-.004c.632 0 1.23-.28 1.625-.773l7.515-9.348a2.045 2.045 0 0 0 .403-1.742L29.375 7.633a2.063 2.063 0 0 0-1.125-1.399L17.387 1.047a2.082 2.082 0 0 0-1.008-.2m0 0" style="stroke:none;fill-rule:nonzero;fill:rgb(19.607843%,42.352942%,89.803922%);fill-opacity:1"/><path d="M16.375.004a2.22 2.22 0 0 0-.84.21L4.07 5.696a2.171 2.171 0 0 0-1.187 1.473L.055 19.473a2.164 2.164 0 0 0 .297 1.668c.039.062.082.117.125.172l7.937 9.87A2.2 2.2 0 0 0 10.13 32l12.723-.004c.668 0 1.3-.3 1.714-.816l7.934-9.867a2.17 2.17 0 0 0 .422-1.84L30.09 7.164a2.185 2.185 0 0 0-1.184-1.473L17.438.215a2.206 2.206 0 0 0-1.063-.211m.004.844c.348-.02.695.05 1.008.199L28.25 6.234c.57.274.98.79 1.125 1.399l2.684 11.656a2.042 2.042 0 0 1-.403 1.742l-7.515 9.348a2.065 2.065 0 0 1-1.625.773l-12.055.004c-.633 0-1.23-.285-1.621-.773l-7.52-9.348a2.046 2.046 0 0 1-.398-1.742l2.68-11.656a2.068 2.068 0 0 1 1.12-1.399l10.864-5.191c.246-.117.52-.188.793-.2m0 0" style="stroke:none;fill-rule:nonzero;fill:rgb(100%,100%,100%);fill-opacity:1"/><path d="M14.473 6.832 7.547 8.84l6.926 2.012 2.058-.598a5.23 5.23 0 0 1 3.567-1.414c.332 0 .656.035.972.094l.332-.094ZM7.547 9.61v7.37l5.766 3.196V17.91c0-.683.277-1.25.703-1.707l.015-4.664Zm8.098 1.71-.73.22.007 1.651a5.29 5.29 0 0 1 .723-1.87m4.453 1.953a.804.804 0 0 0-.832.829v.832h1.66v-.832a.8.8 0 0 0-.828-.829m0 0" style="stroke:none;fill-rule:evenodd;fill:rgb(100%,100%,100%);fill-opacity:1"/><path d="M20.102 9.945a3.811 3.811 0 0 0-3.809 3.809v2.285c-.836 0-1.523.684-1.523 1.52v6.093c0 .84.687 1.516 1.523 1.516h7.617c.836 0 1.524-.676 1.524-1.516V17.56c0-.836-.688-1.52-1.524-1.52v-2.285a3.811 3.811 0 0 0-3.808-3.809m0 1.524a2.28 2.28 0 0 1 2.285 2.285v2.285h-4.57v-2.285a2.283 2.283 0 0 1 2.285-2.285m0 0" style="stroke:none;fill-rule:nonzero;fill:rgb(100%,100%,100%);fill-opacity:1"/></svg>