<?xml version="1.0" encoding="UTF-8"?>
<svg xmlns="http://www.w3.org/2000/svg" xmlns:xlink="http://www.w3.org/1999/xlink" width="32.978001" height="32" viewBox="0 0 32.978001 32" version="1.1">
<g id="surface1">
<path style=" stroke:none;fill-rule:nonzero;fill:rgb(19.607843%,42.352942%,89.803922%);fill-opacity:1;" d="M 16.378906 0.847656 C 16.105469 0.859375 15.835938 0.929688 15.585938 1.046875 L 4.722656 6.238281 C 4.15625 6.507812 3.742188 7.023438 3.601562 7.636719 L 0.921875 19.292969 C 0.78125 19.902344 0.925781 20.546875 1.320312 21.035156 L 8.839844 30.382812 C 9.234375 30.871094 9.832031 31.15625 10.460938 31.15625 L 22.515625 31.152344 C 23.148438 31.152344 23.746094 30.871094 24.140625 30.378906 L 31.65625 21.03125 C 32.050781 20.542969 32.199219 19.902344 32.058594 19.289062 L 29.375 7.632812 C 29.234375 7.019531 28.820312 6.503906 28.25 6.234375 L 17.386719 1.046875 C 17.074219 0.898438 16.726562 0.828125 16.378906 0.847656 M 16.378906 0.847656 "/>
<path style=" stroke:none;fill-rule:nonzero;fill:rgb(100%,100%,100%);fill-opacity:1;" d="M 16.375 0.00390625 C 16.082031 0.0195312 15.796875 0.0898438 15.535156 0.214844 L 4.070312 5.695312 C 3.46875 5.980469 3.03125 6.523438 2.882812 7.167969 L 0.0546875 19.472656 C -0.078125 20.046875 0.03125 20.648438 0.351562 21.140625 C 0.390625 21.203125 0.433594 21.257812 0.476562 21.3125 L 8.414062 31.183594 C 8.832031 31.699219 9.464844 32 10.128906 32 L 22.851562 31.996094 C 23.519531 31.996094 24.152344 31.695312 24.566406 31.179688 L 32.5 21.3125 C 32.914062 20.796875 33.070312 20.117188 32.921875 19.472656 L 30.089844 7.164062 C 29.9375 6.519531 29.503906 5.976562 28.90625 5.691406 L 17.4375 0.214844 C 17.105469 0.0585938 16.742188 -0.015625 16.375 0.00390625 M 16.378906 0.847656 C 16.726562 0.828125 17.074219 0.898438 17.386719 1.046875 L 28.25 6.234375 C 28.820312 6.507812 29.230469 7.023438 29.375 7.632812 L 32.058594 19.289062 C 32.199219 19.902344 32.050781 20.542969 31.65625 21.03125 L 24.140625 30.378906 C 23.746094 30.871094 23.148438 31.15625 22.515625 31.152344 L 10.460938 31.15625 C 9.828125 31.15625 9.230469 30.871094 8.839844 30.382812 L 1.320312 21.035156 C 0.925781 20.546875 0.78125 19.902344 0.921875 19.292969 L 3.601562 7.636719 C 3.742188 7.023438 4.15625 6.511719 4.722656 6.238281 L 15.585938 1.046875 C 15.832031 0.929688 16.105469 0.859375 16.378906 0.847656 M 12.5625 5.734375 C 12.546875 5.734375 11.984375 5.945312 11.316406 6.203125 C 10.644531 6.457031 10.074219 6.679688 10.039062 6.6875 C 10.007812 6.699219 9.980469 6.722656 9.980469 6.738281 C 9.980469 6.75 10.117188 7.109375 10.277344 7.535156 C 10.441406 7.960938 10.574219 8.324219 10.570312 8.34375 C 10.566406 8.367188 10.417969 8.433594 10.113281 8.550781 C 9.867188 8.644531 9.667969 8.730469 9.671875 8.742188 C 9.683594 8.773438 12.707031 10.125 12.753906 10.117188 C 12.789062 10.113281 12.9375 9.796875 13.476562 8.585938 C 13.851562 7.742188 14.160156 7.042969 14.160156 7.027344 C 14.160156 7.011719 14.152344 7 14.140625 7.003906 C 13.773438 7.152344 13.246094 7.339844 13.226562 7.332031 C 13.210938 7.328125 13.0625 6.964844 12.894531 6.527344 C 12.699219 6.015625 12.582031 5.734375 12.5625 5.734375 M 16.492188 9.785156 C 12.460938 9.78125 8.882812 12.371094 7.621094 16.199219 C 6.429688 19.824219 7.566406 23.8125 10.488281 26.265625 C 10.496094 26.265625 10.925781 25.839844 11.441406 25.320312 C 11.972656 24.789062 12.394531 24.347656 12.410156 24.316406 C 12.464844 24.167969 12.339844 23.894531 12.113281 23.667969 C 11.878906 23.4375 11.628906 23.320312 11.472656 23.375 C 11.429688 23.386719 11.246094 23.558594 10.964844 23.839844 C 10.71875 24.082031 10.503906 24.28125 10.484375 24.28125 C 10.445312 24.28125 10.210938 23.996094 9.96875 23.648438 C 9.40625 22.84375 8.996094 21.941406 8.769531 20.984375 C 8.691406 20.667969 8.589844 20.070312 8.605469 20.023438 C 8.613281 20.003906 8.769531 19.996094 9.289062 19.996094 C 10.019531 19.996094 10.0625 19.992188 10.148438 19.882812 C 10.238281 19.769531 10.285156 19.601562 10.292969 19.355469 C 10.304688 19.089844 10.269531 18.914062 10.179688 18.757812 C 10.089844 18.605469 10.09375 18.605469 9.3125 18.605469 C 8.933594 18.605469 8.609375 18.597656 8.589844 18.585938 C 8.566406 18.570312 8.566406 18.523438 8.597656 18.234375 C 8.738281 16.984375 9.171875 15.785156 9.863281 14.734375 C 10.019531 14.5 10.300781 14.132812 10.324219 14.132812 C 10.339844 14.132812 10.597656 14.382812 10.902344 14.683594 L 11.457031 15.234375 L 11.570312 15.222656 C 11.890625 15.191406 12.3125 14.804688 12.402344 14.464844 C 12.417969 14.410156 12.421875 14.351562 12.417969 14.292969 C 12.40625 14.246094 12.257812 14.078125 11.855469 13.675781 C 11.355469 13.175781 11.308594 13.117188 11.335938 13.085938 C 11.429688 12.96875 12.011719 12.546875 12.394531 12.316406 C 13.34375 11.738281 14.628906 11.304688 15.609375 11.226562 L 15.78125 11.214844 L 15.796875 12.847656 L 15.882812 12.929688 C 16.132812 13.164062 16.820312 13.171875 17.082031 12.945312 L 17.167969 12.871094 L 17.175781 12.050781 L 17.1875 11.230469 L 17.355469 11.234375 C 17.5625 11.238281 18.0625 11.324219 18.441406 11.421875 C 19.539062 11.699219 20.5625 12.210938 21.449219 12.917969 C 21.558594 13.007812 21.648438 13.097656 21.648438 13.117188 C 21.648438 13.136719 21.40625 13.394531 21.105469 13.695312 L 20.5625 14.238281 L 20.566406 14.359375 C 20.570312 14.722656 21.0625 15.214844 21.421875 15.21875 L 21.542969 15.21875 L 22.085938 14.675781 C 22.386719 14.378906 22.640625 14.132812 22.65625 14.132812 C 22.667969 14.132812 22.753906 14.238281 22.851562 14.363281 C 23.585938 15.355469 24.085938 16.503906 24.308594 17.71875 C 24.378906 18.128906 24.417969 18.542969 24.390625 18.578125 C 24.371094 18.601562 24.238281 18.605469 23.652344 18.605469 L 22.941406 18.605469 L 22.878906 18.65625 C 22.742188 18.773438 22.644531 19.132812 22.671875 19.40625 C 22.695312 19.625 22.761719 19.800781 22.851562 19.902344 L 22.933594 19.988281 L 23.652344 19.992188 C 24.367188 20 24.371094 20 24.371094 20.042969 C 24.371094 20.140625 24.300781 20.554688 24.234375 20.863281 C 24.003906 21.878906 23.578125 22.839844 22.980469 23.691406 C 22.734375 24.035156 22.53125 24.28125 22.492188 24.28125 C 22.476562 24.28125 22.261719 24.082031 22.019531 23.835938 C 21.519531 23.335938 21.5 23.324219 21.308594 23.382812 C 20.964844 23.480469 20.589844 23.894531 20.558594 24.210938 L 20.546875 24.320312 L 21.378906 25.171875 C 22.445312 26.257812 22.460938 26.273438 22.511719 26.246094 C 22.589844 26.203125 23.113281 25.707031 23.339844 25.457031 C 25.488281 23.128906 26.3125 19.871094 25.53125 16.796875 C 25.058594 14.980469 24.050781 13.34375 22.640625 12.101562 C 20.941406 10.609375 18.753906 9.785156 16.492188 9.785156 M 14.726562 13.640625 C 14.359375 13.640625 13.9375 13.855469 13.816406 14.101562 C 13.777344 14.1875 13.773438 14.210938 13.796875 14.28125 C 14.074219 15.015625 14.355469 15.75 14.644531 16.476562 L 15.46875 18.59375 L 15.394531 18.746094 C 15.148438 19.214844 15.242188 19.789062 15.621094 20.15625 C 16.039062 20.582031 16.695312 20.640625 17.183594 20.300781 C 17.769531 19.902344 17.886719 19.070312 17.433594 18.519531 C 17.28125 18.335938 17.128906 18.230469 16.816406 18.105469 C 16.769531 18.085938 16.671875 17.847656 15.933594 15.945312 C 15.476562 14.769531 15.089844 13.785156 15.070312 13.757812 C 15.019531 13.671875 14.925781 13.636719 14.726562 13.640625 M 10.199219 25.976562 C 9.835938 25.667969 9.109375 24.8125 8.738281 24.261719 C 8.105469 23.316406 7.574219 22.011719 7.332031 20.789062 C 7.160156 19.921875 7.175781 18.175781 7.363281 17.296875 C 8.121094 13.742188 10.714844 11.007812 14.171875 10.117188 C 16.757812 9.453125 19.445312 9.914062 21.703125 11.417969 C 22.390625 11.875 23.570312 13.015625 24.023438 13.664062 C 25.789062 16.179688 26.253906 19.226562 25.300781 22.078125 C 24.859375 23.394531 24.167969 24.527344 23.152344 25.578125 L 22.507812 26.25 L 21.554688 25.296875 C 20.992188 24.738281 20.597656 24.289062 20.597656 24.21875 C 20.597656 23.914062 21.105469 23.402344 21.40625 23.402344 C 21.46875 23.402344 21.734375 23.609375 21.996094 23.863281 C 22.550781 24.402344 22.503906 24.410156 23.035156 23.640625 C 23.730469 22.628906 24.183594 21.472656 24.371094 20.257812 L 24.414062 19.984375 L 22.921875 19.984375 L 22.816406 19.78125 C 22.695312 19.542969 22.714844 18.898438 22.851562 18.734375 C 22.917969 18.652344 23.078125 18.628906 23.667969 18.628906 L 24.402344 18.628906 L 24.402344 18.378906 C 24.402344 17.726562 24.03125 16.402344 23.613281 15.566406 C 23.394531 15.128906 22.738281 14.117188 22.675781 14.117188 C 22.652344 14.117188 22.378906 14.367188 22.070312 14.671875 C 21.578125 15.164062 21.492188 15.222656 21.34375 15.1875 C 21.082031 15.121094 20.671875 14.714844 20.628906 14.480469 C 20.59375 14.292969 20.636719 14.226562 21.136719 13.695312 C 21.769531 13.023438 21.777344 13.097656 21.007812 12.566406 C 20.042969 11.898438 18.613281 11.34375 17.589844 11.238281 L 17.199219 11.195312 L 17.160156 12.019531 C 17.132812 12.621094 17.09375 12.871094 17.023438 12.941406 C 16.882812 13.085938 16.347656 13.113281 16.0625 12.996094 L 15.824219 12.894531 L 15.824219 11.210938 L 15.582031 11.214844 C 14.953125 11.21875 13.449219 11.6875 12.667969 12.128906 C 12.175781 12.402344 11.308594 13.023438 11.308594 13.101562 C 11.308594 13.136719 11.554688 13.417969 11.859375 13.726562 C 12.355469 14.234375 12.40625 14.308594 12.367188 14.472656 C 12.308594 14.703125 11.894531 15.117188 11.660156 15.175781 C 11.496094 15.214844 11.429688 15.167969 10.917969 14.660156 C 10.589844 14.335938 10.324219 14.117188 10.28125 14.144531 C 10.167969 14.214844 9.605469 15.074219 9.378906 15.523438 C 8.964844 16.34375 8.449219 18.246094 8.558594 18.539062 C 8.585938 18.609375 8.753906 18.628906 9.300781 18.628906 C 10.082031 18.628906 10.167969 18.667969 10.246094 19.023438 C 10.269531 19.132812 10.269531 19.351562 10.246094 19.507812 C 10.183594 19.925781 10.058594 19.984375 9.261719 19.984375 C 8.492188 19.984375 8.523438 19.941406 8.695312 20.761719 C 8.949219 21.960938 9.523438 23.15625 10.332031 24.175781 L 10.457031 24.332031 L 10.972656 23.867188 C 11.269531 23.601562 11.542969 23.402344 11.621094 23.402344 C 11.796875 23.402344 12.238281 23.800781 12.339844 24.046875 C 12.414062 24.230469 12.40625 24.257812 12.09375 24.613281 C 11.914062 24.816406 11.484375 25.265625 11.136719 25.609375 L 10.5 26.234375 Z M 10.199219 25.976562 "/>
</g>
</svg>
