<svg role="img" viewBox="0 0 32.978 32" xmlns="http://www.w3.org/2000/svg"><path d="M16.445.848a2.085 2.085 0 0 0-.797.199L4.79 6.238c-.57.27-.984.785-1.125 1.399L.984 19.293a2.046 2.046 0 0 0 .282 1.578c.039.055.078.11.12.164l7.516 9.348c.395.488.993.773 1.625.773l12.055-.004c.633 0 1.23-.28 1.625-.773l7.512-9.348a2.045 2.045 0 0 0 .402-1.742L29.437 7.633a2.063 2.063 0 0 0-1.125-1.399L17.454 1.047a2.082 2.082 0 0 0-1.008-.2m0 0" style="stroke:none;fill-rule:nonzero;fill:rgb(19.607843%,42.352942%,89.803922%);fill-opacity:1"/><path d="M16.438.004c-.29.016-.575.086-.836.21L4.132 5.696A2.166 2.166 0 0 0 2.95 7.168L.121 19.473a2.148 2.148 0 0 0 .422 1.84l7.934 9.87A2.206 2.206 0 0 0 10.19 32l12.727-.004c.668 0 1.297-.3 1.715-.816l7.93-9.867a2.16 2.16 0 0 0 .425-1.84L30.156 7.164a2.18 2.18 0 0 0-1.187-1.473L17.504.215c-.332-.156-.7-.23-1.067-.211m.007.844c.348-.02.692.05 1.008.199l10.86 5.187c.57.274.984.79 1.125 1.399l2.683 11.656a2.042 2.042 0 0 1-.402 1.742l-7.512 9.348a2.065 2.065 0 0 1-1.625.773l-12.055.004c-.632 0-1.23-.285-1.625-.773l-7.515-9.348a2.046 2.046 0 0 1-.402-1.742l2.68-11.656a2.063 2.063 0 0 1 1.124-1.399l10.86-5.191c.25-.117.519-.188.796-.2m0 0" style="stroke:none;fill-rule:nonzero;fill:rgb(100%,100%,100%);fill-opacity:1"/><path d="M8.053 5.13h6.525v4.582H8.053Zm0 0" style="fill:none;stroke-width:0.529146;stroke-linecap:square;stroke-linejoin:round;stroke:rgb(100%,100%,100%);stroke-opacity:1;stroke-dasharray:1.587438,1.587438;stroke-dashoffset:0.492105;stroke-miterlimit:10" transform="translate(-1.324 -.15)scale(1.82853)"/><path d="M6.515 6.54h6.524v4.584H6.515Zm0 0" style="fill-rule:evenodd;fill:rgb(19.607843%,42.352942%,89.803922%);fill-opacity:1;stroke-width:0.529146;stroke-linecap:square;stroke-linejoin:round;stroke:rgb(100%,100%,100%);stroke-opacity:1;stroke-dasharray:1.587438,1.587438;stroke-dashoffset:0.703764;stroke-miterlimit:10" transform="translate(-1.324 -.15)scale(1.82853)"/><path d="M4.975 7.952h6.526v4.582H4.975Zm0 0" style="fill-rule:evenodd;fill:rgb(100%,100%,100%);fill-opacity:1;stroke-width:0.529167;stroke-linecap:butt;stroke-linejoin:round;stroke:rgb(100%,100%,100%);stroke-opacity:1;stroke-miterlimit:10" transform="translate(-1.324 -.15)scale(1.82853)"/><path d="M8.75 16.719c0-.785 2.234-1.422 4.988-1.422 2.758 0 4.992.637 4.992 1.422 0 .785-2.234 1.422-4.992 1.422-2.754 0-4.988-.637-4.988-1.422m0 0" style="stroke:none;fill-rule:evenodd;fill:rgb(100%,100%,100%);fill-opacity:1"/><path d="M10.967 9.225c0 .43-1.222.778-2.73.778-1.506 0-2.728-.348-2.728-.778 0-.43 1.222-.777 2.728-.777 1.508 0 2.73.348 2.73.777v2.104c0 .43-1.222.778-2.73.778-1.506 0-2.728-.348-2.728-.778V9.225" style="fill:none;stroke-width:0.529167;stroke-linecap:butt;stroke-linejoin:round;stroke:rgb(19.607843%,42.352942%,89.803922%);stroke-opacity:1;stroke-miterlimit:10" transform="translate(-1.324 -.15)scale(1.82853)"/></svg>