<?xml version="1.0" encoding="UTF-8"?>
<svg xmlns="http://www.w3.org/2000/svg" xmlns:xlink="http://www.w3.org/1999/xlink" width="32.978184" height="32" viewBox="0 0 32.978184 32" version="1.1">
<g id="surface1">
<path style=" stroke:none;fill-rule:nonzero;fill:rgb(19.607843%,42.352942%,89.803922%);fill-opacity:1;" d="M 16.445312 0.847656 C 16.167969 0.859375 15.898438 0.929688 15.648438 1.046875 L 4.789062 6.238281 C 4.21875 6.507812 3.804688 7.023438 3.664062 7.636719 L 0.984375 19.292969 C 0.859375 19.835938 0.960938 20.402344 1.265625 20.871094 C 1.304688 20.925781 1.34375 20.980469 1.386719 21.035156 L 8.902344 30.382812 C 9.296875 30.871094 9.894531 31.15625 10.527344 31.15625 L 22.582031 31.152344 C 23.214844 31.152344 23.8125 30.871094 24.207031 30.378906 L 31.71875 21.03125 C 32.113281 20.542969 32.261719 19.898438 32.121094 19.289062 L 29.4375 7.632812 C 29.296875 7.019531 28.882812 6.507812 28.3125 6.234375 L 17.453125 1.046875 C 17.140625 0.898438 16.792969 0.828125 16.445312 0.847656 Z M 16.445312 0.847656 "/>
<path style=" stroke:none;fill-rule:nonzero;fill:rgb(100%,100%,100%);fill-opacity:1;" d="M 16.4375 0.00390625 C 16.148438 0.0195312 15.863281 0.0898438 15.601562 0.214844 L 4.132812 5.695312 C 3.53125 5.980469 3.097656 6.523438 2.949219 7.167969 L 0.121094 19.472656 C -0.0117188 20.046875 0.09375 20.648438 0.417969 21.140625 C 0.457031 21.203125 0.496094 21.257812 0.542969 21.3125 L 8.476562 31.183594 C 8.894531 31.699219 9.523438 32 10.191406 32 L 22.917969 31.996094 C 23.585938 31.996094 24.214844 31.695312 24.632812 31.179688 L 32.5625 21.3125 C 32.980469 20.792969 33.136719 20.117188 32.988281 19.472656 L 30.15625 7.164062 C 30.007812 6.519531 29.570312 5.980469 28.96875 5.691406 L 17.503906 0.214844 C 17.171875 0.0585938 16.804688 -0.015625 16.4375 0.00390625 Z M 16.445312 0.847656 C 16.792969 0.828125 17.136719 0.898438 17.453125 1.046875 L 28.3125 6.234375 C 28.882812 6.507812 29.296875 7.023438 29.4375 7.632812 L 32.121094 19.289062 C 32.261719 19.902344 32.113281 20.542969 31.71875 21.03125 L 24.207031 30.378906 C 23.8125 30.871094 23.214844 31.15625 22.582031 31.152344 L 10.527344 31.15625 C 9.894531 31.15625 9.296875 30.871094 8.902344 30.382812 L 1.386719 21.035156 C 1.34375 20.984375 1.304688 20.929688 1.265625 20.871094 C 0.960938 20.402344 0.859375 19.835938 0.984375 19.292969 L 3.664062 7.636719 C 3.804688 7.023438 4.21875 6.511719 4.789062 6.238281 L 15.648438 1.046875 C 15.898438 0.929688 16.167969 0.859375 16.445312 0.847656 Z M 16.445312 0.847656 "/>
<path style="fill:none;stroke-width:0.529146;stroke-linecap:square;stroke-linejoin:round;stroke:rgb(100%,100%,100%);stroke-opacity:1;stroke-dasharray:1.587438,1.587438;stroke-dashoffset:0.492105;stroke-miterlimit:10;" d="M 8.053414 5.129892 L 14.577602 5.129892 L 14.577602 9.712205 L 8.053414 9.712205 Z M 8.053414 5.129892 " transform="matrix(1.828532,0,0,1.828532,-1.323581,-0.149703)"/>
<path style="fill-rule:evenodd;fill:rgb(19.607843%,42.352942%,89.803922%);fill-opacity:1;stroke-width:0.529146;stroke-linecap:square;stroke-linejoin:round;stroke:rgb(100%,100%,100%);stroke-opacity:1;stroke-dasharray:1.587438,1.587438;stroke-dashoffset:0.703764;stroke-miterlimit:10;" d="M 6.515295 6.539835 L 13.039483 6.539835 L 13.039483 11.124284 L 6.515295 11.124284 Z M 6.515295 6.539835 " transform="matrix(1.828532,0,0,1.828532,-1.323581,-0.149703)"/>
<path style="fill-rule:evenodd;fill:rgb(100%,100%,100%);fill-opacity:1;stroke-width:0.529167;stroke-linecap:butt;stroke-linejoin:round;stroke:rgb(100%,100%,100%);stroke-opacity:1;stroke-miterlimit:10;" d="M 4.975039 7.951913 L 11.501364 7.951913 L 11.501364 12.534227 L 4.975039 12.534227 Z M 4.975039 7.951913 " transform="matrix(1.828532,0,0,1.828532,-1.323581,-0.149703)"/>
<path style=" stroke:none;fill-rule:evenodd;fill:rgb(100%,100%,100%);fill-opacity:1;" d="M 8.75 16.71875 C 8.75 15.933594 10.984375 15.296875 13.738281 15.296875 C 16.496094 15.296875 18.730469 15.933594 18.730469 16.71875 C 18.730469 17.503906 16.496094 18.140625 13.738281 18.140625 C 10.984375 18.140625 8.75 17.503906 8.75 16.71875 Z M 8.75 16.71875 "/>
<path style="fill:none;stroke-width:0.529167;stroke-linecap:butt;stroke-linejoin:round;stroke:rgb(19.607843%,42.352942%,89.803922%);stroke-opacity:1;stroke-miterlimit:10;" d="M 10.967295 9.225134 C 10.967295 9.654526 9.745345 10.002739 8.237133 10.002739 C 6.731058 10.002739 5.509108 9.654526 5.509108 9.225134 C 5.509108 8.795743 6.731058 8.447529 8.237133 8.447529 C 9.745345 8.447529 10.967295 8.795743 10.967295 9.225134 L 10.967295 11.329367 C 10.967295 11.758758 9.745345 12.106971 8.237133 12.106971 C 6.731058 12.106971 5.509108 11.758758 5.509108 11.329367 L 5.509108 9.225134 " transform="matrix(1.828532,0,0,1.828532,-1.323581,-0.149703)"/>
</g>
</svg>
