<svg role="img" viewBox="0 0 32.978 32" xmlns="http://www.w3.org/2000/svg"><path d="M16.379.848a2.066 2.066 0 0 0-.793.199L4.723 6.238a2.06 2.06 0 0 0-1.121 1.399L.922 19.293a2.046 2.046 0 0 0 .398 1.742l7.52 9.348c.394.488.992.773 1.62.773l12.056-.004c.632 0 1.23-.28 1.625-.773l7.515-9.348a2.045 2.045 0 0 0 .403-1.742L29.375 7.633a2.063 2.063 0 0 0-1.125-1.399L17.387 1.047a2.082 2.082 0 0 0-1.008-.2m0 0" style="stroke:none;fill-rule:nonzero;fill:rgb(19.607843%,42.352942%,89.803922%);fill-opacity:1"/><path d="M16.375.004a2.22 2.22 0 0 0-.84.21L4.07 5.696a2.171 2.171 0 0 0-1.187 1.473L.055 19.473a2.164 2.164 0 0 0 .297 1.668c.039.062.082.117.125.172l7.937 9.87A2.2 2.2 0 0 0 10.13 32l12.723-.004c.668 0 1.3-.3 1.714-.816l7.934-9.867a2.17 2.17 0 0 0 .422-1.84L30.09 7.164a2.185 2.185 0 0 0-1.184-1.473L17.438.215a2.206 2.206 0 0 0-1.063-.211m.004.844c.348-.02.695.05 1.008.199L28.25 6.234c.57.274.98.79 1.125 1.399l2.684 11.656a2.042 2.042 0 0 1-.403 1.742l-7.515 9.348a2.065 2.065 0 0 1-1.625.773l-12.055.004c-.633 0-1.23-.285-1.621-.773l-7.52-9.348a2.046 2.046 0 0 1-.398-1.742l2.68-11.656a2.068 2.068 0 0 1 1.12-1.399l10.864-5.191c.246-.117.52-.188.793-.2m0 0" style="stroke:none;fill-rule:nonzero;fill:rgb(100%,100%,100%);fill-opacity:1"/><path d="M8.094 17.102c0 .687 3.847 1.246 8.594 1.246 4.742 0 8.59-.559 8.59-1.246v3.375c0 .687-3.848 1.246-8.59 1.246-4.747 0-8.594-.559-8.594-1.246Zm0 0c0-.688 3.847-1.247 8.594-1.247 4.742 0 8.59.56 8.59 1.247s-3.848 1.246-8.59 1.246c-4.747 0-8.594-.559-8.594-1.246m0 0" style="stroke:none;fill-rule:evenodd;fill:rgb(19.607843%,42.352942%,89.803922%);fill-opacity:1"/><path d="M5.419 8.608c0 .379 2.104.684 4.7.684 2.593 0 4.697-.305 4.697-.684v1.846c0 .376-2.104.682-4.697.682-2.596 0-4.7-.306-4.7-.682Zm0 0" style="fill-rule:evenodd;fill:rgb(100%,100%,100%);fill-opacity:1;stroke-width:0.207574;stroke-linecap:square;stroke-linejoin:miter;stroke:rgb(93.333334%,93.333334%,93.333334%);stroke-opacity:1;stroke-miterlimit:10" transform="translate(-1.815 -2.147)scale(1.82853)"/><path d="M8.094 12.879c0-.691 3.847-1.246 8.594-1.246 4.742 0 8.59.555 8.59 1.246 0 .687-3.848 1.246-8.59 1.246-4.747 0-8.594-.559-8.594-1.246m0-4.672c0-.691 3.847-1.25 8.594-1.25 4.742 0 8.59.559 8.59 1.25 0 .688-3.848 1.246-8.59 1.246-4.747 0-8.594-.558-8.594-1.246m-.196 1.336c0 .687 3.848 1.246 8.59 1.246 4.746 0 8.59-.559 8.59-1.246v3.371c0 .691-3.844 1.246-8.59 1.246-4.742 0-8.59-.555-8.59-1.246Zm0 0" style="stroke:none;fill-rule:evenodd;fill:rgb(19.607843%,42.352942%,89.803922%);fill-opacity:1"/><path d="M14.815 10.882c0 .376-2.102.681-4.697.681-2.594 0-4.698-.305-4.698-.681 0-.379 2.104-.682 4.698-.682 2.595 0 4.697.303 4.697.682v1.843c0 .378-2.102.684-4.697.684-2.594 0-4.698-.306-4.698-.684v-1.843" style="fill:none;stroke-width:0.415;stroke-linecap:butt;stroke-linejoin:round;stroke:rgb(100%,100%,100%);stroke-opacity:1;stroke-dasharray:1.66,0.415;stroke-miterlimit:10" transform="translate(-2.012 -.811)scale(1.82853)"/><path d="M14.815 7.863c0 .378-2.102.684-4.697.684-2.594 0-4.698-.306-4.698-.684 0-.376 2.104-.682 4.698-.682 2.595 0 4.697.306 4.697.682v1.846c0 .376-2.102.681-4.697.681-2.594 0-4.698-.305-4.698-.681V7.863" style="fill:none;stroke-width:0.415;stroke-linecap:butt;stroke-linejoin:round;stroke:rgb(100%,100%,100%);stroke-opacity:1;stroke-miterlimit:10" transform="translate(-2.012 -.811)scale(1.82853)"/><path d="M14.815 5.663c0 .376-2.102.681-4.697.681-2.594 0-4.698-.305-4.698-.681 0-.379 2.104-.684 4.698-.684 2.595 0 4.697.305 4.697.684v1.843c0 .378-2.102.682-4.697.682-2.594 0-4.698-.304-4.698-.682V5.663" style="fill:none;stroke-width:0.415149;stroke-linecap:butt;stroke-linejoin:round;stroke:rgb(100%,100%,100%);stroke-opacity:1;stroke-dasharray:1.660594,0.415149;stroke-miterlimit:10" transform="translate(-2.012 -.811)scale(1.82853)"/></svg>