<?xml version="1.0" encoding="UTF-8"?>
<svg xmlns="http://www.w3.org/2000/svg" xmlns:xlink="http://www.w3.org/1999/xlink" width="32.978001" height="32" viewBox="0 0 32.978001 32" version="1.1">
<g id="surface1">
<path style=" stroke:none;fill-rule:nonzero;fill:rgb(19.607843%,42.352942%,89.803922%);fill-opacity:1;" d="M 16.378906 0.847656 C 16.105469 0.859375 15.835938 0.929688 15.585938 1.046875 L 4.722656 6.238281 C 4.15625 6.507812 3.742188 7.023438 3.601562 7.636719 L 0.921875 19.292969 C 0.78125 19.902344 0.925781 20.546875 1.320312 21.035156 L 8.839844 30.382812 C 9.234375 30.871094 9.832031 31.15625 10.460938 31.15625 L 22.515625 31.152344 C 23.148438 31.152344 23.746094 30.871094 24.140625 30.378906 L 31.65625 21.03125 C 32.050781 20.542969 32.199219 19.902344 32.058594 19.289062 L 29.375 7.632812 C 29.234375 7.019531 28.820312 6.503906 28.25 6.234375 L 17.386719 1.046875 C 17.074219 0.898438 16.726562 0.828125 16.378906 0.847656 M 16.378906 0.847656 "/>
<path style=" stroke:none;fill-rule:nonzero;fill:rgb(100%,100%,100%);fill-opacity:1;" d="M 16.375 0.00390625 C 16.082031 0.0195312 15.796875 0.0898438 15.535156 0.214844 L 4.070312 5.695312 C 3.46875 5.980469 3.03125 6.523438 2.882812 7.167969 L 0.0546875 19.472656 C -0.078125 20.046875 0.03125 20.648438 0.351562 21.140625 C 0.390625 21.203125 0.433594 21.257812 0.476562 21.3125 L 8.414062 31.183594 C 8.832031 31.699219 9.464844 32 10.128906 32 L 22.851562 31.996094 C 23.519531 31.996094 24.152344 31.695312 24.566406 31.179688 L 32.5 21.3125 C 32.914062 20.796875 33.070312 20.117188 32.921875 19.472656 L 30.089844 7.164062 C 29.9375 6.519531 29.503906 5.976562 28.90625 5.691406 L 17.4375 0.214844 C 17.105469 0.0585938 16.742188 -0.015625 16.375 0.00390625 M 16.378906 0.847656 C 16.726562 0.828125 17.074219 0.898438 17.386719 1.046875 L 28.25 6.234375 C 28.820312 6.507812 29.230469 7.023438 29.375 7.632812 L 32.058594 19.289062 C 32.199219 19.902344 32.050781 20.542969 31.65625 21.03125 L 24.140625 30.378906 C 23.746094 30.871094 23.148438 31.15625 22.515625 31.152344 L 10.460938 31.15625 C 9.828125 31.15625 9.230469 30.871094 8.839844 30.382812 L 1.320312 21.035156 C 0.925781 20.546875 0.78125 19.902344 0.921875 19.292969 L 3.601562 7.636719 C 3.742188 7.023438 4.15625 6.511719 4.722656 6.238281 L 15.585938 1.046875 C 15.832031 0.929688 16.105469 0.859375 16.378906 0.847656 M 16.457031 7.015625 C 16.203125 7.007812 9.152344 10.472656 9.058594 10.652344 C 8.835938 11.078125 7.230469 18.480469 7.328125 18.640625 C 7.382812 18.734375 8.539062 20.199219 9.894531 21.894531 L 12.363281 24.980469 L 16.425781 24.984375 L 20.488281 24.984375 L 23.070312 21.757812 L 25.65625 18.53125 L 24.75 14.5625 C 24.253906 12.382812 23.808594 10.5625 23.761719 10.519531 C 23.636719 10.394531 16.59375 7.019531 16.457031 7.015625 M 16.816406 8.746094 L 18.476562 9.230469 L 16.816406 9.710938 L 15.152344 9.230469 Z M 15.152344 9.414062 L 16.707031 9.875 L 16.703125 12.039062 L 15.152344 11.183594 Z M 18.476562 9.414062 L 18.476562 11.183594 L 16.929688 12.039062 L 16.921875 9.875 Z M 14.457031 12.367188 L 16.121094 12.847656 L 14.457031 13.332031 L 12.796875 12.847656 Z M 18.496094 12.367188 L 20.160156 12.847656 L 18.496094 13.332031 L 16.835938 12.847656 Z M 12.796875 13.03125 L 14.351562 13.496094 L 14.34375 15.660156 L 12.796875 14.800781 Z M 16.121094 13.03125 L 16.121094 14.800781 L 14.570312 15.660156 L 14.566406 13.496094 Z M 16.835938 13.03125 L 18.390625 13.496094 L 18.382812 15.660156 L 16.835938 14.800781 Z M 20.160156 13.03125 L 20.160156 14.800781 L 18.609375 15.660156 L 18.601562 13.496094 Z M 13.851562 15.804688 C 14.347656 15.820312 13.964844 16.320312 14.523438 16.585938 C 15.125 16.871094 15.246094 16.15625 15.625 16.703125 C 16 17.246094 15.289062 17.109375 15.34375 17.769531 C 15.394531 18.433594 16.078125 18.183594 15.792969 18.78125 C 15.507812 19.382812 15.269531 18.695312 14.722656 19.070312 C 14.175781 19.449219 14.734375 19.914062 14.074219 19.964844 C 13.414062 20.019531 13.886719 19.472656 13.289062 19.1875 C 12.691406 18.902344 12.566406 19.617188 12.1875 19.070312 C 11.8125 18.523438 12.527344 18.660156 12.472656 18 C 12.417969 17.339844 11.738281 17.589844 12.023438 16.988281 C 12.308594 16.390625 12.542969 17.078125 13.089844 16.699219 C 13.636719 16.324219 13.078125 15.859375 13.742188 15.804688 C 13.78125 15.804688 13.820312 15.800781 13.851562 15.804688 M 18.121094 16.464844 C 19.007812 16.492188 18.148438 17.320312 18.957031 17.683594 C 19.761719 18.042969 19.8125 16.851562 20.417969 17.496094 C 21.027344 18.136719 19.832031 18.117188 20.148438 18.941406 C 20.464844 19.769531 21.339844 18.960938 21.316406 19.84375 C 21.289062 20.726562 20.460938 19.871094 20.097656 20.679688 C 19.738281 21.484375 20.929688 21.53125 20.289062 22.140625 C 19.644531 22.746094 19.664062 21.554688 18.839844 21.871094 C 18.011719 22.183594 18.824219 23.0625 17.9375 23.035156 C 17.054688 23.011719 17.910156 22.183594 17.105469 21.820312 C 16.296875 21.460938 16.25 22.652344 15.640625 22.007812 C 15.035156 21.367188 16.226562 21.386719 15.910156 20.558594 C 15.597656 19.734375 14.71875 20.542969 14.746094 19.660156 C 14.769531 18.777344 15.597656 19.632812 15.960938 18.824219 C 16.320312 18.019531 15.128906 17.972656 15.773438 17.363281 C 16.414062 16.757812 16.394531 17.949219 17.222656 17.632812 C 18.046875 17.316406 17.238281 16.441406 18.121094 16.464844 M 13.890625 16.929688 C 13.535156 16.917969 13.203125 17.101562 13.019531 17.40625 C 12.839844 17.710938 12.839844 18.09375 13.019531 18.398438 C 13.203125 18.703125 13.535156 18.886719 13.890625 18.875 C 14.414062 18.859375 14.832031 18.425781 14.832031 17.902344 C 14.832031 17.378906 14.414062 16.945312 13.890625 16.929688 M 18.03125 17.808594 C 16.957031 17.808594 16.085938 18.675781 16.085938 19.75 C 16.085938 20.824219 16.957031 21.695312 18.03125 21.695312 C 19.085938 21.671875 19.929688 20.808594 19.929688 19.75 C 19.929688 18.695312 19.085938 17.832031 18.03125 17.808594 M 18.03125 17.808594 "/>
</g>
</svg>
