<svg role="img" viewBox="0 0 33 32" xmlns="http://www.w3.org/2000/svg"><path d="M15.898 0c-.285.02-.566.094-.824.219L3.934 5.523A2.114 2.114 0 0 0 2.78 6.957L.055 18.895a2.054 2.054 0 0 0 .3 1.628c.04.055.079.114.118.168l7.699 9.57c.406.5 1.02.786 1.664.786h12.348c.644 0 1.257-.3 1.664-.793l7.691-9.574c.406-.5.555-1.16.402-1.785L29.195 6.953a2.121 2.121 0 0 0-1.148-1.43L16.922.22A2.196 2.196 0 0 0 15.887 0Zm0 0" style="stroke:none;fill-rule:nonzero;fill:rgb(19.607843%,42.352942%,89.803922%);fill-opacity:1"/><path d="M16 4.066a.708.708 0 0 0-.656.743v.187c.02.211.05.422.094.633.058.398.082.805.066 1.207a.777.777 0 0 1-.219.348l-.015.28a8.592 8.592 0 0 0-5.555 2.668l-.242-.167a.534.534 0 0 1-.395-.04 6.089 6.089 0 0 1-.894-.812 7.001 7.001 0 0 0-.438-.465l-.148-.117a.803.803 0 0 0-.465-.176.65.65 0 0 0-.531.239.709.709 0 0 0 .164.98l.14.102c.176.117.36.226.551.324.356.195.691.43.996.7a.723.723 0 0 1 .137.382l.215.2a8.613 8.613 0 0 0-1.356 6.007l-.281.078a.916.916 0 0 1-.285.29c-.39.1-.79.167-1.195.195a5.896 5.896 0 0 0-.641.05l-.176.04h-.02a.67.67 0 0 0-.386 1.132.67.67 0 0 0 .683.164h.012l.18-.02a4.82 4.82 0 0 0 .6-.218 6.591 6.591 0 0 1 1.16-.34c.137.008.27.055.383.137l.297-.05a8.662 8.662 0 0 0 3.84 4.8l-.121.258a.648.648 0 0 1 .059.375 6.176 6.176 0 0 1-.602 1.09c-.129.171-.25.347-.36.535l-.081.18a.672.672 0 0 0 .015.699c.14.21.383.328.633.3a.674.674 0 0 0 .555-.433l.082-.168c.074-.2.14-.406.191-.602.176-.437.274-.906.516-1.195a.563.563 0 0 1 .285-.14l.148-.274a8.608 8.608 0 0 0 6.145.015l.137.258c.132.02.257.094.34.203.187.36.34.735.453 1.122.054.207.117.41.195.609l.082.172c.09.234.305.398.555.43a.67.67 0 0 0 .632-.301.663.663 0 0 0 .016-.7l-.086-.18a5.505 5.505 0 0 0-.36-.53 6.883 6.883 0 0 1-.597-1.06.51.51 0 0 1 .067-.398 2.047 2.047 0 0 1-.11-.269 8.664 8.664 0 0 0 3.82-4.82l.286.05a.522.522 0 0 1 .37-.136 7.5 7.5 0 0 1 1.165.34c.195.097.394.164.597.23.047.012.118.023.172.035h.012a.67.67 0 0 0 .684-.164.672.672 0 0 0-.387-1.133l-.195-.047a5.817 5.817 0 0 0-.637-.046 6.162 6.162 0 0 1-1.195-.2.76.76 0 0 1-.29-.289l-.269-.078a8.631 8.631 0 0 0-1.387-5.992l.239-.219a.505.505 0 0 1 .125-.375 6.27 6.27 0 0 1 .988-.699c.191-.094.375-.203.55-.32l.149-.117a.675.675 0 0 0 .313-.645.672.672 0 0 0-1.145-.398l-.145.117a5.97 5.97 0 0 0-.437.465 6.232 6.232 0 0 1-.875.824.741.741 0 0 1-.402.043l-.254.18a8.734 8.734 0 0 0-5.535-2.669c0-.101-.012-.25-.012-.296a.537.537 0 0 1-.219-.332 6.247 6.247 0 0 1 .074-1.207c.043-.2.075-.418.094-.633v-.2a.708.708 0 0 0-.656-.742Zm-.836 5.164-.2 3.493h-.015a.59.59 0 0 1-.332.504.561.561 0 0 1-.597-.051l-2.864-2.031a6.832 6.832 0 0 1 4.008-1.915m1.668 0a6.968 6.968 0 0 1 4 1.926l-2.836 2.016a.588.588 0 0 1-.953-.453Zm-6.719 3.227 2.621 2.34v.015a.588.588 0 0 1-.23 1.008v.008l-3.363.969a6.853 6.853 0 0 1 .976-4.34Zm11.75 0a6.996 6.996 0 0 1 1.004 4.328l-3.367-.969v-.015a.582.582 0 0 1-.418-.434.589.589 0 0 1 .188-.574l2.601-2.328Zm-6.402 2.52h1.074l.652.832-.234 1.039-.965.465-.965-.465-.226-1.04Zm3.434 2.84a.4.4 0 0 1 .136 0l3.465.581a6.79 6.79 0 0 1-2.773 3.493l-1.34-3.243a.585.585 0 0 1 .043-.539.576.576 0 0 1 .465-.277Zm-5.82.015a.584.584 0 0 1 .53.816v.012l-1.332 3.219a6.886 6.886 0 0 1-2.757-3.457l3.437-.582a.549.549 0 0 1 .113 0Zm2.902 1.398a.597.597 0 0 1 .539.31h.011l1.696 3.054-.68.199a6.91 6.91 0 0 1-3.758-.191l1.703-3.059a.585.585 0 0 1 .5-.293Zm0 0" style="fill-rule:nonzero;fill:rgb(100%,100%,100%);fill-opacity:1;stroke-width:0.11;stroke-linecap:round;stroke-linejoin:round;stroke:rgb(100%,100%,100%);stroke-opacity:1;stroke-miterlimit:4"/></svg>