<svg xmlns="http://www.w3.org/2000/svg" width="33" height="32" stroke="#000" stroke-linecap="round" stroke-linejoin="round" fill="#fff" fill-rule="nonzero"><path d="M15.8975.0017a2.141 2.141 0 0 0-.8229.218L3.9319 5.5246a2.11 2.11 0 0 0-1.1498 1.4317L.0546 18.8949a2.06 2.06 0 0 0 .3 1.6267q.057.087.12.168l7.6984 9.572a2.13 2.13 0 0 0 1.6617.7839h12.3475c.6459.001 1.2578-.3 1.6637-.7929l7.6944-9.574c.4039-.4999.5549-1.1598.4-1.7857L29.1948 6.9543c-.145-.6278-.5699-1.1547-1.1498-1.4317L16.9203.2207c-.3206-.1581-.6757-.2334-1.0328-.219z" stroke="none" fill="#326ce5"/><path d="M15.9994 4.0669a.705.705 0 0 0-.6548.7399v.1879a5.626 5.626 0 0 0 .0919.6329c.0614.4001.0835.8053.066 1.2097a.73.73 0 0 1-.2179.345l-.015.2819c-.4048.0339-.8067.096-1.2028.186a8.562 8.562 0 0 0-4.3531 2.4845l-.24-.17c-.1319.04-.2739.025-.3949-.04-.3245-.2402-.6249-.5114-.8968-.8098a5.531 5.531 0 0 0-.4369-.4649l-.148-.118c-.1319-.1058-.294-.167-.4629-.175a.64.64 0 0 0-.5309.236c-.2259.3169-.152.7558.164.9828l.138.1a5.552 5.552 0 0 0 .5518.3229c.3566.1972.6911.4318.9978.6999a.739.739 0 0 1 .133.3839l.218.1999a8.619 8.619 0 0 0-1.3578 6.0048l-.2799.08c-.073.116-.17.215-.2859.288a6.227 6.227 0 0 1-1.1938.1969 5.593 5.593 0 0 0-.6399.05l-.1769.04h-.02a.67.67 0 0 0-.387 1.1318.67.67 0 0 0 .6839.1649h.013l.18-.02c.2029-.0599.4029-.1339.5979-.2179a6.233 6.233 0 0 1 1.1617-.3399c.1375.008.2699.0548.3819.1349l.3-.05c.6498 2.0166 2.0156 3.7253 3.8392 4.8021l-.122.2549a.667.667 0 0 1 .06.3759c-.1649.382-.3669.7479-.6029 1.0918-.1294.1706-.2489.3485-.3579.5329l-.085.18a.67.67 0 0 0 .6499 1.0008.67.67 0 0 0 .5529-.4319l.083-.17c.076-.2.1399-.4039.1919-.5999.177-.4369.273-.9058.5149-1.1957a.539.539 0 0 1 .286-.14l.1499-.273a8.618 8.618 0 0 0 6.1448.015l.133.255c.1359.0207.2582.0944.3399.2049a6.295 6.295 0 0 1 .4559 1.1198 5.556 5.556 0 0 0 .194.6109l.083.17c.0889.2357.3027.4016.5532.4292s.4952-.0876.6335-.2983a.67.67 0 0 0 .016-.7008l-.087-.18a5.516 5.516 0 0 0-.3579-.5309 7.072 7.072 0 0 1-.5999-1.0568.52.52 0 0 1 .068-.3999c-.0426-.0872-.0797-.177-.111-.2689a8.673 8.673 0 0 0 3.8223-4.8191l.2839.05a.53.53 0 0 1 .3729-.1379c.3961.0808.7847.1945 1.1618.3399.195.1.3949.166.5979.2299.048.013.118.024.1719.037h.013c.2407.0778.5046.0133.6823-.1665a.67.67 0 0 0-.3853-1.1302l-.194-.046a5.591 5.591 0 0 0-.6399-.05c-.4034-.0259-.8033-.0919-1.1937-.1969-.1207-.0676-.2204-.1673-.288-.288l-.2699-.08c.2878-2.0995-.2053-4.2318-1.3857-5.9918l.2359-.2179a.526.526 0 0 1 .124-.3779c.3068-.2633.6383-.4963.9898-.6959a5.573 5.573 0 0 0 .5519-.3229l.146-.118a.67.67 0 0 0-.1325-1.2018.67.67 0 0 0-.6964.161l-.1479.118c-.1544.1464-.3003.3017-.437.4649a6.229 6.229 0 0 1-.8728.8228c-.1278.0521-.2678.0673-.4039.044l-.2529.18a8.735 8.735 0 0 0-5.5339-2.6695c0-.1-.013-.2499-.015-.2969a.525.525 0 0 1-.218-.332 6.234 6.234 0 0 1 .076-1.2067c.043-.2.073-.4199.092-.6329v-.2a.704.704 0 0 0-.6549-.7398zm-.8338 5.165l-.1999 3.4923h-.0151c-.01.2159-.1369.3999-.3319.5038s-.4259.073-.5999-.0539l-2.8644-2.0296a6.859 6.859 0 0 1 3.3023-1.7987c.234-.05.4699-.0879.7069-.1139zm1.6677 0c1.5047.1869 2.9054.8628 3.9991 1.9236l-2.8374 2.0166a.59.59 0 0 1-.9538-.4519zm-6.7187 3.2263l2.6195 2.3375v.015a.59.59 0 0 1 .1834.5729c-.048.2101-.207.3772-.4144.4359v.01l-3.3613.9668a6.859 6.859 0 0 1 .9738-4.3391zm11.7506 0a6.978 6.978 0 0 1 1.0018 4.3261l-3.3663-.9698v-.013a.58.58 0 0 1-.4169-.4349.59.59 0 0 1 .186-.5739l2.5994-2.3265zm-6.4027 2.5195h1.0718l.6549.8318-.238 1.0398-.9628.4629-.9648-.4629-.2269-1.0398zm3.4333 2.8374c.045-.005.1-.005.135 0l3.4663.5849c-.4999 1.4397-1.4867 2.6695-2.7744 3.4923l-1.3398-3.2433c-.0747-.1766-.0589-.3785.0422-.5414a.59.59 0 0 1 .4667-.2775zm-5.8218.015a.59.59 0 0 1 .4839.268c.107.1639.124.3699.047.5499v.013l-1.3317 3.2173c-1.2745-.8172-2.2437-2.0321-2.7575-3.4563l3.4363-.5829a.562.562 0 0 1 .116 0zm2.9034 1.3997a.59.59 0 0 1 .5369.308h.013l1.6937 3.0564-.6769.1999c-1.2457.285-2.5465.218-3.7572-.1939l1.6996-3.0564a.59.59 0 0 1 .4999-.295z" stroke="#fff" stroke-width=".11"/></svg>