<svg xmlns:xlink="http://www.w3.org/1999/xlink" role="img" viewBox="0 0 32.241 32" xmlns="http://www.w3.org/2000/svg"><defs><linearGradient gradientTransform="scale(.16035)" gradientUnits="userSpaceOnUse" id="c" x1="97.41" x2="171.78" y1="116.84" y2="116.84"><stop offset="0" style="stop-color:rgb(100%,47.058824%,47.450981%);stop-opacity:1"/><stop offset=".21" style="stop-color:rgb(98.431373%,46.27451%,47.843137%);stop-opacity:1"/><stop offset=".36" style="stop-color:rgb(94.901961%,44.705883%,50.196081%);stop-opacity:1"/><stop offset=".5" style="stop-color:rgb(88.627452%,41.568628%,54.11765%);stop-opacity:1"/><stop offset=".63" style="stop-color:rgb(79.607844%,37.64706%,59.607846%);stop-opacity:1"/><stop offset=".75" style="stop-color:rgb(67.843139%,32.156864%,66.666669%);stop-opacity:1"/><stop offset=".86" style="stop-color:rgb(53.725493%,25.490198%,75.294119%);stop-opacity:1"/><stop offset=".98" style="stop-color:rgb(37.254903%,17.647059%,85.09804%);stop-opacity:1"/><stop offset="1" style="stop-color:rgb(33.333334%,16.078432%,87.843138%);stop-opacity:1"/></linearGradient><linearGradient gradientTransform="scale(.16035)" gradientUnits="userSpaceOnUse" id="f" x1="137.1" x2="171.79" y1="124.77" y2="124.77"><stop offset="0" style="stop-color:rgb(100%,47.058824%,47.450981%);stop-opacity:1"/><stop offset=".21" style="stop-color:rgb(98.431373%,46.27451%,47.843137%);stop-opacity:1"/><stop offset=".36" style="stop-color:rgb(94.901961%,44.705883%,50.196081%);stop-opacity:1"/><stop offset=".5" style="stop-color:rgb(88.627452%,41.568628%,54.11765%);stop-opacity:1"/><stop offset=".63" style="stop-color:rgb(79.607844%,37.64706%,59.607846%);stop-opacity:1"/><stop offset=".75" style="stop-color:rgb(67.843139%,32.156864%,66.666669%);stop-opacity:1"/><stop offset=".86" style="stop-color:rgb(53.725493%,25.490198%,75.294119%);stop-opacity:1"/><stop offset=".98" style="stop-color:rgb(37.254903%,17.647059%,85.09804%);stop-opacity:1"/><stop offset="1" style="stop-color:rgb(33.333334%,16.078432%,87.843138%);stop-opacity:1"/></linearGradient><clipPath id="b"><path d="M0 0h33v32H0z"/></clipPath><filter filterUnits="objectBoundingBox" height="100%" id="a" width="100%" x="0%" y="0%"><feColorMatrix in="SourceGraphic" values="0 0 0 0 1 0 0 0 0 1 0 0 0 0 1 0 0 0 1 0"/></filter><mask id="e"><g filter="url(#a)"><path d="M0 0h32.241v32H0z" style="fill:rgb(0%,0%,0%);fill-opacity:0.76;stroke:none"/></g></mask><g clip-path="url(#b)" id="d"><path d="M19.523 19.074h-2.507a.598.598 0 0 1-.52-.304l-.437-.793.925-1.602.98-1.703 2.071 3.512a.59.59 0 0 1-.512.89m0 0" style="stroke:none;fill-rule:nonzero;fill:rgb(100%,100%,100%);fill-opacity:1"/></g></defs><path d="m27.547 15.242-5.313 9.196a1.59 1.59 0 0 1-.25.335h-2.879l-2.69-4.66-.794-1.379 1.363-2.359 1.114-1.937 1.007-1.739h6.973Zm0 0" style="stroke:none;fill-rule:nonzero;fill:url(#c)"/><path d="m28.473 13.637-.926 1.605-1.469-2.543h-6.973l-1.007 1.739-1.114 1.937-1.363 2.36.793 1.378 2.691 4.66h2.88c-.348.383-.852.61-1.383.61H8.125a1.88 1.88 0 0 1-1.633-.945L.254 13.637a1.9 1.9 0 0 1 0-1.89L6.488.94C6.828.36 7.45 0 8.121 0h12.477c.675 0 1.297.36 1.632.941l6.239 10.805a1.88 1.88 0 0 1 0 1.89Zm0 0" style="stroke:none;fill-rule:nonzero;fill:rgb(16.078432%,8.627451%,98.823529%);fill-opacity:1"/><path d="M12.863 6.309h-2.21a.588.588 0 0 0-.594.59v11.585c0 .328.261.59.593.59h2.211c.035 0 .067 0 .102-.008a.592.592 0 0 0 .492-.582V6.898a.59.59 0 0 0-.594-.59m3.739 5.382.199-.293.336-.5 2.472-3.668a.59.59 0 0 0-.492-.921h-2.105a.585.585 0 0 0-.5.273l-3.055 4.816-.367.582a.59.59 0 0 0-.02.606l.387.7 1.102 1.987 1.5 2.704.925-1.602.98-1.703-1.382-2.348a.596.596 0 0 1-.07-.43.589.589 0 0 1 .09-.203m0 0" style="stroke:none;fill-rule:nonzero;fill:rgb(100%,100%,100%);fill-opacity:1"/><path d="M32.125 18a2.2 2.2 0 0 0-.207-.473l-3.617-6.265a2.432 2.432 0 0 0-2.094-1.21l-7.238-.001a2.42 2.42 0 0 0-2.09 1.21l-.082.137-.285.497-1.075 1.859-.878 1.52-1.102 1.914-.2.34c-.003.011-.01.023-.015.035-.262.46-.351.992-.281 1.503.039.305.14.606.297.88l3.62 6.265a2.416 2.416 0 0 0 2.09 1.207h7.239c.078 0 .156-.004.234-.012l2.57 4.11c.305.484.95.629 1.434.328l.157-.098c.484-.305.632-.95.332-1.43l-2.606-4.156 3.59-6.215A2.412 2.412 0 0 0 32.125 18m-3.352 2.102-2.699 4.671h-6.972l-2.688-4.66-.797-1.379.438-.757.925-1.602.985-1.703.133-.235 1.004-1.738h6.972l1.473 2.547 2.012 3.488Zm0 0" style="stroke:none;fill-rule:nonzero;fill:rgb(0%,5.098039%,20%);fill-opacity:1"/><use xlink:href="#d" mask="url(#e)"/><path d="m27.547 15.246-5.5 9.527h-.063a1.77 1.77 0 0 0 .246-.335l5.313-9.196Zm0 0" style="stroke:none;fill-rule:nonzero;fill:url(#f)"/></svg>