<?xml version="1.0" encoding="UTF-8"?>
<svg xmlns="http://www.w3.org/2000/svg" xmlns:xlink="http://www.w3.org/1999/xlink" width="32" height="32" viewBox="0 0 32 32" version="1.1">
<g id="surface1">
<path style=" stroke:none;fill-rule:nonzero;fill:rgb(19.607843%,42.352942%,89.803922%);fill-opacity:1;" d="M 18.707031 17.578125 C 18.667969 17.570312 18.628906 17.566406 18.589844 17.566406 C 18.519531 17.570312 18.453125 17.589844 18.390625 17.617188 C 18.140625 17.738281 18.03125 18.035156 18.140625 18.289062 L 18.136719 18.296875 L 19.324219 21.160156 C 20.457031 20.4375 21.320312 19.355469 21.769531 18.085938 L 18.714844 17.570312 Z M 13.953125 17.984375 C 13.902344 17.75 13.695312 17.582031 13.457031 17.582031 C 13.421875 17.578125 13.390625 17.582031 13.355469 17.589844 L 13.351562 17.582031 L 10.320312 18.097656 C 10.777344 19.355469 11.632812 20.429688 12.761719 21.148438 L 13.933594 18.3125 L 13.925781 18.300781 C 13.96875 18.199219 13.976562 18.089844 13.953125 17.984375 Z M 16.492188 19.09375 C 16.402344 18.925781 16.226562 18.824219 16.035156 18.824219 C 15.84375 18.824219 15.667969 18.929688 15.578125 19.097656 L 14.085938 21.789062 C 15.152344 22.152344 16.300781 22.210938 17.398438 21.960938 C 17.601562 21.914062 17.800781 21.859375 17.996094 21.792969 L 16.503906 19.09375 Z M 21.207031 12.835938 L 18.914062 14.890625 L 18.917969 14.894531 C 18.773438 15.019531 18.710938 15.214844 18.753906 15.402344 C 18.792969 15.585938 18.933594 15.734375 19.121094 15.785156 L 19.121094 15.796875 L 22.089844 16.652344 C 22.21875 15.316406 21.910156 13.980469 21.207031 12.835938 Z M 16.949219 13.066406 C 16.957031 13.257812 17.070312 13.425781 17.242188 13.511719 C 17.414062 13.59375 17.617188 13.574219 17.769531 13.460938 L 17.78125 13.464844 L 20.289062 11.6875 C 19.332031 10.753906 18.097656 10.15625 16.769531 9.992188 L 16.945312 13.066406 Z M 14.292969 13.472656 C 14.445312 13.585938 14.648438 13.601562 14.820312 13.519531 C 14.992188 13.4375 15.105469 13.265625 15.113281 13.078125 L 15.125 13.070312 L 15.300781 9.992188 C 15.089844 10.015625 14.882812 10.054688 14.675781 10.101562 C 13.574219 10.347656 12.566406 10.894531 11.761719 11.6875 L 14.289062 13.476562 Z M 12.945312 15.800781 C 13.128906 15.75 13.273438 15.601562 13.316406 15.414062 C 13.355469 15.230469 13.292969 15.035156 13.148438 14.910156 L 13.152344 14.898438 L 10.847656 12.835938 C 10.144531 13.980469 9.84375 15.328125 9.988281 16.664062 L 12.945312 15.808594 Z M 15.183594 16.707031 L 16.035156 17.113281 L 16.882812 16.707031 L 17.09375 15.789062 L 16.507812 15.058594 L 15.5625 15.058594 L 14.972656 15.789062 Z M 15.183594 16.707031 "/>
<path style=" stroke:none;fill-rule:nonzero;fill:rgb(19.607843%,42.352942%,89.803922%);fill-opacity:1;" d="M 30.089844 18.507812 L 27.667969 7.984375 C 27.535156 7.433594 27.164062 6.96875 26.65625 6.722656 L 16.847656 2.039062 C 16.332031 1.792969 15.734375 1.792969 15.21875 2.039062 L 5.414062 6.726562 C 4.902344 6.972656 4.53125 7.433594 4.398438 7.988281 L 1.980469 18.511719 C 1.921875 18.777344 1.921875 19.050781 1.980469 19.320312 C 1.996094 19.398438 2.019531 19.480469 2.046875 19.558594 C 2.09375 19.691406 2.160156 19.816406 2.234375 19.9375 C 2.269531 19.988281 2.304688 20.035156 2.339844 20.085938 L 9.128906 28.523438 C 9.15625 28.558594 9.191406 28.59375 9.222656 28.628906 C 9.328125 28.742188 9.449219 28.839844 9.582031 28.925781 C 9.746094 29.027344 9.929688 29.105469 10.117188 29.15625 C 10.273438 29.199219 10.433594 29.222656 10.59375 29.222656 L 10.699219 29.222656 L 21.480469 29.21875 C 21.542969 29.21875 21.609375 29.214844 21.675781 29.207031 C 21.769531 29.199219 21.859375 29.179688 21.953125 29.15625 C 22.015625 29.140625 22.082031 29.117188 22.144531 29.09375 C 22.191406 29.074219 22.242188 29.058594 22.289062 29.035156 C 22.359375 29 22.429688 28.960938 22.496094 28.921875 C 22.664062 28.8125 22.816406 28.679688 22.945312 28.523438 L 23.152344 28.265625 L 29.730469 20.082031 C 29.855469 19.921875 29.953125 19.746094 30.023438 19.554688 C 30.050781 19.476562 30.074219 19.398438 30.09375 19.316406 C 30.152344 19.050781 30.152344 18.773438 30.089844 18.507812 Z M 19.917969 22.601562 C 19.945312 22.683594 19.980469 22.761719 20.015625 22.839844 C 19.957031 22.941406 19.941406 23.066406 19.972656 23.183594 C 20.113281 23.511719 20.289062 23.824219 20.492188 24.117188 C 20.605469 24.265625 20.710938 24.421875 20.804688 24.585938 C 20.832031 24.628906 20.859375 24.695312 20.882812 24.742188 C 21 24.933594 20.996094 25.175781 20.871094 25.363281 C 20.75 25.554688 20.53125 25.65625 20.308594 25.628906 C 20.085938 25.605469 19.898438 25.457031 19.824219 25.242188 C 19.800781 25.199219 19.769531 25.136719 19.75 25.09375 C 19.683594 24.917969 19.625 24.738281 19.578125 24.554688 C 19.476562 24.214844 19.34375 23.882812 19.175781 23.570312 C 19.105469 23.472656 18.996094 23.40625 18.878906 23.386719 C 18.859375 23.355469 18.789062 23.226562 18.75 23.160156 C 17.003906 23.820312 15.078125 23.816406 13.335938 23.148438 L 13.203125 23.386719 C 13.105469 23.402344 13.019531 23.445312 12.949219 23.511719 C 12.75 23.839844 12.597656 24.195312 12.496094 24.566406 C 12.449219 24.746094 12.390625 24.925781 12.324219 25.101562 C 12.304688 25.148438 12.273438 25.207031 12.253906 25.253906 L 12.25 25.253906 C 12.175781 25.464844 11.988281 25.617188 11.765625 25.640625 C 11.539062 25.667969 11.320312 25.5625 11.199219 25.375 C 11.078125 25.1875 11.074219 24.945312 11.191406 24.753906 C 11.214844 24.707031 11.242188 24.636719 11.265625 24.59375 C 11.363281 24.433594 11.46875 24.273438 11.582031 24.125 C 11.789062 23.824219 11.96875 23.503906 12.113281 23.171875 C 12.128906 23.058594 12.109375 22.941406 12.0625 22.839844 L 12.167969 22.582031 C 10.5625 21.632812 9.355469 20.132812 8.78125 18.355469 L 8.527344 18.398438 C 8.429688 18.328125 8.3125 18.289062 8.191406 18.28125 C 7.839844 18.347656 7.496094 18.449219 7.167969 18.582031 C 6.996094 18.660156 6.820312 18.726562 6.640625 18.785156 C 6.597656 18.796875 6.535156 18.808594 6.488281 18.816406 C 6.484375 18.820312 6.480469 18.820312 6.476562 18.820312 C 6.472656 18.824219 6.472656 18.824219 6.46875 18.824219 C 6.253906 18.894531 6.023438 18.835938 5.863281 18.675781 C 5.707031 18.519531 5.652344 18.285156 5.726562 18.070312 C 5.800781 17.859375 5.984375 17.707031 6.207031 17.679688 L 6.214844 17.675781 L 6.222656 17.675781 C 6.269531 17.664062 6.332031 17.648438 6.378906 17.640625 C 6.5625 17.613281 6.753906 17.597656 6.941406 17.59375 C 7.296875 17.570312 7.648438 17.511719 7.992188 17.421875 C 8.09375 17.355469 8.179688 17.269531 8.246094 17.167969 L 8.492188 17.09375 C 8.222656 15.242188 8.652344 13.355469 9.6875 11.800781 L 9.5 11.632812 C 9.492188 11.511719 9.453125 11.394531 9.382812 11.292969 C 9.113281 11.0625 8.820312 10.855469 8.507812 10.679688 C 8.34375 10.59375 8.179688 10.5 8.023438 10.394531 C 7.988281 10.367188 7.941406 10.328125 7.902344 10.296875 L 7.890625 10.292969 C 7.613281 10.09375 7.550781 9.707031 7.75 9.425781 C 7.863281 9.285156 8.035156 9.210938 8.214844 9.21875 C 8.363281 9.226562 8.507812 9.28125 8.625 9.375 C 8.664062 9.40625 8.71875 9.445312 8.753906 9.476562 C 8.890625 9.605469 9.019531 9.742188 9.140625 9.886719 C 9.382812 10.152344 9.648438 10.390625 9.933594 10.601562 C 10.039062 10.660156 10.164062 10.671875 10.28125 10.636719 C 10.351562 10.6875 10.421875 10.738281 10.492188 10.785156 C 11.523438 9.691406 12.859375 8.925781 14.328125 8.597656 C 14.679688 8.515625 15.03125 8.460938 15.390625 8.433594 L 15.402344 8.183594 C 15.496094 8.105469 15.5625 8 15.59375 7.882812 C 15.605469 7.523438 15.585938 7.167969 15.527344 6.816406 C 15.492188 6.632812 15.464844 6.445312 15.449219 6.257812 C 15.445312 6.214844 15.449219 6.15625 15.449219 6.109375 C 15.449219 6.101562 15.449219 6.097656 15.449219 6.089844 C 15.425781 5.867188 15.53125 5.652344 15.722656 5.53125 C 15.914062 5.414062 16.15625 5.414062 16.347656 5.53125 C 16.539062 5.648438 16.644531 5.867188 16.621094 6.089844 C 16.621094 6.140625 16.625 6.210938 16.625 6.257812 C 16.609375 6.445312 16.582031 6.632812 16.542969 6.816406 C 16.488281 7.167969 16.464844 7.523438 16.476562 7.878906 C 16.5 8 16.570312 8.105469 16.667969 8.175781 C 16.671875 8.214844 16.675781 8.359375 16.683594 8.4375 C 18.539062 8.605469 20.269531 9.441406 21.554688 10.789062 L 21.777344 10.628906 C 21.898438 10.652344 22.019531 10.636719 22.132812 10.59375 C 22.421875 10.378906 22.683594 10.140625 22.925781 9.875 C 23.046875 9.730469 23.175781 9.59375 23.3125 9.464844 C 23.347656 9.433594 23.402344 9.394531 23.441406 9.363281 C 23.605469 9.203125 23.839844 9.152344 24.054688 9.226562 C 24.265625 9.300781 24.417969 9.492188 24.441406 9.714844 C 24.46875 9.9375 24.363281 10.160156 24.175781 10.28125 C 24.132812 10.3125 24.082031 10.355469 24.042969 10.382812 C 23.886719 10.488281 23.726562 10.582031 23.558594 10.667969 C 23.246094 10.84375 22.953125 11.050781 22.683594 11.28125 C 22.605469 11.375 22.566406 11.492188 22.574219 11.613281 C 22.542969 11.644531 22.425781 11.746094 22.367188 11.800781 C 23.40625 13.351562 23.84375 15.230469 23.589844 17.082031 L 23.824219 17.152344 C 23.886719 17.257812 23.972656 17.347656 24.078125 17.40625 C 24.421875 17.5 24.777344 17.554688 25.132812 17.578125 C 25.320312 17.585938 25.507812 17.597656 25.695312 17.625 C 25.742188 17.632812 25.816406 17.652344 25.863281 17.664062 C 26.085938 17.695312 26.273438 17.847656 26.34375 18.058594 C 26.417969 18.269531 26.363281 18.503906 26.207031 18.664062 C 26.050781 18.824219 25.816406 18.878906 25.605469 18.808594 L 25.59375 18.808594 C 25.589844 18.808594 25.585938 18.804688 25.582031 18.804688 C 25.535156 18.792969 25.472656 18.78125 25.433594 18.773438 C 25.253906 18.714844 25.078125 18.644531 24.90625 18.566406 C 24.574219 18.433594 24.230469 18.335938 23.882812 18.265625 C 23.761719 18.261719 23.644531 18.308594 23.554688 18.390625 C 23.46875 18.375 23.386719 18.359375 23.300781 18.34375 C 22.734375 20.128906 21.53125 21.644531 19.917969 22.601562 Z M 19.917969 22.601562 "/>
<path style=" stroke:none;fill-rule:nonzero;fill:rgb(100%,100%,100%);fill-opacity:1;" d="M 31.371094 18.777344 L 28.726562 7.296875 C 28.582031 6.695312 28.175781 6.191406 27.621094 5.917969 L 16.921875 0.8125 C 16.359375 0.542969 15.707031 0.542969 15.144531 0.8125 L 4.445312 5.921875 C 3.890625 6.191406 3.484375 6.699219 3.339844 7.300781 L 0.703125 18.78125 C 0.582031 19.316406 0.679688 19.875 0.980469 20.335938 C 1.015625 20.390625 1.054688 20.445312 1.09375 20.5 L 8.5 29.707031 C 8.894531 30.183594 9.480469 30.464844 10.097656 30.46875 L 21.972656 30.464844 C 22.59375 30.460938 23.179688 30.183594 23.574219 29.703125 L 30.976562 20.496094 C 31.359375 20.011719 31.503906 19.382812 31.371094 18.777344 Z M 30.09375 19.316406 C 30.074219 19.398438 30.050781 19.476562 30.023438 19.554688 C 29.953125 19.746094 29.855469 19.925781 29.730469 20.082031 L 23.152344 28.265625 L 22.945312 28.523438 C 22.816406 28.679688 22.664062 28.8125 22.496094 28.921875 C 22.429688 28.960938 22.359375 29 22.289062 29.035156 C 22.242188 29.058594 22.191406 29.078125 22.144531 29.09375 C 22.082031 29.117188 22.015625 29.140625 21.953125 29.15625 C 21.859375 29.179688 21.769531 29.199219 21.675781 29.210938 C 21.609375 29.214844 21.542969 29.21875 21.480469 29.21875 L 10.699219 29.222656 L 10.59375 29.222656 C 10.433594 29.222656 10.273438 29.199219 10.117188 29.15625 C 9.929688 29.105469 9.746094 29.027344 9.582031 28.925781 C 9.449219 28.839844 9.328125 28.742188 9.222656 28.628906 C 9.191406 28.59375 9.160156 28.558594 9.128906 28.523438 L 2.339844 20.085938 C 2.304688 20.035156 2.269531 19.988281 2.234375 19.9375 C 2.160156 19.816406 2.097656 19.691406 2.046875 19.558594 C 2.019531 19.480469 1.996094 19.398438 1.980469 19.316406 C 1.921875 19.050781 1.921875 18.777344 1.980469 18.511719 L 4.398438 7.984375 C 4.53125 7.433594 4.902344 6.972656 5.414062 6.726562 L 15.21875 2.039062 C 15.734375 1.792969 16.332031 1.792969 16.847656 2.039062 L 26.65625 6.722656 C 27.164062 6.96875 27.535156 7.433594 27.667969 7.984375 L 30.089844 18.507812 C 30.152344 18.773438 30.152344 19.050781 30.09375 19.316406 Z M 30.09375 19.316406 "/>
<path style=" stroke:none;fill-rule:nonzero;fill:rgb(100%,100%,100%);fill-opacity:1;" d="M 25.863281 17.664062 C 25.816406 17.652344 25.742188 17.632812 25.695312 17.625 C 25.507812 17.597656 25.320312 17.585938 25.132812 17.578125 C 24.777344 17.554688 24.421875 17.5 24.078125 17.40625 C 23.972656 17.347656 23.886719 17.257812 23.824219 17.152344 L 23.589844 17.082031 C 23.84375 15.230469 23.40625 13.351562 22.367188 11.800781 C 22.425781 11.746094 22.542969 11.644531 22.574219 11.613281 C 22.566406 11.492188 22.605469 11.375 22.683594 11.28125 C 22.953125 11.050781 23.246094 10.84375 23.558594 10.667969 C 23.726562 10.582031 23.886719 10.488281 24.042969 10.382812 C 24.082031 10.355469 24.132812 10.3125 24.175781 10.28125 C 24.363281 10.160156 24.46875 9.941406 24.441406 9.714844 C 24.417969 9.492188 24.265625 9.300781 24.054688 9.226562 C 23.839844 9.152344 23.605469 9.203125 23.441406 9.363281 C 23.402344 9.394531 23.347656 9.433594 23.3125 9.464844 C 23.175781 9.59375 23.046875 9.730469 22.925781 9.875 C 22.683594 10.140625 22.421875 10.378906 22.132812 10.59375 C 22.019531 10.636719 21.898438 10.652344 21.777344 10.628906 L 21.554688 10.789062 C 20.269531 9.441406 18.539062 8.605469 16.683594 8.4375 C 16.675781 8.359375 16.671875 8.21875 16.667969 8.175781 C 16.570312 8.105469 16.5 8 16.476562 7.878906 C 16.464844 7.523438 16.488281 7.167969 16.542969 6.816406 C 16.582031 6.632812 16.605469 6.445312 16.625 6.257812 C 16.625 6.210938 16.621094 6.140625 16.621094 6.089844 C 16.644531 5.867188 16.539062 5.648438 16.347656 5.53125 C 16.15625 5.414062 15.914062 5.414062 15.722656 5.53125 C 15.53125 5.652344 15.425781 5.867188 15.449219 6.089844 C 15.449219 6.097656 15.449219 6.101562 15.449219 6.109375 C 15.449219 6.15625 15.445312 6.214844 15.449219 6.257812 C 15.464844 6.445312 15.492188 6.632812 15.527344 6.816406 C 15.585938 7.167969 15.605469 7.523438 15.59375 7.882812 C 15.5625 8 15.496094 8.105469 15.402344 8.183594 L 15.390625 8.433594 C 15.03125 8.460938 14.679688 8.515625 14.328125 8.597656 C 12.859375 8.929688 11.523438 9.691406 10.492188 10.785156 C 10.421875 10.738281 10.351562 10.6875 10.28125 10.636719 C 10.164062 10.671875 10.039062 10.660156 9.933594 10.601562 C 9.648438 10.390625 9.382812 10.152344 9.140625 9.886719 C 9.019531 9.742188 8.890625 9.605469 8.753906 9.476562 C 8.71875 9.445312 8.664062 9.40625 8.625 9.375 C 8.507812 9.28125 8.363281 9.226562 8.214844 9.21875 C 8.035156 9.210938 7.863281 9.285156 7.75 9.425781 C 7.550781 9.703125 7.613281 10.089844 7.890625 10.292969 L 7.902344 10.296875 C 7.941406 10.328125 7.988281 10.371094 8.023438 10.394531 C 8.179688 10.5 8.34375 10.59375 8.507812 10.679688 C 8.820312 10.855469 9.113281 11.0625 9.382812 11.292969 C 9.453125 11.394531 9.492188 11.511719 9.5 11.632812 L 9.6875 11.800781 C 8.648438 13.355469 8.222656 15.242188 8.492188 17.09375 L 8.246094 17.167969 C 8.179688 17.269531 8.09375 17.355469 7.992188 17.421875 C 7.648438 17.511719 7.296875 17.570312 6.941406 17.59375 C 6.753906 17.597656 6.5625 17.613281 6.378906 17.640625 C 6.332031 17.648438 6.269531 17.664062 6.222656 17.675781 L 6.214844 17.675781 L 6.207031 17.679688 C 5.984375 17.707031 5.800781 17.859375 5.726562 18.070312 C 5.652344 18.285156 5.707031 18.519531 5.863281 18.675781 C 6.023438 18.835938 6.253906 18.894531 6.46875 18.824219 L 6.476562 18.820312 C 6.480469 18.820312 6.484375 18.820312 6.488281 18.816406 C 6.535156 18.808594 6.597656 18.796875 6.640625 18.785156 C 6.820312 18.726562 6.996094 18.660156 7.167969 18.582031 C 7.496094 18.449219 7.839844 18.347656 8.191406 18.28125 C 8.3125 18.289062 8.429688 18.328125 8.527344 18.398438 L 8.78125 18.355469 C 9.355469 20.132812 10.5625 21.632812 12.167969 22.582031 L 12.0625 22.839844 C 12.109375 22.941406 12.128906 23.058594 12.113281 23.171875 C 11.96875 23.503906 11.789062 23.824219 11.582031 24.125 C 11.46875 24.273438 11.363281 24.429688 11.265625 24.59375 C 11.242188 24.636719 11.214844 24.707031 11.191406 24.753906 C 11.078125 24.945312 11.078125 25.1875 11.203125 25.375 C 11.324219 25.5625 11.539062 25.667969 11.765625 25.640625 C 11.988281 25.617188 12.175781 25.464844 12.25 25.253906 L 12.253906 25.253906 C 12.273438 25.207031 12.304688 25.144531 12.324219 25.101562 C 12.390625 24.925781 12.449219 24.746094 12.496094 24.566406 C 12.597656 24.195312 12.75 23.839844 12.949219 23.511719 C 13.019531 23.445312 13.105469 23.402344 13.203125 23.386719 L 13.335938 23.148438 C 15.078125 23.816406 17.003906 23.820312 18.75 23.160156 C 18.789062 23.226562 18.859375 23.355469 18.875 23.386719 C 18.996094 23.40625 19.105469 23.472656 19.175781 23.570312 C 19.34375 23.882812 19.476562 24.214844 19.578125 24.554688 C 19.625 24.738281 19.683594 24.917969 19.75 25.09375 C 19.769531 25.136719 19.800781 25.199219 19.824219 25.242188 C 19.898438 25.457031 20.085938 25.605469 20.308594 25.628906 C 20.53125 25.65625 20.75 25.554688 20.871094 25.363281 C 20.996094 25.175781 21 24.933594 20.882812 24.742188 C 20.859375 24.695312 20.832031 24.628906 20.808594 24.585938 C 20.710938 24.421875 20.605469 24.265625 20.492188 24.117188 C 20.289062 23.824219 20.113281 23.511719 19.972656 23.183594 C 19.941406 23.066406 19.957031 22.945312 20.015625 22.839844 C 19.980469 22.761719 19.945312 22.683594 19.917969 22.601562 C 21.53125 21.644531 22.734375 20.132812 23.300781 18.34375 C 23.378906 18.355469 23.511719 18.378906 23.554688 18.390625 C 23.644531 18.308594 23.761719 18.261719 23.882812 18.265625 C 24.230469 18.335938 24.574219 18.433594 24.90625 18.566406 C 25.078125 18.644531 25.253906 18.714844 25.433594 18.773438 C 25.472656 18.78125 25.535156 18.792969 25.582031 18.804688 C 25.585938 18.804688 25.589844 18.808594 25.59375 18.808594 L 25.605469 18.808594 C 25.816406 18.878906 26.050781 18.824219 26.207031 18.664062 C 26.363281 18.503906 26.417969 18.269531 26.34375 18.058594 C 26.273438 17.847656 26.085938 17.695312 25.863281 17.664062 Z M 20.289062 11.6875 L 17.78125 13.464844 L 17.769531 13.460938 C 17.617188 13.574219 17.414062 13.59375 17.242188 13.511719 C 17.070312 13.425781 16.957031 13.257812 16.949219 13.066406 L 16.945312 13.066406 L 16.773438 9.992188 C 18.097656 10.15625 19.332031 10.753906 20.289062 11.6875 Z M 15.5625 15.058594 L 16.507812 15.058594 L 17.09375 15.789062 L 16.882812 16.707031 L 16.035156 17.113281 L 15.183594 16.703125 L 14.972656 15.789062 Z M 14.675781 10.097656 C 14.882812 10.050781 15.089844 10.015625 15.300781 9.992188 L 15.125 13.070312 L 15.113281 13.078125 C 15.105469 13.265625 14.992188 13.4375 14.820312 13.519531 C 14.648438 13.601562 14.445312 13.585938 14.292969 13.472656 L 14.289062 13.476562 L 11.761719 11.683594 C 12.566406 10.894531 13.574219 10.347656 14.675781 10.097656 Z M 10.847656 12.835938 L 13.152344 14.898438 L 13.148438 14.910156 C 13.292969 15.035156 13.355469 15.230469 13.316406 15.414062 C 13.273438 15.601562 13.128906 15.75 12.945312 15.800781 L 12.945312 15.808594 L 9.988281 16.660156 C 9.84375 15.328125 10.144531 13.980469 10.847656 12.835938 Z M 13.933594 18.3125 L 12.757812 21.148438 C 11.632812 20.429688 10.777344 19.355469 10.320312 18.097656 L 13.351562 17.582031 L 13.355469 17.589844 C 13.390625 17.582031 13.421875 17.578125 13.457031 17.582031 C 13.628906 17.582031 13.789062 17.671875 13.882812 17.816406 C 13.976562 17.960938 13.992188 18.144531 13.925781 18.300781 Z M 17.398438 21.960938 C 16.300781 22.210938 15.152344 22.152344 14.085938 21.789062 L 15.578125 19.097656 C 15.667969 18.929688 15.84375 18.824219 16.035156 18.824219 C 16.226562 18.824219 16.398438 18.929688 16.492188 19.09375 L 16.503906 19.09375 L 17.996094 21.792969 C 17.800781 21.859375 17.601562 21.914062 17.398438 21.960938 Z M 19.324219 21.160156 L 18.136719 18.296875 L 18.140625 18.289062 C 18.03125 18.035156 18.140625 17.738281 18.390625 17.621094 C 18.453125 17.589844 18.519531 17.570312 18.589844 17.566406 C 18.628906 17.566406 18.667969 17.570312 18.707031 17.578125 L 18.714844 17.570312 L 21.769531 18.085938 C 21.320312 19.355469 20.457031 20.4375 19.324219 21.160156 Z M 22.089844 16.652344 L 19.121094 15.796875 L 19.121094 15.785156 C 18.933594 15.734375 18.792969 15.585938 18.753906 15.398438 C 18.710938 15.214844 18.773438 15.019531 18.917969 14.894531 L 18.914062 14.890625 L 21.207031 12.835938 C 21.910156 13.980469 22.21875 15.316406 22.089844 16.652344 Z M 22.089844 16.652344 "/>
</g>
</svg>
