<?xml version="1.0" encoding="UTF-8"?>
<svg xmlns="http://www.w3.org/2000/svg" xmlns:xlink="http://www.w3.org/1999/xlink" width="32" height="32" viewBox="0 0 32 32" version="1.1">
<g id="surface1">
<path style=" stroke:none;fill-rule:nonzero;fill:rgb(20.392157%,59.607846%,85.882354%);fill-opacity:1;" d="M 16 2.050781 C 11.023438 2.054688 6.425781 4.714844 3.9375 9.023438 L 6.714844 9.023438 C 7.9375 7.402344 9.558594 6.125 11.421875 5.316406 C 10.765625 6.484375 10.257812 7.730469 9.914062 9.023438 L 12.363281 9.023438 C 13.28125 6.167969 14.691406 4.378906 16 4.378906 C 17.3125 4.378906 18.714844 6.167969 19.636719 9.023438 L 22.085938 9.023438 C 21.746094 7.730469 21.238281 6.484375 20.578125 5.316406 C 22.441406 6.125 24.066406 7.402344 25.289062 9.023438 L 28.066406 9.023438 C 25.574219 4.714844 20.976562 2.058594 16 2.050781 M 3.9375 22.980469 C 6.425781 27.292969 11.023438 29.949219 16.003906 29.949219 C 20.980469 29.949219 25.578125 27.292969 28.066406 22.980469 L 25.289062 22.980469 C 24.066406 24.601562 22.445312 25.878906 20.578125 26.683594 C 21.238281 25.519531 21.746094 24.273438 22.085938 22.980469 L 19.636719 22.980469 C 18.71875 25.835938 17.316406 27.625 16 27.625 C 14.683594 27.625 13.28125 25.835938 12.367188 22.976562 L 9.914062 22.976562 C 10.253906 24.273438 10.761719 25.519531 11.421875 26.683594 C 9.558594 25.878906 7.933594 24.601562 6.714844 22.976562 Z M 2.273438 10.046875 L 4.546875 10.046875 L 4.546875 19.621094 L 2.273438 19.621094 Z M 13.03125 19.621094 L 10.867188 19.621094 L 10.867188 18.8125 L 10.839844 18.8125 C 10.425781 19.460938 9.695312 19.84375 8.925781 19.820312 C 6.746094 19.820312 5.820312 17.957031 5.820312 15.996094 C 5.820312 14.1875 6.785156 12.472656 8.753906 12.472656 C 9.53125 12.4375 10.273438 12.796875 10.730469 13.421875 L 10.761719 13.421875 L 10.761719 10.046875 L 13.035156 10.046875 Z M 8.09375 16.066406 C 8.09375 17.019531 8.453125 18.078125 9.484375 18.078125 C 10.59375 18.078125 10.835938 17.019531 10.835938 16.136719 C 10.835938 15.128906 10.476562 14.207031 9.484375 14.207031 C 8.453125 14.203125 8.09375 15.183594 8.09375 16.066406 M 14.488281 14.808594 C 14.480469 14.035156 14.898438 13.320312 15.574219 12.945312 C 16.203125 12.582031 16.984375 12.460938 17.789062 12.460938 C 19.433594 12.460938 21.027344 12.824219 21.027344 14.792969 L 21.027344 17.835938 C 21.027344 18.425781 21.027344 19.070312 21.292969 19.621094 L 18.996094 19.621094 C 18.925781 19.410156 18.878906 19.1875 18.863281 18.964844 C 18.273438 19.59375 17.417969 19.820312 16.574219 19.820312 C 15.238281 19.820312 14.207031 19.152344 14.207031 17.710938 C 14.207031 15.457031 16.667969 15.617188 18.246094 15.292969 C 18.636719 15.203125 18.851562 15.082031 18.851562 14.652344 C 18.851562 14.128906 18.222656 13.929688 17.753906 13.929688 C 17.097656 13.929688 16.722656 14.222656 16.613281 14.800781 Z M 17.433594 18.414062 C 18.515625 18.414062 18.875 17.808594 18.824219 16.363281 C 18.503906 16.566406 17.914062 16.589844 17.414062 16.738281 C 16.914062 16.882812 16.476562 17.074219 16.476562 17.621094 C 16.476562 18.171875 16.90625 18.414062 17.433594 18.414062 M 22.515625 12.664062 L 24.683594 12.664062 L 24.683594 13.46875 L 24.710938 13.46875 C 25.125 12.820312 25.851562 12.4375 26.621094 12.460938 C 28.804688 12.460938 29.726562 14.324219 29.726562 16.285156 C 29.726562 18.097656 28.765625 19.8125 26.796875 19.8125 C 26.019531 19.84375 25.277344 19.484375 24.816406 18.859375 L 24.792969 18.859375 L 24.792969 21.941406 L 22.515625 21.941406 Z M 24.710938 16.066406 C 24.710938 17.285156 25.058594 18.078125 26.085938 18.078125 C 27.117188 18.078125 27.453125 17.019531 27.453125 16.066406 C 27.453125 15.183594 27.117188 14.203125 26.101562 14.203125 C 25.5 14.203125 24.710938 14.621094 24.710938 16.066406 M 24.710938 16.066406 "/>
</g>
</svg>
