<?xml version="1.0" encoding="UTF-8"?>
<svg xmlns="http://www.w3.org/2000/svg" xmlns:xlink="http://www.w3.org/1999/xlink" width="31.059" height="32" viewBox="0 0 31.059 32" version="1.1">
<g id="surface1">
<path style=" stroke:none;fill-rule:nonzero;fill:rgb(100%,64.313728%,0%);fill-opacity:1;" d="M 21.753906 17.171875 L 17.933594 17.171875 L 17.933594 15.199219 C 17.933594 13.632812 16.636719 12.347656 15.078125 12.347656 C 13.523438 12.347656 12.226562 13.644531 12.226562 15.199219 L 12.226562 17.171875 L 8.414062 17.171875 L 8.414062 15.199219 C 8.414062 11.5 11.429688 8.515625 15.097656 8.515625 C 18.800781 8.515625 21.785156 11.53125 21.785156 15.199219 Z M 21.753906 17.171875 "/>
<path style=" stroke:none;fill-rule:nonzero;fill:rgb(0%,22.745098%,43.921569%);fill-opacity:1;" d="M 23.332031 17.160156 L 6.84375 17.160156 C 6.5 17.15625 6.171875 17.289062 5.929688 17.53125 C 5.6875 17.773438 5.554688 18.105469 5.558594 18.449219 L 5.558594 30.621094 C 5.550781 30.964844 5.683594 31.296875 5.925781 31.542969 C 6.167969 31.789062 6.5 31.921875 6.84375 31.917969 L 23.332031 31.917969 C 23.675781 31.925781 24.007812 31.789062 24.25 31.546875 C 24.492188 31.304688 24.625 30.972656 24.621094 30.632812 L 24.621094 18.457031 C 24.578125 17.734375 24.015625 17.160156 23.324219 17.160156 Z M 15.894531 25.164062 L 15.894531 26.8125 C 15.890625 27.277344 15.515625 27.652344 15.050781 27.65625 C 14.585938 27.652344 14.210938 27.277344 14.207031 26.8125 L 14.207031 25.171875 C 13.683594 24.890625 13.359375 24.328125 13.359375 23.675781 C 13.359375 22.753906 14.125 21.988281 15.050781 21.988281 C 15.976562 21.988281 16.738281 22.753906 16.738281 23.675781 C 16.78125 24.320312 16.417969 24.875 15.894531 25.171875 Z M 15.894531 25.164062 "/>
<path style=" stroke:none;fill-rule:nonzero;fill:rgb(100%,64.313728%,0%);fill-opacity:1;" d="M 5.15625 15.359375 L 1.167969 15.359375 C 0.523438 15.359375 0 14.835938 0 14.195312 C 0 13.550781 0.523438 13.027344 1.167969 13.027344 L 5.15625 13.027344 C 5.800781 13.027344 6.320312 13.550781 6.320312 14.191406 C 6.320312 14.835938 5.800781 15.359375 5.15625 15.359375 M 7.972656 9.085938 C 7.703125 9.09375 7.441406 8.992188 7.246094 8.804688 L 4.109375 6.230469 C 3.621094 5.8125 3.550781 5.085938 3.949219 4.582031 C 4.367188 4.09375 5.097656 4.023438 5.597656 4.425781 L 8.738281 7 C 9.226562 7.417969 9.296875 8.144531 8.894531 8.648438 C 8.613281 8.929688 8.292969 9.089844 7.972656 9.089844 Z M 15.089844 6.355469 C 14.445312 6.351562 13.921875 5.832031 13.921875 5.1875 L 13.921875 1.167969 C 13.921875 0.523438 14.445312 0 15.089844 0 C 15.730469 0 16.253906 0.523438 16.253906 1.167969 L 16.253906 5.1875 C 16.253906 5.832031 15.734375 6.355469 15.089844 6.355469 M 22.167969 9.085938 C 21.84375 9.085938 21.484375 8.929688 21.28125 8.644531 C 20.878906 8.164062 20.960938 7.394531 21.441406 6.992188 L 24.578125 4.421875 C 25.0625 4.019531 25.824219 4.101562 26.226562 4.578125 C 26.628906 5.058594 26.546875 5.824219 26.066406 6.226562 L 22.929688 8.804688 C 22.71875 8.992188 22.445312 9.089844 22.164062 9.085938 Z M 28.953125 15.355469 L 24.929688 15.355469 C 24.285156 15.355469 23.765625 14.835938 23.765625 14.191406 C 23.765625 13.882812 23.886719 13.585938 24.105469 13.367188 C 24.324219 13.148438 24.621094 13.023438 24.929688 13.023438 L 28.953125 13.023438 C 29.59375 13.023438 30.117188 13.550781 30.117188 14.191406 C 30.117188 14.839844 29.59375 15.355469 28.953125 15.355469 M 28.953125 15.355469 "/>
</g>
</svg>
