<svg role="img" viewBox="0 0 31.059 32" xmlns="http://www.w3.org/2000/svg"><path d="M21.754 17.172h-3.82v-1.973c0-1.566-1.297-2.851-2.856-2.851-1.555 0-2.851 1.297-2.851 2.851v1.973H8.414v-1.973c0-3.699 3.016-6.683 6.684-6.683 3.703 0 6.687 3.015 6.687 6.683Zm0 0" style="stroke:none;fill-rule:nonzero;fill:rgb(100%,64.313728%,0%);fill-opacity:1"/><path d="M23.332 17.16H6.844a1.275 1.275 0 0 0-.914.371 1.277 1.277 0 0 0-.371.918v12.172a1.267 1.267 0 0 0 1.285 1.297h16.488c.344.008.676-.129.918-.371s.375-.574.371-.914V18.457c-.043-.723-.605-1.297-1.297-1.297Zm-7.437 8.004v1.648a.85.85 0 0 1-.844.844.848.848 0 0 1-.844-.843v-1.641c-.523-.281-.848-.844-.848-1.496 0-.922.766-1.688 1.692-1.688.926 0 1.687.766 1.687 1.688.043.644-.32 1.199-.843 1.496Zm0 0" style="stroke:none;fill-rule:nonzero;fill:rgb(0%,22.745098%,43.921569%);fill-opacity:1"/><path d="M5.156 15.36H1.168a1.165 1.165 0 1 1 0-2.333h3.988a1.165 1.165 0 1 1 0 2.332m2.817-6.274a1.008 1.008 0 0 1-.727-.281L4.11 6.23a1.194 1.194 0 0 1-.16-1.648 1.19 1.19 0 0 1 1.649-.156L8.738 7a1.19 1.19 0 0 1 .157 1.648c-.282.282-.602.442-.922.442Zm7.117-2.73a1.171 1.171 0 0 1-1.168-1.168v-4.02a1.165 1.165 0 1 1 2.332 0v4.02c0 .644-.52 1.167-1.164 1.167m7.078 2.73c-.324 0-.684-.156-.887-.441-.402-.48-.32-1.247.16-1.649l3.137-2.574c.485-.402 1.246-.32 1.649.16.402.48.32 1.246-.16 1.648L22.93 8.805a1.123 1.123 0 0 1-.766.28Zm6.785 6.273H24.93c-.645 0-1.164-.52-1.164-1.164a1.163 1.163 0 0 1 1.164-1.168h4.023c.64 0 1.164.524 1.164 1.168 0 .645-.523 1.164-1.164 1.164m0 0" style="stroke:none;fill-rule:nonzero;fill:rgb(100%,64.313728%,0%);fill-opacity:1"/></svg>