<svg xmlns="http://www.w3.org/2000/svg" width="33" height="34" stroke="none" stroke-linecap="round" stroke-linejoin="round" fill="#fff" fill-rule="nonzero"><path d="M23.114 18.2448h-4.0603v-2.0937c0-1.6666-1.3781-3.032-3.0319-3.032s-3.032 1.3782-3.032 3.032v2.0937H8.9401v-2.0937c0-3.931 3.2048-7.1029 7.1029-7.1029 3.9309 0 7.1028 3.2048 7.1028 7.1029z" fill="#ffa400"/><path d="M24.7911 18.2342H7.2735c-.3644-.0058-.7156.1364-.9734.3942a1.346 1.346 0 0 0-.3941.9733v12.9336c-.0087.3663.1322.7203.3903.9804s.6109.4037.9772.3978h17.5176c.3645.0058.7157-.1365.9734-.3942a1.346 1.346 0 0 0 .3942-.9734V19.6123c-.0424-.7686-.6414-1.3781-1.3782-1.3781zm-7.9043 8.5022v1.7513c0 .4697-.3848.8969-.8969.8969-.4696 0-.8968-.3848-.8968-.8969V26.747c-.5555-.299-.8969-.8969-.8969-1.5902 0-.9827.8121-1.7948 1.7948-1.7948s1.7948.8121 1.7948 1.7948c.0424.6838-.3414 1.2722-.8969 1.5902z" fill="#003a70"/><path d="M5.4798 16.3207H1.2393C.5551 16.3201.0006 15.7656 0 15.0814s.5551-1.2387 1.2393-1.2393h4.2405c.6842.0006 1.2387.5551 1.2393 1.2393s-.5551 1.2387-1.2393 1.2393zm2.9896-6.665a1.092 1.092 0 0 1-.7686-.299L4.3677 6.6216c-.5131-.4273-.5979-1.1959-.1696-1.7514.4272-.5131 1.1958-.5979 1.7513-.1696l3.3331 2.7351c.5131.4273.5979 1.1959.1696 1.7514-.2989.2989-.6414.4696-.9827.4696zm7.5629-2.9048c-.6842-.0006-1.2387-.5551-1.2393-1.2393V1.2404c0-.6847.5547-1.2398 1.2393-1.2404s1.2387.5551 1.2393 1.2393v4.2734c-.0006.6842-.5551 1.2387-1.2393 1.2393zm7.5195 2.9048c-.3413 0-.7262-.1697-.9403-.4697-.4272-.5131-.3414-1.3251.1696-1.7513l3.3331-2.7351c.5131-.4273 1.3251-.3414 1.7513.1696s.3414 1.3251-.1696 1.7513l-3.3331 2.7351c-.224.1974-.5135.304-.812.299zm7.2089 6.665h-4.2723c-.6842-.0006-1.2387-.5551-1.2393-1.2393s.5551-1.2387 1.2393-1.2393h4.2723c.6842.0006 1.2387.5551 1.2393 1.2393s-.5551 1.2387-1.2393 1.2393z" fill="#ffa400"/></svg>