<svg role="img" viewBox="0 0 32 32" xmlns="http://www.w3.org/2000/svg"><path d="M16 .64c-.75 0-3.2.094-3.2 1.282V8.96a1.28 1.28 0 0 0 1.278 1.277.631.631 0 0 0 .242-.039c.004 0 .57-.219 1.68-.219 1.094 0 1.66.211 1.68.22a.64.64 0 0 0 .242.038 1.28 1.28 0 0 0 1.277-1.277V1.92C19.2.735 16.75.642 16 .642m-7.781.68c-1.516.04-3.285.508-4.84 2.059-3.11 3.11-1.895 7.094-1.5 8.14H8.96c.488 0 .93.145 1.32.38a7.06 7.06 0 0 1 1.617-1.618 2.54 2.54 0 0 1-.378-1.32V1.879a9.083 9.083 0 0 0-3.301-.559m15 0a9.009 9.009 0 0 0-2.739.559V8.96c0 .488-.144.93-.378 1.32a7.06 7.06 0 0 1 1.617 1.617 2.54 2.54 0 0 1 1.32-.378h7.082c.395-1.047 1.61-5.032-1.5-8.141-1.75-1.75-3.777-2.125-5.402-2.059M8.3 2.578c.52-.012 1 .047 1.418.121a14.725 14.725 0 0 0-7.02 7.02c-.258-1.422-.23-3.59 1.602-5.418 1.289-1.293 2.75-1.692 4-1.723m14.879 0c1.351-.07 3.047.246 4.52 1.723 1.831 1.828 1.859 3.996 1.6 5.418a14.725 14.725 0 0 0-7.019-7.02 7.42 7.42 0 0 1 .899-.12M1.922 12.801C.734 12.8.64 15.25.64 16s.093 3.2 1.28 3.2h7.04a1.28 1.28 0 0 0 1.277-1.278.631.631 0 0 0-.039-.242c0-.004-.219-.57-.219-1.68 0-1.11.22-1.68.22-1.68a.565.565 0 0 0 .038-.242 1.28 1.28 0 0 0-1.277-1.277Zm21.117 0a1.28 1.28 0 0 0-1.277 1.277c0 .082.008.168.039.242 0 .004.219.57.219 1.68 0 1.11-.22 1.68-.22 1.68a.565.565 0 0 0-.038.242 1.28 1.28 0 0 0 1.277 1.277h7.04c1.187 0 1.28-2.449 1.28-3.199s-.093-3.2-1.28-3.2Zm-12.758 7.3a2.54 2.54 0 0 1-1.32.38H1.879c-.395 1.046-1.61 5.03 1.5 8.14 1.629 1.625 3.5 2.059 5.062 2.059a9.07 9.07 0 0 0 3.079-.559V23.04c0-.488.144-.93.378-1.32a7.06 7.06 0 0 1-1.617-1.617m11.438 0a7.06 7.06 0 0 1-1.617 1.618c.234.39.378.832.378 1.32v7.082a9.07 9.07 0 0 0 3.079.559c1.562 0 3.437-.434 5.062-2.059 3.11-3.11 1.895-7.094 1.5-8.14H23.04a2.54 2.54 0 0 1-1.32-.38m-7.64 1.66a1.28 1.28 0 0 0-1.28 1.277v7.04c0 1.187 2.449 1.28 3.199 1.28s3.2-.093 3.2-1.28v-7.04a1.28 1.28 0 0 0-1.278-1.277.631.631 0 0 0-.242.039c-.004 0-.57.219-1.68.219-1.11 0-1.68-.22-1.68-.22a.565.565 0 0 0-.242-.038m-11.38.52a14.725 14.725 0 0 0 7.02 7.02c-1.422.258-3.59.23-5.418-1.602-1.832-1.828-1.86-3.996-1.602-5.418m26.602 0c.258 1.422.23 3.59-1.602 5.418-1.828 1.832-3.996 1.86-5.418 1.602a14.725 14.725 0 0 0 7.02-7.02m0 0" style="stroke:none;fill-rule:nonzero;fill:rgb(0%,0%,0%);fill-opacity:1"/></svg>