<?xml version="1.0" encoding="UTF-8"?>
<svg xmlns="http://www.w3.org/2000/svg" xmlns:xlink="http://www.w3.org/1999/xlink" width="32" height="32" viewBox="0 0 32 32" version="1.1">
<g id="surface1">
<path style=" stroke:none;fill-rule:nonzero;fill:rgb(0%,0%,0%);fill-opacity:1;" d="M 16 0.640625 C 15.25 0.640625 12.800781 0.734375 12.800781 1.921875 L 12.800781 8.960938 C 12.800781 9.664062 13.371094 10.234375 14.078125 10.238281 C 14.160156 10.238281 14.242188 10.226562 14.320312 10.199219 C 14.324219 10.199219 14.890625 9.980469 16 9.980469 C 17.09375 9.980469 17.660156 10.191406 17.679688 10.199219 C 17.757812 10.226562 17.839844 10.238281 17.921875 10.238281 C 18.625 10.234375 19.199219 9.664062 19.199219 8.960938 L 19.199219 1.921875 C 19.199219 0.734375 16.75 0.640625 16 0.640625 M 8.21875 1.320312 C 6.703125 1.363281 4.933594 1.828125 3.378906 3.382812 C 0.269531 6.492188 1.484375 10.476562 1.878906 11.519531 L 8.960938 11.519531 C 9.449219 11.519531 9.890625 11.664062 10.28125 11.902344 C 10.726562 11.277344 11.273438 10.730469 11.898438 10.28125 C 11.652344 9.886719 11.519531 9.429688 11.519531 8.964844 L 11.519531 1.878906 C 10.460938 1.488281 9.34375 1.300781 8.21875 1.320312 M 23.21875 1.320312 C 22.28125 1.363281 21.355469 1.550781 20.480469 1.878906 L 20.480469 8.960938 C 20.480469 9.449219 20.335938 9.890625 20.101562 10.28125 C 20.722656 10.726562 21.269531 11.273438 21.71875 11.898438 C 22.113281 11.652344 22.570312 11.519531 23.039062 11.519531 L 30.121094 11.519531 C 30.515625 10.472656 31.730469 6.488281 28.621094 3.378906 C 26.871094 1.628906 24.84375 1.253906 23.21875 1.320312 M 8.300781 2.578125 C 8.820312 2.566406 9.300781 2.625 9.71875 2.699219 C 6.636719 4.15625 4.15625 6.636719 2.699219 9.71875 C 2.441406 8.296875 2.46875 6.128906 4.300781 4.300781 C 5.589844 3.007812 7.050781 2.609375 8.300781 2.578125 M 23.179688 2.578125 C 24.53125 2.507812 26.226562 2.824219 27.699219 4.300781 C 29.53125 6.128906 29.558594 8.296875 29.300781 9.71875 C 27.84375 6.636719 25.363281 4.15625 22.28125 2.699219 C 22.578125 2.640625 22.878906 2.601562 23.179688 2.578125 M 1.921875 12.800781 C 0.734375 12.800781 0.640625 15.25 0.640625 16 C 0.640625 16.75 0.734375 19.199219 1.921875 19.199219 L 8.960938 19.199219 C 9.664062 19.199219 10.234375 18.628906 10.238281 17.921875 C 10.238281 17.839844 10.226562 17.757812 10.199219 17.679688 C 10.199219 17.675781 9.980469 17.109375 9.980469 16 C 9.980469 14.890625 10.199219 14.320312 10.199219 14.320312 C 10.230469 14.242188 10.242188 14.160156 10.238281 14.078125 C 10.234375 13.375 9.664062 12.800781 8.960938 12.800781 Z M 23.039062 12.800781 C 22.335938 12.800781 21.761719 13.375 21.761719 14.078125 C 21.761719 14.160156 21.769531 14.246094 21.800781 14.320312 C 21.800781 14.324219 22.019531 14.890625 22.019531 16 C 22.019531 17.109375 21.800781 17.679688 21.800781 17.679688 C 21.769531 17.757812 21.757812 17.839844 21.761719 17.921875 C 21.761719 18.625 22.335938 19.199219 23.039062 19.199219 L 30.078125 19.199219 C 31.265625 19.199219 31.359375 16.75 31.359375 16 C 31.359375 15.25 31.265625 12.800781 30.078125 12.800781 Z M 10.28125 20.101562 C 9.882812 20.347656 9.425781 20.476562 8.960938 20.480469 L 1.878906 20.480469 C 1.484375 21.527344 0.269531 25.511719 3.378906 28.621094 C 5.007812 30.246094 6.878906 30.679688 8.441406 30.679688 C 9.492188 30.671875 10.535156 30.484375 11.519531 30.121094 L 11.519531 23.039062 C 11.519531 22.550781 11.664062 22.109375 11.898438 21.71875 C 11.273438 21.273438 10.730469 20.726562 10.28125 20.101562 M 21.71875 20.101562 C 21.273438 20.726562 20.726562 21.273438 20.101562 21.722656 C 20.335938 22.109375 20.480469 22.554688 20.480469 23.039062 L 20.480469 30.121094 C 21.464844 30.484375 22.507812 30.675781 23.558594 30.683594 C 25.121094 30.683594 26.996094 30.246094 28.621094 28.621094 C 31.730469 25.511719 30.515625 21.527344 30.121094 20.484375 L 23.039062 20.484375 C 22.574219 20.480469 22.117188 20.347656 21.71875 20.101562 M 14.078125 21.761719 C 13.375 21.761719 12.800781 22.335938 12.800781 23.039062 L 12.800781 30.078125 C 12.800781 31.265625 15.25 31.359375 16 31.359375 C 16.75 31.359375 19.199219 31.265625 19.199219 30.078125 L 19.199219 23.039062 C 19.199219 22.335938 18.625 21.765625 17.921875 21.761719 C 17.839844 21.761719 17.757812 21.773438 17.679688 21.800781 C 17.675781 21.800781 17.109375 22.019531 16 22.019531 C 14.890625 22.019531 14.320312 21.800781 14.320312 21.800781 C 14.242188 21.769531 14.160156 21.757812 14.078125 21.761719 M 2.695312 22.28125 C 4.152344 25.363281 6.636719 27.847656 9.71875 29.304688 C 8.296875 29.5625 6.128906 29.53125 4.300781 27.699219 C 2.46875 25.871094 2.4375 23.703125 2.695312 22.28125 M 29.300781 22.28125 C 29.558594 23.703125 29.527344 25.871094 27.695312 27.699219 C 25.867188 29.53125 23.699219 29.5625 22.277344 29.304688 C 25.359375 27.847656 27.84375 25.363281 29.300781 22.28125 M 29.300781 22.28125 "/>
</g>
</svg>
