<?xml version="1.0" encoding="utf-8"?>
<svg xmlns="http://www.w3.org/2000/svg" viewBox="0 0 50 50" fill="#000000"><path d="M 25 1 C 23.828125 1 20 1.144531 20 3 L 20 14 C 20 15.101563 20.898438 16 22 16 C 22.125 16 22.257813 15.984375 22.375 15.9375 C 22.382813 15.933594 23.269531 15.59375 25 15.59375 C 26.707031 15.59375 27.59375 15.925781 27.625 15.9375 C 27.742188 15.984375 27.871094 16 28 16 C 29.101563 16 30 15.101563 30 14 L 30 3 C 30 1.144531 26.171875 1 25 1 Z M 12.84375 2.0625 C 10.476563 2.125 7.710938 2.855469 5.28125 5.28125 C 0.421875 10.140625 2.320313 16.363281 2.9375 18 C 2.964844 18 2.972656 18 3 18 L 14 18 C 14.761719 18 15.457031 18.226563 16.0625 18.59375 C 16.761719 17.621094 17.621094 16.761719 18.59375 16.0625 C 18.222656 15.457031 18 14.761719 18 14 L 18 3 C 18 2.976563 18 2.960938 18 2.9375 C 17.179688 2.628906 15.210938 2 12.84375 2.0625 Z M 36.28125 2.0625 C 34.308594 2.144531 32.71875 2.667969 32 2.9375 C 32 2.960938 32 2.976563 32 3 L 32 14 C 32 14.761719 31.773438 15.457031 31.40625 16.0625 C 32.378906 16.761719 33.238281 17.621094 33.9375 18.59375 C 34.542969 18.222656 35.238281 18 36 18 L 47 18 C 47.027344 18 47.035156 18 47.0625 18 C 47.679688 16.363281 49.578125 10.140625 44.71875 5.28125 C 41.988281 2.546875 38.816406 1.957031 36.28125 2.0625 Z M 12.96875 4.03125 C 13.78125 4.011719 14.53125 4.101563 15.1875 4.21875 C 10.367188 6.496094 6.496094 10.367188 4.21875 15.1875 C 3.816406 12.960938 3.859375 9.578125 6.71875 6.71875 C 8.734375 4.699219 11.015625 4.078125 12.96875 4.03125 Z M 36.21875 4.03125 C 38.328125 3.917969 40.976563 4.414063 43.28125 6.71875 C 46.140625 9.578125 46.183594 12.960938 45.78125 15.1875 C 43.503906 10.367188 39.632813 6.496094 34.8125 4.21875 C 35.242188 4.140625 35.714844 4.058594 36.21875 4.03125 Z M 3 20 C 1.144531 20 1 23.828125 1 25 C 1 26.171875 1.144531 30 3 30 L 14 30 C 15.101563 30 16 29.101563 16 28 C 16 27.875 15.984375 27.742188 15.9375 27.625 C 15.933594 27.617188 15.59375 26.734375 15.59375 25 C 15.59375 23.269531 15.9375 22.375 15.9375 22.375 C 15.988281 22.253906 16 22.132813 16 22 C 16 20.898438 15.101563 20 14 20 Z M 36 20 C 34.898438 20 34 20.898438 34 22 C 34 22.125 34.015625 22.257813 34.0625 22.375 C 34.066406 22.382813 34.40625 23.265625 34.40625 25 C 34.40625 26.730469 34.0625 27.625 34.0625 27.625 C 34.011719 27.746094 34 27.867188 34 28 C 34 29.101563 34.898438 30 36 30 L 47 30 C 48.855469 30 49 26.171875 49 25 C 49 23.828125 48.855469 20 47 20 Z M 16.0625 31.40625 C 15.457031 31.777344 14.761719 32 14 32 L 3 32 C 2.972656 32 2.964844 32 2.9375 32 C 2.320313 33.636719 0.421875 39.859375 5.28125 44.71875 C 7.824219 47.261719 10.75 47.9375 13.1875 47.9375 C 15.398438 47.9375 17.214844 47.359375 18 47.0625 C 18 47.039063 18 47.023438 18 47 L 18 36 C 18 35.238281 18.226563 34.542969 18.59375 33.9375 C 17.621094 33.238281 16.761719 32.378906 16.0625 31.40625 Z M 33.9375 31.40625 C 33.238281 32.378906 32.378906 33.238281 31.40625 33.9375 C 31.777344 34.542969 32 35.238281 32 36 L 32 47 C 32 47.023438 32 47.039063 32 47.0625 C 32.785156 47.359375 34.601563 47.9375 36.8125 47.9375 C 39.25 47.9375 42.179688 47.257813 44.71875 44.71875 C 49.578125 39.859375 47.679688 33.636719 47.0625 32 C 47.035156 32 47.027344 32 47 32 L 36 32 C 35.238281 32 34.542969 31.773438 33.9375 31.40625 Z M 22 34 C 20.898438 34 20 34.898438 20 36 L 20 47 C 20 48.855469 23.828125 49 25 49 C 26.171875 49 30 48.855469 30 47 L 30 36 C 30 34.898438 29.101563 34 28 34 C 27.875 34 27.742188 34.015625 27.625 34.0625 C 27.617188 34.066406 26.730469 34.40625 25 34.40625 C 23.269531 34.40625 22.375 34.0625 22.375 34.0625 C 22.253906 34.011719 22.132813 34 22 34 Z M 4.21875 34.8125 C 6.496094 39.632813 10.367188 43.503906 15.1875 45.78125 C 12.960938 46.183594 9.578125 46.140625 6.71875 43.28125 C 3.859375 40.421875 3.816406 37.039063 4.21875 34.8125 Z M 45.78125 34.8125 C 46.183594 37.039063 46.140625 40.421875 43.28125 43.28125 C 40.421875 46.140625 37.039063 46.183594 34.8125 45.78125 C 39.632813 43.503906 43.503906 39.632813 45.78125 34.8125 Z" fill="#000000"/></svg>
