<svg role="img" viewBox="0 0 100 100" xmlns="http://www.w3.org/2000/svg"><path d="M51.609 47.078a14.007 14.007 0 0 1 3.781-6.937c2.625-2.61 6.14-4.094 9.86-4.094h14.547a13.92 13.92 0 0 1 9.859 4.094c2.61 2.625 4.094 6.14 4.094 9.859 0 3.703-1.485 7.234-4.094 9.844-2.625 2.625-6.14 4.11-9.86 4.11H65.25a13.77 13.77 0 0 1-6.016-1.376l-.047-.016a14.007 14.007 0 0 1-4.734-3.75c-1.016-1.25-.828-3.093.422-4.093a2.907 2.907 0 0 1 4.093.422 8.177 8.177 0 0 0 2.704 2.156l.109.047a8.043 8.043 0 0 0 3.469.78h14.547a8.09 8.09 0 0 0 5.734-2.39c1.516-1.515 2.39-3.578 2.39-5.734s-.874-4.203-2.39-5.735a8.09 8.09 0 0 0-5.734-2.39H65.25c-2.157 0-4.22.86-5.735 2.39a7.996 7.996 0 0 0-1.844 2.813H70.36c1.61 0 2.907 1.312 2.907 2.922s-1.297 2.906-2.907 2.906H48.39a13.942 13.942 0 0 1-3.78 6.938c-2.626 2.625-6.141 4.109-9.86 4.109H20.203a13.92 13.92 0 0 1-9.86-4.094C7.734 57.234 6.25 53.703 6.25 50s1.468-7.234 4.093-9.859c2.625-2.609 6.157-4.093 9.86-4.093H34.75c2.234 0 4.422.53 6.406 1.562s3.703 2.547 5 4.36a2.937 2.937 0 0 1-.687 4.062 2.906 2.906 0 0 1-4.063-.688 8.579 8.579 0 0 0-2.937-2.562 8.118 8.118 0 0 0-3.72-.906H20.204a8.09 8.09 0 0 0-5.735 2.39c-1.53 1.516-2.39 3.578-2.39 5.735s.86 4.203 2.39 5.734 3.578 2.39 5.735 2.39H34.75a8.09 8.09 0 0 0 5.734-2.39 7.92 7.92 0 0 0 1.844-2.828H30.406c-1.61 0-2.906-1.297-2.906-2.906s1.297-2.922 2.906-2.922z" fill-rule="evenodd"/></svg>