<?xml version="1.0" encoding="UTF-8"?>
<svg width="100pt" height="100pt" version="1.1" viewBox="0 0 100 100"
    xmlns="http://www.w3.org/2000/svg">
    <path
        d="m51.609 47.078c0.5625-2.6094 1.875-5.0312 3.7812-6.9375 2.625-2.6094 6.1406-4.0938 9.8594-4.0938h14.547c3.7031 0 7.2344 1.4688 9.8594 4.0938 2.6094 2.625 4.0938 6.1406 4.0938 9.8594 0 3.7031-1.4844 7.2344-4.0938 9.8438-2.625 2.625-6.1406 4.1094-9.8594 4.1094h-14.547c-2.0625 0-4.1094-0.45312-6.0156-1.375l-0.046875-0.015625c-1.8281-0.89062-3.4531-2.1719-4.7344-3.75-1.0156-1.25-0.82812-3.0938 0.42188-4.0938 1.2344-1.0156 3.0781-0.82812 4.0938 0.42188 0.73438 0.90625 1.6875 1.6562 2.7031 2.1562l0.10938 0.046875c1.0781 0.51562 2.2656 0.78125 3.4688 0.78125h14.547c2.1562 0 4.2031-0.85938 5.7344-2.3906 1.5156-1.5156 2.3906-3.5781 2.3906-5.7344s-0.875-4.2031-2.3906-5.7344c-1.5312-1.5312-3.5781-2.3906-5.7344-2.3906h-14.547c-2.1562 0-4.2188 0.85938-5.7344 2.3906-0.8125 0.79688-1.4375 1.7656-1.8438 2.8125h12.688c1.6094 0 2.9062 1.3125 2.9062 2.9219s-1.2969 2.9062-2.9062 2.9062h-21.969c-0.5625 2.625-1.875 5.0312-3.7812 6.9375-2.625 2.625-6.1406 4.1094-9.8594 4.1094h-14.547c-3.7031 0-7.2344-1.4688-9.8594-4.0938-2.6094-2.625-4.0938-6.1562-4.0938-9.8594s1.4688-7.2344 4.0938-9.8594c2.625-2.6094 6.1562-4.0938 9.8594-4.0938h14.547c2.2344 0 4.4219 0.53125 6.4062 1.5625s3.7031 2.5469 5 4.3594c0.92188 1.3125 0.60938 3.125-0.6875 4.0625-1.3125 0.9375-3.1406 0.625-4.0625-0.6875-0.76562-1.0625-1.7812-1.9531-2.9375-2.5625-1.1562-0.59375-2.4219-0.90625-3.7188-0.90625h-14.547c-2.1562 0-4.2031 0.85938-5.7344 2.3906-1.5312 1.5156-2.3906 3.5781-2.3906 5.7344s0.85938 4.2031 2.3906 5.7344 3.5781 2.3906 5.7344 2.3906h14.547c2.1562 0 4.2031-0.85938 5.7344-2.3906 0.8125-0.79688 1.4375-1.7656 1.8438-2.8281h-11.922c-1.6094 0-2.9062-1.2969-2.9062-2.9062s1.2969-2.9219 2.9062-2.9219z"
        fill-rule="evenodd" />
</svg>
