<?xml version="1.0" encoding="UTF-8"?>
<svg xmlns="http://www.w3.org/2000/svg" xmlns:xlink="http://www.w3.org/1999/xlink" width="32" height="32" viewBox="0 0 32 32" version="1.1">
<g id="surface1">
<path style=" stroke:none;fill-rule:evenodd;fill:rgb(0%,0%,0%);fill-opacity:1;" d="M 16.515625 15.066406 C 16.695312 14.222656 17.117188 13.453125 17.726562 12.84375 C 18.566406 12.011719 19.691406 11.535156 20.878906 11.535156 L 25.535156 11.535156 C 26.71875 11.535156 27.855469 12.007812 28.691406 12.84375 C 29.523438 13.683594 30 14.808594 30 16 C 30 17.183594 29.523438 18.316406 28.691406 19.148438 C 27.851562 19.988281 26.726562 20.464844 25.535156 20.464844 L 20.878906 20.464844 C 20.214844 20.464844 19.554688 20.316406 18.953125 20.023438 L 18.941406 20.019531 C 18.355469 19.734375 17.835938 19.324219 17.425781 18.820312 C 17.101562 18.417969 17.160156 17.832031 17.558594 17.511719 C 17.75 17.355469 17.996094 17.28125 18.242188 17.304688 C 18.488281 17.332031 18.714844 17.453125 18.871094 17.644531 C 19.105469 17.933594 19.402344 18.167969 19.734375 18.335938 L 19.769531 18.351562 C 20.117188 18.515625 20.496094 18.601562 20.878906 18.601562 L 25.535156 18.601562 C 26.222656 18.597656 26.882812 18.324219 27.371094 17.835938 C 27.855469 17.351562 28.132812 16.691406 28.132812 16 C 28.132812 15.308594 27.855469 14.65625 27.371094 14.164062 C 26.882812 13.675781 26.222656 13.402344 25.535156 13.398438 L 20.878906 13.398438 C 20.191406 13.398438 19.53125 13.675781 19.042969 14.164062 C 18.785156 14.417969 18.585938 14.726562 18.453125 15.066406 L 22.515625 15.066406 C 23.03125 15.066406 23.445312 15.484375 23.445312 16 C 23.445312 16.515625 23.03125 16.929688 22.515625 16.929688 L 15.484375 16.929688 C 15.304688 17.769531 14.882812 18.542969 14.273438 19.148438 C 13.433594 19.988281 12.308594 20.464844 11.121094 20.464844 L 6.464844 20.464844 C 5.28125 20.464844 4.144531 19.992188 3.308594 19.15625 C 2.476562 18.316406 2 17.183594 2 16 C 2 14.816406 2.46875 13.683594 3.308594 12.84375 C 4.148438 12.011719 5.28125 11.535156 6.464844 11.535156 L 11.121094 11.535156 C 11.835938 11.535156 12.535156 11.703125 13.167969 12.035156 C 13.804688 12.367188 14.355469 12.851562 14.769531 13.429688 C 15.0625 13.851562 14.964844 14.429688 14.550781 14.730469 C 14.347656 14.875 14.097656 14.933594 13.855469 14.890625 C 13.609375 14.847656 13.394531 14.710938 13.25 14.511719 C 13.003906 14.167969 12.683594 13.886719 12.308594 13.691406 C 11.941406 13.5 11.535156 13.402344 11.121094 13.398438 L 6.464844 13.398438 C 5.777344 13.402344 5.117188 13.675781 4.628906 14.164062 C 4.140625 14.648438 3.867188 15.308594 3.867188 16 C 3.867188 16.691406 4.140625 17.34375 4.628906 17.835938 C 5.121094 18.324219 5.773438 18.601562 6.464844 18.601562 L 11.121094 18.601562 C 11.808594 18.597656 12.46875 18.324219 12.953125 17.835938 C 13.214844 17.578125 13.414062 17.269531 13.546875 16.929688 L 9.730469 16.929688 C 9.214844 16.929688 8.800781 16.515625 8.800781 16 C 8.800781 15.484375 9.214844 15.066406 9.730469 15.066406 Z M 16.515625 15.066406 "/>
</g>
</svg>
