<?xml version="1.0" encoding="UTF-8"?>
<svg xmlns="http://www.w3.org/2000/svg" xmlns:xlink="http://www.w3.org/1999/xlink" width="32" height="32" viewBox="0 0 32 32" version="1.1">
<g id="surface1">
<path style=" stroke:none;fill-rule:nonzero;fill:rgb(92.54902%,93.725491%,94.509804%);fill-opacity:1;" d="M 13.398438 10.800781 L 13.464844 12.332031 L 12.398438 14.332031 L 10.734375 17.601562 L 10.398438 20.332031 L 11.601562 24.199219 L 14.332031 25.734375 L 18.464844 25.734375 L 22.332031 22.800781 L 24.066406 18.199219 L 20.066406 13.332031 L 18.933594 10.601562 Z M 13.398438 10.800781 "/>
<path style=" stroke:none;fill-rule:nonzero;fill:rgb(14.901961%,19.607843%,21.960784%);fill-opacity:1;" d="M 22.867188 14.601562 C 21.800781 13.066406 20.933594 12.132812 20.464844 10.199219 C 20 8.265625 20.601562 8.800781 20.199219 7.132812 C 20 6.265625 19.667969 5.667969 19.332031 5.199219 C 18.933594 4.734375 18.464844 4.464844 18.199219 4.398438 C 17.601562 4.066406 16.199219 3.535156 14.464844 4.464844 C 12.667969 5.398438 12.867188 7.398438 13.199219 11.464844 C 13.199219 11.734375 13.132812 12.066406 13 12.332031 C 12.734375 12.933594 12.265625 13.464844 11.867188 13.933594 C 11.398438 14.601562 10.933594 15.265625 10.601562 16 C 9.800781 17.535156 9.066406 19.464844 9.265625 20.199219 C 9.601562 20.132812 13.800781 26.535156 13.800781 26.667969 C 14.066406 26.601562 15.199219 26.601562 16.199219 26.601562 C 17.601562 26.535156 18.398438 26.464844 19.535156 26.734375 C 19.535156 26.535156 19.464844 26.332031 19.464844 26.132812 C 19.464844 25.734375 19.535156 25.398438 19.601562 24.933594 C 19.667969 24.601562 19.734375 24.265625 19.800781 23.867188 C 19.132812 24.464844 17.933594 25.132812 16.800781 25.332031 C 15.800781 25.535156 14.132812 25.199219 13.332031 24.199219 C 13.398438 24.199219 13.535156 24.199219 13.601562 24.132812 C 13.800781 24.066406 14 24 14.066406 23.867188 C 14.265625 23.535156 14.132812 23.199219 14 23 C 13.867188 22.800781 12.867188 22.066406 12.398438 21.667969 C 11.933594 21.265625 11.667969 21.066406 11.398438 20.800781 L 10.867188 20.265625 C 10.734375 20.132812 10.667969 20 10.601562 19.933594 C 10.464844 19.601562 10.398438 19.199219 10.464844 18.667969 C 10.535156 17.933594 10.800781 17.332031 11.132812 16.667969 C 11.265625 16.398438 11.601562 15.867188 11.601562 15.867188 C 11.601562 15.867188 10.464844 18.667969 11.066406 19.535156 C 11.066406 19.535156 11.132812 18.667969 11.398438 17.800781 C 11.601562 17.199219 11.933594 16.332031 12.332031 15.867188 C 12.734375 15.398438 13.734375 13.667969 13.800781 12.601562 C 13.800781 12.132812 13.867188 11.667969 13.867188 11.332031 C 13.601562 11.066406 18.265625 10.398438 18.535156 11.132812 C 18.601562 11.398438 19.535156 13.800781 20.066406 15.066406 C 20.332031 15.667969 20.667969 16.199219 20.867188 16.867188 C 21.066406 17.601562 21.199219 18.601562 21.199219 19.601562 C 21.199219 19.800781 21.199219 20.132812 21.132812 20.464844 C 21.265625 20.464844 23.867188 17.667969 20.800781 15.332031 C 20.800781 15.332031 22.667969 16.199219 22.734375 17.933594 C 22.800781 19.332031 22.199219 20.464844 22.066406 20.667969 C 22.132812 20.667969 23.464844 21.265625 23.535156 21.265625 C 23.800781 21.265625 24.332031 21.066406 24.332031 21.066406 C 24.398438 20.867188 24.601562 20.332031 24.601562 20.132812 C 25.066406 18.601562 23.933594 16.132812 22.867188 14.601562 "/>
<path style=" stroke:none;fill-rule:nonzero;fill:rgb(92.54902%,93.725491%,94.509804%);fill-opacity:1;" d="M 14.398438 7.535156 C 13.921875 7.535156 13.535156 8.128906 13.535156 8.867188 C 13.535156 9.601562 13.921875 10.199219 14.398438 10.199219 C 14.878906 10.199219 15.265625 9.601562 15.265625 8.867188 C 15.265625 8.128906 14.878906 7.535156 14.398438 7.535156 M 17.398438 7.265625 C 16.773438 7.265625 16.265625 7.953125 16.265625 8.800781 C 16.265625 9.648438 16.773438 10.332031 17.398438 10.332031 C 18.027344 10.332031 18.535156 9.648438 18.535156 8.800781 C 18.535156 7.953125 18.027344 7.265625 17.398438 7.265625 "/>
<path style=" stroke:none;fill-rule:nonzero;fill:rgb(12.941177%,12.941177%,12.941177%);fill-opacity:1;" d="M 13.957031 9.074219 C 13.992188 9.359375 14.113281 9.613281 14.277344 9.738281 C 14.4375 9.859375 14.617188 9.839844 14.742188 9.679688 C 14.867188 9.515625 14.921875 9.242188 14.882812 8.957031 C 14.851562 8.671875 14.726562 8.421875 14.566406 8.296875 C 14.40625 8.171875 14.226562 8.195312 14.101562 8.355469 C 13.976562 8.515625 13.921875 8.789062 13.957031 9.074219 M 17.332031 8.199219 C 16.964844 8.199219 16.667969 8.589844 16.667969 9.066406 C 16.667969 9.546875 16.964844 9.933594 17.332031 9.933594 C 17.703125 9.933594 18 9.546875 18 9.066406 C 18 8.589844 17.703125 8.199219 17.332031 8.199219 "/>
<path style=" stroke:none;fill-rule:nonzero;fill:rgb(100%,75.686276%,2.745098%);fill-opacity:1;" d="M 26.199219 23.734375 C 25.933594 23.601562 25.464844 23.398438 25.066406 22.800781 C 24.867188 22.464844 24.933594 21.535156 24.601562 21.132812 C 24.398438 20.867188 24.132812 21 24.066406 21 C 23.464844 21.132812 22.066406 22.066406 21.132812 21 C 21 20.867188 20.800781 20.667969 20.464844 20.667969 C 20.132812 20.667969 20 20.800781 19.867188 21.066406 C 19.734375 21.332031 19.734375 21.535156 19.734375 22.199219 C 19.734375 22.734375 19.734375 23.332031 19.667969 23.800781 C 19.535156 24.933594 19.332031 25.601562 19.332031 26.265625 C 19.332031 27 19.535156 27.464844 19.800781 27.667969 C 20 27.867188 20.332031 28 21.066406 28 C 21.800781 28 22.265625 27.734375 22.734375 27.265625 C 23.066406 26.933594 23.332031 26.800781 24.265625 26.132812 C 25 25.667969 26.132812 25.066406 26.332031 24.867188 C 26.464844 24.734375 26.667969 24.667969 26.667969 24.265625 C 26.667969 23.933594 26.398438 23.800781 26.199219 23.734375 M 12.800781 23.933594 C 12.132812 22.867188 12.066406 22.667969 11.601562 22 C 11.199219 21.332031 10.332031 20.066406 9.800781 20.066406 C 9.398438 20.066406 9.199219 20.265625 8.933594 20.535156 C 8.667969 20.800781 8.398438 21.398438 7.933594 21.734375 C 7.535156 22.066406 6.398438 22 6.132812 22.398438 C 5.867188 22.800781 6.398438 23.398438 6.398438 24.398438 C 6.398438 24.800781 6.066406 25.066406 6 25.332031 C 5.933594 25.667969 5.867188 25.867188 6 26.132812 C 6.265625 26.535156 6.601562 26.667969 8.867188 27.132812 C 10.066406 27.398438 11.199219 28.066406 11.933594 28.132812 C 12.667969 28.199219 13.933594 28.132812 13.933594 26.332031 C 14 25.265625 13.398438 25 12.800781 23.933594 M 14.066406 11.867188 C 13.667969 11.601562 13.332031 11.332031 13.332031 10.933594 C 13.332031 10.535156 13.601562 10.398438 14 10.066406 C 14.066406 10 14.800781 9.332031 15.535156 9.332031 C 16.265625 9.332031 17.132812 9.800781 17.464844 9.933594 C 18.066406 10.066406 18.667969 10.199219 18.601562 10.667969 C 18.535156 11.332031 18.464844 11.464844 17.800781 11.800781 C 17.332031 11.933594 16.464844 12.667969 15.867188 12.667969 C 15.601562 12.667969 15.199219 12.667969 14.933594 12.601562 C 14.734375 12.535156 14.398438 12.199219 14.066406 11.867188 "/>
<path style=" stroke:none;fill-rule:nonzero;fill:rgb(38.82353%,27.843139%,1.176471%);fill-opacity:1;" d="M 13.933594 11.332031 C 14.066406 11.464844 14.265625 11.601562 14.464844 11.667969 C 14.601562 11.734375 14.800781 11.800781 14.800781 11.800781 L 15.398438 11.800781 C 15.734375 11.800781 16.199219 11.667969 16.667969 11.398438 C 17.132812 11.199219 17.199219 11.066406 17.535156 10.933594 C 17.867188 10.734375 18.199219 10.535156 18.066406 10.464844 C 17.933594 10.398438 17.800781 10.464844 17.332031 10.734375 C 16.933594 11 16.601562 11.132812 16.199219 11.332031 C 16 11.398438 15.734375 11.535156 15.535156 11.535156 L 14.933594 11.535156 C 14.734375 11.535156 14.601562 11.464844 14.398438 11.398438 C 14.265625 11.332031 14.199219 11.265625 14.132812 11.265625 C 14 11.199219 13.734375 10.933594 13.601562 10.867188 C 13.601562 10.867188 13.464844 10.867188 13.535156 10.933594 Z M 15.933594 9.867188 C 16 10 16.132812 10 16.199219 10.066406 C 16.265625 10.132812 16.332031 10.132812 16.332031 10.132812 C 16.398438 10.066406 16.332031 9.933594 16.265625 9.933594 C 16.265625 9.800781 15.933594 9.800781 15.933594 9.867188 M 14.867188 10 C 14.867188 10.066406 15 10.132812 15 10.066406 C 15.066406 10 15.132812 9.933594 15.199219 9.933594 C 15.332031 9.867188 15.265625 9.800781 15.066406 9.800781 C 14.933594 9.867188 14.933594 9.933594 14.867188 10 "/>
<path style=" stroke:none;fill-rule:nonzero;fill:rgb(27.058825%,35.294119%,39.215687%);fill-opacity:1;" d="M 21.332031 21.800781 L 21.332031 22 C 21.464844 22.265625 21.800781 22.332031 22.066406 22.332031 C 22.464844 22.332031 22.867188 22.066406 23.066406 21.800781 C 23.066406 21.734375 23.132812 21.667969 23.199219 21.601562 C 23.332031 21.398438 23.398438 21.265625 23.464844 21.199219 C 23.464844 21.199219 23.398438 21.132812 23.398438 21.066406 C 23.332031 20.933594 23.132812 20.800781 22.867188 20.734375 C 22.667969 20.667969 22.332031 20.601562 22.199219 20.601562 C 21.601562 20.535156 21.265625 20.734375 21.066406 20.933594 C 21.066406 20.933594 21.132812 20.933594 21.132812 21 C 21.265625 21.132812 21.332031 21.265625 21.332031 21.464844 C 21.398438 21.601562 21.332031 21.667969 21.332031 21.800781 "/>
</g>
</svg>
