<?xml version="1.0" encoding="UTF-8"?>
<svg xmlns="http://www.w3.org/2000/svg" xmlns:xlink="http://www.w3.org/1999/xlink" width="32" height="32" viewBox="0 0 32 32" version="1.1">
<g id="surface1">
<path style=" stroke:none;fill-rule:nonzero;fill:rgb(0%,0%,0%);fill-opacity:1;" d="M 0.363281 16 C 0.363281 7.394531 7.402344 0.363281 16 0.363281 C 24.648438 0.363281 31.636719 7.394531 31.636719 16 C 31.636719 24.640625 24.648438 31.636719 16 31.636719 C 7.402344 31.636719 0.363281 24.640625 0.363281 16 M 2.886719 15.25 L 2.886719 16.785156 L 7.394531 16.785156 L 7.394531 18.269531 L 9.449219 16.007812 L 7.394531 13.730469 L 7.394531 15.25 Z M 16.007812 21.804688 C 19.070312 21.804688 21.542969 19.34375 21.542969 16.253906 C 21.542969 13.199219 19.070312 10.707031 16.007812 10.707031 C 12.945312 10.707031 10.449219 13.199219 10.449219 16.253906 C 10.449219 19.34375 12.945312 21.804688 16.007812 21.804688 M 16.007812 11.941406 C 13.601562 11.941406 11.65625 13.882812 11.65625 16.253906 C 11.65625 18.65625 13.601562 20.605469 16.007812 20.605469 C 18.398438 20.605469 20.355469 18.65625 20.355469 16.253906 C 20.355469 13.882812 18.398438 11.941406 16.007812 11.941406 M 24.648438 9.191406 L 25.367188 10.394531 L 21.550781 12.53125 C 21.90625 12.878906 22.117188 13.324219 22.347656 13.730469 L 26.117188 11.644531 L 26.820312 12.84375 L 27.601562 9.949219 Z M 29.113281 16.042969 L 27.0625 13.730469 L 27.0625 15.25 L 23.070312 15.25 C 23.132812 15.5 23.132812 15.746094 23.132812 16.007812 C 23.132812 16.289062 23.132812 16.539062 23.070312 16.785156 L 27.0625 16.785156 L 27.0625 18.269531 Z M 27.601562 22.050781 L 26.820312 19.183594 L 26.117188 20.394531 L 22.347656 18.269531 C 22.117188 18.707031 21.90625 19.113281 21.550781 19.503906 L 25.367188 21.605469 L 24.648438 22.808594 Z M 27.601562 22.050781 "/>
<path style=" stroke:none;fill-rule:nonzero;fill:rgb(100%,100%,100%);fill-opacity:1;" d="M 16 0.675781 C 7.535156 0.675781 0.675781 7.535156 0.675781 16 C 0.675781 24.464844 7.535156 31.324219 16 31.324219 C 24.464844 31.324219 31.324219 24.464844 31.324219 16 C 31.324219 7.535156 24.464844 0.675781 16 0.675781 "/>
<path style=" stroke:none;fill-rule:nonzero;fill:rgb(0%,0%,0%);fill-opacity:1;" d="M 0.363281 16 C 0.363281 7.394531 7.402344 0.363281 16 0.363281 C 24.648438 0.363281 31.636719 7.394531 31.636719 16 C 31.636719 24.640625 24.648438 31.636719 16 31.636719 C 7.402344 31.636719 0.363281 24.640625 0.363281 16 M 2.886719 15.25 L 2.886719 16.785156 L 7.394531 16.785156 L 7.394531 18.269531 L 9.449219 16.007812 L 7.394531 13.730469 L 7.394531 15.25 Z M 16.007812 21.804688 C 19.070312 21.804688 21.542969 19.34375 21.542969 16.253906 C 21.542969 13.199219 19.070312 10.707031 16.007812 10.707031 C 12.945312 10.707031 10.449219 13.199219 10.449219 16.253906 C 10.449219 19.34375 12.945312 21.804688 16.007812 21.804688 M 16.007812 11.941406 C 13.601562 11.941406 11.65625 13.882812 11.65625 16.253906 C 11.65625 18.65625 13.601562 20.605469 16.007812 20.605469 C 18.398438 20.605469 20.355469 18.65625 20.355469 16.253906 C 20.355469 13.882812 18.398438 11.941406 16.007812 11.941406 M 24.648438 9.191406 L 25.367188 10.394531 L 21.550781 12.53125 C 21.90625 12.878906 22.117188 13.324219 22.347656 13.730469 L 26.117188 11.644531 L 26.820312 12.84375 L 27.601562 9.949219 Z M 29.113281 16.042969 L 27.0625 13.730469 L 27.0625 15.25 L 23.070312 15.25 C 23.132812 15.5 23.132812 15.746094 23.132812 16.007812 C 23.132812 16.289062 23.132812 16.539062 23.070312 16.785156 L 27.0625 16.785156 L 27.0625 18.269531 Z M 27.601562 22.050781 L 26.820312 19.183594 L 26.117188 20.394531 L 22.347656 18.269531 C 22.117188 18.707031 21.90625 19.113281 21.550781 19.503906 L 25.367188 21.605469 L 24.648438 22.808594 Z M 27.601562 22.050781 "/>
</g>
</svg>
