<?xml version="1.0" encoding="UTF-8"?>
<!DOCTYPE svg PUBLIC "-//W3C//DTD SVG 1.1//EN" "http://www.w3.org/Graphics/SVG/1.1/DTD/svg11.dtd">
<svg xmlns="http://www.w3.org/2000/svg" xmlns:xlink="http://www.w3.org/1999/xlink" version="1.1" width="44px" height="44px" viewBox="-0.5 -0.5 44 44"><defs><style type="text/css">@import url(https://fonts.googleapis.com/css?family=Segoe+UI);&#xa;</style></defs><g><rect x="0" y="0" width="43" height="43" fill="none" stroke="none" pointer-events="all"/><path d="M 0 21.5 C 0 9.67 9.68 0 21.5 0 C 33.39 0 43 9.67 43 21.5 C 43 33.38 33.39 43 21.5 43 C 9.68 43 0 33.38 0 21.5 Z M 3.47 20.47 L 3.47 22.58 L 9.67 22.58 L 9.67 24.62 L 12.49 21.51 L 9.67 18.38 L 9.67 20.47 L 3.47 20.47 L 3.47 20.47 Z M 21.51 29.48 C 25.72 29.48 29.12 26.1 29.12 21.85 C 29.12 17.65 25.72 14.22 21.51 14.22 C 17.3 14.22 13.87 17.65 13.87 21.85 C 13.87 26.1 17.3 29.48 21.51 29.48 Z M 21.51 15.92 C 18.2 15.92 15.53 18.59 15.53 21.85 C 15.53 25.15 18.2 27.83 21.51 27.83 C 24.8 27.83 27.49 25.15 27.49 21.85 C 27.49 18.59 24.8 15.92 21.51 15.92 Z M 33.39 12.14 C 34.38 13.79 34.38 13.79 34.38 13.79 C 29.13 16.73 29.13 16.73 29.13 16.73 C 29.62 17.21 29.91 17.82 30.23 18.38 C 35.41 15.51 35.41 15.51 35.41 15.51 C 36.38 17.16 36.38 17.16 36.38 17.16 C 37.45 13.18 37.45 13.18 37.45 13.18 L 33.39 12.14 Z M 39.53 21.56 C 36.71 18.38 36.71 18.38 36.71 18.38 C 36.71 20.47 36.71 20.47 36.71 20.47 C 31.22 20.47 31.22 20.47 31.22 20.47 C 31.31 20.81 31.31 21.15 31.31 21.51 C 31.31 21.9 31.31 22.24 31.22 22.58 C 36.71 22.58 36.71 22.58 36.71 22.58 C 36.71 24.62 36.71 24.62 36.71 24.62 L 39.53 21.56 Z M 37.45 29.82 C 36.38 25.88 36.38 25.88 36.38 25.88 C 35.41 27.54 35.41 27.54 35.41 27.54 C 30.23 24.62 30.23 24.62 30.23 24.62 C 29.91 25.22 29.62 25.78 29.13 26.32 C 34.38 29.21 34.38 29.21 34.38 29.21 C 33.39 30.86 33.39 30.86 33.39 30.86 L 37.45 29.82 Z" fill="#000000" stroke="none" pointer-events="all"/><ellipse cx="21.5" cy="21.5" rx="21.07" ry="21.07" fill="#ffffff" stroke="none" pointer-events="all"/><rect x="0" y="0" width="43" height="43" fill="none" stroke="none" pointer-events="all"/><path d="M 0 21.5 C 0 9.67 9.68 0 21.5 0 C 33.39 0 43 9.67 43 21.5 C 43 33.38 33.39 43 21.5 43 C 9.68 43 0 33.38 0 21.5 Z M 3.47 20.47 L 3.47 22.58 L 9.67 22.58 L 9.67 24.62 L 12.49 21.51 L 9.67 18.38 L 9.67 20.47 L 3.47 20.47 L 3.47 20.47 Z M 21.51 29.48 C 25.72 29.48 29.12 26.1 29.12 21.85 C 29.12 17.65 25.72 14.22 21.51 14.22 C 17.3 14.22 13.87 17.65 13.87 21.85 C 13.87 26.1 17.3 29.48 21.51 29.48 Z M 21.51 15.92 C 18.2 15.92 15.53 18.59 15.53 21.85 C 15.53 25.15 18.2 27.83 21.51 27.83 C 24.8 27.83 27.49 25.15 27.49 21.85 C 27.49 18.59 24.8 15.92 21.51 15.92 Z M 33.39 12.14 C 34.38 13.79 34.38 13.79 34.38 13.79 C 29.13 16.73 29.13 16.73 29.13 16.73 C 29.62 17.21 29.91 17.82 30.23 18.38 C 35.41 15.51 35.41 15.51 35.41 15.51 C 36.38 17.16 36.38 17.16 36.38 17.16 C 37.45 13.18 37.45 13.18 37.45 13.18 L 33.39 12.14 Z M 39.53 21.56 C 36.71 18.38 36.71 18.38 36.71 18.38 C 36.71 20.47 36.71 20.47 36.71 20.47 C 31.22 20.47 31.22 20.47 31.22 20.47 C 31.31 20.81 31.31 21.15 31.31 21.51 C 31.31 21.9 31.31 22.24 31.22 22.58 C 36.71 22.58 36.71 22.58 36.71 22.58 C 36.71 24.62 36.71 24.62 36.71 24.62 L 39.53 21.56 Z M 37.45 29.82 C 36.38 25.88 36.38 25.88 36.38 25.88 C 35.41 27.54 35.41 27.54 35.41 27.54 C 30.23 24.62 30.23 24.62 30.23 24.62 C 29.91 25.22 29.62 25.78 29.13 26.32 C 34.38 29.21 34.38 29.21 34.38 29.21 C 33.39 30.86 33.39 30.86 33.39 30.86 L 37.45 29.82 Z" fill="#000000" stroke="none" pointer-events="all"/></g></svg>