<svg xmlns:xlink="http://www.w3.org/1999/xlink" role="img" viewBox="-.5 -.5 44 44" xmlns="http://www.w3.org/2000/svg"><defs><path d="M0 0h43v43H0z" fill="none" id="a"/><path d="M0 21.5C0 9.67 9.68 0 21.5 0 33.39 0 43 9.67 43 21.5 43 33.38 33.39 43 21.5 43 9.68 43 0 33.38 0 21.5m3.47-1.03v2.11h6.2v2.04l2.82-3.11-2.82-3.13v2.09zm18.04 9.01c4.21 0 7.61-3.38 7.61-7.63 0-4.2-3.4-7.63-7.61-7.63-4.21 0-7.64 3.43-7.64 7.63 0 4.25 3.43 7.63 7.64 7.63m0-13.56c-3.31 0-5.98 2.67-5.98 5.93 0 3.3 2.67 5.98 5.98 5.98 3.29 0 5.98-2.68 5.98-5.98 0-3.26-2.69-5.93-5.98-5.93m11.88-3.78.99 1.65-5.25 2.94c.49.48.78 1.09 1.1 1.65l5.18-2.87.97 1.65 1.07-3.98zm6.14 9.42-2.82-3.18v2.09h-5.49c.09.34.09.68.09 1.04 0 .39 0 .73-.09 1.07h5.49v2.04zm-2.08 8.26-1.07-3.94-.97 1.66-5.18-2.92c-.32.6-.61 1.16-1.1 1.7l5.25 2.89-.99 1.65z" fill="#000000" id="b"/></defs><use xlink:href="#a" pointer-events="all"/><use xlink:href="#b" pointer-events="all"/><path d="M21.5.43a21.07 21.07 0 1 0 0 42.14 21.07 21.07 0 1 0 0-42.14" fill="#ffffff" pointer-events="all"/><use xlink:href="#a" pointer-events="all"/><use xlink:href="#b" pointer-events="all"/></svg>