<svg role="img" viewBox="0 0 50 50" xmlns="http://www.w3.org/2000/svg"><path d="M25.018 1.982c-9.581 0-17.806 5.884-21.254 14.239a2 2 0 1 0 3.697 1.525c2.847-6.898 9.611-11.764 17.557-11.764 10.517 0 19 8.483 19 19 0 10.518-8.483 19-19 19-7.945 0-14.71-4.864-17.557-11.761a2 2 0 1 0-3.697 1.525c3.448 8.355 11.674 14.236 21.254 14.236 12.678 0 23-10.32 23-23 0-12.678-10.322-23-23-23m1.945 13.98a2 2 0 0 0-1.395 3.434l3.586 3.586H3.982a2 2 0 1 0 0 4h25.172l-3.586 3.586a2 2 0 1 0 2.828 2.828l7-7a2 2 0 0 0 0-2.828l-7-7a2 2 0 0 0-1.433-.605"/></svg>