<?xml version="1.0" encoding="UTF-8"?>
<svg xmlns="http://www.w3.org/2000/svg" xmlns:xlink="http://www.w3.org/1999/xlink" width="32" height="32" viewBox="0 0 32 32" version="1.1">
<g id="surface1">
<path style=" stroke:none;fill-rule:nonzero;fill:rgb(0%,0%,0%);fill-opacity:1;" d="M 16.011719 1.269531 C 9.878906 1.269531 4.617188 5.035156 2.410156 10.382812 C 2.222656 10.804688 2.28125 11.296875 2.5625 11.667969 C 2.84375 12.035156 3.300781 12.226562 3.757812 12.160156 C 4.21875 12.097656 4.605469 11.789062 4.773438 11.359375 C 6.597656 6.941406 10.925781 3.828125 16.011719 3.828125 C 22.742188 3.828125 28.171875 9.257812 28.171875 15.988281 C 28.171875 22.71875 22.742188 28.148438 16.011719 28.148438 C 10.925781 28.148438 6.597656 25.035156 4.773438 20.621094 C 4.605469 20.191406 4.21875 19.882812 3.757812 19.816406 C 3.300781 19.753906 2.84375 19.941406 2.5625 20.3125 C 2.28125 20.679688 2.222656 21.171875 2.410156 21.597656 C 4.617188 26.945312 9.878906 30.707031 16.011719 30.707031 C 24.125 30.707031 30.730469 24.105469 30.730469 15.988281 C 30.730469 7.875 24.125 1.269531 16.011719 1.269531 M 17.257812 10.214844 C 16.734375 10.214844 16.265625 10.53125 16.070312 11.015625 C 15.875 11.496094 15.988281 12.050781 16.363281 12.414062 L 18.660156 14.707031 L 2.546875 14.707031 C 1.839844 14.707031 1.269531 15.28125 1.269531 15.988281 C 1.269531 16.695312 1.839844 17.269531 2.546875 17.269531 L 18.660156 17.269531 L 16.363281 19.5625 C 16.03125 19.886719 15.898438 20.359375 16.015625 20.808594 C 16.132812 21.253906 16.480469 21.605469 16.929688 21.722656 C 17.375 21.839844 17.851562 21.707031 18.171875 21.375 L 22.652344 16.894531 C 23.152344 16.394531 23.152344 15.582031 22.652344 15.082031 L 18.171875 10.605469 C 17.933594 10.355469 17.601562 10.214844 17.257812 10.214844 "/>
</g>
</svg>
