<svg xmlns="http://www.w3.org/2000/svg" xmlns:xlink="http://www.w3.org/1999/xlink" viewBox="0 0 107 81" fill="#fff" fill-rule="evenodd" stroke="#000" stroke-linecap="round" stroke-linejoin="round"><use xlink:href="#A" x=".5" y=".5"/><symbol id="A" overflow="visible"><g stroke="none"><path d="M54.6 32.371V22.062h-5.25v10.309c0 1.855-1.68 3.505-4.41 4.33l-7.14 1.443c-4.83 1.444-8.19 5.155-8.19 9.278v11.753h5.25V47.423c0-1.856 1.68-3.505 4.41-4.33l7.14-1.65c4.83-1.237 8.19-4.948 8.19-9.072z" fill="#59b4d9"/><path d="M41.16 64.536v-9.484c0-2.268-1.89-4.124-4.2-4.124H27.3c-2.31 0-4.2 1.855-4.2 4.124v9.484c0 2.268 1.89 4.124 4.2 4.124h9.66c2.31 0 4.2-1.856 4.2-4.124z" fill="#7fba00"/><path d="M48.72 32.371V22.062h5.25v10.309c0 1.855 1.68 3.505 4.41 4.33l8.82 1.856c4.83 1.443 8.19 5.155 8.19 9.278v11.752h-5.25V47.835c0-1.856-1.68-3.505-4.41-4.33l-8.82-1.855c-4.83-1.443-8.19-5.155-8.19-9.278z" fill="#59b4d9"/><path d="M63.84 64.948v-9.484c0-2.268 1.89-4.124 4.2-4.124h9.66c2.31 0 4.2 1.856 4.2 4.124v9.484c0 2.268-1.89 4.124-4.2 4.124h-9.66c-2.31 0-4.2-1.856-4.2-4.124z" fill="#7fba00"/><path d="M48.72 22.062h5.88v9.897h-5.88z" fill="#59b4d9"/><path d="M55.65 12.577v7.629h-7.77v-7.629h7.77m1.68-5.773H46.2c-2.31 0-4.2 1.856-4.2 4.124v10.928c0 2.268 1.89 4.124 4.2 4.124h11.13c2.31 0 4.2-1.855 4.2-4.124V10.928c0-2.268-1.89-4.124-4.2-4.124h0z" fill="#0072c6"/><path d="M16.59 80c-4.41 0-7.56-.825-9.45-2.268-1.89-1.65-2.73-4.33-2.73-8.247V48.041c0-3.505-1.47-5.361-4.41-5.361v-5.36c2.94 0 4.41-1.855 4.41-5.567V10.722c0-3.918.84-6.804 2.73-8.454S12.18 0 16.59 0v5.361c-3.15 0-4.83 1.65-4.83 5.155v20.619c0 4.742-1.47 7.629-4.62 8.866h0c2.94 1.237 4.62 4.124 4.62 8.866v20.412c0 1.856.42 3.299 1.05 4.124.84.825 1.89 1.237 3.57 1.237l.21 5.36c-.21 0 0 0 0 0zM88.41 0c4.41 0 7.56.825 9.45 2.268 1.89 1.65 2.73 4.33 2.73 8.247v21.443c0 3.505 1.47 5.361 4.41 5.361v5.361c-2.94 0-4.41 1.855-4.41 5.567v20.825c0 3.917-.84 6.804-2.73 8.453S92.82 80 88.41 80v-5.361c3.15 0 4.83-1.65 4.83-5.155V48.866c0-4.742 1.47-7.629 4.62-8.866h0c-2.94-1.237-4.62-4.124-4.62-8.866V10.722c0-1.856-.42-3.299-1.05-4.124-.84-.825-1.89-1.237-3.57-1.237L88.41 0h0z" fill="#59b4d9"/></g></symbol></svg>