<svg role="img" viewBox="0 0 42.272 32" xmlns="http://www.w3.org/2000/svg"><path d="M21.77 12.984v-4.07h-2.075v4.07c0 .735-.664 1.387-1.742 1.711l-2.82.57c-1.91.57-3.238 2.04-3.238 3.669v4.64h2.074v-4.64c0-.735.664-1.387 1.742-1.711l2.82-.653c1.91-.488 3.239-1.953 3.239-3.586m0 0" style="stroke:none;fill-rule:evenodd;fill:rgb(34.901962%,70.588237%,85.09804%);fill-opacity:1"/><path d="M16.457 25.691v-3.746c0-.894-.746-1.629-1.656-1.629h-3.817c-.914 0-1.66.735-1.66 1.63v3.745c0 .899.746 1.633 1.66 1.633h3.817c.91 0 1.656-.734 1.656-1.633m0 0" style="stroke:none;fill-rule:evenodd;fill:rgb(49.803922%,72.941178%,0%);fill-opacity:1"/><path d="M19.445 12.984v-4.07h2.075v4.07c0 .735.664 1.387 1.742 1.711l3.484.735c1.906.57 3.234 2.035 3.234 3.664v4.644h-2.074v-4.644c0-.73-.664-1.383-1.742-1.711l-3.484-.73c-1.907-.571-3.235-2.036-3.235-3.665Zm0 0" style="stroke:none;fill-rule:evenodd;fill:rgb(34.901962%,70.588237%,85.09804%);fill-opacity:1"/><path d="M25.418 25.855V22.11c0-.894.746-1.629 1.66-1.629h3.817c.91 0 1.66.735 1.66 1.63v3.745c0 .899-.75 1.63-1.66 1.63h-3.817c-.914 0-1.66-.731-1.66-1.63m0 0" style="stroke:none;fill-rule:evenodd;fill:rgb(49.803922%,72.941178%,0%);fill-opacity:1"/><path d="M19.445 8.914h2.325v3.91h-2.325Zm0 0" style="stroke:none;fill-rule:evenodd;fill:rgb(34.901962%,70.588237%,85.09804%);fill-opacity:1"/><path d="M22.184 5.168V8.18h-3.07V5.168zm.664-2.281h-4.399c-.914 0-1.66.73-1.66 1.629v4.316c0 .895.746 1.629 1.66 1.629h4.399c.91 0 1.656-.734 1.656-1.629V4.516c0-.899-.746-1.63-1.656-1.63m0 0" style="stroke:none;fill-rule:evenodd;fill:rgb(0%,44.705883%,77.64706%);fill-opacity:1"/><path d="M6.75 31.8c-1.742 0-2.984-.323-3.73-.894-.747-.652-1.079-1.71-1.079-3.258v-8.472c0-1.383-.582-2.117-1.742-2.117V14.94c1.16 0 1.742-.734 1.742-2.199V4.434c0-1.547.332-2.688 1.079-3.34C3.766.44 5.008.199 6.75.199v2.117c-1.242 0-1.906.653-1.906 2.036v8.144c0 1.875-.582 3.016-1.824 3.504 1.16.488 1.824 1.629 1.824 3.504v8.062c0 .735.164 1.305.414 1.63.332.327.746.488 1.41.488zc-.082 0 0 0 0 0M35.125.2c1.742 0 2.988.323 3.734.894.746.652 1.078 1.71 1.078 3.258v8.472c0 1.383.579 2.117 1.743 2.117v2.118c-1.164 0-1.742.734-1.742 2.199v8.226c0 1.547-.333 2.688-1.079 3.34-.746.653-1.992.977-3.734.977v-2.117c1.246 0 1.906-.653 1.906-2.036v-8.144c0-1.875.582-3.016 1.828-3.504-1.164-.488-1.828-1.629-1.828-3.504V4.434c0-.735-.164-1.305-.414-1.63-.332-.327-.746-.488-1.41-.488Zm0 0" style="stroke:none;fill-rule:evenodd;fill:rgb(34.901962%,70.588237%,85.09804%);fill-opacity:1"/></svg>