<svg role="img" viewBox="0 0 50 50" xmlns="http://www.w3.org/2000/svg"><path d="M3 0C1.348 0 0 1.348 0 3v44c0 1.652 1.348 3 3 3h34c1.652 0 3-1.348 3-3v-8.844c-.543.469-1.215.75-1.937.75A3.02 3.02 0 0 1 35.937 38a2.97 2.97 0 0 1 0-4.219L40 29.688V28H17c-1.652 0-3-1.348-3-3s1.348-3 3-3h23v-1.687l-4.062-4.094a2.915 2.915 0 0 1-.876-2.094 2.987 2.987 0 0 1 3-3c.723 0 1.395.25 1.938.719V3c0-1.652-1.348-3-3-3Zm35.063 13.125a1.02 1.02 0 0 0-.72.281.99.99 0 0 0 0 1.406L46.532 24H17c-.55 0-1 .45-1 1s.45 1 1 1h29.531l-9.187 9.188a.99.99 0 0 0 0 1.406c.195.195.46.312.718.312.258 0 .493-.117.688-.312L50.344 25 38.75 13.406a.944.944 0 0 0-.687-.281"/></svg>