<?xml version="1.0" encoding="UTF-8"?>
<svg xmlns="http://www.w3.org/2000/svg" xmlns:xlink="http://www.w3.org/1999/xlink" width="32" height="32" viewBox="0 0 32 32" version="1.1">
<g id="surface1">
<path style=" stroke:none;fill-rule:nonzero;fill:rgb(25.098041%,25.098041%,25.490198%);fill-opacity:1;" d="M 30.464844 1.601562 L 1.535156 1.601562 C 0.671875 1.601562 0 2.273438 0 3.136719 L 0 6.238281 L 32 6.238281 L 32 3.136719 C 32 2.273438 31.328125 1.601562 30.464844 1.601562 M 2.816406 4.449219 C 2.78125 4.488281 2.738281 4.519531 2.6875 4.542969 C 2.65625 4.574219 2.59375 4.609375 2.558594 4.609375 C 2.496094 4.640625 2.464844 4.640625 2.398438 4.671875 C 2.335938 4.671875 2.304688 4.703125 2.238281 4.703125 C 2.175781 4.703125 2.144531 4.703125 2.078125 4.671875 C 2.015625 4.671875 1.984375 4.640625 1.921875 4.609375 C 1.886719 4.574219 1.824219 4.574219 1.792969 4.542969 C 1.761719 4.511719 1.695312 4.480469 1.664062 4.449219 C 1.511719 4.296875 1.429688 4.085938 1.441406 3.871094 C 1.445312 3.660156 1.523438 3.457031 1.664062 3.296875 C 1.855469 3.105469 2.113281 3.039062 2.398438 3.070312 C 2.464844 3.070312 2.496094 3.105469 2.558594 3.136719 C 2.625 3.167969 2.65625 3.167969 2.6875 3.199219 C 2.71875 3.230469 2.785156 3.265625 2.816406 3.296875 C 2.976562 3.457031 3.039062 3.648438 3.039062 3.871094 C 3.039062 4.085938 2.960938 4.292969 2.816406 4.449219 M 5.601562 4.0625 C 5.601562 4.128906 5.566406 4.160156 5.566406 4.222656 C 5.535156 4.289062 5.535156 4.320312 5.503906 4.351562 C 5.472656 4.382812 5.441406 4.449219 5.40625 4.480469 C 5.371094 4.519531 5.328125 4.550781 5.28125 4.574219 C 5.246094 4.609375 5.199219 4.632812 5.152344 4.640625 C 5.121094 4.671875 5.054688 4.671875 4.992188 4.671875 C 4.929688 4.671875 4.894531 4.703125 4.832031 4.703125 C 4.621094 4.699219 4.417969 4.621094 4.257812 4.480469 C 4.21875 4.445312 4.183594 4.402344 4.160156 4.351562 C 4.125 4.316406 4.105469 4.269531 4.097656 4.222656 C 4.0625 4.160156 4.0625 4.128906 4.0625 4.0625 C 4.0625 4 4.03125 3.96875 4.03125 3.902344 C 4.03125 3.839844 4.03125 3.808594 4.0625 3.742188 C 4.0625 3.679688 4.097656 3.648438 4.097656 3.585938 C 4.128906 3.550781 4.128906 3.488281 4.160156 3.457031 C 4.191406 3.425781 4.222656 3.359375 4.257812 3.328125 C 4.292969 3.289062 4.335938 3.257812 4.382812 3.230469 C 4.417969 3.195312 4.464844 3.175781 4.511719 3.167969 C 4.542969 3.136719 4.609375 3.136719 4.671875 3.105469 C 4.929688 3.039062 5.214844 3.136719 5.40625 3.328125 C 5.449219 3.363281 5.480469 3.40625 5.503906 3.457031 C 5.539062 3.492188 5.558594 3.539062 5.566406 3.585938 C 5.59375 3.632812 5.605469 3.6875 5.601562 3.742188 C 5.601562 3.808594 5.632812 3.839844 5.632812 3.902344 C 5.632812 3.96875 5.632812 4 5.601562 4.0625 M 8.191406 4.0625 C 8.191406 4.128906 8.160156 4.160156 8.128906 4.222656 C 8.097656 4.289062 8.097656 4.320312 8.0625 4.351562 C 8.03125 4.382812 8 4.449219 7.96875 4.480469 C 7.929688 4.519531 7.886719 4.550781 7.839844 4.574219 C 7.804688 4.609375 7.761719 4.632812 7.710938 4.640625 C 7.648438 4.671875 7.617188 4.671875 7.550781 4.703125 C 7.488281 4.703125 7.457031 4.734375 7.390625 4.734375 C 7.328125 4.734375 7.296875 4.734375 7.230469 4.703125 C 7.167969 4.703125 7.136719 4.671875 7.070312 4.640625 C 7.007812 4.609375 6.976562 4.609375 6.945312 4.574219 C 6.910156 4.542969 6.847656 4.511719 6.816406 4.480469 C 6.777344 4.441406 6.746094 4.398438 6.71875 4.351562 C 6.683594 4.316406 6.664062 4.269531 6.65625 4.222656 C 6.625 4.160156 6.625 4.128906 6.59375 4.0625 L 6.59375 3.742188 C 6.59375 3.679688 6.625 3.648438 6.65625 3.585938 C 6.6875 3.550781 6.6875 3.488281 6.71875 3.457031 C 6.753906 3.425781 6.785156 3.359375 6.816406 3.328125 C 6.847656 3.296875 6.878906 3.265625 6.945312 3.230469 C 6.980469 3.195312 7.023438 3.175781 7.070312 3.167969 C 7.136719 3.136719 7.167969 3.136719 7.230469 3.105469 C 7.332031 3.070312 7.445312 3.070312 7.550781 3.105469 C 7.617188 3.105469 7.648438 3.136719 7.710938 3.167969 C 7.742188 3.199219 7.808594 3.199219 7.839844 3.230469 C 7.871094 3.265625 7.9375 3.296875 7.96875 3.328125 C 8.007812 3.363281 8.039062 3.40625 8.0625 3.457031 C 8.097656 3.488281 8.121094 3.535156 8.128906 3.585938 C 8.160156 3.648438 8.160156 3.679688 8.191406 3.742188 L 8.191406 3.902344 C 8.222656 3.96875 8.222656 4 8.191406 4.0625 M 0 28.863281 C 0 29.726562 0.671875 30.398438 1.535156 30.398438 L 30.496094 30.398438 C 31.328125 30.398438 32.03125 29.726562 32.03125 28.863281 L 32.03125 7.839844 L 0 7.839844 Z M 10.238281 25.152344 L 16.769531 25.152344 L 16.769531 26.753906 L 10.238281 26.753906 Z M 10.238281 21.726562 L 16.769531 21.726562 L 16.769531 23.328125 L 10.238281 23.328125 Z M 10.238281 18.304688 L 16.769531 18.304688 L 16.769531 19.902344 L 10.238281 19.902344 Z M 10.238281 14.878906 L 16.769531 14.878906 L 16.769531 16.480469 L 10.238281 16.480469 Z M 26.015625 19.902344 L 18.367188 19.902344 L 18.367188 18.304688 L 26.015625 18.304688 Z M 26.015625 23.328125 L 22.816406 23.328125 L 22.816406 21.726562 L 26.015625 21.726562 Z M 18.367188 21.726562 L 21.183594 21.726562 L 21.183594 23.328125 L 18.367188 23.328125 Z M 21.183594 16.480469 L 18.367188 16.480469 L 18.367188 14.878906 L 21.183594 14.878906 Z M 18.367188 25.152344 L 23.390625 25.152344 L 23.390625 26.753906 L 18.367188 26.753906 Z M 30.078125 26.753906 L 24.992188 26.753906 L 24.992188 25.152344 L 30.078125 25.152344 Z M 30.078125 23.328125 L 27.617188 23.328125 L 27.617188 21.726562 L 30.078125 21.726562 Z M 30.078125 19.902344 L 27.617188 19.902344 L 27.617188 18.304688 L 30.078125 18.304688 Z M 30.078125 16.480469 L 22.785156 16.480469 L 22.785156 14.878906 L 30.078125 14.878906 Z M 30.078125 13.054688 L 27.617188 13.054688 L 27.617188 11.457031 L 30.078125 11.457031 Z M 26.015625 13.054688 L 18.367188 13.054688 L 18.367188 11.457031 L 26.015625 11.457031 Z M 16.769531 13.054688 L 10.238281 13.054688 L 10.238281 11.457031 L 16.769531 11.457031 Z M 1.953125 11.457031 L 8.640625 11.457031 L 8.640625 13.054688 L 1.953125 13.054688 Z M 1.953125 14.878906 L 8.640625 14.878906 L 8.640625 16.480469 L 1.953125 16.480469 Z M 1.953125 18.304688 L 8.640625 18.304688 L 8.640625 19.902344 L 1.953125 19.902344 Z M 1.953125 21.726562 L 8.640625 21.726562 L 8.640625 23.328125 L 1.953125 23.328125 Z M 1.953125 25.152344 L 8.640625 25.152344 L 8.640625 26.753906 L 1.953125 26.753906 Z M 1.953125 25.152344 "/>
</g>
</svg>
