<svg role="img" viewBox="0 0 32 32" xmlns="http://www.w3.org/2000/svg"><path d="M30.465 1.602H1.535C.672 1.602 0 2.273 0 3.137v3.101h32V3.137c0-.864-.672-1.535-1.535-1.535M2.816 4.449a.391.391 0 0 1-.128.094c-.032.031-.094.066-.13.066-.062.032-.093.032-.16.063-.062 0-.093.031-.16.031-.062 0-.093 0-.16-.031-.062 0-.094-.031-.156-.063-.035-.035-.098-.035-.129-.066s-.098-.063-.129-.094a.77.77 0 0 1-.223-.578.91.91 0 0 1 .223-.574c.191-.192.45-.258.734-.227.067 0 .098.035.16.067.067.031.098.031.13.062.03.031.097.067.128.098.16.16.223.351.223.574a.85.85 0 0 1-.223.578m2.786-.386c0 .066-.036.097-.036.16-.03.066-.03.097-.062.129-.031.03-.063.097-.098.128a.405.405 0 0 1-.125.094.241.241 0 0 1-.129.067c-.03.03-.097.03-.16.03-.062 0-.097.032-.16.032a.904.904 0 0 1-.574-.223.396.396 0 0 1-.098-.128.234.234 0 0 1-.062-.13c-.035-.062-.035-.093-.035-.16 0-.062-.032-.093-.032-.16 0-.062 0-.093.032-.16 0-.062.035-.094.035-.156.03-.035.03-.098.062-.129.031-.031.063-.098.098-.129a.526.526 0 0 1 .125-.098.247.247 0 0 1 .129-.062c.031-.031.097-.031.16-.063.258-.066.543.032.734.223a.358.358 0 0 1 .098.129.234.234 0 0 1 .062.129.255.255 0 0 1 .036.156c0 .067.03.098.03.16 0 .067 0 .098-.03.16m2.59 0c0 .066-.032.097-.063.16-.031.066-.031.097-.066.129-.032.03-.063.097-.094.128a.458.458 0 0 1-.13.094.229.229 0 0 1-.128.067c-.063.03-.094.03-.16.062-.063 0-.094.031-.16.031-.063 0-.094 0-.16-.03-.063 0-.094-.032-.16-.063-.063-.032-.094-.032-.126-.067-.035-.031-.097-.062-.129-.094a.547.547 0 0 1-.097-.128.234.234 0 0 1-.063-.13c-.031-.062-.031-.093-.062-.16v-.32c0-.062.031-.094.062-.156.032-.035.032-.098.063-.129.035-.031.066-.098.097-.129.032-.031.063-.062.13-.098a.237.237 0 0 1 .124-.062c.067-.031.098-.031.16-.063a.5.5 0 0 1 .32 0c.067 0 .098.032.16.063.032.031.099.031.13.062.031.036.098.067.129.098a.406.406 0 0 1 .093.129.217.217 0 0 1 .067.129c.031.062.031.094.062.156v.16c.032.067.032.098 0 .16M0 28.863c0 .864.672 1.535 1.535 1.535h28.961c.832 0 1.535-.671 1.535-1.535V7.84H0Zm10.238-3.71h6.532v1.6h-6.532Zm0-3.426h6.532v1.601h-6.532Zm0-3.422h6.532v1.597h-6.532Zm0-3.426h6.532v1.601h-6.532Zm15.778 5.023h-7.649v-1.597h7.649Zm0 3.426h-3.2v-1.601h3.2Zm-7.649-1.601h2.817v1.601h-2.817Zm2.817-5.247h-2.817v-1.6h2.817Zm-2.817 8.672h5.024v1.602h-5.024Zm11.711 1.602h-5.086v-1.602h5.086Zm0-3.426h-2.46v-1.601h2.46Zm0-3.426h-2.46v-1.597h2.46Zm0-3.422h-7.293v-1.6h7.293Zm0-3.425h-2.46v-1.598h2.46Zm-4.062 0h-7.649v-1.598h7.649Zm-9.246 0h-6.532v-1.598h6.532ZM1.953 11.457h6.688v1.598H1.953Zm0 3.422h6.688v1.601H1.953Zm0 3.426h6.688v1.597H1.953Zm0 3.422h6.688v1.601H1.953Zm0 3.425h6.688v1.602H1.953Zm0 0" style="stroke:none;fill-rule:nonzero;fill:rgb(25.098041%,25.098041%,25.490198%);fill-opacity:1"/></svg>