<svg xmlns="http://www.w3.org/2000/svg" width="33" height="33" stroke="#000" stroke-linecap="round" stroke-linejoin="round" fill="#fff" fill-rule="evenodd"><path d="M30.6215 9.1032c3.6452 7.1537 1.4237 15.9011-5.1929 20.4489s-15.5794 3.487-20.9518-2.4795-5.4908-14.9908-.2766-21.0961S18.3461-1.424 25.0798 2.9487" stroke="gray" fill="none" stroke-width=".7341"/><g stroke="none" fill-rule="nonzero"><path d="M3.9915 16.3665c0-6.8555 5.519-12.3745 12.3745-12.3745s12.3745 5.519 12.3745 12.3745S23.2215 28.741 16.366 28.741 3.9915 23.222 3.9915 16.3665z" fill="navy"/><path d="M17.8676 11.241c0-2.0079 1.6164-3.6243 3.6243-3.6243s3.6243 1.6164 3.6243 3.6243-1.6164 3.6243-3.6243 3.6243-3.6243-1.6164-3.6243-3.6243z"/><path d="M25.1162 3.9921a3.617 3.617 0 1 1 7.2493 0 3.617 3.617 0 0 1-7.2493 0z" fill="navy"/><path d="M13.0139 22.5536v-.9132H9.0046v-7.2059H7.9688v8.1192h5.0449m5.5665-.0001v-5.8357h-.9244v3.2187c0 1.1917-.6237 1.9713-1.5927 1.9713-.735 0-1.2028-.4455-1.2028-1.1471v-4.043h-.9244v4.4108c0 .9689.7239 1.5927 1.8603 1.5927.8576 0 1.4033-.3007 1.9491-1.0692v.9022h.8352m6.7896-.0227v-.7017c-.1001.0223-.1447.0223-.2004.0223-.323 0-.5012-.1671-.5012-.4566v-3.2521c0-1.0358-.7573-1.5927-2.194-1.5927-1.4145 0-2.2832.5458-2.3388 1.8934h.9355c.0779-.7129.5012-1.0358 1.3698-1.0358.8353 0 1.3031.3118 1.3031.8687v.245c0 .3899-.2339.5569-.9689.646-1.3142.167-1.5147.2116-1.8711.3564-.6794.2784-1.0246.8019-1.0246 1.5147 0 1.058.735 1.6817 1.9156 1.6817.7462 0 1.4701-.3118 1.9824-.8576.1002.4455.5012.7685.9579.7685.1893 0 .3341-.0223.6348-.1002m-1.6261-1.9935c0 .8352-.8464 1.3698-1.7482 1.3698-.7239 0-1.1471-.2562-1.1471-.891 0-.6126.4121-.8798 1.4033-1.0246.9801-.1337 1.1805-.1782 1.4924-.323v.8686"/></g></svg>