<svg role="img" viewBox="0 0 32 32" xmlns="http://www.w3.org/2000/svg"><path d="M30.623 9.104c3.642 7.154 1.422 15.9-5.196 20.448C18.812 34.1 9.849 33.04 4.475 27.074c-5.37-5.97-5.49-14.993-.273-21.096 5.212-6.107 14.143-7.4 20.878-3.03" style="fill:none;stroke-width:0.7341;stroke-linecap:round;stroke-linejoin:round;stroke:rgb(50.196081%,50.196081%,50.196081%);stroke-opacity:1;stroke-miterlimit:4" transform="scale(.9697)"/><path d="M3.871 15.871c0-6.648 5.352-12 12-12 6.649 0 12 5.352 12 12 0 6.649-5.351 12-12 12-6.648 0-12-5.351-12-12m0 0" style="stroke:none;fill-rule:nonzero;fill:rgb(0%,0%,50.196081%);fill-opacity:1"/><path d="M17.324 10.898a3.508 3.508 0 0 1 3.516-3.511 3.505 3.505 0 0 1 3.515 3.511 3.506 3.506 0 0 1-3.515 3.516 3.508 3.508 0 0 1-3.516-3.516m0 0" style="stroke:none;fill-rule:nonzero;fill:rgb(100%,100%,100%);fill-opacity:1"/><path d="M24.355 3.871a3.513 3.513 0 1 1 7.027 0 3.513 3.513 0 1 1-7.027 0m0 0" style="stroke:none;fill-rule:nonzero;fill:rgb(0%,0%,50.196081%);fill-opacity:1"/><path d="M12.621 21.871v-.887h-3.89v-6.988H7.726v7.875zm5.395 0v-5.66h-.895v3.121c0 1.156-.605 1.91-1.543 1.91-.715 0-1.168-.43-1.168-1.11v-3.921h-.898v4.277c0 .942.703 1.543 1.804 1.543.832 0 1.364-.289 1.891-1.035v.875zm6.586-.023v-.68c-.098.023-.141.023-.196.023-.312 0-.484-.164-.484-.445v-3.152c0-1.004-.735-1.543-2.129-1.543-1.371 0-2.215.527-2.266 1.836h.907c.074-.692.484-1.004 1.328-1.004.808 0 1.261.3 1.261.84v.238c0 .379-.226.539-.937.625-1.273.164-1.469.207-1.816.348-.657.27-.993.777-.993 1.468 0 1.024.711 1.63 1.856 1.63.726 0 1.426-.302 1.926-.833a.952.952 0 0 0 .925.746c.184 0 .325-.02.618-.097m-1.579-1.934c0 .813-.82 1.328-1.695 1.328-.7 0-1.11-.246-1.11-.863 0-.594.4-.852 1.36-.992.95-.13 1.145-.172 1.445-.313z" style="stroke:none;fill-rule:nonzero;fill:rgb(100%,100%,100%);fill-opacity:1"/></svg>