<?xml version="1.0" encoding="UTF-8"?>
<svg xmlns="http://www.w3.org/2000/svg" xmlns:xlink="http://www.w3.org/1999/xlink" width="27.9" height="32" viewBox="0 0 27.9 32" version="1.1">
<g id="surface1">
<path style=" stroke:none;fill-rule:nonzero;fill:rgb(1.568628%,1.568628%,1.568628%);fill-opacity:1;" d="M 27.003906 31.203125 L 27.003906 0.703125 L 24.816406 0.703125 L 24.816406 -0.0273438 L 27.855469 -0.0273438 L 27.855469 31.972656 L 24.816406 31.972656 L 24.816406 31.242188 Z M 8.136719 10.40625 L 8.136719 11.945312 L 8.179688 11.945312 C 8.566406 11.378906 9.074219 10.914062 9.667969 10.574219 C 10.25 10.253906 10.917969 10.089844 11.660156 10.089844 C 12.378906 10.089844 13.039062 10.230469 13.628906 10.511719 C 14.222656 10.789062 14.679688 11.28125 14.988281 11.988281 C 15.328125 11.488281 15.785156 11.050781 16.367188 10.671875 C 16.949219 10.285156 17.640625 10.097656 18.429688 10.097656 C 19.03125 10.097656 19.589844 10.171875 20.097656 10.316406 C 20.613281 10.464844 21.054688 10.699219 21.417969 11.023438 C 21.785156 11.347656 22.070312 11.769531 22.277344 12.292969 C 22.484375 12.816406 22.585938 13.441406 22.585938 14.183594 L 22.585938 21.8125 L 19.457031 21.8125 L 19.457031 15.351562 C 19.457031 14.96875 19.441406 14.609375 19.410156 14.273438 C 19.390625 13.964844 19.308594 13.664062 19.171875 13.390625 C 19.035156 13.140625 18.835938 12.933594 18.585938 12.796875 C 18.328125 12.648438 17.980469 12.574219 17.535156 12.574219 C 17.097656 12.574219 16.738281 12.660156 16.464844 12.828125 C 16.195312 12.996094 15.980469 13.21875 15.828125 13.488281 C 15.667969 13.777344 15.5625 14.089844 15.519531 14.417969 C 15.46875 14.765625 15.441406 15.117188 15.441406 15.46875 L 15.441406 21.816406 L 12.3125 21.816406 L 12.3125 15.417969 C 12.3125 15.078125 12.304688 14.742188 12.289062 14.417969 C 12.277344 14.101562 12.214844 13.792969 12.101562 13.5 C 11.996094 13.222656 11.800781 12.988281 11.550781 12.828125 C 11.292969 12.660156 10.914062 12.574219 10.410156 12.574219 C 10.214844 12.582031 10.019531 12.617188 9.828125 12.675781 C 9.570312 12.75 9.328125 12.878906 9.121094 13.050781 C 8.894531 13.234375 8.699219 13.496094 8.539062 13.84375 C 8.378906 14.1875 8.296875 14.640625 8.296875 15.203125 L 8.296875 21.824219 L 5.167969 21.824219 L 5.167969 10.421875 Z M 0.839844 0.738281 L 0.839844 31.238281 L 3.03125 31.238281 L 3.03125 31.96875 L -0.0078125 31.96875 L -0.0078125 -0.03125 L 3.019531 -0.03125 L 3.019531 0.699219 Z M 0.839844 0.738281 "/>
</g>
</svg>
