<?xml version="1.0" encoding="UTF-8"?>
<svg xmlns="http://www.w3.org/2000/svg" xmlns:xlink="http://www.w3.org/1999/xlink" width="32" height="32" viewBox="0 0 32 32" version="1.1">
<g id="surface1">
<path style=" stroke:none;fill-rule:nonzero;fill:rgb(0%,0%,0%);fill-opacity:1;" d="M 15.074219 0.0429688 C 8.796875 0.480469 3.449219 4.355469 1.164062 10.125 C -0.882812 15.296875 -0.0898438 21.160156 3.269531 25.613281 C 5.8125 28.996094 9.480469 31.167969 13.765625 31.808594 C 14.820312 31.980469 16.832031 32.011719 17.820312 31.886719 C 20.929688 31.484375 23.710938 30.3125 26.058594 28.421875 C 26.890625 27.753906 28.167969 26.429688 28.753906 25.632812 C 30.441406 23.363281 31.488281 20.789062 31.886719 17.949219 C 31.988281 17.164062 31.988281 14.835938 31.886719 14.050781 C 31.628906 12.246094 31.117188 10.550781 30.339844 8.972656 C 29.523438 7.3125 28.648438 6.082031 27.351562 4.769531 C 26.6875 4.085938 25.5625 3.128906 25.445312 3.128906 C 25.410156 3.128906 25.421875 3.800781 25.464844 4.789062 L 25.550781 6.449219 L 25.996094 7.007812 C 27.210938 8.519531 28.089844 10.425781 28.4375 12.308594 C 28.59375 13.203125 28.628906 15.054688 28.5 15.871094 C 28.210938 17.648438 27.527344 19.320312 26.519531 20.757812 C 25.96875 21.539062 24.730469 22.777344 23.953125 23.324219 C 22.417969 24.410156 20.757812 25.089844 18.84375 25.433594 C 18.203125 25.550781 15.710938 25.550781 15.074219 25.433594 C 12.328125 24.941406 10.039062 23.773438 8.226562 21.933594 C 6.355469 20.035156 5.257812 17.847656 4.878906 15.265625 C 4.753906 14.371094 4.785156 12.582031 4.945312 11.753906 C 5.75 7.753906 8.429688 4.597656 12.261719 3.175781 C 12.773438 2.984375 13.4375 2.804688 14.148438 2.652344 C 14.257812 2.625 16.34375 0.222656 16.402344 0.0585938 C 16.421875 -0.0078125 15.75 -0.0078125 15.074219 0.03125 Z M 20.578125 1.570312 C 20.496094 1.621094 20.042969 2.164062 19.558594 2.765625 C 19.085938 3.371094 18.125 4.554688 17.4375 5.398438 C 14.179688 9.371094 13.222656 10.609375 12.929688 11.210938 C 12.542969 11.976562 12.390625 12.550781 12.351562 13.316406 C 12.277344 14.582031 12.671875 15.617188 13.566406 16.511719 C 14.179688 17.117188 14.691406 17.4375 15.519531 17.707031 C 16.097656 17.898438 16.183594 17.910156 17.054688 17.910156 C 17.933594 17.910156 18.011719 17.910156 18.496094 17.71875 C 19.980469 17.144531 20.988281 15.902344 21.371094 14.160156 C 21.5 13.636719 21.5 12.328125 21.398438 9.070312 L 21.269531 4.472656 C 21.207031 2.121094 21.179688 1.800781 21.078125 1.660156 C 20.949219 1.46875 20.769531 1.429688 20.578125 1.570312 "/>
</g>
</svg>
