<?xml version="1.0" encoding="UTF-8"?>
<svg xmlns="http://www.w3.org/2000/svg" xmlns:xlink="http://www.w3.org/1999/xlink" width="32" height="32" viewBox="0 0 32 32" version="1.1">
<g id="surface1">
<path style=" stroke:none;fill-rule:nonzero;fill:rgb(0%,0%,0%);fill-opacity:1;" d="M 12.5 2 L 3.5 2 C 2.667969 2 2 2.667969 2 3.5 L 2 12.5 C 2 13.105469 2.363281 13.65625 2.925781 13.886719 C 3.488281 14.117188 4.132812 13.992188 4.5625 13.5625 L 7.0625 11.0625 L 12 16 L 7.0625 20.9375 L 4.5625 18.4375 C 4.132812 18.007812 3.488281 17.882812 2.925781 18.113281 C 2.363281 18.34375 2 18.894531 2 19.5 L 2 28.5 C 2 29.332031 2.667969 30 3.5 30 L 12.5 30 C 13.105469 30 13.65625 29.636719 13.886719 29.074219 C 14.117188 28.511719 13.992188 27.867188 13.5625 27.4375 L 11.0625 24.9375 L 16 20 L 20.9375 24.9375 L 18.4375 27.4375 C 18.007812 27.867188 17.882812 28.511719 18.113281 29.074219 C 18.34375 29.636719 18.894531 30 19.5 30 L 28.5 30 C 29.332031 30 30 29.332031 30 28.5 L 30 19.5 C 30 18.894531 29.636719 18.34375 29.074219 18.113281 C 28.511719 17.882812 27.867188 18.007812 27.4375 18.4375 L 24.9375 20.9375 L 20 16 L 24.9375 11.0625 L 27.4375 13.5625 C 27.867188 13.992188 28.511719 14.117188 29.074219 13.886719 C 29.636719 13.65625 30 13.105469 30 12.5 L 30 3.5 C 30 2.667969 29.332031 2 28.5 2 L 19.5 2 C 18.894531 2 18.34375 2.363281 18.113281 2.925781 C 17.882812 3.488281 18.007812 4.132812 18.4375 4.5625 L 20.9375 7.0625 L 16 12 L 11.0625 7.0625 L 13.5625 4.5625 C 13.992188 4.132812 14.117188 3.488281 13.886719 2.925781 C 13.65625 2.363281 13.105469 2 12.5 2 "/>
</g>
</svg>
