<?xml version="1.0" encoding="utf-8"?>
<svg xmlns="http://www.w3.org/2000/svg" viewBox="0 0 50 50" fill="#000000"><path d="M 9 0 C 7.898438 0 7 0.898438 7 2 L 7 48 C 7 49.105469 7.898438 50 9 50 L 35 50 C 35.554688 50 36 49.554688 36 49 L 36 1 C 36 0.449219 35.554688 0 35 0 Z M 37 2 L 37 6 L 39 6 L 39 8 L 37 8 L 37 10 L 39 10 L 39 12 L 37 12 L 37 14 L 39 14 L 39 16 L 37 16 L 37 18 L 39 18 L 39 20 L 37 20 L 37 30 L 39 30 L 39 32 L 37 32 L 37 34 L 39 34 L 39 36 L 37 36 L 37 38 L 39 38 L 39 40 L 37 40 L 37 42 L 39 42 L 39 44 L 37 44 L 37 48 L 41 48 C 42.105469 48 43 47.105469 43 46 L 43 27 C 43 26.445313 42.554688 26 42 26 L 40 26 C 39.449219 26 39 25.550781 39 25 C 39 24.449219 39.449219 24 40 24 L 42 24 C 42.554688 24 43 23.550781 43 23 L 43 4 C 43 2.898438 42.105469 2 41 2 Z M 15 5 L 28 5 L 28 12 L 15 12 Z M 15 16 L 28 16 L 28 23 L 15 23 Z M 15 27 L 28 27 L 28 34 L 15 34 Z M 15 38 L 28 38 L 28 45 L 15 45 Z" fill="#000000"/></svg>
