<svg role="img" viewBox="0 0 32 32" xmlns="http://www.w3.org/2000/svg"><path d="M5.762 0C5.055 0 4.48.574 4.48 1.281V30.72c0 .707.575 1.281 1.282 1.281h16.636a.638.638 0 0 0 .641-.64V.64A.641.641 0 0 0 22.4 0ZM23.68 1.281V3.84h1.28v1.28h-1.28v1.277h1.28V7.68h-1.28v1.28h1.28v1.278h-1.28v1.282h1.28v1.28h-1.28v6.4h1.28v1.28h-1.28v1.282h1.28v1.277h-1.28v1.281h1.28v1.282h-1.28v1.277h1.28v1.281h-1.28v2.559h2.558c.711 0 1.282-.57 1.282-1.278v-12.16a.639.639 0 0 0-.641-.64h-1.277a.641.641 0 0 1 0-1.282h1.277c.355 0 .64-.285.64-.64V2.559c0-.704-.57-1.278-1.28-1.278ZM9.602 3.2h8.32v4.48h-8.32Zm0 7.04h8.32v4.48h-8.32Zm0 7.042h8.32v4.48h-8.32Zm0 7.04h8.32v4.48h-8.32Zm0 0" style="stroke:none;fill-rule:nonzero;fill:rgb(0%,0%,0%);fill-opacity:1"/></svg>