<svg xmlns="http://www.w3.org/2000/svg" width="33" height="33" stroke="#000" stroke-linecap="round" stroke-linejoin="round" fill="#fff" fill-rule="evenodd"><defs><linearGradient id="A" x1="50.00%" x2="50.00%" y1="100.00%" y2="0.00%"><stop stop-color="#574c4a" offset="0%"/><stop stop-color="#80716d" offset="100%"/></linearGradient><linearGradient id="B" x1="88.69%" x2="30.12%" y1="98.39%" y2="-8.68%"><stop stop-color="#268d83" offset="0%"/><stop stop-color="#2ea19e" offset="100%"/></linearGradient><radialGradient id="C" cx="41%" cy="43%" r="50%" fx="41%" fy="43%"><stop stop-color="#db7c7c" offset="0%"/><stop stop-color="#c83737" offset="100%"/></radialGradient><radialGradient id="D" cx="44%" cy="43%" r="50%" fx="44%" fy="43%"><stop stop-color="#db7c7c" offset="0%"/><stop stop-color="#c83737" offset="100%"/></radialGradient></defs><g stroke="none" fill-rule="nonzero"><path d="M0 21.6221V10.3785C0 1.2971 1.2959 0 10.3679 0H21.633C30.7047 0 32 1.2971 32 10.3784v11.2437c0 9.0813-1.2959 10.3784-10.3678 10.3784H10.3677C1.2962 32.0006 0 30.7034 0 21.6221z" fill="url(#A)"/><path d="M6.9085 6.0341c-1.5725 9.969-.7498 19.3019-.7498 19.3019h4.9165c-.4677-2.4887-2.146-13.8587-.7499-13.896.7482.1188 4.1668 9.6458 4.1668 9.6458s.7529-.0937 1.5104-.0937 1.5106.0937 1.5106.0937 3.419-9.5272 4.1668-9.6458c1.3968.0373-.2817 11.4073-.749 13.896h4.9166s.823-9.3335-.7503-19.3025h-4.552c-.8664.0102-4.163 5.7919-4.5419 5.7919s-3.6757-5.7811-4.542-5.7912z" fill="url(#B)"/><path d="M15.0328 24.173c0 .6426-.521 1.1629-1.1637 1.1629a1.163 1.163 0 0 1-1.163-1.1629c0-.642.5211-1.1638 1.163-1.1638s1.1637.521 1.1637 1.1638z" fill="url(#C)"/><path d="M19.2996 24.173a1.163 1.163 0 0 1-1.163 1.1629c-.642 0-1.163-.521-1.163-1.1629a1.164 1.164 0 0 1 1.1633-1.1638c.6429 0 1.1632.521 1.1632 1.1638z" fill="url(#D)"/><path d="M24.8648 6.3637c.7095 4.8028.8753 9.4123.8629 12.8458-.0133 3.512-.2145 5.7938-.2145 5.7938h-4.1393l-.4448.3332h4.9171s.8229-9.3334-.7498-19.3024zm-13.029-.1213c1.2918 1.4369 3.5265 5.2501 3.8329 5.2501-.8191-1.0473-2.8306-4.3889-3.8329-5.25zm-1.8433 4.8647c-1.3962.0375.2822 11.4074.7501 13.8962H6.4503l-.2914.3332h4.9167c-.4654-2.4759-2.129-13.7449-.7709-13.896-.1263-.1901-.2357-.3212-.3124-.3334zm11.3549 0c-.748.1188-4.1668 9.6461-4.1668 9.6461s-.7528-.0938-1.5102-.0938a11.903 11.903 0 0 0-1.0952.0519l-.0813.3751s.7529-.0936 1.5103-.0936 1.5105.0938 1.5105.0938 3.3928-9.4649 4.1566-9.6461c-.0822-.2085-.1838-.3296-.3229-.3334z" fill="#000" opacity=".1"/><path d="M6.9092 6.034c-1.5735 9.969-.7506 19.3019-.7506 19.3019l.2895-.3254c-.1482-2.2021-.544-10.1651.7938-18.6437h4.552c.0963.0011.2251.08.3752.2082-.2981-.3315-.5459-.5396-.7085-.5416zm13.6357 0c-.8664.0103-4.163 5.7918-4.5418 5.7918.1545.1976.28.3339.3333.3339.379 0 3.6754-5.7815 4.5419-5.7919h4.0172l.2016-.3332zm-9.9065 5.7397c1.1059 1.6607 3.8544 9.3128 3.8544 9.3128l.0804-.3733c-.6786-1.8606-3.2642-8.8363-3.9139-8.9395-.0071.0002-.0139-.0007-.0209 0zm11.3753 0c.7417 1.8917-.6623 11.3237-1.0833 13.5621l.4464-.3481c.5695-3.3402 1.9402-13.1794.6375-13.2144z" opacity=".3"/></g></svg>