<svg xmlns:xlink="http://www.w3.org/1999/xlink" role="img" viewBox="0 0 32 32" xmlns="http://www.w3.org/2000/svg"><defs><radialGradient cx=".41" cy=".43" fx=".41" fy=".43" gradientTransform="matrix(2.25781 0 0 2.2539 12.32 22.313)" gradientUnits="userSpaceOnUse" id="g" r=".5"><stop offset="0" style="stop-color:rgb(85.882354%,48.627451%,48.627451%);stop-opacity:1"/><stop offset="1" style="stop-color:rgb(78.431374%,21.568628%,21.568628%);stop-opacity:1"/></radialGradient><radialGradient cx=".44" cy=".43" fx=".44" fy=".43" gradientTransform="translate(16.46 22.313)scale(2.2539)" gradientUnits="userSpaceOnUse" id="h" r=".5"><stop offset="0" style="stop-color:rgb(85.882354%,48.627451%,48.627451%);stop-opacity:1"/><stop offset="1" style="stop-color:rgb(78.431374%,21.568628%,21.568628%);stop-opacity:1"/></radialGradient><linearGradient gradientTransform="scale(31.03125)" gradientUnits="userSpaceOnUse" id="e" x1=".5" x2=".5" y1="1" y2="0"><stop offset="0" style="stop-color:rgb(34.117648%,29.803923%,29.019609%);stop-opacity:1"/><stop offset="1" style="stop-color:rgb(50.196081%,44.313726%,42.745098%);stop-opacity:1"/></linearGradient><linearGradient gradientTransform="matrix(19.50781 0 0 18.71484 5.766 5.852)" gradientUnits="userSpaceOnUse" id="f" x1=".887" x2=".301" y1=".984" y2="-.087"><stop offset="0" style="stop-color:rgb(14.901961%,55.29412%,51.372552%);stop-opacity:1"/><stop offset="1" style="stop-color:rgb(18.039216%,63.137257%,61.960787%);stop-opacity:1"/></linearGradient><clipPath id="c"><use xlink:href="#a"/></clipPath><clipPath id="d"><use xlink:href="#a"/></clipPath><mask id="j"><g filter="url(#b)"><use xlink:href="#a" style="fill:rgb(0%,0%,0%);fill-opacity:0.1;stroke:none"/></g></mask><mask id="l"><g filter="url(#b)"><use xlink:href="#a" style="fill:rgb(0%,0%,0%);fill-opacity:0.3;stroke:none"/></g></mask><g clip-path="url(#c)" id="i"><path d="M24.11 6.172c.69 4.656.85 9.125.84 12.457-.016 3.402-.212 5.617-.212 5.617h-4.011l-.434.324h4.77s.796-9.05-.727-18.718Zm-12.633-.117c1.253 1.39 3.421 5.09 3.718 5.09-.797-1.016-2.746-4.258-3.718-5.09M9.69 10.77c-1.355.039.274 11.062.727 13.476H6.254l-.281.324h4.765c-.449-2.402-2.062-13.328-.746-13.476-.12-.184-.226-.313-.3-.324m11.008 0c-.722.117-4.039 9.355-4.039 9.355s-.73-.09-1.465-.09c-.355 0-.707.016-1.062.047l-.078.367s.73-.094 1.465-.094c.734 0 1.464.094 1.464.094s3.29-9.18 4.032-9.355c-.082-.203-.18-.32-.313-.324Zm0 0" style="stroke:none;fill-rule:nonzero;fill:rgb(0%,0%,0%);fill-opacity:1"/></g><g clip-path="url(#d)" id="k"><path d="M6.7 5.852c-1.524 9.668-.727 18.714-.727 18.714l.28-.312c-.144-2.137-.526-9.86.77-18.078h4.415c.093 0 .218.074.363.199-.29-.32-.531-.523-.688-.523Zm13.222 0c-.84.007-4.035 5.617-4.402 5.617.148.191.27.324.32.324.367 0 3.566-5.61 4.406-5.617h3.895l.195-.324Zm-9.606 5.566c1.07 1.61 3.739 9.031 3.739 9.031l.078-.363c-.66-1.805-3.168-8.57-3.797-8.668zm11.032 0c.718 1.832-.645 10.98-1.051 13.148l.433-.336c.551-3.238 1.88-12.78.618-12.812m0 0" style="stroke:none;fill-rule:nonzero;fill:rgb(100%,100%,100%);fill-opacity:1"/></g><filter filterUnits="objectBoundingBox" height="100%" id="b" width="100%" x="0%" y="0%"><feColorMatrix in="SourceGraphic" values="0 0 0 0 1 0 0 0 0 1 0 0 0 0 1 0 0 0 1 0"/></filter><path d="M0 0h32v32H0z" id="a"/></defs><path d="M0 20.969V10.062C0 1.258 1.258 0 10.055 0h10.922C29.773 0 31.03 1.258 31.03 10.063v10.906c0 8.804-1.258 10.062-10.054 10.062H10.055C1.258 31.031 0 29.773 0 20.97m0 0" style="stroke:none;fill-rule:nonzero;fill:url(#e)"/><path d="M6.7 5.852c-1.524 9.668-.727 18.714-.727 18.714h4.765c-.453-2.41-2.078-13.437-.726-13.472.726.113 4.043 9.351 4.043 9.351s.726-.09 1.46-.09c.739 0 1.465.09 1.465.09s3.317-9.238 4.043-9.351c1.356.035-.273 11.062-.726 13.472h4.765s.801-9.05-.726-18.714h-4.414c-.84.007-4.035 5.617-4.402 5.617-.368 0-3.567-5.61-4.407-5.617Zm0 0" style="stroke:none;fill-rule:nonzero;fill:url(#f)"/><path d="M14.578 23.441a1.129 1.129 0 0 1-2.258 0 1.13 1.13 0 0 1 2.258 0m0 0" style="stroke:none;fill-rule:nonzero;fill:url(#g)"/><path d="M18.715 23.441a1.126 1.126 0 0 1-2.254 0 1.126 1.126 0 1 1 2.254 0m0 0" style="stroke:none;fill-rule:nonzero;fill:url(#h)"/><use xlink:href="#i" mask="url(#j)"/><use xlink:href="#k" mask="url(#l)"/></svg>