<?xml version="1.0" encoding="UTF-8"?>
<svg xmlns="http://www.w3.org/2000/svg" xmlns:xlink="http://www.w3.org/1999/xlink" width="32" height="32" viewBox="0 0 32 32" version="1.1">
<g id="surface1">
<path style=" stroke:none;fill-rule:nonzero;fill:rgb(0%,0%,0%);fill-opacity:1;" d="M 1.921875 7.039062 C 0.863281 7.039062 0 7.902344 0 8.960938 L 0 22.398438 C 0 23.457031 0.863281 24.320312 1.921875 24.320312 L 22.398438 24.320312 C 23.457031 24.320312 24.320312 23.457031 24.320312 22.398438 L 24.320312 21.121094 L 32 21.121094 L 32 10.238281 L 24.320312 10.238281 L 24.320312 8.960938 C 24.320312 7.902344 23.457031 7.039062 22.398438 7.039062 Z M 13.761719 11.519531 C 16.058594 11.519531 17.921875 13.382812 17.921875 15.679688 C 17.921875 17.976562 16.058594 19.839844 13.761719 19.839844 C 11.460938 19.839844 9.601562 17.976562 9.601562 15.679688 C 9.601562 13.382812 11.460938 11.519531 13.761719 11.519531 M 24.320312 11.519531 L 30.71875 11.519531 L 30.71875 19.839844 L 24.320312 19.839844 L 24.320312 19.199219 L 29.441406 19.199219 L 29.441406 17.921875 L 24.320312 17.921875 L 24.320312 17.28125 L 28.160156 17.28125 L 28.160156 16 L 24.320312 16 L 24.320312 15.359375 L 28.160156 15.359375 L 28.160156 14.078125 L 24.320312 14.078125 L 24.320312 13.441406 L 29.441406 13.441406 L 29.441406 12.160156 L 24.320312 12.160156 Z M 4.160156 14.71875 C 4.691406 14.71875 5.121094 15.148438 5.121094 15.679688 C 5.121094 16.210938 4.691406 16.640625 4.160156 16.640625 C 3.628906 16.640625 3.199219 16.210938 3.199219 15.679688 C 3.199219 15.148438 3.628906 14.71875 4.160156 14.71875 M 13.761719 14.71875 C 13.230469 14.71875 12.800781 15.148438 12.800781 15.679688 C 12.800781 16.210938 13.230469 16.640625 13.761719 16.640625 C 14.289062 16.640625 14.71875 16.210938 14.71875 15.679688 C 14.71875 15.148438 14.289062 14.71875 13.761719 14.71875 "/>
</g>
</svg>
