<?xml version="1.0" encoding="UTF-8"?>
<svg xmlns="http://www.w3.org/2000/svg" xmlns:xlink="http://www.w3.org/1999/xlink" width="32" height="32" viewBox="0 0 32 32" version="1.1">
<g id="surface1">
<path style=" stroke:none;fill-rule:nonzero;fill:rgb(0%,0%,0%);fill-opacity:1;" d="M 28.5 14 L 19.5 14 C 18.667969 14 18 13.332031 18 12.5 L 18 3.5 C 18 2.894531 18.363281 2.34375 18.925781 2.113281 C 19.488281 1.882812 20.132812 2.007812 20.5625 2.4375 L 23.0625 4.9375 L 27.644531 0.355469 C 27.875 0.125 28.179688 0 28.5 0 C 28.820312 0 29.125 0.125 29.355469 0.355469 L 31.648438 2.648438 C 31.875 2.875 32 3.179688 32 3.5 C 32 3.820312 31.875 4.125 31.644531 4.355469 L 27.0625 8.9375 L 29.5625 11.4375 C 29.992188 11.867188 30.117188 12.511719 29.886719 13.074219 C 29.65625 13.636719 29.105469 14 28.5 14 M 28.5 18 C 29.105469 18 29.65625 18.363281 29.886719 18.925781 C 30.117188 19.488281 29.992188 20.132812 29.5625 20.5625 L 27.0625 23.0625 L 31.648438 27.648438 C 31.875 27.875 32.007812 28.179688 32.007812 28.507812 C 32.007812 28.832031 31.882812 29.132812 31.648438 29.363281 L 29.355469 31.65625 C 29.125 31.875 28.820312 32 28.5 32 C 28.179688 32 27.875 31.875 27.644531 31.644531 L 23.0625 27.0625 L 20.5625 29.5625 C 20.132812 29.992188 19.488281 30.117188 18.925781 29.886719 C 18.363281 29.65625 18 29.105469 18 28.5 L 18 19.5 C 18 18.667969 18.667969 18 19.5 18 Z M 12.5 18 C 13.332031 18 14 18.667969 14 19.5 L 14 28.5 C 14 29.105469 13.636719 29.65625 13.074219 29.886719 C 12.511719 30.117188 11.867188 29.992188 11.4375 29.5625 L 8.9375 27.0625 L 4.355469 31.644531 C 4.125 31.875 3.820312 32 3.5 32 C 3.179688 32 2.875 31.875 2.644531 31.644531 L 0.355469 29.355469 C 0.125 29.125 0 28.820312 0 28.5 C 0 28.179688 0.125 27.875 0.355469 27.644531 L 4.9375 23.0625 L 2.4375 20.5625 C 2.007812 20.132812 1.882812 19.488281 2.113281 18.925781 C 2.34375 18.363281 2.894531 18 3.5 18 Z M 3.5 14 C 2.894531 14 2.34375 13.636719 2.113281 13.074219 C 1.882812 12.511719 2.007812 11.867188 2.4375 11.4375 L 4.9375 8.9375 L 0.355469 4.355469 C 0.125 4.125 0 3.820312 0 3.5 C 0 3.179688 0.125 2.875 0.355469 2.644531 L 2.644531 0.355469 C 2.875 0.125 3.179688 0 3.5 0 C 3.820312 0 4.125 0.125 4.355469 0.355469 L 8.9375 4.9375 L 11.4375 2.4375 C 11.867188 2.007812 12.511719 1.882812 13.074219 2.113281 C 13.636719 2.34375 14 2.894531 14 3.5 L 14 12.5 C 14 13.332031 13.332031 14 12.5 14 Z M 3.5 14 "/>
</g>
</svg>
