<svg xmlns:xlink="http://www.w3.org/1999/xlink" role="img" viewBox="0 0 288 288" xmlns="http://www.w3.org/2000/svg"><svg xmlns:xlink="http://www.w3.org/1999/xlink" viewBox="176.329 177.607 30.703 32" xmlns="http://www.w3.org/2000/svg"><defs><linearGradient gradientTransform="rotate(-29.891 648.906 -161.496)scale(.2304)" gradientUnits="userSpaceOnUse" id="a" x1="250.41" x2="346.76" y1="-315.39" y2="-315.39"><stop class="stopColor2980f3 svgShape" offset="0" stop-color="#ffffff"/><stop class="stopColor2652d9 svgShape" offset="1" stop-color="#ffffff"/></linearGradient><linearGradient xlink:href="#a" gradientTransform="rotate(-29.891 725.422 -206.72)scale(.22822)" id="b" x1="268.19" x2="332.81" y1="-355.21" y2="-355.21"/><linearGradient xlink:href="#a" gradientTransform="rotate(-29.891 725.422 -206.72)scale(.22822)" id="c" x1="286.93" x2="320.28" y1="-392.73" y2="-392.73"/><linearGradient xlink:href="#a" gradientTransform="rotate(150.109 1097.16 108.994)scale(.2304)" id="d" x1="8366.58" x2="8266.31" y1="2144.55" y2="2144.55"/><linearGradient xlink:href="#a" gradientTransform="rotate(150.109 1097.16 108.994)scale(.2304)" id="e" x1="8352.46" x2="8283.62" y1="2103.86" y2="2103.86"/><linearGradient xlink:href="#a" gradientTransform="rotate(150.109 1097.16 108.994)scale(.2304)" id="f" x1="8338.52" x2="8300.28" y1="2064.09" y2="2064.09"/></defs><path class="cls-2" d="m198.224 200.767 2.26 2.209a.351.351 0 0 1-.142.581l-20.424 6.05-2.838-2.779z" fill="url(#a)"/><path class="cls-3" d="m190.444 193.71 2.269 2.244a.346.346 0 0 1-.158.58l-13.362 3.705-2.795-2.764z" fill="url(#b)"/><path class="cls-4" d="m183.312 186.926 2.06 2.075a.35.35 0 0 1 0 .493.384.384 0 0 1-.163.092l-6.346 1.651-2.534-2.564z" fill="url(#c)"/><path class="cls-5" d="m184.045 187.8-4.329-4.329a.348.348 0 0 1 .166-.583l21.16-5.281 4.607 4.608z" fill="url(#d)"/><path class="cls-6" d="m191.699 195.058-3.708-3.76a.35.35 0 0 1 0-.494.364.364 0 0 1 .16-.09l13.957-3.709 4.041 4.041z" fill="url(#e)"/><path class="cls-7" d="m199.765 202.375-3.992-4.025a.346.346 0 0 1 .149-.581l6.695-1.947 4.415 4.403z" fill="url(#f)"/></svg></svg>