<svg xmlns:bx="https://boxy-svg.com" role="img" viewBox="142.278 154.685 197.822 42.735" xmlns="http://www.w3.org/2000/svg"><path class="cls-2" d="m171.518 185.614 3.019 2.951a.47.47 0 0 1 0 .661.497.497 0 0 1-.191.114l-27.274 8.08-3.791-3.711z" style="fill:#FFFFFF"/><path class="cls-3" d="m161.127 176.189 3.031 2.997c.18.18.18.472 0 .653a.473.473 0 0 1-.209.123l-17.846 4.947-3.732-3.692z" style="fill:#FFFFFF"/><path class="cls-4" d="m151.604 167.131 2.751 2.769a.468.468 0 0 1-.218.782l-8.474 2.206-3.385-3.425z" style="fill:#FFFFFF"/><path class="cls-5" d="m152.583 168.297-5.782-5.782a.461.461 0 0 1 0-.652.493.493 0 0 1 .222-.126l28.258-7.052 6.154 6.154z" style="fill:#FFFFFF"/><path class="cls-6" d="m162.804 177.989-4.95-5.021a.464.464 0 0 1 .212-.779l18.64-4.954 5.397 5.397z" style="fill:#FFFFFF"/><path class="cls-7" d="m173.577 187.762-5.333-5.376a.465.465 0 0 1 .2-.775l8.942-2.6 5.895 5.88z" style="fill:#FFFFFF"/><g bx:origin="1.054474 1.513492" class="cls-8" style="isolation:isolate"><g class="cls-8" style="isolation:isolate"><path class="cls-9" d="m216.77 82.52.17 1.6a5.78 5.78 0 0 1-1.26.17q-3.56 0-3.55-4.32v-14.5a13.19 13.19 0 0 0-2.72-.31 3.57 3.57 0 0 0-2.56.74 3 3 0 0 0-.74 2.2v1.74h3.69v1.65h-3.69V84h-2V71.49H202v-1.65h2.13v-1.71q0-4.68 5-4.68a17.89 17.89 0 0 1 4.93.76V80a3.76 3.76 0 0 0 .42 2 1.6 1.6 0 0 0 1.45.65 6.35 6.35 0 0 0 .84-.13m7.73 1.77a6 6 0 0 1-3.92-1.14 3.71 3.71 0 0 1-1.37-3 3.62 3.62 0 0 1 1.51-3.2 6.9 6.9 0 0 1 3.92-1.08 15.76 15.76 0 0 1 3.39.39v-1.63q0-3.42-3.67-3.42a9.34 9.34 0 0 0-3.78.73l-.45-1.63a11 11 0 0 1 4.37-.81 5.7 5.7 0 0 1 4.09 1.33 5.18 5.18 0 0 1 1.41 3.88V83a10.56 10.56 0 0 1-5.5 1.29m3.5-2.36v-4.25a15.8 15.8 0 0 0-3.19-.39q-3.68 0-3.67 2.8a2.28 2.28 0 0 0 .91 2 4.36 4.36 0 0 0 2.59.67 6.14 6.14 0 0 0 3.36-.83m6.75 2.07V71a12.91 12.91 0 0 1 5.94-1.43 5.8 5.8 0 0 1 4.18 1.36 5 5 0 0 1 1.42 3.79V84h-2v-9.23a3.24 3.24 0 0 0-3.64-3.56 8.39 8.39 0 0 0-4 1V84Zm25.62 0-4.31-6.27a31.73 31.73 0 0 1-2.91 1.85V84h-2V63.82l2-.11v13.88a18.32 18.32 0 0 0 4.55-3.52 8.57 8.57 0 0 0 1.91-4.23h1.94a10.57 10.57 0 0 1-4.06 6.75l5.12 7.41Zm12.91-12.15a11.75 11.75 0 0 0-3.59-.64c-2 0-3 .75-3 2.24a2.25 2.25 0 0 0 .21 1 1.67 1.67 0 0 0 .73.71 7.14 7.14 0 0 0 .92.46 10.82 10.82 0 0 0 1.22.42 11.23 11.23 0 0 1 3.58 1.66 3.08 3.08 0 0 1 1.12 2.57 3.43 3.43 0 0 1-1.43 3 6.38 6.38 0 0 1-3.75 1 13.48 13.48 0 0 1-2.62-.27 10.79 10.79 0 0 1-2.05-.57l.33-1.68a12.34 12.34 0 0 0 4.31.81 4.21 4.21 0 0 0 2.38-.59 1.9 1.9 0 0 0 .87-1.68 1.74 1.74 0 0 0-.84-1.55 11.85 11.85 0 0 0-2.88-1.17 8.39 8.39 0 0 1-3-1.49 3.26 3.26 0 0 1-1.06-2.62 3.58 3.58 0 0 1 1.27-3 5.63 5.63 0 0 1 3.6-1 10.59 10.59 0 0 1 4 .7Zm10.13 12.44a5.77 5.77 0 0 1-4.66-2 8.08 8.08 0 0 1-1.69-5.38 8.05 8.05 0 0 1 1.69-5.37 6.44 6.44 0 0 1 9.37 0 8.1 8.1 0 0 1 1.68 5.37 8.13 8.13 0 0 1-1.68 5.38 5.81 5.81 0 0 1-4.71 2m0-1.71a3.8 3.8 0 0 0 3.28-1.51 7 7 0 0 0 1.09-4.18 7 7 0 0 0-1.09-4.17 3.78 3.78 0 0 0-3.28-1.51 3.73 3.73 0 0 0-3.23 1.53 8.33 8.33 0 0 0 0 8.31 3.73 3.73 0 0 0 3.23 1.53M299 84.29q-5.3 0-5.29-5v-9.45h2v9.38q0 3.36 3.36 3.36a8.3 8.3 0 0 0 4-1V69.84h2v13a13.15 13.15 0 0 1-6.07 1.45" style="fill:#FFFFFF" transform="translate(91.038 125.59)scale(.50646)"/></g><g class="cls-8" style="isolation:isolate"><path class="cls-9" d="M316 69.5a9.14 9.14 0 0 1 1.56.14l-.28 1.71a4.1 4.1 0 0 0-1.17-.14 8.09 8.09 0 0 0-4 1V84h-2V71a11.75 11.75 0 0 1 5.89-1.5" style="fill:#FFFFFF" transform="translate(91.038 125.59)scale(.50646)"/></g><g class="cls-8" style="isolation:isolate"><path class="cls-9" d="m330.12 70.34-.42 1.6a9.47 9.47 0 0 0-3.5-.73 4.35 4.35 0 0 0-3.6 1.54 6.56 6.56 0 0 0-1.25 4.25 5.93 5.93 0 0 0 1.32 4.17 5 5 0 0 0 3.84 1.43 7.68 7.68 0 0 0 3.36-.81l.39 1.62a8.12 8.12 0 0 1-3.84.9 6.94 6.94 0 0 1-5.23-1.91 7.36 7.36 0 0 1-1.85-5.4 8 8 0 0 1 1.78-5.46 6.21 6.21 0 0 1 5-2 9.41 9.41 0 0 1 4 .8" style="fill:#FFFFFF" transform="translate(91.038 125.59)scale(.50646)"/></g><g class="cls-8" style="isolation:isolate"><path class="cls-9" d="M344.79 75.63a14.21 14.21 0 0 1-.09 1.66h-10.08a5.57 5.57 0 0 0 1.53 4 5.42 5.42 0 0 0 3.85 1.29 10.8 10.8 0 0 0 4.23-.93l.36 1.66a11.11 11.11 0 0 1-4.73 1 7.21 7.21 0 0 1-5.31-1.94 7.39 7.39 0 0 1-1.94-5.48 7.86 7.86 0 0 1 1.75-5.32 5.87 5.87 0 0 1 4.72-2 5.28 5.28 0 0 1 4.2 1.74 6.48 6.48 0 0 1 1.51 4.32m-2 .26a3.75 3.75 0 0 0 0-.54 4.59 4.59 0 0 0-1-3 3.35 3.35 0 0 0-2.82-1.21 3.93 3.93 0 0 0-2.97 1.32 5.71 5.71 0 0 0-1.35 3.43Z" style="fill:#FFFFFF" transform="translate(91.038 125.59)scale(.50646)"/></g></g><g bx:origin="0.515 0.020737" class="cls-8" style="isolation:isolate"><g class="cls-8" style="isolation:isolate"><path class="cls-10" d="M236.43 95.8v30.3h-5.67v-14.45a44 44 0 0 1 .31-5.54 126.93 126.93 0 0 1-8.18 14.75H218a126.51 126.51 0 0 1-8.23-14.86 44.08 44.08 0 0 1 .35 5.63v14.47h-5.71V95.8h6.36a123.27 123.27 0 0 0 9.69 18.87 122.34 122.34 0 0 0 9.61-18.87Zm6.45 4.33a3.28 3.28 0 0 1-.91-2.42 3.32 3.32 0 0 1 .91-2.43 3.49 3.49 0 0 1 2.56-.9 3.43 3.43 0 0 1 2.51.9 3.32 3.32 0 0 1 .9 2.43 3.28 3.28 0 0 1-.9 2.42 3.39 3.39 0 0 1-2.51.91 3.45 3.45 0 0 1-2.56-.91m5.54 26h-6V104h6Zm19.26-16.56a22.29 22.29 0 0 0-6-1.17c-2 0-3 .59-3 1.77a1.51 1.51 0 0 0 .73 1.37 13.43 13.43 0 0 0 2.86 1.06 14.18 14.18 0 0 1 5.65 2.62 5.67 5.67 0 0 1 1.7 4.43 6 6 0 0 1-2.48 5.17 11 11 0 0 1-6.6 1.8 19.64 19.64 0 0 1-7.84-1.43l.82-4.89a19.23 19.23 0 0 0 6.89 1.39 5.18 5.18 0 0 0 2.44-.5 1.54 1.54 0 0 0 .93-1.41 1.6 1.6 0 0 0-.89-1.49 21.26 21.26 0 0 0-3.74-1.32 10.52 10.52 0 0 1-4.76-2.38 5.7 5.7 0 0 1-1.6-4.29 6.08 6.08 0 0 1 2.23-5.06 9.73 9.73 0 0 1 6.21-1.78 19.17 19.17 0 0 1 7.14 1.26Zm19.04 0a22.3 22.3 0 0 0-6-1.17q-3 0-3 1.77a1.51 1.51 0 0 0 .73 1.37 13.66 13.66 0 0 0 2.86 1.06 14.11 14.11 0 0 1 5.65 2.62 5.64 5.64 0 0 1 1.71 4.43 6 6 0 0 1-2.49 5.17 11 11 0 0 1-6.6 1.8 19.59 19.59 0 0 1-7.83-1.43l.82-4.89a19.18 19.18 0 0 0 6.88 1.39 5.18 5.18 0 0 0 2.44-.5 1.54 1.54 0 0 0 .93-1.41 1.6 1.6 0 0 0-.88-1.49 21.47 21.47 0 0 0-3.75-1.32 10.57 10.57 0 0 1-4.76-2.38 5.74 5.74 0 0 1-1.6-4.29 6.08 6.08 0 0 1 2.23-5.06 9.76 9.76 0 0 1 6.21-1.78 19.09 19.09 0 0 1 7.14 1.26Zm6.02-9.44a3.24 3.24 0 0 1-.91-2.42 3.28 3.28 0 0 1 .91-2.43 3.45 3.45 0 0 1 2.55-.9 3.4 3.4 0 0 1 2.51.9 3.28 3.28 0 0 1 .91 2.43 3.24 3.24 0 0 1-.91 2.42 3.36 3.36 0 0 1-2.51.91 3.41 3.41 0 0 1-2.55-.91m5.54 26h-6V104h6Zm23.24-2.67a11.4 11.4 0 0 1-15.78 0 13.57 13.57 0 0 1 0-16.82 11.43 11.43 0 0 1 15.78 0 12 12 0 0 1 2.9 8.4 12 12 0 0 1-2.9 8.42m-11.36-3.55a4 4 0 0 0 3.48 1.78 3.94 3.94 0 0 0 3.46-1.78 8.54 8.54 0 0 0 1.22-4.89 8.45 8.45 0 0 0-1.22-4.87 3.94 3.94 0 0 0-3.46-1.75 4 4 0 0 0-3.48 1.77 10.18 10.18 0 0 0 0 9.74m18.76 6.19v-20.73a24.62 24.62 0 0 1 9.78-1.91q4.77 0 7.36 2.3a8.32 8.32 0 0 1 2.6 6.58v13.76h-6v-13.33q0-4.36-4-4.37a9 9 0 0 0-3.81.78v16.92Z" style="fill:#FFFFFF" transform="translate(90.873 125.092)scale(.50646)"/></g><g class="cls-8" style="isolation:isolate"><path class="cls-10" d="M353.9 111.3q0-7.18 3.44-11.6t10.06-4.42a19.07 19.07 0 0 1 7.4 1.52l-.8 2.68a19.87 19.87 0 0 0-6.58-1.38q-5.24 0-7.77 3.66a16.38 16.38 0 0 0-2.53 9.54q0 5.81 2.64 9.15t7.87 3.36a16.71 16.71 0 0 0 6.71-1.56l.65 2.68a16 16 0 0 1-7.44 1.69q-6.58 0-10.13-4.13t-3.52-11.19" style="fill:#FFFFFF" transform="translate(90.873 125.092)scale(.50646)"/></g><g class="cls-8" style="isolation:isolate"><path class="cls-10" d="M388.18 126.62a8.91 8.91 0 0 1-7.18-3.12 12.5 12.5 0 0 1-2.62-8.31 12.54 12.54 0 0 1 2.62-8.31 10 10 0 0 1 14.48 0 12.58 12.58 0 0 1 2.6 8.31 12.54 12.54 0 0 1-2.6 8.31 8.94 8.94 0 0 1-7.3 3.12m0-2.64a5.82 5.82 0 0 0 5.06-2.34 10.79 10.79 0 0 0 1.69-6.45 10.81 10.81 0 0 0-1.69-6.45 5.84 5.84 0 0 0-5.06-2.33 5.77 5.77 0 0 0-5 2.36 10.73 10.73 0 0 0-1.71 6.42 10.74 10.74 0 0 0 1.71 6.43 5.8 5.8 0 0 0 5 2.38Zm16.1 2.12V106a19.79 19.79 0 0 1 9.17-2.21q4.29 0 6.47 2.1a7.73 7.73 0 0 1 2.19 5.86v14.35h-3v-14.2a5.54 5.54 0 0 0-1.41-4 5.61 5.61 0 0 0-4.22-1.45 12.86 12.86 0 0 0-6.14 1.47v18.18Zm35.01-2.47.22 2.56a12.68 12.68 0 0 1-3.25.43q-6.36 0-6.36-6.92v-12.86h-3.29v-2.55h3.29v-5.15l3-.22v5.37h5.88v2.55h-5.88v12.86a4.73 4.73 0 0 0 .93 3.28 3.62 3.62 0 0 0 2.79 1 9 9 0 0 0 2.67-.35" style="fill:#FFFFFF" transform="translate(90.873 125.092)scale(.50646)"/></g><g class="cls-8" style="isolation:isolate"><path class="cls-10" d="M453.53 103.77a14 14 0 0 1 2.47.23l-.43 2.64a6.45 6.45 0 0 0-1.82-.21 12.46 12.46 0 0 0-6.23 1.47v18.2h-3V106a18.05 18.05 0 0 1 9.01-2.23" style="fill:#FFFFFF" transform="translate(90.873 125.092)scale(.50646)"/></g><g class="cls-8" style="isolation:isolate"><path class="cls-10" d="M468.6 126.62a8.91 8.91 0 0 1-7.21-3.12 12.5 12.5 0 0 1-2.62-8.31 12.54 12.54 0 0 1 2.62-8.31 10 10 0 0 1 14.48 0 12.58 12.58 0 0 1 2.6 8.31 12.54 12.54 0 0 1-2.6 8.31 8.94 8.94 0 0 1-7.27 3.12m0-2.64a5.82 5.82 0 0 0 5.06-2.34 10.79 10.79 0 0 0 1.69-6.45 10.81 10.81 0 0 0-1.69-6.45 5.84 5.84 0 0 0-5.06-2.33 5.77 5.77 0 0 0-5 2.36 10.73 10.73 0 0 0-1.71 6.42 10.74 10.74 0 0 0 1.71 6.43 5.8 5.8 0 0 0 5 2.38Zm19.08-4.07a5.9 5.9 0 0 0 .65 3.12 2.5 2.5 0 0 0 2.25 1 10 10 0 0 0 1.26-.13l.26 2.47a9 9 0 0 1-2 .26q-5.49 0-5.5-6.67V95l3-.21Z" style="fill:#FFFFFF" transform="translate(90.873 125.092)scale(.50646)"/></g></g></svg>