<?xml version="1.0" encoding="UTF-8"?>
<svg xmlns="http://www.w3.org/2000/svg" xmlns:xlink="http://www.w3.org/1999/xlink" width="148.129264" height="32" viewBox="0 0 148.129264 32" version="1.1">
<defs>
<linearGradient id="linear0" gradientUnits="userSpaceOnUse" x1="250.410004" y1="-315.390015" x2="346.76001" y2="-315.390015" gradientTransform="matrix(0.199753,-0.114817,0.114817,0.199753,-9.529191,124.282618)">
<stop offset="0" style="stop-color:rgb(16.078432%,50.196081%,95.294118%);stop-opacity:1;"/>
<stop offset="1" style="stop-color:rgb(14.901961%,32.156864%,85.09804%);stop-opacity:1;"/>
</linearGradient>
<linearGradient id="linear1" gradientUnits="userSpaceOnUse" x1="268.190002" y1="-355.209991" x2="332.809998" y2="-355.209991" gradientTransform="matrix(0.0614623,-0.0353284,0.0353284,0.0614623,-8.473242,32.959572)">
<stop offset="0" style="stop-color:rgb(16.078432%,50.196081%,95.294118%);stop-opacity:1;"/>
<stop offset="1" style="stop-color:rgb(14.901961%,32.156864%,85.09804%);stop-opacity:1;"/>
</linearGradient>
<linearGradient id="linear2" gradientUnits="userSpaceOnUse" x1="286.929993" y1="-392.730011" x2="320.279999" y2="-392.730011" gradientTransform="matrix(0.0614623,-0.0353284,0.0353284,0.0614623,-8.473242,32.959572)">
<stop offset="0" style="stop-color:rgb(16.078432%,50.196081%,95.294118%);stop-opacity:1;"/>
<stop offset="1" style="stop-color:rgb(14.901961%,32.156864%,85.09804%);stop-opacity:1;"/>
</linearGradient>
<linearGradient id="linear3" gradientUnits="userSpaceOnUse" x1="8366.580078" y1="2144.550049" x2="8266.30957" y2="2144.550049" gradientTransform="matrix(-0.199753,0.114817,-0.114817,-0.199753,1926.378986,-520.874916)">
<stop offset="0" style="stop-color:rgb(16.078432%,50.196081%,95.294118%);stop-opacity:1;"/>
<stop offset="1" style="stop-color:rgb(14.901961%,32.156864%,85.09804%);stop-opacity:1;"/>
</linearGradient>
<linearGradient id="linear4" gradientUnits="userSpaceOnUse" x1="8352.459961" y1="2103.860107" x2="8283.620117" y2="2103.860107" gradientTransform="matrix(-0.199753,0.114817,-0.114817,-0.199753,1926.378986,-520.874916)">
<stop offset="0" style="stop-color:rgb(16.078432%,50.196081%,95.294118%);stop-opacity:1;"/>
<stop offset="1" style="stop-color:rgb(14.901961%,32.156864%,85.09804%);stop-opacity:1;"/>
</linearGradient>
<linearGradient id="linear5" gradientUnits="userSpaceOnUse" x1="8338.519531" y1="2064.090088" x2="8300.280273" y2="2064.090088" gradientTransform="matrix(-0.199753,0.114817,-0.114817,-0.199753,1926.378986,-520.874916)">
<stop offset="0" style="stop-color:rgb(16.078432%,50.196081%,95.294118%);stop-opacity:1;"/>
<stop offset="1" style="stop-color:rgb(14.901961%,32.156864%,85.09804%);stop-opacity:1;"/>
</linearGradient>
<clipPath id="clip2">
  <rect x="0" y="0" width="149" height="32"/>
</clipPath>
<g id="surface6" clip-path="url(#clip2)">
<path style=" stroke:none;fill-rule:nonzero;fill:rgb(16.078432%,50.196081%,95.294118%);fill-opacity:1;" d="M 43.839844 9.507812 L 43.902344 10.117188 C 43.746094 10.15625 43.585938 10.175781 43.425781 10.179688 C 42.523438 10.179688 42.078125 9.632812 42.078125 8.542969 L 42.078125 3.042969 C 41.738281 2.96875 41.394531 2.929688 41.046875 2.925781 C 40.699219 2.890625 40.351562 2.992188 40.078125 3.207031 C 39.875 3.433594 39.773438 3.734375 39.796875 4.039062 L 39.796875 4.699219 L 41.195312 4.699219 L 41.195312 5.324219 L 39.796875 5.324219 L 39.796875 10.070312 L 39.039062 10.070312 L 39.039062 5.324219 L 38.238281 5.324219 L 38.238281 4.699219 L 39.046875 4.699219 L 39.046875 4.050781 C 39.046875 2.867188 39.675781 2.277344 40.941406 2.277344 C 41.574219 2.285156 42.203125 2.382812 42.8125 2.566406 L 42.8125 8.554688 C 42.792969 8.816406 42.847656 9.078125 42.96875 9.3125 C 43.097656 9.484375 43.304688 9.578125 43.519531 9.558594 C 43.628906 9.546875 43.734375 9.53125 43.839844 9.507812 Z M 43.839844 9.507812 "/>
<path style=" stroke:none;fill-rule:nonzero;fill:rgb(16.078432%,50.196081%,95.294118%);fill-opacity:1;" d="M 46.769531 10.179688 C 46.238281 10.214844 45.714844 10.0625 45.285156 9.746094 C 44.941406 9.46875 44.75 9.050781 44.765625 8.609375 C 44.730469 8.132812 44.949219 7.671875 45.335938 7.394531 C 45.78125 7.113281 46.296875 6.972656 46.824219 6.988281 C 47.253906 6.988281 47.6875 7.039062 48.109375 7.132812 L 48.109375 6.515625 C 48.109375 5.652344 47.644531 5.21875 46.71875 5.21875 C 46.226562 5.210938 45.738281 5.304688 45.285156 5.496094 L 45.113281 4.878906 C 45.636719 4.664062 46.203125 4.558594 46.769531 4.570312 C 47.332031 4.53125 47.890625 4.710938 48.320312 5.074219 C 48.695312 5.46875 48.890625 6.003906 48.855469 6.546875 L 48.855469 9.691406 C 48.21875 10.039062 47.496094 10.210938 46.769531 10.179688 Z M 48.097656 9.285156 L 48.097656 7.671875 C 47.699219 7.582031 47.292969 7.535156 46.886719 7.523438 C 45.957031 7.523438 45.492188 7.878906 45.496094 8.585938 C 45.472656 8.882812 45.605469 9.167969 45.839844 9.34375 C 46.132812 9.53125 46.476562 9.621094 46.824219 9.601562 C 47.269531 9.617188 47.710938 9.511719 48.097656 9.285156 Z M 48.097656 9.285156 "/>
<path style=" stroke:none;fill-rule:nonzero;fill:rgb(16.078432%,50.196081%,95.294118%);fill-opacity:1;" d="M 50.65625 10.070312 L 50.65625 5.140625 C 51.355469 4.78125 52.125 4.59375 52.910156 4.597656 C 53.484375 4.554688 54.054688 4.738281 54.496094 5.113281 C 54.867188 5.496094 55.066406 6.015625 55.035156 6.550781 L 55.035156 10.070312 L 54.273438 10.070312 L 54.273438 6.570312 C 54.316406 6.195312 54.183594 5.824219 53.914062 5.558594 C 53.644531 5.296875 53.269531 5.171875 52.894531 5.21875 C 52.367188 5.21875 51.84375 5.347656 51.378906 5.597656 L 51.378906 10.070312 Z M 50.65625 10.070312 "/>
<path style=" stroke:none;fill-rule:nonzero;fill:rgb(16.078432%,50.196081%,95.294118%);fill-opacity:1;" d="M 60.375 10.070312 L 58.738281 7.691406 C 58.382812 7.945312 58.015625 8.179688 57.636719 8.394531 L 57.636719 10.070312 L 56.875 10.070312 L 56.875 2.417969 L 57.636719 2.375 L 57.636719 7.640625 C 58.277344 7.289062 58.859375 6.835938 59.359375 6.304688 C 59.746094 5.847656 59.996094 5.292969 60.085938 4.699219 L 60.820312 4.699219 C 60.65625 5.71875 60.105469 6.636719 59.28125 7.261719 L 61.222656 10.070312 Z M 60.375 10.070312 "/>
<path style=" stroke:none;fill-rule:nonzero;fill:rgb(16.078432%,50.196081%,95.294118%);fill-opacity:1;" d="M 65.269531 5.460938 C 64.832031 5.3125 64.371094 5.230469 63.90625 5.21875 C 63.148438 5.21875 62.769531 5.503906 62.769531 6.070312 C 62.765625 6.199219 62.792969 6.328125 62.847656 6.449219 C 62.910156 6.566406 63.007812 6.660156 63.125 6.71875 C 63.238281 6.785156 63.355469 6.84375 63.476562 6.890625 C 63.625 6.953125 63.78125 7.007812 63.9375 7.050781 C 64.425781 7.179688 64.882812 7.390625 65.296875 7.679688 C 65.585938 7.917969 65.742188 8.28125 65.71875 8.65625 C 65.746094 9.101562 65.542969 9.53125 65.179688 9.792969 C 64.753906 10.0625 64.257812 10.195312 63.757812 10.171875 C 63.421875 10.171875 63.089844 10.136719 62.761719 10.070312 C 62.496094 10.023438 62.234375 9.953125 61.984375 9.855469 L 62.109375 9.214844 C 62.632812 9.414062 63.1875 9.519531 63.746094 9.523438 C 64.0625 9.539062 64.375 9.460938 64.648438 9.300781 C 64.863281 9.160156 64.988281 8.917969 64.976562 8.664062 C 64.984375 8.421875 64.863281 8.199219 64.660156 8.074219 C 64.316406 7.878906 63.949219 7.730469 63.566406 7.632812 C 63.152344 7.523438 62.765625 7.328125 62.429688 7.066406 C 62.152344 6.8125 62.003906 6.449219 62.027344 6.074219 C 61.996094 5.636719 62.175781 5.214844 62.507812 4.933594 C 62.90625 4.65625 63.386719 4.523438 63.875 4.554688 C 64.390625 4.546875 64.90625 4.636719 65.390625 4.820312 Z M 65.269531 5.460938 "/>
<path style=" stroke:none;fill-rule:nonzero;fill:rgb(16.078432%,50.196081%,95.294118%);fill-opacity:1;" d="M 69.109375 10.179688 C 68.4375 10.214844 67.785156 9.933594 67.34375 9.421875 C 66.890625 8.839844 66.664062 8.117188 66.703125 7.382812 C 66.664062 6.648438 66.890625 5.925781 67.34375 5.34375 C 67.804688 4.855469 68.449219 4.578125 69.121094 4.578125 C 69.792969 4.578125 70.433594 4.855469 70.898438 5.34375 C 71.347656 5.925781 71.570312 6.648438 71.535156 7.382812 C 71.570312 8.117188 71.347656 8.839844 70.898438 9.421875 C 70.449219 9.9375 69.792969 10.21875 69.109375 10.179688 Z M 69.109375 9.53125 C 69.59375 9.5625 70.0625 9.347656 70.355469 8.957031 C 70.65625 8.488281 70.800781 7.933594 70.769531 7.375 C 70.800781 6.816406 70.65625 6.261719 70.355469 5.792969 C 70.0625 5.402344 69.59375 5.1875 69.109375 5.21875 C 68.628906 5.191406 68.167969 5.410156 67.886719 5.800781 C 67.324219 6.773438 67.324219 7.976562 67.886719 8.953125 C 68.167969 9.339844 68.628906 9.558594 69.109375 9.53125 Z M 69.109375 9.53125 "/>
<path style=" stroke:none;fill-rule:nonzero;fill:rgb(16.078432%,50.196081%,95.294118%);fill-opacity:1;" d="M 75.023438 10.179688 C 73.683594 10.179688 73.015625 9.546875 73.015625 8.285156 L 73.015625 4.699219 L 73.773438 4.699219 L 73.773438 8.257812 C 73.773438 9.105469 74.199219 9.53125 75.050781 9.53125 C 75.578125 9.535156 76.101562 9.402344 76.566406 9.152344 L 76.566406 4.699219 L 77.324219 4.699219 L 77.324219 9.628906 C 76.613281 9.996094 75.824219 10.183594 75.023438 10.179688 Z M 75.023438 10.179688 "/>
</g>
<clipPath id="clip3">
  <rect x="0" y="0" width="149" height="32"/>
</clipPath>
<g id="surface9" clip-path="url(#clip3)">
<path style=" stroke:none;fill-rule:nonzero;fill:rgb(16.078432%,50.196081%,95.294118%);fill-opacity:1;" d="M 81.46875 4.570312 C 81.667969 4.570312 81.867188 4.589844 82.0625 4.625 L 81.957031 5.273438 C 81.8125 5.234375 81.660156 5.214844 81.511719 5.21875 C 80.980469 5.210938 80.460938 5.34375 79.996094 5.597656 L 79.996094 10.070312 L 79.234375 10.070312 L 79.234375 5.140625 C 79.917969 4.757812 80.6875 4.5625 81.46875 4.570312 Z M 81.46875 4.570312 "/>
</g>
<clipPath id="clip4">
  <rect x="0" y="0" width="149" height="32"/>
</clipPath>
<g id="surface12" clip-path="url(#clip4)">
<path style=" stroke:none;fill-rule:nonzero;fill:rgb(16.078432%,50.196081%,95.294118%);fill-opacity:1;" d="M 86.824219 4.890625 L 86.664062 5.496094 C 86.246094 5.320312 85.792969 5.226562 85.339844 5.21875 C 84.816406 5.1875 84.308594 5.402344 83.972656 5.804688 C 83.632812 6.269531 83.464844 6.839844 83.5 7.414062 C 83.457031 7.988281 83.636719 8.550781 84 8.996094 C 84.386719 9.378906 84.914062 9.574219 85.457031 9.539062 C 85.898438 9.535156 86.335938 9.429688 86.730469 9.230469 L 86.878906 9.847656 C 86.429688 10.078125 85.925781 10.195312 85.421875 10.1875 C 84.6875 10.234375 83.96875 9.972656 83.4375 9.464844 C 82.9375 8.902344 82.683594 8.164062 82.738281 7.414062 C 82.699219 6.664062 82.9375 5.925781 83.410156 5.34375 C 83.894531 4.816406 84.59375 4.539062 85.308594 4.585938 C 85.828125 4.574219 86.347656 4.679688 86.824219 4.890625 Z M 86.824219 4.890625 "/>
</g>
<clipPath id="clip5">
  <rect x="0" y="0" width="149" height="32"/>
</clipPath>
<g id="surface15" clip-path="url(#clip5)">
<path style=" stroke:none;fill-rule:nonzero;fill:rgb(16.078432%,50.196081%,95.294118%);fill-opacity:1;" d="M 92.386719 6.894531 C 92.390625 7.105469 92.378906 7.316406 92.355469 7.523438 L 88.53125 7.523438 C 88.515625 8.089844 88.722656 8.632812 89.113281 9.042969 C 89.515625 9.386719 90.039062 9.5625 90.570312 9.53125 C 91.125 9.523438 91.671875 9.402344 92.175781 9.179688 L 92.3125 9.808594 C 91.75 10.066406 91.136719 10.195312 90.519531 10.1875 C 89.773438 10.226562 89.046875 9.960938 88.503906 9.453125 C 87.984375 8.886719 87.71875 8.136719 87.769531 7.375 C 87.734375 6.640625 87.972656 5.925781 88.433594 5.355469 C 88.882812 4.84375 89.542969 4.5625 90.222656 4.597656 C 90.824219 4.566406 91.410156 4.808594 91.816406 5.257812 C 92.199219 5.714844 92.402344 6.296875 92.386719 6.894531 Z M 91.628906 6.996094 C 91.632812 6.925781 91.632812 6.859375 91.628906 6.789062 C 91.640625 6.378906 91.507812 5.972656 91.25 5.652344 C 90.988281 5.335938 90.589844 5.164062 90.179688 5.191406 C 89.75 5.191406 89.339844 5.371094 89.054688 5.695312 C 88.746094 6.058594 88.566406 6.515625 88.542969 6.996094 Z M 91.628906 6.996094 "/>
</g>
<clipPath id="clip1">
  <rect x="0" y="0" width="149" height="32"/>
</clipPath>
<g id="surface17" clip-path="url(#clip1)">
<use xlink:href="#surface6"/>
<use xlink:href="#surface9"/>
<use xlink:href="#surface12"/>
<use xlink:href="#surface15"/>
</g>
<clipPath id="clip7">
  <rect x="0" y="0" width="149" height="32"/>
</clipPath>
<g id="surface21" clip-path="url(#clip7)">
<path style=" stroke:none;fill-rule:nonzero;fill:rgb(16.862746%,16.862746%,16.862746%);fill-opacity:1;" d="M 51.171875 14.171875 L 51.171875 25.664062 L 49.019531 25.664062 L 49.019531 20.183594 C 49.015625 19.480469 49.054688 18.777344 49.136719 18.082031 C 48.230469 20.011719 47.191406 21.882812 46.035156 23.675781 L 44.179688 23.675781 C 43.015625 21.867188 41.972656 19.984375 41.058594 18.039062 C 41.148438 18.746094 41.195312 19.460938 41.191406 20.175781 L 41.191406 25.664062 L 39.027344 25.664062 L 39.027344 14.171875 L 41.4375 14.171875 C 42.457031 16.65625 43.6875 19.050781 45.113281 21.328125 C 46.535156 19.050781 47.753906 16.65625 48.757812 14.171875 Z M 51.171875 14.171875 "/>
<path style=" stroke:none;fill-rule:nonzero;fill:rgb(16.862746%,16.862746%,16.862746%);fill-opacity:1;" d="M 53.617188 15.8125 C 53.378906 15.566406 53.257812 15.234375 53.269531 14.894531 C 53.257812 14.554688 53.382812 14.222656 53.617188 13.972656 C 53.878906 13.734375 54.230469 13.609375 54.585938 13.632812 C 54.9375 13.613281 55.28125 13.738281 55.539062 13.972656 C 55.773438 14.222656 55.894531 14.554688 55.878906 14.894531 C 55.898438 15.234375 55.773438 15.566406 55.539062 15.8125 C 55.28125 16.054688 54.9375 16.179688 54.585938 16.160156 C 54.230469 16.179688 53.878906 16.054688 53.617188 15.8125 Z M 55.71875 25.671875 L 53.441406 25.671875 L 53.441406 17.28125 L 55.71875 17.28125 Z M 55.71875 25.671875 "/>
<path style=" stroke:none;fill-rule:nonzero;fill:rgb(16.862746%,16.862746%,16.862746%);fill-opacity:1;" d="M 63.023438 19.394531 C 62.285156 19.140625 61.519531 18.992188 60.746094 18.949219 C 59.988281 18.949219 59.609375 19.171875 59.609375 19.621094 C 59.597656 19.832031 59.703125 20.03125 59.886719 20.140625 C 60.230469 20.316406 60.59375 20.449219 60.96875 20.542969 C 61.75 20.710938 62.480469 21.050781 63.113281 21.535156 C 63.5625 21.976562 63.796875 22.589844 63.757812 23.214844 C 63.796875 23.988281 63.441406 24.726562 62.816406 25.175781 C 62.074219 25.664062 61.199219 25.902344 60.3125 25.859375 C 59.296875 25.882812 58.285156 25.699219 57.339844 25.316406 L 57.652344 23.460938 C 58.484375 23.796875 59.367188 23.976562 60.265625 23.988281 C 60.582031 24.003906 60.902344 23.9375 61.191406 23.800781 C 61.402344 23.707031 61.542969 23.5 61.542969 23.265625 C 61.550781 23.027344 61.417969 22.804688 61.203125 22.699219 C 60.75 22.488281 60.273438 22.324219 59.785156 22.199219 C 59.117188 22.058594 58.496094 21.746094 57.980469 21.296875 C 57.5625 20.863281 57.339844 20.273438 57.375 19.671875 C 57.332031 18.933594 57.648438 18.21875 58.21875 17.75 C 58.90625 17.265625 59.738281 17.027344 60.574219 17.078125 C 61.5 17.0625 62.417969 17.222656 63.28125 17.554688 Z M 63.023438 19.394531 "/>
<path style=" stroke:none;fill-rule:nonzero;fill:rgb(16.862746%,16.862746%,16.862746%);fill-opacity:1;" d="M 70.242188 19.394531 C 69.507812 19.140625 68.742188 18.992188 67.964844 18.949219 C 67.207031 18.949219 66.828125 19.171875 66.828125 19.621094 C 66.820312 19.832031 66.925781 20.03125 67.105469 20.140625 C 67.453125 20.316406 67.816406 20.449219 68.191406 20.542969 C 68.96875 20.710938 69.703125 21.050781 70.332031 21.535156 C 70.785156 21.972656 71.023438 22.589844 70.980469 23.214844 C 71.019531 23.988281 70.664062 24.726562 70.039062 25.175781 C 69.296875 25.664062 68.421875 25.902344 67.535156 25.859375 C 66.519531 25.882812 65.507812 25.699219 64.566406 25.316406 L 64.875 23.460938 C 65.707031 23.796875 66.589844 23.976562 67.484375 23.988281 C 67.804688 24.003906 68.121094 23.9375 68.410156 23.800781 C 68.625 23.707031 68.761719 23.5 68.761719 23.265625 C 68.773438 23.027344 68.640625 22.808594 68.429688 22.699219 C 67.972656 22.488281 67.496094 22.324219 67.007812 22.199219 C 66.339844 22.058594 65.71875 21.746094 65.203125 21.296875 C 64.78125 20.863281 64.5625 20.273438 64.59375 19.671875 C 64.554688 18.933594 64.867188 18.21875 65.441406 17.75 C 66.125 17.265625 66.957031 17.027344 67.796875 17.078125 C 68.722656 17.0625 69.640625 17.222656 70.503906 17.554688 Z M 70.242188 19.394531 "/>
<path style=" stroke:none;fill-rule:nonzero;fill:rgb(16.862746%,16.862746%,16.862746%);fill-opacity:1;" d="M 72.523438 15.8125 C 72.289062 15.570312 72.164062 15.238281 72.179688 14.894531 C 72.164062 14.554688 72.289062 14.222656 72.523438 13.972656 C 72.789062 13.734375 73.136719 13.609375 73.492188 13.632812 C 73.84375 13.613281 74.1875 13.734375 74.445312 13.972656 C 74.679688 14.222656 74.804688 14.554688 74.789062 14.894531 C 74.804688 15.238281 74.679688 15.570312 74.445312 15.8125 C 74.1875 16.054688 73.84375 16.179688 73.492188 16.160156 C 73.136719 16.183594 72.785156 16.058594 72.523438 15.8125 Z M 74.625 25.671875 L 72.351562 25.671875 L 72.351562 17.28125 L 74.625 17.28125 Z M 74.625 25.671875 "/>
<path style=" stroke:none;fill-rule:nonzero;fill:rgb(16.862746%,16.862746%,16.862746%);fill-opacity:1;" d="M 83.441406 24.660156 C 81.765625 26.265625 79.128906 26.265625 77.457031 24.660156 C 75.980469 22.792969 75.980469 20.152344 77.457031 18.28125 C 79.128906 16.683594 81.765625 16.683594 83.441406 18.28125 C 84.199219 19.164062 84.59375 20.304688 84.539062 21.46875 C 84.597656 22.632812 84.203125 23.777344 83.441406 24.660156 Z M 79.132812 23.316406 C 79.425781 23.753906 79.921875 24.011719 80.449219 23.988281 C 80.976562 24.011719 81.476562 23.753906 81.761719 23.316406 C 82.101562 22.757812 82.261719 22.109375 82.226562 21.460938 C 82.261719 20.8125 82.101562 20.167969 81.761719 19.613281 C 81.472656 19.175781 80.976562 18.925781 80.449219 18.949219 C 79.925781 18.929688 79.425781 19.183594 79.132812 19.621094 C 78.503906 20.773438 78.503906 22.164062 79.132812 23.316406 Z M 79.132812 23.316406 "/>
<path style=" stroke:none;fill-rule:nonzero;fill:rgb(16.862746%,16.862746%,16.862746%);fill-opacity:1;" d="M 86.246094 25.664062 L 86.246094 17.800781 C 87.417969 17.308594 88.683594 17.0625 89.953125 17.078125 C 91.160156 17.078125 92.089844 17.367188 92.746094 17.949219 C 93.429688 18.59375 93.789062 19.507812 93.730469 20.445312 L 93.730469 25.664062 L 91.457031 25.664062 L 91.457031 20.605469 C 91.457031 19.503906 90.949219 18.953125 89.941406 18.949219 C 89.441406 18.941406 88.949219 19.042969 88.496094 19.246094 L 88.496094 25.664062 Z M 86.246094 25.664062 "/>
</g>
<clipPath id="clip8">
  <rect x="0" y="0" width="149" height="32"/>
</clipPath>
<g id="surface24" clip-path="url(#clip8)">
<path style=" stroke:none;fill-rule:nonzero;fill:rgb(16.862746%,16.862746%,16.862746%);fill-opacity:1;" d="M 95.71875 20.050781 C 95.71875 18.234375 96.152344 16.769531 97.023438 15.652344 C 97.894531 14.53125 99.164062 13.972656 100.839844 13.972656 C 101.804688 13.976562 102.757812 14.171875 103.644531 14.550781 L 103.339844 15.566406 C 102.546875 15.253906 101.703125 15.074219 100.847656 15.042969 C 99.523438 15.042969 98.539062 15.507812 97.898438 16.433594 C 97.214844 17.511719 96.878906 18.773438 96.941406 20.050781 C 96.941406 21.519531 97.273438 22.675781 97.941406 23.519531 C 98.609375 24.363281 99.605469 24.789062 100.925781 24.792969 C 101.804688 24.777344 102.671875 24.574219 103.46875 24.203125 L 103.71875 25.21875 C 102.84375 25.65625 101.875 25.875 100.894531 25.859375 C 99.230469 25.859375 97.953125 25.335938 97.054688 24.292969 C 96.15625 23.25 95.710938 21.835938 95.71875 20.050781 Z M 95.71875 20.050781 "/>
</g>
<clipPath id="clip9">
  <rect x="0" y="0" width="149" height="32"/>
</clipPath>
<g id="surface27" clip-path="url(#clip9)">
<path style=" stroke:none;fill-rule:nonzero;fill:rgb(16.862746%,16.862746%,16.862746%);fill-opacity:1;" d="M 108.71875 25.859375 C 107.675781 25.90625 106.671875 25.46875 105.996094 24.675781 C 105.296875 23.777344 104.945312 22.660156 105.003906 21.523438 C 104.945312 20.390625 105.300781 19.269531 105.996094 18.375 C 106.710938 17.621094 107.703125 17.195312 108.742188 17.195312 C 109.78125 17.195312 110.773438 17.621094 111.488281 18.375 C 112.179688 19.273438 112.53125 20.390625 112.472656 21.523438 C 112.53125 22.660156 112.183594 23.777344 111.488281 24.675781 C 110.800781 25.480469 109.777344 25.917969 108.71875 25.859375 Z M 108.71875 24.859375 C 109.46875 24.90625 110.191406 24.574219 110.636719 23.972656 C 111.105469 23.242188 111.328125 22.386719 111.277344 21.523438 C 111.328125 20.664062 111.105469 19.804688 110.636719 19.078125 C 110.1875 18.480469 109.46875 18.144531 108.71875 18.195312 C 107.976562 18.152344 107.261719 18.488281 106.824219 19.089844 C 106.355469 19.8125 106.128906 20.664062 106.175781 21.523438 C 106.128906 22.386719 106.355469 23.238281 106.824219 23.964844 C 107.261719 24.566406 107.976562 24.90625 108.71875 24.867188 Z M 108.71875 24.859375 "/>
<path style=" stroke:none;fill-rule:nonzero;fill:rgb(16.862746%,16.862746%,16.862746%);fill-opacity:1;" d="M 114.824219 25.664062 L 114.824219 18.039062 C 115.898438 17.484375 117.09375 17.195312 118.300781 17.203125 C 119.386719 17.203125 120.203125 17.46875 120.757812 18 C 121.332031 18.589844 121.636719 19.394531 121.585938 20.21875 L 121.585938 25.664062 L 120.449219 25.664062 L 120.449219 20.277344 C 120.480469 19.71875 120.285156 19.175781 119.914062 18.761719 C 119.480469 18.363281 118.902344 18.164062 118.3125 18.210938 C 117.503906 18.199219 116.703125 18.390625 115.984375 18.769531 L 115.984375 25.664062 Z M 114.824219 25.664062 "/>
<path style=" stroke:none;fill-rule:nonzero;fill:rgb(16.862746%,16.862746%,16.862746%);fill-opacity:1;" d="M 128.101562 24.726562 L 128.183594 25.695312 C 127.785156 25.804688 127.367188 25.859375 126.953125 25.859375 C 125.34375 25.859375 124.539062 24.984375 124.539062 23.234375 L 124.539062 18.359375 L 123.292969 18.359375 L 123.292969 17.390625 L 124.539062 17.390625 L 124.539062 15.4375 L 125.679688 15.355469 L 125.679688 17.390625 L 127.910156 17.390625 L 127.910156 18.359375 L 125.679688 18.359375 L 125.679688 23.234375 C 125.636719 23.679688 125.761719 24.121094 126.03125 24.480469 C 126.3125 24.75 126.699219 24.890625 127.089844 24.859375 C 127.433594 24.863281 127.773438 24.820312 128.101562 24.726562 Z M 128.101562 24.726562 "/>
</g>
<clipPath id="clip10">
  <rect x="0" y="0" width="149" height="32"/>
</clipPath>
<g id="surface30" clip-path="url(#clip10)">
<path style=" stroke:none;fill-rule:nonzero;fill:rgb(16.862746%,16.862746%,16.862746%);fill-opacity:1;" d="M 133.503906 17.195312 C 133.816406 17.195312 134.128906 17.222656 134.4375 17.28125 L 134.277344 18.28125 C 134.050781 18.222656 133.820312 18.195312 133.585938 18.203125 C 132.761719 18.179688 131.949219 18.371094 131.222656 18.761719 L 131.222656 25.664062 L 130.085938 25.664062 L 130.085938 18.039062 C 131.132812 17.464844 132.308594 17.171875 133.503906 17.195312 Z M 133.503906 17.195312 "/>
</g>
<clipPath id="clip11">
  <rect x="0" y="0" width="149" height="32"/>
</clipPath>
<g id="surface33" clip-path="url(#clip11)">
<path style=" stroke:none;fill-rule:nonzero;fill:rgb(16.862746%,16.862746%,16.862746%);fill-opacity:1;" d="M 139.21875 25.859375 C 138.171875 25.910156 137.160156 25.472656 136.484375 24.675781 C 135.785156 23.777344 135.433594 22.660156 135.488281 21.523438 C 135.433594 20.390625 135.785156 19.269531 136.484375 18.375 C 137.199219 17.621094 138.191406 17.195312 139.230469 17.195312 C 140.265625 17.195312 141.257812 17.621094 141.972656 18.375 C 142.667969 19.273438 143.015625 20.390625 142.960938 21.523438 C 143.019531 22.660156 142.667969 23.777344 141.972656 24.675781 C 141.289062 25.476562 140.269531 25.914062 139.21875 25.859375 Z M 139.21875 24.859375 C 139.964844 24.90625 140.6875 24.574219 141.136719 23.972656 C 141.601562 23.242188 141.828125 22.386719 141.777344 21.523438 C 141.828125 20.664062 141.601562 19.804688 141.136719 19.078125 C 140.6875 18.480469 139.964844 18.144531 139.21875 18.195312 C 138.472656 18.152344 137.761719 18.488281 137.320312 19.089844 C 136.851562 19.8125 136.625 20.664062 136.671875 21.523438 C 136.625 22.386719 136.851562 23.238281 137.320312 23.964844 C 137.757812 24.566406 138.472656 24.90625 139.21875 24.867188 Z M 139.21875 24.859375 "/>
<path style=" stroke:none;fill-rule:nonzero;fill:rgb(16.862746%,16.862746%,16.862746%);fill-opacity:1;" d="M 146.453125 23.316406 C 146.425781 23.722656 146.511719 24.132812 146.699219 24.5 C 146.898438 24.765625 147.222656 24.910156 147.554688 24.878906 C 147.714844 24.871094 147.871094 24.855469 148.03125 24.828125 L 148.128906 25.765625 C 147.882812 25.824219 147.625 25.859375 147.371094 25.863281 C 145.984375 25.863281 145.289062 25.019531 145.285156 23.332031 L 145.285156 13.867188 L 146.421875 13.789062 Z M 146.453125 23.316406 "/>
</g>
<clipPath id="clip6">
  <rect x="0" y="0" width="149" height="32"/>
</clipPath>
<g id="surface35" clip-path="url(#clip6)">
<use xlink:href="#surface21"/>
<use xlink:href="#surface24"/>
<use xlink:href="#surface27"/>
<use xlink:href="#surface30"/>
<use xlink:href="#surface33"/>
</g>
</defs>
<g id="surface1">
<path style=" stroke:none;fill-rule:nonzero;fill:url(#linear0);" d="M 21.894531 23.160156 L 24.15625 25.371094 C 24.292969 25.507812 24.292969 25.726562 24.15625 25.863281 C 24.113281 25.902344 24.066406 25.933594 24.011719 25.949219 L 3.589844 32 L 0.75 29.222656 Z M 21.894531 23.160156 "/>
<path style=" stroke:none;fill-rule:nonzero;fill:url(#linear1);" d="M 14.113281 16.101562 L 16.382812 18.347656 C 16.519531 18.480469 16.519531 18.699219 16.382812 18.835938 C 16.339844 18.878906 16.285156 18.910156 16.226562 18.925781 L 2.863281 22.632812 L 0.0703125 19.867188 Z M 14.113281 16.101562 "/>
<path style=" stroke:none;fill-rule:nonzero;fill:url(#linear2);" d="M 6.984375 9.320312 L 9.042969 11.394531 C 9.179688 11.527344 9.179688 11.75 9.042969 11.886719 C 8.996094 11.929688 8.941406 11.960938 8.878906 11.980469 L 2.535156 13.628906 L 0 11.066406 Z M 6.984375 9.320312 "/>
<path style=" stroke:none;fill-rule:nonzero;fill:url(#linear3);" d="M 7.714844 10.191406 L 3.386719 5.863281 C 3.253906 5.726562 3.253906 5.507812 3.386719 5.375 C 3.433594 5.328125 3.488281 5.296875 3.554688 5.28125 L 24.710938 0 L 29.320312 4.609375 Z M 7.714844 10.191406 "/>
<path style=" stroke:none;fill-rule:nonzero;fill:url(#linear4);" d="M 15.371094 17.449219 L 11.664062 13.691406 C 11.527344 13.554688 11.527344 13.332031 11.664062 13.195312 C 11.707031 13.152344 11.761719 13.121094 11.820312 13.105469 L 25.78125 9.398438 L 29.820312 13.4375 Z M 15.371094 17.449219 "/>
<path style=" stroke:none;fill-rule:nonzero;fill:url(#linear5);" d="M 23.4375 24.769531 L 19.445312 20.742188 C 19.308594 20.605469 19.308594 20.386719 19.445312 20.25 C 19.484375 20.207031 19.535156 20.179688 19.59375 20.164062 L 26.289062 18.214844 L 30.703125 22.617188 Z M 23.4375 24.769531 "/>
<use xlink:href="#surface17"/>
<use xlink:href="#surface35"/>
</g>
</svg>
