<svg role="img" viewBox="176.329 177.607 30.703 32" xmlns="http://www.w3.org/2000/svg"><path class="cls-2" d="m198.224 200.767 2.26 2.209a.351.351 0 0 1-.142.581l-20.424 6.05-2.838-2.779z" style="fill:url(#Безымянный_градиент_6)"/><path class="cls-3" d="m190.444 193.71 2.269 2.244a.346.346 0 0 1-.158.58l-13.362 3.705-2.795-2.764z" style="fill:url(#Безымянный_градиент_6-2)"/><path class="cls-4" d="m183.312 186.926 2.06 2.075a.35.35 0 0 1 0 .493.384.384 0 0 1-.163.092l-6.346 1.651-2.534-2.564z" style="fill:url(#Безымянный_градиент_6-3)"/><path class="cls-5" d="m184.045 187.8-4.329-4.329a.348.348 0 0 1 .166-.583l21.16-5.281 4.607 4.608z" style="fill:url(#Безымянный_градиент_6-4)"/><path class="cls-6" d="m191.699 195.058-3.708-3.76a.35.35 0 0 1 0-.494.364.364 0 0 1 .16-.09l13.957-3.709 4.041 4.041z" style="fill:url(#Безымянный_градиент_6-5)"/><path class="cls-7" d="m199.765 202.375-3.992-4.025a.346.346 0 0 1 .149-.581l6.695-1.947 4.415 4.403z" style="fill:url(#Безымянный_градиент_6-6)"/></svg>