<?xml version="1.0" encoding="UTF-8"?>
<svg xmlns="http://www.w3.org/2000/svg" xmlns:xlink="http://www.w3.org/1999/xlink" width="32" height="32" viewBox="0 0 32 32" version="1.1">
<g id="surface1">
<path style=" stroke:none;fill-rule:nonzero;fill:rgb(34.901962%,58.823532%,21.176471%);fill-opacity:1;" d="M 14.726562 4.160156 L 15.421875 5.460938 C 15.574219 5.703125 15.746094 5.914062 15.945312 6.113281 C 16.527344 6.691406 17.070312 7.304688 17.570312 7.953125 C 18.746094 9.496094 19.539062 11.210938 20.105469 13.0625 C 20.445312 14.195312 20.628906 15.355469 20.640625 16.53125 C 20.699219 20.042969 19.496094 23.054688 17.070312 25.5625 C 16.675781 25.957031 16.25 26.324219 15.792969 26.652344 C 15.554688 26.652344 15.441406 26.464844 15.339844 26.296875 C 15.160156 25.980469 15.039062 25.636719 14.988281 25.277344 C 14.894531 24.855469 14.855469 24.421875 14.875 23.988281 L 14.875 23.792969 C 14.855469 23.75 14.640625 4.261719 14.726562 4.160156 M 14.726562 4.160156 "/>
<path style=" stroke:none;fill-rule:nonzero;fill:rgb(42.352942%,67.450982%,28.235295%);fill-opacity:1;" d="M 14.726562 4.117188 C 14.699219 4.058594 14.667969 4.101562 14.640625 4.132812 C 14.65625 4.414062 14.554688 4.667969 14.402344 4.910156 C 14.230469 5.152344 14.003906 5.335938 13.777344 5.535156 C 12.519531 6.625 11.527344 7.941406 10.734375 9.410156 C 9.679688 11.394531 9.136719 13.515625 8.980469 15.753906 C 8.910156 16.558594 9.238281 19.402344 9.492188 20.226562 C 10.183594 22.40625 11.429688 24.230469 13.042969 25.816406 C 13.441406 26.199219 13.863281 26.550781 14.300781 26.890625 C 14.429688 26.890625 14.441406 26.777344 14.472656 26.695312 C 14.527344 26.511719 14.570312 26.328125 14.601562 26.140625 L 14.882812 24.019531 Z M 14.726562 4.117188 "/>
<path style=" stroke:none;fill-rule:nonzero;fill:rgb(76.078433%,74.901962%,74.901962%);fill-opacity:1;" d="M 15.421875 27.511719 C 15.449219 27.1875 15.605469 26.917969 15.773438 26.648438 C 15.605469 26.570312 15.46875 26.441406 15.378906 26.28125 C 15.292969 26.132812 15.222656 25.976562 15.167969 25.816406 C 14.96875 25.222656 14.925781 24.597656 14.871094 23.988281 L 14.871094 23.621094 C 14.800781 23.679688 14.785156 24.160156 14.785156 24.230469 C 14.742188 24.871094 14.65625 25.511719 14.53125 26.140625 C 14.488281 26.398438 14.457031 26.652344 14.300781 26.878906 C 14.300781 26.90625 14.300781 26.933594 14.316406 26.976562 C 14.570312 27.726562 14.640625 28.492188 14.683594 29.269531 L 14.683594 29.554688 C 14.683594 29.894531 14.667969 29.820312 14.953125 29.9375 C 15.066406 29.976562 15.191406 29.992188 15.304688 30.078125 C 15.390625 30.078125 15.40625 30.007812 15.40625 29.949219 L 15.363281 29.484375 L 15.363281 28.179688 C 15.347656 27.953125 15.390625 27.726562 15.417969 27.515625 Z M 15.421875 27.511719 "/>
</g>
</svg>
