<svg role="img" viewBox="0 0 32 32" xmlns="http://www.w3.org/2000/svg"><path d="m14.727 4.16.695 1.3c.152.243.324.454.523.653a18.613 18.613 0 0 1 1.625 1.84c1.176 1.543 1.97 3.258 2.535 5.11.34 1.132.524 2.292.536 3.468.058 3.512-1.145 6.524-3.57 9.032-.395.394-.821.761-1.278 1.09-.238 0-.352-.188-.453-.356a2.9 2.9 0 0 1-.352-1.02 4.908 4.908 0 0 1-.113-1.289v-.195c-.02-.043-.234-19.531-.148-19.633m0 0" style="stroke:none;fill-rule:nonzero;fill:rgb(34.901962%,58.823532%,21.176471%);fill-opacity:1"/><path d="M14.727 4.117c-.028-.058-.059-.015-.086.016.015.281-.086.535-.239.777-.172.242-.398.426-.625.625-1.257 1.09-2.25 2.406-3.043 3.875-1.054 1.985-1.597 4.106-1.754 6.344-.07.805.258 3.648.512 4.473.692 2.18 1.938 4.003 3.551 5.59.398.382.82.734 1.258 1.074.129 0 .14-.114.172-.196.054-.183.097-.367.129-.554l.28-2.121Zm0 0" style="stroke:none;fill-rule:nonzero;fill:rgb(42.352942%,67.450982%,28.235295%);fill-opacity:1"/><path d="M15.422 27.512c.027-.325.183-.594.351-.864a.895.895 0 0 1-.394-.367 2.615 2.615 0 0 1-.211-.465c-.2-.593-.242-1.218-.297-1.828v-.367c-.07.059-.086.54-.086.61a14.86 14.86 0 0 1-.254 1.91c-.043.257-.074.511-.23.738 0 .027 0 .055.015.098.254.75.325 1.515.368 2.293v.285c0 .34-.016.265.27.383.112.039.237.054.35.14.087 0 .102-.07.102-.129l-.043-.465V28.18c-.015-.227.028-.453.055-.664Zm0 0" style="stroke:none;fill-rule:nonzero;fill:rgb(76.078433%,74.901962%,74.901962%);fill-opacity:1"/></svg>