<?xml version="1.0" encoding="UTF-8"?>
<svg xmlns="http://www.w3.org/2000/svg" xmlns:xlink="http://www.w3.org/1999/xlink" width="32" height="32" viewBox="0 0 32 32" version="1.1">
<g id="surface1">
<path style=" stroke:none;fill-rule:nonzero;fill:rgb(0%,0%,0%);fill-opacity:1;" d="M 14.210938 31.992188 L 1.609375 31.992188 C 0.722656 31.988281 0.00390625 31.269531 0 30.382812 L 0 18.144531 L 0.09375 18.144531 C 7.808594 18.144531 14.101562 24.34375 14.210938 31.992188 M 24.351562 31.992188 L 18.957031 31.992188 C 18.847656 21.660156 10.394531 13.300781 0 13.257812 L 0 8.050781 L 0.09375 8.050781 C 13.40625 8.050781 24.257812 18.777344 24.351562 31.992188 M 30.390625 31.992188 L 29.097656 31.992188 C 29.003906 16.09375 15.992188 3.210938 0 3.164062 L 0 1.617188 C 0 0.734375 0.726562 0.0078125 1.609375 0.0078125 L 11.796875 0.0078125 C 20.976562 3.320312 28.34375 10.386719 32 19.34375 L 32 30.398438 C 32 31.28125 31.273438 31.992188 30.390625 31.992188 M 22.285156 0.0078125 L 30.40625 0.0078125 C 30.828125 0.0078125 31.234375 0.171875 31.535156 0.472656 C 31.832031 0.769531 32 1.175781 32 1.601562 L 32 9.484375 C 30.785156 7.828125 29.273438 5.953125 27.789062 4.46875 C 26.117188 2.8125 24.164062 1.316406 22.285156 0.0078125 Z M 22.285156 0.0078125 "/>
</g>
</svg>
