<svg role="img" viewBox="0 0 28.8 32" xmlns="http://www.w3.org/2000/svg"><path d="M8.156 32h-6.71A1.442 1.442 0 0 1 0 30.555V15.52l5.066-1.493 4.536 1.493v15.035c0 .8-.649 1.445-1.446 1.445m0 0" style="stroke:none;fill-rule:nonzero;fill:rgb(9.411765%,36.078432%,21.568628%);fill-opacity:1"/><path d="M18.559 0h8.75c.824 0 1.492.668 1.492 1.492v17.496c0 .825-.668 1.492-1.492 1.492h-8.75L16.852 9.547Zm0 0" style="stroke:none;fill-rule:nonzero;fill:rgb(20%,76.862746%,50.588238%);fill-opacity:1"/><path d="M0 1.492V16h9.602v10.238h8.105c.824 0 1.492-.664 1.492-1.488V0H1.492C.668 0 0 .668 0 1.492m0 0" style="stroke:none;fill-rule:nonzero;fill:rgb(6.27451%,48.627451%,25.490198%);fill-opacity:1"/><path d="M9.602 0h9.597v10.879H9.602Zm0 0" style="stroke:none;fill-rule:nonzero;fill:rgb(12.941177%,63.921571%,40.000001%);fill-opacity:1"/></svg>