<?xml version="1.0" encoding="UTF-8"?>
<svg xmlns="http://www.w3.org/2000/svg" xmlns:xlink="http://www.w3.org/1999/xlink" width="28.799999" height="32" viewBox="0 0 28.799999 32" version="1.1">
<g id="surface1">
<path style=" stroke:none;fill-rule:nonzero;fill:rgb(9.411765%,36.078432%,21.568628%);fill-opacity:1;" d="M 8.15625 32 L 1.445312 32 C 1.0625 32 0.695312 31.847656 0.421875 31.578125 C 0.152344 31.308594 0 30.9375 0 30.554688 L 0 15.519531 L 5.066406 14.027344 L 9.601562 15.519531 L 9.601562 30.554688 C 9.601562 31.355469 8.953125 32 8.15625 32 M 8.15625 32 "/>
<path style=" stroke:none;fill-rule:nonzero;fill:rgb(20%,76.862746%,50.588238%);fill-opacity:1;" d="M 18.558594 0 L 27.308594 0 C 28.132812 0 28.800781 0.667969 28.800781 1.492188 L 28.800781 18.988281 C 28.800781 19.8125 28.132812 20.480469 27.308594 20.480469 L 18.558594 20.480469 L 16.851562 9.546875 Z M 18.558594 0 "/>
<path style=" stroke:none;fill-rule:nonzero;fill:rgb(6.27451%,48.627451%,25.490198%);fill-opacity:1;" d="M 0 1.492188 L 0 16 L 9.601562 16 L 9.601562 26.238281 L 17.707031 26.238281 C 18.53125 26.238281 19.199219 25.574219 19.199219 24.75 L 19.199219 0 L 1.492188 0 C 0.667969 0 0 0.667969 0 1.492188 M 0 1.492188 "/>
<path style=" stroke:none;fill-rule:nonzero;fill:rgb(12.941177%,63.921571%,40.000001%);fill-opacity:1;" d="M 9.601562 0 L 19.199219 0 L 19.199219 10.878906 L 9.601562 10.878906 Z M 9.601562 0 "/>
</g>
</svg>
