<svg role="img" viewBox="0 0 32 32" xmlns="http://www.w3.org/2000/svg"><path d="M15.96 2.883a.999.999 0 0 0-.382.09L1.82 9.69a.96.96 0 0 0 0 1.73l3.598 1.763-3.637 1.968a.963.963 0 0 0 .04 1.71l3.597 1.76-3.637 1.972a.957.957 0 0 0 .04 1.707l13.757 6.722a.969.969 0 0 0 .844 0L30.18 22.3a.957.957 0 0 0 .039-1.707l-3.637-1.973 3.598-1.758a.963.963 0 0 0 .039-1.71l-3.637-1.97 3.598-1.761a.96.96 0 0 0 0-1.73l-13.758-6.72a.993.993 0 0 0-.461-.09M16 4.914l11.57 5.649L16 16.203l-11.57-5.64Zm-8.46 9.297 8.038 3.93a.943.943 0 0 0 .844 0l8.039-3.93 3.2 1.742L16 21.641 4.34 15.953Zm0 5.441 8.038 3.93a.969.969 0 0 0 .844 0l8.039-3.93 3.2 1.739L16 27.082 4.34 21.391Zm0 0" style="stroke:none;fill-rule:nonzero;fill:rgb(0%,0%,0%);fill-opacity:1"/></svg>