<svg height='100px' width='100px'  fill="#000000" xmlns:dc="http://purl.org/dc/elements/1.1/" xmlns:cc="http://creativecommons.org/ns#" xmlns:rdf="http://www.w3.org/1999/02/22-rdf-syntax-ns#" xmlns:svg="http://www.w3.org/2000/svg" xmlns="http://www.w3.org/2000/svg" xmlns:sodipodi="http://sodipodi.sourceforge.net/DTD/sodipodi-0.dtd" xmlns:inkscape="http://www.inkscape.org/namespaces/inkscape" version="1.1" x="0px" y="0px" viewBox="0 0 100 100"><g transform="translate(0,-952.36218)"><path style="text-indent:0;text-transform:none;direction:ltr;block-progression:tb;baseline-shift:baseline;color:#000000;enable-background:accumulate;" d="m 49.875,961.36936 a 3.0003,3.0003 0 0 0 -1.1875,0.28129 l -43,21 a 3.0003,3.0003 0 0 0 0,5.4062 l 11.25,5.5 -11.375,6.1563 a 3.0003,3.0003 0 0 0 0.125,5.34375 l 11.25,5.5001 -11.375,6.1562 a 3.0003,3.0003 0 0 0 0.125,5.3438 l 43,21 a 3.0003,3.0003 0 0 0 2.625,0 l 43,-21 a 3.0003,3.0003 0 0 0 0.125,-5.3438 l -11.375,-6.1562 11.25,-5.5001 a 3.0003,3.0003 0 0 0 0.125,-5.34375 l -11.375,-6.1563 11.25,-5.5 a 3.0003,3.0003 0 0 0 0,-5.4062 l -43,-21 A 3.0003,3.0003 0 0 0 49.875,961.36936 z M 50,967.71315 86.1562,985.36935 50,1002.9944 13.8438,985.36935 50,967.71315 z m -26.4375,29.0625 25.125,12.28135 a 3.0003,3.0003 0 0 0 2.625,0 l 25.125,-12.28135 10,5.43755 -36.4375,17.7813 -36.4375,-17.7813 10,-5.43755 z m 0,17.00005 25.125,12.2813 a 3.0003,3.0003 0 0 0 2.625,0 l 25.125,-12.2813 10,5.4375 -36.4375,17.7813 -36.4375,-17.7813 10,-5.4375 z" fill="#000000" fill-opacity="1" stroke="none" marker="none" visibility="visible" display="inline" overflow="visible"></path></g></svg>