<svg height="100" width="100" xmlns="http://www.w3.org/2000/svg"><path style="text-indent:0;text-transform:none;direction:ltr;block-progression:tb;baseline-shift:baseline;color:#000;enable-background:accumulate" d="M49.875 961.37a3 3 0 0 0-1.188.28l-43 21a3 3 0 0 0 0 5.407l11.25 5.5-11.375 6.156a3 3 0 0 0 .125 5.344l11.25 5.5-11.375 6.156a3 3 0 0 0 .125 5.344l43 21a3 3 0 0 0 2.626 0l43-21a3 3 0 0 0 .124-5.344l-11.374-6.156 11.25-5.5a3 3 0 0 0 .124-5.344l-11.374-6.156 11.25-5.5a3 3 0 0 0 0-5.406l-43-21a3 3 0 0 0-1.438-.282zm.125 6.343 36.156 17.656L50 1002.994 13.844 985.37 50 967.713zm-26.438 29.063 25.125 12.281a3 3 0 0 0 2.626 0l25.124-12.281 10 5.437L50 1019.995l-36.438-17.782 10-5.437zm0 17 25.125 12.281a3 3 0 0 0 2.626 0l25.124-12.281 10 5.437L50 1036.995l-36.438-17.782 10-5.437z" overflow="visible" transform="translate(0 -952.362)"/></svg>