<?xml version="1.0" encoding="UTF-8"?>
<svg xmlns="http://www.w3.org/2000/svg" xmlns:xlink="http://www.w3.org/1999/xlink" width="32" height="32" viewBox="0 0 32 32" version="1.1">
<g id="surface1">
<path style=" stroke:none;fill-rule:nonzero;fill:rgb(0%,0%,0%);fill-opacity:1;" d="M 15.960938 2.882812 C 15.828125 2.886719 15.699219 2.917969 15.578125 2.972656 L 1.820312 9.691406 C 1.488281 9.851562 1.277344 10.1875 1.277344 10.554688 C 1.277344 10.921875 1.488281 11.261719 1.820312 11.421875 L 5.417969 13.183594 L 1.78125 15.152344 C 1.464844 15.324219 1.273438 15.660156 1.28125 16.019531 C 1.289062 16.378906 1.496094 16.703125 1.820312 16.859375 L 5.417969 18.621094 L 1.78125 20.59375 C 1.464844 20.761719 1.269531 21.097656 1.277344 21.457031 C 1.285156 21.820312 1.496094 22.144531 1.820312 22.300781 L 15.578125 29.023438 C 15.84375 29.152344 16.15625 29.152344 16.421875 29.023438 L 30.179688 22.300781 C 30.503906 22.144531 30.714844 21.820312 30.722656 21.457031 C 30.730469 21.097656 30.535156 20.761719 30.21875 20.59375 L 26.582031 18.621094 L 30.179688 16.863281 C 30.503906 16.703125 30.710938 16.378906 30.71875 16.019531 C 30.726562 15.660156 30.535156 15.324219 30.21875 15.152344 L 26.582031 13.183594 L 30.179688 11.421875 C 30.511719 11.261719 30.722656 10.925781 30.722656 10.554688 C 30.722656 10.1875 30.511719 9.851562 30.179688 9.691406 L 16.421875 2.972656 C 16.277344 2.90625 16.121094 2.875 15.960938 2.882812 M 16 4.914062 L 27.570312 10.5625 L 16 16.203125 L 4.429688 10.5625 Z M 7.539062 14.210938 L 15.578125 18.140625 C 15.84375 18.273438 16.15625 18.273438 16.421875 18.140625 L 24.460938 14.210938 L 27.660156 15.953125 L 16 21.640625 L 4.339844 15.953125 Z M 7.539062 19.652344 L 15.578125 23.582031 C 15.84375 23.710938 16.15625 23.710938 16.421875 23.582031 L 24.460938 19.652344 L 27.660156 21.390625 L 16 27.082031 L 4.339844 21.390625 Z M 7.539062 19.652344 "/>
</g>
</svg>
