<svg role="img" viewBox="0 0 32 32" xmlns="http://www.w3.org/2000/svg"><path d="M29.477 24.926c-1.743-.047-3.09.129-4.223.605-.328.133-.848.133-.89.543.171.172.195.453.347.692.258.433.719 1.015 1.129 1.32l1.394.992c.848.52 1.805.824 2.633 1.344.48.3.957.691 1.438 1.015.242.172.39.454.695.563v-.066c-.152-.196-.195-.477-.348-.692L31 30.613a10.267 10.267 0 0 0-2.266-2.183c-.695-.477-2.218-1.125-2.5-1.922l-.043-.051c.477-.047 1.043-.215 1.5-.348.743-.191 1.414-.148 2.176-.343l1.047-.305v-.191c-.394-.391-.676-.91-1.09-1.278-1.11-.949-2.328-1.883-3.59-2.66-.675-.434-1.547-.715-2.265-1.082-.262-.129-.696-.195-.848-.41-.394-.477-.61-1.102-.894-1.664l-1.782-3.766c-.394-.844-.633-1.687-1.11-2.465-2.241-3.675-4.679-5.902-8.425-8.09-.805-.453-1.762-.648-2.781-.886L6.5 2.883c-.352-.153-.7-.563-1.004-.758C4.258 1.348 1.06-.34.145 1.883c-.59 1.406.867 2.789 1.363 3.504.37.496.847 1.058 1.113 1.62.145.368.192.759.348 1.15.347.948.672 2.011 1.129 2.898.246.453.5.93.804 1.34.176.242.48.347.547.734-.308.434-.328 1.082-.5 1.625-.785 2.441-.48 5.473.63 7.27.347.542 1.171 1.73 2.284 1.277.98-.39.762-1.621 1.043-2.703.067-.262.024-.434.153-.606v.047l.894 1.797c.676 1.059 1.852 2.16 2.828 2.898.524.387.938 1.059 1.59 1.297v-.066h-.043c-.133-.192-.328-.281-.504-.434-.39-.386-.824-.863-1.129-1.297-.914-1.21-1.718-2.55-2.437-3.933-.348-.672-.653-1.406-.938-2.078-.129-.258-.129-.649-.347-.778-.328.473-.805.887-1.043 1.47-.414.929-.457 2.077-.61 3.265-.09.023-.05 0-.09.05-.695-.171-.933-.886-1.195-1.492-.652-1.535-.762-4.004-.195-5.777.152-.453.805-1.879.543-2.313-.133-.41-.567-.648-.805-.972a8.667 8.667 0 0 1-.785-1.387c-.52-1.21-.781-2.55-1.348-3.762-.261-.562-.718-1.148-1.09-1.664-.414-.586-.867-.996-1.195-1.687-.11-.242-.262-.63-.086-.887.043-.176.13-.242.305-.281.281-.242 1.086.062 1.371.191.805.328 1.477.63 2.152 1.082.305.215.633.63 1.024.735h.457c.699.152 1.48.05 2.133.246 1.152.367 2.199.906 3.132 1.492a19.224 19.224 0 0 1 6.793 7.398c.258.496.368.95.61 1.47.457 1.058 1.023 2.14 1.476 3.179.461 1.015.895 2.054 1.547 2.898.328.457 1.633.692 2.219.93.437.195 1.11.371 1.504.605.738.457 1.48.977 2.176 1.473.347.258 1.437.8 1.5 1.23ZM7.28 6.133a3.41 3.41 0 0 0-.89.105v.051h.043c.171.344.476.582.695.887l.5 1.039.043-.05c.305-.216.457-.563.457-1.083-.129-.148-.149-.3-.258-.453-.133-.215-.414-.324-.59-.496m0 0" style="stroke:none;fill-rule:evenodd;fill:rgb(0%,40.392157%,54.901963%);fill-opacity:1"/></svg>