<?xml version="1.0" encoding="UTF-8"?>
<svg xmlns="http://www.w3.org/2000/svg" xmlns:xlink="http://www.w3.org/1999/xlink" width="32" height="32" viewBox="0 0 32 32" version="1.1">
<g id="surface1">
<path style=" stroke:none;fill-rule:nonzero;fill:rgb(0%,40.392157%,54.901963%);fill-opacity:1;" d="M 19.949219 5.121094 C 19.648438 5.113281 19.386719 5.226562 19.25 5.558594 C 19.019531 6.117188 19.59375 6.664062 19.796875 6.949219 C 19.941406 7.144531 20.125 7.367188 20.226562 7.589844 C 20.296875 7.738281 20.304688 7.886719 20.363281 8.039062 C 20.503906 8.421875 20.734375 8.859375 20.914062 9.210938 C 21.007812 9.390625 21.109375 9.578125 21.226562 9.738281 C 21.300781 9.835938 21.421875 9.882812 21.441406 10.03125 C 21.324219 10.203125 21.316406 10.464844 21.246094 10.679688 C 20.941406 11.640625 21.058594 12.839844 21.5 13.550781 C 21.636719 13.769531 21.960938 14.238281 22.398438 14.058594 C 22.785156 13.902344 22.699219 13.414062 22.808594 12.984375 C 22.835938 12.886719 22.820312 12.816406 22.871094 12.75 L 22.871094 12.769531 C 22.984375 13.003906 23.101562 13.238281 23.21875 13.472656 C 23.484375 13.890625 23.945312 14.328125 24.335938 14.628906 C 24.539062 14.78125 24.699219 15.046875 24.960938 15.136719 L 24.960938 15.113281 L 24.941406 15.113281 C 24.890625 15.035156 24.808594 15.003906 24.746094 14.941406 C 24.59375 14.789062 24.421875 14.601562 24.296875 14.429688 C 23.941406 13.949219 23.625 13.417969 23.339844 12.867188 C 23.203125 12.605469 23.082031 12.316406 22.96875 12.046875 C 22.921875 11.941406 22.921875 11.789062 22.828125 11.734375 C 22.703125 11.929688 22.515625 12.085938 22.421875 12.320312 C 22.265625 12.691406 22.242188 13.140625 22.183594 13.609375 C 22.148438 13.621094 22.164062 13.613281 22.148438 13.628906 C 21.875 13.5625 21.777344 13.28125 21.675781 13.042969 C 21.421875 12.433594 21.371094 11.453125 21.601562 10.757812 C 21.65625 10.574219 21.921875 10.003906 21.816406 9.835938 C 21.765625 9.671875 21.59375 9.574219 21.503906 9.449219 C 21.386719 9.289062 21.269531 9.082031 21.191406 8.898438 C 20.980469 8.425781 20.78125 7.875 20.558594 7.394531 C 20.453125 7.164062 20.277344 6.933594 20.128906 6.730469 C 19.96875 6.503906 19.789062 6.339844 19.660156 6.066406 C 19.617188 5.96875 19.554688 5.816406 19.621094 5.714844 C 19.640625 5.648438 19.671875 5.621094 19.738281 5.597656 C 19.851562 5.511719 20.167969 5.625 20.289062 5.675781 C 20.601562 5.804688 20.863281 5.929688 21.128906 6.105469 C 21.253906 6.191406 21.382812 6.351562 21.539062 6.398438 L 21.710938 6.398438 C 21.988281 6.460938 22.296875 6.417969 22.550781 6.496094 C 23.007812 6.636719 23.414062 6.851562 23.78125 7.082031 C 24.910156 7.792969 25.832031 8.804688 26.460938 10.011719 C 26.5625 10.207031 26.609375 10.394531 26.699219 10.601562 C 26.875 11.015625 27.101562 11.445312 27.28125 11.851562 C 27.460938 12.257812 27.636719 12.664062 27.886719 13.003906 C 28.019531 13.179688 28.535156 13.277344 28.765625 13.375 C 28.929688 13.445312 29.199219 13.515625 29.351562 13.609375 C 29.648438 13.789062 29.933594 14 30.210938 14.199219 C 30.351562 14.296875 30.777344 14.507812 30.800781 14.683594 C 30.113281 14.667969 29.585938 14.730469 29.140625 14.921875 C 29.011719 14.976562 28.808594 14.976562 28.789062 15.136719 C 28.855469 15.207031 28.867188 15.316406 28.921875 15.40625 C 29.03125 15.578125 29.210938 15.8125 29.371094 15.933594 C 29.550781 16.066406 29.730469 16.210938 29.921875 16.328125 C 30.253906 16.53125 30.628906 16.648438 30.953125 16.851562 C 31.144531 16.976562 31.335938 17.128906 31.523438 17.261719 C 31.613281 17.332031 31.675781 17.4375 31.796875 17.480469 L 31.796875 17.460938 C 31.734375 17.378906 31.71875 17.269531 31.660156 17.1875 L 31.402344 16.929688 C 31.15625 16.601562 30.839844 16.3125 30.503906 16.074219 C 30.238281 15.878906 29.640625 15.621094 29.53125 15.308594 L 29.511719 15.289062 C 29.699219 15.269531 29.921875 15.199219 30.09375 15.152344 C 30.390625 15.074219 30.648438 15.09375 30.953125 15.015625 C 31.089844 14.976562 31.226562 14.9375 31.363281 14.898438 L 31.363281 14.820312 C 31.210938 14.664062 31.101562 14.453125 30.933594 14.3125 C 30.496094 13.941406 30.019531 13.566406 29.527344 13.257812 C 29.253906 13.085938 28.917969 12.972656 28.628906 12.828125 C 28.53125 12.777344 28.363281 12.753906 28.296875 12.671875 C 28.144531 12.476562 28.0625 12.234375 27.945312 12.007812 C 27.699219 11.535156 27.460938 11.019531 27.242188 10.523438 C 27.09375 10.183594 26.996094 9.851562 26.8125 9.546875 C 25.925781 8.085938 24.96875 7.203125 23.488281 6.339844 C 23.175781 6.15625 22.796875 6.085938 22.398438 5.988281 C 22.179688 5.976562 21.96875 5.960938 21.75 5.949219 C 21.621094 5.894531 21.484375 5.734375 21.359375 5.65625 C 21.050781 5.460938 20.449219 5.128906 19.949219 5.121094 Z M 22.066406 7.238281 C 21.921875 7.238281 21.820312 7.257812 21.710938 7.28125 L 21.710938 7.300781 L 21.734375 7.300781 C 21.800781 7.441406 21.921875 7.53125 22.007812 7.648438 C 22.074219 7.789062 22.136719 7.925781 22.199219 8.0625 L 22.21875 8.042969 C 22.339844 7.957031 22.398438 7.820312 22.398438 7.613281 C 22.347656 7.5625 22.339844 7.496094 22.300781 7.4375 C 22.242188 7.355469 22.136719 7.308594 22.066406 7.238281 Z M 1.195312 15.359375 C 1.003906 15.363281 0.792969 15.402344 0.566406 15.476562 C 0.183594 15.589844 -0.00390625 15.816406 -0.00390625 16.28125 L -0.00390625 21.121094 L 1.28125 21.121094 L 1.28125 16.398438 L 3.058594 20.433594 C 3.277344 20.9375 3.578125 21.117188 4.164062 21.117188 C 4.753906 21.117188 5.042969 20.9375 5.261719 20.433594 L 7.039062 16.5 L 7.039062 21.121094 L 8.320312 21.121094 L 8.320312 16.28125 C 8.320312 15.816406 8.136719 15.589844 7.753906 15.476562 C 6.84375 15.1875 6.230469 15.433594 5.953125 16.058594 L 4.128906 20.164062 L 2.363281 16.058594 C 2.164062 15.589844 1.765625 15.335938 1.195312 15.359375 Z M 16.796875 15.359375 C 16.292969 15.359375 14.71875 15.421875 14.71875 16.640625 L 14.71875 17.429688 C 14.71875 17.988281 15.210938 18.449219 16.28125 18.558594 C 16.398438 18.566406 16.519531 18.578125 16.640625 18.578125 C 16.640625 18.578125 17.886719 18.550781 17.921875 18.558594 C 18.640625 18.558594 18.558594 19.121094 18.558594 19.199219 L 18.558594 19.839844 C 18.558594 19.925781 18.539062 20.480469 17.914062 20.480469 L 14.71875 20.480469 L 14.71875 21.121094 L 17.925781 21.121094 C 18.34375 21.121094 18.753906 21.03125 19.078125 20.878906 C 19.617188 20.632812 19.839844 20.296875 19.839844 19.859375 L 19.839844 18.941406 C 19.839844 17.960938 18.621094 17.921875 17.921875 17.921875 L 16.640625 17.921875 C 16.136719 17.921875 16.058594 17.613281 16 17.28125 L 16 16.640625 C 16.058594 16.386719 16.171875 16.039062 16.617188 16 L 19.839844 16 L 19.839844 15.359375 Z M 21.746094 15.359375 C 20.800781 15.488281 20.46875 15.960938 20.46875 16.640625 L 20.46875 19.839844 C 20.46875 20.460938 20.816406 20.835938 21.53125 21.03125 C 21.773438 21.101562 21.988281 21.128906 22.195312 21.128906 L 23.621094 21.121094 L 24.457031 21.121094 L 25.171875 21.761719 L 26.609375 21.761719 L 25.621094 20.867188 C 26.085938 20.675781 26.230469 20.378906 26.230469 19.828125 L 26.230469 16.640625 C 26.230469 15.960938 25.789062 15.488281 24.84375 15.359375 Z M 26.878906 15.359375 L 26.878906 19.8125 C 26.878906 20.585938 27.316406 21.019531 28.476562 21.109375 C 28.582031 21.113281 28.691406 21.121094 28.800781 21.121094 L 32 21.121094 L 32 20.480469 L 29.042969 20.480469 C 28.382812 20.480469 28.160156 20.203125 28.160156 19.808594 L 28.160156 15.359375 Z M 22.511719 16 L 24.15625 16 C 24.59375 16 24.886719 16.351562 24.949219 16.640625 C 24.949219 16.640625 24.960938 19.621094 24.960938 19.839844 C 24.960938 20.058594 24.835938 20.160156 24.835938 20.160156 L 24.488281 19.839844 L 23.039062 19.839844 L 23.753906 20.480469 L 22.511719 20.480469 C 22.066406 20.480469 21.816406 20.148438 21.75 19.839844 L 21.75 16.703125 C 21.75 16.363281 22.011719 16 22.511719 16 Z M 8.960938 17.28125 C 8.984375 17.304688 8.960938 20.007812 8.960938 20.058594 C 8.96875 20.621094 9.679688 21.109375 10.792969 21.121094 L 12.800781 21.121094 L 12.800781 21.164062 C 12.800781 21.28125 12.886719 21.683594 12.160156 21.761719 C 12.152344 21.761719 8.96875 21.761719 8.960938 21.761719 L 8.960938 22.398438 L 12.296875 22.398438 C 12.863281 22.382812 14.085938 22.253906 14.078125 21.273438 C 14.078125 21.257812 14.085938 17.28125 14.078125 17.28125 L 12.800781 17.28125 L 12.800781 20.480469 C 12.78125 20.480469 11.214844 20.484375 10.898438 20.480469 C 10.28125 20.46875 10.230469 20.117188 10.238281 19.984375 L 10.238281 17.28125 Z M 8.960938 17.28125 "/>
</g>
</svg>
