<?xml version="1.0" encoding="utf-8"?>
<svg xmlns="http://www.w3.org/2000/svg" viewBox="0 0 26 26" fill="#000000"><path d="M 23 0 C 22.398438 0 22 0.398438 22 1 L 19.21875 1 C 19.117188 0.972656 19.011719 0.960938 18.90625 0.96875 C 18.875 0.976563 18.84375 0.988281 18.8125 1 C 18.714844 1.007813 18.621094 1.027344 18.53125 1.0625 C 18.519531 1.074219 18.511719 1.082031 18.5 1.09375 C 18.46875 1.113281 18.4375 1.132813 18.40625 1.15625 C 17.980469 1.414063 17.804688 1.945313 18 2.40625 L 18 5 L 14 5 L 14 4 C 14 3.398438 13.601563 3 13 3 L 11 3 C 10.398438 3 10 3.398438 10 4 L 10 5 L 7.21875 5 C 7.117188 4.972656 7.011719 4.960938 6.90625 4.96875 C 6.875 4.976563 6.84375 4.988281 6.8125 5 C 6.714844 5.007813 6.621094 5.027344 6.53125 5.0625 C 6.519531 5.074219 6.511719 5.082031 6.5 5.09375 C 6.003906 5.324219 5.78125 5.90625 6 6.40625 L 6 12 L 4 12 L 4 11 C 4 10.398438 3.601563 10 3 10 L 1 10 C 0.398438 10 0 10.398438 0 11 L 0 12.6875 C -0.0585938 12.882813 -0.0585938 13.085938 0 13.28125 L 0 15 C 0 15.601563 0.398438 16 1 16 L 3 16 C 3.601563 16 4 15.601563 4 15 L 4 14 L 6 14 L 6 19.6875 C 5.914063 19.972656 5.960938 20.28125 6.125 20.53125 C 6.136719 20.542969 6.144531 20.550781 6.15625 20.5625 C 6.164063 20.582031 6.175781 20.605469 6.1875 20.625 C 6.199219 20.636719 6.207031 20.644531 6.21875 20.65625 C 6.230469 20.667969 6.238281 20.675781 6.25 20.6875 C 6.261719 20.699219 6.269531 20.707031 6.28125 20.71875 C 6.320313 20.765625 6.359375 20.804688 6.40625 20.84375 C 6.417969 20.84375 6.425781 20.84375 6.4375 20.84375 C 6.449219 20.855469 6.457031 20.863281 6.46875 20.875 C 6.488281 20.886719 6.511719 20.898438 6.53125 20.90625 C 6.542969 20.917969 6.550781 20.925781 6.5625 20.9375 C 6.582031 20.9375 6.605469 20.9375 6.625 20.9375 C 6.636719 20.949219 6.644531 20.957031 6.65625 20.96875 C 6.675781 20.96875 6.699219 20.96875 6.71875 20.96875 C 6.730469 20.96875 6.738281 20.96875 6.75 20.96875 C 6.769531 20.980469 6.792969 20.992188 6.8125 21 C 6.824219 21 6.832031 21 6.84375 21 C 6.863281 21 6.886719 21 6.90625 21 C 6.925781 21 6.949219 21 6.96875 21 C 7.019531 21.003906 7.074219 21.003906 7.125 21 L 10 21 L 10 22 C 10 22.601563 10.398438 23 11 23 L 13 23 C 13.601563 23 14 22.601563 14 22 L 14 21 L 18 21 L 18 23.53125 C 17.878906 23.78125 17.863281 24.074219 17.964844 24.335938 C 18.066406 24.597656 18.269531 24.804688 18.53125 24.90625 C 18.542969 24.917969 18.550781 24.925781 18.5625 24.9375 C 18.582031 24.9375 18.605469 24.9375 18.625 24.9375 C 18.636719 24.949219 18.644531 24.957031 18.65625 24.96875 C 18.675781 24.96875 18.699219 24.96875 18.71875 24.96875 C 18.730469 24.980469 18.738281 24.988281 18.75 25 C 18.769531 25 18.792969 25 18.8125 25 C 18.824219 25 18.832031 25 18.84375 25 C 18.863281 25 18.886719 25 18.90625 25 C 18.925781 25 18.949219 25 18.96875 25 C 18.980469 25 18.988281 25 19 25 L 22 25 C 22 25.601563 22.398438 26 23 26 L 25 26 C 25.601563 26 26 25.601563 26 25 L 26 24.1875 C 26.027344 24.054688 26.027344 23.914063 26 23.78125 L 26 22 C 26 21.398438 25.601563 21 25 21 L 23 21 C 22.398438 21 22 21.398438 22 22 L 22 23 L 20 23 L 20 20.1875 C 20.027344 20.054688 20.027344 19.914063 20 19.78125 L 20 17 L 22 17 L 22 18 C 22 18.601563 22.398438 19 23 19 L 25 19 C 25.601563 19 26 18.601563 26 18 L 26 16.1875 C 26.027344 16.054688 26.027344 15.914063 26 15.78125 L 26 15 C 26 14.398438 25.601563 14 25 14 L 23 14 C 22.398438 14 22 14.398438 22 15 L 19.21875 15 C 19.117188 14.972656 19.011719 14.960938 18.90625 14.96875 C 18.875 14.976563 18.84375 14.988281 18.8125 15 C 18.714844 15.007813 18.621094 15.027344 18.53125 15.0625 C 18.519531 15.074219 18.511719 15.082031 18.5 15.09375 C 18.46875 15.113281 18.4375 15.132813 18.40625 15.15625 C 17.980469 15.414063 17.804688 15.945313 18 16.40625 L 18 19 L 14 19 L 14 18 C 14 17.398438 13.601563 17 13 17 L 11 17 C 10.398438 17 10 17.398438 10 18 L 10 19 L 8 19 L 8 13.1875 C 8.027344 13.054688 8.027344 12.914063 8 12.78125 L 8 7 L 10 7 L 10 8 C 10 8.601563 10.398438 9 11 9 L 13 9 C 13.601563 9 14 8.601563 14 8 L 14 7 L 18 7 L 18 9.53125 C 17.878906 9.78125 17.863281 10.074219 17.964844 10.335938 C 18.066406 10.597656 18.269531 10.804688 18.53125 10.90625 C 18.542969 10.917969 18.550781 10.925781 18.5625 10.9375 C 18.582031 10.9375 18.605469 10.9375 18.625 10.9375 C 18.636719 10.949219 18.644531 10.957031 18.65625 10.96875 C 18.675781 10.96875 18.699219 10.96875 18.71875 10.96875 C 18.730469 10.980469 18.738281 10.988281 18.75 11 C 18.769531 11 18.792969 11 18.8125 11 C 18.824219 11 18.832031 11 18.84375 11 C 18.863281 11 18.886719 11 18.90625 11 C 18.925781 11 18.949219 11 18.96875 11 C 18.980469 11 18.988281 11 19 11 L 22 11 C 22 11.601563 22.398438 12 23 12 L 25 12 C 25.601563 12 26 11.601563 26 11 L 26 10.1875 C 26.027344 10.054688 26.027344 9.914063 26 9.78125 L 26 8 C 26 7.398438 25.601563 7 25 7 L 23 7 C 22.398438 7 22 7.398438 22 8 L 22 9 L 20 9 L 20 6.1875 C 20.027344 6.054688 20.027344 5.914063 20 5.78125 L 20 3 L 22 3 L 22 4 C 22 4.601563 22.398438 5 23 5 L 25 5 C 25.601563 5 26 4.601563 26 4 L 26 2.1875 C 26.027344 2.054688 26.027344 1.914063 26 1.78125 L 26 1 C 26 0.398438 25.601563 0 25 0 Z" fill="#000000"/></svg>
