<svg role="img" viewBox="0 0 32 32" xmlns="http://www.w3.org/2000/svg"><path d="M28.309 0c-.743 0-1.23.492-1.23 1.23h-3.427a1.152 1.152 0 0 0-.382-.039 1.26 1.26 0 0 0-.118.04 1.292 1.292 0 0 0-.343.078c-.016.011-.024.023-.04.039a1.89 1.89 0 0 0-.117.074 1.24 1.24 0 0 0-.5 1.539v3.191H17.23v-1.23c0-.738-.488-1.23-1.23-1.23h-2.46c-.743 0-1.231.492-1.231 1.23v1.23H8.883a1.15 1.15 0 0 0-.383-.035c-.04.008-.078.024-.117.035a1.292 1.292 0 0 0-.344.078L8 6.27c-.61.285-.883 1-.617 1.613v6.887H4.922v-1.23c0-.743-.488-1.231-1.23-1.231H1.23c-.738 0-1.23.488-1.23 1.23v2.078c-.07.238-.07.488 0 .73v2.114c0 .742.492 1.23 1.23 1.23h2.461c.743 0 1.23-.488 1.23-1.23v-1.23h2.462v7a1.24 1.24 0 0 0 .156 1.039l.04.039a.34.34 0 0 0 .038.074c.012.015.024.027.035.039.016.015.028.023.04.039l.038.039c.047.059.098.105.153.152h.039c.016.016.023.028.039.04a.365.365 0 0 0 .078.038l.04.04h.073c.016.015.028.023.04.039h.116l.074.039h.195c.063.004.129.004.192 0h3.539v1.23c0 .738.488 1.23 1.23 1.23H16c.742 0 1.23-.492 1.23-1.23v-1.23h4.922v3.113a1.252 1.252 0 0 0-.043.992c.125.32.375.574.7.7a.185.185 0 0 0 .039.038h.074l.039.04h.078l.04.039h3.998c0 .738.488 1.23 1.23 1.23h2.462c.738 0 1.23-.492 1.23-1.23v-1a1.198 1.198 0 0 0 0-.5v-2.192c0-.742-.492-1.23-1.23-1.23h-2.461c-.743 0-1.23.488-1.23 1.23v1.23h-2.462v-3.46c.031-.164.031-.34 0-.5v-3.426h2.461v1.23c0 .743.488 1.23 1.23 1.23h2.462c.738 0 1.23-.487 1.23-1.23v-2.23a1.198 1.198 0 0 0 0-.5v-.961c0-.738-.492-1.23-1.23-1.23h-2.461c-.743 0-1.23.492-1.23 1.23h-3.427a1.265 1.265 0 0 0-.382-.04c-.04.013-.079.024-.118.04a1.292 1.292 0 0 0-.343.078l-.04.04c-.039.023-.078.046-.117.073a1.24 1.24 0 0 0-.5 1.54v3.19H17.23v-1.23c0-.738-.488-1.23-1.23-1.23h-2.46c-.743 0-1.231.492-1.231 1.23v1.23H9.848V16.23a1.345 1.345 0 0 0 0-.5V8.617h2.46v1.23c0 .739.489 1.231 1.231 1.231H16c.742 0 1.23-.492 1.23-1.23v-1.23h4.922v3.112a1.252 1.252 0 0 0-.043.993c.125.32.375.574.7.699.011.015.023.023.039.039h.074l.039.039h.078l.04.04h3.998c0 .737.488 1.23 1.23 1.23h2.462c.738 0 1.23-.493 1.23-1.23v-1a1.198 1.198 0 0 0 0-.5V9.847c0-.743-.492-1.23-1.23-1.23h-2.461c-.743 0-1.23.487-1.23 1.23v1.23h-2.462v-3.46c.031-.165.031-.34 0-.5V3.69h2.461v1.23c0 .743.488 1.231 1.23 1.231h2.462c.738 0 1.23-.488 1.23-1.23v-2.23a1.198 1.198 0 0 0 0-.5V1.23C32 .492 31.508 0 30.77 0Zm0 0" style="stroke:none;fill-rule:nonzero;fill:rgb(0%,0%,0%);fill-opacity:1"/></svg>