<?xml version="1.0" encoding="UTF-8"?>
<svg xmlns="http://www.w3.org/2000/svg" xmlns:xlink="http://www.w3.org/1999/xlink" width="32" height="32" viewBox="0 0 32 32" version="1.1">
<g id="surface1">
<path style=" stroke:none;fill-rule:nonzero;fill:rgb(0%,0%,0%);fill-opacity:1;" d="M 1.28125 3.839844 L 1.28125 5.121094 L 3.839844 5.121094 C 4.203125 5.121094 4.480469 5.398438 4.480469 5.761719 L 4.480469 27.519531 L 5.761719 27.519531 L 5.761719 24.320312 L 8.320312 24.320312 L 8.320312 22.398438 C 8.320312 22.046875 8.609375 21.761719 8.960938 21.761719 L 15.359375 21.761719 C 15.710938 21.761719 16 22.046875 16 22.398438 L 16 24.320312 L 30.078125 24.320312 L 30.078125 9.601562 L 5.761719 9.601562 L 5.761719 5.761719 C 5.761719 4.707031 4.894531 3.839844 3.839844 3.839844 Z M 19.839844 11.519531 L 21.121094 11.519531 L 21.121094 13.441406 L 19.839844 13.441406 L 19.839844 14.71875 L 17.921875 14.71875 L 17.921875 13.441406 L 19.839844 13.441406 Z M 22.398438 11.519531 L 23.679688 11.519531 L 23.679688 13.441406 L 22.398438 13.441406 Z M 24.960938 11.519531 L 26.238281 11.519531 L 26.238281 13.441406 L 28.160156 13.441406 L 28.160156 14.71875 L 26.238281 14.71875 L 26.238281 13.441406 L 24.960938 13.441406 Z M 13.441406 12.800781 C 14.148438 12.800781 14.71875 13.375 14.71875 14.078125 C 14.71875 14.785156 14.148438 15.359375 13.441406 15.359375 C 12.734375 15.359375 12.160156 14.785156 12.160156 14.078125 C 12.160156 13.375 12.734375 12.800781 13.441406 12.800781 M 5.761719 13.441406 L 8.320312 13.441406 L 8.320312 18.558594 L 5.761719 18.558594 Z M 17.921875 16 L 19.839844 16 L 19.839844 17.28125 L 17.921875 17.28125 Z M 26.238281 16 L 28.160156 16 L 28.160156 17.28125 L 26.238281 17.28125 Z M 17.921875 18.558594 L 19.839844 18.558594 L 19.839844 19.839844 L 21.121094 19.839844 L 21.121094 21.761719 L 19.839844 21.761719 L 19.839844 19.839844 L 17.921875 19.839844 Z M 26.238281 18.558594 L 28.160156 18.558594 L 28.160156 19.839844 L 26.238281 19.839844 L 26.238281 21.761719 L 24.960938 21.761719 L 24.960938 19.839844 L 26.238281 19.839844 Z M 22.398438 19.839844 L 23.679688 19.839844 L 23.679688 21.761719 L 22.398438 21.761719 Z M 22.398438 19.839844 "/>
</g>
</svg>
