<svg xmlns="http://www.w3.org/2000/svg"  viewBox="0 0 50 50" width="32px" height="32px"><path d="M 2 6 L 2 8 L 6 8 C 6.566406 8 7 8.433594 7 9 L 7 43 L 9 43 L 9 38 L 13 38 L 13 35 C 13 34.449219 13.449219 34 14 34 L 24 34 C 24.550781 34 25 34.449219 25 35 L 25 38 L 47 38 L 47 15 L 9 15 L 9 9 C 9 7.355469 7.644531 6 6 6 Z M 31 18 L 33 18 L 33 21 L 31 21 L 31 23 L 28 23 L 28 21 L 31 21 Z M 35 18 L 37 18 L 37 21 L 35 21 Z M 39 18 L 41 18 L 41 21 L 44 21 L 44 23 L 41 23 L 41 21 L 39 21 Z M 21 20 C 22.105469 20 23 20.894531 23 22 C 23 23.105469 22.105469 24 21 24 C 19.894531 24 19 23.105469 19 22 C 19 20.894531 19.894531 20 21 20 Z M 9 21 L 13 21 L 13 29 L 9 29 Z M 28 25 L 31 25 L 31 27 L 28 27 Z M 41 25 L 44 25 L 44 27 L 41 27 Z M 28 29 L 31 29 L 31 31 L 33 31 L 33 34 L 31 34 L 31 31 L 28 31 Z M 41 29 L 44 29 L 44 31 L 41 31 L 41 34 L 39 34 L 39 31 L 41 31 Z M 35 31 L 37 31 L 37 34 L 35 34 Z"/></svg>