<?xml version="1.0" encoding="UTF-8"?>
<svg xmlns="http://www.w3.org/2000/svg" xmlns:xlink="http://www.w3.org/1999/xlink" width="32" height="32" viewBox="0 0 32 32" version="1.1">
<g id="surface1">
<path style=" stroke:none;fill-rule:nonzero;fill:rgb(0%,0%,0%);fill-opacity:1;" d="M 28.308594 0 C 27.566406 0 27.078125 0.492188 27.078125 1.230469 L 23.652344 1.230469 C 23.527344 1.195312 23.398438 1.183594 23.269531 1.191406 C 23.230469 1.203125 23.191406 1.214844 23.152344 1.230469 C 23.035156 1.242188 22.917969 1.265625 22.808594 1.308594 C 22.792969 1.320312 22.785156 1.332031 22.769531 1.347656 C 22.730469 1.371094 22.691406 1.394531 22.652344 1.421875 C 22.128906 1.742188 21.914062 2.394531 22.152344 2.960938 L 22.152344 6.152344 L 17.230469 6.152344 L 17.230469 4.921875 C 17.230469 4.183594 16.742188 3.691406 16 3.691406 L 13.539062 3.691406 C 12.796875 3.691406 12.308594 4.183594 12.308594 4.921875 L 12.308594 6.152344 L 8.882812 6.152344 C 8.757812 6.117188 8.628906 6.105469 8.5 6.117188 C 8.460938 6.125 8.421875 6.140625 8.382812 6.152344 C 8.265625 6.164062 8.148438 6.1875 8.039062 6.230469 L 8 6.269531 C 7.390625 6.554688 7.117188 7.269531 7.382812 7.882812 L 7.382812 14.769531 L 4.921875 14.769531 L 4.921875 13.539062 C 4.921875 12.796875 4.433594 12.308594 3.691406 12.308594 L 1.230469 12.308594 C 0.492188 12.308594 0 12.796875 0 13.539062 L 0 15.617188 C -0.0703125 15.855469 -0.0703125 16.105469 0 16.347656 L 0 18.460938 C 0 19.203125 0.492188 19.691406 1.230469 19.691406 L 3.691406 19.691406 C 4.433594 19.691406 4.921875 19.203125 4.921875 18.460938 L 4.921875 17.230469 L 7.382812 17.230469 L 7.382812 24.230469 C 7.277344 24.582031 7.335938 24.964844 7.539062 25.269531 L 7.578125 25.308594 C 7.589844 25.335938 7.601562 25.359375 7.617188 25.382812 C 7.628906 25.398438 7.640625 25.410156 7.652344 25.421875 C 7.667969 25.4375 7.679688 25.445312 7.691406 25.460938 L 7.730469 25.5 C 7.777344 25.558594 7.828125 25.605469 7.882812 25.652344 L 7.921875 25.652344 C 7.9375 25.667969 7.945312 25.679688 7.960938 25.691406 C 7.984375 25.707031 8.011719 25.71875 8.039062 25.730469 L 8.078125 25.769531 L 8.152344 25.769531 C 8.167969 25.785156 8.179688 25.792969 8.191406 25.808594 L 8.308594 25.808594 L 8.382812 25.847656 L 8.578125 25.847656 C 8.640625 25.851562 8.707031 25.851562 8.769531 25.847656 L 12.308594 25.847656 L 12.308594 27.078125 C 12.308594 27.816406 12.796875 28.308594 13.539062 28.308594 L 16 28.308594 C 16.742188 28.308594 17.230469 27.816406 17.230469 27.078125 L 17.230469 25.847656 L 22.152344 25.847656 L 22.152344 28.960938 C 22 29.273438 21.984375 29.628906 22.109375 29.953125 C 22.234375 30.273438 22.484375 30.527344 22.808594 30.652344 C 22.820312 30.667969 22.832031 30.679688 22.847656 30.691406 L 22.921875 30.691406 L 22.960938 30.730469 L 23.039062 30.730469 L 23.078125 30.769531 L 27.078125 30.769531 C 27.078125 31.507812 27.566406 32 28.308594 32 L 30.769531 32 C 31.507812 32 32 31.507812 32 30.769531 L 32 29.769531 C 32.035156 29.605469 32.035156 29.433594 32 29.269531 L 32 27.078125 C 32 26.335938 31.507812 25.847656 30.769531 25.847656 L 28.308594 25.847656 C 27.566406 25.847656 27.078125 26.335938 27.078125 27.078125 L 27.078125 28.308594 L 24.617188 28.308594 L 24.617188 24.847656 C 24.648438 24.683594 24.648438 24.507812 24.617188 24.347656 L 24.617188 20.921875 L 27.078125 20.921875 L 27.078125 22.152344 C 27.078125 22.894531 27.566406 23.382812 28.308594 23.382812 L 30.769531 23.382812 C 31.507812 23.382812 32 22.894531 32 22.152344 L 32 19.921875 C 32.035156 19.757812 32.035156 19.585938 32 19.421875 L 32 18.460938 C 32 17.722656 31.507812 17.230469 30.769531 17.230469 L 28.308594 17.230469 C 27.566406 17.230469 27.078125 17.722656 27.078125 18.460938 L 23.652344 18.460938 C 23.527344 18.429688 23.398438 18.414062 23.269531 18.421875 C 23.230469 18.433594 23.191406 18.445312 23.152344 18.460938 C 23.035156 18.472656 22.917969 18.496094 22.808594 18.539062 L 22.769531 18.578125 C 22.730469 18.601562 22.691406 18.625 22.652344 18.652344 C 22.125 18.96875 21.914062 19.625 22.152344 20.191406 L 22.152344 23.382812 L 17.230469 23.382812 L 17.230469 22.152344 C 17.230469 21.414062 16.742188 20.921875 16 20.921875 L 13.539062 20.921875 C 12.796875 20.921875 12.308594 21.414062 12.308594 22.152344 L 12.308594 23.382812 L 9.847656 23.382812 L 9.847656 16.230469 C 9.878906 16.066406 9.878906 15.894531 9.847656 15.730469 L 9.847656 8.617188 L 12.308594 8.617188 L 12.308594 9.847656 C 12.308594 10.585938 12.796875 11.078125 13.539062 11.078125 L 16 11.078125 C 16.742188 11.078125 17.230469 10.585938 17.230469 9.847656 L 17.230469 8.617188 L 22.152344 8.617188 L 22.152344 11.730469 C 22 12.039062 21.984375 12.398438 22.109375 12.722656 C 22.234375 13.042969 22.484375 13.296875 22.808594 13.421875 C 22.820312 13.4375 22.832031 13.445312 22.847656 13.460938 L 22.921875 13.460938 L 22.960938 13.5 L 23.039062 13.5 L 23.078125 13.539062 L 27.078125 13.539062 C 27.078125 14.277344 27.566406 14.769531 28.308594 14.769531 L 30.769531 14.769531 C 31.507812 14.769531 32 14.277344 32 13.539062 L 32 12.539062 C 32.035156 12.375 32.035156 12.203125 32 12.039062 L 32 9.847656 C 32 9.105469 31.507812 8.617188 30.769531 8.617188 L 28.308594 8.617188 C 27.566406 8.617188 27.078125 9.105469 27.078125 9.847656 L 27.078125 11.078125 L 24.617188 11.078125 L 24.617188 7.617188 C 24.648438 7.453125 24.648438 7.277344 24.617188 7.117188 L 24.617188 3.691406 L 27.078125 3.691406 L 27.078125 4.921875 C 27.078125 5.664062 27.566406 6.152344 28.308594 6.152344 L 30.769531 6.152344 C 31.507812 6.152344 32 5.664062 32 4.921875 L 32 2.691406 C 32.035156 2.527344 32.035156 2.355469 32 2.191406 L 32 1.230469 C 32 0.492188 31.507812 0 30.769531 0 Z M 28.308594 0 "/>
</g>
</svg>
