<?xml version="1.0" encoding="UTF-8"?>
<svg xmlns="http://www.w3.org/2000/svg" xmlns:xlink="http://www.w3.org/1999/xlink" width="40.615385" height="32" viewBox="0 0 40.615385 32" version="1.1">
<g id="surface1">
<path style=" stroke:none;fill-rule:nonzero;fill:rgb(0%,54.901963%,60.000002%);fill-opacity:1;" d="M 39.09375 11.730469 C 37.246094 3.238281 27.0625 -1.757812 16.347656 0.570312 C 5.628906 2.898438 -1.558594 11.675781 0.289062 20.164062 C 2.136719 28.652344 12.320312 33.652344 23.035156 31.320312 C 33.75 28.992188 40.941406 20.226562 39.097656 11.726562 Z M 19.691406 23.773438 C 15.371094 23.773438 11.867188 20.269531 11.867188 15.945312 C 11.867188 11.625 15.371094 8.121094 19.691406 8.121094 C 24.015625 8.121094 27.519531 11.625 27.519531 15.945312 C 27.519531 20.269531 24.015625 23.773438 19.691406 23.773438 Z M 19.691406 23.773438 "/>
<path style=" stroke:none;fill-rule:nonzero;fill:rgb(43.921569%,80.000001%,82.745099%);fill-opacity:1;" d="M 21.421875 4.988281 C 15.214844 4.988281 10.1875 10.023438 10.1875 16.230469 C 10.1875 22.4375 15.21875 27.464844 21.425781 27.464844 C 27.632812 27.464844 32.664062 22.433594 32.664062 16.226562 C 32.664062 13.246094 31.480469 10.386719 29.371094 8.28125 C 27.261719 6.175781 24.402344 4.992188 21.421875 4.988281 Z M 19.691406 22.777344 C 15.914062 22.777344 12.855469 19.71875 12.855469 15.941406 C 12.855469 12.164062 15.914062 9.105469 19.691406 9.105469 C 23.464844 9.105469 26.527344 12.164062 26.527344 15.941406 C 26.527344 19.71875 23.46875 22.777344 19.691406 22.773438 Z M 19.691406 22.777344 "/>
</g>
</svg>
