<svg xmlns="http://www.w3.org/2000/svg" width="33" height="26" stroke="none" stroke-linecap="round" stroke-linejoin="round" fill="#fff" fill-rule="nonzero"><path d="M31.7645 9.5295C30.263 2.6296 21.9896-1.4273 13.2817.4646S-1.265 9.487.2349 16.3839s9.7749 10.9589 18.4808 9.0649S33.2644 16.4354 31.7655 9.529zm-15.7638 9.7874c-3.5125 0-6.3599-2.8475-6.3599-6.3599s2.8474-6.36 6.3599-6.36 6.3599 2.8475 6.3599 6.36-2.8474 6.3599-6.3599 6.3599z" fill="#008c99"/><path d="M17.4062 4.0531c-5.043.001-9.1299 4.0899-9.1299 9.1329s4.0889 9.1299 9.1319 9.1299 9.1313-4.089 9.1313-9.1314a9.125 9.125 0 0 0-2.6749-6.4574 9.15 9.15 0 0 0-6.4579-2.674zm-1.4075 14.4538c-3.0679 0-5.5549-2.487-5.5549-5.5549s2.487-5.5549 5.5549-5.5549 5.5549 2.487 5.5549 5.5549-2.486 5.5539-5.5529 5.5499z" fill="#70ccd3"/></svg>