<svg role="img" viewBox="0 0 40.615 32" xmlns="http://www.w3.org/2000/svg"><path d="M39.094 11.73C37.246 3.238 27.062-1.758 16.348.57 5.628 2.898-1.56 11.676.289 20.164 2.137 28.652 12.32 33.652 23.035 31.32c10.715-2.328 17.906-11.093 16.063-19.593ZM19.69 23.773a7.826 7.826 0 1 1 .004-15.652 7.826 7.826 0 0 1-.004 15.652m0 0" style="stroke:none;fill-rule:nonzero;fill:rgb(0%,54.901963%,60.000002%);fill-opacity:1"/><path d="M21.422 4.988c-6.207 0-11.234 5.035-11.234 11.242 0 6.208 5.03 11.235 11.238 11.235 6.207 0 11.238-5.031 11.238-11.238 0-2.98-1.184-5.84-3.293-7.946a11.274 11.274 0 0 0-7.95-3.293m-1.73 17.79a6.833 6.833 0 0 1-6.837-6.837 6.836 6.836 0 1 1 13.672 0 6.828 6.828 0 0 1-6.836 6.832Zm0 0" style="stroke:none;fill-rule:nonzero;fill:rgb(43.921569%,80.000001%,82.745099%);fill-opacity:1"/></svg>