<svg xmlns="http://www.w3.org/2000/svg" width="33" height="37" stroke="none" stroke-linecap="round" stroke-linejoin="round" fill="#fff" fill-rule="nonzero"><path d="M.0012 18.3864V9.623c-.0175-.3155.1569-.6105.4418-.747L15.5589.1459c.2719-.1698.5772-.2043.8491-.0344l15.1836 8.7633c.2654.1527.4227.4412.4074.747v17.4935c.0153.3058-.142.5943-.4074.747l-13.0435 7.539-2.0724 1.1888c-.3052.1699-.6116.1699-.918 0L.4086 27.86c-.272-.1698-.4074-.374-.4074-.7137v-8.7634z" fill="#009438"/><path d="M10.7004 15.1241v10.2126c0 1.1544-.918 2.1734-2.1401 2.1401-.7459-.0344-1.3242-.3396-1.7212-.9845-.2043-.3053-.272-.6449-.272-1.019V11.2869c0-.9524.5772-1.6294 1.3242-1.9358s1.494-.2376 2.2422 0c.7137.2042 1.2565.6449 1.7212 1.1888l9.0354 10.8357c.0344.0344.0688.1148.1354.1698V11.218c0-1.0866.7458-1.9358 1.8015-2.0379 1.3242-.1698 2.2078.7803 2.3432 1.7671v14.4584c0 .8032-.3741 1.393-1.0534 1.7671-.5095.272-1.0534.3397-1.6294.3053a3.707 3.707 0 0 1-2.2422-.9513c-.3397-.3052-.5772-.6793-.8836-1.019l-8.6062-10.293c0-.0344-.0344-.0688-.0688-.1147z" fill="#fefefe"/></svg>