<svg role="img" viewBox="0 0 28.541 32" xmlns="http://www.w3.org/2000/svg"><path d="M0 15.902V8.324a.677.677 0 0 1 .383-.648L13.457.125c.234-.145.5-.176.734-.027l13.133 7.578a.714.714 0 0 1 .352.644v15.13a.716.716 0 0 1-.352.648l-11.281 6.52-1.793 1.027a.762.762 0 0 1-.793 0L.352 24.094c-.235-.145-.352-.32-.352-.617v-7.579Zm0 0" style="stroke:none;fill-rule:nonzero;fill:rgb(0%,58.039218%,21.960784%);fill-opacity:1"/><path d="M9.254 13.082v8.832c0 .996-.793 1.879-1.852 1.852-.644-.032-1.144-.297-1.488-.852-.176-.266-.234-.559-.234-.883V9.761c0-.823.5-1.41 1.144-1.675.649-.262 1.293-.203 1.942 0 .617.18 1.086.559 1.488 1.031l7.812 9.371c.032.028.059.098.118.145v-8.93c0-.941.644-1.676 1.558-1.762 1.145-.148 1.91.672 2.028 1.528v12.504c0 .695-.325 1.203-.91 1.527-.442.234-.915.293-1.41.266a3.228 3.228 0 0 1-1.942-.825c-.293-.261-.496-.586-.762-.878L9.301 13.16c0-.031-.028-.062-.059-.101Zm0 0" style="stroke:none;fill-rule:nonzero;fill:rgb(99.607843%,99.607843%,99.607843%);fill-opacity:1"/></svg>