<?xml version="1.0" encoding="UTF-8"?>
<svg xmlns="http://www.w3.org/2000/svg" xmlns:xlink="http://www.w3.org/1999/xlink" width="28.444" height="32" viewBox="0 0 28.444 32" version="1.1">
<g id="surface1">
<path style=" stroke:none;fill-rule:nonzero;fill:rgb(54.901963%,78.431374%,29.411766%);fill-opacity:1;" d="M 12.933594 0.335938 C 13.71875 -0.109375 14.722656 -0.113281 15.488281 0.335938 L 27.226562 6.953125 C 27.960938 7.363281 28.453125 8.183594 28.445312 9.027344 L 28.445312 22.296875 C 28.449219 23.175781 27.910156 24.015625 27.136719 24.417969 L 15.460938 31.003906 C 14.648438 31.453125 13.652344 31.425781 12.867188 30.933594 L 9.363281 28.910156 C 9.125 28.765625 8.855469 28.652344 8.6875 28.421875 C 8.835938 28.222656 9.101562 28.195312 9.316406 28.109375 C 9.804688 27.953125 10.25 27.714844 10.699219 27.464844 C 10.8125 27.382812 10.953125 27.414062 11.058594 27.484375 L 14.046875 29.210938 C 14.261719 29.335938 14.476562 29.171875 14.660156 29.070312 L 26.125 22.601562 C 26.265625 22.53125 26.347656 22.382812 26.332031 22.226562 L 26.332031 9.085938 C 26.347656 8.910156 26.246094 8.75 26.085938 8.679688 L 14.449219 2.121094 C 14.3125 2.023438 14.128906 2.023438 13.992188 2.121094 L 2.355469 8.691406 C 2.195312 8.757812 2.09375 8.921875 2.109375 9.097656 L 2.109375 22.238281 C 2.09375 22.394531 2.179688 22.539062 2.320312 22.605469 L 5.425781 24.359375 C 6.011719 24.675781 6.726562 24.851562 7.371094 24.621094 C 7.945312 24.402344 8.328125 23.851562 8.324219 23.238281 L 8.328125 10.164062 C 8.3125 9.972656 8.496094 9.8125 8.683594 9.832031 L 10.179688 9.832031 C 10.375 9.828125 10.527344 10.035156 10.503906 10.230469 L 10.5 23.382812 C 10.5 24.550781 10.019531 25.820312 8.941406 26.394531 C 7.609375 27.082031 5.964844 26.9375 4.648438 26.273438 L 1.308594 24.425781 C 0.511719 24.019531 0.0078125 23.199219 0 22.304688 L 0 9.039062 C 0.0078125 8.160156 0.492188 7.355469 1.261719 6.933594 Z M 16.316406 9.53125 C 18.015625 9.433594 19.832031 9.464844 21.359375 10.300781 C 22.542969 10.941406 23.195312 12.289062 23.21875 13.601562 C 23.183594 13.78125 23 13.878906 22.832031 13.863281 C 22.339844 13.863281 21.847656 13.871094 21.351562 13.863281 C 21.144531 13.871094 21.023438 13.675781 20.996094 13.492188 C 20.855469 12.863281 20.511719 12.242188 19.921875 11.9375 C 19.011719 11.484375 17.957031 11.503906 16.96875 11.515625 C 16.246094 11.554688 15.46875 11.617188 14.855469 12.039062 C 14.382812 12.363281 14.242188 13.023438 14.410156 13.535156 C 14.566406 13.914062 15.003906 14.035156 15.355469 14.144531 C 17.402344 14.679688 19.570312 14.636719 21.578125 15.332031 C 22.410156 15.617188 23.222656 16.175781 23.507812 17.046875 C 23.878906 18.210938 23.714844 19.605469 22.886719 20.542969 C 22.214844 21.3125 21.234375 21.722656 20.257812 21.957031 C 18.957031 22.25 17.609375 22.253906 16.289062 22.125 C 15.046875 21.984375 13.757812 21.65625 12.800781 20.8125 C 11.980469 20.101562 11.582031 18.992188 11.621094 17.921875 C 11.628906 17.742188 11.808594 17.617188 11.984375 17.632812 L 13.457031 17.632812 C 13.65625 17.617188 13.800781 17.789062 13.8125 17.976562 C 13.902344 18.566406 14.128906 19.203125 14.652344 19.546875 C 15.660156 20.199219 16.921875 20.152344 18.078125 20.171875 C 19.035156 20.128906 20.105469 20.117188 20.886719 19.484375 C 21.300781 19.125 21.421875 18.519531 21.3125 18.003906 C 21.191406 17.5625 20.722656 17.359375 20.328125 17.214844 C 18.308594 16.578125 16.117188 16.808594 14.117188 16.085938 C 13.304688 15.800781 12.519531 15.257812 12.207031 14.421875 C 11.773438 13.242188 11.972656 11.78125 12.890625 10.878906 C 13.773438 9.976562 15.070312 9.632812 16.300781 9.507812 Z M 16.316406 9.53125 "/>
</g>
</svg>
