<svg role="img" viewBox="0 0 28.444 32" xmlns="http://www.w3.org/2000/svg"><path d="M12.934.336c.785-.445 1.789-.45 2.554 0l11.739 6.617c.734.41 1.226 1.23 1.218 2.074v13.27c.004.879-.535 1.719-1.308 2.121L15.46 31.004a2.56 2.56 0 0 1-2.594-.07L9.363 28.91c-.238-.144-.508-.258-.675-.488.148-.2.414-.227.628-.313.489-.156.934-.394 1.383-.644.114-.082.254-.05.36.02l2.988 1.726c.215.125.43-.04.613-.14l11.465-6.47a.382.382 0 0 0 .207-.374V9.086a.405.405 0 0 0-.246-.406L14.449 2.12a.393.393 0 0 0-.457 0L2.355 8.691a.405.405 0 0 0-.246.407v13.14a.365.365 0 0 0 .211.367l3.106 1.754c.586.317 1.3.493 1.945.262.574-.219.957-.77.953-1.383l.004-13.074c-.015-.191.168-.351.356-.332h1.496c.195-.004.347.203.324.398L10.5 23.383c0 1.168-.48 2.437-1.559 3.012-1.332.687-2.976.543-4.293-.122l-3.34-1.847A2.405 2.405 0 0 1 0 22.305V9.039a2.42 2.42 0 0 1 1.262-2.105Zm3.382 9.195c1.7-.097 3.516-.066 5.043.77 1.184.64 1.836 1.988 1.86 3.3-.035.18-.219.278-.387.262-.492 0-.984.008-1.48 0-.207.008-.329-.187-.356-.37-.14-.63-.484-1.25-1.074-1.556-.91-.453-1.965-.433-2.953-.421-.723.039-1.5.101-2.114.523-.472.324-.613.984-.445 1.496.156.38.594.5.945.61 2.047.535 4.215.492 6.223 1.187.832.285 1.645.844 1.93 1.715.37 1.164.207 2.558-.621 3.496-.672.77-1.653 1.18-2.63 1.414-1.3.293-2.648.297-3.968.168-1.242-.14-2.531-.469-3.488-1.312-.82-.711-1.219-1.82-1.18-2.891.008-.18.188-.305.363-.29h1.473c.2-.015.344.157.355.345.09.59.317 1.226.84 1.57 1.008.652 2.27.605 3.426.625.957-.043 2.027-.055 2.809-.688.414-.359.535-.964.425-1.48-.12-.442-.59-.645-.984-.79-2.02-.636-4.21-.405-6.21-1.128-.813-.285-1.598-.828-1.911-1.664-.434-1.18-.234-2.64.684-3.543.882-.902 2.18-1.246 3.41-1.371Zm0 0" style="stroke:none;fill-rule:nonzero;fill:rgb(54.901963%,78.431374%,29.411766%);fill-opacity:1"/></svg>