<svg xmlns="http://www.w3.org/2000/svg" width="32" height="36" stroke="#000" stroke-linecap="round" stroke-linejoin="round" fill="#fff" fill-rule="evenodd"><path d="M14.5494.3765c.8845-.5009 2.0122-.5031 2.8745 0L30.629 7.8203c.8259.4644 1.3787 1.3853 1.3709 2.3372v14.9253c.0055.9917-.6014 1.9326-1.4726 2.3881L17.393 34.8805c-.9149.5056-2.0321.4747-2.9176-.0807l-3.9414-2.2775c-.2687-.1603-.5705-.2875-.7607-.5473.1681-.2255.4666-.2543.7098-.3538.5484-.1746 1.0503-.4422 1.5545-.7252.1271-.0885.283-.0553.4046.0243l3.361 1.9436c.2399.1382.4831-.0442.6887-.1603l12.8966-7.278c.1592-.0774.2477-.2455.2344-.4201V10.2238c.0177-.199-.0962-.3803-.2764-.461l-13.09-7.3775a.453.453 0 0 0-.5141-.0011L2.649 9.7772c-.1769.0807-.2985.2598-.2764.4588v14.7816c-.0155.1747.0774.3394.2377.4146l3.4958 1.9735c.6567.3538 1.4627.5528 2.1858.2929.6479-.2442 1.076-.8652 1.0735-1.5577l.0033-14.7042c-.0155-.2178.1901-.398.4013-.3759h1.6805c.2211-.0056.3947.2288.3648.4477l-.0033 14.7971c.0011 1.3134-.5384 2.7419-1.7534 3.3864-1.497.7739-3.3477.6114-4.827-.1327l-3.759-2.0785c-.897-.4599-1.4643-1.38-1.4726-2.388V10.1675a2.72 2.72 0 0 1 1.4174-2.3671L14.5494.3765zm3.8077 10.346c1.9093-.1106 3.9535-.073 5.6716.8678 1.33.7209 2.0674 2.2333 2.0917 3.7126-.0375.199-.2454.3095-.4356.2952-.5527-.0011-1.1077.0077-1.6627-.0033-.2355.0088-.3715-.2079-.4014-.4157-.1592-.7076-.545-1.4074-1.2106-1.7491-1.0215-.5119-2.2067-.4864-3.3211-.4754-.8138.0443-1.6883.1139-2.377.5915-.5307.3626-.6899 1.1056-.5009 1.6827.1769.4234.6667.5594 1.0658.6855 2.3018.6014 4.7396.5528 6.9983 1.3344.9342.3228 1.8486.9508 2.1692 1.9292.4179 1.3113.2355 2.879-.6965 3.9315-.7563.8668-1.8574 1.3267-2.9575 1.5942-1.4626.3262-2.9795.3339-4.4643.188-1.3963-.1592-2.8491-.5263-3.927-1.4771-.9221-.8004-1.3709-2.0475-1.3267-3.2504.011-.2034.2134-.3449.409-.3283h1.6584c.2233-.0155.387.1769.398.3869.1028.6634.356 1.382.9442 1.7689 1.1343.7319 2.5572.6811 3.8552.7021 1.0757-.0476 2.283-.0619 3.1619-.7739.4644-.4058.6003-1.0835.4754-1.6672-.136-.4931-.6633-.722-1.1056-.8845-2.2719-.7186-4.7374-.4577-6.9872-1.2714-.9132-.3228-1.7966-.9331-2.1471-1.8718-.4897-1.3267-.2653-2.9707.7662-3.9878.995-1.0116 2.4544-1.4019 3.8364-1.5412z" stroke="none" fill="#8cc84b" fill-rule="nonzero"/></svg>