<svg role="img" viewBox="0 0 145.455 32" xmlns="http://www.w3.org/2000/svg"><path d="M56.313 16.102c0 1.824-.333 3.425-.997 4.8-.668 1.375-1.625 2.434-2.87 3.172-1.247.742-2.684 1.113-4.31 1.113-1.574 0-2.968-.359-4.19-1.082-1.227-.718-2.173-1.742-2.84-3.074-.669-1.324-1.004-2.828-1.004-4.511 0-1.81.34-3.403 1.015-4.782.676-1.379 1.649-2.437 2.918-3.175 1.266-.735 2.735-1.106 4.399-1.106 1.523 0 2.886.363 4.097 1.09 1.203.723 2.137 1.746 2.793 3.058.66 1.317.989 2.813.989 4.497m-2.106.261c0-2.23-.52-3.972-1.562-5.222-1.047-1.25-2.5-1.88-4.368-1.88-1.172 0-2.222.302-3.148.891-.93.594-1.649 1.438-2.16 2.532-.508 1.093-.766 2.312-.766 3.656 0 1.37.246 2.594.738 3.668.489 1.07 1.188 1.898 2.098 2.484.91.586 1.941.88 3.098.88 1.894 0 3.383-.622 4.457-1.864 1.078-1.246 1.613-2.961 1.613-5.145m10.727-7.879a2.625 2.625 0 0 0-1.305-.32c-1.371 0-2.059.863-2.059 2.594v1.89h2.871v1.66h-2.87v10.583h-1.962V14.309h-2.078v-1.66h2.078v-1.985c0-1.246.368-2.25 1.102-3.016.734-.765 1.668-1.148 2.797-1.148.597 0 1.07.074 1.426.219v1.77Zm6.754 0a2.61 2.61 0 0 0-1.301-.32c-1.371 0-2.059.863-2.059 2.594v1.89H71.2v1.66h-2.87v10.583h-1.962V14.309H64.29v-1.66h2.078v-1.985c0-1.246.367-2.25 1.102-3.016.734-.765 1.664-1.148 2.797-1.148.597 0 1.07.074 1.421.219Zm3.617-.226c0 .367-.13.672-.383.914a1.256 1.256 0 0 1-.906.363c-.36 0-.664-.113-.91-.351-.247-.235-.372-.543-.372-.926 0-.344.121-.64.364-.89.246-.25.55-.376.914-.376.367 0 .675.121.922.371.246.246.37.543.37.895m-.335 16.629h-1.961V12.645h1.96Zm11.191-.559c-.95.574-2.07.86-3.36.86-1.116 0-2.116-.258-3.007-.77a5.353 5.353 0 0 1-2.074-2.184c-.492-.941-.739-1.996-.739-3.168 0-2.023.579-3.648 1.739-4.878 1.16-1.227 2.703-1.84 4.633-1.84 1.066 0 2.011.207 2.832.62v2.009c-.914-.637-1.887-.957-2.918-.957-1.266 0-2.297.453-3.09 1.359-.793.902-1.188 2.07-1.188 3.508 0 1.43.375 2.554 1.13 3.383.753.828 1.76 1.242 3.03 1.242 1.067 0 2.07-.348 3.012-1.051Zm12.047-5.07h-8.644c.035 1.379.398 2.433 1.097 3.164.695.726 1.66 1.09 2.895 1.09 1.386 0 2.652-.446 3.793-1.336v1.828c-1.07.789-2.489 1.183-4.258 1.183-1.746 0-3.106-.562-4.09-1.69-.98-1.13-1.469-2.688-1.469-4.68 0-1.212.246-2.317.735-3.317.492-1.004 1.168-1.777 2.027-2.328a5.237 5.237 0 0 1 2.867-.824c1.586 0 2.824.515 3.715 1.547.887 1.03 1.332 2.476 1.332 4.335Zm-2.008-1.66c-.015-1.133-.289-2.012-.82-2.641-.527-.625-1.277-.937-2.238-.937-.91 0-1.688.328-2.332.98-.649.652-1.055 1.52-1.22 2.594Zm16.926 2.437c0 1.547-.555 2.793-1.66 3.735-1.11.945-2.563 1.418-4.363 1.418-1.637 0-2.934-.313-3.899-.934v-2.102c1.156.907 2.477 1.36 3.969 1.36 1.203 0 2.16-.297 2.875-.89.715-.59 1.07-1.395 1.07-2.407 0-2.242-1.594-3.36-4.781-3.36h-1.422v-1.664h1.348c2.824 0 4.234-1.05 4.234-3.156 0-1.945-1.078-2.918-3.23-2.918-1.211 0-2.344.406-3.407 1.223V8.438c1.094-.653 2.391-.981 3.899-.981 1.418 0 2.562.375 3.437 1.129.871.754 1.309 1.742 1.309 2.96 0 2.255-1.14 3.708-3.418 4.352v.047c1.207.137 2.187.575 2.93 1.317.738.742 1.109 1.664 1.109 2.773m12.898-.586c0 1.086-.23 2.067-.699 2.953-.465.883-1.105 1.57-1.93 2.055-.82.488-1.742.73-2.761.73-1.715 0-3.059-.687-4.035-2.066-.977-1.379-1.465-3.305-1.465-5.777 0-1.961.289-3.692.867-5.192.578-1.504 1.398-2.66 2.457-3.472 1.059-.817 2.281-1.223 3.668-1.223 1.184 0 2.129.164 2.848.492v1.852a6.046 6.046 0 0 0-2.797-.68c-1.516 0-2.727.68-3.64 2.04-.915 1.359-1.372 3.167-1.372 5.433h.05c.79-1.621 2.09-2.43 3.907-2.43 1.484 0 2.672.484 3.567 1.453.89.969 1.335 2.246 1.335 3.832m-2.007.25c0-1.195-.293-2.14-.88-2.832-.585-.695-1.402-1.039-2.456-1.039-.953 0-1.758.336-2.414 1.008-.653.672-.98 1.488-.98 2.445 0 1.203.323 2.211.976 3.02.648.808 1.468 1.21 2.457 1.21.98 0 1.773-.35 2.383-1.054.609-.707.914-1.625.914-2.758m13.546-.047c0 1.668-.55 3.004-1.656 4.02-1.101 1.008-2.578 1.515-4.418 1.515-1.593 0-2.777-.238-3.55-.718V22.39c1.164.75 2.355 1.125 3.574 1.125 1.21 0 2.187-.34 2.93-1.02.742-.676 1.113-1.586 1.113-2.723 0-1.117-.375-1.992-1.125-2.625-.75-.632-1.836-.949-3.262-.949-1.14 0-2.11.047-2.906.14l.586-8.593h7.925v1.766h-6.23l-.344 5.035 1.578-.063c1.786 0 3.196.454 4.23 1.356 1.036.898 1.555 2.172 1.555 3.812M31.45 28.215V4.457L22.937 2 7.634 7.746l-.04.008.005 17.18 5.222-2.047V8.91l10.118-2.418-.004 20.551-15.329-2.11 15.329 5.66v.005l8.515-2.356Zm0 0" style="stroke:none;fill-rule:nonzero;fill:rgb(92.156863%,23.529412%,0%);fill-opacity:1"/></svg>