<?xml version="1.0" encoding="UTF-8"?>
<svg xmlns="http://www.w3.org/2000/svg" xmlns:xlink="http://www.w3.org/1999/xlink" width="29.044001" height="32" viewBox="0 0 29.044001 32" version="1.1">
<g id="surface1">
<path style=" stroke:none;fill-rule:nonzero;fill:rgb(74.901962%,74.901962%,74.901962%);fill-opacity:1;" d="M 4.011719 15.871094 C 4.53125 13.984375 5.5 12.253906 6.832031 10.820312 C 6.398438 10.496094 4.679688 9.160156 4.597656 8.109375 C 4.472656 6.390625 6.191406 0.613281 6.191406 0.613281 C 6.191406 0.613281 1 6.933594 0.640625 9.488281 C 0.355469 11.496094 3.636719 15.476562 3.980469 15.878906 L 3.980469 15.871094 Z M 25.140625 15.769531 L 25.140625 15.785156 C 25.140625 15.789062 25.144531 15.796875 25.144531 15.804688 C 25.71875 15.113281 28.691406 11.40625 28.421875 9.488281 C 28.0625 6.933594 22.871094 0.613281 22.871094 0.613281 C 22.871094 0.613281 24.589844 6.390625 24.464844 8.109375 C 24.390625 9.117188 22.824219 10.371094 22.304688 10.769531 C 23.589844 12.117188 24.582031 13.824219 25.140625 15.769531 M 25.140625 15.769531 "/>
<path style=" stroke:none;fill-rule:nonzero;fill:rgb(33.725491%,38.82353%,40.000001%);fill-opacity:1;" d="M 25.140625 15.777344 L 25.140625 15.761719 C 24.609375 13.894531 23.636719 12.179688 22.304688 10.761719 C 20.285156 8.628906 17.539062 7.351562 14.578125 7.351562 L 14.578125 14.183594 L 14.585938 14.183594 C 14.980469 14.1875 15.351562 14.367188 15.601562 14.671875 C 15.851562 14.976562 15.953125 15.375 15.878906 15.761719 C 15.761719 16.382812 15.21875 16.835938 14.585938 16.839844 L 14.5625 16.839844 L 14.5625 19.375 L 14.550781 31.375 L 14.808594 31.375 C 14.808594 31.375 17.597656 27.335938 19.101562 26.183594 C 20.863281 24.832031 25.140625 23.15625 25.140625 23.15625 L 25.140625 15.855469 L 25.160156 15.847656 C 25.152344 15.835938 25.152344 15.8125 25.144531 15.796875 C 25.144531 15.789062 25.144531 15.785156 25.140625 15.777344 M 25.140625 15.777344 "/>
<path style=" stroke:none;fill-rule:nonzero;fill:rgb(49.019608%,56.862748%,60.000002%);fill-opacity:1;" d="M 14.5625 19.382812 L 14.5625 16.847656 C 13.832031 16.839844 13.246094 16.25 13.242188 15.519531 C 13.242188 14.785156 13.835938 14.191406 14.570312 14.191406 L 14.578125 14.191406 L 14.578125 7.382812 C 11.605469 7.382812 8.851562 8.667969 6.832031 10.820312 C 5.546875 12.183594 4.5625 13.910156 4.011719 15.871094 L 3.988281 15.871094 L 3.988281 23.265625 C 3.988281 23.265625 8.261719 24.941406 10.027344 26.292969 C 11.488281 27.414062 14.308594 31.386719 14.308594 31.386719 L 14.570312 31.386719 L 14.570312 31.382812 L 14.558594 31.382812 Z M 14.5625 19.382812 "/>
<path style=" stroke:none;fill-rule:nonzero;fill:rgb(100%,100%,100%);fill-opacity:1;" d="M 13.242188 15.519531 C 13.242188 15.644531 13.257812 15.761719 13.292969 15.871094 C 13.449219 16.429688 13.953125 16.839844 14.5625 16.847656 L 14.585938 16.847656 C 15.3125 16.839844 15.898438 16.246094 15.902344 15.519531 C 15.902344 14.792969 15.316406 14.199219 14.585938 14.191406 L 14.570312 14.191406 C 13.835938 14.191406 13.242188 14.785156 13.242188 15.519531 M 13.242188 15.519531 "/>
</g>
</svg>
