<svg role="img" viewBox="0 0 29.044 32" xmlns="http://www.w3.org/2000/svg"><path d="M4.012 15.871a12.18 12.18 0 0 1 2.82-5.05c-.434-.325-2.152-1.66-2.234-2.712C4.473 6.391 6.19.613 6.19.613S1 6.933.641 9.488c-.286 2.008 2.996 5.989 3.34 6.39v-.007Zm21.129-.101v.015c0 .004.004.012.004.02.574-.692 3.546-4.399 3.277-6.317-.36-2.554-5.55-8.875-5.55-8.875s1.718 5.778 1.593 7.496c-.074 1.008-1.64 2.262-2.16 2.66 1.285 1.348 2.277 3.055 2.836 5m0 0" style="stroke:none;fill-rule:nonzero;fill:rgb(74.901962%,74.901962%,74.901962%);fill-opacity:1"/><path d="M25.14 15.777v-.015a12.151 12.151 0 0 0-2.835-5c-2.02-2.133-4.766-3.41-7.727-3.41v6.832h.008a1.332 1.332 0 0 1 1.293 1.578 1.328 1.328 0 0 1-1.293 1.078h-.024v2.535l-.011 12h.258s2.789-4.04 4.293-5.191c1.761-1.352 6.039-3.028 6.039-3.028v-7.3l.02-.008c-.009-.012-.009-.036-.016-.051 0-.008 0-.012-.004-.02m0 0" style="stroke:none;fill-rule:nonzero;fill:rgb(33.725491%,38.82353%,40.000001%);fill-opacity:1"/><path d="M14.563 19.383v-2.535a1.333 1.333 0 0 1-1.32-1.328c0-.735.593-1.329 1.327-1.329h.008V7.383c-2.973 0-5.726 1.285-7.746 3.437-1.285 1.364-2.27 3.09-2.82 5.051h-.024v7.395s4.274 1.675 6.04 3.027c1.46 1.121 4.28 5.094 4.28 5.094h.262v-.004h-.011Zm0 0" style="stroke:none;fill-rule:nonzero;fill:rgb(49.019608%,56.862748%,60.000002%);fill-opacity:1"/><path d="M13.242 15.52c0 .125.016.242.051.351.156.559.66.969 1.27.977h.023a1.334 1.334 0 0 0 1.316-1.328 1.33 1.33 0 0 0-1.316-1.329h-.016c-.734 0-1.328.594-1.328 1.329m0 0" style="stroke:none;fill-rule:nonzero;fill:rgb(100%,100%,100%);fill-opacity:1"/></svg>