<?xml version="1.0" encoding="utf-8"?>
<svg viewBox="0 0 48 48" width="48" height="48" xmlns="http://www.w3.org/2000/svg">
  <path d="M 45.373 17.423 C 44.475 17.423 43.747 18.151 43.747 19.049 C 43.747 32.432 32.899 43.28 19.517 43.28 C 18.618 43.28 17.89 44.008 17.89 44.906 C 17.89 45.804 18.618 46.533 19.517 46.533 C 34.696 46.533 47 34.228 47 19.049 C 47 18.151 46.271 17.423 45.373 17.423 Z" fill="#005EB8"/>
  <path d="M 35.558 27.844 C 37.122 25.293 38.635 21.891 38.338 17.129 C 37.721 7.265 28.785 -0.218 20.348 0.593 C 17.046 0.91 13.654 3.602 13.956 8.424 C 14.087 10.52 15.112 11.757 16.779 12.708 C 18.366 13.613 20.403 14.187 22.715 14.837 C 25.506 15.621 28.743 16.503 31.232 18.336 C 34.215 20.534 36.253 23.082 35.558 27.844 Z" fill="#003B5C"/>
  <path d="M 3.816 10.595 C 2.252 13.146 0.74 16.548 1.037 21.31 C 1.654 31.173 10.589 38.658 19.025 37.848 C 22.328 37.53 25.719 34.837 25.417 30.013 C 25.288 27.918 24.262 26.683 22.595 25.731 C 21.008 24.826 18.97 24.252 16.66 23.603 C 13.868 22.818 10.63 21.935 8.141 20.103 C 5.16 17.905 3.12 15.356 3.816 10.595 Z" fill="#005EB8"/>
</svg>