<svg xmlns="http://www.w3.org/2000/svg" width="32" height="30" stroke="none" stroke-linecap="round" stroke-linejoin="round" fill="#fff" fill-rule="evenodd"><g fill="#db212f" fill-rule="nonzero"><path d="M9.2928 13.1791L4.16 15.049c.0656.824.2133 1.6373.4074 2.4352l4.8801-1.7776c-.1585-.8251-.215-1.6758-.1494-2.528M32 7.497c-.3584-.7392-.7734-1.4539-1.2534-2.127l-5.137 1.8699c.5973.6117 1.0987 1.2987 1.5093 2.0336z"/><path d="M20.6944 6.042a9.485 9.485 0 0 1 2.7754 1.9771l5.1376-1.8699c-1.4664-2.0611-3.4432-3.7059-5.7365-4.7734-7.344-3.424-16.1056-.2357-19.5307 7.1073-1.071 2.2919-1.5283 4.8227-1.3269 7.3445l5.1381-1.8693c.0854-1.1131.3574-2.2294.855-3.2982 2.2256-4.7717 7.9168-6.8426 12.6933-4.6176"/></g><path d="M4.8816 17.3615L0 19.1439c.4504 1.7865 1.2287 3.4738 2.2955 4.976l5.1264-1.8666a9.594 9.594 0 0 1-2.5403-4.8875" fill="#ea2227" fill-rule="nonzero"/><path d="M26.1728 15.4308a9.407 9.407 0 0 1-.8619 3.2992c-2.2256 4.7717-7.9162 6.8427-12.6933 4.6171a9.445 9.445 0 0 1-2.7813-1.9734l-5.1264 1.8667a14.572 14.572 0 0 0 5.7322 4.7749c7.344 3.424 16.1046.2347 19.5296-7.1082a14.55 14.55 0 0 0 1.3222-7.3414l-5.12 1.8656z" fill="#db212f" fill-rule="nonzero"/><path d="M27.4373 9.1577l-4.8816 1.7771c.9067 1.6245 1.3349 3.4949 1.1946 5.376l5.1264-1.8651c-.1466-1.84-.6373-3.6357-1.4399-5.288" fill="#ea2227" fill-rule="nonzero"/></svg>