<?xml version="1.0" encoding="UTF-8"?>
<svg xmlns="http://www.w3.org/2000/svg" xmlns:xlink="http://www.w3.org/1999/xlink" width="32" height="32" viewBox="0 0 32 32" version="1.1">
<g id="surface1">
<path style=" stroke:none;fill-rule:nonzero;fill:rgb(0%,36.862746%,72.156864%);fill-opacity:1;" d="M 30.25 11.617188 C 29.648438 11.617188 29.164062 12.101562 29.164062 12.699219 C 29.164062 21.621094 21.933594 28.851562 13.011719 28.851562 C 12.414062 28.851562 11.925781 29.339844 11.925781 29.9375 C 11.925781 30.535156 12.414062 31.023438 13.011719 31.023438 C 23.128906 31.023438 31.332031 22.820312 31.332031 12.699219 C 31.332031 12.101562 30.847656 11.617188 30.25 11.617188 "/>
<path style=" stroke:none;fill-rule:nonzero;fill:rgb(0%,23.137255%,36.078432%);fill-opacity:1;" d="M 23.707031 18.5625 C 24.746094 16.863281 25.757812 14.59375 25.558594 11.417969 C 25.148438 4.84375 19.191406 -0.144531 13.566406 0.394531 C 11.363281 0.605469 9.101562 2.402344 9.304688 5.617188 C 9.390625 7.011719 10.074219 7.839844 11.1875 8.472656 C 12.242188 9.074219 13.601562 9.457031 15.144531 9.890625 C 17.003906 10.414062 19.160156 11.003906 20.820312 12.222656 C 22.808594 13.6875 24.167969 15.386719 23.707031 18.5625 "/>
<path style=" stroke:none;fill-rule:nonzero;fill:rgb(0%,36.862746%,72.156864%);fill-opacity:1;" d="M 2.542969 7.0625 C 1.5 8.765625 0.492188 11.03125 0.691406 14.207031 C 1.101562 20.78125 7.058594 25.773438 12.683594 25.230469 C 14.886719 25.019531 17.144531 23.226562 16.945312 20.007812 C 16.859375 18.613281 16.175781 17.789062 15.0625 17.152344 C 14.003906 16.550781 12.648438 16.167969 11.105469 15.734375 C 9.246094 15.210938 7.085938 14.625 5.425781 13.402344 C 3.441406 11.9375 2.078125 10.238281 2.542969 7.0625 "/>
</g>
</svg>
