<svg role="img" viewBox="0 0 34.133 32" xmlns="http://www.w3.org/2000/svg"><path d="M9.914 14.059 4.438 16.05c.07.879.226 1.746.433 2.597l5.207-1.894c-.168-.879-.23-1.79-.16-2.695m24.215-6.063a15.78 15.78 0 0 0-1.336-2.27l-5.48 1.997a10.306 10.306 0 0 1 1.609 2.168Zm-12.059-1.55c1.106.52 2.11 1.235 2.961 2.11l5.48-1.996a15.551 15.551 0 0 0-6.12-5.09c-7.832-3.653-17.18-.254-20.832 7.578a15.6 15.6 0 0 0-1.415 7.836l5.48-1.992c.09-1.188.38-2.38.911-3.52 2.375-5.09 8.445-7.3 13.54-4.926" style="stroke:none;fill-rule:nonzero;fill:rgb(85.882354%,12.941177%,18.431373%);fill-opacity:1"/><path d="M5.207 18.52 0 20.422a15.899 15.899 0 0 0 2.45 5.305l5.468-1.989a10.247 10.247 0 0 1-2.711-5.215" style="stroke:none;fill-rule:nonzero;fill:rgb(91.764706%,13.333334%,15.294118%);fill-opacity:1"/><path d="M27.918 16.46A10.114 10.114 0 0 1 27 19.98c-2.375 5.09-8.445 7.297-13.543 4.922a10.028 10.028 0 0 1-2.965-2.105l-5.469 1.992a15.538 15.538 0 0 0 6.114 5.094c7.836 3.652 17.18.25 20.832-7.582a15.49 15.49 0 0 0 1.41-7.832Zm0 0" style="stroke:none;fill-rule:nonzero;fill:rgb(85.882354%,12.941177%,18.431373%);fill-opacity:1"/><path d="m29.266 9.77-5.207 1.894a10.185 10.185 0 0 1 1.273 5.734l5.469-1.988a15.783 15.783 0 0 0-1.535-5.64" style="stroke:none;fill-rule:nonzero;fill:rgb(91.764706%,13.333334%,15.294118%);fill-opacity:1"/></svg>