<svg xmlns="http://www.w3.org/2000/svg" version="1.0" width="320" height="120" viewBox="0 0 6440 8334" xml:space="preserve"><path d="M-3436.8 14543.2c-848-528-2032-856-3328-856-2608 0-4720 1304-4720 2912 0 1472 1760 2680 4040 2888v-848c-1536-192-2688-1032-2688-2040 0-1144 1504-2080 3368-2080 928 0 1768 232 2376 608l-864 536h2696v-1664l-880 544z" style="fill:#ccc;fill-opacity:1" transform="matrix(.71659 0 0 .71659 1197.022 -7303.47)"/><path d="M-7444.8 12247.2v7240l1352-848v-7264l-1352 872z" style="fill:#ff6200;fill-opacity:1" transform="matrix(.71659 0 0 .71659 1197.022 -7303.47)"/><path d="M-1124.8 15343.2c64-224 168-416 304-584 144-168 312-304 520-400 208-104 448-152 720-152 280 0 520 48 728 152 200 96 376 232 512 400s240 360 304 584c72 216 104 448 104 688s-32 472-104 696c-64 216-168 408-304 576s-312 304-512 400c-208 104-448 152-728 152-272 0-512-48-720-152-208-96-376-232-520-400-136-168-240-360-304-576-72-224-104-456-104-696s32-472 104-688m304 1256c48 184 128 344 240 496 104 144 240 256 408 352 168 88 360 128 592 128s432-40 600-128c168-96 296-208 408-352 104-152 184-312 232-496s80-376 80-568-32-376-80-560-128-352-232-496c-112-144-240-264-408-352s-368-128-600-128-424 40-592 128-304 208-408 352c-112 144-192 312-240 496s-72 368-72 560 24 384 72 568zM2563.2 15255.2v480h8c72-176 192-312 352-408s344-144 552-144c192 0 360 32 504 104s264 168 360 296c88 120 160 264 208 424s72 336 72 512c0 184-24 352-72 512s-120 304-208 424c-96 128-216 224-360 296-144 64-312 104-504 104-96 0-184-16-280-32-88-24-176-64-248-104-80-48-152-104-216-176-56-64-104-144-136-240h-8v1408h-312v-3456h288m1696 880c-32-136-80-248-144-352-72-96-160-184-264-248s-224-88-376-88c-168 0-312 24-424 88-120 56-208 136-280 232-64 96-112 216-144 344-24 128-40 264-40 408 0 136 16 264 48 392s80 248 152 344c72 104 160 184 272 248s256 96 416 96c152 0 272-32 376-96s192-144 264-248c64-96 112-216 144-344s48-256 48-392c0-128-16-256-48-384zM5139.2 16951.2c32 120 80 224 152 320 64 96 152 176 256 232 104 64 232 96 376 96 224 0 400-56 528-176s216-272 264-472h312c-64 288-184 512-360 664-176 160-424 240-744 240-200 0-368-40-512-104-152-72-264-168-360-296-88-120-160-264-200-424-48-160-64-328-64-512 0-168 16-328 64-488 40-160 112-304 200-432 96-128 208-224 360-304 144-72 312-112 512-112s376 40 520 120 264 192 352 320c88 136 152 288 192 456s56 344 48 520h-1944c0 112 16 232 48 352m1528-944c-40-112-96-208-160-288-72-80-152-152-248-200-104-48-208-72-336-72s-240 24-336 72-184 120-248 200c-72 80-128 176-168 288-40 104-64 216-80 336h1632c0-120-24-232-56-336zM7499.2 15255.2v432h8c64-152 168-272 320-368 144-88 312-136 496-136 176 0 320 24 440 64 120 48 216 112 288 200 72 80 120 184 152 304s40 256 40 408v1624h-304v-1576c0-112-8-208-32-304-16-88-56-168-104-240s-112-120-200-160c-80-40-184-56-304-56-128 0-240 16-336 64-96 40-176 104-240 176-72 80-120 168-160 280-40 104-56 216-64 344v1472h-304v-2528h304zM9835.2 14287.2v3496h-328v-3496h328zM11299.2 14287.2c536 8 936 160 1208 448 264 288 400 720 400 1296 0 584-136 1016-400 1304-272 288-672 432-1208 448h-1208v-3496h1208m-160 3208c248 0 464-24 648-80 176-56 328-136 448-256 112-120 200-272 256-456s80-408 80-672c0-256-24-480-80-664-56-192-144-344-256-456-120-120-272-208-448-256-184-56-400-88-648-88h-712v2928h712z" style="fill:#ff6200;fill-opacity:1" transform="matrix(.95669 0 0 .95669 1124.704 -10414.672)"/></svg>