<?xml version="1.0" encoding="UTF-8"?>
<svg xmlns="http://www.w3.org/2000/svg" xmlns:xlink="http://www.w3.org/1999/xlink" width="34.132999" height="32" viewBox="0 0 34.132999 32" version="1.1">
<g id="surface1">
<path style=" stroke:none;fill-rule:nonzero;fill:rgb(85.882354%,12.941177%,18.431373%);fill-opacity:1;" d="M 9.914062 14.058594 L 4.4375 16.050781 C 4.507812 16.929688 4.664062 17.796875 4.871094 18.648438 L 10.078125 16.753906 C 9.910156 15.875 9.847656 14.964844 9.917969 14.058594 M 34.132812 7.996094 C 33.75 7.203125 33.304688 6.441406 32.796875 5.726562 L 27.316406 7.722656 C 27.945312 8.371094 28.488281 9.101562 28.925781 9.890625 Z M 22.074219 6.445312 C 23.179688 6.964844 24.183594 7.679688 25.035156 8.554688 L 30.515625 6.558594 C 28.949219 4.359375 26.84375 2.605469 24.394531 1.46875 C 16.5625 -2.183594 7.214844 1.214844 3.5625 9.046875 C 2.421875 11.492188 1.933594 14.191406 2.148438 16.882812 L 7.628906 14.890625 C 7.71875 13.703125 8.007812 12.511719 8.539062 11.371094 C 10.914062 6.28125 16.984375 4.070312 22.078125 6.445312 "/>
<path style=" stroke:none;fill-rule:nonzero;fill:rgb(91.764706%,13.333334%,15.294118%);fill-opacity:1;" d="M 5.207031 18.519531 L 0 20.421875 C 0.480469 22.328125 1.3125 24.125 2.449219 25.726562 L 7.917969 23.738281 C 6.523438 22.300781 5.582031 20.488281 5.207031 18.523438 "/>
<path style=" stroke:none;fill-rule:nonzero;fill:rgb(85.882354%,12.941177%,18.431373%);fill-opacity:1;" d="M 27.917969 16.460938 C 27.828125 17.679688 27.515625 18.871094 27 19.980469 C 24.625 25.070312 18.554688 27.277344 13.457031 24.902344 C 12.347656 24.386719 11.34375 23.671875 10.492188 22.796875 L 5.023438 24.789062 C 6.585938 26.988281 8.691406 28.746094 11.136719 29.882812 C 18.972656 33.535156 28.316406 30.132812 31.96875 22.300781 C 33.113281 19.859375 33.597656 17.15625 33.378906 14.46875 Z M 27.917969 16.460938 "/>
<path style=" stroke:none;fill-rule:nonzero;fill:rgb(91.764706%,13.333334%,15.294118%);fill-opacity:1;" d="M 29.265625 9.769531 L 24.058594 11.664062 C 25.039062 13.410156 25.480469 15.402344 25.332031 17.398438 L 30.800781 15.410156 C 30.644531 13.449219 30.125 11.539062 29.265625 9.769531 "/>
</g>
</svg>
