<svg role="img" viewBox="0 0 48 48" xmlns="http://www.w3.org/2000/svg"><path d="M45.373 17.423c-.898 0-1.626.728-1.626 1.626 0 13.383-10.848 24.231-24.23 24.231a1.626 1.626 0 1 0 0 3.253C34.696 46.533 47 34.228 47 19.049c0-.898-.729-1.626-1.627-1.626" fill="#005EB8"/><path d="M35.558 27.844c1.564-2.551 3.077-5.953 2.78-10.715C37.721 7.265 28.785-.218 20.348.593c-3.302.317-6.694 3.009-6.392 7.831.131 2.096 1.156 3.333 2.823 4.284 1.587.905 3.624 1.479 5.936 2.129 2.791.784 6.028 1.666 8.517 3.499 2.983 2.198 5.021 4.746 4.326 9.508" fill="#003B5C"/><path d="M3.816 10.595C2.252 13.146.74 16.548 1.037 21.31c.617 9.863 9.552 17.348 17.988 16.538 3.303-.318 6.694-3.011 6.392-7.835-.129-2.095-1.155-3.33-2.822-4.282-1.587-.905-3.625-1.479-5.935-2.128-2.792-.785-6.03-1.668-8.519-3.5-2.981-2.198-5.021-4.747-4.325-9.508" fill="#005EB8"/></svg>