<?xml version="1.0" encoding="UTF-8"?>
<svg xmlns="http://www.w3.org/2000/svg" xmlns:xlink="http://www.w3.org/1999/xlink" width="32" height="32" viewBox="0 0 32 32" version="1.1">
<g id="surface1">
<path style=" stroke:none;fill-rule:nonzero;fill:rgb(96.078432%,65.882355%,0%);fill-opacity:1;" d="M 16.914062 17.449219 C 15.601562 18.761719 15.601562 20.890625 16.914062 22.199219 C 18.222656 23.511719 20.351562 23.511719 21.664062 22.199219 C 22.976562 20.890625 22.976562 18.761719 21.664062 17.449219 C 20.351562 16.136719 18.222656 16.136719 16.914062 17.449219 M 20.464844 21.003906 C 19.8125 21.652344 18.761719 21.652344 18.113281 21.003906 C 17.460938 20.355469 17.460938 19.300781 18.113281 18.652344 C 18.761719 18.003906 19.8125 18.003906 20.464844 18.652344 C 21.113281 19.296875 21.113281 20.355469 20.464844 21.003906 M 21.605469 0.917969 L 19.546875 2.976562 C 19.144531 3.378906 19.144531 4.042969 19.546875 4.445312 L 27.585938 12.484375 C 27.988281 12.886719 28.652344 12.886719 29.054688 12.484375 L 31.113281 10.425781 C 31.515625 10.019531 31.515625 9.359375 31.113281 8.957031 L 23.070312 0.917969 C 22.667969 0.515625 22.011719 0.515625 21.605469 0.917969 M 7.183594 27.222656 C 7.550781 26.859375 7.550781 26.261719 7.183594 25.894531 L 6.136719 24.851562 C 5.773438 24.484375 5.175781 24.484375 4.8125 24.851562 L 2.648438 27.011719 L 2.644531 27.015625 L 2.050781 26.421875 C 1.722656 26.09375 1.191406 26.09375 0.867188 26.421875 C 0.539062 26.75 0.539062 27.28125 0.867188 27.609375 L 4.425781 31.167969 C 4.753906 31.496094 5.289062 31.496094 5.613281 31.167969 C 5.9375 30.839844 5.941406 30.308594 5.613281 29.980469 L 5.019531 29.386719 L 5.023438 29.386719 Z M 7.183594 27.222656 "/>
<path style=" stroke:none;fill-rule:nonzero;fill:rgb(25.882354%,36.078432%,78.039217%);fill-opacity:1;" d="M 18.074219 6.828125 L 13.5 11.402344 C 13.09375 11.808594 13.09375 12.476562 13.5 12.882812 L 16.324219 15.707031 C 18.320312 14.269531 21.121094 14.449219 22.917969 16.242188 L 25.203125 13.957031 C 25.609375 13.550781 25.609375 12.882812 25.203125 12.476562 L 19.554688 6.828125 C 19.148438 6.417969 18.480469 6.417969 18.074219 6.828125 M 15.136719 16.898438 L 13.46875 15.226562 C 13.078125 14.839844 12.4375 14.839844 12.046875 15.226562 L 6.167969 21.113281 C 5.777344 21.503906 5.777344 22.144531 6.167969 22.535156 L 9.5 25.867188 C 9.890625 26.257812 10.53125 26.257812 10.921875 25.867188 L 14.703125 22.078125 C 13.902344 20.425781 14.046875 18.429688 15.136719 16.898438 "/>
</g>
</svg>
