<?xml version="1.0" encoding="UTF-8"?>
<svg xmlns="http://www.w3.org/2000/svg" xmlns:xlink="http://www.w3.org/1999/xlink" width="85.333" height="32" viewBox="0 0 85.333 32" version="1.1">
<g id="surface1">
<path style=" stroke:none;fill-rule:nonzero;fill:rgb(80.000001%,80.000001%,80.000001%);fill-opacity:1;" d="M 25.441406 11.972656 C 23.109375 10.519531 19.851562 9.617188 16.285156 9.617188 C 9.109375 9.617188 3.296875 13.203125 3.296875 17.628906 C 3.296875 21.679688 8.140625 25.003906 14.414062 25.574219 L 14.414062 23.242188 C 10.1875 22.714844 7.019531 20.402344 7.019531 17.628906 C 7.019531 14.480469 11.15625 11.90625 16.285156 11.90625 C 18.839844 11.90625 21.152344 12.542969 22.824219 13.578125 L 20.445312 15.054688 L 27.863281 15.054688 L 27.863281 10.476562 Z M 25.441406 11.972656 "/>
<path style=" stroke:none;fill-rule:nonzero;fill:rgb(100%,38.431373%,0%);fill-opacity:1;" d="M 14.414062 5.65625 L 14.414062 25.574219 L 18.136719 23.242188 L 18.136719 3.253906 Z M 30.488281 16.371094 C 30.710938 15.589844 31.09375 14.859375 31.605469 14.226562 C 32.136719 13.609375 32.753906 13.109375 33.515625 12.757812 C 34.28125 12.375 35.160156 12.199219 36.160156 12.199219 C 37.191406 12.199219 38.070312 12.375 38.835938 12.757812 C 39.5625 13.101562 40.207031 13.605469 40.714844 14.226562 C 41.214844 14.84375 41.597656 15.550781 41.832031 16.371094 C 42.097656 17.164062 42.214844 18.019531 42.214844 18.898438 C 42.214844 19.78125 42.097656 20.632812 41.832031 21.457031 C 41.601562 22.230469 41.222656 22.949219 40.714844 23.574219 C 40.203125 24.195312 39.5625 24.699219 38.835938 25.042969 C 38.070312 25.421875 37.191406 25.601562 36.160156 25.601562 C 35.160156 25.601562 34.28125 25.421875 33.515625 25.042969 C 32.78125 24.695312 32.128906 24.195312 31.605469 23.574219 C 31.097656 22.949219 30.71875 22.230469 30.488281 21.457031 C 30.230469 20.628906 30.101562 19.765625 30.109375 18.898438 C 30.109375 18.019531 30.226562 17.164062 30.488281 16.371094 M 31.605469 20.984375 C 31.777344 21.644531 32.078125 22.265625 32.488281 22.808594 C 32.871094 23.335938 33.371094 23.75 33.988281 24.101562 C 34.605469 24.425781 35.308594 24.570312 36.160156 24.570312 C 37.011719 24.570312 37.75 24.425781 38.367188 24.101562 C 38.949219 23.777344 39.457031 23.335938 39.863281 22.808594 C 40.253906 22.257812 40.542969 21.636719 40.714844 20.984375 C 40.894531 20.308594 41.011719 19.605469 41.011719 18.898438 C 41.011719 18.195312 40.894531 17.519531 40.714844 16.84375 C 40.546875 16.1875 40.257812 15.570312 39.863281 15.019531 C 39.453125 14.492188 38.984375 14.050781 38.367188 13.726562 C 37.75 13.40625 37.011719 13.257812 36.160156 13.257812 C 35.308594 13.257812 34.605469 13.40625 33.988281 13.726562 C 33.394531 14.035156 32.882812 14.480469 32.488281 15.019531 C 32.074219 15.5625 31.773438 16.183594 31.605469 16.84375 C 31.429688 17.515625 31.339844 18.203125 31.339844 18.898438 C 31.339844 19.605469 31.429688 20.308594 31.605469 20.984375 M 44.035156 16.050781 L 44.035156 17.8125 L 44.066406 17.8125 C 44.320312 17.183594 44.773438 16.65625 45.359375 16.3125 C 45.945312 15.960938 46.625 15.785156 47.386719 15.785156 C 48.09375 15.785156 48.710938 15.902344 49.238281 16.167969 C 49.765625 16.429688 50.207031 16.785156 50.5625 17.253906 C 50.882812 17.695312 51.148438 18.222656 51.324219 18.8125 C 51.5 19.398438 51.589844 20.046875 51.589844 20.691406 C 51.59375 21.328125 51.503906 21.964844 51.324219 22.574219 C 51.160156 23.132812 50.902344 23.65625 50.5625 24.128906 C 50.214844 24.589844 49.757812 24.964844 49.238281 25.21875 C 48.65625 25.476562 48.023438 25.605469 47.386719 25.601562 C 47.035156 25.601562 46.710938 25.542969 46.359375 25.484375 C 46.042969 25.390625 45.738281 25.261719 45.449219 25.101562 C 45.152344 24.929688 44.882812 24.710938 44.652344 24.453125 C 44.429688 24.195312 44.261719 23.898438 44.15625 23.574219 L 44.125 23.574219 L 44.125 28.746094 L 42.980469 28.746094 L 42.980469 16.050781 Z M 50.265625 19.28125 C 50.160156 18.824219 49.984375 18.386719 49.738281 17.988281 C 49.472656 17.628906 49.144531 17.320312 48.769531 17.078125 C 48.386719 16.84375 47.945312 16.753906 47.386719 16.753906 C 46.769531 16.753906 46.242188 16.84375 45.828125 17.078125 C 45.421875 17.273438 45.066406 17.566406 44.800781 17.929688 C 44.566406 18.28125 44.390625 18.722656 44.273438 19.195312 C 44.183594 19.664062 44.125 20.164062 44.125 20.691406 C 44.125 21.191406 44.183594 21.664062 44.300781 22.132812 C 44.417969 22.601562 44.59375 23.042969 44.859375 23.394531 C 45.125 23.777344 45.449219 24.070312 45.859375 24.308594 C 46.269531 24.542969 46.800781 24.660156 47.386719 24.660156 C 47.945312 24.660156 48.386719 24.542969 48.769531 24.308594 C 49.148438 24.070312 49.472656 23.777344 49.738281 23.394531 C 49.972656 23.042969 50.148438 22.601562 50.265625 22.132812 C 50.382812 21.664062 50.445312 21.191406 50.445312 20.691406 C 50.445312 20.214844 50.382812 19.742188 50.265625 19.28125 M 53.5 22.28125 C 53.617188 22.71875 53.792969 23.101562 54.058594 23.453125 C 54.292969 23.808594 54.617188 24.101562 55 24.308594 C 55.378906 24.542969 55.851562 24.660156 56.378906 24.660156 C 57.203125 24.660156 57.847656 24.453125 58.320312 24.011719 C 58.789062 23.574219 59.113281 23.015625 59.289062 22.28125 L 60.433594 22.28125 C 60.199219 23.335938 59.757812 24.160156 59.113281 24.71875 C 58.464844 25.304688 57.554688 25.601562 56.378906 25.601562 C 55.734375 25.609375 55.09375 25.476562 54.5 25.21875 C 53.972656 24.972656 53.519531 24.597656 53.175781 24.128906 C 52.832031 23.664062 52.585938 23.136719 52.441406 22.574219 C 52.265625 21.984375 52.207031 21.367188 52.207031 20.691406 C 52.207031 20.074219 52.265625 19.488281 52.441406 18.898438 C 52.589844 18.328125 52.839844 17.792969 53.175781 17.3125 C 53.527344 16.84375 53.980469 16.460938 54.5 16.195312 C 55.027344 15.933594 55.644531 15.785156 56.378906 15.785156 C 57.113281 15.785156 57.761719 15.933594 58.289062 16.226562 C 58.804688 16.511719 59.25 16.914062 59.582031 17.402344 C 59.90625 17.902344 60.140625 18.460938 60.289062 19.074219 C 60.433594 19.699219 60.492188 20.34375 60.464844 20.984375 L 53.324219 20.984375 C 53.324219 21.398438 53.382812 21.839844 53.5 22.28125 M 59.113281 18.8125 C 58.980469 18.429688 58.78125 18.070312 58.523438 17.753906 C 58.261719 17.460938 57.964844 17.195312 57.613281 17.019531 C 57.226562 16.839844 56.804688 16.75 56.378906 16.753906 C 55.910156 16.753906 55.496094 16.84375 55.144531 17.019531 C 54.792969 17.199219 54.484375 17.449219 54.234375 17.753906 C 53.960938 18.0625 53.75 18.421875 53.617188 18.8125 C 53.472656 19.210938 53.375 19.625 53.324219 20.046875 L 59.316406 20.046875 C 59.3125 19.628906 59.242188 19.210938 59.113281 18.8125 M 62.167969 16.050781 L 62.167969 17.636719 L 62.199219 17.636719 C 62.433594 17.078125 62.816406 16.636719 63.375 16.285156 C 63.925781 15.949219 64.554688 15.777344 65.195312 15.785156 C 65.84375 15.785156 66.371094 15.871094 66.8125 16.019531 C 67.253906 16.195312 67.605469 16.429688 67.871094 16.753906 C 68.132812 17.046875 68.3125 17.429688 68.429688 17.871094 C 68.546875 18.3125 68.574219 18.8125 68.574219 19.371094 L 68.574219 25.335938 L 67.457031 25.335938 L 67.457031 19.546875 C 67.464844 19.167969 67.425781 18.792969 67.339844 18.429688 C 67.277344 18.113281 67.144531 17.8125 66.960938 17.546875 C 66.78125 17.285156 66.546875 17.105469 66.222656 16.960938 C 65.929688 16.8125 65.546875 16.753906 65.109375 16.753906 C 64.636719 16.753906 64.226562 16.8125 63.875 16.988281 C 63.535156 17.132812 63.234375 17.355469 62.992188 17.636719 C 62.726562 17.929688 62.550781 18.253906 62.402344 18.664062 C 62.257812 19.046875 62.199219 19.457031 62.167969 19.929688 L 62.167969 25.335938 L 61.050781 25.335938 L 61.050781 16.050781 Z M 70.75 12.492188 L 70.75 25.335938 L 69.546875 25.335938 L 69.546875 12.492188 Z M 76.128906 12.492188 C 78.097656 12.523438 79.566406 13.082031 80.566406 14.140625 C 81.535156 15.195312 82.035156 16.785156 82.035156 18.898438 C 82.035156 21.046875 81.535156 22.632812 80.566406 23.691406 C 79.566406 24.746094 78.097656 25.277344 76.128906 25.335938 L 71.691406 25.335938 L 71.691406 12.492188 Z M 75.539062 24.277344 C 76.449219 24.277344 77.246094 24.191406 77.921875 23.984375 C 78.566406 23.777344 79.125 23.484375 79.566406 23.042969 C 79.976562 22.601562 80.300781 22.042969 80.507812 21.367188 C 80.710938 20.691406 80.800781 19.871094 80.800781 18.898438 C 80.800781 17.960938 80.710938 17.136719 80.507812 16.460938 C 80.300781 15.753906 79.976562 15.195312 79.566406 14.785156 C 79.125 14.34375 78.566406 14.023438 77.921875 13.84375 C 77.246094 13.640625 76.449219 13.523438 75.539062 13.523438 L 72.925781 13.523438 L 72.925781 24.277344 Z M 75.539062 24.277344 "/>
</g>
</svg>
