<svg role="img" viewBox="0 0 32 32" xmlns="http://www.w3.org/2000/svg"><path d="M15.95.523c8.503 0 15.398 6.895 15.398 15.399S24.453 31.32 15.949 31.32.551 24.426.551 15.922 7.445.523 15.949.523" style="stroke:none;fill-rule:nonzero;fill:rgb(80.000001%,0%,0%);fill-opacity:1"/><path d="m6.902 18.277 12.52-15.941c.277.55 0 .86-.11 1.191-1.136 3.118-2.257 6.258-3.449 9.36-.293.789-.168.972.66.972h8.055c.219 0 .512-.109.645.13.129.241-.149.421-.278.605L14.684 28.18c-.16.218-.325.55-.621.386-.297-.164-.11-.496 0-.773.789-2.898 1.539-5.762 2.367-8.645.203-.675 0-.824-.621-.808H8.152Zm0 0" style="stroke:none;fill-rule:nonzero;fill:rgb(100%,100%,100%);fill-opacity:1"/></svg>