<?xml version="1.0" encoding="UTF-8"?>
<svg xmlns="http://www.w3.org/2000/svg" xmlns:xlink="http://www.w3.org/1999/xlink" width="32" height="32" viewBox="0 0 32 32" version="1.1">
<g id="surface1">
<path style=" stroke:none;fill-rule:nonzero;fill:rgb(80.000001%,0%,0%);fill-opacity:1;" d="M 15.949219 0.523438 C 24.453125 0.523438 31.347656 7.417969 31.347656 15.921875 C 31.347656 24.425781 24.453125 31.320312 15.949219 31.320312 C 7.445312 31.320312 0.550781 24.425781 0.550781 15.921875 C 0.550781 7.417969 7.445312 0.523438 15.949219 0.523438 "/>
<path style=" stroke:none;fill-rule:nonzero;fill:rgb(100%,100%,100%);fill-opacity:1;" d="M 6.902344 18.277344 L 19.421875 2.335938 C 19.699219 2.886719 19.421875 3.195312 19.3125 3.527344 C 18.175781 6.644531 17.054688 9.785156 15.863281 12.886719 C 15.570312 13.675781 15.695312 13.859375 16.523438 13.859375 L 24.578125 13.859375 C 24.796875 13.859375 25.089844 13.75 25.222656 13.988281 C 25.351562 14.230469 25.074219 14.410156 24.945312 14.59375 L 14.683594 28.179688 C 14.523438 28.398438 14.359375 28.730469 14.0625 28.566406 C 13.765625 28.402344 13.953125 28.070312 14.0625 27.792969 C 14.851562 24.894531 15.601562 22.03125 16.429688 19.148438 C 16.632812 18.472656 16.429688 18.324219 15.808594 18.339844 L 8.152344 18.339844 Z M 6.902344 18.277344 "/>
</g>
</svg>
