<svg role="img" viewBox="0 0 256 305" preserveAspectRatio="xMidYMid" xmlns="http://www.w3.org/2000/svg" xmlns:xlink="http://www.w3.org/1999/xlink"><defs><linearGradient id="a" x1="50%" x2="50%" y1="16.62%" y2="119.283%"><stop offset="0%" stop-color="#2684FF"/><stop offset="82%" stop-color="#0052CC"/></linearGradient><linearGradient id="b" x1="41.18%" x2="67.714%" y1="31.16%" y2="78.678%"><stop offset="0%" stop-color="#2684FF"/><stop offset="62%" stop-color="#0052CC"/></linearGradient></defs><path d="M127.996 0a76.058 76.058 0 1 0 0 152.116 76.058 76.058 0 1 0 0-152.116" fill="url(#a)"/><path d="M121.516 302.953A366.903 366.903 0 0 1 1.076 177.056a8.527 8.527 0 0 1 3.71-11.81l57.597-28.265a8.527 8.527 0 0 1 11.128 3.41 284.748 284.748 0 0 0 123.636 111.913 368.779 368.779 0 0 1-62.67 50.649 12.236 12.236 0 0 1-12.961 0" fill="url(#b)"/><path d="M134.476 302.953a366.647 366.647 0 0 0 120.44-125.897 8.527 8.527 0 0 0-3.667-11.81l-57.64-28.265a8.527 8.527 0 0 0-11.127 3.41A284.62 284.62 0 0 1 58.845 252.305a366.647 366.647 0 0 0 62.67 50.649 12.236 12.236 0 0 0 12.961 0" fill="#2684FF"/></svg>