<?xml version="1.0" encoding="UTF-8"?>
<svg xmlns="http://www.w3.org/2000/svg" xmlns:xlink="http://www.w3.org/1999/xlink" width="50.602001" height="32" viewBox="0 0 50.602001 32" version="1.1">
<g id="surface1">
<path style=" stroke:none;fill-rule:nonzero;fill:rgb(89.019608%,2.352941%,7.450981%);fill-opacity:1;" d="M 16.003906 32 C 7.167969 32 0 24.847656 0 16.011719 C 0 7.175781 7.167969 0 16.003906 0 L 34.601562 0 C 43.4375 0 50.601562 7.175781 50.601562 16.011719 C 50.601562 24.847656 43.4375 32 34.601562 32 Z M 34.1875 26.355469 C 39.910156 26.355469 44.546875 21.734375 44.546875 16.011719 C 44.546875 10.292969 39.910156 5.644531 34.1875 5.644531 L 16.414062 5.644531 C 10.691406 5.644531 6.054688 10.292969 6.054688 16.011719 C 6.054688 21.734375 10.691406 26.355469 16.414062 26.355469 Z M 34.1875 26.355469 "/>
</g>
</svg>
