<?xml version="1.0" encoding="UTF-8"?>
<svg xmlns="http://www.w3.org/2000/svg" xmlns:xlink="http://www.w3.org/1999/xlink" width="228.570999" height="32" viewBox="0 0 228.570999 32" version="1.1">
<g id="surface1">
<path style=" stroke:none;fill-rule:nonzero;fill:rgb(89.019608%,2.352941%,7.450981%);fill-opacity:1;" d="M 98.484375 19.261719 L 113.589844 19.261719 L 105.574219 6.46875 L 90.933594 29.742188 L 84.304688 29.742188 L 102.007812 1.867188 C 102.78125 0.789062 104.015625 0.015625 105.554688 0.015625 C 106.941406 0.015625 108.171875 0.628906 108.945312 1.714844 L 126.824219 29.609375 L 120.214844 29.609375 L 117.132812 24.371094 L 101.871094 24.371094 Z M 167.6875 24.351562 L 167.6875 0.152344 L 161.980469 0.152344 L 161.980469 26.660156 C 161.980469 27.433594 162.289062 28.046875 162.753906 28.664062 C 163.367188 29.28125 163.988281 29.589844 164.757812 29.589844 L 190.5 29.589844 L 193.890625 24.351562 Z M 74.285156 20.054688 C 79.835938 20.054688 84.148438 15.585938 84.148438 10.191406 C 84.148438 4.640625 79.679688 0.328125 74.285156 0.328125 L 49.644531 0.328125 L 49.644531 29.765625 L 55.347656 29.765625 L 55.347656 5.410156 L 73.996094 5.410156 C 76.628906 5.425781 78.757812 7.554688 78.773438 10.1875 C 78.757812 12.828125 76.617188 14.960938 73.976562 14.96875 L 58.105469 14.96875 L 74.90625 29.609375 L 83.074219 29.609375 L 71.667969 20.050781 Z M 14.640625 29.609375 C 6.46875 29.613281 0 22.984375 0 14.96875 C 0 6.796875 6.628906 0.324219 14.640625 0.324219 L 31.75 0.324219 C 39.921875 0.324219 46.390625 6.953125 46.390625 14.96875 C 46.390625 23.136719 39.765625 29.609375 31.75 29.609375 Z M 31.441406 24.371094 C 36.703125 24.339844 40.964844 20.078125 40.996094 14.8125 C 40.964844 9.550781 36.707031 5.289062 31.441406 5.257812 L 15.101562 5.257812 C 9.835938 5.289062 5.578125 9.546875 5.546875 14.8125 C 5.578125 20.078125 9.835938 24.339844 15.101562 24.371094 Z M 138.710938 29.609375 C 130.542969 29.609375 124.070312 22.984375 124.070312 14.96875 C 124.070312 6.800781 130.699219 0.328125 138.710938 0.328125 L 159.058594 0.328125 L 155.664062 5.566406 L 139.019531 5.566406 C 133.753906 5.597656 129.492188 9.859375 129.460938 15.125 C 129.492188 20.390625 133.753906 24.648438 139.019531 24.679688 L 159.363281 24.679688 L 155.96875 29.917969 L 138.707031 29.917969 Z M 207.914062 24.371094 C 203.621094 24.371094 199.902344 21.441406 198.820312 17.414062 L 223.019531 17.414062 L 226.410156 12.175781 L 198.976562 12.175781 C 200.097656 8.078125 203.824219 5.242188 208.070312 5.242188 L 224.71875 5.242188 L 228.109375 0 L 207.761719 0 C 199.59375 0 193.121094 6.628906 193.121094 14.640625 C 193.121094 22.8125 199.75 29.285156 207.761719 29.285156 L 225.179688 29.285156 L 228.570312 24.042969 L 207.917969 24.042969 Z M 207.914062 24.371094 "/>
</g>
</svg>
