<svg xmlns="http://www.w3.org/2000/svg" width="100" height="14" stroke="#000" stroke-linecap="round" stroke-linejoin="round" fill="#fff" fill-rule="evenodd"><path d="M43.0873 8.4273h6.608L46.189 2.8306l-6.4057 10.1822h-2.8996L44.6292.8162c.3374-.4717.877-.809 1.5509-.809.6067 0 1.1455.2684 1.4837.7427l7.8216 12.2048h-2.8915l-1.3486-2.2928h-6.6761zm30.2766 2.2257V.0662h-2.4968v11.598c0 .3374.1342.6068.3374.877.2684.2685.5396.4045.877.4045H83.343l1.4838-2.2927zM32.5005 8.7737c2.4279 0 4.3152-1.9554 4.3152-4.3153 0-2.4279-1.9554-4.3152-4.3152-4.3152h-10.781v12.8795h2.495V2.367h8.1589c1.1517.0068 2.0836.9388 2.0905 2.0905-.0069 1.1548-.9438 2.0881-2.0986 2.0905h-6.9445l7.3499 6.4058h3.5743l-4.99-4.181zm-26.0956 4.181C2.8306 12.9556 0 10.0561 0 6.548 0 2.9738 2.8995.1423 6.4058.1423h7.485c3.5743 0 6.4058 2.8995 6.4058 6.4057 0 3.5743-2.8995 6.4058-6.4058 6.4058zm7.3499-2.2928c2.3034-.0137 4.1673-1.8776 4.181-4.181-.0137-2.3034-1.8776-4.1673-4.181-4.181H6.6071c-2.3034.0137-4.1673 1.8776-4.181 4.181.0137 2.3034 1.8776 4.1673 4.181 4.181zm46.9318 2.2928c-3.5743 0-6.4058-2.8995-6.4058-6.4058 0-3.5742 2.8995-6.4057 6.4058-6.4057h8.9008l-1.4838 2.2927h-7.2828c-2.3034.0137-4.1673 1.8776-4.181 4.181.0137 2.3034 1.8776 4.1674 4.181 4.181h8.9008l-1.4847 2.2919h-7.553zm30.2766-2.2928c-1.8793 0-3.5063-1.2815-3.9788-3.0427h10.5868l1.4838-2.2927H87.0524c.4918-1.7919 2.1207-3.0339 3.9788-3.0337h7.2828L99.7978 0h-8.9017c-3.5743 0-6.4058 2.8995-6.4058 6.4057 0 3.5743 2.8995 6.4058 6.4058 6.4058h7.6201L100 10.5187h-9.0359z" stroke="none" fill="#e30613" fill-rule="nonzero"/></svg>