<svg role="img" viewBox="0 0 228.571 32" xmlns="http://www.w3.org/2000/svg"><path d="M98.484 19.262h15.106l-8.016-12.793-14.64 23.273h-6.63l17.704-27.875C102.78.79 104.016.016 105.555.016c1.386 0 2.617.613 3.39 1.699l17.88 27.894h-6.61l-3.082-5.238H101.87Zm69.204 5.09V.152h-5.708V26.66c0 .774.31 1.387.774 2.004.613.617 1.234.926 2.004.926H190.5l3.39-5.238Zm-93.403-4.297c5.55 0 9.863-4.47 9.863-9.864 0-5.55-4.468-9.863-9.863-9.863h-24.64v29.438h5.703V5.41h18.648a4.805 4.805 0 0 1 4.777 4.778 4.81 4.81 0 0 1-4.796 4.78H58.105L74.906 29.61h8.168l-11.406-9.558Zm-59.644 9.554C6.469 29.613 0 22.984 0 14.97 0 6.797 6.629.324 14.64.324h17.11c8.172 0 14.64 6.63 14.64 14.645 0 8.168-6.624 14.64-14.64 14.64Zm16.8-5.238c5.262-.031 9.524-4.293 9.555-9.558a9.612 9.612 0 0 0-9.555-9.555h-16.34a9.61 9.61 0 0 0-9.554 9.555c.031 5.265 4.289 9.527 9.555 9.558Zm107.27 5.238c-8.168 0-14.64-6.625-14.64-14.64 0-8.168 6.628-14.64 14.64-14.64h20.348l-3.395 5.237H139.02a9.616 9.616 0 0 0-9.56 9.559c.032 5.266 4.294 9.523 9.56 9.555h20.343l-3.394 5.238h-17.262Zm69.203-5.238c-4.293 0-8.012-2.93-9.094-6.957h24.2l3.39-5.238h-27.433a9.424 9.424 0 0 1 9.093-6.934h16.649L228.109 0h-20.347c-8.168 0-14.64 6.629-14.64 14.64 0 8.172 6.628 14.645 14.64 14.645h17.418l3.39-5.242h-20.652Zm0 0" style="stroke:none;fill-rule:nonzero;fill:rgb(89.019608%,2.352941%,7.450981%);fill-opacity:1"/></svg>