<svg role="img" viewBox="0 0 69.531 32" xmlns="http://www.w3.org/2000/svg"><path d="M8.125 31.941a.238.238 0 0 1-.312 0l-1.485-.78-5.937-3.048C.156 28.035 0 27.723 0 27.41v-2.344c0-.312.313-.468.547-.312l7.422 3.828 7.426-3.828c.234-.156.546.078.546.312v2.344a.82.82 0 0 1-.39.703l-4.14 2.188-1.72.86zM7.813.059a.238.238 0 0 1 .312 0l1.488.78 5.86 3.048a.82.82 0 0 1 .39.703v2.344c0 .312-.312.468-.547.312L7.891 3.418.547 7.246C.312 7.402 0 7.168 0 6.934V4.59a.82.82 0 0 1 .39-.703l4.141-2.188zm.156 21.019c-2.735 0-4.922-2.265-4.922-5.078 0-2.812 2.187-5.078 4.922-5.078 2.738 0 4.926 2.265 4.926 5.078s-2.188 5.078-4.926 5.078m0-13.285C3.594 7.793 0 11.469 0 16c0 4.531 3.594 8.203 7.969 8.203 4.379 0 7.972-3.672 7.972-8.203 0-4.531-3.593-8.207-7.972-8.207m23.679 13.285c-2.734 0-4.921-2.265-4.921-5.078 0-2.812 2.187-5.078 4.921-5.078 2.735 0 4.922 2.265 4.922 5.078s-2.187 5.078-4.922 5.078m0-13.285c-4.375 0-7.972 3.676-7.972 8.207 0 4.531 3.597 8.203 7.972 8.203s7.97-3.672 7.97-8.203c0-4.531-3.516-8.207-7.97-8.207m18.286 7.035h-.47l-.077-.078-2.344-3.828h2.812c1.016 0 1.875.86 1.875 1.953 0 1.094-.703 1.953-1.796 1.953m1.328 2.969c2.11-.625 3.593-2.5 3.593-4.844v-.156c0-2.813-2.187-5.004-4.921-5.004H43.84c-.235 0-.39.156-.39.39v2.505c0 .078 0 .156.077.234l2.344 3.984H43.84c-.235 0-.39.156-.39.39v8.595c0 .234.155.39.39.39h2.265c.235 0 .391-.156.391-.39v-5.938h1.25l3.516 5.86c.156.234.39.39.625.39h2.5c.312 0 .468-.312.312-.625Zm18.207-9.453-7.422 15.39c-.078.313-.313.47-.625.47h-2.266c-.312 0-.468-.313-.312-.548L62.516 16l-3.672-7.656c-.157-.239.078-.551.312-.551h2.266c.312 0 .547.156.703.469l2.031 4.3 2.031-4.3c.157-.235.391-.469.704-.469h2.265c.313 0 .469.312.313.55" style="stroke:none;fill-rule:nonzero;fill:rgb(38.431373%,45.490196%,95.294118%);fill-opacity:1"/></svg>