<svg role="img" viewBox="0 0 15.941 32" xmlns="http://www.w3.org/2000/svg"><path d="M8.125 31.941a.238.238 0 0 1-.312 0l-1.485-.78-5.937-3.048C.156 28.035 0 27.723 0 27.41v-2.344c0-.312.313-.468.547-.312l7.422 3.828 7.426-3.828c.234-.156.546.078.546.312v2.344a.82.82 0 0 1-.39.703l-4.14 2.188-1.72.86zM7.813.059a.238.238 0 0 1 .312 0l1.488.78 5.86 3.048a.82.82 0 0 1 .39.703v2.344c0 .312-.312.468-.547.312L7.891 3.418.547 7.246C.312 7.402 0 7.168 0 6.934V4.59a.82.82 0 0 1 .39-.703l4.141-2.188zm.156 21.019c-2.735 0-4.922-2.265-4.922-5.078 0-2.812 2.187-5.078 4.922-5.078 2.738 0 4.926 2.265 4.926 5.078s-2.188 5.078-4.926 5.078m0-13.285C3.594 7.793 0 11.469 0 16c0 4.531 3.594 8.207 7.969 8.207 4.379 0 7.972-3.676 7.972-8.207 0-4.531-3.593-8.207-7.972-8.207m0 0" style="stroke:none;fill-rule:nonzero;fill:rgb(100%,64.705884%,0%);fill-opacity:1"/></svg>