<?xml version="1.0" encoding="UTF-8"?>
<svg xmlns="http://www.w3.org/2000/svg" xmlns:xlink="http://www.w3.org/1999/xlink" width="156.098007" height="32" viewBox="0 0 156.098007 32" version="1.1">
<g id="surface1">
<path style=" stroke:none;fill-rule:nonzero;fill:rgb(38.431373%,45.490196%,95.294118%);fill-opacity:1;" d="M 8.117188 31.921875 C 8.027344 32 7.894531 32 7.804688 31.921875 L 6.320312 31.140625 L 0.390625 28.097656 C 0.15625 28.019531 0 27.707031 0 27.394531 L 0 25.054688 C 0 24.742188 0.3125 24.585938 0.546875 24.742188 L 7.960938 28.566406 L 15.375 24.742188 C 15.609375 24.585938 15.921875 24.820312 15.921875 25.054688 L 15.921875 27.394531 C 15.921875 27.679688 15.777344 27.949219 15.53125 28.097656 L 11.394531 30.28125 L 9.679688 31.140625 Z M 7.804688 0.078125 C 7.894531 0 8.027344 0 8.117188 0.078125 L 9.601562 0.859375 L 15.453125 3.902344 C 15.695312 4.054688 15.84375 4.320312 15.84375 4.605469 L 15.84375 6.945312 C 15.84375 7.257812 15.53125 7.414062 15.296875 7.257812 L 7.882812 3.433594 L 0.546875 7.257812 C 0.3125 7.414062 0 7.179688 0 6.945312 L 0 4.605469 C 0 4.320312 0.144531 4.050781 0.390625 3.902344 L 4.527344 1.71875 L 6.242188 0.859375 Z M 7.960938 21.074219 C 5.230469 21.074219 3.042969 18.808594 3.042969 16 C 3.042969 13.191406 5.230469 10.925781 7.960938 10.925781 C 10.691406 10.925781 12.878906 13.191406 12.878906 16 C 12.878906 18.808594 10.691406 21.074219 7.960938 21.074219 M 7.960938 7.804688 C 3.589844 7.804688 0 11.472656 0 16 C 0 20.527344 3.589844 24.195312 7.960938 24.195312 C 12.332031 24.195312 15.921875 20.527344 15.921875 16 C 15.921875 11.472656 12.332031 7.804688 7.960938 7.804688 M 31.609375 21.074219 C 28.878906 21.074219 26.691406 18.808594 26.691406 16 C 26.691406 13.191406 28.878906 10.925781 31.609375 10.925781 C 34.339844 10.925781 36.527344 13.191406 36.527344 16 C 36.527344 18.808594 34.339844 21.074219 31.609375 21.074219 M 31.609375 7.804688 C 27.238281 7.804688 23.648438 11.472656 23.648438 16 C 23.648438 20.527344 27.238281 24.195312 31.609375 24.195312 C 35.980469 24.195312 39.570312 20.527344 39.570312 16 C 39.570312 11.472656 36.058594 7.804688 31.609375 7.804688 M 49.875 14.828125 L 49.40625 14.828125 L 49.328125 14.75 L 46.984375 10.925781 L 49.796875 10.925781 C 50.808594 10.925781 51.667969 11.785156 51.667969 12.878906 C 51.667969 13.972656 50.964844 14.828125 49.875 14.828125 M 51.199219 17.796875 C 53.308594 17.171875 54.789062 15.296875 54.789062 12.957031 L 54.789062 12.800781 C 54.789062 9.992188 52.605469 7.804688 49.875 7.804688 L 43.785156 7.804688 C 43.550781 7.804688 43.394531 7.960938 43.394531 8.195312 L 43.394531 10.691406 C 43.394531 10.769531 43.394531 10.847656 43.472656 10.925781 L 45.816406 14.90625 L 43.785156 14.90625 C 43.550781 14.90625 43.394531 15.0625 43.394531 15.296875 L 43.394531 23.882812 C 43.394531 24.117188 43.550781 24.273438 43.785156 24.273438 L 46.046875 24.273438 C 46.28125 24.273438 46.4375 24.117188 46.4375 23.882812 L 46.4375 17.953125 L 47.6875 17.953125 L 51.199219 23.804688 C 51.355469 24.039062 51.589844 24.195312 51.824219 24.195312 L 54.320312 24.195312 C 54.632812 24.195312 54.789062 23.882812 54.632812 23.570312 Z M 69.386719 8.351562 L 61.972656 23.726562 C 61.894531 24.039062 61.660156 24.195312 61.347656 24.195312 L 59.082031 24.195312 C 58.769531 24.195312 58.613281 23.882812 58.769531 23.648438 L 62.4375 16 L 58.769531 8.351562 C 58.613281 8.117188 58.847656 7.804688 59.082031 7.804688 L 61.347656 7.804688 C 61.660156 7.804688 61.894531 7.960938 62.046875 8.273438 L 64.078125 12.566406 L 66.105469 8.273438 C 66.261719 8.039062 66.496094 7.804688 66.808594 7.804688 L 69.074219 7.804688 C 69.386719 7.804688 69.542969 8.117188 69.386719 8.351562 "/>
<path style=" stroke:none;fill-rule:nonzero;fill:rgb(43.921569%,43.529412%,55.686277%);fill-opacity:1;" d="M 77.972656 25.914062 C 77.894531 25.835938 77.816406 25.757812 77.816406 25.601562 C 77.816406 25.523438 77.816406 25.445312 77.894531 25.367188 L 85.386719 7.414062 C 85.542969 7.179688 85.699219 7.023438 85.933594 7.023438 L 86.710938 7.023438 C 86.789062 7.023438 86.945312 7.101562 87.023438 7.179688 C 87.101562 7.257812 87.179688 7.335938 87.179688 7.492188 C 87.179688 7.570312 87.179688 7.648438 87.101562 7.726562 L 79.609375 25.679688 C 79.609375 25.757812 79.53125 25.835938 79.453125 25.914062 C 79.34375 26.011719 79.207031 26.0625 79.0625 26.066406 L 78.28125 26.066406 C 78.125 26.066406 78.046875 25.992188 77.972656 25.914062 M 95.140625 24.039062 C 95.042969 23.933594 94.988281 23.792969 94.984375 23.648438 L 94.984375 9.445312 C 94.984375 9.289062 95.0625 9.132812 95.140625 9.054688 C 95.21875 8.976562 95.375 8.898438 95.453125 8.898438 L 96.46875 8.898438 C 96.625 8.898438 96.78125 8.976562 96.859375 9.054688 C 96.957031 9.160156 97.011719 9.300781 97.015625 9.445312 L 97.015625 15.53125 L 104.585938 15.53125 L 104.585938 9.445312 C 104.585938 9.289062 104.664062 9.132812 104.742188 9.054688 C 104.847656 8.957031 104.988281 8.902344 105.132812 8.898438 L 106.144531 8.898438 C 106.300781 8.898438 106.457031 8.976562 106.535156 9.054688 C 106.632812 9.160156 106.6875 9.300781 106.691406 9.445312 L 106.691406 23.726562 C 106.691406 23.882812 106.613281 23.960938 106.535156 24.117188 C 106.457031 24.273438 106.300781 24.273438 106.144531 24.273438 L 105.132812 24.273438 C 104.976562 24.273438 104.898438 24.195312 104.742188 24.117188 C 104.644531 24.011719 104.589844 23.871094 104.585938 23.726562 L 104.585938 17.40625 L 97.015625 17.40625 L 97.015625 23.726562 C 97.015625 23.882812 96.9375 23.960938 96.859375 24.117188 C 96.78125 24.273438 96.625 24.273438 96.46875 24.273438 L 95.453125 24.273438 C 95.375 24.195312 95.21875 24.117188 95.140625 24.039062 M 112 28.253906 C 111.921875 28.175781 111.84375 28.097656 111.84375 27.941406 C 111.84375 27.863281 111.84375 27.785156 111.921875 27.550781 L 113.640625 23.570312 L 109.503906 13.738281 C 109.425781 13.582031 109.347656 13.425781 109.347656 13.347656 C 109.347656 13.191406 109.425781 13.113281 109.503906 13.035156 C 109.582031 12.957031 109.660156 12.878906 109.816406 12.878906 L 110.828125 12.878906 C 111.0625 12.878906 111.21875 12.957031 111.375 13.191406 L 114.730469 21.230469 L 118.164062 13.191406 C 118.242188 12.957031 118.476562 12.878906 118.710938 12.878906 L 119.726562 12.878906 C 119.882812 12.878906 119.960938 12.957031 120.039062 13.035156 C 120.117188 13.113281 120.195312 13.191406 120.195312 13.347656 C 120.195312 13.425781 120.195312 13.582031 120.117188 13.738281 L 113.953125 28.097656 C 113.875 28.175781 113.796875 28.332031 113.71875 28.332031 C 113.640625 28.410156 113.5625 28.410156 113.40625 28.410156 L 112.46875 28.410156 C 112.15625 28.332031 112.078125 28.332031 112 28.253906 M 122.613281 22.945312 C 121.835938 21.933594 121.445312 20.683594 121.367188 19.199219 L 121.367188 17.953125 C 121.445312 16.46875 121.835938 15.21875 122.613281 14.203125 C 123.394531 13.191406 124.566406 12.722656 126.046875 12.722656 C 127.53125 12.722656 128.78125 13.269531 129.5625 14.359375 L 129.5625 9.289062 C 129.5625 9.132812 129.640625 9.054688 129.71875 8.898438 C 129.824219 8.804688 129.960938 8.746094 130.105469 8.742188 L 131.121094 8.742188 C 131.277344 8.742188 131.355469 8.820312 131.511719 8.898438 C 131.609375 9.007812 131.664062 9.144531 131.667969 9.289062 L 131.667969 23.804688 C 131.667969 23.960938 131.589844 24.039062 131.511719 24.195312 C 131.433594 24.351562 131.199219 24.195312 131.121094 24.195312 L 130.183594 24.195312 C 130.027344 24.195312 129.953125 24.117188 129.875 24.039062 C 129.777344 23.933594 129.722656 23.792969 129.71875 23.648438 L 129.71875 22.710938 C 128.859375 23.804688 127.6875 24.351562 126.125 24.351562 C 124.566406 24.429688 123.394531 23.882812 122.613281 22.945312 M 128.78125 21.699219 C 129.328125 20.996094 129.5625 20.214844 129.640625 19.277344 L 129.640625 17.5625 C 129.640625 16.703125 129.328125 15.921875 128.78125 15.21875 C 128.234375 14.59375 127.453125 14.28125 126.515625 14.28125 C 125.503906 14.28125 124.722656 14.59375 124.253906 15.296875 C 123.785156 15.921875 123.472656 16.78125 123.472656 17.875 L 123.472656 18.496094 C 123.472656 21.308594 124.488281 22.710938 126.59375 22.710938 C 127.53125 22.710938 128.234375 22.398438 128.78125 21.699219 M 135.023438 24.039062 C 134.925781 23.933594 134.871094 23.792969 134.867188 23.648438 L 134.867188 13.347656 C 134.867188 13.191406 134.945312 13.113281 135.023438 12.957031 C 135.128906 12.859375 135.269531 12.804688 135.414062 12.800781 L 136.351562 12.800781 C 136.507812 12.800781 136.664062 12.878906 136.742188 12.957031 C 136.839844 13.0625 136.894531 13.203125 136.898438 13.347656 L 136.898438 14.28125 C 137.523438 13.269531 138.535156 12.800781 139.941406 12.800781 L 140.800781 12.800781 C 140.957031 12.800781 141.113281 12.878906 141.191406 12.957031 C 141.289062 13.0625 141.34375 13.203125 141.347656 13.347656 L 141.347656 14.125 C 141.347656 14.28125 141.269531 14.359375 141.191406 14.515625 C 141.085938 14.613281 140.945312 14.667969 140.800781 14.671875 L 139.550781 14.671875 C 138.769531 14.671875 138.144531 14.90625 137.679688 15.375 C 137.210938 15.84375 136.976562 16.46875 136.976562 17.25 L 136.976562 23.726562 C 136.976562 23.882812 136.898438 23.960938 136.820312 24.117188 C 136.742188 24.273438 136.585938 24.273438 136.429688 24.273438 L 135.414062 24.273438 C 135.257812 24.195312 135.101562 24.117188 135.023438 24.039062 M 144.078125 23.960938 C 143.453125 23.648438 142.984375 23.257812 142.671875 22.789062 C 142.28125 22.320312 142.125 21.699219 142.125 21.152344 C 142.125 20.214844 142.515625 19.433594 143.296875 18.808594 C 144.078125 18.183594 145.171875 17.796875 146.496094 17.5625 L 149.777344 17.09375 L 149.777344 16.46875 C 149.777344 14.984375 148.917969 14.203125 147.199219 14.203125 C 146.496094 14.203125 145.953125 14.359375 145.5625 14.59375 C 145.171875 14.828125 144.859375 15.21875 144.703125 15.53125 C 144.625 15.6875 144.546875 15.765625 144.546875 15.84375 C 144.546875 15.921875 144.390625 15.921875 144.3125 15.921875 L 143.453125 15.921875 C 143.296875 15.921875 143.21875 15.84375 143.140625 15.765625 C 143.0625 15.6875 142.984375 15.53125 142.984375 15.453125 C 142.984375 15.140625 143.140625 14.75 143.453125 14.28125 C 143.765625 13.816406 144.234375 13.425781 144.9375 13.113281 C 145.640625 12.800781 146.417969 12.644531 147.355469 12.644531 C 148.996094 12.644531 150.164062 13.035156 150.867188 13.816406 C 151.570312 14.59375 151.960938 15.53125 151.960938 16.625 L 151.960938 23.726562 C 151.960938 23.882812 151.882812 23.960938 151.804688 24.117188 C 151.726562 24.273438 151.414062 24.195312 151.257812 24.195312 L 150.320312 24.195312 C 150.164062 24.195312 150.085938 24.117188 150.007812 24.039062 C 149.914062 23.929688 149.859375 23.792969 149.855469 23.648438 L 149.855469 22.710938 C 149.542969 23.179688 149.074219 23.570312 148.449219 23.882812 C 147.824219 24.195312 147.042969 24.351562 146.105469 24.351562 C 145.40625 24.429688 144.703125 24.273438 144.078125 23.960938 M 148.917969 21.855469 C 149.542969 21.230469 149.855469 20.292969 149.855469 19.121094 L 149.855469 18.496094 L 147.277344 18.886719 C 146.261719 19.042969 145.40625 19.277344 144.859375 19.667969 C 144.3125 19.980469 144.078125 20.449219 144.078125 20.996094 C 144.078125 21.621094 144.3125 22.085938 144.78125 22.398438 C 145.25 22.710938 145.875 22.867188 146.496094 22.867188 C 147.511719 22.789062 148.292969 22.476562 148.917969 21.855469 M 148.917969 21.855469 "/>
</g>
</svg>
