<?xml version="1.0" encoding="UTF-8"?>
<svg xmlns="http://www.w3.org/2000/svg" xmlns:xlink="http://www.w3.org/1999/xlink" width="15.941" height="32" viewBox="0 0 15.941 32" version="1.1">
<g id="surface1">
<path style=" stroke:none;fill-rule:nonzero;fill:rgb(38.431373%,45.490196%,95.294118%);fill-opacity:1;" d="M 8.125 31.941406 C 8.035156 32.019531 7.902344 32.019531 7.8125 31.941406 L 6.328125 31.160156 L 0.390625 28.113281 C 0.15625 28.035156 0 27.722656 0 27.410156 L 0 25.066406 C 0 24.753906 0.3125 24.597656 0.546875 24.753906 L 7.96875 28.582031 L 15.394531 24.753906 C 15.628906 24.597656 15.941406 24.832031 15.941406 25.066406 L 15.941406 27.410156 C 15.941406 27.695312 15.792969 27.960938 15.550781 28.113281 L 11.410156 30.300781 L 9.691406 31.160156 Z M 7.8125 0.0585938 C 7.902344 -0.0195312 8.035156 -0.0195312 8.125 0.0585938 L 9.613281 0.839844 L 15.472656 3.886719 C 15.71875 4.039062 15.863281 4.304688 15.863281 4.589844 L 15.863281 6.933594 C 15.863281 7.246094 15.550781 7.402344 15.316406 7.246094 L 7.890625 3.417969 L 0.546875 7.246094 C 0.3125 7.402344 0 7.167969 0 6.933594 L 0 4.589844 C 0 4.304688 0.144531 4.039062 0.390625 3.886719 L 4.53125 1.699219 Z M 7.96875 21.078125 C 5.234375 21.078125 3.046875 18.8125 3.046875 16 C 3.046875 13.1875 5.234375 10.921875 7.96875 10.921875 C 10.707031 10.921875 12.894531 13.1875 12.894531 16 C 12.894531 18.8125 10.707031 21.078125 7.96875 21.078125 M 7.96875 7.792969 C 3.59375 7.792969 0 11.46875 0 16 C 0 20.53125 3.59375 24.207031 7.96875 24.207031 C 12.347656 24.207031 15.941406 20.53125 15.941406 16 C 15.941406 11.46875 12.347656 7.792969 7.96875 7.792969 M 7.96875 7.792969 "/>
</g>
</svg>
