<svg role="img" viewBox="0 0 33.508 32" xmlns="http://www.w3.org/2000/svg"><path d="M20.11 27.395h-6.712l-1.418 2.933h-1.93V32h13.407v-1.672h-1.93ZM31.797 4.352h-1.504v1.675h1.504c.02 0 .035.016.035.035v18.383c0 .02-.016.035-.035.035H1.71a.035.035 0 0 1-.035-.035V6.063c0-.02.015-.036.035-.036h16.754V4.352H1.71A1.71 1.71 0 0 0 0 6.062v18.383a1.71 1.71 0 0 0 1.71 1.711h30.087a1.71 1.71 0 0 0 1.71-1.71V6.062a1.71 1.71 0 0 0-1.71-1.711M20.824 6.027l3.13 3.13V6.823c.077-.004.151-.008.226-.008a4.979 4.979 0 0 1 1.367.192 5.023 5.023 0 0 1 3.238 2.867c.149.348.2.734.504.996.133.113.328.172.488.098.29-.133.282-.54.309-.805.016-.184.023-.371.023-.559 0-.894-.195-1.785-.574-2.597l-.004-.004a6.252 6.252 0 0 0-.57-.977 6.25 6.25 0 0 0-1.805-1.675 6.136 6.136 0 0 0-2-.782 6.08 6.08 0 0 0-1.203-.117v-2.28l-3.992 3.992ZM10.309 18.441l6.027 3.477v-5.89l-6.027-3.477ZM23.2 12.55l-6.028 3.477v5.891l6.027-3.477Zm-.423-.722-6.023-3.476-6.024 3.476 6.024 3.477Zm0 0" style="stroke:none;fill-rule:nonzero;fill:rgb(25.098041%,25.098041%,25.490198%);fill-opacity:1"/></svg>