<?xml version="1.0" encoding="utf-8"?>
<!-- Generator: Adobe Illustrator 25.4.1, SVG Export Plug-In . SVG Version: 6.00 Build 0)  -->
<svg version="1.1" id="Layer_1" xmlns="http://www.w3.org/2000/svg" xmlns:xlink="http://www.w3.org/1999/xlink" x="0px" y="0px"
	 viewBox="0 0 210 191" style="enable-background:new 0 0 210 191;" xml:space="preserve">
<style type="text/css">
	.st0{fill:#404041;}
</style>
<g>
	<polygon class="st0" points="133.31,164.68 94.89,164.68 86.79,181.43 75.74,181.43 75.74,191 152.46,191 152.46,181.43 
		141.42,181.43 	"/>
	<path class="st0" d="M200.21,33H62.49v9.96h137.54v104.69H28.19v-41.03h-9.98v41.22c0,5.4,4.38,9.77,9.79,9.77h172.21
		c5.4,0,9.79-4.37,9.79-9.77V42.77C210,37.37,205.61,33,200.21,33z"/>
	<path class="st0" d="M23.79,95.31l23.8-23.75h-13.9c-0.02-0.45-0.05-0.89-0.05-1.33c0-2.72,0.37-5.44,1.11-8.06
		c1.62-5.72,4.98-10.88,9.54-14.71c2.21-1.84,4.67-3.36,7.31-4.5c0.08-0.04,0.17-0.07,0.25-0.11c2.08-0.87,4.38-1.17,5.93-3
		c0.68-0.8,1.03-1.95,0.59-2.9c-0.79-1.71-3.2-1.68-4.79-1.83c-1.11-0.1-2.21-0.15-3.32-0.15c-5.34,0-10.68,1.18-15.52,3.44
		c-5.17,2.41-9.73,6.03-13.26,10.5c-1.22,1.54-2.31,3.18-3.26,4.9c-1.18,2.1-2.14,4.31-2.87,6.6c-0.42,1.31-0.77,2.66-1.04,4.01
		c-0.47,2.35-0.7,4.75-0.7,7.14H0l15.34,15.32l2.87,2.87L23.79,95.31z"/>
	<polygon class="st0" points="75.73,114.26 111.61,134.93 111.61,99.9 75.73,79.23 	"/>
	<polygon class="st0" points="152.47,114.26 152.47,79.23 116.6,99.9 116.6,134.93 	"/>
	<polygon class="st0" points="78.22,74.91 114.11,95.59 149.98,74.91 114.11,54.24 	"/>
</g>
</svg>
