<?xml version="1.0" encoding="utf-8"?>
<!-- Generator: Adobe Illustrator 25.4.1, SVG Export Plug-In . SVG Version: 6.00 Build 0)  -->
<svg version="1.1" id="Layer_1" xmlns="http://www.w3.org/2000/svg" xmlns:xlink="http://www.w3.org/1999/xlink" x="0px" y="0px"
	 viewBox="0 0 200 191" style="enable-background:new 0 0 200 191;" xml:space="preserve">
<style type="text/css">
	.st0{fill:#404041;}
</style>
<g>
	<polygon class="st0" points="120.09,163.6 120.04,163.5 79.97,163.5 79.92,163.6 71.52,181 60,181 60,191 140,191 140,181 
		128.49,181 	"/>
	<path class="st0" d="M189.8,25.89H41.72v7.5v2.5H189.8c0.11,0,0.2,0.09,0.2,0.21v109.79c0,0.12-0.09,0.21-0.2,0.21H59.85l-0.86,2.5
		l-2.59,7.5h133.4c5.63,0,10.2-4.57,10.2-10.21V36.1C200,30.46,195.43,25.89,189.8,25.89z"/>
	<path class="st0" d="M32,156.1l2.59-7.5l0.86-2.5H10.21c-0.11,0-0.21-0.09-0.21-0.21V36.1c0-0.12,0.1-0.21,0.21-0.21h6.02v-2.5
		v-7.5h-6.02C4.58,25.89,0,30.46,0,36.1v109.79c0,5.64,4.58,10.21,10.21,10.21H32z"/>
	<polygon class="st0" points="61.55,110.03 97.51,130.79 97.51,95.61 61.55,74.85 	"/>
	<polygon class="st0" points="102.51,130.79 138.46,110.03 138.46,74.85 102.51,95.6 102.51,95.61 	"/>
	<polygon class="st0" points="64.05,70.52 100,91.28 100.01,91.28 135.96,70.52 100.01,49.76 	"/>
	<path class="st0" d="M48.17,115.8l-23.84,23.85h15.39c0,1.72-0.11,3.43-0.34,5.12c-0.06,0.45-0.13,0.89-0.21,1.33
		c-0.1,0.64-0.23,1.27-0.37,1.9c-0.04,0.2-0.09,0.4-0.14,0.6c-0.63,2.61-1.56,5.12-2.76,7.5c-0.47,0.93-0.99,1.84-1.55,2.73
		c-0.71,1.13-1.5,2.22-2.35,3.26c-0.3,0.37-0.61,0.73-0.93,1.08c-0.13,0.14-0.26,0.29-0.39,0.43c-2.07,2.21-4.66,4.35-7.66,4.89
		c-1.34,0.24-2.89,0.16-3.88-0.79c-0.85-0.82-1.16-2.17-1-3.31c0.04-0.27,0.1-0.53,0.18-0.79c0.12-0.4,0.29-0.79,0.48-1.17
		c0.11-0.22,0.83-1.77,1.06-1.77l-10.11-0.24c0,0-0.76,2.02-1.03,3.12c0,0.02-0.01,0.03-0.01,0.05c-0.51,2.14-0.61,4.49,0.24,6.58
		c0.78,1.89,2.3,3.37,4.08,4.32c2.93,1.55,6.39,2.14,9.67,2.24c9.92,0.3,19.51-4.75,25.51-12.55c0.15-0.19,0.29-0.38,0.42-0.58
		c0.43-0.57,0.83-1.15,1.2-1.75c0.61-0.97,1.18-1.98,1.71-3.02c0.46-0.89,0.88-1.8,1.27-2.73c1.02-2.38,1.83-4.9,2.41-7.5
		c0.19-0.82,0.36-1.66,0.49-2.5c0.03-0.15,0.06-0.3,0.08-0.45c0.05-0.29,0.09-0.58,0.12-0.88c0.25-1.69,0.39-3.41,0.44-5.12h15.67
		L48.17,115.8z"/>
	<path class="st0" d="M20.43,35.89c0.09,0.84,0.18,1.68,0.28,2.51c0.22,1.86,0.51,3.72,0.95,5.54c0.22,0.89,0.47,1.77,0.76,2.64
		c0.93,2.77,2.34,5.43,4.28,7.63c1.5,1.72,4.58,4.91,7.1,3.49c0.78-0.45,1.28-1.28,1.51-2.15c0.22-0.87,0.22-1.78,0.21-2.68
		c-0.04-2.99-0.14-5.97-0.14-8.93c-0.01-2.71,0.08-5.4,0.39-8.05c0.09-0.83,0.21-1.67,0.36-2.5c0.43-2.55,1.12-5.05,2.17-7.5
		c0.28-0.66,0.59-1.32,0.93-1.97c0.34-0.66,0.74-1.39,1.21-2.11c0.87-1.35,1.95-2.67,3.2-3.42c1.26-0.76,2.69-0.94,4.24,0
		c0.11,0.07,0.21,0.14,0.32,0.21c0.46,0.31,0.87,0.69,1.25,1.08c0.17,0.17,0.89,1.2,1.08,1.2c0.01,0,13.04-0.02,15.31-0.02
		c-0.18,0-1.11-1.87-1.27-2.11c-0.08-0.12-0.16-0.24-0.24-0.36c-0.38-0.6-0.78-1.19-1.2-1.76c-0.97-1.33-2.03-2.56-3.13-3.78
		c-2.82-3.13-6.33-5.63-10.24-7.22C47.36,4.66,44.8,4.02,42.2,4c-4.46-0.04-9,1.68-12.47,4.44c-0.04,0.03-0.08,0.06-0.11,0.09
		c-3.25,2.61-5.55,6.05-7.07,9.86c-0.45,1.11-0.83,2.25-1.14,3.42c-0.17,0.62-0.32,1.25-0.45,1.88c-0.15,0.73-0.28,1.46-0.38,2.2
		c-0.24,1.64-0.37,3.29-0.4,4.92c-0.01,0.86,0.01,1.72,0.06,2.58C20.29,34.23,20.36,35.06,20.43,35.89z"/>
</g>
</svg>
