<?xml version="1.0" encoding="UTF-8"?>
<svg xmlns="http://www.w3.org/2000/svg" xmlns:xlink="http://www.w3.org/1999/xlink" width="35.183246" height="32" viewBox="0 0 35.183246 32" version="1.1">
<g id="surface1">
<path style=" stroke:none;fill-rule:nonzero;fill:rgb(25.098041%,25.098041%,25.490198%);fill-opacity:1;" d="M 22.335938 27.589844 L 15.898438 27.589844 L 14.539062 30.398438 L 12.6875 30.398438 L 12.6875 32 L 25.542969 32 L 25.542969 30.398438 L 23.695312 30.398438 Z M 22.335938 27.589844 "/>
<path style=" stroke:none;fill-rule:nonzero;fill:rgb(25.098041%,25.098041%,25.490198%);fill-opacity:1;" d="M 33.542969 5.527344 L 10.46875 5.527344 L 10.46875 7.199219 L 33.511719 7.199219 L 33.511719 24.738281 L 4.722656 24.738281 L 4.722656 17.863281 L 3.050781 17.863281 L 3.050781 24.769531 C 3.050781 25.671875 3.785156 26.40625 4.691406 26.40625 L 33.542969 26.40625 C 34.449219 26.40625 35.183594 25.671875 35.183594 24.769531 L 35.183594 7.164062 C 35.183594 6.261719 34.449219 5.527344 33.542969 5.527344 Z M 33.542969 5.527344 "/>
<path style=" stroke:none;fill-rule:nonzero;fill:rgb(25.098041%,25.098041%,25.490198%);fill-opacity:1;" d="M 3.984375 15.96875 L 7.972656 11.988281 L 5.644531 11.988281 C 5.640625 11.914062 5.636719 11.839844 5.636719 11.765625 C 5.636719 11.3125 5.699219 10.855469 5.820312 10.414062 C 6.09375 9.457031 6.65625 8.59375 7.421875 7.953125 C 7.789062 7.644531 8.203125 7.386719 8.644531 7.199219 C 8.660156 7.191406 8.671875 7.1875 8.6875 7.179688 C 9.035156 7.035156 9.421875 6.984375 9.679688 6.675781 C 9.792969 6.542969 9.851562 6.351562 9.777344 6.191406 C 9.648438 5.902344 9.242188 5.910156 8.976562 5.882812 C 8.789062 5.867188 8.605469 5.859375 8.421875 5.859375 C 7.527344 5.859375 6.632812 6.054688 5.820312 6.433594 C 4.953125 6.839844 4.191406 7.445312 3.597656 8.195312 C 3.394531 8.453125 3.210938 8.726562 3.050781 9.015625 C 2.855469 9.367188 2.695312 9.738281 2.570312 10.121094 C 2.5 10.339844 2.441406 10.566406 2.398438 10.792969 C 2.320312 11.1875 2.28125 11.589844 2.28125 11.988281 L 0 11.988281 L 2.570312 14.554688 Z M 3.984375 15.96875 "/>
<path style=" stroke:none;fill-rule:nonzero;fill:rgb(25.098041%,25.098041%,25.490198%);fill-opacity:1;" d="M 12.6875 19.144531 L 18.699219 22.605469 L 18.699219 16.738281 L 12.6875 13.273438 Z M 12.6875 19.144531 "/>
<path style=" stroke:none;fill-rule:nonzero;fill:rgb(25.098041%,25.098041%,25.490198%);fill-opacity:1;" d="M 25.542969 19.144531 L 25.542969 13.273438 L 19.535156 16.738281 L 19.535156 22.605469 Z M 25.542969 19.144531 "/>
<path style=" stroke:none;fill-rule:nonzero;fill:rgb(25.098041%,25.098041%,25.490198%);fill-opacity:1;" d="M 13.105469 12.550781 L 19.117188 16.015625 L 25.128906 12.550781 L 19.117188 9.085938 Z M 13.105469 12.550781 "/>
</g>
</svg>
