<svg role="img" viewBox="0 0 33.508 32" xmlns="http://www.w3.org/2000/svg"><path d="m20.121 27.41-.008-.015h-6.715l-.007.015-1.41 2.914h-1.93V32h13.406v-1.676h-1.93ZM31.8 4.336H6.989v1.676h24.813c.015 0 .031.015.031.035V24.44c0 .02-.016.036-.031.036H10.027l-.144.418-.434 1.257h22.352a1.71 1.71 0 0 0 1.707-1.71V6.046a1.71 1.71 0 0 0-1.708-1.71M5.36 26.152l.437-1.257.14-.418H1.712a.035.035 0 0 1-.035-.036V6.047c0-.02.015-.035.035-.035H2.72V4.336H1.71A1.71 1.71 0 0 0 0 6.046v18.395a1.71 1.71 0 0 0 1.71 1.711Zm4.953-7.718 6.023 3.48V16.02l-6.023-3.48Zm6.863 3.48 6.023-3.48v-5.895l-6.023 3.477ZM10.73 11.816l6.024 3.477 6.023-3.477-6.023-3.48Zm-2.66 7.586-3.992 3.996h2.578a6.253 6.253 0 0 1-.156 1.399l-.023.098a5.95 5.95 0 0 1-.461 1.257 5.304 5.304 0 0 1-.262.457c-.117.192-.25.371-.395.547-.046.063-.101.121-.152.18a.898.898 0 0 0-.066.074c-.348.371-.782.727-1.286.82-.222.04-.484.024-.648-.132-.144-.141-.195-.364-.168-.555a1.199 1.199 0 0 1 .11-.328c.019-.04.14-.297.18-.297l-1.696-.043s-.125.34-.172.523v.008c-.086.36-.106.754.039 1.106.129.316.387.562.684.722.492.258 1.07.36 1.62.375 1.66.051 3.266-.797 4.274-2.101.024-.031.047-.067.07-.098.07-.098.137-.195.2-.293.101-.164.199-.332.289-.508.074-.148.144-.3.21-.457.173-.398.31-.82.403-1.257.035-.137.063-.278.082-.418.008-.024.012-.051.016-.075.007-.05.015-.097.02-.148.042-.281.066-.57.073-.856h2.625ZM3.422 6.012l.047.422c.039.312.086.625.16.93.035.148.078.296.129.44.152.466.39.91.715 1.278.25.29.77.824 1.191.586a.578.578 0 0 0 .25-.36c.04-.148.04-.3.035-.449-.004-.504-.023-1-.023-1.496 0-.457.015-.906.066-1.351.016-.137.035-.278.063-.418.07-.426.187-.844.363-1.258.047-.11.098-.219.156-.328.055-.11.121-.235.2-.356.148-.222.328-.445.539-.57a.634.634 0 0 1 .71 0c.016.012.036.023.051.035.078.051.149.113.211.18.027.027.149.203.18.203l2.566-.004c-.031 0-.187-.316-.215-.355a.509.509 0 0 0-.039-.059 4.92 4.92 0 0 0-.199-.297 7.42 7.42 0 0 0-.527-.633A4.747 4.747 0 0 0 8.336.942c-.402-.16-.832-.27-1.266-.27-.746-.008-1.508.281-2.09.742-.007.004-.011.012-.02.016-.542.437-.929 1.011-1.183 1.652a5.427 5.427 0 0 0-.191.57c-.027.106-.05.211-.074.317a6.005 6.005 0 0 0-.063.367 5.956 5.956 0 0 0-.066.824c-.004.145 0 .29.008.434.007.14.02.281.03.418m0 0" style="stroke:none;fill-rule:nonzero;fill:rgb(25.098041%,25.098041%,25.490198%);fill-opacity:1"/></svg>