<svg role="img" viewBox="0 0 35.183 32" xmlns="http://www.w3.org/2000/svg"><path d="M22.336 27.59h-6.438l-1.359 2.808h-1.851V32h12.855v-1.602h-1.848ZM33.543 5.527H10.469V7.2h23.043v17.54H4.722v-6.876h-1.67v6.907a1.64 1.64 0 0 0 1.64 1.636h28.852a1.64 1.64 0 0 0 1.64-1.636V7.164a1.64 1.64 0 0 0-1.64-1.637M3.984 15.969l3.989-3.98H5.645c-.004-.075-.008-.15-.008-.223 0-.453.062-.91.183-1.352A5.021 5.021 0 0 1 8.645 7.2c.015-.008.027-.011.043-.02.347-.144.734-.195.992-.503.113-.133.172-.324.097-.485-.129-.289-.535-.28-.8-.308a6.176 6.176 0 0 0-3.156.55 6.187 6.187 0 0 0-2.77 2.583 6.309 6.309 0 0 0-.48 1.105 6.169 6.169 0 0 0-.29 1.867H0l2.57 2.567Zm8.704 3.176 6.011 3.46v-5.867l-6.012-3.465Zm12.855 0v-5.872l-6.008 3.465v5.867ZM13.105 12.55l6.012 3.466 6.012-3.465-6.012-3.465Zm0 0" style="stroke:none;fill-rule:nonzero;fill:rgb(25.098041%,25.098041%,25.490198%);fill-opacity:1"/></svg>