<svg role="img" viewBox="0 0 33.508 32" xmlns="http://www.w3.org/2000/svg"><path d="M20.11 27.395h-6.715l-1.415 2.93h-1.93V32h13.403v-1.676h-1.926ZM31.797 4.336h-1.504v1.672h1.504c.02 0 .035.015.035.035v18.398c0 .02-.016.036-.035.036H1.707c-.016 0-.031-.016-.031-.036V6.043c0-.02.015-.035.031-.035h20.535V4.336H1.707A1.71 1.71 0 0 0 0 6.043v18.398a1.71 1.71 0 0 0 1.707 1.711h30.09a1.71 1.71 0 0 0 1.71-1.71v-18.4a1.71 1.71 0 0 0-1.71-1.707M10.309 18.434l6.027 3.48v-5.898l-6.027-3.477Zm6.863 3.48 6.023-3.48v-5.895l-6.023 3.477ZM10.73 11.813l6.024 3.48 6.023-3.48-6.023-3.477Zm12.645-7.477.184 1.672.105.98.133 1.227a.504.504 0 0 0 .5.453h4.254a.508.508 0 0 0 .504-.453l.129-1.227.105-.98.184-1.672.09-.832.062-.574h-6.398l.062.574Zm1.684 3.363c-.008 0-.016.004-.028.004a.309.309 0 0 1-.304-.281l-.043-.43-.094-.98-.16-1.676-.032-.344a.307.307 0 0 1 .274-.336.311.311 0 0 1 .34.278l.039.402.16 1.676.094.98.035.371a.31.31 0 0 1-.281.336m1.668-.308a.31.31 0 0 1-.309.312.31.31 0 0 1-.309-.312V3.965a.31.31 0 0 1 .309-.313.31.31 0 0 1 .309.313Zm1.535-1.383-.094.98-.043.434a.31.31 0 0 1-.309.277h-.027a.309.309 0 0 1-.277-.34l.035-.37.094-.981.16-1.672.039-.402a.313.313 0 0 1 .336-.282c.168.02.293.168.277.34l-.035.344Zm1.363-4.434h-1.41A1.806 1.806 0 0 0 26.425 0c-.917 0-1.675.688-1.788 1.574h-1.41v.754h6.398Zm-4.152 0a.984.984 0 0 1 .953-.75c.46 0 .847.32.953.75Zm0 0" style="stroke:none;fill-rule:nonzero;fill:rgb(25.098041%,25.098041%,25.490198%);fill-opacity:1"/></svg>