<?xml version="1.0" encoding="utf-8"?>
<!-- Generator: Adobe Illustrator 25.4.1, SVG Export Plug-In . SVG Version: 6.00 Build 0)  -->
<svg version="1.1" id="Layer_1" xmlns="http://www.w3.org/2000/svg" xmlns:xlink="http://www.w3.org/1999/xlink" x="0px" y="0px"
	 viewBox="0 0 200 191" style="enable-background:new 0 0 200 191;" xml:space="preserve">
<style type="text/css">
	.st0{fill:#404041;}
</style>
<g>
	<polygon class="st0" points="120.03,163.5 79.96,163.5 71.51,181 59.99,181 59.99,191 139.99,191 139.99,181 128.48,181 	"/>
	<path class="st0" d="M189.79,25.87h-8.98v10h8.98c0.11,0,0.21,0.09,0.21,0.21v109.8c0,0.12-0.1,0.21-0.21,0.21H10.2
		c-0.11,0-0.2-0.09-0.2-0.21V36.08c0-0.12,0.09-0.21,0.2-0.21h122.55v-10H10.2C4.57,25.87,0,30.44,0,36.08v109.8
		c0,5.64,4.57,10.21,10.2,10.21h179.59c5.63,0,10.21-4.57,10.21-10.21V36.08C200,30.44,195.42,25.87,189.79,25.87z"/>
	<polygon class="st0" points="61.54,110.02 97.5,130.79 97.5,95.6 61.54,74.84 	"/>
	<polygon class="st0" points="102.5,130.79 138.45,110.02 138.45,74.84 102.5,95.6 	"/>
	<polygon class="st0" points="64.04,70.51 100,91.27 135.95,70.51 100,49.75 	"/>
	<path class="st0" d="M139.53,25.87l1.08,10l0.63,5.85l0.79,7.32c0.17,1.54,1.46,2.7,3,2.7h25.39c1.54,0,2.83-1.16,2.99-2.7
		l0.79-7.32l0.63-5.85l1.08-10l0.54-4.95l0.37-3.44h-38.19l0.37,3.44L139.53,25.87z M149.58,45.96c-0.05,0-0.11,0.01-0.17,0.01
		c-0.93,0-1.74-0.72-1.83-1.67l-0.25-2.57l-0.56-5.85l-0.95-10l-0.2-2.04c-0.1-1.02,0.65-1.92,1.65-2.02
		c1.02-0.08,1.92,0.65,2.02,1.66l0.23,2.4l0.96,10l0.56,5.85l0.21,2.21C151.35,44.96,150.6,45.86,149.58,45.96z M159.52,44.12
		c0,1.02-0.82,1.85-1.84,1.85c-1.02,0-1.85-0.83-1.85-1.85v-2.39v-5.85v-10v-2.22c0-1.02,0.83-1.85,1.85-1.85
		c1.02,0,1.84,0.83,1.84,1.85v2.22v10v5.85V44.12z M168.68,35.87l-0.56,5.85l-0.25,2.57c-0.09,0.95-0.89,1.67-1.83,1.67
		c-0.06,0-0.12-0.01-0.18-0.01c-1.01-0.1-1.75-1-1.66-2.02l0.21-2.21l0.56-5.85l0.96-10l0.23-2.4c0.1-1.01,1-1.75,2.01-1.66
		c1.01,0.1,1.76,1,1.66,2.02l-0.2,2.04L168.68,35.87z"/>
	<path class="st0" d="M176.82,9.4h-8.42c-0.68-5.29-5.2-9.4-10.68-9.4c-5.47,0-9.99,4.11-10.67,9.4h-8.42v4.49h38.19V9.4z
		 M152.04,9.4c0.62-2.57,2.93-4.48,5.68-4.48c2.76,0,5.07,1.91,5.69,4.48H152.04z"/>
</g>
</svg>
