<?xml version="1.0" encoding="utf-8"?>
<!-- Generator: Adobe Illustrator 25.4.1, SVG Export Plug-In . SVG Version: 6.00 Build 0)  -->
<svg version="1.1" id="Layer_1" xmlns="http://www.w3.org/2000/svg" xmlns:xlink="http://www.w3.org/1999/xlink" x="0px" y="0px"
	 viewBox="0 0 200 191" style="enable-background:new 0 0 200 191;" xml:space="preserve">
<style type="text/css">
	.st0{fill:#404041;}
</style>
<g>
	<polygon class="st0" points="120.03,163.51 79.97,163.51 71.51,181.01 60,181.01 60,191 140,191 140,181.01 128.48,181.01 	"/>
	<path class="st0" d="M189.79,25.98h-8.98v9.99h8.98c0.12,0,0.21,0.09,0.21,0.21v109.73c0,0.12-0.09,0.21-0.21,0.21H10.21
		c-0.12,0-0.21-0.09-0.21-0.21V36.18c0-0.12,0.09-0.21,0.21-0.21h100.01v-9.99H10.21C4.57,25.98,0,30.55,0,36.18v109.73
		c0,5.64,4.57,10.2,10.21,10.2h179.58c5.64,0,10.21-4.57,10.21-10.2V36.18C200,30.55,195.43,25.98,189.79,25.98z"/>
	<path class="st0" d="M124.29,35.97l5.85,5.85l12.84,12.84V41.82v-1.08c0.45-0.02,0.89-0.05,1.34-0.05c2.73,0,5.46,0.37,8.09,1.11
		c0.02,0.01,0.05,0.01,0.07,0.02c5.72,1.63,10.89,4.99,14.7,9.54c1.91,2.28,3.48,4.84,4.63,7.58c0.88,2.08,1.18,4.39,3.02,5.94
		c0.79,0.68,1.95,1.03,2.9,0.59c1.73-0.79,1.69-3.21,1.84-4.8c0.1-1.11,0.15-2.22,0.15-3.33c0-5.34-1.18-10.67-3.44-15.51
		c0-0.01-0.01-0.02-0.01-0.03c-0.95-2.04-2.1-3.99-3.42-5.82c-2-2.81-4.41-5.33-7.12-7.47c-1.16-0.92-2.38-1.76-3.64-2.53
		c-3.67-2.24-7.72-3.83-11.94-4.66c-0.55-0.11-1.1-0.2-1.65-0.29c-1.82-0.27-3.67-0.41-5.52-0.41V7l-14.04,14.03l-4.95,4.95h0
		l-4.85,4.85L124.29,35.97L124.29,35.97z"/>
	<polygon class="st0" points="61.54,110.08 97.5,130.83 97.5,95.66 61.54,74.91 	"/>
	<polygon class="st0" points="138.46,74.91 102.5,95.66 102.5,130.83 138.46,110.08 	"/>
	<polygon class="st0" points="135.96,70.59 100,49.84 64.04,70.59 100,91.34 	"/>
</g>
</svg>
