<?xml version="1.0" encoding="UTF-8"?>
<svg xmlns="http://www.w3.org/2000/svg" xmlns:xlink="http://www.w3.org/1999/xlink" width="33.507853" height="32" viewBox="0 0 33.507853 32" version="1.1">
<g id="surface1">
<path style=" stroke:none;fill-rule:nonzero;fill:rgb(25.098041%,25.098041%,25.490198%);fill-opacity:1;" d="M 20.109375 27.394531 L 13.394531 27.394531 L 11.980469 30.324219 L 10.050781 30.324219 L 10.050781 32 L 23.453125 32 L 23.453125 30.324219 L 21.527344 30.324219 Z M 20.109375 27.394531 "/>
<path style=" stroke:none;fill-rule:nonzero;fill:rgb(25.098041%,25.098041%,25.490198%);fill-opacity:1;" d="M 31.796875 4.335938 L 30.292969 4.335938 L 30.292969 6.007812 L 31.796875 6.007812 C 31.816406 6.007812 31.832031 6.023438 31.832031 6.042969 L 31.832031 24.441406 C 31.832031 24.460938 31.816406 24.476562 31.796875 24.476562 L 1.707031 24.476562 C 1.691406 24.476562 1.675781 24.460938 1.675781 24.441406 L 1.675781 6.042969 C 1.675781 6.023438 1.691406 6.007812 1.707031 6.007812 L 22.242188 6.007812 L 22.242188 4.335938 L 1.707031 4.335938 C 0.765625 4.335938 0 5.101562 0 6.042969 L 0 24.441406 C 0 25.386719 0.765625 26.152344 1.707031 26.152344 L 31.796875 26.152344 C 32.742188 26.152344 33.507812 25.386719 33.507812 24.441406 L 33.507812 6.042969 C 33.507812 5.101562 32.742188 4.335938 31.796875 4.335938 Z M 31.796875 4.335938 "/>
<path style=" stroke:none;fill-rule:nonzero;fill:rgb(25.098041%,25.098041%,25.490198%);fill-opacity:1;" d="M 10.308594 18.433594 L 16.335938 21.914062 L 16.335938 16.015625 L 10.308594 12.539062 Z M 10.308594 18.433594 "/>
<path style=" stroke:none;fill-rule:nonzero;fill:rgb(25.098041%,25.098041%,25.490198%);fill-opacity:1;" d="M 17.171875 21.914062 L 23.195312 18.433594 L 23.195312 12.539062 L 17.171875 16.015625 Z M 17.171875 21.914062 "/>
<path style=" stroke:none;fill-rule:nonzero;fill:rgb(25.098041%,25.098041%,25.490198%);fill-opacity:1;" d="M 10.730469 11.8125 L 16.753906 15.292969 L 22.777344 11.8125 L 16.753906 8.335938 Z M 10.730469 11.8125 "/>
<path style=" stroke:none;fill-rule:nonzero;fill:rgb(25.098041%,25.098041%,25.490198%);fill-opacity:1;" d="M 23.375 4.335938 L 23.558594 6.007812 L 23.664062 6.988281 L 23.796875 8.214844 C 23.824219 8.472656 24.039062 8.667969 24.296875 8.667969 L 28.550781 8.667969 C 28.808594 8.667969 29.027344 8.472656 29.054688 8.214844 L 29.183594 6.988281 L 29.289062 6.007812 L 29.472656 4.335938 L 29.5625 3.503906 L 29.625 2.929688 L 23.226562 2.929688 L 23.289062 3.503906 Z M 25.058594 7.699219 C 25.050781 7.699219 25.042969 7.703125 25.03125 7.703125 C 24.875 7.703125 24.742188 7.582031 24.726562 7.421875 L 24.683594 6.992188 L 24.589844 6.011719 L 24.429688 4.335938 L 24.398438 3.992188 C 24.378906 3.824219 24.507812 3.671875 24.671875 3.65625 C 24.84375 3.640625 24.996094 3.765625 25.011719 3.933594 L 25.050781 4.335938 L 25.210938 6.011719 L 25.304688 6.992188 L 25.339844 7.363281 C 25.355469 7.53125 25.230469 7.683594 25.058594 7.699219 Z M 26.726562 7.390625 C 26.726562 7.5625 26.589844 7.703125 26.417969 7.703125 C 26.246094 7.703125 26.109375 7.5625 26.109375 7.390625 L 26.109375 3.964844 C 26.109375 3.792969 26.246094 3.652344 26.417969 3.652344 C 26.589844 3.652344 26.726562 3.792969 26.726562 3.964844 Z M 28.261719 6.007812 L 28.167969 6.988281 L 28.125 7.421875 C 28.109375 7.578125 27.976562 7.699219 27.816406 7.699219 C 27.808594 7.699219 27.796875 7.699219 27.789062 7.699219 C 27.617188 7.683594 27.496094 7.53125 27.511719 7.359375 L 27.546875 6.988281 L 27.640625 6.007812 L 27.800781 4.335938 L 27.839844 3.933594 C 27.855469 3.761719 28.007812 3.640625 28.175781 3.652344 C 28.34375 3.671875 28.46875 3.820312 28.453125 3.992188 L 28.417969 4.335938 Z M 28.261719 6.007812 "/>
<path style=" stroke:none;fill-rule:nonzero;fill:rgb(25.098041%,25.098041%,25.490198%);fill-opacity:1;" d="M 29.625 1.574219 L 28.214844 1.574219 C 28.101562 0.6875 27.34375 0 26.425781 0 C 25.507812 0 24.75 0.6875 24.636719 1.574219 L 23.226562 1.574219 L 23.226562 2.328125 L 29.625 2.328125 Z M 25.472656 1.574219 C 25.578125 1.144531 25.964844 0.824219 26.425781 0.824219 C 26.886719 0.824219 27.273438 1.144531 27.378906 1.574219 Z M 25.472656 1.574219 "/>
</g>
</svg>
