<svg xmlns="http://www.w3.org/2000/svg" width="32" height="28" stroke="#000" stroke-linecap="round" stroke-linejoin="round" fill="#fff" fill-rule="evenodd"><path d="M3.352 27.217H0V10.392C0 8.6645.709 7.62 1.302 7.04c1.315-1.29 3.1-1.328 3.391-1.328h5.273c1.8825 0 2.965.76 3.5585 1.4 1.173 1.2765 1.186 2.9265 1.16 3.365v6.3435c0 1.831-.748 2.914-1.3665 3.494-1.2765 1.199-2.965 1.225-3.365 1.212H3.352zm6.73-9.051c.18 0 .6835-.0515.954-.31.2065-.1935.31-.5415.31-1.05v-6.51c0-.18-.0385-.6575-.2965-.9285-.25-.258-.722-.31-1.083-.31h-5.3c-1.315 0-1.315.9925-1.315 1.328v7.775zM28.648 0H32v16.8385c0 1.7275-.709 2.772-1.302 3.352-1.315 1.29-3.1 1.328-3.391 1.328h-5.273c-1.8825 0-2.965-.76-3.5585-1.4-1.173-1.2765-1.186-2.9265-1.16-3.365v-6.335c0-1.831.748-2.914 1.3665-3.494 1.2765-1.199 2.965-1.225 3.365-1.212h6.601zm-6.73 9.0585c-.18 0-.6835.0515-.954.31-.2065.1935-.31.5415-.31 1.05v6.51c0 .18.0385.6575.2965.9285.25.258.722.31 1.083.31h5.299c1.328-.013 1.328-1 1.328-1.341V9.0585z" stroke="none" fill="#25c151" fill-rule="nonzero"/></svg>