<svg role="img" viewBox="0 0 36.571 32" xmlns="http://www.w3.org/2000/svg"><path d="M3.832 31.105H0v-19.23c0-1.973.809-3.168 1.488-3.828 1.504-1.477 3.543-1.52 3.875-1.52h6.028c2.152 0 3.386.871 4.066 1.602 1.34 1.457 1.355 3.344 1.324 3.844v7.25c0 2.093-.855 3.332-1.562 3.992-1.457 1.37-3.387 1.402-3.844 1.387H3.832Zm7.691-10.343c.204 0 .782-.059 1.09-.356.235-.218.356-.617.356-1.199v-7.441c0-.203-.047-.75-.34-1.059-.285-.297-.824-.355-1.238-.355H5.332c-1.5 0-1.5 1.132-1.5 1.52v8.882ZM32.743 0h3.827v19.242c0 1.977-.808 3.168-1.488 3.832-1.5 1.477-3.543 1.52-3.875 1.52h-6.023c-2.153 0-3.391-.871-4.07-1.602-1.34-1.457-1.356-3.344-1.325-3.844v-7.242c0-2.094.856-3.328 1.563-3.992 1.457-1.371 3.386-1.398 3.843-1.387h7.547ZM25.05 10.352c-.207 0-.781.058-1.094.355-.234.223-.352.617-.352 1.2v7.44c0 .204.043.75.34 1.06.285.296.825.355 1.235.355h6.058c1.516-.016 1.516-1.14 1.516-1.532v-8.878Zm0 0" style="stroke:none;fill-rule:nonzero;fill:rgb(14.509805%,75.686276%,31.764707%);fill-opacity:1"/></svg>