<svg xmlns="http://www.w3.org/2000/svg" width="32" height="17" stroke="#000" stroke-linecap="round" stroke-linejoin="round" fill="#fff" fill-rule="evenodd"><defs><radialGradient cx="30%" cy="18%" fx="30%" fy="18%" id="A" r="86%" spreadMethod="pad"><stop offset="0%" stop-color="#aeb2d5"/><stop offset=".3%" stop-color="#aeb2d5"/><stop offset=".75%" stop-color="#484c89"/></radialGradient></defs><g stroke="none" fill-rule="nonzero"><path d="M0 8.3018c0 4.5848 7.1636 8.3017 16 8.3017s16-3.7169 16-8.3017S24.8364 0 16 0 0 3.717 0 8.3018" fill="url(#A)"/><path d="M16 15.9871c8.4913 0 15.375-3.4408 15.375-7.6853S24.4913.6165 16 .6165.625 4.0573.625 8.3018 7.5087 15.9871 16 15.9871" fill="#777bb3"/><path d="M8.6929 9.2546c.6982 0 1.2194-.127 1.5492-.3767s.5516-.6771.6697-1.276c.1101-.5597.0682-.9505-.1246-1.1614s-.6235-.3247-1.267-.3247H8.4045l-.6192 3.1394h.907zm-3.6495 3.8672c-.0518 0-.101-.0229-.134-.0624s-.0463-.0913-.0364-.1415l1.6393-8.3195c.0159-.0804.0874-.1385.1705-.1385h3.5332c1.1104 0 1.9369.2968 2.4564.884s.6836 1.414.4793 2.4499c-.0831.422-.226.8139-.4247 1.1644s-.4621.6764-.7813.9664c-.3828.3534-.8162.6097-1.2868.7605-.4631.1488-1.0579.2244-1.7678.2244H7.4604l-.4085 2.0732a.173.173 0 0 1-.1704.1386H5.0434z" fill="#000"/><path d="M8.5476 6.2864h.9727c.7766 0 1.0465.1681 1.1382.2683.152.1663.1807.517.083 1.0141-.1098.5566-.3134.9512-.6052 1.1727-.2987.2269-.7844.3418-1.4433.3418h-.6965l.5511-2.7969zm1.6684-1.9978H6.6828c-.1662 0-.3091.1162-.3408.2771l-1.6393 8.3196a.339.339 0 0 0 .0729.2831.349.349 0 0 0 .2679.1247h1.8374c.1662 0 .3091-.1162.3408-.2772l.3813-1.9347h1.2876c.7281 0 1.3411-.0783 1.8217-.2327.4942-.1584.9491-.427 1.3515-.7982.3329-.3021.6077-.6411.8149-1.0079s.357-.7759.4437-1.2159c.215-1.0905.0403-1.9637-.5191-2.5952-.5539-.6255-1.4244-.9426-2.5871-.9426M7.5754 9.4259H8.693c.7407 0 1.2926-.137 1.6551-.4129s.6072-.7349.7343-1.3789c.1215-.6183.0662-1.0546-.1661-1.3089s-.6979-.3813-1.3959-.3813H8.2615l-.6861 3.4819m2.6408-4.7947c1.0629 0 1.8383.2751 2.3257.8254s.6341 1.3184.4397 2.3046c-.0801.4062-.2154.7776-.406 1.1142s-.4399.6446-.7478.9238c-.3669.3386-.7745.5799-1.223.7237s-1.0197.2159-1.7141.2159H7.3169l-.4358 2.2119H5.0437l1.6391-8.3195h3.5333"/><path d="M17.3647 10.9099c-.0518 0-.1009-.0228-.1339-.0623a.17.17 0 0 1-.0364-.1416l.7251-3.6817c.069-.35.052-.6013-.0479-.7075-.0611-.0649-.2447-.1737-.7874-.1737h-1.3138l-.9117 4.6276a.173.173 0 0 1-.1705.1386h-1.8229c-.0518 0-.101-.0229-.1339-.0623s-.0464-.0914-.0365-.1416l1.6393-8.3195c.0159-.0804.0874-.1385.1705-.1385h1.8229c.0518 0 .101.0228.1339.0623s.0464.0914.0365.1416l-.3956 2.008h1.4133c1.0767 0 1.8067.1872 2.2321.5724.434.3929.5687 1.0217.402 1.8676l-.7627 3.8715a.173.173 0 0 1-.1705.1386h-1.8518z" fill="#000"/><path d="M16.3275 2.0768h-1.8229c-.1662 0-.3091.1162-.3409.2771l-1.6393 8.3195a.339.339 0 0 0 .0729.2831c.066.0789.1642.1247.2679.1247h1.8229c.1663 0 .3092-.1162.3409-.2772l.8844-4.489h1.1707c.5419 0 .6556.1141.6602.119.0328.0343.0761.1964.0047.5583l-.7251 3.6816a.339.339 0 0 0 .073.2832.349.349 0 0 0 .2679.1246h1.8518c.1662 0 .3092-.1162.3409-.2771l.7627-3.8715c.179-.9087.0259-1.5905-.4549-2.0263-.4587-.4156-1.2273-.6176-2.3495-.6176h-1.2033l.3554-1.804a.339.339 0 0 0-.0729-.2833.349.349 0 0 0-.2679-.1246m0 .3425l-.4358 2.2119h1.624c1.0218 0 1.7266.1759 2.1146.5273s.5034.9212.349 1.7088l-.7627 3.8714h-1.8518l.7251-3.681c.0825-.4187.0522-.7043-.0911-.8566s-.4483-.2286-.9146-.2286h-1.4565l-.939 4.7662h-1.823l1.6394-8.3194h1.8229"/><path d="M23.0341 9.2546c.6982 0 1.2195-.127 1.5492-.3767s.5516-.677.6698-1.276c.1101-.5597.0682-.9505-.1247-1.1614s-.6234-.3247-1.267-.3247h-1.1157l-.6192 3.1394h.907zm-3.6494 3.8672c-.0518 0-.101-.0229-.1339-.0624a.169.169 0 0 1-.0365-.1415l1.6393-8.3195c.0159-.0804.0874-.1385.1705-.1385h3.5332c1.1111 0 1.9369.2968 2.4565.884s.6828 1.4139.4793 2.4499c-.0832.422-.2261.8139-.4249 1.1644s-.462.6764-.7812.9664c-.3829.3534-.8162.6097-1.2869.7605-.4631.1488-1.0578.2244-1.7678.2244h-1.4314l-.4084 2.0732a.173.173 0 0 1-.1705.1386h-1.8374z" fill="#000"/><path d="M22.8889 6.2864h.9727c.7766 0 1.0464.1681 1.1381.2683.1522.1663.1808.517.083 1.0141-.1098.5565-.3134.9512-.6052 1.1727-.2987.2269-.7843.3418-1.4433.3418h-.6962l.551-2.7969zm1.6684-1.9978h-3.5332c-.1662 0-.3091.1162-.3408.2771l-1.6393 8.3196c-.0198.1004.0069.2042.0729.2831a.349.349 0 0 0 .2679.1247h1.8373c.1663 0 .3092-.1162.3409-.2772l.3812-1.9347h1.2876c.7281 0 1.3411-.0783 1.8218-.2327.4942-.1584.9491-.427 1.3516-.7983.3329-.3026.6069-.641.8147-1.0078s.3571-.7759.4437-1.2159c.215-1.0905.0404-1.9637-.5191-2.5953-.5539-.6254-1.4243-.9425-2.5871-.9425m-2.6408 5.1372h1.1176c.7408 0 1.2926-.137 1.6551-.4129s.6072-.7349.7343-1.3789c.1216-.6183.0663-1.0546-.1661-1.3089s-.6979-.3813-1.3958-.3813h-1.2589l-.6861 3.4819m2.6407-4.7947c1.063 0 1.8384.2751 2.3257.8254s.6341 1.3184.4397 2.3046c-.08.4062-.2154.7776-.406 1.1142s-.4399.6446-.7478.9238c-.3669.3386-.7744.5799-1.2229.7237s-1.0197.2159-1.7142.2159h-1.5738l-.4358 2.2119h-1.8374l1.6394-8.3195h3.5332"/></g></svg>