<?xml version="1.0" encoding="UTF-8"?>
<svg xmlns="http://www.w3.org/2000/svg" xmlns:xlink="http://www.w3.org/1999/xlink" width="60.235001" height="32" viewBox="0 0 60.235001 32" version="1.1">
<defs>
<radialGradient id="radial0" gradientUnits="userSpaceOnUse" cx="0.3" cy="0.18" fx="0.3" fy="0.18" r="0.86" gradientTransform="matrix(60.234379,0,0,31.253901,0,0)">
<stop offset="0" style="stop-color:rgb(68.235296%,69.803923%,83.529413%);stop-opacity:1;"/>
<stop offset="0.003" style="stop-color:rgb(68.235296%,69.803923%,83.529413%);stop-opacity:1;"/>
<stop offset="0.007" style="stop-color:rgb(28.235295%,29.803923%,53.725493%);stop-opacity:1;"/>
</radialGradient>
</defs>
<g id="surface1">
<path style=" stroke:none;fill-rule:nonzero;fill:url(#radial0);" d="M 0 15.625 C 0 24.257812 13.484375 31.253906 30.117188 31.253906 C 46.75 31.253906 60.234375 24.257812 60.234375 15.625 C 60.234375 6.996094 46.75 0 30.117188 0 C 13.484375 0 0 6.996094 0 15.625 "/>
<path style=" stroke:none;fill-rule:nonzero;fill:rgb(46.666667%,48.235294%,70.19608%);fill-opacity:1;" d="M 30.117188 30.09375 C 46.101562 30.09375 59.058594 23.617188 59.058594 15.625 C 59.058594 7.636719 46.101562 1.160156 30.117188 1.160156 C 14.132812 1.160156 1.175781 7.636719 1.175781 15.625 C 1.175781 23.617188 14.132812 30.09375 30.117188 30.09375 "/>
<path style=" stroke:none;fill-rule:nonzero;fill:rgb(0%,0%,0%);fill-opacity:1;" d="M 16.363281 17.421875 C 17.675781 17.421875 18.660156 17.179688 19.277344 16.710938 C 19.898438 16.242188 20.316406 15.4375 20.539062 14.308594 C 20.746094 13.257812 20.667969 12.519531 20.304688 12.125 C 19.941406 11.726562 19.132812 11.511719 17.921875 11.511719 L 15.820312 11.511719 L 14.65625 17.421875 Z M 9.492188 24.699219 C 9.394531 24.699219 9.304688 24.65625 9.242188 24.582031 C 9.179688 24.507812 9.15625 24.410156 9.171875 24.316406 L 12.257812 8.65625 C 12.289062 8.503906 12.421875 8.394531 12.578125 8.394531 L 19.230469 8.394531 C 21.320312 8.394531 22.875 8.953125 23.855469 10.058594 C 24.832031 11.164062 25.140625 12.722656 24.757812 14.671875 C 24.609375 15.441406 24.339844 16.179688 23.957031 16.863281 C 23.566406 17.542969 23.070312 18.15625 22.484375 18.679688 C 21.792969 19.332031 20.964844 19.820312 20.0625 20.113281 C 19.191406 20.394531 18.074219 20.535156 16.734375 20.535156 L 14.042969 20.535156 L 13.273438 24.4375 C 13.242188 24.589844 13.109375 24.699219 12.953125 24.699219 Z M 9.492188 24.699219 "/>
<path style=" stroke:none;fill-rule:nonzero;fill:rgb(100%,100%,100%);fill-opacity:1;" d="M 16.089844 11.832031 L 17.921875 11.832031 C 19.382812 11.832031 19.890625 12.148438 20.0625 12.339844 C 20.347656 12.652344 20.402344 13.3125 20.21875 14.246094 C 20.011719 15.292969 19.628906 16.039062 19.082031 16.453125 C 18.519531 16.882812 17.605469 17.097656 16.363281 17.097656 L 15.050781 17.097656 Z M 19.230469 8.074219 L 12.578125 8.074219 C 12.269531 8.074219 12 8.289062 11.9375 8.59375 L 8.851562 24.253906 C 8.816406 24.445312 8.867188 24.640625 8.988281 24.789062 C 9.113281 24.9375 9.296875 25.023438 9.492188 25.023438 L 12.953125 25.023438 C 13.265625 25.023438 13.53125 24.804688 13.59375 24.5 L 14.3125 20.859375 L 16.734375 20.859375 C 18.105469 20.859375 19.257812 20.710938 20.164062 20.421875 C 21.109375 20.113281 21.980469 19.597656 22.707031 18.917969 C 23.316406 18.371094 23.835938 17.730469 24.242188 17.019531 C 24.640625 16.304688 24.925781 15.535156 25.078125 14.730469 C 25.480469 12.679688 25.152344 11.035156 24.101562 9.847656 C 23.058594 8.667969 21.417969 8.074219 19.230469 8.074219 M 14.257812 17.742188 L 16.363281 17.742188 C 17.757812 17.742188 18.796875 17.484375 19.480469 16.964844 C 20.160156 16.445312 20.621094 15.582031 20.859375 14.371094 C 21.089844 13.207031 20.984375 12.386719 20.546875 11.90625 C 20.109375 11.425781 19.234375 11.1875 17.921875 11.1875 L 15.550781 11.1875 Z M 19.230469 8.71875 C 21.230469 8.71875 22.691406 9.234375 23.609375 10.269531 C 24.527344 11.308594 24.800781 12.753906 24.4375 14.609375 C 24.296875 15.347656 24.039062 16.054688 23.671875 16.707031 C 23.296875 17.359375 22.824219 17.945312 22.265625 18.445312 C 21.605469 19.0625 20.820312 19.527344 19.960938 19.808594 C 19.117188 20.078125 18.042969 20.214844 16.734375 20.214844 L 13.773438 20.214844 L 12.953125 24.378906 L 9.492188 24.378906 L 12.578125 8.71875 Z M 19.230469 8.71875 "/>
<path style=" stroke:none;fill-rule:nonzero;fill:rgb(0%,0%,0%);fill-opacity:1;" d="M 32.6875 20.535156 C 32.589844 20.535156 32.496094 20.492188 32.433594 20.417969 C 32.371094 20.34375 32.347656 20.246094 32.367188 20.152344 L 33.730469 13.222656 C 33.859375 12.5625 33.828125 12.089844 33.640625 11.890625 C 33.527344 11.769531 33.179688 11.5625 32.160156 11.5625 L 29.683594 11.5625 L 27.96875 20.273438 C 27.9375 20.425781 27.804688 20.535156 27.648438 20.535156 L 24.21875 20.535156 C 24.121094 20.535156 24.027344 20.492188 23.964844 20.417969 C 23.902344 20.34375 23.878906 20.246094 23.894531 20.152344 L 26.980469 4.492188 C 27.011719 4.339844 27.148438 4.230469 27.304688 4.230469 L 30.734375 4.230469 C 30.832031 4.230469 30.925781 4.273438 30.988281 4.347656 C 31.046875 4.421875 31.074219 4.519531 31.054688 4.613281 L 30.308594 8.394531 L 32.972656 8.394531 C 34.996094 8.394531 36.371094 8.746094 37.171875 9.472656 C 37.988281 10.210938 38.242188 11.394531 37.929688 12.988281 L 36.492188 20.273438 C 36.460938 20.425781 36.328125 20.535156 36.171875 20.535156 Z M 32.6875 20.535156 "/>
<path style=" stroke:none;fill-rule:nonzero;fill:rgb(100%,100%,100%);fill-opacity:1;" d="M 30.734375 3.910156 L 27.304688 3.910156 C 26.992188 3.90625 26.722656 4.125 26.660156 4.429688 L 23.574219 20.089844 C 23.539062 20.28125 23.589844 20.476562 23.710938 20.625 C 23.835938 20.773438 24.023438 20.859375 24.21875 20.859375 L 27.648438 20.859375 C 27.960938 20.859375 28.226562 20.640625 28.289062 20.335938 L 29.953125 11.886719 L 32.160156 11.886719 C 33.179688 11.886719 33.390625 12.101562 33.402344 12.109375 C 33.460938 12.175781 33.542969 12.480469 33.410156 13.160156 L 32.046875 20.09375 C 32.007812 20.28125 32.058594 20.476562 32.183594 20.625 C 32.308594 20.773438 32.492188 20.859375 32.6875 20.859375 L 36.171875 20.859375 C 36.480469 20.859375 36.75 20.644531 36.8125 20.339844 L 38.25 13.050781 C 38.585938 11.339844 38.296875 10.058594 37.394531 9.238281 C 36.53125 8.453125 35.082031 8.074219 32.972656 8.074219 L 30.707031 8.074219 L 31.375 4.679688 C 31.414062 4.488281 31.363281 4.292969 31.238281 4.144531 C 31.113281 3.996094 30.929688 3.910156 30.734375 3.910156 M 30.734375 4.554688 L 29.914062 8.71875 L 32.96875 8.71875 C 34.894531 8.71875 36.21875 9.050781 36.949219 9.710938 C 37.679688 10.371094 37.898438 11.445312 37.605469 12.925781 L 36.171875 20.214844 L 32.6875 20.214844 L 34.050781 13.285156 C 34.207031 12.496094 34.148438 11.960938 33.878906 11.671875 C 33.609375 11.386719 33.035156 11.242188 32.15625 11.242188 L 29.417969 11.242188 L 27.648438 20.214844 L 24.21875 20.214844 L 27.304688 4.554688 Z M 30.734375 4.554688 "/>
<path style=" stroke:none;fill-rule:nonzero;fill:rgb(0%,0%,0%);fill-opacity:1;" d="M 43.359375 17.421875 C 44.671875 17.421875 45.652344 17.179688 46.273438 16.710938 C 46.894531 16.242188 47.3125 15.4375 47.535156 14.308594 C 47.742188 13.257812 47.664062 12.519531 47.300781 12.125 C 46.9375 11.726562 46.128906 11.511719 44.914062 11.511719 L 42.816406 11.511719 L 41.648438 17.421875 Z M 36.488281 24.699219 C 36.390625 24.699219 36.300781 24.65625 36.238281 24.582031 C 36.175781 24.507812 36.148438 24.410156 36.167969 24.316406 L 39.253906 8.65625 C 39.285156 8.503906 39.417969 8.394531 39.574219 8.394531 L 46.226562 8.394531 C 48.316406 8.394531 49.871094 8.953125 50.847656 10.058594 C 51.828125 11.164062 52.136719 12.71875 51.75 14.671875 C 51.601562 15.441406 51.332031 16.179688 50.953125 16.863281 C 50.5625 17.542969 50.066406 18.15625 49.480469 18.679688 C 48.789062 19.332031 47.960938 19.820312 47.058594 20.113281 C 46.1875 20.394531 45.066406 20.535156 43.730469 20.535156 L 41.035156 20.535156 L 40.269531 24.4375 C 40.238281 24.589844 40.105469 24.699219 39.949219 24.699219 Z M 36.488281 24.699219 "/>
<path style=" stroke:none;fill-rule:nonzero;fill:rgb(100%,100%,100%);fill-opacity:1;" d="M 43.085938 11.832031 L 44.914062 11.832031 C 46.378906 11.832031 46.886719 12.148438 47.058594 12.339844 C 47.34375 12.652344 47.398438 13.3125 47.214844 14.246094 C 47.007812 15.292969 46.625 16.039062 46.074219 16.453125 C 45.511719 16.882812 44.597656 17.097656 43.359375 17.097656 L 42.046875 17.097656 Z M 46.226562 8.074219 L 39.574219 8.074219 C 39.265625 8.074219 38.996094 8.289062 38.933594 8.59375 L 35.847656 24.253906 C 35.808594 24.445312 35.859375 24.640625 35.984375 24.789062 C 36.109375 24.9375 36.292969 25.023438 36.488281 25.023438 L 39.949219 25.023438 C 40.261719 25.023438 40.527344 24.804688 40.589844 24.5 L 41.308594 20.859375 L 43.730469 20.859375 C 45.101562 20.859375 46.253906 20.710938 47.160156 20.421875 C 48.105469 20.113281 48.976562 19.597656 49.703125 18.917969 C 50.3125 18.371094 50.832031 17.730469 51.238281 17.019531 C 51.636719 16.304688 51.917969 15.535156 52.074219 14.730469 C 52.476562 12.679688 52.148438 11.035156 51.09375 9.847656 C 50.054688 8.667969 48.414062 8.074219 46.226562 8.074219 M 41.253906 17.742188 L 43.359375 17.742188 C 44.753906 17.742188 45.792969 17.484375 46.472656 16.964844 C 47.15625 16.445312 47.617188 15.582031 47.855469 14.371094 C 48.085938 13.207031 47.980469 12.386719 47.542969 11.90625 C 47.105469 11.425781 46.230469 11.1875 44.917969 11.1875 L 42.546875 11.1875 Z M 46.226562 8.71875 C 48.226562 8.71875 49.6875 9.234375 50.601562 10.269531 C 51.519531 11.308594 51.796875 12.753906 51.429688 14.609375 C 51.292969 15.34375 51.035156 16.054688 50.667969 16.707031 C 50.292969 17.359375 49.816406 17.945312 49.257812 18.445312 C 48.601562 19.0625 47.816406 19.527344 46.957031 19.808594 C 46.113281 20.078125 45.039062 20.214844 43.730469 20.214844 L 40.769531 20.214844 L 39.949219 24.378906 L 36.488281 24.378906 L 39.574219 8.71875 Z M 46.226562 8.71875 "/>
</g>
</svg>
