<?xml version="1.0" encoding="utf-8"?>
<!-- Generator: Adobe Illustrator 19.2.1, SVG Export Plug-In . SVG Version: 6.00 Build 0)  -->
<svg version="1.1" id="layer" xmlns="http://www.w3.org/2000/svg" xmlns:xlink="http://www.w3.org/1999/xlink" x="0px" y="0px"
	 viewBox="0 0 652 652" style="enable-background:new 0 0 652 652;" xml:space="preserve">
<style type="text/css">
	.st0{fill:#E3002C;}
	.st1{fill:#FFFFFF;}
</style>
<g>
	<rect x="71.4" y="76.2" class="st0" width="510.2" height="500"/>
	<g>
		<path class="st1" d="M394.4,515.1c-4.1,0-7.5,3.6-7.5,7.9c0,4.4,3.4,7.9,7.5,7.9c4.1,0,7.5-3.6,7.5-7.9
			C401.9,518.7,398.5,515.1,394.4,515.1 M394.4,529.4c-3.1,0-5.7-2.7-5.7-6.4c0-3.7,2.5-6.4,5.7-6.4c3.1,0,5.7,2.7,5.7,6.4
			C400.1,526.7,397.5,529.4,394.4,529.4"/>
		<path class="st1" d="M397.8,521.1c0-1.9-1.1-2.6-3.1-2.6h-3.2v9h1.6v-3.9h1l2.2,3.9h1.6l-2.3-3.9
			C397,523.4,397.8,522.7,397.8,521.1 M393.1,522.4v-2.6h1.4c0.8,0,1.7,0.2,1.7,1.2c0,1.2-0.8,1.3-1.7,1.3H393.1z"/>
		<path class="st1" d="M374.5,512.4c-1.2,4.5-3.1,11.4-3.1,11.4h-0.2c0,0-1.5-8.4-3-13.5l-10.3-35.2l-7.8,2.8l10.8,34
			c1.7,5.5,4.4,16,5,19.5c0,0,0.5,1.9,1.3,6.1c-2.1,5.9-4.7,8.3-9.6,10l2.3,5.8c8.8-2.3,12.8-9.5,16.2-20.4l17.2-56.3h-9
			L374.5,512.4z"/>
		<path class="st1" d="M344.9,483.2l2.4-6.4h-12.6v-20.6h-8.1v20.6h-6.6v6.4h6.6v37.3c0,5.5,1.3,8.9,4.8,10.8c1.9,1,3.9,1.5,6.6,1.5
			c3.5,0,6.3-0.8,8.9-2.2l-1.1-5.5c-1.4,0.8-2.7,1.1-4.9,1.1c-4.9,0-6.4-2.1-6.4-8.1v-35H344.9z"/>
		<path class="st1" d="M285.6,476.8v-20.6h-8.1v20.6H271v6.4h6.6v37.3c0,5.5,1.3,9,4.8,10.8c1.9,1,3.9,1.5,6.6,1.5
			c3.5,0,6.3-0.8,8.9-2.2l-1.1-5.5c-1.4,0.8-2.7,1.1-4.9,1.1c-4.9,0-6.4-2.1-6.4-8.1v-35h21.8v47.9h8.2v-55.5l-6.9,1.2H285.6z"/>
		<path class="st1" d="M252.8,475.6c-5.3,0-10.6,2.7-15.8,8.4c0-4.5-1.8-8.5-1.8-8.5l-7.7,2.3c0,0,1.9,3.7,1.9,11.4v41.9h7.7v-40.5
			c3.6-4.1,9.9-7.6,13.9-7.6c2.3,0,4.4,0.9,5.5,2.3c1.4,1.9,1.8,3.3,1.8,9.1v36.7h8v-41.2c0-2.2-0.4-4.4-1.2-6.3
			C263.1,478.7,258.2,475.6,252.8,475.6"/>
		<path class="st1" d="M223.3,505.3v-1.2c-0.2-13-1.4-18.1-5.7-22.9c-3.4-3.8-8.2-5.9-13.6-5.9c-6,0-11,2.4-15,7.5
			c-4.2,5.5-6,11.3-6,20.5c0,18,8.4,28.9,22.3,28.9c6.5,0,12.5-2.4,16.9-6.8l-3-5.5c-3.5,3.5-7.5,5.1-12.3,5.1c-5,0-9.7-2-12.5-6.7
			c-1.7-2.8-2.3-6.8-2.3-11.9v-1.3H223.3z M203.5,482c3.8,0,7.4,1.9,9.1,4.8c1.5,2.6,2.2,6.2,2.3,12.1h-23
			C192.3,487.7,196.3,482,203.5,482"/>
		<path class="st1" d="M177.3,513.5v-57.3h-7.9v18.1c0,3.9,0.1,8.4,0.1,8.4c-3-4.4-8-6.9-13.6-6.9c-3.6,0-6.5,1-9.7,3.4
			c-6.9,5.1-10.4,13.6-10.4,25.2c0,17.3,7.5,27.5,20.5,27.5c5.8,0,9.7-1.8,13.3-6.3c0.1,2.8,1.1,5.6,1.1,5.6h8.1
			C177.7,527.9,177.3,522.9,177.3,513.5 M169.3,517.2c0,0-0.9,2.3-3,3.9c-3.2,2.5-5.6,3.5-9.7,3.5c-4.6,0-7.8-1.9-10.1-6.3
			c-1.6-3.2-2-7.9-2-14.2c0-7.6,0.8-11.6,3.2-15.7c2.1-3.7,5.4-5.7,9.4-5.7c5.9,0,9.7,1.9,12.2,5.7V517.2z"/>
		<rect x="123.8" y="456.3" class="st1" width="8.1" height="74.8"/>
		<path class="st1" d="M212.5,283.3c-9.2-5.5-17.7-8.5-45.6-8.5h-43.2v173.7h33.1v-64H175c18.2,0,25.3-2,32.8-5.7
			c17.9-9,28.3-27.5,28.3-50.5C236.1,308.3,227.9,292.3,212.5,283.3 M196,347c-4.5,7.2-8.5,9-21.9,9h-17.2v-53h21
			c13.9,0,22.2,9.8,22.2,26C200,337.3,198.9,342.3,196,347"/>
		<path class="st1" d="M282.7,285.3c0,11.5-8.7,20.7-19.6,20.7c-10.6,0-19.4-9.3-19.4-20.7s9-20.7,19.8-20.7
			C274.2,264.5,282.7,273.8,282.7,285.3 M278.9,317.5v131h-31.6V322.8L278.9,317.5z"/>
		<path class="st1" d="M321.6,317.3c2.8,5.3,4.5,10.7,4.5,16c4.7-3.5,8.7-6.5,13.9-9.5c6.4-3.5,14.6-5.5,21.7-5.5
			c13.5,0,25.3,7.5,29,18.5c1.7,4.7,2.4,10.2,2.4,18.2v93.5H362v-83.2c0-14.5-2.4-18.7-10.6-18.7c-6.4,0-14.6,4.5-21.9,11.5v90.5
			h-31.7v-92.7c0-11-1.4-21.5-4.2-30L321.6,317.3z"/>
		<path class="st1" d="M468,415.7l-17-0.2c-3.3,0-5.2-1.3-5.2-3c0-3.5,4.5-6.5,12.5-10.5c2.4,0.3,3.3,0.3,4.7,0.3
			c25.7,0,44.6-16,44.6-38c0-8.5-2.4-15-7.1-21c1.9,0.2,5.2,0.7,8.3,0.7c8.7,0,15.3-2.8,22.2-9.5l-13.2-21.2c-7.3,7-16.3,11-25,11
			c-4,0-8.3-1-14.9-2.8c-8.7-2.2-14.9-3.2-21.7-3.2c-30.9,0-51,17-51,43.2c0,19,8.5,30.7,26,35.5c-19.8,5.5-22.2,13.2-22.2,21.5
			c0,8.8,3.5,14.5,9.2,16.7c5.7,2.5,14.9,3.7,29,4l13.5,0.3c12.5,0.2,22.2,3.8,22.2,15.2c0,5.3-3.1,10-7.8,13
			c-5,3.3-11.8,4.2-19.8,4.2c-14.6,0-22.7-5.5-22.7-15.7c0-3.5,0.2-5.2,1.4-8.2h-29.3c-1.2,2.5-2.8,6-2.8,13
			c0,8.7,3.3,16.2,9.9,22.7c10.9,10.7,28.6,13.7,45.8,13.7c18.9,0,37.1-4.5,47.7-16.5c6.6-7.5,9.7-15.7,9.7-26.5
			c0-11.5-3.3-20.2-10.4-27.2C496.1,419,486.4,416,468,415.7 M437.1,361.8c0-12,6.9-19,18.9-19c12.1,0,19.1,7,19.1,19
			c0,11.7-6.8,18.2-19.4,18.2C444.6,380,437.1,374.8,437.1,361.8"/>
	</g>
</g>
</svg>
