<svg role="img" viewBox="0 0 32 32" xmlns="http://www.w3.org/2000/svg"><path d="M3.504 3.738h25.039v24.543H3.503Zm0 0" style="stroke:none;fill-rule:nonzero;fill:rgb(89.019608%,0%,17.254902%);fill-opacity:1"/><path d="M19.355 25.281c-.199 0-.367.176-.367.387 0 .215.168.387.367.387a.382.382 0 0 0 .372-.387.382.382 0 0 0-.372-.387m0 .703c-.152 0-.277-.132-.277-.316 0-.18.121-.313.277-.313.153 0 .282.133.282.313 0 .184-.13.316-.282.316m.168-.41c0-.094-.054-.125-.152-.125h-.156v.442h.078v-.192h.05l.106.192h.078l-.113-.192c.07-.012.11-.047.11-.125m-.231.067v-.13h.07c.04 0 .082.009.082.06 0 .058-.039.062-.082.062h-.07Zm-.914-.493c-.059.223-.152.559-.152.559h-.008s-.074-.41-.149-.66l-.504-1.73-.382.14.527 1.668c.086.27.219.785.246.957 0 0 .027.094.066.297-.105.293-.23.41-.472.492l.113.285c.434-.113.629-.465.793-1l.848-2.765h-.442Zm-1.453-1.433.12-.313h-.62v-1.011h-.395v1.011h-.324v.313h.324v1.832c0 .27.063.437.235.527a.637.637 0 0 0 .324.074.92.92 0 0 0 .437-.105l-.054-.27a.446.446 0 0 1-.243.051c-.238 0-.312-.101-.312-.394v-1.72h.508Zm-2.91-.313v-1.011h-.395v1.011h-.32v.313h.324v1.832c0 .27.063.441.234.527a.643.643 0 0 0 .325.074.922.922 0 0 0 .437-.105l-.055-.27a.432.432 0 0 1-.238.051c-.242 0-.316-.101-.316-.394v-1.72h1.07v2.352h.402v-2.726l-.34.059h-1.128Zm-1.61-.058c-.258 0-.52.133-.773.41 0-.219-.09-.418-.09-.418l-.379.113s.094.184.094.563v2.054h.379v-1.988c.175-.2.484-.371.683-.371a.34.34 0 0 1 .27.113c.066.09.086.16.086.446v1.8h.394v-2.023a.818.818 0 0 0-.058-.309.649.649 0 0 0-.606-.39M10.96 24.8v-.058c-.01-.64-.07-.89-.28-1.125a.877.877 0 0 0-.668-.289.89.89 0 0 0-.735.367c-.207.27-.297.555-.297 1.008 0 .883.415 1.418 1.094 1.418.32 0 .617-.117.832-.336l-.148-.27a.808.808 0 0 1-.602.25c-.246 0-.476-.097-.613-.328-.086-.136-.113-.332-.113-.582v-.066h1.53Zm-.972-1.144c.188 0 .364.094.446.235.074.129.109.304.113.593H9.418c.02-.547.215-.828.57-.828m-1.285 1.547v-2.812h-.39v.886c0 .192.007.414.007.414a.8.8 0 0 0-.668-.34.745.745 0 0 0-.476.169c-.34.25-.512.668-.512 1.234 0 .851.367 1.351 1.008 1.351.285 0 .476-.09.652-.308a.985.985 0 0 0 .055.273h.398c-.054-.16-.074-.406-.074-.867m-.394.18s-.043.113-.149.191a.663.663 0 0 1-.473.172c-.226 0-.382-.094-.496-.308-.078-.157-.097-.387-.097-.696 0-.375.039-.57.156-.773a.515.515 0 0 1 .46-.278c.29 0 .478.094.599.278Zm-2.235-2.988h.399v3.671h-.399Zm4.356-8.493c-.453-.27-.867-.414-2.239-.414h-2.12v8.524h1.624v-3.14h.895c.89 0 1.242-.099 1.61-.282.878-.442 1.386-1.348 1.386-2.477 0-.98-.402-1.765-1.156-2.21m-.81 3.127c-.223.352-.418.442-1.078.442h-.844V14.87H8.73c.684 0 1.09.48 1.09 1.277-.004.407-.058.653-.199.883m4.254-3.026c0 .562-.426 1.016-.96 1.016-.52 0-.954-.457-.954-1.016 0-.563.441-1.016.973-1.016.523-.008.941.45.941 1.016m-.187 1.578v6.43h-1.551v-6.168Zm2.097-.008c.137.258.219.524.219.785.23-.172.43-.32.683-.468.313-.172.715-.27 1.067-.27.66 0 1.238.367 1.422.91.082.23.117.5.117.89v4.59h-1.527V17.93c0-.711-.118-.918-.52-.918-.312 0-.715.218-1.074.562v4.442h-1.555v-4.547c0-.543-.07-1.055-.207-1.473Zm7.184 4.828-.832-.007c-.164 0-.258-.067-.258-.149 0-.172.223-.32.613-.516.117.016.164.016.23.016 1.262 0 2.192-.785 2.192-1.867 0-.418-.117-.734-.352-1.031.094.011.258.035.41.035.426 0 .75-.137 1.09-.465l-.648-1.043c-.36.344-.8.543-1.227.543-.199 0-.41-.05-.73-.14-.43-.106-.734-.157-1.066-.157-1.516 0-2.504.836-2.504 2.121 0 .934.418 1.508 1.277 1.742-.973.27-1.09.649-1.09 1.055 0 .434.172.711.45.82.28.121.734.184 1.425.196l.66.015c.614.012 1.09.188 1.09.746 0 .262-.152.493-.383.637-.242.164-.578.207-.968.207-.72 0-1.118-.27-1.118-.77 0-.171.012-.253.07-.402h-1.437a1.305 1.305 0 0 0-.136.637c0 .43.16.797.484 1.113.535.528 1.402.676 2.246.676.93 0 1.824-.223 2.344-.812.324-.368.476-.77.476-1.301 0-.563-.164-.992-.511-1.332-.418-.407-.895-.551-1.797-.567m-1.516-2.644c0-.59.34-.934.926-.934.594 0 .937.344.937.934 0 .574-.332.89-.949.89-.547 0-.914-.253-.914-.89" style="stroke:none;fill-rule:nonzero;fill:rgb(100%,100%,100%);fill-opacity:1"/></svg>