<?xml version="1.0" encoding="UTF-8"?>
<svg xmlns="http://www.w3.org/2000/svg" xmlns:xlink="http://www.w3.org/1999/xlink" width="32" height="32" viewBox="0 0 32 32" version="1.1">
<g id="surface1">
<path style=" stroke:none;fill-rule:nonzero;fill:rgb(17.647059%,27.058825%,32.156864%);fill-opacity:1;" d="M 10.886719 17.457031 C 9.769531 17.773438 9.035156 18.332031 8.550781 18.886719 C 9.011719 18.484375 9.632812 18.109375 10.472656 17.875 C 11.328125 17.628906 12.058594 17.632812 12.664062 17.75 L 12.664062 17.277344 C 12.148438 17.230469 11.558594 17.265625 10.886719 17.457031 M 8.496094 13.488281 L 4.339844 14.582031 C 4.339844 14.582031 4.414062 14.6875 4.554688 14.832031 L 8.082031 13.902344 C 8.082031 13.902344 8.03125 14.546875 7.597656 15.125 C 8.417969 14.503906 8.496094 13.488281 8.496094 13.488281 M 11.980469 23.261719 C 6.125 24.839844 3.03125 18.054688 2.09375 14.535156 C 1.660156 12.910156 1.46875 11.679688 1.421875 10.882812 C 1.414062 10.8125 1.417969 10.742188 1.421875 10.667969 C 1.121094 10.6875 0.972656 10.84375 1.003906 11.300781 C 1.054688 12.09375 1.242188 13.324219 1.675781 14.949219 C 2.613281 18.46875 5.710938 25.253906 11.5625 23.679688 C 12.835938 23.335938 13.792969 22.710938 14.511719 21.910156 C 13.851562 22.507812 13.023438 22.980469 11.980469 23.261719 M 13.078125 9.335938 L 13.078125 9.753906 L 15.375 9.753906 C 15.328125 9.605469 15.28125 9.472656 15.234375 9.335938 Z M 15.886719 12.765625 C 16.921875 13.058594 17.464844 13.785156 17.753906 14.425781 L 18.90625 14.75 C 18.90625 14.75 18.75 12.507812 16.722656 11.933594 C 14.824219 11.394531 13.65625 12.988281 13.515625 13.191406 C 14.066406 12.800781 14.875 12.476562 15.886719 12.765625 M 25.050781 14.433594 C 23.152344 13.894531 21.988281 15.488281 21.847656 15.691406 C 22.398438 15.300781 23.203125 14.976562 24.21875 15.265625 C 25.25 15.5625 25.796875 16.285156 26.085938 16.925781 L 27.238281 17.253906 C 27.238281 17.253906 27.078125 15.011719 25.050781 14.433594 M 23.910156 20.347656 L 14.332031 17.667969 C 14.332031 17.667969 14.433594 18.195312 14.835938 18.875 L 22.898438 21.128906 C 23.558594 20.746094 23.910156 20.347656 23.910156 20.347656 M 17.269531 26.109375 C 9.6875 24.074219 10.601562 14.414062 11.832031 9.835938 C 12.335938 7.949219 12.855469 6.546875 13.285156 5.605469 C 13.027344 5.554688 12.816406 5.6875 12.605469 6.117188 C 12.148438 7.042969 11.5625 8.554688 10.996094 10.667969 C 9.769531 15.246094 8.855469 24.90625 16.4375 26.941406 C 20.011719 27.898438 22.792969 26.441406 24.871094 24.15625 C 22.898438 25.941406 20.382812 26.941406 17.269531 26.109375 "/>
<path style=" stroke:none;fill-rule:nonzero;fill:rgb(88.627452%,34.117648%,29.803923%);fill-opacity:1;" d="M 13.078125 20.996094 L 13.078125 19.046875 L 7.664062 20.585938 C 7.664062 20.585938 8.0625 18.257812 10.886719 17.457031 C 11.746094 17.214844 12.476562 17.214844 13.078125 17.332031 L 13.078125 9.335938 L 15.792969 9.335938 C 15.496094 8.421875 15.210938 7.71875 14.972656 7.230469 C 14.574219 6.425781 14.167969 6.960938 13.242188 7.734375 C 12.59375 8.277344 10.949219 9.4375 8.476562 10.101562 C 6 10.769531 4 10.59375 3.164062 10.449219 C 1.980469 10.242188 1.363281 9.984375 1.421875 10.882812 C 1.472656 11.679688 1.660156 12.910156 2.09375 14.535156 C 3.03125 18.054688 6.128906 24.839844 11.980469 23.261719 C 13.507812 22.847656 14.589844 22.035156 15.335938 20.996094 Z M 4.339844 14.582031 L 8.496094 13.488281 C 8.496094 13.488281 8.375 15.085938 6.816406 15.5 C 5.257812 15.910156 4.339844 14.582031 4.339844 14.582031 "/>
<path style=" stroke:none;fill-rule:nonzero;fill:rgb(18.039216%,67.843139%,20%);fill-opacity:1;" d="M 28.734375 9.429688 C 27.652344 9.617188 25.058594 9.855469 21.851562 8.996094 C 18.648438 8.136719 16.519531 6.632812 15.675781 5.929688 C 14.480469 4.925781 13.957031 4.230469 13.4375 5.285156 C 12.980469 6.210938 12.398438 7.722656 11.832031 9.835938 C 10.601562 14.414062 9.6875 24.074219 17.269531 26.109375 C 24.851562 28.140625 28.886719 19.3125 30.113281 14.734375 C 30.679688 12.621094 30.925781 11.019531 30.996094 9.988281 C 31.074219 8.820312 30.269531 9.160156 28.734375 9.429688 M 13.5 13.214844 C 13.5 13.214844 14.695312 11.355469 16.722656 11.933594 C 18.75 12.507812 18.90625 14.75 18.90625 14.75 Z M 18.449219 21.554688 C 14.882812 20.511719 14.332031 17.667969 14.332031 17.667969 L 23.910156 20.347656 C 23.910156 20.34375 21.976562 22.585938 18.449219 21.554688 M 21.832031 15.714844 C 21.832031 15.714844 23.027344 13.855469 25.050781 14.433594 C 27.078125 15.011719 27.238281 17.253906 27.238281 17.253906 Z M 21.832031 15.714844 "/>
<path style=" stroke:none;fill-rule:nonzero;fill:rgb(83.92157%,32.549021%,28.235295%);fill-opacity:1;" d="M 11.1875 19.585938 L 7.664062 20.582031 C 7.664062 20.582031 8.046875 18.402344 10.640625 17.539062 L 8.644531 10.050781 L 8.472656 10.101562 C 6 10.769531 4 10.59375 3.164062 10.449219 C 1.980469 10.242188 1.363281 9.984375 1.421875 10.882812 C 1.46875 11.679688 1.660156 12.910156 2.09375 14.535156 C 3.03125 18.054688 6.125 24.839844 11.980469 23.261719 L 12.152344 23.207031 Z M 4.339844 14.582031 L 8.496094 13.488281 C 8.496094 13.488281 8.375 15.085938 6.816406 15.5 C 5.257812 15.910156 4.339844 14.582031 4.339844 14.582031 "/>
<path style=" stroke:none;fill-rule:nonzero;fill:rgb(11.372549%,55.29412%,13.333334%);fill-opacity:1;" d="M 18.609375 21.59375 L 18.445312 21.554688 C 14.882812 20.511719 14.332031 17.667969 14.332031 17.667969 L 19.269531 19.046875 L 21.882812 9.003906 L 21.851562 8.996094 C 18.644531 8.136719 16.519531 6.632812 15.675781 5.929688 C 14.480469 4.925781 13.957031 4.230469 13.4375 5.285156 C 12.980469 6.210938 12.398438 7.722656 11.832031 9.835938 C 10.601562 14.414062 9.6875 24.074219 17.269531 26.109375 L 17.425781 26.144531 Z M 13.5 13.214844 C 13.5 13.214844 14.695312 11.355469 16.722656 11.933594 C 18.75 12.507812 18.90625 14.75 18.90625 14.75 Z M 13.5 13.214844 "/>
<path style=" stroke:none;fill-rule:nonzero;fill:rgb(75.294119%,29.411766%,25.490198%);fill-opacity:1;" d="M 11.367188 19.535156 L 10.421875 19.800781 C 10.644531 21.0625 11.039062 22.269531 11.65625 23.335938 C 11.761719 23.3125 11.871094 23.292969 11.980469 23.261719 C 12.265625 23.183594 12.53125 23.089844 12.789062 22.984375 C 12.097656 21.960938 11.640625 20.78125 11.367188 19.535156 M 10.996094 10.667969 C 10.511719 12.480469 10.078125 15.089844 10.195312 17.707031 C 10.410156 17.613281 10.636719 17.527344 10.886719 17.457031 L 11.0625 17.417969 C 10.851562 14.621094 11.3125 11.773438 11.832031 9.835938 C 11.960938 9.347656 12.09375 8.890625 12.226562 8.464844 C 12.015625 8.597656 11.785156 8.738281 11.523438 8.878906 C 11.332031 9.472656 11.15625 10.070312 10.996094 10.667969 "/>
</g>
</svg>
