<svg role="img" viewBox="0 0 48 48" xmlns="http://www.w3.org/2000/svg"><path d="M16.332 26.185c-1.68.477-2.782 1.313-3.508 2.148.695-.608 1.627-1.167 2.883-1.523 1.285-.364 2.382-.362 3.288-.187v-.708c-.773-.071-1.659-.015-2.663.27m-3.585-5.954-6.239 1.643s.114.16.325.375l5.29-1.394s-.075.966-.727 1.83c1.232-.932 1.351-2.454 1.351-2.454m5.223 14.661C9.19 37.257 4.545 27.083 3.139 21.801c-.65-2.437-.933-4.284-1.009-5.474a1.998 1.998 0 0 1 .005-.324c-.456.027-.674.264-.63.948.076 1.191.359 3.037 1.009 5.475 1.405 5.28 6.051 15.456 14.831 13.091 1.911-.515 3.347-1.453 4.425-2.65-.994.897-2.237 1.604-3.8 2.025m1.65-20.888v.625h3.443c-.071-.222-.142-.421-.212-.625zm4.212 5.146c1.549.439 2.368 1.525 2.801 2.486l1.727.491s-.235-3.363-3.277-4.227c-2.846-.809-4.597 1.581-4.81 1.89.828-.59 2.037-1.073 3.559-.64m13.746 2.502c-2.848-.813-4.598 1.582-4.808 1.887.828-.589 2.037-1.072 3.558-.638 1.547.44 2.365 1.525 2.8 2.487l1.729.492s-.239-3.364-3.279-4.228m-1.715 8.867-14.365-4.016s.155.788.753 1.809l12.094 3.381c.995-.576 1.518-1.174 1.518-1.174m-9.959 8.643c-11.375-3.049-10-17.541-8.158-24.408.757-2.83 1.536-4.934 2.182-6.344-.386-.079-.705.124-1.02.766-.686 1.391-1.563 3.656-2.412 6.827-1.84 6.868-3.215 21.359 8.158 24.408 5.361 1.437 9.537-.746 12.651-4.174-2.956 2.676-6.728 4.177-11.401 2.925" fill="#2D4552"/><path d="M19.62 31.496v-2.924l-8.126 2.304s.601-3.488 4.838-4.691c1.285-.364 2.382-.361 3.288-.187V14.004h4.068c-.443-1.369-.872-2.423-1.231-3.156-.596-1.211-1.206-.408-2.592.751-.976.815-3.442 2.555-7.153 3.555-3.713 1-6.713.735-7.965.519-1.775-.307-2.703-.697-2.616.654.076 1.19.359 3.036 1.008 5.474 1.406 5.281 6.052 15.456 14.831 13.091 2.293-.618 3.913-1.839 5.034-3.396zM6.508 21.874l6.239-1.643s-.182 2.4-2.52 3.017c-2.34.616-3.719-1.374-3.719-1.374" fill="#E2574C"/><path d="M43.101 14.142c-1.622.284-5.513.639-10.321-.65-4.81-1.288-8.001-3.541-9.266-4.6-1.792-1.501-2.581-2.544-3.356-.966-.687 1.391-1.563 3.657-2.412 6.828-1.841 6.867-3.216 21.358 8.158 24.408 11.371 3.047 17.424-10.192 19.264-17.059.849-3.171 1.222-5.572 1.324-7.12.117-1.753-1.088-1.244-3.391-.841M20.25 19.824s1.792-2.788 4.832-1.924c3.042.864 3.278 4.227 3.278 4.227zm7.421 12.509c-5.348-1.566-6.172-5.83-6.172-5.83l14.364 4.016c0-.001-2.9 3.36-8.192 1.814m5.078-8.762s1.79-2.786 4.829-1.92c3.04.865 3.279 4.228 3.279 4.228z" fill="#2EAD33"/><path d="m16.78 29.377-5.286 1.498s.575-3.271 4.468-4.567l-2.993-11.233-.258.079c-3.712 1-6.713.735-7.965.519-1.774-.307-2.703-.697-2.616.654.076 1.19.359 3.036 1.009 5.474C4.544 27.082 9.19 37.257 17.97 34.892l.258-.081zM6.508 21.874l6.239-1.643s-.182 2.4-2.52 3.017c-2.34.616-3.719-1.374-3.719-1.374" fill="#D65348"/><path d="m27.912 32.392-.242-.059c-5.347-1.566-6.172-5.83-6.172-5.83l7.407 2.07 3.922-15.068-.048-.013c-4.81-1.288-8.001-3.541-9.266-4.6-1.792-1.501-2.58-2.544-3.356-.966-.686 1.391-1.562 3.657-2.411 6.828-1.841 6.867-3.216 21.358 8.158 24.408l.233.053zM20.25 19.824s1.792-2.788 4.832-1.924c3.042.864 3.278 4.227 3.278 4.227z" fill="#1D8D22"/><path d="m17.049 29.3-1.417.402c.335 1.889.925 3.701 1.851 5.301.161-.036.322-.066.486-.111.431-.117.829-.26 1.214-.417-1.035-1.536-1.72-3.305-2.134-5.175m-.553-13.296c-.729 2.718-1.381 6.631-1.201 10.557.321-.14.66-.27 1.037-.376l.263-.059c-.32-4.193.371-8.465 1.151-11.372.197-.735.394-1.419.592-2.057-.317.202-.66.41-1.05.623a53.218 53.218 0 0 0-.792 2.684" fill="#C04B41"/></svg>