<?xml version="1.0" encoding="UTF-8"?>
<svg xmlns="http://www.w3.org/2000/svg" xmlns:xlink="http://www.w3.org/1999/xlink" width="32" height="32" viewBox="0 0 32 32" version="1.1">
<g id="surface1">
<path style=" stroke:none;fill-rule:nonzero;fill:rgb(0%,0%,0%);fill-opacity:1;" d="M 16 8 C 16.882812 8 17.601562 8.714844 17.601562 9.601562 L 17.601562 14.398438 L 22.398438 14.398438 C 23.28125 14.398438 24 15.117188 24 16 C 24 16.882812 23.28125 17.601562 22.398438 17.601562 L 17.601562 17.601562 L 17.601562 22.398438 C 17.601562 23.28125 16.882812 24 16 24 C 15.117188 24 14.398438 23.28125 14.398438 22.398438 L 14.398438 17.601562 L 9.601562 17.601562 C 8.71875 17.601562 8 16.882812 8 16 C 8 15.117188 8.71875 14.398438 9.601562 14.398438 L 14.398438 14.398438 L 14.398438 9.601562 C 14.398438 8.714844 15.117188 8 16 8 M 16 8 "/>
</g>
</svg>
