<svg role="img" viewBox="0 0 32.978 32" xmlns="http://www.w3.org/2000/svg"><path d="M16.379.848a2.083 2.083 0 0 0-.793.199L4.726 6.238c-.57.27-.984.785-1.124 1.395l-2.68 11.66a2.046 2.046 0 0 0 .281 1.578c.04.055.078.11.121.164l7.516 9.348c.394.488.992.773 1.625.773H22.52c.632 0 1.23-.285 1.625-.773l7.511-9.352a2.045 2.045 0 0 0 .403-1.742L29.375 7.633a2.056 2.056 0 0 0-1.125-1.395L17.387 1.047a2.116 2.116 0 0 0-1.004-.203Zm0 0" style="stroke:none;fill-rule:nonzero;fill:rgb(19.607843%,42.352942%,89.803922%);fill-opacity:1"/><path d="M16.375.004c-.29.016-.574.086-.836.215L4.07 5.69a2.17 2.17 0 0 0-1.183 1.477L.059 19.473a2.16 2.16 0 0 0 .296 1.672c.036.058.079.117.122.171l7.937 9.868A2.2 2.2 0 0 0 10.13 32h12.726c.668 0 1.297-.3 1.711-.816l7.934-9.872a2.16 2.16 0 0 0 .426-1.84L30.094 7.165a2.171 2.171 0 0 0-1.188-1.473L17.441.215A2.219 2.219 0 0 0 16.38 0Zm.008.844c.347-.016.691.05 1.004.199L28.25 6.234c.57.274.984.786 1.125 1.399l2.684 11.656a2.053 2.053 0 0 1-.403 1.746l-7.515 9.348a2.089 2.089 0 0 1-1.625.773H10.46a2.087 2.087 0 0 1-1.621-.773l-7.516-9.348a2.043 2.043 0 0 1-.402-1.742l2.68-11.656c.14-.61.554-1.125 1.12-1.399l10.864-5.191c.25-.117.52-.184.797-.2m0 0" style="stroke:none;fill-rule:nonzero;fill:rgb(100%,100%,100%);fill-opacity:1"/><path d="m9.867 11.36 6.621-1.919 6.621 1.918-6.62 1.922Zm0 .738v7.043l6.168 3.418.031-8.618Zm13.242 0v7.043l-6.168 3.418-.03-8.618Zm0 0" style="stroke:none;fill-rule:evenodd;fill:rgb(100%,100%,100%);fill-opacity:1"/></svg>