<svg width="12" height="14" viewBox="0 0 12 14" fill="none" xmlns="http://www.w3.org/2000/svg">
<path d="M6.00008 1L6.29822 0.403715C6.11054 0.309873 5.88962 0.309873 5.70194 0.403715L6.00008 1ZM11.3334 3.66667H12.0001C12.0001 3.41415 11.8574 3.18331 11.6316 3.07038L11.3334 3.66667ZM0.666748 3.66667L0.368606 3.07038C0.14275 3.18331 8.13603e-05 3.41415 8.13603e-05 3.66667H0.666748ZM11.3334 10.3333L11.6316 10.9296C11.8574 10.8167 12.0001 10.5858 12.0001 10.3333H11.3334ZM6.00008 13L5.70194 13.5963C5.88962 13.6901 6.11054 13.6901 6.29822 13.5963L6.00008 13ZM0.666748 10.3333H8.13603e-05C8.13603e-05 10.5858 0.14275 10.8167 0.368606 10.9296L0.666748 10.3333ZM5.70194 1.59628L11.0353 4.26295L11.6316 3.07038L6.29822 0.403715L5.70194 1.59628ZM11.0353 3.07038L5.70194 5.73705L6.29822 6.92962L11.6316 4.26295L11.0353 3.07038ZM6.29822 5.73705L0.96489 3.07038L0.368606 4.26295L5.70194 6.92962L6.29822 5.73705ZM0.96489 4.26295L6.29822 1.59628L5.70194 0.403715L0.368606 3.07038L0.96489 4.26295ZM11.0353 9.73705L5.70194 12.4037L6.29822 13.5963L11.6316 10.9296L11.0353 9.73705ZM6.29822 12.4037L0.96489 9.73705L0.368606 10.9296L5.70194 13.5963L6.29822 12.4037ZM1.33341 10.3333V3.66667H8.13603e-05V10.3333H1.33341ZM12.0001 10.3333V3.66667H10.6667V10.3333H12.0001ZM5.33342 6.33333V13H6.66675V6.33333H5.33342Z" fill="#A4A4A4"/>
</svg>
