<?xml version="1.0" encoding="UTF-8"?>
<svg xmlns="http://www.w3.org/2000/svg" xmlns:xlink="http://www.w3.org/1999/xlink" width="27.428571" height="32" viewBox="0 0 27.428571 32" version="1.1">
<g id="surface1">
<path style=" stroke:none;fill-rule:nonzero;fill:rgb(64.313728%,64.313728%,64.313728%);fill-opacity:1;" d="M 13.714844 2.285156 L 14.394531 0.921875 C 13.96875 0.707031 13.460938 0.707031 13.03125 0.921875 Z M 25.90625 8.382812 L 27.429688 8.382812 C 27.429688 7.804688 27.101562 7.277344 26.585938 7.019531 Z M 1.523438 8.382812 L 0.84375 7.019531 C 0.328125 7.277344 0 7.804688 0 8.382812 Z M 25.90625 23.617188 L 26.585938 24.980469 C 27.101562 24.722656 27.429688 24.195312 27.429688 23.617188 Z M 13.714844 29.714844 L 13.03125 31.078125 C 13.460938 31.292969 13.96875 31.292969 14.394531 31.078125 Z M 1.523438 23.617188 L 0 23.617188 C 0 24.195312 0.328125 24.722656 0.84375 24.980469 Z M 13.03125 3.648438 L 25.222656 9.742188 L 26.585938 7.019531 L 14.394531 0.921875 Z M 25.222656 7.019531 L 13.03125 13.113281 L 14.394531 15.839844 L 26.585938 9.742188 Z M 14.394531 13.113281 L 2.207031 7.019531 L 0.84375 9.742188 L 13.03125 15.839844 Z M 2.207031 9.742188 L 14.394531 3.648438 L 13.03125 0.921875 L 0.84375 7.019531 Z M 25.222656 22.257812 L 13.03125 28.351562 L 14.394531 31.078125 L 26.585938 24.980469 Z M 14.394531 28.351562 L 2.207031 22.257812 L 0.84375 24.980469 L 13.03125 31.078125 Z M 3.046875 23.617188 L 3.046875 8.382812 L 0 8.382812 L 0 23.617188 Z M 27.429688 23.617188 L 27.429688 8.382812 L 24.382812 8.382812 L 24.382812 23.617188 Z M 12.191406 14.476562 L 12.191406 29.714844 L 15.238281 29.714844 L 15.238281 14.476562 Z M 12.191406 14.476562 "/>
</g>
</svg>
