<svg role="img" viewBox="0 0 23.04 32" xmlns="http://www.w3.org/2000/svg" xmlns:xlink="http://www.w3.org/1999/xlink"><defs><linearGradient gradientTransform="matrix(1 0 0 -1 0 102)" gradientUnits="userSpaceOnUse" id="a" x1="36.2" x2="36.2" y1="3.014" y2="101.001"><stop offset="0" style="stop-color:rgb(78.431374%,83.137256%,85.882354%);stop-opacity:1"/><stop offset=".139" style="stop-color:rgb(84.705883%,88.235295%,90.196079%);stop-opacity:1"/><stop offset=".359" style="stop-color:rgb(92.156863%,94.117647%,95.294118%);stop-opacity:1"/><stop offset=".617" style="stop-color:rgb(97.647059%,98.039216%,98.431373%);stop-opacity:1"/><stop offset="1" style="stop-color:rgb(100%,100%,100%);stop-opacity:1"/></linearGradient><linearGradient gradientTransform="matrix(.32 0 0 -.32 0 32.64)" gradientUnits="userSpaceOnUse" id="b" x1="31.747" x2="31.747" y1="69.935" y2="69.986"><stop offset="0" style="stop-color:rgb(67.843139%,80.000001%,86.274511%);stop-opacity:1"/><stop offset="1" style="stop-color:rgb(29.803923%,42.352942%,48.235294%);stop-opacity:1"/></linearGradient><linearGradient gradientTransform="matrix(.32 0 0 -.32 0 32.64)" gradientUnits="userSpaceOnUse" id="c" x1="45.324" x2="58.871" y1="74.184" y2="87.731"><stop offset="0" style="stop-color:rgb(100%,100%,100%);stop-opacity:1"/><stop offset=".35" style="stop-color:rgb(98.039216%,98.431373%,98.431373%);stop-opacity:1"/><stop offset=".532" style="stop-color:rgb(92.941177%,94.509804%,95.686275%);stop-opacity:1"/><stop offset=".675" style="stop-color:rgb(86.666667%,89.803922%,91.37255%);stop-opacity:1"/><stop offset=".799" style="stop-color:rgb(78.039217%,82.745099%,85.490197%);stop-opacity:1"/><stop offset=".908" style="stop-color:rgb(67.843139%,74.117649%,78.039217%);stop-opacity:1"/><stop offset="1" style="stop-color:rgb(57.254905%,64.705884%,69.01961%);stop-opacity:1"/></linearGradient><linearGradient gradientTransform="scale(.32)" gradientUnits="userSpaceOnUse" id="d" x1="22.788" x2="57.212" y1="46" y2="46"><stop offset="0" style="stop-color:rgb(67.843139%,80.000001%,86.274511%);stop-opacity:1"/><stop offset="1" style="stop-color:rgb(29.803923%,42.352942%,48.235294%);stop-opacity:1"/></linearGradient></defs><path d="m45.203 1.001 27.1 26.697v71.301H.097V1.001Zm0 0" style="fill-rule:nonzero;fill:url(#a);stroke-width:2;stroke-linecap:butt;stroke-linejoin:miter;stroke:rgb(44.313726%,56.862748%,63.137257%);stroke-opacity:1;stroke-miterlimit:4" transform="scale(.32)"/><path d="M2.113 28.832v-6.367h2.078c.801 0 1.313.031 1.536.094.386.097.671.289.93.609.253.32.382.734.382 1.246 0 .387-.062.707-.223.992a1.77 1.77 0 0 1-.543.64 1.53 1.53 0 0 1-.671.29c-.32.062-.77.098-1.344.098h-.832v2.398Zm1.313-5.281v1.793h.703c.512 0 .863-.032 1.023-.098.16-.062.32-.156.414-.316a.89.89 0 0 0-.031-1.059.827.827 0 0 0-.512-.285c-.16-.035-.48-.035-.925-.035Zm4.414 2.144c0-.64.098-1.183.289-1.633.16-.32.351-.605.605-.863a2.9 2.9 0 0 1 .832-.574c.418-.16.868-.258 1.38-.258.956 0 1.695.29 2.269.863.578.579.863 1.38.863 2.434 0 1.023-.285 1.824-.832 2.398-.543.579-1.309.868-2.27.868-.96 0-1.73-.29-2.273-.867-.543-.575-.863-1.375-.863-2.368m1.344-.062c0 .703.16 1.246.511 1.633.352.382.77.543 1.282.543.511 0 .925-.192 1.28-.543.352-.356.513-.93.513-1.664 0-.739-.16-1.282-.48-1.633-.321-.352-.77-.543-1.282-.543s-.961.191-1.281.543c-.383.383-.543.96-.543 1.664m5.921 3.199v-6.367h1.95l1.152 4.32 1.152-4.32h1.953V28.8h-1.214v-4.96l-1.282 4.992h-1.25L16.29 23.84v4.992Zm0 0" style="stroke:none;fill-rule:nonzero;fill:rgb(29.803923%,42.352942%,48.235294%);fill-opacity:1"/><path d="M10.176 10.238c-.031.035-.031.035 0 0" style="stroke:none;fill-rule:nonzero;fill:url(#b)"/><path d="m14.465.32 8.672 8.543h-8.672Zm0 0" style="stroke:none;fill-rule:nonzero;fill:url(#c)"/><path d="M18.078 8.672s-4.605.062-7.55 3.808c-.16.223-.321.415-.481.641-.094.125-.192 1.406-.192 1.406s-.128-.093-.19-.254c-.099-.195-.13-.418-.13-.418-1.664 2.72-1.183 4.13-1.183 4.13-.13.32-.383.511-.735 1.245-.351.739-.32 1.442-.32 1.442 0 .129.031.16.094.031 0 0 .386-.734.672-1.215.195-.32.769-1.054.769-1.054s.961.03 2.113-.258c-.097-.031-.418-.13-.64-.223-.227-.098-.352-.258-.352-.258l4.125-.96c.578-.352 1.09-.766 1.508-1.278 2.176-2.594 2.719-6.562 2.719-6.562.03-.125-.067-.223-.227-.223M13.984 12.8s-1.921 1.695-2.879 2.59c-.96.898-2.242 3.043-2.242 3.043l-.48-.45s.351-.863 1.762-2.593c1.406-1.727 3.777-2.75 3.777-2.75.285-.13.316-.067.062.16m0 0" style="stroke:none;fill-rule:nonzero;fill:url(#d)"/><path d="m45.203 1.001 27.1 26.697h-27.1Zm0 0" style="fill:none;stroke-width:2;stroke-linecap:butt;stroke-linejoin:bevel;stroke:rgb(44.313726%,56.862748%,63.137257%);stroke-opacity:1;stroke-miterlimit:4" transform="scale(.32)"/></svg>