<svg role="img" viewBox="0 0 32 32" xmlns="http://www.w3.org/2000/svg"><path d="M29.387 19.86c-.121-.551-.621-1.196-1.633-1.196a3.3 3.3 0 0 0-.692.078 7.62 7.62 0 0 1-1.226.16c2.754-4.691 4.543-11.21 2.773-13.476C26.273 2.446 23.133 2 21.47 2h-.157a9.904 9.904 0 0 0-1.91.227l-2.386.515a9.369 9.369 0 0 0-1.004-.074h-.032l-.101-.004a6.473 6.473 0 0 0-2.895.652l-.832-.332c-1.148-.449-2.87-.988-4.578-.988-.097 0-.191 0-.289.004-1.68.063-3.125.7-4.176 1.848-1.312 1.43-1.91 3.523-1.773 6.218C1.344 10.207 2.973 24 7.602 24h.058c.602-.016 1.172-.258 1.707-.719.41.309.938.489 1.43.559.328.078.91.187 1.613.187.856 0 1.63-.175 2.293-.492 0 .586-.004 1.328-.012 2.278v.05l.004.051c.067.945.227 1.797.473 2.465.703 1.906 1.91 2.957 3.41 2.957.059 0 .125 0 .188-.004 1.23-.078 2.476-.77 3.336-1.848.93-1.172 1.144-2.406 1.226-3.351l.004-.059v-2.777l.07.004.29.027.027.004h.031c.082.004.168.004.254.004 1.004 0 2.238-.258 3.074-.648.8-.372 2.629-1.391 2.309-2.829m0 0" style="stroke:none;fill-rule:nonzero;fill:rgb(100%,100%,100%);fill-opacity:1"/><path d="M22 22.668c0-.137.008-.254.012-.379C22.004 22.121 22 22 22 22s.008-.008.02-.016c.101-1.78.593-2.468 1.117-2.859-.07-.102-.157-.21-.235-.316-.222-.293-.5-.653-.797-1.118l-.054-.105c-.043-.11-.153-.297-.29-.543-.788-1.43-2.429-4.395-1.308-6.27.492-.824 1.418-1.296 2.75-1.414-.547-1.546-2.586-5.28-7.215-5.359h-.004c-4.027-.066-5.347 3.594-5.78 5.781a5.04 5.04 0 0 1 1.89-.402h.031c1.527.008 2.574.824 2.883 2.234.222 1.035.328 1.942.328 2.77-.008 1.812-.375 2.765-.695 3.605l-.106.274c-.082.222-.168.43-.25.625-.086.199-.16.375-.215.535.325.07.578.176.75.254l.102.043a.525.525 0 0 1 .094.047c.562.343.914.87.992 1.488.039.332.031 2.594.02 4.57.058.856.202 1.574.394 2.098.273.742.953 2.16 2.262 2.078.914-.059 1.793-.613 2.375-1.348.625-.785.855-1.656.941-2.636Zm-11.926-3.391C9 18.157 8.477 16.648 8.672 15.242c.191-1.36.086-2.687.027-3.398-.02-.239-.035-.418-.031-.516v-.023c.078-2.012.855-5.192 2.996-7.078-1.043-.41-2.738-.954-4.332-.895C4.84 3.426 2.426 5.148 2.668 10c.09 1.82 2.148 12.734 4.957 12.668.402-.012.82-.27 1.25-.785a59.886 59.886 0 0 1 1.805-2.07 5.165 5.165 0 0 1-.606-.536m14.61-9.457c.007.102 0 .192-.016.274.02.613-.047 1.207-.113 1.785a14 14 0 0 0-.114 1.3c-.015.43.047.856.11 1.305.152 1.051.304 2.239-.508 3.621.148.2.281.383.387.56 3.074-4.981 4.312-10.907 3.129-12.419-1.79-2.285-4.266-2.945-6.227-2.914a8.389 8.389 0 0 0-1.648.2c3.382 1.636 4.89 5.152 5 6.288m2.648 10.227c-1.773.367-2.629.172-3.043-.082-.07.047-.137.086-.195.125-.25.148-.64.39-.739 1.855.055.012.106.016.165.028l.289.027c.878.04 2.035-.207 2.71-.52 1.458-.675 2.25-1.73.813-1.433m-12.648 1.367c-.028-.2-.133-.36-.329-.488l-.074-.031c-.238-.106-.511-.227-.949-.227-.086.004-.172.012-.254.012a.928.928 0 0 1-.105-.008c-.317.246-.766.433-1.875.66-1.989.508-.817 1.105-.055 1.2.738.183 2.492.406 3.656-.544a9.974 9.974 0 0 0-.015-.574m-.894-9.078c-.196.2-.505.375-.845.32-.55-.09-.976-.754-.945-1.004.031-.25.504-.379 1.055-.289.191.032.363.082.511.149-.214-.457-.601-.723-1.187-.785-1.043-.118-2.152.43-2.375.73.004.074.012.168.023.277.063.766.176 2.192-.035 3.692-.137.988.262 2.113 1.047 2.93.504.527 1.094.859 1.672.96.074-.32.207-.632.344-.953.074-.175.156-.363.23-.566l.11-.285c.293-.77.597-1.567.605-3.137.004-.602-.07-1.29-.21-2.04m9.44 2.336c-.07-.488-.14-.988-.12-1.535.015-.496.07-.961.12-1.414.043-.356.075-.696.094-1.032-.86.07-1.43.317-1.703.739.113-.04.238-.07.379-.086.594-.078 1.031.094 1.078.422.04.242-.168.472-.258.558-.183.18-.418.297-.652.324-.043.008-.086.008-.129.008-.234 0-.46-.078-.633-.199.074 1.316 1.043 3.074 1.524 3.938.101.187.18.332.246.46.262-.746.164-1.425.054-2.183m0 0" style="stroke:none;fill-rule:nonzero;fill:rgb(0.784314%,46.666667%,74.117649%);fill-opacity:1"/></svg>