<?xml version="1.0" encoding="UTF-8"?>
<svg xmlns="http://www.w3.org/2000/svg" xmlns:xlink="http://www.w3.org/1999/xlink" width="32" height="32" viewBox="0 0 32 32" version="1.1">
<g id="surface1">
<path style=" stroke:none;fill-rule:nonzero;fill:rgb(100%,42.352942%,21.568628%);fill-opacity:1;" d="M 30.878906 17.90625 C 31.925781 9.6875 26.121094 2.171875 17.917969 1.121094 C 9.714844 0.0742188 2.171875 5.875 1.121094 14.078125 C 0.0742188 22.285156 5.875 29.8125 14.078125 30.878906 C 22.296875 31.925781 29.8125 26.121094 30.878906 17.902344 "/>
<path style=" stroke:none;fill-rule:nonzero;fill:rgb(100%,100%,100%);fill-opacity:1;" d="M 21.414062 10.628906 L 15.085938 16.960938 L 13.300781 15.175781 C 19.523438 8.953125 20.140625 9.492188 21.414062 10.628906 "/>
<path style=" stroke:none;fill-rule:nonzero;fill:rgb(100%,42.352942%,21.568628%);fill-opacity:1;" d="M 15.085938 17.109375 C 15.046875 17.109375 15.007812 17.09375 14.980469 17.066406 L 13.179688 15.28125 C 13.152344 15.253906 13.136719 15.214844 13.136719 15.175781 C 13.136719 15.136719 13.152344 15.097656 13.179688 15.070312 C 19.507812 8.742188 20.167969 9.339844 21.503906 10.539062 C 21.535156 10.570312 21.546875 10.601562 21.546875 10.644531 C 21.546875 10.691406 21.535156 10.71875 21.503906 10.75 L 15.175781 17.066406 C 15.160156 17.09375 15.117188 17.109375 15.085938 17.109375 M 13.511719 15.175781 L 15.085938 16.75 L 21.1875 10.644531 C 20.078125 9.65625 19.328125 9.355469 13.511719 15.175781 "/>
<path style=" stroke:none;fill-rule:nonzero;fill:rgb(100%,100%,100%);fill-opacity:1;" d="M 16.898438 18.773438 L 15.175781 17.050781 L 21.503906 10.71875 C 23.199219 12.429688 20.664062 15.207031 16.898438 18.773438 "/>
<path style=" stroke:none;fill-rule:nonzero;fill:rgb(100%,42.352942%,21.568628%);fill-opacity:1;" d="M 16.898438 18.925781 C 16.859375 18.925781 16.820312 18.910156 16.792969 18.878906 L 15.070312 17.15625 C 15.039062 17.125 15.039062 17.09375 15.039062 17.050781 C 15.039062 17.003906 15.054688 16.976562 15.085938 16.945312 L 21.414062 10.617188 C 21.441406 10.585938 21.480469 10.570312 21.519531 10.570312 C 21.558594 10.570312 21.597656 10.585938 21.625 10.617188 C 22.011719 10.972656 22.222656 11.484375 22.207031 12.011719 C 22.179688 13.675781 20.289062 15.789062 17.019531 18.878906 C 16.984375 18.90625 16.941406 18.921875 16.898438 18.925781 M 15.386719 17.050781 C 16.34375 18.023438 16.75 18.414062 16.898438 18.566406 C 19.417969 16.164062 21.863281 13.707031 21.878906 12.011719 C 21.894531 11.621094 21.742188 11.230469 21.488281 10.929688 Z M 15.386719 17.050781 "/>
<path style=" stroke:none;fill-rule:nonzero;fill:rgb(100%,100%,100%);fill-opacity:1;" d="M 13.332031 15.21875 L 14.605469 16.496094 C 14.636719 16.523438 14.636719 16.554688 14.605469 16.585938 C 14.589844 16.601562 14.589844 16.601562 14.574219 16.601562 L 11.933594 17.167969 C 11.800781 17.183594 11.675781 17.09375 11.652344 16.960938 C 11.636719 16.890625 11.660156 16.816406 11.710938 16.765625 L 13.242188 15.234375 C 13.269531 15.207031 13.316406 15.191406 13.332031 15.21875 "/>
<path style=" stroke:none;fill-rule:nonzero;fill:rgb(100%,42.352942%,21.568628%);fill-opacity:1;" d="M 11.890625 17.320312 C 11.664062 17.320312 11.5 17.140625 11.5 16.914062 C 11.5 16.808594 11.546875 16.703125 11.621094 16.628906 L 13.152344 15.101562 C 13.238281 15.023438 13.363281 15.023438 13.449219 15.101562 L 14.726562 16.375 C 14.816406 16.449219 14.816406 16.585938 14.726562 16.675781 C 14.695312 16.703125 14.660156 16.722656 14.621094 16.734375 L 11.980469 17.304688 C 11.949219 17.304688 11.921875 17.320312 11.890625 17.320312 M 13.285156 15.386719 L 11.816406 16.855469 C 11.785156 16.882812 11.769531 16.929688 11.800781 16.976562 C 11.816406 17.019531 11.859375 17.035156 11.90625 17.019531 L 14.378906 16.480469 Z M 13.285156 15.386719 "/>
<path style=" stroke:none;fill-rule:nonzero;fill:rgb(100%,100%,100%);fill-opacity:1;" d="M 24.757812 7.121094 C 24.292969 6.675781 23.667969 6.429688 23.023438 6.445312 C 22.378906 6.460938 21.769531 6.730469 21.324219 7.195312 C 20.875 7.660156 20.632812 8.285156 20.648438 8.929688 C 20.660156 9.574219 20.929688 10.1875 21.398438 10.628906 C 22.191406 11.394531 23.398438 11.53125 24.339844 10.960938 L 22.628906 9.25 Z M 24.757812 7.121094 "/>
<path style=" stroke:none;fill-rule:nonzero;fill:rgb(100%,42.352942%,21.568628%);fill-opacity:1;" d="M 23.078125 11.457031 C 21.917969 11.457031 20.898438 10.679688 20.589844 9.5625 C 20.28125 8.441406 20.757812 7.253906 21.757812 6.660156 C 22.753906 6.066406 24.027344 6.210938 24.863281 7.015625 C 24.894531 7.046875 24.90625 7.074219 24.90625 7.121094 C 24.90625 7.167969 24.894531 7.195312 24.863281 7.226562 L 22.839844 9.25 L 24.429688 10.839844 C 24.488281 10.902344 24.488281 10.992188 24.429688 11.050781 L 24.398438 11.082031 C 24 11.324219 23.542969 11.453125 23.078125 11.457031 M 23.078125 6.613281 C 22.472656 6.609375 21.894531 6.851562 21.46875 7.277344 C 21.042969 7.707031 20.808594 8.289062 20.8125 8.890625 C 20.8125 10.152344 21.835938 11.171875 23.09375 11.15625 C 23.4375 11.15625 23.785156 11.082031 24.097656 10.914062 L 22.523438 9.355469 C 22.496094 9.328125 22.476562 9.292969 22.480469 9.25 C 22.480469 9.207031 22.492188 9.175781 22.523438 9.144531 L 24.535156 7.136719 C 24.125 6.792969 23.609375 6.605469 23.078125 6.613281 "/>
<path style=" stroke:none;fill-rule:nonzero;fill:rgb(100%,100%,100%);fill-opacity:1;" d="M 24.804688 7.167969 L 24.773438 7.136719 L 22.628906 9.25 L 24.324219 10.945312 C 24.488281 10.839844 24.652344 10.71875 24.789062 10.585938 C 25.246094 10.136719 25.507812 9.523438 25.511719 8.878906 C 25.511719 8.238281 25.257812 7.621094 24.804688 7.164062 "/>
<path style=" stroke:none;fill-rule:nonzero;fill:rgb(100%,42.352942%,21.568628%);fill-opacity:1;" d="M 24.339844 11.109375 C 24.296875 11.113281 24.261719 11.09375 24.234375 11.066406 L 22.523438 9.355469 C 22.492188 9.328125 22.476562 9.292969 22.480469 9.25 C 22.480469 9.207031 22.492188 9.175781 22.523438 9.144531 L 24.652344 7.015625 C 24.679688 6.988281 24.71875 6.972656 24.757812 6.972656 C 24.796875 6.972656 24.835938 6.988281 24.863281 7.015625 L 24.90625 7.046875 C 25.914062 8.050781 25.914062 9.671875 24.921875 10.691406 C 24.777344 10.839844 24.609375 10.972656 24.429688 11.082031 C 24.382812 11.097656 24.351562 11.109375 24.339844 11.109375 M 22.839844 9.25 L 24.351562 10.765625 C 24.472656 10.691406 24.59375 10.585938 24.683594 10.496094 C 25.539062 9.640625 25.582031 8.246094 24.757812 7.347656 Z M 22.839844 9.25 "/>
<path style=" stroke:none;fill-rule:nonzero;fill:rgb(100%,100%,100%);fill-opacity:1;" d="M 21.667969 10.902344 C 21.308594 10.539062 20.722656 10.539062 20.363281 10.902344 L 14.710938 16.554688 L 15.65625 17.5 L 21.636719 12.25 C 22.027344 11.921875 22.058594 11.335938 21.730469 10.945312 C 21.699219 10.929688 21.683594 10.914062 21.667969 10.902344 "/>
<path style=" stroke:none;fill-rule:nonzero;fill:rgb(100%,42.352942%,21.568628%);fill-opacity:1;" d="M 15.640625 17.648438 C 15.601562 17.652344 15.5625 17.632812 15.535156 17.605469 L 14.589844 16.660156 C 14.5625 16.632812 14.542969 16.59375 14.542969 16.554688 C 14.542969 16.515625 14.5625 16.476562 14.589844 16.449219 L 20.242188 10.796875 C 20.445312 10.59375 20.71875 10.480469 21 10.480469 C 21.285156 10.480469 21.558594 10.59375 21.757812 10.796875 C 21.960938 10.996094 22.074219 11.269531 22.074219 11.554688 C 22.074219 11.835938 21.960938 12.109375 21.757812 12.3125 L 21.714844 12.355469 L 15.730469 17.605469 C 15.714844 17.632812 15.683594 17.648438 15.640625 17.648438 M 14.921875 16.554688 L 15.65625 17.289062 L 21.535156 12.128906 C 21.863281 11.859375 21.894531 11.367188 21.625 11.035156 C 21.355469 10.707031 20.859375 10.675781 20.53125 10.945312 C 20.515625 10.960938 20.5 10.976562 20.46875 10.992188 Z M 14.921875 16.554688 "/>
<path style=" stroke:none;fill-rule:nonzero;fill:rgb(100%,100%,100%);fill-opacity:1;" d="M 10.375 22.988281 C 10.316406 23.019531 10.285156 23.078125 10.300781 23.136719 L 10.554688 24.21875 C 10.582031 24.292969 10.578125 24.378906 10.539062 24.449219 C 10.503906 24.519531 10.4375 24.574219 10.359375 24.59375 C 10.242188 24.636719 10.109375 24.597656 10.03125 24.503906 L 8.382812 22.867188 L 13.765625 17.484375 L 15.625 17.515625 L 16.886719 18.773438 C 16.585938 19.03125 14.769531 20.785156 10.375 22.988281 "/>
<path style=" stroke:none;fill-rule:nonzero;fill:rgb(100%,42.352942%,21.568628%);fill-opacity:1;" d="M 10.257812 24.742188 C 10.136719 24.746094 10.019531 24.695312 9.941406 24.609375 L 8.308594 22.972656 C 8.277344 22.945312 8.261719 22.910156 8.261719 22.867188 C 8.261719 22.824219 8.277344 22.792969 8.308594 22.765625 L 13.691406 17.378906 C 13.71875 17.351562 13.757812 17.335938 13.796875 17.335938 L 15.65625 17.363281 C 15.699219 17.363281 15.730469 17.378906 15.761719 17.410156 L 17.019531 18.667969 C 17.050781 18.699219 17.066406 18.746094 17.066406 18.789062 C 17.066406 18.835938 17.050781 18.863281 17.003906 18.894531 L 16.898438 18.984375 C 15.3125 20.378906 13.152344 21.773438 10.464844 23.109375 L 10.722656 24.171875 C 10.765625 24.375 10.675781 24.582031 10.496094 24.683594 C 10.421875 24.722656 10.339844 24.742188 10.257812 24.742188 M 8.605469 22.867188 L 10.152344 24.398438 C 10.195312 24.472656 10.285156 24.503906 10.363281 24.457031 C 10.4375 24.414062 10.464844 24.324219 10.421875 24.246094 L 10.167969 23.167969 C 10.136719 23.039062 10.199219 22.910156 10.316406 22.855469 C 12.972656 21.519531 15.117188 20.140625 16.691406 18.773438 L 15.582031 17.664062 L 13.855469 17.632812 Z M 8.605469 22.867188 "/>
<path style=" stroke:none;fill-rule:nonzero;fill:rgb(100%,100%,100%);fill-opacity:1;" d="M 7.105469 24.15625 L 8.394531 22.867188 L 10.316406 24.789062 L 7.257812 24.578125 C 7.191406 24.570312 7.132812 24.539062 7.09375 24.488281 C 7.054688 24.4375 7.039062 24.371094 7.046875 24.308594 C 7.046875 24.246094 7.0625 24.1875 7.105469 24.15625 "/>
<path style=" stroke:none;fill-rule:nonzero;fill:rgb(100%,42.352942%,21.568628%);fill-opacity:1;" d="M 10.316406 24.921875 L 7.242188 24.714844 C 7.015625 24.699219 6.867188 24.503906 6.882812 24.277344 C 6.898438 24.1875 6.925781 24.097656 7 24.039062 L 8.292969 22.75 C 8.320312 22.71875 8.355469 22.703125 8.394531 22.703125 C 8.4375 22.703125 8.472656 22.71875 8.5 22.75 L 10.421875 24.667969 C 10.464844 24.714844 10.480469 24.773438 10.449219 24.832031 C 10.421875 24.894531 10.375 24.921875 10.316406 24.921875 M 8.394531 23.078125 L 7.210938 24.261719 C 7.167969 24.292969 7.167969 24.367188 7.210938 24.398438 C 7.226562 24.414062 7.242188 24.429688 7.269531 24.429688 L 9.925781 24.609375 Z M 13.242188 18.175781 C 13.15625 18.175781 13.089844 18.109375 13.089844 18.023438 C 13.089844 17.980469 13.105469 17.949219 13.136719 17.917969 L 14.589844 16.464844 C 14.617188 16.4375 14.65625 16.417969 14.695312 16.417969 C 14.734375 16.417969 14.773438 16.4375 14.800781 16.464844 L 15.746094 17.410156 C 15.789062 17.453125 15.804688 17.5 15.789062 17.558594 C 15.769531 17.613281 15.726562 17.652344 15.671875 17.664062 L 13.269531 18.175781 Z M 14.695312 16.78125 L 13.707031 17.769531 L 15.324219 17.425781 Z M 14.695312 16.78125 "/>
<path style=" stroke:none;fill-rule:nonzero;fill:rgb(100%,100%,100%);fill-opacity:1;" d="M 15.625 17.515625 L 13.976562 17.875 C 13.878906 17.898438 13.777344 17.855469 13.726562 17.765625 C 13.679688 17.679688 13.695312 17.570312 13.765625 17.5 L 14.679688 16.585938 Z M 15.625 17.515625 "/>
<path style=" stroke:none;fill-rule:nonzero;fill:rgb(100%,42.352942%,21.568628%);fill-opacity:1;" d="M 13.945312 18.023438 C 13.84375 18.027344 13.75 17.988281 13.679688 17.914062 C 13.609375 17.84375 13.570312 17.75 13.570312 17.648438 C 13.574219 17.550781 13.609375 17.453125 13.675781 17.378906 L 14.589844 16.464844 C 14.617188 16.4375 14.65625 16.417969 14.695312 16.417969 C 14.734375 16.417969 14.773438 16.4375 14.800781 16.464844 L 15.746094 17.410156 C 15.789062 17.453125 15.804688 17.5 15.789062 17.558594 C 15.769531 17.613281 15.726562 17.652344 15.671875 17.664062 L 14.019531 18.023438 Z M 14.695312 16.78125 L 13.886719 17.589844 C 13.855469 17.621094 13.855469 17.648438 13.871094 17.679688 C 13.886719 17.710938 13.914062 17.726562 13.960938 17.726562 L 15.339844 17.425781 Z M 24.816406 8.605469 C 24.789062 8.515625 24.683594 8.472656 24.59375 8.5 C 24.503906 8.53125 24.457031 8.636719 24.488281 8.726562 C 24.488281 8.742188 24.503906 8.757812 24.503906 8.769531 C 24.589844 8.957031 24.566406 9.175781 24.441406 9.339844 C 24.386719 9.414062 24.394531 9.515625 24.457031 9.582031 C 24.535156 9.640625 24.636719 9.625 24.699219 9.550781 C 24.921875 9.265625 24.96875 8.90625 24.816406 8.605469 "/>
</g>
</svg>
