<svg role="img" viewBox="0 0 48 48" xmlns="http://www.w3.org/2000/svg"><path d="M46.316 26.857C47.89 14.529 39.184 3.259 26.879 1.684 14.574.109 3.26 8.815 1.684 21.12.109 33.426 8.815 44.72 21.12 46.316c12.328 1.574 23.599-7.132 25.196-19.46" fill="#FF6C37"/><path d="m32.12 15.946-9.492 9.494-2.678-2.677c9.336-9.336 10.259-8.526 12.17-6.817" fill="#FFFFFF"/><path d="M22.628 25.664a.204.204 0 0 1-.158-.067l-2.7-2.677a.217.217 0 0 1 0-.315c9.494-9.493 10.484-8.593 12.486-6.794.045.045.067.09.067.158s-.022.112-.067.157l-9.493 9.471c-.023.045-.09.067-.135.067m-2.362-2.901 2.362 2.362 9.156-9.156c-1.665-1.485-2.79-1.935-11.518 6.794" fill="#FF6C37"/><path d="m25.35 28.162-2.587-2.588 9.493-9.493c2.542 2.565-1.26 6.727-6.907 12.08" fill="#FFFFFF"/><path d="M25.35 28.387a.204.204 0 0 1-.158-.068l-2.587-2.587c-.045-.045-.045-.09-.045-.158 0-.067.023-.112.068-.157l9.493-9.493a.217.217 0 0 1 .315 0 2.739 2.739 0 0 1 .877 2.092c-.045 2.497-2.88 5.669-7.784 10.303a.36.36 0 0 1-.18.068m-2.271-2.813c1.44 1.463 2.047 2.048 2.271 2.273 3.78-3.6 7.447-7.289 7.47-9.831.022-.585-.203-1.17-.586-1.62z" fill="#FF6C37"/><path d="m19.996 22.83 1.912 1.912c.045.045.045.09 0 .135-.023.023-.023.023-.045.023l-3.96.854a.394.394 0 0 1-.427-.314.333.333 0 0 1 .09-.293l2.295-2.294c.045-.045.112-.068.135-.023" fill="#FFFFFF"/><path d="M17.836 25.98c-.338 0-.585-.27-.585-.608 0-.157.068-.315.18-.427l2.295-2.295a.342.342 0 0 1 .45 0l1.912 1.912c.135.113.135.315 0 .45a.363.363 0 0 1-.158.09l-3.96.855c-.044 0-.09.022-.134.022m2.092-2.901-2.205 2.204c-.045.045-.067.113-.022.18.022.068.09.09.157.068l3.712-.81z" fill="#FF6C37"/><path d="M37.137 10.682a3.633 3.633 0 0 0-5.151.113 3.632 3.632 0 0 0 .112 5.151 3.635 3.635 0 0 0 4.41.495l-2.565-2.564z" fill="#FFFFFF"/><path d="M34.618 17.184a3.869 3.869 0 1 1 2.677-6.66c.045.046.067.09.067.158s-.022.113-.067.158l-3.037 3.036 2.384 2.385c.09.09.09.225 0 .315l-.045.045a3.817 3.817 0 0 1-1.98.563m0-7.266a3.384 3.384 0 0 0-3.396 3.419c0 1.89 1.53 3.42 3.42 3.397.517 0 1.034-.113 1.506-.36l-2.361-2.34a.204.204 0 0 1-.068-.157c0-.068.023-.113.068-.158l3.014-3.014a3.334 3.334 0 0 0-2.182-.787" fill="#FF6C37"/><path d="m37.205 10.75-.045-.045-3.217 3.172 2.542 2.542c.247-.158.495-.338.697-.54a3.605 3.605 0 0 0 .023-5.13" fill="#FFFFFF"/><path d="M36.507 16.666a.204.204 0 0 1-.157-.067l-2.565-2.565a.205.205 0 0 1-.067-.157c0-.068.023-.113.068-.158l3.194-3.194a.217.217 0 0 1 .315 0l.067.045c1.507 1.507 1.507 3.937.023 5.466a3.697 3.697 0 0 1-.743.585c-.067.023-.112.045-.135.045m-2.25-2.79 2.273 2.273c.18-.113.36-.27.495-.405 1.282-1.282 1.35-3.374.112-4.724z" fill="#FF6C37"/><path d="M32.503 16.351a1.385 1.385 0 0 0-1.957 0l-8.48 8.481 1.416 1.417 8.976-7.873c.585-.495.63-1.372.135-1.957-.045-.023-.067-.045-.09-.068" fill="#FFFFFF"/><path d="M23.46 26.474a.204.204 0 0 1-.158-.067l-1.417-1.417a.217.217 0 0 1 0-.315l8.481-8.481a1.602 1.602 0 0 1 2.272 0 1.602 1.602 0 0 1 0 2.272l-.067.067-8.976 7.874c-.023.045-.068.067-.135.067m-1.08-1.642 1.102 1.102 8.819-7.738c.495-.405.54-1.147.135-1.642-.405-.495-1.148-.54-1.642-.135-.023.022-.045.045-.09.067z" fill="#FF6C37"/><path d="M15.564 34.483c-.09.045-.135.135-.113.225l.383 1.62a.43.43 0 0 1-.293.562.451.451 0 0 1-.495-.135l-2.474-2.452 8.076-8.076 2.79.045 1.89 1.89c-.45.382-3.173 3.014-9.764 6.321" fill="#FFFFFF"/><path d="M15.384 37.115a.613.613 0 0 1-.473-.203L12.46 34.46a.205.205 0 0 1-.067-.157c0-.067.023-.112.068-.157l8.075-8.077a.243.243 0 0 1 .158-.067l2.79.045c.067 0 .112.022.157.067l1.89 1.89c.044.045.067.113.067.18s-.023.113-.09.158l-.158.134c-2.384 2.093-5.623 4.185-9.65 6.187l.382 1.597a.71.71 0 0 1-.337.765.77.77 0 0 1-.36.09m-2.475-2.812 2.317 2.294c.068.113.203.158.315.09.113-.067.158-.202.09-.315l-.382-1.62a.41.41 0 0 1 .225-.471c3.982-2.003 7.199-4.072 9.56-6.12l-1.664-1.664-2.587-.045z" fill="#FF6C37"/><path d="m10.66 36.237 1.934-1.934 2.88 2.88-4.59-.316a.358.358 0 0 1-.314-.405c0-.09.022-.18.09-.225" fill="#FFFFFF"/><path d="m15.474 37.385-4.612-.315c-.337-.023-.562-.315-.54-.653.023-.135.068-.27.18-.36l1.935-1.934a.217.217 0 0 1 .315 0l2.88 2.88c.067.067.09.157.044.247-.045.09-.112.135-.202.135m-2.88-2.767-1.777 1.777c-.067.045-.067.157 0 .202.023.023.045.045.09.045l3.982.27zm7.267-7.356a.225.225 0 0 1-.225-.225c0-.068.022-.113.067-.158l2.182-2.182a.217.217 0 0 1 .315 0l1.418 1.417c.067.068.09.135.067.225a.257.257 0 0 1-.18.158l-3.6.765zm2.182-2.092-1.485 1.484 2.43-.517z" fill="#FF6C37"/><path d="m23.438 26.272-2.475.54a.335.335 0 0 1-.315-.563l1.372-1.372z" fill="#FFFFFF"/><path d="M20.918 27.037a.557.557 0 0 1-.563-.563.65.65 0 0 1 .158-.405l1.372-1.372a.217.217 0 0 1 .315 0l1.417 1.417c.068.068.09.135.068.225a.257.257 0 0 1-.18.158l-2.475.54zm1.125-1.867-1.215 1.214c-.045.045-.045.09-.023.135.023.045.068.068.135.068l2.07-.45zm15.184-12.26c-.045-.135-.202-.203-.337-.158-.135.045-.203.202-.158.338 0 .022.023.044.023.067a.84.84 0 0 1-.09.855.273.273 0 0 0 .022.36c.113.09.27.067.36-.045.338-.428.405-.968.18-1.418" fill="#FF6C37"/></svg>