<?xml version="1.0" encoding="UTF-8"?>
<svg xmlns="http://www.w3.org/2000/svg" xmlns:xlink="http://www.w3.org/1999/xlink" width="32.424999" height="32" viewBox="0 0 32.424999 32" version="1.1">
<g id="surface1">
<path style=" stroke:none;fill-rule:nonzero;fill:rgb(90.588236%,32.156864%,14.509805%);fill-opacity:1;" d="M 16.253906 0.628906 C 24.804688 0.628906 31.824219 7.5625 31.8125 15.992188 C 31.804688 24.554688 24.8125 31.390625 16.074219 31.382812 C 7.53125 31.375 0.625 24.4375 0.632812 15.867188 C 0.636719 7.488281 7.671875 0.628906 16.253906 0.628906 M 11.527344 6.027344 C 11.722656 6.984375 11.53125 7.878906 11.242188 8.761719 C 11.042969 9.371094 10.765625 9.957031 10.597656 10.574219 C 10.324219 11.59375 10.015625 12.617188 9.902344 13.65625 C 9.738281 15.152344 10.328125 16.472656 11.34375 17.785156 L 6.6875 16.808594 C 6.695312 16.957031 6.6875 17.011719 6.703125 17.058594 C 7.144531 18.347656 7.921875 19.433594 8.792969 20.453125 C 8.882812 20.5625 9.09375 20.617188 9.25 20.621094 C 13.890625 20.628906 18.53125 20.628906 23.171875 20.621094 C 23.316406 20.621094 23.507812 20.59375 23.597656 20.5 C 24.589844 19.460938 25.351562 18.277344 25.828125 16.785156 L 20.898438 17.746094 C 21.222656 17.113281 21.59375 16.554688 21.808594 15.945312 C 22.539062 13.851562 22.234375 11.828125 21.1875 9.917969 C 20.347656 8.386719 19.574219 6.859375 19.992188 5.015625 C 19.105469 5.886719 18.765625 6.996094 18.546875 8.140625 C 18.335938 9.265625 18.210938 10.40625 18.042969 11.550781 C 18.019531 11.515625 17.992188 11.488281 17.984375 11.460938 C 17.96875 11.339844 17.949219 11.21875 17.941406 11.097656 C 17.84375 9.226562 17.476562 7.425781 16.699219 5.703125 C 16.242188 4.6875 15.738281 3.652344 16.210938 2.445312 C 15.890625 2.609375 15.601562 2.777344 15.394531 3.015625 C 14.78125 3.722656 14.527344 4.570312 14.460938 5.5 C 14.402344 6.296875 14.328125 7.09375 14.179688 7.875 C 14.023438 8.695312 13.777344 9.503906 13.222656 10.257812 C 12.996094 8.644531 12.972656 7.050781 11.527344 6.027344 M 23.492188 22.03125 L 8.9375 22.03125 L 8.9375 24.550781 L 23.492188 24.550781 Z M 11.824219 25.847656 C 11.808594 27.9375 13.957031 29.496094 16.605469 29.386719 C 18.804688 29.289062 20.746094 27.574219 20.578125 25.84375 Z M 11.824219 25.847656 "/>
</g>
</svg>
