<svg role="img" viewBox="0 0 32.425 32" xmlns="http://www.w3.org/2000/svg"><path d="M16.254.629c8.55 0 15.57 6.934 15.558 15.363-.007 8.563-7 15.399-15.738 15.39C7.531 31.376.625 24.438.633 15.868.637 7.488 7.672.63 16.253.63m-4.727 5.398c.196.957.004 1.852-.285 2.735-.199.61-.476 1.195-.644 1.812-.274 1.02-.582 2.043-.696 3.082-.164 1.496.426 2.817 1.442 4.13l-4.656-.977c.007.148 0 .203.015.25.442 1.289 1.219 2.375 2.09 3.394.09.11.3.164.457.168 4.64.008 9.281.008 13.922 0 .144 0 .336-.027.426-.121.992-1.04 1.754-2.223 2.23-3.715l-4.93.961c.325-.633.696-1.191.91-1.8.731-2.094.426-4.118-.62-6.028-.84-1.531-1.614-3.059-1.196-4.902-.887.87-1.226 1.98-1.445 3.125-.211 1.125-.336 2.265-.504 3.41-.023-.035-.05-.063-.059-.09-.015-.121-.035-.242-.043-.363-.097-1.871-.464-3.672-1.242-5.395-.457-1.016-.96-2.05-.488-3.258-.32.164-.61.332-.816.57-.614.708-.868 1.555-.934 2.485-.059.797-.133 1.594-.281 2.375-.157.82-.403 1.629-.957 2.383-.227-1.613-.25-3.207-1.696-4.23m11.965 16.004H8.938v2.516h14.554Zm-11.668 3.813c-.015 2.093 2.133 3.652 4.781 3.539 2.2-.094 4.141-1.809 3.973-3.54Zm0 0" style="stroke:none;fill-rule:nonzero;fill:rgb(90.588236%,32.156864%,14.509805%);fill-opacity:1"/></svg>