<?xml version="1.0" encoding="UTF-8"?>
<svg xmlns="http://www.w3.org/2000/svg" xmlns:xlink="http://www.w3.org/1999/xlink" width="32" height="32" viewBox="0 0 32 32" version="1.1">
<g id="surface1">
<path style=" stroke:none;fill-rule:evenodd;fill:rgb(14.117648%,61.56863%,94.509804%);fill-opacity:1;" d="M 27.617188 26.609375 C 33.515625 20.15625 33.0625 10.140625 26.609375 4.242188 C 20.152344 -1.65625 10.140625 -1.203125 4.242188 5.25 C -1.65625 11.707031 -1.207031 21.71875 5.25 27.617188 C 11.703125 33.515625 21.71875 33.066406 27.617188 26.609375 Z M 27.617188 26.609375 "/>
<path style=" stroke:none;fill-rule:nonzero;fill:rgb(100%,100%,100%);fill-opacity:1;" d="M 14.984375 9.199219 L 18.957031 8.679688 L 15.089844 17.40625 C 15.769531 17.355469 16.433594 17.125 17.085938 16.714844 C 17.742188 16.304688 18.34375 15.789062 18.890625 15.171875 C 19.441406 14.554688 19.914062 13.867188 20.316406 13.109375 C 20.714844 12.351562 21.003906 11.605469 21.175781 10.875 C 21.28125 10.421875 21.332031 9.984375 21.320312 9.566406 C 21.3125 9.148438 21.203125 8.78125 20.996094 8.46875 C 20.785156 8.15625 20.46875 7.902344 20.039062 7.710938 C 19.613281 7.519531 19.035156 7.421875 18.304688 7.421875 C 17.449219 7.421875 16.609375 7.5625 15.78125 7.84375 C 14.953125 8.121094 14.1875 8.527344 13.480469 9.058594 C 12.777344 9.589844 12.160156 10.25 11.640625 11.042969 C 11.117188 11.835938 10.742188 12.738281 10.515625 13.746094 C 10.429688 14.078125 10.375 14.34375 10.359375 14.542969 C 10.339844 14.746094 10.335938 14.910156 10.34375 15.042969 C 10.355469 15.171875 10.371094 15.273438 10.398438 15.34375 C 10.421875 15.410156 10.445312 15.480469 10.460938 15.550781 C 9.574219 15.550781 8.925781 15.371094 8.515625 15.015625 C 8.105469 14.65625 8.007812 14.035156 8.214844 13.148438 C 8.425781 12.222656 8.898438 11.34375 9.640625 10.507812 C 10.378906 9.671875 11.261719 8.933594 12.277344 8.300781 C 13.296875 7.664062 14.414062 7.15625 15.625 6.785156 C 16.835938 6.410156 18.015625 6.222656 19.164062 6.222656 C 20.175781 6.222656 21.023438 6.363281 21.714844 6.652344 C 22.402344 6.941406 22.9375 7.320312 23.320312 7.789062 C 23.703125 8.261719 23.941406 8.808594 24.039062 9.4375 C 24.136719 10.0625 24.105469 10.714844 23.949219 11.394531 C 23.757812 12.214844 23.394531 13.039062 22.863281 13.867188 C 22.332031 14.691406 21.664062 15.441406 20.863281 16.113281 C 20.0625 16.785156 19.144531 17.328125 18.105469 17.746094 C 17.070312 18.164062 15.96875 18.375 14.800781 18.375 L 14.671875 18.375 L 11.351562 25.820312 L 7.589844 25.820312 Z M 14.984375 9.199219 "/>
</g>
</svg>
