<?xml version="1.0" encoding="UTF-8"?>
<svg xmlns="http://www.w3.org/2000/svg" xmlns:xlink="http://www.w3.org/1999/xlink" width="32.167999" height="32" viewBox="0 0 32.167999 32" version="1.1">
<defs>
<linearGradient id="linear0" gradientUnits="userSpaceOnUse" x1="55.549" y1="77.07" x2="110.149002" y2="131.852997" gradientTransform="matrix(0.29132,0,0,0.29132,-13.091,-19.655001)">
<stop offset="0" style="stop-color:rgb(21.960784%,49.411765%,72.156864%);stop-opacity:1;"/>
<stop offset="1" style="stop-color:rgb(21.176471%,41.176471%,58.039218%);stop-opacity:1;"/>
</linearGradient>
<linearGradient id="linear1" gradientUnits="userSpaceOnUse" x1="89.137001" y1="111.920998" x2="147.776993" y2="168.100998" gradientTransform="matrix(0.29132,0,0,0.29132,-13.091,-19.655001)">
<stop offset="0" style="stop-color:rgb(100%,87.843138%,32.156864%);stop-opacity:1;"/>
<stop offset="1" style="stop-color:rgb(100%,76.47059%,19.215687%);stop-opacity:1;"/>
</linearGradient>
</defs>
<g id="surface1">
<path style=" stroke:none;fill-rule:nonzero;fill:url(#linear0);" d="M 15.96875 0 C 7.800781 0 8.3125 3.542969 8.3125 3.542969 L 8.320312 7.210938 L 16.113281 7.210938 L 16.113281 8.3125 L 5.226562 8.3125 C 5.226562 8.3125 0 7.71875 0 15.957031 C 0 24.199219 4.5625 23.90625 4.5625 23.90625 L 7.28125 23.90625 L 7.28125 20.082031 C 7.28125 20.082031 7.136719 15.523438 11.769531 15.523438 L 19.5 15.523438 C 19.5 15.523438 23.84375 15.59375 23.84375 11.324219 L 23.84375 4.269531 C 23.84375 4.269531 24.5 0 15.96875 0 M 11.671875 2.46875 C 12.445312 2.46875 13.070312 3.097656 13.070312 3.867188 C 13.070312 4.640625 12.445312 5.269531 11.671875 5.269531 C 11.296875 5.269531 10.941406 5.125 10.679688 4.859375 C 10.414062 4.597656 10.269531 4.238281 10.269531 3.867188 C 10.269531 3.496094 10.414062 3.140625 10.679688 2.878906 C 10.941406 2.613281 11.296875 2.464844 11.671875 2.46875 M 11.671875 2.46875 "/>
<path style=" stroke:none;fill-rule:nonzero;fill:url(#linear1);" d="M 16.199219 32 C 24.367188 32 23.855469 28.457031 23.855469 28.457031 L 23.847656 24.789062 L 16.054688 24.789062 L 16.054688 23.6875 L 26.941406 23.6875 C 26.941406 23.6875 32.167969 24.28125 32.167969 16.042969 C 32.167969 7.800781 27.605469 8.09375 27.605469 8.09375 L 24.882812 8.09375 L 24.882812 11.917969 C 24.882812 11.917969 25.03125 16.476562 20.394531 16.476562 L 12.667969 16.476562 C 12.667969 16.476562 8.324219 16.40625 8.324219 20.675781 L 8.324219 27.730469 C 8.324219 27.730469 7.664062 32 16.199219 32 M 20.496094 29.53125 C 20.125 29.53125 19.769531 29.386719 19.503906 29.121094 C 19.242188 28.859375 19.09375 28.503906 19.09375 28.132812 C 19.09375 27.761719 19.242188 27.402344 19.503906 27.140625 C 19.765625 26.878906 20.125 26.730469 20.496094 26.730469 C 21.269531 26.730469 21.894531 27.355469 21.894531 28.128906 C 21.894531 28.902344 21.269531 29.53125 20.496094 29.53125 M 20.496094 29.53125 "/>
</g>
</svg>
