<?xml version="1.0" encoding="UTF-8"?>
<svg xmlns="http://www.w3.org/2000/svg" xmlns:xlink="http://www.w3.org/1999/xlink" width="20" height="32" viewBox="0 0 20 32" version="1.1">
<g id="surface1">
<path style=" stroke:none;fill-rule:nonzero;fill:rgb(0%,0%,0%);fill-opacity:1;" d="M 5 10 C 5 7.792969 6.792969 6 9 6 L 11 6 C 13.207031 6 15 7.792969 15 10 L 15 10.226562 C 15 11.585938 14.304688 12.855469 13.164062 13.585938 L 10.523438 15.28125 C 8.953125 16.292969 8 18.035156 8 19.90625 L 8 20 C 8 21.105469 8.894531 22 10 22 C 11.105469 22 12 21.105469 12 20 L 12 19.914062 C 12 19.398438 12.261719 18.925781 12.6875 18.648438 L 15.324219 16.957031 C 17.613281 15.480469 19 12.949219 19 10.226562 L 19 10 C 19 5.582031 15.417969 2 11 2 L 9 2 C 4.582031 2 1 5.582031 1 10 C 1 11.105469 1.894531 12 3 12 C 4.105469 12 5 11.105469 5 10 M 10 30 C 11.378906 30 12.5 28.878906 12.5 27.5 C 12.5 26.121094 11.378906 25 10 25 C 8.621094 25 7.5 26.121094 7.5 27.5 C 7.5 28.878906 8.621094 30 10 30 "/>
</g>
</svg>
