<?xml version="1.0" encoding="UTF-8"?>
<svg xmlns="http://www.w3.org/2000/svg" xmlns:xlink="http://www.w3.org/1999/xlink" width="30.233999" height="32" viewBox="0 0 30.233999 32" version="1.1">
<g id="surface1">
<path style=" stroke:none;fill-rule:nonzero;fill:rgb(100%,40.000001%,0%);fill-opacity:1;" d="M 28.984375 12.789062 L 18.9375 12.789062 C 18.433594 12.789062 18.023438 12.378906 18.023438 11.875 L 18.023438 1.40625 C 18.023438 0.628906 17.394531 0 16.621094 0 L 13.03125 0 C 12.257812 0 11.628906 0.628906 11.628906 1.40625 L 11.628906 11.8125 C 11.628906 12.351562 11.191406 12.792969 10.652344 12.792969 L 7.359375 12.808594 C 7.097656 12.8125 6.847656 12.707031 6.664062 12.523438 C 6.476562 12.339844 6.375 12.089844 6.375 11.828125 L 6.394531 1.40625 C 6.394531 0.628906 5.765625 0 4.988281 0 L 1.40625 0 C 0.628906 0 0.00390625 0.628906 0.00390625 1.40625 L 0.00390625 30.726562 C 0.00390625 31.414062 0.558594 31.972656 1.25 31.972656 L 28.984375 31.972656 C 29.671875 31.972656 30.230469 31.414062 30.230469 30.726562 L 30.230469 14.035156 C 30.230469 13.347656 29.671875 12.789062 28.984375 12.789062 M 24.273438 23.796875 C 24.273438 24.699219 23.539062 25.429688 22.636719 25.433594 L 19.804688 25.433594 C 18.902344 25.433594 18.167969 24.699219 18.167969 23.796875 L 18.167969 20.964844 C 18.167969 20.0625 18.902344 19.328125 19.804688 19.328125 L 22.636719 19.328125 C 23.539062 19.328125 24.273438 20.0625 24.273438 20.964844 Z M 24.273438 23.796875 "/>
</g>
</svg>
