<svg role="img" viewBox="0 0 30.234 32" xmlns="http://www.w3.org/2000/svg"><path d="M28.984 12.79H18.937a.915.915 0 0 1-.914-.915V1.406C18.023.63 17.395 0 16.621 0h-3.59c-.773 0-1.402.629-1.402 1.406v10.407a.98.98 0 0 1-.977.98l-3.293.016a.977.977 0 0 1-.984-.98l.02-10.423C6.395.63 5.765 0 4.988 0H1.406C.63 0 .004.629.004 1.406v29.32c0 .688.555 1.247 1.246 1.247h27.734c.688 0 1.246-.559 1.246-1.246V14.035c0-.687-.558-1.246-1.246-1.246m-4.71 11.007a1.64 1.64 0 0 1-1.637 1.637h-2.832a1.639 1.639 0 0 1-1.637-1.637v-2.832c0-.902.734-1.637 1.637-1.637h2.832c.902 0 1.636.735 1.636 1.637Zm0 0" style="stroke:none;fill-rule:nonzero;fill:rgb(100%,40.000001%,0%);fill-opacity:1"/></svg>