<svg role="img" viewBox="0 0 72.164 32" xmlns="http://www.w3.org/2000/svg"><path d="m68.23 7.031-.746-4.437C67.246 1.16 66.68 0 66.266 0c-.45 0-.805 1.191-.805 2.621v1.164a2.644 2.644 0 0 1-2.621 2.621h-1.403v3.188h4.619c1.43 0 2.414-1.16 2.175-2.563M57.773 3.277H43.261c-.09 0-.179 0-.238.032V2.62c0-1.43-.355-2.621-.804-2.621-.446 0-.98 1.16-1.219 2.594l-.746 4.437c-.238 1.43.746 2.594 2.203 2.594h4.352c.445 0 .863-.062 1.25-.18-.149.746-.774 1.313-1.579 1.313h-6.109c-.98 0-1.726-.895-1.578-1.88l.625-3.722c.148-.984-.594-1.879-1.578-1.879H7.39c-.656 0-1.19.387-1.46.953L.207 12.96a.413.413 0 0 0 .031.477L1.34 14.75c.148.176.387.176.566.059l3.903-3.07V30.39c0 .894.714 1.609 1.609 1.609h8.64c.895 0 1.61-.715 1.61-1.61v-6.495c0-.895.715-1.61 1.61-1.61h21.57c.894 0 1.609.715 1.609 1.61v6.496c0 .894.715 1.609 1.61 1.609h8.64c.895 0 1.61-.715 1.61-1.61v-6.972h-4.59c-1.43 0-2.622-1.191-2.622-2.621v-4.5c0-.863.418-1.61 1.043-2.086v5.363c0 1.43 1.192 2.625 2.622 2.625h7.062c1.43 0 2.621-1.195 2.621-2.625V5.93c-.058-1.489-1.219-2.653-2.68-2.653m10.934-1.609C68.707.508 69.57 0 70.375 0c.805 0 1.668.508 1.668 1.668 0 1.133-.863 1.64-1.668 1.64-.805 0-1.668-.507-1.668-1.64m2.95 0c0-.922-.594-1.309-1.25-1.309-.657 0-1.282.387-1.282 1.309 0 .895.625 1.312 1.281 1.312.656-.03 1.25-.417 1.25-1.312M69.84.836h.597c.297 0 .594.086.594.504 0 .238-.18.387-.386.45l.386.683h-.355l-.36-.657h-.148v.657h-.328Zm.597.742c.149 0 .266-.09.266-.238 0-.18-.148-.207-.266-.207h-.3v.445Zm0 0" style="stroke:none;fill-rule:nonzero;fill:rgb(0%,45.882353%,65.882355%);fill-opacity:1"/></svg>