<?xml version="1.0" encoding="UTF-8"?>
<svg xmlns="http://www.w3.org/2000/svg" xmlns:xlink="http://www.w3.org/1999/xlink" width="72.164001" height="32" viewBox="0 0 72.164001 32" version="1.1">
<g id="surface1">
<path style=" stroke:none;fill-rule:nonzero;fill:rgb(0%,45.882353%,65.882355%);fill-opacity:1;" d="M 68.230469 7.03125 L 67.484375 2.59375 C 67.246094 1.160156 66.679688 0 66.265625 0 C 65.816406 0 65.460938 1.191406 65.460938 2.621094 L 65.460938 3.785156 C 65.449219 5.226562 64.28125 6.394531 62.839844 6.40625 L 61.4375 6.40625 L 61.4375 9.59375 L 66.054688 9.59375 C 67.484375 9.59375 68.46875 8.433594 68.230469 7.03125 M 57.773438 3.277344 L 43.261719 3.277344 C 43.171875 3.277344 43.082031 3.277344 43.023438 3.308594 L 43.023438 2.621094 C 43.023438 1.191406 42.667969 0 42.21875 0 C 41.773438 0 41.238281 1.160156 41 2.59375 L 40.253906 7.03125 C 40.015625 8.460938 41 9.625 42.457031 9.625 L 46.808594 9.625 C 47.253906 9.625 47.671875 9.5625 48.058594 9.445312 C 47.910156 10.191406 47.285156 10.757812 46.480469 10.757812 L 40.371094 10.757812 C 39.390625 10.757812 38.644531 9.863281 38.792969 8.878906 L 39.417969 5.15625 C 39.566406 4.171875 38.824219 3.277344 37.839844 3.277344 L 7.390625 3.277344 C 6.734375 3.277344 6.199219 3.664062 5.929688 4.230469 L 0.207031 12.960938 C 0.113281 13.109375 0.128906 13.300781 0.238281 13.4375 L 1.339844 14.75 C 1.488281 14.925781 1.726562 14.925781 1.90625 14.808594 L 5.808594 11.738281 L 5.808594 30.390625 C 5.808594 31.285156 6.523438 32 7.417969 32 L 16.058594 32 C 16.953125 32 17.667969 31.285156 17.667969 30.390625 L 17.667969 23.894531 C 17.667969 23 18.382812 22.285156 19.277344 22.285156 L 40.847656 22.285156 C 41.742188 22.285156 42.457031 23 42.457031 23.894531 L 42.457031 30.390625 C 42.457031 31.285156 43.171875 32 44.066406 32 L 52.707031 32 C 53.601562 32 54.316406 31.285156 54.316406 30.390625 L 54.316406 23.417969 L 49.726562 23.417969 C 48.296875 23.417969 47.105469 22.226562 47.105469 20.796875 L 47.105469 16.296875 C 47.105469 15.433594 47.523438 14.6875 48.148438 14.210938 L 48.148438 19.574219 C 48.148438 21.003906 49.339844 22.199219 50.769531 22.199219 L 57.832031 22.199219 C 59.261719 22.199219 60.453125 21.003906 60.453125 19.574219 L 60.453125 5.929688 C 60.394531 4.441406 59.234375 3.277344 57.773438 3.277344 M 68.707031 1.667969 C 68.707031 0.507812 69.570312 0 70.375 0 C 71.179688 0 72.042969 0.507812 72.042969 1.667969 C 72.042969 2.800781 71.179688 3.308594 70.375 3.308594 C 69.570312 3.308594 68.707031 2.800781 68.707031 1.667969 M 71.65625 1.667969 C 71.65625 0.746094 71.0625 0.359375 70.40625 0.359375 C 69.75 0.359375 69.125 0.746094 69.125 1.667969 C 69.125 2.5625 69.75 2.980469 70.40625 2.980469 C 71.0625 2.949219 71.65625 2.5625 71.65625 1.667969 M 69.839844 0.835938 L 70.4375 0.835938 C 70.734375 0.835938 71.03125 0.921875 71.03125 1.339844 C 71.03125 1.578125 70.851562 1.726562 70.644531 1.789062 L 71.03125 2.472656 L 70.675781 2.472656 L 70.316406 1.816406 L 70.167969 1.816406 L 70.167969 2.472656 L 69.839844 2.472656 Z M 70.4375 1.578125 C 70.585938 1.578125 70.703125 1.488281 70.703125 1.339844 C 70.703125 1.160156 70.554688 1.132812 70.4375 1.132812 L 70.136719 1.132812 L 70.136719 1.578125 Z M 70.4375 1.578125 "/>
</g>
</svg>
