<svg role="img" viewBox="0 0 50 50" xmlns="http://www.w3.org/2000/svg"><path d="M25 0c-2.117 0-4.055 1.324-5.469 3.719l-5 8.437c-.281.477-.101 1.094.375 1.375.477.281 1.094.102 1.375-.375L21.25 4.72C22.29 2.957 23.617 2 25 2s2.71.957 3.75 2.719l5.75 9.718-4.062 2.47a.961.961 0 0 0-.47.843c0 .352.169.664.47.844l10 6a1.021 1.021 0 0 0 1.031.031c.312-.176.5-.516.5-.875v-12c0-.36-.188-.7-.5-.875-.317-.176-.723-.187-1.032 0l-4.218 2.531-5.75-9.687C29.055 1.324 27.117 0 25 0M12.844 15.938a.98.98 0 0 0-.5.124l-10 6.032a.99.99 0 0 0-.5.843.99.99 0 0 0 .5.844l3.937 2.344-5.062 8.563c-1.406 2.378-1.59 4.667-.563 6.468C1.703 42.988 3.836 44 6.688 44H18a1 1 0 1 0 0-2H6.688c-2.102 0-3.637-.664-4.313-1.844-.656-1.148-.46-2.734.563-4.468l5.03-8.532 4.376 2.625c.16.094.32.157.5.157a.98.98 0 0 0 .5-.125c.312-.18.5-.516.5-.875v-12c0-.36-.188-.7-.5-.875a.943.943 0 0 0-.5-.125M43.438 27c-.13.02-.258.055-.376.125a1.004 1.004 0 0 0-.343 1.375l4.343 7.188c1.024 1.734 1.22 3.32.563 4.468C46.949 41.34 45.418 42 43.313 42H34v-5a1 1 0 0 0-.5-.875.987.987 0 0 0-1 .031l-10 6a1.01 1.01 0 0 0-.469.594A.878.878 0 0 0 22 43c0 .352.2.664.5.844l10 6c.16.093.32.156.5.156a.896.896 0 0 0 .25-.031c.082-.024.172-.051.25-.094.313-.18.5-.516.5-.875v-5h9.313c2.851 0 5.015-1.012 6.062-2.844 1.027-1.8.816-4.113-.594-6.5l-4.343-7.187a.998.998 0 0 0-1-.469"/></svg>