<svg xmlns="http://www.w3.org/2000/svg" width="65" height="50" stroke="none" stroke-linecap="round" stroke-linejoin="round" fill="#fff" fill-rule="nonzero"><path d="M42.6438 27.9036c4.2164 0 10.2839-.857 10.2839-5.8618 0-.3771-.0343-.7884-.1028-1.1655l-2.5024-10.8667c-.5828-2.3995-1.097-3.4622-5.2791-5.5875C41.7868 2.7424 34.6909 0 32.5656 0c-1.9539 0-2.5367 2.5367-4.8677 2.5367-2.2625 0-3.9078-1.8854-5.9989-1.8854-2.0225 0-3.3251 1.3712-4.3535 4.2164l-3.188 9.1184c-.0686.2056-.0686.4456-.0686.6513 0 3.0851 12.2035 13.2319 28.5549 13.2662m10.9352-3.8393c.5828 2.7423.5828 3.0509.5828 3.3937 0 4.6963-5.2791 7.3015-12.2378 7.3015-15.7344 0-29.4805-9.1869-29.4805-15.2887 0-.857.1714-1.6797.5142-2.4681C7.3016 17.2769 0 18.3053 0 24.7499c0 10.5924 25.0584 23.6186 44.9405 23.6186C60.1607 48.3685 64 41.4783 64 36.0621c-.0343-4.2506-3.7364-9.1183-10.421-11.9978" fill="#e00"/><path d="M53.579 24.0643l.5828 3.3937c0 4.6963-5.2791 7.3015-12.2378 7.3015-15.7344 0-29.4805-9.1869-29.4805-15.2887 0-.857.1714-1.6797.5142-2.4681l1.2341-3.0509c-.0686.2057-.0686.4113-.0686.6513 0 3.0852 12.2035 13.2662 28.5549 13.2662 4.2164 0 10.2839-.857 10.2839-5.8618 0-.3771-.0343-.7884-.1029-1.1655l.7199 3.2223z" fill="#000"/></svg>