<?xml version="1.0" encoding="UTF-8"?>
<svg xmlns="http://www.w3.org/2000/svg" xmlns:xlink="http://www.w3.org/1999/xlink" width="41.599998" height="32" viewBox="0 0 41.599998 32" version="1.1">
<g id="surface1">
<path style=" stroke:none;fill-rule:nonzero;fill:rgb(93.333334%,0%,0%);fill-opacity:1;" d="M 27.292969 17.859375 C 29.992188 17.859375 33.875 17.308594 33.875 14.105469 C 33.875 13.867188 33.851562 13.601562 33.808594 13.359375 L 32.207031 6.40625 C 31.832031 4.871094 31.503906 4.191406 28.828125 2.832031 C 26.742188 1.753906 22.203125 0 20.84375 0 C 19.589844 0 19.21875 1.625 17.726562 1.625 C 16.277344 1.625 15.226562 0.417969 13.886719 0.417969 C 12.59375 0.417969 11.757812 1.292969 11.101562 3.117188 L 9.0625 8.949219 C 9.015625 9.082031 9.015625 9.234375 9.015625 9.367188 C 9.015625 11.34375 16.828125 17.835938 27.292969 17.859375 M 34.289062 15.402344 C 34.664062 17.15625 34.664062 17.355469 34.664062 17.574219 C 34.664062 20.578125 31.285156 22.246094 26.832031 22.246094 C 16.761719 22.246094 7.964844 16.367188 7.964844 12.460938 C 7.964844 11.914062 8.074219 11.386719 8.292969 10.882812 C 4.671875 11.058594 0 11.714844 0 15.839844 C 0 22.617188 16.039062 30.957031 28.761719 30.957031 C 38.503906 30.957031 40.960938 26.546875 40.960938 23.078125 C 40.9375 20.359375 38.570312 17.242188 34.289062 15.402344 "/>
<path style=" stroke:none;fill-rule:nonzero;fill:rgb(0%,0%,0%);fill-opacity:1;" d="M 34.289062 15.402344 L 34.664062 17.574219 C 34.664062 20.578125 31.285156 22.246094 26.832031 22.246094 C 16.761719 22.246094 7.964844 16.367188 7.964844 12.460938 C 7.964844 11.914062 8.074219 11.386719 8.292969 10.882812 L 9.082031 8.929688 C 9.039062 9.0625 9.039062 9.191406 9.039062 9.347656 C 9.039062 11.320312 16.847656 17.835938 27.3125 17.835938 C 30.011719 17.835938 33.894531 17.289062 33.894531 14.085938 C 33.894531 13.84375 33.875 13.582031 33.828125 13.339844 Z M 34.289062 15.402344 "/>
</g>
</svg>
