<svg role="img" viewBox="0 0 41.6 32" xmlns="http://www.w3.org/2000/svg"><path d="M27.293 17.86c2.7 0 6.582-.551 6.582-3.755 0-.238-.023-.503-.066-.746l-1.602-6.953c-.375-1.535-.703-2.215-3.379-3.574C26.742 1.754 22.203 0 20.844 0c-1.254 0-1.625 1.625-3.117 1.625-1.45 0-2.5-1.207-3.84-1.207-1.293 0-2.13.875-2.785 2.7l-2.04 5.831c-.046.133-.046.285-.046.418 0 1.977 7.812 8.469 18.277 8.492m6.996-2.457c.375 1.754.375 1.953.375 2.172 0 3.004-3.379 4.672-7.832 4.672-10.07 0-18.867-5.879-18.867-9.785 0-.547.11-1.074.328-1.578C4.672 11.059 0 11.715 0 15.84c0 6.777 16.04 15.117 28.762 15.117 9.742 0 12.199-4.41 12.199-7.879-.023-2.719-2.39-5.836-6.672-7.676" style="stroke:none;fill-rule:nonzero;fill:rgb(93.333334%,0%,0%);fill-opacity:1"/><path d="m34.29 15.402.374 2.172c0 3.004-3.379 4.672-7.832 4.672-10.07 0-18.867-5.879-18.867-9.785 0-.547.11-1.074.328-1.578l.789-1.953c-.043.133-.043.261-.043.418 0 1.972 7.809 8.488 18.274 8.488 2.699 0 6.582-.547 6.582-3.75 0-.242-.02-.504-.067-.746Zm0 0" style="stroke:none;fill-rule:nonzero;fill:rgb(0%,0%,0%);fill-opacity:1"/></svg>