<?xml version="1.0" encoding="UTF-8"?>
<svg xmlns="http://www.w3.org/2000/svg" xmlns:xlink="http://www.w3.org/1999/xlink" width="32" height="32" viewBox="0 0 32 32" version="1.1">
<g id="surface1">
<path style=" stroke:none;fill-rule:nonzero;fill:rgb(64.313728%,11.764706%,6.666667%);fill-opacity:1;" d="M 30.746094 23.433594 C 29.039062 24.324219 20.191406 27.960938 18.308594 28.945312 C 16.425781 29.925781 15.378906 29.917969 13.890625 29.207031 C 12.402344 28.496094 2.992188 24.691406 1.292969 23.882812 C 0.445312 23.476562 0 23.132812 0 22.8125 L 0 19.578125 C 0 19.578125 12.257812 16.910156 14.238281 16.199219 C 16.214844 15.488281 16.898438 15.464844 18.585938 16.082031 C 20.269531 16.699219 30.335938 18.515625 32 19.125 L 32 22.3125 C 32 22.632812 31.617188 22.992188 30.746094 23.4375 Z M 30.746094 23.433594 "/>
<path style=" stroke:none;fill-rule:nonzero;fill:rgb(84.705883%,17.254902%,12.54902%);fill-opacity:1;" d="M 30.746094 20.199219 C 29.039062 21.089844 20.191406 24.726562 18.308594 25.707031 C 16.425781 26.691406 15.378906 26.679688 13.890625 25.96875 C 12.402344 25.257812 2.992188 21.457031 1.292969 20.644531 C -0.402344 19.835938 -0.4375 19.277344 1.230469 18.625 L 14.234375 13.589844 C 16.214844 12.878906 16.898438 12.855469 18.585938 13.46875 C 20.269531 14.085938 29.0625 17.585938 30.722656 18.207031 C 32.386719 18.824219 32.453125 19.316406 30.746094 20.207031 Z M 30.746094 20.199219 "/>
<path style=" stroke:none;fill-rule:nonzero;fill:rgb(64.313728%,11.764706%,6.666667%);fill-opacity:1;" d="M 30.746094 18.160156 C 29.039062 19.050781 20.191406 22.6875 18.308594 23.667969 C 16.425781 24.652344 15.378906 24.640625 13.890625 23.929688 C 12.402344 23.21875 2.992188 19.417969 1.292969 18.605469 C 0.445312 18.199219 0 17.859375 0 17.539062 L 0 14.300781 C 0 14.300781 12.257812 11.632812 14.238281 10.925781 C 16.214844 10.214844 16.898438 10.1875 18.585938 10.804688 C 20.269531 11.421875 30.335938 13.238281 32 13.847656 L 32 17.039062 C 32 17.359375 31.617188 17.71875 30.746094 18.160156 M 30.746094 18.160156 "/>
<path style=" stroke:none;fill-rule:nonzero;fill:rgb(84.705883%,17.254902%,12.54902%);fill-opacity:1;" d="M 30.746094 14.925781 C 29.039062 15.816406 20.191406 19.453125 18.308594 20.433594 C 16.425781 21.414062 15.378906 21.40625 13.890625 20.695312 C 12.402344 19.984375 2.992188 16.183594 1.292969 15.371094 C -0.402344 14.558594 -0.4375 14.003906 1.230469 13.351562 L 14.234375 8.316406 C 16.214844 7.605469 16.898438 7.582031 18.585938 8.195312 C 20.269531 8.8125 29.0625 12.3125 30.726562 12.921875 C 32.390625 13.53125 32.453125 14.035156 30.746094 14.925781 M 30.746094 14.925781 "/>
<path style=" stroke:none;fill-rule:nonzero;fill:rgb(64.313728%,11.764706%,6.666667%);fill-opacity:1;" d="M 30.746094 12.691406 C 29.039062 13.582031 20.191406 17.21875 18.308594 18.199219 C 16.425781 19.183594 15.378906 19.171875 13.890625 18.460938 C 12.402344 17.75 2.992188 13.949219 1.292969 13.136719 C 0.445312 12.730469 0 12.390625 0 12.066406 L 0 8.832031 C 0 8.832031 12.257812 6.164062 14.238281 5.453125 C 16.214844 4.742188 16.898438 4.71875 18.585938 5.335938 C 20.269531 5.953125 30.335938 7.769531 32 8.378906 L 32 11.566406 C 32 11.886719 31.617188 12.246094 30.746094 12.691406 M 30.746094 12.691406 "/>
<path style=" stroke:none;fill-rule:nonzero;fill:rgb(84.705883%,17.254902%,12.54902%);fill-opacity:1;" d="M 30.746094 9.453125 C 29.039062 10.34375 20.191406 13.980469 18.308594 14.964844 C 16.425781 15.945312 15.378906 15.9375 13.890625 15.226562 C 12.402344 14.515625 2.992188 10.710938 1.292969 9.902344 C -0.402344 9.089844 -0.4375 8.53125 1.230469 7.878906 L 14.234375 2.84375 C 16.214844 2.136719 16.898438 2.109375 18.585938 2.726562 C 20.269531 3.34375 29.0625 6.84375 30.726562 7.453125 C 32.390625 8.058594 32.453125 8.5625 30.746094 9.453125 M 30.746094 9.453125 "/>
<path style=" stroke:none;fill-rule:nonzero;fill:rgb(100%,100%,100%);fill-opacity:1;" d="M 16.800781 8.121094 L 15.796875 6.453125 L 12.59375 6.164062 L 14.984375 5.304688 L 14.265625 3.980469 L 16.503906 4.855469 L 18.613281 4.164062 L 18.042969 5.53125 L 20.191406 6.335938 L 17.417969 6.625 Z M 11.457031 11.441406 L 18.871094 10.300781 L 16.632812 13.585938 Z M 13.421875 8.707031 C 13.421875 9.554688 11.648438 10.242188 9.460938 10.242188 C 7.269531 10.242188 5.496094 9.554688 5.496094 8.707031 C 5.496094 7.859375 7.269531 7.167969 9.460938 7.167969 C 11.648438 7.167969 13.421875 7.859375 13.421875 8.707031 M 13.421875 8.707031 "/>
<path style=" stroke:none;fill-rule:nonzero;fill:rgb(47.843137%,4.705882%,0%);fill-opacity:1;" d="M 27.859375 8.480469 L 23.472656 10.214844 L 23.46875 6.746094 Z M 27.859375 8.480469 "/>
<path style=" stroke:none;fill-rule:nonzero;fill:rgb(67.843139%,12.941177%,8.235294%);fill-opacity:1;" d="M 23.472656 10.214844 L 23 10.402344 L 18.617188 8.667969 L 23.46875 6.75 Z M 23.472656 10.214844 "/>
</g>
</svg>
