<svg role="img" viewBox="0 0 32 32" xmlns="http://www.w3.org/2000/svg"><path d="M30.746 23.434c-1.707.89-10.555 4.527-12.437 5.511-1.883.98-2.93.973-4.418.262-1.489-.71-10.899-4.516-12.598-5.324C.445 23.477 0 23.133 0 22.813v-3.235S12.258 16.91 14.238 16.2c1.977-.71 2.66-.734 4.348-.117 1.684.617 11.75 2.434 13.414 3.043v3.188c0 .32-.383.68-1.254 1.125Zm0 0" style="stroke:none;fill-rule:nonzero;fill:rgb(64.313728%,11.764706%,6.666667%);fill-opacity:1"/><path d="M30.746 20.2c-1.707.89-10.555 4.527-12.437 5.507-1.883.984-2.93.973-4.418.262-1.489-.711-10.899-4.512-12.598-5.324-1.695-.81-1.73-1.368-.063-2.02l13.004-5.035c1.98-.711 2.664-.735 4.352-.121 1.684.617 10.477 4.117 12.137 4.738 1.664.617 1.73 1.11.023 2Zm0 0" style="stroke:none;fill-rule:nonzero;fill:rgb(84.705883%,17.254902%,12.54902%);fill-opacity:1"/><path d="M30.746 18.16c-1.707.89-10.555 4.528-12.437 5.508-1.883.984-2.93.973-4.418.262-1.489-.711-10.899-4.512-12.598-5.325C.445 18.2 0 17.86 0 17.54v-3.238s12.258-2.668 14.238-3.375c1.977-.711 2.66-.739 4.348-.121 1.684.617 11.75 2.433 13.414 3.043v3.191c0 .32-.383.68-1.254 1.121m0 0" style="stroke:none;fill-rule:nonzero;fill:rgb(64.313728%,11.764706%,6.666667%);fill-opacity:1"/><path d="M30.746 14.926c-1.707.89-10.555 4.527-12.437 5.508-1.883.98-2.93.972-4.418.261-1.489-.71-10.899-4.511-12.598-5.324-1.695-.812-1.73-1.367-.063-2.02l13.004-5.035c1.98-.71 2.664-.734 4.352-.12 1.684.617 10.477 4.117 12.14 4.726 1.665.61 1.727 1.113.02 2.004m0 0" style="stroke:none;fill-rule:nonzero;fill:rgb(84.705883%,17.254902%,12.54902%);fill-opacity:1"/><path d="M30.746 12.691c-1.707.891-10.555 4.528-12.437 5.508-1.883.985-2.93.973-4.418.262-1.489-.711-10.899-4.512-12.598-5.324C.445 12.73 0 12.39 0 12.067V8.831s12.258-2.668 14.238-3.379c1.977-.71 2.66-.734 4.348-.117C20.27 5.953 30.336 7.77 32 8.379v3.187c0 .32-.383.68-1.254 1.125m0 0" style="stroke:none;fill-rule:nonzero;fill:rgb(64.313728%,11.764706%,6.666667%);fill-opacity:1"/><path d="M30.746 9.453c-1.707.89-10.555 4.527-12.437 5.512-1.883.98-2.93.973-4.418.262-1.489-.711-10.899-4.516-12.598-5.325-1.695-.812-1.73-1.37-.063-2.023l13.004-5.035c1.98-.707 2.664-.735 4.352-.117 1.684.617 10.477 4.117 12.14 4.726 1.665.606 1.727 1.11.02 2m0 0" style="stroke:none;fill-rule:nonzero;fill:rgb(84.705883%,17.254902%,12.54902%);fill-opacity:1"/><path d="m16.8 8.121-1.003-1.668-3.203-.289 2.39-.86-.718-1.324 2.238.875 2.11-.69-.571 1.366 2.148.805-2.773.289Zm-5.343 3.32 7.414-1.14-2.238 3.285Zm1.965-2.734c0 .848-1.774 1.535-3.961 1.535-2.191 0-3.965-.687-3.965-1.535 0-.848 1.774-1.539 3.965-1.539 2.187 0 3.96.691 3.96 1.539m0 0" style="stroke:none;fill-rule:nonzero;fill:rgb(100%,100%,100%);fill-opacity:1"/><path d="m27.86 8.48-4.387 1.735-.004-3.469Zm0 0" style="stroke:none;fill-rule:nonzero;fill:rgb(47.843137%,4.705882%,0%);fill-opacity:1"/><path d="m23.473 10.215-.473.187-4.383-1.734L23.47 6.75Zm0 0" style="stroke:none;fill-rule:nonzero;fill:rgb(67.843139%,12.941177%,8.235294%);fill-opacity:1"/></svg>