<svg xmlns="http://www.w3.org/2000/svg" xmlns:xlink="http://www.w3.org/1999/xlink" viewBox="0,0,256,256" width="32px" height="32px"><defs><clipPath id="clip-1"><path d="M0,256v-256h256v256zM135.168,133.12c0,27.0336 22.1184,49.152 49.152,49.152c27.0336,0 49.152,-22.1184 49.152,-49.152c0,-27.0336 -22.1184,-49.152 -49.152,-49.152c-27.0336,0 -49.152,22.1184 -49.152,49.152z" id="overlayBgMask" fill="none"></path></clipPath></defs><g clip-path="url(#clip-1)" fill="none" fill-rule="nonzero" stroke="none" stroke-width="1" stroke-linecap="butt" stroke-linejoin="miter" stroke-miterlimit="10" stroke-dasharray="" stroke-dashoffset="0" font-family="none" font-weight="none" font-size="none" text-anchor="none" style="mix-blend-mode: normal"><g transform="scale(5.12,5.12)" fill="#000000"><path d="M2,6v2h4c0.56641,0 1,0.43359 1,1v34h2v-5h4v-3c0,-0.55078 0.44922,-1 1,-1h10c0.55078,0 1,0.44922 1,1v3h22v-23h-38v-6c0,-1.64453 -1.35547,-3 -3,-3zM31,18h2v3h-2v2h-3v-2h3zM35,18h2v3h-2zM39,18h2v3h3v2h-3v-2h-2zM21,20c1.10547,0 2,0.89453 2,2c0,1.10547 -0.89453,2 -2,2c-1.10547,0 -2,-0.89453 -2,-2c0,-1.10547 0.89453,-2 2,-2zM9,21h4v8h-4zM28,25h3v2h-3zM41,25h3v2h-3zM28,29h3v2h2v3h-2v-3h-3zM41,29h3v2h-3v3h-2v-3h2zM35,31h2v3h-2z"></path></g></g><g fill="#000000" fill-rule="nonzero" stroke="none" stroke-width="1" stroke-linecap="butt" stroke-linejoin="miter" stroke-miterlimit="10" stroke-dasharray="" stroke-dashoffset="0" font-family="none" font-weight="none" font-size="none" text-anchor="none" style="mix-blend-mode: normal"><g transform="translate(143.36,92.16) scale(4.096,4.096)" id="overlay"><path d="M10,0c-5.5,0 -10,4.5 -10,10c0,5.5 4.5,10 10,10c5.5,0 10,-4.5 10,-10c0,-5.5 -4.5,-10 -10,-10zM14.9,11h-9.8c-0.6,0 -1,-0.4 -1,-1c0,-0.6 0.4,-1 1,-1h9.9c0.6,0 1,0.4 1,1c0,0.6 -0.5,1 -1.1,1z"></path></g></g></svg>