<?xml version="1.0" encoding="UTF-8"?>
<svg xmlns="http://www.w3.org/2000/svg" xmlns:xlink="http://www.w3.org/1999/xlink" width="32" height="32" viewBox="0 0 32 32" version="1.1">
<g id="surface1">
<path style=" stroke:none;fill-rule:nonzero;fill:rgb(0%,0%,0%);fill-opacity:1;" d="M 23.679688 2.5625 C 22.203125 2.5625 20.730469 3.125 19.605469 4.246094 L 16.40625 7.449219 C 14.863281 8.996094 14.328125 11.28125 15.027344 13.351562 L 17.324219 11.054688 C 17.421875 10.394531 17.710938 9.761719 18.214844 9.257812 L 21.417969 6.058594 C 22.015625 5.457031 22.832031 5.121094 23.679688 5.121094 C 24.5 5.121094 25.320312 5.433594 25.941406 6.058594 C 27.191406 7.308594 27.191406 9.335938 25.941406 10.582031 L 22.742188 13.78125 C 22.257812 14.269531 21.625 14.582031 20.945312 14.671875 L 18.644531 16.972656 C 20.714844 17.675781 23.003906 17.140625 24.550781 15.59375 L 27.753906 12.390625 C 30 10.140625 30 6.496094 27.753906 4.246094 C 26.671875 3.167969 25.207031 2.5625 23.679688 2.5625 M 19.816406 10.867188 C 19.484375 10.878906 19.167969 11.015625 18.933594 11.253906 L 11.253906 18.933594 C 10.921875 19.257812 10.785156 19.734375 10.902344 20.179688 C 11.019531 20.628906 11.371094 20.980469 11.820312 21.097656 C 12.265625 21.214844 12.742188 21.078125 13.066406 20.746094 L 20.746094 13.066406 C 21.125 12.699219 21.242188 12.132812 21.035156 11.648438 C 20.828125 11.160156 20.34375 10.851562 19.816406 10.867188 M 11.808594 14.734375 C 10.183594 14.648438 8.597656 15.253906 7.449219 16.40625 L 4.246094 19.605469 C 2 21.859375 2 25.503906 4.246094 27.753906 C 5.328125 28.832031 6.792969 29.4375 8.320312 29.4375 C 9.792969 29.4375 11.269531 28.875 12.390625 27.75 L 15.59375 24.550781 C 17.136719 23.003906 17.671875 20.714844 16.972656 18.644531 L 14.671875 20.945312 C 14.582031 21.625 14.269531 22.257812 13.78125 22.742188 L 10.582031 25.941406 C 9.332031 27.191406 7.308594 27.191406 6.058594 25.941406 C 5.457031 25.34375 5.121094 24.527344 5.121094 23.679688 C 5.121094 22.832031 5.457031 22.019531 6.058594 21.417969 L 9.257812 18.21875 C 9.742188 17.730469 10.375 17.417969 11.054688 17.324219 L 13.351562 15.027344 C 12.851562 14.859375 12.335938 14.761719 11.808594 14.734375 M 25.601562 19.199219 C 22.3125 19.199219 19.582031 21.710938 19.238281 24.910156 C 19.214844 25.140625 19.199219 25.371094 19.199219 25.601562 C 19.199219 29.121094 22.078125 32 25.601562 32 C 29.121094 32 32 29.121094 32 25.601562 C 32 22.078125 29.121094 19.199219 25.601562 19.199219 M 23.359375 22.71875 C 23.550781 22.71875 23.679688 22.785156 23.808594 22.914062 L 25.601562 24.703125 L 27.390625 22.914062 C 27.507812 22.789062 27.671875 22.71875 27.839844 22.71875 C 28.011719 22.71875 28.171875 22.789062 28.289062 22.914062 C 28.410156 23.03125 28.480469 23.191406 28.480469 23.363281 C 28.480469 23.53125 28.410156 23.691406 28.289062 23.808594 L 26.496094 25.601562 L 28.289062 27.390625 C 28.410156 27.507812 28.480469 27.671875 28.480469 27.839844 C 28.480469 28.007812 28.410156 28.171875 28.289062 28.289062 C 28.167969 28.402344 28.007812 28.472656 27.839844 28.480469 C 27.671875 28.472656 27.511719 28.402344 27.390625 28.289062 L 25.601562 26.496094 L 23.808594 28.289062 C 23.6875 28.402344 23.527344 28.472656 23.359375 28.480469 C 23.191406 28.472656 23.035156 28.40625 22.914062 28.289062 C 22.789062 28.171875 22.71875 28.011719 22.71875 27.839844 C 22.71875 27.667969 22.789062 27.507812 22.914062 27.390625 L 24.703125 25.601562 L 22.914062 23.808594 C 22.789062 23.691406 22.71875 23.53125 22.71875 23.363281 C 22.71875 23.191406 22.789062 23.03125 22.914062 22.914062 C 23.027344 22.785156 23.1875 22.714844 23.359375 22.71875 M 23.359375 22.71875 "/>
</g>
</svg>
