<?xml version="1.0" encoding="UTF-8"?>
<svg xmlns="http://www.w3.org/2000/svg" xmlns:xlink="http://www.w3.org/1999/xlink" width="32" height="32" viewBox="0 0 32 32" version="1.1">
<g id="surface1">
<path style=" stroke:none;fill-rule:nonzero;fill:rgb(0%,0%,0%);fill-opacity:1;" d="M 26.960938 14.246094 C 26.96875 14.121094 26.972656 14.003906 26.972656 13.886719 C 26.972656 9.246094 23.195312 5.46875 18.554688 5.46875 C 15.351562 5.46875 12.421875 7.324219 11.015625 10.164062 C 10.289062 9.683594 9.441406 9.421875 8.546875 9.421875 C 6.175781 9.421875 4.230469 11.269531 4.074219 13.601562 C 1.652344 14.484375 0 16.804688 0 19.414062 C 0 22.824219 2.777344 25.601562 6.191406 25.601562 L 26.300781 25.601562 C 29.445312 25.601562 32 23.046875 32 19.902344 C 32 16.984375 29.796875 14.574219 26.960938 14.246094 Z M 20.292969 20.667969 C 20.542969 20.917969 20.542969 21.324219 20.292969 21.574219 C 20.167969 21.699219 20.003906 21.761719 19.839844 21.761719 C 19.675781 21.761719 19.511719 21.699219 19.386719 21.574219 L 16.640625 18.824219 L 13.890625 21.574219 C 13.765625 21.699219 13.605469 21.761719 13.441406 21.761719 C 13.273438 21.761719 13.113281 21.699219 12.988281 21.574219 C 12.738281 21.324219 12.738281 20.917969 12.988281 20.667969 L 15.734375 17.921875 L 12.988281 15.171875 C 12.738281 14.921875 12.738281 14.515625 12.988281 14.265625 C 13.238281 14.015625 13.640625 14.015625 13.890625 14.265625 L 16.640625 17.015625 L 19.386719 14.265625 C 19.636719 14.015625 20.042969 14.015625 20.292969 14.265625 C 20.542969 14.515625 20.542969 14.921875 20.292969 15.171875 L 17.546875 17.921875 Z M 20.292969 20.667969 "/>
</g>
</svg>
