<?xml version="1.0" encoding="UTF-8"?>
<svg xmlns="http://www.w3.org/2000/svg" xmlns:xlink="http://www.w3.org/1999/xlink" width="32" height="32" viewBox="0 0 32 32" version="1.1">
<g id="surface1">
<path style=" stroke:none;fill-rule:nonzero;fill:rgb(0%,0%,0%);fill-opacity:1;" d="M 12.160156 0 C 8.984375 0 6.398438 2.585938 6.398438 5.761719 C 6.398438 8.71875 8.644531 11.164062 11.519531 11.484375 L 11.519531 28.800781 L 19.839844 28.800781 L 19.839844 30.71875 L 24.960938 30.71875 L 24.960938 25.601562 L 19.839844 25.601562 L 19.839844 27.519531 L 12.800781 27.519531 L 12.800781 21.761719 L 19.839844 21.761719 L 19.839844 23.679688 L 24.960938 23.679688 L 24.960938 18.558594 L 19.839844 18.558594 L 19.839844 20.480469 L 12.800781 20.480469 L 12.800781 14.71875 L 19.839844 14.71875 L 19.839844 16.640625 L 24.960938 16.640625 L 24.960938 11.519531 L 19.839844 11.519531 L 19.839844 13.441406 L 12.800781 13.441406 L 12.800781 11.484375 C 15.675781 11.164062 17.921875 8.71875 17.921875 5.761719 C 17.921875 2.585938 15.335938 0 12.160156 0 Z M 10.238281 3.199219 C 10.402344 3.199219 10.566406 3.261719 10.691406 3.386719 L 12.160156 4.855469 L 13.628906 3.386719 C 13.878906 3.136719 14.28125 3.136719 14.53125 3.386719 C 14.78125 3.636719 14.78125 4.042969 14.53125 4.292969 L 13.066406 5.761719 L 14.53125 7.226562 C 14.78125 7.476562 14.78125 7.882812 14.53125 8.132812 C 14.40625 8.257812 14.246094 8.320312 14.078125 8.320312 C 13.914062 8.320312 13.753906 8.257812 13.628906 8.132812 L 12.160156 6.664062 L 10.691406 8.132812 C 10.566406 8.257812 10.40625 8.320312 10.238281 8.320312 C 10.074219 8.320312 9.914062 8.257812 9.789062 8.132812 C 9.539062 7.882812 9.539062 7.476562 9.789062 7.226562 L 11.253906 5.761719 L 9.789062 4.292969 C 9.539062 4.042969 9.539062 3.636719 9.789062 3.386719 C 9.914062 3.261719 10.078125 3.199219 10.238281 3.199219 Z M 21.121094 12.800781 L 23.679688 12.800781 L 23.679688 15.359375 L 21.121094 15.359375 Z M 21.121094 19.839844 L 23.679688 19.839844 L 23.679688 22.398438 L 21.121094 22.398438 Z M 21.121094 26.878906 L 23.679688 26.878906 L 23.679688 29.441406 L 21.121094 29.441406 Z M 21.121094 26.878906 "/>
</g>
</svg>
