<?xml version="1.0" encoding="UTF-8"?>
<svg xmlns="http://www.w3.org/2000/svg" xmlns:xlink="http://www.w3.org/1999/xlink" width="32" height="32" viewBox="0 0 32 32" version="1.1">
<g id="surface1">
<path style=" stroke:none;fill-rule:nonzero;fill:rgb(0%,0%,0%);fill-opacity:1;" d="M 21.761719 0 C 16.113281 0 11.519531 4.59375 11.519531 10.238281 C 11.519531 15.886719 16.113281 20.480469 21.761719 20.480469 C 20.203125 21.648438 19.199219 23.515625 19.199219 25.601562 C 19.199219 29.121094 22.078125 32 25.601562 32 C 29.121094 32 32 29.121094 32 25.601562 C 32 22.398438 29.617188 19.738281 26.539062 19.28125 C 29.78125 17.558594 32 14.160156 32 10.238281 C 32 4.59375 27.40625 0 21.761719 0 M 21.761719 3.839844 C 23.398438 3.839844 25.03125 4.46875 26.28125 5.71875 C 27.480469 6.917969 28.15625 8.542969 28.15625 10.242188 C 28.15625 11.9375 27.480469 13.5625 26.28125 14.761719 L 17.238281 5.71875 C 18.4375 4.515625 20.0625 3.839844 21.761719 3.839844 M 11.179688 14.800781 L 0 25.980469 L 0 29.820312 L 10.800781 19.019531 C 10.917969 18.898438 11.082031 18.832031 11.25 18.832031 C 11.417969 18.832031 11.582031 18.898438 11.699219 19.019531 C 11.820312 19.140625 11.886719 19.300781 11.886719 19.46875 C 11.886719 19.640625 11.820312 19.800781 11.699219 19.921875 L 0.640625 30.980469 L 1.660156 32 L 6.019531 32 L 8.320312 29.699219 L 8.320312 28.160156 L 9.859375 28.160156 L 12.160156 25.859375 L 12.160156 24.960938 L 13.058594 24.960938 L 14.71875 23.300781 L 14.71875 22.398438 L 15.621094 22.398438 L 17.199219 20.820312 C 14.5 19.652344 12.347656 17.5 11.179688 14.800781 M 25.601562 20.480469 C 28.414062 20.480469 30.71875 22.785156 30.71875 25.601562 C 30.71875 28.414062 28.414062 30.71875 25.601562 30.71875 C 22.785156 30.71875 20.480469 28.414062 20.480469 25.601562 C 20.480469 22.785156 22.785156 20.480469 25.601562 20.480469 M 22.460938 24.960938 C 22.074219 24.960938 21.820312 25.214844 21.820312 25.601562 C 21.820312 25.984375 22.074219 26.238281 22.460938 26.238281 L 28.738281 26.238281 C 29.125 26.238281 29.378906 25.984375 29.378906 25.601562 C 29.378906 25.214844 29.125 24.960938 28.738281 24.960938 Z M 22.460938 24.960938 "/>
</g>
</svg>
