<svg role="img" viewBox="0 0 32 32" xmlns="http://www.w3.org/2000/svg"><path d="M12.16 0a5.77 5.77 0 0 0-5.762 5.762c0 2.957 2.247 5.402 5.122 5.722v17.317h8.32v1.918h5.12v-5.117h-5.12v1.918H12.8v-5.758h7.04v1.918h5.12v-5.121h-5.12v1.921H12.8v-5.76h7.04v1.922h5.12V11.52h-5.12v1.921H12.8v-1.957c2.876-.32 5.122-2.765 5.122-5.722A5.77 5.77 0 0 0 12.16 0m-1.922 3.2c.164 0 .328.062.453.187l1.47 1.468 1.468-1.468c.25-.25.652-.25.902 0s.25.656 0 .906l-1.465 1.469 1.465 1.465a.641.641 0 0 1-.453 1.093.63.63 0 0 1-.45-.187L12.16 6.664l-1.469 1.469a.632.632 0 0 1-.453.187.641.641 0 0 1-.45-1.094l1.466-1.464-1.465-1.469a.641.641 0 0 1 .45-1.094m10.883 9.6h2.559v2.56H21.12Zm0 7.04h2.559v2.558H21.12Zm0 7.039h2.559v2.562H21.12Zm0 0" style="stroke:none;fill-rule:nonzero;fill:rgb(0%,0%,0%);fill-opacity:1"/></svg>