<?xml version="1.0" encoding="UTF-8"?>
<svg xmlns="http://www.w3.org/2000/svg" xmlns:xlink="http://www.w3.org/1999/xlink" width="32" height="32" viewBox="0 0 32 32" version="1.1">
<g id="surface1">
<path style=" stroke:none;fill-rule:nonzero;fill:rgb(0%,0%,0%);fill-opacity:1;" d="M 21.5 1.5 L 8 1.5 C 6.199219 1.5 4.75 2.949219 4.75 4.75 L 4.75 27.25 C 4.75 29.050781 6.199219 30.5 8 30.5 L 24 30.5 C 25.800781 30.5 27.25 29.050781 27.25 27.25 L 27.25 7.25 C 27.246094 5.726562 26.644531 4.261719 25.574219 3.175781 C 24.5 2.074219 23.023438 1.5 21.5 1.5 M 20.023438 17.773438 C 19.890625 17.921875 19.699219 18.003906 19.5 18 L 12.523438 18 C 12.15625 18.007812 11.832031 17.757812 11.75 17.398438 C 11.675781 16.925781 12.050781 16.5 12.5 16.5 L 19.449219 16.5 C 19.898438 16.5 20.300781 16.875 20.25 17.300781 C 20.234375 17.480469 20.152344 17.648438 20.023438 17.773438 M 24 6.5 C 23.023438 6.5 22.25 5.726562 22.25 4.75 L 22.25 3.074219 C 23.101562 3.222656 23.890625 3.636719 24.5 4.25 C 25.113281 4.859375 25.527344 5.648438 25.675781 6.5 Z M 24 6.5 "/>
</g>
</svg>
