<svg role="img" viewBox="0 0 32 32" xmlns="http://www.w3.org/2000/svg"><path d="M3.2 1.922A1.92 1.92 0 0 0 1.281 3.84v3.84H30.72V6.398a1.92 1.92 0 0 0-1.918-1.918l-17.254.004c-.176-.066-.547-.652-.746-.968-.489-.786-.996-1.594-1.84-1.594ZM1.921 8.96a.639.639 0 0 0-.64.64v17.28c0 1.058.859 1.922 1.917 1.922H20.07C21.18 30.707 23.246 32 25.602 32 29.122 32 32 29.121 32 25.602c0-1.43-.48-2.75-1.281-3.817V9.602a.639.639 0 0 0-.64-.641Zm23.68 11.52c2.812 0 5.117 2.304 5.117 5.12 0 2.813-2.305 5.118-5.117 5.118-2.817 0-5.122-2.305-5.122-5.117 0-2.817 2.305-5.122 5.122-5.122m-2.243 2.238a.62.62 0 0 0-.445.195.614.614 0 0 0 0 .895l1.79 1.793-1.79 1.789a.618.618 0 0 0 0 .898.692.692 0 0 0 .445.191c.13 0 .32-.066.45-.19l1.793-1.794 1.789 1.793c.129.125.32.191.449.191s.32-.066.45-.19a.625.625 0 0 0 0-.9L26.495 25.6l1.793-1.793a.62.62 0 0 0 0-.895.618.618 0 0 0-.898 0l-1.79 1.79-1.792-1.79a.636.636 0 0 0-.45-.195m0 0" style="stroke:none;fill-rule:nonzero;fill:rgb(0%,0%,0%);fill-opacity:1"/></svg>