<?xml version="1.0" encoding="utf-8"?>
<svg xmlns="http://www.w3.org/2000/svg" viewBox="0 0 50 50" fill="#000000"><path d="M 39.847656 1.992188 C 38.363281 1.992188 37.453125 3.351563 36.191406 5.234375 C 33.820313 8.777344 29.878906 14.617188 18.988281 14.964844 L 18.988281 30.023438 C 25.101563 30.1875 28.964844 32.136719 31.640625 34.53125 C 30.605469 36.105469 30 37.984375 30 40 C 30 45.511719 34.488281 50 40 50 C 45.511719 50 50 45.511719 50 40 C 50 35.5 47.003906 31.683594 42.90625 30.433594 C 42.960938 28.289063 42.996094 25.875 42.996094 22.996094 C 42.996094 1.992188 41.023438 1.992188 39.847656 1.992188 Z M 6.992188 15 C 4.238281 15 2 17.238281 2 19.996094 L 2 24.996094 C 2 27.75 4.238281 29.988281 6.992188 29.988281 L 17 29.988281 L 17 15 Z M 44.96875 19.28125 C 44.984375 20.460938 44.996094 21.691406 44.996094 22.996094 C 44.996094 24.683594 44.984375 26.257813 44.964844 27.730469 C 46.714844 27.128906 47.949219 25.527344 47.949219 23.578125 C 47.949219 21.597656 46.703125 19.921875 44.96875 19.28125 Z M 6.632813 31.96875 C 7.761719 35.050781 8.828125 40.621094 9.601563 44.671875 C 9.757813 45.492188 10.238281 47.996094 13.441406 47.996094 L 16.777344 47.996094 C 19.433594 47.996094 19.996094 46.363281 19.996094 44.996094 C 19.996094 43.214844 18.996094 42.074219 17.832031 40.921875 C 17.5625 40.492188 17.128906 38.113281 17.019531 31.988281 L 6.992188 31.988281 C 6.871094 31.988281 6.75 31.976563 6.632813 31.96875 Z M 40 32 C 44.429688 32 48 35.570313 48 40 C 48 44.429688 44.429688 48 40 48 C 35.570313 48 32 44.429688 32 40 C 32 35.570313 35.570313 32 40 32 Z M 36.5 35.5 C 36.25 35.5 36 35.601563 35.800781 35.800781 C 35.402344 36.199219 35.402344 36.800781 35.800781 37.199219 L 38.597656 40 L 35.800781 42.800781 C 35.402344 43.199219 35.402344 43.800781 35.800781 44.199219 C 36 44.398438 36.300781 44.5 36.5 44.5 C 36.699219 44.5 37 44.398438 37.199219 44.199219 L 40 41.402344 L 42.800781 44.199219 C 43 44.398438 43.300781 44.5 43.5 44.5 C 43.699219 44.5 44 44.398438 44.199219 44.199219 C 44.597656 43.800781 44.597656 43.199219 44.199219 42.800781 L 41.402344 40 L 44.199219 37.199219 C 44.597656 36.800781 44.597656 36.199219 44.199219 35.800781 C 43.800781 35.402344 43.199219 35.402344 42.800781 35.800781 L 40 38.597656 L 37.199219 35.800781 C 37 35.601563 36.75 35.5 36.5 35.5 Z" fill="#000000"/></svg>
