<?xml version="1.0" encoding="utf-8"?>
<svg xmlns="http://www.w3.org/2000/svg" viewBox="0 0 50 50" fill="#000000"><path d="M 2.800781 0 C 1.300781 0 0 1.300781 0 2.800781 L 0 7 L 44 7 L 44 2.800781 C 44 1.300781 42.699219 0 41.199219 0 Z M 0 9 L 0 40 C 0 40.601563 0.398438 41 1 41 L 30.097656 41 C 30.597656 46 34.898438 50 40 50 C 45.5 50 50 45.5 50 40 C 50 35.898438 47.5 32.402344 44 30.800781 L 44 9 Z M 7 15 L 11 15 L 11 17 L 7 17 Z M 14 15 L 37 15 L 37 17 L 14 17 Z M 7 20 L 11 20 L 11 22 L 7 22 Z M 14 20 L 37 20 L 37 22 L 14 22 Z M 7 25 L 11 25 L 11 27 L 7 27 Z M 14 25 L 37 25 L 37 27 L 14 27 Z M 7 30 L 11 30 L 11 32 L 7 32 Z M 14 30 L 33.371094 30 C 32.519531 30.566406 31.753906 31.242188 31.074219 32 L 14 32 Z M 40 32 C 44.398438 32 48 35.601563 48 40 C 48 44.398438 44.398438 48 40 48 C 35.601563 48 32 44.398438 32 40 C 32 35.601563 35.601563 32 40 32 Z M 35.097656 39 C 34.5 39 34.097656 39.398438 34.097656 40 C 34.097656 40.601563 34.5 41 35.097656 41 L 44.902344 41 C 45.5 41 45.902344 40.601563 45.902344 40 C 45.902344 39.398438 45.5 39 44.902344 39 Z" fill="#000000"/></svg>
