<?xml version="1.0" encoding="utf-8"?>
<svg xmlns="http://www.w3.org/2000/svg" viewBox="0 0 50 50" fill="#000000"><path d="M 28.25 2 C 27.257813 2.039063 26.257813 2.238281 25.59375 3 L 2.90625 25.6875 C 1.828125 26.765625 1.808594 28.5625 2.90625 29.8125 L 20.28125 47.21875 C 20.820313 47.757813 21.539063 48.03125 22.28125 48.03125 C 23.015625 48.03125 23.785156 47.765625 24.40625 47.21875 L 28.71875 42.90625 C 30.292969 47.054688 34.304688 50 39 50 C 45.066406 50 50 45.066406 50 39 C 50 34.25 46.976563 30.191406 42.75 28.65625 L 47 24.40625 C 47.992188 23.414063 48 21.886719 48 20.40625 L 48 5.5 C 48 3.539063 46.464844 2 44.5 2 L 29.21875 2 C 28.898438 1.996094 28.582031 1.988281 28.25 2 Z M 39 8 C 40.65625 8 42 9.34375 42 11 C 42 12.65625 40.65625 14 39 14 C 37.34375 14 36 12.65625 36 11 C 36 9.34375 37.34375 8 39 8 Z M 39 30 C 43.964844 30 48 34.035156 48 39 C 48 43.964844 43.964844 48 39 48 C 34.035156 48 30 43.964844 30 39 C 30 34.035156 34.035156 30 39 30 Z M 35.71875 34.28125 L 34.28125 35.71875 L 37.5625 39 L 34.28125 42.28125 L 35.71875 43.71875 L 39 40.4375 L 42.28125 43.71875 L 43.71875 42.28125 L 40.4375 39 L 43.71875 35.71875 L 42.28125 34.28125 L 39 37.5625 Z" fill="#000000"/></svg>
