<svg role="img" viewBox="0 0 32 32" xmlns="http://www.w3.org/2000/svg"><path d="M16 1.922c-3.723 0-6.184 2.293-6.387 5.918a9.624 9.624 0 0 0-.011.48c-.004 1.055.257 2.11.543 3.02-.137.16-.29.383-.395.66-.09.227-.148.496-.148.8 0 .067.003.216.011.317.176 1.352.785 1.996 1.32 2.254.176 1.215.618 2.234 1.227 2.84v2.414c-.37.887-1.656 1.402-3.14 1.992-2.497 1-5.606 2.238-5.817 6.149l-.004.675h17.293A6.396 6.396 0 0 0 25.602 32 6.407 6.407 0 0 0 32 25.602c0-3.528-2.871-6.403-6.398-6.403a6.397 6.397 0 0 0-4.903 2.293c-.39-.262-.695-.55-.86-.898v-2.387c.708-.719 1.048-1.922 1.208-2.809.582-.242 1.223-.89 1.344-2.312.007-.07.011-.227.011-.29a2.273 2.273 0 0 0-.547-1.487c.22-.75.516-1.914.543-3.149 0-.082.004-.16 0-.238-.015-2.567-1.18-4.227-3.21-4.61-.614-.867-1.801-1.39-3.188-1.39m9.602 18.558a5.11 5.11 0 0 1 5.117 5.122 5.11 5.11 0 0 1-5.117 5.117 5.11 5.11 0 0 1-5.122-5.117 5.111 5.111 0 0 1 5.122-5.122m-2.247 2.235a.637.637 0 0 0-.593.398.644.644 0 0 0 .144.7l1.79 1.789-1.79 1.785a.648.648 0 0 0-.176.625.64.64 0 0 0 1.082.281l1.79-1.79 1.785 1.79a.64.64 0 0 0 1.082-.281.64.64 0 0 0-.176-.625l-1.79-1.785 1.79-1.79a.644.644 0 0 0 .145-.707.642.642 0 0 0-1.051-.199l-1.785 1.79-1.79-1.79a.648.648 0 0 0-.457-.191m0 0" style="stroke:none;fill-rule:nonzero;fill:rgb(0%,0%,0%);fill-opacity:1"/></svg>