<?xml version="1.0" encoding="utf-8"?>
<svg xmlns="http://www.w3.org/2000/svg" viewBox="0 0 50 50" fill="#000000"><path d="M 21.001953 0 C 8.4399531 0 -2.3684758e-15 4.6530469 0 8.9980469 C 0 13.345047 8.4399531 18 21.001953 18 C 33.563953 18 42 13.345047 42 8.9980469 C 42 4.6530469 33.563953 -1.1842379e-15 21.001953 0 z M 0 13.609375 L 0 19.150391 C 0 23.424391 8.4455781 28 21.017578 28 C 33.589578 28 42 23.424391 42 19.150391 L 42 13.609375 C 38.325 17.363375 30.433578 20 21.017578 20 C 11.597578 20 3.676 17.362375 0 13.609375 z M 0 24 L 0 29.285156 C 0 33.556156 8.4455781 38.134766 21.017578 38.134766 C 24.504578 38.134766 27.657969 37.773828 30.417969 37.173828 C 30.137969 38.096828 29.999719 39.698859 30.011719 39.505859 C 27.256719 40.044859 24.228578 40 21.017578 40 C 11.597578 40 3.676 37.799875 0 34.046875 L 0 39.240234 C 0 43.514234 8.4455781 48.089844 21.017578 48.089844 C 25.384578 48.089844 29.236734 47.528906 32.427734 46.628906 C 34.266734 48.754906 36.975 50.107422 40 50.107422 C 45.523 50.107422 50.019531 45.614844 50.019531 40.089844 C 50.019531 35.207844 46.506 31.134906 41.875 30.253906 C 41.969 29.930906 42 29.608156 42 29.285156 L 42 24 C 38.325 27.752 30.433578 30.089844 21.017578 30.089844 C 11.597578 30.089844 3.676 27.752 0 24 z M 40 32.109375 C 44.4 32.109375 47.980469 35.689844 47.980469 40.089844 C 47.980469 44.489844 44.4 48.070312 40 48.070312 C 35.6 48.070312 32.019531 44.489844 32.019531 40.089844 C 32.019531 35.689844 35.6 32.109375 40 32.109375 z M 35 39 L 35 41 L 45 41 L 45 39 L 35 39 z" fill="#000000"/></svg>
