<svg role="img" viewBox="0 0 32 32" xmlns="http://www.w3.org/2000/svg"><path d="M1.793 0C.832 0 0 .832 0 1.793V4.48h28.16V1.793C28.16.832 27.328 0 26.367 0ZM0 5.762v19.84c0 .382.254.636.64.636h18.622c.32 3.203 3.074 5.762 6.34 5.762C29.122 32 32 29.121 32 25.602c0-2.625-1.602-4.864-3.84-5.891V5.76Zm4.48 3.84h2.56v1.277H4.48Zm4.48 0h14.72v1.277H8.96ZM4.48 12.8h2.56v1.277H4.48Zm4.48 0h14.72v1.277H8.96ZM4.48 16h2.56v1.281H4.48Zm4.48 0h14.72v1.281H8.96Zm-4.48 3.2h2.56v1.28H4.48Zm4.48 0h12.4a7.816 7.816 0 0 0-1.473 1.28H8.96Zm16.642 1.28c2.812 0 5.117 2.305 5.117 5.122 0 2.812-2.305 5.117-5.117 5.117-2.817 0-5.122-2.305-5.122-5.117 0-2.817 2.305-5.122 5.122-5.122m-3.141 4.48c-.383 0-.637.255-.637.642 0 .382.254.636.637.636h6.277c.383 0 .64-.254.64-.636 0-.387-.257-.641-.64-.641Zm0 0" style="stroke:none;fill-rule:nonzero;fill:rgb(0%,0%,0%);fill-opacity:1"/></svg>