<?xml version="1.0" encoding="UTF-8"?>
<svg xmlns="http://www.w3.org/2000/svg" xmlns:xlink="http://www.w3.org/1999/xlink" width="32" height="32" viewBox="0 0 32 32" version="1.1">
<g id="surface1">
<path style=" stroke:none;fill-rule:nonzero;fill:rgb(0%,0%,0%);fill-opacity:1;" d="M 13.441406 0 C 5.402344 0 0 2.976562 0 5.757812 C 0 8.539062 5.402344 11.519531 13.441406 11.519531 C 21.480469 11.519531 26.878906 8.539062 26.878906 5.757812 C 26.878906 2.976562 21.480469 0 13.441406 0 Z M 0 8.710938 L 0 12.257812 C 0 14.992188 5.40625 17.921875 13.453125 17.921875 C 21.496094 17.921875 26.878906 14.992188 26.878906 12.257812 L 26.878906 8.710938 C 24.527344 11.113281 19.476562 12.800781 13.453125 12.800781 C 7.421875 12.800781 2.351562 11.113281 0 8.710938 Z M 0 15.359375 L 0 18.742188 C 0 21.476562 5.40625 24.40625 13.453125 24.40625 C 15.683594 24.40625 17.699219 24.175781 19.46875 23.792969 C 19.289062 24.382812 19.199219 25.40625 19.207031 25.285156 C 17.445312 25.628906 15.507812 25.601562 13.453125 25.601562 C 7.421875 25.601562 2.351562 24.191406 0 21.789062 L 0 25.113281 C 0 27.847656 5.40625 30.777344 13.453125 30.777344 C 16.246094 30.777344 18.710938 30.417969 20.753906 29.84375 C 21.929688 31.203125 23.664062 32.070312 25.601562 32.070312 C 29.132812 32.070312 32.011719 29.195312 32.011719 25.65625 C 32.011719 22.53125 29.765625 19.925781 26.800781 19.363281 C 26.859375 19.15625 26.878906 18.949219 26.878906 18.742188 L 26.878906 15.359375 C 24.527344 17.761719 19.476562 19.257812 13.453125 19.257812 C 7.421875 19.257812 2.351562 17.761719 0 15.359375 Z M 25.601562 20.550781 C 28.414062 20.550781 30.707031 22.839844 30.707031 25.65625 C 30.707031 28.472656 28.414062 30.765625 25.601562 30.765625 C 22.785156 30.765625 20.492188 28.472656 20.492188 25.65625 C 20.492188 22.839844 22.785156 20.550781 25.601562 20.550781 Z M 22.398438 24.960938 L 22.398438 26.238281 L 28.800781 26.238281 L 28.800781 24.960938 Z M 22.398438 24.960938 "/>
</g>
</svg>
