<?xml version="1.0" encoding="UTF-8"?>
<svg xmlns="http://www.w3.org/2000/svg" xmlns:xlink="http://www.w3.org/1999/xlink" width="32" height="32" viewBox="0 0 32 32" version="1.1">
<g id="surface1">
<path style=" stroke:none;fill-rule:nonzero;fill:rgb(0%,0%,0%);fill-opacity:1;" d="M 3.199219 1.921875 C 2.140625 1.921875 1.28125 2.78125 1.28125 3.839844 L 1.28125 7.679688 L 30.71875 7.679688 L 30.71875 6.398438 C 30.71875 5.339844 29.859375 4.480469 28.800781 4.480469 L 11.546875 4.484375 C 11.371094 4.417969 11 3.832031 10.800781 3.515625 C 10.3125 2.730469 9.804688 1.921875 8.960938 1.921875 Z M 1.921875 8.960938 C 1.75 8.960938 1.589844 9.027344 1.46875 9.148438 C 1.347656 9.265625 1.28125 9.429688 1.28125 9.601562 L 1.28125 26.878906 C 1.28125 27.9375 2.140625 28.800781 3.199219 28.800781 L 20.070312 28.800781 C 21.179688 30.707031 23.246094 32 25.601562 32 C 29.121094 32 32 29.121094 32 25.601562 C 32 24.171875 31.519531 22.851562 30.71875 21.785156 L 30.71875 9.601562 C 30.71875 9.433594 30.652344 9.269531 30.53125 9.148438 C 30.410156 9.027344 30.25 8.960938 30.078125 8.960938 Z M 25.601562 20.480469 C 28.414062 20.480469 30.71875 22.785156 30.71875 25.601562 C 30.71875 28.414062 28.414062 30.71875 25.601562 30.71875 C 22.785156 30.71875 20.480469 28.414062 20.480469 25.601562 C 20.480469 22.785156 22.785156 20.480469 25.601562 20.480469 M 23.359375 22.71875 C 23.1875 22.71875 23.027344 22.789062 22.914062 22.910156 C 22.789062 23.027344 22.71875 23.191406 22.71875 23.359375 C 22.71875 23.527344 22.789062 23.691406 22.914062 23.808594 L 24.703125 25.601562 L 22.914062 27.390625 C 22.789062 27.503906 22.71875 27.667969 22.71875 27.839844 C 22.71875 28.007812 22.789062 28.171875 22.914062 28.285156 C 23.035156 28.402344 23.191406 28.46875 23.359375 28.476562 C 23.488281 28.476562 23.679688 28.410156 23.808594 28.289062 L 25.601562 26.492188 L 27.390625 28.285156 C 27.519531 28.410156 27.710938 28.476562 27.839844 28.476562 C 27.96875 28.476562 28.160156 28.410156 28.289062 28.289062 C 28.410156 28.171875 28.480469 28.007812 28.480469 27.839844 C 28.480469 27.667969 28.410156 27.503906 28.289062 27.386719 L 26.496094 25.601562 L 28.289062 23.808594 C 28.410156 23.691406 28.480469 23.527344 28.480469 23.359375 C 28.480469 23.191406 28.410156 23.027344 28.289062 22.910156 C 28.171875 22.789062 28.007812 22.71875 27.839844 22.71875 C 27.667969 22.71875 27.507812 22.789062 27.390625 22.910156 L 25.601562 24.703125 L 23.808594 22.910156 C 23.691406 22.789062 23.527344 22.71875 23.359375 22.71875 M 23.359375 22.71875 "/>
</g>
</svg>
