<?xml version="1.0" encoding="UTF-8"?>
<svg xmlns="http://www.w3.org/2000/svg" xmlns:xlink="http://www.w3.org/1999/xlink" width="32" height="32" viewBox="0 0 32 32" version="1.1">
<g id="surface1">
<path style=" stroke:none;fill-rule:nonzero;fill:rgb(0%,0%,0%);fill-opacity:1;" d="M 25.601562 0 C 23.902344 -0.00390625 22.273438 0.667969 21.070312 1.867188 C 20.339844 2.597656 19.800781 3.492188 19.496094 4.480469 L 0 4.480469 L 0 6.261719 L 13.867188 18.332031 C 14.765625 19.117188 15.660156 19.199219 16 19.199219 C 16.339844 19.199219 17.234375 19.117188 18.132812 18.332031 C 18.558594 17.960938 21.609375 15.304688 24.589844 12.714844 C 25.230469 12.816406 25.878906 12.820312 26.523438 12.726562 C 24.953125 14.09375 23.707031 15.175781 22.328125 16.378906 L 32 23.992188 L 32 7.957031 C 31.949219 8.003906 31.804688 8.128906 31.75 8.175781 C 32.394531 5.933594 31.777344 3.519531 30.132812 1.867188 C 28.929688 0.667969 27.300781 -0.00390625 25.601562 0 M 25.601562 1.28125 C 26.960938 1.277344 28.265625 1.816406 29.226562 2.773438 C 31.21875 4.769531 31.21875 8.03125 29.226562 10.023438 C 27.230469 12.015625 23.96875 12.015625 21.976562 10.023438 C 19.984375 8.03125 19.984375 4.769531 21.976562 2.773438 C 22.9375 1.8125 24.242188 1.277344 25.601562 1.28125 M 22.398438 5.761719 C 22.226562 5.757812 22.0625 5.824219 21.945312 5.945312 C 21.824219 6.0625 21.757812 6.226562 21.761719 6.398438 C 21.761719 6.765625 22.035156 7.039062 22.398438 7.039062 L 28.800781 7.039062 C 28.96875 7.035156 29.132812 6.972656 29.257812 6.859375 C 29.371094 6.730469 29.4375 6.570312 29.441406 6.398438 C 29.445312 6.230469 29.378906 6.0625 29.257812 5.945312 C 29.136719 5.824219 28.972656 5.757812 28.800781 5.761719 Z M 0 7.957031 L 0 24.015625 L 9.671875 16.378906 C 6.539062 13.648438 2.066406 9.757812 0 7.957031 M 10.65625 17.234375 L 0 25.648438 L 0 27.519531 L 32 27.519531 L 32 25.621094 L 21.34375 17.234375 C 20.105469 18.3125 19.203125 19.097656 18.976562 19.296875 C 17.75 20.363281 16.484375 20.480469 16 20.480469 C 15.515625 20.480469 14.25 20.363281 13.023438 19.296875 C 12.800781 19.097656 11.898438 18.3125 10.65625 17.234375 M 10.65625 17.234375 "/>
</g>
</svg>
