<?xml version="1.0" encoding="utf-8"?>
<svg xmlns="http://www.w3.org/2000/svg" viewBox="0 0 50 50" fill="#000000"><path d="M 40 0 C 37.43375 -0.000125 34.868875 0.97292187 32.921875 2.9199219 C 31.743373 4.0984244 30.928056 5.5050668 30.462891 7 L 0 7 L 0 9.78125 C 3.012 12.40325 20.299016 27.450578 21.666016 28.642578 C 23.072016 29.867578 24.466 30 25 30 C 25.534 30 26.927984 29.867578 28.333984 28.642578 C 28.998426 28.063461 33.764393 23.916584 38.419922 19.865234 C 39.420799 20.023423 40.438769 20.02891 41.441406 19.884766 C 38.989623 22.018624 37.041096 23.714822 34.884766 25.591797 L 50 37.486328 L 50 12.435547 C 49.921168 12.504147 49.693497 12.702186 49.609375 12.775391 C 50.578035 9.385839 49.736933 5.5767764 47.080078 2.9199219 C 45.133078 0.97342188 42.56625 0.000125 40 0 z M 40 2 C 42.053 2 44.106562 2.7784375 45.664062 4.3359375 C 48.779063 7.4509375 48.779063 12.547109 45.664062 15.662109 C 42.549062 18.777109 37.452891 18.777109 34.337891 15.662109 C 31.222891 12.547109 31.222891 7.4509375 34.337891 4.3359375 C 35.895391 2.7784375 37.947 2 40 2 z M 35 9 C 34.429 9 34 9.428 34 10 C 34 10.572 34.429 10.998047 35 10.998047 L 45 10.998047 C 45.286 10.998047 45.571844 10.857844 45.714844 10.714844 C 45.857844 10.571844 46 10.286 46 10 C 46 9.428 45.571 9 45 9 L 35 9 z M 0 12.431641 L 0 37.525391 L 15.115234 25.589844 C 10.214234 21.322844 3.231 15.244641 0 12.431641 z M 16.650391 26.925781 L 0 40.074219 L 0 43 L 50 43 L 50 40.03125 L 33.349609 26.927734 C 31.412609 28.613734 30.002438 29.841391 29.648438 30.150391 C 27.731438 31.819391 25.759 32 25 32 C 24.241 32 22.268563 31.818437 20.351562 30.148438 C 20.000563 29.842437 18.591391 28.615781 16.650391 26.925781 z" fill="#000000"/></svg>
