<svg role="img" viewBox="0 0 32 32" xmlns="http://www.w3.org/2000/svg"><path d="M13.441 1.281A1.93 1.93 0 0 0 11.52 3.2v1.28h-6.4a.641.641 0 0 0 0 1.281h.64v23.04a1.92 1.92 0 0 0 1.919 1.918h14.105A6.338 6.338 0 0 0 25.602 32C29.122 32 32 29.121 32 25.602c0-3.305-2.54-6.047-5.762-6.368V5.762h.64a.641.641 0 0 0 0-1.282H20.48V3.2a1.93 1.93 0 0 0-1.92-1.92Zm0 1.278h5.118c.355 0 .64.285.64.64V4.48h-6.398V3.2c0-.356.285-.641.64-.641m-1.28 6.402c.355 0 .64.285.64.64v16a.638.638 0 0 1-.64.637.638.638 0 0 1-.641-.636v-16c0-.356.285-.641.64-.641m3.839 0c.355 0 .64.285.64.64v16a.638.638 0 0 1-.64.637.638.638 0 0 1-.64-.636v-16c0-.356.285-.641.64-.641m3.84 0c.355 0 .64.285.64.64V21.77a6.341 6.341 0 0 0-1.242 3.14c-.011.02-.027.031-.039.05V9.603c0-.356.285-.641.64-.641m5.762 11.52c2.812 0 5.117 2.304 5.117 5.12 0 2.813-2.305 5.118-5.117 5.118-2.817 0-5.122-2.305-5.122-5.117 0-2.817 2.305-5.122 5.122-5.122m-2.243 2.238a.62.62 0 0 0-.445.195.614.614 0 0 0 0 .895l1.79 1.793-1.79 1.789a.618.618 0 0 0 0 .898.62.62 0 0 0 .895 0l1.793-1.793 1.789 1.793c.257.254.64.254.898 0a.709.709 0 0 0 .191-.45.709.709 0 0 0-.19-.448l-1.794-1.79 1.793-1.792a.709.709 0 0 0 .191-.45.692.692 0 0 0-.19-.445.618.618 0 0 0-.9 0l-1.788 1.79-1.793-1.79a.636.636 0 0 0-.45-.195m0 0" style="stroke:none;fill-rule:nonzero;fill:rgb(0%,0%,0%);fill-opacity:1"/></svg>