<?xml version="1.0" encoding="utf-8"?>
<svg xmlns="http://www.w3.org/2000/svg" viewBox="0 0 50 50" fill="#000000"><path d="M 5 3 C 3.346 3 2 4.346 2 6 L 2 12 L 3 12 L 47 12 L 48 12 L 48 10 C 48 8.346 46.654 7 45 7 L 18.044922 7.0058594 C 17.765922 6.9048594 17.188906 5.9861875 16.878906 5.4921875 C 16.111906 4.2681875 15.317 3 14 3 L 5 3 z M 3 14 C 2.449 14 2 14.448 2 15 L 2 42 C 2 43.654 3.346 45 5 45 L 31.359375 45 C 33.095702 47.980427 36.320244 50 40 50 C 45.5 50 50 45.5 50 40 C 50 37.767371 49.248916 35.706061 48 34.037109 L 48 15 C 48 14.448 47.551 14 47 14 L 3 14 z M 40 32 C 44.4 32 48 35.6 48 40 C 48 44.4 44.4 48 40 48 C 35.6 48 32 44.4 32 40 C 32 35.6 35.6 32 40 32 z M 36.5 35.5 C 36.25 35.5 36.000781 35.600781 35.800781 35.800781 C 35.400781 36.200781 35.400781 36.799219 35.800781 37.199219 L 38.599609 40 L 35.800781 42.800781 C 35.400781 43.200781 35.400781 43.799219 35.800781 44.199219 C 36.000781 44.399219 36.3 44.5 36.5 44.5 C 36.7 44.5 36.999219 44.399219 37.199219 44.199219 L 40 41.400391 L 42.800781 44.199219 C 43.000781 44.399219 43.3 44.5 43.5 44.5 C 43.7 44.5 43.999219 44.399219 44.199219 44.199219 C 44.599219 43.799219 44.599219 43.200781 44.199219 42.800781 L 41.400391 40 L 44.199219 37.199219 C 44.599219 36.799219 44.599219 36.200781 44.199219 35.800781 C 43.799219 35.400781 43.200781 35.400781 42.800781 35.800781 L 40 38.599609 L 37.199219 35.800781 C 36.999219 35.600781 36.75 35.5 36.5 35.5 z" fill="#000000"/></svg>
