<?xml version="1.0" encoding="UTF-8"?>
<svg xmlns="http://www.w3.org/2000/svg" xmlns:xlink="http://www.w3.org/1999/xlink" width="32" height="32" viewBox="0 0 32 32" version="1.1">
<g id="surface1">
<path style=" stroke:none;fill-rule:nonzero;fill:rgb(0%,0%,0%);fill-opacity:1;" d="M 29.578125 5.023438 C 24.839844 3.984375 22.042969 2.511719 20 1.433594 C 18.414062 0.601562 17.265625 0 16 0 C 14.734375 0 13.585938 0.601562 12 1.433594 C 9.957031 2.511719 7.160156 3.984375 2.421875 5.023438 L 1.921875 5.132812 L 1.921875 5.648438 C 1.921875 25.140625 15.59375 31.683594 15.734375 31.746094 L 16.011719 31.875 L 16.289062 31.734375 C 16.425781 31.664062 30.078125 24.496094 30.078125 5.648438 L 30.078125 5.132812 Z M 20.933594 18.109375 C 21.183594 18.359375 21.183594 18.761719 20.933594 19.011719 C 20.808594 19.136719 20.644531 19.199219 20.480469 19.199219 C 20.316406 19.199219 20.152344 19.136719 20.027344 19.011719 L 16.320312 15.304688 L 12.613281 19.011719 C 12.488281 19.136719 12.324219 19.199219 12.160156 19.199219 C 11.996094 19.199219 11.832031 19.136719 11.707031 19.011719 C 11.457031 18.761719 11.457031 18.359375 11.707031 18.109375 L 15.414062 14.398438 L 11.707031 10.691406 C 11.457031 10.441406 11.457031 10.039062 11.707031 9.789062 C 11.957031 9.539062 12.363281 9.539062 12.613281 9.789062 L 16.320312 13.496094 L 20.027344 9.789062 C 20.277344 9.539062 20.683594 9.539062 20.933594 9.789062 C 21.183594 10.039062 21.183594 10.441406 20.933594 10.691406 L 17.226562 14.398438 Z M 20.933594 18.109375 "/>
</g>
</svg>
