<?xml version="1.0" encoding="utf-8"?>
<svg xmlns="http://www.w3.org/2000/svg" viewBox="0 0 50 50" fill="#000000"><path d="M 25 4 C 12.328125 4 2 12.878906 2 23.996094 C 2 30.445313 5.53125 36.0625 10.960938 39.730469 C 10.953125 39.945313 10.96875 40.296875 10.6875 41.34375 C 10.335938 42.644531 9.625 44.472656 8.1875 46.535156 L 7.164063 48 L 8.953125 48 C 15.140625 48 18.722656 43.964844 19.277344 43.316406 C 21.121094 43.75 23.015625 43.984375 25 43.984375 C 26.929688 43.984375 28.804688 43.765625 30.597656 43.375 C 31.988281 47.230469 35.675781 50 40 50 C 45.511719 50 50 45.511719 50 40 C 50 36.761719 48.445313 33.886719 46.046875 32.058594 C 47.296875 29.59375 48 26.871094 48 23.996094 C 48 12.878906 37.671875 4 25 4 Z M 39.976563 32.121094 C 40.890625 32.117188 41.785156 32.238281 42.597656 32.4375 C 42.605469 32.441406 42.609375 32.441406 42.617188 32.441406 C 45.753906 33.523438 48 36.488281 48 40 C 48 44.429688 44.429688 48 40 48 C 35.570313 48 32 44.429688 32 40 C 32 37.1875 33.441406 34.726563 35.625 33.300781 C 37.003906 32.46875 38.519531 32.128906 39.976563 32.121094 Z M 36.488281 35.488281 C 36.082031 35.492188 35.71875 35.738281 35.5625 36.113281 C 35.410156 36.492188 35.5 36.921875 35.792969 37.207031 L 38.585938 40 L 35.792969 42.792969 C 35.53125 43.042969 35.425781 43.417969 35.519531 43.765625 C 35.609375 44.117188 35.882813 44.390625 36.234375 44.480469 C 36.582031 44.574219 36.957031 44.46875 37.207031 44.207031 L 40 41.414063 L 42.792969 44.207031 C 43.042969 44.46875 43.417969 44.574219 43.765625 44.480469 C 44.117188 44.390625 44.390625 44.117188 44.480469 43.765625 C 44.574219 43.417969 44.46875 43.042969 44.207031 42.792969 L 41.414063 40 L 44.207031 37.207031 C 44.503906 36.917969 44.589844 36.480469 44.429688 36.101563 C 44.269531 35.71875 43.894531 35.476563 43.480469 35.488281 C 43.21875 35.496094 42.972656 35.605469 42.792969 35.792969 L 40 38.585938 L 37.207031 35.792969 C 37.019531 35.597656 36.761719 35.492188 36.488281 35.488281 Z" fill="#000000"/></svg>
