<svg role="img" viewBox="0 0 32 32" xmlns="http://www.w3.org/2000/svg"><path d="M21.5 1.5H8c-1.8 0-3.25 1.45-3.25 3.25v22.5c0 1.8 1.45 3.25 3.25 3.25h16c1.8 0 3.25-1.45 3.25-3.25v-20a5.816 5.816 0 0 0-1.676-4.074C24.5 2.074 23.024 1.5 21.5 1.5m-1.477 16.273A.672.672 0 0 1 19.5 18h-6.977a.778.778 0 0 1-.773-.602c-.074-.472.3-.898.75-.898h6.95c.448 0 .85.375.8.8a.763.763 0 0 1-.227.473M24 6.5c-.977 0-1.75-.773-1.75-1.75V3.074A4.2 4.2 0 0 1 24.5 4.25a4.2 4.2 0 0 1 1.176 2.25Zm0 0" style="stroke:none;fill-rule:nonzero;fill:rgb(0%,0%,0%);fill-opacity:1"/></svg>