<svg role="img" viewBox="0 0 32 32" xmlns="http://www.w3.org/2000/svg"><path d="M29.578 5.023C24.84 3.984 22.043 2.512 20 1.433 18.414.603 17.266 0 16 0s-2.414.602-4 1.434c-2.043 1.078-4.84 2.55-9.578 3.59l-.5.109v.515c0 19.493 13.672 26.036 13.812 26.098l.278.129.277-.14c.137-.07 13.79-7.239 13.79-26.087v-.515ZM20.934 18.11a.637.637 0 0 1-.454 1.09.639.639 0 0 1-.453-.187l-3.707-3.707-3.707 3.707a.639.639 0 0 1-.906 0 .637.637 0 0 1 0-.903l3.707-3.71-3.707-3.708a.637.637 0 0 1 0-.902c.25-.25.656-.25.906 0l3.707 3.707 3.707-3.707c.25-.25.657-.25.907 0s.25.652 0 .902l-3.707 3.707Zm0 0" style="stroke:none;fill-rule:nonzero;fill:rgb(0%,0%,0%);fill-opacity:1"/></svg>