<?xml version="1.0" encoding="UTF-8"?>
<svg xmlns="http://www.w3.org/2000/svg" xmlns:xlink="http://www.w3.org/1999/xlink" width="32" height="32" viewBox="0 0 32 32" version="1.1">
<defs>
<clipPath id="clip1">
  <path d="M 1 5 L 31 5 L 31 27 L 1 27 Z M 1 5 "/>
</clipPath>
<clipPath id="clip2">
  <path d="M 0 32 L 0 0 L 32 0 L 32 32 Z M 7.300781 16.5 C 7.300781 21.144531 11.105469 24.949219 15.75 24.949219 C 20.394531 24.949219 24.199219 21.144531 24.199219 16.5 C 24.199219 11.855469 20.394531 8.050781 15.75 8.050781 C 11.105469 8.050781 7.300781 11.855469 7.300781 16.5 "/>
</clipPath>
</defs>
<g id="surface1">
<g clip-path="url(#clip1)" clip-rule="nonzero">
<g clip-path="url(#clip2)" clip-rule="nonzero">
<path style=" stroke:none;fill-rule:nonzero;fill:rgb(41.568628%,41.568628%,41.568628%);fill-opacity:1;" d="M 1.28125 5.121094 L 1.28125 11.519531 L 10.238281 11.519531 L 10.238281 5.121094 Z M 11.519531 5.121094 L 11.519531 11.519531 L 20.480469 11.519531 L 20.480469 5.121094 Z M 21.761719 5.121094 L 21.761719 11.519531 L 30.71875 11.519531 L 30.71875 5.121094 Z M 1.28125 12.800781 L 1.28125 19.199219 L 5.121094 19.199219 L 5.121094 12.800781 Z M 6.398438 12.800781 L 6.398438 19.199219 L 15.359375 19.199219 L 15.359375 12.800781 Z M 16.640625 12.800781 L 16.640625 19.199219 L 25.601562 19.199219 L 25.601562 12.800781 Z M 26.878906 12.800781 L 26.878906 19.199219 L 30.71875 19.199219 L 30.71875 12.800781 Z M 1.28125 20.480469 L 1.28125 26.878906 L 10.238281 26.878906 L 10.238281 20.480469 Z M 11.519531 20.480469 L 11.519531 26.878906 L 20.480469 26.878906 L 20.480469 20.480469 Z M 21.761719 20.480469 L 21.761719 26.878906 L 30.71875 26.878906 L 30.71875 20.480469 Z M 21.761719 20.480469 "/>
</g>
</g>
<path style=" stroke:none;fill-rule:nonzero;fill:rgb(0%,0%,0%);fill-opacity:1;" d="M 15.75 9.460938 C 11.878906 9.460938 8.710938 12.628906 8.710938 16.5 C 8.710938 20.371094 11.878906 23.539062 15.75 23.539062 C 19.621094 23.539062 22.789062 20.371094 22.789062 16.5 C 22.789062 12.628906 19.621094 9.460938 15.75 9.460938 M 19.199219 17.203125 L 12.300781 17.203125 C 11.878906 17.203125 11.597656 16.921875 11.597656 16.5 C 11.597656 16.078125 11.878906 15.796875 12.300781 15.796875 L 19.269531 15.796875 C 19.691406 15.796875 19.972656 16.078125 19.972656 16.5 C 19.972656 16.921875 19.621094 17.203125 19.199219 17.203125 "/>
</g>
</svg>
