<?xml version="1.0" encoding="utf-8"?>
<svg xmlns="http://www.w3.org/2000/svg" viewBox="0 0 50 50" fill="#000000"><path d="M 1 0 C 0.449219 0 0 0.449219 0 1 L 0 4 C 0 4.253906 0.105469 4.5 0.28125 4.6875 L 14.6875 20 L 29.3125 20 L 43.71875 4.6875 C 43.753906 4.652344 43.785156 4.601563 43.8125 4.5625 C 43.855469 4.5 43.910156 4.445313 43.9375 4.375 C 43.964844 4.300781 43.957031 4.203125 43.96875 4.125 C 43.976563 4.078125 44 4.050781 44 4 L 44 1 C 44 0.449219 43.554688 0 43 0 Z M 16 22 L 16 39 C 16 39.351563 16.199219 39.664063 16.5 39.84375 L 26.5 45.84375 C 26.660156 45.9375 26.820313 46 27 46 C 27.171875 46 27.347656 45.960938 27.5 45.875 C 27.8125 45.695313 28 45.359375 28 45 L 28 22 Z M 32.90625 31.96875 C 32.863281 31.976563 32.820313 31.988281 32.78125 32 C 32.40625 32.066406 32.105469 32.339844 32 32.703125 C 31.894531 33.070313 32.003906 33.460938 32.28125 33.71875 L 39.5625 41 L 32.28125 48.28125 C 31.882813 48.679688 31.882813 49.320313 32.28125 49.71875 C 32.679688 50.117188 33.320313 50.117188 33.71875 49.71875 L 41 42.4375 L 48.28125 49.71875 C 48.679688 50.117188 49.320313 50.117188 49.71875 49.71875 C 50.117188 49.320313 50.117188 48.679688 49.71875 48.28125 L 42.4375 41 L 49.71875 33.71875 C 50.042969 33.417969 50.128906 32.941406 49.933594 32.546875 C 49.742188 32.148438 49.308594 31.929688 48.875 32 C 48.652344 32.023438 48.441406 32.125 48.28125 32.28125 L 41 39.5625 L 33.71875 32.28125 C 33.511719 32.058594 33.210938 31.945313 32.90625 31.96875 Z" fill="#000000"/></svg>
