<?xml version="1.0" encoding="utf-8"?>
<svg xmlns="http://www.w3.org/2000/svg" viewBox="0 0 50 50" fill="#000000"><path d="M 25 2 C 12.317 2 2 12.318 2 25 C 2 37.682 12.317 48 25 48 C 27.66 48 30.213451 47.542998 32.591797 46.707031 C 32.712213 46.840515 32.832007 46.97528 32.960938 47.103516 C 36.860937 50.981516 43.223562 50.964453 47.101562 47.064453 C 50.980562 43.164453 50.964453 36.799875 47.064453 32.921875 C 46.948866 32.806916 46.82486 32.70576 46.705078 32.597656 C 47.542345 30.217657 48 27.662172 48 25 C 48 12.318 37.683 2 25 2 z M 24 10 L 26.050781 10 L 26.050781 12.800781 C 30.850781 13.000781 32.850391 17.100391 32.650391 19.900391 L 30.550781 19.900391 C 30.450781 18.200391 29.850781 14.400391 25.050781 14.400391 C 20.350781 14.400391 19.449219 17.100391 19.449219 19.400391 C 19.449219 26.300391 33.150391 21.699219 33.150391 30.699219 C 33.150391 31.699219 32.7 36.699219 26 37.199219 L 26 40 L 24 40 L 24 37.199219 C 21.3 36.899219 17.049609 36.000781 16.849609 29.300781 L 18.949219 29.300781 C 18.749219 35.600781 24.850781 35.599609 25.050781 35.599609 C 30.950781 35.599609 31.150391 31.599219 31.150391 30.699219 C 31.150391 23.599219 17.449219 28.599219 17.449219 19.199219 C 17.449219 17.299219 18.4 13.100781 24 12.800781 L 24 10 z M 39.990234 32.021484 C 42.040859 32.015859 44.092344 32.788344 45.652344 34.339844 C 48.772344 37.442844 48.786594 42.534297 45.683594 45.654297 C 42.580594 48.774297 37.489141 48.788547 34.369141 45.685547 C 31.249141 42.582547 31.236844 37.491094 34.339844 34.371094 C 35.891344 32.811094 37.939609 32.027109 39.990234 32.021484 z M 43.5 35.501953 C 43.25 35.502578 43.000281 35.603687 42.800781 35.804688 L 40.009766 38.613281 L 37.201172 35.820312 C 36.800172 35.421312 36.199781 35.423219 35.800781 35.824219 C 35.401781 36.225219 35.403688 36.825609 35.804688 37.224609 L 38.613281 40.017578 L 35.820312 42.824219 C 35.421312 43.225219 35.423219 43.825609 35.824219 44.224609 C 36.225219 44.623609 36.825609 44.621703 37.224609 44.220703 L 40.017578 41.412109 L 42.824219 44.205078 C 43.225219 44.604078 43.825609 44.602172 44.224609 44.201172 C 44.422609 44.000172 44.521484 43.7 44.521484 43.5 C 44.520484 43.3 44.421703 42.999781 44.220703 42.800781 L 41.412109 40.009766 L 44.203125 37.201172 C 44.403125 37.000172 44.503906 36.7 44.503906 36.5 C 44.502906 36.3 44.402172 35.999781 44.201172 35.800781 C 44.000672 35.601281 43.75 35.501328 43.5 35.501953 z" fill="#000000"/></svg>
