<svg role="img" viewBox="0 0 32 32" xmlns="http://www.w3.org/2000/svg"><path d="M23.68 2.563c-1.477 0-2.95.562-4.075 1.683L16.406 7.45a5.754 5.754 0 0 0-1.379 5.903l2.297-2.297c.098-.66.387-1.293.89-1.797l3.204-3.2a3.179 3.179 0 0 1 2.262-.937c.82 0 1.64.313 2.261.938a3.197 3.197 0 0 1 0 4.523l-3.199 3.2a3.126 3.126 0 0 1-1.797.89l-2.3 2.3a5.744 5.744 0 0 0 5.906-1.379l3.203-3.202a5.765 5.765 0 0 0 0-8.145 5.753 5.753 0 0 0-4.074-1.684m-3.864 8.304a1.301 1.301 0 0 0-.882.387l-7.68 7.68c-.332.324-.469.8-.352 1.246.118.449.47.8.918.918.446.117.922-.02 1.246-.352l7.68-7.68a1.28 1.28 0 0 0-.93-2.199m-8.007 3.867a5.738 5.738 0 0 0-4.36 1.672l-3.203 3.2a5.77 5.77 0 0 0 0 8.148 5.753 5.753 0 0 0 4.074 1.683c1.473 0 2.95-.562 4.07-1.687l3.204-3.2a5.76 5.76 0 0 0 1.379-5.905l-2.301 2.3a3.126 3.126 0 0 1-.89 1.797l-3.2 3.2a3.197 3.197 0 0 1-4.523 0 3.197 3.197 0 0 1 0-4.524l3.199-3.2a3.156 3.156 0 0 1 1.797-.894l2.297-2.297a5.795 5.795 0 0 0-1.543-.293M25.602 19.2c-3.29 0-6.02 2.512-6.364 5.711a6.71 6.71 0 0 0-.039.692c0 3.52 2.88 6.398 6.403 6.398C29.122 32 32 29.121 32 25.602c0-3.524-2.879-6.403-6.398-6.403m-2.243 3.52c.192 0 .32.066.45.195l1.793 1.79 1.789-1.79a.618.618 0 0 1 .898 0 .62.62 0 0 1 0 .895l-1.793 1.793 1.793 1.789a.625.625 0 0 1 0 .898.709.709 0 0 1-.45.191.709.709 0 0 1-.448-.19l-1.79-1.794-1.792 1.793a.709.709 0 0 1-.45.191.692.692 0 0 1-.445-.19.618.618 0 0 1 0-.9l1.79-1.788-1.79-1.793a.614.614 0 0 1 0-.895.572.572 0 0 1 .445-.195m0 0" style="stroke:none;fill-rule:nonzero;fill:rgb(0%,0%,0%);fill-opacity:1"/></svg>