<?xml version="1.0" encoding="UTF-8"?>
<svg xmlns="http://www.w3.org/2000/svg" xmlns:xlink="http://www.w3.org/1999/xlink" width="32" height="32" viewBox="0 0 32 32" version="1.1">
<g id="surface1">
<path style=" stroke:none;fill-rule:nonzero;fill:rgb(0%,0%,0%);fill-opacity:1;" d="M 16 1.921875 C 12.277344 1.921875 9.816406 4.214844 9.613281 7.839844 C 9.605469 8 9.601562 8.160156 9.601562 8.320312 C 9.597656 9.375 9.859375 10.429688 10.144531 11.339844 C 10.007812 11.5 9.855469 11.722656 9.75 12 C 9.660156 12.226562 9.601562 12.496094 9.601562 12.800781 C 9.601562 12.867188 9.605469 13.015625 9.613281 13.117188 C 9.789062 14.46875 10.398438 15.113281 10.933594 15.371094 C 11.109375 16.585938 11.550781 17.605469 12.160156 18.210938 L 12.160156 20.625 C 11.789062 21.511719 10.503906 22.027344 9.019531 22.617188 C 6.523438 23.617188 3.414062 24.855469 3.203125 28.765625 L 3.199219 29.441406 L 20.492188 29.441406 C 21.699219 31.050781 23.589844 31.996094 25.601562 32 C 29.132812 31.996094 31.996094 29.132812 32 25.601562 C 32 22.074219 29.128906 19.199219 25.601562 19.199219 C 23.707031 19.199219 21.914062 20.039062 20.699219 21.492188 C 20.308594 21.230469 20.003906 20.941406 19.839844 20.59375 L 19.839844 18.207031 C 20.546875 17.488281 20.886719 16.285156 21.046875 15.398438 C 21.628906 15.15625 22.269531 14.507812 22.390625 13.085938 C 22.398438 13.015625 22.402344 12.859375 22.402344 12.796875 C 22.402344 12.25 22.210938 11.722656 21.855469 11.308594 C 22.074219 10.558594 22.371094 9.394531 22.398438 8.160156 C 22.398438 8.078125 22.402344 8 22.398438 7.921875 C 22.382812 5.355469 21.21875 3.695312 19.1875 3.3125 C 18.574219 2.445312 17.386719 1.921875 16 1.921875 M 25.601562 20.480469 C 26.960938 20.476562 28.265625 21.015625 29.222656 21.976562 C 30.183594 22.941406 30.722656 24.242188 30.71875 25.601562 C 30.722656 26.960938 30.183594 28.261719 29.222656 29.222656 C 28.261719 30.183594 26.960938 30.722656 25.601562 30.71875 C 24.242188 30.722656 22.941406 30.183594 21.976562 29.222656 C 21.015625 28.265625 20.476562 26.960938 20.480469 25.601562 C 20.476562 24.242188 21.015625 22.9375 21.976562 21.976562 C 22.9375 21.015625 24.242188 20.476562 25.601562 20.480469 M 23.355469 22.714844 C 23.09375 22.714844 22.859375 22.871094 22.761719 23.113281 C 22.664062 23.355469 22.722656 23.628906 22.90625 23.8125 L 24.695312 25.601562 L 22.90625 27.386719 C 22.738281 27.546875 22.671875 27.789062 22.730469 28.011719 C 22.789062 28.238281 22.964844 28.410156 23.1875 28.46875 C 23.414062 28.527344 23.652344 28.460938 23.8125 28.292969 L 25.601562 26.503906 L 27.386719 28.292969 C 27.546875 28.460938 27.785156 28.527344 28.011719 28.46875 C 28.234375 28.410156 28.410156 28.238281 28.46875 28.011719 C 28.527344 27.789062 28.460938 27.546875 28.292969 27.386719 L 26.503906 25.601562 L 28.292969 23.8125 C 28.480469 23.628906 28.539062 23.347656 28.4375 23.105469 C 28.355469 22.90625 28.175781 22.761719 27.964844 22.722656 C 27.753906 22.683594 27.539062 22.753906 27.386719 22.90625 L 25.601562 24.695312 L 23.8125 22.90625 C 23.691406 22.785156 23.527344 22.714844 23.355469 22.714844 M 23.355469 22.714844 "/>
</g>
</svg>
