<?xml version="1.0" encoding="utf-8"?>
<svg xmlns="http://www.w3.org/2000/svg" viewBox="0 0 50 50" fill="#000000"><path d="M 25 3 C 19.184 3 15.337484 6.586 15.021484 12.25 C 15.007484 12.496 15 12.746 15 13 C 14.998 14.647 15.403516 16.298797 15.853516 17.716797 C 15.635516 17.971797 15.401422 18.316 15.232422 18.75 C 15.095422 19.106 15.003 19.523 15 20 C 15 20.103 15.005531 20.337047 15.019531 20.498047 C 15.292531 22.605047 16.245984 23.611531 17.083984 24.019531 C 17.360984 25.916531 18.049 27.507125 19 28.453125 L 19 32.228516 C 18.423 33.614516 16.409797 34.415797 14.091797 35.341797 C 10.190797 36.899797 5.3349531 38.837313 5.0019531 44.945312 L 5 46 L 32.021484 46 C 33.848689 48.422612 36.741068 50 40 50 C 45.511003 50 50 45.511003 50 40 C 50 34.488997 45.511003 30 40 30 C 36.930294 30 34.1801 31.395649 32.34375 33.582031 C 31.732183 33.173251 31.253796 32.722312 31 32.175781 L 31 28.449219 C 32.106 27.328219 32.636766 25.4465 32.884766 24.0625 C 33.792766 23.6845 34.794281 22.668312 34.988281 20.445312 C 34.997281 20.334312 35.002953 20.092187 35.001953 19.992188 C 34.994953 19.010188 34.617484 18.202969 34.146484 17.667969 C 34.489484 16.497969 34.955047 14.681 34.998047 12.75 C 34.999047 12.625 35.001 12.5 35 12.375 C 34.972 8.366 33.151422 5.7717344 29.982422 5.1777344 C 29.021422 3.8227344 27.167 3 25 3 z M 40 32 C 44.430123 32 48 35.569877 48 40 C 48 44.430123 44.430123 48 40 48 C 35.569877 48 32 44.430123 32 40 C 32 35.569877 35.569877 32 40 32 z M 36.490234 35.490234 A 1.0001 1.0001 0 0 0 35.792969 37.207031 L 38.585938 40 L 35.792969 42.792969 A 1.0001 1.0001 0 1 0 37.207031 44.207031 L 40 41.414062 L 42.792969 44.207031 A 1.0001 1.0001 0 1 0 44.207031 42.792969 L 41.414062 40 L 44.207031 37.207031 A 1.0001 1.0001 0 0 0 43.480469 35.490234 A 1.0001 1.0001 0 0 0 42.792969 35.792969 L 40 38.585938 L 37.207031 35.792969 A 1.0001 1.0001 0 0 0 36.490234 35.490234 z" fill="#000000"/></svg>
