<svg role="img" viewBox="0 0 32 32" xmlns="http://www.w3.org/2000/svg"><path d="M16 1.281C7.883 1.281 1.281 7.883 1.281 16c0 8.117 6.602 14.719 14.719 14.719 1.703 0 3.336-.293 4.86-.828.078.086.152.172.234.254 2.496 2.484 6.57 2.472 9.05-.024 2.485-2.496 2.473-6.57-.023-9.05-.074-.075-.152-.137-.23-.208.535-1.523.828-3.16.828-4.863 0-8.117-6.602-14.719-14.719-14.719m-.64 5.117h1.312v1.793c3.074.13 4.351 2.754 4.223 4.543H19.55c-.063-1.086-.446-3.52-3.52-3.52-3.008 0-3.582 1.731-3.582 3.204 0 4.414 8.766 1.469 8.766 7.23 0 .641-.285 3.84-4.574 4.16v1.794h-1.282v-1.793c-1.726-.192-4.449-.77-4.574-5.055h1.344c-.129 4.031 3.777 4.031 3.902 4.031 3.778 0 3.907-2.562 3.907-3.137 0-4.546-8.77-1.343-8.77-7.359 0-1.219.61-3.906 4.191-4.098Zm10.234 14.094a5.11 5.11 0 0 1 3.625 1.485c1.996 1.988 2.004 5.246.02 7.242-1.989 1.996-5.247 2.008-7.243.02-1.996-1.985-2.004-5.243-.02-7.243a5.116 5.116 0 0 1 3.618-1.504m2.246 2.23c-.16 0-.32.063-.45.192l-1.785 1.797-1.796-1.785a.617.617 0 0 0-.895 0 .622.622 0 0 0 0 .898l1.797 1.785-1.785 1.797a.622.622 0 0 0 0 .899.622.622 0 0 0 .898-.004l1.785-1.797 1.797 1.789c.258.254.64.254.899-.004a.703.703 0 0 0 .187-.45.689.689 0 0 0-.191-.448l-1.797-1.786 1.785-1.796a.695.695 0 0 0 .195-.45.698.698 0 0 0-.195-.445.631.631 0 0 0-.45-.191m0 0" style="stroke:none;fill-rule:nonzero;fill:rgb(0%,0%,0%);fill-opacity:1"/></svg>