<svg role="img" viewBox="0 0 32 32" xmlns="http://www.w3.org/2000/svg"><path d="M26.96 14.246c.009-.125.013-.242.013-.36 0-4.64-3.778-8.417-8.418-8.417-3.203 0-6.133 1.855-7.54 4.695a4.452 4.452 0 0 0-2.468-.742 4.487 4.487 0 0 0-4.473 4.18A6.204 6.204 0 0 0 0 19.414a6.198 6.198 0 0 0 6.191 6.188h20.11a5.704 5.704 0 0 0 5.699-5.7 5.701 5.701 0 0 0-5.04-5.656m-6.667 6.422a.641.641 0 0 1-.906.906l-2.746-2.75-2.75 2.75a.63.63 0 0 1-.45.188.641.641 0 0 1-.453-1.094l2.746-2.746-2.746-2.75a.641.641 0 0 1 0-.906c.25-.25.653-.25.903 0l2.75 2.75 2.746-2.75a.641.641 0 0 1 .906.906l-2.746 2.75Zm0 0" style="stroke:none;fill-rule:nonzero;fill:rgb(0%,0%,0%);fill-opacity:1"/></svg>