<svg xmlns="http://www.w3.org/2000/svg" xmlns:xlink="http://www.w3.org/1999/xlink" viewBox="0,0,256,256" width="32px" height="32px"><defs><clipPath id="clip-1"><path d="M0,256v-256h256v256zM58.416,132c0,37.1712 30.4128,67.584 67.584,67.584c37.1712,0 67.584,-30.4128 67.584,-67.584c0,-37.1712 -30.4128,-67.584 -67.584,-67.584c-37.1712,0 -67.584,30.4128 -67.584,67.584z" id="overlayBgMask" fill="none"></path></clipPath></defs><g clip-path="url(#clip-1)" fill="none" fill-rule="nonzero" stroke="none" stroke-width="1" stroke-linecap="butt" stroke-linejoin="miter" stroke-miterlimit="10" stroke-dasharray="" stroke-dashoffset="0" font-family="none" font-weight="none" font-size="none" text-anchor="none" style="mix-blend-mode: normal"><g transform="scale(5.12,5.12)" fill="#6a6a6a"><path d="M2,8v10h14v-10zM18,8v10h14v-10zM34,8v10h14v-10zM2,20v10h6v-10zM10,20v10h14v-10zM26,20v10h14v-10zM42,20v10h6v-10zM2,32v10h14v-10zM18,32v10h14v-10zM34,32v10h14v-10z"></path></g></g><g fill="#000000" fill-rule="nonzero" stroke="none" stroke-width="1" stroke-linecap="butt" stroke-linejoin="miter" stroke-miterlimit="10" stroke-dasharray="" stroke-dashoffset="0" font-family="none" font-weight="none" font-size="none" text-anchor="none" style="mix-blend-mode: normal"><g transform="translate(69.68,75.68) scale(5.632,5.632)" id="overlay"><path d="M10,0c-5.5,0 -10,4.5 -10,10c0,5.5 4.5,10 10,10c5.5,0 10,-4.5 10,-10c0,-5.5 -4.5,-10 -10,-10zM14.9,11h-9.8c-0.6,0 -1,-0.4 -1,-1c0,-0.6 0.4,-1 1,-1h9.9c0.6,0 1,0.4 1,1c0,0.6 -0.5,1 -1.1,1z"></path></g></g></svg>