<svg role="img" viewBox="0 0 32 32" xmlns="http://www.w3.org/2000/svg"><path d="M18.078 1.281c-.633.024-1.273.153-1.7.64L1.86 16.442c-.687.688-.703 1.84 0 2.637l11.121 11.14c.344.348.805.52 1.282.52.468 0 .96-.168 1.36-.52l2.757-2.757A7.042 7.042 0 0 0 24.96 32 7.045 7.045 0 0 0 32 24.96a7.053 7.053 0 0 0-4.64-6.62l2.718-2.719c.637-.637.64-1.613.64-2.562v-9.54c0-1.253-.98-2.238-2.238-2.238H18.7c-.204-.004-.407-.008-.622 0m6.883 3.84a1.92 1.92 0 1 1-.003 3.84 1.92 1.92 0 0 1 .003-3.84m0 14.078a5.764 5.764 0 0 1 5.758 5.762 5.763 5.763 0 0 1-5.758 5.758 5.764 5.764 0 0 1-5.762-5.758 5.765 5.765 0 0 1 5.762-5.762m-2.102 2.742-.918.918 2.098 2.102-2.098 2.098.918.921 2.102-2.101 2.098 2.101.921-.921-2.101-2.098 2.101-2.102-.921-.918-2.098 2.098Zm0 0" style="stroke:none;fill-rule:nonzero;fill:rgb(0%,0%,0%);fill-opacity:1"/></svg>