<?xml version="1.0" encoding="utf-8"?>
<svg xmlns="http://www.w3.org/2000/svg" viewBox="0 0 50 50" fill="#000000"><path d="M 19 0 C 14.039063 0 10 4.039063 10 9 C 10 13.625 13.507813 17.441406 18 17.941406 L 18 45 L 31 45 L 31 48 L 39 48 L 39 40 L 31 40 L 31 43 L 20 43 L 20 34 L 31 34 L 31 37 L 39 37 L 39 29 L 31 29 L 31 32 L 20 32 L 20 23 L 31 23 L 31 26 L 39 26 L 39 18 L 31 18 L 31 21 L 20 21 L 20 17.941406 C 24.492188 17.441406 28 13.625 28 9 C 28 4.039063 23.960938 0 19 0 Z M 16 5 C 16.253906 5 16.511719 5.097656 16.707031 5.292969 L 19 7.585938 L 21.292969 5.292969 C 21.683594 4.902344 22.316406 4.902344 22.707031 5.292969 C 23.097656 5.683594 23.097656 6.316406 22.707031 6.707031 L 20.414063 9 L 22.707031 11.292969 C 23.097656 11.683594 23.097656 12.316406 22.707031 12.707031 C 22.511719 12.902344 22.257813 13 22 13 C 21.742188 13 21.488281 12.902344 21.292969 12.707031 L 19 10.414063 L 16.707031 12.707031 C 16.511719 12.902344 16.257813 13 16 13 C 15.742188 13 15.488281 12.902344 15.292969 12.707031 C 14.902344 12.316406 14.902344 11.683594 15.292969 11.292969 L 17.585938 9 L 15.292969 6.707031 C 14.902344 6.316406 14.902344 5.683594 15.292969 5.292969 C 15.488281 5.097656 15.746094 5 16 5 Z M 33 20 L 37 20 L 37 24 L 33 24 Z M 33 31 L 37 31 L 37 35 L 33 35 Z M 33 42 L 37 42 L 37 46 L 33 46 Z" fill="#000000"/></svg>
