<svg role="img" viewBox="0 0 32 32" xmlns="http://www.w3.org/2000/svg"><path d="M16 2.559c-8.11 0-14.719 5.683-14.719 12.8 0 4.125 2.258 7.72 5.735 10.067-.004.14.004.363-.176 1.035-.227.832-.68 2-1.602 3.32l-.652.938H5.73c3.961 0 6.254-2.582 6.606-2.996 1.18.277 2.394.425 3.664.425a16.83 16.83 0 0 0 3.582-.386c.89 2.465 3.25 4.238 6.02 4.238A6.407 6.407 0 0 0 32 25.602a6.388 6.388 0 0 0-2.531-5.086c.8-1.575 1.25-3.317 1.25-5.157 0-7.117-6.61-12.8-14.719-12.8m9.586 18a6.815 6.815 0 0 1 1.676.203h.011a5.108 5.108 0 0 1 3.446 4.84 5.11 5.11 0 0 1-5.117 5.117 5.11 5.11 0 0 1-5.122-5.117 5.11 5.11 0 0 1 2.32-4.29 5.416 5.416 0 0 1 2.786-.753m-2.234 2.152a.646.646 0 0 0-.59.402.638.638 0 0 0 .144.7l1.79 1.789-1.79 1.785a.631.631 0 0 0-.172.625.63.63 0 0 0 .457.457.635.635 0 0 0 .622-.176l1.789-1.79 1.785 1.79a.642.642 0 1 0 .906-.906l-1.79-1.785 1.79-1.79a.63.63 0 0 0 .14-.707.633.633 0 0 0-1.046-.199l-1.785 1.79-1.79-1.79a.654.654 0 0 0-.46-.195m0 0" style="stroke:none;fill-rule:nonzero;fill:rgb(0%,0%,0%);fill-opacity:1"/></svg>