<?xml version="1.0" encoding="UTF-8"?>
<svg xmlns="http://www.w3.org/2000/svg" xmlns:xlink="http://www.w3.org/1999/xlink" width="32" height="32" viewBox="0 0 32 32" version="1.1">
<g id="surface1">
<path style=" stroke:none;fill-rule:nonzero;fill:rgb(0%,0%,0%);fill-opacity:1;" d="M 0.640625 0 C 0.289062 0 0 0.289062 0 0.640625 L 0 2.558594 C 0 2.722656 0.0664062 2.878906 0.179688 3 L 9.398438 12.800781 L 18.761719 12.800781 L 27.980469 3 C 28.003906 2.976562 28.023438 2.945312 28.039062 2.921875 C 28.066406 2.878906 28.101562 2.84375 28.121094 2.800781 C 28.136719 2.753906 28.132812 2.691406 28.140625 2.640625 C 28.144531 2.609375 28.160156 2.59375 28.160156 2.558594 L 28.160156 0.640625 C 28.160156 0.285156 27.875 0 27.519531 0 Z M 10.238281 14.078125 L 10.238281 24.960938 C 10.238281 25.183594 10.367188 25.386719 10.558594 25.5 L 16.960938 29.339844 C 17.054688 29.402344 17.167969 29.4375 17.28125 29.441406 C 17.390625 29.441406 17.503906 29.414062 17.601562 29.359375 C 17.800781 29.246094 17.921875 29.03125 17.921875 28.800781 L 17.921875 14.078125 Z M 21.058594 20.460938 C 21.03125 20.464844 21.003906 20.472656 20.980469 20.480469 C 20.742188 20.523438 20.546875 20.695312 20.480469 20.929688 C 20.414062 21.164062 20.484375 21.414062 20.660156 21.578125 L 25.320312 26.238281 L 20.660156 30.898438 C 20.40625 31.152344 20.40625 31.566406 20.660156 31.820312 C 20.78125 31.941406 20.945312 32.011719 21.117188 32.011719 C 21.292969 32.011719 21.457031 31.941406 21.578125 31.820312 L 26.238281 27.160156 L 30.898438 31.820312 C 31.152344 32.074219 31.566406 32.074219 31.820312 31.820312 C 32.074219 31.566406 32.074219 31.152344 31.820312 30.898438 L 27.160156 26.238281 L 31.820312 21.578125 C 32.027344 21.386719 32.082031 21.082031 31.957031 20.828125 C 31.835938 20.574219 31.558594 20.433594 31.28125 20.480469 C 31.136719 20.496094 31.003906 20.558594 30.898438 20.660156 L 26.238281 25.320312 L 21.578125 20.660156 C 21.445312 20.515625 21.253906 20.441406 21.058594 20.460938 M 21.058594 20.460938 "/>
</g>
</svg>
