<svg role="img" viewBox="0 0 32 32" xmlns="http://www.w3.org/2000/svg"><path d="M.64 0C.29 0 0 .29 0 .64v1.92c0 .164.066.32.18.441l9.218 9.8h9.364L27.98 3c.024-.023.043-.055.06-.078.026-.043.062-.078.081-.121.016-.047.012-.11.02-.16.004-.032.02-.047.02-.082V.64A.641.641 0 0 0 27.52 0Zm9.598 14.078v10.883c0 .223.13.426.32.539l6.403 3.84a.633.633 0 0 0 .32.101c.11 0 .223-.027.32-.082.2-.113.32-.328.32-.558V14.078Zm10.82 6.383a.457.457 0 0 0-.078.02.634.634 0 0 0-.5.449.646.646 0 0 0 .18.648l4.66 4.66-4.66 4.66a.653.653 0 0 0 0 .922.648.648 0 0 0 .918 0l4.66-4.66 4.66 4.66a.653.653 0 0 0 .922 0 .653.653 0 0 0 0-.922l-4.66-4.66 4.66-4.66a.637.637 0 0 0 .137-.75.632.632 0 0 0-.676-.348.65.65 0 0 0-.383.18l-4.66 4.66-4.66-4.66a.628.628 0 0 0-.52-.2m0 0" style="stroke:none;fill-rule:nonzero;fill:rgb(0%,0%,0%);fill-opacity:1"/></svg>