<?xml version="1.0" encoding="utf-8"?>
<svg xmlns="http://www.w3.org/2000/svg" viewBox="0 0 50 50" fill="#000000"><path d="M 42.128906 22.257813 C 42.136719 22.066406 42.144531 21.878906 42.144531 21.695313 C 42.144531 14.445313 36.242188 8.546875 28.992188 8.546875 C 23.984375 8.546875 19.410156 11.441406 17.214844 15.878906 C 16.078125 15.128906 14.75 14.722656 13.355469 14.722656 C 9.652344 14.722656 6.609375 17.609375 6.363281 21.253906 C 2.582031 22.628906 0 26.257813 0 30.332031 C 0 35.660156 4.339844 40 9.671875 40 L 41.097656 40 C 46.007813 40 50 36.007813 50 31.097656 C 50 26.539063 46.554688 22.769531 42.128906 22.257813 Z M 31.707031 32.292969 C 32.097656 32.683594 32.097656 33.316406 31.707031 33.707031 C 31.511719 33.902344 31.257813 34 31 34 C 30.742188 34 30.488281 33.902344 30.292969 33.707031 L 26 29.414063 L 21.707031 33.707031 C 21.511719 33.902344 21.257813 34 21 34 C 20.742188 34 20.488281 33.902344 20.292969 33.707031 C 19.902344 33.316406 19.902344 32.683594 20.292969 32.292969 L 24.585938 28 L 20.292969 23.707031 C 19.902344 23.316406 19.902344 22.683594 20.292969 22.292969 C 20.683594 21.902344 21.316406 21.902344 21.707031 22.292969 L 26 26.585938 L 30.292969 22.292969 C 30.683594 21.902344 31.316406 21.902344 31.707031 22.292969 C 32.097656 22.683594 32.097656 23.316406 31.707031 23.707031 L 27.414063 28 Z" fill="#000000"/></svg>
