<?xml version="1.0" encoding="utf-8"?>
<svg xmlns="http://www.w3.org/2000/svg" viewBox="0 0 50 50" fill="#000000"><path d="M 46.214844 7.847656 C 38.8125 6.222656 34.441406 3.921875 31.25 2.242188 C 28.769531 0.941406 26.980469 0 25 0 C 23.019531 0 21.230469 0.941406 18.75 2.242188 C 15.558594 3.921875 11.1875 6.222656 3.785156 7.847656 L 3 8.019531 L 3 8.824219 C 3 39.285156 24.363281 49.503906 24.582031 49.601563 L 25.019531 49.804688 L 25.453125 49.585938 C 25.667969 49.476563 47 38.273438 47 8.824219 L 47 8.019531 Z M 32.707031 28.292969 C 33.097656 28.683594 33.097656 29.316406 32.707031 29.707031 C 32.511719 29.902344 32.257813 30 32 30 C 31.742188 30 31.488281 29.902344 31.292969 29.707031 L 25.5 23.914063 L 19.707031 29.707031 C 19.511719 29.902344 19.257813 30 19 30 C 18.742188 30 18.488281 29.902344 18.292969 29.707031 C 17.902344 29.316406 17.902344 28.683594 18.292969 28.292969 L 24.085938 22.5 L 18.292969 16.707031 C 17.902344 16.316406 17.902344 15.683594 18.292969 15.292969 C 18.683594 14.902344 19.316406 14.902344 19.707031 15.292969 L 25.5 21.085938 L 31.292969 15.292969 C 31.683594 14.902344 32.316406 14.902344 32.707031 15.292969 C 33.097656 15.683594 33.097656 16.316406 32.707031 16.707031 L 26.914063 22.5 Z" fill="#000000"/></svg>
