<?xml version="1.0" encoding="UTF-8"?>
<svg xmlns="http://www.w3.org/2000/svg" xmlns:xlink="http://www.w3.org/1999/xlink" width="32" height="32" viewBox="0 0 32 32" version="1.1">
<g id="surface1">
<path style=" stroke:none;fill-rule:nonzero;fill:rgb(0%,0%,0%);fill-opacity:1;" d="M 29.578125 5.023438 C 24.839844 3.984375 22.042969 2.511719 20 1.433594 C 18.414062 0.601562 17.265625 0 16 0 C 14.734375 0 13.585938 0.601562 12 1.433594 C 9.957031 2.511719 7.160156 3.984375 2.421875 5.023438 L 1.921875 5.132812 L 1.921875 5.648438 C 1.921875 25.140625 15.59375 31.683594 15.734375 31.746094 L 16.011719 31.875 L 16.289062 31.734375 C 16.425781 31.664062 30.078125 24.496094 30.078125 5.648438 L 30.078125 5.132812 Z M 20.933594 18.109375 C 21.117188 18.292969 21.175781 18.570312 21.074219 18.808594 C 20.972656 19.046875 20.738281 19.203125 20.480469 19.199219 C 20.308594 19.199219 20.148438 19.132812 20.027344 19.011719 L 16.320312 15.304688 L 12.613281 19.011719 C 12.492188 19.132812 12.328125 19.203125 12.160156 19.203125 C 11.988281 19.203125 11.828125 19.132812 11.707031 19.011719 C 11.585938 18.894531 11.519531 18.730469 11.519531 18.5625 C 11.519531 18.390625 11.585938 18.230469 11.707031 18.109375 L 15.414062 14.398438 L 11.707031 10.691406 C 11.585938 10.574219 11.519531 10.410156 11.519531 10.242188 C 11.519531 10.070312 11.585938 9.910156 11.707031 9.789062 C 11.957031 9.539062 12.363281 9.539062 12.613281 9.789062 L 16.320312 13.496094 L 20.027344 9.789062 C 20.277344 9.539062 20.683594 9.539062 20.933594 9.789062 C 21.183594 10.039062 21.183594 10.441406 20.933594 10.691406 L 17.226562 14.398438 Z M 20.933594 18.109375 "/>
</g>
</svg>
