<?xml version="1.0" encoding="UTF-8"?>
<svg xmlns="http://www.w3.org/2000/svg" xmlns:xlink="http://www.w3.org/1999/xlink" width="32" height="32" viewBox="0 0 32 32" version="1.1">
<g id="surface1">
<path style=" stroke:none;fill-rule:nonzero;fill:rgb(0%,0%,0%);fill-opacity:1;" d="M 23.679688 2.5625 C 22.203125 2.5625 20.730469 3.125 19.605469 4.246094 L 16.40625 7.449219 C 14.8125 9.042969 14.355469 11.34375 15.027344 13.351562 L 17.324219 11.054688 C 17.421875 10.394531 17.710938 9.761719 18.214844 9.257812 L 21.417969 6.058594 C 22.039062 5.433594 22.859375 5.121094 23.679688 5.121094 C 24.5 5.121094 25.320312 5.433594 25.941406 6.058594 C 27.191406 7.304688 27.191406 9.335938 25.941406 10.582031 L 22.742188 13.78125 C 22.238281 14.289062 21.605469 14.578125 20.945312 14.671875 L 18.644531 16.972656 C 19.238281 17.171875 19.859375 17.277344 20.480469 17.277344 C 21.953125 17.277344 23.429688 16.714844 24.550781 15.59375 L 27.753906 12.390625 C 30 10.148438 30 6.492188 27.753906 4.246094 C 26.628906 3.125 25.15625 2.5625 23.679688 2.5625 Z M 19.816406 10.867188 C 19.484375 10.878906 19.167969 11.015625 18.933594 11.253906 L 11.253906 18.933594 C 10.921875 19.257812 10.785156 19.734375 10.902344 20.179688 C 11.019531 20.628906 11.371094 20.980469 11.820312 21.097656 C 12.265625 21.214844 12.742188 21.078125 13.066406 20.746094 L 20.746094 13.066406 C 21.125 12.695312 21.238281 12.132812 21.03125 11.648438 C 20.824219 11.160156 20.34375 10.851562 19.816406 10.867188 Z M 11.808594 14.734375 C 10.238281 14.65625 8.644531 15.210938 7.449219 16.40625 L 4.246094 19.605469 C 2 21.851562 2 25.507812 4.246094 27.753906 C 5.371094 28.875 6.84375 29.4375 8.320312 29.4375 C 9.792969 29.4375 11.269531 28.875 12.390625 27.75 L 15.59375 24.550781 C 17.1875 22.957031 17.644531 20.652344 16.972656 18.644531 L 14.671875 20.945312 C 14.578125 21.605469 14.289062 22.238281 13.78125 22.742188 L 10.582031 25.941406 C 9.335938 27.191406 7.304688 27.191406 6.058594 25.941406 C 4.808594 24.695312 4.808594 22.664062 6.058594 21.417969 L 9.257812 18.21875 C 9.761719 17.710938 10.394531 17.421875 11.054688 17.324219 L 13.351562 15.027344 C 12.851562 14.859375 12.332031 14.761719 11.808594 14.734375 Z M 25.601562 19.199219 C 22.3125 19.199219 19.582031 21.710938 19.238281 24.910156 C 19.214844 25.136719 19.199219 25.367188 19.199219 25.601562 C 19.199219 29.121094 22.078125 32 25.601562 32 C 29.121094 32 32 29.121094 32 25.601562 C 32 22.078125 29.121094 19.199219 25.601562 19.199219 Z M 23.359375 22.71875 C 23.550781 22.71875 23.679688 22.785156 23.808594 22.914062 L 25.601562 24.703125 L 27.390625 22.914062 C 27.648438 22.65625 28.03125 22.65625 28.289062 22.914062 C 28.542969 23.167969 28.542969 23.550781 28.289062 23.808594 L 26.496094 25.601562 L 28.289062 27.390625 C 28.542969 27.648438 28.542969 28.03125 28.289062 28.289062 C 28.160156 28.414062 27.96875 28.480469 27.839844 28.480469 C 27.710938 28.480469 27.519531 28.414062 27.390625 28.289062 L 25.601562 26.496094 L 23.808594 28.289062 C 23.679688 28.414062 23.488281 28.480469 23.359375 28.480469 C 23.230469 28.480469 23.039062 28.414062 22.914062 28.289062 C 22.65625 28.03125 22.65625 27.648438 22.914062 27.390625 L 24.703125 25.601562 L 22.914062 23.808594 C 22.65625 23.550781 22.65625 23.167969 22.914062 22.914062 C 23.039062 22.785156 23.167969 22.71875 23.359375 22.71875 Z M 23.359375 22.71875 "/>
</g>
</svg>
