<?xml version="1.0" encoding="UTF-8"?>
<svg xmlns="http://www.w3.org/2000/svg" xmlns:xlink="http://www.w3.org/1999/xlink" width="32" height="32" viewBox="0 0 32 32" version="1.1">
<g id="surface1">
<path style=" stroke:none;fill-rule:nonzero;fill:rgb(0%,0%,0%);fill-opacity:1;" d="M 16 2.558594 C 7.890625 2.558594 1.28125 8.242188 1.28125 15.359375 C 1.28125 19.484375 3.539062 23.078125 7.015625 25.425781 C 7.011719 25.566406 7.019531 25.789062 6.839844 26.460938 C 6.613281 27.292969 6.160156 28.460938 5.238281 29.78125 L 4.585938 30.71875 L 5.730469 30.71875 C 9.691406 30.71875 11.984375 28.136719 12.335938 27.722656 C 13.515625 28 14.730469 28.148438 16 28.148438 C 17.203125 28.148438 18.40625 28.019531 19.582031 27.761719 C 20.472656 30.226562 22.832031 32 25.601562 32 C 29.132812 31.996094 31.996094 29.132812 32 25.601562 C 32 23.605469 31.0625 21.722656 29.46875 20.515625 C 30.269531 18.941406 30.71875 17.199219 30.71875 15.359375 C 30.71875 8.242188 24.109375 2.558594 16 2.558594 M 25.585938 20.558594 C 26.152344 20.558594 26.714844 20.625 27.261719 20.761719 L 27.273438 20.761719 C 29.339844 21.472656 30.722656 23.417969 30.71875 25.601562 C 30.722656 26.960938 30.183594 28.261719 29.222656 29.222656 C 28.261719 30.183594 26.960938 30.722656 25.601562 30.71875 C 24.242188 30.722656 22.941406 30.183594 21.976562 29.222656 C 21.015625 28.265625 20.476562 26.960938 20.480469 25.601562 C 20.476562 23.871094 21.351562 22.257812 22.800781 21.3125 C 23.644531 20.8125 24.605469 20.554688 25.585938 20.558594 M 23.351562 22.710938 C 23.09375 22.714844 22.859375 22.871094 22.761719 23.113281 C 22.664062 23.355469 22.71875 23.632812 22.90625 23.8125 L 24.695312 25.601562 L 22.90625 27.386719 C 22.738281 27.546875 22.671875 27.789062 22.734375 28.011719 C 22.789062 28.238281 22.964844 28.414062 23.191406 28.46875 C 23.414062 28.527344 23.652344 28.460938 23.8125 28.292969 L 25.601562 26.503906 L 27.386719 28.292969 C 27.542969 28.472656 27.789062 28.550781 28.023438 28.492188 C 28.253906 28.4375 28.4375 28.253906 28.492188 28.023438 C 28.550781 27.789062 28.472656 27.542969 28.292969 27.386719 L 26.503906 25.601562 L 28.292969 23.8125 C 28.484375 23.628906 28.539062 23.347656 28.433594 23.105469 C 28.351562 22.90625 28.175781 22.761719 27.964844 22.71875 C 27.753906 22.679688 27.535156 22.75 27.386719 22.90625 L 25.601562 24.695312 L 23.8125 22.90625 C 23.691406 22.78125 23.523438 22.710938 23.351562 22.710938 M 23.351562 22.710938 "/>
</g>
</svg>
