<?xml version="1.0" encoding="UTF-8"?>
<svg xmlns="http://www.w3.org/2000/svg" xmlns:xlink="http://www.w3.org/1999/xlink" width="32" height="32" viewBox="0 0 32 32" version="1.1">
<g id="surface1">
<path style=" stroke:none;fill-rule:nonzero;fill:rgb(0%,0%,0%);fill-opacity:1;" d="M 12.960938 1.28125 C 10.757812 1.28125 9.117188 1.914062 8.136719 3.226562 C 6.9375 4.824219 6.734375 7.324219 7.46875 10.644531 C 7.1875 10.992188 6.984375 11.527344 7.066406 12.226562 C 7.234375 13.613281 7.765625 14.183594 8.21875 14.414062 C 8.429688 15.488281 9.019531 16.683594 9.59375 17.265625 C 9.59375 17.265625 9.601562 18.878906 9.519531 19.601562 C 9.136719 20.484375 7.882812 20.859375 6.40625 21.445312 C 3.9375 22.433594 0.871094 23.652344 0.640625 27.480469 L 0.601562 28.160156 L 19.738281 28.160156 C 20.730469 30.414062 22.988281 32 25.601562 32 C 29.121094 32 32 29.121094 32 25.601562 C 32 22.394531 29.613281 19.71875 26.527344 19.269531 C 26.527344 19.269531 26.507812 19.265625 26.503906 19.257812 C 25.476562 18.804688 24.027344 17.699219 23.761719 17.199219 C 23.679688 16.640625 23.6875 15.277344 23.6875 15.277344 C 24.21875 14.789062 24.933594 13.792969 25.183594 12.773438 C 25.601562 12.550781 26.074219 12.019531 26.222656 10.765625 C 26.296875 10.132812 26.117188 9.640625 25.863281 9.3125 C 26.183594 7.890625 26.625 5.171875 25.535156 3.570312 C 25.089844 2.914062 24.4375 2.503906 23.605469 2.328125 C 23.054688 1.652344 22.023438 1.28125 20.660156 1.28125 C 19.648438 1.28125 18.796875 1.453125 18.066406 1.804688 C 18.617188 2.136719 19.089844 2.585938 19.460938 3.128906 C 20.574219 4.75 20.800781 7.128906 20.140625 10.386719 C 20.4375 10.976562 20.550781 11.65625 20.46875 12.371094 C 20.289062 13.855469 19.738281 14.703125 19.175781 15.179688 C 18.90625 16.140625 18.4375 17.121094 17.921875 17.8125 C 17.921875 18.277344 17.917969 18.6875 17.945312 19.148438 C 18.289062 19.519531 19.4375 19.96875 20.296875 20.308594 C 20.648438 20.441406 21.425781 20.761719 21.425781 20.761719 C 21.078125 21.058594 20.765625 21.394531 20.492188 21.761719 C 20.269531 21.671875 20.050781 21.582031 19.832031 21.496094 C 18.355469 20.921875 17.105469 20.476562 16.71875 19.601562 C 16.640625 18.878906 16.644531 17.335938 16.644531 17.335938 C 17.222656 16.75 17.824219 15.496094 18.042969 14.40625 C 18.496094 14.175781 19.027344 13.605469 19.195312 12.21875 C 19.277344 11.511719 19.066406 10.976562 18.785156 10.628906 C 19.117188 9.132812 19.742188 5.804688 18.40625 3.851562 C 18.035156 3.308594 17.507812 2.886719 16.894531 2.644531 C 16.671875 2.5625 16.449219 2.496094 16.21875 2.4375 C 15.621094 1.691406 14.484375 1.28125 12.960938 1.28125 M 25.601562 20.480469 C 28.414062 20.480469 30.71875 22.785156 30.71875 25.601562 C 30.71875 28.414062 28.414062 30.71875 25.601562 30.71875 C 22.785156 30.71875 20.480469 28.414062 20.480469 25.601562 C 20.480469 22.785156 22.785156 20.480469 25.601562 20.480469 M 22.398438 24.960938 C 22.226562 24.953125 22.0625 25.015625 21.9375 25.136719 C 21.878906 25.191406 21.835938 25.257812 21.804688 25.335938 C 21.777344 25.421875 21.761719 25.511719 21.761719 25.601562 C 21.761719 25.792969 21.824219 25.953125 21.9375 26.0625 C 21.992188 26.121094 22.0625 26.164062 22.136719 26.195312 C 22.222656 26.222656 22.308594 26.238281 22.398438 26.238281 L 28.800781 26.238281 C 29.183594 26.238281 29.441406 25.984375 29.441406 25.601562 C 29.441406 25.214844 29.183594 24.960938 28.863281 24.960938 Z M 22.398438 24.960938 "/>
</g>
</svg>
