<?xml version="1.0" encoding="UTF-8"?>
<svg xmlns="http://www.w3.org/2000/svg" xmlns:xlink="http://www.w3.org/1999/xlink" width="32" height="32" viewBox="0 0 32 32" version="1.1">
<g id="surface1">
<path style=" stroke:none;fill-rule:evenodd;fill:rgb(54.901963%,19.215687%,13.725491%);fill-opacity:1;" d="M 16 2.304688 L 31.054688 4.46875 L 31.054688 5.746094 C 31.054688 7.640625 24.3125 9.167969 15.996094 9.167969 C 7.675781 9.167969 0.941406 7.640625 0.941406 5.746094 L 0.941406 4.359375 Z M 16 11.503906 C 22.289062 11.503906 27.671875 10.632812 29.929688 9.390625 L 30.667969 8.179688 L 30.96875 7.082031 L 30.96875 8.445312 L 26.042969 28.777344 C 26.042969 30.042969 21.550781 31.058594 16.003906 31.058594 C 10.460938 31.058594 5.972656 30.042969 5.972656 28.777344 L 1.050781 8.445312 L 1.050781 7.109375 L 2.183594 9.433594 C 4.441406 10.652344 9.78125 11.503906 16 11.503906 M 16 11.503906 "/>
<path style=" stroke:none;fill-rule:evenodd;fill:rgb(87.843138%,32.156864%,26.274511%);fill-opacity:1;" d="M 16 0.941406 C 24.320312 0.941406 31.058594 2.472656 31.058594 4.359375 C 31.058594 6.246094 24.3125 7.765625 16 7.765625 C 7.6875 7.765625 0.945312 6.253906 0.945312 4.359375 C 0.945312 2.464844 7.679688 0.941406 16 0.941406 M 16 10.140625 C 23.753906 10.140625 30.132812 8.816406 30.960938 7.101562 L 26.039062 27.4375 C 26.039062 28.703125 21.542969 29.71875 16 29.71875 C 10.457031 29.71875 5.964844 28.707031 5.964844 27.441406 L 1.039062 7.109375 C 1.871094 8.816406 8.253906 10.140625 16 10.140625 M 16 10.140625 "/>
<path style=" stroke:none;fill-rule:evenodd;fill:rgb(100%,100%,100%);fill-opacity:1;" d="M 12.457031 12.085938 L 18.976562 12.085938 L 18.976562 18.351562 L 12.457031 18.351562 Z M 7.265625 23.648438 C 7.265625 21.9375 8.695312 20.5625 10.480469 20.5625 C 12.265625 20.5625 13.695312 21.9375 13.695312 23.648438 C 13.695312 25.359375 12.265625 26.738281 10.480469 26.738281 C 8.695312 26.738281 7.265625 25.359375 7.265625 23.648438 M 24 26.597656 L 17.5625 26.597656 L 20.78125 20.835938 L 24.003906 26.597656 Z M 24 26.597656 "/>
</g>
</svg>
