<svg role="img" viewBox="0 0 32 32" xmlns="http://www.w3.org/2000/svg"><path d="m16 2.305 15.055 2.164v1.277c0 1.895-6.742 3.422-15.059 3.422C7.676 9.168.941 7.641.941 5.746V4.36Zm0 9.199c6.29 0 11.672-.871 13.93-2.113l.738-1.211.3-1.098v1.363l-4.925 20.332c0 1.266-4.492 2.282-10.04 2.282-5.542 0-10.03-1.016-10.03-2.282L1.05 8.445V7.11l1.133 2.325C4.44 10.652 9.78 11.504 16 11.504m0 0" style="stroke:none;fill-rule:evenodd;fill:rgb(54.901963%,19.215687%,13.725491%);fill-opacity:1"/><path d="M16 .941c8.32 0 15.059 1.532 15.059 3.418 0 1.887-6.747 3.407-15.059 3.407S.945 6.254.945 4.359C.945 2.465 7.68.941 16 .941m0 9.2c7.754 0 14.133-1.325 14.96-3.04l-4.92 20.337c0 1.265-4.497 2.28-10.04 2.28-5.543 0-10.035-1.011-10.035-2.277L1.039 7.11C1.871 8.816 8.254 10.141 16 10.141m0 0" style="stroke:none;fill-rule:evenodd;fill:rgb(87.843138%,32.156864%,26.274511%);fill-opacity:1"/><path d="M12.457 12.086h6.52v6.266h-6.52ZM7.266 23.648c0-1.71 1.43-3.085 3.214-3.085 1.786 0 3.215 1.375 3.215 3.085 0 1.711-1.43 3.09-3.215 3.09s-3.214-1.379-3.214-3.09M24 26.598h-6.437l3.218-5.762 3.223 5.762Zm0 0" style="stroke:none;fill-rule:evenodd;fill:rgb(100%,100%,100%);fill-opacity:1"/></svg>