<?xml version="1.0" encoding="UTF-8"?>
<svg xmlns="http://www.w3.org/2000/svg" xmlns:xlink="http://www.w3.org/1999/xlink" width="32" height="32" viewBox="0 0 32 32" version="1.1">
<g id="surface1">
<path style=" stroke:none;fill-rule:nonzero;fill:rgb(0%,0%,0%);fill-opacity:1;" d="M 31.378906 0.621094 L 30.699219 0.640625 C 30.503906 0.640625 25.921875 0.738281 21.460938 2.960938 C 19.890625 3.738281 18.460938 4.765625 17.21875 6 C 13.558594 9.660156 6.382812 18.773438 6.078125 19.160156 L 6 19.238281 L 5.960938 19.359375 C 5.859375 19.695312 5.71875 20.996094 8.359375 23.640625 C 10.378906 25.660156 11.632812 26.078125 12.320312 26.078125 C 12.476562 26.078125 12.578125 26.058594 12.640625 26.039062 L 12.761719 26 L 12.859375 25.921875 C 13.25 25.613281 22.445312 18.335938 26 14.78125 C 27.230469 13.539062 28.25 12.105469 29.019531 10.539062 C 31.230469 6.085938 31.355469 1.496094 31.359375 1.300781 Z M 21.761719 7.679688 C 23.175781 7.679688 24.320312 8.824219 24.320312 10.238281 C 24.320312 10.917969 24.050781 11.570312 23.574219 12.050781 C 23.09375 12.53125 22.441406 12.800781 21.761719 12.800781 C 21.082031 12.800781 20.429688 12.53125 19.949219 12.050781 C 19.46875 11.570312 19.199219 10.917969 19.199219 10.238281 C 19.199219 9.558594 19.46875 8.90625 19.949219 8.425781 C 20.429688 7.949219 21.082031 7.679688 21.761719 7.679688 M 5.761719 12.800781 C 5.570312 12.796875 5.386719 12.875 5.261719 13.019531 L 2.058594 16.859375 C 1.925781 17.039062 1.886719 17.269531 1.960938 17.480469 C 2.019531 17.6875 2.1875 17.847656 2.398438 17.898438 L 4.921875 18.539062 L 5 18.460938 L 5.058594 18.359375 C 5.214844 18.164062 7.171875 15.675781 9.539062 12.800781 Z M 5.121094 21.5 L 4.578125 22.398438 C 4.21875 23.039062 4.816406 24.136719 6.339844 25.660156 C 7.585938 26.90625 8.515625 27.519531 9.179688 27.519531 C 9.328125 27.523438 9.472656 27.492188 9.601562 27.421875 L 10.5 26.878906 C 9.578125 26.425781 8.574219 25.65625 7.460938 24.539062 C 6.261719 23.339844 5.535156 22.339844 5.121094 21.5 M 19.199219 22.441406 C 16.328125 24.808594 13.839844 26.78125 13.640625 26.941406 L 13.558594 27 L 13.460938 27.078125 L 14.101562 29.601562 C 14.152344 29.8125 14.3125 29.980469 14.519531 30.039062 C 14.722656 30.117188 14.953125 30.078125 15.121094 29.941406 L 18.960938 26.738281 C 19.109375 26.613281 19.195312 26.429688 19.199219 26.238281 Z M 4.101562 24.460938 C 3.054688 25.261719 2.109375 25.363281 1.261719 26.199219 C 0.835938 26.617188 0.496094 27.210938 0.300781 28.019531 C 0.101562 28.828125 0.0195312 29.875 0.0195312 31.339844 L 0.0195312 31.980469 L 0.660156 31.980469 C 3.601562 31.980469 5.039062 31.515625 5.898438 30.640625 C 6.761719 29.765625 6.90625 28.789062 7.558594 27.898438 L 6.519531 27.140625 C 5.691406 28.269531 5.503906 29.207031 4.980469 29.738281 C 4.515625 30.210938 3.488281 30.554688 1.359375 30.640625 C 1.390625 29.710938 1.4375 28.816406 1.558594 28.320312 C 1.71875 27.671875 1.914062 27.359375 2.160156 27.121094 C 2.648438 26.640625 3.601562 26.425781 4.859375 25.460938 Z M 4.101562 24.460938 "/>
</g>
</svg>
