<svg role="img" viewBox="0 0 32 32" xmlns="http://www.w3.org/2000/svg"><path d="m31.379.621-.68.02c-.195 0-4.777.097-9.238 2.32A16.232 16.232 0 0 0 17.219 6c-3.66 3.66-10.836 12.773-11.14 13.16L6 19.238l-.04.121c-.1.336-.241 1.637 2.4 4.282 2.019 2.02 3.273 2.437 3.96 2.437.157 0 .258-.02.32-.039l.122-.039.097-.078c.391-.309 9.586-7.586 13.141-11.14a16.17 16.17 0 0 0 3.02-4.243c2.21-4.453 2.335-9.043 2.34-9.238ZM21.762 7.68a2.557 2.557 0 0 1 2.558 2.558 2.558 2.558 0 0 1-2.558 2.563 2.559 2.559 0 0 1-2.563-2.563 2.558 2.558 0 0 1 2.563-2.558m-16 5.12a.648.648 0 0 0-.5.22l-3.203 3.84a.665.665 0 0 0-.098.62.6.6 0 0 0 .437.418l2.524.641.078-.078.059-.102c.156-.195 2.113-2.683 4.48-5.558Zm-.64 8.7-.544.898c-.36.641.238 1.739 1.762 3.262 1.246 1.246 2.176 1.86 2.84 1.86a.834.834 0 0 0 .422-.098l.898-.543c-.922-.453-1.926-1.223-3.04-2.34-1.198-1.2-1.925-2.2-2.339-3.039m14.077.941c-2.87 2.368-5.36 4.34-5.558 4.5l-.082.059-.098.078.64 2.524a.6.6 0 0 0 .419.437.606.606 0 0 0 .602-.098l3.839-3.203a.666.666 0 0 0 .238-.5Zm-15.097 2.02c-1.047.8-1.993.902-2.84 1.738-.426.418-.766 1.012-.961 1.82-.2.81-.281 1.856-.281 3.32v.641h.64c2.942 0 4.38-.464 5.238-1.34.864-.874 1.008-1.85 1.66-2.742l-1.038-.757c-.829 1.129-1.016 2.066-1.54 2.597-.464.473-1.492.817-3.62.903.03-.93.077-1.825.199-2.32.16-.65.355-.962.601-1.2.488-.48 1.442-.695 2.7-1.66Zm0 0" style="stroke:none;fill-rule:nonzero;fill:rgb(0%,0%,0%);fill-opacity:1"/></svg>