<?xml version="1.0" encoding="utf-8"?>
<svg xmlns="http://www.w3.org/2000/svg" viewBox="0 0 50 50" fill="#000000"><path d="M 49.03125 0.96875 L 47.96875 1 C 47.664063 1.003906 40.5 1.15625 33.53125 4.625 C 31.011719 5.882813 28.785156 7.496094 26.90625 9.375 C 21.1875 15.09375 9.972656 29.332031 9.5 29.9375 L 9.375 30.0625 L 9.3125 30.25 C 9.152344 30.773438 8.9375 32.808594 13.0625 36.9375 C 16.21875 40.09375 18.175781 40.75 19.25 40.75 C 19.492188 40.75 19.652344 40.71875 19.75 40.6875 L 19.9375 40.625 L 20.09375 40.5 C 20.703125 40.019531 35.070313 28.648438 40.625 23.09375 C 42.496094 21.21875 44.089844 18.988281 45.34375 16.46875 C 48.796875 9.511719 48.992188 2.335938 49 2.03125 Z M 34 12 C 36.210938 12 38 13.789063 38 16 C 38 18.210938 36.210938 20 34 20 C 31.789063 20 30 18.210938 30 16 C 30 13.789063 31.789063 12 34 12 Z M 9 20 C 8.703125 20 8.410156 20.117188 8.21875 20.34375 L 3.21875 26.34375 C 3 26.609375 2.957031 26.984375 3.0625 27.3125 C 3.167969 27.640625 3.414063 27.886719 3.75 27.96875 L 7.6875 28.96875 L 7.8125 28.84375 L 7.90625 28.6875 C 8.148438 28.378906 11.203125 24.496094 14.90625 20 Z M 8 33.59375 L 7.15625 35 C 6.589844 36 7.523438 37.710938 9.90625 40.09375 C 11.851563 42.039063 13.304688 43 14.34375 43 C 14.65625 43 14.859375 42.925781 15 42.84375 L 16.40625 42 C 14.96875 41.292969 13.398438 40.085938 11.65625 38.34375 C 9.785156 36.46875 8.648438 34.90625 8 33.59375 Z M 30 35.0625 C 25.515625 38.761719 21.625 41.847656 21.3125 42.09375 L 21.1875 42.1875 L 21.03125 42.3125 L 22.03125 46.25 C 22.113281 46.585938 22.359375 46.832031 22.6875 46.9375 C 22.789063 46.96875 22.894531 47 23 47 C 23.230469 47 23.441406 46.933594 23.625 46.78125 L 29.625 41.78125 C 29.851563 41.589844 30 41.296875 30 41 Z M 6.40625 38.21875 C 4.773438 39.472656 3.296875 39.632813 1.96875 40.9375 C 1.304688 41.589844 0.777344 42.515625 0.46875 43.78125 C 0.160156 45.046875 0.03125 46.679688 0.03125 48.96875 L 0.03125 49.96875 L 1.03125 49.96875 C 5.625 49.96875 7.871094 49.242188 9.21875 47.875 C 10.566406 46.507813 10.789063 44.984375 11.8125 43.59375 L 10.1875 42.40625 C 8.890625 44.171875 8.601563 45.636719 7.78125 46.46875 C 7.058594 47.203125 5.449219 47.742188 2.125 47.875 C 2.175781 46.421875 2.246094 45.027344 2.4375 44.25 C 2.6875 43.238281 2.992188 42.75 3.375 42.375 C 4.136719 41.625 5.628906 41.289063 7.59375 39.78125 Z" fill="#000000"/></svg>
