<svg role="img" viewBox="0 0 32 32" xmlns="http://www.w3.org/2000/svg" xmlns:xlink="http://www.w3.org/1999/xlink"><defs><linearGradient gradientTransform="matrix(25.47656 0 0 25.46094 6.523 6.45)" gradientUnits="userSpaceOnUse" id="a" x1=".848" x2=".583" y1="1.114" y2=".646"><stop offset="0" style="stop-color:rgb(98.431373%,46.27451%,33.333334%);stop-opacity:1"/><stop offset="0" style="stop-color:rgb(98.431373%,46.27451%,33.333334%);stop-opacity:1"/><stop offset=".41" style="stop-color:rgb(89.411765%,16.862746%,11.764706%);stop-opacity:1"/><stop offset=".99" style="stop-color:rgb(60.000002%,0%,0%);stop-opacity:1"/></linearGradient><linearGradient gradientTransform="matrix(7.57031 0 0 14.03125 22.645 16.258)" gradientUnits="userSpaceOnUse" id="b" x1="1.167" x2=".018" y1=".609" y2=".193"><stop offset="0" style="stop-color:rgb(52.941179%,6.666667%,0.392157%);stop-opacity:1"/><stop offset="0" style="stop-color:rgb(52.941179%,6.666667%,0.392157%);stop-opacity:1"/><stop offset=".99" style="stop-color:rgb(56.862748%,7.058824%,3.529412%);stop-opacity:1"/></linearGradient><linearGradient gradientTransform="matrix(23.64453 0 0 2.76172 6.602 29.121)" gradientUnits="userSpaceOnUse" id="c" x1=".758" x2=".39" y1="2.193" y2=".078"><stop offset="0" style="stop-color:rgb(52.941179%,6.666667%,0.392157%);stop-opacity:1"/><stop offset="0" style="stop-color:rgb(52.941179%,6.666667%,0.392157%);stop-opacity:1"/><stop offset=".99" style="stop-color:rgb(56.862748%,7.058824%,3.529412%);stop-opacity:1"/></linearGradient><linearGradient gradientTransform="matrix(8.1875 0 0 12.1914 2.156 19.691)" gradientUnits="userSpaceOnUse" id="d" x1=".5" x2=".665" y1=".072" y2=".791"><stop offset="0" style="stop-color:rgb(100%,100%,100%);stop-opacity:1"/><stop offset="0" style="stop-color:rgb(100%,100%,100%);stop-opacity:1"/><stop offset=".23" style="stop-color:rgb(89.803922%,44.705883%,32.156864%);stop-opacity:1"/><stop offset=".46" style="stop-color:rgb(87.058824%,23.137255%,12.54902%);stop-opacity:1"/><stop offset=".99" style="stop-color:rgb(65.098041%,0%,1.176471%);stop-opacity:1"/></linearGradient><linearGradient gradientTransform="matrix(13.22266 0 0 13.41016 9.422 10.2)" gradientUnits="userSpaceOnUse" id="e" x1=".462" x2=".499" y1=".164" y2=".831"><stop offset="0" style="stop-color:rgb(100%,100%,100%);stop-opacity:1"/><stop offset="0" style="stop-color:rgb(100%,100%,100%);stop-opacity:1"/><stop offset=".23" style="stop-color:rgb(89.411765%,44.313726%,30.588236%);stop-opacity:1"/><stop offset=".56" style="stop-color:rgb(74.509805%,10.196079%,5.098039%);stop-opacity:1"/><stop offset=".99" style="stop-color:rgb(65.882355%,5.098039%,0%);stop-opacity:1"/></linearGradient><linearGradient gradientTransform="matrix(11.83984 0 0 8.33984 19.383 2.82)" gradientUnits="userSpaceOnUse" id="f" x1=".37" x2=".495" y1=".156" y2=".925"><stop offset="0" style="stop-color:rgb(100%,100%,100%);stop-opacity:1"/><stop offset="0" style="stop-color:rgb(100%,100%,100%);stop-opacity:1"/><stop offset=".18" style="stop-color:rgb(89.411765%,38.82353%,25.882354%);stop-opacity:1"/><stop offset=".4" style="stop-color:rgb(78.431374%,14.117648%,6.27451%);stop-opacity:1"/><stop offset=".99" style="stop-color:rgb(65.882355%,5.098039%,0%);stop-opacity:1"/></linearGradient><linearGradient gradientTransform="matrix(8.88281 0 0 3.04688 18.008 .086)" gradientUnits="userSpaceOnUse" id="g" x1=".136" x2=".858" y1=".584" y2="-.467"><stop offset="0" style="stop-color:rgb(100%,100%,100%);stop-opacity:1"/><stop offset="0" style="stop-color:rgb(100%,100%,100%);stop-opacity:1"/><stop offset=".54" style="stop-color:rgb(78.431374%,12.156863%,6.666667%);stop-opacity:1"/><stop offset=".99" style="stop-color:rgb(74.901962%,3.529412%,1.960784%);stop-opacity:1"/></linearGradient><linearGradient gradientTransform="matrix(2.28125 0 0 9.1211 0 16.414)" gradientUnits="userSpaceOnUse" id="h" x1=".276" x2=".507" y1=".211" y2=".79"><stop offset="0" style="stop-color:rgb(100%,100%,100%);stop-opacity:1"/><stop offset="0" style="stop-color:rgb(100%,100%,100%);stop-opacity:1"/><stop offset=".31" style="stop-color:rgb(87.058824%,25.098041%,14.117648%);stop-opacity:1"/><stop offset=".99" style="stop-color:rgb(74.901962%,9.803922%,4.313726%);stop-opacity:1"/></linearGradient><linearGradient gradientTransform="matrix(19.85547 0 0 19.82813 1.11 .805)" gradientUnits="userSpaceOnUse" id="i" x1="-.207" x2="1.042" y1="1.223" y2="-.063"><stop offset="0" style="stop-color:rgb(74.117649%,0%,7.058824%);stop-opacity:1"/><stop offset="0" style="stop-color:rgb(74.117649%,0%,7.058824%);stop-opacity:1"/><stop offset=".07" style="stop-color:rgb(100%,100%,100%);stop-opacity:1"/><stop offset=".17" style="stop-color:rgb(100%,100%,100%);stop-opacity:1"/><stop offset=".27" style="stop-color:rgb(78.431374%,18.431373%,10.980392%);stop-opacity:1"/><stop offset=".33" style="stop-color:rgb(50.980395%,4.705882%,0.392157%);stop-opacity:1"/><stop offset=".46" style="stop-color:rgb(63.921571%,8.627451%,0.392157%);stop-opacity:1"/><stop offset=".72" style="stop-color:rgb(70.19608%,7.450981%,0.392157%);stop-opacity:1"/><stop offset=".99" style="stop-color:rgb(90.980393%,14.901961%,3.529412%);stop-opacity:1"/></linearGradient><linearGradient gradientTransform="matrix(15.95313 0 0 12.23047 6.621 19.648)" gradientUnits="userSpaceOnUse" id="j" x1=".588" x2=".12" y1=".652" y2=".501"><stop offset="0" style="stop-color:rgb(54.901963%,4.705882%,0.392157%);stop-opacity:1"/><stop offset="0" style="stop-color:rgb(54.901963%,4.705882%,0.392157%);stop-opacity:1"/><stop offset=".54" style="stop-color:rgb(60.000002%,4.705882%,0%);stop-opacity:1"/><stop offset=".99" style="stop-color:rgb(65.882355%,5.098039%,5.490196%);stop-opacity:1"/></linearGradient><linearGradient gradientTransform="matrix(11.80469 0 0 13.26172 19.473 10.336)" gradientUnits="userSpaceOnUse" id="k" x1=".793" x2=".231" y1=".627" y2=".179"><stop offset="0" style="stop-color:rgb(49.411765%,6.666667%,4.313726%);stop-opacity:1"/><stop offset="0" style="stop-color:rgb(49.411765%,6.666667%,4.313726%);stop-opacity:1"/><stop offset=".99" style="stop-color:rgb(61.960787%,4.705882%,0%);stop-opacity:1"/></linearGradient><linearGradient gradientTransform="matrix(10.00781 0 0 10.26953 21.977 .133)" gradientUnits="userSpaceOnUse" id="l" x1=".929" x2=".598" y1=".741" y2=".397"><stop offset="0" style="stop-color:rgb(47.450981%,7.450981%,5.098039%);stop-opacity:1"/><stop offset="0" style="stop-color:rgb(47.450981%,7.450981%,5.098039%);stop-opacity:1"/><stop offset=".99" style="stop-color:rgb(61.960787%,7.058824%,4.313726%);stop-opacity:1"/></linearGradient><linearGradient gradientTransform="matrix(5.03906 0 0 10.1914 1.457 21.508)" gradientUnits="userSpaceOnUse" id="o" x1=".566" x2=".031" y1="1.017" y2=".12"><stop offset="0" style="stop-color:rgb(54.509807%,12.941177%,7.843138%);stop-opacity:1"/><stop offset="0" style="stop-color:rgb(54.509807%,12.941177%,7.843138%);stop-opacity:1"/><stop offset=".43" style="stop-color:rgb(61.960787%,6.27451%,3.921569%);stop-opacity:1"/><stop offset=".99" style="stop-color:rgb(70.19608%,6.27451%,4.705882%);stop-opacity:1"/></linearGradient><linearGradient gradientTransform="matrix(9.80469 0 0 4.09766 21.95 .121)" gradientUnits="userSpaceOnUse" id="p" x1=".309" x2=".925" y1=".356" y2="1.007"><stop offset="0" style="stop-color:rgb(70.19608%,6.27451%,0%);stop-opacity:1"/><stop offset="0" style="stop-color:rgb(70.19608%,6.27451%,0%);stop-opacity:1"/><stop offset=".44" style="stop-color:rgb(56.862748%,5.882353%,3.137255%);stop-opacity:1"/><stop offset=".99" style="stop-color:rgb(47.450981%,10.980392%,7.058824%);stop-opacity:1"/></linearGradient><radialGradient cx=".32" cy=".4" fx=".32" fy=".4" gradientTransform="matrix(11.6914 0 0 6.10547 19.488 10.367)" gradientUnits="userSpaceOnUse" id="m" r=".91"><stop offset="0" style="stop-color:rgb(65.882355%,5.098039%,0%);stop-opacity:1"/><stop offset="0" style="stop-color:rgb(65.882355%,5.098039%,0%);stop-opacity:1"/><stop offset=".99" style="stop-color:rgb(49.411765%,5.490196%,3.137255%);stop-opacity:1"/></radialGradient><radialGradient cx=".14" cy=".41" fx=".14" fy=".41" gradientTransform="matrix(12.23438 0 0 9.52344 10.309 19.648)" gradientUnits="userSpaceOnUse" id="n" r=".99"><stop offset="0" style="stop-color:rgb(63.921571%,4.705882%,0%);stop-opacity:1"/><stop offset="0" style="stop-color:rgb(63.921571%,4.705882%,0%);stop-opacity:1"/><stop offset=".99" style="stop-color:rgb(50.196081%,5.490196%,3.137255%);stop-opacity:1"/></radialGradient></defs><path d="M24.793 21.063 6.523 31.91l23.657-1.605L32 6.449Zm0 0" style="stroke:none;fill-rule:evenodd;fill:url(#a)"/><path d="m28.184 16.258-5.54 7.312 7.57 6.72Zm0 0" style="stroke:none;fill-rule:evenodd;fill:url(#b)"/><path d="m15.348 29.121-8.746 2.762 23.644-1.59Zm0 0" style="stroke:none;fill-rule:evenodd;fill:url(#c)"/><path d="m10.344 19.691-8.188 1.754 4.465 10.438Zm0 0" style="stroke:none;fill-rule:evenodd;fill:url(#d)"/><path d="m19.219 10.2-9.797 9.183 13.223 4.226Zm0 0" style="stroke:none;fill-rule:evenodd;fill:url(#e)"/><path d="m21.96 2.82-2.577 8.34 11.84-.773Zm0 0" style="stroke:none;fill-rule:evenodd;fill:url(#f)"/><path d="M21.445 3.133 18.008.086l8.883.039Zm0 0" style="stroke:none;fill-rule:evenodd;fill:url(#g)"/><path d="M2.281 21.371.437 16.414 0 25.535Zm0 0" style="stroke:none;fill-rule:evenodd;fill:url(#h)"/><path d="m.313 16.258 1.859 5.265 8.07-1.808 9.215-8.563 2.598-8.257L17.96 0 11 2.605 4.395 8.758c-.149.078-2.81 5.105-4.086 7.5Zm0 0" style="stroke:none;fill-rule:evenodd;fill:rgb(100%,100%,100%);fill-opacity:1"/><path d="M6.836 6.793c4.754-4.715 10.879-7.5 13.23-5.125 2.352 2.371-.14 8.14-4.89 12.848-4.754 4.71-10.809 7.648-13.156 5.277-2.352-2.371.062-8.29 4.816-13m0 0" style="stroke:none;fill-rule:evenodd;fill:url(#i)"/><path d="m6.621 31.879 3.691-12.23 12.262 3.94c-4.433 4.157-9.363 7.673-15.953 8.29m0 0" style="stroke:none;fill-rule:evenodd;fill:url(#j)"/><path d="m19.473 11.129 3.148 12.469c3.707-3.895 7.027-8.082 8.656-13.262Zm0 0" style="stroke:none;fill-rule:evenodd;fill:url(#k)"/><path d="M31.242 10.402c1.262-3.804 1.551-9.254-4.39-10.27l-4.875 2.696Zm0 0" style="stroke:none;fill-rule:evenodd;fill:url(#l)"/><path d="M0 25.477c.176 6.277 4.7 6.37 6.629 6.425L2.176 21.496Zm0 0" style="stroke:none;fill-rule:evenodd;fill:rgb(61.960787%,7.058824%,3.529412%);fill-opacity:1"/><path d="m19.488 11.145 8.7 5.328c.18.101 2.468-3.864 2.992-6.106Zm0 0" style="stroke:none;fill-rule:evenodd;fill:url(#m)"/><path d="m10.309 19.648 4.937 9.524c2.918-1.582 5.203-3.512 7.297-5.578Zm0 0" style="stroke:none;fill-rule:evenodd;fill:url(#n)"/><path d="m2.156 21.512-.699 8.328c1.32 1.805 3.133 1.96 5.04 1.82-1.38-3.43-4.13-10.285-4.34-10.148m0 0" style="stroke:none;fill-rule:evenodd;fill:url(#o)"/><path d="m21.95 2.844 9.804 1.375C31.23 2.004 29.62.57 26.883.12Zm0 0" style="stroke:none;fill-rule:evenodd;fill:url(#p)"/></svg>