<svg xmlns="http://www.w3.org/2000/svg" width="32" height="32" stroke="#000" stroke-linecap="round" stroke-linejoin="round" fill="#fff" fill-rule="evenodd"><defs><linearGradient id="A" x1="84.75%" y1="111.40%" x2="58.25%" y2="64.58%"><stop offset="0%" stop-color="#fb7655"/><stop offset="0%" stop-color="#fb7655"/><stop offset="41%" stop-color="#e42b1e"/><stop offset="99%" stop-color="#900"/></linearGradient><linearGradient id="B" x1="116.67%" y1="60.91%" x2="1.77%" y2="19.31%"><stop offset="0%" stop-color="#871101"/><stop offset="0%" stop-color="#871101"/><stop offset="99%" stop-color="#911209"/></linearGradient><linearGradient id="C" x1="75.77%" y1="219.28%" x2="38.98%" y2="7.77%"><stop offset="0%" stop-color="#871101"/><stop offset="0%" stop-color="#871101"/><stop offset="99%" stop-color="#911209"/></linearGradient><linearGradient id="D" x1="50.01%" y1="7.25%" x2="66.48%" y2="79.15%"><stop offset="0%" stop-color="#fff"/><stop offset="0%" stop-color="#fff"/><stop offset="23%" stop-color="#e57252"/><stop offset="46%" stop-color="#de3b20"/><stop offset="99%" stop-color="#a60003"/></linearGradient><linearGradient id="E" x1="46.17%" y1="16.35%" x2="49.93%" y2="83.06%"><stop offset="0%" stop-color="#fff"/><stop offset="0%" stop-color="#fff"/><stop offset="23%" stop-color="#e4714e"/><stop offset="56%" stop-color="#be1a0d"/><stop offset="99%" stop-color="#a80d00"/></linearGradient><linearGradient id="F" x1="36.97%" y1="15.61%" x2="49.53%" y2="92.48%"><stop offset="0%" stop-color="#fff"/><stop offset="0%" stop-color="#fff"/><stop offset="18%" stop-color="#e46342"/><stop offset="40%" stop-color="#c82410"/><stop offset="99%" stop-color="#a80d00"/></linearGradient><linearGradient id="G" x1="13.59%" y1="58.35%" x2="85.76%" y2="-46.72%"><stop offset="0%" stop-color="#fff"/><stop offset="0%" stop-color="#fff"/><stop offset="54%" stop-color="#c81f11"/><stop offset="99%" stop-color="#bf0905"/></linearGradient><linearGradient id="H" x1="27.62%" y1="21.13%" x2="50.74%" y2="79.04%"><stop offset="0%" stop-color="#fff"/><stop offset="0%" stop-color="#fff"/><stop offset="31%" stop-color="#de4024"/><stop offset="99%" stop-color="#bf190b"/></linearGradient><linearGradient id="I" x1="-20.68%" y1="122.28%" x2="104.24%" y2="-6.34%"><stop offset="0%" stop-color="#bd0012"/><stop offset="0%" stop-color="#bd0012"/><stop offset="7%" stop-color="#fff"/><stop offset="17%" stop-color="#fff"/><stop offset="27%" stop-color="#c82f1c"/><stop offset="33%" stop-color="#820c01"/><stop offset="46%" stop-color="#a31601"/><stop offset="72%" stop-color="#b31301"/><stop offset="99%" stop-color="#e82609"/></linearGradient><linearGradient id="J" x1="58.79%" y1="65.20%" x2="11.96%" y2="50.13%"><stop offset="0%" stop-color="#8c0c01"/><stop offset="0%" stop-color="#8c0c01"/><stop offset="54%" stop-color="#990c00"/><stop offset="99%" stop-color="#a80d0e"/></linearGradient><linearGradient id="K" x1="79.31%" y1="62.75%" x2="23.09%" y2="17.89%"><stop offset="0%" stop-color="#7e110b"/><stop offset="0%" stop-color="#7e110b"/><stop offset="99%" stop-color="#9e0c00"/></linearGradient><linearGradient id="L" x1="92.88%" y1="74.11%" x2="59.84%" y2="39.69%"><stop offset="0%" stop-color="#79130d"/><stop offset="0%" stop-color="#79130d"/><stop offset="99%" stop-color="#9e120b"/></linearGradient><radialGradient id="M" cx="32%" cy="40%" r="91%" fx="32%" fy="40%"><stop offset="0%" stop-color="#a80d00"/><stop offset="0%" stop-color="#a80d00"/><stop offset="99%" stop-color="#7e0e08"/></radialGradient><radialGradient id="N" cx="14%" cy="41%" r="99%" fx="14%" fy="41%"><stop offset="0%" stop-color="#a30c00"/><stop offset="0%" stop-color="#a30c00"/><stop offset="99%" stop-color="#800e08"/></radialGradient><linearGradient id="O" x1="56.57%" y1="101.70%" x2="3.11%" y2="11.98%"><stop offset="0%" stop-color="#8b2114"/><stop offset="0%" stop-color="#8b2114"/><stop offset="43%" stop-color="#9e100a"/><stop offset="99%" stop-color="#b3100c"/></linearGradient><linearGradient id="P" x1="30.87%" y1="35.64%" x2="92.49%" y2="100.73%"><stop offset="0%" stop-color="#b31000"/><stop offset="0%" stop-color="#b31000"/><stop offset="44%" stop-color="#910f08"/><stop offset="99%" stop-color="#791c12"/></linearGradient></defs><g stroke="none"><path d="M24.7918 21.0609l-18.27 10.8503 23.6564-1.6054L32 6.4507z" fill="url(#A)"/><path d="M28.1835 16.256l-5.5398 7.3132 7.5716 6.7188z" fill="url(#B)"/><path d="M15.3483 29.1203l-8.7474 2.7618 23.6451-1.5909z" fill="url(#C)"/><path d="M10.3431 19.6929l-8.1886 1.7508 4.4674 10.4384z" fill="url(#D)"/><path d="M19.2197 10.1977l-9.7988 9.1835 13.2228 4.2267z" fill="url(#E)"/><path d="M21.9605 2.8216l-2.5793 8.3388 11.8419-.7752z" fill="url(#F)"/><path d="M21.4437 3.1333L18.0084.084l8.8831.0404z" fill="url(#G)"/><path d="M2.2821 21.371l-1.846-4.9583L0 25.5348z" fill="url(#H)"/><path d="M.3133 16.256l1.8574 5.2685 8.0707-1.809 9.2141-8.5632 2.6003-8.2597L17.9599 0l-6.961 2.6052-6.6026 6.1535c-.1518.0775-2.8103 5.1037-4.0862 7.4989z"/><path d="M6.8351 6.7915c4.7533-4.7129 10.881-7.4973 13.2325-5.1248s-.1421 8.1402-4.8937 12.8498-10.805 7.6491-13.155 5.2765.0646-8.2903 4.8178-13.0015z" fill="url(#I)"/><path d="M6.6219 31.879l3.6921-12.2296 12.2619 3.9409c-4.4335 4.1572-9.3644 7.6701-15.954 8.2887z" fill="url(#J)"/><path d="M19.4717 11.128l3.1495 12.4686c3.705-3.8924 7.0257-8.0804 8.6553-13.26l-11.8032.7914z" fill="url(#K)"/><path d="M31.2425 10.4013c1.2598-3.802 1.5505-9.2546-4.3898-10.2689l-4.8744 2.694 9.2642 7.5749z" fill="url(#L)"/><path d="M0 25.4783c.1744 6.2746 4.6999 6.3683 6.63 6.4232L2.1756 21.497 0 25.4783z" fill="#9e1209"/><path d="M19.4894 11.1443l8.6973 5.3298c.1809.1017 2.4711-3.865 2.9928-6.1051l-11.6901.7753z" fill="url(#M)"/><path d="M10.3092 19.6494l4.9358 9.5227c2.9185-1.5828 5.2038-3.5113 7.297-5.577l-12.2328-3.9457z" fill="url(#N)"/><path d="M2.1561 21.5132l-.6993 8.3275c1.3195 1.8024 3.1333 1.9591 5.0391 1.8186-1.3776-3.4289-4.1298-10.285-4.3398-10.1461z" fill="url(#O)"/><path d="M21.9492 2.8425l9.8037 1.3761c-.5233-2.2159-2.132-3.6501-4.8696-4.0959l-4.9341 2.7198z" fill="url(#P)"/></g></svg>