<?xml version="1.0" encoding="UTF-8"?>
<svg xmlns="http://www.w3.org/2000/svg" xmlns:xlink="http://www.w3.org/1999/xlink" width="32" height="32" viewBox="0 0 32 32" version="1.1">
<g id="surface1">
<path style=" stroke:none;fill-rule:nonzero;fill:rgb(100%,56.078434%,0%);fill-opacity:1;" d="M 28 7.332031 L 31.792969 6 L 28 4.667969 L 24.207031 6 Z M 28.667969 8.445312 L 28.667969 12.667969 L 32 11.554688 L 32 7.332031 Z M 27.332031 8.445312 L 24 7.332031 L 24 11.554688 L 27.332031 12.667969 Z M 18.667969 7.332031 L 22.460938 6 L 18.667969 4.667969 L 14.871094 6 Z M 19.332031 8.445312 L 19.332031 12.667969 L 22.667969 11.554688 L 22.667969 7.332031 Z M 18 8.445312 L 14.667969 7.332031 L 14.667969 11.554688 L 18 12.667969 Z M 14 15.332031 L 17.792969 14 L 14 12.667969 L 10.207031 14 Z M 14.667969 16.445312 L 14.667969 20.667969 L 18 19.554688 L 18 15.332031 Z M 13.332031 16.445312 L 10 15.332031 L 10 19.554688 L 13.332031 20.667969 Z M 4.667969 15.332031 L 8.460938 14 L 4.667969 12.667969 L 0.871094 14 Z M 5.332031 16.445312 L 5.332031 20.667969 L 8.667969 19.554688 L 8.667969 15.332031 Z M 4 16.445312 L 0.667969 15.332031 L 0.667969 19.554688 L 4 20.667969 Z M 9.332031 23.332031 L 13.128906 22 L 9.332031 20.667969 L 5.539062 22 Z M 10 24.445312 L 10 28.667969 L 13.332031 27.554688 L 13.332031 23.332031 Z M 8.667969 24.445312 L 5.332031 23.332031 L 5.332031 27.554688 L 8.667969 28.667969 Z M 8.667969 24.445312 "/>
</g>
</svg>
