<?xml version="1.0"?><svg xmlns="http://www.w3.org/2000/svg"  viewBox="0 0 50 50" width="32px" height="32px">    <path d="M 8 4 C 6.3 4 5 5.3 5 7 L 5 43 C 5 44.7 6.3 46 8 46 L 44 46 C 45.7 46 47 44.7 47 43 L 47 13.199219 C 47 12.899219 46.899219 12.7 46.699219 12.5 L 38.5 4.3007812 C 38.3 4.1007812 38.100781 4 37.800781 4 L 8 4 z M 13 6 L 37 6 L 37 18 C 37 19.1 36.1 20 35 20 L 15 20 C 13.9 20 13 19.1 13 18 L 13 6 z M 29 9 L 29 17 L 33 17 L 33 9 L 29 9 z M 15 27 L 37 27 C 38.1 27 39 27.9 39 29 L 39 44 L 13 44 L 13 29 C 13 27.9 13.9 27 15 27 z M 8 41 L 10 41 L 10 43 L 8 43 L 8 41 z M 42 41 L 44 41 L 44 43 L 42 43 L 42 41 z"/></svg>