<?xml version="1.0" encoding="UTF-8"?>
<svg xmlns="http://www.w3.org/2000/svg" xmlns:xlink="http://www.w3.org/1999/xlink" width="32" height="32" viewBox="0 0 32 32" version="1.1">
<g id="surface1">
<path style=" stroke:none;fill-rule:nonzero;fill:rgb(0%,0%,0%);fill-opacity:1;" d="M 5.121094 2.558594 C 4.03125 2.558594 3.199219 3.390625 3.199219 4.480469 L 3.199219 27.519531 C 3.199219 28.609375 4.03125 29.441406 5.121094 29.441406 L 28.160156 29.441406 C 29.246094 29.441406 30.078125 28.609375 30.078125 27.519531 L 30.078125 8.449219 C 30.078125 8.257812 30.015625 8.128906 29.886719 8 L 24.640625 2.753906 C 24.511719 2.625 24.382812 2.558594 24.191406 2.558594 Z M 8.320312 3.839844 L 23.679688 3.839844 L 23.679688 11.519531 C 23.679688 12.222656 23.105469 12.800781 22.398438 12.800781 L 9.601562 12.800781 C 8.894531 12.800781 8.320312 12.222656 8.320312 11.519531 Z M 18.558594 5.761719 L 18.558594 10.878906 L 21.121094 10.878906 L 21.121094 5.761719 Z M 9.601562 17.28125 L 23.679688 17.28125 C 24.382812 17.28125 24.960938 17.855469 24.960938 18.558594 L 24.960938 28.160156 L 8.320312 28.160156 L 8.320312 18.558594 C 8.320312 17.855469 8.894531 17.28125 9.601562 17.28125 M 5.121094 26.238281 L 6.398438 26.238281 L 6.398438 27.519531 L 5.121094 27.519531 Z M 26.878906 26.238281 L 28.160156 26.238281 L 28.160156 27.519531 L 26.878906 27.519531 Z M 26.878906 26.238281 "/>
</g>
</svg>
