<?xml version="1.0" encoding="utf-8"?>
<!-- Generator: Adobe Illustrator 25.4.1, SVG Export Plug-In . SVG Version: 6.00 Build 0)  -->
<svg version="1.1" id="Layer_1" xmlns="http://www.w3.org/2000/svg" xmlns:xlink="http://www.w3.org/1999/xlink" x="0px" y="0px"
	 viewBox="0 0 200 200" style="enable-background:new 0 0 200 200;" xml:space="preserve">
<style type="text/css">
	.st0{fill:#404041;}
</style>
<g>
	<polygon class="st0" points="105,131.43 105,94.59 124.3,94.59 100,70.3 75.7,94.59 95,94.59 95,131.43 	"/>
	<path class="st0" d="M120.71,0H79.29C74.16,0,70,4.16,70,9.29v41.43c0,5.13,4.16,9.29,9.29,9.29h41.43c5.13,0,9.29-4.16,9.29-9.29
		V9.29C130,4.16,125.84,0,120.71,0z"/>
	<path class="st0" d="M190.71,140h-41.43c-5.13,0-9.29,4.16-9.29,9.29v41.43c0,5.13,4.16,9.29,9.29,9.29h41.43
		c5.13,0,9.29-4.16,9.29-9.29v-41.43C200,144.16,195.84,140,190.71,140z"/>
	<path class="st0" d="M120.71,140H79.29c-5.13,0-9.29,4.16-9.29,9.29v41.43c0,5.13,4.16,9.29,9.29,9.29h41.43
		c5.13,0,9.29-4.16,9.29-9.29v-41.43C130,144.16,125.84,140,120.71,140z"/>
	<path class="st0" d="M50.71,140H9.29C4.16,140,0,144.16,0,149.29v41.43c0,5.13,4.16,9.29,9.29,9.29h41.43
		c5.13,0,9.29-4.16,9.29-9.29v-41.43C60,144.16,55.84,140,50.71,140z"/>
</g>
</svg>
