<?xml version="1.0" encoding="utf-8"?>
<!-- Generator: Adobe Illustrator 25.4.1, SVG Export Plug-In . SVG Version: 6.00 Build 0)  -->
<svg version="1.1" id="Layer_1" xmlns="http://www.w3.org/2000/svg" xmlns:xlink="http://www.w3.org/1999/xlink" x="0px" y="0px"
	 viewBox="0 0 200 200" style="enable-background:new 0 0 200 200;" xml:space="preserve">
<style type="text/css">
	.st0{fill:#404041;}
</style>
<g>
	<path class="st0" d="M167.02,0H35.97C17.78,0,2.99,14.79,2.99,32.97v52.16c1.14-0.74,2.35-1.38,3.6-1.92
		c1.16-0.52,2.37-0.94,3.6-1.27c2.17-0.6,4.45-0.91,6.81-0.91H92.9c5.36,0,10.35,1.63,14.49,4.42l39.76-39.76L133.76,32.3h33.74
		v33.74l-13.4-13.4l-39.72,39.72c2.89,4.19,4.59,9.28,4.59,14.75v75.89c0,2.36-0.31,4.63-0.91,6.81c-0.32,1.24-0.75,2.45-1.27,3.6
		c-0.54,1.26-1.19,2.46-1.92,3.6h52.17c18.19,0,32.98-14.8,32.98-32.97V32.97C200,14.79,185.21,0,167.02,0z"/>
	<path class="st0" d="M92.9,90.1H17.01c-2.42,0-4.72,0.51-6.81,1.42c-1.3,0.56-2.5,1.29-3.6,2.14c-1.39,1.07-2.61,2.37-3.6,3.81
		C1.1,100.21,0,103.53,0,107.1v75.89C0,192.38,7.62,200,17.01,200H92.9c3.57,0,6.89-1.1,9.63-3c1.44-0.99,2.74-2.21,3.81-3.6
		c0.85-1.1,1.58-2.31,2.14-3.6c0.91-2.08,1.42-4.39,1.42-6.81V107.1C109.9,97.71,102.29,90.1,92.9,90.1z"/>
</g>
</svg>
