<svg role="img" viewBox="0 0 32 32" xmlns="http://www.w3.org/2000/svg"><path d="M26.723 0H5.753A5.282 5.282 0 0 0 .478 5.273v8.348a4.105 4.105 0 0 1 1.152-.512 4.191 4.191 0 0 1 1.09-.144h12.144c.86 0 1.657.262 2.32.707l6.36-6.363-2.14-2.141H26.8v5.398l-2.145-2.144-6.355 6.355a4.16 4.16 0 0 1 .734 2.36V29.28a4.2 4.2 0 0 1-.144 1.09c-.051.195-.121.39-.203.574a3.9 3.9 0 0 1-.31.578h8.349a5.286 5.286 0 0 0 5.277-5.277V5.273A5.288 5.288 0 0 0 26.723 0m-11.86 14.414H2.723c-.387 0-.758.082-1.09.23a2.676 2.676 0 0 0-1.153.95c-.304.441-.48.972-.48 1.543v12.14A2.722 2.722 0 0 0 2.723 32h12.14a2.71 2.71 0 0 0 1.543-.48 2.657 2.657 0 0 0 .95-1.153c.148-.332.23-.703.23-1.09v-12.14a2.722 2.722 0 0 0-2.723-2.723m0 0" style="stroke:none;fill-rule:nonzero;fill:rgb(25.098041%,25.098041%,25.490198%);fill-opacity:1"/></svg>