<?xml version="1.0" encoding="UTF-8"?>
<svg xmlns="http://www.w3.org/2000/svg" xmlns:xlink="http://www.w3.org/1999/xlink" width="32" height="32" viewBox="0 0 32 32" version="1.1">
<g id="surface1">
<path style=" stroke:none;fill-rule:nonzero;fill:rgb(25.098041%,25.098041%,25.490198%);fill-opacity:1;" d="M 26.722656 0 L 5.753906 0 C 2.84375 0 0.476562 2.367188 0.476562 5.273438 L 0.476562 13.621094 C 0.660156 13.503906 0.855469 13.398438 1.054688 13.3125 C 1.238281 13.230469 1.433594 13.164062 1.628906 13.109375 C 1.976562 13.015625 2.34375 12.964844 2.71875 12.964844 L 14.863281 12.964844 C 15.722656 12.964844 16.519531 13.226562 17.183594 13.671875 L 23.542969 7.308594 L 21.402344 5.167969 L 26.800781 5.167969 L 26.800781 10.566406 L 24.65625 8.421875 L 18.300781 14.777344 C 18.761719 15.449219 19.035156 16.261719 19.035156 17.136719 L 19.035156 29.28125 C 19.035156 29.65625 18.984375 30.019531 18.890625 30.371094 C 18.839844 30.566406 18.769531 30.761719 18.6875 30.945312 C 18.601562 31.148438 18.496094 31.339844 18.378906 31.523438 L 26.726562 31.523438 C 29.636719 31.523438 32.003906 29.152344 32.003906 26.246094 L 32.003906 5.273438 C 32 2.367188 29.632812 0 26.722656 0 Z M 26.722656 0 "/>
<path style=" stroke:none;fill-rule:nonzero;fill:rgb(25.098041%,25.098041%,25.490198%);fill-opacity:1;" d="M 14.863281 14.414062 L 2.722656 14.414062 C 2.335938 14.414062 1.964844 14.496094 1.632812 14.644531 C 1.425781 14.734375 1.230469 14.847656 1.054688 14.984375 C 0.832031 15.15625 0.636719 15.363281 0.480469 15.59375 C 0.175781 16.035156 0 16.566406 0 17.136719 L 0 29.277344 C 0 30.78125 1.21875 32 2.722656 32 L 14.863281 32 C 15.433594 32 15.964844 31.824219 16.40625 31.519531 C 16.636719 31.363281 16.84375 31.167969 17.015625 30.945312 C 17.152344 30.769531 17.265625 30.574219 17.355469 30.367188 C 17.503906 30.035156 17.585938 29.664062 17.585938 29.277344 L 17.585938 17.136719 C 17.585938 15.632812 16.367188 14.414062 14.863281 14.414062 Z M 14.863281 14.414062 "/>
</g>
</svg>
