<?xml version="1.0" encoding="utf-8"?>
<!-- Generator: Adobe Illustrator 25.4.1, SVG Export Plug-In . SVG Version: 6.00 Build 0)  -->
<svg version="1.1" id="Layer_1" xmlns="http://www.w3.org/2000/svg" xmlns:xlink="http://www.w3.org/1999/xlink" x="0px" y="0px"
	 viewBox="0 0 200 200" style="enable-background:new 0 0 200 200;" xml:space="preserve">
<style type="text/css">
	.st0{fill:#404041;}
</style>
<g>
	<path class="st0" d="M167.02,0H35.98C17.79,0,3,14.79,3,32.97v52.17c1.14-0.75,2.35-1.39,3.6-1.93c1.16-0.51,2.37-0.94,3.61-1.27
		c2.17-0.6,4.45-0.91,6.8-0.91h75.87c14.38,0,26.07,11.7,26.07,26.07v75.89c0,2.36-0.31,4.63-0.91,6.81
		c-0.32,1.24-0.75,2.45-1.27,3.6c-0.54,1.26-1.19,2.46-1.92,3.6h52.16c18.19,0,32.98-14.8,32.98-32.97V32.97
		C200,14.79,185.2,0,167.02,0z M118.07,81.72l-0.01-33.74l13.4,13.4l37.45-37.45l6.94,6.94L138.4,68.33l13.4,13.4L118.07,81.72z"/>
	<path class="st0" d="M92.89,90.1H17.02c-2.42,0-4.72,0.5-6.8,1.42c-1.3,0.56-2.51,1.28-3.61,2.14C5.2,94.73,3.99,96.03,3,97.47
		c-1.9,2.74-3,6.06-3,9.63v75.89C0,192.38,7.62,200,17.02,200h75.87c3.58,0,6.89-1.1,9.63-3c1.45-0.99,2.74-2.21,3.81-3.6
		c0.86-1.1,1.59-2.31,2.15-3.6c0.91-2.08,1.42-4.39,1.42-6.81V107.1C109.91,97.71,102.29,90.1,92.89,90.1z"/>
</g>
</svg>
