<svg role="img" viewBox="0 0 32 32" xmlns="http://www.w3.org/2000/svg"><path d="M26.723 0H5.758A5.282 5.282 0 0 0 .48 5.273v8.348a4.063 4.063 0 0 1 1.153-.512 4.17 4.17 0 0 1 1.09-.144h12.136a4.175 4.175 0 0 1 4.172 4.172v12.14a4.17 4.17 0 0 1-.347 1.668c-.086.2-.192.39-.309.575h8.348A5.282 5.282 0 0 0 32 26.246V5.273A5.282 5.282 0 0 0 26.723 0M18.89 13.074V7.676l2.144 2.144 5.992-5.992 1.11 1.11-5.992 5.996 2.144 2.144Zm-4.027 1.34H2.723c-.387 0-.754.082-1.086.23a2.6 2.6 0 0 0-.578.34A2.705 2.705 0 0 0 0 17.136v12.141A2.722 2.722 0 0 0 2.723 32h12.14c.57 0 1.102-.176 1.54-.48a2.58 2.58 0 0 0 .609-.575 2.54 2.54 0 0 0 .343-.578c.149-.332.23-.703.23-1.09v-12.14a2.722 2.722 0 0 0-2.722-2.723m0 0" style="stroke:none;fill-rule:nonzero;fill:rgb(25.098041%,25.098041%,25.490198%);fill-opacity:1"/></svg>