<?xml version="1.0" encoding="utf-8"?>
<!-- Generator: Adobe Illustrator 25.4.1, SVG Export Plug-In . SVG Version: 6.00 Build 0)  -->
<svg version="1.1" id="Layer_1" xmlns="http://www.w3.org/2000/svg" xmlns:xlink="http://www.w3.org/1999/xlink" x="0px" y="0px"
	 viewBox="0 0 200 200" style="enable-background:new 0 0 200 200;" xml:space="preserve">
<style type="text/css">
	.st0{fill:#404041;}
</style>
<g>
	<polygon class="st0" points="100,68.57 75.7,92.86 95,92.86 95,129.7 105,129.7 105,92.86 124.3,92.86 	"/>
	<path class="st0" d="M120.71,140H79.29c-5.13,0-9.29,4.16-9.29,9.29v41.43c0,5.13,4.16,9.29,9.29,9.29h41.43
		c5.13,0,9.29-4.16,9.29-9.29v-41.43C130,144.16,125.84,140,120.71,140z"/>
	<path class="st0" d="M50.71,0H9.29C4.16,0,0,4.16,0,9.29v41.43C0,55.84,4.16,60,9.29,60h41.43c5.13,0,9.29-4.16,9.29-9.29V9.29
		C60,4.16,55.84,0,50.71,0z"/>
	<path class="st0" d="M120.71,0H79.29C74.16,0,70,4.16,70,9.29v41.43c0,5.13,4.16,9.29,9.29,9.29h41.43c5.13,0,9.29-4.16,9.29-9.29
		V9.29C130,4.16,125.84,0,120.71,0z"/>
	<path class="st0" d="M190.71,0h-41.43C144.16,0,140,4.16,140,9.29v41.43c0,5.13,4.16,9.29,9.29,9.29h41.43
		c5.13,0,9.29-4.16,9.29-9.29V9.29C200,4.16,195.84,0,190.71,0z"/>
</g>
</svg>
