<?xml version="1.0" encoding="UTF-8"?>
<svg xmlns="http://www.w3.org/2000/svg" xmlns:xlink="http://www.w3.org/1999/xlink" width="32" height="32" viewBox="0 0 32 32" version="1.1">
<g id="surface1">
<path style=" stroke:none;fill-rule:nonzero;fill:rgb(25.098041%,25.098041%,25.490198%);fill-opacity:1;" d="M 16 10.972656 L 12.113281 14.859375 L 15.199219 14.859375 L 15.199219 20.753906 L 16.800781 20.753906 L 16.800781 14.859375 L 19.886719 14.859375 Z M 19.3125 22.398438 L 12.6875 22.398438 C 11.867188 22.398438 11.199219 23.066406 11.199219 23.886719 L 11.199219 30.515625 C 11.199219 31.335938 11.867188 32 12.6875 32 L 19.316406 32 C 20.136719 32 20.800781 31.335938 20.800781 30.515625 L 20.800781 23.886719 C 20.800781 23.066406 20.132812 22.398438 19.3125 22.398438 M 8.113281 0 L 1.488281 0 C 0.664062 0 0 0.664062 0 1.488281 L 0 8.113281 C 0 8.933594 0.664062 9.601562 1.488281 9.601562 L 8.113281 9.601562 C 8.9375 9.601562 9.601562 8.933594 9.601562 8.113281 L 9.601562 1.488281 C 9.601562 0.664062 8.933594 0 8.113281 0 M 19.3125 0 L 12.6875 0 C 11.867188 0 11.199219 0.664062 11.199219 1.488281 L 11.199219 8.113281 C 11.199219 8.9375 11.867188 9.601562 12.6875 9.601562 L 19.316406 9.601562 C 20.136719 9.601562 20.800781 8.9375 20.800781 8.113281 L 20.800781 1.488281 C 20.800781 0.667969 20.136719 0 19.3125 0 M 30.511719 0 L 23.886719 0 C 23.066406 0 22.398438 0.664062 22.398438 1.488281 L 22.398438 8.113281 C 22.398438 8.9375 23.066406 9.601562 23.886719 9.601562 L 30.515625 9.601562 C 31.335938 9.601562 32 8.9375 32 8.113281 L 32 1.488281 C 32 0.664062 31.335938 0 30.511719 0 M 30.511719 0 "/>
</g>
</svg>
