<svg role="img" viewBox="0 0 32 32" xmlns="http://www.w3.org/2000/svg"><path d="M16.8 21.027v-5.894h3.087L16 11.246l-3.887 3.887H15.2v5.894ZM19.313 0h-6.625c-.82 0-1.489.664-1.489 1.488v6.625c0 .825.668 1.489 1.489 1.489h6.628c.82 0 1.485-.665 1.485-1.489V1.488A1.488 1.488 0 0 0 19.313 0m11.199 22.398h-6.625c-.825 0-1.489.668-1.489 1.489v6.629c0 .82.665 1.484 1.489 1.484h6.625c.824 0 1.488-.664 1.488-1.484v-6.63c0-.82-.664-1.488-1.488-1.488m-11.199 0h-6.625a1.49 1.49 0 0 0-1.489 1.489v6.629c0 .82.668 1.484 1.489 1.484h6.628c.82 0 1.485-.664 1.485-1.484v-6.63a1.49 1.49 0 0 0-1.488-1.488m-11.2 0H1.488c-.824 0-1.488.668-1.488 1.489v6.629C0 31.336.664 32 1.488 32h6.625c.825 0 1.489-.664 1.489-1.484v-6.63a1.49 1.49 0 0 0-1.489-1.488m0 0" style="stroke:none;fill-rule:nonzero;fill:rgb(25.098041%,25.098041%,25.490198%);fill-opacity:1"/></svg>