<svg role="img" viewBox="0 0 32 32" xmlns="http://www.w3.org/2000/svg"><path d="m16 10.973-3.887 3.886H15.2v5.895h1.602v-5.895h3.086Zm3.313 11.425h-6.625a1.49 1.49 0 0 0-1.489 1.489v6.629c0 .82.668 1.484 1.489 1.484h6.628c.82 0 1.485-.664 1.485-1.484v-6.63a1.49 1.49 0 0 0-1.488-1.488M8.113 0H1.488C.664 0 0 .664 0 1.488v6.625c0 .82.664 1.489 1.488 1.489h6.625c.825 0 1.489-.668 1.489-1.489V1.488C9.602.664 8.934 0 8.113 0m11.2 0h-6.625c-.82 0-1.489.664-1.489 1.488v6.625c0 .825.668 1.489 1.489 1.489h6.628c.82 0 1.485-.665 1.485-1.489V1.488A1.488 1.488 0 0 0 19.313 0m11.199 0h-6.625c-.82 0-1.489.664-1.489 1.488v6.625c0 .825.668 1.489 1.489 1.489h6.629c.82 0 1.484-.665 1.484-1.489V1.488C32 .664 31.336 0 30.512 0m0 0" style="stroke:none;fill-rule:nonzero;fill:rgb(25.098041%,25.098041%,25.490198%);fill-opacity:1"/></svg>