<svg role="img" viewBox="0 0 50 50" xmlns="http://www.w3.org/2000/svg"><path d="M14 0c-1.91 0-3.758.32-5.5 1.086a.99.99 0 0 0-.617.805.983.983 0 0 0 .406.93.993.993 0 0 0 1.012.093C10.758 2.277 12.313 2 14 2c6.664 0 12 5.336 12 12s-5.336 12-12 12S2 20.664 2 14c0-3.04 1.164-5.758 3-7.914v2.613c-.004.36.184.696.496.88.313.179.695.179 1.008 0 .312-.184.5-.52.496-.88V3H1.3a1.006 1.006 0 0 0-.878.496 1.01 1.01 0 0 0 0 1.008c.183.312.52.5.879.496h1.992C1.285 7.45 0 10.555 0 14a13.96 13.96 0 0 0 4 9.797V46a2 2 0 0 0 2 2h40a2 2 0 0 0 2-2V15H27.953c.027-.332.047-.664.047-1 0-.336-.027-.668-.05-1H48V6c0-1.16-.84-2-2-2h-5V2c0-1.094-.906-2-2-2h-2c-1.094 0-2 .906-2 2v2H23.797A13.96 13.96 0 0 0 14 0m23 2h2v6h-2ZM13.984 4.984c-.55.012-.992.465-.984 1.016v7.84a.993.993 0 0 0 .11.625c.09.18.234.328.41.426l3.882 2.91a.995.995 0 0 0 1.399-.203.995.995 0 0 0-.203-1.399L15 13.5V6a1.003 1.003 0 0 0-1.016-1.016M27 21h5v5h-5Zm7 0h5v5h-5Zm-9 1.645v.07l-.14.117c.05-.059.093-.125.14-.187M13 28h5v5h-5Zm7 0h5v5h-5Zm7 0h5v5h-5Zm7 0h5v5h-5Zm-21 7h5v5h-5Zm7 0h5v5h-5Zm7 0h5v5h-5Zm7 0h5v5h-5Z"/></svg>