<svg role="img" viewBox="0 0 32 32" xmlns="http://www.w3.org/2000/svg"><path d="M13.762.64a2.618 2.618 0 0 0-2.223 1.27l-.172.281a1.336 1.336 0 0 1-1.129.653l-.328.008A2.622 2.622 0 0 0 7.332 5.43l-.008.328c-.008.465-.254.89-.652 1.133l-.281.168a2.627 2.627 0 0 0-.942 3.523l.156.285c.227.41.227.895 0 1.305l-.156.285a2.633 2.633 0 0 0 .942 3.527l.28.168c.4.243.645.664.653 1.13l.008.327a2.627 2.627 0 0 0 2.578 2.578l.328.008c.465.012.887.254 1.13.653l.171.28a2.623 2.623 0 0 0 2.25 1.27c.43 0 .867-.105 1.27-.324l.289-.16a1.347 1.347 0 0 1 1.304 0l.29.156a2.624 2.624 0 0 0 3.519-.941l.172-.281a1.353 1.353 0 0 1 1.129-.653l.328-.004a2.628 2.628 0 0 0 2.578-2.582l.008-.328c.008-.465.254-.886.652-1.129l.281-.168a2.628 2.628 0 0 0 .942-3.523l-.156-.29a1.337 1.337 0 0 1 0-1.304l.156-.285a2.627 2.627 0 0 0-.942-3.523l-.28-.168a1.351 1.351 0 0 1-.653-1.133l-.008-.328a2.625 2.625 0 0 0-2.578-2.578l-.328-.008a1.345 1.345 0 0 1-1.13-.653l-.171-.277A2.621 2.621 0 0 0 16.94.97l-.289.156a1.337 1.337 0 0 1-1.304 0l-.29-.156a2.634 2.634 0 0 0-1.294-.33m9.672 20.57c-.41.157-.852.25-1.317.259l-.328.008a.07.07 0 0 0-.062.035l-.172.281a3.879 3.879 0 0 1-2.93 1.863l-.184.422-1.722 3.938 1.293 2.96a.643.643 0 0 0 1.09.145l2.367-2.96h4.172a.641.641 0 0 0 .582-.911Zm-14.832.013L5.82 27.25c-.093.2-.078.43.04.613a.646.646 0 0 0 .538.297h4.176l2.367 2.961a.635.635 0 0 0 .5.238c.028 0 .055 0 .082-.004a.643.643 0 0 0 .504-.378l3.243-7.414a3.922 3.922 0 0 1-.946-.368l-.289-.156a.063.063 0 0 0-.035-.012.063.063 0 0 0-.035.012l-.29.156a3.946 3.946 0 0 1-1.886.489 3.879 3.879 0 0 1-3.344-1.891l-.172-.281a.07.07 0 0 0-.062-.035l-.328-.008a3.869 3.869 0 0 1-1.281-.246m0 0" style="stroke:none;fill-rule:nonzero;fill:rgb(0%,0%,0%);fill-opacity:1"/></svg>