<?xml version="1.0" encoding="utf-8"?>
<svg xmlns="http://www.w3.org/2000/svg" viewBox="0 0 50 50" fill="#000000"><path d="M 21.5 1 C 20.123 1.015 18.793297 1.7233281 18.029297 2.9863281 L 17.763672 3.4257812 C 17.385672 4.0497813 16.725094 4.4283594 15.996094 4.4433594 L 15.484375 4.4550781 C 13.270375 4.5010781 11.501078 6.270375 11.455078 8.484375 L 11.445312 8.9960938 C 11.430312 9.7240938 11.048781 10.385672 10.425781 10.763672 L 9.9863281 11.027344 C 8.0933281 12.173344 7.4466719 14.593203 8.5136719 16.533203 L 8.7597656 16.980469 C 9.1107656 17.619469 9.1107656 18.380531 8.7597656 19.019531 L 8.5136719 19.466797 C 7.4456719 21.406797 8.0932813 23.826656 9.9882812 24.972656 L 10.425781 25.236328 C 11.049781 25.614328 11.430312 26.275906 11.445312 27.003906 L 11.455078 27.515625 C 11.502078 29.730625 13.273328 31.498922 15.486328 31.544922 L 15.998047 31.556641 C 16.726047 31.570641 17.385672 31.951172 17.763672 32.576172 L 18.029297 33.011719 C 18.801297 34.289719 20.151922 35 21.544922 35 C 22.216922 35 22.90025 34.835281 23.53125 34.488281 L 23.980469 34.240234 C 24.618469 33.888234 25.380531 33.890188 26.019531 34.242188 L 26.46875 34.486328 C 28.40775 35.553328 30.825703 34.906672 31.970703 33.013672 L 32.236328 32.576172 C 32.614328 31.952172 33.274906 31.571641 34.003906 31.556641 L 34.515625 31.546875 C 36.729625 31.500875 38.498922 29.729625 38.544922 27.515625 L 38.554688 27.003906 C 38.569687 26.275906 38.951219 25.616281 39.574219 25.238281 L 40.013672 24.972656 C 41.906672 23.826656 42.553328 21.40875 41.486328 19.46875 L 41.240234 19.019531 C 40.889234 18.380531 40.889234 17.619469 41.240234 16.980469 L 41.486328 16.533203 C 42.554328 14.593203 41.906719 12.173344 40.011719 11.027344 L 39.574219 10.763672 C 38.950219 10.385672 38.569688 9.7240937 38.554688 8.9960938 L 38.544922 8.484375 C 38.497922 6.269375 36.728625 4.5010781 34.515625 4.4550781 L 34.003906 4.4433594 C 33.275906 4.4293594 32.614328 4.0488281 32.236328 3.4238281 L 31.972656 2.9882812 C 30.826656 1.0932812 28.40875 0.44767187 26.46875 1.5136719 L 26.019531 1.7597656 C 25.381531 2.1117656 24.619469 2.1117656 23.980469 1.7597656 L 23.53125 1.5136719 C 22.88525 1.1576719 22.187 0.993 21.5 1 z M 36.613281 33.142578 C 35.972281 33.386578 35.281641 33.531875 34.556641 33.546875 L 34.044922 33.556641 C 34.000922 33.557641 33.970266 33.575281 33.947266 33.613281 L 33.681641 34.050781 C 32.677641 35.710781 30.995563 36.762937 29.101562 36.960938 L 28.814453 37.619141 L 26.121094 43.773438 L 28.144531 48.400391 C 28.284531 48.721391 28.582688 48.944234 28.929688 48.990234 C 28.975687 48.996234 29.0185 49 29.0625 49 C 29.3635 49 29.65275 48.863 29.84375 48.625 L 33.544922 44 L 40.064453 44 C 40.405453 44 40.72325 43.826062 40.90625 43.539062 C 41.08925 43.252063 41.113703 42.890078 40.970703 42.580078 L 36.613281 33.142578 z M 13.439453 33.160156 L 9.09375 42.580078 C 8.95075 42.890078 8.9742031 43.250109 9.1582031 43.537109 C 9.3402031 43.825109 9.659 44 10 44 L 16.519531 44 L 20.220703 48.625 C 20.410703 48.863 20.699 49 21 49 C 21.043 49 21.086859 48.996234 21.130859 48.990234 C 21.477859 48.944234 21.776016 48.721391 21.916016 48.400391 L 26.982422 36.818359 C 26.470422 36.690359 25.972812 36.499141 25.507812 36.244141 L 25.054688 35.996094 C 25.035688 35.985094 25.016047 35.980469 24.998047 35.980469 C 24.981047 35.980469 24.966312 35.985094 24.945312 35.996094 L 24.496094 36.242188 C 23.592094 36.739187 22.570922 37.003906 21.544922 37.003906 C 19.388922 37.003906 17.435359 35.899734 16.318359 34.052734 L 16.052734 33.613281 C 16.029734 33.575281 16.000078 33.557641 15.955078 33.556641 L 15.443359 33.546875 C 14.738359 33.531875 14.065453 33.392156 13.439453 33.160156 z" fill="#000000"/></svg>
