<?xml version="1.0" encoding="UTF-8"?>
<svg xmlns="http://www.w3.org/2000/svg" xmlns:xlink="http://www.w3.org/1999/xlink" width="32" height="32" viewBox="0 0 32 32" version="1.1">
<g id="surface1">
<path style=" stroke:none;fill-rule:nonzero;fill:rgb(0%,0%,0%);fill-opacity:1;" d="M 4.636719 3.207031 C 4.285156 3.105469 3.902344 3.203125 3.644531 3.464844 C 3.386719 3.726562 3.296875 4.109375 3.402344 4.460938 L 6.644531 15 L 18 15 C 18.550781 15 19 15.449219 19 16 C 19 16.550781 18.550781 17 18 17 L 6.644531 17 L 3.402344 27.539062 C 3.296875 27.890625 3.386719 28.273438 3.644531 28.535156 C 3.902344 28.796875 4.285156 28.894531 4.636719 28.792969 C 13.457031 26.226562 21.773438 22.175781 29.230469 16.8125 C 29.492188 16.625 29.648438 16.320312 29.648438 16 C 29.648438 15.679688 29.492188 15.375 29.230469 15.1875 C 21.773438 9.824219 13.457031 5.773438 4.636719 3.207031 "/>
</g>
</svg>
