<?xml version="1.0" standalone="no"?>
<!DOCTYPE svg PUBLIC "-//W3C//DTD SVG 20010904//EN"
 "http://www.w3.org/TR/2001/REC-SVG-20010904/DTD/svg10.dtd">
<svg version="1.0" xmlns="http://www.w3.org/2000/svg"
 width="48.000000pt" height="48.000000pt" viewBox="0 0 48.000000 48.000000"
 preserveAspectRatio="xMidYMid meet">
<metadata>
Created by potrace 1.16, written by Peter Selinger 2001-2019
</metadata>
<g transform="translate(0.000000,48.000000) scale(0.100000,-0.100000)"
fill="#000000" stroke="none">
<path d="M0 240 l0 -240 240 0 240 0 0 240 0 240 -240 0 -240 0 0 -240z m318
141 c46 -23 67 -46 87 -94 28 -67 13 -149 -36 -193 -18 -16 -21 -17 -55 -1
-43 21 -114 22 -140 2 -10 -8 -27 -15 -36 -15 -27 0 -67 62 -74 113 -20 144
127 253 254 188z"/>
<path d="M175 297 c-20 -16 -28 -35 -32 -69 -5 -42 -3 -50 25 -78 43 -43 101
-43 144 0 28 28 30 36 25 78 -4 34 -12 53 -32 69 -35 31 -95 31 -130 0z"/>
</g>
</svg>
