<?xml version="1.0" encoding="UTF-8"?>
<svg xmlns="http://www.w3.org/2000/svg" xmlns:xlink="http://www.w3.org/1999/xlink" width="35.821999" height="32" viewBox="0 0 35.821999 32" version="1.1">
<g id="surface1">
<path style=" stroke:none;fill-rule:evenodd;fill:rgb(38.431373%,84.705883%,30.588236%);fill-opacity:1;" d="M 18.027344 0.00390625 C 4.199219 -0.0234375 -4.472656 14.925781 2.414062 26.914062 C 3.285156 28.433594 4.378906 29.816406 5.652344 31.019531 C 6.917969 32.230469 8.878906 32.332031 10.265625 31.261719 C 14.808594 27.878906 21.035156 27.878906 25.578125 31.261719 C 26.976562 32.332031 28.953125 32.21875 30.214844 30.988281 C 40.246094 21.472656 36.210938 4.667969 22.953125 0.738281 C 21.351562 0.265625 19.695312 0.015625 18.027344 0 M 17.921875 26.925781 C 12.925781 27.0625 8.84375 22.980469 8.976562 17.984375 C 8.976562 11.101562 16.429688 6.800781 22.390625 10.242188 C 25.15625 11.839844 26.863281 14.789062 26.863281 17.984375 C 26.996094 22.980469 22.910156 27.0625 17.921875 26.925781 "/>
</g>
</svg>
