<?xml version="1.0" encoding="utf-8"?>
<svg xmlns="http://www.w3.org/2000/svg" viewBox="0 0 64 64" fill="#000000"><path d="M 14.855469 6 C 13.328125 6 11.957031 6.847656 11.277344 8.210938 L 6.527344 17.707031 C 6.183594 18.398438 6 19.171875 6 19.941406 L 6 30 C 6 31.199219 6.542969 32.265625 7.382813 33 C 6.542969 33.734375 6 34.800781 6 36 L 6 42 C 6 43.199219 6.542969 44.265625 7.382813 45 C 6.542969 45.734375 6 46.800781 6 48 L 6 54 C 6 56.207031 7.792969 58 10 58 L 54 58 C 56.207031 58 58 56.207031 58 54 L 58 48 C 58 46.800781 57.457031 45.734375 56.617188 45 C 57.457031 44.265625 58 43.199219 58 42 L 58 36 C 58 34.800781 57.457031 33.734375 56.617188 33 C 57.457031 32.265625 58 31.199219 58 30 L 58 19.941406 C 58 19.171875 57.816406 18.398438 57.472656 17.707031 L 52.722656 8.210938 C 52.042969 6.847656 50.671875 6 49.144531 6 Z M 14.855469 8 L 49.144531 8 C 49.90625 8 50.59375 8.425781 50.933594 9.105469 L 55.683594 18.601563 C 55.890625 19.015625 56 19.480469 56 19.941406 L 56 20 L 8 20 L 8 19.941406 C 8 19.480469 8.109375 19.015625 8.316406 18.601563 L 13.0625 9.105469 C 13.40625 8.425781 14.089844 8 14.855469 8 Z M 15 10 C 14.445313 10 14 10.445313 14 11 C 14 11.554688 14.445313 12 15 12 L 41 12 C 41.554688 12 42 11.554688 42 11 C 42 10.445313 41.554688 10 41 10 Z M 45 10 C 44.445313 10 44 10.445313 44 11 C 44 11.554688 44.445313 12 45 12 L 49 12 C 49.554688 12 50 11.554688 50 11 C 50 10.445313 49.554688 10 49 10 Z M 8 22 L 56 22 L 56 30 C 56 31.101563 55.101563 32 54 32 L 10 32 C 8.898438 32 8 31.101563 8 30 Z M 49 24 C 47.347656 24 46 25.347656 46 27 C 46 28.652344 47.347656 30 49 30 C 50.652344 30 52 28.652344 52 27 C 52 25.347656 50.652344 24 49 24 Z M 13 25 C 12.445313 25 12 25.445313 12 26 L 12 28 C 12 28.554688 12.445313 29 13 29 C 13.554688 29 14 28.554688 14 28 L 14 26 C 14 25.445313 13.554688 25 13 25 Z M 18 25 C 17.445313 25 17 25.445313 17 26 L 17 28 C 17 28.554688 17.445313 29 18 29 C 18.554688 29 19 28.554688 19 28 L 19 26 C 19 25.445313 18.554688 25 18 25 Z M 23 25 C 22.445313 25 22 25.445313 22 26 L 22 28 C 22 28.554688 22.445313 29 23 29 C 23.554688 29 24 28.554688 24 28 L 24 26 C 24 25.445313 23.554688 25 23 25 Z M 28 25 C 27.445313 25 27 25.445313 27 26 L 27 28 C 27 28.554688 27.445313 29 28 29 C 28.554688 29 29 28.554688 29 28 L 29 26 C 29 25.445313 28.554688 25 28 25 Z M 33 25 C 32.445313 25 32 25.445313 32 26 L 32 28 C 32 28.554688 32.445313 29 33 29 C 33.554688 29 34 28.554688 34 28 L 34 26 C 34 25.445313 33.554688 25 33 25 Z M 49 25.792969 C 49.667969 25.792969 50.207031 26.335938 50.207031 27 C 50.207031 27.667969 49.664063 28.207031 49 28.207031 C 48.335938 28.207031 47.792969 27.667969 47.792969 27 C 47.792969 26.332031 48.332031 25.792969 49 25.792969 Z M 37 26 C 36.445313 26 36 26.445313 36 27 C 36 27.554688 36.445313 28 37 28 L 43 28 C 43.554688 28 44 27.554688 44 27 C 44 26.445313 43.554688 26 43 26 Z M 10 34 L 54 34 C 55.101563 34 56 34.898438 56 36 L 56 42 C 56 43.101563 55.101563 44 54 44 L 10 44 C 8.898438 44 8 43.101563 8 42 L 8 36 C 8 34.898438 8.898438 34 10 34 Z M 49 36 C 47.347656 36 46 37.347656 46 39 C 46 40.652344 47.347656 42 49 42 C 50.652344 42 52 40.652344 52 39 C 52 37.347656 50.652344 36 49 36 Z M 13 37 C 12.445313 37 12 37.445313 12 38 L 12 40 C 12 40.554688 12.445313 41 13 41 C 13.554688 41 14 40.554688 14 40 L 14 38 C 14 37.445313 13.554688 37 13 37 Z M 18 37 C 17.445313 37 17 37.445313 17 38 L 17 40 C 17 40.554688 17.445313 41 18 41 C 18.554688 41 19 40.554688 19 40 L 19 38 C 19 37.445313 18.554688 37 18 37 Z M 23 37 C 22.445313 37 22 37.445313 22 38 L 22 40 C 22 40.554688 22.445313 41 23 41 C 23.554688 41 24 40.554688 24 40 L 24 38 C 24 37.445313 23.554688 37 23 37 Z M 28 37 C 27.445313 37 27 37.445313 27 38 L 27 40 C 27 40.554688 27.445313 41 28 41 C 28.554688 41 29 40.554688 29 40 L 29 38 C 29 37.445313 28.554688 37 28 37 Z M 33 37 C 32.445313 37 32 37.445313 32 38 L 32 40 C 32 40.554688 32.445313 41 33 41 C 33.554688 41 34 40.554688 34 40 L 34 38 C 34 37.445313 33.554688 37 33 37 Z M 49 37.792969 C 49.664063 37.792969 50.207031 38.335938 50.207031 39 C 50.207031 39.667969 49.667969 40.207031 49 40.207031 C 48.332031 40.207031 47.792969 39.664063 47.792969 39 C 47.792969 38.332031 48.335938 37.792969 49 37.792969 Z M 37 38 C 36.445313 38 36 38.445313 36 39 C 36 39.554688 36.445313 40 37 40 L 43 40 C 43.554688 40 44 39.554688 44 39 C 44 38.445313 43.554688 38 43 38 Z M 10 46 L 54 46 C 55.101563 46 56 46.898438 56 48 L 56 54 C 56 55.101563 55.101563 56 54 56 L 10 56 C 8.898438 56 8 55.101563 8 54 L 8 48 C 8 46.898438 8.898438 46 10 46 Z M 49 48 C 47.347656 48 46 49.347656 46 51 C 46 52.652344 47.347656 54 49 54 C 50.652344 54 52 52.652344 52 51 C 52 49.347656 50.652344 48 49 48 Z M 13 49 C 12.445313 49 12 49.445313 12 50 L 12 52 C 12 52.554688 12.445313 53 13 53 C 13.554688 53 14 52.554688 14 52 L 14 50 C 14 49.445313 13.554688 49 13 49 Z M 18 49 C 17.445313 49 17 49.445313 17 50 L 17 52 C 17 52.554688 17.445313 53 18 53 C 18.554688 53 19 52.554688 19 52 L 19 50 C 19 49.445313 18.554688 49 18 49 Z M 23 49 C 22.445313 49 22 49.445313 22 50 L 22 52 C 22 52.554688 22.445313 53 23 53 C 23.554688 53 24 52.554688 24 52 L 24 50 C 24 49.445313 23.554688 49 23 49 Z M 28 49 C 27.445313 49 27 49.445313 27 50 L 27 52 C 27 52.554688 27.445313 53 28 53 C 28.554688 53 29 52.554688 29 52 L 29 50 C 29 49.445313 28.554688 49 28 49 Z M 33 49 C 32.445313 49 32 49.445313 32 50 L 32 52 C 32 52.554688 32.445313 53 33 53 C 33.554688 53 34 52.554688 34 52 L 34 50 C 34 49.445313 33.554688 49 33 49 Z M 49 49.75 C 49.691406 49.75 50.25 50.308594 50.25 51 C 50.25 51.691406 49.691406 52.25 49 52.25 C 48.308594 52.25 47.75 51.691406 47.75 51 C 47.75 50.308594 48.308594 49.75 49 49.75 Z M 37 50 C 36.445313 50 36 50.445313 36 51 C 36 51.554688 36.445313 52 37 52 L 43 52 C 43.554688 52 44 51.554688 44 51 C 44 50.445313 43.554688 50 43 50 Z" fill="#000000"/></svg>
