<?xml version="1.0" encoding="UTF-8"?>
<svg xmlns="http://www.w3.org/2000/svg" xmlns:xlink="http://www.w3.org/1999/xlink" width="32" height="32" viewBox="0 0 32 32" version="1.1">
<g id="surface1">
<path style=" stroke:none;fill-rule:nonzero;fill:rgb(0%,0%,0%);fill-opacity:1;" d="M 17.675781 2.558594 C 17.1875 2.558594 16.746094 2.832031 16.53125 3.265625 L 15.46875 5.390625 C 15.953125 5.636719 16.359375 6.027344 16.613281 6.539062 L 17.707031 8.71875 C 17.847656 8.988281 17.917969 9.289062 17.921875 9.59375 L 17.921875 25.601562 L 28.800781 25.601562 C 29.152344 25.601562 29.441406 25.3125 29.441406 24.960938 L 29.441406 5.757812 C 29.441406 5.652344 29.414062 5.550781 29.367188 5.460938 L 28.269531 3.269531 C 28.050781 2.832031 27.613281 2.558594 27.125 2.558594 Z M 17.675781 3.839844 L 27.125 3.839844 L 27.765625 5.121094 L 17.035156 5.121094 Z M 4.875 6.398438 C 4.386719 6.398438 3.949219 6.671875 3.730469 7.109375 L 2.632812 9.300781 C 2.585938 9.390625 2.558594 9.492188 2.558594 9.597656 L 2.558594 28.800781 C 2.558594 29.152344 2.847656 29.441406 3.199219 29.441406 L 16 29.441406 C 16.351562 29.441406 16.640625 29.152344 16.640625 28.800781 L 16.640625 9.597656 C 16.640625 9.492188 16.613281 9.390625 16.566406 9.300781 L 15.46875 7.109375 C 15.253906 6.671875 14.8125 6.398438 14.324219 6.398438 Z M 4.875 7.679688 L 14.324219 7.679688 L 14.964844 8.960938 L 4.234375 8.960938 Z M 19.199219 8.320312 L 26.878906 8.320312 L 26.878906 10.878906 L 19.199219 10.878906 Z M 5.761719 12.160156 L 13.441406 12.160156 L 13.441406 14.71875 L 5.761719 14.71875 Z M 19.199219 12.160156 L 26.878906 12.160156 L 26.878906 14.71875 L 19.199219 14.71875 Z M 5.761719 16 L 13.441406 16 L 13.441406 18.558594 L 5.761719 18.558594 Z M 23.039062 17.921875 C 23.394531 17.921875 23.679688 18.207031 23.679688 18.558594 C 23.679688 18.914062 23.394531 19.199219 23.039062 19.199219 C 22.6875 19.199219 22.398438 18.914062 22.398438 18.558594 C 22.398438 18.207031 22.6875 17.921875 23.039062 17.921875 Z M 23.039062 20.480469 C 23.394531 20.480469 23.679688 20.765625 23.679688 21.121094 C 23.679688 21.472656 23.394531 21.761719 23.039062 21.761719 C 22.6875 21.761719 22.398438 21.472656 22.398438 21.121094 C 22.398438 20.765625 22.6875 20.480469 23.039062 20.480469 Z M 9.601562 21.761719 C 9.953125 21.761719 10.238281 22.046875 10.238281 22.398438 C 10.238281 22.753906 9.953125 23.039062 9.601562 23.039062 C 9.246094 23.039062 8.960938 22.753906 8.960938 22.398438 C 8.960938 22.046875 9.246094 21.761719 9.601562 21.761719 Z M 9.601562 24.320312 C 9.953125 24.320312 10.238281 24.605469 10.238281 24.960938 C 10.238281 25.3125 9.953125 25.601562 9.601562 25.601562 C 9.246094 25.601562 8.960938 25.3125 8.960938 24.960938 C 8.960938 24.605469 9.246094 24.320312 9.601562 24.320312 Z M 9.601562 24.320312 "/>
</g>
</svg>
