<svg role="img" viewBox="0 0 32 32" xmlns="http://www.w3.org/2000/svg"><path d="M0 16v16h32V0H0Zm21.2-9.398c3.066 1.53 4.468 3.066 5.8 6.265 1.867 4.465.867 9.934-2.398 12.867-1.204 1.067-1.403 1.133-3.668.067-2.868-1.403-7.602-1.469-9.332-.133-.668.531-1.801 1-2.403 1-1.8 0-4.465-4.133-4.933-7.535C2.934 9.535 12.734 2.266 21.199 6.602M11.668 12.2c-1.336 1.066-1.867 2.335-2.133 4.6-.336 2.802-.203 3.333 1.664 5.2 2.867 2.867 6.735 2.867 9.602 0 1.867-1.867 2-2.398 1.664-5.2-.266-2.265-.797-3.534-2.133-4.6-2.332-2.067-6.332-2.067-8.664 0m0 0" style="stroke:none;fill-rule:nonzero;fill:rgb(0%,0%,0%);fill-opacity:1"/></svg>