<svg role="img" viewBox="0 0 32 32" xmlns="http://www.w3.org/2000/svg"><path d="M8.96 0c-.565 0-.98.219-1.28.46-.008.005-.012.017-.02.02a2.2 2.2 0 0 0-.238.22.428.428 0 0 0-.043.038c0 .008.004.016 0 .024l-1.14 1.277c.25-.074.519-.117.8-.117h17.922c.281 0 .55.039.8.117L24.579.7c-.317-.427-.907-.7-1.477-.7ZM7.04 3.2c-.743 0-1.278.538-1.278 1.28v26.24c0 .742.535 1.281 1.277 1.281h17.922c.742 0 1.277-.54 1.277-1.281V4.48c0-.742-.535-1.28-1.277-1.28Zm3.198 3.198h11.524c.383 0 .636.258.636.641v3.2c0 .386-.253.64-.636.64H10.238c-.383 0-.636-.254-.636-.64v-3.2c0-.383.253-.64.636-.64m0 5.762h11.524c.383 0 .636.254.636.64V16c0 .387-.253.64-.636.64H10.238c-.383 0-.636-.253-.636-.64v-3.2c0-.386.253-.64.636-.64M16 20.48c.703 0 1.281.575 1.281 1.282 0 .703-.578 1.277-1.281 1.277a1.284 1.284 0 0 1-1.281-1.277c0-.707.578-1.282 1.281-1.282m0 4.48c.703 0 1.281.575 1.281 1.278 0 .707-.578 1.282-1.281 1.282a1.285 1.285 0 0 1-1.281-1.282c0-.703.578-1.277 1.281-1.277m0 0" style="stroke:none;fill-rule:nonzero;fill:rgb(0%,0%,0%);fill-opacity:1"/></svg>