<?xml version="1.0" encoding="utf-8"?>
<svg xmlns="http://www.w3.org/2000/svg" viewBox="0 0 50 50" fill="#000000"><path d="M 14 0 C 13.117188 0 12.46875 0.34375 12 0.71875 C 11.988281 0.726563 11.980469 0.742188 11.96875 0.75 C 11.828125 0.863281 11.703125 0.984375 11.59375 1.09375 C 11.574219 1.113281 11.550781 1.136719 11.53125 1.15625 C 11.527344 1.164063 11.535156 1.179688 11.53125 1.1875 L 9.75 3.1875 C 10.140625 3.070313 10.558594 3 11 3 L 39 3 C 39.441406 3 39.859375 3.066406 40.25 3.1875 L 38.40625 1.09375 C 37.90625 0.425781 36.988281 0 36.09375 0 Z M 11 5 C 9.839844 5 9 5.839844 9 7 L 9 48 C 9 49.160156 9.839844 50 11 50 L 39 50 C 40.160156 50 41 49.160156 41 48 L 41 7 C 41 5.839844 40.160156 5 39 5 Z M 16 10 L 34 10 C 34.601563 10 35 10.398438 35 11 L 35 16 C 35 16.601563 34.601563 17 34 17 L 16 17 C 15.398438 17 15 16.601563 15 16 L 15 11 C 15 10.398438 15.398438 10 16 10 Z M 16 19 L 34 19 C 34.601563 19 35 19.398438 35 20 L 35 25 C 35 25.601563 34.601563 26 34 26 L 16 26 C 15.398438 26 15 25.601563 15 25 L 15 20 C 15 19.398438 15.398438 19 16 19 Z M 25 32 C 26.101563 32 27 32.898438 27 34 C 27 35.101563 26.101563 36 25 36 C 23.898438 36 23 35.101563 23 34 C 23 32.898438 23.898438 32 25 32 Z M 25 39 C 26.101563 39 27 39.898438 27 41 C 27 42.101563 26.101563 43 25 43 C 23.898438 43 23 42.101563 23 41 C 23 39.898438 23.898438 39 25 39 Z" fill="#000000"/></svg>
