<svg role="img" viewBox="0 0 35.822 32" xmlns="http://www.w3.org/2000/svg"><path d="M18.027.004C4.2-.023-4.473 14.926 2.414 26.914a17.901 17.901 0 0 0 3.238 4.106 3.547 3.547 0 0 0 4.614.242 12.82 12.82 0 0 1 15.312 0 3.553 3.553 0 0 0 4.637-.274c10.031-9.515 5.996-26.32-7.262-30.25A18.015 18.015 0 0 0 18.027 0m-.105 26.926c-4.996.137-9.078-3.946-8.945-8.942 0-6.882 7.453-11.183 13.414-7.742a8.942 8.942 0 0 1 4.472 7.742c.133 4.996-3.953 9.078-8.941 8.942" style="stroke:none;fill-rule:evenodd;fill:rgb(38.431373%,84.705883%,30.588236%);fill-opacity:1"/></svg>