<svg role="img" viewBox="0 0 211.2 32" xmlns="http://www.w3.org/2000/svg"><path d="M51.234 10.227a8.981 8.981 0 0 0-5.773 2.078v-1.867h-5.27V30.96h5.48V17.84a6.498 6.498 0 0 1 4.974-2.54 5.55 5.55 0 0 1 2.199.329v-5.262a9.265 9.265 0 0 0-1.61-.14M3.457 24.7a8.58 8.58 0 0 0 5.598 2.027c1.476 0 2.613-.72 2.613-1.735 0-3.09-9.906-1.988-9.906-8.59 0-3.933 3.797-6.386 7.84-6.386 2.457.004 4.859.726 6.914 2.078l-2.563 3.969a6.915 6.915 0 0 0-3.922-1.395c-1.515 0-2.781.594-2.781 1.652 0 2.664 9.906 1.606 9.906 8.715 0 3.938-3.84 6.348-8.136 6.348A14.093 14.093 0 0 1 .8 28.64Zm34.395-4.192c0-5.711-4-10.492-9.657-10.492-6.07 0-9.949 4.992-9.949 10.703a10.247 10.247 0 0 0 10.715 10.664 11.069 11.069 0 0 0 8.387-3.68L34.23 24.57a7.235 7.235 0 0 1-5.144 2.371 5.38 5.38 0 0 1-5.527-4.863h14.168a9.19 9.19 0 0 0 .125-1.57m-14.04-2.453a4.44 4.44 0 0 1 4.383-3.598 4.085 4.085 0 0 1 4.051 3.598Zm42.09 4.905 5.61-12.522h5.691L67.801 30.96h-3.793l-9.403-20.523h5.692ZM81.805.8a3.521 3.521 0 0 1 3.457 3.563A3.52 3.52 0 1 1 81.805.801" style="stroke:none;fill-rule:evenodd;fill:rgb(0%,0%,0%);fill-opacity:1"/><path d="M79.063 10.438h5.48V30.96h-5.48Zm0 0" style="stroke:none;fill-rule:nonzero;fill:rgb(0%,0%,0%);fill-opacity:1"/><path d="M107.2 26.77a10.826 10.826 0 0 1-9.278 4.613 10.699 10.699 0 0 1-9.492-5.274 10.687 10.687 0 0 1 9.531-16.094 10.897 10.897 0 0 1 8.602 4.102l-3.88 3.43a5.93 5.93 0 0 0-4.722-2.457 5.494 5.494 0 0 0-3.945 1.652 5.47 5.47 0 0 0-1.567 3.977 5.4 5.4 0 0 0 1.606 4.027 5.411 5.411 0 0 0 4.043 1.559 5.992 5.992 0 0 0 4.89-2.707Zm19.905.93a11.054 11.054 0 0 1-8.386 3.679 10.24 10.24 0 0 1-10.707-10.66c0-5.715 3.879-10.707 9.949-10.707 5.648 0 9.652 4.781 9.652 10.492a9.098 9.098 0 0 1-.125 1.566H113.32a5.378 5.378 0 0 0 5.524 4.868 7.235 7.235 0 0 0 5.144-2.372Zm-5.097-9.645a4.084 4.084 0 0 0-4.047-3.598 4.444 4.444 0 0 0-4.387 3.598Zm7.785 12.905V10.439h5.27v1.648a8.995 8.995 0 0 1 5.773-2.07 9.185 9.185 0 0 1 7.082 3.3 10.369 10.369 0 0 1 2.11 7.2V30.96h-5.481V20.078a4.979 4.979 0 0 0-1.223-3.848 4.312 4.312 0 0 0-3.078-1.144 6.517 6.517 0 0 0-4.973 2.539v13.336Zm0 0" style="stroke:none;fill-rule:evenodd;fill:rgb(0%,0%,0%);fill-opacity:1"/><path d="M164.137 10.016a11.99 11.99 0 0 0-11.168 7.55 11.993 11.993 0 0 0 2.902 13.168 2.367 2.367 0 0 0 3.082.16 8.573 8.573 0 0 1 10.23 0 2.37 2.37 0 0 0 3.098-.18 12.002 12.002 0 0 0 2.906-13.097 11.995 11.995 0 0 0-11.05-7.605M164.067 28a5.802 5.802 0 0 1-4.27-1.703 5.802 5.802 0 0 1-1.703-4.27c0-3.3 2.676-5.972 5.972-5.972a5.973 5.973 0 0 1 5.977 5.972 5.817 5.817 0 0 1-1.703 4.27A5.817 5.817 0 0 1 164.066 28" style="stroke:none;fill-rule:evenodd;fill:rgb(38.431373%,84.705883%,30.588236%);fill-opacity:1"/><path d="M186.86 30.96h-4.083l-8.136-20.522h5.472l4.461 11.726 4.375-11.727h4.574l4.336 11.727 4.5-11.727h5.473l-8.137 20.524h-4.082l-4.375-11.688Zm0 0" style="stroke:none;fill-rule:evenodd;fill:rgb(0%,0%,0%);fill-opacity:1"/><path d="M207.895 28.64h-.461v.868h-.395v-2.375H208a.75.75 0 0 1 .543.222.77.77 0 0 1 .223.54.757.757 0 0 1-.473.69l.539.927h-.426Zm-.461-.35H208c.223 0 .398-.18.398-.4a.398.398 0 0 0-.398-.402h-.562Zm.406-2.134a2.207 2.207 0 0 1 .004 4.414 2.207 2.207 0 0 1-.004-4.414m0-.347a2.56 2.56 0 0 0 0 5.121 2.56 2.56 0 0 0 0-5.121m0 0" style="stroke:none;fill-rule:nonzero;fill:rgb(0%,0%,0%);fill-opacity:1"/></svg>