<?xml version="1.0" encoding="utf-8"?>
<svg xmlns="http://www.w3.org/2000/svg" viewBox="0 0 50 50" fill="#000000"><path d="M 27.617188 4 C 26.853188 4 26.168125 4.4234687 25.828125 5.1054688 L 24.167969 8.4257812 C 24.927969 8.8047812 25.563938 9.4197969 25.960938 10.216797 L 27.667969 13.625 C 27.883969 14.045 27.999 14.516234 28 14.990234 L 28 40 L 45 40 C 45.552 40 46 39.552 46 39 L 46 9 L 46 8.9980469 C 46 8.8310469 45.957766 8.6731563 45.884766 8.5351562 L 44.171875 5.1074219 C 43.831875 4.4234219 43.146813 4 42.382812 4 L 27.617188 4 z M 27.617188 6 L 42.382812 6 L 43.382812 8 L 26.617188 8 L 27.617188 6 z M 7.6171875 10 C 6.8531875 10 6.168125 10.423469 5.828125 11.105469 L 4.1132812 14.535156 C 4.0412812 14.673156 4 14.831047 4 14.998047 L 4 15 L 4 45 C 4 45.552 4.448 46 5 46 L 25 46 C 25.552 46 26 45.552 26 45 L 26 15 L 26 14.998047 C 26 14.831047 25.957766 14.673156 25.884766 14.535156 L 24.171875 11.107422 C 23.831875 10.423422 23.146812 10 22.382812 10 L 7.6171875 10 z M 7.6171875 12 L 22.382812 12 L 23.382812 14 L 6.6171875 14 L 7.6171875 12 z M 30 13 L 42 13 L 42 17 L 30 17 L 30 13 z M 9 19 L 21 19 L 21 23 L 9 23 L 9 19 z M 30 19 L 42 19 L 42 23 L 30 23 L 30 19 z M 9 25 L 21 25 L 21 29 L 9 29 L 9 25 z M 36 28 C 36.552 28 37 28.448 37 29 C 37 29.552 36.552 30 36 30 C 35.448 30 35 29.552 35 29 C 35 28.448 35.448 28 36 28 z M 36 32 C 36.552 32 37 32.448 37 33 C 37 33.552 36.552 34 36 34 C 35.448 34 35 33.552 35 33 C 35 32.448 35.448 32 36 32 z M 15 34 C 15.552 34 16 34.448 16 35 C 16 35.552 15.552 36 15 36 C 14.448 36 14 35.552 14 35 C 14 34.448 14.448 34 15 34 z M 15 38 C 15.552 38 16 38.448 16 39 C 16 39.552 15.552 40 15 40 C 14.448 40 14 39.552 14 39 C 14 38.448 14.448 38 15 38 z" fill="#000000"/></svg>
