<?xml version="1.0" encoding="utf-8"?>
<svg viewBox="274.266 186.638 14.958 13.362" width="14.958" height="13.362" xmlns="http://www.w3.org/2000/svg">
  <path d="M 281.793 186.64 C 276.019 186.628 272.398 192.871 275.274 197.877 C 275.638 198.511 276.094 199.089 276.626 199.591 C 277.155 200.095 277.973 200.138 278.552 199.691 C 280.449 198.279 283.048 198.279 284.946 199.691 C 285.53 200.139 286.354 200.091 286.883 199.578 C 291.071 195.604 289.386 188.587 283.85 186.947 C 283.182 186.749 282.489 186.645 281.793 186.638 M 281.749 197.881 C 279.664 197.938 277.959 196.233 278.015 194.148 C 278.015 191.274 281.126 189.477 283.616 190.915 C 284.771 191.582 285.483 192.814 285.483 194.148 C 285.538 196.233 283.833 197.938 281.749 197.881" fill="#62d84e" fill-rule="evenodd"/>
</svg>