<?xml version="1.0" encoding="UTF-8"?>
<svg xmlns="http://www.w3.org/2000/svg" xmlns:xlink="http://www.w3.org/1999/xlink" width="32" height="32" viewBox="0 0 32 32" version="1.1">
<g id="surface1">
<path style=" stroke:none;fill-rule:nonzero;fill:rgb(0%,0%,0%);fill-opacity:1;" d="M 0 16 L 0 32 L 32 32 L 32 0 L 0 0 Z M 21.199219 6.601562 C 24.265625 8.132812 25.667969 9.667969 27 12.867188 C 28.867188 17.332031 27.867188 22.800781 24.601562 25.734375 C 23.398438 26.800781 23.199219 26.867188 20.933594 25.800781 C 18.066406 24.398438 13.332031 24.332031 11.601562 25.667969 C 10.933594 26.199219 9.800781 26.667969 9.199219 26.667969 C 7.398438 26.667969 4.734375 22.535156 4.265625 19.132812 C 2.933594 9.535156 12.734375 2.265625 21.199219 6.601562 M 11.667969 12.199219 C 10.332031 13.265625 9.800781 14.535156 9.535156 16.800781 C 9.199219 19.601562 9.332031 20.132812 11.199219 22 C 14.066406 24.867188 17.933594 24.867188 20.800781 22 C 22.667969 20.132812 22.800781 19.601562 22.464844 16.800781 C 22.199219 14.535156 21.667969 13.265625 20.332031 12.199219 C 18 10.132812 14 10.132812 11.667969 12.199219 M 11.667969 12.199219 "/>
</g>
</svg>
