<?xml version="1.0" encoding="UTF-8"?>
<svg xmlns="http://www.w3.org/2000/svg" xmlns:xlink="http://www.w3.org/1999/xlink" width="32" height="32" viewBox="0 0 32 32" version="1.1">
<g id="surface1">
<path style=" stroke:none;fill-rule:nonzero;fill:rgb(0%,0%,0%);fill-opacity:1;" d="M 21.332031 4.265625 C 19.953125 4.265625 18.777344 5.164062 18.332031 6.398438 L 4.265625 6.398438 C 3.882812 6.394531 3.523438 6.597656 3.332031 6.929688 C 3.136719 7.261719 3.136719 7.671875 3.332031 8.003906 C 3.523438 8.335938 3.882812 8.539062 4.265625 8.535156 L 18.332031 8.535156 C 18.777344 9.769531 19.953125 10.667969 21.332031 10.667969 C 22.710938 10.667969 23.886719 9.769531 24.332031 8.535156 L 27.734375 8.535156 C 28.117188 8.539062 28.476562 8.335938 28.667969 8.003906 C 28.863281 7.671875 28.863281 7.261719 28.667969 6.929688 C 28.476562 6.597656 28.117188 6.394531 27.734375 6.398438 L 24.332031 6.398438 C 23.886719 5.164062 22.710938 4.265625 21.332031 4.265625 Z M 21.332031 6.398438 C 21.914062 6.398438 22.355469 6.835938 22.386719 7.40625 C 22.386719 7.445312 22.386719 7.488281 22.386719 7.527344 C 22.355469 8.097656 21.914062 8.535156 21.332031 8.535156 C 20.753906 8.535156 20.3125 8.097656 20.277344 7.527344 C 20.28125 7.484375 20.28125 7.445312 20.277344 7.402344 C 20.3125 6.835938 20.753906 6.398438 21.332031 6.398438 Z M 12.800781 12.800781 C 11.421875 12.800781 10.246094 13.699219 9.800781 14.933594 L 4.265625 14.933594 C 3.882812 14.929688 3.523438 15.128906 3.332031 15.460938 C 3.136719 15.792969 3.136719 16.207031 3.332031 16.539062 C 3.523438 16.871094 3.882812 17.070312 4.265625 17.066406 L 9.800781 17.066406 C 10.246094 18.300781 11.421875 19.199219 12.800781 19.199219 C 14.179688 19.199219 15.355469 18.300781 15.800781 17.066406 L 27.734375 17.066406 C 28.117188 17.070312 28.476562 16.871094 28.667969 16.539062 C 28.863281 16.207031 28.863281 15.792969 28.667969 15.460938 C 28.476562 15.128906 28.117188 14.929688 27.734375 14.933594 L 15.800781 14.933594 C 15.355469 13.699219 14.179688 12.800781 12.800781 12.800781 Z M 12.800781 14.933594 C 13.378906 14.933594 13.824219 15.371094 13.855469 15.941406 C 13.851562 15.980469 13.851562 16.023438 13.855469 16.0625 C 13.820312 16.632812 13.378906 17.066406 12.800781 17.066406 C 12.21875 17.066406 11.777344 16.628906 11.746094 16.058594 C 11.75 16.019531 11.75 15.976562 11.746094 15.9375 C 11.777344 15.367188 12.21875 14.933594 12.800781 14.933594 Z M 17.066406 21.332031 C 15.6875 21.332031 14.511719 22.230469 14.066406 23.464844 L 4.265625 23.464844 C 3.882812 23.460938 3.523438 23.664062 3.332031 23.996094 C 3.136719 24.328125 3.136719 24.738281 3.332031 25.070312 C 3.523438 25.402344 3.882812 25.605469 4.265625 25.601562 L 14.066406 25.601562 C 14.511719 26.835938 15.6875 27.734375 17.066406 27.734375 C 18.445312 27.734375 19.621094 26.835938 20.066406 25.601562 L 27.734375 25.601562 C 28.117188 25.605469 28.476562 25.402344 28.667969 25.070312 C 28.863281 24.738281 28.863281 24.328125 28.667969 23.996094 C 28.476562 23.664062 28.117188 23.460938 27.734375 23.464844 L 20.066406 23.464844 C 19.621094 22.230469 18.445312 21.332031 17.066406 21.332031 Z M 17.066406 23.464844 C 17.648438 23.464844 18.089844 23.902344 18.121094 24.472656 C 18.117188 24.515625 18.117188 24.554688 18.121094 24.597656 C 18.089844 25.164062 17.644531 25.601562 17.066406 25.601562 C 16.488281 25.601562 16.042969 25.164062 16.011719 24.59375 C 16.015625 24.554688 16.015625 24.511719 16.011719 24.472656 C 16.046875 23.902344 16.488281 23.464844 17.066406 23.464844 Z M 17.066406 23.464844 "/>
</g>
</svg>
