<svg role="img" viewBox="0 0 32 32" xmlns="http://www.w3.org/2000/svg"><path d="M21.332 4.266c-1.379 0-2.555.898-3 2.132H4.266a1.067 1.067 0 1 0 0 2.137h14.066c.445 1.235 1.621 2.133 3 2.133s2.555-.898 3-2.133h3.402a1.067 1.067 0 1 0 0-2.137h-3.402c-.445-1.234-1.621-2.132-3-2.132m0 2.132c.582 0 1.023.438 1.055 1.008v.121a1.043 1.043 0 0 1-1.055 1.008c-.578 0-1.02-.437-1.055-1.008a.668.668 0 0 0 0-.125 1.048 1.048 0 0 1 1.055-1.004m-8.531 6.403c-1.38 0-2.555.898-3 2.133H4.266a1.065 1.065 0 1 0 0 2.133H9.8c.445 1.234 1.62 2.132 3 2.132 1.379 0 2.554-.898 3-2.133h11.933a1.065 1.065 0 1 0 0-2.133H15.801c-.446-1.234-1.621-2.132-3-2.132m0 2.133c.578 0 1.023.437 1.054 1.007a.627.627 0 0 0 0 .121 1.045 1.045 0 0 1-1.054 1.004 1.043 1.043 0 0 1-1.055-1.007.627.627 0 0 0 0-.122 1.04 1.04 0 0 1 1.055-1.003m4.265 6.398c-1.378 0-2.554.898-3 2.133h-9.8a1.067 1.067 0 1 0 0 2.137h9.8c.446 1.234 1.621 2.132 3 2.132 1.38 0 2.555-.898 3-2.132h7.668a1.067 1.067 0 1 0 0-2.137h-7.668c-.445-1.235-1.62-2.133-3-2.133m0 2.133c.582 0 1.024.437 1.055 1.008a.668.668 0 0 0 0 .125 1.045 1.045 0 0 1-1.055 1.004 1.046 1.046 0 0 1-1.054-1.008.627.627 0 0 0 0-.121c.035-.57.476-1.008 1.054-1.008m0 0" style="stroke:none;fill-rule:nonzero;fill:rgb(0%,0%,0%);fill-opacity:1"/></svg>