<?xml version="1.0" encoding="UTF-8"?>
<svg xmlns="http://www.w3.org/2000/svg" xmlns:xlink="http://www.w3.org/1999/xlink" width="37.827417" height="32" viewBox="0 0 37.827417 32" version="1.1">
<g id="surface1">
<path style=" stroke:none;fill-rule:nonzero;fill:rgb(0%,0%,0%);fill-opacity:1;" d="M 6.636719 14.550781 L 8.546875 14.429688 C 8.566406 14.683594 8.65625 14.929688 8.800781 15.136719 C 9.015625 15.402344 9.347656 15.550781 9.6875 15.53125 C 9.925781 15.546875 10.160156 15.476562 10.347656 15.332031 C 10.492188 15.21875 10.578125 15.046875 10.582031 14.863281 C 10.578125 14.6875 10.5 14.519531 10.363281 14.40625 C 10.054688 14.210938 9.703125 14.082031 9.335938 14.03125 C 8.65625 13.921875 8.007812 13.648438 7.453125 13.238281 C 7.082031 12.929688 6.871094 12.46875 6.882812 11.984375 C 6.882812 11.648438 6.984375 11.316406 7.175781 11.039062 C 7.390625 10.722656 7.695312 10.476562 8.050781 10.335938 C 8.558594 10.144531 9.101562 10.058594 9.648438 10.082031 C 10.316406 10.039062 10.980469 10.199219 11.550781 10.546875 C 12.011719 10.902344 12.296875 11.441406 12.328125 12.023438 L 10.4375 12.136719 C 10.414062 11.894531 10.308594 11.664062 10.132812 11.492188 C 9.9375 11.347656 9.703125 11.277344 9.464844 11.292969 C 9.273438 11.277344 9.085938 11.328125 8.933594 11.4375 C 8.820312 11.527344 8.753906 11.660156 8.753906 11.800781 C 8.757812 11.910156 8.8125 12.011719 8.898438 12.078125 C 9.101562 12.207031 9.332031 12.289062 9.570312 12.320312 C 10.21875 12.4375 10.851562 12.628906 11.457031 12.894531 C 11.796875 13.050781 12.085938 13.304688 12.289062 13.617188 C 12.460938 13.910156 12.550781 14.242188 12.546875 14.582031 C 12.550781 14.992188 12.429688 15.394531 12.203125 15.738281 C 11.964844 16.09375 11.628906 16.371094 11.234375 16.539062 C 10.734375 16.734375 10.203125 16.828125 9.667969 16.8125 C 8.5625 16.8125 7.792969 16.59375 7.371094 16.171875 C 6.941406 15.734375 6.683594 15.160156 6.644531 14.546875 Z M 2.792969 4.8125 L 3.742188 4.8125 L 3.742188 2.523438 C 3.742188 2.210938 3.996094 1.953125 4.308594 1.949219 L 5.332031 1.949219 L 5.332031 0.574219 C 5.332031 0.421875 5.394531 0.273438 5.503906 0.164062 C 5.617188 0.0585938 5.765625 -0.00390625 5.917969 0 L 15.257812 0 C 15.578125 0 15.835938 0.257812 15.835938 0.574219 L 15.835938 1.949219 L 34.152344 1.949219 C 34.46875 1.949219 34.726562 2.207031 34.726562 2.523438 L 34.726562 4.8125 L 35.777344 4.8125 C 36.09375 4.8125 36.351562 5.070312 36.351562 5.386719 C 36.359375 5.429688 36.359375 5.46875 36.351562 5.511719 L 34.328125 20.316406 C 34.265625 20.792969 34.046875 21.230469 33.710938 21.570312 C 33.386719 21.902344 32.945312 22.089844 32.480469 22.089844 L 21.316406 22.089844 L 21.316406 23.804688 L 21.371094 23.804688 C 21.824219 23.808594 22.1875 24.175781 22.1875 24.628906 L 22.1875 26.109375 L 26.191406 26.109375 C 26.550781 26.109375 26.867188 26.34375 26.972656 26.683594 L 35.542969 26.683594 C 36.46875 26.640625 37.320312 27.195312 37.652344 28.0625 C 37.769531 28.355469 37.828125 28.671875 37.828125 28.984375 C 37.828125 29.300781 37.769531 29.617188 37.652344 29.910156 C 37.316406 30.773438 36.46875 31.328125 35.542969 31.285156 L 27.007812 31.285156 C 26.960938 31.699219 26.609375 32.015625 26.191406 32.015625 L 12.289062 32.015625 C 11.871094 32.015625 11.519531 31.699219 11.472656 31.285156 L 2.285156 31.285156 C 1.355469 31.324219 0.503906 30.765625 0.175781 29.894531 C 0.0585938 29.601562 0 29.285156 0 28.972656 C 0 28.65625 0.0585938 28.339844 0.175781 28.046875 C 0.507812 27.183594 1.359375 26.625 2.285156 26.667969 L 11.519531 26.667969 C 11.625 26.328125 11.941406 26.09375 12.300781 26.09375 L 15.601562 26.09375 L 15.601562 24.628906 C 15.601562 24.175781 15.96875 23.808594 16.421875 23.808594 L 16.726562 23.808594 L 16.726562 22.085938 L 5.542969 22.085938 C 5.0625 22.089844 4.605469 21.894531 4.277344 21.546875 C 3.945312 21.207031 3.742188 20.765625 3.695312 20.292969 L 2.128906 5.445312 C 2.113281 5.300781 2.152344 5.152344 2.246094 5.035156 C 2.339844 4.910156 2.484375 4.832031 2.640625 4.816406 C 2.691406 4.816406 2.742188 4.816406 2.792969 4.816406 Z M 17.8125 23.800781 L 20.230469 23.800781 L 20.230469 22.109375 L 17.8125 22.109375 Z M 27.011719 27.765625 L 27.011719 30.183594 L 35.542969 30.183594 C 36.015625 30.207031 36.453125 29.929688 36.632812 29.492188 C 36.695312 29.324219 36.730469 29.152344 36.726562 28.972656 C 36.730469 28.796875 36.695312 28.625 36.632812 28.460938 C 36.453125 28.015625 36.007812 27.734375 35.53125 27.765625 Z M 11.46875 30.183594 L 11.46875 27.765625 L 2.285156 27.765625 C 1.804688 27.734375 1.363281 28.015625 1.183594 28.460938 C 1.117188 28.625 1.085938 28.796875 1.085938 28.972656 C 1.085938 29.152344 1.121094 29.324219 1.183594 29.492188 C 1.363281 29.933594 1.804688 30.210938 2.285156 30.183594 Z M 3.339844 5.960938 L 4.828125 20.175781 C 4.847656 20.390625 4.9375 20.589844 5.085938 20.75 C 5.207031 20.867188 5.371094 20.933594 5.542969 20.933594 L 32.488281 20.933594 C 32.652344 20.929688 32.808594 20.863281 32.921875 20.75 C 33.078125 20.585938 33.171875 20.378906 33.195312 20.15625 L 35.128906 5.960938 Z M 4.894531 3.101562 L 4.894531 4.808594 L 33.574219 4.566406 L 33.574219 3.101562 L 15.257812 3.101562 C 15.105469 3.101562 14.960938 3.039062 14.851562 2.933594 C 14.742188 2.824219 14.679688 2.675781 14.679688 2.523438 L 14.679688 1.152344 L 6.496094 1.152344 L 6.496094 2.523438 C 6.496094 2.84375 6.238281 3.101562 5.917969 3.101562 Z M 13.605469 10.179688 L 18.578125 10.179688 L 18.578125 11.578125 L 15.625 11.578125 L 15.625 12.71875 L 18.164062 12.71875 L 18.164062 14.035156 L 15.625 14.035156 L 15.625 16.6875 L 13.605469 16.6875 Z M 19.253906 10.179688 L 25.371094 10.179688 L 25.371094 11.789062 L 23.320312 11.789062 L 23.320312 16.703125 L 21.308594 16.703125 L 21.308594 11.800781 L 19.253906 11.800781 Z M 26.3125 10.179688 L 29.660156 10.179688 C 30.253906 10.136719 30.839844 10.320312 31.296875 10.699219 C 31.679688 11.09375 31.878906 11.632812 31.84375 12.179688 C 31.875 12.753906 31.65625 13.316406 31.25 13.71875 C 30.851562 14.09375 30.246094 14.28125 29.4375 14.277344 L 28.320312 14.277344 L 28.320312 16.683594 L 26.3125 16.683594 Z M 28.332031 12.949219 L 28.828125 12.949219 C 29.117188 12.980469 29.410156 12.90625 29.652344 12.746094 C 29.804688 12.621094 29.890625 12.429688 29.886719 12.230469 C 29.890625 12.035156 29.816406 11.847656 29.683594 11.710938 C 29.460938 11.542969 29.183594 11.464844 28.910156 11.496094 L 28.320312 11.496094 L 28.320312 12.949219 Z M 28.332031 12.949219 "/>
</g>
</svg>
