<?xml version="1.0" encoding="utf-8"?>
<svg xmlns="http://www.w3.org/2000/svg" viewBox="0 0 50 50" fill="#000000"><path d="M 46.214844 7.847656 C 38.8125 6.222656 34.441406 3.921875 31.25 2.242188 C 28.769531 0.941406 26.980469 0 25 0 C 23.019531 0 21.230469 0.941406 18.75 2.242188 C 15.558594 3.921875 11.1875 6.222656 3.785156 7.847656 L 3 8.019531 L 3 8.824219 C 3 39.285156 24.363281 49.503906 24.582031 49.601563 L 25.019531 49.804688 L 25.453125 49.585938 C 25.667969 49.476563 47 38.273438 47 8.824219 L 47 8.019531 Z M 26.796875 36.9375 C 26.796875 37.152344 26.652344 37.292969 26.441406 37.292969 L 23.714844 37.292969 C 23.496094 37.292969 23.355469 37.148438 23.355469 36.9375 L 23.355469 33.851563 C 23.355469 33.636719 23.496094 33.492188 23.714844 33.492188 L 26.441406 33.492188 C 26.65625 33.492188 26.796875 33.636719 26.796875 33.851563 Z M 26.796875 29.640625 C 26.796875 29.855469 26.652344 30 26.441406 30 L 23.714844 30 C 23.496094 30 23.355469 29.855469 23.355469 29.640625 L 23.355469 12.558594 C 23.355469 12.34375 23.496094 12.199219 23.714844 12.199219 L 26.441406 12.199219 C 26.65625 12.199219 26.796875 12.34375 26.796875 12.558594 Z" fill="#000000"/></svg>
