<svg role="img" viewBox="0 0 32 32" xmlns="http://www.w3.org/2000/svg"><path d="M29.578 5.023C24.84 3.984 22.043 2.512 20 1.433 18.414.603 17.266 0 16 0s-2.414.602-4 1.434c-2.043 1.078-4.84 2.55-9.578 3.59l-.5.109v.515c0 19.493 13.672 26.036 13.812 26.098l.278.129.277-.14c.137-.07 13.79-7.239 13.79-26.087v-.515Zm-12.43 18.618c0 .136-.09.226-.226.226h-1.746a.215.215 0 0 1-.227-.226v-1.977c0-.137.09-.23.227-.23h1.746c.137 0 .226.093.226.23Zm0-4.672c0 .14-.09.23-.226.23h-1.746c-.137 0-.227-.09-.227-.23V8.039c0-.14.09-.23.227-.23h1.746c.137 0 .226.09.226.23Zm0 0" style="stroke:none;fill-rule:nonzero;fill:rgb(0%,0%,0%);fill-opacity:1"/></svg>