<?xml version="1.0" encoding="UTF-8"?>
<svg xmlns="http://www.w3.org/2000/svg" xmlns:xlink="http://www.w3.org/1999/xlink" width="32" height="32" viewBox="0 0 32 32" version="1.1">
<g id="surface1">
<path style=" stroke:none;fill-rule:nonzero;fill:rgb(0%,0%,0%);fill-opacity:1;" d="M 29.578125 5.023438 C 24.839844 3.984375 22.042969 2.511719 20 1.433594 C 18.414062 0.601562 17.265625 0 16 0 C 14.734375 0 13.585938 0.601562 12 1.433594 C 9.957031 2.511719 7.160156 3.984375 2.421875 5.023438 L 1.921875 5.132812 L 1.921875 5.648438 C 1.921875 25.140625 15.59375 31.683594 15.734375 31.746094 L 16.011719 31.875 L 16.289062 31.734375 C 16.425781 31.664062 30.078125 24.496094 30.078125 5.648438 L 30.078125 5.132812 Z M 17.148438 23.640625 C 17.148438 23.777344 17.058594 23.867188 16.921875 23.867188 L 15.175781 23.867188 C 15.113281 23.871094 15.054688 23.847656 15.011719 23.804688 C 14.96875 23.761719 14.945312 23.703125 14.949219 23.640625 L 14.949219 21.664062 C 14.949219 21.527344 15.039062 21.433594 15.175781 21.433594 L 16.921875 21.433594 C 17.058594 21.433594 17.148438 21.527344 17.148438 21.664062 Z M 17.148438 18.96875 C 17.148438 19.109375 17.058594 19.199219 16.921875 19.199219 L 15.175781 19.199219 C 15.039062 19.199219 14.949219 19.109375 14.949219 18.96875 L 14.949219 8.039062 C 14.949219 7.898438 15.039062 7.808594 15.175781 7.808594 L 16.921875 7.808594 C 17.058594 7.808594 17.148438 7.898438 17.148438 8.039062 Z M 17.148438 18.96875 "/>
</g>
</svg>
