<svg role="img" viewBox="0 0 32 32" xmlns="http://www.w3.org/2000/svg"><path d="M16 0c-1.266 0-2.414.605-4 1.441-2.043 1.075-4.844 2.54-9.578 3.579l-.5.12v.5c0 19.497 13.68 26.036 13.816 26.098l.282.14.261-.14c.137-.066 13.797-7.25 13.797-26.097v-.5l-.5-.121C24.844 3.98 22.043 2.516 20 1.44 18.414.605 17.266 0 16 0m0 8.32a6.397 6.397 0 0 1 6.398 6.399A6.4 6.4 0 0 1 16 21.12a6.4 6.4 0 0 1-6.398-6.402A6.397 6.397 0 0 1 16 8.32m-.02 1.7c-2.359.043-2.656 1.789-2.14 3.78-.094.06-.238.223-.2.54.07.59.31.746.462.762.058.546.421 1.195.617 1.296 0 .395.02.692-.02 1.122-.222.601-1.066.855-1.898 1.199A5.066 5.066 0 0 0 16 19.839c1.21 0 2.324-.433 3.2-1.14-.829-.344-1.657-.578-1.88-1.18-.039-.43-.02-.726-.02-1.12.196-.102.544-.75.598-1.297.153-.016.391-.172.461-.762.04-.317-.105-.48-.199-.54.25-.75.762-3.062-.96-3.3-.177-.312-.63-.48-1.22-.48m0 0" style="stroke:none;fill-rule:nonzero;fill:rgb(0%,0%,0%);fill-opacity:1"/></svg>