<?xml version="1.0" encoding="utf-8"?>
<svg xmlns="http://www.w3.org/2000/svg" viewBox="0 0 50 50" fill="#000000"><path d="M 25 0 C 23.019531 0 21.226563 0.945313 18.75 2.25 C 15.558594 3.929688 11.183594 6.21875 3.78125 7.84375 L 3 8.03125 L 3 8.8125 C 3 39.277344 24.378906 49.496094 24.59375 49.59375 L 25.03125 49.8125 L 25.4375 49.59375 C 25.652344 49.484375 47 38.261719 47 8.8125 L 47 8.03125 L 46.21875 7.84375 C 38.816406 6.21875 34.441406 3.929688 31.25 2.25 C 28.773438 0.945313 26.980469 0 25 0 Z M 25 13 C 30.523438 13 35 17.476563 35 23 C 35 28.523438 30.523438 33 25 33 C 19.476563 33 15 28.523438 15 23 C 15 17.476563 19.476563 13 25 13 Z M 24.96875 15.65625 C 21.28125 15.722656 20.816406 18.449219 21.625 21.5625 C 21.480469 21.652344 21.253906 21.910156 21.3125 22.40625 C 21.421875 23.328125 21.792969 23.574219 22.03125 23.59375 C 22.125 24.453125 22.695313 25.464844 23 25.625 C 23 26.238281 23.03125 26.703125 22.96875 27.375 C 22.617188 28.316406 21.300781 28.710938 20 29.25 C 21.371094 30.351563 23.109375 31 25 31 C 26.894531 31 28.628906 30.320313 30 29.21875 C 28.707031 28.679688 27.410156 28.316406 27.0625 27.375 C 27 26.703125 27.03125 26.238281 27.03125 25.625 C 27.335938 25.464844 27.878906 24.453125 27.96875 23.59375 C 28.207031 23.574219 28.578125 23.328125 28.6875 22.40625 C 28.746094 21.910156 28.519531 21.652344 28.375 21.5625 C 28.765625 20.390625 29.566406 16.78125 26.875 16.40625 C 26.597656 15.917969 25.890625 15.65625 24.96875 15.65625 Z" fill="#000000"/></svg>
