<?xml version="1.0" encoding="UTF-8"?>
<svg xmlns="http://www.w3.org/2000/svg" xmlns:xlink="http://www.w3.org/1999/xlink" width="32" height="32" viewBox="0 0 32 32" version="1.1">
<g id="surface1">
<path style=" stroke:none;fill-rule:evenodd;fill:rgb(0%,0%,0%);fill-opacity:1;" d="M 16 9.675781 C 21.613281 9.675781 26.660156 12.121094 30.128906 16 C 26.660156 19.878906 21.613281 22.324219 16 22.324219 C 10.386719 22.324219 5.339844 19.878906 1.871094 16 C 5.339844 12.121094 10.386719 9.675781 16 9.675781 M 16 11.09375 C 17.300781 11.09375 18.546875 11.609375 19.464844 12.53125 C 20.359375 13.425781 20.90625 14.648438 20.90625 16 C 20.90625 17.351562 20.359375 18.578125 19.46875 19.464844 C 18.574219 20.359375 17.351562 20.90625 16 20.90625 C 14.648438 20.90625 13.417969 20.359375 12.535156 19.46875 C 11.640625 18.574219 11.09375 17.351562 11.09375 16 C 11.09375 14.648438 11.640625 13.417969 12.53125 12.535156 C 13.449219 11.613281 14.699219 11.09375 16 11.09375 M 18.765625 13.234375 C 18.058594 12.53125 17.078125 12.09375 16 12.09375 C 14.921875 12.09375 13.941406 12.53125 13.238281 13.234375 C 12.53125 13.941406 12.09375 14.917969 12.09375 16 C 12.09375 17.078125 12.53125 18.058594 13.234375 18.757812 C 13.941406 19.46875 14.921875 19.90625 16 19.90625 C 17.078125 19.90625 18.058594 19.46875 18.761719 18.765625 C 19.46875 18.058594 19.90625 17.078125 19.90625 16 C 19.90625 14.917969 19.46875 13.941406 18.765625 13.234375 "/>
</g>
</svg>
