<?xml version="1.0" encoding="UTF-8"?>
<svg width="100pt" height="100pt" version="1.1" viewBox="0 0 100 100"
    xmlns="http://www.w3.org/2000/svg">
    <path
        d="m50 30.234c17.547 0 33.312 7.6406 44.156 19.766-10.844 12.125-26.609 19.766-44.156 19.766s-33.312-7.6406-44.156-19.766c10.844-12.125 26.609-19.766 44.156-19.766zm0 4.4375c4.2188 0 8.0625 1.7031 10.828 4.4844 2.7969 2.7969 4.5 6.625 4.5 10.844s-1.7031 8.0625-4.4844 10.828c-2.7969 2.7969-6.625 4.5-10.844 4.5s-8.0625-1.7031-10.828-4.4844c-2.7969-2.7969-4.5-6.625-4.5-10.844s1.7031-8.0625 4.4844-10.828c2.7969-2.7969 6.625-4.5 10.844-4.5zm8.6406 6.6875c-2.2031-2.2031-5.2656-3.5625-8.6406-3.5625s-6.4375 1.3594-8.625 3.5625c-2.2188 2.2031-3.5781 5.2656-3.5781 8.6406s1.3594 6.4375 3.5625 8.625c2.2031 2.2188 5.2656 3.5781 8.6406 3.5781s6.4375-1.3594 8.625-3.5625c2.2188-2.2031 3.5781-5.2656 3.5781-8.6406s-1.3594-6.4375-3.5625-8.6406z"
        fill-rule="evenodd" />
</svg>
