<svg role="img" viewBox="0 0 100 100" xmlns="http://www.w3.org/2000/svg"><path d="M50 30.234c17.547 0 33.312 7.64 44.156 19.766C83.312 62.125 67.547 69.766 50 69.766S16.688 62.126 5.844 50C16.688 37.875 32.453 30.234 50 30.234m0 4.438a15.23 15.23 0 0 1 10.828 4.484c2.797 2.797 4.5 6.625 4.5 10.844s-1.703 8.062-4.484 10.828c-2.797 2.797-6.625 4.5-10.844 4.5s-8.063-1.703-10.828-4.485c-2.797-2.796-4.5-6.625-4.5-10.844s1.703-8.062 4.484-10.828A15.27 15.27 0 0 1 50 34.671m8.64 6.687c-2.203-2.203-5.265-3.562-8.64-3.562s-6.437 1.359-8.625 3.562c-2.219 2.203-3.578 5.266-3.578 8.64s1.36 6.438 3.562 8.626c2.203 2.218 5.266 3.578 8.641 3.578s6.438-1.36 8.625-3.563c2.219-2.203 3.578-5.265 3.578-8.64s-1.36-6.438-3.562-8.641" fill-rule="evenodd"/></svg>