<svg role="img" viewBox="0 0 32 32" xmlns="http://www.w3.org/2000/svg"><path d="M31 16c0 8.285-6.715 15-15 15S1 24.285 1 16 7.715 1 16 1s15 6.715 15 15m0 0" style="stroke:none;fill-rule:nonzero;fill:rgb(100%,35.294119%,47.450981%);fill-opacity:1"/><path d="M28 16c0 6.629-5.371 12-12 12S4 22.629 4 16 9.371 4 16 4s12 5.371 12 12m0 0" style="stroke:none;fill-rule:nonzero;fill:rgb(100%,100%,100%);fill-opacity:1"/><path d="M21 16c-.898-1.55-.75-2.95-.75-4 0-2.2-1.25-3.55-3.05-4.102 0-.699-.4-1.296-1.2-1.296-.8 0-1.2.546-1.2 1.296C13 8.45 11.75 9.801 11.75 12c0 1.05.148 2.45-.75 4-.602 1.102-1.95 1.352-1.95 4.55H23c-.05-3.25-1.352-3.448-2-4.55m-4.602 5.45c0 1.198-1 2.198-2.199 2.198A2.22 2.22 0 0 1 12 21.449z" style="stroke:none;fill-rule:nonzero;fill:rgb(20%,20%,20%);fill-opacity:1"/><path d="m4.613 6.738 2.125-2.12 20.645 20.644-2.121 2.12Zm0 0" style="stroke:none;fill-rule:nonzero;fill:rgb(100%,35.294119%,47.450981%);fill-opacity:1"/></svg>