<?xml version="1.0" encoding="UTF-8"?>
<svg xmlns="http://www.w3.org/2000/svg" xmlns:xlink="http://www.w3.org/1999/xlink" width="32" height="32" viewBox="0 0 32 32" version="1.1">
<g id="surface1">
<path style=" stroke:none;fill-rule:nonzero;fill:rgb(100%,35.294119%,47.450981%);fill-opacity:1;" d="M 31 16 C 31 24.285156 24.285156 31 16 31 C 7.714844 31 1 24.285156 1 16 C 1 7.714844 7.714844 1 16 1 C 24.285156 1 31 7.714844 31 16 M 31 16 "/>
<path style=" stroke:none;fill-rule:nonzero;fill:rgb(100%,100%,100%);fill-opacity:1;" d="M 28 16 C 28 22.628906 22.628906 28 16 28 C 9.371094 28 4 22.628906 4 16 C 4 9.371094 9.371094 4 16 4 C 22.628906 4 28 9.371094 28 16 M 28 16 "/>
<path style=" stroke:none;fill-rule:nonzero;fill:rgb(20%,20%,20%);fill-opacity:1;" d="M 21 16 C 20.101562 14.449219 20.25 13.050781 20.25 12 C 20.25 9.800781 19 8.449219 17.199219 7.898438 C 17.199219 7.199219 16.800781 6.601562 16 6.601562 C 15.199219 6.601562 14.800781 7.148438 14.800781 7.898438 C 13 8.449219 11.75 9.800781 11.75 12 C 11.75 13.050781 11.898438 14.449219 11 16 C 10.398438 17.101562 9.050781 17.351562 9.050781 20.550781 L 23 20.550781 C 22.949219 17.300781 21.648438 17.101562 21 16 M 16.398438 21.449219 C 16.398438 22.648438 15.398438 23.648438 14.199219 23.648438 C 12.988281 23.636719 12.011719 22.660156 12 21.449219 Z M 16.398438 21.449219 "/>
<path style=" stroke:none;fill-rule:nonzero;fill:rgb(100%,35.294119%,47.450981%);fill-opacity:1;" d="M 4.613281 6.738281 L 6.738281 4.617188 L 27.382812 25.261719 L 25.261719 27.382812 Z M 4.613281 6.738281 "/>
</g>
</svg>
