<svg xmlns="http://www.w3.org/2000/svg" xmlns:xlink="http://www.w3.org/1999/xlink" width="34" height="34" stroke="#000" stroke-linecap="round" stroke-linejoin="round" fill="#fff" fill-rule="evenodd"><g stroke-width="1.8518"><path d="M9.7259 21.1327c0-1.8868 1.4272-3.4068 3.2-3.4068s3.2 1.52 3.2 3.4068v8.386c0 1.8873-1.4272 3.4072-3.2 3.4072s-3.2-1.5199-3.2-3.4068z" fill="#e01e5a" stroke="#e01e5a"/><use xlink:href="#B" fill="#ecb22d" stroke="#ecb22d"/><path d="M17.7259 4.3327c0-1.8868 1.4272-3.4068 3.2-3.4068s3.2 1.52 3.2 3.4068v8.3864c0 1.8868-1.4272 3.4068-3.2 3.4068s-3.2-1.52-3.2-3.4068z" fill="#2fb67c" stroke="#2fb67c"/><use xlink:href="#B" x="-16.8" y="-8" fill="#36c5f1" stroke="#36c5f1"/><g stroke-linejoin="miter"><path d="M17.7259 29.7259a3.193 3.193 0 1 0 6.4 0c0-1.7728-1.4272-3.2-3.2-3.2h-3.2z" fill="#ecb22d" stroke="#ecb22d"/><path d="M29.7259 16.1259h-3.2v-3.2c0-1.7728 1.4272-3.2 3.2-3.2s3.2 1.4272 3.2 3.2-1.4272 3.2-3.2 3.2z" fill="#2fb67c" stroke="#2fb67c"/><path d="M4.1259 17.7259h3.2v3.2c0 1.7728-1.4272 3.2-3.2 3.2s-3.2-1.4272-3.2-3.2 1.4272-3.2 3.2-3.2z" fill="#e01e5a" stroke="#e01e5a"/><path d="M16.1259 4.1259v3.2h-3.2c-1.7728 0-3.2-1.4272-3.2-3.2s1.4272-3.2 3.2-3.2 3.2 1.4272 3.2 3.2z" fill="#36c5f1" stroke="#36c5f1"/></g></g><defs ><path id="B" d="M21.1327 24.1259c-1.8868 0-3.4068-1.4272-3.4068-3.2s1.52-3.2 3.4068-3.2h8.3864c1.8868 0 3.4068 1.4272 3.4068 3.2s-1.52 3.2-3.4068 3.2z"/></defs></svg>