<svg role="img" viewBox="0 0 32 32" xmlns="http://www.w3.org/2000/svg"><path d="M9.724 21.134c0-1.889 1.428-3.408 3.2-3.408 1.777 0 3.2 1.52 3.2 3.408v8.384c0 1.888-1.423 3.407-3.2 3.407-1.772 0-3.2-1.519-3.2-3.407Zm0 0" style="fill-rule:evenodd;fill:rgb(87.843138%,11.764706%,35.294119%);fill-opacity:1;stroke-width:1.8518;stroke-linecap:round;stroke-linejoin:round;stroke:rgb(87.843138%,11.764706%,35.294119%);stroke-opacity:1;stroke-miterlimit:4" transform="scale(.94118)"/><path d="M21.134 24.126c-1.889 0-3.408-1.428-3.408-3.2 0-1.772 1.52-3.2 3.408-3.2h8.384c1.888 0 3.407 1.428 3.407 3.2 0 1.772-1.519 3.2-3.407 3.2Zm0 0" style="fill-rule:evenodd;fill:rgb(92.54902%,69.803923%,17.647059%);fill-opacity:1;stroke-width:1.8518;stroke-linecap:round;stroke-linejoin:round;stroke:rgb(92.54902%,69.803923%,17.647059%);stroke-opacity:1;stroke-miterlimit:4" transform="scale(.94118)"/><path d="M17.726 4.333c0-1.888 1.428-3.407 3.2-3.407 1.772 0 3.2 1.519 3.2 3.407v8.388c0 1.884-1.428 3.403-3.2 3.403-1.772 0-3.2-1.519-3.2-3.403Zm0 0" style="fill-rule:evenodd;fill:rgb(18.431373%,71.372551%,48.627451%);fill-opacity:1;stroke-width:1.8518;stroke-linecap:round;stroke-linejoin:round;stroke:rgb(18.431373%,71.372551%,48.627451%);stroke-opacity:1;stroke-miterlimit:4" transform="scale(.94118)"/><path d="M21.133 24.124c-1.888 0-3.407-1.423-3.407-3.2 0-1.772 1.519-3.2 3.407-3.2h8.388c1.884 0 3.403 1.428 3.403 3.2 0 1.777-1.519 3.2-3.403 3.2Zm0 0" style="fill-rule:evenodd;fill:rgb(21.176471%,77.254903%,94.509804%);fill-opacity:1;stroke-width:1.8518;stroke-linecap:round;stroke-linejoin:round;stroke:rgb(21.176471%,77.254903%,94.509804%);stroke-opacity:1;stroke-miterlimit:4" transform="translate(-15.812 -7.53)scale(.94118)"/><path d="M17.726 29.725a3.2 3.2 0 1 0 6.4 0c0-1.772-1.428-3.2-3.2-3.2h-3.2Zm0 0" style="fill-rule:evenodd;fill:rgb(92.54902%,69.803923%,17.647059%);fill-opacity:1;stroke-width:1.8518;stroke-linecap:round;stroke-linejoin:miter;stroke:rgb(92.54902%,69.803923%,17.647059%);stroke-opacity:1;stroke-miterlimit:4" transform="scale(.94118)"/><path d="M29.725 16.124h-3.2v-3.2c0-1.772 1.428-3.2 3.2-3.2 1.772 0 3.2 1.428 3.2 3.2a3.19 3.19 0 0 1-3.2 3.2Zm0 0" style="fill-rule:evenodd;fill:rgb(18.431373%,71.372551%,48.627451%);fill-opacity:1;stroke-width:1.8518;stroke-linecap:round;stroke-linejoin:miter;stroke:rgb(18.431373%,71.372551%,48.627451%);stroke-opacity:1;stroke-miterlimit:4" transform="scale(.94118)"/><path d="M4.125 17.726h3.2v3.2c0 1.772-1.427 3.2-3.2 3.2a3.194 3.194 0 0 1-3.2-3.2c0-1.772 1.428-3.2 3.2-3.2Zm0 0" style="fill-rule:evenodd;fill:rgb(87.843138%,11.764706%,35.294119%);fill-opacity:1;stroke-width:1.8518;stroke-linecap:round;stroke-linejoin:miter;stroke:rgb(87.843138%,11.764706%,35.294119%);stroke-opacity:1;stroke-miterlimit:4" transform="scale(.94118)"/><path d="M16.124 4.125v3.2h-3.2a3.194 3.194 0 0 1-3.2-3.2c0-1.772 1.428-3.2 3.2-3.2a3.19 3.19 0 0 1 3.2 3.2Zm0 0" style="fill-rule:evenodd;fill:rgb(21.176471%,77.254903%,94.509804%);fill-opacity:1;stroke-width:1.8518;stroke-linecap:round;stroke-linejoin:miter;stroke:rgb(21.176471%,77.254903%,94.509804%);stroke-opacity:1;stroke-miterlimit:4" transform="scale(.94118)"/></svg>