<?xml version="1.0" encoding="UTF-8"?>
<svg xmlns="http://www.w3.org/2000/svg" xmlns:xlink="http://www.w3.org/1999/xlink" width="32" height="32" viewBox="0 0 32 32" version="1.1">
<g id="surface1">
<path style=" stroke:none;fill-rule:nonzero;fill:rgb(71.372551%,86.274511%,99.607843%);fill-opacity:1;" d="M 1.199219 28.398438 L 1.199219 3.601562 L 9.433594 3.601562 L 11.835938 6 L 28.398438 6 L 28.398438 28.398438 Z M 1.199219 28.398438 "/>
<path style=" stroke:none;fill-rule:nonzero;fill:rgb(27.843139%,53.333336%,78.039217%);fill-opacity:1;" d="M 9.269531 4 L 11.667969 6.398438 L 28 6.398438 L 28 28 L 1.601562 28 L 1.601562 4 Z M 9.601562 3.199219 L 0.800781 3.199219 L 0.800781 28.800781 L 28.800781 28.800781 L 28.800781 5.601562 L 12 5.601562 Z M 9.601562 3.199219 "/>
<path style=" stroke:none;fill-rule:nonzero;fill:rgb(100%,100%,100%);fill-opacity:1;" d="M 3.601562 6 L 28.398438 6 L 28.398438 20.398438 L 3.601562 20.398438 Z M 3.601562 6 "/>
<path style=" stroke:none;fill-rule:nonzero;fill:rgb(27.843139%,53.333336%,78.039217%);fill-opacity:1;" d="M 28 6.398438 L 28 20 L 4 20 L 4 6.398438 Z M 28.800781 5.601562 L 3.199219 5.601562 L 3.199219 20.800781 L 28.800781 20.800781 Z M 28.800781 5.601562 "/>
<path style=" stroke:none;fill-rule:nonzero;fill:rgb(87.450981%,94.117647%,99.607843%);fill-opacity:1;" d="M 1.277344 28.398438 L 4.332031 11.601562 L 12.921875 11.601562 L 15.320312 10 L 31.527344 10 L 28.460938 28.398438 Z M 1.277344 28.398438 "/>
<path style=" stroke:none;fill-rule:nonzero;fill:rgb(27.843139%,53.333336%,78.039217%);fill-opacity:1;" d="M 31.054688 10.398438 L 28.121094 28 L 1.757812 28 L 4.667969 12 L 13.042969 12 L 13.242188 11.867188 L 15.441406 10.398438 Z M 32 9.601562 L 15.199219 9.601562 L 12.800781 11.199219 L 4 11.199219 L 0.800781 28.800781 L 28.800781 28.800781 Z M 32 9.601562 "/>
</g>
</svg>
