<svg role="img" viewBox="0 0 32 32" xmlns="http://www.w3.org/2000/svg"><path d="M1.2 28.398V3.602h8.234L11.836 6h16.562v22.398Zm0 0" style="stroke:none;fill-rule:nonzero;fill:rgb(71.372551%,86.274511%,99.607843%);fill-opacity:1"/><path d="m9.27 4 2.398 2.398H28V28H1.602V4zm.332-.8H.8v25.6h28V5.603H12Zm0 0" style="stroke:none;fill-rule:nonzero;fill:rgb(27.843139%,53.333336%,78.039217%);fill-opacity:1"/><path d="M3.602 6h24.796v14.398H3.602Zm0 0" style="stroke:none;fill-rule:nonzero;fill:rgb(100%,100%,100%);fill-opacity:1"/><path d="M28 6.398V20H4V6.398zm.8-.796H3.2V20.8h25.6Zm0 0" style="stroke:none;fill-rule:nonzero;fill:rgb(27.843139%,53.333336%,78.039217%);fill-opacity:1"/><path d="m1.277 28.398 3.055-16.796h8.59L15.32 10h16.207l-3.066 18.398Zm0 0" style="stroke:none;fill-rule:nonzero;fill:rgb(87.450981%,94.117647%,99.607843%);fill-opacity:1"/><path d="M31.055 10.398 28.12 28H1.758l2.91-16h8.375l.2-.133 2.198-1.469zM32 9.602H15.2l-2.4 1.597H4L.8 28.801h28Zm0 0" style="stroke:none;fill-rule:nonzero;fill:rgb(27.843139%,53.333336%,78.039217%);fill-opacity:1"/></svg>