<svg role="img" viewBox="0 0 50 50" xmlns="http://www.w3.org/2000/svg"><path d="M39.906 2c-2.343 0-3.488 3.559-2.437 9.469a9.093 9.093 0 0 1 1.343-.281c-.936-7.098 2.65-4.04 3.188-7.095C42.2 2.894 41.207 2 39.906 2m7.657 2.031c-1.844.172-3.81 2.688-5.282 7.313.485.105.953.238 1.407.406 2.414-6.594 4.12-2.152 6-4.656.699-.899.226-2.18-.876-2.782-.406-.21-.824-.32-1.25-.28M40 13.094c-4.809 0-7 4.191-7 8.094 0 .652-.02 1.41-.062 2.187A14.774 14.774 0 0 1 34 29.469v.25c-.344 3.539-2.48 6.203-4.219 7.812-.242.227-.52.426-.781.625-.11.086-.23.168-.344.25-.008.008.008.024 0 .032-.14.097-.293.19-.437.28a11.44 11.44 0 0 1-.469.282c-.555.313-1.14.57-1.75.781l-.094.032c-.738.246-1.523.43-2.343.53-.13.016-.278.02-.407.032-.078.008-.14.027-.218.031l-2.063.157v-.126c-.64.516-1.219.872-1.625 1.063-.187.094-.41.172-.625.25-.11.043-.2.086-.312.125-1.114.395-2.047.492-2.094.5-.024.004-.04.027-.063.031-.008.004-.023 0-.031 0-.266.047-.54.086-.812.125-.04.008-.086.024-.126.032a56.488 56.488 0 0 1-4.187.406h-.187c-.075 0-.208.004-.344 0-.059 0-.121-.028-.188-.032-.172-.007-.367-.019-.594-.03-.019-.005-.074.003-.093 0-.469-.032-1.04-.067-1.688-.157l-.062-.031c-.38-.055-.766-.11-1.188-.188l-.562-.093v-.032c-.996-.218-2.082-.511-3.157-.937C.942 41.73 0 42.219 0 43.312 0 47.88 20.813 48 23.188 48 43.313 48 43.977 33.11 44 26.719c2.383-1.34 4-3.883 4-6.407 0-3.968-3.59-7.218-8-7.218M17 15c-4.195 0-8.246 1.672-11.094 4.594C3.286 22.285 1.902 25.809 2 29.53c.164 4.324 2.027 8.297 5.031 11.032 2.149.406 3.785.406 3.813.406 2.64-.168 5.926-.465 7.5-1.25C19.566 39.145 23 36.516 23 32.094 23 26.477 18.809 25 16.594 25 14.105 25 13 26.508 13 28c0 1.285.758 3.188 2.813 3.188.55 0 1 .449 1 1 0 .55-.45 1-1 1C12.695 33.188 11 30.52 11 28c0-2.484 1.918-5 5.594-5C19.969 23 25 25.418 25 32.094c0 4.633-1.031 5.187-2.219 6.25v.062c2.23-.172 4.121-.953 5.625-2.343 1.809-1.676 3.344-3.95 3.594-6.563.375-7.906-6.59-14.5-15-14.5"/></svg>