<?xml version="1.0" encoding="UTF-8"?>
<svg xmlns="http://www.w3.org/2000/svg" xmlns:xlink="http://www.w3.org/1999/xlink" width="32" height="32" viewBox="0 0 32 32" version="1.1">
<g id="surface1">
<path style=" stroke:none;fill-rule:nonzero;fill:rgb(0%,0%,0%);fill-opacity:1;" d="M 25.539062 1.28125 C 24.039062 1.28125 23.308594 3.558594 23.980469 7.339844 C 24.261719 7.257812 24.550781 7.199219 24.839844 7.160156 C 24.242188 2.617188 26.535156 4.574219 26.878906 2.621094 C 27.007812 1.851562 26.371094 1.28125 25.539062 1.28125 M 30.441406 2.578125 C 29.261719 2.691406 28 4.300781 27.058594 7.261719 C 27.371094 7.328125 27.667969 7.414062 27.960938 7.519531 C 29.503906 3.300781 30.597656 6.144531 31.800781 4.539062 C 32.246094 3.964844 31.945312 3.144531 31.238281 2.757812 C 30.980469 2.625 30.710938 2.554688 30.441406 2.582031 M 25.601562 8.378906 C 22.523438 8.378906 21.121094 11.0625 21.121094 13.558594 C 21.121094 13.976562 21.105469 14.460938 21.082031 14.960938 C 21.578125 16.199219 21.8125 17.527344 21.761719 18.859375 L 21.761719 19.019531 C 21.539062 21.285156 20.171875 22.988281 19.058594 24.019531 C 18.90625 24.164062 18.726562 24.292969 18.558594 24.417969 C 18.488281 24.476562 18.414062 24.527344 18.339844 24.578125 C 18.335938 24.585938 18.34375 24.59375 18.339844 24.601562 C 18.25 24.664062 18.152344 24.722656 18.058594 24.78125 C 17.960938 24.84375 17.863281 24.902344 17.761719 24.960938 C 17.40625 25.160156 17.03125 25.324219 16.640625 25.460938 L 16.578125 25.480469 C 16.109375 25.636719 15.605469 25.753906 15.082031 25.820312 C 14.996094 25.828125 14.902344 25.832031 14.820312 25.839844 C 14.769531 25.84375 14.730469 25.855469 14.679688 25.859375 L 13.359375 25.960938 L 13.359375 25.878906 C 12.949219 26.210938 12.578125 26.4375 12.320312 26.558594 C 12.199219 26.621094 12.058594 26.671875 11.921875 26.71875 C 11.847656 26.746094 11.792969 26.773438 11.71875 26.800781 C 11.007812 27.054688 10.410156 27.113281 10.378906 27.121094 C 10.363281 27.121094 10.355469 27.136719 10.339844 27.140625 C 10.335938 27.140625 10.324219 27.140625 10.320312 27.140625 C 10.148438 27.167969 9.972656 27.195312 9.800781 27.21875 C 9.773438 27.226562 9.746094 27.234375 9.71875 27.242188 C 8.828125 27.359375 7.9375 27.445312 7.039062 27.5 L 6.921875 27.5 C 6.871094 27.5 6.789062 27.503906 6.699219 27.5 C 6.664062 27.5 6.621094 27.480469 6.578125 27.480469 C 6.46875 27.476562 6.34375 27.46875 6.199219 27.460938 C 6.1875 27.457031 6.152344 27.460938 6.140625 27.460938 C 5.839844 27.441406 5.472656 27.417969 5.058594 27.359375 L 5.019531 27.339844 C 4.777344 27.304688 4.53125 27.269531 4.261719 27.21875 L 3.898438 27.160156 L 3.898438 27.140625 C 3.261719 27 2.566406 26.8125 1.878906 26.539062 C 0.601562 26.707031 0 27.019531 0 27.71875 C 0 30.644531 13.320312 30.71875 14.839844 30.71875 C 27.71875 30.71875 28.144531 21.191406 28.160156 17.101562 C 29.683594 16.242188 30.71875 14.613281 30.71875 13 C 30.71875 10.460938 28.421875 8.378906 25.601562 8.378906 M 10.878906 9.601562 C 8.195312 9.601562 5.601562 10.671875 3.78125 12.539062 C 2.101562 14.261719 1.21875 16.519531 1.28125 18.898438 C 1.386719 21.667969 2.578125 24.210938 4.5 25.960938 C 5.875 26.21875 6.921875 26.21875 6.941406 26.21875 C 8.628906 26.113281 10.734375 25.921875 11.738281 25.417969 C 12.523438 25.054688 14.71875 23.371094 14.71875 20.539062 C 14.71875 16.945312 12.039062 16 10.621094 16 C 9.027344 16 8.320312 16.964844 8.320312 17.921875 C 8.320312 18.742188 8.804688 19.960938 10.121094 19.960938 C 10.472656 19.960938 10.761719 20.246094 10.761719 20.601562 C 10.761719 20.953125 10.472656 21.242188 10.121094 21.242188 C 8.125 21.242188 7.039062 19.53125 7.039062 17.921875 C 7.039062 16.332031 8.265625 14.71875 10.621094 14.71875 C 12.78125 14.71875 16 16.265625 16 20.539062 C 16 23.503906 15.339844 23.859375 14.578125 24.539062 L 14.578125 24.578125 C 16.007812 24.46875 17.21875 23.96875 18.179688 23.082031 C 19.335938 22.007812 20.320312 20.550781 20.480469 18.878906 C 20.71875 13.820312 16.261719 9.601562 10.878906 9.601562 "/>
</g>
</svg>
