<svg role="img" viewBox="0 0 32 32" xmlns="http://www.w3.org/2000/svg"><path d="M19.25 21.3c-2.3-.75-1.648-1.3.55-2.152 1.052-.398.4-1.25.45-1.898 0-.3 1.25-.25 1.148-1.45-.046-.85-1.898-2.05-2.398-2.55-.3-.3.602-1.102-.05-1.8-.848-.95-1-2.65-1.5-3.598 0 0 .402-.602.1-.954C14.95 4 5.3 4.301 2.8 8.602.05 13.449 0 20.102 5.75 23.699 8.3 25.301 5.05 31 5.05 31H15.2c0-.95-1.15-4.45.85-4.3 1.7.152 3.848.05 3.65-1.9-.052-.6-.098-1.1.3-1.6.398-.45 1-1.348-.75-1.9m2.3-.902 9.45 1.25v-2.5Zm7.7 8.153 1-2.153-8.7-4.699Zm1-14.153-1-2.148-7.7 6.8Zm0 0" style="stroke:none;fill-rule:nonzero;fill:rgb(36.470589%,42.745098%,45.490196%);fill-opacity:1"/></svg>