<svg role="img" viewBox="0 0 32 32" fill="#000000" xmlns="http://www.w3.org/2000/svg"><title>split</title><path d="M.032 26.336q-.096-.576.128-1.12t.704-.864T2.016 24H4v-4q0-2.464 1.76-4.224t4.256-1.76H12q.832 0 1.408-.576t.608-1.44V2.016q0-.736.384-1.248T15.424.16t1.152 0T17.6.768t.416 1.248V12q0 .832.576 1.44t1.408.576h2.016q2.464 0 4.224 1.76T28 20v4h2.016q.64 0 1.152.384t.704.864.096 1.12-.544 1.056l-4 4q-.64.608-1.44.608t-1.376-.608l-4-4q-.48-.448-.576-1.056t.128-1.152.704-.864T22.016 24H24v-4q0-.832-.576-1.408t-1.408-.576H20q-2.272 0-4-1.568-1.728 1.568-4 1.568h-1.984q-.832 0-1.44.576T8 20v4h2.016q.64 0 1.152.384t.704.864.096 1.12-.544 1.056l-4 4q-.64.608-1.44.608t-1.408-.608l-4-4q-.48-.48-.544-1.088"/></svg>