<svg role="img" viewBox="0 0 32.033 32" xmlns="http://www.w3.org/2000/svg"><path d="M29.164 1.848a14.096 14.096 0 0 1-1.715 3A15.992 15.992 0 0 0 .426 12.152a15.987 15.987 0 0 0 4.687 15.559l.594.527a15.969 15.969 0 0 0 26.227-11.082c.46-4.027-.758-9.172-2.77-15.308M7.422 27.844a1.358 1.358 0 0 1-1.91.195 1.358 1.358 0 1 1 1.715-2.11c.566.481.652 1.325.195 1.915m21.64-4.785c-3.925 5.246-12.37 3.464-17.746 3.73 0 0-.957.066-1.914.195 0 0 .364-.164.825-.328 3.793-1.32 5.574-1.586 7.886-2.773 4.32-2.207 8.64-7.059 9.5-12.074-1.652 4.816-6.664 8.976-11.218 10.656-3.133 1.156-8.774 2.277-8.774 2.277l-.23-.133C3.563 22.73 3.43 14.418 10.426 11.746c3.066-1.187 5.969-.531 9.3-1.32 3.532-.824 7.622-3.465 9.27-6.93 1.848 5.574 4.094 14.219.067 19.563m0 0" style="stroke:none;fill-rule:nonzero;fill:rgb(42.745098%,70.19608%,24.705882%);fill-opacity:1"/></svg>