<?xml version="1.0" encoding="UTF-8"?>
<svg xmlns="http://www.w3.org/2000/svg" xmlns:xlink="http://www.w3.org/1999/xlink" width="32.033001" height="32" viewBox="0 0 32.033001 32" version="1.1">
<g id="surface1">
<path style=" stroke:none;fill-rule:nonzero;fill:rgb(42.745098%,70.19608%,24.705882%);fill-opacity:1;" d="M 29.164062 1.847656 C 28.71875 2.914062 28.140625 3.921875 27.449219 4.847656 C 23.402344 0.664062 17.402344 -0.988281 11.785156 0.53125 C 6.164062 2.046875 1.816406 6.5 0.425781 12.152344 C -0.960938 17.804688 0.835938 23.765625 5.113281 27.710938 L 5.707031 28.238281 C 10.300781 32.113281 16.683594 33.082031 22.21875 30.742188 C 27.757812 28.402344 31.511719 23.152344 31.933594 17.15625 C 32.394531 13.128906 31.175781 7.984375 29.164062 1.847656 M 7.421875 27.84375 C 6.949219 28.425781 6.09375 28.511719 5.511719 28.039062 C 4.929688 27.566406 4.839844 26.710938 5.316406 26.125 C 5.789062 25.542969 6.644531 25.457031 7.226562 25.929688 C 7.792969 26.410156 7.878906 27.253906 7.421875 27.84375 M 29.0625 23.058594 C 25.136719 28.304688 16.691406 26.523438 11.316406 26.789062 C 11.316406 26.789062 10.359375 26.855469 9.402344 26.984375 C 9.402344 26.984375 9.765625 26.820312 10.226562 26.65625 C 14.019531 25.335938 15.800781 25.070312 18.113281 23.882812 C 22.433594 21.675781 26.753906 16.824219 27.613281 11.808594 C 25.960938 16.625 20.949219 20.785156 16.394531 22.464844 C 13.261719 23.621094 7.621094 24.742188 7.621094 24.742188 L 7.390625 24.609375 C 3.5625 22.730469 3.429688 14.417969 10.425781 11.746094 C 13.492188 10.558594 16.394531 11.214844 19.726562 10.425781 C 23.257812 9.601562 27.347656 6.960938 28.996094 3.496094 C 30.84375 9.070312 33.089844 17.714844 29.0625 23.058594 M 29.0625 23.058594 "/>
</g>
</svg>
