<?xml version="1.0" standalone="no"?>
<!DOCTYPE svg PUBLIC "-//W3C//DTD SVG 20010904//EN"
 "http://www.w3.org/TR/2001/REC-SVG-20010904/DTD/svg10.dtd">
<svg version="1.0"
    xmlns="http://www.w3.org/2000/svg" width="32.000000pt" height="512.000000pt" viewBox="0 0 512.000000 512.000000" preserveAspectRatio="xMidYMid meet">

    <g transform="translate(0.000000,512.000000) scale(0.100000,-0.100000)" fill="#000000" stroke="none">
        <path d="M1195 4846 c-110 -35 -205 -121 -247 -224 l-23 -57 -3 -872 -3 -873
-217 0 c-245 0 -297 -9 -358 -62 -19 -17 -45 -50 -57 -72 -22 -40 -22 -49 -25
-530 -3 -546 -2 -552 64 -620 75 -77 -45 -71 1320 -71 l1221 0 49 30 c30 19
60 49 79 79 l30 49 3 494 c2 331 -1 507 -8 534 -13 49 -69 113 -124 142 -41
22 -42 22 -803 25 l-763 3 0 807 c0 615 3 811 12 820 9 9 202 12 806 12 713 0
797 -2 828 -16 19 -9 40 -26 47 -38 9 -15 13 -137 17 -436 5 -404 6 -417 29
-473 32 -81 113 -166 193 -203 l63 -29 402 -5 c388 -5 403 -6 430 -26 15 -11
33 -36 40 -55 17 -49 18 -2490 1 -2507 -9 -9 -339 -12 -1424 -12 -777 0 -1419
3 -1428 6 -14 5 -16 32 -16 190 0 240 15 224 -203 224 -133 0 -167 -3 -186
-16 l-22 -16 3 -257 3 -256 29 -60 c38 -76 105 -143 181 -181 l60 -29 1565 0
1565 0 67 33 c82 40 157 119 190 200 l23 57 3 1319 c3 1436 4 1391 -52 1477
-29 43 -1365 1413 -1416 1450 -81 61 -46 59 -1018 58 -687 0 -896 -3 -927 -13z
m621 -2344 c95 -49 146 -153 145 -300 0 -94 -14 -163 -47 -222 l-25 -44 23
-18 c13 -10 42 -26 66 -35 28 -12 45 -26 49 -41 8 -33 -9 -86 -30 -90 -28 -6
-122 43 -170 87 l-44 41 -48 -16 c-35 -12 -67 -15 -121 -11 -187 14 -276 141
-262 373 9 148 71 237 203 291 50 21 211 11 261 -15z m488 12 c14 -5 16 -39
16 -270 l0 -263 108 -3 107 -3 3 -41 c5 -69 -6 -74 -174 -74 -81 0 -154 5
-165 10 -18 10 -19 24 -19 324 0 172 3 316 7 319 8 9 96 9 117 1z m-1227 -32
c43 -22 53 -38 53 -80 0 -52 -11 -57 -79 -33 -34 11 -72 21 -85 21 -31 0 -76
-36 -76 -61 0 -39 20 -57 99 -89 133 -53 181 -111 181 -220 0 -126 -192 -214
-343 -156 -56 21 -77 47 -77 96 0 55 15 63 66 34 61 -36 100 -45 148 -34 46
10 66 32 66 71 0 35 -30 59 -112 90 -87 32 -153 98 -162 159 -7 51 4 109 28
145 52 79 195 106 293 57z"/>
        <path d="M1569 2387 c-19 -12 -44 -42 -57 -67 -21 -40 -23 -55 -19 -141 8
-160 56 -217 174 -207 98 8 153 90 153 227 0 97 -32 170 -84 195 -50 24 -126
21 -167 -7z"/>
    </g>
</svg>
