<?xml version="1.0" encoding="UTF-8"?>
<svg xmlns="http://www.w3.org/2000/svg" xmlns:xlink="http://www.w3.org/1999/xlink" width="32" height="32" viewBox="0 0 32 32" version="1.1">
<defs>
<linearGradient id="linear0" gradientUnits="userSpaceOnUse" x1="2.59" y1="10.16" x2="15.41" y2="10.16" gradientTransform="matrix(0.32,0,0,0.32,0,0)">
<stop offset="0" style="stop-color:rgb(0%,35.686275%,63.137257%);stop-opacity:1;"/>
<stop offset="0.07" style="stop-color:rgb(0%,37.64706%,66.274512%);stop-opacity:1;"/>
<stop offset="0.36" style="stop-color:rgb(0%,44.313726%,78.431374%);stop-opacity:1;"/>
<stop offset="0.52" style="stop-color:rgb(0%,47.058824%,83.137256%);stop-opacity:1;"/>
<stop offset="0.64" style="stop-color:rgb(0%,45.490196%,80.392158%);stop-opacity:1;"/>
<stop offset="0.82" style="stop-color:rgb(0%,41.568628%,73.333335%);stop-opacity:1;"/>
<stop offset="1" style="stop-color:rgb(0%,35.686275%,63.137257%);stop-opacity:1;"/>
</linearGradient>
<radialGradient id="radial0" gradientUnits="userSpaceOnUse" cx="9.36" cy="10.57" fx="9.36" fy="10.57" r="7.07" gradientTransform="matrix(0.32,0,0,0.32,0,0)">
<stop offset="0" style="stop-color:rgb(94.901961%,94.901961%,94.901961%);stop-opacity:1;"/>
<stop offset="0.58" style="stop-color:rgb(93.333334%,93.333334%,93.333334%);stop-opacity:1;"/>
<stop offset="1" style="stop-color:rgb(90.196079%,90.196079%,90.196079%);stop-opacity:1;"/>
</radialGradient>
</defs>
<g id="surface1">
<path style=" stroke:none;fill-rule:nonzero;fill:url(#linear0);" d="M 2.878906 1.644531 C 1.746094 1.644531 0.828125 1.324219 0.828125 0.902344 L 0.828125 4.859375 C 0.828125 5.265625 1.730469 5.59375 2.851562 5.601562 L 2.878906 5.601562 C 4.011719 5.601562 4.929688 5.28125 4.929688 4.859375 L 4.929688 0.902344 C 4.929688 1.316406 4.011719 1.644531 2.878906 1.644531 Z M 2.878906 1.644531 "/>
<path style=" stroke:none;fill-rule:nonzero;fill:rgb(90.980393%,90.980393%,90.980393%);fill-opacity:1;" d="M 4.929688 0.902344 C 4.929688 1.316406 4.011719 1.644531 2.878906 1.644531 C 1.746094 1.644531 0.828125 1.324219 0.828125 0.902344 C 0.828125 0.480469 1.746094 0.160156 2.878906 0.160156 C 4.011719 0.160156 4.929688 0.480469 4.929688 0.902344 "/>
<path style=" stroke:none;fill-rule:nonzero;fill:rgb(31.37255%,90.196079%,100%);fill-opacity:1;" d="M 4.453125 0.839844 C 4.453125 1.105469 3.746094 1.316406 2.878906 1.316406 C 2.011719 1.316406 1.304688 1.105469 1.304688 0.839844 C 1.304688 0.578125 2.011719 0.371094 2.878906 0.371094 C 3.746094 0.371094 4.453125 0.582031 4.453125 0.839844 "/>
<path style=" stroke:none;fill-rule:nonzero;fill:rgb(9.803922%,54.11765%,70.19608%);fill-opacity:1;" d="M 2.878906 0.960938 C 2.457031 0.949219 2.035156 1.011719 1.636719 1.140625 C 2.035156 1.269531 2.457031 1.328125 2.878906 1.316406 C 3.300781 1.328125 3.722656 1.265625 4.125 1.128906 C 3.722656 1.003906 3.300781 0.945312 2.878906 0.960938 Z M 2.878906 0.960938 "/>
<path style=" stroke:none;fill-rule:nonzero;fill:url(#radial0);" d="M 4.128906 3.648438 L 4.128906 2.558594 L 3.839844 2.558594 L 3.839844 3.882812 L 4.628906 3.882812 L 4.628906 3.648438 Z M 1.84375 3.113281 C 1.785156 3.089844 1.730469 3.054688 1.679688 3.015625 C 1.652344 2.988281 1.640625 2.949219 1.640625 2.910156 C 1.640625 2.875 1.65625 2.835938 1.691406 2.816406 C 1.730469 2.789062 1.777344 2.773438 1.824219 2.777344 C 1.9375 2.773438 2.050781 2.804688 2.144531 2.871094 L 2.144531 2.59375 C 2.042969 2.558594 1.933594 2.539062 1.824219 2.542969 C 1.699219 2.539062 1.574219 2.574219 1.476562 2.652344 C 1.386719 2.71875 1.335938 2.828125 1.339844 2.9375 C 1.339844 3.101562 1.441406 3.230469 1.660156 3.324219 C 1.730469 3.355469 1.796875 3.394531 1.859375 3.441406 C 1.890625 3.464844 1.90625 3.503906 1.90625 3.542969 C 1.90625 3.582031 1.886719 3.617188 1.855469 3.640625 C 1.8125 3.667969 1.761719 3.679688 1.710938 3.675781 C 1.582031 3.675781 1.460938 3.628906 1.363281 3.542969 L 1.363281 3.839844 C 1.46875 3.894531 1.585938 3.921875 1.707031 3.917969 C 1.839844 3.925781 1.972656 3.886719 2.082031 3.8125 C 2.164062 3.734375 2.203125 3.628906 2.1875 3.519531 C 2.191406 3.4375 2.160156 3.359375 2.109375 3.296875 C 2.035156 3.21875 1.945312 3.15625 1.84375 3.113281 Z M 3.519531 3.621094 C 3.59375 3.5 3.628906 3.359375 3.625 3.21875 C 3.617188 3.097656 3.582031 2.984375 3.519531 2.878906 C 3.46875 2.78125 3.390625 2.695312 3.296875 2.640625 C 3.199219 2.585938 3.089844 2.554688 2.976562 2.558594 C 2.855469 2.554688 2.734375 2.582031 2.628906 2.644531 C 2.53125 2.699219 2.449219 2.78125 2.398438 2.878906 C 2.339844 2.992188 2.3125 3.117188 2.3125 3.246094 C 2.3125 3.355469 2.339844 3.464844 2.390625 3.566406 C 2.4375 3.664062 2.515625 3.746094 2.609375 3.800781 C 2.707031 3.859375 2.816406 3.894531 2.929688 3.898438 L 3.207031 4.21875 L 3.59375 4.21875 L 3.199219 3.867188 C 3.332031 3.824219 3.445312 3.738281 3.519531 3.621094 Z M 3.199219 3.542969 C 3.140625 3.617188 3.050781 3.65625 2.957031 3.65625 C 2.863281 3.65625 2.769531 3.613281 2.714844 3.539062 C 2.644531 3.445312 2.613281 3.332031 2.621094 3.21875 C 2.613281 3.105469 2.644531 2.992188 2.714844 2.898438 C 2.773438 2.824219 2.867188 2.78125 2.964844 2.78125 C 3.058594 2.777344 3.148438 2.820312 3.203125 2.898438 C 3.265625 2.992188 3.296875 3.105469 3.289062 3.21875 C 3.300781 3.335938 3.269531 3.449219 3.199219 3.542969 Z M 3.199219 3.542969 "/>
</g>
</svg>
