<svg role="img" viewBox="0 0 32 32" xmlns="http://www.w3.org/2000/svg"><path d="M16.117 23.363c-1.172 0-1.851 1.153-1.851 2.575-.012 1.445.687 2.55 1.84 2.55 1.164 0 1.843-1.093 1.843-2.586 0-1.386-.656-2.539-1.832-2.539M27.602 7.668a.607.607 0 0 0-.149-.406L21.281.215c0-.004-.004-.004-.004-.004a.543.543 0 0 0-.125-.106l-.039-.023a.868.868 0 0 0-.125-.055c-.011 0-.023-.007-.035-.007a.581.581 0 0 0-.14-.02H5.648c-.691 0-1.257.563-1.257 1.254v29.492c0 .692.566 1.254 1.257 1.254h20.704c.691 0 1.257-.562 1.257-1.254V7.738a.43.43 0 0 0-.007-.07M8.562 29.844c-.87 0-1.726-.227-2.156-.465l.348-1.422c.465.238 1.176.477 1.91.477.79 0 1.207-.329 1.207-.825 0-.476-.36-.746-1.273-1.074-1.266-.441-2.09-1.14-2.09-2.246 0-1.3 1.082-2.293 2.879-2.293.86 0 1.492.18 1.941.383l-.383 1.39a3.595 3.595 0 0 0-1.593-.363c-.747 0-1.106.34-1.106.735 0 .484.43.699 1.41 1.074 1.344.496 1.977 1.195 1.977 2.27 0 1.273-.98 2.359-3.07 2.359m10.739 1.195a26.57 26.57 0 0 1-3.004-1.07 1.634 1.634 0 0 0-.527-.114c-1.72-.113-3.32-1.378-3.32-3.863 0-2.281 1.445-3.996 3.714-3.996 2.324 0 3.602 1.762 3.602 3.84 0 1.727-.801 2.945-1.809 3.398v.043c.59.172 1.242.309 1.844.43Zm6.347-1.309h-4.753v-7.609h1.73v6.164h3.023Zm-20-8.421V1.254h14.536v6.422c0 .347.28.629.628.629h5.54l.003 13.004ZM19.41 9.945a.718.718 0 0 0 .047-.238c0-1.008-2.18-1.555-4.234-1.555-2.055 0-4.235.547-4.235 1.555 0 .082.02.16.047.238l-.012.02c-.093.172-.14.344-.14.512v1.25c0 .191.062.375.168.55l-.012.024c-.105.18-.156.36-.156.535v1.25c0 .187.058.367.16.535l-.004.008a1.03 1.03 0 0 0-.156.535v1.25c0 1.11 1.906 1.98 4.34 1.98 2.433 0 4.34-.87 4.34-1.98v-1.25c0-.18-.051-.36-.157-.535l-.004-.008a1.03 1.03 0 0 0 .16-.535v-1.25c0-.176-.05-.36-.156-.535l-.011-.024c.105-.175.168-.359.168-.55v-1.25c0-.172-.047-.344-.141-.512Zm-.312 6.47c0 .714-1.59 1.515-3.875 1.515-2.286 0-3.875-.801-3.875-1.516v-1.176c.71.653 2.18 1.067 3.875 1.067 1.695 0 3.164-.414 3.875-1.067Zm0-2.33c0 .72-1.59 1.517-3.875 1.517-2.286 0-3.875-.797-3.875-1.516V12.91c.71.652 2.18 1.07 3.875 1.07 1.695 0 3.164-.418 3.875-1.07Zm0-2.358c0 .714-1.59 1.515-3.875 1.515-2.286 0-3.875-.8-3.875-1.515v-1.043c.695.593 2.312.898 3.875.898 1.562 0 3.18-.305 3.875-.898Zm0 0" style="stroke:none;fill-rule:nonzero;fill:rgb(0%,0%,0%);fill-opacity:1"/></svg>