<?xml version="1.0" encoding="UTF-8"?>
<svg xmlns="http://www.w3.org/2000/svg" xmlns:xlink="http://www.w3.org/1999/xlink" width="29.296" height="32" viewBox="0 0 29.296 32" version="1.1">
<defs>
<linearGradient id="linear0" gradientUnits="userSpaceOnUse" x1="0.259" y1="0.889" x2="0.383" y2="0.659" gradientTransform="matrix(18.371099,0,0,16.832029,0,14.738)">
<stop offset="0" style="stop-color:rgb(56.470591%,61.176473%,66.274512%);stop-opacity:1;"/>
<stop offset="1" style="stop-color:rgb(92.941177%,92.941177%,93.333334%);stop-opacity:1;"/>
</linearGradient>
<linearGradient id="linear1" gradientUnits="userSpaceOnUse" x1="0.002" y1="0.498" x2="0.186" y2="0.498" gradientTransform="matrix(9.98438,0,0,5.98047,4.793,0)">
<stop offset="0" style="stop-color:rgb(57.647061%,62.352943%,67.058825%);stop-opacity:1;"/>
<stop offset="1" style="stop-color:rgb(86.274511%,87.058824%,88.235295%);stop-opacity:1;"/>
</linearGradient>
<radialGradient id="radial0" gradientUnits="userSpaceOnUse" cx="0.44" cy="0.44" fx="0.44" fy="0.44" r="0.19" gradientTransform="matrix(26.507811,0,0,18.515631,2.336,3.293)">
<stop offset="0" style="stop-color:rgb(93.333334%,20.784314%,17.254902%);stop-opacity:1;"/>
<stop offset="1" style="stop-color:rgb(66.274512%,11.372549%,13.333334%);stop-opacity:1;"/>
</radialGradient>
</defs>
<g id="surface1">
<path style=" stroke:none;fill-rule:nonzero;fill:url(#linear0);" d="M 18.210938 14.738281 L 11.890625 16.804688 L 6.386719 19.230469 L 4.851562 19.636719 L 3.601562 20.769531 L 2.3125 21.851562 C 1.855469 22.226562 1.4375 22.644531 1.058594 23.09375 C 0.625 23.636719 0.28125 24.214844 0.132812 24.660156 C -0.128906 25.464844 0 26.273438 0.503906 27.027344 C 1.15625 27.980469 2.449219 28.957031 3.960938 29.621094 C 4.730469 29.960938 6.023438 30.394531 7 30.636719 C 8.621094 31.050781 11.753906 31.492188 13.480469 31.5625 C 13.828125 31.574219 14.296875 31.574219 14.316406 31.5625 C 14.355469 31.535156 14.621094 31.027344 14.933594 30.390625 C 15.996094 28.226562 16.757812 26.195312 17.175781 24.460938 C 17.421875 23.40625 17.617188 22.007812 17.75 20.347656 C 17.78125 19.886719 17.796875 18.332031 17.765625 17.808594 C 17.734375 17.054688 17.65625 16.308594 17.527344 15.566406 C 17.507812 15.464844 17.503906 15.375 17.515625 15.371094 C 17.53125 15.355469 17.589844 15.335938 18.371094 15.113281 Z M 16.769531 15.585938 C 16.824219 15.585938 16.980469 17.050781 17.015625 17.980469 C 17.027344 18.175781 17.023438 18.304688 17.011719 18.304688 C 16.972656 18.304688 16.203125 17.851562 15.65625 17.507812 C 15.136719 17.179688 14.628906 16.839844 14.125 16.488281 C 14.078125 16.453125 14.082031 16.449219 14.476562 16.316406 C 15.140625 16.089844 16.714844 15.585938 16.769531 15.585938 M 13.546875 16.644531 C 13.589844 16.644531 13.699219 16.707031 13.964844 16.871094 C 14.949219 17.488281 16.285156 18.230469 16.859375 18.480469 C 17.035156 18.558594 17.054688 18.527344 16.648438 18.804688 C 15.777344 19.398438 14.695312 19.980469 13.367188 20.570312 C 13.132812 20.675781 12.9375 20.753906 12.929688 20.753906 C 12.921875 20.753906 12.949219 20.636719 12.988281 20.492188 C 13.308594 19.300781 13.488281 18.097656 13.5 17.132812 C 13.503906 16.65625 13.503906 16.65625 13.546875 16.640625 C 13.539062 16.644531 13.542969 16.644531 13.546875 16.644531 M 12.882812 16.898438 C 12.910156 16.925781 12.894531 18 12.855469 18.289062 C 12.769531 18.988281 12.632812 19.636719 12.414062 20.367188 C 12.363281 20.546875 12.316406 20.695312 12.304688 20.703125 C 12.285156 20.726562 11.632812 20.085938 11.417969 19.839844 C 11.074219 19.449219 10.777344 19.019531 10.535156 18.558594 C 10.425781 18.34375 10.253906 17.921875 10.269531 17.90625 C 10.34375 17.855469 12.863281 16.878906 12.882812 16.898438 M 9.757812 18.128906 C 9.761719 18.128906 9.769531 18.128906 9.773438 18.132812 C 9.800781 18.1875 9.824219 18.246094 9.84375 18.304688 C 9.996094 18.71875 10.339844 19.332031 10.636719 19.722656 C 10.960938 20.152344 11.386719 20.613281 11.742188 20.914062 L 11.976562 21.113281 C 12.003906 21.144531 12.011719 21.136719 11.234375 21.433594 C 10.332031 21.777344 9.347656 22.121094 8.21875 22.484375 L 7.410156 22.75 C 7.367188 22.761719 7.382812 22.738281 7.507812 22.542969 C 8.066406 21.667969 8.917969 19.953125 9.394531 18.738281 L 9.570312 18.269531 C 9.589844 18.203125 9.613281 18.179688 9.675781 18.144531 C 9.710938 18.136719 9.742188 18.128906 9.757812 18.128906 M 8.800781 18.523438 C 8.816406 18.535156 8.574219 19.042969 8.332031 19.511719 C 7.871094 20.417969 7.363281 21.304688 6.683594 22.386719 L 6.445312 22.761719 C 6.421875 22.796875 6.414062 22.785156 6.335938 22.636719 C 6.164062 22.289062 6.039062 21.914062 5.96875 21.53125 C 5.894531 21.15625 5.910156 20.507812 5.992188 20.105469 C 6.054688 19.808594 6.050781 19.8125 6.191406 19.742188 C 6.804688 19.433594 8.78125 18.503906 8.800781 18.523438 M 17.046875 18.859375 L 17.046875 19.058594 C 17.035156 20.261719 16.941406 21.464844 16.765625 22.652344 L 16.707031 22.996094 L 16.40625 22.910156 C 15.644531 22.671875 14.90625 22.355469 14.207031 21.96875 C 13.742188 21.714844 13.070312 21.300781 13.089844 21.28125 C 13.09375 21.277344 13.292969 21.171875 13.527344 21.046875 C 14.425781 20.585938 15.296875 20.074219 16.140625 19.511719 C 16.433594 19.316406 16.875 19 16.96875 18.914062 Z M 5.195312 20.273438 C 5.210938 20.273438 5.207031 20.3125 5.179688 20.484375 C 5.160156 20.605469 5.136719 20.835938 5.125 20.996094 C 5.089844 21.691406 5.203125 22.207031 5.546875 22.914062 C 5.644531 23.113281 5.71875 23.273438 5.714844 23.277344 C 5.679688 23.308594 2.515625 24.234375 1.523438 24.507812 L 0.949219 24.664062 C 0.917969 24.675781 0.910156 24.667969 0.925781 24.589844 C 1.035156 23.886719 1.570312 22.96875 2.316406 22.195312 C 2.8125 21.679688 3.210938 21.375 3.890625 20.988281 L 5.183594 20.277344 C 5.183594 20.273438 5.1875 20.273438 5.195312 20.273438 M 12.648438 21.605469 C 12.652344 21.601562 12.769531 21.664062 12.90625 21.746094 C 13.929688 22.335938 15.355469 22.886719 16.566406 23.167969 L 16.675781 23.191406 L 16.523438 23.277344 C 15.890625 23.632812 13.800781 24.503906 11.664062 25.300781 L 10.992188 25.554688 C 10.933594 25.578125 10.878906 25.59375 10.878906 25.585938 C 10.878906 25.582031 10.964844 25.414062 11.078125 25.210938 C 11.675781 24.089844 12.277344 22.730469 12.582031 21.78125 C 12.621094 21.691406 12.644531 21.609375 12.648438 21.605469 M 11.890625 21.855469 C 11.894531 21.859375 11.855469 21.960938 11.808594 22.074219 C 11.324219 23.222656 10.769531 24.335938 10.148438 25.414062 L 9.820312 25.984375 C 9.816406 25.984375 9.671875 25.898438 9.5 25.792969 C 8.488281 25.171875 7.589844 24.40625 7 23.664062 L 6.914062 23.5625 L 7.347656 23.441406 C 8.78125 23.058594 10.183594 22.574219 11.546875 21.992188 Z M 16.609375 23.503906 C 16.609375 23.503906 16.617188 23.507812 16.609375 23.503906 C 16.617188 23.613281 16.371094 24.597656 16.171875 25.308594 C 15.992188 25.945312 15.800781 26.574219 15.597656 27.203125 L 15.378906 27.867188 C 15.355469 27.863281 15.335938 27.859375 15.316406 27.851562 C 13.988281 27.621094 12.683594 27.253906 11.429688 26.757812 C 11.144531 26.644531 10.863281 26.523438 10.589844 26.386719 C 10.578125 26.375 10.867188 26.242188 11.230469 26.085938 C 13.402344 25.132812 15.660156 24.054688 16.433594 23.589844 C 16.488281 23.550781 16.546875 23.523438 16.609375 23.503906 M 5.710938 23.875 C 5.71875 23.886719 5.113281 24.761719 4.261719 25.949219 L 3.492188 27.035156 C 3.363281 27.214844 3.167969 27.503906 3.058594 27.675781 L 2.855469 27.984375 L 2.640625 27.804688 C 2.320312 27.527344 2.027344 27.222656 1.753906 26.898438 C 1.34375 26.386719 1.066406 25.84375 0.953125 25.351562 C 0.902344 25.125 0.902344 25.007812 0.949219 24.996094 C 1.023438 24.976562 2.296875 24.675781 3.492188 24.398438 L 5.203125 23.996094 Z M 6.320312 24.109375 L 6.472656 24.28125 C 7.117188 25.007812 7.875 25.628906 8.714844 26.117188 C 8.867188 26.203125 8.984375 26.28125 8.972656 26.285156 C 8.941406 26.308594 6.019531 27.347656 4.667969 27.8125 L 3.277344 28.296875 C 3.246094 28.277344 3.214844 28.257812 3.183594 28.234375 L 3.097656 28.171875 L 3.234375 27.972656 C 3.683594 27.320312 4.246094 26.609375 5.476562 25.128906 Z M 10.136719 26.839844 C 10.140625 26.835938 10.351562 26.910156 10.609375 27.007812 C 11.1875 27.226562 11.78125 27.410156 12.382812 27.554688 C 13.265625 27.773438 14.160156 27.925781 15.0625 28.019531 C 15.167969 28.027344 15.226562 28.039062 15.207031 28.054688 C 15.171875 28.074219 14.46875 28.304688 13.953125 28.46875 C 13.132812 28.726562 10.621094 29.46875 8.578125 30.054688 L 7.855469 30.261719 C 7.808594 30.269531 7.648438 30.226562 7.648438 30.207031 C 7.648438 30.199219 7.765625 30.050781 7.902344 29.886719 C 8.597656 29.054688 9.246094 28.183594 9.84375 27.277344 Z M 9.292969 26.863281 C 9.300781 26.867188 8.960938 27.414062 8.367188 28.347656 L 7.730469 29.351562 L 7.410156 29.878906 L 7.273438 30.121094 L 7.199219 30.101562 C 6.628906 29.914062 6.0625 29.714844 5.5 29.5 C 5.121094 29.351562 4.746094 29.179688 4.386719 28.988281 C 4.003906 28.785156 3.527344 28.476562 3.5625 28.46875 C 3.574219 28.464844 4.226562 28.289062 5.015625 28.070312 L 9.03125 26.933594 C 9.171875 26.890625 9.289062 26.859375 9.292969 26.863281 M 15.242188 28.257812 L 15.25 28.257812 C 15.269531 28.304688 14.492188 30.457031 14.210938 31.136719 C 14.148438 31.289062 14.125 31.328125 14.09375 31.320312 C 12.226562 31.085938 10.363281 30.78125 8.515625 30.414062 L 8.402344 30.390625 L 9.113281 30.226562 C 10.640625 29.882812 11.378906 29.695312 12.125 29.46875 C 13.066406 29.179688 13.996094 28.824219 14.9375 28.382812 C 15.035156 28.335938 15.136719 28.292969 15.242188 28.257812 M 15.242188 28.257812 "/>
<path style=" stroke:none;fill-rule:nonzero;fill:url(#linear1);" d="M 11.691406 0 C 11.589844 -0.015625 9.890625 0.597656 8.796875 1.042969 C 7.320312 1.644531 6.171875 2.21875 5.464844 2.714844 C 5.203125 2.902344 4.875 3.230469 4.820312 3.359375 C 4.800781 3.410156 4.792969 3.46875 4.792969 3.523438 L 5.433594 4.128906 L 6.957031 4.617188 L 10.585938 5.265625 L 14.734375 5.980469 L 14.777344 5.621094 C 14.761719 5.621094 14.75 5.617188 14.738281 5.617188 L 14.191406 5.53125 L 14.082031 5.332031 C 13.519531 4.335938 13.003906 3.316406 12.535156 2.273438 C 12.253906 1.628906 11.984375 0.882812 11.835938 0.347656 C 11.753906 0.0234375 11.746094 0.00390625 11.695312 0 Z M 11.617188 0.242188 L 11.621094 0.242188 C 11.625 0.25 11.644531 0.382812 11.664062 0.539062 C 11.75 1.222656 11.90625 1.898438 12.128906 2.550781 C 12.304688 3.078125 12.304688 3.050781 12.097656 2.988281 C 11.613281 2.851562 9.429688 2.476562 7.847656 2.257812 C 7.691406 2.238281 7.535156 2.214844 7.378906 2.183594 C 7.359375 2.164062 8.519531 1.558594 9.03125 1.320312 C 9.6875 1.019531 11.484375 0.269531 11.617188 0.242188 M 7.007812 2.386719 L 7.195312 2.445312 C 8.210938 2.792969 10.757812 3.277344 12.160156 3.394531 L 12.457031 3.421875 C 12.460938 3.425781 12.328125 3.5 12.15625 3.578125 C 11.476562 3.917969 10.734375 4.335938 10.214844 4.65625 C 10.0625 4.75 9.925781 4.828125 9.90625 4.828125 C 9.886719 4.828125 9.785156 4.808594 9.679688 4.792969 L 9.488281 4.765625 L 9.011719 4.296875 L 7.257812 2.609375 Z M 6.820312 2.53125 L 7.492188 3.375 L 8.316406 4.390625 C 8.394531 4.492188 8.460938 4.574219 8.457031 4.578125 C 8.4375 4.59375 7.484375 4.40625 6.976562 4.292969 C 6.621094 4.214844 6.269531 4.121094 5.921875 4.015625 L 5.65625 3.929688 L 5.65625 3.863281 C 5.664062 3.542969 6.070312 3.0625 6.757812 2.578125 Z M 12.542969 3.679688 C 12.5625 3.679688 12.585938 3.722656 12.644531 3.851562 C 12.808594 4.210938 13.3125 5.175781 13.4375 5.363281 C 13.476562 5.425781 13.542969 5.429688 12.867188 5.320312 L 10.726562 4.960938 C 10.726562 4.957031 10.777344 4.921875 10.835938 4.890625 C 11.355469 4.601562 11.84375 4.261719 12.296875 3.878906 L 12.523438 3.691406 C 12.53125 3.679688 12.539062 3.675781 12.542969 3.679688 M 12.542969 3.679688 "/>
<path style=" stroke:none;fill-rule:nonzero;fill:url(#radial0);" d="M 4.855469 3.292969 C 4.855469 3.292969 4.75 3.460938 4.851562 3.707031 C 4.910156 3.863281 5.09375 4.046875 5.300781 4.238281 L 7.683594 6.609375 C 8.859375 7.96875 9.371094 9.304688 9.417969 11.148438 C 9.445312 12.335938 9.222656 13.375 8.664062 14.585938 C 7.667969 16.753906 5.570312 19.148438 2.335938 21.808594 L 2.808594 21.648438 C 3.113281 21.417969 3.53125 21.175781 4.503906 20.640625 C 6.757812 19.40625 9.289062 18.273438 12.394531 17.109375 C 16.867188 15.425781 24.222656 13.457031 28.410156 12.816406 L 28.84375 12.75 L 28.777344 12.644531 C 28.394531 12.054688 28.132812 11.683594 27.816406 11.292969 C 26.898438 10.15625 25.785156 9.234375 24.425781 8.46875 C 22.550781 7.421875 20.128906 6.605469 17.058594 5.996094 C 16.101562 5.816406 15.140625 5.652344 14.179688 5.503906 L 9.015625 4.664062 L 7.066406 4.304688 C 6.640625 4.214844 6.21875 4.101562 5.800781 3.96875 C 5.457031 3.832031 4.960938 3.699219 4.855469 3.292969 M 6.085938 4.488281 C 6.09375 4.484375 6.167969 4.511719 6.269531 4.546875 C 6.449219 4.605469 6.683594 4.679688 6.960938 4.753906 L 7.59375 4.921875 L 8.125 5.0625 C 8.15625 5.09375 8.640625 6.636719 8.800781 7.230469 C 8.863281 7.457031 8.910156 7.648438 8.90625 7.648438 C 8.863281 7.589844 8.824219 7.527344 8.789062 7.460938 C 8.226562 6.476562 7.34375 5.476562 6.320312 4.675781 C 6.238281 4.617188 6.160156 4.554688 6.085938 4.488281 M 8.4375 5.136719 C 8.460938 5.136719 8.566406 5.152344 8.695312 5.179688 C 9.507812 5.363281 10.96875 5.640625 11.898438 5.796875 C 12.054688 5.820312 12.179688 5.851562 12.179688 5.859375 C 12.140625 5.894531 12.097656 5.921875 12.050781 5.941406 C 11.894531 6.023438 11.257812 6.398438 11.046875 6.542969 C 10.5625 6.859375 10.109375 7.21875 9.695312 7.621094 L 9.4375 7.875 C 9.4375 7.875 9.410156 7.792969 9.386719 7.695312 C 9.164062 6.894531 8.878906 6.109375 8.53125 5.351562 C 8.496094 5.28125 8.460938 5.207031 8.433594 5.132812 C 8.433594 5.140625 8.433594 5.136719 8.4375 5.136719 M 12.578125 5.925781 C 12.605469 5.9375 12.652344 6.097656 12.75 6.457031 C 12.929688 7.171875 13.007812 7.910156 12.980469 8.644531 C 12.96875 8.847656 12.960938 9.03125 12.949219 9.054688 L 12.9375 9.105469 L 12.6875 9.023438 C 12.007812 8.8125 11.320312 8.609375 10.632812 8.417969 C 10.226562 8.304688 9.894531 8.207031 9.894531 8.195312 C 9.894531 8.167969 10.488281 7.574219 10.742188 7.351562 C 11.226562 6.925781 12.535156 5.910156 12.578125 5.925781 M 12.90625 5.972656 C 12.921875 5.960938 14.886719 6.300781 15.777344 6.472656 L 17.464844 6.824219 C 17.496094 6.835938 17.394531 6.890625 17.074219 7.035156 C 15.8125 7.605469 14.875 8.113281 13.945312 8.734375 L 13.488281 9.03125 C 13.480469 8.929688 13.480469 8.828125 13.480469 8.726562 C 13.480469 7.820312 13.300781 6.902344 12.964844 6.128906 C 12.941406 6.082031 12.921875 6.027344 12.90625 5.972656 M 17.988281 6.976562 C 18 6.992188 17.9375 7.378906 17.882812 7.609375 C 17.710938 8.320312 17.246094 9.375 16.679688 10.371094 C 16.578125 10.546875 16.488281 10.691406 16.476562 10.695312 C 16.378906 10.652344 16.285156 10.601562 16.191406 10.542969 C 15.589844 10.195312 14.960938 9.890625 14.316406 9.625 C 14.125 9.542969 13.957031 9.476562 13.953125 9.46875 C 13.921875 9.4375 15.460938 8.421875 16.273438 7.933594 C 16.917969 7.542969 17.96875 6.957031 17.988281 6.976562 M 18.351562 7.035156 C 18.394531 7.035156 19.261719 7.273438 19.71875 7.40625 C 20.839844 7.742188 22.128906 8.214844 22.972656 8.597656 L 23.320312 8.753906 L 23.078125 8.8125 C 21.023438 9.285156 19.261719 9.832031 17.566406 10.519531 C 17.476562 10.5625 17.386719 10.597656 17.292969 10.625 C 17.320312 10.542969 17.355469 10.457031 17.394531 10.378906 C 17.90625 9.296875 18.234375 8.164062 18.316406 7.199219 C 18.320312 7.105469 18.335938 7.035156 18.351562 7.035156 M 9.691406 9.023438 C 9.707031 9.007812 10.371094 9.167969 10.726562 9.265625 C 11.273438 9.417969 12.429688 9.808594 12.429688 9.835938 C 12.429688 9.839844 12.300781 9.949219 12.148438 10.085938 C 11.519531 10.605469 10.917969 11.15625 10.199219 11.851562 C 10.066406 11.980469 9.933594 12.105469 9.792969 12.226562 C 9.78125 12.226562 9.777344 12.195312 9.78125 12.15625 C 9.890625 11.355469 9.867188 10.324219 9.714844 9.277344 C 9.703125 9.195312 9.695312 9.109375 9.691406 9.023438 M 23.648438 9.039062 C 23.660156 9.046875 23.34375 9.542969 23.144531 9.824219 C 22.855469 10.238281 22.4375 10.78125 21.484375 11.976562 L 20.234375 13.558594 L 19.878906 13.996094 C 19.875 13.996094 19.8125 13.910156 19.746094 13.808594 C 19.210938 13.003906 18.558594 12.285156 17.808594 11.671875 L 17.457031 11.382812 C 17.421875 11.359375 17.386719 11.332031 17.359375 11.300781 C 17.359375 11.289062 18.171875 10.9375 18.789062 10.691406 C 19.988281 10.210938 21.210938 9.773438 22.445312 9.386719 C 23.023438 9.203125 23.640625 9.027344 23.648438 9.039062 M 24.019531 9.132812 C 24.039062 9.128906 24.152344 9.1875 24.289062 9.265625 C 25.453125 9.929688 26.589844 10.785156 27.488281 11.664062 C 27.742188 11.914062 28.367188 12.5625 28.359375 12.570312 L 27.878906 12.605469 C 25.867188 12.761719 23.292969 13.183594 20.816406 13.78125 L 20.492188 13.855469 C 20.480469 13.855469 20.667969 13.667969 20.902344 13.445312 C 22.355469 12.042969 23.019531 11.160156 23.804688 9.582031 Z M 24.019531 9.132812 C 24.011719 9.132812 24.011719 9.132812 24.019531 9.132812 M 13.375 10.222656 C 13.441406 10.238281 14.0625 10.527344 14.53125 10.761719 C 14.960938 10.976562 15.605469 11.320312 15.640625 11.351562 C 15.644531 11.355469 15.417969 11.476562 15.132812 11.613281 C 14.234375 12.0625 13.464844 12.488281 12.664062 12.976562 L 12.238281 13.230469 C 12.21875 13.230469 12.222656 13.210938 12.351562 12.976562 C 12.78125 12.191406 13.125 11.253906 13.324219 10.34375 C 13.34375 10.269531 13.359375 10.222656 13.375 10.222656 M 12.753906 10.335938 C 12.769531 10.351562 12.605469 10.9375 12.503906 11.257812 C 12.28125 11.929688 12 12.578125 11.660156 13.199219 L 11.40625 13.640625 L 11.285156 13.832031 L 11.019531 13.574219 C 10.757812 13.3125 10.457031 13.089844 10.128906 12.917969 C 10.050781 12.882812 9.972656 12.835938 9.902344 12.785156 C 9.902344 12.746094 10.71875 12.003906 11.34375 11.46875 C 11.792969 11.082031 12.738281 10.324219 12.753906 10.335938 M 16.554688 11.898438 L 16.789062 12.054688 C 17.324219 12.402344 17.953125 12.867188 18.4375 13.273438 C 18.707031 13.496094 19.234375 13.96875 19.339844 14.085938 L 19.398438 14.144531 L 19.011719 14.257812 C 17.035156 14.796875 15.078125 15.417969 13.15625 16.128906 C 13.015625 16.183594 12.875 16.234375 12.734375 16.277344 C 12.707031 16.277344 12.683594 16.300781 13.175781 15.847656 C 14.4375 14.6875 15.554688 13.40625 16.386719 12.15625 Z M 15.554688 12.148438 C 15.5625 12.15625 14.910156 13.082031 14.519531 13.601562 C 14.050781 14.222656 13.21875 15.265625 12.644531 15.941406 L 12.191406 16.464844 C 12.175781 16.46875 12.171875 16.398438 12.171875 16.289062 C 12.171875 15.707031 12.023438 15.09375 11.765625 14.566406 C 11.65625 14.347656 11.636719 14.292969 11.660156 14.269531 C 11.75 14.1875 13.140625 13.394531 14.019531 12.921875 C 14.613281 12.605469 15.539062 12.140625 15.554688 12.148438 M 9.515625 13.628906 C 9.527344 13.628906 9.636719 13.6875 9.761719 13.753906 C 10.070312 13.921875 10.339844 14.109375 10.585938 14.308594 C 10.59375 14.316406 10.46875 14.417969 10.308594 14.539062 C 9.785156 14.914062 9.273438 15.304688 8.765625 15.703125 C 8.34375 16.039062 8.328125 16.046875 8.375 15.976562 C 8.691406 15.492188 8.851562 15.222656 9.015625 14.871094 C 9.164062 14.5625 9.3125 14.195312 9.417969 13.875 C 9.457031 13.734375 9.503906 13.628906 9.515625 13.628906 M 11.125 14.894531 C 11.148438 14.890625 11.175781 14.933594 11.304688 15.121094 C 11.578125 15.527344 11.789062 16.074219 11.839844 16.511719 L 11.851562 16.605469 L 11.195312 16.859375 C 10.023438 17.316406 8.945312 17.769531 8.214844 18.101562 L 7.417969 18.480469 C 7.28125 18.554688 7.136719 18.625 6.992188 18.6875 C 6.992188 18.683594 7.140625 18.570312 7.320312 18.4375 C 8.75 17.402344 9.988281 16.265625 10.914062 15.128906 L 11.113281 14.894531 Z M 10.382812 15.074219 C 10.402344 15.097656 9.859375 15.710938 9.484375 16.089844 C 8.597656 17.003906 7.597656 17.808594 6.515625 18.480469 L 6.230469 18.664062 C 6.199219 18.683594 6.242188 18.636719 6.738281 18.097656 C 7.054688 17.757812 7.292969 17.472656 7.5625 17.117188 C 7.746094 16.882812 7.777344 16.851562 8.042969 16.660156 C 8.746094 16.152344 10.363281 15.058594 10.382812 15.074219 M 10.382812 15.074219 "/>
</g>
</svg>
