<svg role="img" viewBox="0 0 29.296 32" xmlns="http://www.w3.org/2000/svg" xmlns:xlink="http://www.w3.org/1999/xlink"><defs><linearGradient gradientTransform="matrix(18.3711 0 0 16.83203 0 14.738)" gradientUnits="userSpaceOnUse" id="a" x1=".259" x2=".383" y1=".889" y2=".659"><stop offset="0" style="stop-color:rgb(56.470591%,61.176473%,66.274512%);stop-opacity:1"/><stop offset="1" style="stop-color:rgb(92.941177%,92.941177%,93.333334%);stop-opacity:1"/></linearGradient><linearGradient gradientTransform="matrix(9.98438 0 0 5.98047 4.793 0)" gradientUnits="userSpaceOnUse" id="b" x1=".002" x2=".186" y1=".498" y2=".498"><stop offset="0" style="stop-color:rgb(57.647061%,62.352943%,67.058825%);stop-opacity:1"/><stop offset="1" style="stop-color:rgb(86.274511%,87.058824%,88.235295%);stop-opacity:1"/></linearGradient><radialGradient cx=".44" cy=".44" fx=".44" fy=".44" gradientTransform="matrix(26.50781 0 0 18.51563 2.336 3.293)" gradientUnits="userSpaceOnUse" id="c" r=".19"><stop offset="0" style="stop-color:rgb(93.333334%,20.784314%,17.254902%);stop-opacity:1"/><stop offset="1" style="stop-color:rgb(66.274512%,11.372549%,13.333334%);stop-opacity:1"/></radialGradient></defs><path d="m18.21 14.738-6.32 2.067-5.503 2.425-1.535.407-1.25 1.133-1.29 1.082a9.67 9.67 0 0 0-1.253 1.242c-.434.543-.778 1.12-.926 1.566-.262.805-.133 1.613.37 2.367.653.953 1.946 1.93 3.458 2.594.77.34 2.062.774 3.039 1.016 1.621.414 4.754.855 6.48.925.348.012.817.012.836 0 .04-.027.305-.535.618-1.171 1.062-2.164 1.824-4.196 2.242-5.93.246-1.055.441-2.453.574-4.113.031-.461.047-2.016.016-2.54a17.492 17.492 0 0 0-.239-2.242c-.02-.101-.023-.191-.011-.195.015-.016.074-.035.855-.258Zm-1.44.848c.054 0 .21 1.465.246 2.394.011.196.007.325-.004.325-.04 0-.809-.453-1.356-.797a40.967 40.967 0 0 1-1.531-1.02c-.047-.035-.043-.039.352-.172.664-.226 2.238-.73 2.293-.73m-3.223 1.059c.043 0 .152.062.418.226.984.617 2.32 1.36 2.894 1.61.176.078.196.046-.21.324-.872.593-1.954 1.175-3.282 1.765-.234.106-.43.184-.437.184-.008 0 .02-.117.058-.262.32-1.191.5-2.394.512-3.36.004-.476.004-.476.047-.491-.008.004-.004.004 0 .004m-.664.253c.027.028.012 1.102-.028 1.391-.085.7-.222 1.348-.44 2.078-.052.18-.099.328-.11.336-.02.024-.672-.617-.887-.863a6.567 6.567 0 0 1-.883-1.281c-.11-.215-.281-.637-.265-.653.074-.05 2.593-1.027 2.613-1.008m-3.125 1.23a.03.03 0 0 1 .015.005.898.898 0 0 1 .07.172c.153.414.497 1.027.794 1.418.324.43.75.89 1.105 1.191l.235.2c.027.03.035.023-.743.32-.902.343-1.886.687-3.015 1.05l-.809.266c-.043.012-.027-.012.098-.207.558-.875 1.41-2.59 1.887-3.805l.175-.468c.02-.067.043-.09.106-.125.035-.008.066-.016.082-.016m-.957.395c.015.012-.227.52-.469.989-.46.906-.969 1.793-1.648 2.875l-.239.375c-.023.035-.03.023-.11-.125a4.278 4.278 0 0 1-.366-1.106c-.074-.375-.059-1.023.023-1.426.063-.296.059-.293.2-.363.613-.308 2.59-1.238 2.609-1.219m8.246.336v.2a26.51 26.51 0 0 1-.281 3.593l-.059.344-.3-.086a12.179 12.179 0 0 1-2.2-.941c-.465-.254-1.137-.668-1.117-.688.004-.004.203-.11.437-.234a27.475 27.475 0 0 0 2.614-1.535c.293-.196.734-.512.828-.598ZM5.195 20.273c.016 0 .012.04-.015.211-.02.121-.043.352-.055.512-.035.695.078 1.211.422 1.918.098.2.172.36.168.363-.035.032-3.2.957-4.192 1.23l-.574.157c-.031.012-.039.004-.023-.074.11-.703.644-1.621 1.39-2.395.497-.515.895-.82 1.575-1.207l1.293-.71c0-.005.003-.005.011-.005m7.453 1.332c.004-.003.122.06.258.141 1.024.59 2.45 1.14 3.66 1.422l.11.023-.153.086c-.632.356-2.722 1.227-4.859 2.024l-.672.254c-.058.023-.113.039-.113.03 0-.003.086-.17.2-.374.597-1.121 1.198-2.48 1.503-3.43.04-.09.063-.172.066-.176m-.757.25c.004.004-.036.106-.082.22a30.257 30.257 0 0 1-1.66 3.34l-.329.57c-.004 0-.148-.087-.32-.192-1.012-.621-1.91-1.387-2.5-2.129l-.086-.102.434-.12a31.047 31.047 0 0 0 4.199-1.45Zm4.718 1.649s.008.004 0 0c.008.11-.238 1.094-.437 1.805a56.623 56.623 0 0 1-.574 1.894l-.22.664a.223.223 0 0 1-.062-.015 20.017 20.017 0 0 1-3.886-1.094 11.324 11.324 0 0 1-.84-.371c-.012-.012.277-.145.64-.301 2.172-.953 4.43-2.031 5.204-2.496a.607.607 0 0 1 .175-.086m-10.898.371c.008.012-.598.887-1.45 2.074l-.769 1.086c-.129.18-.324.469-.433.64l-.204.31-.214-.18a8.074 8.074 0 0 1-.887-.907c-.41-.511-.688-1.054-.8-1.546-.052-.227-.052-.344-.005-.356.074-.02 1.348-.32 2.543-.598l1.711-.402Zm.61.234.152.172a9.07 9.07 0 0 0 2.242 1.836c.152.086.27.164.258.168-.032.024-2.953 1.063-4.305 1.527l-1.39.485a.677.677 0 0 1-.094-.063l-.086-.062.136-.2c.45-.652 1.012-1.363 2.243-2.843Zm3.816 2.73c.004-.003.215.071.472.169a14.67 14.67 0 0 0 1.774.547 19.63 19.63 0 0 0 2.68.465c.105.007.164.02.144.035-.035.02-.738.25-1.254.414-.82.258-3.332 1-5.375 1.586l-.723.207c-.046.008-.207-.035-.207-.055 0-.008.118-.156.254-.32a28.381 28.381 0 0 0 1.942-2.61Zm-.844.024c.008.004-.332.551-.926 1.485l-.637 1.004-.32.527-.137.242-.074-.02A38.787 38.787 0 0 1 5.5 29.5a10.8 10.8 0 0 1-1.113-.512c-.383-.203-.86-.511-.824-.52.011-.003.664-.179 1.453-.398l4.015-1.136c.14-.043.258-.075.262-.07m5.95 1.395h.007c.02.047-.758 2.199-1.04 2.879-.062.152-.085.191-.116.183a80.356 80.356 0 0 1-5.578-.906l-.114-.023.711-.164c1.528-.344 2.266-.532 3.012-.758.941-.29 1.871-.645 2.813-1.086a2.38 2.38 0 0 1 .304-.125m0 0" style="stroke:none;fill-rule:nonzero;fill:url(#a)"/><path d="M11.691 0c-.101-.016-1.8.598-2.894 1.043-1.477.602-2.625 1.176-3.332 1.672-.262.187-.59.515-.645.644a.439.439 0 0 0-.027.164l.64.606 1.524.488 3.629.649 4.148.714.043-.359c-.015 0-.027-.004-.039-.004l-.547-.086-.109-.199a37.043 37.043 0 0 1-1.547-3.059c-.281-.644-.55-1.39-.7-1.925-.081-.325-.089-.344-.14-.348Zm-.074.242h.004c.004.008.024.14.043.297a9.95 9.95 0 0 0 .465 2.012c.176.527.176.5-.031.437-.485-.136-2.668-.511-4.25-.73a7.108 7.108 0 0 1-.47-.074c-.019-.02 1.142-.625 1.653-.864.656-.3 2.453-1.05 2.586-1.078m-4.61 2.145.188.058c1.016.348 3.563.832 4.965.95l.297.027c.004.004-.129.078-.3.156-.68.34-1.423.758-1.942 1.078-.152.094-.29.172-.309.172-.02 0-.12-.02-.226-.035l-.192-.027-.476-.47L7.258 2.61Zm-.187.144.672.844.824 1.016c.079.101.145.183.141.187-.02.016-.973-.172-1.48-.285a13.9 13.9 0 0 1-1.055-.277l-.266-.086v-.067c.008-.32.414-.8 1.102-1.285Zm5.723 1.149c.02 0 .043.043.102.172.164.359.668 1.324.793 1.511.039.063.105.067-.57-.043l-2.141-.36c0-.003.05-.038.109-.07a9.204 9.204 0 0 0 1.46-1.011l.227-.188c.008-.011.016-.015.02-.011m0 0" style="stroke:none;fill-rule:nonzero;fill:url(#b)"/><path d="M4.855 3.293s-.105.168-.003.414c.058.156.242.34.449.531L7.684 6.61c1.175 1.36 1.687 2.696 1.734 4.54.027 1.187-.195 2.226-.754 3.437-.996 2.168-3.094 4.562-6.328 7.223l.473-.16c.304-.231.722-.473 1.695-1.008 2.254-1.235 4.785-2.368 7.89-3.532 4.473-1.683 11.829-3.652 16.016-4.293l.434-.066-.067-.105c-.382-.59-.644-.961-.96-1.352-.919-1.137-2.032-2.059-3.391-2.824-1.875-1.047-4.297-1.864-7.367-2.473a93.012 93.012 0 0 0-2.88-.492l-5.163-.84-1.95-.36a13.435 13.435 0 0 1-1.265-.335c-.344-.137-.84-.27-.946-.676m1.23 1.195c.009-.004.083.024.185.059.18.058.414.133.69.207l.634.168.531.14c.031.032.516 1.575.676 2.168.062.227.11.418.105.418a1.285 1.285 0 0 1-.117-.187c-.562-.984-1.445-1.984-2.469-2.785a2.573 2.573 0 0 1-.234-.188m2.353.649c.023 0 .128.015.257.043.813.183 2.274.46 3.203.617.157.023.282.055.282.062a.493.493 0 0 1-.13.082c-.155.082-.792.457-1.003.602a8.973 8.973 0 0 0-1.352 1.078l-.258.254s-.027-.082-.05-.18a15.688 15.688 0 0 0-.856-2.343 1.952 1.952 0 0 1-.097-.22c0 .009 0 .005.004.005m4.14.789c.027.011.074.172.172.531a7.91 7.91 0 0 1 .23 2.188c-.011.203-.02.386-.03.41l-.012.05-.25-.082a67.377 67.377 0 0 0-2.055-.605c-.406-.113-.738-.211-.738-.223 0-.027.593-.62.847-.843.485-.426 1.793-1.442 1.836-1.426m.328.047c.016-.012 1.98.328 2.871.5l1.688.351c.031.012-.07.067-.39.211-1.262.57-2.2 1.078-3.13 1.7l-.457.296a3.13 3.13 0 0 1-.008-.304c0-.907-.18-1.825-.515-2.598a.684.684 0 0 1-.059-.156m5.082 1.004c.012.015-.05.402-.105.632-.172.711-.637 1.766-1.203 2.762-.102.176-.192.32-.203.324a2.288 2.288 0 0 1-.286-.152 15.537 15.537 0 0 0-1.875-.918c-.191-.082-.359-.148-.363-.156-.031-.031 1.508-1.047 2.32-1.535.645-.391 1.696-.977 1.715-.957m.364.058c.043 0 .91.238 1.367.371 1.12.336 2.41.809 3.254 1.192l.347.156-.242.059c-2.055.472-3.816 1.019-5.512 1.707a2.592 2.592 0 0 1-.273.105 1.5 1.5 0 0 1 .102-.246c.511-1.082.84-2.215.921-3.18.004-.094.02-.164.036-.164m-8.66 1.988c.015-.015.68.145 1.035.243.546.152 1.703.543 1.703.57 0 .004-.13.113-.282.25-.628.52-1.23 1.07-1.949 1.766a9.45 9.45 0 0 1-.406.375c-.012 0-.016-.032-.012-.07.11-.802.086-1.833-.066-2.88a2.53 2.53 0 0 1-.024-.254m13.956.016c.012.008-.304.504-.503.785-.29.414-.707.957-1.66 2.153l-1.25 1.582-.356.437c-.004 0-.067-.086-.133-.187a9.753 9.753 0 0 0-1.937-2.137l-.352-.29a.42.42 0 0 1-.098-.081c0-.012.813-.364 1.43-.61a49.163 49.163 0 0 1 3.656-1.304c.578-.184 1.196-.36 1.203-.348m.372.094c.02-.004.132.055.27.133 1.163.664 2.3 1.52 3.198 2.398.254.25.88.899.871.906l-.48.035c-2.012.157-4.586.579-7.063 1.176l-.324.074c-.012 0 .176-.187.41-.41 1.453-1.402 2.118-2.285 2.903-3.863zc-.008 0-.008 0 0 0m-10.645 1.09c.066.015.688.304 1.156.539.43.215 1.074.558 1.11.59.004.003-.223.125-.508.261-.899.45-1.668.875-2.469 1.364l-.426.253c-.02 0-.015-.02.114-.253.43-.786.773-1.723.972-2.633.02-.074.035-.121.051-.121m-.621.113c.016.016-.149.601-.25.922a11.6 11.6 0 0 1-.844 1.941l-.254.442-.12.191-.266-.258a3.526 3.526 0 0 0-.891-.656 1.32 1.32 0 0 1-.227-.133c0-.039.817-.781 1.442-1.316.449-.387 1.394-1.145 1.41-1.133m3.8 1.562.235.157c.535.347 1.164.812 1.648 1.218.27.223.797.696.903.813l.058.059-.386.113a69.238 69.238 0 0 0-5.856 1.87 5.793 5.793 0 0 1-.422.15c-.027 0-.05.023.442-.43 1.261-1.16 2.379-2.442 3.21-3.692Zm-1 .25c.008.008-.644.934-1.034 1.454-.47.62-1.301 1.664-1.875 2.34l-.454.523c-.015.004-.02-.067-.02-.176 0-.582-.148-1.195-.405-1.723-.11-.218-.13-.273-.106-.296.09-.082 1.48-.875 2.36-1.348.593-.317 1.52-.781 1.535-.774m-6.038 1.48c.011 0 .12.06.246.126.308.168.578.355.824.555.008.007-.117.109-.277.23a38.7 38.7 0 0 0-1.543 1.164c-.422.336-.438.344-.391.274.316-.485.477-.754.64-1.106.15-.309.297-.676.403-.996.039-.14.086-.246.098-.246m1.609 1.263c.023-.004.05.039.18.23.273.406.484.95.535 1.39l.012.094-.657.254c-1.172.457-2.25.907-2.98 1.239l-.797.382a6.2 6.2 0 0 1-.426.207c0-.007.149-.117.328-.25 1.43-1.035 2.668-2.175 3.594-3.312l.2-.234Zm-.742.183c.02.02-.524.633-.899 1.012a15.762 15.762 0 0 1-2.968 2.394l-.286.184c-.03.016.012-.031.508-.57.317-.34.555-.625.824-.98.184-.235.215-.266.481-.454.703-.508 2.32-1.605 2.34-1.586m0 0" style="stroke:none;fill-rule:nonzero;fill:url(#c)"/></svg>