<svg xmlns="http://www.w3.org/2000/svg" width="130" height="142" stroke="#000" stroke-linecap="round" stroke-linejoin="round" fill="#fff" fill-rule="evenodd">
    <defs>
        <linearGradient id="A" x1="25.90%" y1="88.93%" x2="38.34%" y2="65.94%">
            <stop offset="0%" stop-color="#909ca9"/>
            <stop offset="100%" stop-color="#ededee"/>
        </linearGradient>
        <linearGradient id="B" x1="0.17%" y1="49.85%" x2="18.59%" y2="49.85%">
            <stop offset="0%" stop-color="#939fab"/>
            <stop offset="100%" stop-color="#dcdee1"/>
        </linearGradient>
        <radialGradient id="C" cx="44%" cy="44%" r="19%" fx="44%" fy="44%">
            <stop offset="0%" stop-color="#ee352c"/>
            <stop offset="100%" stop-color="#a91d22"/>
        </radialGradient>
    </defs>
    <g fill-rule="nonzero" stroke="none">
        <path d="M80.815 65.4031l-28.0567 9.1615-24.4091 10.773-6.8287 1.8028-5.535 5.0263-5.7261 4.7926c-1.7176 1.3574-4.2625 3.9021-5.556 5.5136-1.9299 2.4175-3.4568 4.9835-4.1142 6.956-1.1665 3.5629-.5936 7.1679 1.6542 10.4976 2.8841 4.2412 8.6313 8.5673 15.3325 11.5151 3.4145 1.506 9.1615 3.4356 13.4876 4.517 7.1889 1.8239 21.1009 3.7962 28.7564 4.0933 1.5478.0636 3.6263.0636 3.7109 0 .1699-.1064 1.3575-2.3753 2.7362-5.1956 4.7079-9.607 8.1009-18.62 9.9458-26.3179 1.1027-4.6653 1.9721-10.8791 2.5445-18.2376.1487-2.0572.2121-8.9494.0849-11.2824-.191-3.8171-.5304-6.9132-1.0601-9.9458-.0849-.4455-.1064-.8485-.0638-.8696.0846-.0636.3391-.1483 3.7959-1.1453l-.6995-1.6539v-.0005h.0003zm-6.4044 3.7539c.2544 0 .9328 6.5103 1.1024 10.6248.0426.8694.0211 1.4419-.0211 1.4419-.1695 0-3.584-2.0144-6.0224-3.5412-2.1208-1.3362-6.15-4.0084-6.7862-4.5173-.2125-.1483-.1913-.1695 1.5479-.7635 2.9475-.9969 9.9461-3.2447 10.1794-3.2447zm-14.2935 4.708c.191 0 .6784.2754 1.8448.9966 4.3685 2.7357 10.3067 6.0441 12.8515 7.147.7845.3393.8691.2118-.9332 1.4421-3.8596 2.6295-8.6739 5.2166-14.5694 7.8252-1.039.4665-1.9084.8269-1.9295.8269-.0422 0 .0846-.5298.2541-1.1662 1.4209-5.2809 2.2269-10.6249 2.2696-14.9087.0211-2.1208.0211-2.1208.2121-2.1841-.0427.0212-.0215.0212 0 .0212zm-2.9477 1.1239c.1268.127.0422 4.8776-.1275 6.1711-.3817 3.0963-.9755 5.9803-1.9507 9.2253-.2333.7841-.4457 1.4419-.4877 1.4842-.0853.1059-2.9906-2.7358-3.9449-3.8385-1.6542-1.9087-2.9475-3.8173-3.9019-5.6834-.4878-.9544-1.2511-2.8204-1.1876-2.8841.3393-.2333 11.5154-4.5593 11.6003-4.4746zM43.2998 80.439c.0211 0 .0423 0 .0638.0211.0422.0424.191.3819.3182.7634.6784 1.8451 2.205 4.5595 3.5202 6.2986 1.4421 1.9087 3.3297 3.9444 4.8986 5.2804l1.0389.8907c.1276.1273.1699.1059-3.287 1.4209-4.0076 1.5269-8.3765 3.0537-13.3815 4.6654l-3.5834 1.1664c-.1912.0638-.1274-.0424.4239-.9117 2.4812-3.881 6.2558-11.4942 8.3767-16.8808l.7848-2.0782c.0849-.2971.1907-.403.4663-.5516.1484-.042.2971-.0846.3605-.0846zm-4.241 1.7601c.0635.0427-1.0181 2.3116-2.0785 4.3898-2.0571 4.0081-4.305 7.9529-7.3163 12.7455l-1.0603 1.6754c-.1059.1485-.1486.1059-.4878-.5514-.721-1.4209-1.315-3.2448-1.633-4.9202-.3183-1.6543-.2545-4.5382.1062-6.3195.2753-1.3147.2544-1.2935.8906-1.6117 2.7144-1.3784 11.4942-5.4927 11.5791-5.4079zm36.5817 1.4847v.8906c0 4.7292-.5089 11.2184-1.2514 15.9478l-.2545 1.5268-1.3359-.3819c-3.181-.9968-6.6377-2.46-9.7553-4.1775-2.0573-1.124-5.0473-2.9693-4.9623-3.0541.0208-.0211.9117-.4876 1.9507-1.0391 4.1571-2.163 8.1436-4.4957 11.6004-6.8073 1.2937-.8695 3.2444-2.2689 3.669-2.6508l.3393-.2545zm-52.5932 6.2769c.0848 0 .0636.1696-.0637.9331-.0848.5515-.1908 1.5695-.2329 2.269-.1701 3.0963.3392 5.3868 1.8661 8.5253.4241.8695.7637 1.5906.7421 1.6116-.1485.1274-14.1872 4.2418-18.5985 5.4504l-2.545.6995c-.1481.0426-.1695.0215-.1059-.3393.4877-3.1172 2.863-7.189 6.1711-10.6246 2.2057-2.2903 3.9659-3.6262 6.9773-5.3442l5.747-3.1596c.0002-.0212.0213-.0212.0424-.0212zm33.0829 5.9167c.0211-.0211.53.2548 1.1449.6151 4.5384 2.6298 10.8579 5.0686 16.2442 6.3197l.4881.1062-.6788.3813c-2.8203 1.5695-12.0878 5.429-21.567 8.9707l-2.9907 1.1239c-.2544.1059-.4877.1696-.4877.1485s.3819-.7636.8693-1.6754c2.6509-4.9624 5.3232-11.0063 6.6804-15.2053.17-.4029.2757-.7633.2973-.7847zm-3.3719 1.1029c.0215.0216-.1484.4666-.3606.9755-1.8449 4.4746-4.2628 9.3525-7.3588 14.8237l-1.4636 2.5239c-.0208 0-.6573-.382-1.4206-.8485-4.4962-2.7569-8.4829-6.15-11.0911-9.4371l-.3819-.4665 1.9296-.5303c6.9136-1.8872 12.7876-3.923 18.6198-6.4254l1.5272-.6153zm20.9524 7.3164s.0212.0212 0 0c.0211.4878-1.0605 4.8565-1.9513 8.016-.7421 2.6509-1.3787 4.7293-2.5448 8.3978l-.9754 2.9478c-.0212 0-.1484-.0211-.2756-.0632-6.2984-1.1456-11.9395-2.736-17.2412-4.8565-1.4847-.594-3.6052-1.5484-3.7325-1.6543-.0422-.0428 1.2303-.6362 2.8419-1.3362 9.6491-4.2201 19.6587-9.0129 23.0941-11.0697.4028-.2546.721-.3817.7848-.3817zm-48.3729 1.6543c.0425.0422-2.6509 3.9232-6.4259 9.2036l-3.414 4.8139c-.5727.8059-1.4421 2.0784-1.9299 2.8419l-.8911 1.3784-.9543-.8058c-1.124-.9333-3.0748-2.9266-3.9443-4.0294-1.8239-2.2689-3.0537-4.6653-3.5415-6.8494-.2333-1.0182-.2333-1.5274-.0215-1.5906.318-.0848 5.9804-1.421 11.2824-2.6512l7.5919-1.7811 2.2482-.5303zm2.7144 1.0391l.6783.7634c3.0542 3.4143 6.1716 5.9383 9.9464 8.1434.6787.382 1.1876.721 1.1449.7426-.148.1059-13.1058 4.7074-19.1072 6.7858l-6.171 2.1417c-.0211 0-.2121-.127-.4245-.2755l-.3815-.2758.6149-.8905c1.9933-2.8842 4.4962-6.0439 9.9463-12.618l3.7534-4.5171zm16.9233 12.1089c.0208-.021.954.318 2.099.7427 2.7573 1.0389 4.9412 1.6962 7.868 2.4385 3.6053.912 8.8221 1.8027 11.8972 2.0571.4666.0422.7211.0849.6362.1486-.1488.0848-3.2658 1.124-5.5562 1.845-3.6479 1.145-14.7813 4.432-23.8578 7.0406l-3.2023.9117c-.2118.0427-.9119-.1485-.9119-.2333 0-.0422.5089-.6995 1.124-1.4207 3.0536-3.6476 6.0864-7.7192 8.6101-11.5789l1.2937-1.9513zm-3.7328.1063c.0212.0212-1.4843 2.4386-4.1137 6.5951l-2.821 4.4535-1.4206 2.3327-.6151 1.0817-.318-.0849c-.7637-.2121-6.1289-2.0997-7.5498-2.6722-1.7603-.6999-3.584-1.5479-4.9414-2.269-1.6963-.912-3.8169-2.2694-3.6474-2.3115.0424-.0211 2.9478-.8061 6.4467-1.7602l17.8141-5.0473c.6151-.1908 1.1451-.3394 1.1662-.3179zm26.4027 6.1921h.0211c.0849.2123-3.3504 9.7553-4.6022 12.7665-.2752.6786-.381.8486-.5297.827-.3605-.0209-5.344-.7208-8.3769-1.1662-5.2803-.8058-14.1449-2.3542-16.3714-2.8629l-.509-.1059 3.1594-.7215c6.7865-1.5269 10.0523-2.3538 13.3604-3.3717 4.1779-1.2724 8.3135-2.863 12.491-4.8139.6574-.297 1.2088-.5302 1.3573-.5514z" fill="url(#A)"/>
        <path d="M51.8889.0011c-.4666-.0633-7.9953 2.6512-12.8515 4.6231-6.5531 2.6724-11.6424 5.2174-14.7812 7.4224-1.1662.8275-2.6297 2.2905-2.8627 2.863-.0848.2121-.1274.4666-.1274.721l2.8419 2.6934 6.7648 2.163 16.0961 2.8842 18.4074 3.1599.191-1.5905c-.0635 0-.1061-.0211-.1692-.0211l-2.4182-.3819-.4874-.8694c-2.5026-4.4111-5.2594-9.8825-6.8711-13.5725-1.251-2.863-2.4387-6.171-3.0963-8.5463-.3606-1.442-.4028-1.5268-.6357-1.5479V.001h-.0005zm-.3398 1.0819h.0218c.0209.0209.1058.6151.1908 1.3145.3601 2.9694 1.0181 5.8319 2.057 8.9282.7845 2.3328.7845 2.2057-.1272 1.9298-2.1631-.5936-11.8546-2.269-18.874-3.2444-1.1241-.1486-2.0784-.2969-2.0784-.3181-.0848-.0847 5.0683-2.7782 7.3375-3.8383 2.9053-1.3364 10.879-4.6658 11.4725-4.7717zm-20.4433 9.5005l.8274.2754c4.4956 1.5272 15.7986 3.6903 22.0338 4.1993l1.3145.1274c.0211.0211-.5723.3392-1.3359.6996-3.0111 1.5057-6.3195 3.3508-8.6099 4.7717-.6784.4239-1.2937.7635-1.3783.7635s-.5301-.0849-.9966-.1486l-.8483-.1274-2.1204-2.0784-7.7832-7.4859-1.1031-.9966zm-.8479.6573l2.9901 3.7326 3.6478 4.5167c.3601.4457.6572.8063.6361.8275-.0849.0635-4.326-.7637-6.5742-1.2724-2.3116-.5304-3.2658-.7848-4.6867-1.23l-1.1664-.3818v-.2971c.0211-1.421 1.8239-3.5415 4.8776-5.7044l.2757-.1911zm25.4057 5.0897c.085 0 .1907.1908.4451.7634.7211 1.5904 2.9694 5.8744 3.5203 6.7014.1701.2759.4666.2971-2.5233-.1907l-9.5007-1.5904c0-.0212.2121-.1697.4877-.3183 2.2269-1.2297 4.4747-2.7992 6.4683-4.4746l1.0177-.8484c.0211-.0424.0638-.0635.0849-.0424z" fill="url(#B)"/>
        <path d="M21.5415 14.6127s-.4663.7425-.0211 1.8454c.276.6783 1.0817 1.5053 1.9934 2.3537l10.5823 10.5187c5.2167 6.0226 7.486 11.9606 7.6981 20.1465.1272 5.2593-.8698 9.8824-3.3508 15.2478-4.411 9.628-13.721 20.2527-28.078 32.0438l2.0998-.6999c1.3572-1.0181 3.2022-2.0993 7.5283-4.4746 9.9883-5.4717 21.228-10.4977 35.0126-15.6721 19.8491-7.465 52.4869-16.2024 71.0638-19.0438L128 56.5811l-.2971-.4666c-1.6962-2.6297-2.863-4.2625-4.2628-6.0014-4.0714-5.0473-9.0123-9.14-15.0566-12.5333-8.3131-4.644-19.0653-8.2704-32.6797-10.9637-2.566-.5092-8.2071-1.4846-12.7877-2.1844l-22.9034-3.7323-8.6525-1.5904c-1.2724-.2759-3.711-.8484-5.6196-1.5058-1.5269-.5941-3.7326-1.1879-4.1991-2.9905zm5.4717 5.3019c.0209-.0209.3601.106.8058.2545.8058.2754 1.8448.5936 3.0752.9331l2.7992.7422 2.3537.6149c.1487.1486 2.2907 6.9979 3.0117 9.6276.2753.997.4878 1.8451.4666 1.8451-.0218.0215-.2548-.3393-.5303-.827-2.4813-4.3687-6.4046-8.8008-10.943-12.3637-.5935-.4238-1.0389-.8055-1.0389-.8267zm10.4337 2.8841c.1061 0 .5727.0637 1.145.1908 3.6052.8059 10.0734 2.0359 14.2086 2.7358.6999.1059 1.2514.2334 1.2514.2756s-.2547.1908-.5729.3606c-.6995.3604-3.5203 2.0356-4.4531 2.6719-2.3542 1.5693-4.4746 3.2658-6.0017 4.7927l-1.1453 1.124s-.1269-.3604-.2334-.806c-.7629-2.9478-2.3538-7.3165-3.7958-10.3913-.2333-.4876-.4243-.933-.4243-.9753 0 .0424 0 .0212.0215.0212zm18.365 3.4992c.1272.0422.3394.7633.7634 2.3537.7848 3.0752 1.1453 6.5107 1.0181 9.7129-.0426.8907-.0849 1.7177-.1275 1.824l-.0635.2118-1.1027-.3604c-2.2692-.721-5.959-1.8028-9.1187-2.6933-1.8029-.4878-3.2658-.9331-3.2658-.9755 0-.1274 2.6297-2.7569 3.7536-3.7536 2.1415-1.8877 7.9521-6.3834 8.1431-6.3196zm1.4633.2118c.0637-.0633 8.7797 1.442 12.7454 2.2056l7.486 1.5695c.1272.0422-.3182.2967-1.7392.9328-5.5984 2.5239-9.7552 4.7927-13.8901 7.5498l-2.0147 1.3148c-.0211 0-.0423-.6149-.0423-1.3572 0-4.0292-.806-8.101-2.2908-11.5364-.1483-.3394-.2755-.6574-.2543-.6789zm22.5428 4.4537c.0638.0635-.2121 1.7815-.4666 2.7992-.7633 3.1599-2.8203 7.8469-5.3437 12.2577-.4457.7846-.8485 1.4209-.8912 1.442s-.6147-.2971-1.2722-.6788c-2.4599-1.442-5.2591-2.7992-8.3131-4.0718-.848-.3604-1.5904-.6574-1.6116-.6995-.1488-.1274 6.68-4.6445 10.2852-6.8076 2.863-1.7388 7.5283-4.3262 7.6132-4.2412zm1.6116.2543c.191 0 4.0507 1.0605 6.065 1.6543 4.9839 1.4846 10.7096 3.5839 14.442 5.2804l1.5479.7001-1.0812.2543c-9.1187 2.0993-16.923 4.5172-24.4516 7.5709-.615.2545-1.1664.4666-1.2084.4666s.1695-.4877.4451-1.0817c2.2692-4.8139 3.7325-9.8399 4.0927-14.1239.0216-.403.0848-.721.1485-.721zm-38.4265 8.8222c.0635-.0637 3.0113.6363 4.6018 1.0812 2.4176.6789 7.5494 2.3964 7.5494 2.5239 0 .0211-.5723.5089-1.2507 1.1029-2.7781 2.3115-5.4504 4.75-8.6528 7.8463-.9544.9122-1.76 1.6543-1.8022 1.6543s-.0635-.1275-.0427-.2971c.4877-3.5628.382-8.1434-.2967-12.7876-.0639-.594-.1273-1.1028-.1061-1.1239zm61.9452.0638c.042.0421-1.3574 2.2476-2.248 3.4987-1.2722 1.8238-3.139 4.2418-7.3591 9.5434l-5.5559 7.0194-1.5696 1.9508c-.0211 0-.2964-.3815-.5935-.848-2.3753-3.5629-5.2172-6.6803-8.5891-9.4795l-1.569-1.2726c-.2333-.1696-.4243-.3393-.4243-.3604 0-.0634 3.6049-1.6119 6.341-2.7144 4.7928-1.9512 11.3238-4.2838 16.2231-5.7896 2.566-.8058 5.3018-1.5905 5.3444-1.5478zm1.6328.4238c.0846-.021.5938.2334 1.2088.5936 5.1534 2.9478 10.2003 6.744 14.1875 10.6461 1.1238 1.103 3.9019 3.9871 3.8593 4.0082l-2.1204.1695c-8.9281.6788-20.3584 2.5659-31.3437 5.2167l-1.4421.318c-.0419 0 .7848-.8269 1.8242-1.8235 6.4466-6.2136 9.3946-10.1368 12.8722-17.1353l.9542-1.9933c-.0211 0-.0211 0 0 0zM59.3534 45.363c.2971.0633 3.0539 1.3573 5.1321 2.3962 1.9087.954 4.7718 2.4812 4.9201 2.6082.0211.0212-.997.5514-2.2477 1.1665-3.9872 1.9934-7.4013 3.8806-10.9643 6.0438l-1.8872 1.1243c-.0849 0-.0638-.0852.5089-1.1243 1.9087-3.4776 3.4354-7.6342 4.3051-11.6849.0845-.318.1695-.5298.233-.5298zm-2.757.5087c.0638.0638-.6573 2.672-1.1024 4.0929-.8698 2.6933-2.333 6.0651-3.7536 8.61l-1.1242 1.9508-.5301.8482-1.1876-1.1448c-1.3783-1.3362-2.5025-2.1632-3.9443-2.9056-.5729-.2967-1.0181-.5514-1.0181-.5936 0-.1696 3.6264-3.4566 6.4045-5.8318 1.9933-1.7179 6.1923-5.0897 6.2558-5.0261zm16.8599 6.9348l1.0392.6784c2.3746 1.5483 5.1739 3.6052 7.3162 5.4077 1.2084.9965 3.5411 3.0964 4.0081 3.6053l.254.2759-1.7173.4876c-9.7129 2.6931-17.2201 5.0895-25.9786 8.3131-.9755.3604-1.8026.6573-1.8664.6573-.1268 0-.2332.1059 1.9514-1.9088 5.5987-5.1529 10.5608-10.8367 14.2509-16.3716l.7425-1.1449zm-4.4324 1.1027c.0423.0422-2.863 4.1351-4.6021 6.4467-2.0782 2.757-5.7683 7.3799-8.3131 10.3911l-2.0144 2.3118c-.0638.0211-.0849-.2969-.0849-.7847 0-2.5663-.6573-5.3019-1.8026-7.6345-.4878-.9755-.5727-1.2088-.4663-1.3147.4028-.3607 6.5739-3.881 10.4759-5.9803 2.6296-1.3996 6.7434-3.4778 6.8075-3.4354zm-26.8057 6.5741c.0638 0 .5516.2543 1.103.5514 1.3572.7421 2.566 1.5692 3.6475 2.4601.0422.0422-.5089.4878-1.2299 1.0176-2.0148 1.4421-5.0685 3.7538-6.8496 5.1747-1.8666 1.4845-1.9298 1.5268-1.718 1.2088 1.3998-2.1419 2.0993-3.3508 2.8419-4.8987.6572-1.3783 1.3145-3.0114 1.7811-4.4323.1695-.615.3817-1.0816.424-1.0816zm7.147 5.5985c.1057-.021.2333.1696.8056 1.0181 1.2088 1.8022 2.142 4.2202 2.3756 6.1711l.0419.4243-2.9049 1.1241c-5.196 2.0144-9.9884 4.008-13.2335 5.4922l-3.5412 1.6969c-1.0392.5299-1.8875.9329-1.8875.9117s.6573-.5089 1.4631-1.1029c6.3413-4.6016 11.8336-9.6491 15.9477-14.6962l.8906-1.0392.0426-.0001zm-3.287.806c.0849.0848-2.3327 2.8203-3.9868 4.4956-4.093 4.178-8.1435 7.444-13.1697 10.6251l-1.2724.8058c-.1485.0848.0423-.1274 2.2479-2.5238 1.3998-1.5057 2.46-2.7781 3.6688-4.3472.8058-1.0389.9543-1.1875 2.1209-2.0149 3.1175-2.248 10.3064-7.1256 10.3913-7.0406z" fill="url(#C)"/>
    </g>
</svg>