<svg role="img" viewBox="0 0 32 32" xmlns="http://www.w3.org/2000/svg"><path d="M16 3.2c-4.91 0-10.016 1.105-10.016 1.105l-.004.004a2.14 2.14 0 0 0-1.714 2.09V12.8c0 11.09 10.691 15.726 10.691 15.726a2.122 2.122 0 0 0 2.082 0h.004c.004 0 10.691-4.636 10.691-15.726V6.398a2.137 2.137 0 0 0-1.718-2.093S20.91 3.199 16 3.199m-5.297 7.312c1.406 0 2.402.785 2.442 1.922h-1.258c-.063-.504-.532-.84-1.176-.84-.668-.004-1.11.308-1.11.797 0 .394.305.62 1.051.777l.774.164c1.281.273 1.836.824 1.836 1.816 0 1.286-.989 2.079-2.59 2.079-1.524 0-2.512-.75-2.559-1.942h1.29c.062.516.585.852 1.34.852.69 0 1.183-.336 1.183-.82 0-.407-.317-.641-1.102-.81l-.832-.175c-1.164-.246-1.734-.852-1.734-1.824 0-1.207.969-1.996 2.445-1.996m6.121 0c1.406 0 2.406.785 2.446 1.922h-1.258c-.063-.504-.532-.84-1.18-.84-.668 0-1.11.312-1.11.797 0 .394.305.62 1.055.78l.77.161c1.281.273 1.836.824 1.836 1.816 0 1.286-.988 2.079-2.59 2.079-1.523 0-2.508-.75-2.559-1.942h1.293c.063.516.586.852 1.336.852.696 0 1.188-.336 1.188-.82 0-.407-.317-.641-1.102-.81l-.832-.175c-1.164-.246-1.734-.852-1.734-1.824 0-1.207.969-1.996 2.441-1.996m3.82.16h1.34v5.223h2.84v1.164h-4.18Zm0 0" style="stroke:none;fill-rule:nonzero;fill:rgb(20.392157%,59.607846%,85.882354%);fill-opacity:1"/></svg>