<?xml version="1.0" encoding="UTF-8"?>
<svg xmlns="http://www.w3.org/2000/svg" xmlns:xlink="http://www.w3.org/1999/xlink" width="32" height="32" viewBox="0 0 32 32" version="1.1">
<g id="surface1">
<path style=" stroke:none;fill-rule:nonzero;fill:rgb(20.392157%,59.607846%,85.882354%);fill-opacity:1;" d="M 16 3.199219 C 11.089844 3.199219 5.984375 4.304688 5.984375 4.304688 L 5.980469 4.308594 C 4.984375 4.511719 4.269531 5.382812 4.265625 6.398438 L 4.265625 12.800781 C 4.265625 23.890625 14.957031 28.527344 14.957031 28.527344 C 15.601562 28.890625 16.394531 28.890625 17.039062 28.527344 L 17.042969 28.527344 C 17.046875 28.527344 27.734375 23.890625 27.734375 12.800781 L 27.734375 6.398438 C 27.734375 5.378906 27.015625 4.503906 26.015625 4.304688 C 26.015625 4.304688 20.910156 3.199219 16 3.199219 M 10.703125 10.511719 C 12.109375 10.511719 13.105469 11.296875 13.144531 12.433594 L 11.886719 12.433594 C 11.824219 11.929688 11.355469 11.59375 10.710938 11.59375 C 10.042969 11.589844 9.601562 11.902344 9.601562 12.390625 C 9.601562 12.785156 9.90625 13.011719 10.652344 13.167969 L 11.425781 13.332031 C 12.707031 13.605469 13.261719 14.15625 13.261719 15.148438 C 13.261719 16.433594 12.273438 17.226562 10.671875 17.226562 C 9.148438 17.226562 8.160156 16.476562 8.113281 15.285156 L 9.402344 15.285156 C 9.464844 15.800781 9.988281 16.136719 10.742188 16.136719 C 11.433594 16.136719 11.925781 15.800781 11.925781 15.316406 C 11.925781 14.910156 11.609375 14.675781 10.824219 14.507812 L 9.992188 14.332031 C 8.828125 14.085938 8.257812 13.480469 8.257812 12.507812 C 8.257812 11.300781 9.226562 10.511719 10.703125 10.511719 M 16.824219 10.511719 C 18.230469 10.511719 19.230469 11.296875 19.269531 12.433594 L 18.011719 12.433594 C 17.949219 11.929688 17.480469 11.59375 16.832031 11.59375 C 16.164062 11.59375 15.722656 11.90625 15.722656 12.390625 C 15.722656 12.785156 16.027344 13.011719 16.777344 13.171875 L 17.546875 13.332031 C 18.828125 13.605469 19.382812 14.15625 19.382812 15.148438 C 19.382812 16.433594 18.394531 17.226562 16.792969 17.226562 C 15.269531 17.226562 14.285156 16.476562 14.234375 15.285156 L 15.527344 15.285156 C 15.589844 15.800781 16.113281 16.136719 16.863281 16.136719 C 17.558594 16.136719 18.050781 15.800781 18.050781 15.316406 C 18.050781 14.910156 17.734375 14.675781 16.949219 14.507812 L 16.117188 14.332031 C 14.953125 14.085938 14.382812 13.480469 14.382812 12.507812 C 14.382812 11.300781 15.351562 10.511719 16.824219 10.511719 M 20.644531 10.671875 L 21.984375 10.671875 L 21.984375 15.894531 L 24.824219 15.894531 L 24.824219 17.058594 L 20.644531 17.058594 Z M 20.644531 10.671875 "/>
</g>
</svg>
