<?xml version="1.0" encoding="utf-8"?>
<svg xmlns="http://www.w3.org/2000/svg" viewBox="0 0 30 30" fill="#000000"><path d="M 15 3 C 10.398 3 5.6113281 4.0371094 5.6113281 4.0371094 L 5.6074219 4.0410156 A 2 2 0 0 0 4 6 L 4 12 C 4 22.398 14.021484 26.744141 14.021484 26.744141 A 2 2 0 0 0 15 27 A 2 2 0 0 0 15.974609 26.744141 L 15.978516 26.744141 C 15.979516 26.744141 26 22.398 26 12 L 26 6 A 2 2 0 0 0 24.388672 4.0371094 C 24.388672 4.0371094 19.602 3 15 3 z M 10.033203 9.8535156 C 11.352203 9.8535156 12.286219 10.591203 12.324219 11.658203 L 11.144531 11.658203 C 11.085531 11.184203 10.647016 10.869141 10.041016 10.869141 C 9.4150156 10.868141 9 11.159234 9 11.615234 C 9 11.985234 9.2872813 12.196703 9.9882812 12.345703 L 10.710938 12.5 C 11.914938 12.753 12.431641 13.271172 12.431641 14.201172 C 12.431641 15.409172 11.506906 16.148438 10.003906 16.148438 C 8.5759063 16.148438 7.6504688 15.446078 7.6054688 14.330078 L 8.8164062 14.330078 C 8.8744062 14.815078 9.3653125 15.128906 10.070312 15.128906 C 10.721312 15.128906 11.181641 14.812375 11.181641 14.359375 C 11.181641 13.977375 10.882437 13.758562 10.148438 13.601562 L 9.3691406 13.435547 C 8.2771406 13.206547 7.7421875 12.637609 7.7421875 11.724609 C 7.7421875 10.595609 8.6512031 9.8535156 10.033203 9.8535156 z M 15.773438 9.8535156 C 17.092438 9.8535156 18.026453 10.591203 18.064453 11.658203 L 16.886719 11.658203 C 16.827719 11.184203 16.38725 10.869141 15.78125 10.869141 C 15.15525 10.869141 14.740234 11.161187 14.740234 11.617188 C 14.740234 11.987187 15.027516 12.198656 15.728516 12.347656 L 16.449219 12.5 C 17.653219 12.753 18.171875 13.271172 18.171875 14.201172 C 18.171875 15.409172 17.246141 16.148438 15.744141 16.148438 C 14.316141 16.148438 13.390703 15.446078 13.345703 14.330078 L 14.558594 14.330078 C 14.616594 14.815078 15.105547 15.128906 15.810547 15.128906 C 16.461547 15.128906 16.923828 14.812375 16.923828 14.359375 C 16.923828 13.977375 16.624625 13.758562 15.890625 13.601562 L 15.109375 13.435547 C 14.017375 13.206547 13.482422 12.637609 13.482422 11.724609 C 13.482422 10.595609 14.391438 9.8535156 15.773438 9.8535156 z M 19.355469 10.005859 L 20.609375 10.005859 L 20.609375 14.902344 L 23.273438 14.902344 L 23.273438 15.994141 L 19.355469 15.994141 L 19.355469 10.005859 z" fill="#000000"/></svg>
