<svg role="img" viewBox="0 0 32 32" xmlns="http://www.w3.org/2000/svg"><path d="M14.441 21.121h3.106v3.52H14.44Zm0 0" style="stroke:none;fill-rule:nonzero;fill:rgb(40.000001%,61.56863%,96.470588%);fill-opacity:1"/><path d="M24.64 18.492a.744.744 0 0 1-.535-.226l-5.437-5.641-3.656 3.855a.76.76 0 0 1-1.012.067l-2.773-2.238-2.934 3.89a.735.735 0 0 1-.602.293H2.668v2.281c0 .547.437.993.984 1h24.696a.999.999 0 0 0 .984-1v-2.28Zm0 0" style="stroke:none;fill-rule:nonzero;fill:rgb(25.882354%,52.156866%,95.686275%);fill-opacity:1"/><path d="m7.332 17.012 3.176-4.211a.73.73 0 0 1 .492-.293c.2-.016.398.039.559.16l2.828 2.293 3.734-3.922a.744.744 0 0 1 1.066 0l5.774 5.973h4.371V8a.989.989 0 0 0-.984-.988H3.652A.989.989 0 0 0 2.668 8v9.078Zm0 0" style="stroke:none;fill-rule:nonzero;fill:rgb(40.000001%,61.56863%,96.470588%);fill-opacity:1"/><path d="M11.96 24.238h8.095c.218 0 .398.18.398.403v.011c0 .223-.18.403-.398.403H11.96a.402.402 0 0 1-.402-.403v-.011c0-.223.18-.403.402-.403m0 0" style="stroke:none;fill-rule:nonzero;fill:rgb(25.882354%,52.156866%,95.686275%);fill-opacity:1"/></svg>