<svg role="img" viewBox="0 0 32 32" xmlns="http://www.w3.org/2000/svg"><path d="M22.398 3.84a1.93 1.93 0 0 0-1.918 1.922V8l-8.96 6.719V13.44a1.93 1.93 0 0 0-1.918-1.921h-7.68A1.93 1.93 0 0 0 0 13.44v5.118a1.93 1.93 0 0 0 1.922 1.921h7.68a1.93 1.93 0 0 0 1.918-1.921V17.28L20.48 24v2.238a1.93 1.93 0 0 0 1.918 1.922h7.68A1.93 1.93 0 0 0 32 26.238v-5.117a1.93 1.93 0 0 0-1.922-1.922h-7.68a1.93 1.93 0 0 0-1.918 1.922v1.277L11.96 16l8.52-6.398v1.277a1.93 1.93 0 0 0 1.918 1.922h7.68A1.93 1.93 0 0 0 32 10.879V5.762a1.93 1.93 0 0 0-1.922-1.922Zm0 1.281h7.68c.356 0 .64.285.64.64v5.118c0 .355-.284.64-.64.64h-7.68a.638.638 0 0 1-.636-.64V5.762c0-.356.285-.64.636-.64m-20.476 7.68h7.68c.351 0 .636.285.636.64v5.118c0 .355-.285.64-.636.64h-7.68a.639.639 0 0 1-.64-.64v-5.12c0-.355.284-.64.64-.64m20.476 7.68h7.68c.356 0 .64.285.64.64v5.117c0 .356-.284.64-.64.64h-7.68a.638.638 0 0 1-.636-.64V21.12c0-.355.285-.64.636-.64m0 0" style="stroke:none;fill-rule:nonzero;fill:rgb(0%,0%,0%);fill-opacity:1"/></svg>