<?xml version="1.0"?><svg xmlns="http://www.w3.org/2000/svg"  viewBox="0 0 50 50" width="32px" height="32px">    <path d="M46.674,24.262l-23-21c-0.292-0.268-0.717-0.335-1.077-0.177C22.234,3.245,22,3.604,22,4v8H4c-0.553,0-1,0.447-1,1v24 c0,0.553,0.447,1,1,1h18v8c0,0.396,0.234,0.755,0.597,0.915C22.727,46.972,22.863,47,23,47c0.245,0,0.486-0.09,0.674-0.262l23-21 C46.882,25.549,47,25.281,47,25S46.882,24.451,46.674,24.262z M29.757,19.653l-9.5,11c-0.176,0.204-0.428,0.328-0.696,0.345 C19.54,30.999,19.521,31,19.5,31c-0.248,0-0.488-0.092-0.673-0.26l-5.5-5c-0.408-0.372-0.438-1.004-0.067-1.413 c0.373-0.409,1.006-0.438,1.413-0.067l4.741,4.311l8.829-10.224c0.363-0.42,0.995-0.464,1.41-0.104 C30.071,18.604,30.118,19.235,29.757,19.653z"/></svg>