<?xml version="1.0" encoding="UTF-8"?>
<svg xmlns="http://www.w3.org/2000/svg" xmlns:xlink="http://www.w3.org/1999/xlink" width="32" height="32" viewBox="0 0 32 32" version="1.1">
<g id="surface1">
<path style=" stroke:none;fill-rule:nonzero;fill:rgb(0%,0%,0%);fill-opacity:1;" d="M 29.871094 15.527344 L 15.152344 2.085938 C 14.964844 1.917969 14.695312 1.875 14.460938 1.976562 C 14.230469 2.078125 14.082031 2.308594 14.078125 2.558594 L 14.078125 7.679688 L 2.558594 7.679688 C 2.207031 7.679688 1.921875 7.964844 1.921875 8.320312 L 1.921875 23.679688 C 1.921875 24.035156 2.207031 24.320312 2.558594 24.320312 L 14.078125 24.320312 L 14.078125 29.441406 C 14.082031 29.695312 14.230469 29.921875 14.460938 30.023438 C 14.695312 30.128906 14.964844 30.082031 15.152344 29.914062 L 29.871094 16.472656 C 30.003906 16.351562 30.082031 16.179688 30.082031 16 C 30.082031 15.820312 30.003906 15.648438 29.871094 15.527344 M 19.042969 12.578125 L 12.964844 19.617188 C 12.851562 19.75 12.691406 19.828125 12.519531 19.839844 L 12.480469 19.839844 C 12.320312 19.839844 12.167969 19.78125 12.050781 19.671875 L 8.527344 16.472656 C 8.292969 16.230469 8.285156 15.84375 8.511719 15.59375 C 8.742188 15.34375 9.125 15.3125 9.390625 15.527344 L 12.425781 18.285156 L 18.074219 11.742188 C 18.304688 11.472656 18.710938 11.445312 18.976562 11.675781 C 19.246094 11.90625 19.273438 12.308594 19.042969 12.578125 "/>
</g>
</svg>
