<svg role="img" viewBox="0 0 32 32" xmlns="http://www.w3.org/2000/svg"><path d="M15.883 32C7.355 31.941-.06 24.863 0 15.875.055 7.223 7.242-.059 16.14 0 24.786.059 32.079 7.234 32 16.023c.07 8.711-7.258 16.04-16.117 15.977m0 0C7.355 31.941-.06 24.863 0 15.875.055 7.223 7.242-.059 16.14 0 24.786.059 32.079 7.234 32 16.023c.07 8.711-7.258 16.04-16.117 15.977m0 0" style="stroke:none;fill-rule:nonzero;fill:rgb(100%,100%,100%);fill-opacity:1"/><path d="M15.898 29.875c-7.394-.05-13.824-6.187-13.773-13.984.047-7.5 6.281-13.817 13.996-13.766 7.496.05 13.82 6.273 13.754 13.895.063 7.554-6.293 13.91-13.977 13.855m0 0c-7.394-.05-13.824-6.187-13.773-13.984.047-7.5 6.281-13.817 13.996-13.766 7.496.05 13.82 6.273 13.754 13.895.063 7.554-6.293 13.91-13.977 13.855m0 0" style="stroke:none;fill-rule:nonzero;fill:rgb(28.627452%,63.921571%,16.862746%);fill-opacity:1"/><path d="M21.164 15.996c-.035.66-.613 1.207-1.18 1.113h-.007a1.143 1.143 0 0 1-1.145-1.14 1.162 1.162 0 0 1 1.18-1.121c.629.004 1.187.535 1.152 1.148m-10.14 6.406c.238.008.476.004.75.004v1.723c-1.704.285-3.106-.195-3.45-1.637a9.37 9.37 0 0 1-.219-1.613c-.035-.574.028-1.152-.015-1.727-.121-1.574-.328-2.113-1.84-2.187V15c.11-.023.219-.043.328-.055.832-.039 1.18-.297 1.367-1.113.082-.457.133-.922.149-1.39.066-.903.043-1.817.191-2.704.219-1.285 1.016-1.91 2.332-1.976.371-.024.75-.004 1.172-.004V9.52c-.172.011-.332.035-.492.03-1.074-.03-1.129.333-1.207 1.22-.047.558.02 1.125-.02 1.683-.039.555-.113 1.11-.222 1.656-.153.793-.641 1.383-1.317 1.883 1.309.852 1.461 2.176 1.543 3.524.047.722.028 1.449.102 2.168.054.558.273.703.847.718m1.105-7.554h.02a1.135 1.135 0 0 1 1.117 1.156v.058a1.114 1.114 0 0 1-1.176 1.047c-.024 0-.047 0-.074-.004a1.13 1.13 0 0 1 .113-2.258m3.906 0c.684-.004 1.14.441 1.145 1.117.004.695-.43 1.14-1.11 1.144-.691.004-1.148-.437-1.152-1.109a.441.441 0 0 1 0-.102c.016-.597.52-1.07 1.117-1.05m8.176-.856c.18.68.535.918 1.254.95.117.007.234.027.394.046v1.961c-.09.028-.175.051-.27.063-.96.058-1.398.453-1.491 1.418-.063.613-.059 1.234-.102 1.851-.016.68-.078 1.356-.183 2.024-.247 1.215-1.004 1.816-2.254 1.89-.403.024-.809.004-1.243.004v-1.75c.235-.015.442-.035.645-.043.75-.015 1.012-.258 1.05-1 .04-.816.06-1.633.094-2.449.055-1.18.375-2.23 1.477-2.965-.629-.449-1.137-.992-1.266-1.726-.16-.887-.21-1.793-.293-2.692-.043-.449-.043-.902-.085-1.351-.047-.489-.38-.657-.82-.664-.255-.008-.509-.004-.833-.004v-1.71c2.063-.344 3.488.343 3.621 2.32.055.828.047 1.66.102 2.488.023.453.09.899.203 1.34m0 0" style="stroke:none;fill-rule:nonzero;fill:rgb(100%,100%,100%);fill-opacity:1"/></svg>