<?xml version="1.0" encoding="UTF-8"?>
<svg xmlns="http://www.w3.org/2000/svg" xmlns:xlink="http://www.w3.org/1999/xlink" width="32" height="32" viewBox="0 0 32 32" version="1.1">
<g id="surface1">
<path style=" stroke:none;fill-rule:evenodd;fill:rgb(0%,0%,0%);fill-opacity:1;" d="M 21.292969 3.292969 C 21.683594 2.902344 22.316406 2.902344 22.707031 3.292969 L 28.707031 9.292969 C 29.097656 9.683594 29.097656 10.316406 28.707031 10.707031 L 22.707031 16.707031 C 22.457031 16.972656 22.082031 17.085938 21.726562 16.992188 C 21.375 16.902344 21.097656 16.625 21.007812 16.273438 C 20.914062 15.917969 21.027344 15.542969 21.292969 15.292969 L 25.585938 11 L 10 11 C 9.449219 11 9 10.550781 9 10 C 9 9.449219 9.449219 9 10 9 L 25.585938 9 L 21.292969 4.707031 C 20.902344 4.316406 20.902344 3.683594 21.292969 3.292969 M 10.707031 15.292969 C 11.097656 15.683594 11.097656 16.316406 10.707031 16.707031 L 6.414062 21 L 22 21 C 22.550781 21 23 21.449219 23 22 C 23 22.550781 22.550781 23 22 23 L 6.414062 23 L 10.707031 27.292969 C 10.972656 27.542969 11.085938 27.917969 10.992188 28.273438 C 10.902344 28.625 10.625 28.902344 10.273438 28.992188 C 9.917969 29.085938 9.542969 28.972656 9.292969 28.707031 L 3.292969 22.707031 C 2.902344 22.316406 2.902344 21.683594 3.292969 21.292969 L 9.292969 15.292969 C 9.683594 14.902344 10.316406 14.902344 10.707031 15.292969 "/>
</g>
</svg>
