<?xml version="1.0" encoding="UTF-8"?>
<svg xmlns="http://www.w3.org/2000/svg" xmlns:xlink="http://www.w3.org/1999/xlink" width="32" height="32" viewBox="0 0 32 32" version="1.1">
<g id="surface1">
<path style=" stroke:none;fill-rule:nonzero;fill:rgb(0%,0%,0%);fill-opacity:1;" d="M 12.800781 2.558594 C 9.285156 2.558594 6.398438 5.445312 6.398438 8.960938 L 6.398438 20.320312 L 4.558594 18.480469 L 2.761719 20.300781 L 7.679688 25.21875 L 12.601562 20.300781 L 10.800781 18.5 L 8.960938 20.320312 L 8.960938 8.960938 C 8.960938 6.84375 10.683594 5.121094 12.800781 5.121094 L 19.839844 5.121094 L 19.839844 2.558594 Z M 24.320312 6.78125 L 19.378906 11.71875 L 21.199219 13.519531 L 23.039062 11.679688 L 23.039062 23.039062 C 23.039062 25.15625 21.316406 26.878906 19.199219 26.878906 L 12.160156 26.878906 L 12.160156 29.441406 L 19.199219 29.441406 C 22.714844 29.441406 25.601562 26.554688 25.601562 23.039062 L 25.601562 11.679688 L 27.441406 13.519531 L 29.242188 11.699219 Z M 24.320312 6.78125 "/>
</g>
</svg>
