<svg xmlns:xlink="http://www.w3.org/1999/xlink" role="img" viewBox="0 0 23.04 32" xmlns="http://www.w3.org/2000/svg"><defs><linearGradient gradientTransform="translate(0 2)" gradientUnits="userSpaceOnUse" id="d" x1="36" x2="36" y1="97" y2="-1"><stop offset="0" style="stop-color:rgb(78.431374%,83.137256%,85.882354%);stop-opacity:1"/><stop offset=".139" style="stop-color:rgb(84.705883%,88.235295%,90.196079%);stop-opacity:1"/><stop offset=".359" style="stop-color:rgb(92.156863%,94.117647%,95.294118%);stop-opacity:1"/><stop offset=".617" style="stop-color:rgb(97.647059%,98.039216%,98.431373%);stop-opacity:1"/><stop offset="1" style="stop-color:rgb(100%,100%,100%);stop-opacity:1"/></linearGradient><linearGradient gradientTransform="translate(0 2)" gradientUnits="userSpaceOnUse" id="e" x1="45.037" x2="58.537" y1="25.813" y2="12.313"><stop offset="0" style="stop-color:rgb(100%,100%,100%);stop-opacity:1"/><stop offset=".35" style="stop-color:rgb(98.039216%,98.431373%,98.431373%);stop-opacity:1"/><stop offset=".532" style="stop-color:rgb(92.941177%,94.509804%,95.686275%);stop-opacity:1"/><stop offset=".675" style="stop-color:rgb(86.666667%,89.803922%,91.37255%);stop-opacity:1"/><stop offset=".799" style="stop-color:rgb(78.039217%,82.745099%,85.490197%);stop-opacity:1"/><stop offset=".908" style="stop-color:rgb(67.843139%,74.117649%,78.039217%);stop-opacity:1"/><stop offset="1" style="stop-color:rgb(57.254905%,64.705884%,69.01961%);stop-opacity:1"/></linearGradient><linearGradient gradientTransform="scale(.32)" gradientUnits="userSpaceOnUse" id="c" x1="36" x2="36" y1="65.808" y2="28.808"><stop offset="0" style="stop-color:rgb(67.843139%,80.000001%,86.274511%);stop-opacity:1"/><stop offset="1" style="stop-color:rgb(29.803923%,42.352942%,48.235294%);stop-opacity:1"/></linearGradient><clipPath id="b"><path d="M0 0h24v32H0z"/></clipPath><filter filterUnits="objectBoundingBox" height="100%" id="a" width="100%" x="0%" y="0%"><feColorMatrix in="SourceGraphic" values="0 0 0 0 1 0 0 0 0 1 0 0 0 0 1 0 0 0 1 0"/></filter><mask id="g"><g filter="url(#a)"><path d="M0 0h23.04v32H0z" style="fill:rgb(0%,0%,0%);fill-opacity:0.9;stroke:none"/></g></mask><g clip-path="url(#b)" id="f"><path d="m16.734 19.2-3.804-3.84c-.035-.032-.067-.063-.13-.094l.673-.707.093-.094c.899.351 1.954.16 2.657-.578.511-.512.8-1.246.738-1.985 0-.093-.066-.16-.129-.191-.062-.031-.16 0-.223.066l-1.218 1.215-1.246-.32-.352-1.281 1.215-1.215c.062-.063.062-.16.062-.223a.21.21 0 0 0-.191-.129 2.434 2.434 0 0 0-1.984.735c-.735.738-.895 1.761-.575 2.656l-.097.098-.993.96-1.824-1.824-.062-.066c.031-.031.031-.063.062-.125.387.062 1.09-.672 1.7-1.281L9.343 9.215c-.77.77-1.344 1.312-1.281 1.695-.192.098-.352.195-.446.32l-.258.227c-.16.16-.254.352-.289.574-.03.031-.062.067-.062.098l-.098.129v.031l-.094.125c-.062.066-.097.16-.128.227-.032.03-.032.062-.063.093l-.031.067c-.035.094-.098.16-.13.254-.03.097-.097.226-.128.351l-.031.067c0 .03-.032.093-.032.129l-.035.16c-.031.093-.031.222-.031.285v.578l.031.129v.062c0 .063.035.13.035.16l.094.32c.031.095.13.161.227.161.062 0 .093-.031.125-.066.035-.032.066-.063.066-.125l.031-.32c0-.036 0-.067.032-.098 0-.032 0-.063.03-.063l.032-.129s0-.031.035-.031c0 0 0-.031.032-.031 0-.035.03-.067.03-.067.032-.062.032-.093.063-.129 0-.03.035-.03.035-.062.032-.063.063-.098.094-.16l.067-.098c0-.031.03-.031.062-.062l.031-.032c.032-.062.098-.097.16-.16l.032-.031c.035-.031.097-.066.129-.098.03 0 .03-.03.062-.03.035 0 .035-.032.067-.032.03-.031.062-.067.128-.067l.094-.062.098-.031c.031-.032.062-.032.094-.032.035 0 .035 0 .066-.035.031 0 .031 0 .031-.031.032 0 .032 0 .063-.031h.031c.035.031.066.097.098.129l1.793 1.793-3.938 3.644c-.48.48-.543 1.188-.062 1.664.48.48 1.152.356 1.633-.125l3.39-3.586.063.067 3.808 3.804a1.096 1.096 0 0 0 1.535 0c.45-.414.45-1.117 0-1.535m-9.308.831c-.196.192-.45.192-.64 0-.192-.191-.192-.445 0-.64.19-.192.444-.192.64 0 .16.195.16.48 0 .64m0 0" style="stroke:none;fill-rule:nonzero;fill:url(#c)"/></g></defs><path d="m44.995 1.001 27.002 26.697v71.301H0V1.001Zm0 0" style="fill-rule:nonzero;fill:url(#d);stroke-width:2;stroke-linecap:butt;stroke-linejoin:miter;stroke:rgb(44.313726%,56.862748%,63.137257%);stroke-opacity:1;stroke-miterlimit:4" transform="scale(.32)"/><path d="m44.995 1.001 27.002 26.697H44.995Zm0 0" style="fill-rule:nonzero;fill:url(#e);stroke-width:2;stroke-linecap:butt;stroke-linejoin:bevel;stroke:rgb(44.313726%,56.862748%,63.137257%);stroke-opacity:1;stroke-miterlimit:4" transform="scale(.32)"/><path d="m2.879 27.328 1.25-.129c.062.418.223.738.445.93.227.191.547.285.93.285.418 0 .734-.094.93-.254.222-.191.32-.383.32-.61 0-.16-.035-.284-.129-.382-.098-.098-.258-.191-.48-.29-.16-.062-.512-.16-1.024-.284-.707-.16-1.184-.387-1.473-.64a1.68 1.68 0 0 1-.29-2.21c.193-.287.45-.514.802-.639.352-.16.77-.226 1.246-.226.801 0 1.41.191 1.824.547.418.351.61.832.641 1.406l-1.277.063c-.067-.32-.16-.575-.356-.704-.191-.16-.445-.222-.832-.222-.383 0-.672.062-.894.222a.453.453 0 0 0-.192.383c0 .16.063.29.192.387.16.129.578.285 1.183.414.61.129 1.09.29 1.41.45.32.16.543.382.704.64.16.254.253.605.253 1.023 0 .352-.093.703-.32 1.024-.191.32-.476.543-.863.703-.383.16-.832.226-1.406.226-.801 0-1.442-.195-1.856-.578-.387-.289-.64-.832-.738-1.535m8 2.078V26.72l-2.336-3.711h1.504l1.504 2.527 1.472-2.527h1.504l-2.367 3.71v2.688Zm3.937-2.078 1.246-.129c.067.418.227.738.45.93.222.191.543.285.93.285.413 0 .734-.094.925-.254.227-.191.32-.383.32-.61 0-.16-.03-.284-.128-.382-.094-.098-.254-.191-.48-.29-.157-.062-.513-.16-1.024-.284-.703-.16-1.184-.387-1.47-.64-.386-.352-.577-.77-.577-1.282 0-.32.097-.64.289-.93.191-.285.445-.512.8-.637.352-.16.766-.226 1.247-.226.8 0 1.41.191 1.824.547.418.351.61.832.64 1.406l-1.28.063c-.063-.32-.16-.575-.352-.704-.192-.16-.45-.222-.832-.222-.383 0-.672.062-.895.222a.453.453 0 0 0-.191.383c0 .16.062.29.191.387.16.129.574.285 1.184.414.605.129 1.086.29 1.406.45.32.16.547.382.703.64.16.254.258.605.258 1.023 0 .352-.098.703-.32 1.024-.192.32-.48.543-.864.703-.382.16-.832.226-1.41.226-.797 0-1.437-.195-1.855-.578-.383-.289-.64-.832-.735-1.535m0 0" style="stroke:none;fill-rule:nonzero;fill:rgb(29.803923%,42.352942%,48.235294%);fill-opacity:1"/><use xlink:href="#f" mask="url(#g)"/></svg>