<?xml version="1.0" encoding="UTF-8"?>
<svg xmlns="http://www.w3.org/2000/svg" xmlns:xlink="http://www.w3.org/1999/xlink" width="32" height="32" viewBox="0 0 32 32" version="1.1">
<g id="surface1">
<path style=" stroke:none;fill-rule:nonzero;fill:rgb(87.450981%,94.117647%,99.607843%);fill-opacity:1;" d="M 1.601562 25.199219 C 0.9375 25.199219 0.398438 24.660156 0.398438 24 L 0.398438 8 C 0.398438 7.339844 0.9375 6.800781 1.601562 6.800781 L 22.96875 6.800781 C 23.441406 6.800781 23.875 6.972656 24.191406 7.289062 L 30.777344 14.011719 C 31.308594 14.542969 31.597656 15.246094 31.597656 15.992188 C 31.597656 16.742188 31.308594 17.445312 30.777344 17.972656 L 24.191406 24.636719 C 23.832031 24.992188 23.386719 25.199219 22.964844 25.199219 Z M 25.601562 14 C 24.496094 14 23.601562 14.898438 23.601562 16 C 23.601562 17.101562 24.496094 18 25.601562 18 C 26.703125 18 27.601562 17.101562 27.601562 16 C 27.601562 14.898438 26.703125 14 25.601562 14 Z M 25.601562 14 "/>
<path style=" stroke:none;fill-rule:nonzero;fill:rgb(27.843139%,53.333336%,78.039217%);fill-opacity:1;" d="M 22.964844 7.199219 C 23.332031 7.199219 23.667969 7.332031 23.902344 7.566406 L 30.496094 14.296875 C 31.433594 15.234375 31.433594 16.757812 30.492188 17.695312 L 23.910156 24.351562 C 23.628906 24.632812 23.277344 24.800781 22.964844 24.800781 L 1.601562 24.800781 C 1.160156 24.800781 0.800781 24.441406 0.800781 24 L 0.800781 8 C 0.800781 7.558594 1.160156 7.199219 1.601562 7.199219 L 22.964844 7.199219 M 25.601562 18.398438 C 26.921875 18.398438 28 17.324219 28 16 C 28 14.675781 26.921875 13.601562 25.601562 13.601562 C 24.277344 13.601562 23.199219 14.675781 23.199219 16 C 23.199219 17.324219 24.277344 18.398438 25.601562 18.398438 M 22.96875 6.398438 L 1.601562 6.398438 C 0.714844 6.398438 0 7.117188 0 8 L 0 24 C 0 24.878906 0.71875 25.601562 1.601562 25.601562 L 22.964844 25.601562 C 23.53125 25.601562 24.074219 25.320312 24.476562 24.917969 L 31.0625 18.257812 C 32.3125 17.007812 32.3125 14.980469 31.0625 13.730469 L 24.472656 7.007812 C 24.074219 6.605469 23.53125 6.402344 22.96875 6.398438 Z M 25.601562 17.601562 C 24.714844 17.601562 24 16.882812 24 16 C 24 15.117188 24.714844 14.398438 25.601562 14.398438 C 26.484375 14.398438 27.199219 15.117188 27.199219 16 C 27.199219 16.882812 26.484375 17.601562 25.601562 17.601562 Z M 25.601562 17.601562 "/>
</g>
</svg>
