<svg xmlns="http://www.w3.org/2000/svg"  viewBox="0 0 50 50" width="32px" height="32px"><path d="M 47.144531 22.902344 L 37.9375 12.398438 L 37.859375 12.320313 C 36.9375 11.46875 35.730469 11 34.476563 11 C 34.476563 11 34.472656 11 34.472656 11 L 5 11 C 3.347656 11 2 12.347656 2 14 L 2 36 C 2 37.652344 3.347656 39 5 39 L 34.472656 39 C 34.472656 39 34.472656 39 34.476563 39 C 35.734375 39 36.9375 38.53125 37.863281 37.679688 L 47.121094 27.121094 C 47.6875 26.554688 48 25.800781 48 25 C 48 24.210938 47.695313 23.46875 47.144531 22.902344 Z M 37 28 C 35.34375 28 34 26.65625 34 25 C 34 23.34375 35.34375 22 37 22 C 38.65625 22 40 23.34375 40 25 C 40 26.65625 38.65625 28 37 28 Z"/></svg>