<?xml version="1.0" encoding="UTF-8"?>
<svg xmlns="http://www.w3.org/2000/svg" xmlns:xlink="http://www.w3.org/1999/xlink" width="32" height="32" viewBox="0 0 32 32" version="1.1">
<g id="surface1">
<path style=" stroke:none;fill-rule:nonzero;fill:rgb(0%,0%,0%);fill-opacity:1;" d="M 30.171875 14.65625 L 24.28125 7.933594 L 24.230469 7.886719 C 23.640625 7.339844 22.867188 7.039062 22.066406 7.039062 L 3.199219 7.039062 C 2.144531 7.039062 1.28125 7.902344 1.28125 8.960938 L 1.28125 23.039062 C 1.28125 24.097656 2.144531 24.960938 3.199219 24.960938 L 22.066406 24.960938 C 22.867188 24.960938 23.640625 24.660156 24.230469 24.113281 L 30.15625 17.359375 C 30.519531 16.996094 30.71875 16.511719 30.71875 16 C 30.722656 15.496094 30.523438 15.015625 30.171875 14.65625 M 23.679688 17.921875 C 22.621094 17.917969 21.757812 17.058594 21.761719 16 C 21.761719 14.9375 22.621094 14.078125 23.679688 14.078125 C 24.742188 14.078125 25.601562 14.9375 25.601562 16 C 25.601562 17.0625 24.742188 17.921875 23.679688 17.921875 "/>
</g>
</svg>
