<?xml version="1.0" encoding="UTF-8"?>
<svg xmlns="http://www.w3.org/2000/svg" xmlns:xlink="http://www.w3.org/1999/xlink" width="32" height="32" viewBox="0 0 32 32" version="1.1">
<g id="surface1">
<path style=" stroke:none;fill-rule:nonzero;fill:rgb(0.392157%,0%,0.784314%);fill-opacity:1;" d="M 16 0 C 7.402344 0 0.433594 6.96875 0.433594 15.566406 C 0.433594 19.230469 1.707031 22.589844 3.828125 25.246094 C 4.6875 26.320312 5.132812 28.039062 4.351562 29.050781 C 3.789062 29.773438 3.175781 30.269531 2.511719 30.355469 C 0.34375 30.648438 3.304688 33.242188 8.386719 31.261719 C 9.667969 30.761719 11.660156 30.5625 13.007812 30.832031 C 13.976562 31.027344 14.976562 31.128906 16 31.128906 C 24.597656 31.128906 31.566406 24.164062 31.566406 15.566406 C 31.566406 6.96875 24.597656 0 16 0 M 16 0 "/>
</g>
</svg>
