<svg role="img" viewBox="0 0 32 32" xmlns="http://www.w3.org/2000/svg"><path d="M15.648 20.61a3.406 3.406 0 0 1-1.355.292c-2.207 0-4.008-2.199-4.008-4.902 0-2.703 1.8-4.902 4.008-4.902.48 0 .934.109 1.36.297 1.124.625 1.98 1.816 2.312 3.261h2.95v-.004c-.017-.105-.024-.214-.044-.316a9.75 9.75 0 0 0-.16-.762c0-.004 0-.011-.004-.015-.883-3.512-3.617-6.079-6.852-6.079C9.906 7.48 6.7 11.3 6.7 16c0 4.695 3.207 8.52 7.156 8.52 3.235 0 5.97-2.567 6.852-6.079.004-.011.004-.02.008-.03.062-.247.113-.493.156-.743.02-.11.027-.219.043-.324.004-.024.004-.043.008-.063H17.98c-.328 1.477-1.19 2.696-2.332 3.328m14.438-3.976c.46.004.46-1.328 0-1.332h-.18L31 9.633l-2.012 1.05-1.422 4.618H26.5l1.402-4.051-2.175 1.137-1.344 2.914H23.34l1.36-2.469.753-.39C24.13 5.881 19.23 1 13.406 1 6.566 1 1 7.73 1 16s5.566 15 12.406 15c5.84 0 10.75-4.91 12.059-11.496l-.766-.399-1.36-2.468h1.044l1.344 2.914 2.175 1.137-1.402-4.051h1.066l1.422 4.617L31 22.304l-1.094-5.667c.059 0 .121 0 .18-.004M19.32 25.14c-1.543 1.394-3.449 2.218-5.511 2.218-5.125.004-9.293-5.093-9.293-11.359S8.684 4.637 13.809 4.637c2.062 0 3.968.828 5.511 2.222 1.809 1.715 3.086 4.196 3.52 7.032l-.086.046-1.047 1.364h-5.95c-.194-.735-.683-1.258-1.26-1.258-.75 0-1.356.875-1.356 1.957 0 1.078.605 1.957 1.355 1.957.594 0 1.094-.555 1.277-1.324h5.938L22.754 18l.094.047c-.426 2.863-1.707 5.367-3.528 7.094m10.188-8.813H14.949c-.441 0-.441-.719 0-.719h14.828c.438 0 .438.72 0 .72z" style="stroke:none;fill-rule:nonzero;fill:rgb(0%,0%,0%);fill-opacity:1"/></svg>