<?xml version="1.0" encoding="UTF-8"?>
<svg xmlns="http://www.w3.org/2000/svg" xmlns:xlink="http://www.w3.org/1999/xlink" width="32" height="32" viewBox="0 0 32 32" version="1.1">
<g id="surface1">
<path style=" stroke:none;fill-rule:nonzero;fill:rgb(0%,0%,0%);fill-opacity:1;" d="M 15.648438 20.609375 C 15.222656 20.800781 14.761719 20.898438 14.292969 20.902344 C 12.085938 20.902344 10.285156 18.703125 10.285156 16 C 10.285156 13.296875 12.085938 11.097656 14.292969 11.097656 C 14.773438 11.097656 15.226562 11.207031 15.652344 11.394531 C 16.777344 12.019531 17.632812 13.210938 17.964844 14.65625 L 20.914062 14.65625 L 20.914062 14.652344 C 20.898438 14.546875 20.890625 14.4375 20.871094 14.335938 C 20.828125 14.078125 20.773438 13.824219 20.710938 13.574219 C 20.710938 13.570312 20.710938 13.5625 20.707031 13.558594 C 19.824219 10.046875 17.089844 7.480469 13.855469 7.480469 C 9.90625 7.480469 6.699219 11.300781 6.699219 16 C 6.699219 20.695312 9.90625 24.519531 13.855469 24.519531 C 17.089844 24.519531 19.824219 21.953125 20.707031 18.441406 C 20.710938 18.429688 20.710938 18.421875 20.714844 18.410156 C 20.777344 18.164062 20.828125 17.917969 20.871094 17.667969 C 20.890625 17.558594 20.898438 17.449219 20.914062 17.34375 C 20.917969 17.320312 20.917969 17.300781 20.921875 17.28125 L 17.980469 17.28125 C 17.652344 18.757812 16.789062 19.976562 15.648438 20.609375 M 30.085938 16.632812 C 30.546875 16.636719 30.546875 15.304688 30.085938 15.300781 L 29.90625 15.300781 L 31 9.632812 L 28.988281 10.683594 L 27.566406 15.300781 L 26.5 15.300781 L 27.902344 11.25 L 25.726562 12.386719 L 24.382812 15.300781 L 23.339844 15.300781 L 24.699219 12.832031 L 25.453125 12.441406 C 24.128906 5.882812 19.230469 1 13.40625 1 C 6.566406 1 1 7.730469 1 16 C 1 24.269531 6.566406 31 13.40625 31 C 19.246094 31 24.15625 26.089844 25.464844 19.503906 L 24.699219 19.105469 L 23.339844 16.636719 L 24.382812 16.636719 L 25.726562 19.550781 L 27.902344 20.6875 L 26.5 16.636719 L 27.566406 16.636719 L 28.988281 21.253906 L 31 22.304688 L 29.90625 16.636719 C 29.964844 16.636719 30.027344 16.636719 30.085938 16.632812 M 19.320312 25.140625 C 17.777344 26.535156 15.871094 27.359375 13.808594 27.359375 C 8.683594 27.363281 4.515625 22.265625 4.515625 16 C 4.515625 9.734375 8.683594 4.636719 13.808594 4.636719 C 15.871094 4.636719 17.777344 5.464844 19.320312 6.859375 C 21.128906 8.574219 22.40625 11.054688 22.839844 13.890625 L 22.753906 13.9375 L 21.707031 15.300781 L 15.757812 15.300781 C 15.5625 14.566406 15.074219 14.042969 14.496094 14.042969 C 13.746094 14.042969 13.140625 14.917969 13.140625 16 C 13.140625 17.078125 13.746094 17.957031 14.496094 17.957031 C 15.089844 17.957031 15.589844 17.402344 15.773438 16.632812 L 21.710938 16.632812 L 22.753906 18 L 22.847656 18.046875 C 22.421875 20.910156 21.140625 23.414062 19.320312 25.140625 M 29.507812 16.328125 L 14.949219 16.328125 C 14.507812 16.328125 14.507812 15.609375 14.949219 15.609375 L 29.777344 15.609375 C 30.214844 15.609375 30.214844 16.328125 29.777344 16.328125 Z M 29.507812 16.328125 "/>
</g>
</svg>
