<svg xmlns:xlink="http://www.w3.org/1999/xlink" role="img" viewBox="0 0 32.547 32" xmlns="http://www.w3.org/2000/svg"><defs><clipPath id="d"><use xlink:href="#a"/></clipPath><clipPath id="e"><use xlink:href="#a"/></clipPath><clipPath id="g"><use xlink:href="#a"/></clipPath><clipPath id="h"><use xlink:href="#a"/></clipPath><clipPath id="i"><use xlink:href="#a"/></clipPath><clipPath id="j"><use xlink:href="#a"/></clipPath><clipPath id="k"><use xlink:href="#a"/></clipPath><mask id="m"><g filter="url(#b)"><use xlink:href="#c" style="fill:rgb(0%,0%,0%);fill-opacity:0.1;stroke:none"/></g></mask><mask id="o"><g filter="url(#b)"><use xlink:href="#c" style="fill:rgb(0%,0%,0%);fill-opacity:0.2;stroke:none"/></g></mask><mask id="q"><g filter="url(#b)"><use xlink:href="#c" style="fill:rgb(0%,0%,0%);fill-opacity:0.2;stroke:none"/></g></mask><mask id="s"><g filter="url(#b)"><use xlink:href="#c" style="fill:rgb(0%,0%,0%);fill-opacity:0.1;stroke:none"/></g></mask><mask id="u"><g filter="url(#b)"><use xlink:href="#c" style="fill:rgb(0%,0%,0%);fill-opacity:0.2;stroke:none"/></g></mask><mask id="w"><g filter="url(#b)"><use xlink:href="#c" style="fill:rgb(0%,0%,0%);fill-opacity:0.2;stroke:none"/></g></mask><mask id="y"><g filter="url(#b)"><use xlink:href="#c" style="fill:rgb(0%,0%,0%);fill-opacity:0.2;stroke:none"/></g></mask><g clip-path="url(#d)" id="l"><path d="M16.86 7h-4.227l.02.094.003.008.02.085a4.674 4.674 0 0 0 5.515 3.372V8.332A1.339 1.339 0 0 0 16.86 7m0 0" style="stroke:none;fill-rule:nonzero;fill:rgb(0%,0%,0%);fill-opacity:1"/></g><g clip-path="url(#e)" id="n"><use xlink:href="#f" style="stroke:none;fill-rule:nonzero;fill:rgb(0%,0%,0%);fill-opacity:1"/></g><g clip-path="url(#g)" id="p"><use xlink:href="#f" style="stroke:none;fill-rule:nonzero;fill:rgb(0%,0%,0%);fill-opacity:1"/></g><g clip-path="url(#h)" id="r"><path d="M18.191 12v12.672a1.32 1.32 0 0 1-1.039 1.289 1.039 1.039 0 0 1-.289.039H9.77a8.802 8.802 0 0 1-.329-1 8.203 8.203 0 0 1-.25-2v-9.5c0-.398.157-.781.438-1.062A1.502 1.502 0 0 1 10.69 12Zm0 0" style="stroke:none;fill-rule:nonzero;fill:rgb(0%,0%,0%);fill-opacity:1"/></g><g clip-path="url(#i)" id="t"><path d="M17.191 12v13.672c0 .098-.011.195-.039.289A1.32 1.32 0 0 1 15.863 27H10.27a7.239 7.239 0 0 1-.5-1 8.802 8.802 0 0 1-.329-1 8.203 8.203 0 0 1-.25-2v-9.5c0-.398.157-.781.438-1.062A1.502 1.502 0 0 1 10.69 12Zm0 0" style="stroke:none;fill-rule:nonzero;fill:rgb(0%,0%,0%);fill-opacity:1"/></g><g clip-path="url(#j)" id="v"><path d="M17.191 12v11.672A1.337 1.337 0 0 1 15.863 25H9.441a8.203 8.203 0 0 1-.25-2v-9.5c0-.398.157-.781.438-1.062A1.502 1.502 0 0 1 10.69 12Zm0 0" style="stroke:none;fill-rule:nonzero;fill:rgb(0%,0%,0%);fill-opacity:1"/></g><g clip-path="url(#k)" id="x"><path d="M10.691 12a1.5 1.5 0 0 0-1.062.438A1.502 1.502 0 0 0 9.19 13.5V23c0 .676.086 1.348.25 2h5.422a1.337 1.337 0 0 0 1.328-1.328V12Zm0 0" style="stroke:none;fill-rule:nonzero;fill:rgb(0%,0%,0%);fill-opacity:1"/></g><path d="M0 0h33v32H0z" id="a"/><path d="M0 0h32.547v32H0z" id="c"/><path d="M15.86 8h-2.887a4.674 4.674 0 0 0 4.218 2.668V9.332A1.339 1.339 0 0 0 15.86 8m0 0" id="f"/><filter filterUnits="objectBoundingBox" height="100%" id="b" width="100%" x="0%" y="0%"><feColorMatrix in="SourceGraphic" values="0 0 0 0 1 0 0 0 0 1 0 0 0 0 1 0 0 0 1 0"/></filter></defs><path d="M21.86 6a4.668 4.668 0 1 1-9.336 0 4.668 4.668 0 0 1 9.335 0m0 0" style="stroke:none;fill-rule:nonzero;fill:rgb(48.235294%,51.372552%,92.156863%);fill-opacity:1"/><use xlink:href="#l" mask="url(#m)"/><use xlink:href="#n" mask="url(#o)"/><path d="M31.191 7.5a3.5 3.5 0 1 1-7 0 3.5 3.5 0 1 1 7 0m-.5 4.5h-7.859a.639.639 0 0 0-.64.64v8.11a5.123 5.123 0 0 0 3.964 5.086 5.003 5.003 0 0 0 4.184-1.016 4.995 4.995 0 0 0 1.851-3.883V13.5a1.5 1.5 0 0 0-1.5-1.5m0 0" style="stroke:none;fill-rule:nonzero;fill:rgb(31.37255%,34.901962%,78.823531%);fill-opacity:1"/><path d="M25.191 13.5V23a7.996 7.996 0 0 1-14.922 4 7.239 7.239 0 0 1-.5-1 8.802 8.802 0 0 1-.328-1 8.203 8.203 0 0 1-.25-2v-9.5c0-.398.157-.781.438-1.062A1.502 1.502 0 0 1 10.69 12h13c.399 0 .782.156 1.063.438a1.5 1.5 0 0 1 .437 1.062m0 0" style="stroke:none;fill-rule:nonzero;fill:rgb(48.235294%,51.372552%,92.156863%);fill-opacity:1"/><use xlink:href="#p" mask="url(#q)"/><use xlink:href="#r" mask="url(#s)"/><use xlink:href="#t" mask="url(#u)"/><use xlink:href="#v" mask="url(#w)"/><use xlink:href="#x" mask="url(#y)"/><path d="M1.523 8H14.86c.735 0 1.332.598 1.332 1.332v13.336c0 .734-.597 1.332-1.332 1.332H1.523a1.334 1.334 0 0 1-1.332-1.332V9.332C.191 8.598.79 8 1.523 8m0 0" style="stroke:none;fill-rule:nonzero;fill:rgb(29.411766%,32.549021%,73.725492%);fill-opacity:1"/><path d="M12.172 12.977H9.18v8.02H7.219v-8.02H4.21v-1.973h7.96Zm0 0" style="stroke:none;fill-rule:nonzero;fill:rgb(100%,100%,100%);fill-opacity:1"/></svg>