<?xml version="1.0" encoding="UTF-8"?>
<svg xmlns="http://www.w3.org/2000/svg" xmlns:xlink="http://www.w3.org/1999/xlink" width="32" height="32" viewBox="0 0 32 32" version="1.1">
<defs>
<linearGradient id="linear0" gradientUnits="userSpaceOnUse" x1="120" y1="240" x2="120" y2="0" gradientTransform="matrix(0.133333,0,0,0.133333,0,0)">
<stop offset="0" style="stop-color:rgb(11.372549%,57.647061%,82.352942%);stop-opacity:1;"/>
<stop offset="1" style="stop-color:rgb(21.960784%,69.01961%,89.019608%);stop-opacity:1;"/>
</linearGradient>
</defs>
<g id="surface1">
<path style=" stroke:none;fill-rule:nonzero;fill:url(#linear0);" d="M 16 0 C 7.164062 0 0 7.164062 0 16 C 0 24.835938 7.164062 32 16 32 C 24.835938 32 32 24.835938 32 16 C 32 7.164062 24.835938 0 16 0 "/>
<path style=" stroke:none;fill-rule:nonzero;fill:rgb(78.431374%,85.490197%,91.764706%);fill-opacity:1;" d="M 10.832031 17.167969 L 12.730469 22.421875 C 12.730469 22.421875 12.964844 22.914062 13.21875 22.914062 C 13.472656 22.914062 17.253906 18.984375 17.253906 18.984375 L 21.457031 10.863281 L 10.898438 15.8125 Z M 10.832031 17.167969 "/>
<path style=" stroke:none;fill-rule:nonzero;fill:rgb(66.274512%,77.64706%,84.705883%);fill-opacity:1;" d="M 13.347656 18.515625 L 12.984375 22.390625 C 12.984375 22.390625 12.832031 23.578125 14.015625 22.390625 C 15.203125 21.203125 16.339844 20.289062 16.339844 20.289062 "/>
<path style=" stroke:none;fill-rule:nonzero;fill:rgb(100%,100%,100%);fill-opacity:1;" d="M 10.863281 17.355469 L 6.960938 16.085938 C 6.960938 16.085938 6.492188 15.894531 6.644531 15.464844 C 6.675781 15.378906 6.738281 15.300781 6.921875 15.171875 C 7.789062 14.570312 22.9375 9.125 22.9375 9.125 C 22.9375 9.125 23.367188 8.980469 23.617188 9.078125 C 23.746094 9.117188 23.839844 9.21875 23.867188 9.351562 C 23.894531 9.464844 23.90625 9.578125 23.902344 9.695312 C 23.902344 9.796875 23.890625 9.886719 23.878906 10.035156 C 23.789062 11.523438 21.027344 22.632812 21.027344 22.632812 C 21.027344 22.632812 20.863281 23.285156 20.269531 23.304688 C 19.976562 23.316406 19.691406 23.203125 19.480469 23 C 18.320312 22 14.304688 19.304688 13.417969 18.710938 C 13.375 18.683594 13.351562 18.636719 13.34375 18.589844 C 13.332031 18.527344 13.398438 18.449219 13.398438 18.449219 C 13.398438 18.449219 20.390625 12.238281 20.574219 11.585938 C 20.589844 11.535156 20.535156 11.507812 20.464844 11.53125 C 20 11.703125 11.949219 16.785156 11.0625 17.34375 C 11 17.363281 10.929688 17.367188 10.863281 17.355469 "/>
</g>
</svg>
