<svg xmlns="http://www.w3.org/2000/svg" width="601" height="81" stroke="none" stroke-linecap="round" stroke-linejoin="round" fill="#fff" fill-rule="nonzero">
    <path d="M553 47.9001c5.9001-3.3 13-7.7 18.8001-15-5.7001-7.1-13.7001-11.3-19.6001-14.5 14.2001-3.1 26.6001 10.9 26.6001 10.9l3.2999 3.7-3.2999 3.7c-12.9 13.9-25.8001 11.2-25.8001 11.2" fill="#f15e22"/>
    <path d="M554.1 33.1c0 3.7-3 6.7-6.6999 6.7s-6.7001-3-6.7001-6.7 3-6.7 6.7001-6.7c3.6999.1 6.6999 3.1 6.6999 6.7" fill="#1c303b"/>
    <g fill="#f15e22">
        <path d="M524.3001 32.9C528.7 38.7 541 52.9 556.7 52.9c10.8 0 21.5-6.7 31.9-20-10.4-12.9-21.1999-19.5-31.9-19.5-15.7 0-28 13.8-32.3999 19.5M556.6 62c-24.6999 0-41.1-25.6-41.7999-26.7L513.2 32.8l1.6001-2.5C515.5 29.2 532 4.2 556.6 4.2c14.5 0 28.4 8.7 41.4 25.8l2 2.7-2 2.7C585.1 53.1 571.2 62 556.6 62m-18.8 0c-24-.7-39.5-25.8-40.2001-26.9L496.3 32.6l1.5-2.4c.7-1 15.8999-25 39.7999-25.9-18.5999 8.5-31.5 28.8-31.5 28.8S517 51.2 537.8 62M471 51.2c1.1 0 4.2 2.3 8.1 2.3 3.5 0 5.1-1.2 5.1-3.7 0-7.3-16.6-3-16.6-17.8 0-8.3 5.9-13.4 15.3001-13.4 2.6999 0 12.2999.6 12.2999 5.2 0 1.1-1.8999 6.1-3.6 6.1-.7999 0-3.2999-1.7-7-1.7-2.7999 0-4.5.9-4.5 3 0 6.1 16.6 2.9 16.6 17.7 0 8.7-6.2 14.4-15.5 14.4-7.2 0-14.5-1.9-14.5-5.9-.1-1.8 2.5-6.2 4.3-6.2M348.1999 7.8c0-2.3 1-3.3 3.3-3.3H381.8c1.6999 0 2.5 1.2 2.5 4.1v2.6c0 2.9-.7001 4.1-2.5 4.1h-20.9v12h18.6999c1.7001 0 2.5 1.2 2.5 4.1V34c0 2.9-.6999 4.1-2.5 4.1H360.9v13.4h21c1.6999 0 2.5 1.2 2.5 4.1v2.6c0 2.9-.7001 4.1-2.5 4.1h-30.4001c-2.3 0-3.3-1-3.3-3.3V7.8zM387.3 22.3c-.2-.6-.3-1.1-.3-1.5 0-1.2 1.6-1.8 5.1-1.8h2.7c2.4 0 4.2.4 4.6 1.7l4.9 15.3c.6 1.9 1.6 6.5 2.3 10h.3c.7-3.6 1.7-8.2 2.3-10l4.9-15.3c.4-1.3 2.2-1.7 4.6-1.7h2c3.5 0 5 .7 5 1.8 0 .4-.1.9-.2 1.5l-19 55.5c-.5 1.3-2.2 1.7-4.6 1.7h-1.4c-3.4 0-5-.7-5-1.7 0-.4.1-.9.3-1.5l5.2-13.8-13.7-40.2z"/>
        <path d="M452.1999 36.6c0-4.8-1.7999-8.4-6-8.4-3.5 0-6.5 2-7.5 8.4h13.5zM446.3 18.5c13 0 17.8999 9.9 17.8999 21.4 0 1.4-3.2 4.9-4.2 4.9H438.9c.5999 6.6 4.0999 8.7 9.5 8.7 5.1999 0 8.9-2.6 10-2.6 1.7999 0 4.2999 4.6 4.2999 6.3 0 4.1-10.2999 6-14.8999 6-15 0-21.6001-8.7-21.6001-22.1-.1-16.3 8.2001-22.6 20.1001-22.6"/>
    </g>
    <path d="M326.8 48.3V29.8c-1.3-.7-3.2001-1.6-5.8-1.6-5.2 0-7.7 4.3-7.7 12.6 0 8 2.2 12.4 6.7 12.4 3.0999-.1 5.3-2.4 6.8-4.9m-26-7.5c0-13.5 6.2999-22.3 17.5-22.3 3.8999 0 6.7 1.3 8.5 2.6V2.7c0-1.7 1.5-2.7 5-2.7h2.2999c3.5 0 5 .9 5 2.7v45.2c0 8.5 1 10.3 1 12 0 2-7.1999 2.7-9.2999 2.7-2.7001 0-2.8-3.5-3.3-5.6-1.9001 3.6-6 6.2-11.1 6.2-9 0-15.6-8-15.6-22.4m-41.2001-7.1c0-8.3-1-10-1-11.7 0-2 7.2001-2.7 9.3-2.7 2.7 0 2.8 3.3 3.3 5.4 2.4-3.1 7-6.3 12.4-6.3 8.3 0 12.2001 4.2 12.2001 13.4v28.1c0 1.7-1.5 2.7-5 2.7h-2.3001c-3.5 0-5-.9-5-2.7V33.6c0-3.2-1.3-5.1-5-5.1-3.4 0-5.6 2.9-6.6 4.8v26.6c0 1.7-1.5 2.7-5 2.7h-2.3c-3.5 0-5-.9-5-2.7V33.7zM230.8 53.5c3.1 0 6.1-2.2 7.5-5.2v-4.6c-7.9 0-11.6001 2.2-11.6001 6.1-.1 2.1 1.3001 3.7 4.1001 3.7m7.3999-17.8v-2.8c0-3.1-1.8999-4.7-6.5-4.7-6.1 0-9.6 2.7-10.6 2.7-1.6999 0-4.2999-4.9-4.2999-6.6 0-2.8 6.6-5.7 15.7999-5.7 13.1 0 17.8001 5.8 17.8001 13.8v15.5c0 8.5 1 10.3 1 12 0 2-7.2001 2.7-9.3001 2.7-2.6999 0-2.7999-3.5-3.2999-5.7-.6001 1.1-4.6001 6.3-12.2001 6.3-9 0-12.2999-5.3-12.2999-12.1.1-6.8 2.8999-15.4 23.8999-15.4m-54.5 15.5c1.1001 0 4.2001 2.3 8.1001 2.3 3.5 0 5.1-1.2 5.1-3.7 0-7.3-16.6-3-16.6-17.8 0-8.3 5.8999-13.4 15.3-13.4 2.7 0 12.3.6 12.3 5.2 0 1.1-1.9 6.1-3.6 6.1-.8 0-3.3-1.7-7-1.7-2.8 0-4.5.9-4.5 3 0 6.1 16.6 2.9 16.6 17.7 0 8.7-6.2001 14.4-15.5 14.4-7.2001 0-14.5-1.9-14.5-5.9-.1-1.8 2.6-6.2 4.2999-6.2m-46.6-29.6c0-1.7 1.5-2.7 5-2.7h2.3c3.5 0 5 .9 5 2.7v26.3c0 3.2 1.3 5.1 5 5.1 3.4001 0 5.6-2.9 6.6-4.8V21.6c0-1.7 1.5-2.7 5-2.7H168.3c3.5 0 5 .9 5 2.7v26.3c0 8.5 1 10.3 1 12 0 2-7.2001 2.7-9.3001 2.7-2.6999 0-2.8-3.5-3.3-5.7-2.3999 3.2-7 6.3-12.3999 6.3-8.3001 0-12.2001-4.2-12.2001-13.4V21.6zm-19.1 19.2c0-8.3-2.3-12.6-7.5999-12.6s-7.7001 4.3-7.7001 12.6 2.4 12.7 7.7001 12.7 7.5999-4.4 7.5999-12.7M110.3 18.5c13.1999 0 20.1 7.9 20.1 22.3s-6.9001 22.4-20.1 22.4-20.1001-8-20.1001-22.4 7-22.3 20.1001-22.3M48.7 2.7c0-1.7 1.5-2.7 5-2.7H56c3.5 0 5 .9 5 2.7v21.5c2.6-3.1 6.7-5.6 11.7-5.6 8.3 0 12.5 4.2 12.5 13.4v28.1c0 1.7-1.5 2.7-5 2.7h-2.2999c-3.5 0-5-.9-5-2.7V33.8c0-3.2-1.7001-5.1-5.3001-5.1-3.4 0-5.6 2.9-6.6 4.8v26.6c0 1.7-1.5 2.7-5 2.7h-2.3c-3.5 0-5-.9-5-2.7V2.7zm-33 12.6H2.5C.8 15.3 0 14.1 0 11.2V8.6c0-2.9.7-4.1 2.5-4.1h39.2c1.7 0 2.5 1.2 2.5 4.1v2.6c0 2.9-.7 4.1-2.5 4.1H28.5V60c0 1.7-1.5 2.7-5 2.7h-2.9c-3.5 0-5-.9-5-2.7V15.3z" fill="#1c303b"/>
</svg>