<?xml version="1.0" encoding="UTF-8"?>
<svg xmlns="http://www.w3.org/2000/svg" xmlns:xlink="http://www.w3.org/1999/xlink" width="237.432099" height="32" viewBox="0 0 237.432099 32" version="1.1">
<g id="surface1">
<path style=" stroke:none;fill-rule:nonzero;fill:rgb(94.509804%,36.862746%,13.333334%);fill-opacity:1;" d="M 218.46875 18.921875 C 220.800781 17.621094 223.605469 15.882812 225.894531 12.996094 C 223.644531 10.191406 220.484375 8.535156 218.152344 7.269531 C 223.761719 6.042969 228.660156 11.574219 228.660156 11.574219 L 229.964844 13.035156 L 228.660156 14.5 C 223.566406 19.988281 218.46875 18.921875 218.46875 18.921875 "/>
<path style=" stroke:none;fill-rule:nonzero;fill:rgb(10.980392%,18.82353%,23.137255%);fill-opacity:1;" d="M 218.902344 13.078125 C 218.902344 14.539062 217.71875 15.722656 216.257812 15.722656 C 214.796875 15.722656 213.609375 14.539062 213.609375 13.078125 C 213.609375 11.613281 214.796875 10.429688 216.257812 10.429688 C 217.71875 10.46875 218.902344 11.65625 218.902344 13.078125 "/>
<path style=" stroke:none;fill-rule:nonzero;fill:rgb(94.509804%,36.862746%,13.333334%);fill-opacity:1;" d="M 207.132812 12.996094 C 208.867188 15.289062 213.726562 20.898438 219.929688 20.898438 C 224.199219 20.898438 228.425781 18.25 232.535156 12.996094 C 228.425781 7.902344 224.15625 5.292969 219.929688 5.292969 C 213.726562 5.292969 208.867188 10.746094 207.132812 12.996094 M 219.890625 24.492188 C 210.132812 24.492188 203.65625 14.378906 203.378906 13.945312 L 202.746094 12.957031 L 203.378906 11.96875 C 203.65625 11.535156 210.171875 1.660156 219.890625 1.660156 C 225.621094 1.660156 231.109375 5.097656 236.246094 11.851562 L 237.035156 12.917969 L 236.246094 13.984375 C 231.152344 20.976562 225.660156 24.492188 219.890625 24.492188 M 212.464844 24.492188 C 202.984375 24.21875 196.859375 14.300781 196.582031 13.867188 L 196.070312 12.878906 L 196.660156 11.929688 C 196.9375 11.535156 202.941406 2.054688 212.386719 1.699219 C 205.035156 5.058594 199.941406 13.078125 199.941406 13.078125 C 199.941406 13.078125 204.246094 20.226562 212.464844 24.492188 M 186.074219 20.226562 C 186.507812 20.226562 187.734375 21.136719 189.273438 21.136719 C 190.65625 21.136719 191.289062 20.660156 191.289062 19.675781 C 191.289062 16.789062 184.730469 18.488281 184.730469 12.640625 C 184.730469 9.363281 187.0625 7.347656 190.773438 7.347656 C 191.84375 7.347656 195.632812 7.585938 195.632812 9.402344 C 195.632812 9.835938 194.882812 11.8125 194.210938 11.8125 C 193.894531 11.8125 192.910156 11.140625 191.445312 11.140625 C 190.339844 11.140625 189.667969 11.496094 189.667969 12.324219 C 189.667969 14.734375 196.226562 13.472656 196.226562 19.320312 C 196.226562 22.753906 193.777344 25.007812 190.105469 25.007812 C 187.257812 25.007812 184.375 24.257812 184.375 22.675781 C 184.335938 21.964844 185.363281 20.226562 186.074219 20.226562 M 137.558594 3.082031 C 137.558594 2.171875 137.957031 1.777344 138.863281 1.777344 L 150.835938 1.777344 C 151.507812 1.777344 151.820312 2.25 151.820312 3.398438 L 151.820312 4.425781 C 151.820312 5.570312 151.546875 6.042969 150.835938 6.042969 L 142.578125 6.042969 L 142.578125 10.785156 L 149.964844 10.785156 C 150.636719 10.785156 150.953125 11.257812 150.953125 12.40625 L 150.953125 13.433594 C 150.953125 14.578125 150.675781 15.050781 149.964844 15.050781 L 142.578125 15.050781 L 142.578125 20.34375 L 150.875 20.34375 C 151.546875 20.34375 151.863281 20.820312 151.863281 21.964844 L 151.863281 22.992188 C 151.863281 24.136719 151.585938 24.613281 150.875 24.613281 L 138.863281 24.613281 C 137.957031 24.613281 137.558594 24.21875 137.558594 23.308594 Z M 153.007812 8.808594 C 152.929688 8.574219 152.890625 8.375 152.890625 8.21875 C 152.890625 7.742188 153.519531 7.507812 154.902344 7.507812 L 155.96875 7.507812 C 156.917969 7.507812 157.628906 7.664062 157.789062 8.179688 L 159.722656 14.222656 C 159.960938 14.972656 160.355469 16.789062 160.632812 18.171875 L 160.75 18.171875 C 161.027344 16.75 161.421875 14.933594 161.660156 14.222656 L 163.59375 8.179688 C 163.753906 7.664062 164.464844 7.507812 165.414062 7.507812 L 166.203125 7.507812 C 167.585938 7.507812 168.179688 7.78125 168.179688 8.21875 C 168.179688 8.375 168.136719 8.574219 168.097656 8.808594 L 160.59375 30.734375 C 160.394531 31.25 159.722656 31.40625 158.773438 31.40625 L 158.222656 31.40625 C 156.878906 31.40625 156.246094 31.132812 156.246094 30.734375 C 156.246094 30.578125 156.285156 30.378906 156.367188 30.144531 L 158.417969 24.691406 Z M 153.007812 8.808594 "/>
<path style=" stroke:none;fill-rule:nonzero;fill:rgb(94.509804%,36.862746%,13.333334%);fill-opacity:1;" d="M 178.648438 14.460938 C 178.648438 12.5625 177.9375 11.140625 176.277344 11.140625 C 174.894531 11.140625 173.707031 11.929688 173.3125 14.460938 Z M 176.316406 7.308594 C 181.453125 7.308594 183.386719 11.21875 183.386719 15.761719 C 183.386719 16.316406 182.125 17.699219 181.726562 17.699219 L 173.394531 17.699219 C 173.628906 20.304688 175.011719 21.136719 177.144531 21.136719 C 179.199219 21.136719 180.660156 20.109375 181.097656 20.109375 C 181.808594 20.109375 182.796875 21.925781 182.796875 22.597656 C 182.796875 24.21875 178.726562 24.96875 176.910156 24.96875 C 170.984375 24.96875 168.375 21.53125 168.375 16.238281 C 168.335938 9.796875 171.613281 7.308594 176.316406 7.308594 "/>
<path style=" stroke:none;fill-rule:nonzero;fill:rgb(10.980392%,18.82353%,23.137255%);fill-opacity:1;" d="M 129.105469 19.082031 L 129.105469 11.773438 C 128.59375 11.496094 127.84375 11.140625 126.816406 11.140625 C 124.761719 11.140625 123.773438 12.839844 123.773438 16.117188 C 123.773438 19.277344 124.640625 21.015625 126.417969 21.015625 C 127.644531 20.976562 128.511719 20.070312 129.105469 19.082031 M 118.835938 16.117188 C 118.835938 10.785156 121.324219 7.308594 125.75 7.308594 C 127.289062 7.308594 128.394531 7.820312 129.105469 8.335938 L 129.105469 1.066406 C 129.105469 0.394531 129.699219 0 131.082031 0 L 131.988281 0 C 133.371094 0 133.964844 0.355469 133.964844 1.066406 L 133.964844 18.921875 C 133.964844 22.28125 134.359375 22.992188 134.359375 23.664062 C 134.359375 24.453125 131.515625 24.730469 130.6875 24.730469 C 129.621094 24.730469 129.582031 23.347656 129.382812 22.519531 C 128.632812 23.941406 127.011719 24.96875 124.996094 24.96875 C 121.441406 24.96875 118.835938 21.808594 118.835938 16.117188 M 102.558594 13.3125 C 102.558594 10.035156 102.164062 9.363281 102.164062 8.691406 C 102.164062 7.902344 105.007812 7.625 105.835938 7.625 C 106.902344 7.625 106.941406 8.929688 107.140625 9.757812 C 108.089844 8.535156 109.90625 7.269531 112.039062 7.269531 C 115.320312 7.269531 116.859375 8.929688 116.859375 12.5625 L 116.859375 23.664062 C 116.859375 24.335938 116.265625 24.730469 114.882812 24.730469 L 113.976562 24.730469 C 112.59375 24.730469 112 24.375 112 23.664062 L 112 13.273438 C 112 12.011719 111.488281 11.257812 110.023438 11.257812 C 108.679688 11.257812 107.8125 12.40625 107.417969 13.15625 L 107.417969 23.664062 C 107.417969 24.335938 106.824219 24.730469 105.441406 24.730469 L 104.535156 24.730469 C 103.152344 24.730469 102.558594 24.375 102.558594 23.664062 Z M 91.179688 21.136719 C 92.40625 21.136719 93.589844 20.265625 94.144531 19.082031 L 94.144531 17.265625 C 91.023438 17.265625 89.558594 18.132812 89.558594 19.675781 C 89.519531 20.503906 90.074219 21.136719 91.179688 21.136719 M 94.105469 14.105469 L 94.105469 12.996094 C 94.105469 11.773438 93.351562 11.140625 91.535156 11.140625 C 89.125 11.140625 87.742188 12.207031 87.347656 12.207031 C 86.675781 12.207031 85.648438 10.273438 85.648438 9.601562 C 85.648438 8.492188 88.257812 7.347656 91.890625 7.347656 C 97.066406 7.347656 98.921875 9.640625 98.921875 12.800781 L 98.921875 18.921875 C 98.921875 22.28125 99.320312 22.992188 99.320312 23.664062 C 99.320312 24.453125 96.472656 24.730469 95.644531 24.730469 C 94.578125 24.730469 94.539062 23.347656 94.339844 22.480469 C 94.105469 22.914062 92.523438 24.96875 89.519531 24.96875 C 85.964844 24.96875 84.660156 22.875 84.660156 20.1875 C 84.703125 17.5 85.808594 14.105469 94.105469 14.105469 M 72.574219 20.226562 C 73.007812 20.226562 74.230469 21.136719 75.773438 21.136719 C 77.15625 21.136719 77.789062 20.660156 77.789062 19.675781 C 77.789062 16.789062 71.230469 18.488281 71.230469 12.640625 C 71.230469 9.363281 73.558594 7.347656 77.273438 7.347656 C 78.339844 7.347656 82.132812 7.585938 82.132812 9.402344 C 82.132812 9.835938 81.382812 11.8125 80.710938 11.8125 C 80.394531 11.8125 79.40625 11.140625 77.945312 11.140625 C 76.839844 11.140625 76.167969 11.496094 76.167969 12.324219 C 76.167969 14.734375 82.726562 13.472656 82.726562 19.320312 C 82.726562 22.753906 80.277344 25.007812 76.601562 25.007812 C 73.757812 25.007812 70.875 24.257812 70.875 22.675781 C 70.835938 21.964844 71.902344 20.226562 72.574219 20.226562 M 54.164062 8.535156 C 54.164062 7.863281 54.753906 7.464844 56.136719 7.464844 L 57.046875 7.464844 C 58.429688 7.464844 59.023438 7.820312 59.023438 8.535156 L 59.023438 18.921875 C 59.023438 20.1875 59.535156 20.9375 60.996094 20.9375 C 62.339844 20.9375 63.210938 19.792969 63.605469 19.042969 L 63.605469 8.535156 C 63.605469 7.863281 64.199219 7.464844 65.582031 7.464844 L 66.488281 7.464844 C 67.871094 7.464844 68.464844 7.820312 68.464844 8.535156 L 68.464844 18.921875 C 68.464844 22.28125 68.859375 22.992188 68.859375 23.664062 C 68.859375 24.453125 66.015625 24.730469 65.183594 24.730469 C 64.117188 24.730469 64.078125 23.347656 63.882812 22.480469 C 62.933594 23.742188 61.117188 24.96875 58.984375 24.96875 C 55.703125 24.96875 54.164062 23.308594 54.164062 19.675781 Z M 46.617188 16.117188 C 46.617188 12.839844 45.707031 11.140625 43.613281 11.140625 C 41.519531 11.140625 40.574219 12.839844 40.574219 16.117188 C 40.574219 19.398438 41.519531 21.136719 43.613281 21.136719 C 45.707031 21.136719 46.617188 19.398438 46.617188 16.117188 M 43.574219 7.308594 C 48.789062 7.308594 51.515625 10.429688 51.515625 16.117188 C 51.515625 21.808594 48.789062 24.96875 43.574219 24.96875 C 38.359375 24.96875 35.632812 21.808594 35.632812 16.117188 C 35.632812 10.429688 38.398438 7.308594 43.574219 7.308594 M 19.238281 1.066406 C 19.238281 0.394531 19.832031 0 21.214844 0 L 22.125 0 C 23.507812 0 24.097656 0.355469 24.097656 1.066406 L 24.097656 9.558594 C 25.125 8.335938 26.746094 7.347656 28.722656 7.347656 C 32 7.347656 33.660156 9.007812 33.660156 12.640625 L 33.660156 23.742188 C 33.660156 24.414062 33.066406 24.808594 31.683594 24.808594 L 30.773438 24.808594 C 29.394531 24.808594 28.800781 24.453125 28.800781 23.742188 L 28.800781 13.351562 C 28.800781 12.089844 28.128906 11.339844 26.707031 11.339844 C 25.363281 11.339844 24.492188 12.484375 24.097656 13.234375 L 24.097656 23.742188 C 24.097656 24.414062 23.507812 24.808594 22.125 24.808594 L 21.214844 24.808594 C 19.832031 24.808594 19.238281 24.453125 19.238281 23.742188 Z M 6.203125 6.042969 L 0.988281 6.042969 C 0.316406 6.042969 0 5.570312 0 4.425781 L 0 3.398438 C 0 2.25 0.277344 1.777344 0.988281 1.777344 L 16.472656 1.777344 C 17.144531 1.777344 17.460938 2.25 17.460938 3.398438 L 17.460938 4.425781 C 17.460938 5.570312 17.183594 6.042969 16.472656 6.042969 L 11.257812 6.042969 L 11.257812 23.703125 C 11.257812 24.375 10.667969 24.769531 9.285156 24.769531 L 8.136719 24.769531 C 6.753906 24.769531 6.164062 24.414062 6.164062 23.703125 L 6.164062 6.042969 Z M 6.203125 6.042969 "/>
</g>
</svg>
