<svg xmlns="http://www.w3.org/2000/svg" width="105" height="59" stroke="none" stroke-linecap="round" stroke-linejoin="round" fill="#fff" fill-rule="nonzero">
    <path d="M56.7 43.7001c5.9001-3.3 13-7.7 18.8001-15-5.7001-7.1-13.7001-11.3-19.6001-14.5 14.2001-3.1 26.6001 10.9 26.6001 10.9l3.2999 3.7-3.2999 3.7c-12.9 13.9-25.8001 11.2-25.8001 11.2" fill="#f15e22"/>
    <path d="M57.8 28.9c0 3.7-3 6.7-6.6999 6.7S44.4 32.6 44.4 28.9s3-6.7 6.7001-6.7C54.8 22.3 57.8 25.3 57.8 28.9" fill="#1c303b"/>
    <path d="M28.0001 28.7C32.4 34.5 44.7 48.7 60.4 48.7c10.8 0 21.5-6.7 31.9-20C81.9 15.8 71.1001 9.2 60.4 9.2c-15.7 0-28 13.8-32.3999 19.5M60.3 57.8c-24.6999 0-41.1-25.6-41.7999-26.7L16.9 28.6l1.6001-2.5C19.2 25 35.7 0 60.3 0c14.5 0 28.4 8.7 41.4 25.8l2 2.7-2 2.7C88.8 48.9 74.9 57.8 60.3 57.8m-18.8 0C17.5 57.1 2 32 1.2999 30.9L0 28.4 1.5 26C2.2 25 17.3999 1 41.2999.1c-18.5999 8.5-31.5 28.8-31.5 28.8S20.7 47 41.5 57.8" fill="#f15e22"/>
</svg>