<?xml version="1.0" encoding="UTF-8"?>
<svg xmlns="http://www.w3.org/2000/svg" xmlns:xlink="http://www.w3.org/1999/xlink" width="56.949001" height="32" viewBox="0 0 56.949001 32" version="1.1">
<g id="surface1">
<path style=" stroke:none;fill-rule:nonzero;fill:rgb(94.509804%,36.862746%,13.333334%);fill-opacity:1;" d="M 30.753906 23.703125 C 33.953125 21.910156 37.804688 19.527344 40.949219 15.566406 C 37.859375 11.714844 33.519531 9.4375 30.320312 7.703125 C 38.019531 6.019531 44.746094 13.613281 44.746094 13.613281 L 46.535156 15.621094 L 44.746094 17.628906 C 37.75 25.167969 30.753906 23.703125 30.753906 23.703125 "/>
<path style=" stroke:none;fill-rule:nonzero;fill:rgb(10.980392%,18.82353%,23.137255%);fill-opacity:1;" d="M 31.347656 15.675781 C 31.347656 17.683594 29.722656 19.308594 27.714844 19.308594 C 25.707031 19.308594 24.082031 17.683594 24.082031 15.675781 C 24.082031 13.667969 25.707031 12.039062 27.714844 12.039062 C 29.722656 12.09375 31.347656 13.722656 31.347656 15.675781 "/>
<path style=" stroke:none;fill-rule:nonzero;fill:rgb(94.509804%,36.862746%,13.333334%);fill-opacity:1;" d="M 15.1875 15.566406 C 17.574219 18.710938 24.242188 26.414062 32.757812 26.414062 C 38.617188 26.414062 44.421875 22.78125 50.0625 15.566406 C 44.421875 8.570312 38.5625 4.988281 32.757812 4.988281 C 24.242188 4.988281 17.574219 12.472656 15.1875 15.566406 M 32.707031 31.347656 C 19.308594 31.347656 10.414062 17.464844 10.035156 16.867188 L 9.167969 15.511719 L 10.035156 14.15625 C 10.414062 13.558594 19.363281 0 32.707031 0 C 40.570312 0 48.109375 4.71875 55.160156 13.992188 L 56.242188 15.457031 L 55.160156 16.921875 C 48.164062 26.523438 40.625 31.347656 32.707031 31.347656 M 22.507812 31.347656 C 9.492188 30.96875 1.085938 17.355469 0.703125 16.757812 L 0 15.402344 L 0.8125 14.101562 C 1.191406 13.558594 9.4375 0.542969 22.398438 0.0546875 C 12.3125 4.664062 5.316406 15.675781 5.316406 15.675781 C 5.316406 15.675781 11.226562 25.492188 22.507812 31.347656 "/>
</g>
</svg>
