<?xml version="1.0" encoding="UTF-8"?>
<svg xmlns="http://www.w3.org/2000/svg" xmlns:xlink="http://www.w3.org/1999/xlink" width="37.333" height="32" viewBox="0 0 37.333 32" version="1.1">
<g id="surface1">
<path style="fill:none;stroke-width:1.33333;stroke-linecap:round;stroke-linejoin:round;stroke:rgb(64.313728%,64.313728%,64.313728%);stroke-opacity:1;stroke-miterlimit:4;" d="M 4.999505 11.333482 L 1.368162 9.517078 C 1.142577 9.404285 0.999022 9.17284 1.000487 8.920887 L 1.000487 1.744627 C 1.000487 1.24951 1.521971 0.927245 1.964353 1.148436 L 4.999505 2.666012 M 4.999505 11.333482 L 8.999988 9.333972 M 4.999505 11.333482 L 4.999505 2.664547 M 8.999988 9.332508 L 12.035141 10.851549 C 12.241684 10.954088 12.487777 10.942369 12.684066 10.820787 C 12.880355 10.699205 13.000472 10.483873 13.000472 10.252428 L 13.000472 3.079098 C 13.000472 2.827145 12.856917 2.5957 12.631331 2.482907 L 8.999988 0.666503 M 8.999988 9.333972 L 8.999988 0.666503 M 8.999988 0.666503 L 4.999505 2.666012 " transform="matrix(2.66667,0,0,2.66667,0,0)"/>
</g>
</svg>
