<?xml version="1.0" encoding="UTF-8"?>
<svg xmlns="http://www.w3.org/2000/svg" xmlns:xlink="http://www.w3.org/1999/xlink" width="32" height="32" viewBox="0 0 32 32" version="1.1">
<g id="surface1">
<path style=" stroke:none;fill-rule:nonzero;fill:rgb(0%,0%,0%);fill-opacity:1;" d="M 23.199219 11.601562 C 20.773438 11.601562 18.800781 13.574219 18.800781 16 C 18.800781 18.425781 20.773438 20.398438 23.199219 20.398438 C 25.625 20.398438 27.601562 18.425781 27.601562 16 C 27.601562 13.574219 25.625 11.601562 23.199219 11.601562 M 23.199219 19.601562 C 21.214844 19.601562 19.601562 17.984375 19.601562 16 C 19.601562 14.015625 21.214844 12.398438 23.199219 12.398438 C 25.183594 12.398438 26.800781 14.015625 26.800781 16 C 26.800781 17.984375 25.183594 19.601562 23.199219 19.601562 M 14.917969 13.316406 L 10.398438 17.832031 L 8.28125 15.714844 C 8.125 15.566406 7.878906 15.570312 7.722656 15.722656 C 7.570312 15.878906 7.566406 16.125 7.714844 16.28125 L 10.117188 18.683594 C 10.273438 18.839844 10.523438 18.839844 10.679688 18.683594 L 15.480469 13.882812 C 15.636719 13.726562 15.636719 13.472656 15.480469 13.316406 C 15.328125 13.160156 15.074219 13.160156 14.917969 13.316406 M 23.199219 8.800781 L 8.800781 8.800781 C 4.832031 8.800781 1.601562 12.03125 1.601562 16 C 1.601562 19.96875 4.832031 23.199219 8.800781 23.199219 L 23.199219 23.199219 C 27.167969 23.199219 30.398438 19.96875 30.398438 16 C 30.398438 12.03125 27.167969 8.800781 23.199219 8.800781 M 23.199219 21.601562 L 8.800781 21.601562 C 5.710938 21.601562 3.199219 19.085938 3.199219 16 C 3.199219 12.914062 5.710938 10.398438 8.800781 10.398438 L 23.199219 10.398438 C 26.289062 10.398438 28.800781 12.914062 28.800781 16 C 28.800781 19.085938 26.289062 21.601562 23.199219 21.601562 "/>
</g>
</svg>
