<svg role="img" viewBox="0 0 100 100" xmlns="http://www.w3.org/2000/svg"><path d="M72.5 36.25c-7.582 0-13.75 6.168-13.75 13.75s6.168 13.75 13.75 13.75S86.25 57.582 86.25 50 80.082 36.25 72.5 36.25m0 25c-6.203 0-11.25-5.047-11.25-11.25s5.047-11.25 11.25-11.25S83.75 43.797 83.75 50 78.703 61.25 72.5 61.25M46.617 41.617 32.5 55.73l-6.617-6.617a1.252 1.252 0 0 0-1.77 1.77l7.5 7.5a1.249 1.249 0 0 0 1.766 0l15-15a1.246 1.246 0 1 0-1.762-1.766M72.5 27.5h-45C15.094 27.5 5 37.594 5 50s10.094 22.5 22.5 22.5h45C84.906 72.5 95 62.406 95 50S84.906 27.5 72.5 27.5m0 40h-45C17.852 67.5 10 59.648 10 50s7.852-17.5 17.5-17.5h45C82.148 32.5 90 40.352 90 50s-7.852 17.5-17.5 17.5"/></svg>