<svg role="img" viewBox="0 0 100 100" xmlns="http://www.w3.org/2000/svg"><path d="M27.5 36.25c-7.582 0-13.75 6.168-13.75 13.75s6.168 13.75 13.75 13.75S41.25 57.582 41.25 50 35.082 36.25 27.5 36.25m0 25c-6.203 0-11.25-5.047-11.25-11.25s5.047-11.25 11.25-11.25S38.75 43.797 38.75 50 33.703 61.25 27.5 61.25m43.383-19.633a1.252 1.252 0 0 0-1.77 0L62.5 48.23l-6.617-6.617a1.252 1.252 0 0 0-1.77 1.77L60.732 50l-6.618 6.617a1.252 1.252 0 0 0 0 1.77c.247.242.567.363.887.363s.64-.121.883-.367l6.617-6.618 6.617 6.618c.243.246.563.367.883.367s.64-.121.883-.367a1.252 1.252 0 0 0 0-1.77L64.27 50l6.617-6.617a1.25 1.25 0 0 0-.004-1.766M72.5 27.5h-45C15.094 27.5 5 37.594 5 50s10.094 22.5 22.5 22.5h45C84.906 72.5 95 62.406 95 50S84.906 27.5 72.5 27.5m0 40h-45C17.852 67.5 10 59.648 10 50s7.852-17.5 17.5-17.5h45C82.148 32.5 90 40.352 90 50s-7.852 17.5-17.5 17.5"/></svg>