<?xml version="1.0" encoding="UTF-8"?>
<svg width="100pt" height="100pt" version="1.1" viewBox="0 0 100 100"
    xmlns="http://www.w3.org/2000/svg">
    <g>
        <path
            d="m27.5 36.25c-7.582 0-13.75 6.168-13.75 13.75s6.168 13.75 13.75 13.75 13.75-6.168 13.75-13.75-6.168-13.75-13.75-13.75zm0 25c-6.2031 0-11.25-5.0469-11.25-11.25s5.0469-11.25 11.25-11.25 11.25 5.0469 11.25 11.25-5.0469 11.25-11.25 11.25z" />
        <path
            d="m70.883 41.617c-0.48828-0.48828-1.2773-0.48828-1.7695 0l-6.6133 6.6133-6.6172-6.6172c-0.48828-0.48828-1.2773-0.48828-1.7695 0-0.48828 0.48828-0.48828 1.2773 0 1.7695l6.6172 6.6172-6.6172 6.6172c-0.48828 0.48828-0.48828 1.2773 0 1.7695 0.24609 0.24219 0.56641 0.36328 0.88672 0.36328s0.64062-0.12109 0.88281-0.36719l6.6172-6.6172 6.6172 6.6172c0.24219 0.24609 0.5625 0.36719 0.88281 0.36719s0.64062-0.12109 0.88281-0.36719c0.48828-0.48828 0.48828-1.2773 0-1.7695l-6.6133-6.6133 6.6172-6.6172c0.48438-0.48828 0.48438-1.2773-0.003907-1.7656z" />
        <path
            d="m72.5 27.5h-45c-12.406 0-22.5 10.094-22.5 22.5s10.094 22.5 22.5 22.5h45c12.406 0 22.5-10.094 22.5-22.5s-10.094-22.5-22.5-22.5zm0 40h-45c-9.6484 0-17.5-7.8516-17.5-17.5s7.8516-17.5 17.5-17.5h45c9.6484 0 17.5 7.8516 17.5 17.5s-7.8516 17.5-17.5 17.5z" />
    </g>
</svg>
