<?xml version="1.0" encoding="UTF-8"?>
<svg xmlns="http://www.w3.org/2000/svg" xmlns:xlink="http://www.w3.org/1999/xlink" width="32" height="32" viewBox="0 0 32 32" version="1.1">
<g id="surface1">
<path style=" stroke:none;fill-rule:nonzero;fill:rgb(0%,0%,0%);fill-opacity:1;" d="M 8.800781 11.601562 C 6.375 11.601562 4.398438 13.574219 4.398438 16 C 4.398438 18.425781 6.375 20.398438 8.800781 20.398438 C 11.226562 20.398438 13.199219 18.425781 13.199219 16 C 13.199219 13.574219 11.226562 11.601562 8.800781 11.601562 M 8.800781 19.601562 C 6.816406 19.601562 5.199219 17.984375 5.199219 16 C 5.199219 14.015625 6.816406 12.398438 8.800781 12.398438 C 10.785156 12.398438 12.398438 14.015625 12.398438 16 C 12.398438 17.984375 10.785156 19.601562 8.800781 19.601562 M 22.683594 13.316406 C 22.527344 13.160156 22.273438 13.160156 22.117188 13.316406 L 20 15.433594 L 17.882812 13.316406 C 17.726562 13.167969 17.476562 13.167969 17.324219 13.324219 C 17.167969 13.476562 17.167969 13.726562 17.316406 13.882812 L 19.433594 16 L 17.316406 18.117188 C 17.160156 18.273438 17.160156 18.527344 17.316406 18.683594 C 17.394531 18.761719 17.496094 18.800781 17.601562 18.800781 C 17.703125 18.800781 17.804688 18.761719 17.882812 18.683594 L 20 16.566406 L 22.117188 18.683594 C 22.195312 18.761719 22.296875 18.800781 22.398438 18.800781 C 22.503906 18.800781 22.605469 18.761719 22.683594 18.683594 C 22.839844 18.527344 22.839844 18.273438 22.683594 18.117188 L 20.566406 16 L 22.683594 13.882812 C 22.839844 13.726562 22.839844 13.472656 22.683594 13.316406 M 23.199219 8.800781 L 8.800781 8.800781 C 4.832031 8.800781 1.601562 12.03125 1.601562 16 C 1.601562 19.96875 4.832031 23.199219 8.800781 23.199219 L 23.199219 23.199219 C 27.167969 23.199219 30.398438 19.96875 30.398438 16 C 30.398438 12.03125 27.167969 8.800781 23.199219 8.800781 M 23.199219 21.601562 L 8.800781 21.601562 C 5.710938 21.601562 3.199219 19.085938 3.199219 16 C 3.199219 12.914062 5.710938 10.398438 8.800781 10.398438 L 23.199219 10.398438 C 26.289062 10.398438 28.800781 12.914062 28.800781 16 C 28.800781 19.085938 26.289062 21.601562 23.199219 21.601562 "/>
</g>
</svg>
