<?xml version="1.0" encoding="UTF-8"?>
<svg xmlns="http://www.w3.org/2000/svg" xmlns:xlink="http://www.w3.org/1999/xlink" width="32" height="32" viewBox="0 0 32 32" version="1.1">
<g id="surface1">
<path style=" stroke:none;fill-rule:nonzero;fill:rgb(25.098041%,25.098041%,25.490198%);fill-opacity:1;" d="M 29.503906 26.945312 C 29.375 26.945312 29.246094 26.945312 29.121094 26.976562 L 26.71875 22.144531 C 27.167969 21.695312 27.457031 21.054688 27.457031 20.351562 C 27.460938 19.742188 27.242188 19.152344 26.847656 18.6875 L 28.929688 15.199219 C 29.121094 15.230469 29.3125 15.265625 29.503906 15.265625 C 30.878906 15.265625 32 14.144531 32 12.734375 C 32 11.328125 30.878906 10.207031 29.503906 10.207031 C 28.734375 10.207031 28.03125 10.558594 27.585938 11.136719 L 24.257812 9.824219 L 24.257812 9.664062 C 24.257812 8.289062 23.136719 7.136719 21.761719 7.136719 C 21.441406 7.136719 21.121094 7.199219 20.863281 7.328125 L 18.078125 3.871094 C 18.335938 3.488281 18.496094 3.007812 18.496094 2.496094 C 18.496094 1.117188 17.378906 0.00390625 16 0 C 14.625 0 13.503906 1.121094 13.503906 2.527344 C 13.503906 2.910156 13.601562 3.265625 13.726562 3.585938 L 11.199219 5.953125 C 10.847656 5.726562 10.433594 5.632812 9.984375 5.632812 C 8.609375 5.632812 7.488281 6.753906 7.488281 8.160156 C 7.488281 8.863281 7.777344 9.503906 8.222656 9.953125 L 5.824219 14.785156 C 5.695312 14.753906 5.566406 14.753906 5.441406 14.753906 C 4.773438 14.753906 4.136719 15.023438 3.667969 15.5 C 3.199219 15.972656 2.9375 16.613281 2.945312 17.28125 C 2.945312 18.175781 3.425781 18.976562 4.128906 19.425781 L 2.335938 26.945312 C 1.019531 27.054688 0.00390625 28.152344 0 29.472656 C 0 30.847656 1.121094 32 2.496094 32 C 3.871094 32 4.992188 30.878906 4.992188 29.472656 L 4.992188 29.441406 L 9.503906 27.902344 C 9.964844 28.554688 10.71875 28.941406 11.519531 28.929688 C 12.511719 28.929688 13.34375 28.351562 13.761719 27.519531 L 18.046875 28.160156 C 18.21875 29.210938 19.039062 30.035156 20.089844 30.207031 C 21.140625 30.382812 22.183594 29.867188 22.6875 28.929688 L 27.039062 29.761719 C 27.199219 31.007812 28.257812 31.96875 29.503906 31.96875 C 30.878906 31.96875 32 30.847656 32 29.441406 C 32 28.097656 30.878906 26.945312 29.503906 26.945312 M 29.503906 30.464844 C 29.214844 30.464844 28.960938 30.335938 28.769531 30.144531 C 28.601562 29.976562 28.507812 29.742188 28.511719 29.503906 C 28.511719 29.441406 28.511719 29.375 28.542969 29.3125 C 28.609375 29.023438 28.792969 28.777344 29.054688 28.640625 C 29.183594 28.578125 29.328125 28.542969 29.472656 28.542969 C 29.632812 28.542969 29.761719 28.574219 29.886719 28.640625 C 30.207031 28.800781 30.433594 29.121094 30.433594 29.503906 C 30.433594 29.566406 30.433594 29.632812 30.398438 29.695312 C 30.335938 29.984375 30.148438 30.230469 29.886719 30.367188 C 29.824219 30.433594 29.664062 30.464844 29.503906 30.464844 M 20.929688 28.609375 C 20.789062 28.671875 20.636719 28.707031 20.480469 28.703125 C 20.222656 28.703125 19.96875 28.574219 19.777344 28.414062 C 19.617188 28.222656 19.488281 28 19.488281 27.742188 L 19.488281 27.617188 C 19.523438 27.316406 19.703125 27.054688 19.96875 26.910156 C 20.097656 26.816406 20.289062 26.785156 20.449219 26.785156 C 20.734375 26.785156 20.992188 26.910156 21.183594 27.105469 C 21.351562 27.273438 21.445312 27.503906 21.441406 27.742188 C 21.441406 27.808594 21.441406 27.871094 21.40625 27.9375 C 21.40625 28.222656 21.214844 28.449219 20.929688 28.609375 M 11.96875 27.265625 C 11.839844 27.359375 11.648438 27.390625 11.488281 27.390625 C 11.359375 27.390625 11.265625 27.359375 11.167969 27.328125 C 11.023438 27.265625 10.894531 27.179688 10.785156 27.070312 C 10.671875 26.96875 10.59375 26.835938 10.558594 26.6875 C 10.519531 26.585938 10.5 26.476562 10.496094 26.367188 C 10.496094 26.207031 10.527344 26.046875 10.625 25.921875 C 10.625 25.886719 10.65625 25.855469 10.6875 25.824219 C 10.757812 25.722656 10.84375 25.636719 10.945312 25.566406 C 11.105469 25.472656 11.265625 25.40625 11.488281 25.40625 C 11.550781 25.40625 11.648438 25.40625 11.710938 25.441406 C 11.742188 25.441406 11.777344 25.441406 11.777344 25.472656 C 12.03125 25.566406 12.257812 25.761719 12.351562 26.015625 C 12.351562 26.046875 12.382812 26.046875 12.382812 26.078125 C 12.414062 26.175781 12.449219 26.304688 12.449219 26.398438 L 12.449219 26.527344 C 12.429688 26.839844 12.246094 27.121094 11.96875 27.265625 M 2.496094 30.464844 C 2.105469 30.445312 1.761719 30.210938 1.601562 29.855469 C 1.539062 29.738281 1.503906 29.605469 1.503906 29.472656 C 1.496094 29.167969 1.640625 28.878906 1.886719 28.703125 C 2.058594 28.5625 2.273438 28.484375 2.496094 28.480469 C 2.558594 28.480469 2.65625 28.480469 2.71875 28.511719 C 3.039062 28.574219 3.296875 28.832031 3.390625 29.152344 C 3.433594 29.253906 3.457031 29.363281 3.457031 29.472656 C 3.453125 29.664062 3.398438 29.851562 3.296875 30.015625 C 3.105469 30.273438 2.816406 30.464844 2.496094 30.464844 M 3.808594 27.328125 L 5.664062 19.808594 C 6.980469 19.699219 7.996094 18.601562 8 17.28125 C 8 16.574219 7.710938 15.9375 7.265625 15.488281 L 9.664062 10.65625 C 9.789062 10.683594 9.917969 10.691406 10.046875 10.6875 C 10.175781 10.6875 10.304688 10.6875 10.433594 10.65625 L 12.800781 15.457031 C 12.328125 15.933594 12.0625 16.578125 12.0625 17.246094 C 12.0625 18.078125 12.480469 18.816406 13.089844 19.296875 L 11.519531 23.902344 L 11.488281 23.902344 C 10.113281 23.902344 8.992188 25.023438 8.992188 26.433594 L 8.992188 26.464844 L 4.480469 27.96875 C 4.320312 27.710938 4.0625 27.488281 3.808594 27.328125 M 4.511719 17.28125 C 4.511719 16.898438 4.734375 16.546875 5.054688 16.414062 C 5.183594 16.351562 5.328125 16.320312 5.472656 16.320312 C 5.632812 16.320312 5.761719 16.355469 5.886719 16.414062 C 6.148438 16.554688 6.335938 16.800781 6.398438 17.09375 C 6.398438 17.152344 6.433594 17.21875 6.433594 17.28125 C 6.433594 17.601562 6.304688 17.855469 6.078125 18.050781 C 5.90625 18.191406 5.695312 18.269531 5.472656 18.273438 C 5.40625 18.273438 5.3125 18.273438 5.246094 18.238281 C 4.957031 18.171875 4.71875 17.972656 4.609375 17.695312 C 4.542969 17.570312 4.507812 17.425781 4.511719 17.28125 M 9.023438 8.164062 C 9.023438 7.777344 9.246094 7.429688 9.566406 7.269531 C 9.660156 7.207031 9.773438 7.171875 9.886719 7.171875 L 9.984375 7.171875 C 10.144531 7.171875 10.273438 7.199219 10.398438 7.269531 C 10.496094 7.328125 10.625 7.394531 10.6875 7.488281 C 10.855469 7.671875 10.949219 7.914062 10.945312 8.160156 L 10.945312 8.355469 C 10.878906 8.640625 10.695312 8.886719 10.433594 9.023438 C 10.292969 9.09375 10.140625 9.125 9.984375 9.121094 C 9.839844 9.125 9.695312 9.09375 9.566406 9.023438 C 9.304688 8.886719 9.121094 8.640625 9.054688 8.355469 C 9.023438 8.289062 9.023438 8.222656 9.023438 8.160156 M 15.902344 1.535156 L 16 1.535156 C 16.0625 1.535156 16.160156 1.535156 16.222656 1.566406 C 16.640625 1.664062 16.960938 2.046875 16.960938 2.496094 L 16.960938 2.527344 C 16.964844 2.824219 16.835938 3.109375 16.609375 3.296875 C 16.4375 3.4375 16.222656 3.515625 16 3.519531 C 15.730469 3.523438 15.472656 3.40625 15.296875 3.199219 C 15.132812 3.015625 15.042969 2.773438 15.039062 2.527344 L 15.039062 2.367188 C 15.136719 1.921875 15.488281 1.601562 15.902344 1.535156 M 21.984375 8.734375 C 22.238281 8.800781 22.464844 8.960938 22.59375 9.183594 C 22.6875 9.34375 22.71875 9.503906 22.71875 9.695312 C 22.71875 9.824219 22.6875 9.953125 22.65625 10.046875 C 22.566406 10.332031 22.335938 10.550781 22.046875 10.625 C 21.984375 10.625 21.953125 10.65625 21.886719 10.65625 L 21.761719 10.65625 C 21.503906 10.65625 21.246094 10.558594 21.089844 10.367188 C 20.894531 10.207031 20.800781 9.953125 20.800781 9.695312 L 20.800781 9.566406 C 20.859375 9.078125 21.269531 8.710938 21.761719 8.703125 C 21.855469 8.703125 21.921875 8.703125 21.984375 8.734375 M 29.246094 11.777344 C 29.34375 11.742188 29.441406 11.742188 29.535156 11.742188 C 29.886719 11.742188 30.207031 11.9375 30.367188 12.222656 C 30.433594 12.351562 30.496094 12.480469 30.496094 12.609375 L 30.496094 12.734375 C 30.496094 13.152344 30.238281 13.503906 29.886719 13.632812 C 29.773438 13.671875 29.652344 13.691406 29.535156 13.695312 C 29.277344 13.695312 29.035156 13.59375 28.855469 13.414062 C 28.675781 13.234375 28.574219 12.988281 28.574219 12.734375 C 28.574219 12.609375 28.609375 12.480469 28.640625 12.382812 C 28.703125 12.097656 28.960938 11.871094 29.246094 11.777344 M 27.648438 14.398438 L 25.566406 17.886719 C 25.375 17.847656 25.183594 17.828125 24.992188 17.824219 C 24.128906 17.824219 23.390625 18.273438 22.945312 18.945312 L 16.992188 17.183594 C 16.992188 16.800781 16.863281 16.414062 16.703125 16.0625 L 20.671875 11.9375 C 20.992188 12.097656 21.375 12.191406 21.792969 12.191406 C 22.558594 12.191406 23.265625 11.839844 23.710938 11.265625 L 27.039062 12.574219 L 27.039062 12.734375 C 27.007812 13.34375 27.265625 13.953125 27.648438 14.398438 M 25.984375 20.351562 C 25.984375 20.414062 25.984375 20.480469 25.953125 20.542969 C 25.890625 20.832031 25.703125 21.078125 25.441406 21.214844 C 25.300781 21.28125 25.148438 21.316406 24.992188 21.3125 C 24.679688 21.316406 24.390625 21.15625 24.222656 20.894531 C 24.191406 20.832031 24.160156 20.769531 24.128906 20.703125 C 24.066406 20.585938 24.03125 20.453125 24.03125 20.320312 C 24.03125 20.222656 24.03125 20.128906 24.0625 20.0625 C 24.097656 20 24.097656 19.9375 24.128906 19.871094 C 24.222656 19.679688 24.414062 19.519531 24.609375 19.425781 C 24.722656 19.382812 24.839844 19.359375 24.960938 19.359375 C 25.023438 19.359375 25.121094 19.359375 25.183594 19.390625 C 25.246094 19.390625 25.3125 19.425781 25.375 19.457031 C 25.40625 19.457031 25.441406 19.488281 25.441406 19.488281 C 25.699219 19.648438 25.863281 19.917969 25.886719 20.222656 C 25.984375 20.257812 25.984375 20.289062 25.984375 20.351562 M 13.566406 17.054688 C 13.632812 16.765625 13.816406 16.519531 14.078125 16.382812 C 14.164062 16.324219 14.265625 16.289062 14.367188 16.289062 L 14.496094 16.289062 C 14.65625 16.289062 14.785156 16.320312 14.910156 16.382812 C 15.015625 16.414062 15.105469 16.484375 15.167969 16.574219 C 15.359375 16.757812 15.464844 17.015625 15.457031 17.28125 C 15.457031 17.375 15.457031 17.472656 15.425781 17.566406 C 15.367188 17.789062 15.230469 17.980469 15.039062 18.113281 C 14.976562 18.144531 14.910156 18.175781 14.847656 18.207031 C 14.734375 18.246094 14.617188 18.269531 14.496094 18.273438 C 14.386719 18.265625 14.277344 18.242188 14.175781 18.207031 C 13.984375 18.136719 13.820312 18.015625 13.695312 17.855469 C 13.632812 17.792969 13.601562 17.695312 13.566406 17.601562 C 13.53125 17.496094 13.511719 17.390625 13.503906 17.28125 L 13.503906 17.152344 C 13.535156 17.121094 13.535156 17.089844 13.566406 17.054688 M 12.960938 24.382812 L 14.464844 19.777344 L 14.496094 19.777344 C 15.359375 19.777344 16.097656 19.328125 16.542969 18.65625 L 22.496094 20.414062 L 22.496094 20.609375 L 13.34375 24.734375 C 13.246094 24.609375 13.121094 24.511719 12.960938 24.382812 M 16 5.054688 C 16.320312 5.054688 16.640625 4.992188 16.894531 4.863281 L 19.679688 8.320312 C 19.488281 8.640625 19.359375 8.992188 19.296875 9.375 C 19.296875 9.472656 19.265625 9.601562 19.265625 9.695312 C 19.265625 10.113281 19.359375 10.527344 19.550781 10.878906 L 15.617188 15.007812 C 15.269531 14.839844 14.886719 14.75 14.496094 14.753906 C 14.367188 14.753906 14.238281 14.753906 14.113281 14.785156 L 11.742188 9.984375 C 12.136719 9.582031 12.394531 9.066406 12.480469 8.511719 C 12.480469 8.414062 12.511719 8.289062 12.511719 8.191406 C 12.511719 7.808594 12.414062 7.457031 12.289062 7.136719 L 14.816406 4.769531 C 15.136719 4.929688 15.550781 5.054688 16 5.054688 M 20.511719 25.214844 C 19.519531 25.214844 18.6875 25.792969 18.273438 26.625 L 14.238281 26.046875 L 23.167969 22.015625 C 23.636719 22.546875 24.3125 22.851562 25.023438 22.847656 C 25.152344 22.847656 25.28125 22.847656 25.40625 22.816406 L 27.808594 27.648438 C 27.617188 27.808594 27.488281 28.03125 27.359375 28.222656 L 23.007812 27.390625 C 22.816406 26.175781 21.761719 25.214844 20.511719 25.214844 M 20.511719 25.214844 "/>
</g>
</svg>
