<svg role="img" viewBox="0 0 32 32" xmlns="http://www.w3.org/2000/svg"><path d="M29.504 26.945c-.129 0-.258 0-.383.032l-2.402-4.832c.449-.45.738-1.09.738-1.793a2.54 2.54 0 0 0-.61-1.665L28.93 15.2c.191.031.383.067.574.067 1.375 0 2.496-1.121 2.496-2.532 0-1.406-1.121-2.527-2.496-2.527-.77 0-1.473.352-1.918.93l-3.328-1.313v-.16c0-1.375-1.121-2.527-2.496-2.527-.32 0-.64.062-.899.191l-2.785-3.457c.258-.383.418-.863.418-1.375A2.5 2.5 0 0 0 16 0c-1.375 0-2.496 1.121-2.496 2.527 0 .383.098.739.223 1.059l-2.528 2.367c-.351-.226-.765-.32-1.215-.32-1.375 0-2.496 1.12-2.496 2.527 0 .703.29 1.344.735 1.793l-2.399 4.832c-.129-.031-.258-.031-.383-.031a2.503 2.503 0 0 0-2.496 2.527c0 .895.48 1.696 1.184 2.145l-1.793 7.52A2.542 2.542 0 0 0 0 29.472C0 30.848 1.121 32 2.496 32s2.496-1.121 2.496-2.527v-.032l4.512-1.539a2.43 2.43 0 0 0 2.016 1.028c.992 0 1.824-.578 2.242-1.41l4.285.64a2.483 2.483 0 0 0 4.64.77l4.352.832c.16 1.246 1.219 2.207 2.465 2.207 1.375 0 2.496-1.121 2.496-2.528 0-1.343-1.121-2.496-2.496-2.496m0 3.52c-.29 0-.543-.13-.734-.32a.893.893 0 0 1-.258-.641c0-.063 0-.129.031-.192a1.01 1.01 0 0 1 .512-.671.961.961 0 0 1 .418-.098c.16 0 .289.031.414.098.32.16.547.48.547.863 0 .062 0 .129-.036.191a.99.99 0 0 1-.511.672c-.063.067-.223.098-.383.098m-8.574-1.856a1.05 1.05 0 0 1-.45.094c-.257 0-.511-.129-.703-.289-.16-.191-.289-.414-.289-.672v-.125a.93.93 0 0 1 .48-.707c.13-.094.321-.125.481-.125.285 0 .543.125.735.32a.89.89 0 0 1 .257.637c0 .067 0 .13-.035.195 0 .286-.191.512-.476.672m-8.961-1.343c-.13.093-.32.125-.48.125-.13 0-.223-.032-.321-.063a1.247 1.247 0 0 1-.383-.258.768.768 0 0 1-.226-.383.952.952 0 0 1-.063-.32c0-.16.031-.32.129-.445 0-.035.031-.067.063-.098a1.01 1.01 0 0 1 .257-.258c.16-.093.32-.16.543-.16.063 0 .16 0 .223.035.031 0 .066 0 .066.032.254.093.48.289.575.543 0 .03.03.03.03.062.032.098.067.227.067.32v.13a.903.903 0 0 1-.48.738m-9.473 3.199a1.04 1.04 0 0 1-.895-.61.82.82 0 0 1-.097-.382.92.92 0 0 1 .383-.77 1.01 1.01 0 0 1 .61-.223c.062 0 .16 0 .222.032.32.062.578.32.672.64a.863.863 0 0 1 .066.32 1.1 1.1 0 0 1-.16.544c-.192.257-.48.449-.8.449m1.313-3.137 1.855-7.52A2.545 2.545 0 0 0 8 17.282c0-.707-.29-1.343-.734-1.793l2.398-4.832a1.6 1.6 0 0 0 .383.031c.129 0 .258 0 .387-.03l2.367 4.8a2.526 2.526 0 0 0-.739 1.79c0 .831.418 1.57 1.028 2.05l-1.57 4.605h-.032c-1.375 0-2.496 1.121-2.496 2.532v.03L4.48 27.97c-.16-.258-.418-.48-.671-.64m.703-10.047c0-.386.222-.738.543-.867a.914.914 0 0 1 .418-.094c.16 0 .289.032.414.094a.994.994 0 0 1 .511.676c0 .062.036.125.036.191 0 .32-.13.574-.356.766a.994.994 0 0 1-.605.226c-.067 0-.16 0-.227-.035a.907.907 0 0 1-.637-.543.853.853 0 0 1-.097-.414m4.511-9.12c0-.384.223-.735.543-.895a.61.61 0 0 1 .32-.098h.098c.16 0 .29.031.414.098.098.062.227.125.29.222a.97.97 0 0 1 .257.672v.192a1.009 1.009 0 0 1-.511.671.998.998 0 0 1-.45.098.868.868 0 0 1-.418-.098 1.012 1.012 0 0 1-.511-.671c-.032-.063-.032-.13-.032-.192m6.88-6.626H16c.063 0 .16 0 .223.031.418.098.738.48.738.93v.031a.98.98 0 0 1-.352.77A1.01 1.01 0 0 1 16 3.52a.916.916 0 0 1-.703-.32 1.029 1.029 0 0 1-.258-.673v-.16c.098-.445.45-.765.863-.832m6.081 7.2c.254.066.48.226.61.449.093.16.125.32.125.511 0 .13-.032.258-.063.352a.857.857 0 0 1-.61.578c-.062 0-.093.031-.16.031h-.124c-.258 0-.516-.097-.672-.289-.195-.16-.29-.414-.29-.672v-.129a.985.985 0 0 1 .962-.863c.093 0 .16 0 .222.031m7.262 3.042c.098-.035.195-.035.29-.035.35 0 .671.195.831.48.067.13.13.258.13.387v.125c0 .418-.259.77-.61.899a1.154 1.154 0 0 1-.352.062.957.957 0 0 1-.96-.96c0-.126.034-.255.066-.352.062-.285.32-.512.605-.606m-1.598 2.621-2.082 3.489a3.488 3.488 0 0 0-.574-.063c-.863 0-1.601.45-2.047 1.121l-5.953-1.761c0-.383-.129-.77-.289-1.122l3.969-4.125c.32.16.703.254 1.121.254.766 0 1.473-.351 1.918-.925l3.328 1.308v.16c-.031.61.227 1.22.61 1.664m-1.664 5.954c0 .062 0 .128-.03.191a1.006 1.006 0 0 1-.513.672.998.998 0 0 1-.449.098.9.9 0 0 1-.77-.418c-.03-.063-.062-.125-.093-.192a.82.82 0 0 1-.098-.383c0-.097 0-.191.032-.258.035-.062.035-.125.066-.19.094-.192.285-.352.48-.446a1.05 1.05 0 0 1 .352-.067c.062 0 .16 0 .223.032.062 0 .128.035.191.066.031 0 .066.031.066.031a.95.95 0 0 1 .446.735c.097.035.097.066.097.129m-12.418-3.297a1.02 1.02 0 0 1 .512-.672.538.538 0 0 1 .29-.094h.128c.16 0 .29.031.414.094a.496.496 0 0 1 .258.191.957.957 0 0 1 .289.707c0 .094 0 .192-.031.285a.973.973 0 0 1-.387.547c-.062.032-.129.063-.191.094a1.149 1.149 0 0 1-.352.066 1.17 1.17 0 0 1-.32-.066 1.043 1.043 0 0 1-.48-.352c-.063-.062-.094-.16-.13-.253a1.191 1.191 0 0 1-.062-.32v-.13c.031-.03.031-.062.062-.097m-.605 7.328 1.504-4.606h.031c.863 0 1.602-.449 2.047-1.12l5.953 1.757v.195l-9.152 4.125c-.098-.125-.223-.222-.383-.351M16 5.055c.32 0 .64-.063.895-.192L19.68 8.32c-.192.32-.32.672-.383 1.055 0 .098-.031.227-.031.32 0 .418.093.832.285 1.184l-3.934 4.129a2.52 2.52 0 0 0-1.12-.254c-.13 0-.259 0-.384.031l-2.37-4.8a2.68 2.68 0 0 0 .737-1.473c0-.098.032-.223.032-.32 0-.383-.098-.735-.223-1.055l2.527-2.367c.32.16.735.285 1.184.285m4.512 20.16c-.992 0-1.825.578-2.239 1.41l-4.035-.578 8.93-4.031a2.47 2.47 0 0 0 1.855.832c.13 0 .258 0 .383-.032l2.403 4.832c-.192.16-.32.383-.45.575l-4.351-.832c-.192-1.215-1.246-2.176-2.496-2.176m0 0" style="stroke:none;fill-rule:nonzero;fill:rgb(25.098041%,25.098041%,25.490198%);fill-opacity:1"/></svg>