<?xml version="1.0" encoding="UTF-8"?>
<svg xmlns="http://www.w3.org/2000/svg" xmlns:xlink="http://www.w3.org/1999/xlink" width="32" height="32" viewBox="0 0 32 32" version="1.1">
<g id="surface1">
<path style=" stroke:none;fill-rule:nonzero;fill:rgb(25.098041%,25.098041%,25.490198%);fill-opacity:1;" d="M 29.503906 26.945312 C 29.375 26.945312 29.246094 26.945312 29.121094 26.976562 L 26.71875 22.144531 C 27.167969 21.695312 27.457031 21.054688 27.457031 20.351562 C 27.457031 19.710938 27.230469 19.136719 26.847656 18.6875 L 28.929688 15.199219 C 29.121094 15.230469 29.3125 15.265625 29.503906 15.265625 C 30.878906 15.265625 32 14.144531 32 12.734375 C 32 11.328125 30.878906 10.207031 29.503906 10.207031 C 28.734375 10.207031 28.03125 10.558594 27.585938 11.136719 L 24.257812 9.824219 C 24.257812 9.761719 24.257812 9.726562 24.257812 9.664062 C 24.257812 8.289062 23.136719 7.136719 21.761719 7.136719 C 21.441406 7.136719 21.121094 7.199219 20.863281 7.328125 L 18.078125 3.871094 C 18.335938 3.488281 18.496094 3.007812 18.496094 2.496094 C 18.496094 1.121094 17.375 0 16 0 C 14.625 0 13.503906 1.121094 13.503906 2.527344 C 13.503906 2.910156 13.601562 3.265625 13.726562 3.585938 L 11.199219 5.953125 C 10.847656 5.726562 10.433594 5.632812 9.984375 5.632812 C 8.609375 5.632812 7.488281 6.753906 7.488281 8.160156 C 7.488281 8.863281 7.777344 9.503906 8.222656 9.953125 L 5.824219 14.785156 C 5.695312 14.753906 5.566406 14.753906 5.441406 14.753906 C 4.0625 14.753906 2.945312 15.871094 2.945312 17.28125 C 2.945312 18.175781 3.425781 18.976562 4.128906 19.425781 L 2.335938 26.945312 C 1.054688 27.039062 0 28.128906 0 29.472656 C 0 30.847656 1.121094 32 2.496094 32 C 3.871094 32 4.992188 30.878906 4.992188 29.472656 L 4.992188 29.441406 L 9.503906 27.902344 C 9.953125 28.542969 10.6875 28.929688 11.519531 28.929688 C 12.511719 28.929688 13.34375 28.351562 13.761719 27.519531 L 18.046875 28.160156 C 18.238281 29.34375 19.265625 30.238281 20.511719 30.238281 C 21.441406 30.238281 22.273438 29.695312 22.6875 28.929688 L 27.039062 29.761719 C 27.199219 31.007812 28.257812 31.96875 29.503906 31.96875 C 30.878906 31.96875 32 30.847656 32 29.441406 C 32 28.097656 30.878906 26.945312 29.503906 26.945312 Z M 29.503906 30.464844 C 29.214844 30.464844 28.960938 30.335938 28.769531 30.144531 C 28.609375 29.984375 28.511719 29.761719 28.511719 29.503906 C 28.511719 29.441406 28.511719 29.375 28.542969 29.3125 C 28.609375 29.023438 28.800781 28.769531 29.054688 28.640625 C 29.183594 28.574219 29.34375 28.542969 29.472656 28.542969 C 29.632812 28.542969 29.761719 28.574219 29.886719 28.640625 C 30.207031 28.800781 30.433594 29.121094 30.433594 29.503906 C 30.433594 29.566406 30.433594 29.632812 30.398438 29.695312 C 30.335938 29.984375 30.144531 30.238281 29.886719 30.367188 C 29.824219 30.433594 29.664062 30.464844 29.503906 30.464844 Z M 20.929688 28.609375 C 20.800781 28.671875 20.640625 28.703125 20.480469 28.703125 C 20.222656 28.703125 19.96875 28.574219 19.777344 28.414062 C 19.617188 28.222656 19.488281 28 19.488281 27.742188 C 19.488281 27.710938 19.488281 27.648438 19.488281 27.617188 C 19.519531 27.328125 19.710938 27.039062 19.96875 26.910156 C 20.097656 26.816406 20.289062 26.785156 20.449219 26.785156 C 20.734375 26.785156 20.992188 26.910156 21.183594 27.105469 C 21.34375 27.265625 21.441406 27.488281 21.441406 27.742188 C 21.441406 27.808594 21.441406 27.871094 21.40625 27.9375 C 21.40625 28.222656 21.214844 28.449219 20.929688 28.609375 Z M 11.96875 27.265625 C 11.839844 27.359375 11.648438 27.390625 11.488281 27.390625 C 11.359375 27.390625 11.265625 27.359375 11.167969 27.328125 C 11.039062 27.265625 10.910156 27.199219 10.785156 27.070312 C 10.6875 26.976562 10.59375 26.847656 10.558594 26.6875 C 10.527344 26.59375 10.496094 26.496094 10.496094 26.367188 C 10.496094 26.207031 10.527344 26.046875 10.625 25.921875 C 10.625 25.886719 10.65625 25.855469 10.6875 25.824219 C 10.753906 25.726562 10.847656 25.632812 10.945312 25.566406 C 11.105469 25.472656 11.265625 25.40625 11.488281 25.40625 C 11.550781 25.40625 11.648438 25.40625 11.710938 25.441406 C 11.742188 25.441406 11.777344 25.441406 11.777344 25.472656 C 12.03125 25.566406 12.257812 25.761719 12.351562 26.015625 C 12.351562 26.046875 12.382812 26.046875 12.382812 26.078125 C 12.414062 26.175781 12.449219 26.304688 12.449219 26.398438 C 12.449219 26.433594 12.449219 26.496094 12.449219 26.527344 C 12.414062 26.878906 12.222656 27.136719 11.96875 27.265625 Z M 2.496094 30.464844 C 2.367188 30.464844 2.273438 30.433594 2.175781 30.398438 C 1.921875 30.304688 1.726562 30.113281 1.601562 29.855469 C 1.535156 29.726562 1.503906 29.601562 1.503906 29.472656 C 1.503906 29.152344 1.632812 28.894531 1.886719 28.703125 C 2.046875 28.574219 2.273438 28.480469 2.496094 28.480469 C 2.558594 28.480469 2.65625 28.480469 2.71875 28.511719 C 3.039062 28.574219 3.296875 28.832031 3.390625 29.152344 C 3.425781 29.246094 3.457031 29.34375 3.457031 29.472656 C 3.457031 29.664062 3.390625 29.855469 3.296875 30.015625 C 3.105469 30.273438 2.816406 30.464844 2.496094 30.464844 Z M 3.808594 27.328125 L 5.664062 19.808594 C 6.945312 19.710938 8 18.625 8 17.28125 C 8 16.574219 7.710938 15.9375 7.265625 15.488281 L 9.664062 10.65625 C 9.792969 10.6875 9.921875 10.6875 10.046875 10.6875 C 10.175781 10.6875 10.304688 10.6875 10.433594 10.65625 L 12.800781 15.457031 C 12.351562 15.902344 12.0625 16.542969 12.0625 17.246094 C 12.0625 18.078125 12.480469 18.816406 13.089844 19.296875 L 11.519531 23.902344 L 11.488281 23.902344 C 10.113281 23.902344 8.992188 25.023438 8.992188 26.433594 L 8.992188 26.464844 L 4.480469 27.96875 C 4.320312 27.710938 4.0625 27.488281 3.808594 27.328125 Z M 4.511719 17.28125 C 4.511719 16.894531 4.734375 16.542969 5.054688 16.414062 C 5.183594 16.351562 5.3125 16.320312 5.472656 16.320312 C 5.632812 16.320312 5.761719 16.351562 5.886719 16.414062 C 6.144531 16.542969 6.335938 16.800781 6.398438 17.089844 C 6.398438 17.152344 6.433594 17.214844 6.433594 17.28125 C 6.433594 17.601562 6.304688 17.855469 6.078125 18.046875 C 5.921875 18.175781 5.695312 18.273438 5.472656 18.273438 C 5.40625 18.273438 5.3125 18.273438 5.246094 18.238281 C 4.960938 18.175781 4.703125 17.953125 4.609375 17.695312 C 4.542969 17.566406 4.511719 17.441406 4.511719 17.28125 Z M 9.023438 8.160156 C 9.023438 7.777344 9.246094 7.425781 9.566406 7.265625 C 9.664062 7.199219 9.792969 7.167969 9.886719 7.167969 C 9.921875 7.167969 9.953125 7.167969 9.984375 7.167969 C 10.144531 7.167969 10.273438 7.199219 10.398438 7.265625 C 10.496094 7.328125 10.625 7.390625 10.6875 7.488281 C 10.847656 7.648438 10.945312 7.902344 10.945312 8.160156 C 10.945312 8.191406 10.945312 8.257812 10.945312 8.289062 C 10.945312 8.289062 10.945312 8.320312 10.945312 8.320312 L 10.945312 8.351562 C 10.878906 8.640625 10.6875 8.894531 10.433594 9.023438 C 10.304688 9.089844 10.144531 9.121094 9.984375 9.121094 C 9.824219 9.121094 9.695312 9.089844 9.566406 9.023438 C 9.3125 8.894531 9.121094 8.640625 9.054688 8.351562 C 9.023438 8.289062 9.023438 8.222656 9.023438 8.160156 Z M 15.902344 1.535156 C 15.9375 1.535156 15.96875 1.535156 16 1.535156 C 16.0625 1.535156 16.160156 1.535156 16.222656 1.566406 C 16.640625 1.664062 16.960938 2.046875 16.960938 2.496094 L 16.960938 2.527344 C 16.960938 2.847656 16.832031 3.105469 16.609375 3.296875 C 16.449219 3.425781 16.222656 3.519531 16 3.519531 C 15.710938 3.519531 15.457031 3.390625 15.296875 3.199219 C 15.136719 3.007812 15.039062 2.785156 15.039062 2.527344 C 15.039062 2.464844 15.039062 2.433594 15.039062 2.367188 C 15.136719 1.921875 15.488281 1.601562 15.902344 1.535156 Z M 21.984375 8.734375 C 22.238281 8.800781 22.464844 8.960938 22.59375 9.183594 C 22.6875 9.34375 22.71875 9.503906 22.71875 9.695312 C 22.71875 9.824219 22.6875 9.953125 22.65625 10.046875 C 22.558594 10.335938 22.335938 10.558594 22.046875 10.625 C 21.984375 10.625 21.953125 10.65625 21.886719 10.65625 C 21.855469 10.65625 21.792969 10.65625 21.761719 10.65625 C 21.503906 10.65625 21.246094 10.558594 21.089844 10.367188 C 20.894531 10.207031 20.800781 9.953125 20.800781 9.695312 C 20.800781 9.695312 20.800781 9.695312 20.800781 9.664062 C 20.800781 9.632812 20.800781 9.601562 20.800781 9.566406 C 20.832031 9.3125 20.960938 9.089844 21.152344 8.929688 C 21.3125 8.800781 21.535156 8.703125 21.761719 8.703125 C 21.855469 8.703125 21.921875 8.703125 21.984375 8.734375 Z M 29.246094 11.777344 C 29.34375 11.742188 29.441406 11.742188 29.535156 11.742188 C 29.886719 11.742188 30.207031 11.9375 30.367188 12.222656 C 30.433594 12.351562 30.496094 12.480469 30.496094 12.609375 C 30.496094 12.640625 30.496094 12.671875 30.496094 12.734375 C 30.496094 13.152344 30.238281 13.503906 29.886719 13.632812 C 29.792969 13.664062 29.664062 13.695312 29.535156 13.695312 C 29.34375 13.695312 29.183594 13.632812 29.054688 13.566406 C 28.769531 13.40625 28.574219 13.089844 28.574219 12.734375 C 28.574219 12.609375 28.609375 12.480469 28.640625 12.382812 C 28.703125 12.097656 28.960938 11.871094 29.246094 11.777344 Z M 27.648438 14.398438 L 25.566406 17.886719 C 25.375 17.855469 25.183594 17.824219 24.992188 17.824219 C 24.128906 17.824219 23.390625 18.273438 22.945312 18.945312 L 16.992188 17.183594 C 16.992188 16.800781 16.863281 16.414062 16.703125 16.0625 L 20.671875 11.9375 C 20.992188 12.097656 21.375 12.191406 21.792969 12.191406 C 22.558594 12.191406 23.265625 11.839844 23.710938 11.265625 L 27.039062 12.574219 C 27.039062 12.640625 27.039062 12.671875 27.039062 12.734375 C 27.007812 13.34375 27.265625 13.953125 27.648438 14.398438 Z M 25.984375 20.351562 C 25.984375 20.414062 25.984375 20.480469 25.953125 20.542969 C 25.886719 20.832031 25.695312 21.089844 25.441406 21.214844 C 25.3125 21.28125 25.152344 21.3125 24.992188 21.3125 C 24.671875 21.3125 24.382812 21.152344 24.222656 20.894531 C 24.191406 20.832031 24.160156 20.769531 24.128906 20.703125 C 24.0625 20.574219 24.03125 20.449219 24.03125 20.320312 C 24.03125 20.222656 24.03125 20.128906 24.0625 20.0625 C 24.097656 20 24.097656 19.9375 24.128906 19.871094 C 24.222656 19.679688 24.414062 19.519531 24.609375 19.425781 C 24.703125 19.390625 24.832031 19.359375 24.960938 19.359375 C 25.023438 19.359375 25.121094 19.359375 25.183594 19.390625 C 25.246094 19.390625 25.3125 19.425781 25.375 19.457031 C 25.40625 19.457031 25.441406 19.488281 25.441406 19.488281 C 25.695312 19.648438 25.855469 19.902344 25.886719 20.222656 C 25.984375 20.257812 25.984375 20.289062 25.984375 20.351562 Z M 13.566406 17.054688 C 13.632812 16.769531 13.824219 16.511719 14.078125 16.382812 C 14.175781 16.320312 14.273438 16.289062 14.367188 16.289062 C 14.398438 16.289062 14.464844 16.289062 14.496094 16.289062 C 14.65625 16.289062 14.785156 16.320312 14.910156 16.382812 C 15.007812 16.414062 15.105469 16.480469 15.167969 16.574219 C 15.359375 16.769531 15.457031 16.992188 15.457031 17.28125 C 15.457031 17.375 15.457031 17.472656 15.425781 17.566406 C 15.359375 17.792969 15.230469 17.984375 15.039062 18.113281 C 14.976562 18.144531 14.910156 18.175781 14.847656 18.207031 C 14.753906 18.238281 14.625 18.273438 14.496094 18.273438 C 14.398438 18.273438 14.273438 18.238281 14.175781 18.207031 C 13.984375 18.144531 13.824219 18.015625 13.695312 17.855469 C 13.632812 17.792969 13.601562 17.695312 13.566406 17.601562 C 13.535156 17.503906 13.503906 17.375 13.503906 17.28125 C 13.503906 17.246094 13.503906 17.214844 13.503906 17.152344 C 13.535156 17.121094 13.535156 17.089844 13.566406 17.054688 Z M 12.960938 24.382812 L 14.464844 19.777344 L 14.496094 19.777344 C 15.359375 19.777344 16.097656 19.328125 16.542969 18.65625 L 22.496094 20.414062 C 22.496094 20.480469 22.496094 20.542969 22.496094 20.609375 L 13.34375 24.734375 C 13.246094 24.609375 13.121094 24.511719 12.960938 24.382812 Z M 16 5.054688 C 16.320312 5.054688 16.640625 4.992188 16.894531 4.863281 L 19.679688 8.320312 C 19.488281 8.640625 19.359375 8.992188 19.296875 9.375 C 19.296875 9.472656 19.265625 9.601562 19.265625 9.695312 C 19.265625 10.113281 19.359375 10.527344 19.550781 10.878906 L 15.617188 15.007812 C 15.296875 14.847656 14.910156 14.753906 14.496094 14.753906 C 14.367188 14.753906 14.238281 14.753906 14.113281 14.785156 L 11.742188 9.984375 C 12.128906 9.601562 12.382812 9.089844 12.480469 8.511719 C 12.480469 8.414062 12.511719 8.289062 12.511719 8.191406 C 12.511719 7.808594 12.414062 7.457031 12.289062 7.136719 L 14.816406 4.769531 C 15.136719 4.929688 15.550781 5.054688 16 5.054688 Z M 20.511719 25.214844 C 19.519531 25.214844 18.6875 25.792969 18.273438 26.625 L 14.238281 26.046875 L 23.167969 22.015625 C 23.617188 22.527344 24.289062 22.847656 25.023438 22.847656 C 25.152344 22.847656 25.28125 22.847656 25.40625 22.816406 L 27.808594 27.648438 C 27.617188 27.808594 27.488281 28.03125 27.359375 28.222656 L 23.007812 27.390625 C 22.816406 26.175781 21.761719 25.214844 20.511719 25.214844 Z M 20.511719 25.214844 "/>
</g>
</svg>
