<?xml version="1.0" encoding="utf-8"?>
<!-- Generator: Adobe Illustrator 25.4.1, SVG Export Plug-In . SVG Version: 6.00 Build 0)  -->
<svg version="1.1" id="Layer_1" xmlns="http://www.w3.org/2000/svg" xmlns:xlink="http://www.w3.org/1999/xlink" x="0px" y="0px"
	 viewBox="0 0 100 100" style="enable-background:new 0 0 100 100;" xml:space="preserve">
<style type="text/css">
	.st0{fill:#404041;}
</style>
<path class="st0" d="M92.2,84.2c-0.4,0-0.8,0-1.2,0.1l-7.5-15.1c1.4-1.4,2.3-3.4,2.3-5.6c0-2-0.7-3.8-1.9-5.2l6.5-10.9
	c0.6,0.1,1.2,0.2,1.8,0.2c4.3,0,7.8-3.5,7.8-7.9c0-4.4-3.5-7.9-7.8-7.9c-2.4,0-4.6,1.1-6,2.9l-10.4-4.1c0-0.2,0-0.3,0-0.5
	c0-4.3-3.5-7.9-7.8-7.9c-1,0-2,0.2-2.8,0.6l-8.7-10.8v0c0.8-1.2,1.3-2.7,1.3-4.3C57.8,3.5,54.3,0,50,0s-7.8,3.5-7.8,7.9
	c0,1.2,0.3,2.3,0.7,3.3L35,18.6c-1.1-0.7-2.4-1-3.8-1c-4.3,0-7.8,3.5-7.8,7.9c0,2.2,0.9,4.2,2.3,5.6l-7.5,15.1
	c-0.4-0.1-0.8-0.1-1.2-0.1c-4.3,0-7.8,3.5-7.8,7.9c0,2.8,1.5,5.3,3.7,6.7L7.3,84.2c-4,0.3-7.3,3.7-7.3,7.9c0,4.3,3.5,7.9,7.8,7.9
	s7.8-3.5,7.8-7.9V92l14.1-4.8c1.4,2,3.7,3.2,6.3,3.2c3.1,0,5.7-1.8,7-4.4L56.4,88c0.6,3.7,3.8,6.5,7.7,6.5c2.9,0,5.5-1.7,6.8-4.1
	l13.6,2.6c0.5,3.9,3.8,6.9,7.7,6.9c4.3,0,7.8-3.5,7.8-7.9C100,87.8,96.5,84.2,92.2,84.2z M92.2,95.2c-0.9,0-1.7-0.4-2.3-1
	c-0.5-0.5-0.8-1.2-0.8-2c0-0.2,0-0.4,0.1-0.6v0c0.2-0.9,0.8-1.7,1.6-2.1c0.4-0.2,0.9-0.3,1.3-0.3c0.5,0,0.9,0.1,1.3,0.3
	c1,0.5,1.7,1.5,1.7,2.7c0,0.2,0,0.4-0.1,0.6c-0.2,0.9-0.8,1.7-1.6,2.1C93.2,95.1,92.7,95.2,92.2,95.2z M65.4,89.4
	c-0.4,0.2-0.9,0.3-1.4,0.3c-0.8,0-1.6-0.4-2.2-0.9c-0.5-0.6-0.9-1.3-0.9-2.1c0-0.1,0-0.3,0-0.4c0.1-0.9,0.7-1.8,1.5-2.2
	c0.4-0.3,1-0.4,1.5-0.4c0.9,0,1.7,0.4,2.3,1c0.5,0.5,0.8,1.2,0.8,2c0,0.2,0,0.4-0.1,0.6v0C66.9,88.2,66.3,88.9,65.4,89.4z
	 M37.4,85.2c-0.4,0.3-1,0.4-1.5,0.4c-0.4,0-0.7-0.1-1-0.2c-0.4-0.2-0.8-0.4-1.2-0.8c-0.3-0.3-0.6-0.7-0.7-1.2
	c-0.1-0.3-0.2-0.6-0.2-1c0-0.5,0.1-1,0.4-1.4c0-0.1,0.1-0.2,0.2-0.3c0.2-0.3,0.5-0.6,0.8-0.8c0,0,0,0,0,0c0.5-0.3,1-0.5,1.7-0.5
	c0.2,0,0.5,0,0.7,0.1c0.1,0,0.2,0,0.2,0.1c0.8,0.3,1.5,0.9,1.8,1.7c0,0.1,0.1,0.1,0.1,0.2c0.1,0.3,0.2,0.7,0.2,1c0,0.1,0,0.3,0,0.4
	C38.8,84,38.2,84.8,37.4,85.2z M7.8,95.2c-0.4,0-0.7-0.1-1-0.2C6,94.7,5.4,94.1,5,93.3c-0.2-0.4-0.3-0.8-0.3-1.2
	c0-1,0.4-1.8,1.2-2.4c0.5-0.4,1.2-0.7,1.9-0.7c0.2,0,0.5,0,0.7,0.1c1,0.2,1.8,1,2.1,2c0.1,0.3,0.2,0.6,0.2,1c0,0.6-0.2,1.2-0.5,1.7
	C9.7,94.6,8.8,95.2,7.8,95.2z M11.9,85.4l5.8-23.5c4-0.3,7.3-3.7,7.3-7.9c0-2.2-0.9-4.2-2.3-5.6l7.5-15.1c0.4,0.1,0.8,0.1,1.2,0.1
	c0.4,0,0.8,0,1.2-0.1l7.4,15c-1.4,1.4-2.3,3.4-2.3,5.6c0,2.6,1.3,4.9,3.2,6.4L36,74.7h-0.1c-4.3,0-7.8,3.5-7.8,7.9v0.1L14,87.4
	C13.5,86.6,12.7,85.9,11.9,85.4z M14.1,54c0-1.2,0.7-2.3,1.7-2.7c0.4-0.2,0.8-0.3,1.3-0.3c0.5,0,0.9,0.1,1.3,0.3
	c0.8,0.4,1.4,1.2,1.6,2.1c0,0.2,0.1,0.4,0.1,0.6c0,1-0.4,1.8-1.1,2.4c-0.5,0.4-1.2,0.7-1.9,0.7c-0.2,0-0.5,0-0.7-0.1
	c-0.9-0.2-1.7-0.9-2-1.7C14.2,54.9,14.1,54.5,14.1,54z M28.2,25.5c0-1.2,0.7-2.3,1.7-2.8c0.3-0.2,0.7-0.3,1-0.3c0.1,0,0.2,0,0.3,0
	c0.5,0,0.9,0.1,1.3,0.3c0.3,0.2,0.7,0.4,0.9,0.7c0.5,0.5,0.8,1.3,0.8,2.1c0,0.1,0,0.3,0,0.4c0,0,0,0.1,0,0.1l0,0l0,0.1
	c-0.2,0.9-0.8,1.7-1.6,2.1c-0.4,0.2-0.9,0.3-1.4,0.3c-0.5,0-0.9-0.1-1.3-0.3c-0.8-0.4-1.4-1.2-1.6-2.1
	C28.2,25.9,28.2,25.7,28.2,25.5z M49.7,4.8c0.1,0,0.2,0,0.3,0c0.2,0,0.5,0,0.7,0.1h0C52,5.2,53,6.4,53,7.8v0v0.1
	c0,1-0.4,1.8-1.1,2.4c-0.5,0.4-1.2,0.7-1.9,0.7c-0.9,0-1.7-0.4-2.2-1C47.3,9.4,47,8.7,47,7.9c0-0.2,0-0.3,0-0.5
	C47.3,6,48.4,5,49.7,4.8z M68.7,27.3c0.8,0.2,1.5,0.7,1.9,1.4c0.3,0.5,0.4,1,0.4,1.6c0,0.4-0.1,0.8-0.2,1.1c-0.3,0.9-1,1.6-1.9,1.8
	c-0.2,0-0.3,0.1-0.5,0.1c-0.1,0-0.3,0-0.4,0c-0.8,0-1.6-0.3-2.1-0.9c-0.6-0.5-0.9-1.3-0.9-2.1v0c0,0,0,0,0-0.1c0-0.1,0-0.2,0-0.3
	l0,0h0c0.1-0.8,0.5-1.5,1.1-2c0.5-0.4,1.2-0.7,1.9-0.7C68.3,27.2,68.5,27.2,68.7,27.3z M91.4,36.8c0.3-0.1,0.6-0.1,0.9-0.1
	c1.1,0,2.1,0.6,2.6,1.5c0.2,0.4,0.4,0.8,0.4,1.2c0,0.1,0,0.2,0,0.4c0,1.3-0.8,2.4-1.9,2.8c-0.3,0.1-0.7,0.2-1.1,0.2
	c-0.6,0-1.1-0.2-1.5-0.4c-0.9-0.5-1.5-1.5-1.5-2.6c0-0.4,0.1-0.8,0.2-1.1C89.7,37.8,90.5,37.1,91.4,36.8z M86.4,45l-6.5,10.9
	c-0.6-0.1-1.2-0.2-1.8-0.2c-2.7,0-5,1.4-6.4,3.5l-18.6-5.5c0-1.2-0.4-2.4-0.9-3.5l12.4-12.9c1,0.5,2.2,0.8,3.5,0.8
	c2.4,0,4.6-1.1,6-2.9l10.4,4.1c0,0.2,0,0.3,0,0.5C84.4,41.7,85.2,43.6,86.4,45z M81.2,63.6c0,0.2,0,0.4-0.1,0.6v0
	c-0.2,0.9-0.8,1.7-1.6,2.1c-0.4,0.2-0.9,0.3-1.4,0.3c-1,0-1.9-0.5-2.4-1.3c-0.1-0.2-0.2-0.4-0.3-0.6c-0.2-0.4-0.3-0.8-0.3-1.2
	c0-0.3,0-0.6,0.1-0.8c0.1-0.2,0.1-0.4,0.2-0.6c0.3-0.6,0.9-1.1,1.5-1.4c0,0,0,0,0,0c0.3-0.1,0.7-0.2,1.1-0.2c0.2,0,0.5,0,0.7,0.1
	c0.2,0,0.4,0.1,0.6,0.2c0.1,0,0.2,0.1,0.2,0.1c0.8,0.5,1.3,1.3,1.4,2.3C81.2,63.3,81.2,63.4,81.2,63.6z M42.4,53.3
	c0.2-0.9,0.8-1.7,1.6-2.1c0.3-0.2,0.6-0.3,0.9-0.3c0.1,0,0.3,0,0.4,0c0.5,0,0.9,0.1,1.3,0.3c0.3,0.1,0.6,0.3,0.8,0.6
	c0.6,0.6,0.9,1.3,0.9,2.2c0,0.3,0,0.6-0.1,0.9c-0.2,0.7-0.6,1.3-1.2,1.7c0,0,0,0,0,0c-0.2,0.1-0.4,0.2-0.6,0.3
	c-0.3,0.1-0.7,0.2-1.1,0.2c-0.3,0-0.7-0.1-1-0.2c-0.6-0.2-1.1-0.6-1.5-1.1c-0.2-0.2-0.3-0.5-0.4-0.8c-0.1-0.3-0.2-0.7-0.2-1
	c0-0.1,0-0.2,0-0.4C42.3,53.5,42.3,53.4,42.4,53.3z M40.5,76.2l4.7-14.4h0.1c2.7,0,5-1.4,6.4-3.5l18.6,5.5c0,0.2,0,0.4,0,0.6
	L41.7,77.3C41.4,76.9,41,76.6,40.5,76.2z M50,15.8c1,0,2-0.2,2.8-0.6L61.5,26c-0.6,1-1,2.1-1.2,3.3c0,0.3-0.1,0.7-0.1,1
	c0,1.3,0.3,2.6,0.9,3.7L48.8,46.9c-1-0.5-2.2-0.8-3.5-0.8c-0.4,0-0.8,0-1.2,0.1l-7.4-15c1.2-1.2,2-2.8,2.3-4.6c0-0.3,0.1-0.7,0.1-1
	c0-1.2-0.3-2.3-0.7-3.3l7.9-7.4C47.3,15.4,48.6,15.8,50,15.8z M64.1,78.8c-3.1,0-5.7,1.8-7,4.4l-12.6-1.8l27.9-12.6
	c1.4,1.6,3.5,2.6,5.8,2.6c0.4,0,0.8,0,1.2-0.1l7.5,15.1c-0.6,0.5-1,1.2-1.4,1.8l-13.6-2.6C71.3,81.8,68,78.8,64.1,78.8z"/>
</svg>
