<?xml version="1.0" encoding="UTF-8"?>
<svg xmlns="http://www.w3.org/2000/svg" xmlns:xlink="http://www.w3.org/1999/xlink" width="32" height="32" viewBox="0 0 32 32" version="1.1">
<g id="surface1">
<path style=" stroke:none;fill-rule:nonzero;fill:rgb(58.039218%,59.607846%,60.784316%);fill-opacity:1;" d="M 16 1 C 11.898438 1 8.5 4.398438 8.5 8.5 L 8.5 23.5 C 8.5 27.648438 11.898438 31 16 31 C 20.101562 31 23.5 27.648438 23.5 23.5 L 23.5 8.5 C 23.5 4.398438 20.101562 1 16 1 "/>
<path style=" stroke:none;fill-rule:nonzero;fill:rgb(24.313726%,26.274511%,27.843139%);fill-opacity:1;" d="M 16 1.949219 C 12.398438 1.949219 9.449219 4.898438 9.449219 8.5 L 9.449219 23.5 C 9.449219 27.101562 12.398438 30.050781 16 30.050781 C 19.601562 30.050781 22.550781 27.101562 22.550781 23.5 L 22.550781 8.5 C 22.550781 4.898438 19.601562 1.949219 16 1.949219 "/>
<path style=" stroke:none;fill-rule:nonzero;fill:rgb(100%,90.196079%,18.039216%);fill-opacity:1;" d="M 19.75 16 C 19.703125 18.039062 18.039062 19.664062 16 19.664062 C 13.960938 19.664062 12.296875 18.039062 12.25 16 C 12.296875 13.960938 13.960938 12.335938 16 12.335938 C 18.039062 12.335938 19.703125 13.960938 19.75 16 M 19.75 16 "/>
<path style=" stroke:none;fill-rule:nonzero;fill:rgb(92.941177%,29.803923%,36.078432%);fill-opacity:1;" d="M 19.75 6.601562 C 19.75 8.671875 18.070312 10.351562 15.996094 10.351562 C 13.925781 10.351562 12.246094 8.671875 12.246094 6.601562 C 12.25 4.527344 13.929688 2.847656 16 2.851562 C 18.070312 2.851562 19.75 4.53125 19.75 6.601562 M 19.75 6.601562 "/>
<path style=" stroke:none;fill-rule:nonzero;fill:rgb(51.372552%,74.901962%,30.980393%);fill-opacity:1;" d="M 19.75 25.398438 C 19.75 27.472656 18.070312 29.148438 16 29.148438 C 13.929688 29.148438 12.25 27.46875 12.246094 25.398438 C 12.246094 23.324219 13.925781 21.644531 16 21.644531 C 18.070312 21.644531 19.75 23.324219 19.75 25.398438 M 19.75 25.398438 "/>
</g>
</svg>
