<svg role="img" viewBox="0 0 32 32" xmlns="http://www.w3.org/2000/svg"><path d="M16 1c-4.102 0-7.5 3.398-7.5 7.5v15c0 4.148 3.398 7.5 7.5 7.5s7.5-3.352 7.5-7.5v-15C23.5 4.398 20.102 1 16 1" style="stroke:none;fill-rule:nonzero;fill:rgb(58.039218%,59.607846%,60.784316%);fill-opacity:1"/><path d="M16 1.95c-3.602 0-6.55 2.948-6.55 6.55v15c0 3.602 2.948 6.55 6.55 6.55s6.55-2.948 6.55-6.55v-15c0-3.602-2.948-6.55-6.55-6.55" style="stroke:none;fill-rule:nonzero;fill:rgb(24.313726%,26.274511%,27.843139%);fill-opacity:1"/><path d="M19.75 16a3.751 3.751 0 0 1-7.5 0 3.751 3.751 0 0 1 7.5 0m0 0" style="stroke:none;fill-rule:nonzero;fill:rgb(100%,90.196079%,18.039216%);fill-opacity:1"/><path d="M19.75 6.602a3.751 3.751 0 1 1-7.502-.002 3.751 3.751 0 0 1 7.502.002m0 0" style="stroke:none;fill-rule:nonzero;fill:rgb(92.941177%,29.803923%,36.078432%);fill-opacity:1"/><path d="M19.75 25.398c0 2.075-1.68 3.75-3.75 3.75a3.751 3.751 0 1 1 3.75-3.75m0 0" style="stroke:none;fill-rule:nonzero;fill:rgb(51.372552%,74.901962%,30.980393%);fill-opacity:1"/></svg>