<?xml version="1.0" encoding="UTF-8"?>
<svg xmlns="http://www.w3.org/2000/svg" xmlns:xlink="http://www.w3.org/1999/xlink" width="32" height="32" viewBox="0 0 32 32" version="1.1">
<g id="surface1">
<path style=" stroke:none;fill-rule:nonzero;fill:rgb(0%,0%,0%);fill-opacity:1;" d="M 14 3 C 12.894531 3 12 3.894531 12 5 L 12 6 L 11.800781 6 L 5 7 L 5 8.5 L 27 8.5 L 27 7 L 20.199219 6 L 20 6 L 20 5 C 20 3.894531 19.105469 3 18 3 Z M 14 5 L 18 5 L 18 6 L 14 6 Z M 6 9.5 L 7.351562 26.160156 C 7.433594 27.199219 8.300781 28 9.34375 28 L 22.65625 28 C 23.699219 28 24.566406 27.199219 24.648438 26.160156 L 25.960938 10 Z M 12.207031 13.292969 L 16 17.085938 L 19.792969 13.292969 L 21.207031 14.707031 L 17.414062 18.5 L 21.207031 22.292969 L 19.792969 23.707031 L 16 19.914062 L 12.207031 23.707031 L 10.792969 22.292969 L 14.585938 18.5 L 10.792969 14.707031 Z M 12.207031 13.292969 "/>
</g>
</svg>
