<svg xmlns="http://www.w3.org/2000/svg"  viewBox="0 0 64 64" width="32px" height="32px"><path d="M 28 6 C 25.791 6 24 7.791 24 10 L 24 12 L 23.599609 12 L 10 14 L 10 17 L 54 17 L 54 14 L 40.400391 12 L 40 12 L 40 10 C 40 7.791 38.209 6 36 6 L 28 6 z M 28 10 L 36 10 L 36 12 L 28 12 L 28 10 z M 12 19 L 14.701172 52.322266 C 14.869172 54.399266 16.605453 56 18.689453 56 L 45.3125 56 C 47.3965 56 49.129828 54.401219 49.298828 52.324219 L 51.923828 20 L 12 19 z M 24.414062 26.585938 L 32 34.171875 L 39.585938 26.585938 L 42.414062 29.414062 L 34.828125 37 L 42.414062 44.585938 L 39.585938 47.414062 L 32 39.828125 L 24.414062 47.414062 L 21.585938 44.585938 L 29.171875 37 L 21.585938 29.414062 L 24.414062 26.585938 z"/></svg>