<?xml version="1.0" encoding="UTF-8"?>
<svg xmlns="http://www.w3.org/2000/svg" xmlns:xlink="http://www.w3.org/1999/xlink" width="32" height="32" viewBox="0 0 32 32" version="1.1">
<g id="surface1">
<path style=" stroke:none;fill-rule:nonzero;fill:rgb(0%,0%,0%);fill-opacity:1;" d="M 3.199219 1.921875 C 2.144531 1.925781 1.285156 2.78125 1.28125 3.839844 L 1.28125 11.519531 C 1.285156 12.578125 2.140625 13.433594 3.199219 13.441406 L 10.878906 13.441406 C 11.9375 13.433594 12.792969 12.578125 12.800781 11.519531 L 12.800781 3.839844 C 12.792969 2.78125 11.9375 1.925781 10.878906 1.921875 Z M 3.199219 3.199219 L 10.878906 3.199219 C 11.242188 3.199219 11.519531 3.476562 11.519531 3.839844 L 11.519531 11.519531 C 11.523438 11.691406 11.457031 11.855469 11.335938 11.976562 C 11.214844 12.097656 11.050781 12.164062 10.878906 12.160156 L 3.199219 12.160156 C 3.027344 12.164062 2.863281 12.097656 2.742188 11.976562 C 2.625 11.855469 2.554688 11.691406 2.558594 11.519531 L 2.558594 3.839844 C 2.558594 3.476562 2.839844 3.199219 3.199219 3.199219 M 7.039062 14.71875 C 6.78125 14.71875 6.546875 14.875 6.445312 15.117188 C 6.347656 15.355469 6.402344 15.628906 6.585938 15.8125 C 6.769531 15.996094 7.042969 16.050781 7.285156 15.953125 C 7.523438 15.855469 7.679688 15.621094 7.679688 15.359375 C 7.679688 15.007812 7.390625 14.71875 7.039062 14.71875 M 7.039062 17.28125 C 6.683594 17.28125 6.398438 17.566406 6.398438 17.921875 C 6.398438 18.277344 6.683594 18.5625 7.039062 18.5625 C 7.390625 18.5625 7.679688 18.277344 7.679688 17.921875 C 7.679688 17.753906 7.613281 17.589844 7.492188 17.46875 C 7.371094 17.347656 7.207031 17.28125 7.039062 17.28125 M 21.121094 18.558594 C 20.0625 18.566406 19.207031 19.421875 19.199219 20.480469 L 19.199219 28.160156 C 19.207031 29.21875 20.0625 30.074219 21.121094 30.078125 L 28.800781 30.078125 C 29.859375 30.070312 30.714844 29.214844 30.71875 28.160156 L 30.71875 20.480469 C 30.714844 19.421875 29.859375 18.566406 28.800781 18.558594 Z M 7.039062 19.839844 C 6.6875 19.839844 6.398438 20.125 6.398438 20.480469 C 6.398438 20.835938 6.6875 21.121094 7.039062 21.121094 C 7.394531 21.121094 7.679688 20.835938 7.679688 20.480469 C 7.679688 20.128906 7.394531 19.839844 7.039062 19.839844 M 21.121094 19.839844 L 28.800781 19.839844 C 29.160156 19.839844 29.441406 20.117188 29.441406 20.480469 L 29.441406 28.160156 C 29.445312 28.332031 29.378906 28.496094 29.257812 28.617188 C 29.136719 28.738281 28.972656 28.804688 28.800781 28.800781 L 21.121094 28.800781 C 20.953125 28.804688 20.785156 28.738281 20.667969 28.617188 C 20.546875 28.496094 20.480469 28.332031 20.480469 28.160156 L 20.480469 20.480469 C 20.480469 20.117188 20.757812 19.839844 21.121094 19.839844 M 7.039062 22.398438 C 6.804688 22.386719 6.578125 22.503906 6.457031 22.710938 C 6.332031 22.914062 6.332031 23.167969 6.457031 23.371094 C 6.578125 23.574219 6.804688 23.691406 7.039062 23.679688 C 7.378906 23.660156 7.644531 23.378906 7.644531 23.039062 C 7.644531 22.699219 7.378906 22.417969 7.039062 22.398438 M 7.039062 24.960938 C 6.6875 24.960938 6.402344 25.25 6.398438 25.601562 C 6.398438 25.957031 6.6875 26.242188 7.039062 26.242188 C 7.394531 26.242188 7.679688 25.957031 7.679688 25.601562 C 7.679688 25.433594 7.613281 25.269531 7.492188 25.148438 C 7.371094 25.027344 7.210938 24.960938 7.039062 24.960938 M 9.601562 24.960938 C 9.367188 24.953125 9.148438 25.070312 9.027344 25.273438 C 8.90625 25.472656 8.90625 25.722656 9.023438 25.925781 C 9.144531 26.125 9.363281 26.246094 9.597656 26.238281 C 9.941406 26.226562 10.214844 25.945312 10.214844 25.601562 C 10.214844 25.261719 9.945312 24.976562 9.601562 24.960938 M 12.160156 24.960938 C 11.925781 24.953125 11.707031 25.074219 11.585938 25.273438 C 11.464844 25.476562 11.464844 25.726562 11.585938 25.925781 C 11.707031 26.128906 11.925781 26.25 12.160156 26.238281 C 12.511719 26.238281 12.796875 25.953125 12.800781 25.601562 C 12.800781 25.433594 12.734375 25.269531 12.613281 25.148438 C 12.492188 25.03125 12.332031 24.960938 12.160156 24.960938 M 14.71875 24.960938 C 14.367188 24.960938 14.082031 25.25 14.078125 25.601562 C 14.078125 25.957031 14.367188 26.242188 14.71875 26.242188 C 15.074219 26.242188 15.359375 25.957031 15.359375 25.601562 C 15.359375 25.433594 15.292969 25.269531 15.171875 25.148438 C 15.054688 25.027344 14.890625 24.960938 14.71875 24.960938 M 17.28125 24.960938 C 17.046875 24.953125 16.828125 25.074219 16.707031 25.273438 C 16.585938 25.476562 16.585938 25.726562 16.707031 25.925781 C 16.828125 26.128906 17.046875 26.25 17.28125 26.238281 C 17.632812 26.238281 17.917969 25.953125 17.921875 25.601562 C 17.921875 25.433594 17.855469 25.269531 17.734375 25.148438 C 17.613281 25.03125 17.453125 24.960938 17.28125 24.960938 M 17.28125 24.960938 "/>
</g>
</svg>
