<svg role="img" viewBox="0 0 32 32" xmlns="http://www.w3.org/2000/svg"><path d="M3.2 1.922A1.929 1.929 0 0 0 1.281 3.84v7.68A1.93 1.93 0 0 0 3.2 13.44h7.68a1.93 1.93 0 0 0 1.92-1.92V3.84a1.93 1.93 0 0 0-1.922-1.918Zm0 1.277h7.679c.363 0 .64.278.64.64v7.68a.628.628 0 0 1-.64.641h-7.68a.631.631 0 0 1-.64-.64V3.84c0-.363.28-.64.64-.64m3.84 11.52a.641.641 0 1 0 .64.64.641.641 0 0 0-.64-.64m0 2.562a.641.641 0 0 0-.642.64.64.64 0 0 0 1.282 0 .639.639 0 0 0-.64-.64M21.12 18.56a1.93 1.93 0 0 0-1.92 1.92v7.68a1.93 1.93 0 0 0 1.922 1.918h7.68a1.93 1.93 0 0 0 1.918-1.918v-7.68a1.93 1.93 0 0 0-1.92-1.92ZM7.04 19.839a.641.641 0 1 0 0 1.283.641.641 0 0 0 0-1.282m14.082 0h7.68c.36 0 .64.278.64.641v7.68a.63.63 0 0 1-.64.64h-7.68a.629.629 0 0 1-.64-.64v-7.68c0-.363.277-.64.64-.64M7.04 22.4a.641.641 0 1 0 0 1.28.641.641 0 0 0 0-1.28m0 2.562a.641.641 0 0 0-.64.64.64.64 0 0 0 1.28 0 .639.639 0 0 0-.64-.64m2.563 0a.639.639 0 1 0-.005 1.277.639.639 0 0 0 .005-1.277m2.558 0a.639.639 0 1 0 0 1.277.64.64 0 0 0 .64-.636.64.64 0 0 0-.64-.641m2.559 0a.641.641 0 0 0-.64.64.64.64 0 0 0 1.28 0 .639.639 0 0 0-.64-.64m2.562 0a.639.639 0 1 0 0 1.277.64.64 0 0 0 .64-.636.64.64 0 0 0-.64-.641m0 0" style="stroke:none;fill-rule:nonzero;fill:rgb(0%,0%,0%);fill-opacity:1"/></svg>