<?xml version="1.0" encoding="utf-8"?>
<svg xmlns="http://www.w3.org/2000/svg" viewBox="0 0 50 50" fill="#000000"><path d="M 5 3 C 3.3550302 3 2 4.3550302 2 6 L 2 18 C 2 19.64497 3.3550302 21 5 21 L 17 21 C 18.64497 21 20 19.64497 20 18 L 20 6 C 20 4.3550302 18.64497 3 17 3 L 5 3 z M 5 5 L 17 5 C 17.56503 5 18 5.4349698 18 6 L 18 18 C 18 18.56503 17.56503 19 17 19 L 5 19 C 4.4349698 19 4 18.56503 4 18 L 4 6 C 4 5.4349698 4.4349698 5 5 5 z M 11 23 A 1 1 0 0 0 11 25 A 1 1 0 0 0 11 23 z M 11 27 A 1 1 0 0 0 11 29 A 1 1 0 0 0 11 27 z M 33 29 C 31.35503 29 30 30.35503 30 32 L 30 44 C 30 45.64497 31.35503 47 33 47 L 45 47 C 46.64497 47 48 45.64497 48 44 L 48 32 C 48 30.35503 46.64497 29 45 29 L 33 29 z M 11 31 A 1 1 0 0 0 11 33 A 1 1 0 0 0 11 31 z M 33 31 L 45 31 C 45.56503 31 46 31.43497 46 32 L 46 44 C 46 44.56503 45.56503 45 45 45 L 33 45 C 32.43497 45 32 44.56503 32 44 L 32 32 C 32 31.43497 32.43497 31 33 31 z M 11 35 A 1 1 0 0 0 11 37 A 1 1 0 0 0 11 35 z M 11 39 A 1 1 0 0 0 11 41 A 1 1 0 0 0 11 39 z M 15 39 A 1 1 0 0 0 15 41 A 1 1 0 0 0 15 39 z M 19 39 A 1 1 0 0 0 19 41 A 1 1 0 0 0 19 39 z M 23 39 A 1 1 0 0 0 23 41 A 1 1 0 0 0 23 39 z M 27 39 A 1 1 0 0 0 27 41 A 1 1 0 0 0 27 39 z" fill="#000000"/></svg>
