<svg role="img" viewBox="0 0 122.5 125" xmlns="http://www.w3.org/2000/svg"><path d="M.472 31.388v61.968l53.073 31.051L106.8 93.373V31.386L53.637.661z" style="fill:#fff"/><path d="m91.344 41.875-11.488 6.693a34.626 34.626 0 0 1-4.065 23.865c-4.147 6.994-11.342 12.485-20.82 15.893v15.649c26.878-10.306 42.716-37.348 36.373-62.1m-17.74 29.26a31.986 31.986 0 0 0 3.896-21.2L65.056 57.11c-.062 6.15-3.717 11.652-10.084 15.171v13.402c8.456-3.219 14.89-8.239 18.632-14.548m20.019-30.588c7.242 26.586-9.654 55.513-38.651 66.141v16.89L106.8 93.373V32.87Z" style="fill:#08b1d5"/><path d="M42.357 57.035 29.9 49.841a33.498 33.498 0 0 0 4.636 20.771 35.544 35.544 0 0 0 17.588 15.057V72.305a16.732 16.732 0 0 1-9.768-15.27M32.355 71.919a35.898 35.898 0 0 1-4.842-23.457l-11.564-6.677c-6.642 25.597 8.789 52.132 36.176 62.2V88.472a38.147 38.147 0 0 1-19.77-16.553M13.668 40.468.472 32.847v60.509l51.653 30.22v-16.883C23.07 96.466 6.255 67.503 13.668 40.468" style="fill:#1904da"/><path d="M72.777 23.234c-19.642-9.576-44.027-2.441-55.773 16.23l11.227 6.481c8.407-13.064 25.205-18.24 38.467-11.773A28.368 28.368 0 0 1 79.07 45.921l11.184-6.458a5.788 5.788 0 0 1-.211-.316 41.655 41.655 0 0 0-17.267-15.913m-7.194 13.224c-12.078-5.888-27.41-1.16-35.147 10.76l12.524 7.229a13.36 13.36 0 0 1 10.979-6.071 11.767 11.767 0 0 1 5.182 1.193 11.868 11.868 0 0 1 5.159 4.894l12.588-7.27a25.85 25.85 0 0 0-11.285-10.735M53.637.678l-51.9 29.973 13.06 7.54C27.21 18.374 53.065 10.792 73.89 20.948a44.15 44.15 0 0 1 18.316 16.859c.074.12.164.245.263.376l13.056-7.539Z" style="fill:#ffc900"/><path d="M62.417 56.236a10.025 10.025 0 0 0-4.385-4.383 9.116 9.116 0 0 0-7.357-.362 10.959 10.959 0 0 0-5.921 4.871 10.126 10.126 0 0 0-.022 1.173 14.95 14.95 0 0 0 7.93 12.311l.803.383.696-.372c5.062-2.833 8.077-7.323 8.27-12.32a14.72 14.72 0 0 0-.014-1.301" style="fill:#ff445f"/></svg>