<?xml version="1.0" encoding="UTF-8"?>
<svg xmlns="http://www.w3.org/2000/svg" xmlns:xlink="http://www.w3.org/1999/xlink" width="32" height="32" viewBox="0 0 32 32" version="1.1">
<g id="surface1">
<path style=" stroke:none;fill-rule:nonzero;fill:rgb(86.666667%,28.235295%,7.843138%);fill-opacity:1;" d="M 32 16 C 32 24.835938 24.835938 32 16 32 C 7.164062 32 0 24.835938 0 16 C 0 7.164062 7.164062 0 16 0 C 24.835938 0 32 7.164062 32 16 M 32 16 "/>
<path style=" stroke:none;fill-rule:nonzero;fill:rgb(100%,100%,100%);fill-opacity:1;" d="M 5.121094 13.863281 C 3.941406 13.863281 2.984375 14.820312 2.984375 16 C 2.984375 17.179688 3.941406 18.136719 5.121094 18.136719 C 6.300781 18.136719 7.257812 17.179688 7.257812 16 C 7.257812 14.820312 6.300781 13.863281 5.121094 13.863281 M 20.371094 23.5625 C 19.355469 24.15625 19.003906 25.457031 19.589844 26.480469 C 19.875 26.972656 20.339844 27.328125 20.886719 27.476562 C 21.433594 27.621094 22.019531 27.546875 22.507812 27.261719 C 23.527344 26.671875 23.878906 25.367188 23.289062 24.347656 C 22.699219 23.328125 21.394531 22.976562 20.371094 23.5625 M 9.761719 16 C 9.757812 13.96875 10.75 12.0625 12.414062 10.894531 L 10.851562 8.28125 C 8.953125 9.546875 7.589844 11.46875 7.015625 13.675781 C 7.71875 14.242188 8.125 15.097656 8.121094 16 C 8.121094 16.902344 7.714844 17.753906 7.015625 18.324219 C 7.585938 20.535156 8.953125 22.457031 10.851562 23.722656 L 12.414062 21.105469 C 10.75 19.9375 9.757812 18.03125 9.761719 16 M 16 9.761719 C 19.230469 9.761719 21.929688 12.226562 22.214844 15.445312 L 25.257812 15.402344 C 25.113281 13.125 24.132812 10.980469 22.503906 9.382812 C 21.660156 9.703125 20.71875 9.628906 19.9375 9.179688 C 19.15625 8.726562 18.621094 7.949219 18.480469 7.058594 C 16.28125 6.445312 13.933594 6.667969 11.886719 7.679688 L 13.371094 10.339844 C 14.171875 9.96875 15.070312 9.761719 16 9.761719 M 16 22.238281 C 15.09375 22.242188 14.195312 22.042969 13.371094 21.660156 L 11.886719 24.320312 C 13.933594 25.332031 16.28125 25.554688 18.480469 24.941406 C 18.625 24.050781 19.160156 23.273438 19.941406 22.824219 C 20.71875 22.371094 21.660156 22.296875 22.5 22.617188 C 24.128906 21.019531 25.113281 18.875 25.257812 16.597656 L 22.210938 16.554688 C 21.925781 19.773438 19.230469 22.238281 16 22.238281 M 20.371094 8.425781 C 20.859375 8.710938 21.445312 8.792969 21.992188 8.644531 C 22.539062 8.5 23.007812 8.140625 23.289062 7.648438 C 23.878906 6.625 23.527344 5.320312 22.507812 4.730469 C 22.019531 4.445312 21.433594 4.367188 20.886719 4.511719 C 20.335938 4.660156 19.871094 5.019531 19.589844 5.511719 C 19 6.535156 19.351562 7.839844 20.371094 8.429688 Z M 20.371094 8.425781 "/>
</g>
</svg>
