<svg xmlns="http://www.w3.org/2000/svg" width="32" height="32" stroke="none" stroke-linecap="round" stroke-linejoin="round" fill="#fff" fill-rule="nonzero"><path d="M32 16c0 8.836-7.164 16-16 16S0 24.836 0 16 7.164 0 16 0s16 7.164 16 16z" fill="#dd4814"/><path d="M5.12 13.864a2.137 2.137 0 0 0-2.137 2.137c0 1.181.956 2.136 2.137 2.136A2.137 2.137 0 0 0 7.257 16c0-1.18-.957-2.136-2.137-2.136zm15.252 9.7c-1.022.6-1.372 1.896-.782 2.917s1.895 1.372 2.917.782a2.135 2.135 0 0 0 .782-2.917c-.59-1.022-1.896-1.37-2.917-.782zM9.76 16a6.23 6.23 0 0 1 2.653-5.105l-1.56-2.615c-1.8977 1.2664-3.2636 3.1861-3.838 5.394C7.7 14.224 8.12 15.06 8.12 16s-.432 1.776-1.106 2.326c.5733 2.2087 1.9395 4.1291 3.838 5.395l1.562-2.616A6.23 6.23 0 0 1 9.761 16zM16 9.76c3.2318.0002 5.9286 2.468 6.215 5.687l3.044-.045c-.145-2.2777-1.1269-4.4215-2.757-6.019a2.99 2.99 0 0 1-2.5648-.2047c-.7804-.4514-1.3155-1.2308-1.4562-2.1213-.808-.2236-1.6426-.337-2.481-.337a9.256 9.256 0 0 0-4.113.96l1.484 2.66c.8-.372 1.7-.58 2.628-.58zm0 12.48a6.229 6.229 0 0 1-2.628-.58l-1.484 2.66c1.24.614 2.636.96 4.113.96.8378-.0002 1.6717-.1139 2.479-.338a3 3 0 0 1 1.46-2.118c.8-.47 1.75-.514 2.56-.207a9.25 9.25 0 0 0 2.757-6.019l-3.045-.045c-.2863 3.2179-2.9814 5.6852-6.212 5.687zm4.372-13.813c1.022.6 2.328.24 2.917-.78s.2392-2.3261-.78-2.918c-1.02-.6-2.328-.24-2.918.783s-.24 2.327.782 2.917z"/></svg>