<svg role="img" viewBox="0 0 48 48" xmlns="http://www.w3.org/2000/svg"><path d="M423.026 61.297a25.743 26.192 0 1 0 0 52.384 25.743 26.192 0 1 0 0-52.384" style="fill:rgb(255,255,255)" transform="translate(-299.676 -43.806)scale(.76359)"/><path d="M23.323 4.527c-10.106 0-18.327 8.22-18.327 18.326 0 10.105 8.221 18.326 18.327 18.326 10.106 0 18.326-8.221 18.326-18.326S33.429 4.527 23.323 4.527m8.341 14.8a.763.763 0 0 1-.706.472h-2.29a.766.766 0 0 1-.54-.224l-3.278-3.278v18.01a.764.764 0 0 1-.764.764H22.56a.764.764 0 0 1-.764-.764v-18.01l-3.278 3.278a.764.764 0 0 1-.54.224h-2.29a.765.765 0 0 1-.54-1.304l7.636-7.636a.764.764 0 0 1 1.08 0l7.635 7.636a.764.764 0 0 1 .166.832"/></svg>