<?xml version="1.0" encoding="UTF-8"?>
<svg xmlns="http://www.w3.org/2000/svg" xmlns:xlink="http://www.w3.org/1999/xlink" width="32" height="32" viewBox="0 0 32 32" version="1.1">
<g id="surface1">
<path style=" stroke:none;fill-rule:nonzero;fill:rgb(100%,100%,100%);fill-opacity:1;" d="M 15.5625 2 C 8.324219 2 2.457031 7.96875 2.457031 15.332031 C 2.457031 22.695312 8.324219 28.667969 15.5625 28.667969 C 22.800781 28.667969 28.667969 22.695312 28.667969 15.332031 C 28.667969 7.96875 22.800781 2 15.5625 2 "/>
<path style=" stroke:none;fill-rule:nonzero;fill:rgb(0%,0%,0%);fill-opacity:1;" d="M 15.546875 3.019531 C 8.8125 3.019531 3.332031 8.496094 3.332031 15.234375 C 3.332031 21.972656 8.8125 27.453125 15.546875 27.453125 C 22.285156 27.453125 27.765625 21.972656 27.765625 15.234375 C 27.765625 8.5 22.285156 3.019531 15.546875 3.019531 M 21.109375 12.882812 C 21.03125 13.074219 20.84375 13.199219 20.636719 13.199219 L 19.113281 13.199219 C 18.976562 13.199219 18.847656 13.144531 18.753906 13.050781 L 16.566406 10.863281 L 16.566406 22.871094 C 16.566406 23.152344 16.339844 23.378906 16.058594 23.378906 L 15.039062 23.378906 C 14.757812 23.378906 14.53125 23.152344 14.53125 22.871094 L 14.53125 10.863281 L 12.34375 13.050781 C 12.25 13.144531 12.121094 13.199219 11.984375 13.199219 L 10.457031 13.199219 C 10.253906 13.199219 10.066406 13.074219 9.988281 12.882812 C 9.910156 12.695312 9.953125 12.476562 10.097656 12.328125 L 15.1875 7.238281 C 15.386719 7.039062 15.710938 7.039062 15.910156 7.238281 L 21 12.328125 C 21.144531 12.476562 21.1875 12.695312 21.109375 12.882812 "/>
</g>
</svg>
