<svg role="img" viewBox="0 0 48 48" xmlns="http://www.w3.org/2000/svg"><path d="m24.017 46.276-.397-.184C23.421 46.004 4 36.714 4 9.022V8.29l.714-.156c6.729-1.478 10.703-3.569 13.604-5.096C20.573 1.855 22.199 1 24 1c1.8 0 3.426.855 5.682 2.038 2.901 1.527 6.874 3.618 13.604 5.096L44 8.29v.732c0 26.772-19.393 36.953-19.588 37.056z"/><path d="M423.026 61.297a25.743 26.192 0 1 0 0 52.384 25.743 26.192 0 1 0 0-52.384" style="fill:rgb(255,255,255)" transform="translate(-177.25 -21.23)scale(.47724)"/><path d="M24.623 8.978c-6.316 0-11.454 5.138-11.454 11.454 0 6.315 5.138 11.453 11.454 11.453 6.316 0 11.453-5.138 11.453-11.453 0-6.316-5.137-11.454-11.453-11.454m5.213 9.25a.477.477 0 0 1-.441.295h-1.432a.479.479 0 0 1-.337-.14l-2.049-2.049V27.59a.477.477 0 0 1-.477.477h-.955a.477.477 0 0 1-.477-.477V16.334l-2.049 2.049a.477.477 0 0 1-.337.14H19.85a.478.478 0 0 1-.337-.815l4.772-4.773a.477.477 0 0 1 .675 0l4.772 4.773a.477.477 0 0 1 .104.52"/></svg>