<?xml version="1.0" encoding="utf-8"?>
<svg viewBox="0 0 48 48" width="48" height="48" xmlns="http://www.w3.org/2000/svg">
  <path d="M 24.017 46.276 L 23.62 46.092 C 23.421 46.004 4 36.714 4 9.022 L 4 8.29 L 4.714 8.134 C 11.443 6.656 15.417 4.565 18.318 3.038 C 20.573 1.855 22.199 1 24 1 C 25.8 1 27.426 1.855 29.682 3.038 C 32.583 4.565 36.556 6.656 43.286 8.134 L 44 8.29 L 44 9.022 C 44 35.794 24.607 45.975 24.412 46.078 L 24.017 46.276 Z"/>
  <g transform="matrix(0.477245, 0, 0, 0.477245, -177.250854, -21.2295)">
    <ellipse style="fill: rgb(255, 255, 255);" cx="423.026" cy="87.489" rx="25.743" ry="26.192"/>
    <path d="M 423 63.297 C 409.766 63.297 399 74.063 399 87.297 C 399 100.53 409.766 111.297 423 111.297 C 436.235 111.297 447 100.53 447 87.297 C 447 74.063 436.235 63.297 423 63.297 Z M 433.924 82.679 C 433.77 83.053 433.405 83.297 433 83.297 L 430 83.297 C 429.735 83.297 429.481 83.191 429.293 83.004 L 425 78.711 L 425 102.297 C 425 102.849 424.553 103.297 424 103.297 L 422 103.297 C 421.448 103.297 421 102.849 421 102.297 L 421 78.711 L 416.707 83.004 C 416.52 83.191 416.266 83.297 416 83.297 L 413 83.297 C 412.596 83.297 412.231 83.053 412.077 82.679 C 411.922 82.305 412.008 81.876 412.293 81.589 L 422.293 71.589 C 422.684 71.199 423.317 71.199 423.707 71.589 L 433.707 81.589 C 433.993 81.876 434.079 82.305 433.924 82.679 Z"/>
  </g>
</svg>