<?xml version="1.0" encoding="UTF-8"?>
<svg xmlns="http://www.w3.org/2000/svg" xmlns:xlink="http://www.w3.org/1999/xlink" width="32" height="32" viewBox="0 0 32 32" version="1.1">
<g id="surface1">
<path style=" stroke:none;fill-rule:nonzero;fill:rgb(0%,0%,0%);fill-opacity:1;" d="M 16.011719 30.851562 L 15.746094 30.726562 C 15.613281 30.667969 2.667969 24.476562 2.667969 6.015625 L 2.667969 5.527344 L 3.144531 5.421875 C 7.628906 4.4375 10.277344 3.042969 12.210938 2.023438 C 13.714844 1.238281 14.800781 0.667969 16 0.667969 C 17.199219 0.667969 18.285156 1.238281 19.789062 2.023438 C 21.722656 3.042969 24.371094 4.4375 28.855469 5.421875 L 29.332031 5.527344 L 29.332031 6.015625 C 29.332031 23.863281 16.40625 30.648438 16.273438 30.71875 Z M 16.011719 30.851562 "/>
<path style=" stroke:none;fill-rule:nonzero;fill:rgb(100%,100%,100%);fill-opacity:1;" d="M 16.421875 5.347656 C 11.898438 5.347656 8.234375 9.078125 8.234375 13.683594 C 8.234375 18.285156 11.898438 22.015625 16.421875 22.015625 C 20.945312 22.015625 24.613281 18.285156 24.613281 13.683594 C 24.613281 9.078125 20.945312 5.347656 16.421875 5.347656 "/>
<path style=" stroke:none;fill-rule:nonzero;fill:rgb(0%,0%,0%);fill-opacity:1;" d="M 16.414062 5.984375 C 12.203125 5.984375 8.78125 9.410156 8.78125 13.621094 C 8.78125 17.832031 12.203125 21.257812 16.414062 21.257812 C 20.625 21.257812 24.050781 17.832031 24.050781 13.621094 C 24.050781 9.410156 20.625 5.984375 16.414062 5.984375 M 19.890625 12.152344 C 19.839844 12.269531 19.726562 12.347656 19.597656 12.347656 L 18.640625 12.347656 C 18.558594 12.347656 18.476562 12.316406 18.417969 12.253906 L 17.050781 10.890625 L 17.050781 18.394531 C 17.050781 18.570312 16.910156 18.710938 16.734375 18.710938 L 16.097656 18.710938 C 15.921875 18.710938 15.777344 18.570312 15.777344 18.394531 L 15.777344 10.890625 L 14.414062 12.253906 C 14.351562 12.316406 14.273438 12.347656 14.1875 12.347656 L 13.234375 12.347656 C 13.105469 12.347656 12.988281 12.269531 12.941406 12.152344 C 12.890625 12.03125 12.917969 11.894531 13.007812 11.804688 L 16.191406 8.625 C 16.25 8.5625 16.332031 8.53125 16.414062 8.53125 C 16.5 8.53125 16.582031 8.5625 16.640625 8.625 L 19.820312 11.804688 C 19.914062 11.894531 19.941406 12.03125 19.890625 12.152344 "/>
</g>
</svg>
