<?xml version="1.0" encoding="UTF-8"?>
<svg xmlns="http://www.w3.org/2000/svg" xmlns:xlink="http://www.w3.org/1999/xlink" width="32" height="32" viewBox="0 0 32 32" version="1.1">
<g id="surface1">
<path style=" stroke:none;fill-rule:nonzero;fill:rgb(0%,0%,0%);fill-opacity:1;" d="M 16 0 C 7.175781 0 0 7.175781 0 16 C 0 24.824219 7.175781 32 16 32 C 24.824219 32 32 24.824219 32 16 C 32 7.175781 24.824219 0 16 0 M 23.28125 12.921875 C 23.179688 13.171875 22.9375 13.332031 22.667969 13.332031 L 20.667969 13.332031 C 20.488281 13.332031 20.320312 13.261719 20.195312 13.136719 L 17.332031 10.277344 L 17.332031 26 C 17.332031 26.367188 17.035156 26.667969 16.667969 26.667969 L 15.332031 26.667969 C 14.964844 26.667969 14.667969 26.367188 14.667969 26 L 14.667969 10.277344 L 11.804688 13.136719 C 11.679688 13.261719 11.511719 13.332031 11.332031 13.332031 L 9.332031 13.332031 C 9.0625 13.332031 8.820312 13.171875 8.714844 12.921875 C 8.613281 12.671875 8.671875 12.386719 8.863281 12.195312 L 15.527344 5.527344 C 15.652344 5.402344 15.824219 5.332031 16 5.332031 C 16.175781 5.332031 16.347656 5.402344 16.472656 5.527344 L 23.136719 12.195312 C 23.328125 12.386719 23.386719 12.671875 23.28125 12.921875 "/>
</g>
</svg>
