<svg xmlns="http://www.w3.org/2000/svg"  viewBox="0 0 24 24" width="32px" height="32px"><path d="M12,0C5.3828125,0,0,5.3833008,0,12s5.3828125,12,12,12s12-5.3833008,12-12S18.6171875,0,12,0z M17.4619141,9.6914063C17.3847656,9.878418,17.2021484,10,17,10h-1.5c-0.1328125,0-0.2597656-0.0527344-0.3535156-0.1464844	L13,7.7070313V19.5c0,0.2763672-0.2236328,0.5-0.5,0.5h-1c-0.2763672,0-0.5-0.2236328-0.5-0.5V7.7070313L8.8535156,9.8535156	C8.7597656,9.9472656,8.6328125,10,8.5,10H7c-0.2021484,0-0.3847656-0.121582-0.4619141-0.3085938	S6.5039063,9.2895508,6.6464844,9.1464844l5-5c0.1953125-0.1953125,0.5117188-0.1953125,0.7070313,0l5,5	C17.4960938,9.2895508,17.5390625,9.5043945,17.4619141,9.6914063z"/></svg>