<?xml version="1.0" encoding="UTF-8"?>
<svg width="100pt" height="100pt" version="1.1" viewBox="0 0 100 100"
    xmlns="http://www.w3.org/2000/svg">
    <g>
        <path
            d="m42.422 42.285h5.7617v23.242c0 1.0156 0.82031 1.8359 1.8359 1.8359s1.8359-0.82031 1.8359-1.8359v-23.242h5.7227c1.8164 0 2.9297-1.9336 2.0312-3.4961l-7.5781-13.125c-0.89844-1.5625-3.1445-1.5625-4.043 0l-7.5781 13.125c-0.91797 1.5625 0.19531 3.5156 2.0117 3.4961z" />
        <path
            d="m75.645 49.277v15.957c0 3.6523-2.9688 6.6016-6.6016 6.6016h-38.066c-3.6523 0-6.6016-2.9688-6.6016-6.6016v-15.938h-3.6719v15.938c0 5.6641 4.6094 10.273 10.273 10.273h38.047c5.6641 0 10.273-4.6094 10.273-10.273v-15.938z" />
    </g>
</svg>
