<?xml version="1.0" encoding="UTF-8"?>
<svg xmlns="http://www.w3.org/2000/svg" xmlns:xlink="http://www.w3.org/1999/xlink" width="32" height="32" viewBox="0 0 32 32" version="1.1">
<g id="surface1">
<path style=" stroke:none;fill-rule:nonzero;fill:rgb(0%,0%,0%);fill-opacity:1;" d="M 19.796875 20.816406 C 19.703125 19.785156 19.738281 19.066406 19.738281 18.121094 C 20.207031 17.878906 21.046875 16.316406 21.183594 14.996094 C 21.550781 14.964844 22.132812 14.609375 22.300781 13.191406 C 22.390625 12.433594 22.03125 12.003906 21.808594 11.871094 C 22.40625 10.074219 23.648438 4.511719 19.511719 3.933594 C 19.085938 3.1875 17.996094 2.808594 16.578125 2.808594 C 10.914062 2.914062 10.230469 7.089844 11.472656 11.871094 C 11.25 12.003906 10.886719 12.433594 10.976562 13.191406 C 11.148438 14.609375 11.726562 14.964844 12.09375 14.996094 C 12.234375 16.316406 13.105469 17.878906 13.574219 18.121094 C 13.574219 19.066406 13.609375 19.785156 13.515625 20.816406 C 12.394531 23.832031 4.828125 22.984375 4.480469 28.800781 L 28.800781 28.800781 C 28.449219 22.984375 20.917969 23.832031 19.796875 20.816406 M 19.796875 20.816406 "/>
</g>
</svg>
