<svg role="img" viewBox="0 0 32 32" xmlns="http://www.w3.org/2000/svg"><path d="M19.797 20.816c-.094-1.03-.059-1.75-.059-2.695.469-.242 1.309-1.805 1.446-3.125.367-.031.949-.387 1.117-1.805.09-.757-.27-1.187-.492-1.32.597-1.797 1.84-7.36-2.297-7.937-.426-.747-1.516-1.125-2.934-1.125-5.664.105-6.348 4.28-5.105 9.062-.223.133-.586.563-.496 1.32.171 1.418.75 1.774 1.117 1.805.14 1.32 1.011 2.883 1.48 3.125 0 .945.035 1.664-.058 2.695-1.121 3.016-8.688 2.168-9.036 7.985H28.8c-.35-5.817-7.882-4.969-9.003-7.985m0 0" style="stroke:none;fill-rule:nonzero;fill:rgb(0%,0%,0%);fill-opacity:1"/></svg>