<?xml version="1.0"?><svg xmlns="http://www.w3.org/2000/svg"  viewBox="0 0 50 50" width="32px" height="32px">    <path d="M 4 7 C 2.346 7 1 8.346 1 10 L 1 40 C 1 41.654 2.346 43 4 43 L 46 43 C 47.654 43 49 41.654 49 40 L 49 10 C 49 8.346 47.654 7 46 7 L 4 7 z M 7 19 L 9.3378906 19 L 12.607422 28.496094 L 12.755859 28.496094 L 16 19 L 18.25 19 L 13.931641 31 L 11.361328 31 L 7 19 z M 20.5 19 L 22.5 19 L 25.658203 19 C 28.087203 19 29.75 20.572188 29.75 22.992188 C 29.75 25.370188 28.029406 27 25.566406 27 L 22.5 27 L 22.5 31 L 21.625 31 L 20.5 31 L 20.5 19 z M 32 19 L 33.871094 19 L 39.785156 27.158203 L 40 27.158203 L 40 19 L 42 19 L 42 31 L 40.136719 31 L 34.222656 22.833984 L 34 22.833984 L 34 31 L 32 31 L 32 19 z M 22.5 20.796875 L 22.5 25.220703 L 25.076172 25.220703 C 26.628172 25.220703 27.539062 24.423187 27.539062 22.992188 C 27.539062 21.520187 26.653203 20.796875 24.033203 20.796875 L 22.5 20.796875 z"/></svg>