<?xml version="1.0" encoding="UTF-8"?>
<svg xmlns="http://www.w3.org/2000/svg" xmlns:xlink="http://www.w3.org/1999/xlink" width="30.745001" height="32" viewBox="0 0 30.745001 32" version="1.1">
<g id="surface1">
<path style=" stroke:none;fill-rule:nonzero;fill:rgb(26.274511%,26.666668%,27.058825%);fill-opacity:1;" d="M 13.144531 0.3125 C 10.574219 0.3125 8.484375 2.414062 8.484375 5 L 8.484375 8.46875 L 4.917969 8.46875 C 2.378906 8.46875 0.3125 10.546875 0.3125 13.109375 L 0.3125 27.050781 C 0.3125 29.609375 2.378906 31.6875 4.917969 31.6875 L 17.664062 31.6875 C 20.210938 31.6875 22.273438 29.609375 22.273438 27.050781 L 22.273438 23.386719 L 25.769531 23.386719 C 28.34375 23.386719 30.429688 21.289062 30.429688 18.699219 L 30.429688 5 C 30.429688 2.414062 28.34375 0.3125 25.769531 0.3125 Z M 13.144531 1.457031 L 25.769531 1.457031 C 26.710938 1.453125 27.613281 1.824219 28.273438 2.492188 C 28.9375 3.15625 29.304688 4.0625 29.296875 5 L 29.296875 18.699219 C 29.296875 20.675781 27.734375 22.25 25.769531 22.25 L 21.714844 22.25 C 21.371094 22.25 21.140625 22.519531 21.140625 22.859375 L 21.140625 27.050781 C 21.148438 27.976562 20.785156 28.867188 20.132812 29.523438 C 19.480469 30.179688 18.589844 30.546875 17.664062 30.542969 L 4.917969 30.542969 C 2.988281 30.542969 1.449219 28.996094 1.449219 27.050781 L 1.449219 13.109375 C 1.449219 11.164062 2.988281 9.613281 4.917969 9.613281 L 9.015625 9.613281 C 9.4375 9.613281 9.617188 9.3125 9.617188 8.949219 L 9.617188 5 C 9.609375 4.058594 9.976562 3.15625 10.640625 2.492188 C 11.304688 1.824219 12.207031 1.453125 13.144531 1.457031 M 15.960938 7.453125 C 15.753906 7.453125 15.558594 7.535156 15.414062 7.683594 C 15.269531 7.828125 15.191406 8.023438 15.191406 8.230469 L 15.191406 15.496094 C 15.191406 15.542969 15.195312 15.585938 15.203125 15.625 C 15.113281 15.59375 15.019531 15.578125 14.925781 15.578125 L 8.230469 15.578125 C 8.007812 15.578125 7.792969 15.671875 7.636719 15.828125 C 7.480469 15.988281 7.394531 16.203125 7.398438 16.425781 L 7.398438 23.609375 C 7.398438 24.082031 7.769531 24.457031 8.230469 24.457031 L 14.925781 24.457031 C 15.152344 24.457031 15.367188 24.371094 15.527344 24.210938 C 15.683594 24.050781 15.773438 23.832031 15.769531 23.609375 L 15.769531 16.425781 C 15.769531 16.367188 15.761719 16.304688 15.75 16.246094 C 15.820312 16.265625 15.890625 16.273438 15.960938 16.277344 L 22.75 16.277344 C 23.179688 16.277344 23.523438 15.929688 23.523438 15.496094 L 23.523438 8.230469 C 23.523438 8.023438 23.441406 7.828125 23.296875 7.679688 C 23.152344 7.535156 22.957031 7.453125 22.75 7.453125 Z M 15.960938 7.453125 "/>
</g>
</svg>
