<?xml version="1.0" encoding="UTF-8"?>
<svg xmlns="http://www.w3.org/2000/svg" xmlns:xlink="http://www.w3.org/1999/xlink" width="32" height="32" viewBox="0 0 32 32" version="1.1">
<defs>
<clipPath id="clip1">
  <path d="M 5 2 L 28 2 L 28 29 L 5 29 Z M 5 2 "/>
</clipPath>
<clipPath id="clip2">
  <path d="M 0 32 L 0 0 L 32 0 L 32 32 Z M 15.359375 14.078125 C 12.191406 14.078125 9.601562 16.671875 9.601562 19.839844 C 9.601562 23.007812 12.191406 25.601562 15.359375 25.601562 C 18.527344 25.601562 21.121094 23.007812 21.121094 19.839844 C 21.121094 16.671875 18.527344 14.078125 15.359375 14.078125 "/>
</clipPath>
</defs>
<g id="surface1">
<g clip-path="url(#clip1)" clip-rule="nonzero">
<g clip-path="url(#clip2)" clip-rule="nonzero">
<path style=" stroke:none;fill-rule:nonzero;fill:rgb(0%,0%,0%);fill-opacity:1;" d="M 23.039062 28.800781 L 10.878906 28.800781 C 7.707031 28.800781 5.121094 26.21875 5.121094 23.039062 L 5.121094 17.023438 C 5.121094 15.78125 5.480469 14.648438 6.199219 13.644531 L 13.371094 3.78125 C 13.816406 3.035156 14.574219 2.558594 15.359375 2.558594 C 16.421875 2.558594 17.921875 3.472656 17.921875 5.503906 C 17.921875 6.085938 17.761719 6.476562 17.609375 6.851562 C 17.570312 6.945312 17.53125 7.039062 17.496094 7.132812 C 17.253906 7.808594 15.988281 10.671875 15.320312 12.160156 C 17.292969 12.164062 21.65625 12.175781 23.316406 12.226562 C 25.140625 12.226562 26.238281 13.460938 26.238281 14.65625 C 26.238281 15.066406 26.171875 15.625 26.117188 16.019531 C 26.679688 16.355469 27.519531 17.074219 27.519531 18.367188 C 27.519531 19.269531 27.085938 19.933594 26.671875 20.367188 C 27.09375 20.757812 27.519531 21.371094 27.519531 22.273438 C 27.519531 23.558594 26.636719 24.335938 26.003906 24.730469 C 26.160156 25.152344 26.238281 25.597656 26.238281 26.046875 C 26.238281 27.199219 25.023438 28.800781 23.039062 28.800781 "/>
</g>
</g>
<path style=" stroke:none;fill-rule:nonzero;fill:rgb(0%,0%,0%);fill-opacity:1;" d="M 15.359375 15.039062 C 12.71875 15.039062 10.558594 17.199219 10.558594 19.839844 C 10.558594 22.480469 12.71875 24.640625 15.359375 24.640625 C 18 24.640625 20.160156 22.480469 20.160156 19.839844 C 20.160156 17.199219 18 15.039062 15.359375 15.039062 M 15.839844 20.078125 L 13.726562 21.664062 L 13.152344 20.894531 L 14.878906 19.601562 L 14.878906 16.960938 L 15.839844 16.960938 Z M 15.839844 20.078125 "/>
</g>
</svg>
