<svg xmlns="http://www.w3.org/2000/svg" xmlns:xlink="http://www.w3.org/1999/xlink" viewBox="0,0,256,256" width="32px" height="32px"><defs><clipPath id="clip-1"><path d="M0,256v-256h256v256zM122.88,112.64c-25.344,0 -46.08,20.736 -46.08,46.08c0,25.344 20.736,46.08 46.08,46.08c25.344,0 46.08,-20.736 46.08,-46.08c0,-25.344 -20.736,-46.08 -46.08,-46.08z" id="overlayBgMask" fill="none"></path></clipPath></defs><g clip-path="url(#clip-1)" fill="none" fill-rule="nonzero" stroke="none" stroke-width="1" stroke-linecap="butt" stroke-linejoin="miter" stroke-miterlimit="10" stroke-dasharray="" stroke-dashoffset="0" font-family="none" font-weight="none" font-size="none" text-anchor="none" style="mix-blend-mode: normal"><g transform="scale(5.12,5.12)" fill="#000000"><path d="M36,45h-19c-4.96094,0 -9,-4.03516 -9,-9v-9.39844c0,-1.94141 0.56641,-3.71484 1.6875,-5.28125l11.20313,-15.41016c0.69922,-1.16797 1.87891,-1.91016 3.10938,-1.91016c1.66016,0 4,1.42578 4,4.60156c0,0.90625 -0.24609,1.51563 -0.48828,2.10547c-0.05859,0.14063 -0.11719,0.28516 -0.17578,0.44141c-0.375,1.05078 -2.35547,5.52734 -3.39453,7.85156c3.07813,0.00391 9.89844,0.02344 12.48828,0.10156c2.85156,0 4.57031,1.92969 4.57031,3.79688c0,0.64063 -0.10547,1.51563 -0.19531,2.13281c0.87891,0.52344 2.19531,1.64844 2.19531,3.66797c0,1.40625 -0.67578,2.44531 -1.32422,3.125c0.66016,0.60938 1.32422,1.56641 1.32422,2.97656c0,2.00781 -1.38281,3.22266 -2.37109,3.83984c0.19531,0.52344 0.37109,1.22656 0.37109,2.05859c0,1.79688 -1.90234,4.30078 -5,4.30078z"></path></g></g><g fill="#000000" fill-rule="nonzero" stroke="none" stroke-width="1" stroke-linecap="butt" stroke-linejoin="miter" stroke-miterlimit="10" stroke-dasharray="" stroke-dashoffset="0" font-family="none" font-weight="none" font-size="none" text-anchor="none" style="mix-blend-mode: normal"><g transform="translate(84.48,120.32) scale(3.84,3.84)" id="overlay"><path d="M10,0c-5.5,0 -10,4.5 -10,10c0,5.5 4.5,10 10,10c5.5,0 10,-4.5 10,-10c0,-5.5 -4.5,-10 -10,-10zM11,10.5l-4.4,3.3l-1.2,-1.6l3.6,-2.7v-5.5h2z"></path></g></g></svg>