<svg role="img" viewBox="0 0 256 256" xmlns="http://www.w3.org/2000/svg" xmlns:xlink="http://www.w3.org/1999/xlink"><defs><clipPath id="a"><path d="M0 256V0h256v256zm122.88-143.36c-25.344 0-46.08 20.736-46.08 46.08 0 25.344 20.736 46.08 46.08 46.08 25.344 0 46.08-20.736 46.08-46.08 0-25.344-20.736-46.08-46.08-46.08" fill="none"/></clipPath></defs><g clip-path="url(#a)" fill="none" font-family="none" font-size="none" font-weight="none" stroke-miterlimit="10" style="mix-blend-mode:normal" text-anchor="none"><path d="M184.32 230.4H87.04c-25.395 0-46.08-20.66-46.08-46.08v-48.118c0-9.943 2.898-19.02 8.643-27.044l57.354-78.899c3.584-5.98 9.625-9.779 15.923-9.779 8.5 0 20.48 7.301 20.48 23.562 0 4.639-1.26 7.757-2.499 10.778a64.85 64.85 0 0 0-.9 2.258c-1.92 5.38-12.063 28.303-17.383 40.202 15.764.02 50.683.118 63.944.522 14.597 0 23.398 9.882 23.398 19.436 0 3.282-.538 7.762-.998 10.92 4.5 2.684 11.238 8.444 11.238 18.786 0 7.199-3.461 12.524-6.779 16 3.38 3.123 6.779 8.023 6.779 15.242 0 10.281-7.081 16.497-12.14 19.661a30.208 30.208 0 0 1 1.9 10.537c0 9.196-9.738 22.016-25.6 22.016" fill="#000000"/></g><path d="M10 0C4.5 0 0 4.5 0 10s4.5 10 10 10 10-4.5 10-10S15.5 0 10 0m1 10.5-4.4 3.3-1.2-1.6L9 9.5V4h2z" fill="#000000" font-family="none" font-size="none" font-weight="none" style="mix-blend-mode:normal" text-anchor="none" transform="translate(84.48 120.32)scale(3.84)"/></svg>