<svg role="img" viewBox="0 0 33.975 32" xmlns="http://www.w3.org/2000/svg"><path d="m15.738 13.246-4.101 6.957c-.352.586-.524 1.063-.246 1.805.773 2.058-.317 4.058-2.368 4.601-1.937.516-3.82-.773-4.203-2.867-.343-1.851 1.082-3.668 3.102-3.96.172-.024.344-.028.629-.048l3.074-5.214c-1.934-1.942-3.086-4.215-2.832-7.032.184-1.992.957-3.71 2.371-5.12 2.711-2.7 6.848-3.138 10.04-1.067 3.062 1.992 4.468 5.87 3.273 9.187l-2.813-.77c.375-1.843.098-3.503-1.133-4.921-.812-.938-1.855-1.43-3.043-1.61-2.379-.363-4.715 1.18-5.41 3.543-.785 2.68.406 4.868 3.66 6.516m0 0" style="stroke:none;fill-rule:evenodd;fill:rgb(78.039217%,22.745098%,38.82353%);fill-opacity:1"/><path d="m19.727 10.441 2.972 5.301c5.008-1.566 8.781 1.235 10.133 4.235 1.637 3.62.52 7.914-2.691 10.148-3.297 2.293-7.47 1.902-10.387-1.047l2.289-1.937c2.887 1.89 5.41 1.8 7.281-.438 1.598-1.906 1.563-4.75-.078-6.621-1.898-2.156-4.437-2.219-7.512-.152l-3.8-6.852c-.418-.777-.875-1.226-1.813-1.39-1.566-.274-2.578-1.633-2.64-3.157-.06-1.508.82-2.867 2.19-3.398a3.395 3.395 0 0 1 3.868 1.066c.746.953.984 2.028.59 3.207-.106.328-.25.645-.402 1.035m0 0" style="stroke:none;fill-rule:evenodd;fill:rgb(29.411766%,29.411766%,29.411766%);fill-opacity:1"/><path d="M22.078 24.79h-6.023c-.578 2.398-1.828 4.339-3.977 5.57-1.672.96-3.473 1.285-5.387.972-3.53-.578-6.418-3.789-6.671-7.406-.286-4.098 2.5-7.738 6.21-8.555l.774 2.828c-3.406 1.758-4.586 3.973-3.633 6.742.84 2.434 3.223 3.77 5.813 3.254 2.644-.527 3.976-2.75 3.812-6.312l7.52.012c.98.015 1.734-.086 2.472-.961 1.215-1.434 3.45-1.305 4.758.05 1.336 1.387 1.27 3.614-.144 4.942a3.38 3.38 0 0 1-4.793-.168c-.266-.285-.47-.621-.73-.969m0 0" style="stroke:none;fill-rule:evenodd;fill:rgb(29.019609%,29.019609%,29.019609%);fill-opacity:1"/></svg>