<svg xmlns="http://www.w3.org/2000/svg" width="86" height="81" stroke="none" stroke-linecap="round"
  stroke-linejoin="round" fill="#fff" fill-rule="evenodd">
  <path
    d="M39.8355 33.5317L29.454 51.1349c-.888 1.4826-1.3275 2.6901-.618 4.5749 1.9586 5.2064-.8044 10.2729-5.9977 11.6482-4.8976 1.2974-9.6693-1.9567-10.641-7.2577-.8611-4.6922 2.7406-9.2918 7.8575-10.025.4289-.0621.8664-.0694 1.5871-.124l7.7839-13.1953c-4.8958-4.9214-7.8096-10.6745-7.1647-17.803.456-5.0392 2.4159-9.3937 5.9985-12.963C35.121-.8448 45.5888-1.9517 53.6677 3.2946c7.7594 5.0392 11.3131 14.8551 8.2839 23.2564l-7.1125-1.9508c.9513-4.6708.2477-8.8655-2.8684-12.4587-2.0588-2.3724-4.7006-3.6159-7.7048-4.0741-6.022-.9198-11.9349 2.9918-13.6893 8.9674-1.9915 6.7822 1.0224 12.3223 9.2589 16.4969h0z"
    fill="#c73a63" />
  <path
    d="M49.9331 26.4258L57.46 39.8463c12.6701-3.9629 22.2229 3.1277 25.6499 10.7191 4.1393 9.1699 1.3097 20.0309-6.82 25.6881-8.3444 5.8078-18.8972 4.8154-26.2903-2.6448l5.8007-4.9073c7.3022 4.7815 13.6887 4.5563 18.4301-1.1056 4.0432-4.8301 3.9556-12.0318-.2048-16.7607-4.8014-5.4568-11.2326-5.6232-19.0066-.385l-9.6285-17.3474c-1.0527-1.9634-2.2155-3.1023-4.5885-3.5179-3.9633-.6947-6.5223-4.1354-6.6757-7.9904-.1508-3.8124 2.0706-7.2584 5.5432-8.601 3.4396-1.3301 7.4761-.2565 9.7898 2.7 1.8909 2.4157 2.4917 5.1345 1.4969 8.1136-.2767.8305-.6352 1.6344-1.0231 2.6188h0z"
    fill="#4b4b4b" />
  <path
    d="M55.8868 62.7432H40.6341C39.1722 68.822 36.0146 73.73 30.5735 76.851c-4.2296 2.4257-8.7885 3.2482-13.6406 2.4563C7.9995 77.8507.6947 69.7205.0517 60.5653c-.728-10.3708 6.3231-19.5893 15.7217-21.66l1.9533 7.1638c-8.623 4.4477-11.6074 10.0518-9.1942 17.059 2.1247 6.1668 8.1593 9.5469 14.7118 8.2395 6.6914-1.3348 10.0652-6.9567 9.6535-15.9794l19.0368.0326c2.477.0393 4.3896-.2205 6.256-2.4283 3.0727-3.6332 8.7279-3.3055 12.037.1259 3.3817 3.5066 3.2196 9.1492-.3591 12.508-3.4528 3.2409-8.9077 3.0677-12.1378-.4243-.6641-.7199-1.1871-1.5744-1.8439-2.4589h0z"
    fill="#4a4a4a" />
</svg>
