<?xml version="1.0" encoding="UTF-8"?>
<svg xmlns="http://www.w3.org/2000/svg" xmlns:xlink="http://www.w3.org/1999/xlink" width="33.974998" height="32" viewBox="0 0 33.974998 32" version="1.1">
<g id="surface1">
<path style=" stroke:none;fill-rule:evenodd;fill:rgb(78.039217%,22.745098%,38.82353%);fill-opacity:1;" d="M 15.738281 13.246094 L 11.636719 20.203125 C 11.285156 20.789062 11.113281 21.265625 11.390625 22.007812 C 12.164062 24.066406 11.074219 26.066406 9.023438 26.609375 C 7.085938 27.125 5.203125 25.835938 4.820312 23.742188 C 4.476562 21.890625 5.902344 20.074219 7.921875 19.78125 C 8.09375 19.757812 8.265625 19.753906 8.550781 19.734375 L 11.625 14.519531 C 9.691406 12.578125 8.539062 10.304688 8.792969 7.488281 C 8.976562 5.496094 9.75 3.777344 11.164062 2.367188 C 13.875 -0.332031 18.011719 -0.769531 21.203125 1.300781 C 24.265625 3.292969 25.671875 7.171875 24.476562 10.488281 L 21.664062 9.71875 C 22.039062 7.875 21.761719 6.214844 20.53125 4.796875 C 19.71875 3.859375 18.675781 3.367188 17.488281 3.1875 C 15.109375 2.824219 12.773438 4.367188 12.078125 6.730469 C 11.292969 9.410156 12.484375 11.597656 15.738281 13.246094 M 15.738281 13.246094 "/>
<path style=" stroke:none;fill-rule:evenodd;fill:rgb(29.411766%,29.411766%,29.411766%);fill-opacity:1;" d="M 19.726562 10.441406 L 22.699219 15.742188 C 27.707031 14.175781 31.480469 16.976562 32.832031 19.976562 C 34.46875 23.597656 33.351562 27.890625 30.140625 30.125 C 26.84375 32.417969 22.671875 32.027344 19.753906 29.078125 L 22.042969 27.140625 C 24.929688 29.03125 27.453125 28.941406 29.324219 26.703125 C 30.921875 24.796875 30.886719 21.953125 29.246094 20.082031 C 27.347656 17.925781 24.808594 17.863281 21.734375 19.929688 L 17.933594 13.078125 C 17.515625 12.300781 17.058594 11.851562 16.121094 11.6875 C 14.554688 11.414062 13.542969 10.054688 13.480469 8.53125 C 13.421875 7.023438 14.300781 5.664062 15.671875 5.132812 C 17.054688 4.605469 18.621094 5.039062 19.539062 6.199219 C 20.285156 7.152344 20.523438 8.226562 20.128906 9.40625 C 20.023438 9.734375 19.878906 10.050781 19.726562 10.441406 M 19.726562 10.441406 "/>
<path style=" stroke:none;fill-rule:evenodd;fill:rgb(29.019609%,29.019609%,29.019609%);fill-opacity:1;" d="M 22.078125 24.789062 L 16.054688 24.789062 C 15.476562 27.1875 14.226562 29.128906 12.078125 30.359375 C 10.40625 31.320312 8.605469 31.644531 6.691406 31.332031 C 3.160156 30.753906 0.273438 27.542969 0.0195312 23.925781 C -0.265625 19.828125 2.519531 16.1875 6.230469 15.371094 L 7.003906 18.199219 C 3.597656 19.957031 2.417969 22.171875 3.371094 24.941406 C 4.210938 27.375 6.59375 28.710938 9.183594 28.195312 C 11.828125 27.667969 13.160156 25.445312 12.996094 21.882812 L 20.515625 21.894531 C 21.496094 21.910156 22.25 21.808594 22.988281 20.933594 C 24.203125 19.5 26.4375 19.628906 27.746094 20.984375 C 29.082031 22.371094 29.015625 24.597656 27.601562 25.925781 C 26.945312 26.542969 26.070312 26.871094 25.171875 26.839844 C 24.269531 26.808594 23.421875 26.417969 22.808594 25.757812 C 22.542969 25.472656 22.339844 25.136719 22.078125 24.789062 M 22.078125 24.789062 "/>
</g>
</svg>
