<svg role="img" viewBox="0 0 50 50" xmlns="http://www.w3.org/2000/svg"><path d="M10 0C4.484 0 0 4.484 0 10c0 5.07 3.79 9.262 8.688 9.906L5.28 23.281a1.03 1.03 0 0 0 0 1.438c.39.39 1.047.39 1.438 0L9 22.406V30H1a1 1 0 0 0-1 1v18a1 1 0 0 0 1 1h18a1 1 0 0 0 1-1V31a1 1 0 0 0-1-1h-8v-7.594l2.281 2.313c.196.195.461.281.719.281.258 0 .523-.086.719-.281a1.03 1.03 0 0 0 0-1.438l-3.406-3.375A9.987 9.987 0 0 0 19.938 11h7.656l-2.313 2.281a1.03 1.03 0 0 0 0 1.438c.196.195.461.281.719.281.258 0 .523-.086.719-.281l3.781-3.781 8.5 8.5v8.156l-2.281-2.313a1.028 1.028 0 0 0-1.438 0 1.03 1.03 0 0 0 0 1.438l3.407 3.375C33.789 30.738 30 34.93 30 40c0 5.516 4.484 10 10 10s10-4.484 10-10c0-5.07-3.79-9.262-8.687-9.906l3.406-3.375a1.03 1.03 0 0 0 0-1.438 1.028 1.028 0 0 0-1.438 0L41 27.594v-8.157l8.719-8.718a1.03 1.03 0 0 0 0-1.438l-9-9a1.028 1.028 0 0 0-1.438 0L30.5 9.063 26.719 5.28a1.028 1.028 0 0 0-1.438 0 1.03 1.03 0 0 0 0 1.438L27.594 9h-7.657c-.5-5.05-4.757-9-9.937-9"/></svg>