<?xml version="1.0" encoding="UTF-8"?>
<svg xmlns="http://www.w3.org/2000/svg" xmlns:xlink="http://www.w3.org/1999/xlink" width="32" height="32" viewBox="0 0 32 32" version="1.1">
<g id="surface1">
<path style=" stroke:none;fill-rule:nonzero;fill:rgb(0%,0%,0%);fill-opacity:1;" d="M 6.398438 0 C 2.871094 0 0 2.871094 0 6.398438 C 0 9.644531 2.425781 12.328125 5.558594 12.738281 L 3.378906 14.898438 C 3.128906 15.15625 3.128906 15.5625 3.378906 15.820312 C 3.628906 16.070312 4.050781 16.070312 4.300781 15.820312 L 5.761719 14.339844 L 5.761719 19.199219 L 0.640625 19.199219 C 0.285156 19.199219 0 19.488281 0 19.839844 L 0 31.359375 C 0 31.714844 0.285156 32 0.640625 32 L 12.160156 32 C 12.511719 32 12.800781 31.714844 12.800781 31.359375 L 12.800781 19.839844 C 12.800781 19.488281 12.511719 19.199219 12.160156 19.199219 L 7.039062 19.199219 L 7.039062 14.339844 L 8.5 15.820312 C 8.625 15.945312 8.792969 16 8.960938 16 C 9.125 16 9.292969 15.945312 9.421875 15.820312 C 9.667969 15.5625 9.667969 15.15625 9.421875 14.898438 L 7.242188 12.738281 C 10.179688 12.351562 12.464844 9.992188 12.761719 7.039062 L 17.660156 7.039062 L 16.179688 8.5 C 15.929688 8.753906 15.929688 9.164062 16.179688 9.421875 C 16.304688 9.546875 16.476562 9.601562 16.640625 9.601562 C 16.804688 9.601562 16.976562 9.546875 17.101562 9.421875 L 19.519531 7 L 24.960938 12.441406 L 24.960938 17.660156 L 23.5 16.179688 C 23.246094 15.929688 22.835938 15.929688 22.578125 16.179688 C 22.332031 16.4375 22.332031 16.84375 22.578125 17.101562 L 24.761719 19.261719 C 21.625 19.671875 19.199219 22.355469 19.199219 25.601562 C 19.199219 29.128906 22.070312 32 25.601562 32 C 29.128906 32 32 29.128906 32 25.601562 C 32 22.355469 29.574219 19.671875 26.441406 19.261719 L 28.621094 17.101562 C 28.871094 16.84375 28.871094 16.4375 28.621094 16.179688 C 28.363281 15.929688 27.957031 15.929688 27.699219 16.179688 L 26.238281 17.660156 L 26.238281 12.441406 L 31.820312 6.859375 C 32.070312 6.605469 32.070312 6.195312 31.820312 5.941406 L 26.058594 0.179688 C 25.804688 -0.0703125 25.394531 -0.0703125 25.140625 0.179688 L 19.519531 5.800781 L 17.101562 3.378906 C 16.84375 3.128906 16.4375 3.128906 16.179688 3.378906 C 15.929688 3.636719 15.929688 4.042969 16.179688 4.300781 L 17.660156 5.761719 L 12.757812 5.761719 C 12.441406 2.527344 9.714844 0 6.398438 0 "/>
</g>
</svg>
