<svg role="img" viewBox="0 0 32 32" xmlns="http://www.w3.org/2000/svg"><path d="M16 2.8c-5.59 0-10.355 3.49-12.277 8.4h-.121c-.66 0-1.204.542-1.204 1.198v7.204c0 .656.543 1.199 1.204 1.199h.12C5.646 25.71 10.41 29.199 16 29.199c5.59 0 10.355-3.488 12.277-8.398h.121c.66 0 1.204-.543 1.204-1.2v-7.203c0-.656-.543-1.199-1.204-1.199h-.12C26.354 6.29 21.59 2.801 16 2.801m0 .802a.4.4 0 0 0-.398.398.4.4 0 0 0 .398.398.4.4 0 0 0 .031-.796c5.133.011 9.508 3.148 11.383 7.597H4.586C6.46 6.742 10.852 3.602 16 3.602M13.2 4a.4.4 0 1 0 .003.8.4.4 0 0 0-.004-.8m5.6 0a.401.401 0 1 0-.002.802A.401.401 0 0 0 18.8 4M12 5.2a.401.401 0 0 0 0 .8.4.4 0 0 0 0-.8m4 0a.401.401 0 0 0 0 .8.4.4 0 0 0 0-.8m4 0a.401.401 0 0 0 0 .8.4.4 0 0 0 0-.8M8 6.8a.4.4 0 0 0 0 .802.401.401 0 0 0 0-.801m1.602 0a.401.401 0 1 0-.003.803.401.401 0 0 0 .003-.802m1.597 0a.4.4 0 1 0 .004.801.4.4 0 0 0-.004-.8m1.602 0a.401.401 0 1 0-.003.803.401.401 0 0 0 .003-.802m1.597 0a.4.4 0 1 0 .004.801.4.4 0 0 0-.004-.8M16 6.8c-.21 0-.383.16-.398.372v.027c0 .211.16.387.37.403H16a.401.401 0 0 0 0-.801m1.602 0a.401.401 0 1 0-.003.803.401.401 0 0 0 .003-.802m1.597 0a.4.4 0 1 0 .004.801.4.4 0 0 0-.004-.8m1.602 0a.401.401 0 1 0-.003.803.401.401 0 0 0 .003-.802m1.597 0a.4.4 0 1 0 .004.801.4.4 0 0 0-.004-.8M24 6.8a.4.4 0 0 0 0 .802.401.401 0 0 0 0-.801M10.398 8.399a.401.401 0 1 0 .005.802.401.401 0 0 0-.005-.802m5.602 0a.401.401 0 0 0 0 .801.4.4 0 0 0 0-.8m5.602 0a.401.401 0 1 0-.003.8.401.401 0 0 0 .003-.8M10 10a.4.4 0 0 0 0 .8.401.401 0 0 0 0-.8m6 0a.4.4 0 0 0 0 .8.401.401 0 0 0 0-.8m6 0a.4.4 0 0 0 0 .8.401.401 0 0 0 0-.8M3.602 12h24.796c.227 0 .403.172.403.398v7.204a.394.394 0 0 1-.403.398H3.602a.394.394 0 0 1-.403-.398v-7.204c0-.226.176-.398.403-.398M6 14l1.203 4h.754l.906-2.832h.043L9.82 18h.75l1.203-4h-.828l-.765 2.977h-.047L9.243 14H8.53l-.883 2.977h-.046L6.836 14Zm7.113 0 1.2 4h.757l.907-2.832h.046l.91 2.832h.755l1.199-4h-.828l-.766 2.977h-.043L16.355 14h-.71l-.883 2.977h-.047L13.949 14Zm7.114 0 1.203 4h.75l.91-2.832h.047l.91 2.832h.75L26 14h-.828l-.766 2.977h-.043L23.47 14h-.711l-.883 2.977h-.047L21.063 14Zm-7.829 3.2a.401.401 0 1 0 .005.801.401.401 0 0 0-.005-.802m7.204 0a.401.401 0 1 0-.003.8.401.401 0 0 0 .003-.8M4.586 20.8h22.828C25.54 25.259 21.148 28.399 16 28.399a.4.4 0 0 0 .398-.398.4.4 0 0 0-.398-.398.4.4 0 0 0-.031.796c-5.133-.011-9.508-3.148-11.383-7.597m5.414.4a.401.401 0 0 0 0 .8.4.4 0 0 0 0-.8m6 0a.401.401 0 0 0 0 .8.4.4 0 0 0 0-.8m6 0a.401.401 0 0 0 0 .8.4.4 0 0 0 0-.8m-11.602 1.6a.4.4 0 1 0 .004.801.4.4 0 0 0-.004-.8m5.602 0a.4.4 0 0 0 0 .802.401.401 0 0 0 0-.801m5.602 0a.401.401 0 1 0-.003.803.401.401 0 0 0 .003-.802M8 24.399a.401.401 0 0 0 0 .801.4.4 0 0 0 0-.8m1.602 0a.401.401 0 1 0-.003.8.401.401 0 0 0 .003-.8m1.597 0a.401.401 0 1 0 .005.802.401.401 0 0 0-.005-.802m1.602 0a.401.401 0 1 0-.003.8.401.401 0 0 0 .003-.8m1.597 0a.401.401 0 1 0 .005.802.401.401 0 0 0-.005-.802m1.602 0a.401.401 0 0 0-.398.375v.028a.4.4 0 0 0 .37.398H16a.4.4 0 0 0 0-.8m1.602 0a.401.401 0 1 0-.003.8.401.401 0 0 0 .003-.8m1.597 0a.401.401 0 1 0 .005.802.401.401 0 0 0-.005-.802m1.602 0a.401.401 0 1 0-.003.8.401.401 0 0 0 .003-.8m1.597 0a.401.401 0 1 0 .005.802.401.401 0 0 0-.005-.802m1.602 0a.401.401 0 0 0 0 .801.4.4 0 0 0 0-.8M12 26a.4.4 0 0 0 0 .8.401.401 0 0 0 0-.8m4 0a.4.4 0 0 0 0 .8.401.401 0 0 0 0-.8m4 0a.4.4 0 0 0 0 .8.401.401 0 0 0 0-.8m-6.8 1.2a.401.401 0 1 0 .004.801.401.401 0 0 0-.005-.802m5.6 0a.401.401 0 1 0-.003.8.401.401 0 0 0 .004-.8m0 0" style="stroke:none;fill-rule:nonzero;fill:rgb(20.392157%,59.607846%,85.882354%);fill-opacity:1"/></svg>