<?xml version="1.0" encoding="UTF-8"?>
<svg xmlns="http://www.w3.org/2000/svg" xmlns:xlink="http://www.w3.org/1999/xlink" width="32" height="32" viewBox="0 0 32 32" version="1.1">
<g id="surface1">
<path style=" stroke:none;fill-rule:nonzero;fill:rgb(20.392157%,59.607846%,85.882354%);fill-opacity:1;" d="M 16 2.800781 C 10.410156 2.800781 5.644531 6.289062 3.722656 11.199219 L 3.601562 11.199219 C 2.941406 11.199219 2.398438 11.742188 2.398438 12.398438 L 2.398438 19.601562 C 2.398438 20.257812 2.941406 20.800781 3.601562 20.800781 L 3.722656 20.800781 C 5.644531 25.710938 10.410156 29.199219 16 29.199219 C 21.589844 29.199219 26.355469 25.710938 28.277344 20.800781 L 28.398438 20.800781 C 29.058594 20.800781 29.601562 20.257812 29.601562 19.601562 L 29.601562 12.398438 C 29.601562 11.742188 29.058594 11.199219 28.398438 11.199219 L 28.277344 11.199219 C 26.355469 6.289062 21.589844 2.800781 16 2.800781 M 16 3.601562 C 15.78125 3.605469 15.601562 3.78125 15.601562 4 C 15.601562 4.21875 15.78125 4.398438 16 4.398438 C 16.207031 4.386719 16.371094 4.222656 16.378906 4.015625 C 16.386719 3.808594 16.234375 3.628906 16.03125 3.601562 C 21.164062 3.613281 25.539062 6.75 27.414062 11.199219 L 4.585938 11.199219 C 6.460938 6.742188 10.851562 3.601562 16 3.601562 M 13.199219 4 C 12.980469 4 12.800781 4.179688 12.800781 4.402344 C 12.800781 4.621094 12.980469 4.800781 13.203125 4.800781 C 13.425781 4.800781 13.601562 4.617188 13.601562 4.398438 C 13.601562 4.175781 13.417969 4 13.199219 4 M 18.800781 4 C 18.578125 4 18.398438 4.179688 18.398438 4.398438 C 18.394531 4.621094 18.574219 4.800781 18.796875 4.800781 C 19.019531 4.804688 19.199219 4.625 19.199219 4.402344 C 19.199219 4.179688 19.019531 4 18.800781 4 M 12 5.199219 C 11.789062 5.214844 11.628906 5.390625 11.628906 5.601562 C 11.628906 5.808594 11.789062 5.984375 12 6 C 12.222656 6 12.398438 5.820312 12.398438 5.601562 C 12.398438 5.378906 12.222656 5.199219 12 5.199219 M 16 5.199219 C 15.789062 5.214844 15.628906 5.390625 15.628906 5.601562 C 15.628906 5.808594 15.789062 5.984375 16 6 C 16.222656 6 16.398438 5.820312 16.398438 5.601562 C 16.398438 5.378906 16.222656 5.199219 16 5.199219 M 20 5.199219 C 19.789062 5.214844 19.628906 5.390625 19.628906 5.601562 C 19.628906 5.808594 19.789062 5.984375 20 6 C 20.222656 6 20.398438 5.820312 20.398438 5.601562 C 20.398438 5.378906 20.222656 5.199219 20 5.199219 M 8 6.800781 C 7.777344 6.800781 7.597656 6.980469 7.597656 7.199219 C 7.597656 7.421875 7.777344 7.601562 8 7.601562 C 8.214844 7.589844 8.382812 7.414062 8.382812 7.203125 C 8.382812 6.988281 8.214844 6.8125 8 6.800781 M 9.601562 6.800781 C 9.378906 6.800781 9.199219 6.980469 9.199219 7.199219 C 9.199219 7.421875 9.378906 7.601562 9.597656 7.605469 C 9.820312 7.605469 10 7.425781 10 7.203125 C 10.003906 6.984375 9.824219 6.804688 9.601562 6.800781 M 11.199219 6.800781 C 10.976562 6.804688 10.800781 6.984375 10.800781 7.203125 C 10.800781 7.425781 10.980469 7.605469 11.203125 7.601562 C 11.425781 7.601562 11.601562 7.421875 11.601562 7.199219 C 11.601562 6.980469 11.417969 6.800781 11.199219 6.804688 M 12.800781 6.804688 C 12.578125 6.800781 12.398438 6.980469 12.398438 7.203125 C 12.398438 7.425781 12.578125 7.605469 12.796875 7.605469 C 13.019531 7.605469 13.199219 7.429688 13.199219 7.207031 C 13.203125 6.984375 13.023438 6.804688 12.800781 6.804688 M 14.398438 6.804688 C 14.175781 6.804688 14 6.984375 14 7.207031 C 14 7.425781 14.179688 7.605469 14.402344 7.605469 C 14.621094 7.605469 14.800781 7.425781 14.800781 7.203125 C 14.800781 6.980469 14.617188 6.804688 14.398438 6.804688 M 16 6.800781 C 15.789062 6.800781 15.617188 6.960938 15.601562 7.171875 L 15.601562 7.199219 C 15.601562 7.410156 15.761719 7.585938 15.972656 7.601562 L 16 7.601562 C 16.214844 7.589844 16.382812 7.414062 16.382812 7.203125 C 16.382812 6.988281 16.214844 6.8125 16 6.800781 M 17.601562 6.800781 C 17.378906 6.800781 17.199219 6.980469 17.199219 7.199219 C 17.199219 7.421875 17.378906 7.601562 17.597656 7.605469 C 17.820312 7.605469 18 7.425781 18 7.203125 C 18.003906 6.984375 17.824219 6.804688 17.601562 6.800781 M 19.199219 6.800781 C 18.976562 6.804688 18.800781 6.984375 18.800781 7.203125 C 18.800781 7.425781 18.980469 7.605469 19.203125 7.601562 C 19.425781 7.601562 19.601562 7.421875 19.601562 7.199219 C 19.601562 6.980469 19.417969 6.800781 19.199219 6.804688 M 20.800781 6.804688 C 20.578125 6.800781 20.398438 6.980469 20.398438 7.203125 C 20.398438 7.425781 20.578125 7.605469 20.796875 7.605469 C 21.019531 7.605469 21.199219 7.429688 21.199219 7.207031 C 21.203125 6.984375 21.023438 6.804688 20.800781 6.804688 M 22.398438 6.804688 C 22.175781 6.804688 22 6.984375 22 7.207031 C 22 7.425781 22.179688 7.605469 22.402344 7.605469 C 22.621094 7.605469 22.800781 7.425781 22.800781 7.203125 C 22.800781 6.980469 22.617188 6.804688 22.398438 6.804688 M 24 6.800781 C 23.777344 6.800781 23.597656 6.980469 23.597656 7.199219 C 23.597656 7.421875 23.777344 7.601562 24 7.601562 C 24.214844 7.589844 24.382812 7.414062 24.382812 7.203125 C 24.382812 6.988281 24.214844 6.8125 24 6.800781 M 10.398438 8.398438 C 10.175781 8.398438 10 8.582031 10 8.800781 C 10 9.023438 10.179688 9.203125 10.402344 9.199219 C 10.625 9.199219 10.804688 9.019531 10.800781 8.796875 C 10.800781 8.574219 10.621094 8.398438 10.398438 8.398438 M 16 8.398438 C 15.785156 8.410156 15.617188 8.585938 15.617188 8.800781 C 15.617188 9.011719 15.785156 9.1875 16 9.199219 C 16.222656 9.199219 16.398438 9.019531 16.398438 8.800781 C 16.398438 8.578125 16.222656 8.398438 16 8.398438 M 21.601562 8.398438 C 21.453125 8.390625 21.308594 8.460938 21.230469 8.589844 C 21.152344 8.71875 21.152344 8.878906 21.230469 9.007812 C 21.304688 9.136719 21.449219 9.210938 21.597656 9.199219 C 21.808594 9.1875 21.972656 9.011719 21.972656 8.800781 C 21.972656 8.589844 21.8125 8.414062 21.601562 8.398438 M 10 10 C 9.777344 10 9.601562 10.179688 9.601562 10.398438 C 9.601562 10.621094 9.777344 10.800781 10 10.800781 C 10.210938 10.785156 10.371094 10.609375 10.371094 10.398438 C 10.371094 10.191406 10.210938 10.015625 10 10 M 16 10 C 15.777344 10 15.601562 10.179688 15.601562 10.398438 C 15.601562 10.621094 15.777344 10.800781 16 10.800781 C 16.210938 10.785156 16.371094 10.609375 16.371094 10.398438 C 16.371094 10.191406 16.210938 10.015625 16 10 M 22 10 C 21.777344 10 21.601562 10.179688 21.601562 10.398438 C 21.601562 10.621094 21.777344 10.800781 22 10.800781 C 22.210938 10.785156 22.371094 10.609375 22.371094 10.398438 C 22.371094 10.191406 22.210938 10.015625 22 10 M 3.601562 12 L 28.398438 12 C 28.625 12 28.800781 12.171875 28.800781 12.398438 L 28.800781 19.601562 C 28.800781 19.707031 28.761719 19.8125 28.683594 19.886719 C 28.609375 19.960938 28.503906 20.003906 28.398438 20 L 3.601562 20 C 3.496094 20.003906 3.390625 19.960938 3.316406 19.886719 C 3.238281 19.8125 3.199219 19.707031 3.199219 19.601562 L 3.199219 12.398438 C 3.199219 12.171875 3.375 12 3.601562 12 M 6 14 L 7.203125 18 L 7.957031 18 L 8.863281 15.167969 L 8.90625 15.167969 L 9.820312 18 L 10.570312 18 L 11.773438 14 L 10.945312 14 L 10.179688 16.976562 L 10.132812 16.976562 L 9.242188 14 L 8.53125 14 L 7.648438 16.976562 L 7.601562 16.976562 L 6.835938 14 Z M 13.113281 14 L 14.3125 18 L 15.070312 18 L 15.976562 15.167969 L 16.023438 15.167969 L 16.933594 18 L 17.6875 18 L 18.886719 14 L 18.058594 14 L 17.292969 16.976562 L 17.25 16.976562 L 16.355469 14 L 15.644531 14 L 14.761719 16.976562 L 14.714844 16.976562 L 13.949219 14 Z M 20.226562 14 L 21.429688 18 L 22.179688 18 L 23.089844 15.167969 L 23.136719 15.167969 L 24.046875 18 L 24.796875 18 L 26 14 L 25.171875 14 L 24.40625 16.976562 L 24.363281 16.976562 L 23.46875 14 L 22.757812 14 L 21.875 16.976562 L 21.828125 16.976562 L 21.0625 14 Z M 12.398438 17.199219 C 12.25 17.195312 12.109375 17.269531 12.035156 17.398438 C 11.960938 17.523438 11.960938 17.683594 12.039062 17.808594 C 12.113281 17.933594 12.253906 18.007812 12.402344 18 C 12.625 18 12.804688 17.820312 12.800781 17.597656 C 12.800781 17.375 12.621094 17.199219 12.398438 17.199219 M 19.601562 17.199219 C 19.453125 17.1875 19.308594 17.261719 19.230469 17.390625 C 19.152344 17.515625 19.152344 17.679688 19.230469 17.804688 C 19.304688 17.933594 19.449219 18.007812 19.597656 18 C 19.808594 17.984375 19.972656 17.8125 19.972656 17.601562 C 19.972656 17.390625 19.8125 17.214844 19.601562 17.199219 M 4.585938 20.800781 L 27.414062 20.800781 C 25.539062 25.257812 21.148438 28.398438 16 28.398438 C 16.21875 28.398438 16.398438 28.21875 16.398438 28 C 16.398438 27.78125 16.21875 27.605469 16 27.601562 C 15.792969 27.613281 15.628906 27.78125 15.621094 27.988281 C 15.613281 28.191406 15.765625 28.371094 15.96875 28.398438 C 10.835938 28.386719 6.460938 25.25 4.585938 20.800781 M 10 21.203125 C 9.789062 21.21875 9.628906 21.390625 9.628906 21.601562 C 9.628906 21.8125 9.789062 21.988281 10 22.003906 C 10.222656 22.003906 10.398438 21.824219 10.398438 21.601562 C 10.398438 21.382812 10.222656 21.203125 10 21.203125 M 16 21.203125 C 15.789062 21.21875 15.628906 21.390625 15.628906 21.601562 C 15.628906 21.8125 15.789062 21.988281 16 22.003906 C 16.222656 22.003906 16.398438 21.824219 16.398438 21.601562 C 16.398438 21.382812 16.222656 21.203125 16 21.203125 M 22 21.203125 C 21.789062 21.21875 21.628906 21.390625 21.628906 21.601562 C 21.628906 21.8125 21.789062 21.988281 22 22.003906 C 22.222656 22.003906 22.398438 21.824219 22.398438 21.601562 C 22.398438 21.382812 22.222656 21.203125 22 21.203125 M 10.398438 22.800781 C 10.175781 22.804688 10 22.984375 10 23.203125 C 10 23.425781 10.179688 23.605469 10.402344 23.601562 C 10.621094 23.601562 10.800781 23.421875 10.800781 23.199219 C 10.800781 22.980469 10.617188 22.800781 10.398438 22.804688 M 16 22.804688 C 15.777344 22.804688 15.597656 22.984375 15.597656 23.203125 C 15.597656 23.425781 15.777344 23.605469 16 23.605469 C 16.214844 23.59375 16.382812 23.417969 16.382812 23.203125 C 16.382812 22.992188 16.214844 22.816406 16 22.804688 M 21.601562 22.804688 C 21.378906 22.804688 21.199219 22.980469 21.199219 23.203125 C 21.199219 23.425781 21.378906 23.605469 21.597656 23.605469 C 21.820312 23.609375 22 23.429688 22 23.207031 C 22.003906 22.984375 21.824219 22.804688 21.601562 22.804688 M 8 24.398438 C 7.785156 24.410156 7.617188 24.585938 7.617188 24.800781 C 7.617188 25.011719 7.785156 25.1875 8 25.199219 C 8.222656 25.199219 8.398438 25.019531 8.398438 24.800781 C 8.398438 24.578125 8.222656 24.398438 8 24.398438 M 9.601562 24.398438 C 9.453125 24.390625 9.308594 24.460938 9.230469 24.589844 C 9.152344 24.71875 9.152344 24.878906 9.230469 25.007812 C 9.304688 25.136719 9.449219 25.210938 9.597656 25.199219 C 9.808594 25.1875 9.972656 25.011719 9.972656 24.800781 C 9.972656 24.589844 9.8125 24.414062 9.601562 24.398438 M 11.199219 24.398438 C 10.976562 24.402344 10.800781 24.582031 10.800781 24.804688 C 10.800781 25.023438 10.984375 25.203125 11.203125 25.203125 C 11.425781 25.199219 11.605469 25.019531 11.601562 24.796875 C 11.601562 24.578125 11.421875 24.398438 11.199219 24.398438 M 12.800781 24.398438 C 12.652344 24.390625 12.507812 24.460938 12.429688 24.589844 C 12.351562 24.71875 12.351562 24.878906 12.429688 25.007812 C 12.503906 25.136719 12.648438 25.210938 12.796875 25.199219 C 13.007812 25.1875 13.171875 25.011719 13.171875 24.800781 C 13.171875 24.589844 13.011719 24.414062 12.800781 24.398438 M 14.398438 24.398438 C 14.175781 24.402344 14 24.582031 14 24.804688 C 14 25.023438 14.179688 25.203125 14.402344 25.203125 C 14.625 25.199219 14.804688 25.019531 14.800781 24.796875 C 14.800781 24.578125 14.621094 24.398438 14.398438 24.398438 M 16 24.398438 C 15.789062 24.402344 15.617188 24.566406 15.601562 24.773438 L 15.601562 24.804688 C 15.601562 25.011719 15.761719 25.183594 15.972656 25.199219 L 16 25.199219 C 16.222656 25.199219 16.398438 25.023438 16.398438 24.800781 C 16.398438 24.582031 16.222656 24.402344 16 24.402344 M 17.601562 24.402344 C 17.453125 24.390625 17.308594 24.464844 17.230469 24.589844 C 17.152344 24.71875 17.152344 24.878906 17.230469 25.007812 C 17.304688 25.136719 17.449219 25.210938 17.597656 25.199219 C 17.808594 25.1875 17.972656 25.011719 17.972656 24.800781 C 17.972656 24.59375 17.8125 24.417969 17.601562 24.402344 M 19.199219 24.402344 C 18.976562 24.402344 18.800781 24.582031 18.800781 24.804688 C 18.800781 25.027344 18.984375 25.203125 19.203125 25.203125 C 19.425781 25.203125 19.605469 25.019531 19.601562 24.800781 C 19.601562 24.578125 19.421875 24.398438 19.199219 24.402344 M 20.800781 24.402344 C 20.652344 24.390625 20.507812 24.464844 20.429688 24.589844 C 20.351562 24.71875 20.351562 24.878906 20.429688 25.007812 C 20.503906 25.136719 20.648438 25.210938 20.796875 25.199219 C 21.007812 25.1875 21.171875 25.011719 21.171875 24.800781 C 21.171875 24.59375 21.011719 24.417969 20.800781 24.402344 M 22.398438 24.402344 C 22.175781 24.402344 22 24.582031 22 24.804688 C 22 25.027344 22.179688 25.203125 22.402344 25.203125 C 22.625 25.203125 22.804688 25.019531 22.800781 24.800781 C 22.800781 24.578125 22.621094 24.398438 22.398438 24.402344 M 24 24.402344 C 23.785156 24.410156 23.617188 24.585938 23.617188 24.800781 C 23.617188 25.015625 23.785156 25.191406 24 25.203125 C 24.222656 25.203125 24.398438 25.023438 24.398438 24.800781 C 24.398438 24.582031 24.222656 24.402344 24 24.402344 M 12 26 C 11.777344 26 11.601562 26.179688 11.601562 26.398438 C 11.601562 26.621094 11.777344 26.800781 12 26.800781 C 12.210938 26.785156 12.371094 26.609375 12.371094 26.398438 C 12.371094 26.191406 12.210938 26.015625 12 26 M 16 26 C 15.777344 26 15.601562 26.179688 15.601562 26.398438 C 15.601562 26.621094 15.777344 26.800781 16 26.800781 C 16.210938 26.785156 16.371094 26.609375 16.371094 26.398438 C 16.371094 26.191406 16.210938 26.015625 16 26 M 20 26 C 19.777344 26 19.601562 26.179688 19.601562 26.398438 C 19.601562 26.621094 19.777344 26.800781 20 26.800781 C 20.210938 26.785156 20.371094 26.609375 20.371094 26.398438 C 20.371094 26.191406 20.210938 26.015625 20 26 M 13.199219 27.199219 C 13.050781 27.195312 12.914062 27.269531 12.835938 27.394531 C 12.761719 27.523438 12.761719 27.683594 12.839844 27.808594 C 12.914062 27.933594 13.054688 28.007812 13.203125 28 C 13.425781 28 13.605469 27.820312 13.601562 27.597656 C 13.601562 27.375 13.421875 27.199219 13.199219 27.199219 M 18.800781 27.199219 C 18.648438 27.1875 18.507812 27.261719 18.425781 27.390625 C 18.347656 27.515625 18.347656 27.679688 18.425781 27.804688 C 18.503906 27.933594 18.644531 28.007812 18.796875 28 C 19.007812 27.984375 19.167969 27.8125 19.171875 27.601562 C 19.171875 27.390625 19.011719 27.214844 18.800781 27.199219 M 18.800781 27.199219 "/>
</g>
</svg>
