<svg role="img" viewBox="0 0 23.04 32" xmlns="http://www.w3.org/2000/svg" xmlns:xlink="http://www.w3.org/1999/xlink"><defs><linearGradient gradientTransform="matrix(1 0 0 -1 0 102)" gradientUnits="userSpaceOnUse" id="a" x1="36.108" x2="36.108" y1="3.003" y2="101.001"><stop offset="0" style="stop-color:rgb(78.431374%,83.137256%,85.882354%);stop-opacity:1"/><stop offset=".139" style="stop-color:rgb(84.705883%,88.235295%,90.196079%);stop-opacity:1"/><stop offset=".359" style="stop-color:rgb(92.156863%,94.117647%,95.294118%);stop-opacity:1"/><stop offset=".617" style="stop-color:rgb(97.647059%,98.039216%,98.431373%);stop-opacity:1"/><stop offset="1" style="stop-color:rgb(100%,100%,100%);stop-opacity:1"/></linearGradient><linearGradient gradientTransform="matrix(.32 0 0 .32 0 .64)" gradientUnits="userSpaceOnUse" id="b" x1="13.15" x2="54.15" y1="22" y2="22"><stop offset="0" style="stop-color:rgb(44.705883%,56.862748%,63.137257%);stop-opacity:1"/><stop offset="1" style="stop-color:rgb(79.215688%,83.529413%,85.882354%);stop-opacity:1"/></linearGradient><linearGradient gradientTransform="matrix(.32 0 0 .32 0 .64)" gradientUnits="userSpaceOnUse" id="c" x1="19.15" x2="60.15" y1="33.75" y2="33.75"><stop offset="0" style="stop-color:rgb(44.705883%,56.862748%,63.137257%);stop-opacity:1"/><stop offset="1" style="stop-color:rgb(79.215688%,83.529413%,85.882354%);stop-opacity:1"/></linearGradient><linearGradient gradientTransform="matrix(.32 0 0 .32 0 .64)" gradientUnits="userSpaceOnUse" id="d" x1="13.15" x2="54.15" y1="45.75" y2="45.75"><stop offset="0" style="stop-color:rgb(44.705883%,56.862748%,63.137257%);stop-opacity:1"/><stop offset="1" style="stop-color:rgb(79.215688%,83.529413%,85.882354%);stop-opacity:1"/></linearGradient><linearGradient gradientTransform="matrix(.32 0 0 .32 0 .64)" gradientUnits="userSpaceOnUse" id="e" x1="19.15" x2="60.15" y1="58" y2="58"><stop offset="0" style="stop-color:rgb(44.705883%,56.862748%,63.137257%);stop-opacity:1"/><stop offset="1" style="stop-color:rgb(79.215688%,83.529413%,85.882354%);stop-opacity:1"/></linearGradient><linearGradient gradientTransform="matrix(1 0 0 -1 0 102)" gradientUnits="userSpaceOnUse" id="f" x1="45.122" x2="58.575" y1="74.229" y2="87.683"><stop offset="0" style="stop-color:rgb(100%,100%,100%);stop-opacity:1"/><stop offset=".35" style="stop-color:rgb(98.039216%,98.431373%,98.431373%);stop-opacity:1"/><stop offset=".532" style="stop-color:rgb(92.941177%,94.509804%,95.686275%);stop-opacity:1"/><stop offset=".675" style="stop-color:rgb(86.666667%,89.803922%,91.37255%);stop-opacity:1"/><stop offset=".799" style="stop-color:rgb(78.039217%,82.745099%,85.490197%);stop-opacity:1"/><stop offset=".908" style="stop-color:rgb(67.843139%,74.117649%,78.039217%);stop-opacity:1"/><stop offset="1" style="stop-color:rgb(57.254905%,64.705884%,69.01961%);stop-opacity:1"/></linearGradient></defs><path d="m45.105 1.001 26.892 26.697v71.301H.195V1.001Zm0 0" style="fill-rule:nonzero;fill:url(#a);stroke-width:2;stroke-linecap:butt;stroke-linejoin:miter;stroke:rgb(44.313726%,56.862748%,63.137257%);stroke-opacity:1;stroke-miterlimit:4" transform="scale(.32)"/><path d="M3.871 29.152V27.04l-1.855-2.91H3.23l1.184 1.984 1.188-1.984h1.183L4.93 27.04v2.113Zm7.328 0h-1.12L9.632 28H7.617L7.2 29.152H6.113l1.985-5.023h1.086Zm-1.886-2.015-.704-1.856-.671 1.856Zm2.43 2.015v-5.054h1.538l.926 3.422.898-3.422h1.536v5.023h-.961v-3.937l-.992 3.968h-.993l-.992-3.968v3.968Zm5.921 0V24.13h1.023v4.16h2.56v.863Zm0 0" style="stroke:none;fill-rule:nonzero;fill:rgb(29.803923%,42.352942%,48.235294%);fill-opacity:1"/><path d="M4.191 7.04h13.122v1.28H4.19Zm0 0" style="stroke:none;fill-rule:nonzero;fill:url(#b)"/><path d="M6.113 10.785H19.23v1.313H6.113Zm0 0" style="stroke:none;fill-rule:nonzero;fill:url(#c)"/><path d="M4.191 14.625h13.122v1.313H4.19Zm0 0" style="stroke:none;fill-rule:nonzero;fill:url(#d)"/><path d="M6.113 18.559H19.23v1.28H6.113Zm0 0" style="stroke:none;fill-rule:nonzero;fill:url(#e)"/><path d="m45.105 1.001 26.892 26.697H45.105Zm0 0" style="fill-rule:nonzero;fill:url(#f);stroke-width:2;stroke-linecap:butt;stroke-linejoin:bevel;stroke:rgb(44.313726%,56.862748%,63.137257%);stroke-opacity:1;stroke-miterlimit:4" transform="scale(.32)"/></svg>