<?xml version="1.0" encoding="UTF-8"?>
<svg xmlns="http://www.w3.org/2000/svg" xmlns:xlink="http://www.w3.org/1999/xlink" width="32" height="32" viewBox="0 0 32 32" version="1.1">
<defs>
<linearGradient id="linear0" gradientUnits="userSpaceOnUse" x1="0.5" y1="0" x2="0.5" y2="1" gradientTransform="matrix(32,0,0,32,0,0)">
<stop offset="0" style="stop-color:rgb(14.117648%,67.843139%,100%);stop-opacity:1;"/>
<stop offset="1" style="stop-color:rgb(48.235294%,44.313726%,100%);stop-opacity:1;"/>
</linearGradient>
</defs>
<g id="surface1">
<path style=" stroke:none;fill-rule:nonzero;fill:url(#linear0);" d="M 16 0 C 24.835938 0 32 7.164062 32 16 C 32 24.835938 24.835938 32 16 32 C 7.164062 32 0 24.835938 0 16 C 0 7.164062 7.164062 0 16 0 M 15.210938 14.777344 L 9.472656 19.898438 C 8.882812 20.363281 8.496094 21.132812 8.496094 21.996094 C 8.496094 23.40625 9.527344 24.558594 10.792969 24.558594 L 21.574219 24.558594 C 22.835938 24.558594 23.871094 23.40625 23.871094 21.996094 C 23.871094 20.585938 22.835938 19.433594 21.574219 19.433594 L 13.414062 19.433594 C 13.292969 19.433594 13.214844 19.289062 13.273438 19.167969 L 15.378906 14.957031 C 15.453125 14.832031 15.316406 14.6875 15.210938 14.777344 M 21.574219 7.421875 L 10.792969 7.421875 C 9.527344 7.421875 8.496094 8.574219 8.496094 9.984375 C 8.496094 11.394531 9.527344 12.546875 10.792969 12.546875 L 18.953125 12.546875 C 19.074219 12.546875 19.152344 12.691406 19.09375 12.808594 L 16.988281 17.023438 C 16.910156 17.144531 17.050781 17.292969 17.15625 17.203125 L 22.894531 12.078125 C 23.484375 11.613281 23.871094 10.847656 23.871094 9.984375 C 23.871094 8.574219 22.839844 7.417969 21.574219 7.421875 "/>
</g>
</svg>
