<svg id="Слой_1" data-name="Слой 1" xmlns="http://www.w3.org/2000/svg" viewBox="0 0 617.9 170.6"><defs><style>.cls-1{fill:#326ce5;}.cls-2{fill:none;}</style></defs><path class="cls-1" d="M144.05,6.41,189.59,85.3l-45.54,78.89H53L7.41,85.3,53,6.41ZM147.75,0H49.25L0,85.3l49.25,85.3h98.5L197,85.3ZM99.89,42.58h11.74V56.16H99.89Zm-13.24,0H97.71V56.16H86.65Zm-42.27-3L80,47.38v2L32.29,60.48,18,85.3l40.27,70.79H61.5c2.45-1.85,7.86-7.32,12.28-13.63s6.54-9.77,9.68-11.63a8.23,8.23,0,0,1,3.18-1.28l.1,0v0A8.28,8.28,0,0,1,96.09,135a6.24,6.24,0,0,0-7.3,1c-3.94,3.68-1.66,10.13-1.66,10.13a9.88,9.88,0,0,0,.49,1.25c-2.15,2.61-7.66,7-10,8.66h2.53C82.91,154,90.81,147.77,96,140.36s7.55-11.28,11.18-13.43a9.55,9.55,0,0,1,3.67-1.47l.11,0v0a10,10,0,0,1,1.66-.17,9.7,9.7,0,0,1,9.14,6.48,7.19,7.19,0,0,0-8.42,1.2c-4.55,4.25-1.92,11.7-1.92,11.7a7.92,7.92,0,0,0,1.41,2.83c-2.06,2.56-7.53,7-9.9,8.6h2.48c2.18-1.67,8-6.33,11.55-11.42,3.73-5.32,5.5-8.21,8.14-9.78a7.11,7.11,0,0,1,2.67-1.07l.08,0h0a6.78,6.78,0,0,1,1.2-.12,7.08,7.08,0,0,1,6.66,4.72,5.23,5.23,0,0,0-6.13.87c-3.31,3.09-1.4,8.52-1.4,8.52a5.64,5.64,0,0,0,1,2.06l0,0c.43.71,2.26,4.48,6.05,6.21h3.55L179,85.31l-14.42-25L117.8,49.48v-2l34.94-7.69-14-24.19H58.23M84.92,63.67v-21H81.68l17.5-14,17.5,14h-3.24v21h11s-5.8,8.25-5.8,17.81h-39c0-9.56-5.8-17.81-5.8-17.81ZM106.08,85.3,77.5,101.8l2-16.5ZM74,131.83,76,114.38,118.43,89.8l1.8,15.22Zm36.31-9.36v-2.2l12-6.91,1.64,13.88c-4.12-6.49-13.61-4.77-13.61-4.77m133.38-70.4a21.37,21.37,0,0,1,5.11.51,24.12,24.12,0,0,1,3.41,1.1l-1.91,8.6a10.19,10.19,0,0,0-2.61-.73,18.78,18.78,0,0,0-2.9-.22,8.93,8.93,0,0,0-3.35.55,5.24,5.24,0,0,0-2.13,1.51,5.77,5.77,0,0,0-1.1,2.28,11.75,11.75,0,0,0-.33,2.86v1.91h13.53v9.12H237.83v29.55h-11V68.39q0-7.5,4.22-11.91t12.54-4.41m29.55,57.78a27.56,27.56,0,0,1-7.75-1,11.41,11.41,0,0,1-4.71-2.69,8.81,8.81,0,0,1-2.35-4.19,22.41,22.41,0,0,1-.63-5.55V53.83l11-1.76V94.19a14.26,14.26,0,0,0,.22,2.65,4.68,4.68,0,0,0,.84,2,4.49,4.49,0,0,0,1.8,1.32,9.8,9.8,0,0,0,3.17.66Zm24-40.44a25.23,25.23,0,0,1,8.09,1.11,12.61,12.61,0,0,1,5.18,3.16,11.61,11.61,0,0,1,2.76,5,24.6,24.6,0,0,1,.81,6.54V108l-6.55,1.21a62.25,62.25,0,0,1-10.14.7,32.21,32.21,0,0,1-6.8-.66,14.8,14.8,0,0,1-5.26-2.17,10,10,0,0,1-3.38-3.93,13.53,13.53,0,0,1-1.18-6,11.35,11.35,0,0,1,1.36-5.73,10.47,10.47,0,0,1,3.64-3.75,16.1,16.1,0,0,1,5.22-2,29,29,0,0,1,6.1-.63l3.79.19a17.25,17.25,0,0,1,2.68.47v-1a6,6,0,0,0-1.69-4.48q-1.69-1.69-5.88-1.69a36.3,36.3,0,0,0-5.51.41,23.61,23.61,0,0,0-4.71,1.13l-1.4-8.82,2.4-.63,3.12-.58,3.57-.44,3.78-.19m.88,32.06,3.09-.08,2.35-.22v-8.3a19.76,19.76,0,0,0-2-.3l-2.43-.15a22,22,0,0,0-2.9.19,7.61,7.61,0,0,0-2.39.69,4.1,4.1,0,0,0-1.62,1.4,3.91,3.91,0,0,0-.59,2.21,3.75,3.75,0,0,0,1.73,3.56,9.55,9.55,0,0,0,4.74,1m25-29.71a61.78,61.78,0,0,1,7.2-1.5,59.88,59.88,0,0,1,9.26-.7,22.5,22.5,0,0,1,8.2,1.29,12.24,12.24,0,0,1,5.19,3.64,14.12,14.12,0,0,1,2.71,5.58,29.73,29.73,0,0,1,.81,7.21v21.83H345.5V88.6q0-5.3-1.4-7.5c-.93-1.46-2.67-2.2-5.22-2.2l-2.5.11-2.35.26v29.84H323.08V71.76Zm53.75,12.57,3.35-3.65,3.34-3.77,3.05-3.54L389,70.44h13L394.44,79l-8.12,8.4a50.11,50.11,0,0,1,4.56,4.75l4.56,5.71,4,5.89,3.09,5.37H390l-2.68-4.24-3.19-4.64-3.56-4.46a30.31,30.31,0,0,0-3.7-3.61v17h-11V53.83l11-1.76V84.33Zm42.38,21.4a14.89,14.89,0,0,0,6.79-1.36,4.74,4.74,0,0,0,2.69-4.59,6.64,6.64,0,0,0-.48-2.65,5.07,5.07,0,0,0-1.58-2,13.62,13.62,0,0,0-2.9-1.7l-4.45-1.91-4-1.8a16.76,16.76,0,0,1-3.38-2.13,9.34,9.34,0,0,1-2.35-2.91,8.76,8.76,0,0,1-.88-4.11,9.26,9.26,0,0,1,3.49-7.5q3.5-2.86,9.6-2.87a26.14,26.14,0,0,1,6.43.66,20.75,20.75,0,0,1,3.57,1.18l-1.11,4.26a30.55,30.55,0,0,0-3-1.17,19.61,19.61,0,0,0-6.15-.74,13.49,13.49,0,0,0-3,.33,8.17,8.17,0,0,0-2.54,1,5.44,5.44,0,0,0-1.77,1.77,5,5,0,0,0-.66,2.61,5.6,5.6,0,0,0,.59,2.65,5.79,5.79,0,0,0,1.73,2,15,15,0,0,0,2.79,1.58L422.37,88l4.22,1.8a15.46,15.46,0,0,1,3.57,2.2,10.07,10.07,0,0,1,2.5,3.08,9.57,9.57,0,0,1,.95,4.52,8.85,8.85,0,0,1-3.85,7.8Q425.89,110,419.21,110a26.68,26.68,0,0,1-7.65-.84L408,107.86l1.25-4.34a8.06,8.06,0,0,0,1,.48,20.35,20.35,0,0,0,2,.74,22.38,22.38,0,0,0,3,.7,24.85,24.85,0,0,0,4,.29m55-15.59A24.51,24.51,0,0,1,473,98.3a18.16,18.16,0,0,1-3.6,6.25,16.42,16.42,0,0,1-5.48,4,17.77,17.77,0,0,1-14,0,16.28,16.28,0,0,1-5.47-4,17.94,17.94,0,0,1-3.6-6.25,26.42,26.42,0,0,1,0-16.31,18.31,18.31,0,0,1,3.6-6.29,16,16,0,0,1,5.47-4,17.66,17.66,0,0,1,14,0,16.17,16.17,0,0,1,5.48,4A18.63,18.63,0,0,1,473,82a24.7,24.7,0,0,1,1.29,8.15m-5.08,0q0-7.12-3.3-11.35a11.63,11.63,0,0,0-17.94,0q-3.31,4.23-3.31,11.35t3.31,11.33a11.7,11.7,0,0,0,17.94,0q3.3-4.2,3.3-11.33m44.21,17.65-5.73,1.32a45,45,0,0,1-8.82.74,18,18,0,0,1-7.14-1.25,11.58,11.58,0,0,1-4.63-3.53,14.39,14.39,0,0,1-2.53-5.52,30.36,30.36,0,0,1-.78-7.13V71.1h4.78V90.88a34.06,34.06,0,0,0,.59,6.84,11.11,11.11,0,0,0,1.91,4.52,7.54,7.54,0,0,0,3.42,2.5,15,15,0,0,0,5.11.77,40.22,40.22,0,0,0,5.88-.37,16.63,16.63,0,0,0,3.16-.66V71.1h4.78v36.69m25.83-37.42a25.28,25.28,0,0,1,4.45.37,13.8,13.8,0,0,1,2.9.73l-.95,4.12a10.46,10.46,0,0,0-2.39-.63,27.52,27.52,0,0,0-4.75-.33,22.75,22.75,0,0,0-5,.44,14.52,14.52,0,0,0-2.46.74v33.3h-4.78V72.87a35.84,35.84,0,0,1,5.07-1.66,31.76,31.76,0,0,1,7.87-.84m30.73,39.55a20.28,20.28,0,0,1-7.79-1.4,14.73,14.73,0,0,1-5.63-4,18.25,18.25,0,0,1-3.42-6.25,26.22,26.22,0,0,1-1.17-8,25.89,25.89,0,0,1,1.21-8.16,18.5,18.5,0,0,1,3.49-6.33,15.39,15.39,0,0,1,5.52-4.07,17.68,17.68,0,0,1,7.28-1.44,31,31,0,0,1,5.77.51,14.76,14.76,0,0,1,4.15,1.33l-1.25,4.12A15.15,15.15,0,0,0,574.79,75a22.16,22.16,0,0,0-4.92-.44q-6.33,0-9.6,4.08T557,90.22a24.72,24.72,0,0,0,.73,6.21,12.54,12.54,0,0,0,2.39,4.85,11.23,11.23,0,0,0,4.27,3.16,15.86,15.86,0,0,0,6.36,1.14,16.42,16.42,0,0,0,5.18-.7,20.22,20.22,0,0,0,3.05-1.21l1,4.12a18.22,18.22,0,0,1-4.15,1.43,24.42,24.42,0,0,1-5.92.7m16-19.85a24.24,24.24,0,0,1,1.43-8.71,19.31,19.31,0,0,1,3.75-6.21,14.63,14.63,0,0,1,5.3-3.71,16.12,16.12,0,0,1,6.14-1.22q7,0,11.13,4.56t4.16,14l0,1.18-.11,1.1H591.06q.23,7,3.46,10.73t10.29,3.75a20.85,20.85,0,0,0,6.18-.73l3.3-1.25.89,4.11a19.63,19.63,0,0,1-3.86,1.4,24.38,24.38,0,0,1-6.66.81,22.11,22.11,0,0,1-8.52-1.47,15.16,15.16,0,0,1-5.81-4.12A16.31,16.31,0,0,1,587,98.05a29.14,29.14,0,0,1-1-8m27-3q-.15-6-2.79-9.27a9.06,9.06,0,0,0-7.5-3.3,10,10,0,0,0-4.6,1,11.46,11.46,0,0,0-3.52,2.75,13,13,0,0,0-2.36,4,16.61,16.61,0,0,0-1,4.78Z"/><rect class="cls-2" x="-961.59" y="-454.7" width="1920" height="1080"/></svg>