<?xml version="1.0" encoding="UTF-8"?>
<svg xmlns="http://www.w3.org/2000/svg" xmlns:xlink="http://www.w3.org/1999/xlink" width="32" height="32" viewBox="0 0 32 32" version="1.1">
<g id="surface1">
<path style=" stroke:none;fill-rule:nonzero;fill:rgb(19.607843%,42.352942%,89.803922%);fill-opacity:1;" d="M 15.972656 19.492188 C 16.234375 19.480469 16.476562 19.621094 16.601562 19.851562 L 16.617188 19.851562 L 18.597656 23.425781 C 18.335938 23.511719 18.074219 23.585938 17.804688 23.644531 C 16.351562 23.980469 14.832031 23.902344 13.421875 23.417969 L 15.390625 19.851562 L 15.394531 19.851562 C 15.511719 19.636719 15.730469 19.5 15.972656 19.492188 Z M 12.585938 17.84375 C 12.8125 17.847656 13.023438 17.964844 13.148438 18.15625 C 13.273438 18.347656 13.292969 18.589844 13.203125 18.800781 L 13.214844 18.8125 L 11.660156 22.570312 C 10.167969 21.617188 9.035156 20.195312 8.433594 18.527344 L 12.445312 17.847656 L 12.453125 17.855469 C 12.496094 17.847656 12.539062 17.84375 12.585938 17.84375 Z M 19.382812 17.828125 C 19.433594 17.824219 19.488281 17.832031 19.539062 17.839844 L 19.546875 17.832031 L 23.59375 18.515625 C 22.996094 20.195312 21.855469 21.625 20.355469 22.585938 L 18.78125 18.792969 L 18.789062 18.785156 C 18.699219 18.578125 18.71875 18.34375 18.835938 18.152344 C 18.953125 17.960938 19.160156 17.839844 19.382812 17.828125 Z M 15.375 14.503906 L 16.625 14.503906 L 17.402344 15.476562 L 17.121094 16.6875 L 16 17.226562 L 14.875 16.6875 L 14.59375 15.472656 Z M 22.847656 11.566406 C 23.777344 13.078125 24.1875 14.851562 24.019531 16.617188 L 20.085938 15.484375 L 20.082031 15.46875 C 19.839844 15.398438 19.652344 15.203125 19.597656 14.957031 C 19.539062 14.710938 19.625 14.457031 19.8125 14.289062 L 19.8125 14.28125 Z M 9.128906 11.566406 L 12.179688 14.292969 L 12.179688 14.308594 C 12.367188 14.476562 12.453125 14.734375 12.394531 14.980469 C 12.339844 15.226562 12.152344 15.421875 11.90625 15.488281 L 11.90625 15.5 L 7.992188 16.628906 C 7.796875 14.863281 8.199219 13.078125 9.128906 11.5625 Z M 16.972656 7.796875 C 18.730469 8.015625 20.367188 8.804688 21.628906 10.042969 L 18.308594 12.398438 L 18.296875 12.390625 C 18.09375 12.539062 17.824219 12.566406 17.59375 12.457031 C 17.367188 12.347656 17.21875 12.121094 17.207031 11.867188 L 17.203125 11.867188 Z M 15.027344 7.796875 L 14.796875 11.875 L 14.777344 11.882812 C 14.769531 12.132812 14.621094 12.359375 14.390625 12.46875 C 14.164062 12.578125 13.894531 12.554688 13.691406 12.40625 L 13.683594 12.410156 L 10.339844 10.039062 C 11.40625 8.996094 12.742188 8.265625 14.199219 7.941406 C 14.472656 7.878906 14.746094 7.832031 15.027344 7.796875 Z M 16 1.769531 C 15.570312 1.769531 15.222656 2.15625 15.222656 2.632812 C 15.222656 2.640625 15.222656 2.648438 15.222656 2.65625 C 15.222656 2.71875 15.222656 2.796875 15.222656 2.851562 C 15.234375 3.128906 15.292969 3.339844 15.328125 3.59375 C 15.394531 4.136719 15.449219 4.585938 15.414062 5.003906 C 15.382812 5.160156 15.265625 5.304688 15.160156 5.402344 L 15.144531 5.734375 C 14.671875 5.773438 14.203125 5.84375 13.738281 5.949219 C 11.792969 6.386719 10.027344 7.398438 8.660156 8.851562 C 8.574219 8.792969 8.425781 8.683594 8.378906 8.652344 C 8.242188 8.667969 8.101562 8.710938 7.917969 8.605469 C 7.570312 8.371094 7.253906 8.046875 6.871094 7.660156 C 6.695312 7.472656 6.566406 7.296875 6.359375 7.117188 C 6.3125 7.074219 6.238281 7.019531 6.1875 6.976562 C 6.03125 6.855469 5.84375 6.78125 5.644531 6.773438 C 5.40625 6.761719 5.175781 6.863281 5.023438 7.046875 C 4.757812 7.382812 4.84375 7.894531 5.214844 8.195312 C 5.21875 8.195312 5.222656 8.199219 5.226562 8.203125 C 5.28125 8.242188 5.339844 8.296875 5.386719 8.332031 C 5.609375 8.496094 5.8125 8.578125 6.03125 8.707031 C 6.496094 8.996094 6.882812 9.234375 7.1875 9.523438 C 7.308594 9.648438 7.328125 9.875 7.34375 9.96875 L 7.59375 10.191406 C 6.21875 12.253906 5.65625 14.75 6.007812 17.203125 L 5.683594 17.296875 C 5.597656 17.40625 5.476562 17.582031 5.351562 17.632812 C 4.949219 17.757812 4.5 17.804688 3.957031 17.863281 C 3.703125 17.882812 3.480469 17.871094 3.210938 17.921875 C 3.152344 17.933594 3.070312 17.957031 3.003906 17.972656 L 2.996094 17.972656 L 2.984375 17.976562 C 2.527344 18.085938 2.234375 18.507812 2.328125 18.921875 C 2.421875 19.335938 2.871094 19.589844 3.332031 19.492188 C 3.335938 19.492188 3.339844 19.492188 3.34375 19.488281 C 3.347656 19.488281 3.351562 19.484375 3.355469 19.484375 C 3.421875 19.46875 3.503906 19.453125 3.558594 19.4375 C 3.824219 19.367188 4.015625 19.261719 4.253906 19.171875 C 4.769531 18.988281 5.195312 18.832031 5.609375 18.773438 C 5.785156 18.757812 5.964844 18.878906 6.058594 18.929688 L 6.394531 18.871094 C 7.15625 21.222656 8.75 23.214844 10.878906 24.46875 L 10.738281 24.808594 C 10.789062 24.9375 10.84375 25.117188 10.804688 25.246094 C 10.65625 25.636719 10.398438 26.050781 10.101562 26.511719 C 9.960938 26.722656 9.8125 26.890625 9.6875 27.132812 C 9.65625 27.191406 9.617188 27.28125 9.585938 27.34375 C 9.386719 27.769531 9.535156 28.261719 9.917969 28.445312 C 10.300781 28.628906 10.78125 28.4375 10.988281 28.007812 C 10.988281 28.007812 10.988281 28.007812 10.992188 28.007812 C 10.992188 28.003906 10.992188 28.007812 10.992188 28.003906 C 11.019531 27.945312 11.0625 27.863281 11.085938 27.808594 C 11.199219 27.554688 11.234375 27.339844 11.3125 27.09375 C 11.515625 26.578125 11.628906 26.035156 11.914062 25.699219 C 11.992188 25.605469 12.117188 25.570312 12.246094 25.535156 L 12.425781 25.214844 C 14.730469 26.105469 17.285156 26.109375 19.597656 25.234375 C 19.644531 25.324219 19.738281 25.492188 19.761719 25.535156 C 19.894531 25.578125 20.039062 25.601562 20.160156 25.773438 C 20.371094 26.136719 20.515625 26.566406 20.691406 27.082031 C 20.769531 27.324219 20.808594 27.542969 20.917969 27.792969 C 20.945312 27.851562 20.984375 27.933594 21.015625 27.992188 C 21.222656 28.421875 21.703125 28.621094 22.089844 28.433594 C 22.476562 28.246094 22.621094 27.757812 22.421875 27.328125 C 22.390625 27.265625 22.347656 27.179688 22.320312 27.121094 C 22.191406 26.875 22.042969 26.710938 21.902344 26.5 C 21.605469 26.039062 21.363281 25.65625 21.210938 25.265625 C 21.148438 25.066406 21.222656 24.941406 21.273438 24.808594 C 21.242188 24.773438 21.179688 24.585938 21.144531 24.492188 C 23.277344 23.226562 24.871094 21.222656 25.621094 18.859375 C 25.722656 18.875 25.898438 18.90625 25.953125 18.917969 C 26.070312 18.839844 26.179688 18.738281 26.390625 18.757812 C 26.804688 18.816406 27.230469 18.96875 27.746094 19.15625 C 27.984375 19.246094 28.175781 19.351562 28.441406 19.421875 C 28.496094 19.4375 28.578125 19.453125 28.640625 19.464844 C 28.648438 19.464844 28.652344 19.46875 28.65625 19.472656 C 28.664062 19.472656 28.664062 19.472656 28.667969 19.472656 C 29.128906 19.574219 29.578125 19.320312 29.671875 18.90625 C 29.765625 18.492188 29.472656 18.070312 29.015625 17.957031 C 28.949219 17.945312 28.851562 17.917969 28.789062 17.90625 C 28.519531 17.855469 28.296875 17.867188 28.042969 17.847656 C 27.5 17.789062 27.050781 17.742188 26.648438 17.617188 C 26.488281 17.554688 26.371094 17.359375 26.316406 17.28125 L 26 17.1875 C 26.335938 14.738281 25.757812 12.25 24.378906 10.195312 C 24.460938 10.121094 24.613281 9.988281 24.65625 9.949219 C 24.667969 9.808594 24.65625 9.660156 24.800781 9.507812 C 25.109375 9.21875 25.492188 8.984375 25.957031 8.695312 C 26.179688 8.566406 26.382812 8.480469 26.605469 8.316406 C 26.652344 8.28125 26.722656 8.222656 26.773438 8.179688 C 27.148438 7.882812 27.234375 7.371094 26.964844 7.035156 C 26.699219 6.699219 26.179688 6.667969 25.808594 6.964844 C 25.753906 7.007812 25.683594 7.0625 25.632812 7.101562 C 25.425781 7.28125 25.296875 7.457031 25.121094 7.644531 C 24.738281 8.035156 24.421875 8.359375 24.074219 8.59375 C 23.921875 8.679688 23.703125 8.652344 23.601562 8.644531 L 23.304688 8.855469 C 21.621094 7.089844 19.324219 5.957031 16.851562 5.738281 C 16.847656 5.636719 16.835938 5.449219 16.835938 5.390625 C 16.734375 5.296875 16.613281 5.210938 16.582031 5.003906 C 16.546875 4.585938 16.605469 4.136719 16.667969 3.59375 C 16.707031 3.339844 16.765625 3.128906 16.773438 2.855469 C 16.777344 2.792969 16.773438 2.699219 16.773438 2.632812 C 16.777344 2.15625 16.429688 1.769531 16 1.769531 Z M 16 1.769531 "/>
<path style=" stroke:none;fill-rule:nonzero;fill:rgb(19.607843%,42.352942%,89.803922%);fill-opacity:1;" d="M 15.980469 21.746094 C 15.382812 21.746094 14.785156 21.707031 14.191406 21.628906 C 13.695312 21.558594 13.269531 21.46875 12.898438 21.351562 C 12.828125 21.328125 12.785156 21.253906 12.804688 21.183594 C 12.808594 21.171875 12.8125 21.160156 12.816406 21.144531 C 12.800781 21.113281 12.796875 21.078125 12.804688 21.046875 C 12.847656 20.90625 12.894531 20.765625 12.953125 20.632812 C 13.0625 20.371094 13.195312 20.117188 13.34375 19.875 C 12.710938 19.75 11.992188 19.566406 11.644531 19.398438 C 11.179688 19.523438 10.753906 19.667969 10.300781 19.820312 C 9.878906 19.960938 9.445312 20.109375 8.953125 20.25 C 8.851562 20.277344 8.738281 20.3125 8.613281 20.347656 C 7.777344 20.59375 6.378906 21.007812 5.300781 21.007812 C 4.761719 21.007812 4.351562 20.90625 4.074219 20.699219 C 4.015625 20.660156 4 20.582031 4.035156 20.519531 C 4.027344 20.503906 4.019531 20.488281 4.019531 20.46875 C 4.011719 20.433594 4.023438 20.394531 4.046875 20.367188 C 4.078125 20.328125 4.109375 20.292969 4.144531 20.253906 C 4.019531 20.265625 3.890625 20.269531 3.765625 20.269531 C 3.304688 20.269531 2.953125 20.175781 2.695312 19.984375 C 2.65625 19.953125 2.632812 19.898438 2.644531 19.847656 C 2.648438 19.832031 2.652344 19.816406 2.65625 19.800781 C 2.640625 19.769531 2.636719 19.738281 2.644531 19.707031 C 2.65625 19.65625 2.675781 19.601562 2.695312 19.550781 C 2.828125 19.246094 3.082031 19.046875 3.535156 18.910156 C 3.421875 18.863281 3.320312 18.785156 3.238281 18.691406 C 3.226562 18.671875 3.21875 18.652344 3.214844 18.632812 C 3.203125 18.589844 3.203125 18.542969 3.214844 18.5 C 3.214844 18.5 3.214844 18.496094 3.214844 18.496094 C 3.191406 18.375 3.21875 18.203125 3.484375 18.03125 C 4.015625 17.640625 5.816406 17.132812 11.367188 16.953125 C 11.621094 16.699219 11.949219 16.425781 12.347656 16.136719 C 12.367188 16.121094 12.394531 16.113281 12.417969 16.109375 C 12.5 16.050781 12.589844 15.988281 12.679688 15.925781 C 12.679688 15.925781 12.683594 15.925781 12.683594 15.925781 C 12.828125 15.835938 13.011719 15.726562 13.234375 15.597656 C 13.242188 15.585938 13.25 15.578125 13.261719 15.574219 L 13.410156 15.488281 C 13.40625 15.433594 13.402344 15.375 13.402344 15.320312 C 13.402344 15.164062 13.417969 15.007812 13.453125 14.855469 C 13.527344 14.507812 13.6875 14.222656 13.894531 14.058594 C 13.882812 13.925781 13.867188 13.796875 13.855469 13.664062 L 13.835938 13.46875 C 13.816406 13.261719 13.792969 13.058594 13.773438 12.855469 C 13.746094 12.535156 13.703125 12.195312 13.664062 11.871094 C 13.605469 11.355469 13.542969 10.824219 13.507812 10.324219 C 13.382812 10.386719 13.242188 10.421875 13.101562 10.425781 C 13.011719 10.429688 12.921875 10.402344 12.84375 10.351562 C 12.570312 10.304688 12.402344 10.152344 12.382812 9.929688 C 12.375 9.867188 12.414062 9.808594 12.472656 9.785156 C 12.53125 9.765625 12.597656 9.789062 12.628906 9.839844 C 12.671875 9.898438 12.730469 9.949219 12.796875 9.976562 C 12.878906 9.90625 12.976562 9.894531 13.046875 9.886719 L 13.058594 9.882812 C 13.148438 9.875 13.234375 9.851562 13.316406 9.816406 C 13.363281 9.792969 13.703125 9.53125 13.746094 9.089844 C 13.753906 9.019531 13.757812 8.949219 13.757812 8.871094 C 13.761719 8.703125 13.769531 8.527344 13.832031 8.359375 C 13.847656 8.320312 13.875 8.289062 13.90625 8.261719 C 13.898438 8.179688 13.863281 8.101562 13.804688 8.039062 C 13.765625 8 13.753906 7.941406 13.777344 7.890625 C 13.796875 7.839844 13.847656 7.808594 13.902344 7.808594 C 13.917969 7.808594 13.929688 7.8125 13.945312 7.816406 C 14.164062 7.886719 14.273438 8.097656 14.246094 8.386719 C 14.25 8.394531 14.257812 8.402344 14.261719 8.414062 C 14.289062 8.320312 14.339844 8.238281 14.40625 8.167969 C 14.425781 8.152344 14.441406 8.136719 14.464844 8.121094 C 14.457031 8.046875 14.425781 7.976562 14.378906 7.917969 C 14.335938 7.871094 14.332031 7.800781 14.367188 7.75 C 14.40625 7.699219 14.472656 7.679688 14.53125 7.703125 C 14.726562 7.777344 14.824219 7.964844 14.804688 8.21875 C 14.824219 8.261719 14.835938 8.308594 14.839844 8.355469 C 14.878906 8.3125 14.917969 8.273438 14.960938 8.238281 C 14.96875 8.230469 14.976562 8.222656 14.984375 8.21875 C 14.988281 8.136719 14.972656 8.050781 14.929688 7.980469 C 14.898438 7.925781 14.90625 7.859375 14.953125 7.816406 C 14.996094 7.769531 15.0625 7.761719 15.117188 7.792969 C 15.214844 7.847656 15.289062 7.945312 15.316406 8.054688 C 15.320312 8.023438 15.328125 7.992188 15.34375 7.96875 C 15.308594 7.894531 15.253906 7.832031 15.183594 7.796875 C 15.125 7.765625 15.097656 7.703125 15.113281 7.644531 C 15.125 7.582031 15.179688 7.539062 15.242188 7.539062 C 15.46875 7.539062 15.632812 7.691406 15.703125 7.957031 C 15.800781 8.035156 15.878906 8.132812 15.933594 8.246094 C 15.933594 8.210938 15.933594 8.171875 15.929688 8.136719 C 15.929688 8.054688 15.929688 7.972656 15.933594 7.890625 L 15.933594 7.882812 C 15.9375 7.820312 15.96875 7.757812 16.015625 7.71875 C 16.007812 7.636719 15.972656 7.5625 15.914062 7.503906 C 15.871094 7.457031 15.863281 7.390625 15.894531 7.335938 C 15.929688 7.28125 15.992188 7.257812 16.054688 7.277344 C 16.265625 7.34375 16.375 7.535156 16.359375 7.808594 C 16.4375 7.9375 16.484375 8.082031 16.496094 8.230469 C 16.507812 8.226562 16.523438 8.226562 16.535156 8.226562 C 16.574219 8.140625 16.582031 8.042969 16.558594 7.953125 C 16.542969 7.890625 16.570312 7.824219 16.625 7.796875 C 16.683594 7.765625 16.753906 7.78125 16.792969 7.828125 C 16.953125 8.011719 16.9375 8.265625 16.75 8.511719 C 16.71875 8.949219 16.289062 9.476562 15.863281 9.613281 C 15.875 9.988281 15.890625 10.371094 15.90625 10.742188 C 15.929688 11.417969 15.957031 12.117188 15.964844 12.78125 C 15.964844 12.886719 15.964844 13.058594 15.96875 13.191406 C 15.96875 13.191406 15.96875 13.347656 15.972656 13.390625 C 16.128906 13.496094 16.261719 13.695312 16.351562 13.96875 C 16.355469 13.972656 16.355469 13.976562 16.355469 13.980469 L 16.359375 13.992188 C 17.492188 13.589844 18.578125 13.390625 19.589844 13.390625 C 20.113281 13.386719 20.640625 13.445312 21.152344 13.566406 C 21.425781 13.640625 21.695312 13.738281 21.949219 13.859375 C 21.957031 13.863281 21.960938 13.867188 21.964844 13.867188 C 22.253906 14 22.535156 14.152344 22.804688 14.300781 C 23.203125 14.515625 23.578125 14.71875 23.972656 14.863281 C 24.109375 14.917969 24.253906 14.945312 24.402344 14.949219 C 24.570312 14.949219 24.71875 14.90625 24.886719 14.855469 C 24.964844 14.832031 25.050781 14.804688 25.140625 14.78125 C 25.070312 14.621094 25.011719 14.457031 24.953125 14.292969 C 24.894531 14.144531 24.84375 14 24.785156 13.863281 C 24.761719 13.804688 24.78125 13.738281 24.832031 13.699219 C 24.882812 13.664062 24.953125 13.667969 25 13.707031 L 26.125 14.699219 L 27.277344 13.332031 C 27.320312 13.285156 27.390625 13.269531 27.449219 13.300781 C 27.507812 13.332031 27.535156 13.398438 27.515625 13.460938 C 27.492188 13.535156 27.464844 13.640625 27.433594 13.761719 C 27.34375 14.101562 27.222656 14.554688 27.070312 14.9375 C 27.835938 15.261719 28.414062 15.914062 28.636719 16.71875 C 28.878906 17.574219 28.679688 18.5 28.097656 19.253906 C 27.867188 19.554688 27.597656 19.820312 27.296875 20.046875 C 27.316406 20.117188 27.289062 20.191406 27.230469 20.234375 C 26.941406 20.441406 26.628906 20.605469 26.292969 20.730469 C 25.929688 20.890625 25.265625 21.101562 23.71875 21.101562 C 23.488281 21.101562 23.242188 21.097656 22.984375 21.085938 C 22.304688 21.0625 21.734375 21.003906 21.285156 20.910156 C 21.183594 20.945312 21.082031 20.976562 20.980469 21.003906 C 19.234375 21.496094 17.550781 21.746094 15.980469 21.746094 Z M 14.523438 13.945312 C 14.699219 14.007812 14.859375 14.152344 14.984375 14.359375 C 14.984375 14.347656 14.988281 14.335938 14.988281 14.324219 L 14.992188 14.300781 C 14.996094 14.277344 15 14.257812 15.003906 14.230469 L 15.007812 14.207031 C 15.007812 14.203125 15.007812 14.199219 15.011719 14.199219 C 15.027344 14.113281 15.050781 14.03125 15.078125 13.949219 C 15.144531 13.753906 15.234375 13.597656 15.339844 13.488281 C 15.328125 13.269531 15.320312 13.089844 15.316406 12.925781 L 15.316406 12.902344 C 15.316406 12.859375 15.316406 12.8125 15.316406 12.769531 C 15.316406 12.210938 15.292969 11.640625 15.269531 11.09375 C 15.253906 10.769531 15.242188 10.4375 15.234375 10.109375 C 15.171875 10.15625 15.09375 10.183594 15.015625 10.1875 C 14.945312 10.1875 14.878906 10.15625 14.828125 10.101562 C 14.613281 10.050781 14.46875 9.929688 14.417969 9.765625 C 14.335938 9.820312 14.25 9.867188 14.160156 9.90625 C 14.136719 10.640625 14.230469 11.410156 14.316406 12.15625 C 14.355469 12.460938 14.390625 12.773438 14.417969 13.074219 C 14.433594 13.222656 14.453125 13.371094 14.472656 13.515625 C 14.488281 13.632812 14.503906 13.753906 14.515625 13.875 C 14.519531 13.898438 14.519531 13.921875 14.523438 13.945312 Z M 14.640625 9.574219 C 14.644531 9.578125 14.648438 9.582031 14.652344 9.589844 C 14.699219 9.664062 14.769531 9.71875 14.855469 9.746094 C 14.867188 9.734375 14.878906 9.722656 14.890625 9.710938 C 14.929688 9.679688 14.96875 9.652344 15.011719 9.625 C 15.027344 9.613281 15.039062 9.609375 15.046875 9.601562 C 15.105469 9.558594 15.273438 9.378906 15.308594 9.339844 C 15.425781 9.160156 15.492188 8.941406 15.480469 8.757812 C 15.472656 8.621094 15.433594 8.496094 15.390625 8.363281 C 15.371094 8.296875 15.351562 8.230469 15.332031 8.160156 C 15.335938 8.222656 15.332031 8.289062 15.316406 8.351562 L 15.316406 8.363281 C 15.304688 8.675781 15.125 9.035156 14.777344 9.429688 C 14.734375 9.480469 14.6875 9.527344 14.640625 9.574219 Z M 14.640625 9.574219 "/>
<path style=" stroke:none;fill-rule:nonzero;fill:rgb(62.352943%,32.549021%,14.117648%);fill-opacity:1;" d="M 26.597656 19.753906 C 26.355469 19.828125 26.109375 19.886719 25.863281 19.929688 C 25.109375 20.058594 24.339844 20.105469 23.578125 20.140625 C 22.933594 20.171875 22.285156 20.195312 21.640625 20.117188 C 21.480469 20.097656 21.320312 20.074219 21.15625 20.050781 C 19.992188 20.367188 18.792969 20.5625 17.589844 20.679688 C 16.953125 20.742188 16.273438 20.824219 15.640625 20.652344 C 14.992188 20.480469 14.515625 20.035156 14.015625 19.621094 C 13.957031 19.582031 13.898438 19.542969 13.839844 19.511719 C 13.707031 19.46875 13.578125 19.425781 13.445312 19.386719 C 13.164062 19.300781 12.90625 19.144531 12.699219 18.9375 L 12.667969 18.929688 C 12.210938 18.800781 11.742188 18.703125 11.269531 18.632812 C 10.105469 18.496094 8.933594 18.503906 7.765625 18.394531 C 7.132812 18.332031 6.503906 18.277344 5.863281 18.300781 C 5.21875 18.328125 4.578125 18.40625 3.9375 18.476562 C 3.761719 18.492188 3.582031 18.46875 3.414062 18.402344 C 3.359375 18.46875 3.332031 18.535156 3.347656 18.609375 C 3.59375 18.929688 4.355469 18.964844 4.90625 18.976562 C 4.867188 18.980469 4.824219 18.984375 4.785156 18.988281 L 4.777344 18.988281 C 3.585938 19.09375 3.023438 19.269531 2.820312 19.746094 C 2.800781 19.789062 2.785156 19.832031 2.777344 19.875 C 3.335938 20.296875 4.285156 20.101562 5.0625 20.003906 C 4.765625 20.097656 4.484375 20.242188 4.261719 20.464844 L 4.261719 20.46875 C 4.222656 20.507812 4.1875 20.546875 4.152344 20.589844 C 5.148438 21.324219 7.84375 20.421875 8.914062 20.117188 C 9.941406 19.824219 10.730469 19.5 11.65625 19.253906 C 11.628906 19.238281 11.597656 19.222656 11.570312 19.207031 L 11.574219 19.207031 C 11.601562 19.222656 11.628906 19.238281 11.65625 19.253906 C 11.992188 19.429688 12.878906 19.660156 13.648438 19.796875 C 13.414062 20.144531 13.214844 20.492188 13.078125 20.824219 C 13.023438 20.953125 12.976562 21.085938 12.9375 21.222656 C 13.335938 21.347656 13.761719 21.429688 14.210938 21.492188 C 16.535156 21.808594 18.945312 21.433594 20.941406 20.871094 C 21.058594 20.839844 21.167969 20.804688 21.273438 20.765625 C 21.710938 20.859375 22.273438 20.921875 22.984375 20.949219 C 25.039062 21.023438 25.824219 20.785156 26.242188 20.601562 C 26.5625 20.484375 26.867188 20.320312 27.148438 20.121094 C 27.15625 20.117188 27.164062 20.105469 27.164062 20.09375 C 27.164062 20.082031 27.15625 20.070312 27.148438 20.066406 C 26.96875 19.953125 26.785156 19.851562 26.597656 19.753906 Z M 26.597656 19.753906 "/>
<path style=" stroke:none;fill-rule:nonzero;fill:rgb(66.666669%,40.784314%,29.019609%);fill-opacity:1;" d="M 13.027344 10.230469 C 13.027344 10.230469 12.550781 10.25 12.515625 9.914062 C 12.632812 10.085938 12.828125 10.148438 12.90625 10.140625 C 12.980469 10.136719 13.082031 10.199219 13.027344 10.230469 Z M 13.027344 10.230469 "/>
<path style=" stroke:none;fill-rule:nonzero;fill:rgb(66.666669%,40.784314%,29.019609%);fill-opacity:1;" d="M 15.074219 9.988281 C 15.074219 9.988281 14.570312 10.011719 14.535156 9.65625 C 14.640625 9.839844 14.863281 9.902344 14.945312 9.894531 C 15.023438 9.890625 15.132812 9.957031 15.074219 9.988281 Z M 15.074219 9.988281 "/>
<path style=" stroke:none;fill-rule:nonzero;fill:rgb(100%,80.784315%,1.176471%);fill-opacity:1;" d="M 4.152344 20.453125 C 5.148438 21.1875 7.84375 20.285156 8.914062 19.980469 C 9.941406 19.6875 10.730469 19.359375 11.660156 19.113281 C 11.152344 18.871094 10.730469 18.527344 10.871094 17.953125 C 10.933594 17.695312 11.117188 17.425781 11.359375 17.160156 C 10.152344 17.179688 8.667969 17.28125 7.882812 17.339844 C 7.128906 17.382812 3.207031 17.730469 3.347656 18.472656 C 3.59375 18.789062 4.359375 18.828125 4.90625 18.839844 C 3.910156 18.929688 2.902344 19.144531 2.777344 19.738281 C 3.335938 20.160156 4.289062 19.964844 5.0625 19.867188 C 4.710938 19.976562 4.386719 20.160156 4.152344 20.453125 Z M 4.152344 20.453125 "/>
<path style=" stroke:none;fill-rule:nonzero;fill:rgb(100%,94.509804%,0%);fill-opacity:1;" d="M 4.261719 20.328125 C 4.433594 20.175781 4.691406 19.988281 4.957031 19.90625 L 7.082031 19.242188 L 5.777344 19.613281 C 5.179688 19.757812 3.773438 20.21875 2.777344 19.738281 C 2.933594 19.160156 3.488281 18.964844 4.78125 18.851562 L 6.566406 18.691406 C 6.566406 18.691406 3.429688 19.0625 3.382812 18.359375 C 3.796875 17.269531 10.988281 17.101562 12.171875 17.070312 C 12.039062 17.246094 11.734375 17.410156 11.691406 17.570312 C 11.554688 18.101562 12.085938 18.851562 12.449219 18.792969 C 11.886719 18.878906 5.480469 21.46875 4.261719 20.328125 Z M 4.261719 20.328125 "/>
<path style=" stroke:none;fill-rule:nonzero;fill:rgb(90.588236%,48.235294%,14.117648%);fill-opacity:1;" d="M 25.515625 15.21875 C 25.664062 15.09375 26.050781 15.039062 26.207031 14.949219 L 24.910156 13.808594 C 25.097656 14.25 25.238281 14.777344 25.515625 15.21875 Z M 25.515625 15.21875 "/>
<path style=" stroke:none;fill-rule:nonzero;fill:rgb(62.352943%,32.549021%,14.117648%);fill-opacity:1;" d="M 25.558594 15.21875 C 25.695312 15.21875 25.6875 15.25 25.84375 15.160156 L 24.910156 13.808594 C 25.097656 14.25 25.28125 14.777344 25.558594 15.21875 Z M 25.558594 15.21875 "/>
<path style=" stroke:none;fill-rule:nonzero;fill:rgb(90.588236%,48.235294%,14.117648%);fill-opacity:1;" d="M 27.382812 13.421875 L 26.070312 14.972656 C 26.199219 15.167969 26.652344 15.121094 26.722656 15.324219 C 27.042969 14.84375 27.269531 13.800781 27.382812 13.421875 Z M 27.382812 13.421875 "/>
<path style=" stroke:none;fill-rule:nonzero;fill:rgb(62.352943%,32.549021%,14.117648%);fill-opacity:1;" d="M 27.382812 13.421875 L 26.117188 15.027344 C 26.242188 15.222656 26.128906 15.101562 26.289062 15.246094 C 26.605469 14.765625 27.269531 13.800781 27.382812 13.421875 Z M 27.382812 13.421875 "/>
<path style=" stroke:none;fill-rule:nonzero;fill:rgb(66.666669%,40.784314%,29.019609%);fill-opacity:1;" d="M 14.402344 14.167969 C 14.398438 14.074219 14.390625 13.980469 14.378906 13.886719 C 14.148438 13.886719 14.054688 13.789062 13.992188 13.652344 C 14.015625 13.875 14.039062 14.097656 14.058594 14.324219 C 14.183594 14.140625 14.304688 14.0625 14.402344 14.167969 Z M 14.402344 14.167969 "/>
<path style=" stroke:none;fill-rule:nonzero;fill:rgb(66.666669%,40.784314%,29.019609%);fill-opacity:1;" d="M 14.835938 8.722656 C 14.914062 8.601562 14.984375 8.472656 15.046875 8.34375 C 14.839844 8.511719 14.722656 8.78125 14.570312 9 C 14.566406 9.003906 14.5625 9.007812 14.558594 9.011719 C 14.535156 9.070312 14.515625 9.109375 14.515625 9.109375 C 14.515625 9.109375 14.71875 8.90625 14.835938 8.722656 Z M 14.835938 8.722656 "/>
<path style=" stroke:none;fill-rule:nonzero;fill:rgb(66.666669%,40.784314%,29.019609%);fill-opacity:1;" d="M 14.359375 8.910156 C 14.402344 8.808594 14.460938 8.472656 14.464844 8.398438 C 14.464844 8.351562 14.480469 8.308594 14.5 8.265625 C 14.351562 8.410156 14.332031 8.738281 14.285156 8.910156 C 14.242188 9.074219 14.175781 9.261719 14.066406 9.40625 C 14.222656 9.269531 14.320312 9.015625 14.359375 8.910156 Z M 14.359375 8.910156 "/>
<path style=" stroke:none;fill-rule:nonzero;fill:rgb(96.470588%,57.254905%,11.764706%);fill-opacity:1;" d="M 15.085938 8.3125 C 15.074219 8.324219 15.058594 8.332031 15.046875 8.34375 C 14.984375 8.472656 14.914062 8.601562 14.835938 8.722656 C 14.71875 8.90625 14.515625 9.113281 14.515625 9.113281 C 14.515625 9.113281 14.535156 9.070312 14.558594 9.011719 C 14.558594 9.015625 14.554688 9.019531 14.554688 9.019531 C 14.589844 8.910156 14.617188 8.800781 14.648438 8.691406 C 14.683594 8.550781 14.75 8.371094 14.660156 8.242188 C 14.644531 8.214844 14.613281 8.203125 14.582031 8.214844 C 14.550781 8.226562 14.523438 8.242188 14.5 8.265625 C 14.480469 8.308594 14.46875 8.351562 14.464844 8.398438 C 14.460938 8.472656 14.402344 8.808594 14.363281 8.910156 C 14.320312 9.015625 14.222656 9.269531 14.066406 9.40625 C 14.234375 9.070312 14.304688 8.683594 14.082031 8.382812 C 14.0625 8.355469 14.023438 8.347656 13.992188 8.371094 C 13.988281 8.386719 13.988281 8.40625 13.992188 8.421875 C 14.03125 8.605469 13.992188 8.953125 13.96875 9.097656 C 13.941406 9.273438 13.878906 9.441406 13.789062 9.597656 C 13.695312 9.761719 13.480469 9.976562 13.296875 10.035156 C 13.179688 10.074219 13.011719 10.132812 12.882812 10.085938 C 12.855469 10.109375 12.851562 10.148438 12.867188 10.179688 C 12.988281 10.382812 13.378906 10.277344 13.628906 10.09375 C 13.679688 10.96875 13.824219 11.949219 13.910156 12.84375 C 13.9375 13.113281 13.964844 13.382812 13.992188 13.652344 C 14.070312 13.878906 14.210938 13.972656 14.382812 13.886719 C 14.351562 13.621094 14.308594 13.355469 14.285156 13.089844 C 14.183594 12.039062 13.992188 10.933594 14.023438 9.878906 C 14.023438 9.855469 14.019531 9.832031 14.015625 9.8125 C 14.277344 9.730469 14.484375 9.558594 14.679688 9.339844 C 14.902344 9.078125 15.167969 8.710938 15.179688 8.355469 C 15.179688 8.335938 15.167969 8.3125 15.148438 8.304688 C 15.128906 8.292969 15.101562 8.296875 15.085938 8.3125 Z M 15.085938 8.3125 "/>
<path style=" stroke:none;fill-rule:nonzero;fill:rgb(66.666669%,40.784314%,29.019609%);fill-opacity:1;" d="M 13.296875 10.035156 C 13.480469 9.976562 13.695312 9.761719 13.789062 9.597656 C 13.878906 9.441406 13.941406 9.273438 13.96875 9.097656 C 13.992188 8.953125 14.027344 8.605469 13.992188 8.421875 C 13.988281 8.40625 13.988281 8.386719 13.992188 8.371094 C 13.976562 8.378906 13.964844 8.390625 13.960938 8.40625 C 13.875 8.625 13.90625 8.875 13.882812 9.105469 C 13.828125 9.59375 13.460938 9.898438 13.371094 9.9375 C 13.277344 9.980469 13.179688 10.007812 13.078125 10.019531 C 13.007812 10.027344 12.933594 10.035156 12.882812 10.085938 C 13.011719 10.132812 13.179688 10.074219 13.296875 10.035156 Z M 13.296875 10.035156 "/>
<path style=" stroke:none;fill-rule:nonzero;fill:rgb(96.470588%,57.254905%,11.764706%);fill-opacity:1;" d="M 15.488281 13.636719 C 15.488281 13.648438 15.488281 13.664062 15.488281 13.675781 C 15.527344 13.671875 15.566406 13.6875 15.59375 13.710938 C 15.679688 13.769531 15.761719 13.839844 15.839844 13.914062 C 15.839844 13.78125 15.835938 13.648438 15.835938 13.519531 L 15.613281 13.675781 Z M 15.488281 13.636719 "/>
<path style=" stroke:none;fill-rule:nonzero;fill:rgb(66.666669%,40.784314%,29.019609%);fill-opacity:1;" d="M 15.453125 12.921875 C 15.457031 13.160156 15.46875 13.398438 15.488281 13.636719 L 15.617188 13.675781 L 15.835938 13.519531 C 15.832031 13.402344 15.832031 13.355469 15.832031 13.242188 C 15.675781 13.238281 15.558594 13.171875 15.453125 12.921875 Z M 15.453125 12.921875 "/>
<path style=" stroke:none;fill-rule:nonzero;fill:rgb(96.470588%,57.254905%,11.764706%);fill-opacity:1;" d="M 16.613281 8.414062 C 16.605469 8.359375 16.535156 8.351562 16.5 8.378906 C 16.4375 8.429688 16.386719 8.484375 16.34375 8.550781 C 16.390625 8.308594 16.359375 8.0625 16.226562 7.855469 C 16.183594 7.785156 16.074219 7.804688 16.070312 7.890625 C 16.058594 8.1875 16.109375 8.457031 15.976562 8.734375 C 15.953125 8.785156 15.925781 8.832031 15.890625 8.878906 C 15.941406 8.546875 15.832031 8.179688 15.542969 8.015625 C 15.519531 8.003906 15.484375 8.007812 15.464844 8.03125 C 15.480469 8.070312 15.496094 8.128906 15.515625 8.148438 C 15.542969 8.179688 15.765625 8.722656 15.636719 9.066406 C 15.515625 9.382812 15.28125 9.757812 14.980469 9.8125 C 14.914062 9.871094 14.863281 9.9375 14.929688 10.007812 C 15.039062 10.125 15.207031 9.953125 15.292969 9.886719 C 15.316406 9.871094 15.339844 9.851562 15.363281 9.835938 C 15.378906 10.8125 15.453125 11.789062 15.449219 12.769531 C 15.449219 12.820312 15.449219 12.871094 15.453125 12.921875 C 15.511719 13.175781 15.675781 13.265625 15.832031 13.269531 C 15.828125 13.140625 15.828125 12.914062 15.824219 12.785156 C 15.816406 11.734375 15.757812 10.636719 15.726562 9.546875 C 15.722656 9.535156 15.71875 9.519531 15.714844 9.507812 C 16.152344 9.453125 16.65625 8.824219 16.613281 8.414062 Z M 16.613281 8.414062 "/>
<path style=" stroke:none;fill-rule:nonzero;fill:rgb(66.666669%,40.784314%,29.019609%);fill-opacity:1;" d="M 15.636719 9.066406 C 15.765625 8.722656 15.542969 8.179688 15.515625 8.148438 C 15.496094 8.128906 15.480469 8.070312 15.464844 8.03125 C 15.453125 8.046875 15.449219 8.0625 15.453125 8.082031 C 15.507812 8.308594 15.605469 8.511719 15.617188 8.75 C 15.628906 8.980469 15.546875 9.226562 15.417969 9.417969 C 15.410156 9.433594 15.207031 9.652344 15.128906 9.710938 C 15.097656 9.734375 15.03125 9.769531 14.980469 9.8125 C 15.28125 9.757812 15.515625 9.382812 15.636719 9.066406 Z M 15.636719 9.066406 "/>
<path style=" stroke:none;fill-rule:nonzero;fill:rgb(100%,94.509804%,0%);fill-opacity:1;" d="M 13.769531 15.761719 L 13.589844 15.777344 C 13.703125 16.261719 13.984375 16.605469 14.3125 16.605469 C 14.742188 16.605469 15.085938 16.03125 15.085938 15.324219 C 15.085938 15.179688 15.074219 15.039062 15.042969 14.902344 Z M 13.769531 15.761719 "/>
<path style=" stroke:none;fill-rule:nonzero;fill:rgb(100%,94.509804%,0%);fill-opacity:1;" d="M 14.929688 14.550781 C 14.789062 14.242188 14.566406 14.042969 14.3125 14.042969 C 13.980469 14.042969 13.695312 14.394531 13.585938 14.886719 C 13.523438 15.179688 13.523438 15.484375 13.589844 15.777344 L 13.769531 15.761719 L 15.042969 14.902344 C 15.019531 14.78125 14.980469 14.664062 14.929688 14.550781 Z M 14.929688 14.550781 "/>
<path style=" stroke:none;fill-rule:nonzero;fill:rgb(100%,80.784315%,1.176471%);fill-opacity:1;" d="M 15.042969 14.902344 C 15.019531 14.78125 14.980469 14.664062 14.929688 14.550781 C 14.851562 14.675781 14.519531 14.890625 14.3125 14.980469 C 13.957031 15.132812 13.730469 14.984375 13.585938 14.886719 C 13.523438 15.179688 13.523438 15.484375 13.589844 15.777344 L 13.769531 15.761719 Z M 15.042969 14.902344 "/>
<path style=" stroke:none;fill-rule:nonzero;fill:rgb(100%,94.509804%,0%);fill-opacity:1;" d="M 15.84375 14.207031 C 15.960938 14.167969 16.101562 14.113281 16.238281 14.058594 C 16.128906 13.691406 15.933594 13.449219 15.714844 13.449219 C 15.503906 13.449219 15.320312 13.664062 15.210938 13.992188 C 15.332031 14.117188 15.566406 14.296875 15.84375 14.207031 Z M 15.84375 14.207031 "/>
<path style=" stroke:none;fill-rule:nonzero;fill:rgb(100%,94.509804%,0%);fill-opacity:1;" d="M 15.328125 14.933594 L 15.101562 14.925781 C 15.148438 15.539062 15.402344 16.007812 15.710938 16.007812 C 16.050781 16.007812 16.328125 15.433594 16.328125 14.726562 C 16.328125 14.632812 16.324219 14.539062 16.3125 14.445312 Z M 15.328125 14.933594 "/>
<path style=" stroke:none;fill-rule:nonzero;fill:rgb(100%,94.509804%,0%);fill-opacity:1;" d="M 16.3125 14.445312 C 16.300781 14.316406 16.273438 14.1875 16.238281 14.058594 C 16.101562 14.113281 15.960938 14.167969 15.84375 14.207031 C 15.5625 14.296875 15.328125 14.117188 15.207031 13.992188 C 15.128906 14.230469 15.09375 14.476562 15.09375 14.726562 C 15.09375 14.792969 15.097656 14.859375 15.101562 14.925781 L 15.324219 14.933594 Z M 16.3125 14.445312 "/>
<path style=" stroke:none;fill-rule:nonzero;fill:rgb(100%,80.784315%,1.176471%);fill-opacity:1;" d="M 16.3125 14.445312 C 16.296875 14.300781 16.265625 14.15625 16.222656 14.019531 C 16.105469 14.109375 15.96875 14.183594 15.828125 14.230469 C 15.546875 14.324219 15.265625 14.359375 15.144531 14.230469 C 15.105469 14.441406 15.101562 14.542969 15.097656 14.726562 C 15.09375 14.792969 15.097656 14.859375 15.105469 14.925781 L 15.328125 14.933594 Z M 16.3125 14.445312 "/>
<path style=" stroke:none;fill-rule:nonzero;fill:rgb(66.666669%,40.784314%,29.019609%);fill-opacity:1;" d="M 14.09375 8.484375 C 14.09375 8.484375 14.207031 8.042969 13.902344 7.945312 C 14.042969 8.085938 14.054688 8.28125 14.035156 8.351562 C 14.015625 8.421875 14.050781 8.527344 14.09375 8.484375 Z M 14.09375 8.484375 "/>
<path style=" stroke:none;fill-rule:nonzero;fill:rgb(66.666669%,40.784314%,29.019609%);fill-opacity:1;" d="M 15.59375 8.128906 C 15.59375 8.128906 15.566406 7.675781 15.246094 7.675781 C 15.421875 7.769531 15.496094 7.949219 15.5 8.019531 C 15.5 8.09375 15.566406 8.183594 15.59375 8.128906 Z M 15.59375 8.128906 "/>
<path style=" stroke:none;fill-rule:nonzero;fill:rgb(66.666669%,40.784314%,29.019609%);fill-opacity:1;" d="M 14.636719 8.378906 C 14.636719 8.378906 14.777344 7.945312 14.480469 7.828125 C 14.613281 7.980469 14.613281 8.175781 14.589844 8.242188 C 14.5625 8.3125 14.59375 8.421875 14.636719 8.378906 Z M 14.636719 8.378906 "/>
<path style=" stroke:none;fill-rule:nonzero;fill:rgb(66.666669%,40.784314%,29.019609%);fill-opacity:1;" d="M 16.203125 7.945312 C 16.203125 7.945312 16.316406 7.503906 16.011719 7.40625 C 16.152344 7.546875 16.167969 7.742188 16.148438 7.8125 C 16.128906 7.882812 16.164062 7.988281 16.203125 7.945312 Z M 16.203125 7.945312 "/>
<path style=" stroke:none;fill-rule:nonzero;fill:rgb(66.666669%,40.784314%,29.019609%);fill-opacity:1;" d="M 15.121094 8.5 C 15.121094 8.5 15.335938 8.078125 15.046875 7.910156 C 15.148438 8.078125 15.128906 8.285156 15.09375 8.351562 C 15.058594 8.421875 15.070312 8.535156 15.121094 8.5 Z M 15.121094 8.5 "/>
<path style=" stroke:none;fill-rule:nonzero;fill:rgb(66.666669%,40.784314%,29.019609%);fill-opacity:1;" d="M 16.566406 8.519531 C 16.566406 8.519531 16.914062 8.179688 16.691406 7.917969 C 16.738281 8.109375 16.679688 8.3125 16.585938 8.367188 C 16.519531 8.40625 16.503906 8.535156 16.566406 8.519531 Z M 16.566406 8.519531 "/>
<path style=" stroke:none;fill-rule:nonzero;fill:rgb(100%,94.509804%,0%);fill-opacity:1;" d="M 26.921875 15.023438 C 26.535156 14.878906 26.125 14.816406 25.710938 14.839844 C 25.660156 14.84375 25.609375 14.84375 25.558594 14.851562 C 24.847656 14.910156 24.621094 15.246094 23.921875 14.992188 C 23.238281 14.742188 22.59375 14.304688 21.898438 13.988281 C 21.308594 14.753906 19.625 15.503906 17.566406 15.84375 C 15.839844 16.125 14.269531 16.046875 13.335938 15.695312 C 13.113281 15.824219 12.914062 15.945312 12.753906 16.042969 C 12.664062 16.105469 12.574219 16.167969 12.480469 16.234375 C 11.882812 16.820312 9.652344 18.503906 13.804688 19.660156 C 15.160156 19.894531 17.480469 20.253906 20.320312 20.507812 L 20.425781 20.515625 C 23.125 20.6875 26.179688 21.511719 27.988281 19.167969 C 29.183594 17.625 28.519531 15.636719 26.921875 15.023438 Z M 26.921875 15.023438 "/>
<path style=" stroke:none;fill-rule:nonzero;fill:rgb(100%,94.509804%,0%);fill-opacity:1;" d="M 17.5625 15.839844 C 19.621094 15.503906 21.304688 14.75 21.894531 13.984375 C 21.644531 13.867188 21.386719 13.773438 21.121094 13.699219 C 19.257812 13.253906 17.207031 13.714844 15.40625 14.523438 C 15.03125 14.71875 14.066406 15.261719 13.332031 15.695312 C 14.265625 16.042969 15.835938 16.121094 17.5625 15.839844 Z M 17.5625 15.839844 "/>
<path style=" stroke:none;fill-rule:nonzero;fill:rgb(100%,97.647059%,80.392158%);fill-opacity:1;" d="M 17.5625 15.839844 C 19.621094 15.503906 21.304688 14.75 21.894531 13.984375 C 21.644531 13.867188 21.386719 13.773438 21.121094 13.699219 C 19.257812 13.253906 17.207031 13.714844 15.40625 14.523438 C 15.03125 14.71875 14.066406 15.261719 13.332031 15.695312 C 14.265625 16.042969 15.835938 16.121094 17.5625 15.839844 Z M 17.5625 15.839844 "/>
<path style=" stroke:none;fill-rule:nonzero;fill:rgb(100%,80.784315%,1.176471%);fill-opacity:1;" d="M 14.753906 19.421875 C 17.769531 18.121094 13.078125 19.363281 11.976562 18.246094 C 11.179688 17.4375 12.132812 16.714844 12.429688 16.25 C 12.042969 16.523438 11.65625 16.839844 11.359375 17.160156 C 11.117188 17.425781 10.933594 17.695312 10.871094 17.953125 C 10.730469 18.523438 11.164062 18.847656 11.660156 19.113281 C 12.007812 19.300781 12.960938 19.539062 13.75 19.675781 C 14.308594 19.605469 14.671875 19.457031 14.753906 19.421875 Z M 14.753906 19.421875 "/>
<path style=" stroke:none;fill-rule:nonzero;fill:rgb(100%,94.509804%,0%);fill-opacity:1;" d="M 22.046875 14.289062 C 22.886719 14.664062 23.4375 15.28125 23.277344 15.667969 C 23.117188 16.054688 22.3125 16.066406 21.472656 15.691406 "/>
<path style=" stroke:none;fill-rule:nonzero;fill:rgb(100%,80.784315%,1.176471%);fill-opacity:1;" d="M 22.949219 14.847656 C 22.984375 14.882812 23.019531 14.917969 23.050781 14.953125 C 23.289062 15.222656 23.375 15.476562 23.296875 15.675781 C 23.128906 16.082031 22.324219 16.097656 21.464844 15.714844 C 21.453125 15.707031 21.449219 15.695312 21.457031 15.683594 C 21.460938 15.671875 21.472656 15.664062 21.484375 15.667969 C 22.308594 16.039062 23.105469 16.035156 23.261719 15.660156 C 23.332031 15.484375 23.242188 15.242188 23.019531 14.992188 C 22.789062 14.734375 22.441406 14.492188 22.035156 14.3125 C 22.027344 14.308594 22.023438 14.292969 22.03125 14.28125 C 22.035156 14.269531 22.046875 14.261719 22.054688 14.265625 C 22.410156 14.421875 22.71875 14.628906 22.949219 14.847656 Z M 22.949219 14.847656 "/>
<path style=" stroke:none;fill-rule:nonzero;fill:rgb(100%,94.509804%,0%);fill-opacity:1;" d="M 21.382812 15.167969 C 22.074219 15.761719 22.425781 16.507812 22.167969 16.832031 C 21.90625 17.160156 21.132812 16.9375 20.4375 16.34375 "/>
<path style=" stroke:none;fill-rule:nonzero;fill:rgb(100%,80.784315%,1.176471%);fill-opacity:1;" d="M 22.085938 15.960938 C 22.109375 16.003906 22.132812 16.046875 22.152344 16.085938 C 22.304688 16.410156 22.3125 16.679688 22.179688 16.84375 C 21.90625 17.1875 21.136719 16.972656 20.421875 16.363281 C 20.414062 16.355469 20.414062 16.339844 20.421875 16.332031 C 20.425781 16.328125 20.429688 16.324219 20.4375 16.324219 C 20.441406 16.320312 20.449219 16.324219 20.453125 16.324219 C 21.136719 16.910156 21.898438 17.132812 22.152344 16.820312 C 22.269531 16.675781 22.253906 16.417969 22.113281 16.117188 C 21.964844 15.804688 21.699219 15.476562 21.367188 15.1875 C 21.359375 15.179688 21.359375 15.167969 21.367188 15.15625 C 21.367188 15.152344 21.375 15.148438 21.378906 15.148438 C 21.386719 15.144531 21.390625 15.148438 21.394531 15.148438 C 21.691406 15.398438 21.929688 15.683594 22.085938 15.960938 Z M 22.085938 15.960938 "/>
<path style=" stroke:none;fill-rule:nonzero;fill:rgb(100%,94.509804%,0%);fill-opacity:1;" d="M 20.328125 15.90625 C 20.871094 16.640625 21.046875 17.441406 20.722656 17.699219 C 20.394531 17.957031 19.691406 17.574219 19.148438 16.84375 "/>
<path style=" stroke:none;fill-rule:nonzero;fill:rgb(100%,80.784315%,1.176471%);fill-opacity:1;" d="M 20.835938 16.832031 C 20.851562 16.878906 20.863281 16.925781 20.871094 16.972656 C 20.949219 17.320312 20.898438 17.582031 20.734375 17.714844 C 20.390625 17.984375 19.6875 17.609375 19.128906 16.859375 C 19.121094 16.847656 19.125 16.832031 19.136719 16.828125 C 19.144531 16.820312 19.160156 16.820312 19.167969 16.828125 C 19.703125 17.550781 20.394531 17.933594 20.710938 17.683594 C 20.855469 17.570312 20.898438 17.316406 20.828125 16.992188 C 20.753906 16.65625 20.570312 16.277344 20.308594 15.925781 C 20.300781 15.914062 20.304688 15.898438 20.316406 15.894531 C 20.324219 15.882812 20.335938 15.882812 20.347656 15.894531 C 20.574219 16.199219 20.746094 16.527344 20.835938 16.832031 Z M 20.835938 16.832031 "/>
<path style=" stroke:none;fill-rule:nonzero;fill:rgb(100%,94.509804%,0%);fill-opacity:1;" d="M 19.046875 16.457031 C 19.433594 17.28125 19.445312 18.101562 19.078125 18.289062 C 18.707031 18.476562 18.09375 17.960938 17.707031 17.136719 "/>
<path style=" stroke:none;fill-rule:nonzero;fill:rgb(100%,80.784315%,1.176471%);fill-opacity:1;" d="M 19.363281 17.464844 C 19.367188 17.511719 19.367188 17.558594 19.371094 17.605469 C 19.375 17.960938 19.273438 18.210938 19.085938 18.304688 C 18.695312 18.503906 18.085938 17.992188 17.683594 17.148438 C 17.683594 17.136719 17.6875 17.125 17.699219 17.117188 C 17.703125 17.117188 17.710938 17.113281 17.714844 17.117188 C 17.722656 17.117188 17.726562 17.121094 17.730469 17.125 C 18.109375 17.9375 18.710938 18.453125 19.066406 18.269531 C 19.234375 18.1875 19.324219 17.949219 19.320312 17.617188 C 19.316406 17.273438 19.210938 16.863281 19.023438 16.46875 C 19.019531 16.457031 19.027344 16.441406 19.039062 16.4375 C 19.050781 16.433594 19.0625 16.4375 19.070312 16.445312 C 19.230469 16.792969 19.332031 17.148438 19.363281 17.464844 Z M 19.363281 17.464844 "/>
<path style=" stroke:none;fill-rule:nonzero;fill:rgb(100%,94.509804%,0%);fill-opacity:1;" d="M 17.683594 16.777344 C 17.886719 17.664062 17.726562 18.46875 17.324219 18.574219 C 16.925781 18.679688 16.433594 18.046875 16.230469 17.160156 "/>
<path style=" stroke:none;fill-rule:nonzero;fill:rgb(100%,80.784315%,1.176471%);fill-opacity:1;" d="M 17.777344 17.824219 C 17.773438 17.875 17.765625 17.921875 17.753906 17.96875 C 17.6875 18.316406 17.535156 18.539062 17.332031 18.589844 C 16.910156 18.703125 16.417969 18.074219 16.207031 17.167969 C 16.203125 17.15625 16.210938 17.144531 16.226562 17.140625 C 16.238281 17.136719 16.25 17.140625 16.253906 17.152344 C 16.457031 18.027344 16.9375 18.65625 17.320312 18.554688 C 17.503906 18.507812 17.640625 18.292969 17.707031 17.964844 C 17.773438 17.628906 17.757812 17.207031 17.65625 16.78125 C 17.65625 16.769531 17.664062 16.761719 17.675781 16.757812 C 17.683594 16.753906 17.6875 16.753906 17.695312 16.757812 C 17.699219 16.757812 17.703125 16.761719 17.707031 16.769531 C 17.792969 17.144531 17.816406 17.511719 17.777344 17.824219 Z M 17.777344 17.824219 "/>
<path style=" stroke:none;fill-rule:nonzero;fill:rgb(100%,94.509804%,0%);fill-opacity:1;" d="M 16.316406 16.847656 C 16.285156 17.757812 15.921875 18.496094 15.507812 18.496094 C 15.09375 18.496094 14.78125 17.757812 14.8125 16.847656 "/>
<path style=" stroke:none;fill-rule:nonzero;fill:rgb(100%,80.784315%,1.176471%);fill-opacity:1;" d="M 16.136719 17.886719 C 16.121094 17.933594 16.101562 17.976562 16.078125 18.019531 C 15.921875 18.339844 15.71875 18.515625 15.507812 18.515625 C 15.070312 18.515625 14.757812 17.78125 14.785156 16.84375 C 14.789062 16.832031 14.800781 16.824219 14.8125 16.828125 C 14.824219 16.828125 14.835938 16.835938 14.835938 16.84375 C 14.804688 17.742188 15.109375 18.476562 15.507812 18.476562 C 15.695312 18.476562 15.886719 18.304688 16.035156 18.007812 C 16.183594 17.699219 16.277344 17.285156 16.289062 16.847656 C 16.292969 16.835938 16.304688 16.828125 16.316406 16.828125 C 16.332031 16.828125 16.34375 16.835938 16.339844 16.847656 C 16.328125 17.234375 16.257812 17.59375 16.136719 17.886719 Z M 16.136719 17.886719 "/>
<path style=" stroke:none;fill-rule:nonzero;fill:rgb(100%,94.509804%,0%);fill-opacity:1;" d="M 15.164062 16.957031 C 14.808594 17.800781 14.207031 18.359375 13.816406 18.210938 C 13.429688 18.0625 13.402344 17.257812 13.757812 16.414062 "/>
<path style=" stroke:none;fill-rule:nonzero;fill:rgb(100%,80.784315%,1.176471%);fill-opacity:1;" d="M 14.625 17.867188 C 14.59375 17.90625 14.558594 17.9375 14.523438 17.96875 C 14.261719 18.214844 14.007812 18.304688 13.8125 18.230469 C 13.402344 18.070312 13.371094 17.273438 13.734375 16.40625 C 13.738281 16.394531 13.753906 16.390625 13.765625 16.398438 C 13.777344 16.402344 13.785156 16.414062 13.78125 16.425781 C 13.429688 17.253906 13.449219 18.050781 13.824219 18.191406 C 14 18.261719 14.238281 18.167969 14.484375 17.941406 C 14.734375 17.707031 14.96875 17.351562 15.140625 16.949219 C 15.144531 16.9375 15.160156 16.933594 15.171875 16.941406 C 15.183594 16.945312 15.191406 16.957031 15.1875 16.964844 C 15.039062 17.320312 14.839844 17.636719 14.625 17.867188 Z M 14.625 17.867188 "/>
<path style=" stroke:none;fill-rule:nonzero;fill:rgb(100%,94.509804%,0%);fill-opacity:1;" d="M 14.386719 16.898438 C 13.660156 17.457031 12.855469 17.648438 12.589844 17.324219 C 12.324219 17 12.699219 16.285156 13.425781 15.726562 "/>
<path style=" stroke:none;fill-rule:nonzero;fill:rgb(100%,80.784315%,1.176471%);fill-opacity:1;" d="M 13.464844 17.425781 C 13.417969 17.441406 13.371094 17.453125 13.324219 17.464844 C 12.976562 17.546875 12.710938 17.5 12.574219 17.335938 C 12.296875 16.996094 12.664062 16.28125 13.410156 15.707031 C 13.421875 15.699219 13.433594 15.703125 13.441406 15.714844 C 13.449219 15.722656 13.449219 15.738281 13.441406 15.746094 C 12.722656 16.296875 12.347656 17 12.601562 17.3125 C 12.722656 17.457031 12.976562 17.496094 13.300781 17.417969 C 13.640625 17.339844 14.019531 17.148438 14.367188 16.878906 C 14.378906 16.871094 14.394531 16.875 14.398438 16.886719 C 14.402344 16.890625 14.40625 16.894531 14.40625 16.902344 C 14.40625 16.90625 14.402344 16.914062 14.398438 16.917969 C 14.097656 17.152344 13.769531 17.328125 13.464844 17.425781 Z M 13.464844 17.425781 "/>
<path style=" stroke:none;fill-rule:nonzero;fill:rgb(100%,97.647059%,80.392158%);fill-opacity:1;" d="M 20.96875 13.847656 C 21.300781 14.039062 21.507812 14.316406 21.425781 14.472656 C 21.34375 14.628906 21.003906 14.597656 20.671875 14.410156 "/>
<path style=" stroke:none;fill-rule:nonzero;fill:rgb(96.862745%,88.627452%,54.11765%);fill-opacity:1;" d="M 21.320312 14.117188 C 21.335938 14.132812 21.347656 14.148438 21.359375 14.164062 C 21.449219 14.285156 21.472656 14.398438 21.429688 14.476562 C 21.347656 14.636719 21.011719 14.613281 20.667969 14.417969 C 20.664062 14.414062 20.664062 14.410156 20.664062 14.40625 C 20.667969 14.398438 20.671875 14.398438 20.675781 14.398438 C 21.007812 14.585938 21.339844 14.617188 21.417969 14.46875 C 21.453125 14.398438 21.429688 14.292969 21.34375 14.179688 C 21.261719 14.066406 21.125 13.949219 20.964844 13.855469 C 20.960938 13.851562 20.957031 13.847656 20.960938 13.84375 C 20.964844 13.835938 20.96875 13.835938 20.972656 13.835938 C 21.105469 13.910156 21.222656 14.003906 21.320312 14.117188 Z M 21.320312 14.117188 "/>
<path style=" stroke:none;fill-rule:nonzero;fill:rgb(100%,97.647059%,80.392158%);fill-opacity:1;" d="M 20.316406 14.433594 C 20.582031 14.703125 20.703125 15.027344 20.585938 15.152344 C 20.464844 15.277344 20.148438 15.160156 19.882812 14.890625 "/>
<path style=" stroke:none;fill-rule:nonzero;fill:rgb(96.862745%,88.627452%,54.11765%);fill-opacity:1;" d="M 20.582031 14.785156 C 20.589844 14.804688 20.597656 14.824219 20.605469 14.839844 C 20.65625 14.980469 20.652344 15.09375 20.589844 15.15625 C 20.464844 15.289062 20.152344 15.171875 19.875 14.894531 C 19.871094 14.890625 19.871094 14.882812 19.875 14.878906 C 19.878906 14.875 19.886719 14.875 19.890625 14.878906 C 20.152344 15.144531 20.464844 15.265625 20.578125 15.144531 C 20.632812 15.085938 20.636719 14.980469 20.585938 14.847656 C 20.523438 14.695312 20.429688 14.554688 20.308594 14.4375 C 20.304688 14.433594 20.304688 14.425781 20.308594 14.425781 C 20.3125 14.421875 20.320312 14.417969 20.324219 14.421875 C 20.429688 14.527344 20.515625 14.652344 20.582031 14.785156 Z M 20.582031 14.785156 "/>
<path style=" stroke:none;fill-rule:nonzero;fill:rgb(100%,97.647059%,80.392158%);fill-opacity:1;" d="M 19.480469 14.902344 C 19.675781 15.230469 19.714844 15.570312 19.566406 15.660156 C 19.421875 15.753906 19.144531 15.566406 18.949219 15.238281 "/>
<path style=" stroke:none;fill-rule:nonzero;fill:rgb(96.862745%,88.627452%,54.11765%);fill-opacity:1;" d="M 19.652344 15.308594 C 19.65625 15.328125 19.660156 15.347656 19.660156 15.367188 C 19.675781 15.515625 19.644531 15.621094 19.570312 15.667969 C 19.417969 15.765625 19.140625 15.578125 18.941406 15.242188 C 18.9375 15.238281 18.941406 15.234375 18.945312 15.230469 C 18.949219 15.226562 18.957031 15.226562 18.957031 15.230469 C 19.152344 15.554688 19.421875 15.746094 19.5625 15.65625 C 19.628906 15.613281 19.65625 15.511719 19.640625 15.371094 C 19.617188 15.207031 19.558594 15.046875 19.472656 14.90625 C 19.46875 14.902344 19.472656 14.894531 19.476562 14.894531 C 19.480469 14.890625 19.484375 14.890625 19.488281 14.894531 C 19.566406 15.023438 19.621094 15.160156 19.652344 15.308594 Z M 19.652344 15.308594 "/>
<path style=" stroke:none;fill-rule:nonzero;fill:rgb(100%,97.647059%,80.392158%);fill-opacity:1;" d="M 18.519531 15.226562 C 18.632812 15.59375 18.589844 15.933594 18.425781 15.992188 C 18.261719 16.046875 18.035156 15.796875 17.925781 15.429688 "/>
<path style=" stroke:none;fill-rule:nonzero;fill:rgb(96.862745%,88.627452%,54.11765%);fill-opacity:1;" d="M 18.59375 15.664062 C 18.589844 15.683594 18.589844 15.703125 18.585938 15.722656 C 18.570312 15.871094 18.511719 15.96875 18.429688 15.996094 C 18.253906 16.058594 18.03125 15.808594 17.914062 15.433594 C 17.914062 15.429688 17.917969 15.425781 17.921875 15.421875 C 17.925781 15.421875 17.925781 15.421875 17.929688 15.421875 C 17.933594 15.421875 17.933594 15.425781 17.933594 15.425781 C 18.046875 15.789062 18.265625 16.035156 18.421875 15.984375 C 18.496094 15.957031 18.550781 15.863281 18.566406 15.726562 C 18.582031 15.558594 18.5625 15.390625 18.511719 15.230469 C 18.511719 15.226562 18.515625 15.222656 18.519531 15.21875 C 18.519531 15.21875 18.523438 15.21875 18.527344 15.21875 C 18.527344 15.21875 18.53125 15.222656 18.53125 15.222656 C 18.578125 15.367188 18.597656 15.515625 18.59375 15.664062 Z M 18.59375 15.664062 "/>
<path style=" stroke:none;fill-rule:nonzero;fill:rgb(100%,97.647059%,80.392158%);fill-opacity:1;" d="M 17.484375 15.386719 C 17.503906 15.773438 17.375 16.097656 17.203125 16.109375 C 17.027344 16.125 16.867188 15.824219 16.851562 15.441406 "/>
<path style=" stroke:none;fill-rule:nonzero;fill:rgb(96.862745%,88.627452%,54.11765%);fill-opacity:1;" d="M 17.445312 15.832031 C 17.4375 15.851562 17.433594 15.871094 17.425781 15.890625 C 17.371094 16.03125 17.292969 16.113281 17.203125 16.117188 C 17.019531 16.132812 16.859375 15.835938 16.839844 15.441406 C 16.839844 15.433594 16.84375 15.429688 16.847656 15.429688 C 16.851562 15.429688 16.855469 15.429688 16.855469 15.433594 C 16.859375 15.433594 16.859375 15.4375 16.859375 15.4375 C 16.878906 15.820312 17.03125 16.117188 17.203125 16.101562 C 17.28125 16.097656 17.355469 16.015625 17.40625 15.886719 C 17.457031 15.75 17.484375 15.574219 17.472656 15.386719 C 17.472656 15.382812 17.476562 15.378906 17.484375 15.378906 C 17.488281 15.378906 17.496094 15.382812 17.496094 15.386719 C 17.503906 15.535156 17.488281 15.6875 17.445312 15.832031 Z M 17.445312 15.832031 "/>
<path style=" stroke:none;fill-rule:nonzero;fill:rgb(100%,97.647059%,80.392158%);fill-opacity:1;" d="M 16.4375 15.429688 C 16.347656 15.808594 16.132812 16.089844 15.960938 16.054688 C 15.785156 16.019531 15.714844 15.683594 15.804688 15.300781 "/>
<path style=" stroke:none;fill-rule:nonzero;fill:rgb(96.862745%,88.627452%,54.11765%);fill-opacity:1;" d="M 16.273438 15.851562 C 16.261719 15.867188 16.25 15.886719 16.238281 15.902344 C 16.148438 16.023438 16.046875 16.078125 15.957031 16.0625 C 15.773438 16.023438 15.703125 15.691406 15.792969 15.300781 C 15.796875 15.296875 15.800781 15.292969 15.804688 15.296875 C 15.8125 15.296875 15.816406 15.300781 15.816406 15.304688 C 15.726562 15.679688 15.792969 16.011719 15.960938 16.046875 C 16.039062 16.0625 16.136719 16.007812 16.222656 15.894531 C 16.308594 15.78125 16.382812 15.609375 16.425781 15.425781 C 16.425781 15.421875 16.433594 15.417969 16.4375 15.421875 C 16.445312 15.421875 16.449219 15.425781 16.445312 15.429688 C 16.414062 15.578125 16.355469 15.722656 16.273438 15.851562 Z M 16.273438 15.851562 "/>
<path style=" stroke:none;fill-rule:nonzero;fill:rgb(100%,97.647059%,80.392158%);fill-opacity:1;" d="M 15.488281 15.304688 C 15.28125 15.640625 14.984375 15.84375 14.828125 15.753906 C 14.671875 15.664062 14.710938 15.316406 14.917969 14.976562 "/>
<path style=" stroke:none;fill-rule:nonzero;fill:rgb(96.862745%,88.627452%,54.11765%);fill-opacity:1;" d="M 15.199219 15.660156 C 15.179688 15.671875 15.164062 15.683594 15.148438 15.695312 C 15.019531 15.785156 14.902344 15.804688 14.824219 15.761719 C 14.660156 15.664062 14.695312 15.320312 14.910156 14.972656 C 14.914062 14.96875 14.917969 14.96875 14.925781 14.972656 C 14.925781 14.972656 14.929688 14.972656 14.929688 14.976562 C 14.929688 14.980469 14.929688 14.980469 14.929688 14.984375 C 14.722656 15.316406 14.679688 15.660156 14.832031 15.746094 C 14.902344 15.789062 15.011719 15.765625 15.132812 15.683594 C 15.257812 15.597656 15.378906 15.460938 15.480469 15.296875 C 15.484375 15.292969 15.488281 15.292969 15.492188 15.296875 C 15.5 15.300781 15.5 15.304688 15.5 15.308594 C 15.417969 15.441406 15.316406 15.558594 15.199219 15.660156 Z M 15.199219 15.660156 "/>
<path style=" stroke:none;fill-rule:nonzero;fill:rgb(100%,80.784315%,1.176471%);fill-opacity:1;" d="M 24.199219 15.496094 C 24.214844 15.472656 24.226562 15.449219 24.234375 15.421875 C 24.210938 15.4375 24.1875 15.457031 24.167969 15.476562 C 23.964844 15.726562 23.613281 16.125 23.25 16.539062 C 22.839844 17.007812 22.476562 16.707031 22.066406 16.382812 C 20.390625 15.042969 17.121094 16.277344 16.050781 17.078125 C 15.066406 17.835938 13.628906 19.371094 13.078125 20.6875 C 13.023438 20.816406 12.976562 20.949219 12.9375 21.082031 C 13.355469 21.199219 13.785156 21.277344 14.21875 21.316406 C 15.953125 21.496094 17.949219 21.214844 19.496094 20.933594 C 19.898438 20.855469 20.292969 20.746094 20.679688 20.605469 C 20.746094 20.578125 20.816406 20.550781 20.886719 20.523438 C 21.355469 20.675781 22.035156 20.777344 22.988281 20.808594 C 25.734375 20.910156 26.210938 20.449219 26.574219 20.3125 C 21.5625 20.792969 23.132812 16.894531 24.199219 15.496094 Z M 24.199219 15.496094 "/>
<path style=" stroke:none;fill-rule:nonzero;fill:rgb(100%,94.509804%,0%);fill-opacity:1;" d="M 22.945312 18.078125 C 22.160156 14.707031 17.503906 16.207031 16.160156 17.160156 C 15.152344 17.894531 13.675781 19.390625 13.089844 20.691406 C 13.03125 20.816406 12.980469 20.949219 12.9375 21.082031 C 13.335938 21.207031 13.765625 21.292969 14.210938 21.355469 C 16.535156 21.671875 18.949219 21.296875 20.945312 20.734375 C 22.339844 20.339844 23.265625 19.457031 22.945312 18.078125 Z M 22.945312 18.078125 "/>
<path style=" stroke:none;fill-rule:nonzero;fill:rgb(50.980395%,29.803923%,21.176471%);fill-opacity:1;" d="M 26.878906 15.941406 C 26.855469 15.910156 26.808594 15.902344 26.777344 15.925781 L 26.304688 16.285156 C 26.292969 16.292969 26.28125 16.289062 26.273438 16.28125 L 25.917969 15.808594 C 25.890625 15.777344 25.847656 15.773438 25.816406 15.796875 C 25.785156 15.820312 25.777344 15.863281 25.800781 15.894531 L 26.15625 16.367188 C 26.164062 16.378906 26.160156 16.390625 26.152344 16.398438 L 25.679688 16.757812 C 25.65625 16.773438 25.644531 16.796875 25.648438 16.824219 C 25.648438 16.851562 25.667969 16.875 25.691406 16.886719 C 25.71875 16.894531 25.746094 16.890625 25.769531 16.875 L 26.242188 16.515625 C 26.25 16.507812 26.265625 16.511719 26.269531 16.519531 L 26.628906 16.992188 C 26.652344 17.023438 26.699219 17.03125 26.730469 17.007812 C 26.761719 16.984375 26.769531 16.9375 26.746094 16.90625 L 26.386719 16.433594 C 26.382812 16.421875 26.382812 16.410156 26.394531 16.402344 L 26.863281 16.042969 C 26.898438 16.019531 26.902344 15.972656 26.878906 15.941406 Z M 26.878906 15.941406 "/>
<path style=" stroke:none;fill-rule:nonzero;fill:rgb(66.666669%,40.784314%,29.019609%);fill-opacity:1;" d="M 16.34375 8.550781 C 16.292969 8.675781 16.234375 8.796875 16.160156 8.910156 C 16.347656 8.683594 16.425781 8.539062 16.496094 8.378906 C 16.4375 8.429688 16.386719 8.488281 16.34375 8.550781 Z M 16.34375 8.550781 "/>
<path style=" stroke:none;fill-rule:nonzero;fill:rgb(66.666669%,40.784314%,29.019609%);fill-opacity:1;" d="M 16.070312 7.902344 C 16.070312 7.902344 16.128906 8.179688 16.117188 8.382812 C 16.101562 8.585938 16.042969 8.707031 15.890625 8.878906 C 15.890625 8.878906 16.039062 8.707031 16.066406 8.398438 C 16.078125 8.230469 16.058594 8.039062 16.070312 7.902344 Z M 16.070312 7.902344 "/>
<path style=" stroke:none;fill-rule:nonzero;fill:rgb(100%,94.509804%,0%);fill-opacity:1;" d="M 14.671875 20.410156 C 14.226562 20.566406 13.824219 20.570312 13.769531 20.417969 C 13.71875 20.265625 14.03125 20.011719 14.480469 19.855469 "/>
<path style=" stroke:none;fill-rule:nonzero;fill:rgb(100%,80.784315%,1.176471%);fill-opacity:1;" d="M 14.144531 20.539062 C 14.121094 20.539062 14.097656 20.539062 14.074219 20.539062 C 13.902344 20.542969 13.789062 20.5 13.761719 20.421875 C 13.707031 20.261719 14.019531 20.007812 14.472656 19.847656 C 14.480469 19.847656 14.484375 19.847656 14.488281 19.855469 C 14.488281 19.859375 14.484375 19.863281 14.480469 19.867188 C 14.042969 20.023438 13.730469 20.265625 13.78125 20.414062 C 13.804688 20.484375 13.910156 20.523438 14.074219 20.519531 C 14.246094 20.519531 14.453125 20.476562 14.667969 20.402344 C 14.671875 20.398438 14.671875 20.398438 14.675781 20.402344 C 14.679688 20.402344 14.679688 20.402344 14.679688 20.40625 C 14.683594 20.410156 14.683594 20.410156 14.679688 20.414062 C 14.679688 20.417969 14.675781 20.417969 14.675781 20.417969 C 14.503906 20.480469 14.328125 20.523438 14.144531 20.539062 Z M 14.144531 20.539062 "/>
<path style=" stroke:none;fill-rule:nonzero;fill:rgb(100%,94.509804%,0%);fill-opacity:1;" d="M 14.910156 20.914062 C 14.480469 21.101562 14.078125 21.132812 14.011719 20.984375 C 13.949219 20.835938 14.238281 20.597656 14.671875 20.410156 "/>
<path style=" stroke:none;fill-rule:nonzero;fill:rgb(100%,80.784315%,1.176471%);fill-opacity:1;" d="M 14.3125 21.089844 C 14.144531 21.101562 14.035156 21.066406 14.003906 20.992188 C 13.972656 20.917969 14.023438 20.816406 14.148438 20.707031 C 14.269531 20.601562 14.453125 20.496094 14.667969 20.402344 C 14.671875 20.398438 14.679688 20.402344 14.679688 20.40625 C 14.683594 20.410156 14.679688 20.417969 14.675781 20.417969 C 14.464844 20.511719 14.28125 20.617188 14.164062 20.722656 C 14.042969 20.824219 13.992188 20.917969 14.023438 20.984375 C 14.050781 21.050781 14.160156 21.082031 14.324219 21.066406 C 14.492188 21.054688 14.699219 20.996094 14.90625 20.90625 C 14.910156 20.90625 14.917969 20.910156 14.917969 20.914062 C 14.921875 20.917969 14.917969 20.921875 14.914062 20.925781 C 14.703125 21.015625 14.496094 21.074219 14.324219 21.085938 Z M 14.3125 21.089844 "/>
<path style=" stroke:none;fill-rule:nonzero;fill:rgb(100%,94.509804%,0%);fill-opacity:1;" d="M 17.453125 18.730469 C 16.609375 18.96875 15.855469 18.921875 15.777344 18.632812 C 15.695312 18.339844 16.316406 17.914062 17.160156 17.679688 "/>
<path style=" stroke:none;fill-rule:nonzero;fill:rgb(100%,80.784315%,1.176471%);fill-opacity:1;" d="M 16.460938 18.902344 C 16.414062 18.902344 16.371094 18.902344 16.328125 18.898438 C 16.003906 18.878906 15.800781 18.785156 15.761719 18.636719 C 15.675781 18.332031 16.289062 17.902344 17.15625 17.660156 C 17.167969 17.65625 17.175781 17.664062 17.179688 17.671875 C 17.183594 17.683594 17.175781 17.691406 17.167969 17.695312 C 16.332031 17.925781 15.71875 18.34375 15.796875 18.625 C 15.832031 18.757812 16.027344 18.84375 16.332031 18.859375 C 16.644531 18.878906 17.042969 18.828125 17.449219 18.714844 C 17.457031 18.710938 17.46875 18.71875 17.46875 18.726562 C 17.472656 18.734375 17.46875 18.746094 17.460938 18.75 C 17.101562 18.847656 16.753906 18.902344 16.460938 18.902344 Z M 16.460938 18.902344 "/>
<path style=" stroke:none;fill-rule:nonzero;fill:rgb(100%,94.509804%,0%);fill-opacity:1;" d="M 17.835938 19.703125 C 17.007812 20 16.253906 20.007812 16.15625 19.722656 C 16.054688 19.4375 16.628906 19.027344 17.453125 18.730469 "/>
<path style=" stroke:none;fill-rule:nonzero;fill:rgb(100%,80.784315%,1.176471%);fill-opacity:1;" d="M 16.703125 19.949219 C 16.386719 19.949219 16.1875 19.871094 16.136719 19.726562 C 16.085938 19.585938 16.191406 19.40625 16.445312 19.214844 C 16.679688 19.039062 17.039062 18.859375 17.445312 18.714844 C 17.457031 18.710938 17.46875 18.714844 17.46875 18.726562 C 17.472656 18.734375 17.46875 18.746094 17.460938 18.75 C 17.054688 18.894531 16.703125 19.070312 16.46875 19.246094 C 16.234375 19.421875 16.125 19.589844 16.171875 19.714844 C 16.21875 19.84375 16.417969 19.914062 16.722656 19.910156 C 17.039062 19.910156 17.429688 19.828125 17.828125 19.6875 C 17.839844 19.683594 17.847656 19.6875 17.851562 19.699219 C 17.855469 19.707031 17.851562 19.71875 17.839844 19.722656 C 17.441406 19.863281 17.042969 19.945312 16.722656 19.949219 Z M 16.703125 19.949219 "/>
<path style=" stroke:none;fill-rule:nonzero;fill:rgb(100%,94.509804%,0%);fill-opacity:1;" d="M 18.203125 20.738281 C 17.375 21.03125 16.625 21.039062 16.523438 20.753906 C 16.425781 20.46875 17.011719 20 17.839844 19.707031 "/>
<path style=" stroke:none;fill-rule:nonzero;fill:rgb(100%,80.784315%,1.176471%);fill-opacity:1;" d="M 17.070312 20.980469 C 16.757812 20.980469 16.558594 20.902344 16.507812 20.761719 C 16.457031 20.617188 16.566406 20.421875 16.820312 20.21875 C 17.070312 20.019531 17.429688 19.832031 17.832031 19.6875 C 17.84375 19.6875 17.851562 19.691406 17.855469 19.699219 C 17.859375 19.710938 17.855469 19.71875 17.84375 19.722656 C 17.445312 19.867188 17.089844 20.050781 16.84375 20.25 C 16.605469 20.4375 16.496094 20.621094 16.539062 20.75 C 16.585938 20.875 16.785156 20.949219 17.089844 20.945312 C 17.40625 20.941406 17.800781 20.863281 18.199219 20.71875 C 18.207031 20.714844 18.21875 20.722656 18.222656 20.730469 C 18.226562 20.742188 18.21875 20.75 18.210938 20.753906 C 17.808594 20.898438 17.410156 20.976562 17.09375 20.980469 Z M 17.070312 20.980469 "/>
<path style=" stroke:none;fill-rule:nonzero;fill:rgb(100%,94.509804%,0%);fill-opacity:1;" d="M 20.207031 17.679688 C 19.078125 17.996094 18.070312 17.9375 17.964844 17.542969 C 17.855469 17.152344 18.6875 16.574219 19.816406 16.257812 "/>
<path style=" stroke:none;fill-rule:nonzero;fill:rgb(100%,80.784315%,1.176471%);fill-opacity:1;" d="M 18.878906 17.90625 C 18.816406 17.90625 18.757812 17.90625 18.699219 17.902344 C 18.265625 17.875 17.996094 17.75 17.941406 17.550781 C 17.828125 17.136719 18.648438 16.558594 19.8125 16.234375 C 19.816406 16.230469 19.824219 16.230469 19.828125 16.234375 C 19.835938 16.238281 19.839844 16.242188 19.839844 16.25 C 19.84375 16.261719 19.835938 16.277344 19.824219 16.28125 C 18.707031 16.59375 17.882812 17.160156 17.988281 17.539062 C 18.035156 17.714844 18.296875 17.828125 18.703125 17.851562 C 19.125 17.878906 19.65625 17.808594 20.203125 17.652344 C 20.207031 17.652344 20.214844 17.652344 20.21875 17.65625 C 20.226562 17.660156 20.230469 17.664062 20.230469 17.671875 C 20.234375 17.683594 20.226562 17.699219 20.214844 17.703125 C 19.738281 17.835938 19.269531 17.90625 18.878906 17.90625 Z M 18.878906 17.90625 "/>
<path style=" stroke:none;fill-rule:nonzero;fill:rgb(100%,94.509804%,0%);fill-opacity:1;" d="M 20.71875 18.988281 C 19.609375 19.386719 18.605469 19.398438 18.46875 19.015625 C 18.335938 18.628906 19.101562 18.074219 20.207031 17.679688 "/>
<path style=" stroke:none;fill-rule:nonzero;fill:rgb(100%,80.784315%,1.176471%);fill-opacity:1;" d="M 19.203125 19.320312 C 18.785156 19.320312 18.515625 19.214844 18.445312 19.023438 C 18.378906 18.828125 18.519531 18.585938 18.859375 18.332031 C 19.175781 18.09375 19.652344 17.851562 20.199219 17.65625 C 20.210938 17.652344 20.226562 17.65625 20.230469 17.671875 C 20.234375 17.683594 20.230469 17.699219 20.214844 17.703125 C 19.671875 17.898438 19.203125 18.136719 18.886719 18.371094 C 18.574219 18.609375 18.433594 18.835938 18.492188 19.007812 C 18.554688 19.179688 18.820312 19.277344 19.230469 19.269531 C 19.652344 19.265625 20.175781 19.160156 20.710938 18.96875 C 20.714844 18.964844 20.722656 18.964844 20.730469 18.96875 C 20.734375 18.972656 20.738281 18.976562 20.742188 18.984375 C 20.746094 18.996094 20.738281 19.007812 20.726562 19.015625 C 20.1875 19.207031 19.65625 19.316406 19.230469 19.320312 Z M 19.203125 19.320312 "/>
<path style=" stroke:none;fill-rule:nonzero;fill:rgb(100%,94.509804%,0%);fill-opacity:1;" d="M 21.214844 20.386719 C 20.105469 20.78125 19.097656 20.792969 18.964844 20.410156 C 18.832031 20.023438 19.617188 19.390625 20.726562 18.992188 "/>
<path style=" stroke:none;fill-rule:nonzero;fill:rgb(100%,80.784315%,1.176471%);fill-opacity:1;" d="M 19.699219 20.714844 C 19.277344 20.714844 19.011719 20.609375 18.941406 20.417969 C 18.875 20.222656 19.023438 19.960938 19.363281 19.6875 C 19.699219 19.417969 20.179688 19.164062 20.71875 18.972656 C 20.722656 18.96875 20.730469 18.96875 20.738281 18.972656 C 20.742188 18.972656 20.746094 18.980469 20.75 18.984375 C 20.753906 19 20.746094 19.011719 20.734375 19.015625 C 20.203125 19.207031 19.726562 19.460938 19.394531 19.726562 C 19.078125 19.980469 18.929688 20.226562 18.988281 20.398438 C 19.050781 20.574219 19.316406 20.667969 19.722656 20.664062 C 20.148438 20.660156 20.671875 20.554688 21.207031 20.363281 C 21.210938 20.359375 21.21875 20.359375 21.222656 20.363281 C 21.230469 20.367188 21.234375 20.371094 21.238281 20.378906 C 21.242188 20.390625 21.234375 20.402344 21.222656 20.410156 C 20.683594 20.601562 20.152344 20.710938 19.726562 20.714844 Z M 19.699219 20.714844 "/>
<path style=" stroke:none;fill-rule:nonzero;fill:rgb(100%,94.509804%,0%);fill-opacity:1;" d="M 27.246094 19.226562 C 27.296875 19.605469 27.195312 19.9375 27.023438 19.964844 C 26.851562 19.996094 26.671875 19.707031 26.621094 19.328125 "/>
<path style=" stroke:none;fill-rule:nonzero;fill:rgb(100%,80.784315%,1.176471%);fill-opacity:1;" d="M 27.242188 19.671875 C 27.238281 19.691406 27.234375 19.710938 27.230469 19.730469 C 27.183594 19.871094 27.113281 19.960938 27.023438 19.972656 C 26.84375 20.003906 26.660156 19.71875 26.609375 19.328125 C 26.609375 19.324219 26.613281 19.320312 26.621094 19.316406 C 26.625 19.316406 26.632812 19.320312 26.632812 19.324219 C 26.679688 19.699219 26.855469 19.984375 27.023438 19.957031 C 27.101562 19.945312 27.167969 19.859375 27.207031 19.726562 C 27.25 19.589844 27.261719 19.410156 27.238281 19.226562 C 27.238281 19.222656 27.242188 19.21875 27.246094 19.21875 C 27.25 19.214844 27.257812 19.21875 27.257812 19.222656 C 27.277344 19.371094 27.273438 19.523438 27.242188 19.671875 Z M 27.242188 19.671875 "/>
<path style=" stroke:none;fill-rule:nonzero;fill:rgb(100%,94.509804%,0%);fill-opacity:1;" d="M 26.667969 19.355469 C 26.671875 19.734375 26.535156 20.046875 26.363281 20.054688 C 26.191406 20.0625 26.046875 19.757812 26.042969 19.378906 "/>
<path style=" stroke:none;fill-rule:nonzero;fill:rgb(100%,80.784315%,1.176471%);fill-opacity:1;" d="M 26.613281 19.789062 C 26.605469 19.808594 26.597656 19.828125 26.589844 19.847656 C 26.53125 19.980469 26.449219 20.058594 26.363281 20.0625 C 26.179688 20.070312 26.039062 19.769531 26.035156 19.378906 C 26.035156 19.375 26.039062 19.371094 26.042969 19.371094 C 26.050781 19.371094 26.054688 19.375 26.054688 19.378906 C 26.058594 19.753906 26.195312 20.050781 26.363281 20.046875 C 26.441406 20.042969 26.515625 19.96875 26.570312 19.84375 C 26.632812 19.6875 26.664062 19.523438 26.660156 19.355469 C 26.660156 19.351562 26.664062 19.347656 26.667969 19.347656 C 26.675781 19.347656 26.679688 19.351562 26.679688 19.355469 C 26.683594 19.503906 26.660156 19.648438 26.613281 19.789062 Z M 26.613281 19.789062 "/>
<path style=" stroke:none;fill-rule:nonzero;fill:rgb(100%,94.509804%,0%);fill-opacity:1;" d="M 26.050781 19.402344 C 26.015625 19.777344 25.84375 20.070312 25.671875 20.058594 C 25.503906 20.046875 25.394531 19.730469 25.433594 19.359375 "/>
<path style=" stroke:none;fill-rule:nonzero;fill:rgb(100%,80.784315%,1.176471%);fill-opacity:1;" d="M 25.949219 19.824219 C 25.941406 19.84375 25.929688 19.859375 25.921875 19.878906 C 25.847656 20.003906 25.757812 20.070312 25.671875 20.066406 C 25.492188 20.050781 25.382812 19.742188 25.421875 19.355469 C 25.421875 19.351562 25.429688 19.347656 25.433594 19.347656 C 25.441406 19.347656 25.445312 19.351562 25.445312 19.359375 C 25.40625 19.726562 25.507812 20.035156 25.671875 20.050781 C 25.75 20.054688 25.832031 19.988281 25.902344 19.871094 C 25.980469 19.726562 26.027344 19.566406 26.042969 19.402344 C 26.042969 19.394531 26.046875 19.394531 26.054688 19.394531 C 26.058594 19.394531 26.0625 19.398438 26.0625 19.402344 C 26.050781 19.550781 26.011719 19.691406 25.949219 19.824219 Z M 25.949219 19.824219 "/>
<path style=" stroke:none;fill-rule:nonzero;fill:rgb(100%,94.509804%,0%);fill-opacity:1;" d="M 25.449219 19.355469 C 25.367188 19.722656 25.160156 19.992188 24.992188 19.957031 C 24.824219 19.921875 24.757812 19.601562 24.84375 19.234375 "/>
<path style=" stroke:none;fill-rule:nonzero;fill:rgb(100%,80.784315%,1.176471%);fill-opacity:1;" d="M 25.296875 19.761719 C 25.285156 19.78125 25.273438 19.796875 25.261719 19.8125 C 25.171875 19.925781 25.078125 19.980469 24.992188 19.964844 C 24.816406 19.929688 24.75 19.609375 24.835938 19.234375 C 24.835938 19.230469 24.839844 19.226562 24.847656 19.230469 C 24.851562 19.230469 24.855469 19.234375 24.855469 19.238281 C 24.769531 19.597656 24.832031 19.917969 24.996094 19.949219 C 25.070312 19.964844 25.160156 19.910156 25.242188 19.800781 C 25.339844 19.667969 25.40625 19.515625 25.441406 19.355469 C 25.441406 19.351562 25.445312 19.347656 25.453125 19.351562 C 25.457031 19.351562 25.460938 19.355469 25.460938 19.359375 C 25.429688 19.503906 25.375 19.640625 25.296875 19.761719 Z M 25.296875 19.761719 "/>
<path style=" stroke:none;fill-rule:nonzero;fill:rgb(100%,94.509804%,0%);fill-opacity:1;" d="M 24.90625 19.214844 C 24.761719 19.5625 24.515625 19.792969 24.355469 19.734375 C 24.199219 19.671875 24.183594 19.34375 24.328125 18.996094 "/>
<path style=" stroke:none;fill-rule:nonzero;fill:rgb(100%,80.784315%,1.176471%);fill-opacity:1;" d="M 24.6875 19.589844 C 24.675781 19.605469 24.660156 19.621094 24.644531 19.632812 C 24.539062 19.734375 24.4375 19.769531 24.355469 19.738281 C 24.1875 19.675781 24.171875 19.347656 24.320312 18.992188 C 24.320312 18.988281 24.328125 18.988281 24.332031 18.988281 C 24.335938 18.992188 24.339844 18.996094 24.339844 19 C 24.195312 19.339844 24.207031 19.667969 24.359375 19.726562 C 24.433594 19.75 24.53125 19.714844 24.628906 19.621094 C 24.746094 19.503906 24.835938 19.363281 24.898438 19.210938 C 24.898438 19.207031 24.90625 19.207031 24.910156 19.207031 C 24.914062 19.210938 24.917969 19.214844 24.917969 19.21875 C 24.863281 19.355469 24.785156 19.480469 24.6875 19.589844 Z M 24.6875 19.589844 "/>
<path style=" stroke:none;fill-rule:nonzero;fill:rgb(100%,94.509804%,0%);fill-opacity:1;" d="M 24.460938 18.980469 C 24.246094 19.289062 23.953125 19.460938 23.808594 19.363281 C 23.667969 19.269531 23.726562 18.945312 23.945312 18.636719 "/>
<path style=" stroke:none;fill-rule:nonzero;fill:rgb(100%,80.784315%,1.176471%);fill-opacity:1;" d="M 24.164062 19.300781 C 24.148438 19.3125 24.132812 19.320312 24.113281 19.332031 C 23.988281 19.40625 23.878906 19.417969 23.804688 19.371094 C 23.65625 19.273438 23.714844 18.949219 23.9375 18.632812 C 23.941406 18.628906 23.945312 18.628906 23.949219 18.632812 C 23.953125 18.632812 23.957031 18.640625 23.953125 18.644531 C 23.738281 18.945312 23.675781 19.265625 23.8125 19.359375 C 23.878906 19.402344 23.980469 19.386719 24.101562 19.316406 C 24.238281 19.226562 24.359375 19.113281 24.453125 18.976562 C 24.457031 18.972656 24.460938 18.972656 24.464844 18.976562 C 24.46875 18.976562 24.472656 18.984375 24.46875 18.988281 C 24.386719 19.109375 24.285156 19.214844 24.164062 19.300781 Z M 24.164062 19.300781 "/>
<path style=" stroke:none;fill-rule:nonzero;fill:rgb(100%,94.509804%,0%);fill-opacity:1;" d="M 24.148438 18.636719 C 23.851562 18.875 23.519531 18.960938 23.410156 18.828125 C 23.296875 18.699219 23.445312 18.398438 23.742188 18.160156 "/>
<path style=" stroke:none;fill-rule:nonzero;fill:rgb(100%,80.784315%,1.176471%);fill-opacity:1;" d="M 23.769531 18.863281 C 23.75 18.871094 23.734375 18.875 23.714844 18.878906 C 23.570312 18.917969 23.460938 18.902344 23.402344 18.832031 C 23.285156 18.695312 23.429688 18.398438 23.734375 18.152344 C 23.738281 18.148438 23.742188 18.152344 23.746094 18.15625 C 23.75 18.160156 23.75 18.164062 23.746094 18.167969 C 23.453125 18.402344 23.304688 18.695312 23.414062 18.824219 C 23.464844 18.882812 23.570312 18.894531 23.703125 18.859375 C 23.863281 18.8125 24.011719 18.734375 24.140625 18.628906 C 24.144531 18.625 24.148438 18.625 24.152344 18.628906 C 24.15625 18.632812 24.15625 18.640625 24.152344 18.644531 C 24.039062 18.738281 23.910156 18.8125 23.769531 18.863281 Z M 23.769531 18.863281 "/>
<path style=" stroke:none;fill-rule:nonzero;fill:rgb(100%,94.509804%,0%);fill-opacity:1;" d="M 23.988281 18.132812 C 23.636719 18.28125 23.289062 18.269531 23.214844 18.109375 C 23.144531 17.953125 23.371094 17.703125 23.726562 17.554688 "/>
<path style=" stroke:none;fill-rule:nonzero;fill:rgb(100%,80.784315%,1.176471%);fill-opacity:1;" d="M 23.558594 18.246094 C 23.539062 18.246094 23.519531 18.246094 23.5 18.246094 C 23.347656 18.242188 23.246094 18.195312 23.207031 18.113281 C 23.132812 17.949219 23.359375 17.699219 23.722656 17.542969 C 23.726562 17.542969 23.730469 17.546875 23.734375 17.550781 C 23.734375 17.558594 23.734375 17.5625 23.730469 17.5625 C 23.378906 17.710938 23.152344 17.953125 23.222656 18.109375 C 23.257812 18.179688 23.355469 18.222656 23.496094 18.226562 C 23.664062 18.226562 23.832031 18.191406 23.984375 18.121094 C 23.988281 18.121094 23.996094 18.125 23.996094 18.128906 C 24 18.132812 24 18.136719 23.992188 18.140625 C 23.855469 18.199219 23.710938 18.234375 23.558594 18.246094 Z M 23.558594 18.246094 "/>
<path style=" stroke:none;fill-rule:nonzero;fill:rgb(100%,94.509804%,0%);fill-opacity:1;" d="M 9.191406 18.425781 C 7.816406 18.625 6.597656 18.589844 6.464844 18.339844 C 6.335938 18.09375 7.34375 17.730469 8.71875 17.527344 "/>
<path style=" stroke:none;fill-rule:nonzero;fill:rgb(100%,80.784315%,1.176471%);fill-opacity:1;" d="M 7.574219 18.570312 C 7.5 18.570312 7.429688 18.570312 7.359375 18.566406 C 6.832031 18.550781 6.503906 18.472656 6.4375 18.34375 C 6.300781 18.085938 7.296875 17.71875 8.710938 17.515625 C 8.722656 17.511719 8.738281 17.515625 8.746094 17.523438 C 8.75 17.53125 8.742188 17.542969 8.726562 17.542969 C 7.367188 17.742188 6.367188 18.097656 6.492188 18.335938 C 6.550781 18.449219 6.871094 18.519531 7.363281 18.535156 C 7.875 18.550781 8.523438 18.507812 9.183594 18.410156 C 9.199219 18.40625 9.210938 18.410156 9.222656 18.421875 C 9.226562 18.429688 9.214844 18.4375 9.199219 18.441406 C 8.664062 18.523438 8.121094 18.566406 7.574219 18.570312 Z M 7.574219 18.570312 "/>
<path style=" stroke:none;fill-rule:nonzero;fill:rgb(100%,94.509804%,0%);fill-opacity:1;" d="M 9.8125 19.253906 C 8.46875 19.503906 7.246094 19.511719 7.082031 19.269531 C 6.917969 19.027344 7.847656 18.675781 9.191406 18.425781 "/>
<path style=" stroke:none;fill-rule:nonzero;fill:rgb(100%,80.784315%,1.176471%);fill-opacity:1;" d="M 7.972656 19.460938 C 7.460938 19.460938 7.132812 19.394531 7.054688 19.273438 C 6.972656 19.152344 7.140625 19 7.554688 18.839844 C 7.9375 18.6875 8.519531 18.535156 9.183594 18.410156 C 9.195312 18.410156 9.210938 18.414062 9.222656 18.421875 C 9.226562 18.429688 9.21875 18.4375 9.203125 18.441406 C 8.542969 18.566406 7.972656 18.714844 7.589844 18.863281 C 7.207031 19.011719 7.035156 19.15625 7.109375 19.265625 C 7.183594 19.371094 7.507812 19.433594 8.003906 19.429688 C 8.515625 19.429688 9.15625 19.359375 9.804688 19.238281 C 9.816406 19.234375 9.832031 19.238281 9.84375 19.25 C 9.847656 19.257812 9.839844 19.265625 9.824219 19.269531 C 9.171875 19.390625 8.523438 19.460938 8.003906 19.460938 Z M 7.972656 19.460938 "/>
</g>
</svg>
