<?xml version="1.0" encoding="utf-8"?>
<svg viewBox="176.329 177.607 30.703 32" width="30.703" height="32" xmlns="http://www.w3.org/2000/svg" xmlns:xlink="http://www.w3.org/1999/xlink">
  <defs>
    <linearGradient id="Безымянный_градиент_6" x1="250.41" y1="-315.39" x2="346.76" y2="-315.39" gradientTransform="matrix(0.199751, -0.114816, 0.114816, 0.199751, 166.799767, 301.888284)" gradientUnits="userSpaceOnUse">
      <stop offset="0" stop-color="#2980f3"/>
      <stop offset="1" stop-color="#2652d9"/>
    </linearGradient>
    <linearGradient id="Безымянный_градиент_6-2" x1="268.19" y1="-355.21" x2="332.81" y2="-355.21" gradientTransform="matrix(0.197862, -0.11373, 0.11373, 0.197862, 199.511651, 334.005072)" xlink:href="#Безымянный_градиент_6"/>
    <linearGradient id="Безымянный_градиент_6-3" x1="286.93" y1="-392.73" x2="320.28" y2="-392.73" gradientTransform="matrix(0.197862, -0.11373, 0.11373, 0.197862, 199.511651, 334.005072)" xlink:href="#Безымянный_градиент_6"/>
    <linearGradient id="Безымянный_градиент_6-4" x1="8366.58" y1="2144.55" x2="8266.31" y2="2144.55" gradientTransform="matrix(-0.199751, 0.114816, -0.114816, -0.199751, 2102.686954, -343.262268)" xlink:href="#Безымянный_градиент_6"/>
    <linearGradient id="Безымянный_градиент_6-5" x1="8352.46" y1="2103.86" x2="8283.62" y2="2103.86" gradientTransform="matrix(-0.199751, 0.114816, -0.114816, -0.199751, 2102.686954, -343.262268)" xlink:href="#Безымянный_градиент_6"/>
    <linearGradient id="Безымянный_градиент_6-6" x1="8338.52" y1="2064.09" x2="8300.28" y2="2064.09" gradientTransform="matrix(-0.199751, 0.114816, -0.114816, -0.199751, 2102.686954, -343.262268)" xlink:href="#Безымянный_градиент_6"/>
  </defs>
  <path class="cls-2" d="M 198.224 200.767 L 200.484 202.976 C 200.62 203.113 200.62 203.334 200.484 203.471 C 200.443 203.511 200.394 203.539 200.342 203.557 L 179.918 209.607 L 177.08 206.828 L 198.224 200.767 Z" style="fill: url(#Безымянный_градиент_6);"/>
  <path class="cls-3" d="M 190.444 193.71 L 192.713 195.954 C 192.847 196.089 192.847 196.307 192.713 196.442 C 192.67 196.486 192.616 196.518 192.555 196.534 L 179.193 200.239 L 176.398 197.475 L 190.444 193.71 Z" style="fill: url(#Безымянный_градиент_6-2);"/>
  <path class="cls-4" d="M 183.312 186.926 L 185.372 189.001 C 185.507 189.137 185.507 189.357 185.372 189.494 C 185.326 189.537 185.27 189.57 185.209 189.586 L 178.863 191.237 L 176.329 188.673 L 183.312 186.926 Z" style="fill: url(#Безымянный_градиент_6-3);"/>
  <path class="cls-5" d="M 184.045 187.8 L 179.716 183.471 C 179.582 183.336 179.582 183.117 179.716 182.982 C 179.762 182.937 179.82 182.904 179.882 182.888 L 201.042 177.607 L 205.649 182.215 L 184.045 187.8 Z" style="fill: url(#Безымянный_градиент_6-4);"/>
  <path class="cls-6" d="M 191.699 195.058 L 187.991 191.298 C 187.855 191.161 187.855 190.94 187.991 190.804 C 188.035 190.761 188.091 190.73 188.151 190.714 L 202.108 187.005 L 206.149 191.046 L 191.699 195.058 Z" style="fill: url(#Безымянный_градиент_6-5);"/>
  <path class="cls-7" d="M 199.765 202.375 L 195.773 198.35 C 195.635 198.214 195.635 197.993 195.773 197.856 C 195.814 197.815 195.866 197.785 195.922 197.769 L 202.617 195.822 L 207.032 200.225 L 199.765 202.375 Z" style="fill: url(#Безымянный_градиент_6-6);"/>
</svg>